<svg width="18" height="18" viewBox="0 0 18 18" fill="none" xmlns="http://www.w3.org/2000/svg">
<path d="M16.5938 0.421875H3.09375C2.7582 0.422241 2.43649 0.555701 2.19922 0.792972C1.96195 1.03024 1.82849 1.35195 1.82812 1.6875V2.10937H1.40625C1.0707 2.10974 0.748994 2.2432 0.511723 2.48047C0.274451 2.71774 0.140991 3.03945 0.140625 3.375V14.0625C0.140991 14.3981 0.27445 14.7198 0.511722 14.957C0.748993 15.1943 1.0707 15.3278 1.40625 15.3281H4.07812V17.1562C4.0783 17.2325 4.09914 17.3073 4.13842 17.3727C4.17769 17.4381 4.23395 17.4917 4.30121 17.5277C4.36847 17.5637 4.44422 17.5808 4.52042 17.5772C4.59662 17.5736 4.67043 17.5494 4.734 17.5072L8.00271 15.3281H8.57812V15.75C8.57849 16.0856 8.71195 16.4073 8.94922 16.6445C9.18649 16.8818 9.5082 17.0153 9.84375 17.0156H16.5938C16.9293 17.0153 17.251 16.8818 17.4883 16.6445C17.7256 16.4073 17.859 16.0856 17.8594 15.75V14.0625C17.859 13.7269 17.7255 13.4052 17.4883 13.168C17.251 12.9307 16.9293 12.7972 16.5938 12.7969H16.1719V11.9531H16.5938C16.9293 11.9528 17.251 11.8193 17.4883 11.582C17.7256 11.3448 17.859 11.0231 17.8594 10.6875V1.6875C17.859 1.35195 17.7255 1.03024 17.4883 0.792972C17.251 0.555701 16.9293 0.422241 16.5938 0.421875V0.421875ZM7.875 14.4844C7.79172 14.4844 7.71031 14.5091 7.641 14.5552L4.92188 16.368V14.9062C4.92188 14.8508 4.91098 14.796 4.88978 14.7448C4.86858 14.6936 4.83751 14.6471 4.79833 14.6079C4.75915 14.5687 4.71264 14.5377 4.66145 14.5165C4.61027 14.4953 4.5554 14.4844 4.5 14.4844H1.40625C1.2944 14.4843 1.18716 14.4398 1.10807 14.3607C1.02898 14.2816 0.984497 14.1743 0.984375 14.0625V3.375C0.984497 3.26315 1.02898 3.15591 1.10807 3.07682C1.18716 2.99773 1.2944 2.95325 1.40625 2.95312H14.9062C15.0181 2.95325 15.1253 2.99773 15.2044 3.07682C15.2835 3.15591 15.328 3.26315 15.3281 3.375V14.0625C15.328 14.1743 15.2835 14.2816 15.2044 14.3607C15.1253 14.4398 15.0181 14.4843 14.9062 14.4844H7.875ZM16.5938 13.6406C16.7056 13.6407 16.8128 13.6852 16.8919 13.7643C16.971 13.8434 17.0155 13.9506 17.0156 14.0625V15.75C17.0155 15.8618 16.971 15.9691 16.8919 16.0482C16.8128 16.1273 16.7056 16.1718 16.5938 16.1719H9.84375C9.7319 16.1718 9.62466 16.1273 9.54557 16.0482C9.46648 15.9691 9.422 15.8618 9.42188 15.75V15.3281H14.9062C15.2418 15.3278 15.5635 15.1943 15.8008 14.957C16.0381 14.7198 16.1715 14.3981 16.1719 14.0625V13.6406H16.5938ZM17.0156 10.6875C17.0155 10.7993 16.971 10.9066 16.8919 10.9857C16.8128 11.0648 16.7056 11.1093 16.5938 11.1094H16.1719V3.375C16.1715 3.03945 16.038 2.71774 15.8008 2.48047C15.5635 2.2432 15.2418 2.10974 14.9062 2.10937H2.67188V1.6875C2.672 1.57565 2.71648 1.46841 2.79557 1.38932C2.87466 1.31023 2.9819 1.26575 3.09375 1.26562H16.5938C16.7056 1.26575 16.8128 1.31023 16.8919 1.38932C16.971 1.46841 17.0155 1.57565 17.0156 1.6875V10.6875Z" fill="#121243"/>
<circle cx="4" cy="9" r="1" fill="#121243"/>
<circle cx="8" cy="9" r="1" fill="#121243"/>
<circle cx="12" cy="9" r="1" fill="#121243"/>
</svg>
