<svg width="22" height="22" viewBox="0 0 22 22" fill="none" xmlns="http://www.w3.org/2000/svg">
<g clip-path="url(#clip0_2880:15897)">
<path d="M19.7083 3.66699H2.29165C1.0285 3.66699 0 4.69549 0 5.95869V16.042C0 17.3052 1.0285 18.3337 2.29165 18.3337H19.7083C20.9715 18.3337 22 17.3052 22 16.042V5.95869C22 4.69549 20.9715 3.66699 19.7083 3.66699ZM21.0833 16.042C21.0833 16.8001 20.4664 17.417 19.7083 17.417H2.29165C1.53355 17.417 0.916652 16.8001 0.916652 16.042V5.95869C0.916652 5.20059 1.53355 4.58369 2.29165 4.58369H19.7083C20.4664 4.58369 21.0833 5.20059 21.0833 5.95869V16.042H21.0833Z" fill="#000000"/>
<path d="M21.5417 6.41699H0.458348C0.205348 6.41699 0 6.62234 0 6.87534V9.62534C0 9.87834 0.205348 10.0837 0.458348 10.0837H21.5417C21.7947 10.0837 22 9.87834 22 9.62534V6.87534C22 6.62234 21.7947 6.41699 21.5417 6.41699ZM21.0833 9.16699H0.916652V7.33364H21.0833V9.16699H21.0833Z" fill="#000000"/>
<path d="M6.875 12.833H3.20835C2.95535 12.833 2.75 13.0384 2.75 13.2914C2.75 13.5444 2.95535 13.7497 3.20835 13.7497H6.875C7.128 13.7497 7.33335 13.5443 7.33335 13.2913C7.33335 13.0383 7.128 12.833 6.875 12.833Z" fill="#000000"/>
<path d="M9.625 14.667H3.20835C2.95535 14.667 2.75 14.8723 2.75 15.1253C2.75 15.3783 2.95535 15.5837 3.20835 15.5837H9.625C9.878 15.5837 10.0833 15.3783 10.0833 15.1253C10.0833 14.8723 9.878 14.667 9.625 14.667Z" fill="#000000"/>
</g>
<defs>
<clipPath id="clip0_2880:15897">
<rect width="22" height="22" fill="white"/>
</clipPath>
</defs>
</svg>
