<svg width="22" height="22" viewBox="0 0 22 22" fill="none" xmlns="http://www.w3.org/2000/svg">
<path d="M21.9956 11.8391C21.9693 11.2298 21.3732 10.7432 20.2204 10.3926C19.3262 10.1252 18.1909 9.96299 16.9635 9.93669V5.25966C16.9592 5.18076 16.9372 5.10624 16.8978 5.04049C16.7751 4.51011 16.1833 4.08054 15.1357 3.76494C14.1494 3.46687 12.8607 3.30469 11.5063 3.30469C10.1562 3.30469 8.88065 3.46687 7.91193 3.76494C7.11855 4.01041 6.16736 4.46627 6.16736 5.25089C6.16736 5.29911 6.17175 5.34733 6.18051 5.39554L6.22873 7.39435C3.37956 6.85081 0.631201 8.7225 0.0920502 11.5673C0.0306834 11.8917 0 12.216 0 12.5448C0 15.4378 2.35386 17.7916 5.24686 17.7916C6.45228 17.7916 7.61825 17.3796 8.5519 16.6169C9.37159 16.8098 10.3359 16.915 11.3572 16.9237C11.5808 18.1379 14.2108 18.6946 16.6611 18.6946C18.0112 18.6946 19.2867 18.528 20.2554 18.2256C21.0488 17.9801 22 17.5199 22 16.7353V11.9223C22 11.896 22 11.8654 21.9956 11.8391ZM16.0474 7.68365C16.0474 7.74063 15.837 8.04308 14.8858 8.33238C13.996 8.59977 12.7643 8.75757 11.5107 8.75757C10.428 8.75757 9.36721 8.6436 8.5256 8.42882C8.51245 8.42443 8.50369 8.42443 8.49054 8.42005C8.07412 8.0913 7.61387 7.8283 7.11855 7.6442L7.08787 6.40809C7.39032 6.56151 7.70592 6.68425 8.03467 6.77191C8.98585 7.04806 10.2176 7.1971 11.5107 7.1971C12.8607 7.1971 14.1538 7.03491 15.1401 6.73685C15.4688 6.64041 15.7888 6.51329 16.0913 6.35549V7.50393C16.043 7.5653 16.0474 7.62228 16.0474 7.68365ZM8.17494 4.61092C9.06037 4.33916 10.2439 4.18574 11.5063 4.18574C12.7599 4.18574 13.9916 4.33916 14.8815 4.61092C15.8326 4.90022 16.043 5.19829 16.043 5.25528C16.043 5.31664 15.8283 5.61909 14.8771 5.90401C13.9872 6.17139 12.7599 6.32481 11.5063 6.32481C10.2965 6.32481 9.14804 6.18454 8.27575 5.93031C7.33333 5.65854 7.07033 5.36048 7.04842 5.26404C7.04842 5.25528 7.04403 5.25528 7.04403 5.25528C7.04842 5.17199 7.25005 4.89146 8.17494 4.61092ZM8.18809 15.7797C6.40406 17.4015 3.63818 17.2744 2.01634 15.4904C0.394501 13.7064 0.521618 10.9405 2.30564 9.31864C3.10779 8.58662 4.15979 8.18335 5.24686 8.18335C5.6852 8.18335 6.11915 8.2491 6.53995 8.37622C8.06097 8.84962 9.20502 10.112 9.52939 11.6681C9.58637 11.9574 9.61705 12.2555 9.61705 12.5492C9.62144 13.7809 9.09982 14.9512 8.18809 15.7797ZM9.30145 15.8761C9.65651 15.4422 9.94142 14.9556 10.1431 14.434C10.5156 14.4647 10.9014 14.4866 11.3046 14.491V14.5699L11.3309 16.0558C10.6515 16.0471 9.97211 15.9857 9.30145 15.8761ZM10.4718 12.0275C10.726 12.0451 10.9934 12.0538 11.2652 12.0582L11.2915 13.6099C10.9847 13.6055 10.6822 13.5924 10.3929 13.5705C10.4587 13.233 10.4937 12.8867 10.4937 12.5448C10.4937 12.3738 10.485 12.2029 10.4718 12.0275ZM11.5501 11.1859C11.537 11.1859 11.5194 11.1859 11.5063 11.1859C11.0855 11.1859 10.6778 11.1684 10.3009 11.1421C10.1343 10.5547 9.87129 10.0024 9.51624 9.5115C10.1737 9.59479 10.8356 9.63862 11.5019 9.63862C12.8563 9.63862 14.1494 9.47643 15.1357 9.17837C15.4644 9.08193 15.78 8.95482 16.0825 8.8014V9.94984C14.202 10.0024 12.269 10.3969 11.5501 11.1859ZM12.1287 11.8829C12.1287 11.8785 12.1287 11.8741 12.1331 11.8654C12.1725 11.747 12.4838 11.4577 13.3911 11.2035C14.2415 10.9624 15.3505 10.8309 16.5164 10.8309H16.591C17.8446 10.8309 19.0719 10.9755 19.9661 11.2473C20.8998 11.5278 21.1189 11.8171 21.1233 11.8829V11.8873C21.1189 11.953 20.8998 12.2555 19.9267 12.5448C19.0281 12.8122 17.8446 12.9568 16.5953 12.9568C15.3855 12.9568 14.2371 12.8165 13.3648 12.5667C12.4224 12.2949 12.1638 11.9925 12.1375 11.9004C12.1287 11.8829 12.1287 11.8829 12.1287 11.8829ZM20.0012 17.3928C19.1158 17.6689 17.9279 17.8223 16.6655 17.8223C15.3987 17.8223 14.2152 17.6733 13.3385 17.4059C12.4136 17.121 12.2208 16.8273 12.2208 16.7616C12.2208 16.7572 12.2208 16.7572 12.2208 16.7528L12.1988 15.4816C12.5495 15.6526 12.9133 15.7841 13.2903 15.8805C14.2108 16.1216 15.3812 16.2575 16.5822 16.2575C17.9366 16.2575 19.221 16.0953 20.2028 15.7972C20.5228 15.7008 20.8296 15.5737 21.1233 15.4246V16.7396H21.1277C21.1277 16.801 20.9261 17.1035 20.0012 17.3928ZM21.1321 14.1666H21.1277C21.1277 14.2104 21.1014 14.263 21.1014 14.3113C21.1014 14.3726 20.8954 14.6707 19.9486 14.96C19.05 15.2318 17.8534 15.3808 16.5866 15.3808C14.1582 15.3808 12.5232 14.8329 12.1813 14.4077L12.1769 14.0395L12.1594 13.0313C12.4662 13.1847 12.7862 13.3075 13.115 13.3995C14.0662 13.6757 15.2979 13.8247 16.591 13.8247C17.9235 13.8247 19.1947 13.6669 20.1721 13.3776C20.5053 13.2856 20.8253 13.1584 21.1321 13.0006V14.1666V14.1666Z" fill="#000000"/>
<path d="M6.84279 13.1675C6.64116 12.453 5.98804 11.9621 5.24725 11.9621C4.81768 11.9621 4.46701 11.6158 4.46701 11.1862C4.4714 10.7523 4.81768 10.406 5.24725 10.406C5.67682 10.406 6.02749 10.7566 6.02749 11.1862C6.02749 11.4273 6.22474 11.6245 6.46582 11.6245C6.70691 11.6245 6.90416 11.4273 6.90416 11.1862C6.90416 10.4454 6.41322 9.7923 5.69874 9.59066V9.39341C5.69874 9.15233 5.50149 8.95508 5.2604 8.95508C5.01932 8.95508 4.82207 9.15233 4.82207 9.39341V9.5819C3.94101 9.8186 3.41501 10.726 3.65171 11.607C3.84458 12.3303 4.4977 12.8343 5.24725 12.8343C5.67682 12.8343 6.02749 13.1806 6.02749 13.6102C6.02749 14.0398 5.6812 14.3904 5.25163 14.3904C4.82207 14.3904 4.4714 14.0442 4.4714 13.6146C4.4714 13.3735 4.27415 13.1762 4.03306 13.1762C3.79198 13.1762 3.59473 13.3735 3.59473 13.6146C3.59911 14.3641 4.09881 15.0173 4.82207 15.2145V15.5959C4.82207 15.8369 5.01932 16.0342 5.2604 16.0342C5.50149 16.0342 5.69874 15.8369 5.69874 15.5959V15.2101C6.57979 14.9603 7.09264 14.0485 6.84279 13.1675Z" fill="#000000"/>
</svg>
