<svg width="18" height="18" viewBox="0 0 18 18" fill="none" xmlns="http://www.w3.org/2000/svg">
<mask id="path-1-outside-1_9770_69689" maskUnits="userSpaceOnUse" x="0" y="2" width="17" height="14" fill="black">
<rect fill="white" y="2" width="17" height="14"/>
<path d="M3.53651 14.9607L3.37667 14.9879V14.9882H3.37569C3.15226 15.0264 2.93301 14.9697 2.76003 14.8469C2.58681 14.7245 2.46024 14.5368 2.42181 14.3134C2.37749 14.2422 1.14411 6.84849 1.01177 6.07538C0.973588 5.85158 1.0303 5.63232 1.15307 5.45912C1.27583 5.28593 1.46378 5.15934 1.68758 5.1209L14.0114 3.01173C14.2352 2.97355 14.4545 3.03063 14.6275 3.15303C14.8007 3.27579 14.9275 3.46374 14.9657 3.68754L15.1819 4.94941H15.8233C16.0509 4.94941 16.2578 5.04258 16.4077 5.19248C16.5576 5.342 16.6504 5.54899 16.6504 5.77646V14.1336C16.6504 14.3612 16.5576 14.568 16.4077 14.7176C16.2578 14.8675 16.0509 14.9606 15.8233 14.9606L3.53651 14.9607ZM12.0822 10.7492C12.0608 10.7492 12.0434 10.7055 12.0434 10.6516C12.0434 10.5979 12.061 10.5543 12.0822 10.5543H15.0301C15.0515 10.5543 15.0689 10.5981 15.0689 10.6516C15.0689 10.7056 15.0513 10.7492 15.0301 10.7492H12.0822ZM3.85487 13.3887C3.80637 13.3887 3.76721 13.345 3.76721 13.2915C3.76721 13.2374 3.80637 13.1939 3.85487 13.1939H10.4467C10.4948 13.1939 10.5344 13.2376 10.5344 13.2915C10.5344 13.3451 10.4948 13.3887 10.4467 13.3887H3.85487ZM3.85487 12.2227C3.81288 12.2227 3.77887 12.179 3.77887 12.1251C3.77887 12.0714 3.81288 12.0278 3.85487 12.0278H9.53942C9.5814 12.0278 9.61541 12.0715 9.61541 12.1251C9.61541 12.1791 9.58141 12.2227 9.53942 12.2227H3.85487ZM3.85487 10.9595C3.81914 10.9595 3.79054 10.9158 3.79054 10.8619C3.79054 10.8082 3.81902 10.7646 3.85487 10.7646H8.72985C8.76521 10.7646 8.79418 10.8083 8.79418 10.8619C8.79418 10.9159 8.76533 10.9595 8.72985 10.9595H3.85487ZM13.855 6.19729C14.2012 6.19729 14.5146 6.33785 14.7411 6.56436C14.968 6.79122 15.1082 7.10475 15.1082 7.45083C15.1082 7.79665 14.968 8.11007 14.7411 8.3367C14.5146 8.56356 14.201 8.70377 13.855 8.70377C13.5109 8.70377 13.1988 8.56492 12.9723 8.33978C12.873 8.43848 12.7575 8.52024 12.6296 8.58137C12.4656 8.65969 12.2824 8.70377 12.0899 8.70377C11.7437 8.70377 11.4307 8.56357 11.2038 8.3367C10.977 8.1102 10.8368 7.79665 10.8368 7.45083C10.8368 7.10462 10.977 6.79123 11.2038 6.56436C11.4307 6.33786 11.7439 6.19729 12.0899 6.19729C12.2824 6.19729 12.4656 6.24124 12.6296 6.32005C12.7575 6.38118 12.8733 6.46307 12.9726 6.56165C13.1991 6.3365 13.5113 6.19728 13.855 6.19728V6.19729ZM12.819 8.15583C12.6822 7.95512 12.6021 7.71205 12.6021 7.45079C12.6021 7.18919 12.6821 6.94623 12.8194 6.74541C12.7355 6.65874 12.6368 6.58692 12.5272 6.53475C12.3956 6.47153 12.2471 6.43642 12.0899 6.43642C11.8098 6.43642 11.5562 6.54985 11.3725 6.73338C11.1893 6.91691 11.0755 7.17066 11.0755 7.4508C11.0755 7.73057 11.1893 7.98434 11.3725 8.16784C11.556 8.35137 11.8098 8.46481 12.0899 8.46481C12.2471 8.46481 12.3955 8.42945 12.5272 8.36647C12.6368 8.31418 12.7355 8.24236 12.819 8.15581L12.819 8.15583ZM14.5724 6.7335C14.3889 6.54997 14.1351 6.43654 13.855 6.43654C13.5749 6.43654 13.3212 6.5496 13.138 6.73313V6.7335C12.9544 6.91703 12.841 7.17078 12.841 7.45092C12.841 7.73069 12.9544 7.98446 13.138 8.16796C13.3215 8.35147 13.5752 8.46493 13.855 8.46493C14.1351 8.46493 14.3888 8.35149 14.5724 8.16796C14.756 7.98444 14.8694 7.73069 14.8694 7.45092C14.8694 7.17077 14.756 6.91716 14.5724 6.7335V6.7335ZM14.8189 4.94916L14.7729 4.67933L13.1948 4.94916H14.8189ZM11.78 4.94916L14.7326 4.44425L14.6133 3.74744C14.5913 3.61989 14.5198 3.51334 14.4222 3.44398C14.3242 3.37486 14.1995 3.34257 14.0719 3.36455L4.81094 4.94917L11.78 4.94916ZM2.62961 5.32248L1.74792 5.47336C1.62037 5.49533 1.51381 5.5669 1.44445 5.66487C1.37533 5.76283 1.34305 5.88731 1.36502 6.01475C1.39866 6.21276 1.44199 6.44712 1.49221 6.71007L2.49344 6.53858V5.77621C2.49344 5.60913 2.54366 5.45311 2.62959 5.32247L2.62961 5.32248ZM2.49346 6.78064L1.53688 6.94465C1.6551 7.55553 1.80291 8.29112 1.9549 9.06278L2.49359 8.97071V6.78074L2.49346 6.78064ZM2.49346 9.21257L2.00094 9.29679C2.17587 10.1884 2.35289 11.1159 2.49346 11.9445V9.21257ZM15.8236 5.30774H3.32063C3.1921 5.30774 3.07486 5.36028 2.98967 5.4456C2.90472 5.53055 2.85181 5.64767 2.85181 5.77631V14.1334C2.85181 14.262 2.90472 14.3792 2.98967 14.4641C3.07486 14.5493 3.1921 14.602 3.32063 14.602H15.8236C15.9525 14.602 16.0694 14.5495 16.1546 14.4641C16.2395 14.3792 16.2925 14.2621 16.2925 14.1334V5.77631C16.2925 5.64778 16.2395 5.53054 16.1546 5.4456C16.0694 5.36041 15.9525 5.30774 15.8236 5.30774Z"/>
</mask>
<path d="M3.53651 14.9607L3.37667 14.9879V14.9882H3.37569C3.15226 15.0264 2.93301 14.9697 2.76003 14.8469C2.58681 14.7245 2.46024 14.5368 2.42181 14.3134C2.37749 14.2422 1.14411 6.84849 1.01177 6.07538C0.973588 5.85158 1.0303 5.63232 1.15307 5.45912C1.27583 5.28593 1.46378 5.15934 1.68758 5.1209L14.0114 3.01173C14.2352 2.97355 14.4545 3.03063 14.6275 3.15303C14.8007 3.27579 14.9275 3.46374 14.9657 3.68754L15.1819 4.94941H15.8233C16.0509 4.94941 16.2578 5.04258 16.4077 5.19248C16.5576 5.342 16.6504 5.54899 16.6504 5.77646V14.1336C16.6504 14.3612 16.5576 14.568 16.4077 14.7176C16.2578 14.8675 16.0509 14.9606 15.8233 14.9606L3.53651 14.9607ZM12.0822 10.7492C12.0608 10.7492 12.0434 10.7055 12.0434 10.6516C12.0434 10.5979 12.061 10.5543 12.0822 10.5543H15.0301C15.0515 10.5543 15.0689 10.5981 15.0689 10.6516C15.0689 10.7056 15.0513 10.7492 15.0301 10.7492H12.0822ZM3.85487 13.3887C3.80637 13.3887 3.76721 13.345 3.76721 13.2915C3.76721 13.2374 3.80637 13.1939 3.85487 13.1939H10.4467C10.4948 13.1939 10.5344 13.2376 10.5344 13.2915C10.5344 13.3451 10.4948 13.3887 10.4467 13.3887H3.85487ZM3.85487 12.2227C3.81288 12.2227 3.77887 12.179 3.77887 12.1251C3.77887 12.0714 3.81288 12.0278 3.85487 12.0278H9.53942C9.5814 12.0278 9.61541 12.0715 9.61541 12.1251C9.61541 12.1791 9.58141 12.2227 9.53942 12.2227H3.85487ZM3.85487 10.9595C3.81914 10.9595 3.79054 10.9158 3.79054 10.8619C3.79054 10.8082 3.81902 10.7646 3.85487 10.7646H8.72985C8.76521 10.7646 8.79418 10.8083 8.79418 10.8619C8.79418 10.9159 8.76533 10.9595 8.72985 10.9595H3.85487ZM13.855 6.19729C14.2012 6.19729 14.5146 6.33785 14.7411 6.56436C14.968 6.79122 15.1082 7.10475 15.1082 7.45083C15.1082 7.79665 14.968 8.11007 14.7411 8.3367C14.5146 8.56356 14.201 8.70377 13.855 8.70377C13.5109 8.70377 13.1988 8.56492 12.9723 8.33978C12.873 8.43848 12.7575 8.52024 12.6296 8.58137C12.4656 8.65969 12.2824 8.70377 12.0899 8.70377C11.7437 8.70377 11.4307 8.56357 11.2038 8.3367C10.977 8.1102 10.8368 7.79665 10.8368 7.45083C10.8368 7.10462 10.977 6.79123 11.2038 6.56436C11.4307 6.33786 11.7439 6.19729 12.0899 6.19729C12.2824 6.19729 12.4656 6.24124 12.6296 6.32005C12.7575 6.38118 12.8733 6.46307 12.9726 6.56165C13.1991 6.3365 13.5113 6.19728 13.855 6.19728V6.19729ZM12.819 8.15583C12.6822 7.95512 12.6021 7.71205 12.6021 7.45079C12.6021 7.18919 12.6821 6.94623 12.8194 6.74541C12.7355 6.65874 12.6368 6.58692 12.5272 6.53475C12.3956 6.47153 12.2471 6.43642 12.0899 6.43642C11.8098 6.43642 11.5562 6.54985 11.3725 6.73338C11.1893 6.91691 11.0755 7.17066 11.0755 7.4508C11.0755 7.73057 11.1893 7.98434 11.3725 8.16784C11.556 8.35137 11.8098 8.46481 12.0899 8.46481C12.2471 8.46481 12.3955 8.42945 12.5272 8.36647C12.6368 8.31418 12.7355 8.24236 12.819 8.15581L12.819 8.15583ZM14.5724 6.7335C14.3889 6.54997 14.1351 6.43654 13.855 6.43654C13.5749 6.43654 13.3212 6.5496 13.138 6.73313V6.7335C12.9544 6.91703 12.841 7.17078 12.841 7.45092C12.841 7.73069 12.9544 7.98446 13.138 8.16796C13.3215 8.35147 13.5752 8.46493 13.855 8.46493C14.1351 8.46493 14.3888 8.35149 14.5724 8.16796C14.756 7.98444 14.8694 7.73069 14.8694 7.45092C14.8694 7.17077 14.756 6.91716 14.5724 6.7335V6.7335ZM14.8189 4.94916L14.7729 4.67933L13.1948 4.94916H14.8189ZM11.78 4.94916L14.7326 4.44425L14.6133 3.74744C14.5913 3.61989 14.5198 3.51334 14.4222 3.44398C14.3242 3.37486 14.1995 3.34257 14.0719 3.36455L4.81094 4.94917L11.78 4.94916ZM2.62961 5.32248L1.74792 5.47336C1.62037 5.49533 1.51381 5.5669 1.44445 5.66487C1.37533 5.76283 1.34305 5.88731 1.36502 6.01475C1.39866 6.21276 1.44199 6.44712 1.49221 6.71007L2.49344 6.53858V5.77621C2.49344 5.60913 2.54366 5.45311 2.62959 5.32247L2.62961 5.32248ZM2.49346 6.78064L1.53688 6.94465C1.6551 7.55553 1.80291 8.29112 1.9549 9.06278L2.49359 8.97071V6.78074L2.49346 6.78064ZM2.49346 9.21257L2.00094 9.29679C2.17587 10.1884 2.35289 11.1159 2.49346 11.9445V9.21257ZM15.8236 5.30774H3.32063C3.1921 5.30774 3.07486 5.36028 2.98967 5.4456C2.90472 5.53055 2.85181 5.64767 2.85181 5.77631V14.1334C2.85181 14.262 2.90472 14.3792 2.98967 14.4641C3.07486 14.5493 3.1921 14.602 3.32063 14.602H15.8236C15.9525 14.602 16.0694 14.5495 16.1546 14.4641C16.2395 14.3792 16.2925 14.2621 16.2925 14.1334V5.77631C16.2925 5.64778 16.2395 5.53054 16.1546 5.4456C16.0694 5.36041 15.9525 5.30774 15.8236 5.30774Z" fill="#121243"/>
<path d="M3.53651 14.9607L3.37667 14.9879V14.9882H3.37569C3.15226 15.0264 2.93301 14.9697 2.76003 14.8469C2.58681 14.7245 2.46024 14.5368 2.42181 14.3134C2.37749 14.2422 1.14411 6.84849 1.01177 6.07538C0.973588 5.85158 1.0303 5.63232 1.15307 5.45912C1.27583 5.28593 1.46378 5.15934 1.68758 5.1209L14.0114 3.01173C14.2352 2.97355 14.4545 3.03063 14.6275 3.15303C14.8007 3.27579 14.9275 3.46374 14.9657 3.68754L15.1819 4.94941H15.8233C16.0509 4.94941 16.2578 5.04258 16.4077 5.19248C16.5576 5.342 16.6504 5.54899 16.6504 5.77646V14.1336C16.6504 14.3612 16.5576 14.568 16.4077 14.7176C16.2578 14.8675 16.0509 14.9606 15.8233 14.9606L3.53651 14.9607ZM12.0822 10.7492C12.0608 10.7492 12.0434 10.7055 12.0434 10.6516C12.0434 10.5979 12.061 10.5543 12.0822 10.5543H15.0301C15.0515 10.5543 15.0689 10.5981 15.0689 10.6516C15.0689 10.7056 15.0513 10.7492 15.0301 10.7492H12.0822ZM3.85487 13.3887C3.80637 13.3887 3.76721 13.345 3.76721 13.2915C3.76721 13.2374 3.80637 13.1939 3.85487 13.1939H10.4467C10.4948 13.1939 10.5344 13.2376 10.5344 13.2915C10.5344 13.3451 10.4948 13.3887 10.4467 13.3887H3.85487ZM3.85487 12.2227C3.81288 12.2227 3.77887 12.179 3.77887 12.1251C3.77887 12.0714 3.81288 12.0278 3.85487 12.0278H9.53942C9.5814 12.0278 9.61541 12.0715 9.61541 12.1251C9.61541 12.1791 9.58141 12.2227 9.53942 12.2227H3.85487ZM3.85487 10.9595C3.81914 10.9595 3.79054 10.9158 3.79054 10.8619C3.79054 10.8082 3.81902 10.7646 3.85487 10.7646H8.72985C8.76521 10.7646 8.79418 10.8083 8.79418 10.8619C8.79418 10.9159 8.76533 10.9595 8.72985 10.9595H3.85487ZM13.855 6.19729C14.2012 6.19729 14.5146 6.33785 14.7411 6.56436C14.968 6.79122 15.1082 7.10475 15.1082 7.45083C15.1082 7.79665 14.968 8.11007 14.7411 8.3367C14.5146 8.56356 14.201 8.70377 13.855 8.70377C13.5109 8.70377 13.1988 8.56492 12.9723 8.33978C12.873 8.43848 12.7575 8.52024 12.6296 8.58137C12.4656 8.65969 12.2824 8.70377 12.0899 8.70377C11.7437 8.70377 11.4307 8.56357 11.2038 8.3367C10.977 8.1102 10.8368 7.79665 10.8368 7.45083C10.8368 7.10462 10.977 6.79123 11.2038 6.56436C11.4307 6.33786 11.7439 6.19729 12.0899 6.19729C12.2824 6.19729 12.4656 6.24124 12.6296 6.32005C12.7575 6.38118 12.8733 6.46307 12.9726 6.56165C13.1991 6.3365 13.5113 6.19728 13.855 6.19728V6.19729ZM12.819 8.15583C12.6822 7.95512 12.6021 7.71205 12.6021 7.45079C12.6021 7.18919 12.6821 6.94623 12.8194 6.74541C12.7355 6.65874 12.6368 6.58692 12.5272 6.53475C12.3956 6.47153 12.2471 6.43642 12.0899 6.43642C11.8098 6.43642 11.5562 6.54985 11.3725 6.73338C11.1893 6.91691 11.0755 7.17066 11.0755 7.4508C11.0755 7.73057 11.1893 7.98434 11.3725 8.16784C11.556 8.35137 11.8098 8.46481 12.0899 8.46481C12.2471 8.46481 12.3955 8.42945 12.5272 8.36647C12.6368 8.31418 12.7355 8.24236 12.819 8.15581L12.819 8.15583ZM14.5724 6.7335C14.3889 6.54997 14.1351 6.43654 13.855 6.43654C13.5749 6.43654 13.3212 6.5496 13.138 6.73313V6.7335C12.9544 6.91703 12.841 7.17078 12.841 7.45092C12.841 7.73069 12.9544 7.98446 13.138 8.16796C13.3215 8.35147 13.5752 8.46493 13.855 8.46493C14.1351 8.46493 14.3888 8.35149 14.5724 8.16796C14.756 7.98444 14.8694 7.73069 14.8694 7.45092C14.8694 7.17077 14.756 6.91716 14.5724 6.7335V6.7335ZM14.8189 4.94916L14.7729 4.67933L13.1948 4.94916H14.8189ZM11.78 4.94916L14.7326 4.44425L14.6133 3.74744C14.5913 3.61989 14.5198 3.51334 14.4222 3.44398C14.3242 3.37486 14.1995 3.34257 14.0719 3.36455L4.81094 4.94917L11.78 4.94916ZM2.62961 5.32248L1.74792 5.47336C1.62037 5.49533 1.51381 5.5669 1.44445 5.66487C1.37533 5.76283 1.34305 5.88731 1.36502 6.01475C1.39866 6.21276 1.44199 6.44712 1.49221 6.71007L2.49344 6.53858V5.77621C2.49344 5.60913 2.54366 5.45311 2.62959 5.32247L2.62961 5.32248ZM2.49346 6.78064L1.53688 6.94465C1.6551 7.55553 1.80291 8.29112 1.9549 9.06278L2.49359 8.97071V6.78074L2.49346 6.78064ZM2.49346 9.21257L2.00094 9.29679C2.17587 10.1884 2.35289 11.1159 2.49346 11.9445V9.21257ZM15.8236 5.30774H3.32063C3.1921 5.30774 3.07486 5.36028 2.98967 5.4456C2.90472 5.53055 2.85181 5.64767 2.85181 5.77631V14.1334C2.85181 14.262 2.90472 14.3792 2.98967 14.4641C3.07486 14.5493 3.1921 14.602 3.32063 14.602H15.8236C15.9525 14.602 16.0694 14.5495 16.1546 14.4641C16.2395 14.3792 16.2925 14.2621 16.2925 14.1334V5.77631C16.2925 5.64778 16.2395 5.53054 16.1546 5.4456C16.0694 5.36041 15.9525 5.30774 15.8236 5.30774Z" stroke="#121243" stroke-width="0.2" mask="url(#path-1-outside-1_9770_69689)"/>
</svg>
