<svg width="20" height="20" viewBox="0 0 20 20" fill="none" xmlns="http://www.w3.org/2000/svg">
<g clip-path="url(#clip0_2879:15786)">
<path d="M11.875 19.5H1.45833C0.930309 19.5 0.5 19.0697 0.5 18.5417V8.95833C0.5 8.43031 0.930309 8 1.45833 8H11.875C12.403 8 12.8333 8.43031 12.8333 8.95833V18.5417C12.8333 19.0697 12.403 19.5 11.875 19.5Z" stroke="#121243"/>
<path d="M1.45833 0.5H18.5417C19.0697 0.5 19.5 0.930309 19.5 1.45833V3.54167C19.5 4.06969 19.0697 4.5 18.5417 4.5H1.45833C0.930309 4.5 0.5 4.06969 0.5 3.54167V1.45833C0.5 0.930309 0.930309 0.5 1.45833 0.5Z" stroke="#121243"/>
<path d="M19.5 10C19.5 11.1046 18.6046 12 17.5 12C16.3954 12 15.5 11.1046 15.5 10C15.5 8.89543 16.3954 8 17.5 8C18.6046 8 19.5 8.89543 19.5 10Z" stroke="#121243"/>
<path d="M19.5 17.5C19.5 18.6046 18.6046 19.5 17.5 19.5C16.3954 19.5 15.5 18.6046 15.5 17.5C15.5 16.3954 16.3954 15.5 17.5 15.5C18.6046 15.5 19.5 16.3954 19.5 17.5Z" stroke="#121243"/>
</g>
<defs>
<clipPath id="clip0_2879:15786">
<rect width="20" height="20" fill="white"/>
</clipPath>
</defs>
</svg>
