<svg width="26" height="26" viewBox="0 0 26 26" fill="none" xmlns="http://www.w3.org/2000/svg">
<path d="M11.6667 19V20.5C11.6667 21.6935 12.0881 22.8381 12.8382 23.682C13.5884 24.5259 14.6058 25 15.6667 25H21C22.0609 25 23.0783 24.5259 23.8284 23.682C24.5786 22.8381 25 21.6935 25 20.5V5.5C25 4.30653 24.5786 3.16193 23.8284 2.31802C23.0783 1.47411 22.0609 1 21 1H15.6667C14.6058 1 13.5884 1.47411 12.8382 2.31802C12.0881 3.16193 11.6667 4.30653 11.6667 5.5V7M6.33333 19L0.999999 13L6.33333 19ZM0.999999 13L6.33333 7L0.999999 13ZM0.999999 13H19.6667H0.999999Z" stroke="#121243" stroke-width="1.3" stroke-linecap="round" stroke-linejoin="round"/>
</svg>
