<svg width="20" height="20" viewBox="0 0 20 20" fill="none" xmlns="http://www.w3.org/2000/svg">
<g clip-path="url(#clip0_2879:15765)">
<path d="M9.99954 3.47852C8.32129 3.47852 6.95605 4.84372 6.95605 6.52201C6.95605 8.20029 8.32125 9.5655 9.99954 9.5655C11.6778 9.5655 13.043 8.20025 13.043 6.52201C13.043 4.84376 11.6778 3.47852 9.99954 3.47852ZM9.99954 8.6959C8.80129 8.6959 7.82564 7.72025 7.82564 6.52201C7.82564 5.32376 8.80129 4.34811 9.99954 4.34811C11.1978 4.34811 12.1734 5.32376 12.1734 6.52201C12.1734 7.72025 11.1978 8.6959 9.99954 8.6959Z" fill="#121243"/>
<path d="M16.087 6.95703C14.8887 6.95703 13.9131 7.93269 13.9131 9.13094C13.9131 10.3292 14.8887 11.3048 16.087 11.3048C17.2852 11.3048 18.2609 10.3292 18.2609 9.13094C18.2609 7.93269 17.2852 6.95703 16.087 6.95703ZM16.087 10.4353C15.3678 10.4353 14.7826 9.85008 14.7826 9.13094C14.7826 8.41179 15.3678 7.82659 16.087 7.82659C16.8061 7.82659 17.3913 8.41179 17.3913 9.13094C17.3913 9.85008 16.8061 10.4353 16.087 10.4353Z" fill="#121243"/>
<path d="M3.97468 6.95703C2.77554 6.95703 1.80078 7.93269 1.80078 9.13094C1.80078 10.3292 2.77643 11.3048 3.97468 11.3048C5.17293 11.3048 6.14859 10.3292 6.14859 9.13094C6.14859 7.93269 5.17379 6.95703 3.97468 6.95703ZM3.97468 10.4353C3.25554 10.4353 2.67033 9.85008 2.67033 9.13094C2.67033 8.41179 3.25554 7.82659 3.97468 7.82659C4.69383 7.82659 5.27903 8.41179 5.27903 9.13094C5.27903 9.85008 4.69379 10.4353 3.97468 10.4353Z" fill="#121243"/>
<path d="M9.99984 10.4346C6.88331 10.4346 4.34766 12.9702 4.34766 16.0867C4.34766 16.3267 4.54245 16.5215 4.78245 16.5215C5.02245 16.5215 5.21725 16.3267 5.21725 16.0867C5.21725 13.4494 7.36245 11.3042 9.99984 11.3042C12.6372 11.3042 14.7824 13.4494 14.7824 16.0867C14.7824 16.3267 14.9772 16.5215 15.2172 16.5215C15.4572 16.5215 15.652 16.3267 15.652 16.0867C15.652 12.9702 13.1164 10.4346 9.99984 10.4346Z" fill="#121243"/>
<path d="M16.0875 12.1738C15.3718 12.1738 14.6709 12.3695 14.0605 12.7391C13.8562 12.8643 13.7901 13.1312 13.9144 13.3364C14.0405 13.5417 14.3066 13.6069 14.5118 13.4825C14.9857 13.1947 15.53 13.0434 16.0875 13.0434C17.7657 13.0434 19.1309 14.4086 19.1309 16.0869C19.1309 16.3269 19.3257 16.5217 19.5657 16.5217C19.8057 16.5217 20.0005 16.3269 20.0005 16.0869C20.0005 13.9295 18.2448 12.1738 16.0875 12.1738Z" fill="#121243"/>
<path d="M5.93914 12.7382C5.32956 12.3695 4.62872 12.1738 3.91304 12.1738C1.75565 12.1738 0 13.9295 0 16.0869C0 16.3269 0.194796 16.5217 0.434796 16.5217C0.674796 16.5217 0.869592 16.3269 0.869592 16.0869C0.869551 14.4086 2.23479 13.0434 3.91304 13.0434C4.47045 13.0434 5.01477 13.1947 5.48784 13.4816C5.69217 13.606 5.96001 13.5408 6.08523 13.3356C6.21044 13.1303 6.14433 12.8634 5.93914 12.7382Z" fill="#121243"/>
</g>
<defs>
<clipPath id="clip0_2879:15765">
<rect width="20" height="20" fill="white"/>
</clipPath>
</defs>
</svg>
