<svg width="18" height="18" viewBox="0 0 18 18" fill="none" xmlns="http://www.w3.org/2000/svg">
<path d="M17.9395 2.32031L16.7133 0.480939C16.6148 0.33284 16.4812 0.211414 16.3245 0.127496C16.1677 0.0435777 15.9925 -0.000223298 15.8147 8.56026e-07H2.18531C2.00747 -0.000223298 1.83234 0.0435777 1.67555 0.127496C1.51876 0.211414 1.38517 0.33284 1.28672 0.480939L0.06048 2.32031C0.0283923 2.38266 0.0078995 2.45032 1.21755e-08 2.52V17.64C-1.22852e-05 17.6873 0.00929099 17.7341 0.0273783 17.7778C0.0454657 17.8215 0.0719826 17.8612 0.105414 17.8946C0.138846 17.928 0.178537 17.9545 0.222219 17.9726C0.265902 17.9907 0.312721 18 0.36 18H17.64C17.6873 18 17.7341 17.9907 17.7778 17.9726C17.8215 17.9545 17.8612 17.928 17.8946 17.8946C17.928 17.8612 17.9545 17.8215 17.9726 17.7778C17.9907 17.7341 18 17.6873 18 17.64V2.52C17.9921 2.45032 17.9716 2.38266 17.9395 2.32031V2.32031ZM15.8147 0.720001C15.874 0.719917 15.9323 0.734513 15.9846 0.762486C16.0369 0.79046 16.0814 0.83094 16.1142 0.880312L16.9674 2.16H15.0195L14.5395 0.720001H15.8147ZM17.28 2.88V3.96C17.28 4.24643 17.1662 4.52114 16.9637 4.72368C16.7611 4.92622 16.4864 5.04 16.2 5.04C15.9136 5.04 15.6389 4.92622 15.4363 4.72368C15.2338 4.52114 15.12 4.24643 15.12 3.96V2.88H17.28ZM13.7805 0.720001L14.2605 2.16H12.1849L11.9449 0.720001H13.7805ZM14.4 2.88V3.96C14.4 4.24643 14.2862 4.52114 14.0837 4.72368C13.8811 4.92622 13.6064 5.04 13.32 5.04C13.0336 5.04 12.7589 4.92622 12.5563 4.72368C12.3538 4.52114 12.24 4.24643 12.24 3.96V2.88H14.4ZM9.36 0.720001H11.2151L11.4551 2.16H9.36V0.720001ZM9.36 2.88H11.52V3.96C11.52 4.24643 11.4062 4.52114 11.2037 4.72368C11.0011 4.92622 10.7264 5.04 10.44 5.04C10.1536 5.04 9.87886 4.92622 9.67632 4.72368C9.47379 4.52114 9.36 4.24643 9.36 3.96V2.88ZM6.78492 0.720001H8.64V2.16H6.54493L6.78492 0.720001ZM6.48 2.88H8.64V3.96C8.64 4.24643 8.52622 4.52114 8.32368 4.72368C8.12114 4.92622 7.84643 5.04 7.56 5.04C7.27357 5.04 6.99886 4.92622 6.79632 4.72368C6.59379 4.52114 6.48 4.24643 6.48 3.96V2.88ZM4.21952 0.720001H6.05507L5.81508 2.16H3.7395L4.21952 0.720001ZM3.6 2.88H5.76V3.96C5.76 4.24643 5.64621 4.52114 5.44368 4.72368C5.24114 4.92622 4.96643 5.04 4.68 5.04C4.39357 5.04 4.11886 4.92622 3.91632 4.72368C3.71379 4.52114 3.6 4.24643 3.6 3.96V2.88ZM1.88578 0.880312C1.91859 0.830938 1.96312 0.790457 2.01538 0.762484C2.06765 0.73451 2.12603 0.719915 2.18531 0.720001H3.4605L2.98048 2.16H1.03265L1.88578 0.880312ZM0.72 2.88H2.88V3.96C2.88 4.24643 2.76621 4.52114 2.56368 4.72368C2.36114 4.92622 2.08643 5.04 1.8 5.04C1.51357 5.04 1.23886 4.92622 1.03632 4.72368C0.833785 4.52114 0.72 4.24643 0.72 3.96V2.88ZM2.16 17.28H0.72V15.84H2.16V17.28ZM8.64 17.28H2.88V14.76C2.8801 14.6646 2.91805 14.573 2.98555 14.5055C3.05304 14.4381 3.14455 14.4001 3.24 14.4H4.32V14.76C4.32031 15.0463 4.4342 15.3209 4.63667 15.5233C4.83914 15.7258 5.11366 15.8397 5.4 15.84H6.12C6.40634 15.8397 6.68086 15.7258 6.88333 15.5233C7.0858 15.3209 7.19969 15.0463 7.2 14.76V14.4H8.28C8.37545 14.4001 8.46696 14.4381 8.53445 14.5055C8.60195 14.573 8.63991 14.6646 8.64 14.76V17.28ZM5.04 14.76V14.4H6.48V14.76C6.4799 14.8554 6.44195 14.947 6.37445 15.0145C6.30696 15.0819 6.21545 15.1199 6.12 15.12H5.4C5.30455 15.1199 5.21304 15.0819 5.14555 15.0145C5.07805 14.947 5.0401 14.8554 5.04 14.76V14.76ZM17.28 17.28H9.36V15.84H17.28V17.28ZM17.28 15.12H9.36V14.76C9.35969 14.4737 9.2458 14.1991 9.04333 13.9967C8.84086 13.7942 8.56634 13.6803 8.28 13.68H3.24C2.95366 13.6803 2.67914 13.7942 2.47667 13.9967C2.2742 14.1991 2.16031 14.4737 2.16 14.76V15.12H0.72V12.6H17.28V15.12ZM5.76 10.08C6.23722 10.0806 6.69473 10.2704 7.03217 10.6078C7.36962 10.9453 7.55944 11.4028 7.56 11.88H3.96C3.96056 11.4028 4.15038 10.9453 4.48783 10.6078C4.82527 10.2704 5.28278 10.0806 5.76 10.08ZM4.68 8.28C4.68 8.0664 4.74334 7.85759 4.86201 7.67998C4.98069 7.50238 5.14936 7.36395 5.3467 7.28221C5.54405 7.20047 5.7612 7.17908 5.9707 7.22075C6.1802 7.26242 6.37263 7.36528 6.52368 7.51632C6.67472 7.66737 6.77758 7.8598 6.81925 8.0693C6.86092 8.2788 6.83953 8.49595 6.75779 8.6933C6.67605 8.89064 6.53762 9.05932 6.36002 9.17799C6.18241 9.29666 5.9736 9.36 5.76 9.36C5.47366 9.35969 5.19914 9.2458 4.99667 9.04333C4.7942 8.84086 4.68031 8.56634 4.68 8.28ZM15.48 11.16V11.88H11.52V11.16H15.48ZM11.52 10.44V9.72C11.5201 9.62455 11.5581 9.53304 11.6255 9.46555C11.693 9.39805 11.7846 9.3601 11.88 9.36H15.12C15.2154 9.3601 15.307 9.39805 15.3745 9.46555C15.4419 9.53304 15.4799 9.62455 15.48 9.72V10.44H11.52ZM17.28 11.88H16.2V9.72C16.1997 9.43366 16.0858 9.15914 15.8833 8.95667C15.6809 8.7542 15.4063 8.64031 15.12 8.64H11.88C11.5937 8.64031 11.3191 8.7542 11.1167 8.95667C10.9142 9.15914 10.8003 9.43366 10.8 9.72V11.88H8.28C8.27944 11.4187 8.15231 10.9663 7.91244 10.5722C7.67258 10.1782 7.32918 9.85746 6.91965 9.64505C7.20196 9.40726 7.40433 9.08842 7.49936 8.73175C7.59439 8.37508 7.57747 7.99782 7.4509 7.65109C7.32433 7.30436 7.09422 7.00492 6.79176 6.79335C6.4893 6.58178 6.12911 6.4683 5.76 6.4683C5.39089 6.4683 5.0307 6.58178 4.72824 6.79335C4.42578 7.00492 4.19568 7.30436 4.0691 7.65109C3.94253 7.99782 3.92561 8.37508 4.02064 8.73175C4.11567 9.08842 4.31804 9.40726 4.60035 9.64505C4.19082 9.85746 3.84742 10.1782 3.60756 10.5722C3.36769 10.9663 3.24056 11.4187 3.24 11.88H0.72V5.3908C0.907991 5.53567 1.12311 5.64138 1.35266 5.7017C1.5822 5.76202 1.8215 5.77571 2.05643 5.74197C2.29135 5.70823 2.51713 5.62774 2.72042 5.50526C2.92371 5.38277 3.10038 5.22078 3.24 5.02886C3.40559 5.25542 3.6223 5.4397 3.87251 5.56675C4.12272 5.69379 4.39938 5.76 4.68 5.76C4.96062 5.76 5.23728 5.69379 5.48749 5.56675C5.7377 5.4397 5.95441 5.25542 6.12 5.02886C6.28559 5.25542 6.5023 5.4397 6.75251 5.56675C7.00272 5.69379 7.27938 5.76 7.56 5.76C7.84062 5.76 8.11728 5.69379 8.36749 5.56675C8.6177 5.4397 8.83441 5.25542 9 5.02886C9.16559 5.25542 9.3823 5.4397 9.63251 5.56675C9.88272 5.69379 10.1594 5.76 10.44 5.76C10.7206 5.76 10.9973 5.69379 11.2475 5.56675C11.4977 5.4397 11.7144 5.25542 11.88 5.02886C12.0456 5.25542 12.2623 5.4397 12.5125 5.56675C12.7627 5.69379 13.0394 5.76 13.32 5.76C13.6006 5.76 13.8773 5.69379 14.1275 5.56675C14.3777 5.4397 14.5944 5.25542 14.76 5.02886C14.8996 5.22078 15.0763 5.38277 15.2796 5.50526C15.4829 5.62774 15.7086 5.70823 15.9436 5.74197C16.1785 5.77571 16.4178 5.76202 16.6473 5.7017C16.8769 5.64138 17.092 5.53567 17.28 5.3908V11.88Z" fill="#000000"/>
</svg>
