<svg width="24" height="24" viewBox="0 0 24 24" fill="none" xmlns="http://www.w3.org/2000/svg">
<g clip-path="url(#clip0_2887:15931)">
<path d="M20.7026 0.614258C18.8846 0.614258 17.4055 2.09418 17.4055 3.91333C17.4055 4.15527 17.4324 4.39107 17.482 4.61838L13.2505 6.73563C12.6454 6.03551 11.7522 5.59107 10.7567 5.59107C8.93859 5.59107 7.45947 7.07099 7.45947 8.89014C7.45947 10.7093 8.93859 12.1892 10.7567 12.1892C11.015 12.1892 11.2663 12.1583 11.5076 12.1019L13.5328 15.142C12.858 15.7465 12.4324 16.624 12.4324 17.5995C12.4324 17.7868 12.449 17.9703 12.479 18.1491L6.45891 19.1532C6.05503 17.788 4.79095 16.7888 3.29729 16.7888C1.47919 16.7888 0 18.2686 0 20.0877C0 21.907 1.47919 23.3869 3.29729 23.3869C4.87556 23.3869 6.19774 22.2714 6.51927 20.787L13.1711 19.6775C13.7761 20.4219 14.6981 20.8985 15.7295 20.8985C17.5478 20.8985 19.0271 19.4185 19.0271 17.5995C19.0271 15.7804 17.5478 14.3005 15.7295 14.3005C15.4712 14.3005 15.22 14.3314 14.9787 14.3878L12.9535 11.3476C13.6284 10.7431 14.0539 9.86557 14.0539 8.89014C14.0539 8.6482 14.027 8.41248 13.9774 8.18525L18.209 6.06791C18.814 6.76812 19.7072 7.21256 20.7026 7.21256C22.5208 7.21256 24 5.73256 24 3.91333C24 2.09418 22.5208 0.614258 20.7026 0.614258ZM3.29729 21.7655C2.37325 21.7655 1.62158 21.0129 1.62158 20.0877C1.62158 19.1628 2.37333 18.4102 3.29729 18.4102C4.22125 18.4102 4.97293 19.1628 4.97293 20.0877C4.97293 21.0128 4.22125 21.7655 3.29729 21.7655ZM17.4056 17.5995C17.4056 18.5245 16.6537 19.277 15.7296 19.277C14.8056 19.277 14.054 18.5246 14.054 17.5995C14.054 16.6745 14.8057 15.922 15.7296 15.922C16.6537 15.922 17.4056 16.6745 17.4056 17.5995ZM9.08105 8.89014C9.08105 7.96513 9.83273 7.21256 10.7567 7.21256C11.6806 7.21256 12.4323 7.96513 12.4323 8.89014C12.4323 9.81515 11.6806 10.5677 10.7567 10.5677C9.83273 10.5677 9.08105 9.81515 9.08105 8.89014ZM20.7026 5.59107C19.7787 5.59107 19.0271 4.83842 19.0271 3.91333C19.0271 2.98832 19.7787 2.23575 20.7026 2.23575C21.6267 2.23575 22.3784 2.98824 22.3784 3.91333C22.3785 4.83834 21.6267 5.59107 20.7026 5.59107Z" fill="#000000" stroke="white" stroke-width="0.5"/>
</g>
<defs>
<clipPath id="clip0_2887:15931">
<rect width="24" height="24" fill="white"/>
</clipPath>
</defs>
</svg>
