<svg width="22" height="22" viewBox="0 0 22 22" fill="none" xmlns="http://www.w3.org/2000/svg">
<path d="M11.0001 9.8419C10.0788 9.8419 9.19523 9.47593 8.54379 8.82448C7.89234 8.17304 7.52637 7.28949 7.52637 6.36822C7.52637 5.44694 7.89234 4.56339 8.54379 3.91195C9.19523 3.26051 10.0788 2.89453 11.0001 2.89453C11.9213 2.89453 12.8049 3.26051 13.4563 3.91195C14.1078 4.56339 14.4737 5.44694 14.4737 6.36822C14.4737 7.28949 14.1078 8.17304 13.4563 8.82448C12.8049 9.47593 11.9213 9.8419 11.0001 9.8419Z" stroke="#000000" stroke-linecap="round"/>
<path d="M4.05273 19.1049V17.947C4.05273 16.7186 4.5407 15.5406 5.40929 14.672C6.27788 13.8034 7.45594 13.3154 8.68431 13.3154H13.3159C14.5443 13.3154 15.7223 13.8034 16.5909 14.672C17.4595 15.5406 17.9475 16.7186 17.9475 17.947V19.1049" stroke="#000000" stroke-linecap="round"/>
</svg>
