<svg width="24" height="24" viewBox="0 0 24 24" fill="none" xmlns="http://www.w3.org/2000/svg">
<g clip-path="url(#clip0_2908:15968)">
<path d="M23.9778 19.7867C23.9557 19.0476 23.5794 18.4489 22.8638 18.0128C22.3547 17.7023 21.7571 17.695 21.2997 17.7245C21.1226 17.7393 20.8644 17.7319 20.6578 17.5397C20.4586 17.3476 20.4365 17.0889 20.4365 16.9041C20.4512 15.6697 20.4512 14.4205 20.4438 13.201V12.957C20.4365 11.5527 19.5216 10.6435 18.1125 10.6361C16.9615 10.6361 15.7368 10.6287 14.49 10.6435H14.4826C14.1137 10.6435 13.8481 10.5031 13.6341 10.2074C12.8816 9.14306 11.8782 8.32261 10.6609 7.76825C10.5576 7.71651 10.3067 7.60564 10.2477 7.32476C10.1887 7.04389 10.3805 6.82954 10.4469 6.76301C11.3323 5.78734 11.679 4.63428 11.4872 3.34817C11.3249 2.29119 10.6978 1.33031 9.77554 0.702036C8.84593 0.0737635 7.71713 -0.14798 6.67686 0.0959379C5.23819 0.435944 4.12414 1.46335 3.69623 2.84555C3.27569 4.21297 3.61507 5.67647 4.6037 6.75562C4.67748 6.83693 4.87668 7.05128 4.82503 7.33955C4.77339 7.62781 4.50779 7.75347 4.41187 7.80521C2.73711 8.61827 1.48289 9.93394 0.671327 11.7227C0.368837 12.3953 0.162258 13.1418 0.014702 14.1471V14.1545V16.1649C0.014702 18.7076 0.014702 21.3389 0.00732422 23.9333V24.0072H0.0811023C7.14904 23.9998 14.4973 23.9998 20.8349 23.9998H23.7122L23.727 23.9851C23.9483 23.8446 23.9926 23.719 23.9926 23.5711C23.9926 23.209 23.9926 22.8542 23.9999 22.492C23.9999 21.605 24.0073 20.6811 23.9778 19.7867ZM7.4958 7.08085H7.48104C6.60308 7.04389 5.81366 6.68171 5.26032 6.06822C4.72912 5.4843 4.45614 4.73037 4.47827 3.94688C4.50779 3.07469 4.86192 2.29119 5.47428 1.74423C6.02761 1.24161 6.76539 0.960736 7.51055 0.960736C7.54006 0.960736 7.5622 0.960736 7.59171 0.960736C8.44016 0.98291 9.21482 1.32292 9.76816 1.90684C10.3141 2.49076 10.6166 3.28165 10.5871 4.07992C10.5207 6.03126 8.94185 7.08085 7.4958 7.08085ZM0.914794 19.4837C0.914794 18.8406 1.10662 18.6484 1.74111 18.6484H18.6953C19.6249 18.6484 20.5545 18.6484 21.4841 18.6484C22.5613 18.6484 23.063 19.1511 23.063 20.2376C23.063 20.452 23.063 20.6737 23.063 20.8881C23.063 21.3537 23.0556 21.8268 23.0703 22.2924C23.0777 22.4624 23.0556 22.699 22.8785 22.8911C22.6941 23.0759 22.4506 23.0981 22.2809 23.0981C20.2889 23.0907 18.2157 23.0907 16.327 23.0907C15.5671 23.0907 14.8367 23.0907 14.158 23.0907H9.42878H1.77062C1.10662 23.0907 0.914794 22.8985 0.914794 22.2259C0.914794 21.3094 0.914794 20.3928 0.914794 19.4837ZM0.907416 16.9558C0.914794 16.7119 0.907416 16.4606 0.907416 16.2167H1.09186V16.0688H0.907416C0.907416 15.3297 0.907416 14.5684 1.03284 13.8071C1.52715 10.8431 3.83641 8.5 6.64735 8.10826C8.50656 7.84956 10.1961 8.32261 11.679 9.50524C11.7675 9.57176 11.8413 9.64568 11.9151 9.71959C11.9446 9.74916 11.9741 9.77872 12.0036 9.8009L12.2102 9.99307L12.0036 10.6435H11.4651C11.347 10.6435 11.2216 10.6435 11.1035 10.6435C9.79767 10.6583 8.83856 11.6118 8.83118 12.9053C8.8238 14.3245 8.8238 15.6475 8.83118 16.941C8.83118 17.1036 8.81642 17.3476 8.63198 17.5249C8.43278 17.7245 8.15242 17.7245 8.06389 17.7245H8.05651C7.01624 17.7171 5.95384 17.7171 4.84716 17.7171C3.82165 17.7171 2.75925 17.7171 1.65257 17.7245C1.49026 17.7245 1.26155 17.7023 1.08448 17.5249C0.900039 17.318 0.907416 17.0445 0.907416 16.9558ZM19.529 16.9484C19.529 17.0371 19.529 17.318 19.3298 17.5249C19.1306 17.7245 18.8724 17.7245 18.747 17.7245C17.7067 17.7171 16.6443 17.7171 15.7073 17.7171H15.6925C14.9916 17.7171 14.2908 17.7171 13.5899 17.7171H13.5751C12.5791 17.7171 11.5536 17.7171 10.5428 17.7245H10.5281C10.3658 17.7245 10.1371 17.7023 9.95998 17.5249C9.76078 17.3254 9.76078 17.0371 9.76078 16.9484C9.76816 16.128 9.76816 15.3001 9.76816 14.4945C9.76816 14.0214 9.76816 13.5557 9.76816 13.0827C9.76816 12.0996 10.3141 11.5601 11.2954 11.5601C12.3578 11.5601 13.4497 11.5601 14.5564 11.5601C15.6852 11.5601 16.8361 11.5601 17.9944 11.5601C18.9757 11.5601 19.5216 12.0996 19.5216 13.0827C19.5216 13.5262 19.5216 13.9623 19.5216 14.4058V14.4649C19.5216 15.278 19.5216 16.1206 19.529 16.9484Z" fill="#121243"/>
</g>
<defs>
<clipPath id="clip0_2908:15968">
<rect width="24" height="24" fill="white"/>
</clipPath>
</defs>
</svg>
