<svg width="18" height="18" viewBox="0 0 18 18" fill="none" xmlns="http://www.w3.org/2000/svg">
<g clip-path="url(#clip0_2879:15834)">
<path d="M16.7587 8.06321C16.5645 8.06321 16.4071 8.22064 16.4071 8.41477C16.4071 8.60891 16.5645 8.76634 16.7587 8.76634C17.0554 8.76634 17.2969 9.00775 17.2969 9.30454C17.2969 9.60133 17.0555 9.84275 16.7587 9.84275H16.0919C16.032 8.74243 15.6913 7.68029 15.0973 6.7515C14.5057 5.82654 13.6897 5.07177 12.7269 4.55479C12.7496 4.38699 12.7617 4.21684 12.7617 4.04492C12.7617 1.9707 11.0742 0.283203 9 0.283203C6.92578 0.283203 5.23828 1.9707 5.23828 4.04492C5.23828 4.12585 5.24148 4.20629 5.24654 4.28641C5.24029 4.28901 5.23396 4.29144 5.22773 4.29407L3.67059 3.39105C3.47038 3.27493 3.23107 3.27458 3.03047 3.3901C2.82987 3.50566 2.71012 3.71284 2.71012 3.94434V6.19764C2.24993 6.77182 1.89707 7.4111 1.65846 8.10255H0.975586C0.43766 8.10255 0 8.54018 0 9.07814V11.3106C0 11.8485 0.43766 12.2861 0.975586 12.2861H1.65857C2.09201 13.5387 2.91189 14.634 3.99607 15.4073V16.9717C3.99607 17.3831 4.33079 17.7178 4.74223 17.7178H6.05222C6.33305 17.7178 6.5873 17.5627 6.71572 17.313L7.10093 16.5641C7.30276 16.5832 7.50561 16.5928 7.70667 16.5928H9.70312C9.90418 16.5928 10.1071 16.5832 10.3089 16.5641L10.6941 17.313C10.8225 17.5627 11.0767 17.7178 11.3576 17.7178H12.6676C13.079 17.7178 13.4137 17.3831 13.4137 16.9717V15.4073C15.0048 14.2736 15.9854 12.4878 16.0915 10.5459H16.7587C17.4432 10.5459 18 9.98904 18 9.30458C18 8.62012 17.4432 8.06321 16.7587 8.06321V8.06321ZM9 0.986293C10.6865 0.986293 12.0586 2.35837 12.0586 4.04489C12.0586 4.58471 11.9193 5.10429 11.6542 5.56529C11.1443 5.28639 10.5994 5.09377 10.041 4.98778C10.1209 4.84019 10.1661 4.67362 10.1661 4.49724C10.1661 3.89579 9.64301 3.40645 9 3.40645C8.74473 3.40645 8.53703 3.23257 8.53703 3.01882C8.53703 2.80507 8.74473 2.63118 9 2.63118C9.25527 2.63118 9.46297 2.80507 9.46297 3.01882C9.46297 3.21295 9.62037 3.37038 9.81454 3.37038C10.0087 3.37038 10.1661 3.21295 10.1661 3.01882C10.1661 2.53194 9.82325 2.11864 9.35156 1.97882V1.92992C9.35156 1.73579 9.19417 1.57836 9 1.57836C8.80583 1.57836 8.64844 1.73579 8.64844 1.92992V1.97882C8.17675 2.11864 7.8339 2.53194 7.8339 3.01882C7.8339 3.62027 8.35699 4.10957 9 4.10957C9.25527 4.10957 9.46297 4.28349 9.46297 4.49724C9.46297 4.71099 9.25527 4.88487 9 4.88487C8.74473 4.88487 8.53703 4.71099 8.53703 4.49724C8.53703 4.30311 8.37963 4.14568 8.18546 4.14568C7.9913 4.14568 7.8339 4.30311 7.8339 4.49724C7.8339 4.67422 7.87946 4.84128 7.95976 4.98922C7.4018 5.09599 6.85737 5.28935 6.34795 5.56895C6.08143 5.1071 5.94141 4.58622 5.94141 4.04489C5.94141 2.35837 7.31348 0.986293 9 0.986293V0.986293ZM12.8666 14.9307C12.7691 14.996 12.7106 15.1056 12.7106 15.2229V16.9716C12.7106 16.9953 12.6913 17.0146 12.6675 17.0146H11.3576C11.3414 17.0146 11.3267 17.0057 11.3193 16.9913L10.8231 16.0266C10.7551 15.8944 10.6112 15.8191 10.464 15.839C10.2118 15.8726 9.95583 15.8896 9.70312 15.8896H7.70667C7.45397 15.8896 7.19796 15.8726 6.94579 15.839C6.79827 15.8191 6.65469 15.8944 6.5867 16.0266L6.09047 16.9913C6.08309 17.0057 6.06843 17.0146 6.05222 17.0146H4.74223C4.7185 17.0146 4.6992 16.9953 4.6992 16.9716V15.2229C4.6992 15.1056 4.64066 14.996 4.54317 14.9307C3.44352 14.1946 2.62951 13.0947 2.25112 11.8335C2.20651 11.6848 2.06965 11.5829 1.9144 11.5829H0.975586C0.825363 11.5829 0.703125 11.4607 0.703125 11.3105V10.5458H1.19531C1.38948 10.5458 1.54688 10.3884 1.54688 10.1943C1.54688 10.0001 1.38948 9.84272 1.19531 9.84272H0.703125V9.07807C0.703125 8.92784 0.825363 8.80561 0.975586 8.80561H1.91443C2.06968 8.80561 2.20655 8.70379 2.25116 8.55508C2.47243 7.8175 2.83595 7.14229 3.33162 6.54822C3.38435 6.48501 3.41325 6.40535 3.41325 6.32301V4.05463L5.02907 4.99164C5.1275 5.04874 5.24742 5.05461 5.35103 5.00754C5.35454 5.00595 5.35809 5.00441 5.36161 5.00282C5.44813 5.33291 5.57972 5.64963 5.7542 5.94631C5.5266 6.11246 5.30884 6.29805 5.10349 6.50343C4.96621 6.64072 4.96621 6.86333 5.10349 7.00065C5.24078 7.1379 5.46339 7.1379 5.60071 7.00065C7.47756 5.12376 10.5314 5.12376 12.4083 7.00065C12.477 7.06927 12.5669 7.10362 12.6569 7.10362C12.7468 7.10362 12.8368 7.06927 12.9055 7.00065C13.0428 6.86336 13.0428 6.64075 12.9055 6.50343C12.6982 6.29619 12.4784 6.10912 12.2485 5.94181C12.3748 5.7263 12.4785 5.50022 12.5588 5.26611C14.2965 6.27755 15.3984 8.16777 15.3984 10.1943C15.3984 12.099 14.452 13.8695 12.8666 14.9307V14.9307Z" fill="#121243"/>
<path d="M4.34766 7.7334C4.25484 7.7334 4.16449 7.77066 4.0991 7.83641C4.03336 7.9018 3.99609 7.9925 3.99609 8.08496C3.99609 8.17742 4.03336 8.26812 4.0991 8.33351C4.16449 8.39887 4.25484 8.43652 4.34766 8.43652C4.44012 8.43652 4.53082 8.39891 4.59621 8.33351C4.6616 8.26812 4.69922 8.17742 4.69922 8.08496C4.69922 7.9925 4.6616 7.9018 4.59621 7.83641C4.53047 7.77066 4.44012 7.7334 4.34766 7.7334V7.7334Z" fill="#121243"/>
</g>
<defs>
<clipPath id="clip0_2879:15834">
<rect width="18" height="18" fill="white"/>
</clipPath>
</defs>
</svg>
