<svg width="50" height="50" viewBox="0 0 50 50" fill="none" xmlns="http://www.w3.org/2000/svg">
<rect width="50" height="50" rx="10" fill="#F0D1FF"/>
<path d="M17.2516 13.4724L13.183 16.7475C12.9812 16.9096 12.9034 17.181 12.9889 17.4253C13.0743 17.6694 13.3041 17.8335 13.5628 17.8345H23.8789C24.1385 17.832 24.3678 17.6656 24.4513 17.4199C24.5346 17.1743 24.4537 16.9027 24.2493 16.7428L19.9209 13.4437C19.5361 13.1508 19.0646 12.995 18.5814 13.0001C18.0978 13.0053 17.63 13.1715 17.2517 13.4725L17.2516 13.4724Z" fill="#8948A8"/>
<path d="M12.1585 24.5336H25.3075C25.3495 24.5336 25.3899 24.5168 25.4197 24.487C25.4494 24.4574 25.4661 24.417 25.4661 24.3749C25.4661 24.1619 25.3815 23.9575 25.231 23.807C25.0803 23.6563 24.8761 23.5717 24.6629 23.5717C24.5753 23.5717 24.5043 23.5006 24.5043 23.413V23.2398C24.5043 23.0727 24.4379 22.9126 24.3198 22.7943C24.2015 22.6762 24.0414 22.6098 23.8743 22.6098H23.5424L23.1192 19.2433C23.0615 18.9977 22.8425 18.8242 22.5902 18.8242C22.3379 18.8242 22.1189 18.9977 22.0612 19.2433L21.7245 21.9318C21.6749 22.3288 21.331 22.6229 20.9309 22.6098H20.3779C19.9869 22.6105 19.6569 22.3196 19.6084 21.9318L19.2717 19.2433C19.214 18.9977 18.995 18.8242 18.7427 18.8242C18.4904 18.8242 18.2714 18.9977 18.2137 19.2433L17.877 21.9318C17.8274 22.3288 17.4835 22.6229 17.0835 22.6098H16.5304C16.1395 22.6105 15.8095 22.3196 15.7609 21.9318L15.4243 19.2433C15.3665 18.9977 15.1475 18.8242 14.8953 18.8242C14.643 18.8242 14.424 18.9977 14.3662 19.2433L13.9431 22.6098H13.592C13.244 22.6098 12.9619 22.892 12.9619 23.2398V23.413C12.9619 23.5006 12.8908 23.5717 12.8032 23.5717C12.5902 23.5717 12.3858 23.6563 12.2353 23.807C12.0846 23.9575 12 24.1619 12 24.3749C12 24.417 12.0167 24.4574 12.0466 24.487C12.0762 24.5168 12.1166 24.5336 12.1587 24.5336H12.1585Z" fill="#8948A8"/>
<path d="M26.9948 31.3007H37.306C37.5654 31.2981 37.7949 31.1317 37.8782 30.8861C37.9617 30.6405 37.8805 30.3689 37.6763 30.209L33.348 26.9099C32.9613 26.6142 32.4868 26.4568 32.0002 26.4631C31.5137 26.4691 31.0433 26.6383 30.6643 26.9434L26.5908 30.2184V30.2186C26.3894 30.3844 26.3156 30.6594 26.4068 30.9038C26.4981 31.1479 26.7342 31.3074 26.9947 31.3008L26.9948 31.3007Z" fill="#8948A8"/>
<path d="M25.5862 37.9994H38.7352C38.7773 37.9994 38.8176 37.9826 38.8473 37.9528C38.8771 37.9231 38.8939 37.8828 38.8939 37.8407C38.8939 37.6277 38.8093 37.4233 38.6586 37.2728C38.508 37.1221 38.3037 37.0375 38.0907 37.0375C38.0031 37.0375 37.932 36.9664 37.932 36.8788V36.7056C37.932 36.5385 37.8657 36.3784 37.7476 36.2601C37.6293 36.142 37.4691 36.0756 37.3021 36.0756H36.9701L36.547 32.7091C36.5205 32.43 36.2863 32.2168 36.0059 32.2168C35.7255 32.2168 35.4913 32.43 35.4649 32.7091L35.1282 35.3976C35.0797 35.7854 34.7495 36.0763 34.3587 36.0756H33.8104C33.4196 36.0763 33.0894 35.7854 33.0409 35.3976L32.6995 32.7091C32.6731 32.43 32.4388 32.2168 32.1584 32.2168C31.878 32.2168 31.6438 32.43 31.6174 32.7091L31.2807 35.3976C31.2322 35.7854 30.902 36.0763 30.5112 36.0756H29.9629C29.5721 36.0763 29.2419 35.7854 29.1934 35.3976L28.852 32.7091C28.8256 32.43 28.5914 32.2168 28.311 32.2168C28.0306 32.2168 27.7963 32.43 27.7699 32.7091L27.3515 36.0756H27.0195C26.8525 36.0756 26.6923 36.142 26.574 36.2601C26.4559 36.3784 26.3896 36.5385 26.3896 36.7056V36.8788C26.3896 36.9664 26.3185 37.0375 26.2309 37.0375C26.0179 37.0375 25.8135 37.1221 25.663 37.2728C25.5123 37.4233 25.4277 37.6277 25.4277 37.8407C25.4277 37.9283 25.4988 37.9994 25.5864 37.9994L25.5862 37.9994Z" fill="#8948A8"/>
<path d="M29.6067 19.5801C29.5335 19.7557 29.5142 19.949 29.5511 20.1357C29.5879 20.3223 29.6791 20.4939 29.8135 20.6285L31.5112 22.3262C31.5567 22.3712 31.6067 22.4114 31.6602 22.4464L31.7323 22.4848L31.8285 22.5329L31.9247 22.5617L32.0065 22.5857V22.5859C32.1304 22.6106 32.2579 22.6106 32.3816 22.5859L32.4634 22.5619L32.5596 22.5331L32.6557 22.485L32.7279 22.4466V22.4464C32.7816 22.4114 32.8314 22.3712 32.8771 22.3262L34.5651 20.6285C34.7444 20.4481 34.8448 20.2042 34.8448 19.9498C34.8446 19.6956 34.7437 19.4517 34.5642 19.2715C34.3847 19.0914 34.1413 18.9896 33.8871 18.9886H33.1511C33.109 17.8951 32.6452 16.8602 31.8573 16.101C31.0693 15.3417 30.0181 14.9167 28.9238 14.915H26.4277C26.0841 14.915 25.7666 15.0984 25.5946 15.396C25.4229 15.6936 25.4229 16.0603 25.5946 16.3578C25.7666 16.6554 26.0842 16.8388 26.4277 16.8388H28.9238C29.5028 16.8459 30.0583 17.0702 30.4795 17.4674C30.901 17.8649 31.1576 18.4061 31.1986 18.9837H30.4772C30.2897 18.9875 30.1075 19.0459 29.9529 19.152C29.7983 19.2578 29.6778 19.4066 29.6068 19.5801H29.6067Z" fill="#BE73E2"/>
<path d="M17.0303 30.0843H17.7757C17.8191 31.1778 18.2839 32.212 19.073 32.9703C19.8618 33.7286 20.9136 34.1524 22.0079 34.1529H24.504H24.5038C24.8476 34.1529 25.1651 33.9695 25.3368 33.672C25.5086 33.3744 25.5086 33.0077 25.3368 32.7101C25.1651 32.4125 24.8475 32.2292 24.5038 32.2292H22.0079C21.4246 32.2283 20.8633 32.0065 20.4367 31.6084C20.0103 31.2106 19.7503 30.6659 19.7089 30.0843H20.4303C20.6849 30.0819 20.9282 29.9787 21.1068 29.7975C21.2855 29.616 21.3849 29.3713 21.3834 29.1168C21.3819 28.8622 21.2797 28.6187 21.0989 28.4395L19.4012 26.7418C19.3557 26.6967 19.3057 26.6566 19.252 26.6216L19.1751 26.5829L19.079 26.5348L18.9828 26.5061L18.9203 26.458C18.7964 26.4333 18.6689 26.4333 18.5452 26.458L18.4634 26.482L18.3672 26.5108L18.271 26.5589L18.1989 26.5973V26.5975C18.1452 26.6325 18.0954 26.6727 18.0497 26.7178L16.352 28.4154C16.1727 28.5958 16.0723 28.8397 16.0723 29.0941C16.0725 29.3483 16.1734 29.5922 16.3529 29.7724C16.5324 29.9525 16.7758 30.0543 17.0303 30.0553L17.0303 30.0843Z" fill="#BE73E2"/>
</svg>
