<svg width="50" height="50" viewBox="0 0 50 50" fill="none" xmlns="http://www.w3.org/2000/svg">
<rect width="50" height="50" rx="10" fill="#000000"/>
<path d="M21.3831 14.024L12.5644 21.1228C12.1269 21.4741 11.9585 22.0624 12.1437 22.592C12.3289 23.1211 12.8269 23.4766 13.3876 23.479H35.7481C36.3107 23.4734 36.8077 23.1127 36.9888 22.5803C37.1693 22.0479 36.9939 21.4592 36.5508 21.1126L27.1689 13.9617C26.335 13.327 25.313 12.9891 24.2655 13.0003C23.2175 13.0114 22.2034 13.3716 21.3835 14.0241L21.3831 14.024Z" fill="#97E373"/>
<path d="M10.3435 37.9992H38.8443C38.9355 37.9992 39.023 37.9629 39.0876 37.8982C39.1519 37.834 39.1882 37.7465 39.1882 37.6553C39.1882 37.1936 39.0048 36.7506 38.6786 36.4244C38.3519 36.0977 37.9093 35.9143 37.4472 35.9143C37.2573 35.9143 37.1033 35.7603 37.1033 35.5704V35.1949C37.1033 34.8328 36.9595 34.4857 36.7035 34.2292C36.4471 33.9733 36.1 33.8295 35.7379 33.8295H35.0184L34.1012 26.5324C33.976 26 33.5013 25.624 32.9545 25.624C32.4077 25.624 31.933 26 31.8078 26.5324L31.0781 32.3598C30.9706 33.2203 30.2251 33.8578 29.358 33.8295H28.1593C27.3119 33.8309 26.5966 33.2003 26.4914 32.3598L25.7617 26.5324C25.6365 26 25.1618 25.624 24.615 25.624C24.0682 25.624 23.5935 26 23.4683 26.5324L22.7386 32.3598C22.6311 33.2203 21.8856 33.8578 21.0186 33.8295H19.8198C18.9724 33.8309 18.2571 33.2003 18.1519 32.3598L17.4222 26.5324C17.297 26 16.8224 25.624 16.2755 25.624C15.7287 25.624 15.2541 26 15.1289 26.5324L14.2116 33.8295H13.4507C12.6964 33.8295 12.0849 34.441 12.0849 35.1949V35.5704C12.0849 35.7603 11.9308 35.9143 11.7409 35.9143C11.2793 35.9143 10.8363 36.0977 10.51 36.4244C10.1833 36.7506 10 37.1936 10 37.6553C10 37.7465 10.0363 37.834 10.101 37.8982C10.1652 37.9629 10.2527 37.9992 10.3439 37.9992H10.3435Z" fill="#000000"/>
</svg>
