<svg width="50" height="50" viewBox="0 0 50 50" fill="none" xmlns="http://www.w3.org/2000/svg">
<rect width="50" height="50" rx="10" fill="#000000"/>
<path d="M38.8325 27.6715C37.927 27.9832 37.0179 28.2949 36.1086 28.6029C36.1086 27.6084 36.1086 26.5693 36.105 25.4374V25.1663L41.0592 23.4814C41.7048 25.5785 40.9886 26.9291 38.8325 27.6715L38.8325 27.6715Z" fill="#97E373"/>
<path d="M40.2345 21.0482L35.6924 22.592C35.6849 22.5698 35.6737 22.5475 35.6626 22.5253C35.1951 21.4715 34.104 20.2096 31.5621 20.1948C28.623 20.18 25.6395 20.1689 22.6929 20.1689C20.5183 20.1689 18.3103 20.1725 16.1284 20.1836C16.4846 19.523 17.1416 19.0146 18.0988 18.6844C23.4053 16.8437 28.7194 15.0363 34.0479 13.2551C36.1669 12.5464 37.5994 13.3255 38.3304 15.452C38.9687 17.315 39.6032 19.1816 40.2342 21.0482L40.2345 21.0482Z" fill="#97E373"/>
<path d="M35.303 25.4382V24.8631C35.2994 24.0764 35.1769 23.4011 34.9318 22.8482C34.3936 21.6383 33.2731 21.0038 31.5587 20.9927C28.6049 20.9779 25.6472 20.9668 22.6928 20.9668C20.4105 20.9668 18.1321 20.9704 15.8534 20.9816C14.8069 20.9852 13.7567 20.9927 12.7101 20.9963C10.2982 21.0111 9.02895 22.362 9.01398 24.7963C8.99534 27.9396 8.99534 31.079 9.01398 34.2221C9.02873 36.7159 10.3018 37.9701 12.8326 37.9887C14.035 37.9962 15.2374 37.9998 16.4398 37.9998C18.2952 37.9998 20.1507 37.9923 22.0062 37.9923H22.2808C24.0843 37.9923 25.8841 37.996 27.6839 37.996C28.9344 37.996 30.1813 37.996 31.4319 37.9884C34.0481 37.9773 35.295 36.7451 35.3022 34.1626C35.3059 32.3998 35.3098 30.6373 35.3098 28.8744C35.31 27.7319 35.3061 26.5851 35.3025 25.4384L35.303 25.4382ZM24.9382 31.7432C25.224 31.7432 25.4613 31.9399 25.532 32.2034C25.5431 32.2516 25.5506 32.3036 25.5506 32.3556C25.5506 32.5226 25.4802 32.6784 25.3689 32.7897C25.2576 32.9011 25.1054 32.9715 24.9348 32.9715H16.5733C16.2355 32.9715 15.9611 32.6968 15.9611 32.3593C15.9611 32.1923 16.0315 32.0365 16.1428 31.9252C16.2541 31.8139 16.4063 31.7434 16.5769 31.7434L24.9382 31.7432ZM16.9709 28.756C16.9709 28.6967 17.008 28.6447 17.0711 28.6224C17.2603 28.552 17.4312 28.4146 17.5647 28.2774H19.7469V28.3589C19.7469 28.9305 19.2794 29.4016 18.7043 29.4016H16.9824L16.9709 28.756ZM19.743 27.7465H17.8467V27.7167L17.8725 26.3733C17.8725 26.3324 17.8725 26.2954 17.865 26.2584C17.8503 26.1693 17.828 26.0839 17.7907 26.0024H19.7428L19.743 27.7465ZM18.7039 24.4477C19.2716 24.4477 19.7355 24.9079 19.7466 25.472H17.3012C17.2197 25.4238 17.1267 25.3829 17.0302 25.3495C16.9709 25.3309 16.9375 25.2791 16.9336 25.2235C16.9336 24.8895 16.93 24.6372 16.9261 24.4479L18.7039 24.4477ZM16.0245 25.2268C16.0245 24.8854 16.0281 24.633 16.032 24.4474H16.3957C16.3993 24.633 16.3993 24.8854 16.4032 25.2268C16.4032 25.509 16.5888 25.7611 16.8596 25.854C16.9411 25.8799 17.0118 25.9133 17.0711 25.9542C17.2233 26.0508 17.3159 26.1805 17.3421 26.3438V26.3661L17.3346 26.7334L17.3159 27.7131C17.3159 27.7429 17.3048 27.7724 17.2862 27.7947C17.149 27.9653 17.004 28.0841 16.8891 28.125C16.6144 28.2251 16.4327 28.4812 16.4363 28.7669L16.4475 29.4014H15.98L15.9911 28.7669C15.9947 28.4812 15.813 28.2215 15.5384 28.125C15.4235 28.0841 15.2785 27.9616 15.1413 27.7947C15.1227 27.7724 15.1115 27.7426 15.1115 27.7131L15.0856 26.3697V26.3474C15.1227 26.1212 15.286 25.954 15.5681 25.8577C15.8392 25.7614 16.0245 25.509 16.0245 25.2269L16.0245 25.2268ZM12.7106 25.4867C12.7106 24.9152 13.1781 24.4441 13.7533 24.4441H15.4974C15.4938 24.6333 15.4938 24.8857 15.4899 25.2196C15.4899 25.2753 15.4529 25.3273 15.3934 25.3457C15.2746 25.3866 15.1671 25.4347 15.0706 25.4979L12.7067 25.5201L12.707 25.4868L12.7106 25.4867ZM12.7106 26.0544L14.6181 26.0358C14.5922 26.1062 14.57 26.1805 14.5589 26.2584C14.5513 26.2954 14.5513 26.3327 14.5513 26.3733L14.5772 27.7204C14.5772 27.739 14.5772 27.7574 14.5809 27.776L12.7106 27.7763L12.7106 26.0544ZM12.7106 28.3069H14.8889C15.015 28.433 15.1747 28.5593 15.3528 28.6225C15.4159 28.6447 15.4566 28.6968 15.4529 28.7561L15.4418 29.4016H13.7497C13.1781 29.4016 12.707 28.9341 12.707 28.359V28.307L12.7106 28.3069ZM11.668 31.9252C11.7793 31.8139 11.9315 31.7435 12.1021 31.7435H14.7108C15.0486 31.7435 15.323 32.0182 15.323 32.3557C15.323 32.5227 15.2526 32.6785 15.1413 32.7898C15.03 32.9011 14.8778 32.9715 14.7072 32.9715H12.0985C11.7607 32.9715 11.4863 32.6969 11.4863 32.3593C11.4863 32.1885 11.5567 32.0366 11.668 31.9252ZM29.2618 34.7602C29.1505 34.8715 28.9983 34.9419 28.8277 34.9419L12.0987 34.9422C11.7609 34.9422 11.4865 34.6675 11.4865 34.33C11.4865 34.163 11.5569 34.0072 11.6682 33.8959C11.7795 33.7846 11.9317 33.7142 12.1023 33.7142H28.8314C29.1692 33.7142 29.4436 33.9888 29.4436 34.3264C29.4399 34.4967 29.3731 34.6489 29.2618 34.7602V34.7602Z" fill="#000000"/>
</svg>
