<svg width="50" height="50" viewBox="0 0 50 50" fill="none" xmlns="http://www.w3.org/2000/svg">
<rect width="50" height="50" rx="10" fill="#000000"/>
<path d="M19.1242 28.6015H12.3824C12.2559 28.0984 12.1595 27.5863 12.0962 27.0712C11.9968 26.2699 11.9757 25.4565 12.0269 24.6522C12.03 24.61 12.033 24.5708 12.036 24.5317C12.0541 24.2907 12.0812 24.0497 12.1113 23.8087C12.1444 23.5647 12.1836 23.3207 12.2288 23.0887C12.271 22.8749 12.3161 22.664 12.3673 22.4531H19.1152C19.1001 22.6248 19.0851 22.7996 19.073 22.9713C19.055 23.2213 19.0369 23.4743 19.0248 23.7274C19.0128 23.9835 19.0007 24.2365 18.9947 24.4865L18.9917 24.6131C18.9706 25.4535 18.9796 26.3091 19.0188 27.1526C19.0429 27.6376 19.0791 28.1225 19.1242 28.6016L19.1242 28.6015Z" fill="#97E373"/>
<path d="M22.2695 13.0273C22.1098 13.1991 21.9562 13.3858 21.8056 13.5937C21.676 13.7684 21.5525 13.9582 21.429 14.157C21.1007 14.6932 20.7964 15.3168 20.5223 16.0187C19.9379 17.5159 19.5101 19.2751 19.251 21.2513H12.729C13.3556 19.483 14.3858 17.8532 15.7204 16.5157C16.9284 15.3077 18.3382 14.3709 19.9077 13.7323C20.6758 13.419 21.4651 13.181 22.2694 13.0273H22.2695Z" fill="#97E373"/>
<path d="M26.5232 14.2622C25.2942 15.5576 24.6194 17.2536 24.6194 19.0399C24.6194 19.7961 24.7399 20.5401 24.9779 21.248H20.4683C20.7153 19.4526 21.1189 17.8018 21.6461 16.4552C22.104 15.2834 22.6372 14.3797 23.1975 13.7893C23.4024 13.5754 23.6102 13.4007 23.8211 13.2741C24.1133 13.0964 24.4055 13.003 24.6977 13H24.7158C25.0291 13.003 25.3213 13.1085 25.5894 13.2711C25.8183 13.4097 26.0292 13.5935 26.2129 13.7862C26.3455 13.9248 26.463 14.0664 26.5684 14.205C26.5563 14.2291 26.5413 14.2472 26.5232 14.2622H26.5232Z" fill="#97E373"/>
<path d="M29.1773 27.3874C29.1532 27.7941 29.1231 28.2008 29.084 28.6014H20.3327C20.2845 28.1044 20.2483 27.5983 20.2242 27.0922C20.1851 26.2788 20.176 25.4565 20.1971 24.6431L20.2001 24.5226C20.2092 24.2816 20.2182 24.0376 20.2302 23.7906C20.2423 23.5466 20.2574 23.3026 20.2754 23.0646C20.2905 22.8627 20.3086 22.6579 20.3266 22.4561H25.5381C26.2099 23.643 27.3757 25.2335 29.0145 27.1946C29.0687 27.2579 29.1229 27.3241 29.1771 27.3874L29.1773 27.3874Z" fill="#97E373"/>
<path d="M22.2724 37.9763C21.465 37.8197 20.6758 37.5847 19.9106 37.2714C18.3411 36.6328 16.9313 35.6959 15.7233 34.4879C14.4008 33.1655 13.3796 31.5568 12.75 29.8066H19.2599C19.519 31.7587 19.9437 33.4999 20.5251 34.982C20.8023 35.6869 21.1035 36.3074 21.4319 36.8437C21.5554 37.0425 21.6789 37.2323 21.8084 37.407C21.9591 37.6149 22.1127 37.8047 22.2723 37.9764L22.2724 37.9763Z" fill="#97E373"/>
<path d="M37.0331 28.6019H32.9121C33.8339 27.5475 35.2859 25.8334 36.4427 24.2188C36.5752 24.032 36.7048 23.8513 36.8283 23.6675C36.9488 23.4898 37.0663 23.312 37.1777 23.1403C37.1838 23.1313 37.1898 23.1252 37.1928 23.1162C37.5392 24.9357 37.482 26.8095 37.0331 28.6019L37.0331 28.6019Z" fill="#97E373"/>
<path d="M36.6687 29.8057C36.0391 31.5529 35.0179 33.1646 33.6954 34.487C32.4874 35.695 31.0777 36.6319 29.5081 37.2705C28.743 37.5838 27.9537 37.8188 27.1494 37.9724C27.3091 37.8007 27.4627 37.6139 27.6133 37.4061C27.7429 37.2313 27.8694 37.0416 27.9899 36.8427C28.3182 36.3065 28.6225 35.6859 28.8966 34.981C29.478 33.4989 29.9028 31.7577 30.1619 29.8057H31.2945L31.5656 30.1009L31.8337 29.8057L36.6687 29.8057Z" fill="#97E373"/>
<path d="M28.942 29.8066C28.695 31.581 28.2943 33.2107 27.7732 34.5452C27.3153 35.717 26.7821 36.6208 26.2218 37.2112C26.0169 37.425 25.8091 37.5968 25.5982 37.7263C25.306 37.904 25.0138 37.9974 24.7216 38.0004H24.6975C24.4053 37.9974 24.1101 37.904 23.8209 37.7263C23.61 37.5968 23.4022 37.425 23.1973 37.2112C22.634 36.6207 22.1038 35.717 21.6459 34.5452C21.1248 33.2106 20.7211 31.581 20.4741 29.8066H28.942Z" fill="#97E373"/>
<path d="M31.5658 13.3008C30.4874 13.3008 29.4391 13.602 28.5293 14.1684C28.4992 14.1864 28.469 14.2075 28.4389 14.2256C28.0624 14.4726 27.7129 14.7618 27.4027 15.0902C26.3875 16.1596 25.8271 17.5633 25.8271 19.0394C25.8271 19.6841 25.9326 20.3137 26.1404 20.9162C26.2037 21.1029 26.3031 21.3259 26.4326 21.5729C27.017 22.6935 28.231 24.3715 29.9421 26.4199C30.0867 26.5916 30.2253 26.7573 30.3609 26.92L30.4091 26.923C30.4091 26.941 30.4091 26.9561 30.4061 26.9742C30.87 27.5194 31.2767 27.9833 31.5659 28.3087C32.5329 27.2212 34.8434 24.5552 36.1628 22.4918C36.19 22.4496 36.2171 22.4044 36.2442 22.3622C36.6147 21.7718 36.8677 21.2838 36.9943 20.9132C37.2021 20.3107 37.3076 19.6812 37.3076 19.0395C37.3045 15.8734 34.7289 13.3008 31.5661 13.3008L31.5658 13.3008ZM33.0721 19.386C32.9154 20.0728 32.2979 20.5849 31.5658 20.5849C30.7133 20.5849 30.0204 19.8921 30.0204 19.0395C30.0204 18.2744 30.5808 17.6358 31.3128 17.5152C31.3971 17.5002 31.4815 17.4942 31.5658 17.4942C32.4184 17.4942 33.1112 18.187 33.1112 19.0396C33.1112 19.157 33.0962 19.2745 33.0721 19.386L33.0721 19.386Z" fill="#000000"/>
</svg>
