<svg width="50" height="50" viewBox="0 0 50 50" fill="none" xmlns="http://www.w3.org/2000/svg">
<rect width="50" height="50" rx="10" fill="#000000"/>
<path d="M32.0172 23.8454H36.3311V19.9867C36.3311 19.2365 35.7239 18.629 34.9734 18.629H25.9257C25.6668 22.7109 22.2727 25.9531 18.1285 25.9531C16.5565 25.9531 15.1007 25.4885 13.877 24.6847V34.2774C13.877 35.7778 15.0917 37.0016 16.6012 37.0016H34.9741C35.7243 37.0016 36.3318 36.3943 36.3318 35.6439V32.2498H32.0179C29.7046 32.2498 27.8199 30.3651 27.8199 28.0518C27.8197 25.7298 29.7044 23.8453 32.0177 23.8453L32.0172 23.8454ZM34.2858 16.5836V15.2171C34.2858 14.4669 33.6785 13.8594 32.9281 13.8594H24.6843C25.2202 14.6722 25.6041 15.5921 25.8007 16.5836H34.2858Z" fill="#97E373"/>
<path fill-rule="evenodd" clip-rule="evenodd" d="M12 18.1185C12 14.742 14.7421 12 18.1272 12C21.5033 12 24.2455 14.7422 24.2544 18.1185C24.2544 21.5036 21.5123 24.2457 18.1272 24.2457C14.7422 24.2457 12 21.5036 12 18.1185ZM32.0161 25.5405H36.6697C36.8571 25.5405 37.009 25.6923 37.009 25.8711V30.1851C37.009 30.3725 36.8573 30.5244 36.6697 30.5244H32.0161C30.6407 30.5244 29.5242 29.4079 29.5242 28.0325C29.5242 26.657 30.6407 25.5405 32.0161 25.5405ZM31.5696 28.0415C31.5696 28.6041 32.0251 29.0596 32.5877 29.0596C33.1503 29.0596 33.6059 28.6041 33.6059 28.0415C33.6059 27.4788 33.1503 27.0233 32.5877 27.0233C32.0251 27.0233 31.5696 27.4789 31.5696 28.0415ZM16.4093 19.0091V20.9954H17.3019V19.0091H18.0096L18.653 20.9954H19.9236V19.0091H20.382V18.414H19.9236V17.835H20.382V17.2399H19.9236V15.2536H19.0309V17.2399H18.2991L17.6719 15.2536H16.4093V17.2399H15.9429V17.835H16.4093V18.414H15.9429V19.0091H16.4093ZM17.8327 18.414H17.3019L17.2859 17.835H17.6558L17.8327 18.414ZM19.0953 19.7409H19.0551L18.846 19.0091H19.0631L19.0953 19.7409ZM17.4949 17.2399H17.2698L17.2296 16.4679H17.2617L17.4949 17.2399ZM19.047 18.414H18.6771L18.4921 17.835H19.0309L19.047 18.414Z" fill="#000000"/>
</svg>
