<svg width="50" height="50" viewBox="0 0 50 50" fill="none" xmlns="http://www.w3.org/2000/svg">
<rect width="50" height="50" rx="10" fill="#000000"/>
<path d="M22.8063 13L15.1497 15.0037L13.0398 22.7134L15.6937 25.4204L13 28.0876L14.9904 35.8238L22.6205 37.9602L25.3142 35.293L27.9549 38L35.6247 35.9963L37.7346 28.2866L35.0939 25.5796L37.7877 22.9124L35.7972 15.1762L28.1539 13.0398L25.4602 15.707L22.8063 13ZM18.1088 16.4899L22.1428 15.4283L23.9076 17.2463L21.3333 19.7941L18.1088 16.4899ZM26.9729 17.2728L28.7643 15.4947L32.785 16.6226L29.4942 19.8869C29.5074 19.8737 26.9729 17.2728 26.9729 17.2728ZM15.4549 22.0764L16.5695 18.0159L19.7941 21.3201L17.2197 23.8811L15.4549 22.0764ZM31.0202 21.4262L34.311 18.1619L35.3593 22.2489L33.5679 24.0271C33.5547 24.0271 31.0202 21.4262 31.0202 21.4262ZM22.8593 21.3599L25.4337 18.7988L27.9682 21.3997L25.3806 23.9607L22.8593 21.3599ZM18.7458 25.4469L21.3201 22.8859L23.8546 25.4867L21.2803 28.0478L18.7458 25.4469ZM26.9066 25.5133L29.4809 22.9522L32.0154 25.5531L29.4411 28.1141C29.4411 28.1141 26.9066 25.5133 26.9066 25.5133ZM15.4151 28.7643L17.2065 26.9862L19.741 29.587L16.4634 32.8514C16.4501 32.8381 15.4151 28.7643 15.4151 28.7643ZM22.793 29.6003L25.3673 27.0393L27.9018 29.6401L25.3275 32.2012L22.793 29.6003ZM30.9538 29.6667L33.5281 27.1056L35.293 28.9236L34.1916 32.9841C34.1783 32.9841 30.9538 29.6667 30.9538 29.6667ZM17.9628 34.3907L21.2404 31.1263L23.7749 33.7272L21.9835 35.5053L17.9628 34.3907ZM26.8402 33.7537L29.4145 31.1927L32.6391 34.4968L28.6051 35.5584L26.8402 33.7537Z" fill="#000000"/>
</svg>
