<svg width="50" height="50" viewBox="0 0 50 50" fill="none" xmlns="http://www.w3.org/2000/svg">
<rect width="50" height="50" rx="10" fill="#F0D1FF"/>
<path d="M32.0172 23.8454H36.3311V19.9867C36.3311 19.2365 35.7239 18.629 34.9734 18.629H25.9257C25.6668 22.7109 22.2727 25.9531 18.1285 25.9531C16.5565 25.9531 15.1007 25.4885 13.877 24.6847V34.2774C13.877 35.7778 15.0917 37.0016 16.6012 37.0016H34.9741C35.7243 37.0016 36.3318 36.3943 36.3318 35.6439V32.2498H32.0179C29.7046 32.2498 27.8199 30.3651 27.8199 28.0518C27.8197 25.7298 29.7044 23.8453 32.0177 23.8453L32.0172 23.8454ZM34.2858 16.5836V15.2171C34.2858 14.4669 33.6785 13.8594 32.9281 13.8594H24.6843C25.2202 14.6722 25.6041 15.5921 25.8007 16.5836H34.2858Z" fill="#BE73E2"/>
<path fill-rule="evenodd" clip-rule="evenodd" d="M12 18.1185C12 14.742 14.7421 12 18.1272 12C21.5033 12 24.2455 14.7422 24.2544 18.1185C24.2544 21.5036 21.5123 24.2457 18.1272 24.2457C14.7422 24.2457 12 21.5036 12 18.1185ZM32.0161 25.5405H36.6697C36.8571 25.5405 37.009 25.6923 37.009 25.8711V30.1851C37.009 30.3725 36.8573 30.5244 36.6697 30.5244H32.0161C30.6407 30.5244 29.5242 29.4079 29.5242 28.0325C29.5242 26.657 30.6407 25.5405 32.0161 25.5405ZM31.5696 28.0415C31.5696 28.6041 32.0251 29.0596 32.5877 29.0596C33.1503 29.0596 33.6059 28.6041 33.6059 28.0415C33.6059 27.4788 33.1503 27.0233 32.5877 27.0233C32.0251 27.0233 31.5696 27.4789 31.5696 28.0415ZM17.9055 20.6811V21.2638H18.3224V20.6815C18.6586 20.6639 18.9518 20.6021 19.2019 20.4961C19.5036 20.3673 19.734 20.1868 19.8933 19.9547C20.0543 19.7208 20.1357 19.4446 20.1374 19.126C20.1357 18.9091 20.0958 18.7167 20.0179 18.549C19.9416 18.3812 19.834 18.2355 19.6951 18.1118C19.5561 17.988 19.3917 17.8838 19.2019 17.7991C19.0121 17.7144 18.8037 17.6466 18.5766 17.5957L18.3224 17.5349V16.2684C18.4942 16.2906 18.6366 16.3433 18.7494 16.4264C18.9037 16.54 18.9909 16.6993 19.0113 16.9043H20.0662C20.0611 16.5942 19.9781 16.3214 19.8171 16.0858C19.6561 15.8502 19.4307 15.6664 19.1409 15.5342C18.9019 15.4245 18.6291 15.3604 18.3224 15.3417V14.7563H17.9055V15.3439C17.6152 15.3651 17.3508 15.4285 17.1124 15.5342C16.8142 15.6664 16.5795 15.8502 16.4083 16.0858C16.2388 16.3214 16.1549 16.5967 16.1566 16.9119C16.1549 17.2966 16.2812 17.6025 16.5354 17.8296C16.7896 18.0567 17.1361 18.2236 17.5751 18.3304L17.9055 18.4133V19.7527C17.7933 19.7394 17.6891 19.7144 17.5928 19.6776C17.4437 19.6183 17.3242 19.531 17.2344 19.4158C17.1463 19.2989 17.0963 19.1531 17.0845 18.9786H16.0194C16.0278 19.3531 16.1185 19.6674 16.2914 19.9216C16.4659 20.1741 16.7082 20.3648 17.0184 20.4936C17.2768 20.6003 17.5725 20.6628 17.9055 20.6811ZM18.3224 19.7501C18.4198 19.737 18.5088 19.7145 18.5893 19.6827C18.7283 19.6285 18.8359 19.5531 18.9121 19.4565C18.9884 19.3599 19.0265 19.2489 19.0265 19.1235C19.0265 19.0065 18.9918 18.9082 18.9223 18.8286C18.8545 18.7489 18.7545 18.6812 18.6223 18.6252C18.5355 18.588 18.4355 18.553 18.3224 18.5203V19.7501ZM17.9055 17.4307V16.2702C17.8168 16.2826 17.7371 16.3034 17.6666 16.3324C17.5429 16.3815 17.448 16.4501 17.3819 16.5383C17.3175 16.6264 17.2853 16.7264 17.2853 16.8382C17.2819 16.9314 17.3014 17.0128 17.3437 17.0823C17.3878 17.1517 17.448 17.2119 17.5242 17.2627C17.6005 17.3119 17.6886 17.3551 17.7886 17.3924C17.8266 17.4059 17.8656 17.4187 17.9055 17.4307Z" fill="#8948A8"/>
</svg>
