<svg width="50" height="50" viewBox="0 0 50 50" fill="none" xmlns="http://www.w3.org/2000/svg">
<rect width="50" height="50" rx="10" fill="#000000"/>
<path d="M21.0826 21.8541C20.5617 19.8229 18.7388 18.3125 16.5513 18.3125C14.3638 18.3125 12.5409 19.8229 12.0201 21.8541C11.9159 22.2707 12.2284 22.6875 12.6972 22.6875H20.4575C20.8741 22.6875 21.1866 22.2709 21.0825 21.8541H21.0826Z" fill="#000000"/>
<path d="M18.6867 15.1354C18.6867 16.3147 17.7308 17.2709 16.5514 17.2709C15.372 17.2709 14.416 16.3147 14.416 15.1354C14.416 13.956 15.372 13 16.5514 13C17.7308 13 18.6867 13.956 18.6867 15.1354" fill="#000000"/>
<path d="M37.0201 21.8541C36.4992 19.8229 34.6763 18.3125 32.4888 18.3125C30.3013 18.3125 28.4263 19.8229 27.9576 21.8541C27.8534 22.2707 28.1659 22.6875 28.6347 22.6875H36.395C36.7596 22.6875 37.1241 22.2709 37.02 21.8541H37.0201Z" fill="#000000"/>
<path d="M34.6242 15.1354C34.6242 16.3147 33.6683 17.2709 32.4889 17.2709C31.3095 17.2709 30.3535 16.3147 30.3535 15.1354C30.3535 13.956 31.3095 13 32.4889 13C33.6683 13 34.6242 13.956 34.6242 15.1354" fill="#000000"/>
<path d="M24.52 31.9062C21.4472 31.9062 18.895 33.9897 18.2178 36.854C18.0615 37.4269 18.5303 37.9999 19.1553 37.9999H29.9366C30.5616 37.9999 30.9782 37.4271 30.8741 36.854C30.145 33.9896 27.5928 31.9062 24.52 31.9062V31.9062Z" fill="#000000"/>
<path d="M27.4888 27.4795C27.4888 29.1191 26.1596 30.4483 24.52 30.4483C22.8804 30.4483 21.5513 29.1191 21.5513 27.4795C21.5513 25.8399 22.8804 24.5107 24.52 24.5107C26.1596 24.5107 27.4888 25.8399 27.4888 27.4795Z" fill="#000000"/>
<path d="M18.8428 33.0521C18.9991 32.6355 18.7907 32.2187 18.3741 32.0624C17.0719 31.5937 16.0303 30.6562 15.4053 29.4062C14.7803 28.1562 14.7282 26.7499 15.1449 25.4478C15.3012 25.0312 15.0928 24.6144 14.6762 24.4581C14.2596 24.3019 13.8428 24.5103 13.6865 24.9269C12.4887 28.4685 14.3637 32.2706 17.8532 33.5207C17.9574 33.5728 18.5303 33.7812 18.8428 33.0521Z" fill="#97E373"/>
<path d="M34.364 24.4584C33.9474 24.6146 33.739 25.0312 33.8952 25.448C34.364 26.7502 34.2599 28.1564 33.6349 29.4064C33.0099 30.6564 31.9683 31.5939 30.6661 32.0627C30.2495 32.2189 29.989 32.6355 30.1974 33.0523C30.5099 33.7814 31.0827 33.5732 31.187 33.5211C34.7286 32.3232 36.5518 28.4688 35.3536 24.9273C35.1974 24.5625 34.7806 24.3021 34.364 24.4584Z" fill="#97E373"/>
<path d="M20.6138 17.5316C21.6554 16.49 23.0097 15.917 24.52 15.917C25.9784 15.917 27.3847 16.4899 28.4263 17.5316C28.5825 17.6879 29.1034 17.9483 29.5201 17.5316C29.8326 17.2191 29.8326 16.7504 29.5201 16.4379C28.1659 15.0838 26.395 14.3545 24.52 14.3545C22.645 14.3545 20.8741 15.0836 19.52 16.4379C19.2075 16.7504 19.2075 17.2191 19.52 17.5316C19.8325 17.8441 20.3013 17.8441 20.6138 17.5316Z" fill="#97E373"/>
</svg>
