<svg width="26" height="26" viewBox="0 0 26 26" fill="none" xmlns="http://www.w3.org/2000/svg">
<path d="M13.5625 2.5765L22.8409 6.28782C23.2017 6.43215 23.4904 6.86513 23.4904 7.24657V10.6693C23.4904 11.2363 23.0265 11.7002 22.4595 11.7002H3.90275C3.33574 11.7002 2.87183 11.2363 2.87183 10.6693V7.24657C2.87183 6.86513 3.16049 6.43215 3.52132 6.28782L12.7997 2.5765C13.0059 2.49403 13.3564 2.49403 13.5625 2.5765Z" stroke="black" stroke-width="1.54639" stroke-miterlimit="10" stroke-linecap="round" stroke-linejoin="round"/>
<path d="M23.4904 23.0407H2.87183V19.9479C2.87183 19.3809 3.33574 18.917 3.90275 18.917H22.4595C23.0265 18.917 23.4904 19.3809 23.4904 19.9479V23.0407Z" stroke="black" stroke-width="1.54639" stroke-miterlimit="10" stroke-linecap="round" stroke-linejoin="round"/>
<path d="M4.93384 18.9172V11.7007" stroke="black" stroke-width="1.54639" stroke-miterlimit="10" stroke-linecap="round" stroke-linejoin="round"/>
<path d="M9.05737 18.9172V11.7007" stroke="black" stroke-width="1.54639" stroke-miterlimit="10" stroke-linecap="round" stroke-linejoin="round"/>
<path d="M13.1812 18.9172V11.7007" stroke="black" stroke-width="1.54639" stroke-miterlimit="10" stroke-linecap="round" stroke-linejoin="round"/>
<path d="M17.3049 18.9172V11.7007" stroke="black" stroke-width="1.54639" stroke-miterlimit="10" stroke-linecap="round" stroke-linejoin="round"/>
<path d="M21.4287 18.9172V11.7007" stroke="black" stroke-width="1.54639" stroke-miterlimit="10" stroke-linecap="round" stroke-linejoin="round"/>
<path d="M1.84106 23.041H24.5215" stroke="black" stroke-width="1.54639" stroke-miterlimit="10" stroke-linecap="round" stroke-linejoin="round"/>
<path d="M13.1812 9.12306C14.0352 9.12306 14.7275 8.43071 14.7275 7.57667C14.7275 6.72262 14.0352 6.03027 13.1812 6.03027C12.3271 6.03027 11.6348 6.72262 11.6348 7.57667C11.6348 8.43071 12.3271 9.12306 13.1812 9.12306Z" stroke="black" stroke-width="1.54639" stroke-miterlimit="10" stroke-linecap="round" stroke-linejoin="round"/>
</svg>
