<svg width="44" height="45" viewBox="0 0 44 45" fill="none" xmlns="http://www.w3.org/2000/svg">
<rect x="0.221603" y="0.590332" width="43.7027" height="43.7027" rx="21.8513" fill="#FEFAE6"/>
<path d="M25.3178 23.2615H24.4766H19.3743V26.3534H20.8055H25.3178C26.3558 26.3534 27.208 25.6542 27.208 24.802C27.208 23.9498 26.3558 23.2615 25.3178 23.2615Z" fill="#FACC15"/>
<path d="M22.0729 11.5164C16.042 11.5164 11.1473 16.4111 11.1473 22.442C11.1473 28.473 16.042 33.3677 22.0729 33.3677C28.1039 33.3677 32.9986 28.473 32.9986 22.442C32.9986 16.4111 28.1039 11.5164 22.0729 11.5164ZM25.3179 27.9923H23.5151V29.5437C23.5151 29.9917 23.1436 30.3631 22.6957 30.3631C22.2477 30.3631 21.8763 29.9917 21.8763 29.5437V27.9923H20.8056H20.5543V29.5437C20.5543 29.9917 20.1828 30.3631 19.7348 30.3631C19.2869 30.3631 18.9154 29.9917 18.9154 29.5437V27.9923H18.5549H16.6647C16.2168 27.9923 15.8453 27.6208 15.8453 27.1728C15.8453 26.7249 16.2168 26.3534 16.6647 26.3534H17.7354V22.442V18.5306H16.6647C16.2168 18.5306 15.8453 18.1592 15.8453 17.7112C15.8453 17.2633 16.2168 16.8918 16.6647 16.8918H18.5549H18.9154V15.3403C18.9154 14.8924 19.2869 14.5209 19.7348 14.5209C20.1828 14.5209 20.5543 14.8924 20.5543 15.3403V16.8918H20.8056H21.8763V15.3403C21.8763 14.8924 22.2477 14.5209 22.6957 14.5209C23.1436 14.5209 23.5151 14.8924 23.5151 15.3403V16.8918H24.4766C26.1701 16.8918 27.6669 18.3777 27.6669 20.0821C27.6669 20.8141 27.4047 21.4806 26.9895 22.0268C28.093 22.5622 28.8468 23.6111 28.8468 24.8238C28.8468 26.561 27.2626 27.9923 25.3179 27.9923Z" fill="#FACC15"/>
<path d="M26.028 20.0712C26.028 19.3501 25.3506 18.5198 24.4766 18.5198H20.8055H19.3743V21.6117H24.4766C25.3288 21.6227 26.028 20.9234 26.028 20.0712Z" fill="#FACC15"/>
</svg>
