<svg width="28" height="27" viewBox="0 0 28 27" fill="none" xmlns="http://www.w3.org/2000/svg">
<path d="M17.3178 14.2615H16.4766H11.3743V17.3534H12.8055H17.3178C18.3558 17.3534 19.208 16.6542 19.208 15.802C19.208 14.9498 18.3558 14.2615 17.3178 14.2615Z" fill="#FACC15"/>
<path d="M14.0729 2.51636C8.04196 2.51636 3.14726 7.41106 3.14726 13.442C3.14726 19.473 8.04196 24.3677 14.0729 24.3677C20.1039 24.3677 24.9986 19.473 24.9986 13.442C24.9986 7.41106 20.1039 2.51636 14.0729 2.51636ZM17.3179 18.9923H15.5151V20.5437C15.5151 20.9917 15.1436 21.3631 14.6957 21.3631C14.2477 21.3631 13.8763 20.9917 13.8763 20.5437V18.9923H12.8056H12.5543V20.5437C12.5543 20.9917 12.1828 21.3631 11.7348 21.3631C11.2869 21.3631 10.9154 20.9917 10.9154 20.5437V18.9923H10.5549H8.66472C8.21677 18.9923 7.8453 18.6208 7.8453 18.1728C7.8453 17.7249 8.21677 17.3534 8.66472 17.3534H9.73544V13.442V9.53064H8.66472C8.21677 9.53064 7.8453 9.15916 7.8453 8.71121C7.8453 8.26326 8.21677 7.89179 8.66472 7.89179H10.5549H10.9154V6.34034C10.9154 5.89239 11.2869 5.52092 11.7348 5.52092C12.1828 5.52092 12.5543 5.89239 12.5543 6.34034V7.89179H12.8056H13.8763V6.34034C13.8763 5.89239 14.2477 5.52092 14.6957 5.52092C15.1436 5.52092 15.5151 5.89239 15.5151 6.34034V7.89179H16.4766C18.1701 7.89179 19.6669 9.37768 19.6669 11.0821C19.6669 11.8141 19.4047 12.4806 18.9895 13.0268C20.093 13.5622 20.8468 14.6111 20.8468 15.8238C20.8468 17.561 19.2626 18.9923 17.3179 18.9923Z" fill="#FACC15"/>
<path d="M18.028 11.0712C18.028 10.3501 17.3506 9.51978 16.4766 9.51978H12.8055H11.3743V12.6117H16.4766C17.3288 12.6227 18.028 11.9234 18.028 11.0712Z" fill="#FACC15"/>
</svg>
