<svg width="44" height="45" viewBox="0 0 44 45" fill="none" xmlns="http://www.w3.org/2000/svg">
<rect x="0.221603" y="0.590332" width="43.7027" height="43.7027" rx="21.8513" fill="#FEFAE6"/>
<path d="M25.3179 23.2615H24.4766H19.3743V26.3534H20.8056H25.3179C26.3558 26.3534 27.208 25.6542 27.208 24.802C27.208 23.9498 26.3558 23.2615 25.3179 23.2615Z" fill="#FACC15"/>
<path d="M22.0726 11.5164C16.0417 11.5164 11.147 16.4111 11.147 22.442C11.147 28.473 16.0417 33.3677 22.0726 33.3677C28.1036 33.3677 32.9983 28.473 32.9983 22.442C32.9983 16.4111 28.1036 11.5164 22.0726 11.5164ZM25.3176 27.9923H23.5148V29.5437C23.5148 29.9917 23.1434 30.3631 22.6954 30.3631C22.2474 30.3631 21.876 29.9917 21.876 29.5437V27.9923H20.8053H20.554V29.5437C20.554 29.9917 20.1825 30.3631 19.7345 30.3631C19.2866 30.3631 18.9151 29.9917 18.9151 29.5437V27.9923H18.5546H16.6644C16.2165 27.9923 15.845 27.6208 15.845 27.1728C15.845 26.7249 16.2165 26.3534 16.6644 26.3534H17.7351V22.442V18.5306H16.6644C16.2165 18.5306 15.845 18.1592 15.845 17.7112C15.845 17.2633 16.2165 16.8918 16.6644 16.8918H18.5546H18.9151V15.3403C18.9151 14.8924 19.2866 14.5209 19.7345 14.5209C20.1825 14.5209 20.554 14.8924 20.554 15.3403V16.8918H20.8053H21.876V15.3403C21.876 14.8924 22.2474 14.5209 22.6954 14.5209C23.1434 14.5209 23.5148 14.8924 23.5148 15.3403V16.8918H24.4763C26.1698 16.8918 27.6666 18.3777 27.6666 20.0821C27.6666 20.8141 27.4044 21.4806 26.9892 22.0268C28.0927 22.5622 28.8466 23.6111 28.8466 24.8238C28.8466 26.561 27.2623 27.9923 25.3176 27.9923Z" fill="#FACC15"/>
<path d="M26.028 20.0712C26.028 19.3501 25.3506 18.5198 24.4766 18.5198H20.8056H19.3743V21.6117H24.4766C25.3288 21.6227 26.028 20.9234 26.028 20.0712Z" fill="#FACC15"/>
</svg>
