<svg width="18" height="16" viewBox="0 0 18 16" fill="none" xmlns="http://www.w3.org/2000/svg">
<path d="M7.33333 4.66658V2.99992C7.33333 2.55789 7.50893 2.13397 7.82149 1.82141C8.13405 1.50885 8.55797 1.33325 9 1.33325H14.8333C15.2754 1.33325 15.6993 1.50885 16.0118 1.82141C16.3244 2.13397 16.5 2.55789 16.5 2.99992V12.9999C16.5 13.4419 16.3244 13.8659 16.0118 14.1784C15.6993 14.491 15.2754 14.6666 14.8333 14.6666H9C8.55797 14.6666 8.13405 14.491 7.82149 14.1784C7.50893 13.8659 7.33333 13.4419 7.33333 12.9999V11.3333" stroke="#A0AEC0" stroke-width="1.5" stroke-linecap="round" stroke-linejoin="round"/>
<path d="M13.1667 8H1.50008M1.50008 8L4.00008 5.5M1.50008 8L4.00008 10.5" stroke="#A0AEC0" stroke-width="1.5" stroke-linecap="round" stroke-linejoin="round"/>
</svg>
