<svg width="27" height="143" viewBox="0 0 27 143" fill="none" xmlns="http://www.w3.org/2000/svg">
<path d="M4.27764 0H0V17.5199H4.27764V0Z" fill="#E4AD50"/>
<path d="M15.1444 0H10.8667V17.5199H15.1444V0Z" fill="#E4AD50"/>
<path d="M26.0109 0H21.7333V17.5199H26.0109V0Z" fill="#E4AD50"/>
<path d="M4.27764 24.9516H0V42.4715H4.27764V24.9516Z" fill="#E4AD50"/>
<path d="M15.1444 24.9516H10.8667V42.4715H15.1444V24.9516Z" fill="#E4AD50"/>
<path d="M15.1444 49.8951H10.8667V67.4151H15.1444V49.8951Z" fill="#E4AD50"/>
<path d="M26.0109 49.8951H21.7333V67.4151H26.0109V49.8951Z" fill="#E4AD50"/>
<path d="M4.27764 74.8469H0V92.3668H4.27764V74.8469Z" fill="#E4AD50"/>
<path d="M26.0109 74.8469H21.7333V92.3668H26.0109V74.8469Z" fill="#E4AD50"/>
<path d="M4.27764 99.7985H0V117.318H4.27764V99.7985Z" fill="#E4AD50"/>
<path d="M15.1444 99.7985H10.8667V117.318H15.1444V99.7985Z" fill="#E4AD50"/>
<path d="M4.27764 124.75H0V142.27H4.27764V124.75Z" fill="#E4AD50"/>
<path d="M15.1444 124.75H10.8667V142.27H15.1444V124.75Z" fill="#E4AD50"/>
<path d="M26.0109 124.75H21.7333V142.27H26.0109V124.75Z" fill="#E4AD50"/>
</svg>
