<svg width="17" height="21" viewBox="0 0 17 21" fill="none" xmlns="http://www.w3.org/2000/svg">
<path d="M11.7217 5.68035C11.7217 7.53079 10.2216 9.03087 8.37116 9.03087V10.5773C11.0756 10.5773 13.2681 8.38484 13.2681 5.68035H11.7217ZM8.37116 9.03087C6.52072 9.03087 5.02064 7.53079 5.02064 5.68035H3.47425C3.47425 8.38484 5.66667 10.5773 8.37116 10.5773V9.03087ZM5.02064 5.68035C5.02064 3.82991 6.52072 2.32984 8.37116 2.32984V0.783445C5.66667 0.783445 3.47425 2.97586 3.47425 5.68035H5.02064ZM8.37116 2.32984C10.2216 2.32984 11.7217 3.82991 11.7217 5.68035H13.2681C13.2681 2.97586 11.0756 0.783445 8.37116 0.783445V2.32984ZM14.8145 16.5051C14.8145 17.0508 14.3519 17.7531 13.1282 18.3649C11.9507 18.9537 10.2699 19.3401 8.37116 19.3401V20.8865C10.4579 20.8865 12.3854 20.4653 13.8198 19.7481C15.2079 19.054 16.3608 17.9521 16.3608 16.5051H14.8145ZM8.37116 19.3401C6.47239 19.3401 4.7916 18.9537 3.61411 18.3649C2.39037 17.7531 1.92786 17.0508 1.92786 16.5051H0.381467C0.381467 17.9521 1.53442 19.054 2.92254 19.7481C4.35691 20.4653 6.28437 20.8865 8.37116 20.8865V19.3401ZM1.92786 16.5051C1.92786 15.9593 2.39037 15.2571 3.61411 14.6452C4.7916 14.0565 6.47239 13.67 8.37116 13.67V12.1237C6.28437 12.1237 4.35691 12.5449 2.92254 13.2621C1.53442 13.9562 0.381467 15.0581 0.381467 16.5051H1.92786ZM8.37116 13.67C10.2699 13.67 11.9507 14.0565 13.1282 14.6452C14.3519 15.2571 14.8145 15.9593 14.8145 16.5051H16.3608C16.3608 15.0581 15.2079 13.9562 13.8198 13.2621C12.3854 12.5449 10.4579 12.1237 8.37116 12.1237V13.67Z" fill="black"/>
</svg>
