<svg width="24" height="25" viewBox="0 0 24 25" fill="none" xmlns="http://www.w3.org/2000/svg">
<path fill-rule="evenodd" clip-rule="evenodd" d="M21 10.6503V18.4668C21 20.6943 19.2091 22.5 17 22.5H7C4.79086 22.5 3 20.6943 3 18.4668V10.6503C3 9.43937 3.53964 8.2925 4.46986 7.52652L9.46986 3.40935C10.9423 2.19689 13.0577 2.19688 14.5301 3.40935L19.5301 7.52652C20.4604 8.2925 21 9.43937 21 10.6503ZM10 17.75C9.58579 17.75 9.25 18.0858 9.25 18.5C9.25 18.9142 9.58579 19.25 10 19.25H14C14.4142 19.25 14.75 18.9142 14.75 18.5C14.75 18.0858 14.4142 17.75 14 17.75H10Z" fill="#E4AD50"/>
</svg>
