<svg width="18" height="21" viewBox="0 0 18 21" fill="none" xmlns="http://www.w3.org/2000/svg">
<path fill-rule="evenodd" clip-rule="evenodd" d="M18 8.65033V16.4668C18 18.6943 16.2091 20.5 14 20.5H4C1.79086 20.5 0 18.6943 0 16.4668V8.65033C0 7.43937 0.539645 6.2925 1.46986 5.52652L6.46986 1.40935C7.9423 0.196886 10.0577 0.196883 11.5301 1.40935L16.5301 5.52652C17.4604 6.2925 18 7.43937 18 8.65033ZM7 15.75C6.58579 15.75 6.25 16.0858 6.25 16.5C6.25 16.9142 6.58579 17.25 7 17.25H11C11.4142 17.25 11.75 16.9142 11.75 16.5C11.75 16.0858 11.4142 15.75 11 15.75H7Z" fill="#E4AD50"/>
</svg>
