<svg width="24" height="25" viewBox="0 0 24 25" fill="none" xmlns="http://www.w3.org/2000/svg">
<path d="M8.92024 22.0024V18.6801C8.92022 17.8351 9.60913 17.1485 10.4627 17.1428H13.5893C14.4469 17.1428 15.1421 17.8311 15.1421 18.6801V18.6801V22.0127C15.1419 22.7302 15.7204 23.3166 16.4449 23.3334H18.5293C20.6071 23.3334 22.2916 21.6658 22.2916 19.6087V19.6087V10.1577C22.2805 9.34848 21.8967 8.58854 21.2494 8.0942L14.1208 2.40916C12.8719 1.41928 11.0966 1.41928 9.84779 2.40916L2.75045 8.10452C2.1007 8.59686 1.71625 9.35805 1.70825 10.1681V19.6087C1.70825 21.6658 3.3927 23.3334 5.47057 23.3334H7.55496C8.29747 23.3334 8.89939 22.7375 8.89939 22.0024V22.0024" stroke="black" stroke-width="1.5" stroke-linecap="round" stroke-linejoin="round"/>
</svg>
