<svg width="44" height="44" viewBox="0 0 44 44" fill="none" xmlns="http://www.w3.org/2000/svg">
<rect x="0.221603" y="0.179688" width="43.7027" height="43.7027" rx="21.8513" fill="#E8EDFF"/>
<path d="M29.7208 16.5678C29.7208 16.7645 29.7099 16.9502 29.6881 17.1359C29.557 18.7202 28.8577 20.1514 27.7979 21.2003C26.6179 22.3912 24.9791 23.1232 23.1654 23.1232H19.7457C19.1994 23.1232 18.7405 23.5274 18.6641 24.0628L17.8337 29.8316C17.7681 30.2577 17.4622 30.6073 17.058 30.7166C16.9597 30.7603 16.8613 30.7712 16.7521 30.7712H14.6216C13.9442 30.7712 13.4307 30.1703 13.5399 29.5038L16.1511 13.8473C16.4134 12.2631 17.7791 11.105 19.3852 11.105H24.258C27.2735 11.105 29.7208 13.5523 29.7208 16.5678Z" fill="#194BFB"/>
<path d="M31.9054 20.9379C31.9054 22.4456 31.2936 23.8114 30.3103 24.8056C29.3161 25.7889 27.9504 26.4007 26.4426 26.4007H24.0936C23.5582 26.4007 23.0993 26.7831 23.0119 27.3185L22.2253 32.0384C22.1379 32.5737 21.679 32.9561 21.1437 32.9561H17.9424C17.7458 32.9561 17.571 32.9124 17.418 32.825C17.1776 32.6939 17.3306 32.3771 17.5928 32.2678C18.5761 31.951 19.2972 31.1097 19.4502 30.0608L20.1494 25.2317C20.1931 24.9585 20.4226 24.7619 20.6848 24.7619H23.1649C25.361 24.7619 27.4259 23.9097 28.9555 22.3692C29.8623 21.4732 30.5397 20.3698 30.933 19.1789C31.0205 18.9057 31.381 18.8511 31.5012 19.1024C31.7634 19.6705 31.9054 20.2824 31.9054 20.9379Z" fill="#194BFB"/>
</svg>
