<svg width="44" height="44" viewBox="0 0 44 44" fill="none" xmlns="http://www.w3.org/2000/svg">
<rect x="0.221603" y="0.179688" width="43.7027" height="43.7027" rx="21.8513" fill="#E8EDFF"/>
<path d="M29.7209 16.5681C29.7209 16.7647 29.71 16.9504 29.6881 17.1362C29.557 18.7204 28.8578 20.1517 27.798 21.2005C26.618 22.3914 24.9792 23.1235 23.1655 23.1235H19.7458C19.1995 23.1235 18.7406 23.5277 18.6641 24.0631L17.8338 29.8318C17.7682 30.2579 17.4623 30.6076 17.0581 30.7168C16.9597 30.7605 16.8614 30.7714 16.7521 30.7714H14.6216C13.9442 30.7714 13.4307 30.1705 13.54 29.504L16.1512 13.8476C16.4134 12.2634 17.7792 11.1052 19.3852 11.1052H24.2581C27.2735 11.1052 29.7209 13.5526 29.7209 16.5681Z" fill="#194BFB"/>
<path d="M31.906 20.9384C31.906 22.4461 31.2942 23.8118 30.3109 24.8061C29.3167 25.7894 27.951 26.4012 26.4432 26.4012H24.0942C23.5588 26.4012 23.0999 26.7836 23.0125 27.319L22.2259 32.0389C22.1385 32.5742 21.6796 32.9566 21.1443 32.9566H17.943C17.7464 32.9566 17.5716 32.9129 17.4186 32.8255C17.1782 32.6944 17.3312 32.3775 17.5934 32.2683C18.5767 31.9514 19.2978 31.1102 19.4508 30.0613L20.15 25.2322C20.1937 24.959 20.4232 24.7624 20.6854 24.7624H23.1655C25.3616 24.7624 27.4265 23.9102 28.9561 22.3696C29.8629 21.4737 30.5403 20.3703 30.9336 19.1794C31.021 18.9062 31.3816 18.8516 31.5018 19.1029C31.764 19.671 31.906 20.2828 31.906 20.9384Z" fill="#194BFB"/>
</svg>
