<svg width="21" height="21" viewBox="0 0 21 21" fill="none" xmlns="http://www.w3.org/2000/svg">
<path d="M19.6495 17.3816V15.6847C19.6495 14.8416 19.1362 14.0835 18.3534 13.7703L16.2563 12.9315C15.2607 12.5333 14.126 12.9647 13.6464 13.9238L13.4639 14.2888C13.4639 14.2888 10.8866 13.7733 8.82473 11.7115C6.76288 9.64961 6.24741 7.07229 6.24741 7.07229L6.61238 6.8898C7.57152 6.41023 8.00293 5.27552 7.60467 4.27987L6.76585 2.18282C6.45273 1.40002 5.69457 0.886719 4.85147 0.886719H3.15463C2.0159 0.886719 1.09277 1.80984 1.09277 2.94857C1.09277 12.0584 8.47777 19.4434 17.5876 19.4434C18.7264 19.4434 19.6495 18.5203 19.6495 17.3816Z" stroke="black" stroke-width="1.54639" stroke-linejoin="round"/>
</svg>
