<svg width="182" height="102" viewBox="0 0 182 102" fill="none" xmlns="http://www.w3.org/2000/svg">
<rect x="0.968262" y="0.528931" width="180.479" height="100.595" rx="9.78669" fill="#E4AD50"/>
<path d="M25.3642 24.1726L22.3915 29.9222V32.7604H20.2996V29.9222L17.3268 24.1726H19.7001L21.3639 27.7692L23.0154 24.1726H25.3642ZM29.3143 32.8582C28.6455 32.8582 28.042 32.7155 27.5038 32.4301C26.9737 32.1446 26.5536 31.7369 26.2437 31.2067C25.942 30.6766 25.7911 30.0568 25.7911 29.3473C25.7911 28.6459 25.946 28.0301 26.256 27.5C26.5659 26.9618 26.99 26.5499 27.5282 26.2645C28.0665 25.979 28.67 25.8363 29.3388 25.8363C30.0075 25.8363 30.611 25.979 31.1493 26.2645C31.6876 26.5499 32.1117 26.9618 32.4216 27.5C32.7315 28.0301 32.8864 28.6459 32.8864 29.3473C32.8864 30.0486 32.7274 30.6685 32.4093 31.2067C32.0994 31.7369 31.6713 32.1446 31.1248 32.4301C30.5866 32.7155 29.9831 32.8582 29.3143 32.8582ZM29.3143 31.0477C29.7139 31.0477 30.0524 30.9009 30.3297 30.6073C30.6151 30.3137 30.7578 29.8937 30.7578 29.3473C30.7578 28.8008 30.6192 28.3808 30.3419 28.0872C30.0728 27.7936 29.7384 27.6468 29.3388 27.6468C28.931 27.6468 28.5925 27.7936 28.3234 28.0872C28.0543 28.3727 27.9197 28.7927 27.9197 29.3473C27.9197 29.8937 28.0502 30.3137 28.3112 30.6073C28.5803 30.9009 28.9147 31.0477 29.3143 31.0477ZM40.7368 25.9342V32.7604H38.6449V31.8306C38.4329 32.1324 38.1434 32.3771 37.7764 32.5646C37.4175 32.7441 37.0179 32.8338 36.5775 32.8338C36.0555 32.8338 35.5947 32.7196 35.1951 32.4912C34.7955 32.2547 34.4856 31.9163 34.2654 31.4759C34.0452 31.0355 33.9351 30.5176 33.9351 29.9222V25.9342H36.0147V29.6409C36.0147 30.0976 36.133 30.4523 36.3695 30.7052C36.606 30.958 36.9241 31.0844 37.3237 31.0844C37.7315 31.0844 38.0536 30.958 38.2902 30.7052C38.5267 30.4523 38.6449 30.0976 38.6449 29.6409V25.9342H40.7368ZM44.3313 27.0719C44.576 26.6967 44.8818 26.4031 45.2488 26.1911C45.6158 25.9709 46.0236 25.8608 46.4722 25.8608V28.075H45.8972C45.3753 28.075 44.9838 28.1892 44.7228 28.4175C44.4618 28.6377 44.3313 29.0292 44.3313 29.5919V32.7604H42.2394V25.9342H44.3313V27.0719ZM53.1718 32.8582C52.503 32.8582 51.8995 32.7155 51.3612 32.4301C50.8311 32.1446 50.4111 31.7369 50.1012 31.2067C49.7994 30.6766 49.6486 30.0568 49.6486 29.3473C49.6486 28.6459 49.8035 28.0301 50.1134 27.5C50.4233 26.9618 50.8474 26.5499 51.3857 26.2645C51.924 25.979 52.5275 25.8363 53.1962 25.8363C53.865 25.8363 54.4685 25.979 55.0068 26.2645C55.545 26.5499 55.9691 26.9618 56.279 27.5C56.589 28.0301 56.7439 28.6459 56.7439 29.3473C56.7439 30.0486 56.5849 30.6685 56.2668 31.2067C55.9569 31.7369 55.5287 32.1446 54.9823 32.4301C54.444 32.7155 53.8405 32.8582 53.1718 32.8582ZM53.1718 31.0477C53.5714 31.0477 53.9098 30.9009 54.1871 30.6073C54.4726 30.3137 54.6153 29.8937 54.6153 29.3473C54.6153 28.8008 54.4767 28.3808 54.1994 28.0872C53.9302 27.7936 53.5959 27.6468 53.1962 27.6468C52.7885 27.6468 52.45 27.7936 52.1809 28.0872C51.9117 28.3727 51.7772 28.7927 51.7772 29.3473C51.7772 29.8937 51.9076 30.3137 52.1686 30.6073C52.4378 30.9009 52.7721 31.0477 53.1718 31.0477ZM59.9456 27.0719C60.1903 26.6967 60.4961 26.4031 60.8631 26.1911C61.2301 25.9709 61.6379 25.8608 62.0864 25.8608V28.075H61.5115C60.9895 28.075 60.5981 28.1892 60.3371 28.4175C60.0761 28.6377 59.9456 29.0292 59.9456 29.5919V32.7604H57.8537V25.9342H59.9456V27.0719ZM62.6704 29.335C62.6704 28.6337 62.8009 28.0179 63.0619 27.4878C63.331 26.9577 63.6939 26.5499 64.1506 26.2645C64.6074 25.979 65.1171 25.8363 65.6798 25.8363C66.1284 25.8363 66.5361 25.9301 66.9031 26.1177C67.2783 26.3052 67.5719 26.5581 67.7839 26.8761V23.7077H69.8759V32.7604H67.7839V31.7817C67.5882 32.1079 67.3068 32.3689 66.9398 32.5646C66.581 32.7604 66.161 32.8582 65.6798 32.8582C65.1171 32.8582 64.6074 32.7155 64.1506 32.4301C63.6939 32.1365 63.331 31.7246 63.0619 31.1945C62.8009 30.6562 62.6704 30.0364 62.6704 29.335ZM67.7839 29.3473C67.7839 28.8253 67.6371 28.4135 67.3435 28.1117C67.0581 27.8099 66.7074 27.6591 66.2915 27.6591C65.8755 27.6591 65.5208 27.8099 65.2272 28.1117C64.9417 28.4053 64.799 28.8131 64.799 29.335C64.799 29.857 64.9417 30.2729 65.2272 30.5828C65.5208 30.8846 65.8755 31.0355 66.2915 31.0355C66.7074 31.0355 67.0581 30.8846 67.3435 30.5828C67.6371 30.2811 67.7839 29.8692 67.7839 29.3473ZM77.824 29.2372C77.824 29.4329 77.8118 29.6368 77.7873 29.8488H73.053C73.0856 30.2729 73.2202 30.5991 73.4567 30.8275C73.7014 31.0477 73.999 31.1578 74.3497 31.1578C74.8717 31.1578 75.2346 30.9376 75.4385 30.4972H77.665C77.5508 30.9458 77.3428 31.3495 77.0411 31.7083C76.7475 32.0672 76.3764 32.3485 75.9278 32.5524C75.4793 32.7563 74.9777 32.8582 74.4231 32.8582C73.7544 32.8582 73.159 32.7155 72.6371 32.4301C72.1151 32.1446 71.7073 31.7369 71.4137 31.2067C71.1201 30.6766 70.9733 30.0568 70.9733 29.3473C70.9733 28.6377 71.116 28.0179 71.4015 27.4878C71.6951 26.9577 72.1029 26.5499 72.6248 26.2645C73.1468 25.979 73.7462 25.8363 74.4231 25.8363C75.0837 25.8363 75.6709 25.9749 76.1847 26.2522C76.6985 26.5295 77.0982 26.9251 77.3836 27.4389C77.6772 27.9527 77.824 28.5521 77.824 29.2372ZM75.6832 28.6867C75.6832 28.3278 75.5608 28.0424 75.3162 27.8303C75.0715 27.6183 74.7657 27.5123 74.3987 27.5123C74.048 27.5123 73.7503 27.6142 73.5056 27.8181C73.2691 28.022 73.1223 28.3115 73.0652 28.6867H75.6832ZM81.0195 27.0719C81.2642 26.6967 81.57 26.4031 81.937 26.1911C82.304 25.9709 82.7118 25.8608 83.1603 25.8608V28.075H82.5854C82.0634 28.075 81.6719 28.1892 81.411 28.4175C81.15 28.6377 81.0195 29.0292 81.0195 29.5919V32.7604H78.9276V25.9342H81.0195V27.0719ZM88.8446 27.0719C89.0892 26.6967 89.3951 26.4031 89.7621 26.1911C90.1291 25.9709 90.5368 25.8608 90.9854 25.8608V28.075H90.4104C89.8885 28.075 89.497 28.1892 89.236 28.4175C88.975 28.6377 88.8446 29.0292 88.8446 29.5919V32.7604H86.7526V25.9342H88.8446V27.0719ZM98.42 29.2372C98.42 29.4329 98.4078 29.6368 98.3833 29.8488H93.649C93.6816 30.2729 93.8162 30.5991 94.0527 30.8275C94.2974 31.0477 94.5951 31.1578 94.9458 31.1578C95.4677 31.1578 95.8306 30.9376 96.0345 30.4972H98.261C98.1468 30.9458 97.9388 31.3495 97.6371 31.7083C97.3435 32.0672 96.9724 32.3485 96.5239 32.5524C96.0753 32.7563 95.5737 32.8582 95.0192 32.8582C94.3504 32.8582 93.755 32.7155 93.2331 32.4301C92.7111 32.1446 92.3033 31.7369 92.0097 31.2067C91.7161 30.6766 91.5693 30.0568 91.5693 29.3473C91.5693 28.6377 91.7121 28.0179 91.9975 27.4878C92.2911 26.9577 92.6989 26.5499 93.2208 26.2645C93.7428 25.979 94.3422 25.8363 95.0192 25.8363C95.6798 25.8363 96.267 25.9749 96.7808 26.2522C97.2946 26.5295 97.6942 26.9251 97.9796 27.4389C98.2732 27.9527 98.42 28.5521 98.42 29.2372ZM96.2792 28.6867C96.2792 28.3278 96.1569 28.0424 95.9122 27.8303C95.6675 27.6183 95.3617 27.5123 94.9947 27.5123C94.644 27.5123 94.3463 27.6142 94.1016 27.8181C93.8651 28.022 93.7183 28.3115 93.6612 28.6867H96.2792ZM99.1077 29.3595C99.1077 28.6826 99.2463 28.0791 99.5236 27.549C99.8091 27.0188 100.188 26.607 100.661 26.3134C101.142 26.0116 101.664 25.8608 102.227 25.8608C102.659 25.8608 103.047 25.9382 103.389 26.0932C103.732 26.24 104.009 26.448 104.221 26.7171V25.9342H106.313V36.0145H104.221V31.904C103.985 32.1895 103.695 32.4178 103.353 32.5891C103.018 32.7604 102.635 32.846 102.203 32.846C101.648 32.846 101.134 32.6992 100.661 32.4056C100.188 32.112 99.8091 31.7002 99.5236 31.17C99.2463 30.6399 99.1077 30.0364 99.1077 29.3595ZM104.221 29.3473C104.221 28.9803 104.148 28.6744 104.001 28.4298C103.862 28.1769 103.679 27.9894 103.451 27.867C103.222 27.7365 102.982 27.6713 102.729 27.6713C102.484 27.6713 102.248 27.7365 102.019 27.867C101.791 27.9894 101.603 28.1769 101.456 28.4298C101.31 28.6826 101.236 28.9925 101.236 29.3595C101.236 29.7265 101.31 30.0364 101.456 30.2892C101.603 30.5339 101.791 30.7215 102.019 30.852C102.248 30.9743 102.484 31.0355 102.729 31.0355C102.973 31.0355 103.21 30.9743 103.438 30.852C103.675 30.7215 103.862 30.5298 104.001 30.277C104.148 30.0242 104.221 29.7143 104.221 29.3473ZM114.567 25.9342V32.7604H112.475V31.8306C112.263 32.1324 111.974 32.3771 111.607 32.5646C111.248 32.7441 110.848 32.8338 110.408 32.8338C109.886 32.8338 109.425 32.7196 109.025 32.4912C108.626 32.2547 108.316 31.9163 108.096 31.4759C107.875 31.0355 107.765 30.5176 107.765 29.9222V25.9342H109.845V29.6409C109.845 30.0976 109.963 30.4523 110.2 30.7052C110.436 30.958 110.754 31.0844 111.154 31.0844C111.562 31.0844 111.884 30.958 112.12 30.7052C112.357 30.4523 112.475 30.0976 112.475 29.6409V25.9342H114.567ZM122.504 29.2372C122.504 29.4329 122.492 29.6368 122.468 29.8488H117.733C117.766 30.2729 117.901 30.5991 118.137 30.8275C118.382 31.0477 118.68 31.1578 119.03 31.1578C119.552 31.1578 119.915 30.9376 120.119 30.4972H122.345C122.231 30.9458 122.023 31.3495 121.722 31.7083C121.428 32.0672 121.057 32.3485 120.608 32.5524C120.16 32.7563 119.658 32.8582 119.104 32.8582C118.435 32.8582 117.839 32.7155 117.318 32.4301C116.796 32.1446 116.388 31.7369 116.094 31.2067C115.801 30.6766 115.654 30.0568 115.654 29.3473C115.654 28.6377 115.797 28.0179 116.082 27.4878C116.376 26.9577 116.783 26.5499 117.305 26.2645C117.827 25.979 118.427 25.8363 119.104 25.8363C119.764 25.8363 120.351 25.9749 120.865 26.2522C121.379 26.5295 121.779 26.9251 122.064 27.4389C122.358 27.9527 122.504 28.5521 122.504 29.2372ZM120.364 28.6867C120.364 28.3278 120.241 28.0424 119.997 27.8303C119.752 27.6183 119.446 27.5123 119.079 27.5123C118.728 27.5123 118.431 27.6142 118.186 27.8181C117.95 28.022 117.803 28.3115 117.746 28.6867H120.364ZM126.385 32.8582C125.79 32.8582 125.26 32.7563 124.795 32.5524C124.33 32.3485 123.963 32.0712 123.694 31.7205C123.425 31.3617 123.274 30.9621 123.241 30.5217H125.309C125.333 30.7582 125.443 30.9498 125.639 31.0966C125.835 31.2434 126.075 31.3168 126.361 31.3168C126.622 31.3168 126.821 31.2679 126.96 31.17C127.107 31.064 127.18 30.9294 127.18 30.7663C127.18 30.5706 127.078 30.4279 126.874 30.3382C126.67 30.2403 126.34 30.1343 125.883 30.0201C125.394 29.9059 124.986 29.7877 124.66 29.6653C124.334 29.5348 124.053 29.335 123.816 29.0659C123.58 28.7886 123.461 28.4175 123.461 27.9527C123.461 27.5612 123.567 27.2064 123.779 26.8884C124 26.5621 124.318 26.3052 124.734 26.1177C125.158 25.9301 125.659 25.8363 126.238 25.8363C127.095 25.8363 127.767 26.0483 128.257 26.4724C128.754 26.8965 129.04 27.4592 129.113 28.1606H127.18C127.148 27.9241 127.042 27.7365 126.862 27.5979C126.691 27.4592 126.463 27.3899 126.177 27.3899C125.932 27.3899 125.745 27.4389 125.614 27.5367C125.484 27.6264 125.419 27.7529 125.419 27.916C125.419 28.1117 125.521 28.2585 125.724 28.3564C125.936 28.4542 126.263 28.5521 126.703 28.65C127.209 28.7805 127.621 28.9109 127.939 29.0414C128.257 29.1638 128.534 29.3677 128.771 29.6531C129.015 29.9304 129.142 30.3055 129.15 30.7786C129.15 31.1782 129.036 31.537 128.807 31.8551C128.587 32.165 128.265 32.4097 127.841 32.5891C127.425 32.7685 126.94 32.8582 126.385 32.8582ZM134.234 30.9865V32.7604H133.17C132.411 32.7604 131.82 32.5769 131.396 32.2099C130.972 31.8347 130.76 31.2271 130.76 30.3871V27.6713H129.928V25.9342H130.76V24.2704H132.852V25.9342H134.222V27.6713H132.852V30.4116C132.852 30.6155 132.901 30.7623 132.999 30.852C133.096 30.9417 133.26 30.9865 133.488 30.9865H134.234ZM142.188 25.8608C142.971 25.8608 143.599 26.1217 144.072 26.6437C144.545 27.1575 144.781 27.867 144.781 28.7723V32.7604H142.702V29.0537C142.702 28.597 142.583 28.2422 142.347 27.9894C142.11 27.7365 141.792 27.6101 141.393 27.6101C140.993 27.6101 140.675 27.7365 140.438 27.9894C140.202 28.2422 140.084 28.597 140.084 29.0537V32.7604H137.992V23.7077H140.084V26.8517C140.296 26.5499 140.585 26.3093 140.952 26.1299C141.319 25.9505 141.731 25.8608 142.188 25.8608ZM145.819 29.335C145.819 28.6337 145.95 28.0179 146.211 27.4878C146.48 26.9577 146.843 26.5499 147.299 26.2645C147.756 25.979 148.266 25.8363 148.828 25.8363C149.31 25.8363 149.73 25.9342 150.089 26.1299C150.456 26.3256 150.737 26.5825 150.933 26.9006V25.9342H153.025V32.7604H150.933V31.7939C150.729 32.112 150.443 32.3689 150.076 32.5646C149.717 32.7604 149.297 32.8582 148.816 32.8582C148.262 32.8582 147.756 32.7155 147.299 32.4301C146.843 32.1365 146.48 31.7246 146.211 31.1945C145.95 30.6562 145.819 30.0364 145.819 29.335ZM150.933 29.3473C150.933 28.8253 150.786 28.4135 150.492 28.1117C150.207 27.8099 149.856 27.6591 149.44 27.6591C149.024 27.6591 148.669 27.8099 148.376 28.1117C148.09 28.4053 147.948 28.8131 147.948 29.335C147.948 29.857 148.09 30.2729 148.376 30.5828C148.669 30.8846 149.024 31.0355 149.44 31.0355C149.856 31.0355 150.207 30.8846 150.492 30.5828C150.786 30.2811 150.933 29.8692 150.933 29.3473ZM157.315 32.8582C156.72 32.8582 156.189 32.7563 155.725 32.5524C155.26 32.3485 154.893 32.0712 154.624 31.7205C154.354 31.3617 154.204 30.9621 154.171 30.5217H156.238C156.263 30.7582 156.373 30.9498 156.569 31.0966C156.764 31.2434 157.005 31.3168 157.29 31.3168C157.551 31.3168 157.751 31.2679 157.89 31.17C158.037 31.064 158.11 30.9294 158.11 30.7663C158.11 30.5706 158.008 30.4279 157.804 30.3382C157.6 30.2403 157.27 30.1343 156.813 30.0201C156.324 29.9059 155.916 29.7877 155.59 29.6653C155.264 29.5348 154.982 29.335 154.746 29.0659C154.509 28.7886 154.391 28.4175 154.391 27.9527C154.391 27.5612 154.497 27.2064 154.709 26.8884C154.929 26.5621 155.247 26.3052 155.663 26.1177C156.087 25.9301 156.589 25.8363 157.168 25.8363C158.024 25.8363 158.697 26.0483 159.187 26.4724C159.684 26.8965 159.97 27.4592 160.043 28.1606H158.11C158.077 27.9241 157.971 27.7365 157.792 27.5979C157.621 27.4592 157.392 27.3899 157.107 27.3899C156.862 27.3899 156.675 27.4389 156.544 27.5367C156.414 27.6264 156.348 27.7529 156.348 27.916C156.348 28.1117 156.45 28.2585 156.654 28.3564C156.866 28.4542 157.193 28.5521 157.633 28.65C158.139 28.7805 158.55 28.9109 158.869 29.0414C159.187 29.1638 159.464 29.3677 159.7 29.6531C159.945 29.9304 160.071 30.3055 160.08 30.7786C160.08 31.1782 159.965 31.537 159.737 31.8551C159.517 32.165 159.195 32.4097 158.771 32.5891C158.355 32.7685 157.869 32.8582 157.315 32.8582ZM20.0916 44.9006C20.2873 44.5825 20.5687 44.3256 20.9357 44.1299C21.3027 43.9342 21.7227 43.8363 22.1957 43.8363C22.7585 43.8363 23.2682 43.979 23.7249 44.2645C24.1816 44.5499 24.5405 44.9577 24.8014 45.4878C25.0706 46.0179 25.2051 46.6337 25.2051 47.335C25.2051 48.0364 25.0706 48.6562 24.8014 49.1945C24.5405 49.7246 24.1816 50.1365 23.7249 50.4301C23.2682 50.7155 22.7585 50.8582 22.1957 50.8582C21.7145 50.8582 21.2945 50.7645 20.9357 50.5769C20.5768 50.3811 20.2955 50.1242 20.0916 49.8062V50.7604H17.9997V41.7077H20.0916V44.9006ZM23.0765 47.335C23.0765 46.8131 22.9297 46.4053 22.6361 46.1117C22.3507 45.8099 21.9959 45.6591 21.5718 45.6591C21.1559 45.6591 20.8011 45.8099 20.5075 46.1117C20.2221 46.4135 20.0794 46.8253 20.0794 47.3473C20.0794 47.8692 20.2221 48.2811 20.5075 48.5828C20.8011 48.8846 21.1559 49.0355 21.5718 49.0355C21.9878 49.0355 22.3425 48.8846 22.6361 48.5828C22.9297 48.2729 23.0765 47.857 23.0765 47.335ZM32.7374 47.2372C32.7374 47.4329 32.7251 47.6368 32.7007 47.8488H27.9663C27.999 48.2729 28.1335 48.5991 28.37 48.8275C28.6147 49.0477 28.9124 49.1578 29.2631 49.1578C29.785 49.1578 30.148 48.9376 30.3518 48.4972H32.5783C32.4641 48.9458 32.2562 49.3495 31.9544 49.7083C31.6608 50.0672 31.2897 50.3485 30.8412 50.5524C30.3926 50.7563 29.8911 50.8582 29.3365 50.8582C28.6677 50.8582 28.0724 50.7155 27.5504 50.4301C27.0284 50.1446 26.6207 49.7369 26.3271 49.2067C26.0335 48.6766 25.8867 48.0568 25.8867 47.3473C25.8867 46.6377 26.0294 46.0179 26.3148 45.4878C26.6084 44.9577 27.0162 44.5499 27.5382 44.2645C28.0601 43.979 28.6596 43.8363 29.3365 43.8363C29.9971 43.8363 30.5843 43.9749 31.0981 44.2522C31.6119 44.5295 32.0115 44.9251 32.297 45.4389C32.5906 45.9527 32.7374 46.5521 32.7374 47.2372ZM30.5965 46.6867C30.5965 46.3278 30.4742 46.0424 30.2295 45.8303C29.9848 45.6183 29.679 45.5123 29.312 45.5123C28.9613 45.5123 28.6636 45.6142 28.419 45.8181C28.1825 46.022 28.0357 46.3115 27.9786 46.6867H30.5965ZM40.2757 47.2372C40.2757 47.4329 40.2635 47.6368 40.239 47.8488H35.5047C35.5373 48.2729 35.6719 48.5991 35.9084 48.8275C36.153 49.0477 36.4507 49.1578 36.8014 49.1578C37.3234 49.1578 37.6863 48.9376 37.8902 48.4972H40.1167C40.0025 48.9458 39.7945 49.3495 39.4928 49.7083C39.1992 50.0672 38.8281 50.3485 38.3795 50.5524C37.931 50.7563 37.4294 50.8582 36.8748 50.8582C36.2061 50.8582 35.6107 50.7155 35.0887 50.4301C34.5668 50.1446 34.159 49.7369 33.8654 49.2067C33.5718 48.6766 33.425 48.0568 33.425 47.3473C33.425 46.6377 33.5677 46.0179 33.8532 45.4878C34.1468 44.9577 34.5546 44.5499 35.0765 44.2645C35.5985 43.979 36.1979 43.8363 36.8748 43.8363C37.5354 43.8363 38.1226 43.9749 38.6364 44.2522C39.1502 44.5295 39.5498 44.9251 39.8353 45.4389C40.1289 45.9527 40.2757 46.5521 40.2757 47.2372ZM38.1348 46.6867C38.1348 46.3278 38.0125 46.0424 37.7678 45.8303C37.5232 45.6183 37.2173 45.5123 36.8503 45.5123C36.4997 45.5123 36.202 45.6142 35.9573 45.8181C35.7208 46.022 35.574 46.3115 35.5169 46.6867H38.1348ZM45.5386 43.8608C46.3379 43.8608 46.974 44.1217 47.447 44.6437C47.9282 45.1575 48.1688 45.867 48.1688 46.7723V50.7604H46.0891V47.0537C46.0891 46.597 45.9709 46.2422 45.7344 45.9894C45.4978 45.7365 45.1798 45.6101 44.7801 45.6101C44.3805 45.6101 44.0625 45.7365 43.8259 45.9894C43.5894 46.2422 43.4712 46.597 43.4712 47.0537V50.7604H41.3793V43.9342H43.4712V44.8394C43.6832 44.5377 43.9687 44.3012 44.3275 44.1299C44.6864 43.9505 45.0901 43.8608 45.5386 43.8608ZM54.3068 44.9006C54.5107 44.5825 54.792 44.3256 55.1509 44.1299C55.5097 43.9342 55.9297 43.8363 56.4109 43.8363C56.9737 43.8363 57.4834 43.979 57.9401 44.2645C58.3968 44.5499 58.7557 44.9577 59.0166 45.4878C59.2858 46.0179 59.4203 46.6337 59.4203 47.335C59.4203 48.0364 59.2858 48.6562 59.0166 49.1945C58.7557 49.7246 58.3968 50.1365 57.9401 50.4301C57.4834 50.7155 56.9737 50.8582 56.4109 50.8582C55.9379 50.8582 55.5179 50.7604 55.1509 50.5646C54.792 50.3689 54.5107 50.1161 54.3068 49.8062V54.0145H52.2149V43.9342H54.3068V44.9006ZM57.2917 47.335C57.2917 46.8131 57.1449 46.4053 56.8513 46.1117C56.5659 45.8099 56.2111 45.6591 55.787 45.6591C55.3711 45.6591 55.0163 45.8099 54.7227 46.1117C54.4373 46.4135 54.2946 46.8253 54.2946 47.3473C54.2946 47.8692 54.4373 48.2811 54.7227 48.5828C55.0163 48.8846 55.3711 49.0355 55.787 49.0355C56.203 49.0355 56.5577 48.8846 56.8513 48.5828C57.1449 48.2729 57.2917 47.857 57.2917 47.335ZM62.6097 45.0719C62.8544 44.6967 63.1602 44.4031 63.5272 44.1911C63.8942 43.9709 64.302 43.8608 64.7505 43.8608V46.075H64.1756C63.6536 46.075 63.2622 46.1892 63.0012 46.4175C62.7402 46.6377 62.6097 47.0292 62.6097 47.5919V50.7604H60.5178V43.9342H62.6097V45.0719ZM68.8577 50.8582C68.189 50.8582 67.5854 50.7155 67.0472 50.4301C66.5171 50.1446 66.097 49.7369 65.7871 49.2067C65.4854 48.6766 65.3345 48.0568 65.3345 47.3473C65.3345 46.6459 65.4895 46.0301 65.7994 45.5C66.1093 44.9618 66.5334 44.5499 67.0716 44.2645C67.6099 43.979 68.2134 43.8363 68.8822 43.8363C69.5509 43.8363 70.1544 43.979 70.6927 44.2645C71.231 44.5499 71.6551 44.9618 71.965 45.5C72.2749 46.0301 72.4299 46.6459 72.4299 47.3473C72.4299 48.0486 72.2708 48.6685 71.9528 49.2067C71.6428 49.7369 71.2147 50.1446 70.6682 50.4301C70.13 50.7155 69.5265 50.8582 68.8577 50.8582ZM68.8577 49.0477C69.2573 49.0477 69.5958 48.9009 69.8731 48.6073C70.1585 48.3137 70.3012 47.8937 70.3012 47.3473C70.3012 46.8008 70.1626 46.3808 69.8853 46.0872C69.6162 45.7936 69.2818 45.6468 68.8822 45.6468C68.4744 45.6468 68.1359 45.7936 67.8668 46.0872C67.5977 46.3727 67.4631 46.7927 67.4631 47.3473C67.4631 47.8937 67.5936 48.3137 67.8546 48.6073C68.1237 48.9009 68.4581 49.0477 68.8577 49.0477ZM73.1237 47.3473C73.1237 46.6377 73.2664 46.0179 73.5519 45.4878C73.8455 44.9577 74.2492 44.5499 74.763 44.2645C75.2849 43.979 75.8803 43.8363 76.5491 43.8363C77.4054 43.8363 78.119 44.0606 78.6899 44.5091C79.2689 44.9577 79.6482 45.5897 79.8276 46.4053H77.6011C77.4136 45.8833 77.0506 45.6224 76.5124 45.6224C76.1291 45.6224 75.8232 45.7732 75.5949 46.075C75.3665 46.3686 75.2523 46.7927 75.2523 47.3473C75.2523 47.9018 75.3665 48.33 75.5949 48.6318C75.8232 48.9254 76.1291 49.0722 76.5124 49.0722C77.0506 49.0722 77.4136 48.8112 77.6011 48.2892H79.8276C79.6482 49.0885 79.2689 49.7165 78.6899 50.1732C78.1109 50.6299 77.3972 50.8582 76.5491 50.8582C75.8803 50.8582 75.2849 50.7155 74.763 50.4301C74.2492 50.1446 73.8455 49.7369 73.5519 49.2067C73.2664 48.6766 73.1237 48.0568 73.1237 47.3473ZM87.3813 47.2372C87.3813 47.4329 87.3691 47.6368 87.3446 47.8488H82.6103C82.6429 48.2729 82.7775 48.5991 83.014 48.8275C83.2587 49.0477 83.5564 49.1578 83.9071 49.1578C84.429 49.1578 84.7919 48.9376 84.9958 48.4972H87.2223C87.1081 48.9458 86.9001 49.3495 86.5984 49.7083C86.3048 50.0672 85.9337 50.3485 85.4852 50.5524C85.0366 50.7563 84.535 50.8582 83.9805 50.8582C83.3117 50.8582 82.7163 50.7155 82.1944 50.4301C81.6724 50.1446 81.2646 49.7369 80.971 49.2067C80.6774 48.6766 80.5306 48.0568 80.5306 47.3473C80.5306 46.6377 80.6734 46.0179 80.9588 45.4878C81.2524 44.9577 81.6602 44.5499 82.1821 44.2645C82.7041 43.979 83.3035 43.8363 83.9805 43.8363C84.6411 43.8363 85.2283 43.9749 85.7421 44.2522C86.2559 44.5295 86.6555 44.9251 86.9409 45.4389C87.2345 45.9527 87.3813 46.5521 87.3813 47.2372ZM85.2405 46.6867C85.2405 46.3278 85.1182 46.0424 84.8735 45.8303C84.6288 45.6183 84.323 45.5123 83.956 45.5123C83.6053 45.5123 83.3076 45.6142 83.0629 45.8181C82.8264 46.022 82.6796 46.3115 82.6225 46.6867H85.2405ZM91.2619 50.8582C90.6665 50.8582 90.1364 50.7563 89.6715 50.5524C89.2067 50.3485 88.8397 50.0712 88.5705 49.7205C88.3014 49.3617 88.1505 48.9621 88.1179 48.5217H90.1853C90.2098 48.7582 90.3199 48.9498 90.5156 49.0966C90.7114 49.2434 90.952 49.3168 91.2374 49.3168C91.4984 49.3168 91.6982 49.2679 91.8369 49.17C91.9837 49.064 92.0571 48.9294 92.0571 48.7663C92.0571 48.5706 91.9551 48.4279 91.7512 48.3382C91.5473 48.2403 91.217 48.1343 90.7603 48.0201C90.271 47.9059 89.8632 47.7877 89.537 47.6653C89.2108 47.5348 88.9294 47.335 88.6929 47.0659C88.4564 46.7886 88.3381 46.4175 88.3381 45.9527C88.3381 45.5612 88.4441 45.2064 88.6562 44.8884C88.8764 44.5621 89.1944 44.3052 89.6104 44.1177C90.0345 43.9301 90.536 43.8363 91.1151 43.8363C91.9714 43.8363 92.6443 44.0483 93.1336 44.4724C93.6311 44.8965 93.9165 45.4592 93.9899 46.1606H92.0571C92.0244 45.9241 91.9184 45.7365 91.739 45.5979C91.5677 45.4592 91.3394 45.3899 91.0539 45.3899C90.8092 45.3899 90.6217 45.4389 90.4912 45.5367C90.3607 45.6264 90.2954 45.7529 90.2954 45.916C90.2954 46.1117 90.3974 46.2585 90.6013 46.3564C90.8133 46.4542 91.1396 46.5521 91.58 46.65C92.0856 46.7805 92.4975 46.9109 92.8155 47.0414C93.1336 47.1638 93.4109 47.3677 93.6474 47.6531C93.8921 47.9304 94.0185 48.3055 94.0266 48.7786C94.0266 49.1782 93.9124 49.537 93.6841 49.8551C93.4639 50.165 93.1417 50.4097 92.7177 50.5891C92.3017 50.7685 91.8165 50.8582 91.2619 50.8582ZM98.0834 50.8582C97.4881 50.8582 96.958 50.7563 96.4931 50.5524C96.0282 50.3485 95.6612 50.0712 95.3921 49.7205C95.1229 49.3617 94.9721 48.9621 94.9394 48.5217H97.0069C97.0314 48.7582 97.1415 48.9498 97.3372 49.0966C97.5329 49.2434 97.7735 49.3168 98.059 49.3168C98.3199 49.3168 98.5197 49.2679 98.6584 49.17C98.8052 49.064 98.8786 48.9294 98.8786 48.7663C98.8786 48.5706 98.7766 48.4279 98.5728 48.3382C98.3689 48.2403 98.0386 48.1343 97.5819 48.0201C97.0925 47.9059 96.6847 47.7877 96.3585 47.6653C96.0323 47.5348 95.7509 47.335 95.5144 47.0659C95.2779 46.7886 95.1596 46.4175 95.1596 45.9527C95.1596 45.5612 95.2657 45.2064 95.4777 44.8884C95.6979 44.5621 96.016 44.3052 96.4319 44.1177C96.856 43.9301 97.3576 43.8363 97.9366 43.8363C98.793 43.8363 99.4658 44.0483 99.9551 44.4724C100.453 44.8965 100.738 45.4592 100.811 46.1606H98.8786C98.846 45.9241 98.7399 45.7365 98.5605 45.5979C98.3893 45.4592 98.1609 45.3899 97.8755 45.3899C97.6308 45.3899 97.4432 45.4389 97.3127 45.5367C97.1822 45.6264 97.117 45.7529 97.117 45.916C97.117 46.1117 97.2189 46.2585 97.4228 46.3564C97.6349 46.4542 97.9611 46.5521 98.4015 46.65C98.9071 46.7805 99.319 46.9109 99.6371 47.0414C99.9551 47.1638 100.232 47.3677 100.469 47.6531C100.714 47.9304 100.84 48.3055 100.848 48.7786C100.848 49.1782 100.734 49.537 100.506 49.8551C100.285 50.165 99.9633 50.4097 99.5392 50.5891C99.1233 50.7685 98.638 50.8582 98.0834 50.8582ZM108.563 47.2372C108.563 47.4329 108.551 47.6368 108.526 47.8488H103.792C103.824 48.2729 103.959 48.5991 104.195 48.8275C104.44 49.0477 104.738 49.1578 105.088 49.1578C105.61 49.1578 105.973 48.9376 106.177 48.4972H108.404C108.29 48.9458 108.082 49.3495 107.78 49.7083C107.486 50.0672 107.115 50.3485 106.667 50.5524C106.218 50.7563 105.716 50.8582 105.162 50.8582C104.493 50.8582 103.898 50.7155 103.376 50.4301C102.854 50.1446 102.446 49.7369 102.152 49.2067C101.859 48.6766 101.712 48.0568 101.712 47.3473C101.712 46.6377 101.855 46.0179 102.14 45.4878C102.434 44.9577 102.842 44.5499 103.364 44.2645C103.886 43.979 104.485 43.8363 105.162 43.8363C105.822 43.8363 106.41 43.9749 106.923 44.2522C107.437 44.5295 107.837 44.9251 108.122 45.4389C108.416 45.9527 108.563 46.5521 108.563 47.2372ZM106.422 46.6867C106.422 46.3278 106.3 46.0424 106.055 45.8303C105.81 45.6183 105.504 45.5123 105.137 45.5123C104.787 45.5123 104.489 45.6142 104.244 45.8181C104.008 46.022 103.861 46.3115 103.804 46.6867H106.422ZM109.25 47.335C109.25 46.6337 109.381 46.0179 109.642 45.4878C109.911 44.9577 110.274 44.5499 110.731 44.2645C111.187 43.979 111.697 43.8363 112.26 43.8363C112.708 43.8363 113.116 43.9301 113.483 44.1177C113.858 44.3052 114.152 44.5581 114.364 44.8761V41.7077H116.456V50.7604H114.364V49.7817C114.168 50.1079 113.887 50.3689 113.52 50.5646C113.161 50.7604 112.741 50.8582 112.26 50.8582C111.697 50.8582 111.187 50.7155 110.731 50.4301C110.274 50.1365 109.911 49.7246 109.642 49.1945C109.381 48.6562 109.25 48.0364 109.25 47.335ZM114.364 47.3473C114.364 46.8253 114.217 46.4135 113.924 46.1117C113.638 45.8099 113.287 45.6591 112.871 45.6591C112.456 45.6591 112.101 45.8099 111.807 46.1117C111.522 46.4053 111.379 46.8131 111.379 47.335C111.379 47.857 111.522 48.2729 111.807 48.5828C112.101 48.8846 112.456 49.0355 112.871 49.0355C113.287 49.0355 113.638 48.8846 113.924 48.5828C114.217 48.2811 114.364 47.8692 114.364 47.3473Z" fill="#F9FAFB"/>
<path d="M20.1576 69.2755C19.7075 69.2755 19.3029 69.1972 18.9441 69.0407C18.5918 68.8775 18.3145 68.6557 18.1122 68.3752C17.91 68.0881 17.8056 67.7586 17.7991 67.3867H18.7484C18.781 67.7064 18.9115 67.9772 19.1398 68.199C19.3747 68.4143 19.714 68.522 20.1576 68.522C20.5817 68.522 20.9145 68.4176 21.1559 68.2088C21.4038 67.9935 21.5278 67.7195 21.5278 67.3867C21.5278 67.1257 21.456 66.9137 21.3125 66.7506C21.1689 66.5875 20.9895 66.4635 20.7742 66.3787C20.5589 66.2939 20.2686 66.2025 19.9032 66.1046C19.453 65.9872 19.0909 65.8698 18.8169 65.7523C18.5494 65.6349 18.3177 65.4522 18.122 65.2043C17.9328 64.9498 17.8382 64.6105 17.8382 64.1865C17.8382 63.8146 17.9328 63.4851 18.122 63.198C18.3112 62.9109 18.5755 62.6891 18.9147 62.5325C19.2605 62.3759 19.6553 62.2976 20.0989 62.2976C20.7383 62.2976 21.2603 62.4575 21.6648 62.7772C22.0758 63.0969 22.3075 63.521 22.3597 64.0494H21.381C21.3484 63.7885 21.2113 63.5601 20.9699 63.3644C20.7285 63.1621 20.4088 63.061 20.0108 63.061C19.639 63.061 19.3356 63.1589 19.1007 63.3546C18.8658 63.5438 18.7484 63.8113 18.7484 64.1571C18.7484 64.405 18.8169 64.6073 18.9539 64.7639C19.0974 64.9205 19.2703 65.0412 19.4726 65.126C19.6814 65.2043 19.9717 65.2956 20.3436 65.4C20.7938 65.524 21.1559 65.6479 21.4299 65.7719C21.7039 65.8893 21.9388 66.0753 22.1346 66.3297C22.3303 66.5777 22.4282 66.9169 22.4282 67.3476C22.4282 67.6803 22.3401 67.9935 22.1639 68.2871C21.9878 68.5807 21.7268 68.8188 21.381 69.0015C21.0352 69.1842 20.6274 69.2755 20.1576 69.2755ZM28.6321 66.32C28.6321 66.4896 28.6223 66.669 28.6027 66.8582H24.3161C24.3488 67.3867 24.5282 67.801 24.8544 68.1011C25.1872 68.3947 25.5884 68.5415 26.0582 68.5415C26.4431 68.5415 26.7628 68.4535 27.0173 68.2773C27.2783 68.0946 27.4609 67.8532 27.5653 67.5531H28.5244C28.3809 68.0685 28.0938 68.4893 27.6632 68.8156C27.2326 69.1353 26.6976 69.2951 26.0582 69.2951C25.5493 69.2951 25.0926 69.1809 24.688 68.9526C24.2901 68.7242 23.9769 68.4013 23.7485 67.9837C23.5202 67.5596 23.406 67.0703 23.406 66.5157C23.406 65.9611 23.5169 65.475 23.7387 65.0575C23.9606 64.6399 24.2705 64.3202 24.6685 64.0984C25.073 63.87 25.5362 63.7558 26.0582 63.7558C26.5671 63.7558 27.0173 63.8668 27.4087 64.0886C27.8002 64.3104 28.1003 64.6171 28.3091 65.0085C28.5244 65.3935 28.6321 65.8306 28.6321 66.32ZM27.7121 66.134C27.7121 65.7947 27.6371 65.5044 27.487 65.263C27.337 65.0151 27.1315 64.8291 26.8705 64.7052C26.616 64.5747 26.3322 64.5094 26.019 64.5094C25.5688 64.5094 25.1839 64.653 24.8642 64.94C24.551 65.2271 24.3716 65.6251 24.3259 66.134H27.7121ZM34.701 66.32C34.701 66.4896 34.6912 66.669 34.6716 66.8582H30.385C30.4177 67.3867 30.5971 67.801 30.9233 68.1011C31.2561 68.3947 31.6573 68.5415 32.1271 68.5415C32.512 68.5415 32.8317 68.4535 33.0862 68.2773C33.3472 68.0946 33.5298 67.8532 33.6342 67.5531H34.5933C34.4498 68.0685 34.1627 68.4893 33.7321 68.8156C33.3015 69.1353 32.7665 69.2951 32.1271 69.2951C31.6182 69.2951 31.1615 69.1809 30.7569 68.9526C30.3589 68.7242 30.0458 68.4013 29.8174 67.9837C29.5891 67.5596 29.4749 67.0703 29.4749 66.5157C29.4749 65.9611 29.5858 65.475 29.8076 65.0575C30.0295 64.6399 30.3394 64.3202 30.7374 64.0984C31.1419 63.87 31.6051 63.7558 32.1271 63.7558C32.636 63.7558 33.0862 63.8668 33.4776 64.0886C33.8691 64.3104 34.1692 64.6171 34.378 65.0085C34.5933 65.3935 34.701 65.8306 34.701 66.32ZM33.781 66.134C33.781 65.7947 33.706 65.5044 33.5559 65.263C33.4059 65.0151 33.2004 64.8291 32.9394 64.7052C32.6849 64.5747 32.4011 64.5094 32.0879 64.5094C31.6377 64.5094 31.2528 64.653 30.9331 64.94C30.6199 65.2271 30.4405 65.6251 30.3948 66.134H33.781ZM44.9351 63.7461C45.3527 63.7461 45.7246 63.8341 46.0508 64.0103C46.377 64.1799 46.6347 64.4376 46.8239 64.7834C47.0132 65.1292 47.1078 65.5501 47.1078 66.0459V69.207H46.227V66.1732C46.227 65.6381 46.0932 65.2304 45.8257 64.9498C45.5647 64.6627 45.2091 64.5192 44.7589 64.5192C44.2957 64.5192 43.9271 64.6693 43.6531 64.9694C43.379 65.263 43.242 65.6903 43.242 66.2514V69.207H42.3612V66.1732C42.3612 65.6381 42.2275 65.2304 41.96 64.9498C41.699 64.6627 41.3434 64.5192 40.8932 64.5192C40.43 64.5192 40.0613 64.6693 39.7873 64.9694C39.5133 65.263 39.3763 65.6903 39.3763 66.2514V69.207H38.4857V63.8439H39.3763V64.6171C39.5524 64.3365 39.7873 64.1212 40.0809 63.9711C40.381 63.8211 40.7105 63.7461 41.0694 63.7461C41.5196 63.7461 41.9175 63.8472 42.2633 64.0494C42.6091 64.2517 42.8669 64.5486 43.0365 64.94C43.1866 64.5616 43.4345 64.268 43.7803 64.0592C44.1261 63.8504 44.511 63.7461 44.9351 63.7461ZM50.9077 69.2951C50.4053 69.2951 49.9486 69.1809 49.5375 68.9526C49.133 68.7242 48.8133 68.4013 48.5784 67.9837C48.3501 67.5596 48.2359 67.0703 48.2359 66.5157C48.2359 65.9676 48.3533 65.4848 48.5882 65.0673C48.8296 64.6432 49.1559 64.3202 49.5669 64.0984C49.9779 63.87 50.4379 63.7558 50.9468 63.7558C51.4557 63.7558 51.9157 63.87 52.3267 64.0984C52.7378 64.3202 53.0607 64.6399 53.2956 65.0575C53.537 65.475 53.6577 65.9611 53.6577 66.5157C53.6577 67.0703 53.5338 67.5596 53.2858 67.9837C53.0444 68.4013 52.7149 68.7242 52.2974 68.9526C51.8798 69.1809 51.4166 69.2951 50.9077 69.2951ZM50.9077 68.5122C51.2274 68.5122 51.5275 68.4371 51.808 68.2871C52.0886 68.137 52.3137 67.9119 52.4833 67.6118C52.6595 67.3117 52.7476 66.9463 52.7476 66.5157C52.7476 66.0851 52.6627 65.7197 52.4931 65.4196C52.3235 65.1195 52.1016 64.8976 51.8276 64.7541C51.5536 64.604 51.2567 64.529 50.937 64.529C50.6108 64.529 50.3107 64.604 50.0367 64.7541C49.7691 64.8976 49.5538 65.1195 49.3907 65.4196C49.2276 65.7197 49.1461 66.0851 49.1461 66.5157C49.1461 66.9528 49.2244 67.3215 49.3809 67.6216C49.5441 67.9217 49.7594 68.1468 50.0269 68.2969C50.2944 68.4404 50.588 68.5122 50.9077 68.5122ZM55.7193 64.7149C55.8759 64.4083 56.0977 64.1701 56.3848 64.0005C56.6784 63.8309 57.034 63.7461 57.4515 63.7461V64.666H57.2166C56.2184 64.666 55.7193 65.2075 55.7193 66.2906V69.207H54.8287V63.8439H55.7193V64.7149ZM63.3729 66.32C63.3729 66.4896 63.3631 66.669 63.3436 66.8582H59.057C59.0896 67.3867 59.269 67.801 59.5953 68.1011C59.928 68.3947 60.3293 68.5415 60.799 68.5415C61.184 68.5415 61.5037 68.4535 61.7581 68.2773C62.0191 68.0946 62.2018 67.8532 62.3062 67.5531H63.2653C63.1217 68.0685 62.8347 68.4893 62.4041 68.8156C61.9734 69.1353 61.4384 69.2951 60.799 69.2951C60.2901 69.2951 59.8334 69.1809 59.4289 68.9526C59.0309 68.7242 58.7177 68.4013 58.4894 67.9837C58.261 67.5596 58.1468 67.0703 58.1468 66.5157C58.1468 65.9611 58.2578 65.475 58.4796 65.0575C58.7014 64.6399 59.0113 64.3202 59.4093 64.0984C59.8138 63.87 60.2771 63.7558 60.799 63.7558C61.3079 63.7558 61.7581 63.8668 62.1496 64.0886C62.5411 64.3104 62.8412 64.6171 63.05 65.0085C63.2653 65.3935 63.3729 65.8306 63.3729 66.32ZM62.453 66.134C62.453 65.7947 62.378 65.5044 62.2279 65.263C62.0778 65.0151 61.8723 64.8291 61.6113 64.7052C61.3569 64.5747 61.0731 64.5094 60.7599 64.5094C60.3097 64.5094 59.9248 64.653 59.6051 64.94C59.2919 65.2271 59.1125 65.6251 59.0668 66.134H62.453ZM67.6176 62.9729C67.448 62.9729 67.3044 62.9142 67.187 62.7967C67.0696 62.6793 67.0108 62.5358 67.0108 62.3661C67.0108 62.1965 67.0696 62.053 67.187 61.9355C67.3044 61.8181 67.448 61.7594 67.6176 61.7594C67.7807 61.7594 67.9177 61.8181 68.0287 61.9355C68.1461 62.053 68.2048 62.1965 68.2048 62.3661C68.2048 62.5358 68.1461 62.6793 68.0287 62.7967C67.9177 62.9142 67.7807 62.9729 67.6176 62.9729ZM68.0482 63.8439V69.207H67.1576V63.8439H68.0482ZM72.1791 63.7461C72.8316 63.7461 73.3601 63.9451 73.7646 64.343C74.1691 64.7345 74.3713 65.3021 74.3713 66.0459V69.207H73.4905V66.1732C73.4905 65.6381 73.3568 65.2304 73.0893 64.9498C72.8218 64.6627 72.4564 64.5192 71.9932 64.5192C71.5234 64.5192 71.1483 64.666 70.8677 64.9596C70.5937 65.2532 70.4567 65.6806 70.4567 66.2417V69.207H69.5661V63.8439H70.4567V64.6073C70.6328 64.3333 70.871 64.1212 71.1711 63.9711C71.4777 63.8211 71.8138 63.7461 72.1791 63.7461ZM78.0086 64.5779H76.8831V69.207H75.9925V64.5779H75.2976V63.8439H75.9925V63.4622C75.9925 62.862 76.1458 62.4249 76.4525 62.1508C76.7656 61.8703 77.2648 61.73 77.9498 61.73V62.4738C77.5584 62.4738 77.2811 62.5521 77.118 62.7087C76.9614 62.8587 76.8831 63.1099 76.8831 63.4622V63.8439H78.0086V64.5779ZM81.386 69.2951C80.8836 69.2951 80.4269 69.1809 80.0158 68.9526C79.6113 68.7242 79.2916 68.4013 79.0567 67.9837C78.8284 67.5596 78.7142 67.0703 78.7142 66.5157C78.7142 65.9676 78.8316 65.4848 79.0665 65.0673C79.3079 64.6432 79.6341 64.3202 80.0452 64.0984C80.4562 63.87 80.9162 63.7558 81.4251 63.7558C81.934 63.7558 82.394 63.87 82.805 64.0984C83.2161 64.3202 83.539 64.6399 83.7739 65.0575C84.0153 65.475 84.136 65.9611 84.136 66.5157C84.136 67.0703 84.0121 67.5596 83.7641 67.9837C83.5227 68.4013 83.1932 68.7242 82.7757 68.9526C82.3581 69.1809 81.8949 69.2951 81.386 69.2951ZM81.386 68.5122C81.7057 68.5122 82.0058 68.4371 82.2863 68.2871C82.5669 68.137 82.792 67.9119 82.9616 67.6118C83.1378 67.3117 83.2259 66.9463 83.2259 66.5157C83.2259 66.0851 83.141 65.7197 82.9714 65.4196C82.8018 65.1195 82.5799 64.8976 82.3059 64.7541C82.0319 64.604 81.735 64.529 81.4153 64.529C81.0891 64.529 80.789 64.604 80.5149 64.7541C80.2474 64.8976 80.0321 65.1195 79.869 65.4196C79.7059 65.7197 79.6244 66.0851 79.6244 66.5157C79.6244 66.9528 79.7026 67.3215 79.8592 67.6216C80.0223 67.9217 80.2377 68.1468 80.5052 68.2969C80.7727 68.4404 81.0663 68.5122 81.386 68.5122Z" fill="white"/>
<path d="M132.894 78.4284V76.8723H135.605V84.0166H133.863V78.4284H132.894ZM136.749 80.3466C136.749 79.2244 136.965 78.3403 137.395 77.6944C137.832 77.0485 138.534 76.7255 139.499 76.7255C140.465 76.7255 141.163 77.0485 141.594 77.6944C142.031 78.3403 142.249 79.2244 142.249 80.3466C142.249 81.4818 142.031 82.3724 141.594 83.0184C141.163 83.6643 140.465 83.9872 139.499 83.9872C138.534 83.9872 137.832 83.6643 137.395 83.0184C136.965 82.3724 136.749 81.4818 136.749 80.3466ZM140.605 80.3466C140.605 79.6876 140.534 79.182 140.39 78.8297C140.246 78.4708 139.95 78.2914 139.499 78.2914C139.049 78.2914 138.752 78.4708 138.609 78.8297C138.465 79.182 138.394 79.6876 138.394 80.3466C138.394 80.7903 138.42 81.1589 138.472 81.4525C138.524 81.7396 138.628 81.9744 138.785 82.1571C138.948 82.3333 139.186 82.4214 139.499 82.4214C139.813 82.4214 140.047 82.3333 140.204 82.1571C140.367 81.9744 140.475 81.7396 140.527 81.4525C140.579 81.1589 140.605 80.7903 140.605 80.3466ZM147.029 74.7192L144.406 85.8467H142.791L145.414 74.7192H147.029ZM147.51 82.6758C147.731 82.4997 147.832 82.4181 147.813 82.4312C148.452 81.9027 148.955 81.4688 149.32 81.1295C149.692 80.7903 150.005 80.4347 150.26 80.0628C150.514 79.6909 150.641 79.3288 150.641 78.9765C150.641 78.709 150.579 78.5002 150.455 78.3501C150.331 78.2 150.145 78.125 149.897 78.125C149.65 78.125 149.454 78.2196 149.31 78.4088C149.173 78.5915 149.105 78.8525 149.105 79.1918H147.49C147.503 78.6372 147.62 78.1739 147.842 77.8021C148.071 77.4302 148.367 77.1561 148.733 76.98C149.105 76.8038 149.516 76.7157 149.966 76.7157C150.742 76.7157 151.326 76.9147 151.718 77.3127C152.116 77.7107 152.315 78.2294 152.315 78.8688C152.315 79.5669 152.077 80.2161 151.6 80.8164C151.124 81.4101 150.517 81.9908 149.78 82.5584H152.422V83.9187H147.51V82.6758ZM153.218 78.8884C153.244 78.1903 153.472 77.652 153.903 77.2736C154.334 76.8951 154.918 76.7059 155.655 76.7059C156.144 76.7059 156.562 76.7908 156.908 76.9604C157.26 77.13 157.524 77.3616 157.7 77.6552C157.883 77.9489 157.974 78.2783 157.974 78.6437C157.974 79.0743 157.867 79.4266 157.651 79.7007C157.436 79.9682 157.185 80.1509 156.898 80.2487V80.2879C157.27 80.4118 157.563 80.6174 157.779 80.9044C157.994 81.1915 158.102 81.5601 158.102 82.0103C158.102 82.4148 158.007 82.7737 157.818 83.0869C157.635 83.3935 157.364 83.6349 157.005 83.8111C156.653 83.9872 156.232 84.0753 155.743 84.0753C154.96 84.0753 154.334 83.8829 153.864 83.4979C153.401 83.113 153.156 82.5323 153.13 81.7559H154.755C154.761 82.043 154.843 82.2713 154.999 82.4409C155.156 82.6041 155.384 82.6856 155.684 82.6856C155.939 82.6856 156.134 82.6138 156.271 82.4703C156.415 82.3202 156.487 82.1245 156.487 81.8831C156.487 81.5699 156.386 81.3448 156.183 81.2078C155.988 81.0643 155.671 80.9925 155.234 80.9925H154.921V79.6322H155.234C155.567 79.6322 155.834 79.5767 156.037 79.4658C156.245 79.3483 156.35 79.1428 156.35 78.8492C156.35 78.6143 156.284 78.4317 156.154 78.3012C156.024 78.1707 155.844 78.1054 155.616 78.1054C155.368 78.1054 155.182 78.1805 155.058 78.3305C154.94 78.4806 154.872 78.6665 154.852 78.8884H153.218Z" fill="#FFEDCE"/>
</svg>
