<svg width="121" height="120" viewBox="0 0 121 120" fill="none" xmlns="http://www.w3.org/2000/svg">
<path fill-rule="evenodd" clip-rule="evenodd" d="M-0.0003085 16.7314L7.37603 9.35511L22.1287 24.1078L46.2365 0H101C112.046 0 121 8.95431 121 20V72.7632L95.8921 97.8711L110.645 112.624L103.268 120L14.7524 105.247L-0.0003085 16.7314ZM36.8814 68.3658C32.8096 72.4375 32.8096 79.0467 36.8814 83.1185C40.9531 87.1902 47.5623 87.1902 51.634 83.1185C55.7058 79.0467 55.7058 72.4375 51.634 68.3658C47.5623 64.2941 40.9531 64.2941 36.8814 68.3658ZM103.268 31.4841L66.3867 68.3658L81.1394 83.1185L118.021 46.2368L103.268 31.4841ZM88.5157 16.7314L73.7631 1.97877L36.8814 38.8605L51.634 53.6131L88.5157 16.7314Z" fill="#8948A8"/>
</svg>
