<svg width="45" height="45" viewBox="0 0 45 45" fill="none" xmlns="http://www.w3.org/2000/svg">
<path fill-rule="evenodd" clip-rule="evenodd" d="M0.000488281 6.27354L2.76662 3.5074L8.29889 9.03967L17.3386 0H35C40.5228 0 45 4.47715 45 10V27.6612L35.9602 36.701L41.4925 42.2333L38.7264 44.9994L5.53276 39.4671L0.000488281 6.27354ZM13.8312 25.6365C12.3043 27.1634 12.3043 29.6418 13.8312 31.1687C15.3581 32.6956 17.8365 32.6956 19.3634 31.1687C20.8903 29.6418 20.8903 27.1634 19.3634 25.6365C17.8365 24.1096 15.3581 24.1096 13.8312 25.6365ZM38.7264 11.8058L24.8957 25.6365L30.428 31.1687L44.2586 17.3381L38.7264 11.8058ZM33.1941 6.27354L27.6618 0.741269L13.8312 14.5719L19.3634 20.1042L33.1941 6.27354Z" fill="#22A6B6"/>
</svg>
