<svg width="100" height="100" viewBox="0 0 100 100" fill="none" xmlns="http://www.w3.org/2000/svg">
<rect width="100" height="100" rx="10" fill="#F7F7ED"/>
<path fill-rule="evenodd" clip-rule="evenodd" d="M41.3345 69.711C41.9758 69.711 42.4445 69.8468 42.7405 70.1185C43.0365 70.3902 43.1847 70.8127 43.185 71.386V74.459H42.223V71.516C42.223 70.868 41.8597 70.544 41.133 70.544C40.8191 70.5414 40.511 70.6281 40.2445 70.794C40.2906 70.9879 40.3123 71.1867 40.309 71.386V74.459H39.347V71.516C39.347 70.868 38.9837 70.544 38.257 70.544C37.9254 70.5443 37.5966 70.6039 37.286 70.72V74.459H36.3245V70.1925C36.6428 70.0342 36.9798 69.9166 37.3275 69.8425C37.6984 69.756 38.0777 69.7111 38.4585 69.7085C39.0585 69.7085 39.5043 69.8252 39.796 70.0585C40.2764 69.829 40.8021 69.7103 41.3345 69.711V69.711ZM46.481 74.6C45.7477 74.6 45.1965 74.3902 44.8275 73.9705C44.4585 73.5508 44.2738 72.94 44.2735 72.138C44.2735 70.515 45.0068 69.7037 46.4735 69.704C47.2125 69.704 47.7682 69.9122 48.1405 70.3285C48.5128 70.7448 48.6992 71.348 48.6995 72.138C48.6995 72.9273 48.5072 73.535 48.1225 73.961C47.7378 74.387 47.1907 74.6 46.481 74.6ZM46.4715 73.776C47.3145 73.776 47.7358 73.23 47.7355 72.138C47.7355 71.595 47.6355 71.1893 47.4355 70.921C47.2355 70.6527 46.9148 70.5183 46.4735 70.518C46.0278 70.518 45.7088 70.6553 45.5165 70.93C45.3242 71.2047 45.228 71.6073 45.228 72.138C45.228 72.6683 45.3272 73.074 45.5255 73.355C45.7238 73.636 46.0392 73.7757 46.4715 73.774V73.776ZM51.911 69.713C52.595 69.713 53.114 69.9197 53.468 70.333C53.822 70.7463 53.9995 71.3318 54.0005 72.0895C54.0005 73.0028 53.7883 73.6492 53.364 74.0285C52.9397 74.4078 52.4003 74.5983 51.746 74.6C50.433 74.6 49.7765 74.2483 49.7765 73.545V67.9525H50.7295V70C50.9211 69.9084 51.1224 69.8385 51.3295 69.7915C51.5197 69.7427 51.7147 69.7157 51.911 69.711V69.713ZM51.6725 73.7575C52.1725 73.7575 52.5225 73.6125 52.7225 73.3225C52.9225 73.0325 53.0225 72.6345 53.0225 72.1285C53.0225 71.6105 52.9172 71.2157 52.7065 70.944C52.4958 70.6723 52.183 70.5367 51.768 70.537C51.5872 70.5382 51.4072 70.5614 51.232 70.606C51.0566 70.6484 50.8882 70.7157 50.732 70.806V73.306C50.7303 73.606 51.0438 73.7558 51.6725 73.7555V73.7575ZM55.0875 68.195H56.1135V69.0745H55.0875V68.195ZM55.115 69.8425H56.077L56.086 74.461H55.115V69.8425ZM57.44 74.461V68.0545H58.393V74.459L57.44 74.461ZM61.6155 69.7C62.3302 69.7 62.8538 69.9333 63.1865 70.4C63.5192 70.8667 63.6825 71.5192 63.6765 72.3575H60.4505C60.4815 72.8142 60.6148 73.1613 60.8505 73.399C61.0862 73.6367 61.4205 73.7553 61.8535 73.755C62.3722 73.7555 62.8827 73.625 63.3375 73.3755V74.2825C62.8612 74.4942 62.3155 74.6 61.7005 74.6C61.0105 74.6 60.4685 74.3887 60.0745 73.966C59.6805 73.5433 59.4837 72.9433 59.484 72.166C59.484 71.37 59.6702 70.7608 60.0425 70.3385C60.4148 69.9162 60.9392 69.7033 61.6155 69.7ZM61.588 70.5C61.2643 70.5 61.011 70.5865 60.828 70.7595C60.645 70.9325 60.5258 71.2255 60.4705 71.6385H62.6965C62.6535 71.2435 62.5435 70.9552 62.3665 70.7735C62.1895 70.5918 61.93 70.5007 61.588 70.5ZM52.4005 32.423C51.3395 32.1607 50.5228 32.0293 49.9505 32.029C45.681 32.029 42.2195 35.479 42.2195 39.7335C42.2195 43.988 45.6825 47.4385 49.9505 47.4385C54.2185 47.4385 57.682 43.9885 57.682 39.7335C57.6823 39.1119 57.6074 38.4926 57.459 37.889L63.6055 36.2335C64.1034 38.1264 64.1976 40.1028 63.8818 42.0344C63.5661 43.966 62.8476 45.8096 61.773 47.4455L51.595 66.315H42.166L48.866 53.965C48.9025 53.897 48.795 53.747 48.705 53.739C41.5455 53.089 35.9375 47.089 35.9375 39.7845C35.9375 32.045 42.2325 25.7715 49.9985 25.7715C51.4201 25.7699 52.8338 25.9835 54.1915 26.405L52.4005 32.423Z" fill="#006E53"/>
<path d="M49.9016 43.9711C52.2419 43.9711 54.1391 42.0739 54.1391 39.7336C54.1391 37.3933 52.2419 35.4961 49.9016 35.4961C47.5613 35.4961 45.6641 37.3933 45.6641 39.7336C45.6641 42.0739 47.5613 43.9711 49.9016 43.9711Z" fill="#D6E806"/>
<path fill-rule="evenodd" clip-rule="evenodd" d="M54.8577 27.1165C54.9646 26.873 55.2487 26.7622 55.4922 26.8691C58.9146 28.3714 61.6031 31.1673 62.9703 34.6459C63.0676 34.8934 62.9458 35.1729 62.6983 35.2702C62.4508 35.3675 62.1712 35.2457 62.074 34.9982C60.7999 31.7565 58.2944 29.151 55.1051 27.751C54.8616 27.6441 54.7508 27.36 54.8577 27.1165ZM53.996 29.706C54.1087 29.4651 54.3953 29.3612 54.6362 29.4739C57.2383 30.6914 59.2852 32.846 60.3677 35.5071C60.4679 35.7534 60.3494 36.0344 60.1031 36.1346C59.8567 36.2348 59.5758 36.1163 59.4756 35.87C58.4845 33.4336 56.6105 31.4609 54.2281 30.3462C53.9872 30.2335 53.8833 29.9468 53.996 29.706ZM52.8364 32.5034C52.9466 32.2614 53.2322 32.1546 53.4742 32.2648C55.388 33.1365 56.8917 34.713 57.6718 36.6659C57.7705 36.9129 57.6503 37.1931 57.4033 37.2917C57.1563 37.3904 56.8761 37.2702 56.7774 37.0232C56.0893 35.3007 54.7631 33.9101 53.075 33.1413C52.833 33.031 52.7262 32.7455 52.8364 32.5034Z" fill="#D6E806"/>
</svg>
