<svg width="25" height="25" viewBox="0 0 25 25" fill="none" xmlns="http://www.w3.org/2000/svg">
<path d="M12.5001 11.1843C11.4532 11.1843 10.4492 10.7684 9.70889 10.0281C8.96862 9.28786 8.55273 8.28383 8.55273 7.23692C8.55273 6.19001 8.96862 5.18598 9.70889 4.44571C10.4492 3.70543 11.4532 3.28955 12.5001 3.28955C13.547 3.28955 14.551 3.70543 15.2913 4.44571C16.0316 5.18598 16.4475 6.19001 16.4475 7.23692C16.4475 8.28383 16.0316 9.28786 15.2913 10.0281C14.551 10.7684 13.547 11.1843 12.5001 11.1843Z" stroke="#000000" stroke-linecap="round"/>
<path d="M4.60547 21.7108V20.395C4.60547 18.9991 5.15998 17.6604 6.14701 16.6734C7.13405 15.6863 8.47275 15.1318 9.86863 15.1318H15.1318C16.5277 15.1318 17.8664 15.6863 18.8534 16.6734C19.8404 17.6604 20.3949 18.9991 20.3949 20.395V21.7108" stroke="#000000" stroke-linecap="round"/>
</svg>
