<svg width="100" height="256" viewBox="0 0 100 256" fill="none" xmlns="http://www.w3.org/2000/svg">
<rect width="100" height="256" rx="30" fill="#F8FBF7"/>
<path d="M60.6671 127.111H50.8894V117.333C50.8894 117.097 50.7957 116.871 50.629 116.705C50.4623 116.538 50.2362 116.444 50.0005 116.444C49.7647 116.444 49.5386 116.538 49.3719 116.705C49.2052 116.871 49.1116 117.097 49.1116 117.333V127.111H39.3338C39.0981 127.111 38.872 127.205 38.7053 127.371C38.5386 127.538 38.4449 127.764 38.4449 128C38.4405 128.115 38.461 128.231 38.5048 128.338C38.5487 128.444 38.615 128.541 38.6992 128.62C38.7834 128.699 38.8837 128.759 38.9931 128.797C39.1026 128.834 39.2188 128.847 39.3338 128.835H49.1116V138.667C49.1116 138.902 49.2052 139.128 49.3719 139.295C49.5386 139.462 49.7647 139.555 50.0005 139.555C50.2362 139.555 50.4623 139.462 50.629 139.295C50.7957 139.128 50.8894 138.902 50.8894 138.667V128.889H60.6671C60.9029 128.889 61.129 128.795 61.2957 128.628C61.4624 128.462 61.556 128.236 61.556 128C61.556 127.764 61.4624 127.538 61.2957 127.371C61.129 127.205 60.9029 127.111 60.6671 127.111Z" fill="black"/>
</svg>
