<svg width="80" height="80" viewBox="0 0 80 80" fill="none" xmlns="http://www.w3.org/2000/svg">
<circle cx="40" cy="40" r="40" fill="#FAF0F0"/>
<path d="M50.6671 39.111H40.8894V29.3332C40.8894 29.0975 40.7957 28.8714 40.629 28.7047C40.4623 28.538 40.2362 28.4443 40.0005 28.4443C39.7647 28.4443 39.5386 28.538 39.3719 28.7047C39.2052 28.8714 39.1116 29.0975 39.1116 29.3332V39.111H29.3338C29.0981 39.111 28.872 39.2047 28.7053 39.3714C28.5386 39.5381 28.4449 39.7641 28.4449 39.9999C28.4405 40.1154 28.461 40.2305 28.5048 40.3375C28.5487 40.4445 28.615 40.5408 28.6992 40.62C28.7834 40.6991 28.8837 40.7593 28.9931 40.7965C29.1026 40.8337 29.2188 40.847 29.3338 40.8354H39.1116V50.6666C39.1116 50.9023 39.2052 51.1284 39.3719 51.2951C39.5386 51.4618 39.7647 51.5554 40.0005 51.5554C40.2362 51.5554 40.4623 51.4618 40.629 51.2951C40.7957 51.1284 40.8894 50.9023 40.8894 50.6666V40.8888H50.6671C50.9029 40.8888 51.129 40.7951 51.2957 40.6284C51.4624 40.4617 51.556 40.2356 51.556 39.9999C51.556 39.7641 51.4624 39.5381 51.2957 39.3714C51.129 39.2047 50.9029 39.111 50.6671 39.111Z" fill="black"/>
</svg>
