<svg width="25" height="25" viewBox="0 0 25 25" fill="none" xmlns="http://www.w3.org/2000/svg">
<g clip-path="url(#clip0_1371_9369)">
<path d="M12.4985 3.40771C11.2445 3.40771 10.2246 4.42757 10.2246 5.68158C10.2246 6.93559 11.2445 7.95539 12.4985 7.95539C13.7525 7.95539 14.7723 6.93554 14.7723 5.68158C14.7723 4.42762 13.7524 3.40771 12.4985 3.40771ZM12.4985 6.81904C11.8715 6.81904 11.361 6.30859 11.361 5.68158C11.361 5.05457 11.8715 4.54411 12.4985 4.54411C13.1255 4.54411 13.636 5.05457 13.636 5.68158C13.636 6.30859 13.1255 6.81904 12.4985 6.81904Z" fill="#121243" stroke="white" stroke-width="0.5"/>
<path d="M24.4319 10.2273C24.7459 10.2273 25.0001 9.97468 25.0001 9.66067V7.38819C25.0001 7.1879 24.8946 7.00205 24.722 6.89994L13.6075 0.299403C13.6025 0.296047 13.5975 0.293277 13.5925 0.290507C12.9017 -0.0923234 12.1227 -0.103936 11.3919 0.298284L0.278001 6.89994C0.105416 7.002 0 7.1879 0 7.38819V9.66067C0 9.97468 0.254137 10.2273 0.5682 10.2273H2.27275V20.455C1.01927 20.455 0 21.4742 0 22.7275V24.4319C0 24.7459 0.254137 25 0.5682 25H24.4319C24.7459 25 25.0001 24.746 25.0001 24.4319V22.7275C25.0001 21.4742 23.9808 20.455 22.7273 20.455V10.2273H24.4319ZM23.8637 22.7273V23.8636H1.13635V22.7273C1.13635 22.1009 1.64627 21.5909 2.27269 21.5909H2.84089H22.1591H22.7273C23.3537 21.5909 23.8637 22.1008 23.8637 22.7273ZM3.40909 20.4545V10.2273H5.68184V20.4545H3.40909ZM6.81819 20.4545V10.2273H10.2273V20.4545H6.81819ZM11.3636 20.4545V10.2273H13.6364V20.4545H11.3636ZM14.7727 20.4545V10.2273H18.1818V20.4545H14.7727ZM19.3182 20.4545V10.2273H21.591V20.4545H19.3182ZM1.13635 9.09092V7.70987L11.9557 1.28229C12.3097 1.08754 12.6859 1.08808 13.0355 1.2784L23.8637 7.70987V9.09092H1.13635Z" fill="#121243" stroke="white" stroke-width="0.5"/>
</g>
<defs>
<clipPath id="clip0_1371_9369">
<rect width="25" height="25" fill="white"/>
</clipPath>
</defs>
</svg>
