<svg width="100" height="100" viewBox="0 0 100 100" fill="none" xmlns="http://www.w3.org/2000/svg">
<rect width="100" height="100" rx="10" fill="#FDE7E8"/>
<path d="M55.8942 25.613C57.5492 25.636 59.1282 25.95 60.6027 26.7C61.9027 27.3655 62.9627 28.296 63.6862 29.5785C64.1564 30.4252 64.4648 31.352 64.5957 32.3115C64.8647 34.1535 64.5927 35.9355 63.9852 37.678C63.6282 38.7 63.1342 39.6585 62.5992 40.6C61.5092 42.5165 60.1087 44.1775 58.4797 45.65C56.3897 47.541 54.0979 49.1962 51.6457 50.5855C50.6957 51.122 49.7107 51.5725 48.6512 51.848C48.0021 52.0233 47.3319 52.1081 46.6597 52.1C45.7747 52.082 45.0822 51.679 44.5437 51C44.0464 50.3906 43.7902 49.6199 43.8237 48.834C43.8295 48.6154 43.8611 48.3983 43.9177 48.187C44.2382 47.0485 44.6737 45.958 45.3247 44.9635C45.8222 44.204 46.4152 43.5295 47.1907 43.047C48.0532 42.51 48.9907 42.2805 50.0047 42.502C50.3217 42.5764 50.62 42.7151 50.8812 42.9095C51.5487 43.3865 51.5137 44.135 51.1932 44.613C50.9186 45.0284 50.6116 45.4215 50.2752 45.7885C49.7052 46.4025 49.0997 46.983 48.5087 47.577C47.9857 48.1025 47.4942 48.654 47.0957 49.2825C46.8892 49.6085 46.6987 49.941 46.6417 50.3325C46.5697 50.8235 46.8247 51.158 47.3202 51.204C47.5765 51.225 47.8346 51.199 48.0817 51.1275C48.8432 50.917 49.5502 50.5775 50.2447 50.2115C51.3157 49.645 52.3042 48.9525 53.2677 48.222C54.4357 47.3365 55.5712 46.413 56.6177 45.386C57.8097 44.2175 58.8722 42.9475 59.6852 41.482C60.2792 40.412 60.7167 39.282 60.9112 38.07C61.0832 37.0025 60.9872 35.9625 60.4927 34.9825C60.2545 34.4981 59.8821 34.0925 59.4197 33.814C59.2062 33.6855 58.9707 33.5977 58.7252 33.555C57.8317 33.3965 56.9672 33.5265 56.1177 33.81C55.2322 34.106 54.4107 34.538 53.6122 35.01C51.8792 36.038 50.1442 37.0655 48.4927 38.223C47.6647 38.803 46.8622 39.42 46.0507 40.023C45.3177 40.568 44.5897 41.1195 43.7887 41.565C43.1386 41.9352 42.4351 42.2022 41.7032 42.3565C40.7962 42.5405 39.9602 42.3695 39.1922 41.8765C38.3952 41.365 37.8372 40.663 37.5922 39.734C37.4362 39.1475 37.4977 38.566 37.6322 37.987C37.8287 37.137 38.2017 36.367 38.6667 35.637C39.8167 33.834 41.2627 32.3045 42.9442 30.997C45.4362 29.0595 48.1782 27.5675 51.1442 26.488C52.667 25.931 54.2729 25.6352 55.8942 25.613V25.613Z" fill="#E20010"/>
<path d="M35.3947 66.835C35.3862 66.269 35.3217 65.76 34.9947 65.3185C34.8355 65.1051 34.615 64.9454 34.3627 64.8605C33.7127 64.6275 33.0507 64.655 32.4052 64.8545C31.8877 65.0145 31.3887 65.2325 30.8822 65.427C30.7822 65.464 30.6912 65.5115 30.5702 65.5655C30.3317 64.974 30.0972 64.4 29.8517 63.8C30.2072 63.6315 30.5422 63.4595 30.8877 63.312C31.6837 62.9715 32.5092 62.738 33.3772 62.6855C34.2452 62.633 35.1017 62.679 35.8917 63.1C36.7852 63.573 37.4302 64.256 37.7002 65.25C37.7391 65.3801 37.7625 65.5143 37.7697 65.65C37.8042 66.9405 37.8507 68.231 37.8562 69.5215C37.8597 70.4035 37.8017 71.286 37.7757 72.1685C37.771 72.2895 37.7207 72.4042 37.6347 72.4895C37.0172 73.1695 36.2617 73.6395 35.4057 73.955C34.4878 74.2899 33.5103 74.4304 32.5352 74.3675C31.6352 74.3175 30.8582 73.949 30.2012 73.3375C29.5442 72.726 29.0852 71.9875 28.9572 71.0825C28.7822 69.843 29.1397 68.7675 30.0307 67.8825C30.6037 67.3135 31.3097 67.0195 32.1052 66.9155C32.9852 66.801 33.8682 66.8315 34.7512 66.834L35.3947 66.835ZM35.2792 68.85C35.2273 68.8397 35.1749 68.8325 35.1222 68.8285C34.8222 68.8225 34.5187 68.812 34.2172 68.8165C33.8557 68.822 33.4927 68.8235 33.1332 68.8575C32.7617 68.893 32.4012 69.0015 32.1132 69.2495C31.6352 69.6615 31.4932 70.1995 31.6097 70.806C31.7547 71.556 32.1737 72.08 32.9207 72.303C33.3059 72.4182 33.7137 72.4353 34.1072 72.353C34.4729 72.286 34.8141 72.1223 35.0952 71.879C35.1428 71.842 35.1819 71.7954 35.2099 71.7421C35.238 71.6888 35.2543 71.6301 35.2577 71.57C35.2692 71.3065 35.3032 71.0435 35.3052 70.78C35.3092 70.1765 35.3002 69.573 35.2952 68.9695C35.2922 68.9293 35.2869 68.8894 35.2792 68.85V68.85Z" fill="#E20010"/>
<path d="M65.4647 68.8C63.3197 68.8 61.2147 68.754 59.0802 68.81C59.0912 68.96 59.0977 69.102 59.1112 69.2405C59.1662 69.807 59.2882 70.3575 59.5277 70.877C59.714 71.3007 60.003 71.6712 60.3687 71.955C60.9487 72.3955 61.6107 72.4675 62.3052 72.378C62.8792 72.304 63.4137 72.094 63.9467 71.8825C64.1912 71.786 64.4337 71.6825 64.6967 71.575C64.9467 72.098 65.1917 72.612 65.4467 73.141C65.3997 73.175 65.3557 73.213 65.3067 73.241C64.2667 73.858 63.1497 74.2555 61.9432 74.3605C60.8432 74.456 59.7932 74.2755 58.8432 73.667C58.1962 73.2525 57.7432 72.667 57.3642 72.012C56.8975 71.1971 56.6148 70.2898 56.5362 69.354C56.3776 67.6476 56.7399 66.059 57.6232 64.588C58.2392 63.5655 59.1587 63.01 60.3097 62.8185C61.3677 62.6324 62.4575 62.8138 63.3982 63.3325C63.9252 63.618 64.2922 64.0675 64.5947 64.5715C64.9947 65.236 65.2052 65.9685 65.3062 66.7275C65.3882 67.3395 65.4142 67.959 65.4632 68.5775C65.4692 68.641 65.4647 68.707 65.4647 68.8ZM62.8647 66.8575C62.7402 66.287 62.6552 65.704 62.2817 65.2205C62.0944 64.9802 61.8313 64.8103 61.5352 64.7385C60.7477 64.53 59.9562 64.893 59.6177 65.6385C59.4967 65.904 59.4257 66.1925 59.3377 66.472C59.2982 66.5985 59.2727 66.73 59.2412 66.8575C59.4527 66.9135 62.6482 66.916 62.8657 66.859L62.8647 66.8575Z" fill="#E20010"/>
<path d="M51.3956 60.0855L53.9551 59.6895V62.833C54.5231 62.867 55.0641 62.83 55.6081 62.8885V64.825C55.0581 64.834 54.5196 64.8175 53.9581 64.8515C53.9581 64.9605 53.9581 65.042 53.9581 65.1235C53.9535 66.9875 53.9495 68.8516 53.9461 70.716C53.9461 71.0095 53.9696 71.3035 53.9961 71.596C54.0381 72.046 54.2876 72.3315 54.7236 72.441C54.9641 72.502 55.2111 72.5365 55.4551 72.583L55.7001 72.633V74.2765C55.6726 74.2901 55.6433 74.2998 55.6131 74.3055C54.8866 74.338 54.1631 74.319 53.4606 74.1055C52.7746 73.8985 52.2026 73.5235 51.8146 72.9055C51.5941 72.5555 51.4821 72.162 51.4336 71.7555C51.4043 71.5008 51.39 71.2447 51.3906 70.9885C51.3906 67.4485 51.3926 63.9088 51.3966 60.3695L51.3956 60.0855Z" fill="#E20010"/>
<path d="M66.8751 60.0874L69.3501 59.6584V59.9999C69.3501 63.2149 69.3514 66.4299 69.3541 69.6449C69.3541 70.2334 69.3591 70.8219 69.3636 71.4109C69.3676 71.9919 69.5796 72.2879 70.1346 72.4609C70.3232 72.5131 70.5147 72.5542 70.7081 72.5839C70.8261 72.6059 70.9456 72.6164 71.0891 72.6339V74.3129C71.0757 74.324 71.06 74.3317 71.0431 74.3354C70.3401 74.3639 69.6401 74.3524 68.9566 74.1524C68.5424 74.0332 68.1568 73.8312 67.8231 73.5584C67.2016 73.0499 66.9486 72.3684 66.8836 71.5999C66.8646 71.3749 66.8671 71.1474 66.8676 70.9214C66.8676 67.4044 66.8701 63.8878 66.8751 60.3714V60.0874Z" fill="#E20010"/>
<path d="M46.4196 74.1644H43.9196C43.9166 74.0599 43.9116 73.9644 43.9111 73.8699C43.9084 72.3679 43.9062 70.8659 43.9046 69.3639C43.9016 68.1639 43.8941 66.9639 43.8946 65.7639C43.8953 65.5463 43.9121 65.329 43.9446 65.1139C43.9816 64.8684 44.1101 64.6639 44.2886 64.4914C45.2706 63.5354 46.4471 62.9624 47.7886 62.7154C48.6293 62.5612 49.4909 62.56 50.3321 62.7119C50.3766 62.7199 50.4211 62.7299 50.4646 62.7409C50.4861 62.7464 50.5066 62.7569 50.5481 62.7729C50.2641 63.4949 49.9181 64.1849 49.5921 64.8669C49.2026 64.8669 48.8336 64.8554 48.4656 64.8694C47.83 64.8905 47.2062 65.0459 46.6351 65.3254C46.4731 65.4049 46.4126 65.5039 46.4131 65.6904C46.4201 68.4237 46.4217 71.1571 46.4181 73.8904L46.4196 74.1644Z" fill="#E20010"/>
<path d="M42.0758 62.939C42.1023 66.685 42.0733 70.409 42.0973 74.156H39.6508C39.6448 74.0655 39.6328 73.971 39.6328 73.8765C39.6328 71.5215 39.6328 69.1661 39.6328 66.8105C39.6328 65.731 39.6418 64.6515 39.6463 63.572C39.6463 63.49 39.6463 63.408 39.6463 63.305L42.0758 62.939Z" fill="#E20010"/>
<path d="M40.7505 61.8365C39.556 61.8335 38.808 60.6445 39.3035 59.522C39.608 58.8335 40.131 58.572 40.8855 58.5765C41.8965 58.585 42.646 59.5905 42.405 60.573C42.2125 61.358 41.5825 61.8385 40.7505 61.8365Z" fill="#E20010"/>
</svg>
