<svg width="50" height="50" viewBox="0 0 50 50" fill="none" xmlns="http://www.w3.org/2000/svg">
<circle cx="25" cy="25" r="25" fill="#F0F2FF"/>
<path d="M36.7563 13.2438C36.6 13.0877 36.388 13 36.167 13C35.946 13 35.734 13.0877 35.5779 13.2438L27.8329 20.9887V14.6668C27.8329 14.369 27.6741 14.094 27.4163 13.945C27.1584 13.7962 26.8408 13.7962 26.5829 13.945C26.3249 14.094 26.166 14.369 26.166 14.6668V23.0005C26.166 23.2215 26.2539 23.4335 26.4102 23.5899C26.5666 23.7462 26.7786 23.8341 26.9996 23.8341H35.3333C35.6311 23.8341 35.9061 23.6752 36.0551 23.4172C36.2039 23.1594 36.2039 22.8417 36.0551 22.5838C35.9061 22.326 35.6311 22.1671 35.3333 22.1671H29.0114L36.7563 14.4222C36.9124 14.2661 37.0001 14.0541 37.0001 13.8331C37.0001 13.6121 36.9124 13.4001 36.7563 13.2438L36.7563 13.2438Z" fill="#4C5FF7"/>
<path d="M23.6734 20.0044C23.8295 19.848 23.9174 19.6362 23.9174 19.4152C23.9174 19.1942 23.8295 18.9822 23.6734 18.8259L18.673 13.8256H18.6728C18.5167 13.6692 18.3047 13.5815 18.0837 13.5815C17.8627 13.5815 17.6507 13.6692 17.4944 13.8256L15.7441 15.5758L21.9273 21.7504L23.6734 20.0044Z" fill="#4C5FF7"/>
<path d="M13.8317 17.4874C12.6586 18.6625 12 20.2549 12 21.9152C12 23.5756 12.6586 25.168 13.8317 26.3431L23.6564 36.1679C24.8315 37.3411 26.4239 37.9999 28.0843 37.9999C29.7445 37.9999 31.337 37.3411 32.5121 36.1679L33.2496 35.4303L14.5699 16.7495L13.8317 17.4874Z" fill="#4C5FF7"/>
<path d="M31.1745 26.3265C31.0182 26.1704 30.8062 26.0825 30.5852 26.0825C30.3642 26.0825 30.1524 26.1704 29.996 26.3265L28.25 28.0726L34.4289 34.2515L36.1749 32.5054V32.5057C36.3313 32.3493 36.419 32.1373 36.419 31.9163C36.419 31.6953 36.3313 31.4833 36.1749 31.3272L31.1745 26.3265Z" fill="#4C5FF7"/>
</svg>
