<svg width="170" height="54" viewBox="0 0 170 54" fill="none" xmlns="http://www.w3.org/2000/svg">
<rect width="170" height="54" rx="15" fill="black"/>
<g clip-path="url(#clip0)">
<path d="M28.9731 27.089L27.5224 25.5267L16.0825 13.2069C15.7832 13.6568 15.6174 14.1963 15.6174 14.7703V39.2303C15.6174 39.8478 15.8087 40.4255 16.153 40.8952L27.5224 28.6511L28.9731 27.089Z" fill="#6AA9FF"/>
<path d="M34.3352 32.8632L30.1536 28.3598L27.5224 31.1929L17.5822 41.8974C18.2654 42.0963 18.9977 42.0059 19.6355 41.6253L27.5224 36.9243L34.3352 32.8632Z" fill="#A8EBFA"/>
<path d="M34.441 21.2003L27.5224 17.0763L19.6355 12.3753C19.2163 12.1254 18.7563 12 18.2963 12C18.0127 12 17.7292 12.048 17.4554 12.143L27.5224 22.9842L30.1536 25.8176L34.441 21.2003Z" fill="#FF5B5B"/>
<path d="M40.1525 29.3955L35.8546 31.9573L31.3336 27.0888L35.9604 22.1063L40.1525 24.605C40.9911 25.1048 41.4919 26.0005 41.4919 27.0002C41.4919 28.0002 40.9911 28.8956 40.1525 29.3955Z" fill="#FF9F00"/>
<path d="M28.9731 27.089L27.5224 25.5267V28.6511L28.9731 27.089Z" fill="#2682FF"/>
<path d="M30.1536 28.3598L27.5224 31.1929V36.9243L34.3352 32.8633L30.1536 28.3598Z" fill="#76E2F8"/>
<path d="M34.441 21.2003L27.5224 17.0763V22.9842L30.1536 25.8176L34.441 21.2003Z" fill="#FF3636"/>
</g>
<path d="M61.177 31.475V36.74C60.517 37.226 59.812 37.583 59.062 37.811C58.318 38.033 57.52 38.144 56.668 38.144C55.606 38.144 54.643 37.979 53.779 37.649C52.921 37.319 52.186 36.86 51.574 36.272C50.968 35.684 50.5 34.982 50.17 34.166C49.84 33.35 49.675 32.459 49.675 31.493C49.675 30.515 49.834 29.618 50.152 28.802C50.47 27.986 50.92 27.284 51.502 26.696C52.09 26.108 52.801 25.652 53.635 25.328C54.469 25.004 55.405 24.842 56.443 24.842C56.971 24.842 57.463 24.884 57.919 24.968C58.381 25.052 58.807 25.169 59.197 25.319C59.593 25.463 59.953 25.64 60.277 25.85C60.601 26.06 60.898 26.291 61.168 26.543L60.475 27.641C60.367 27.815 60.226 27.923 60.052 27.965C59.878 28.001 59.689 27.956 59.485 27.83C59.287 27.716 59.089 27.602 58.891 27.488C58.693 27.374 58.471 27.275 58.225 27.191C57.985 27.107 57.712 27.038 57.406 26.984C57.106 26.93 56.758 26.903 56.362 26.903C55.72 26.903 55.138 27.011 54.616 27.227C54.1 27.443 53.659 27.752 53.293 28.154C52.927 28.556 52.645 29.039 52.447 29.603C52.249 30.167 52.15 30.797 52.15 31.493C52.15 32.237 52.255 32.903 52.465 33.491C52.681 34.073 52.981 34.568 53.365 34.976C53.755 35.378 54.223 35.687 54.769 35.903C55.315 36.113 55.924 36.218 56.596 36.218C57.076 36.218 57.505 36.167 57.883 36.065C58.261 35.963 58.63 35.825 58.99 35.651V33.293H57.352C57.196 33.293 57.073 33.251 56.983 33.167C56.899 33.077 56.857 32.969 56.857 32.843V31.475H61.177ZM67.1391 28.622C67.8231 28.622 68.4441 28.733 69.0021 28.955C69.5661 29.177 70.0461 29.492 70.4421 29.9C70.8441 30.308 71.1531 30.806 71.3691 31.394C71.5851 31.982 71.6931 32.639 71.6931 33.365C71.6931 34.097 71.5851 34.757 71.3691 35.345C71.1531 35.933 70.8441 36.434 70.4421 36.848C70.0461 37.262 69.5661 37.58 69.0021 37.802C68.4441 38.024 67.8231 38.135 67.1391 38.135C66.4491 38.135 65.8221 38.024 65.2581 37.802C64.6941 37.58 64.2111 37.262 63.8091 36.848C63.4131 36.434 63.1041 35.933 62.8821 35.345C62.6661 34.757 62.5581 34.097 62.5581 33.365C62.5581 32.639 62.6661 31.982 62.8821 31.394C63.1041 30.806 63.4131 30.308 63.8091 29.9C64.2111 29.492 64.6941 29.177 65.2581 28.955C65.8221 28.733 66.4491 28.622 67.1391 28.622ZM67.1391 36.425C67.9071 36.425 68.4741 36.167 68.8401 35.651C69.2121 35.135 69.3981 34.379 69.3981 33.383C69.3981 32.387 69.2121 31.628 68.8401 31.106C68.4741 30.584 67.9071 30.323 67.1391 30.323C66.3591 30.323 65.7801 30.587 65.4021 31.115C65.0301 31.637 64.8441 32.393 64.8441 33.383C64.8441 34.373 65.0301 35.129 65.4021 35.651C65.7801 36.167 66.3591 36.425 67.1391 36.425ZM77.475 28.622C78.159 28.622 78.78 28.733 79.338 28.955C79.902 29.177 80.382 29.492 80.778 29.9C81.18 30.308 81.489 30.806 81.705 31.394C81.921 31.982 82.029 32.639 82.029 33.365C82.029 34.097 81.921 34.757 81.705 35.345C81.489 35.933 81.18 36.434 80.778 36.848C80.382 37.262 79.902 37.58 79.338 37.802C78.78 38.024 78.159 38.135 77.475 38.135C76.785 38.135 76.158 38.024 75.594 37.802C75.03 37.58 74.547 37.262 74.145 36.848C73.749 36.434 73.44 35.933 73.218 35.345C73.002 34.757 72.894 34.097 72.894 33.365C72.894 32.639 73.002 31.982 73.218 31.394C73.44 30.806 73.749 30.308 74.145 29.9C74.547 29.492 75.03 29.177 75.594 28.955C76.158 28.733 76.785 28.622 77.475 28.622ZM77.475 36.425C78.243 36.425 78.81 36.167 79.176 35.651C79.548 35.135 79.734 34.379 79.734 33.383C79.734 32.387 79.548 31.628 79.176 31.106C78.81 30.584 78.243 30.323 77.475 30.323C76.695 30.323 76.116 30.587 75.738 31.115C75.366 31.637 75.18 32.393 75.18 33.383C75.18 34.373 75.366 35.129 75.738 35.651C76.116 36.167 76.695 36.425 77.475 36.425ZM87.0296 33.158C87.3056 33.158 87.5456 33.122 87.7496 33.05C87.9536 32.972 88.1216 32.867 88.2536 32.735C88.3916 32.603 88.4936 32.444 88.5596 32.258C88.6316 32.072 88.6676 31.868 88.6676 31.646C88.6676 31.19 88.5296 30.83 88.2536 30.566C87.9836 30.296 87.5756 30.161 87.0296 30.161C86.4836 30.161 86.0726 30.296 85.7966 30.566C85.5266 30.83 85.3916 31.19 85.3916 31.646C85.3916 31.862 85.4246 32.063 85.4906 32.249C85.5626 32.435 85.6646 32.597 85.7966 32.735C85.9346 32.867 86.1056 32.972 86.3096 33.05C86.5196 33.122 86.7596 33.158 87.0296 33.158ZM89.5406 38.414C89.5406 38.234 89.4866 38.087 89.3786 37.973C89.2706 37.859 89.1236 37.772 88.9376 37.712C88.7516 37.646 88.5326 37.598 88.2806 37.568C88.0346 37.538 87.7706 37.517 87.4886 37.505C87.2126 37.487 86.9246 37.472 86.6246 37.46C86.3306 37.448 86.0426 37.424 85.7606 37.388C85.5146 37.526 85.3136 37.688 85.1576 37.874C85.0076 38.06 84.9326 38.276 84.9326 38.522C84.9326 38.684 84.9716 38.834 85.0496 38.972C85.1336 39.116 85.2626 39.239 85.4366 39.341C85.6166 39.443 85.8476 39.521 86.1296 39.575C86.4116 39.635 86.7566 39.665 87.1646 39.665C87.5786 39.665 87.9356 39.632 88.2356 39.566C88.5356 39.506 88.7816 39.419 88.9736 39.305C89.1716 39.197 89.3156 39.065 89.4056 38.909C89.4956 38.759 89.5406 38.594 89.5406 38.414ZM91.7546 29.081V29.909C91.7546 30.173 91.5956 30.335 91.2776 30.395L90.4496 30.548C90.5756 30.866 90.6386 31.214 90.6386 31.592C90.6386 32.048 90.5456 32.462 90.3596 32.834C90.1796 33.2 89.9276 33.512 89.6036 33.77C89.2796 34.028 88.8956 34.229 88.4516 34.373C88.0136 34.511 87.5396 34.58 87.0296 34.58C86.8496 34.58 86.6756 34.571 86.5076 34.553C86.3396 34.535 86.1746 34.511 86.0126 34.481C85.7246 34.655 85.5806 34.85 85.5806 35.066C85.5806 35.252 85.6646 35.39 85.8326 35.48C86.0066 35.564 86.2346 35.624 86.5166 35.66C86.7986 35.696 87.1196 35.72 87.4796 35.732C87.8396 35.738 88.2086 35.756 88.5866 35.786C88.9646 35.816 89.3336 35.87 89.6936 35.948C90.0536 36.02 90.3746 36.137 90.6566 36.299C90.9386 36.461 91.1636 36.683 91.3316 36.965C91.5056 37.241 91.5926 37.598 91.5926 38.036C91.5926 38.444 91.4906 38.84 91.2866 39.224C91.0886 39.608 90.7976 39.95 90.4136 40.25C90.0356 40.55 89.5676 40.79 89.0096 40.97C88.4576 41.156 87.8276 41.249 87.1196 41.249C86.4236 41.249 85.8176 41.18 85.3016 41.042C84.7856 40.91 84.3566 40.73 84.0146 40.502C83.6726 40.28 83.4176 40.022 83.2496 39.728C83.0816 39.434 82.9976 39.128 82.9976 38.81C82.9976 38.378 83.1266 38.018 83.3846 37.73C83.6486 37.436 84.0086 37.202 84.4646 37.028C84.2186 36.902 84.0236 36.734 83.8796 36.524C83.7356 36.314 83.6636 36.038 83.6636 35.696C83.6636 35.558 83.6876 35.417 83.7356 35.273C83.7896 35.123 83.8646 34.976 83.9606 34.832C84.0626 34.688 84.1886 34.553 84.3386 34.427C84.4886 34.295 84.6656 34.178 84.8696 34.076C84.4016 33.824 84.0326 33.488 83.7626 33.068C83.4986 32.648 83.3666 32.156 83.3666 31.592C83.3666 31.136 83.4566 30.725 83.6366 30.359C83.8226 29.987 84.0776 29.672 84.4016 29.414C84.7316 29.15 85.1186 28.949 85.5626 28.811C86.0126 28.673 86.5016 28.604 87.0296 28.604C87.4256 28.604 87.7976 28.646 88.1456 28.73C88.4936 28.808 88.8116 28.925 89.0996 29.081H91.7546ZM95.4144 24.626V38H93.1914V24.626H95.4144ZM103.578 32.321C103.578 32.033 103.536 31.763 103.452 31.511C103.374 31.253 103.254 31.028 103.092 30.836C102.93 30.644 102.723 30.494 102.471 30.386C102.225 30.272 101.937 30.215 101.607 30.215C100.965 30.215 100.458 30.398 100.086 30.764C99.7203 31.13 99.4863 31.649 99.3843 32.321H103.578ZM99.3393 33.662C99.3753 34.136 99.4593 34.547 99.5913 34.895C99.7233 35.237 99.8973 35.522 100.113 35.75C100.329 35.972 100.584 36.14 100.878 36.254C101.178 36.362 101.508 36.416 101.868 36.416C102.228 36.416 102.537 36.374 102.795 36.29C103.059 36.206 103.287 36.113 103.479 36.011C103.677 35.909 103.848 35.816 103.992 35.732C104.142 35.648 104.286 35.606 104.424 35.606C104.61 35.606 104.748 35.675 104.838 35.813L105.477 36.623C105.231 36.911 104.955 37.154 104.649 37.352C104.343 37.544 104.022 37.7 103.686 37.82C103.356 37.934 103.017 38.015 102.669 38.063C102.327 38.111 101.994 38.135 101.67 38.135C101.028 38.135 100.431 38.03 99.8793 37.82C99.3273 37.604 98.8473 37.289 98.4393 36.875C98.0313 36.455 97.7103 35.939 97.4763 35.327C97.2423 34.709 97.1252 33.995 97.1252 33.185C97.1252 32.555 97.2273 31.964 97.4313 31.412C97.6353 30.854 97.9263 30.371 98.3043 29.963C98.6883 29.549 99.1533 29.222 99.6993 28.982C100.251 28.742 100.872 28.622 101.562 28.622C102.144 28.622 102.681 28.715 103.173 28.901C103.665 29.087 104.088 29.36 104.442 29.72C104.796 30.074 105.072 30.512 105.27 31.034C105.474 31.55 105.576 32.141 105.576 32.807C105.576 33.143 105.54 33.371 105.468 33.491C105.396 33.605 105.258 33.662 105.054 33.662H99.3393ZM116.202 31.529C116.646 31.529 117.033 31.475 117.363 31.367C117.693 31.253 117.966 31.094 118.182 30.89C118.404 30.68 118.569 30.428 118.677 30.134C118.785 29.834 118.839 29.501 118.839 29.135C118.839 28.787 118.785 28.472 118.677 28.19C118.569 27.908 118.407 27.668 118.191 27.47C117.975 27.272 117.702 27.122 117.372 27.02C117.042 26.912 116.652 26.858 116.202 26.858H114.393V31.529H116.202ZM116.202 24.986C117.072 24.986 117.825 25.088 118.461 25.292C119.097 25.496 119.622 25.781 120.036 26.147C120.45 26.513 120.756 26.951 120.954 27.461C121.158 27.971 121.26 28.529 121.26 29.135C121.26 29.765 121.155 30.344 120.945 30.872C120.735 31.394 120.42 31.844 120 32.222C119.58 32.6 119.052 32.894 118.416 33.104C117.786 33.314 117.048 33.419 116.202 33.419H114.393V38H111.972V24.986H116.202ZM124.981 24.626V38H122.758V24.626H124.981ZM132.074 34.058C131.432 34.088 130.892 34.145 130.454 34.229C130.016 34.307 129.665 34.409 129.401 34.535C129.137 34.661 128.948 34.808 128.834 34.976C128.72 35.144 128.663 35.327 128.663 35.525C128.663 35.915 128.777 36.194 129.005 36.362C129.239 36.53 129.542 36.614 129.914 36.614C130.37 36.614 130.763 36.533 131.093 36.371C131.429 36.203 131.756 35.951 132.074 35.615V34.058ZM126.98 30.053C128.042 29.081 129.32 28.595 130.814 28.595C131.354 28.595 131.837 28.685 132.263 28.865C132.689 29.039 133.049 29.285 133.343 29.603C133.637 29.915 133.859 30.29 134.009 30.728C134.165 31.166 134.243 31.646 134.243 32.168V38H133.235C133.025 38 132.863 37.97 132.749 37.91C132.635 37.844 132.545 37.715 132.479 37.523L132.281 36.857C132.047 37.067 131.819 37.253 131.597 37.415C131.375 37.571 131.144 37.703 130.904 37.811C130.664 37.919 130.406 38 130.13 38.054C129.86 38.114 129.56 38.144 129.23 38.144C128.84 38.144 128.48 38.093 128.15 37.991C127.82 37.883 127.535 37.724 127.295 37.514C127.055 37.304 126.869 37.043 126.737 36.731C126.605 36.419 126.539 36.056 126.539 35.642C126.539 35.408 126.578 35.177 126.656 34.949C126.734 34.715 126.86 34.493 127.034 34.283C127.214 34.073 127.445 33.875 127.727 33.689C128.009 33.503 128.354 33.341 128.762 33.203C129.176 33.065 129.656 32.954 130.202 32.87C130.748 32.78 131.372 32.726 132.074 32.708V32.168C132.074 31.55 131.942 31.094 131.678 30.8C131.414 30.5 131.033 30.35 130.535 30.35C130.175 30.35 129.875 30.392 129.635 30.476C129.401 30.56 129.194 30.656 129.014 30.764C128.834 30.866 128.669 30.959 128.519 31.043C128.375 31.127 128.213 31.169 128.033 31.169C127.877 31.169 127.745 31.13 127.637 31.052C127.529 30.968 127.442 30.872 127.376 30.764L126.98 30.053ZM144.461 28.766L139.43 40.538C139.364 40.694 139.277 40.811 139.169 40.889C139.067 40.973 138.908 41.015 138.692 41.015H137.036L138.764 37.307L135.029 28.766H136.982C137.156 28.766 137.291 28.808 137.387 28.892C137.489 28.976 137.564 29.072 137.612 29.18L139.574 33.968C139.64 34.13 139.694 34.292 139.736 34.454C139.784 34.616 139.829 34.781 139.871 34.949C139.925 34.781 139.979 34.616 140.033 34.454C140.087 34.286 140.147 34.121 140.213 33.959L142.067 29.18C142.115 29.06 142.193 28.961 142.301 28.883C142.415 28.805 142.541 28.766 142.679 28.766H144.461Z" fill="white"/>
<path d="M53.059 17.825V19.58C52.839 19.742 52.604 19.861 52.354 19.937C52.106 20.011 51.84 20.048 51.556 20.048C51.202 20.048 50.881 19.993 50.593 19.883C50.307 19.773 50.062 19.62 49.858 19.424C49.656 19.228 49.5 18.994 49.39 18.722C49.28 18.45 49.225 18.153 49.225 17.831C49.225 17.505 49.278 17.206 49.384 16.934C49.49 16.662 49.64 16.428 49.834 16.232C50.03 16.036 50.267 15.884 50.545 15.776C50.823 15.668 51.135 15.614 51.481 15.614C51.657 15.614 51.821 15.628 51.973 15.656C52.127 15.684 52.269 15.723 52.399 15.773C52.531 15.821 52.651 15.88 52.759 15.95C52.867 16.02 52.966 16.097 53.056 16.181L52.825 16.547C52.789 16.605 52.742 16.641 52.684 16.655C52.626 16.667 52.563 16.652 52.495 16.61C52.429 16.572 52.363 16.534 52.297 16.496C52.231 16.458 52.157 16.425 52.075 16.397C51.995 16.369 51.904 16.346 51.802 16.328C51.702 16.31 51.586 16.301 51.454 16.301C51.24 16.301 51.046 16.337 50.872 16.409C50.7 16.481 50.553 16.584 50.431 16.718C50.309 16.852 50.215 17.013 50.149 17.201C50.083 17.389 50.05 17.599 50.05 17.831C50.05 18.079 50.085 18.301 50.155 18.497C50.227 18.691 50.327 18.856 50.455 18.992C50.585 19.126 50.741 19.229 50.923 19.301C51.105 19.371 51.308 19.406 51.532 19.406C51.692 19.406 51.835 19.389 51.961 19.355C52.087 19.321 52.21 19.275 52.33 19.217V18.431H51.784C51.732 18.431 51.691 18.417 51.661 18.389C51.633 18.359 51.619 18.323 51.619 18.281V17.825H53.059ZM54.6465 16.304V17.507H56.1645V18.128H54.6465V19.355H56.5725V20H53.8365V15.662H56.5725V16.304H54.6465ZM60.3177 16.325H59.0097V20H58.2027V16.325H56.8947V15.662H60.3177V16.325ZM62.9727 20H62.1627V15.662H62.9727V20ZM66.9739 16.325H65.6659V20H64.8589V16.325H63.5509V15.662H66.9739V16.325ZM72.9559 17.831C72.9559 18.149 72.9029 18.444 72.7969 18.716C72.6929 18.986 72.5449 19.22 72.3529 19.418C72.1609 19.616 71.9299 19.771 71.6599 19.883C71.3899 19.993 71.0899 20.048 70.7599 20.048C70.4319 20.048 70.1329 19.993 69.8629 19.883C69.5929 19.771 69.3609 19.616 69.1669 19.418C68.9749 19.22 68.8259 18.986 68.7199 18.716C68.6139 18.444 68.5609 18.149 68.5609 17.831C68.5609 17.513 68.6139 17.219 68.7199 16.949C68.8259 16.677 68.9749 16.442 69.1669 16.244C69.3609 16.046 69.5929 15.892 69.8629 15.782C70.1329 15.67 70.4319 15.614 70.7599 15.614C70.9799 15.614 71.1869 15.64 71.3809 15.692C71.5749 15.742 71.7529 15.814 71.9149 15.908C72.0769 16 72.2219 16.113 72.3499 16.247C72.4799 16.379 72.5899 16.527 72.6799 16.691C72.7699 16.855 72.8379 17.033 72.8839 17.225C72.9319 17.417 72.9559 17.619 72.9559 17.831ZM72.1309 17.831C72.1309 17.593 72.0989 17.38 72.0349 17.192C71.9709 17.002 71.8799 16.841 71.7619 16.709C71.6439 16.577 71.4999 16.476 71.3299 16.406C71.1619 16.336 70.9719 16.301 70.7599 16.301C70.5479 16.301 70.3569 16.336 70.1869 16.406C70.0189 16.476 69.8749 16.577 69.7549 16.709C69.6369 16.841 69.5459 17.002 69.4819 17.192C69.4179 17.38 69.3859 17.593 69.3859 17.831C69.3859 18.069 69.4179 18.283 69.4819 18.473C69.5459 18.661 69.6369 18.821 69.7549 18.953C69.8749 19.083 70.0189 19.183 70.1869 19.253C70.3569 19.323 70.5479 19.358 70.7599 19.358C70.9719 19.358 71.1619 19.323 71.3299 19.253C71.4999 19.183 71.6439 19.083 71.7619 18.953C71.8799 18.821 71.9709 18.661 72.0349 18.473C72.0989 18.283 72.1309 18.069 72.1309 17.831ZM77.3216 15.662V20H76.9076C76.8436 20 76.7896 19.99 76.7456 19.97C76.7036 19.948 76.6626 19.912 76.6226 19.862L74.3576 16.97C74.3696 17.102 74.3756 17.224 74.3756 17.336V20H73.6646V15.662H74.0876C74.1216 15.662 74.1506 15.664 74.1746 15.668C74.2006 15.67 74.2226 15.676 74.2406 15.686C74.2606 15.694 74.2796 15.707 74.2976 15.725C74.3156 15.741 74.3356 15.763 74.3576 15.791L76.6316 18.695C76.6256 18.625 76.6206 18.556 76.6166 18.488C76.6126 18.42 76.6106 18.357 76.6106 18.299V15.662H77.3216Z" fill="white"/>
<defs>
<clipPath id="clip0">
<rect width="29" height="30" fill="white" transform="matrix(1 0 0 -1 14 42)"/>
</clipPath>
</defs>
</svg>
