<svg width="35" height="35" viewBox="0 0 35 35" fill="none" xmlns="http://www.w3.org/2000/svg">
<path d="M24.0606 0C22.1946 0.129062 20.0137 1.32343 18.7428 2.87873C17.5834 4.28966 16.6297 6.38527 17.0016 8.42183C19.0403 8.48526 21.1468 7.26246 22.3674 5.6809C23.5093 4.20873 24.3734 2.12624 24.0606 0Z" fill="#F0F3EE"/>
<path d="M31.4345 11.7417C29.643 9.49515 27.1252 8.19141 24.7474 8.19141C21.6083 8.19141 20.2805 9.69421 18.0996 9.69421C15.8509 9.69421 14.1424 8.19578 11.4278 8.19578C8.76121 8.19578 5.92186 9.82546 4.12155 12.6123C1.59063 16.5367 2.02375 23.9151 6.12529 30.1997C7.5931 32.4485 9.55308 34.9772 12.1168 34.9991C14.3984 35.0209 15.0415 33.5356 18.1324 33.5203C21.2233 33.5028 21.8096 35.0187 24.0868 34.9947C26.6527 34.975 28.7198 32.1728 30.1877 29.9241C31.2398 28.3119 31.6314 27.5004 32.4473 25.6804C26.5127 23.4207 25.5611 14.9814 31.4345 11.7417Z" fill="#F0F3EE"/>
</svg>
