<svg width="16" height="16" viewBox="0 0 16 16" fill="none" xmlns="http://www.w3.org/2000/svg">
<mask id="path-1-inside-1_14603_80973" fill="white">
<path d="M14.5708 1.4295C14.4495 1.32793 14.254 1.22563 14.096 1.21668L5.71534 0.69293C5.31142 0.63173 4.95884 0.985786 4.93164 1.39333C4.9046 1.80108 5.22595 2.15568 5.61726 2.16591L12.3693 2.58313L0.428663 14.5237C0.139473 14.8129 0.139483 15.2821 0.428664 15.5712C0.718036 15.8606 1.18698 15.8604 1.47616 15.5712L13.4168 3.63062L13.834 10.3826C13.8269 10.7913 14.2295 11.077 14.6375 11.0498C15.0452 11.0228 15.3603 10.6802 15.3074 10.2846L14.7836 1.9039C14.7749 1.68505 14.6715 1.54182 14.5708 1.4291L14.5708 1.4295Z"/>
</mask>
<path d="M14.5708 1.4295L13.2868 2.96292L16.5888 5.72781L16.5708 1.42115L14.5708 1.4295ZM14.096 1.21668L13.9712 3.21282L13.9829 3.21348L14.096 1.21668ZM5.71534 0.69293L5.41573 2.67036L5.50276 2.68355L5.5906 2.68904L5.71534 0.69293ZM4.93164 1.39333L2.93608 1.26014L2.93602 1.26101L4.93164 1.39333ZM5.61726 2.16591L5.7406 0.169722L5.7051 0.167528L5.66954 0.166599L5.61726 2.16591ZM12.3693 2.58313L13.7835 3.99734L16.9203 0.860522L12.4926 0.586934L12.3693 2.58313ZM13.4168 3.63062L15.413 3.50727L15.1394 -0.920411L12.0026 2.21641L13.4168 3.63062ZM13.834 10.3826L15.8337 10.4175L15.8351 10.3383L15.8302 10.2593L13.834 10.3826ZM14.6375 11.0498L14.5051 9.05421L14.5045 9.05425L14.6375 11.0498ZM15.3074 10.2846L13.3113 10.4093L13.3157 10.4799L13.3251 10.55L15.3074 10.2846ZM14.7836 1.9039L12.7852 1.98397L12.7861 2.00632L12.7875 2.02865L14.7836 1.9039ZM14.5708 1.4291L16.0625 0.0969193L12.5488 -3.83769L12.5708 1.43746L14.5708 1.4291ZM15.8548 -0.103907C15.5509 -0.358406 14.9562 -0.737806 14.2091 -0.780122L13.9829 3.21348C13.837 3.20521 13.7255 3.17867 13.6574 3.15872C13.5865 3.13794 13.5328 3.11548 13.4962 3.0983C13.4316 3.06793 13.364 3.02758 13.2868 2.96292L15.8548 -0.103907ZM14.2207 -0.779428L5.84009 -1.30318L5.5906 2.68904L13.9712 3.21278L14.2207 -0.779428ZM6.01495 -1.2845C4.18579 -1.56165 3.02196 -0.0266817 2.93608 1.26015L6.9272 1.52652C6.90593 1.8452 6.76458 2.12743 6.54266 2.33337C6.30861 2.55056 5.9052 2.74452 5.41573 2.67036L6.01495 -1.2845ZM2.93602 1.26101C2.83641 2.76332 3.99942 4.12429 5.56498 4.16523L5.66954 0.166599C6.45248 0.187071 6.97279 0.838847 6.92725 1.52565L2.93602 1.26101ZM5.49391 4.16211L12.2459 4.57932L12.4926 0.586934L5.7406 0.169722L5.49391 4.16211ZM10.9551 1.16891L-0.985551 13.1095L1.84288 15.938L13.7835 3.99734L10.9551 1.16891ZM-0.985551 13.1095C-2.05581 14.1798 -2.05576 15.9152 -0.98555 16.9855L1.84288 14.157C2.33473 14.6489 2.33475 15.4461 1.84288 15.938L-0.985551 13.1095ZM-0.98555 16.9855C0.0852059 18.0562 1.82048 18.0554 2.89037 16.9855L0.0619434 14.157C0.553477 13.6655 1.35087 13.665 1.84288 14.157L-0.98555 16.9855ZM2.89037 16.9855L14.831 5.04483L12.0026 2.21641L0.0619434 14.157L2.89037 16.9855ZM11.4206 3.75397L11.8378 10.506L15.8302 10.2593L15.413 3.50727L11.4206 3.75397ZM11.8343 10.3478C11.8007 12.2743 13.5716 13.1253 14.7704 13.0454L14.5045 9.05425C14.791 9.03516 15.0785 9.11959 15.3199 9.31037C15.58 9.51581 15.8426 9.90374 15.8337 10.4175L11.8343 10.3478ZM14.7698 13.0454C16.1692 12.9527 17.5171 11.7176 17.2897 10.0191L13.3251 10.55C13.2036 9.6429 13.9212 9.09293 14.5051 9.05421L14.7698 13.0454ZM17.3035 10.1598L16.7797 1.77916L12.7875 2.02865L13.3113 10.4093L17.3035 10.1598ZM16.782 1.82383C16.7459 0.922279 16.2849 0.345954 16.0625 0.0969193L13.0791 2.76128C13.0784 2.7605 13.059 2.73896 13.0327 2.70304C13.0055 2.66601 12.9685 2.61052 12.9312 2.53772C12.8502 2.37942 12.7934 2.18815 12.7852 1.98397L16.782 1.82383ZM12.5708 1.43746L12.5708 1.43786L16.5708 1.42115L16.5708 1.42075L12.5708 1.43746Z" fill="white" mask="url(#path-1-inside-1_14603_80973)"/>
</svg>
