<svg width="24" height="24" viewBox="0 0 24 24" fill="none" xmlns="http://www.w3.org/2000/svg">
<path fill-rule="evenodd" clip-rule="evenodd" d="M15.219 6.969C15.2886 6.89916 15.3714 6.84374 15.4625 6.80594C15.5536 6.76813 15.6513 6.74866 15.75 6.74866C15.8486 6.74866 15.9463 6.76813 16.0374 6.80594C16.1285 6.84374 16.2113 6.89916 16.281 6.969L20.781 11.469C20.8508 11.5387 20.9062 11.6214 20.944 11.7126C20.9818 11.8037 21.0013 11.9014 21.0013 12C21.0013 12.0987 20.9818 12.1963 20.944 12.2875C20.9062 12.3786 20.8508 12.4613 20.781 12.531L16.281 17.031C16.1401 17.1718 15.9491 17.2509 15.75 17.2509C15.5508 17.2509 15.3598 17.1718 15.219 17.031C15.0781 16.8902 14.999 16.6992 14.999 16.5C14.999 16.3008 15.0781 16.1098 15.219 15.969L19.1895 12L15.219 8.031C15.1491 7.96134 15.0937 7.87857 15.0559 7.78745C15.0181 7.69634 14.9986 7.59866 14.9986 7.5C14.9986 7.40135 15.0181 7.30367 15.0559 7.21255C15.0937 7.12144 15.1491 7.03867 15.219 6.969V6.969Z" fill="#000000"/>
<path fill-rule="evenodd" clip-rule="evenodd" d="M3 12C3 11.8011 3.07902 11.6103 3.21967 11.4697C3.36032 11.329 3.55109 11.25 3.75 11.25H19.5C19.6989 11.25 19.8897 11.329 20.0303 11.4697C20.171 11.6103 20.25 11.8011 20.25 12C20.25 12.1989 20.171 12.3897 20.0303 12.5303C19.8897 12.671 19.6989 12.75 19.5 12.75H3.75C3.55109 12.75 3.36032 12.671 3.21967 12.5303C3.07902 12.3897 3 12.1989 3 12Z" fill="#000000"/>
</svg>
