<svg width="40" height="40" viewBox="0 0 40 40" fill="none" xmlns="http://www.w3.org/2000/svg">
<path fill-rule="evenodd" clip-rule="evenodd" d="M14.6043 28.323C14.4884 28.4392 14.3508 28.5313 14.1993 28.5942C14.0477 28.6571 13.8853 28.6895 13.7212 28.6895C13.5572 28.6895 13.3947 28.6571 13.2432 28.5942C13.0917 28.5313 12.954 28.4392 12.8382 28.323L5.35476 20.8396C5.23861 20.7237 5.14646 20.5861 5.08358 20.4346C5.02071 20.2831 4.98834 20.1206 4.98834 19.9566C4.98834 19.7925 5.02071 19.6301 5.08358 19.4785C5.14646 19.327 5.23861 19.1894 5.35476 19.0735L12.8382 11.5901C13.0724 11.3559 13.39 11.2243 13.7212 11.2243C14.0524 11.2243 14.3701 11.3559 14.6043 11.5901C14.8385 11.8243 14.97 12.1419 14.97 12.4731C14.97 12.8043 14.8385 13.122 14.6043 13.3562L8.0014 19.9566L14.6043 26.5569C14.7204 26.6728 14.8126 26.8104 14.8755 26.962C14.9383 27.1135 14.9707 27.2759 14.9707 27.44C14.9707 27.604 14.9383 27.7665 14.8755 27.918C14.8126 28.0695 14.7204 28.2072 14.6043 28.323Z" fill="#000000"/>
<path fill-rule="evenodd" clip-rule="evenodd" d="M34.9238 19.9559C34.9238 20.2867 34.7924 20.6039 34.5585 20.8378C34.3246 21.0717 34.0074 21.2031 33.6766 21.2031L7.4846 21.2031C7.15382 21.2031 6.83658 21.0717 6.60267 20.8378C6.36877 20.6039 6.23737 20.2867 6.23737 19.9559C6.23737 19.6251 6.36877 19.3079 6.60267 19.074C6.83658 18.8401 7.15382 18.7086 7.4846 18.7086L33.6766 18.7086C34.0074 18.7086 34.3246 18.8401 34.5585 19.074C34.7924 19.3079 34.9238 19.6251 34.9238 19.9559Z" fill="#000000"/>
</svg>
