<svg width="92" height="56" viewBox="0 0 92 56" fill="none" xmlns="http://www.w3.org/2000/svg">
<path d="M25.6613 20.2249C25.6613 21.3579 25.7824 22.2766 25.9944 22.9503C26.2367 23.6239 26.5396 24.3589 26.9635 25.1551C27.115 25.4 27.1755 25.645 27.1755 25.8594C27.1755 26.1656 26.9938 26.4718 26.6001 26.778L24.6922 28.0642C24.4196 28.2479 24.147 28.3398 23.9047 28.3398C23.6019 28.3398 23.299 28.1867 22.9962 27.9111C22.5722 27.4517 22.2088 26.9618 21.9059 26.4718C21.6031 25.9512 21.3002 25.3694 20.9671 24.6651C18.6048 27.4823 15.6369 28.891 12.0632 28.891C9.51926 28.891 7.49015 28.156 6.00617 26.6862C4.52219 25.2163 3.76506 23.2565 3.76506 20.8067C3.76506 18.2038 4.67362 16.0909 6.52102 14.4985C8.36842 12.9061 10.8215 12.11 13.9409 12.11C14.9706 12.11 16.0306 12.2018 17.1511 12.3549C18.2717 12.5081 19.4225 12.753 20.6339 13.0286V10.7932C20.6339 8.46591 20.1494 6.84293 19.2105 5.89364C18.2414 4.94435 16.606 4.48501 14.274 4.48501C13.2141 4.48501 12.1238 4.6075 11.0032 4.8831C9.88268 5.1587 8.79241 5.49555 7.73243 5.92426C7.24787 6.13862 6.88444 6.26111 6.67245 6.32235C6.46045 6.38359 6.30902 6.41422 6.18788 6.41422C5.76389 6.41422 5.55189 6.10799 5.55189 5.46493V3.96443C5.55189 3.47448 5.61246 3.10701 5.76389 2.89265C5.91532 2.6783 6.18788 2.46394 6.61188 2.24959C7.67186 1.69839 8.94384 1.23905 10.4278 0.871584C11.9118 0.473494 13.4866 0.28976 15.1523 0.28976C18.7563 0.28976 21.3911 1.11656 23.087 2.77016C24.7527 4.42377 25.6007 6.9348 25.6007 10.3032V20.2249H25.6613ZM13.3655 24.8795C14.3649 24.8795 15.3946 24.6957 16.4849 24.3283C17.5751 23.9608 18.5443 23.2871 19.362 22.3684C19.8465 21.7866 20.2099 21.1435 20.3917 20.4086C20.5734 19.6737 20.6945 18.7856 20.6945 17.7445V16.4583C19.8162 16.244 18.8774 16.0602 17.9083 15.9377C16.9391 15.8153 16.0003 15.754 15.0615 15.754C13.0323 15.754 11.5484 16.1521 10.549 16.9789C9.54954 17.8057 9.06498 18.9694 9.06498 20.5005C9.06498 21.9397 9.4284 23.0115 10.1855 23.7464C10.9124 24.512 11.9724 24.8795 13.3655 24.8795ZM37.6845 28.1867C37.1394 28.1867 36.776 28.0948 36.5337 27.8804C36.2914 27.6967 36.0794 27.268 35.8977 26.6862L28.7807 3.01514C28.5989 2.4027 28.5081 2.00461 28.5081 1.79025C28.5081 1.3003 28.7504 1.02469 29.2349 1.02469H32.2029C32.7783 1.02469 33.172 1.11656 33.384 1.33092C33.6263 1.51465 33.808 1.94336 33.9897 2.52519L39.0776 22.7971L43.8021 2.52519C43.9536 1.91274 44.1353 1.51465 44.3775 1.33092C44.6198 1.14718 45.0438 1.02469 45.589 1.02469H48.0118C48.5872 1.02469 48.9809 1.11656 49.2232 1.33092C49.4655 1.51465 49.6775 1.94336 49.7986 2.52519L54.5837 23.0421L59.823 2.52519C60.0047 1.91274 60.2167 1.51465 60.4287 1.33092C60.671 1.14718 61.0647 1.02469 61.6098 1.02469H64.4264C64.9109 1.02469 65.1835 1.26967 65.1835 1.79025C65.1835 1.94336 65.1532 2.09647 65.1229 2.28021C65.0926 2.46394 65.0321 2.70892 64.9109 3.04577L57.6122 26.7168C57.4305 27.3292 57.2185 27.7273 56.9762 27.9111C56.7339 28.0948 56.3402 28.2173 55.8254 28.2173H53.2208C52.6454 28.2173 52.2517 28.1254 52.0094 27.9111C51.7671 27.6967 51.5551 27.2986 51.434 26.6862L46.7398 6.9348L42.0759 26.6555C41.9244 27.268 41.7427 27.6661 41.5005 27.8804C41.2582 28.0948 40.8342 28.1867 40.289 28.1867H37.6845ZM76.601 29.0135C75.0262 29.0135 73.4514 28.8297 71.9371 28.4623C70.4228 28.0948 69.2417 27.6967 68.4543 27.2374C67.9697 26.9618 67.6366 26.6555 67.5155 26.3799C67.3943 26.1043 67.3338 25.7981 67.3338 25.5225V23.9608C67.3338 23.3177 67.576 23.0115 68.0303 23.0115C68.212 23.0115 68.3937 23.0421 68.5754 23.1034C68.7572 23.1646 69.0297 23.2871 69.3326 23.4096C70.3623 23.8689 71.4828 24.2364 72.664 24.4814C73.8754 24.7263 75.0565 24.8488 76.2679 24.8488C78.1759 24.8488 79.6598 24.512 80.6895 23.8383C81.7192 23.1646 82.2644 22.1847 82.2644 20.9292C82.2644 20.0718 81.9918 19.3674 81.4467 18.7856C80.9015 18.2038 79.8718 17.6832 78.3879 17.1933L73.9965 15.8153C71.7857 15.1109 70.1503 14.0698 69.1509 12.6918C68.1515 11.3444 67.6366 9.84391 67.6366 8.25155C67.6366 6.96542 67.9092 5.83239 68.4543 4.85248C68.9994 3.87257 69.7263 3.01514 70.6348 2.34145C71.5434 1.63714 72.5731 1.11656 73.7845 0.749094C74.9959 0.381627 76.2679 0.228516 77.6004 0.228516C78.2667 0.228516 78.9633 0.259138 79.6296 0.351005C80.3261 0.442872 80.9621 0.565361 81.5981 0.68785C82.2038 0.840961 82.7792 0.994073 83.3243 1.17781C83.8695 1.36154 84.2935 1.54527 84.5963 1.72901C85.0203 1.97399 85.3232 2.21896 85.5049 2.49456C85.6866 2.73954 85.7775 3.07639 85.7775 3.5051V4.94435C85.7775 5.58741 85.5352 5.92426 85.0809 5.92426C84.8386 5.92426 84.4449 5.80177 83.9301 5.55679C82.2038 4.76061 80.2655 4.36252 78.1153 4.36252C76.389 4.36252 75.0262 4.63812 74.0874 5.21995C73.1485 5.80177 72.664 6.68982 72.664 7.94533C72.664 8.80275 72.9668 9.53769 73.5725 10.1195C74.1782 10.7013 75.2988 11.2832 76.9039 11.8037L81.2044 13.1817C83.3849 13.8861 84.9598 14.866 85.8986 16.1215C86.8374 17.377 87.2917 18.8162 87.2917 20.4086C87.2917 21.7254 87.0191 22.9196 86.5043 23.9608C85.9592 25.0019 85.2323 25.9206 84.2935 26.6555C83.3546 27.4211 82.2341 27.9723 80.9318 28.3704C79.569 28.7991 78.1456 29.0135 76.601 29.0135Z" fill="#A3B9C2"/>
<path fill-rule="evenodd" clip-rule="evenodd" d="M82.3249 43.8959C72.3611 51.3371 57.8848 55.2874 45.4375 55.2874C27.9932 55.2874 12.2752 48.7648 0.403404 37.9245C-0.535438 37.0671 0.312549 35.9035 1.4331 36.5772C14.274 44.1102 30.1132 48.673 46.4975 48.673C57.5516 48.673 69.696 46.3457 80.8713 41.5686C82.5369 40.803 83.9604 42.671 82.3249 43.8959Z" fill="#A3B9C2"/>
<path fill-rule="evenodd" clip-rule="evenodd" d="M86.474 39.1188C85.202 37.4652 78.0547 38.3226 74.8142 38.7207C73.8451 38.8432 73.6936 37.9858 74.5719 37.3427C80.2655 33.3006 89.6237 34.4642 90.714 35.8116C91.8042 37.1896 90.4111 46.6519 85.0809 51.184C84.2632 51.8883 83.4758 51.5208 83.8392 50.6022C85.0506 47.5706 87.746 40.7418 86.474 39.1188Z" fill="#A3B9C2"/>
</svg>
