<svg width="70" height="70" viewBox="0 0 70 70" fill="none" xmlns="http://www.w3.org/2000/svg">
<circle cx="35" cy="35" r="35" fill="#000000"/>
<path d="M35.0265 18.3113L39.4701 15.3433L39.4706 15.3429C39.7069 15.1843 40.0255 15.2332 40.204 15.4561L40.2041 15.4563L42.5598 18.3938C41.3657 18.9714 39.8323 19.2584 38.4 19.2333C37.0024 19.2087 35.7611 18.8887 35.0265 18.3113Z" fill="#000000" stroke="#000000" stroke-width="0.5"/>
<path d="M49.6001 27.1737L44.7799 27.1737C45.3231 26.0868 46.2416 24.9797 47.2185 24.2039L49.6001 27.1737Z" fill="#000000" stroke="#000000" stroke-width="0.5"/>
<path d="M28.6652 25.1103L28.6653 25.1105C27.8515 25.6529 27.2065 26.3661 26.7597 27.1743H21.758L33.2272 19.5136C33.4517 19.7596 33.7156 20.0002 34.0074 20.2296C35.1322 21.4227 36.7973 22.0267 38.5758 22.0267C40.2013 22.0267 41.93 21.5287 43.4421 20.5186L43.4421 20.5185C43.5903 20.4195 43.6892 20.2896 43.7593 20.1605C43.8096 20.1306 43.8583 20.101 43.906 20.0717L45.9062 22.5658C44.4064 23.7545 43.1155 25.4764 42.529 27.1742H37.8901C37.7379 26.8956 37.5642 26.6208 37.3553 26.3596L37.355 26.3592C35.3169 23.8205 31.4215 23.2666 28.6652 25.1103Z" fill="#000000" stroke="#000000" stroke-width="0.5"/>
<path d="M35.2206 27.1728C33.7806 25.9188 31.5046 25.7361 29.8316 26.855L29.8119 26.8681C29.6718 26.9628 29.5406 27.0647 29.4176 27.1728H29.8789C30.0077 27.0092 30.1646 26.8606 30.3531 26.7351C31.5611 25.9293 32.7329 26.3782 33.2407 26.7772L35.2206 27.1728ZM35.2206 27.1728H33.5395C33.4778 27.0274 33.3824 26.8885 33.2408 26.7773L35.2206 27.1728Z" fill="#000000" stroke="#000000" stroke-width="0.5"/>
<path d="M52.3207 38.6094H52.3298C52.6276 38.6144 52.8708 38.8604 52.8708 39.1594V46.9915C52.8708 47.2934 52.6225 47.5416 52.3207 47.5416H45.8324C43.3699 47.5416 41.3623 45.541 41.3623 43.0796C41.3623 40.6176 43.3705 38.6094 45.8324 38.6094H52.3207Z" fill="#000000" stroke="#000000" stroke-width="0.5"/>
<path d="M50.1363 29.2735V29.2736L50.1408 29.2734C51.6491 29.2756 52.871 30.4991 52.871 32.0077V36.5739C52.6956 36.5337 52.5121 36.51 52.3207 36.51H45.8331C42.2096 36.51 39.2626 39.4571 39.2626 43.08C39.2626 46.6989 42.2102 49.6418 45.8331 49.6418H52.3207C52.512 49.6418 52.6956 49.6181 52.871 49.5779V52.0159C52.871 53.5258 51.647 54.7499 50.137 54.7499H18.984C17.4818 54.7499 16.25 53.5254 16.25 52.0159V32.0074C16.25 30.4979 17.4815 29.2735 18.984 29.2735H50.1363Z" fill="#000000" stroke="#000000" stroke-width="0.5"/>
</svg>
