<svg width="137" height="29" viewBox="0 0 137 29" fill="none" xmlns="http://www.w3.org/2000/svg">
<path d="M5.79091 14.5682C5.97701 14.4367 6.01339 14.3443 5.82729 14.1946C4.59873 13.2459 3.35057 12.2958 2.1402 11.3275C1.65745 10.9371 1.11733 10.6013 0.669558 10.1367H0.651367V18.4778H0.669558C0.81928 18.3477 0.985794 18.2175 1.13552 18.0874C2.67472 16.933 4.22652 15.7408 5.79091 14.5682Z" fill="#292525"/>
<path d="M136.315 0.622935C136.315 0.34308 136.259 0.287109 135.979 0.287109H0.335826C0.0559711 0.287109 0 0.34308 0 0.622935V6.91968V22.7455V28.3846C0 28.6644 0.0559711 28.7204 0.335826 28.7204H135.961C136.241 28.7204 136.295 28.6644 136.295 28.3846C136.315 19.1116 136.315 9.87635 136.315 0.622935ZM135.663 27.6961C135.663 27.9942 135.588 28.0683 135.29 28.0683H1.02427C0.689843 28.0683 0.652063 27.9564 0.652063 27.6765V18.5169H0.633872V10.1744H0.652063V1.33097C0.652063 1.03292 0.726224 0.957364 1.02427 0.957364H135.29C135.588 0.957364 135.663 1.01333 135.663 1.33097V27.6961Z" fill="white"/>
<path d="M93.4522 2.70708C93.4522 2.22293 93.4522 2.22293 92.9863 2.22293H3.05479C2.92438 2.23273 2.79341 2.23273 2.663 2.22293C2.4587 2.20474 2.40273 2.29849 2.40273 2.48459V9.59712C2.39542 9.66102 2.40532 9.72571 2.43139 9.78451C2.45747 9.84331 2.49878 9.89407 2.55105 9.93154C3.20312 10.4353 3.85518 10.9558 4.51004 11.4582C5.7498 12.4265 7.00075 13.3836 8.24891 14.3449C7.91448 14.6051 7.61643 14.8654 7.2988 15.1075C5.77219 16.2619 4.22739 17.4163 2.70078 18.5707C2.51467 18.7204 2.38314 18.8687 2.40273 19.1486C2.42092 21.4196 2.42092 23.7102 2.40273 25.9826C2.40273 26.3353 2.47689 26.4472 2.86729 26.4472C32.9191 26.4285 62.9774 26.4285 93.0423 26.4472C93.3963 26.4472 93.4704 26.3548 93.4704 26.019C93.4522 18.274 93.4522 10.4871 93.4522 2.70708ZM15.2131 20.2652C14.5051 21.1411 13.534 21.5134 12.4565 21.5693C12.0269 21.5907 11.5963 21.5658 11.172 21.4952C10.1113 21.3454 9.07308 21.4756 8.00683 21.5133H7.6906L7.50449 21.3273C7.49508 21.2729 7.50742 21.2171 7.53884 21.1718C7.57026 21.1265 7.61823 21.0954 7.6724 21.0852H7.70879C7.98864 21.067 8.28669 21.1216 8.47279 20.8613C8.69528 20.5632 8.71487 20.191 8.71487 19.837C8.75125 18.9247 8.7699 18.0124 8.77084 17.1V8.94506C8.77084 8.70298 8.75125 8.44271 8.73306 8.20064C8.69528 7.66052 8.4532 7.41845 7.91448 7.3247L7.4849 7.26872C7.37436 7.26872 7.26242 7.23234 7.26242 7.10221C7.26242 6.97207 7.37436 6.89652 7.50449 6.89652H8.65889C8.88138 6.89652 9.08707 6.9161 9.31096 6.9161H9.96162C10.8739 6.9161 11.8059 6.80416 12.7182 6.95249C14.5792 7.23234 15.2369 8.70298 15.097 10.0995C15.0032 11.2189 14.4827 12.148 13.6823 12.9106C13.4766 13.0967 13.4402 13.1723 13.7369 13.3206C16.5858 14.8472 16.7915 18.33 15.2089 20.2652H15.2131ZM29.5375 7.28831C28.8127 7.40025 28.6811 7.5108 28.6448 8.23702C28.5146 10.1736 28.607 12.092 28.5888 14.0286C28.5888 15.0711 28.5888 16.1136 28.4391 17.156C28.2781 18.2363 27.9983 19.2787 27.2987 20.1728C26.2184 21.5315 24.7478 21.8856 23.0896 21.6995C20.6885 21.4392 19.6824 19.7811 19.292 17.864C19.1335 17.0421 19.0584 16.2062 19.0681 15.3691V8.96325C19.0681 8.77714 19.0681 8.57285 19.0499 8.38674C18.9939 7.62274 18.7701 7.40025 18.0075 7.28831C17.8395 7.26872 17.5415 7.38066 17.5793 7.08262C17.6171 6.78457 17.8773 6.9161 18.0634 6.9161C19.3662 6.9343 20.6703 6.97068 21.973 6.9161L22.2892 6.9343L22.439 7.1204L22.2892 7.28831H22.2529C21.265 7.53039 21.2468 7.53039 21.1908 8.55466C21.1544 9.28088 21.1544 9.98752 21.1726 10.7137C21.1908 12.7805 21.0789 14.829 21.2468 16.8957C21.3028 17.6779 21.4329 18.4349 21.8065 19.1346C22.3466 20.1141 23.147 20.6612 24.3014 20.6234C25.4936 20.5674 26.238 19.9168 26.704 18.8729C27.058 18.0725 27.1139 17.1938 27.1321 16.3416C27.1503 15.7078 27.1503 15.0753 27.1503 14.461V8.90588C27.1533 8.72564 27.1473 8.54538 27.1321 8.36576C27.058 7.64093 26.8523 7.41705 26.1079 7.32329L25.9218 7.3051C25.7916 7.3051 25.6615 7.26732 25.6797 7.10081C25.6979 6.9343 25.8098 6.9329 25.94 6.9329H26.0155C27.1699 6.95109 28.3425 6.96928 29.4969 6.9329C29.6452 6.9329 29.8509 6.89512 29.8509 7.119C29.8691 7.3051 29.6648 7.26732 29.5333 7.28691L29.5375 7.28831ZM37.3357 20.58C37.0758 20.8911 36.7561 21.1469 36.3956 21.3322C36.035 21.5176 35.641 21.6286 35.2367 21.6589C34.2503 21.7708 33.2778 21.7149 32.3514 21.3608C31.8113 21.1383 31.7554 21.0642 31.7554 20.4863C31.7735 19.6467 31.8113 18.8072 31.8295 17.9676V17.8612C31.8855 17.7493 31.8295 17.5254 32.0352 17.545C32.2409 17.5646 32.1653 17.7493 32.1653 17.8612C32.1862 18.2529 32.2548 18.6406 32.3696 19.0156C32.528 19.5669 32.882 20.0416 33.3652 20.3507C33.8484 20.6598 34.4277 20.7821 34.9947 20.6948C35.9826 20.5646 36.7088 19.6159 36.7634 18.4419C36.8179 17.268 36.317 16.413 35.4606 15.7246C34.7344 15.1285 33.9522 14.6051 33.3197 13.9181C32.1094 12.5776 31.7372 11.0132 32.2213 9.30047C32.6495 7.79205 33.99 6.78177 35.5544 6.69362C36.3417 6.6579 37.1298 6.74331 37.8912 6.94689C38.1514 7.02105 38.227 7.15258 38.2074 7.41285C38.1892 7.76686 38.2074 8.13907 38.2074 8.49309H38.1892C38.1892 8.92127 38.2074 9.34945 38.1892 9.77763C38.1892 9.90776 38.2074 10.1121 38.0031 10.1121C37.7988 10.1121 37.873 9.90776 37.8548 9.77763C37.761 8.93806 37.463 8.19504 36.6444 7.84103C36.2891 7.67449 35.8947 7.60947 35.5048 7.65318C35.1148 7.6969 34.7446 7.84762 34.435 8.0887C33.4849 8.79673 33.4107 10.3793 34.2866 11.3658C34.733 11.8681 35.2913 12.2599 35.8258 12.6503C36.8319 13.3948 37.7624 14.2147 38.1528 15.4489C38.7867 17.2917 38.6566 19.0422 37.3343 20.5884L37.3357 20.58ZM45.1548 21.519C44.875 21.519 44.5769 21.5371 44.2985 21.519C43.3316 21.4448 42.3604 21.4448 41.3936 21.519C41.1879 21.5371 40.9836 21.519 40.7793 21.519C40.6491 21.519 40.5372 21.4812 40.5176 21.3328C40.498 21.1845 40.6114 21.109 40.7415 21.109C41.0214 21.0908 41.3376 21.1467 41.5237 20.8669C41.7098 20.587 41.728 20.2148 41.7476 19.8622C41.8217 18.0431 41.8217 16.2129 41.8036 14.405C41.7854 12.5972 41.8035 10.7921 41.784 8.98703C41.784 8.76315 41.7658 8.53926 41.7476 8.29719C41.6916 7.59055 41.5055 7.40445 40.8157 7.3107C40.6673 7.29251 40.4616 7.32889 40.4616 7.10641C40.4616 6.88392 40.6855 6.9203 40.8352 6.9203H44.7448C44.8932 6.9203 45.0988 6.88252 45.0988 7.10641C45.0988 7.33029 44.9127 7.27292 44.7826 7.29251C44.0564 7.40445 43.943 7.53458 43.8885 8.24122C43.8507 8.63302 43.8325 9.00522 43.8325 9.39562V18.8127C43.8325 19.2605 43.8703 19.7265 43.8885 20.1728C43.9249 20.8053 44.1683 21.0474 44.8008 21.0852H45.117C45.2668 21.0852 45.4711 21.0852 45.4711 21.2895C45.4711 21.4938 45.3031 21.5133 45.1548 21.5133V21.519ZM59.7073 7.26872C58.795 7.45482 58.7586 7.47441 58.6648 8.38814C58.5529 9.56073 58.6284 10.7333 58.5907 11.9073C58.5347 14.8864 58.4983 17.8472 58.4605 20.8263V21.1789C58.4228 21.365 58.4605 21.6267 58.2366 21.7009C58.0128 21.775 57.8463 21.6071 57.7161 21.4588C57.3985 21.0866 57.0822 20.6948 56.7842 20.3226C54.383 17.3435 51.9805 14.3645 49.7878 11.2175L49.6395 11.0314C49.6395 12.2613 49.6199 13.4703 49.6395 14.6807C49.6759 16.3192 49.7318 17.9578 49.7696 19.5963C49.7716 19.8352 49.8026 20.073 49.862 20.3044C49.9921 20.8641 50.1978 21.0306 50.7939 21.0488L51.036 21.0684C51.1465 21.0866 51.278 21.1048 51.278 21.2727C51.278 21.4406 51.1465 21.477 50.9982 21.477C50.7743 21.477 50.57 21.4966 50.3461 21.477C49.3596 21.3846 48.3871 21.4588 47.4076 21.477C47.2579 21.477 47.0354 21.5525 47.0159 21.2909C46.9963 21.0292 47.2397 21.0684 47.4076 21.0488C48.0779 21.0124 48.264 20.8627 48.3018 20.2092C48.4319 17.9382 48.4123 15.6672 48.4501 13.3766C48.4879 11.3098 48.5061 9.22491 48.5243 7.15818V7.00846C48.5621 6.86013 48.5621 6.63625 48.7482 6.59847C48.9343 6.56069 49.0462 6.73 49.1386 6.86013C50.0509 8.07051 50.9576 9.28088 51.8951 10.4899C53.7002 12.8183 55.5067 15.1634 57.2753 17.5282L57.3691 17.6402L57.4251 17.2861C57.3873 14.4568 57.3313 11.6261 57.2753 8.79673C57.2694 8.54662 57.2446 8.29731 57.2012 8.05092C57.1088 7.49121 56.8472 7.3065 56.1587 7.25053C55.9908 7.23234 55.7305 7.32469 55.7305 7.06443C55.7305 6.80416 55.9908 6.87833 56.1769 6.87833C57.2572 6.89652 58.3556 6.9343 59.4358 6.87833H59.6597L59.864 7.04624C59.9382 7.21275 59.8458 7.25053 59.7143 7.26872H59.7073ZM69.7135 18.8505C69.7019 19.6055 69.6336 20.3586 69.5092 21.1034C69.4532 21.4392 69.2853 21.5875 68.9313 21.5875C68.0568 21.5693 67.1808 21.5875 66.3063 21.5133C65.0581 21.4014 63.7876 21.4574 62.545 21.5315C62.4267 21.5346 62.3084 21.5285 62.191 21.5133L62.0427 21.3454L62.1728 21.1216L62.2848 21.0852C63.1411 20.9173 63.2531 20.8053 63.2712 19.893C63.3086 18.851 63.3272 17.8085 63.3272 16.7656V9.00103C63.3272 8.74076 63.309 8.4791 63.2894 8.21883C63.2531 7.65912 63.0096 7.41844 62.4499 7.34428C62.3001 7.32469 62.1322 7.3065 61.9839 7.28831L61.816 7.13859L61.9657 6.97068C62.0822 6.94957 62.2 6.93741 62.3183 6.9343C63.3244 6.97068 64.3291 7.00846 65.0371 6.99027H68.054C68.4149 7.00119 68.7747 6.94423 69.1146 6.82235C69.3007 6.74819 69.4127 6.78457 69.3763 6.99027C69.2448 7.84662 69.2643 8.70298 69.1524 9.55934C69.1342 9.65309 69.1146 9.80141 68.9663 9.78322C68.818 9.76503 68.8726 9.6335 68.8544 9.54115C68.8574 9.42285 68.8513 9.3045 68.8362 9.18713C68.706 8.42313 68.408 8.18105 67.644 8.12508C66.9737 8.0887 66.3035 8.05092 65.6332 8.05092C65.4289 8.05092 65.3352 8.10689 65.3352 8.33077V12.9302C65.3352 13.0785 65.3352 13.21 65.5395 13.1905C66.3972 13.1723 67.2718 13.1723 68.1281 13.1345C68.2676 13.1352 68.4052 13.1017 68.5286 13.0368C68.6521 12.9719 68.7577 12.8776 68.8362 12.7623L69.0405 12.6126L69.1342 12.8742C69.0782 13.4885 69.0223 14.0846 68.9845 14.6933C68.9663 15.0095 68.9481 15.3439 68.9481 15.6616C68.9481 15.7735 68.9103 15.9037 68.7984 15.9037C68.6501 15.9037 68.6683 15.7539 68.6683 15.6616C68.5563 14.4512 68.4262 14.3211 67.1976 14.2623C66.6757 14.2427 66.1733 14.2245 65.6584 14.1867C65.4541 14.1867 65.3604 14.2245 65.3604 14.4666C65.3604 15.9568 65.3422 17.4638 65.38 18.9541C65.3981 19.9224 65.8081 20.3324 66.7946 20.3883C67.185 20.4065 67.5586 20.4065 67.949 20.3883C68.8614 20.3324 69.2518 19.9588 69.4015 19.066L69.4574 18.7498C69.4938 18.6378 69.4574 18.4321 69.6435 18.4699C69.7359 18.5259 69.7177 18.712 69.7177 18.8421L69.7135 18.8505ZM77.6866 20.5744C77.4267 20.8855 77.107 21.1413 76.7465 21.3266C76.386 21.512 75.9919 21.623 75.5877 21.6533C74.602 21.7827 73.5997 21.6743 72.6646 21.337C72.2728 21.1887 72.0685 20.9467 72.1049 20.4975C72.1609 19.6411 72.1609 18.803 72.1804 17.9466V17.8361C72.235 17.7241 72.1804 17.5002 72.3847 17.5184C72.5527 17.538 72.5149 17.7241 72.5149 17.8361C72.5269 18.2287 72.5957 18.6175 72.7192 18.9905C73.0928 20.1631 74.1352 20.8333 75.3456 20.6696C76.3321 20.5395 77.0583 19.5893 77.1143 18.4168C77.1703 17.2442 76.6665 16.3878 75.792 15.698C75.0657 15.1019 74.2836 14.5785 73.6511 13.8929C72.4589 12.5888 72.1049 11.0622 72.5317 9.36763C72.9053 7.84102 74.3199 6.7426 75.9025 6.66843C76.6673 6.63635 77.4327 6.71793 78.1735 6.91051C78.4716 6.98467 78.6017 7.1148 78.5653 7.43104C78.5464 7.77827 78.5464 8.12627 78.5653 8.4735H78.5275C78.5275 8.90168 78.5457 9.32986 78.5275 9.75803C78.5275 9.86998 78.5457 10.0939 78.3415 10.0939C78.1372 10.0939 78.2113 9.88957 78.1931 9.75803C78.0994 8.91847 77.8013 8.17545 76.9828 7.82284C76.626 7.65231 76.2287 7.58476 75.8357 7.62777C75.4426 7.67079 75.0693 7.82266 74.7579 8.06631C73.8092 8.77294 73.7336 10.3555 74.6096 11.3434C75.0559 11.8458 75.6143 12.2362 76.1488 12.628C77.1549 13.3724 78.0854 14.1909 78.4772 15.4265C79.1278 17.2875 78.9977 19.038 77.6754 20.5842L77.6866 20.5744ZM86.9666 20.5646C86.7057 20.8839 86.3834 21.1474 86.0188 21.3397C85.6542 21.532 85.2546 21.6491 84.8439 21.6841C83.8594 21.8097 82.8592 21.6984 81.9264 21.3594C81.536 21.2111 81.3303 20.969 81.3667 20.5199C81.4227 19.6635 81.4227 18.8253 81.4604 17.969L81.4786 17.8193C81.5346 17.7073 81.4968 17.5212 81.6829 17.5394C81.8326 17.5576 81.8131 17.7059 81.8131 17.8375C81.8261 18.242 81.8953 18.6428 82.0187 19.0282C82.391 20.2008 83.4334 20.8725 84.6438 20.7074C85.6233 20.5772 86.3565 19.6271 86.4125 18.4545C86.4685 17.2819 85.9661 16.4242 85.0902 15.7357C84.3639 15.1397 83.5831 14.6163 82.9493 13.9293C81.7571 12.6266 81.4101 11.0999 81.8298 9.40542C82.2021 7.87881 83.6167 6.77897 85.1993 6.70481C85.9659 6.67361 86.733 6.75517 87.4759 6.94689C87.7558 7.02105 87.9041 7.15258 87.8663 7.46882C87.8474 7.81605 87.8474 8.16405 87.8663 8.51128H87.8285C87.8285 8.93946 87.8481 9.36763 87.8285 9.79581C87.8285 9.92595 87.8481 10.1316 87.6424 10.1316C87.4367 10.1316 87.5123 9.92595 87.4941 9.79581C87.4004 8.95625 87.1023 8.21323 86.2837 7.85922C85.9313 7.69124 85.539 7.62491 85.1509 7.66768C84.7628 7.71044 84.3943 7.8606 84.0869 8.10129C83.1368 8.80933 83.0626 10.3919 83.9372 11.3784C84.3849 11.8807 84.9432 12.2725 85.4834 12.6629C86.488 13.3892 87.4004 14.2091 87.8104 15.4195C88.4064 17.2386 88.2945 18.9947 86.9708 20.5577" fill="#EA2127"/>
<path d="M134.08 2.22266H94.7003C94.2344 2.22266 94.2344 2.22266 94.2344 2.68862V25.9768C94.2344 26.4413 94.2344 26.4413 94.7003 26.4413H134.098C134.564 26.4413 134.564 26.4413 134.564 25.9768V2.7264C134.583 2.22266 134.583 2.22266 134.08 2.22266ZM103.358 21.5872C102.111 21.7552 100.863 21.5872 99.6342 21.4753C99.0513 21.4389 98.4666 21.4389 97.8837 21.4753C97.5675 21.4949 97.2316 21.4949 96.9154 21.5131C96.7671 21.5131 96.6173 21.5131 96.6173 21.3088C96.6173 21.1045 96.7671 21.1031 96.8972 21.1031C97.6794 21.1213 97.7899 20.7869 97.8459 20.0606C97.9019 19.3344 97.9215 18.6264 97.9215 17.9002V8.5166C97.8837 7.64205 97.6234 7.3622 96.7671 7.30623L96.5432 7.28804L96.3571 7.10193C96.3571 6.98999 96.4494 6.93402 96.5432 6.91583L96.8594 6.89624C97.8277 6.87805 98.796 7.00818 99.8203 6.91583C101.235 6.91583 102.725 6.82208 104.178 7.06415C106.556 7.47414 108.105 8.85103 108.776 11.1598C109.577 13.8422 109.354 16.4491 107.863 18.8685C106.839 20.5266 105.238 21.3088 103.358 21.5872ZM121.716 21.4949C120.581 21.4949 119.445 21.5313 118.309 21.4389C118.197 21.4193 118.029 21.4949 117.975 21.3088C117.92 21.1227 118.086 21.1213 118.179 21.0667C118.242 21.0312 118.29 20.9724 118.311 20.9026C118.331 20.8329 118.324 20.7577 118.291 20.6931C117.9 19.3904 117.49 18.0877 117.099 16.8017C117.091 16.7705 117.077 16.7412 117.058 16.7157C117.038 16.6901 117.014 16.6688 116.986 16.6532C116.958 16.6376 116.927 16.6279 116.895 16.6248C116.863 16.6217 116.831 16.6252 116.801 16.6352H113.431C113.283 16.6352 113.189 16.6534 113.133 16.8213C112.799 17.9561 112.351 19.0602 112.128 20.209C112.016 20.7687 112.109 21.1773 112.828 21.1031C112.978 21.0849 113.164 21.0849 113.164 21.327C113.164 21.5691 112.978 21.5313 112.828 21.5313C111.709 21.4389 110.575 21.4949 109.458 21.5313C109.309 21.5313 109.123 21.5509 109.123 21.327C109.123 21.1409 109.272 21.1031 109.421 21.1031C110.109 21.1409 110.519 20.7491 110.743 20.1544C111.115 19.1483 111.45 18.124 111.804 17.1194C112.923 13.8045 114.057 10.5092 115.175 7.19428C115.249 6.9704 115.286 6.67376 115.565 6.65417C115.881 6.63598 115.919 6.9704 115.993 7.19428C117.315 11.0857 118.618 14.9589 119.94 18.8503C120.111 19.4105 120.349 19.9481 120.649 20.451C120.909 20.8806 121.245 21.1227 121.768 21.1031C121.918 21.1031 122.122 21.0849 122.104 21.3088C122.048 21.5131 121.862 21.4949 121.712 21.4949H121.716ZM131.685 7.28804C131.404 7.31921 131.135 7.41865 130.901 7.57767C130.667 7.7367 130.476 7.95048 130.344 8.20036C129.339 9.83892 128.557 11.5698 127.737 13.3021C127.421 13.9528 127.067 14.6049 127.011 15.3493C126.993 15.6473 126.975 15.9454 126.975 16.2434C126.993 17.5475 126.919 18.8503 127.031 20.1544C127.087 20.8246 127.329 21.0471 128.01 21.0849C128.153 21.0819 128.296 21.088 128.438 21.1031C128.568 21.1213 128.68 21.1773 128.68 21.327C128.669 21.3856 128.636 21.4377 128.588 21.4724C128.539 21.5071 128.479 21.5217 128.42 21.5131C128.028 21.5131 127.656 21.5313 127.266 21.4949C126.185 21.3829 125.105 21.4949 124.025 21.5131H123.745L123.559 21.327L123.726 21.1213L123.931 21.1031C124.527 21.0667 124.75 20.8806 124.788 20.2845C124.881 18.7019 124.936 17.1194 124.806 15.555C124.752 15.0634 124.6 14.5876 124.359 14.1557C123.503 12.443 122.647 10.7107 121.771 8.99795C121.595 8.64552 121.39 8.30891 121.156 7.99187C121.035 7.8115 120.879 7.65752 120.697 7.53921C120.514 7.42089 120.31 7.34069 120.096 7.30343C119.966 7.28524 119.834 7.26565 119.854 7.09913C119.873 6.93262 120.002 6.91303 120.152 6.91303C121.38 6.94941 122.591 6.94941 123.819 6.91303C123.931 6.91303 124.08 6.91303 124.099 7.06136C124.119 7.20968 123.987 7.26565 123.875 7.28524C123.559 7.3594 123.503 7.58329 123.595 7.86174L123.689 8.1416C124.564 10.0586 125.42 11.9588 126.332 13.95C127.134 11.9392 128.151 10.1524 128.791 8.17798C128.959 7.63925 128.903 7.5455 128.399 7.26565L128.269 7.04316L128.455 6.91303H128.567C129.609 6.9676 130.653 6.94941 131.696 6.91303C131.826 6.91303 131.956 6.91303 131.976 7.06136C131.957 7.22927 131.827 7.26565 131.678 7.28524" fill="#292525"/>
<path d="M59.7128 6.91674H59.4903C58.41 6.97131 57.3116 6.93493 56.2314 6.91674C56.0635 6.91674 55.8032 6.86077 55.785 7.10284C55.7668 7.34491 56.0453 7.26936 56.2132 7.28895C56.9016 7.34492 57.1619 7.53102 57.2556 8.08933C57.299 8.33525 57.3238 8.5841 57.3298 8.83375C57.3858 11.6645 57.4417 14.4938 57.4795 17.3064L57.4236 17.659L57.3298 17.5484C55.5611 15.1837 53.7547 12.8371 51.9496 10.5101C51.0177 9.31789 50.1053 8.08933 49.193 6.87896C49.1007 6.74883 48.9887 6.58091 48.8026 6.61869C48.6165 6.65647 48.6165 6.87896 48.5787 7.02728V7.17701C48.5605 9.24374 48.5423 11.3287 48.5046 13.3954C48.4668 15.6678 48.5046 17.9388 48.3548 20.2295C48.3185 20.8815 48.1324 21.048 47.4621 21.0858C47.2942 21.0858 47.0521 21.048 47.0703 21.3279C47.0885 21.6077 47.3124 21.514 47.4621 21.514C48.4416 21.4958 49.4211 21.4202 50.4006 21.514C50.6063 21.5322 50.8288 21.514 51.0526 21.514C51.201 21.514 51.3325 21.4762 51.3325 21.3097C51.3325 21.1432 51.2024 21.1222 51.0918 21.104L50.8498 21.0858C50.2718 21.048 50.048 20.8815 49.9178 20.3414C49.8585 20.11 49.8275 19.8722 49.8255 19.6334C49.7695 17.9948 49.7135 16.3563 49.6953 14.7177C49.6758 13.5073 49.6953 12.2788 49.6953 11.0684L49.8437 11.2545C52.0405 14.3833 54.4431 17.3623 56.8401 20.3596C57.1381 20.75 57.4543 21.1222 57.772 21.4958C57.9021 21.6441 58.0686 21.812 58.2925 21.7379C58.5164 21.6637 58.4982 21.402 58.5164 21.2159C58.5255 21.0981 58.5255 20.9798 58.5164 20.8619C58.5528 17.8829 58.5905 14.922 58.6465 11.9429C58.6647 10.7703 58.5905 9.59775 58.7025 8.42376C58.7948 7.51143 58.8326 7.51143 59.745 7.30434C59.8569 7.28615 59.9492 7.23018 59.9492 7.10004L59.7128 6.91674Z" fill="white"/>
<path d="M13.725 13.3402C13.4452 13.1919 13.4648 13.1177 13.6691 12.9316C14.4694 12.1676 14.9914 11.2371 15.0851 10.1191C15.1957 8.71981 14.5632 7.25197 12.7064 6.97211C11.794 6.84198 10.8635 6.95392 9.95119 6.93573H9.29073C9.06824 6.93573 8.86255 6.91754 8.63867 6.91754H7.48426C7.35413 6.91754 7.24219 6.97211 7.24219 7.12183C7.24219 7.27155 7.35413 7.28975 7.46607 7.28975C7.6099 7.29866 7.75296 7.31736 7.89425 7.34572C8.43437 7.41988 8.65826 7.68014 8.71423 8.22026C8.73242 8.46234 8.75061 8.7226 8.75061 8.96468C8.75061 11.6835 8.7702 14.4023 8.75061 17.1211C8.75061 18.0334 8.71423 18.9401 8.69464 19.858C8.67645 20.2107 8.67645 20.5843 8.45256 20.8823C8.26646 21.1426 7.96841 21.0866 7.68996 21.1048H7.65218C7.54023 21.1426 7.46607 21.1986 7.48426 21.3469L7.67177 21.533H7.988C9.04865 21.5148 10.0869 21.3651 11.135 21.5148C11.5602 21.5764 11.99 21.6012 12.4195 21.5889C13.5179 21.5148 14.4667 21.1426 15.1747 20.2862C16.795 18.3272 16.5894 14.8486 13.7222 13.3402H13.725ZM11.135 7.78789C11.8052 7.71373 12.3943 7.89983 12.7539 8.47633C13.5179 9.7063 13.6481 11.009 12.996 12.3313C12.6616 13.0016 11.5254 13.336 10.8551 13.0198C10.6872 12.9456 10.725 12.8155 10.725 12.6854V10.4171C10.725 9.6909 10.7432 8.94649 10.725 8.22026C10.725 7.92222 10.8551 7.82987 11.135 7.79209V7.78789ZM13.8524 19.6523C13.2927 20.8445 11.9536 20.8263 11.1937 20.3604C11.0889 20.2933 11.0008 20.203 10.9363 20.0965C10.8717 19.99 10.8325 19.8701 10.8215 19.7461C10.7594 19.3646 10.7345 18.978 10.7474 18.5917V14.3085C10.7474 14.0105 10.8411 13.9545 11.1196 13.9363C12.1257 13.8621 12.8323 14.3281 13.3724 15.1285C13.9503 15.9848 14.1742 16.9154 14.2288 17.8837C14.1742 18.5357 14.1182 19.1122 13.8566 19.6523" fill="white"/>
<path d="M29.5125 6.91651C28.3581 6.95289 27.1855 6.9347 26.0311 6.91651H25.9569C25.8254 6.91651 25.6952 6.93469 25.6952 7.10261C25.6952 7.27052 25.8072 7.28871 25.9373 7.28871L26.1234 7.3069C26.8692 7.40066 27.0735 7.62314 27.1477 8.34936C27.164 8.52892 27.1705 8.70922 27.1673 8.88949V14.4376C27.1673 15.0715 27.1673 15.704 27.1477 16.3182C27.1295 17.176 27.0735 18.0505 26.7195 18.8509C26.2731 19.8934 25.5091 20.5455 24.3184 20.6014C23.164 20.6574 22.3594 20.0991 21.8234 19.1112C21.4498 18.4228 21.3197 17.6587 21.2637 16.8724C21.1154 14.8056 21.2274 12.7571 21.1896 10.6904C21.1896 9.96413 21.1714 9.2561 21.2274 8.52987C21.2833 7.5056 21.3015 7.5056 22.288 7.26353H22.3258L22.4741 7.09701L22.3258 6.9291L22.0096 6.91091C20.7054 6.96548 19.4027 6.9291 18.0986 6.91091C17.9307 6.91091 17.6522 6.79897 17.6144 7.07742C17.5766 7.35588 17.8943 7.26353 18.0426 7.28312C18.8066 7.39506 19.0305 7.61754 19.0851 8.38155C19.1014 8.57326 19.1079 8.76567 19.1047 8.95805V15.3639C19.0937 16.2017 19.1668 17.0385 19.3229 17.8616C19.7147 19.7787 20.7012 21.4368 23.122 21.6971C24.7787 21.8832 26.2312 21.5291 27.3296 20.1705C28.0376 19.2945 28.2979 18.252 28.4658 17.1536C28.6141 16.1111 28.6141 15.0687 28.6141 14.0262C28.6337 12.0896 28.5596 10.1712 28.6701 8.23463C28.7079 7.5084 28.838 7.39506 29.5642 7.28592C29.6944 7.26633 29.9001 7.3041 29.9001 7.09981C29.8441 6.87593 29.658 6.89412 29.5083 6.91371" fill="white"/>
<path d="M69.5813 18.5156C69.3952 18.4779 69.433 18.6822 69.3952 18.7955L69.3392 19.1117C69.1909 20.0059 68.7991 20.3781 67.8868 20.4341C67.4964 20.4522 67.1228 20.4522 66.7324 20.4341C65.7641 20.3781 65.3331 19.9681 65.3177 19.0012C65.2981 17.511 65.3177 16.0025 65.2981 14.5137C65.2981 14.2716 65.4101 14.2339 65.5962 14.2339C66.1181 14.2521 66.6204 14.2898 67.1424 14.308C68.3527 14.3458 68.5011 14.4759 68.613 15.7073C68.613 15.8192 68.5948 15.9494 68.7431 15.9494C68.8915 15.9494 68.8929 15.8011 68.8929 15.7073C68.911 15.3911 68.911 15.0566 68.9292 14.739C68.967 14.1247 69.023 13.5286 69.079 12.9199L68.9852 12.6597L68.7809 12.808C68.7025 12.9235 68.597 13.018 68.4735 13.0831C68.35 13.1483 68.2125 13.1821 68.0729 13.1816C67.2165 13.218 66.342 13.218 65.4856 13.2362C65.2981 13.2362 65.2799 13.106 65.2799 12.9759V8.3667C65.2799 8.14421 65.3541 8.08684 65.578 8.08684C66.2482 8.08684 66.9185 8.12322 67.5887 8.161C68.3709 8.21697 68.6508 8.45905 68.7809 9.22305C68.796 9.33995 68.8021 9.45784 68.7991 9.57567C68.7991 9.66942 68.7809 9.79955 68.911 9.81775C69.0412 9.83594 69.079 9.68761 69.0971 9.59526C69.2091 8.7389 69.1713 7.88255 69.321 7.02479C69.3574 6.8205 69.2455 6.78272 69.0594 6.85828C68.7194 6.97968 68.3596 7.03617 67.9987 7.02479H64.9819C64.2752 7.04438 63.2692 7.0066 62.2631 6.96882C62.1448 6.9724 62.0269 6.98503 61.9105 7.0066L61.7607 7.17451L61.9287 7.32284C62.077 7.34243 62.2449 7.36062 62.3946 7.37881C62.9543 7.47256 63.195 7.69505 63.2342 8.25476C63.2538 8.51502 63.272 8.77529 63.272 9.03695C63.272 11.6242 63.2902 14.2143 63.2902 16.8001C63.2902 17.844 63.2538 18.8865 63.2342 19.9289C63.216 20.8412 63.104 20.9532 62.2477 21.1197L62.1357 21.1393L62 21.359L62.1497 21.5269C62.2665 21.5432 62.3845 21.5497 62.5024 21.5465C63.7687 21.4709 65.0211 21.415 66.2636 21.5269C67.1396 21.6011 68.0141 21.5829 68.8901 21.601C69.2427 21.601 69.4106 21.4527 69.4666 21.1169C69.5999 20.3733 69.6683 19.6195 69.6709 18.8641C69.7086 18.7157 69.7268 18.5296 69.5785 18.5115" fill="white"/>
<path d="M85.4628 12.6522C84.9241 12.2618 84.3644 11.87 83.9236 11.3676C83.0491 10.3811 83.105 8.79857 84.0719 8.09053C84.3828 7.84902 84.7546 7.69852 85.1459 7.65578C85.5372 7.61304 85.9327 7.67974 86.2884 7.84846C87.107 8.20247 87.4078 8.94689 87.4988 9.78505C87.5169 9.91519 87.4428 10.1195 87.6471 10.1195C87.8514 10.1195 87.815 9.91519 87.8332 9.78505C87.8528 9.35688 87.8332 8.9287 87.8332 8.50052H87.871C87.871 8.1465 87.8528 7.81068 87.871 7.45666C87.9087 7.14042 87.7772 7.01029 87.4806 6.93613C86.7391 6.74422 85.9734 6.66265 85.2081 6.69405C83.6074 6.76821 82.2109 7.86665 81.8387 9.39326C81.4105 11.0878 81.7631 12.6116 82.9581 13.9185C83.592 14.607 84.3728 15.1471 85.099 15.725C85.9749 16.4246 86.4773 17.288 86.4213 18.4424C86.3653 19.5968 85.6391 20.5651 84.6526 20.6952C84.085 20.7888 83.5027 20.6691 83.0181 20.3591C82.5334 20.0491 82.1806 19.5707 82.0276 19.0161C81.9041 18.6301 81.8349 18.2289 81.8219 17.8239C81.8219 17.712 81.8415 17.544 81.6918 17.5259C81.5057 17.5077 81.5238 17.6938 81.4875 17.8057L81.4693 17.954C81.4497 18.8104 81.4315 19.6486 81.3755 20.5049C81.3377 20.9527 81.5434 21.1948 81.9352 21.3445C82.8853 21.6985 83.8718 21.7545 84.8583 21.6607C85.2715 21.6242 85.6734 21.5065 86.041 21.3144C86.4086 21.1223 86.7347 20.8596 87.0006 20.5413C88.3033 18.9769 88.4335 17.2264 87.801 15.3836C87.3728 14.1914 86.4605 13.3728 85.4726 12.6466" fill="white"/>
<path d="M76.1717 12.6522C75.633 12.2618 75.0733 11.87 74.6325 11.3676C73.758 10.3811 73.8321 8.79857 74.7808 8.09053C75.0917 7.84902 75.4635 7.69852 75.8548 7.65578C76.2461 7.61304 76.6416 7.67974 76.9973 7.84846C77.8159 8.20247 78.1167 8.94689 78.2077 9.78505C78.2259 9.91519 78.1517 10.1195 78.356 10.1195C78.5603 10.1195 78.5239 9.897 78.5421 9.78505C78.5617 9.35688 78.5421 8.9287 78.5421 8.50052H78.5799C78.5799 8.1465 78.5617 7.81068 78.5799 7.45666C78.6177 7.14042 78.4875 7.01029 78.1895 6.93613C77.448 6.74422 76.6823 6.66265 75.9171 6.69405C74.3163 6.76821 72.9198 7.84846 72.5476 9.39326C72.1194 11.0878 72.4916 12.6116 73.667 13.9185C74.3009 14.607 75.0817 15.1289 75.8079 15.725C76.6839 16.4246 77.1862 17.288 77.1302 18.4424C77.0743 19.5968 76.348 20.5651 75.3615 20.6952C74.7939 20.7888 74.2116 20.6691 73.727 20.3591C73.2423 20.0491 72.8895 19.5707 72.7365 19.0161C72.6191 18.6417 72.5472 18.2546 72.5224 17.8631C72.5224 17.7329 72.5602 17.565 72.3923 17.5468C72.188 17.5272 72.2244 17.7511 72.188 17.8631V17.975C72.1698 18.8314 72.1502 19.6695 72.1138 20.5259C72.076 20.9723 72.2803 21.2143 72.6735 21.3655C73.6222 21.7195 74.6101 21.7755 75.5966 21.6831C76.4098 21.6087 77.1624 21.2214 77.6955 20.6029C79.0164 19.0567 79.148 17.3076 78.5351 15.4633C78.1069 14.2166 77.1946 13.3966 76.1703 12.6522" fill="white"/>
<path d="M35.8237 12.651C35.2836 12.2606 34.7253 11.8688 34.2845 11.3664C33.4086 10.38 33.4827 8.79737 34.4328 8.08934C34.7437 7.84783 35.1155 7.69733 35.5068 7.65459C35.8981 7.61185 36.2936 7.67855 36.6493 7.84726C37.4679 8.20128 37.7687 8.94569 37.8597 9.78386C37.8779 9.91399 37.8037 10.1183 38.008 10.1183C38.2123 10.1183 38.1759 9.8958 38.1941 9.78386C38.2123 9.35568 38.1941 8.9275 38.1941 8.49933H38.2319C38.2319 8.14531 38.2123 7.7731 38.2319 7.41908C38.2426 7.36755 38.2428 7.31439 38.2325 7.26277C38.2222 7.21115 38.2017 7.16214 38.172 7.11865C38.1424 7.07516 38.1043 7.03809 38.06 7.00965C38.0157 6.98121 37.9661 6.96199 37.9142 6.95313C37.1525 6.73635 36.3598 6.64838 35.5691 6.69286C34.8096 6.72055 34.0784 6.98756 33.4797 7.45574C32.8811 7.92392 32.4458 8.56931 32.236 9.29971C31.7518 11.0306 32.124 12.5768 33.3344 13.9173C33.9669 14.624 34.7491 15.1277 35.4753 15.7238C36.3513 16.4234 36.8536 17.2868 36.7794 18.4412C36.7053 19.5956 35.9972 20.5639 35.0107 20.694C34.4429 20.7877 33.8605 20.668 33.3756 20.358C32.8907 20.048 32.5376 19.5696 32.3843 19.0149C32.2701 18.6397 32.2015 18.2521 32.18 17.8605C32.18 17.7304 32.2178 17.5624 32.0317 17.5442C31.8456 17.5261 31.882 17.7485 31.826 17.8605V17.9724C31.8078 18.812 31.77 19.6516 31.7518 20.4911C31.7336 21.069 31.7896 21.1614 32.3479 21.3657C33.2784 21.7393 34.2467 21.7757 35.2332 21.6637C36.0466 21.5908 36.7995 21.2038 37.3321 20.5849C38.6545 19.0387 38.7846 17.2882 38.1717 15.4271C37.7617 14.2168 36.8494 13.3786 35.8251 12.6524" fill="white"/>
<path d="M45.1336 21.08H44.8173C44.1848 21.0422 43.9428 20.8001 43.905 20.1677C43.8686 19.7213 43.849 19.2553 43.849 18.8076V9.39184C43.849 9.00144 43.8686 8.62923 43.905 8.23743C43.961 7.51121 44.0729 7.39787 44.7991 7.28873C44.9293 7.26914 45.1336 7.30691 45.1154 7.10262C45.0972 6.89832 44.9111 6.91652 44.7613 6.91652H40.8518C40.702 6.91652 40.4978 6.89693 40.4796 7.10262C40.4614 7.30831 40.6839 7.28873 40.8336 7.30692C41.522 7.40067 41.7081 7.60496 41.7641 8.2934C41.7823 8.51729 41.8019 8.74117 41.8019 8.98325C41.8019 10.7883 41.8201 12.5948 41.8201 14.4012C41.8201 16.2077 41.8383 18.0506 41.7641 19.8584C41.7459 20.211 41.7459 20.5581 41.5402 20.8631C41.3345 21.1681 41.0379 21.087 40.758 21.1052C40.6279 21.1234 40.5159 21.1793 40.5355 21.3291C40.5551 21.4788 40.6657 21.5152 40.7958 21.5152C41.0001 21.5152 41.2058 21.5334 41.4101 21.5152C42.377 21.441 43.3481 21.441 44.315 21.5152C44.5948 21.5334 44.8915 21.5152 45.1713 21.5152C45.3393 21.5152 45.5072 21.5334 45.5072 21.3109C45.5072 21.0884 45.3015 21.087 45.1336 21.087" fill="white"/>
<path d="M108.775 11.1599C108.105 8.87068 106.56 7.4742 104.177 7.06421C102.705 6.82214 101.239 6.91589 99.8197 6.91589C98.7954 7.00824 97.8271 6.87811 96.8588 6.8963L96.5425 6.91589C96.4488 6.93408 96.3564 6.97046 96.3564 7.0824L96.5425 7.26851L96.7664 7.2881C97.641 7.36226 97.9012 7.64211 97.9208 8.49847V17.882C97.9208 18.6082 97.9012 19.3163 97.8453 20.0425C97.7893 20.7687 97.6788 21.1031 96.8966 21.085C96.7664 21.085 96.6167 21.1213 96.6167 21.2893C96.6167 21.4949 96.7664 21.5131 96.9148 21.4949C97.231 21.4949 97.5668 21.4754 97.8831 21.4572C98.4659 21.4194 99.0507 21.4194 99.6335 21.4572C100.88 21.5509 102.11 21.737 103.357 21.5691C105.238 21.3088 106.838 20.5267 107.863 18.8503C109.353 16.4492 109.557 13.8423 108.775 11.1543V11.1599ZM106.396 18.1003C105.782 19.7011 104.497 20.5015 102.803 20.619C102.229 20.679 101.649 20.6349 101.09 20.4889C100.364 20.265 100.122 19.9292 100.066 19.1666C99.954 17.3979 100.01 15.6292 100.01 14.6609V8.62581C100.01 8.06609 100.102 7.95555 100.662 7.89958C103.473 7.65751 105.8 9.03579 106.564 11.7168C107.178 13.8759 107.197 16.0168 106.396 18.1031" fill="#FCFDFF"/>
<path d="M121.716 21.0806C121.213 21.0988 120.859 20.8567 120.596 20.4285C120.304 19.9218 120.066 19.3851 119.888 18.8278C118.567 14.9364 117.263 11.0632 115.941 7.1718C115.867 6.94792 115.83 6.61209 115.513 6.63168C115.233 6.64987 115.196 6.94792 115.122 7.1718C114.003 10.4853 112.869 13.782 111.751 17.0955C111.399 18.1197 111.063 19.1258 110.691 20.1305C110.467 20.7266 110.076 21.11 109.368 21.0806C109.22 21.0624 109.07 21.0988 109.07 21.3045C109.07 21.5102 109.256 21.5088 109.406 21.5088C110.526 21.471 111.659 21.415 112.776 21.5088C112.925 21.527 113.111 21.5466 113.111 21.3045C113.111 21.0624 112.925 21.0806 112.776 21.0806C112.049 21.1366 111.957 20.7448 112.076 20.1865C112.318 19.0321 112.764 17.9336 113.081 16.7974C113.137 16.6309 113.23 16.6113 113.379 16.6113H116.75C116.898 16.6113 117.01 16.6309 117.046 16.7792C117.438 18.0834 117.848 19.3861 118.238 20.6706C118.265 20.7361 118.269 20.8088 118.248 20.8765C118.228 20.9442 118.185 21.0029 118.126 21.0428C118.034 21.0988 117.884 21.1366 117.922 21.2849C117.959 21.471 118.126 21.415 118.257 21.415C119.393 21.5088 120.529 21.471 121.664 21.471C121.814 21.471 122 21.4906 122.018 21.2667C122.074 21.0624 121.888 21.0806 121.72 21.0806H121.716ZM116.134 15.5325H113.769C113.659 15.5325 113.489 15.5871 113.565 15.345C114.087 13.726 114.589 12.1266 115.129 10.3929C115.613 11.9937 116.079 13.5021 116.544 15.0105C116.694 15.5325 116.694 15.5325 116.134 15.5325Z" fill="#FCFDFF"/>
<path d="M131.66 6.91691C130.618 6.95329 129.575 6.97148 128.533 6.91691H128.421L128.235 7.04704L128.365 7.26952C128.867 7.54938 128.941 7.64313 128.755 8.18186C128.123 10.1562 127.098 11.9431 126.298 13.9539C125.386 11.9627 124.51 10.0443 123.653 8.14547L123.561 7.86562C123.467 7.58576 123.523 7.38147 123.841 7.28912C123.953 7.25134 124.083 7.21355 124.065 7.06523C124.047 6.91691 123.916 6.89732 123.785 6.91691C122.556 6.95329 121.346 6.95329 120.117 6.91691C119.987 6.91691 119.838 6.91691 119.819 7.10301C119.819 7.25133 119.949 7.26953 120.061 7.30731C120.275 7.34554 120.48 7.42613 120.662 7.54435C120.844 7.66257 121.001 7.81604 121.123 7.99575C121.363 8.30876 121.569 8.64595 121.738 9.00183C122.594 10.7145 123.469 12.4273 124.325 14.1596C124.558 14.5951 124.709 15.0692 124.773 15.5588C124.887 17.1335 124.881 18.7147 124.753 20.2884C124.717 20.9027 124.493 21.0706 123.897 21.107L123.693 21.1252L123.525 21.3308L123.709 21.5142H123.989C125.069 21.496 126.148 21.4022 127.229 21.496C127.601 21.5323 127.993 21.5142 128.383 21.5142C128.442 21.5228 128.502 21.5082 128.55 21.4735C128.599 21.4388 128.632 21.3867 128.643 21.3281C128.663 21.1783 128.533 21.1224 128.401 21.1042C128.259 21.089 128.116 21.0829 127.973 21.086C127.284 21.0482 127.061 20.8439 126.986 20.1555C126.874 18.8513 126.95 17.5486 126.93 16.2445C126.93 15.9464 126.95 15.6484 126.968 15.3503C127.042 14.6059 127.396 13.9511 127.694 13.3032C128.513 11.5709 129.295 9.84 130.301 8.20144C130.441 7.95783 130.634 7.74913 130.867 7.59109C131.099 7.43305 131.364 7.3298 131.642 7.28912C131.79 7.26953 131.922 7.23314 131.902 7.06523C131.94 6.89732 131.79 6.89732 131.66 6.91691Z" fill="#FCFDFF"/>
<path d="M11.0989 13.955C10.819 13.9746 10.7267 14.0305 10.7267 14.3286C10.7449 15.7614 10.7267 17.1761 10.7267 18.6104C10.7144 18.9966 10.7392 19.3832 10.8009 19.7648C10.8568 20.025 10.9492 20.2489 11.1731 20.379C11.9371 20.845 13.272 20.8632 13.8317 19.6724C14.092 19.1323 14.1675 18.553 14.1857 17.9219C14.1649 16.9408 13.8681 15.9855 13.3293 15.1653C12.8074 14.3468 12.1008 13.8808 11.0905 13.955" fill="#EA2127"/>
<path d="M10.7436 10.4368V12.7079C10.7436 12.838 10.7072 12.9681 10.8737 13.0423C11.544 13.3599 12.6802 13.0241 13.016 12.3539C13.6485 11.0315 13.5366 9.72882 12.7739 8.50025C12.4199 7.92235 11.8238 7.73625 11.1536 7.81041C10.8555 7.84819 10.7436 7.94054 10.7436 8.25818C10.7618 8.96481 10.7436 9.71063 10.7436 10.4368Z" fill="#EA2127"/>
<path d="M100.658 7.92687C100.098 7.98284 100.006 8.09478 100.006 8.65309V14.6854C100.024 15.6355 99.9496 17.4224 100.061 19.1924C100.098 19.955 100.36 20.2909 101.086 20.5134C101.645 20.6995 102.221 20.6813 102.798 20.6449C104.493 20.5329 105.778 19.7326 106.392 18.1262C107.192 16.0413 107.174 13.8808 106.56 11.7581C105.797 9.05748 103.469 7.6792 100.658 7.92687Z" fill="#292525"/>
<path d="M115.126 10.3965C114.586 12.1092 114.083 13.7296 113.561 15.3485C113.487 15.6102 113.655 15.536 113.766 15.536H116.13C116.69 15.536 116.69 15.536 116.522 15.0141C116.076 13.5057 115.61 11.9973 115.123 10.3965" fill="#292525"/>
</svg>
