<svg width="333" height="289" viewBox="0 0 333 289" fill="none" xmlns="http://www.w3.org/2000/svg">
<path opacity="0.7" d="M44.5541 222.823C44.5541 222.823 76.8741 263.783 132.154 265.463C187.434 267.143 236.794 232.663 277.594 205.863C318.394 178.983 331.754 134.103 311.354 97.0634C291.034 60.0234 254.074 72.6634 209.674 46.6634C165.274 20.5834 157.434 6.90342 105.994 9.22342C54.5541 11.5434 11.9941 66.5034 13.9141 128.023C15.7541 189.623 44.5541 222.823 44.5541 222.823Z" fill="white"/>
<path d="M54.5245 20.2631C54.4445 20.2631 55.0845 17.3031 55.1645 17.0631C55.8845 14.9031 58.4445 11.2231 60.9245 11.2231C62.7645 11.2231 63.9645 12.9031 63.8045 14.5831C63.6445 16.3431 62.0445 17.8631 60.6045 18.7431C58.9245 19.7831 54.5245 20.2631 54.5245 20.2631Z" fill="#000000"/>
<path d="M49.7557 0.183122C52.1557 1.06312 53.2757 5.38313 53.1957 7.62313C53.1957 7.78313 52.7157 10.8231 52.7157 10.8231C52.7157 10.8231 52.7157 10.8231 52.6357 10.8231C52.7957 11.5431 53.0357 12.2631 53.1957 13.0631C53.5157 14.5831 53.9157 16.2631 54.2357 18.1831C54.5557 20.0231 54.7957 22.1031 54.8757 24.2631C54.9557 26.4231 54.9557 28.7431 54.6357 31.1431V31.2231C54.9557 30.5831 55.8357 28.7431 55.9957 28.5831C57.1957 26.7431 60.7157 23.7831 63.1157 24.5031C64.8757 24.9831 65.5957 26.9031 64.9557 28.5031C64.3157 30.1831 62.3957 31.2231 60.7957 31.6231C58.9557 32.1031 54.9557 31.5431 54.6357 31.4631C54.3157 33.7031 53.7557 36.0231 53.1157 38.3431C52.7157 39.6231 52.3157 40.9832 51.9157 42.2632C52.2357 41.7032 52.4757 41.2231 52.4757 41.1432C53.6757 39.3031 57.1957 36.3431 59.5957 37.0631C61.3557 37.5431 62.0757 39.4632 61.4357 41.0632C60.7957 42.7432 58.8757 43.7832 57.2757 44.1832C55.6757 44.6632 52.1557 44.1832 51.2757 44.1032C51.1157 44.5832 50.9557 45.1432 50.7957 45.6232C49.9957 48.0232 49.1157 50.4232 48.3957 52.7432C48.1557 53.5432 47.9157 54.4232 47.6757 55.2232C47.9157 54.7432 48.1557 54.2632 48.1557 54.2632C49.3557 52.4232 52.8757 49.4632 55.2757 50.1832C57.0357 50.6632 57.7557 52.5832 57.1157 54.1832C56.4757 55.8632 54.5557 56.9032 52.9557 57.3032C51.4357 57.7832 48.2357 57.3832 47.1157 57.2232C46.8757 58.1032 46.7157 58.9032 46.5557 59.7832C46.4757 60.3432 46.3157 60.9032 46.2357 61.4632C46.1557 62.0232 46.0757 62.5832 45.9957 63.1432C45.9157 64.2632 45.7557 65.3832 45.6757 66.4232C45.5957 67.1432 45.5957 67.8632 45.5157 68.5832C45.7557 67.7832 46.3157 66.1032 46.3957 66.0232C47.0357 64.6632 48.5557 62.7432 50.2357 61.6232C50.3157 61.3832 50.3957 61.2232 50.5557 61.0632C51.5157 59.6232 53.5157 59.2232 54.9557 60.3432C56.8757 61.9432 56.3957 66.5032 55.5157 68.5832C55.4357 68.7432 54.7957 69.9432 54.3157 70.7432C54.6357 70.3432 54.9557 69.9432 55.3557 69.4632C56.0757 68.5832 56.7957 67.7832 57.5157 66.9032C57.9157 66.5032 58.3157 66.0232 58.7157 65.6232C59.1157 65.2232 59.5957 64.7432 59.9957 64.3432C61.0357 63.3832 62.0757 62.4232 63.1957 61.5432C62.4757 60.9032 59.8357 58.7432 59.1157 57.2232C58.3957 55.7032 57.8357 53.6232 58.6357 52.0232C59.4357 50.5032 61.3557 49.7032 62.8757 50.6632C65.0357 52.0232 65.1957 56.5032 64.6357 58.6632C64.6357 58.8232 63.9957 60.3432 63.6757 61.1432C64.3157 60.5832 64.9557 60.0232 65.6757 59.5432C67.6757 58.0232 69.6757 56.5032 71.7557 55.0632C72.3957 54.5832 73.0357 54.1032 73.5957 53.7032C73.3557 53.4632 70.1557 50.9032 69.3557 49.2232C68.6357 47.7032 68.0757 45.6232 68.8757 44.0232C69.6757 42.5032 71.5957 41.7032 73.1157 42.6632C75.2757 44.0232 75.4357 48.5032 74.8757 50.6632C74.7957 50.8232 73.9957 52.9832 73.7557 53.5432C75.1157 52.5032 76.4757 51.4632 77.7557 50.4232C79.5157 48.9832 81.1957 47.3832 82.7157 45.7832C82.5557 45.7032 79.2757 43.0632 78.3957 41.3032C77.6757 39.7832 77.1157 37.7032 77.9157 36.1031C78.7157 34.5831 80.6357 33.7831 82.1557 34.7431C84.3158 36.1031 84.4757 40.5831 83.9157 42.7432C83.9157 42.9032 83.2757 44.5832 82.9557 45.3032C83.0357 45.3832 83.0357 45.3032 83.1157 45.3832C84.7157 43.6232 86.0758 41.7831 87.1958 39.9431C87.8358 38.9031 88.4758 37.8632 88.9558 36.8232C88.3158 36.4231 85.2757 34.4231 84.3157 32.9031C83.4357 31.4631 82.6358 29.4631 83.2758 27.7831C83.8358 26.1831 85.6758 25.2231 87.2758 26.0231C89.5158 27.1431 90.2358 31.5431 89.9158 33.7831C89.9158 33.9431 89.5958 35.1432 89.3558 36.0232C89.5958 35.5432 89.8358 35.0631 90.0758 34.5831C90.8758 32.9031 91.5158 31.2231 92.1558 29.8631C92.4758 29.0631 92.7158 28.2631 92.9558 27.6231C92.5558 26.8231 90.7958 23.7831 90.6358 22.0231C90.4758 20.3431 90.7158 18.1831 92.0758 16.9831C93.3558 15.7831 95.4358 15.7831 96.4758 17.2231C97.9958 19.2231 96.5558 23.5431 95.2758 25.3831C95.1958 25.5431 93.1158 27.7831 93.1158 27.7831C93.1158 27.7831 93.1158 27.7831 93.1158 27.7031C92.8758 28.3431 92.6358 29.1431 92.3958 29.8631C91.8358 31.3031 91.2758 32.9831 90.4758 34.6631C89.6758 36.4231 88.7958 38.2631 87.6758 40.1032C86.5558 42.0232 85.2758 43.9432 83.6758 45.7032C83.6758 45.7032 83.6758 45.7032 83.5958 45.7832C84.2358 45.3832 85.9958 44.3432 86.1558 44.3432C88.2358 43.4632 92.7158 42.9832 94.3958 44.8232C95.5958 46.1832 95.1158 48.1832 93.7558 49.2232C92.3158 50.2632 90.1558 50.0232 88.5558 49.5432C86.7958 48.9832 83.7557 46.2632 83.5157 46.0232C81.9957 47.7032 80.3158 49.3832 78.4757 50.9032C77.4357 51.7832 76.3957 52.6632 75.2757 53.5432C75.8357 53.2232 76.3157 52.9832 76.3957 52.9032C78.4757 52.0232 82.9558 51.5432 84.6358 53.3832C85.8358 54.7432 85.3558 56.7432 83.9958 57.7832C82.5558 58.8232 80.3957 58.5832 78.7957 58.1032C77.1957 57.6232 74.5557 55.3032 73.8357 54.6632C73.4357 54.9832 73.0357 55.3032 72.5557 55.6232C70.5557 57.1432 68.5557 58.6632 66.6357 60.2632C65.9157 60.8232 65.2757 61.3832 64.6357 61.9432C65.1157 61.7032 65.5157 61.4632 65.5957 61.3832C67.6757 60.5032 72.1557 60.0232 73.8357 61.8632C75.0357 63.2232 74.5557 65.2232 73.1957 66.2632C71.7557 67.3032 69.5957 67.0632 67.9957 66.5832C66.4757 66.1032 63.9957 64.0232 63.1957 63.3032C62.5557 63.8632 61.9157 64.5032 61.2757 65.1432C60.8757 65.5432 60.4757 65.9432 60.0757 66.4232C59.6757 66.8232 59.2757 67.3032 58.9557 67.7032C58.2357 68.5832 57.5157 69.4632 56.8757 70.2632C56.3957 70.8232 55.9957 71.3832 55.5157 72.0232C56.1557 71.4632 57.5157 70.4232 57.6757 70.3432C59.5957 69.1432 63.9157 68.0232 65.8357 69.6232C67.1957 70.8232 67.1157 72.8232 65.8357 74.0232C64.5557 75.2232 62.3957 75.3832 60.7157 75.1432C58.8757 74.8232 55.5957 72.7432 55.1957 72.4232C54.4757 73.3832 53.7557 74.2632 53.1157 75.1432C50.8757 78.1832 49.1957 80.8232 47.9957 82.7432C47.9157 82.8232 47.9157 82.9032 47.9157 82.9032L46.3957 82.1832C46.4757 82.1032 46.5557 81.9432 46.6357 81.7832C47.8357 79.9432 49.6757 77.3032 51.9957 74.2632C52.7157 73.3032 53.5157 72.2632 54.3157 71.2232C54.0757 70.9832 52.8757 69.6232 51.9157 68.2632C50.1557 68.9832 46.4757 68.9832 45.9957 68.9832C45.9157 70.1832 45.8357 71.3032 45.8357 72.4232C45.6757 76.1832 45.6757 79.3832 45.7557 81.5432C45.7557 81.6232 45.7557 81.7032 45.7557 81.7832L44.0757 80.9832C44.0757 78.8232 44.1557 75.8632 44.3957 72.3432C44.4757 71.1432 44.5557 69.8632 44.7157 68.5032C44.2357 68.4232 40.3957 67.3832 38.9557 66.2632C37.6757 65.2232 36.2357 63.5432 36.3157 61.7832C36.3957 60.0232 37.7557 58.5832 39.5957 58.8232C42.0757 59.1432 44.1557 63.1432 44.5557 65.3832C44.5557 65.5432 44.7157 66.9832 44.7157 67.8632C44.7957 67.3032 44.7957 66.8232 44.8757 66.2632C44.9557 65.1432 45.1157 64.1032 45.2757 62.9032C45.3557 62.3432 45.4357 61.7832 45.5157 61.2232C45.5957 60.6632 45.7557 60.0232 45.8357 59.4632C46.1557 58.1032 46.4757 56.7432 46.8757 55.3832C45.9157 55.3032 42.4757 54.9032 41.0357 54.0232C39.5957 53.2232 37.9957 51.7032 37.7557 49.9432C37.5157 48.1832 38.7157 46.5832 40.5557 46.5032C43.0357 46.4232 45.7557 50.1032 46.4757 52.1832C46.5557 52.3432 46.8757 53.8632 47.0357 54.7432C47.2757 53.9432 47.5157 53.0632 47.8357 52.2632C48.6357 49.8632 49.5157 47.5432 50.3957 45.1432C50.6357 44.4232 50.9557 43.7032 51.1957 42.9832C50.8757 42.9832 46.7957 42.5832 45.1957 41.6232C43.7557 40.8232 42.1557 39.3031 41.9157 37.5431C41.6757 35.7831 42.8757 34.1831 44.7157 34.1031C47.1957 34.0231 49.9157 37.7031 50.6357 39.7831C50.7157 39.9431 51.1957 42.1832 51.2757 42.8232C51.8357 41.2232 52.3957 39.6232 52.8757 38.0232C53.5157 35.7831 54.0757 33.6231 54.4757 31.4631C54.3157 31.4631 50.0757 31.0631 48.3957 30.1031C46.9557 29.3031 45.3557 27.7831 45.1157 26.0231C44.8757 24.2631 46.0757 22.6631 47.9157 22.5831C50.3957 22.5031 53.1157 26.1831 53.8357 28.2631C53.9157 28.4231 54.3157 30.1031 54.4757 30.9831C54.5557 30.9831 54.5557 30.9831 54.6357 30.9831C55.0357 28.6631 55.0357 26.3431 55.0357 24.1831C55.0357 22.9031 54.8757 21.7031 54.7957 20.5831C53.9957 20.5831 50.3957 20.5831 48.7957 19.8631C47.2757 19.2231 45.5157 17.9431 45.1157 16.1831C44.7157 14.5031 45.6757 12.7431 47.5157 12.4231C49.9957 12.1031 53.0357 15.4631 53.9957 17.4631C54.0757 17.5431 54.4757 18.7431 54.7157 19.6231C54.6357 19.0631 54.6357 18.5831 54.5557 18.0231C54.3157 16.1831 53.9157 14.4231 53.5957 12.9031C53.4357 12.0231 53.1957 11.3031 53.0357 10.5831C52.2357 10.1831 49.1157 8.50313 47.9957 7.22313C46.9557 5.94313 45.9957 3.94312 46.3957 2.26312C46.3157 0.663121 47.9957 -0.456879 49.7557 0.183122Z" fill="#000000"/>
<path d="M95.0472 38.8222C93.0472 38.7422 89.1272 36.7421 89.1272 36.7421C89.0472 36.7421 91.2072 34.5821 91.3672 34.4221C93.1272 33.0621 97.2872 31.3821 99.4472 32.7421C100.967 33.7021 101.047 35.7821 99.9272 37.1421C98.8872 38.5022 96.7272 38.9022 95.0472 38.8222Z" fill="#000000"/>
<g opacity="0.5">
<path opacity="0.5" d="M54.5245 20.2631C54.4445 20.2631 55.0845 17.3031 55.1645 17.0631C55.8845 14.9031 58.4445 11.2231 60.9245 11.2231C62.7645 11.2231 63.9645 12.9031 63.8045 14.5831C63.6445 16.3431 62.0445 17.8631 60.6045 18.7431C58.9245 19.7831 54.5245 20.2631 54.5245 20.2631Z" fill="white"/>
<path opacity="0.5" d="M49.7557 0.183122C52.1557 1.06312 53.2757 5.38313 53.1957 7.62313C53.1957 7.78313 52.7157 10.8231 52.7157 10.8231C52.7157 10.8231 52.7157 10.8231 52.6357 10.8231C52.7957 11.5431 53.0357 12.2631 53.1957 13.0631C53.5157 14.5831 53.9157 16.2631 54.2357 18.1831C54.5557 20.0231 54.7957 22.1031 54.8757 24.2631C54.9557 26.4231 54.9557 28.7431 54.6357 31.1431V31.2231C54.9557 30.5831 55.8357 28.7431 55.9957 28.5831C57.1957 26.7431 60.7157 23.7831 63.1157 24.5031C64.8757 24.9831 65.5957 26.9031 64.9557 28.5031C64.3157 30.1831 62.3957 31.2231 60.7957 31.6231C58.9557 32.1031 54.9557 31.5431 54.6357 31.4631C54.3157 33.7031 53.7557 36.0231 53.1157 38.3431C52.7157 39.6231 52.3157 40.9832 51.9157 42.2632C52.2357 41.7032 52.4757 41.2231 52.4757 41.1432C53.6757 39.3031 57.1957 36.3431 59.5957 37.0631C61.3557 37.5431 62.0757 39.4632 61.4357 41.0632C60.7957 42.7432 58.8757 43.7832 57.2757 44.1832C55.6757 44.6632 52.1557 44.1832 51.2757 44.1032C51.1157 44.5832 50.9557 45.1432 50.7957 45.6232C49.9957 48.0232 49.1157 50.4232 48.3957 52.7432C48.1557 53.5432 47.9157 54.4232 47.6757 55.2232C47.9157 54.7432 48.1557 54.2632 48.1557 54.2632C49.3557 52.4232 52.8757 49.4632 55.2757 50.1832C57.0357 50.6632 57.7557 52.5832 57.1157 54.1832C56.4757 55.8632 54.5557 56.9032 52.9557 57.3032C51.4357 57.7832 48.2357 57.3832 47.1157 57.2232C46.8757 58.1032 46.7157 58.9032 46.5557 59.7832C46.4757 60.3432 46.3157 60.9032 46.2357 61.4632C46.1557 62.0232 46.0757 62.5832 45.9957 63.1432C45.9157 64.2632 45.7557 65.3832 45.6757 66.4232C45.5957 67.1432 45.5957 67.8632 45.5157 68.5832C45.7557 67.7832 46.3157 66.1032 46.3957 66.0232C47.0357 64.6632 48.5557 62.7432 50.2357 61.6232C50.3157 61.3832 50.3957 61.2232 50.5557 61.0632C51.5157 59.6232 53.5157 59.2232 54.9557 60.3432C56.8757 61.9432 56.3957 66.5032 55.5157 68.5832C55.4357 68.7432 54.7957 69.9432 54.3157 70.7432C54.6357 70.3432 54.9557 69.9432 55.3557 69.4632C56.0757 68.5832 56.7957 67.7832 57.5157 66.9032C57.9157 66.5032 58.3157 66.0232 58.7157 65.6232C59.1157 65.2232 59.5957 64.7432 59.9957 64.3432C61.0357 63.3832 62.0757 62.4232 63.1957 61.5432C62.4757 60.9032 59.8357 58.7432 59.1157 57.2232C58.3957 55.7032 57.8357 53.6232 58.6357 52.0232C59.4357 50.5032 61.3557 49.7032 62.8757 50.6632C65.0357 52.0232 65.1957 56.5032 64.6357 58.6632C64.6357 58.8232 63.9957 60.3432 63.6757 61.1432C64.3157 60.5832 64.9557 60.0232 65.6757 59.5432C67.6757 58.0232 69.6757 56.5032 71.7557 55.0632C72.3957 54.5832 73.0357 54.1032 73.5957 53.7032C73.3557 53.4632 70.1557 50.9032 69.3557 49.2232C68.6357 47.7032 68.0757 45.6232 68.8757 44.0232C69.6757 42.5032 71.5957 41.7032 73.1157 42.6632C75.2757 44.0232 75.4357 48.5032 74.8757 50.6632C74.7957 50.8232 73.9957 52.9832 73.7557 53.5432C75.1157 52.5032 76.4757 51.4632 77.7557 50.4232C79.5157 48.9832 81.1957 47.3832 82.7157 45.7832C82.5557 45.7032 79.2757 43.0632 78.3957 41.3032C77.6757 39.7832 77.1157 37.7032 77.9157 36.1031C78.7157 34.5831 80.6357 33.7831 82.1557 34.7431C84.3158 36.1031 84.4757 40.5831 83.9157 42.7432C83.9157 42.9032 83.2757 44.5832 82.9557 45.3032C83.0357 45.3832 83.0357 45.3032 83.1157 45.3832C84.7157 43.6232 86.0758 41.7831 87.1958 39.9431C87.8358 38.9031 88.4758 37.8632 88.9558 36.8232C88.3158 36.4231 85.2757 34.4231 84.3157 32.9031C83.4357 31.4631 82.6358 29.4631 83.2758 27.7831C83.8358 26.1831 85.6758 25.2231 87.2758 26.0231C89.5158 27.1431 90.2358 31.5431 89.9158 33.7831C89.9158 33.9431 89.5958 35.1432 89.3558 36.0232C89.5958 35.5432 89.8358 35.0631 90.0758 34.5831C90.8758 32.9031 91.5158 31.2231 92.1558 29.8631C92.4758 29.0631 92.7158 28.2631 92.9558 27.6231C92.5558 26.8231 90.7958 23.7831 90.6358 22.0231C90.4758 20.3431 90.7158 18.1831 92.0758 16.9831C93.3558 15.7831 95.4358 15.7831 96.4758 17.2231C97.9958 19.2231 96.5558 23.5431 95.2758 25.3831C95.1958 25.5431 93.1158 27.7831 93.1158 27.7831C93.1158 27.7831 93.1158 27.7831 93.1158 27.7031C92.8758 28.3431 92.6358 29.1431 92.3958 29.8631C91.8358 31.3031 91.2758 32.9831 90.4758 34.6631C89.6758 36.4231 88.7958 38.2631 87.6758 40.1032C86.5558 42.0232 85.2758 43.9432 83.6758 45.7032C83.6758 45.7032 83.6758 45.7032 83.5958 45.7832C84.2358 45.3832 85.9958 44.3432 86.1558 44.3432C88.2358 43.4632 92.7158 42.9832 94.3958 44.8232C95.5958 46.1832 95.1158 48.1832 93.7558 49.2232C92.3158 50.2632 90.1558 50.0232 88.5558 49.5432C86.7958 48.9832 83.7557 46.2632 83.5157 46.0232C81.9957 47.7032 80.3158 49.3832 78.4757 50.9032C77.4357 51.7832 76.3957 52.6632 75.2757 53.5432C75.8357 53.2232 76.3157 52.9832 76.3957 52.9032C78.4757 52.0232 82.9558 51.5432 84.6358 53.3832C85.8358 54.7432 85.3558 56.7432 83.9958 57.7832C82.5558 58.8232 80.3957 58.5832 78.7957 58.1032C77.1957 57.6232 74.5557 55.3032 73.8357 54.6632C73.4357 54.9832 73.0357 55.3032 72.5557 55.6232C70.5557 57.1432 68.5557 58.6632 66.6357 60.2632C65.9157 60.8232 65.2757 61.3832 64.6357 61.9432C65.1157 61.7032 65.5157 61.4632 65.5957 61.3832C67.6757 60.5032 72.1557 60.0232 73.8357 61.8632C75.0357 63.2232 74.5557 65.2232 73.1957 66.2632C71.7557 67.3032 69.5957 67.0632 67.9957 66.5832C66.4757 66.1032 63.9957 64.0232 63.1957 63.3032C62.5557 63.8632 61.9157 64.5032 61.2757 65.1432C60.8757 65.5432 60.4757 65.9432 60.0757 66.4232C59.6757 66.8232 59.2757 67.3032 58.9557 67.7032C58.2357 68.5832 57.5157 69.4632 56.8757 70.2632C56.3957 70.8232 55.9957 71.3832 55.5157 72.0232C56.1557 71.4632 57.5157 70.4232 57.6757 70.3432C59.5957 69.1432 63.9157 68.0232 65.8357 69.6232C67.1957 70.8232 67.1157 72.8232 65.8357 74.0232C64.5557 75.2232 62.3957 75.3832 60.7157 75.1432C58.8757 74.8232 55.5957 72.7432 55.1957 72.4232C54.4757 73.3832 53.7557 74.2632 53.1157 75.1432C50.8757 78.1832 49.1957 80.8232 47.9957 82.7432C47.9157 82.8232 47.9157 82.9032 47.9157 82.9032L46.3957 82.1832C46.4757 82.1032 46.5557 81.9432 46.6357 81.7832C47.8357 79.9432 49.6757 77.3032 51.9957 74.2632C52.7157 73.3032 53.5157 72.2632 54.3157 71.2232C54.0757 70.9832 52.8757 69.6232 51.9157 68.2632C50.1557 68.9832 46.4757 68.9832 45.9957 68.9832C45.9157 70.1832 45.8357 71.3032 45.8357 72.4232C45.6757 76.1832 45.6757 79.3832 45.7557 81.5432C45.7557 81.6232 45.7557 81.7032 45.7557 81.7832L44.0757 80.9832C44.0757 78.8232 44.1557 75.8632 44.3957 72.3432C44.4757 71.1432 44.5557 69.8632 44.7157 68.5032C44.2357 68.4232 40.3957 67.3832 38.9557 66.2632C37.6757 65.2232 36.2357 63.5432 36.3157 61.7832C36.3957 60.0232 37.7557 58.5832 39.5957 58.8232C42.0757 59.1432 44.1557 63.1432 44.5557 65.3832C44.5557 65.5432 44.7157 66.9832 44.7157 67.8632C44.7957 67.3032 44.7957 66.8232 44.8757 66.2632C44.9557 65.1432 45.1157 64.1032 45.2757 62.9032C45.3557 62.3432 45.4357 61.7832 45.5157 61.2232C45.5957 60.6632 45.7557 60.0232 45.8357 59.4632C46.1557 58.1032 46.4757 56.7432 46.8757 55.3832C45.9157 55.3032 42.4757 54.9032 41.0357 54.0232C39.5957 53.2232 37.9957 51.7032 37.7557 49.9432C37.5157 48.1832 38.7157 46.5832 40.5557 46.5032C43.0357 46.4232 45.7557 50.1032 46.4757 52.1832C46.5557 52.3432 46.8757 53.8632 47.0357 54.7432C47.2757 53.9432 47.5157 53.0632 47.8357 52.2632C48.6357 49.8632 49.5157 47.5432 50.3957 45.1432C50.6357 44.4232 50.9557 43.7032 51.1957 42.9832C50.8757 42.9832 46.7957 42.5832 45.1957 41.6232C43.7557 40.8232 42.1557 39.3031 41.9157 37.5431C41.6757 35.7831 42.8757 34.1831 44.7157 34.1031C47.1957 34.0231 49.9157 37.7031 50.6357 39.7831C50.7157 39.9431 51.1957 42.1832 51.2757 42.8232C51.8357 41.2232 52.3957 39.6232 52.8757 38.0232C53.5157 35.7831 54.0757 33.6231 54.4757 31.4631C54.3157 31.4631 50.0757 31.0631 48.3957 30.1031C46.9557 29.3031 45.3557 27.7831 45.1157 26.0231C44.8757 24.2631 46.0757 22.6631 47.9157 22.5831C50.3957 22.5031 53.1157 26.1831 53.8357 28.2631C53.9157 28.4231 54.3157 30.1031 54.4757 30.9831C54.5557 30.9831 54.5557 30.9831 54.6357 30.9831C55.0357 28.6631 55.0357 26.3431 55.0357 24.1831C55.0357 22.9031 54.8757 21.7031 54.7957 20.5831C53.9957 20.5831 50.3957 20.5831 48.7957 19.8631C47.2757 19.2231 45.5157 17.9431 45.1157 16.1831C44.7157 14.5031 45.6757 12.7431 47.5157 12.4231C49.9957 12.1031 53.0357 15.4631 53.9957 17.4631C54.0757 17.5431 54.4757 18.7431 54.7157 19.6231C54.6357 19.0631 54.6357 18.5831 54.5557 18.0231C54.3157 16.1831 53.9157 14.4231 53.5957 12.9031C53.4357 12.0231 53.1957 11.3031 53.0357 10.5831C52.2357 10.1831 49.1157 8.50313 47.9957 7.22313C46.9557 5.94313 45.9957 3.94312 46.3957 2.26312C46.3157 0.663121 47.9957 -0.456879 49.7557 0.183122Z" fill="white"/>
<path opacity="0.5" d="M95.0472 38.8222C93.0472 38.7422 89.1272 36.7421 89.1272 36.7421C89.0472 36.7421 91.2072 34.5821 91.3672 34.4221C93.1272 33.0621 97.2872 31.3821 99.4472 32.7421C100.967 33.7021 101.047 35.7821 99.9272 37.1421C98.8872 38.5022 96.7272 38.9022 95.0472 38.8222Z" fill="white"/>
</g>
<path d="M72.1472 87.8624C72.1472 87.8624 60.2272 59.2224 53.5872 60.4224C46.9471 61.6224 65.0272 106.102 65.0272 106.102C65.0272 106.102 44.0671 66.6624 29.8271 66.6624C15.5871 66.6624 35.0271 110.262 53.1072 124.822C53.1072 124.822 24.5471 94.1024 7.90712 100.742C-8.73289 107.462 41.2671 138.582 41.2671 138.582C41.2671 138.582 12.2271 129.462 15.5871 136.502C18.9471 143.542 27.9871 144.822 27.9871 144.822L35.6671 146.502H77.2672L83.6672 144.022C83.6672 144.022 110.307 130.742 103.187 125.302C96.0672 119.862 80.3872 131.542 80.3872 131.542C80.3872 131.542 107.507 101.622 102.307 90.4224C97.1072 79.2224 73.7472 110.822 73.7472 110.822C73.7472 110.822 92.7872 70.5024 88.9472 63.4624C85.0272 56.3424 72.1472 87.8624 72.1472 87.8624Z" fill="#000000"/>
<path opacity="0.4" d="M72.1472 87.8624C72.1472 87.8624 60.2272 59.2224 53.5872 60.4224C46.9471 61.6224 65.0272 106.102 65.0272 106.102C65.0272 106.102 44.0671 66.6624 29.8271 66.6624C15.5871 66.6624 35.0271 110.262 53.1072 124.822C53.1072 124.822 24.5471 94.1024 7.90712 100.742C-8.73289 107.462 41.2671 138.582 41.2671 138.582C41.2671 138.582 12.2271 129.462 15.5871 136.502C18.9471 143.542 27.9871 144.822 27.9871 144.822L40.4671 146.502H74.0672L83.6672 144.022C83.6672 144.022 110.307 130.742 103.187 125.302C96.0672 119.862 80.3872 131.542 80.3872 131.542C80.3872 131.542 107.507 101.622 102.307 90.4224C97.1072 79.2224 73.7472 110.822 73.7472 110.822C73.7472 110.822 92.7872 70.5024 88.9472 63.4624C85.0272 56.3424 72.1472 87.8624 72.1472 87.8624Z" fill="white"/>
<path d="M75.9741 89.3823C65.4941 120.342 65.4941 142.182 65.4941 142.182C65.4941 142.182 77.8941 142.662 90.6941 133.142" stroke="#263238" stroke-miterlimit="10" stroke-linecap="round" stroke-linejoin="round"/>
<path d="M70.6948 106.024C70.6948 106.024 68.2948 94.5838 62.1348 78.9038" stroke="#263238" stroke-miterlimit="10" stroke-linecap="round" stroke-linejoin="round"/>
<path d="M39.8301 88.0249L66.4701 127.545C66.4701 127.545 84.5501 112.345 90.7101 103.785" stroke="#263238" stroke-miterlimit="10" stroke-linecap="round" stroke-linejoin="round"/>
<path d="M65.9908 136.985C65.9908 136.985 37.9107 123.705 26.4707 116.025" stroke="#263238" stroke-miterlimit="10" stroke-linecap="round" stroke-linejoin="round"/>
<path d="M150.471 23.8623H144.711V264.902H150.471V23.8623Z" fill="#C2C2C2" stroke="#ABABAB" stroke-miterlimit="10" stroke-linecap="round" stroke-linejoin="round"/>
<path d="M46.3694 23.8623H40.6094V264.902H46.3694V23.8623Z" fill="#C2C2C2" stroke="#ABABAB" stroke-miterlimit="10" stroke-linecap="round" stroke-linejoin="round"/>
<path d="M98.4768 23.8623H92.7168V264.902H98.4768V23.8623Z" fill="#C2C2C2" stroke="#ABABAB" stroke-miterlimit="10" stroke-linecap="round" stroke-linejoin="round"/>
<path d="M202.463 23.8623H196.703V264.902H202.463V23.8623Z" fill="#C2C2C2" stroke="#ABABAB" stroke-miterlimit="10" stroke-linecap="round" stroke-linejoin="round"/>
<path d="M200.773 31.3843H38.7734V42.3443H200.773V31.3843Z" fill="#C2C2C2" stroke="#ABABAB" stroke-miterlimit="10" stroke-linecap="round" stroke-linejoin="round"/>
<path d="M200.787 31.3843H96.5469V42.3443H200.787V31.3843Z" fill="#A6A6A6" stroke="#ABABAB" stroke-miterlimit="10" stroke-linecap="round" stroke-linejoin="round"/>
<path d="M200.773 142.021H38.7734V152.981H200.773V142.021Z" fill="#C2C2C2" stroke="#ABABAB" stroke-miterlimit="10" stroke-linecap="round" stroke-linejoin="round"/>
<path d="M200.787 142.021H96.5469V152.981H200.787V142.021Z" fill="#A6A6A6" stroke="#ABABAB" stroke-miterlimit="10" stroke-linecap="round" stroke-linejoin="round"/>
<path d="M200.773 252.583H38.7734V263.543H200.773V252.583Z" fill="#C2C2C2" stroke="#ABABAB" stroke-miterlimit="10" stroke-linecap="round" stroke-linejoin="round"/>
<path d="M200.787 252.583H96.5469V263.543H200.787V252.583Z" fill="#A6A6A6" stroke="#ABABAB" stroke-miterlimit="10" stroke-linecap="round" stroke-linejoin="round"/>
<path d="M96.5422 193.625H11.7422V264.826H96.5422V193.625Z" fill="#000000"/>
<path opacity="0.6" d="M96.5422 193.625H11.7422V264.826H96.5422V193.625Z" fill="white" stroke="#696969" stroke-miterlimit="10" stroke-linecap="round" stroke-linejoin="round"/>
<path d="M96.5422 193.625H11.7422V264.826H96.5422V193.625Z" stroke="#696969" stroke-miterlimit="10" stroke-linecap="round" stroke-linejoin="round"/>
<path d="M96.5428 193.625H68.3828V264.826H96.5428V193.625Z" fill="#000000"/>
<path opacity="0.39" d="M96.5428 193.625H68.3828V264.826H96.5428V193.625Z" fill="white" stroke="#696969" stroke-miterlimit="10" stroke-linecap="round" stroke-linejoin="round"/>
<path d="M96.5428 193.625H68.3828V264.826H96.5428V193.625Z" stroke="#696969" stroke-miterlimit="10" stroke-linecap="round" stroke-linejoin="round"/>
<path d="M82.7598 193.784V264.904" stroke="#696969" stroke-miterlimit="10" stroke-linecap="round" stroke-linejoin="round"/>
<path d="M100.878 122.505H16.0781V193.705H100.878V122.505Z" fill="#000000"/>
<path opacity="0.6" d="M100.878 122.505H16.0781V193.705H100.878V122.505Z" fill="white" stroke="#696969" stroke-miterlimit="10" stroke-linecap="round" stroke-linejoin="round"/>
<path d="M100.878 122.505H16.0781V193.705H100.878V122.505Z" stroke="#696969" stroke-miterlimit="10" stroke-linecap="round" stroke-linejoin="round"/>
<path d="M100.801 122.505H72.6406V193.705H100.801V122.505Z" fill="#000000"/>
<path opacity="0.39" d="M100.801 122.505H72.6406V193.705H100.801V122.505Z" fill="white" stroke="#696969" stroke-miterlimit="10" stroke-linecap="round" stroke-linejoin="round"/>
<path d="M100.801 122.505H72.6406V193.705H100.801V122.505Z" stroke="#696969" stroke-miterlimit="10" stroke-linecap="round" stroke-linejoin="round"/>
<path d="M87.0547 122.747V193.787" stroke="#696969" stroke-miterlimit="10" stroke-linecap="round" stroke-linejoin="round"/>
<path d="M321.423 193.625H236.623V264.826H321.423V193.625Z" fill="#000000"/>
<path opacity="0.6" d="M321.423 193.625H236.623V264.826H321.423V193.625Z" fill="white" stroke="#919191" stroke-miterlimit="10" stroke-linecap="round" stroke-linejoin="round"/>
<path d="M321.423 193.625H236.623V264.826H321.423V193.625Z" stroke="#919191" stroke-miterlimit="10" stroke-linecap="round" stroke-linejoin="round"/>
<path d="M321.424 193.625H293.264V264.826H321.424V193.625Z" fill="#000000"/>
<path opacity="0.39" d="M321.424 193.625H293.264V264.826H321.424V193.625Z" fill="white" stroke="#919191" stroke-miterlimit="10" stroke-linecap="round" stroke-linejoin="round"/>
<path d="M321.424 193.625H293.264V264.826H321.424V193.625Z" stroke="#919191" stroke-miterlimit="10" stroke-linecap="round" stroke-linejoin="round"/>
<path d="M307.6 193.784V264.904" stroke="#919191" stroke-miterlimit="10" stroke-linecap="round" stroke-linejoin="round"/>
<path d="M321.423 122.341H236.623V193.541H321.423V122.341Z" fill="#000000"/>
<path opacity="0.6" d="M321.423 122.341H236.623V193.541H321.423V122.341Z" fill="white" stroke="#919191" stroke-miterlimit="10" stroke-linecap="round" stroke-linejoin="round"/>
<path d="M321.423 122.341H236.623V193.541H321.423V122.341Z" stroke="#919191" stroke-miterlimit="10" stroke-linecap="round" stroke-linejoin="round"/>
<path d="M321.424 122.341H293.264V193.541H321.424V122.341Z" fill="#000000"/>
<path opacity="0.39" d="M321.424 122.341H293.264V193.541H321.424V122.341Z" fill="white" stroke="#919191" stroke-miterlimit="10" stroke-linecap="round" stroke-linejoin="round"/>
<path d="M321.424 122.341H293.264V193.541H321.424V122.341Z" stroke="#919191" stroke-miterlimit="10" stroke-linecap="round" stroke-linejoin="round"/>
<path d="M307.6 122.5V193.62" stroke="#919191" stroke-miterlimit="10" stroke-linecap="round" stroke-linejoin="round"/>
<path d="M313.893 63.3838H243.812V122.264H313.893V63.3838Z" fill="#000000"/>
<path opacity="0.6" d="M313.893 63.3838H243.812V122.264H313.893V63.3838Z" fill="white" stroke="#919191" stroke-miterlimit="10" stroke-linecap="round" stroke-linejoin="round"/>
<path d="M313.893 63.3838H243.812V122.264H313.893V63.3838Z" stroke="#919191" stroke-miterlimit="10" stroke-linecap="round" stroke-linejoin="round"/>
<path d="M313.889 63.3838H290.609V122.264H313.889V63.3838Z" fill="#000000"/>
<path opacity="0.39" d="M313.889 63.3838H290.609V122.264H313.889V63.3838Z" fill="white" stroke="#919191" stroke-miterlimit="10" stroke-linecap="round" stroke-linejoin="round"/>
<path d="M313.889 63.3838H290.609V122.264H313.889V63.3838Z" stroke="#919191" stroke-miterlimit="10" stroke-linecap="round" stroke-linejoin="round"/>
<path d="M302.561 63.5449V122.345" stroke="#919191" stroke-miterlimit="10" stroke-linecap="round" stroke-linejoin="round"/>
<path d="M304.929 238.101H293.969V244.981H304.929V238.101Z" fill="white" stroke="#263238" stroke-miterlimit="10" stroke-linecap="round" stroke-linejoin="round"/>
<path d="M201.624 264.901C205.292 264.901 208.264 261.928 208.264 258.261C208.264 254.594 205.292 251.621 201.624 251.621C197.957 251.621 194.984 254.594 194.984 258.261C194.984 261.928 197.957 264.901 201.624 264.901Z" fill="#263238" stroke="#263238" stroke-miterlimit="10" stroke-linecap="round" stroke-linejoin="round"/>
<path d="M310.822 148.342H306.902V258.422H310.822V148.342Z" fill="#263238" stroke="#263238" stroke-miterlimit="10" stroke-linecap="round" stroke-linejoin="round"/>
<path d="M308.739 186.901L299.459 179.542C291.379 173.142 287.859 162.582 290.339 152.582C291.059 149.622 293.699 147.542 296.739 147.542H320.739C323.779 147.542 326.419 149.622 327.139 152.582C329.619 162.582 326.019 173.142 318.019 179.542L308.739 186.901ZM296.739 151.302C295.459 151.302 294.259 152.182 293.939 153.462C291.779 162.022 294.899 171.062 301.779 176.581L308.739 182.101L315.699 176.581C322.579 171.062 325.699 162.022 323.539 153.462C323.219 152.182 322.099 151.302 320.739 151.302H296.739Z" fill="#263238"/>
<path d="M285.719 241.462H164.359V255.622H285.719V241.462Z" fill="white"/>
<path opacity="0.28" d="M285.719 241.462H164.359V255.622H285.719V241.462Z" fill="black" stroke="#263238" stroke-miterlimit="10" stroke-linecap="round" stroke-linejoin="round"/>
<path d="M285.719 241.462H164.359V255.622H285.719V241.462Z" stroke="#263238" stroke-miterlimit="10" stroke-linecap="round" stroke-linejoin="round"/>
<path d="M177.959 241.462H164.359V255.622H177.959V241.462Z" stroke="#263238" stroke-miterlimit="10" stroke-linecap="round" stroke-linejoin="round"/>
<path d="M285.809 241.462H272.209V255.622H285.809V241.462Z" stroke="#263238" stroke-miterlimit="10" stroke-linecap="round" stroke-linejoin="round"/>
<path d="M231.903 241.462H218.303V255.622H231.903V241.462Z" stroke="#263238" stroke-miterlimit="10" stroke-linecap="round" stroke-linejoin="round"/>
<path d="M285.803 255.622H294.123L304.603 215.862H296.203L285.803 255.622Z" fill="white" stroke="#263238" stroke-miterlimit="10" stroke-linecap="round" stroke-linejoin="round"/>
<path d="M314.343 232.583H303.383V250.343H314.343V232.583Z" fill="white" stroke="#263238" stroke-miterlimit="10" stroke-linecap="round" stroke-linejoin="round"/>
<path d="M306.175 264.901C304.895 264.901 303.775 263.861 303.775 262.501V253.621C303.775 252.341 304.815 251.221 306.175 251.221C307.455 251.221 308.575 252.261 308.575 253.621V262.581C308.575 263.861 307.535 264.901 306.175 264.901Z" fill="#263238"/>
<path d="M311.798 264.901C310.518 264.901 309.398 263.861 309.398 262.501V253.621C309.398 252.341 310.438 251.221 311.798 251.221C313.078 251.221 314.198 252.261 314.198 253.621V262.581C314.198 263.861 313.158 264.901 311.798 264.901Z" fill="#263238"/>
<path d="M1 264.905H332.04" stroke="#263238" stroke-miterlimit="10" stroke-linecap="round" stroke-linejoin="round"/>
<path d="M115.283 288.025C147.183 288.025 173.043 284.873 173.043 280.985C173.043 277.097 147.183 273.945 115.283 273.945C83.3835 273.945 57.5234 277.097 57.5234 280.985C57.5234 284.873 83.3835 288.025 115.283 288.025Z" fill="#000000"/>
<path opacity="0.5" d="M115.283 288.025C147.183 288.025 173.043 284.873 173.043 280.985C173.043 277.097 147.183 273.945 115.283 273.945C83.3835 273.945 57.5234 277.097 57.5234 280.985C57.5234 284.873 83.3835 288.025 115.283 288.025Z" fill="white"/>
<path d="M234.889 280.981C234.889 282.901 222.009 284.501 206.089 284.501C190.169 284.501 177.289 282.901 177.289 280.981C177.289 279.061 190.169 277.461 206.089 277.461C222.009 277.461 234.889 279.061 234.889 280.981Z" fill="#000000"/>
<path opacity="0.5" d="M234.889 280.981C234.889 282.901 222.009 284.501 206.089 284.501C190.169 284.501 177.289 282.901 177.289 280.981C177.289 279.061 190.169 277.461 206.089 277.461C222.009 277.461 234.889 279.061 234.889 280.981Z" fill="white"/>
<path d="M126.794 49.6234C126.794 49.6234 122.314 46.1034 117.194 47.8634C112.074 49.6234 108.154 58.1834 106.794 65.0634C105.434 72.0234 100.074 77.3034 101.354 85.3834C102.634 93.5433 111.914 94.8233 123.034 96.0233C134.234 97.2233 140.234 95.8633 145.514 88.5033C150.794 81.1433 148.554 72.1834 145.434 64.3434C142.314 56.4234 137.114 49.0634 132.794 47.7034C128.634 46.4234 126.794 49.6234 126.794 49.6234Z" fill="#263238" stroke="#263238" stroke-miterlimit="10" stroke-linecap="round" stroke-linejoin="round"/>
<path d="M108.346 91.3818C109.626 91.9418 110.666 92.1818 110.666 92.1818" stroke="white" stroke-miterlimit="10" stroke-linecap="round" stroke-linejoin="round"/>
<path d="M125.673 55.3027C125.673 55.3027 123.353 60.8227 118.793 66.7427C114.233 72.5827 104.073 78.1827 103.433 84.3427C103.193 86.3427 103.913 87.7827 104.873 88.9827" stroke="white" stroke-miterlimit="10" stroke-linecap="round" stroke-linejoin="round"/>
<path d="M144.237 84.8242C143.917 85.5442 143.517 86.2642 142.957 86.9842" stroke="white" stroke-miterlimit="10" stroke-linecap="round" stroke-linejoin="round"/>
<path d="M140.381 69.3018C140.381 69.3018 145.501 75.2218 145.021 81.5418" stroke="white" stroke-miterlimit="10" stroke-linecap="round" stroke-linejoin="round"/>
<path d="M124.706 52.0229C124.706 52.0229 118.466 51.0629 113.906 56.2629C113.746 56.5029 113.586 56.6629 113.426 56.9029" stroke="white" stroke-miterlimit="10" stroke-linecap="round" stroke-linejoin="round"/>
<path d="M95.1723 202.823L94.2123 218.183C94.2123 218.183 89.9723 238.823 88.6123 247.303C87.2523 255.783 84.7723 268.743 84.3723 268.743C83.8923 268.743 76.6123 273.143 74.2123 276.823C71.8923 280.423 74.8523 282.023 78.1323 280.823C81.4123 279.623 85.8123 276.423 87.2523 272.503C88.6923 268.583 89.4123 267.143 89.4923 266.503C89.5723 265.863 105.092 224.343 106.612 219.863C108.132 215.463 111.412 202.423 111.412 202.423L119.012 176.583C119.012 176.583 127.172 203.143 127.252 204.263C127.332 205.463 135.652 273.303 136.052 275.783C136.452 278.343 136.292 280.103 137.892 280.663C139.412 281.223 143.092 281.223 144.932 281.223C146.852 281.223 153.412 282.183 156.692 281.383C159.972 280.583 160.292 280.023 158.052 278.423C155.812 276.823 143.252 275.783 142.052 270.983C141.972 270.583 141.892 200.823 141.892 200.823C141.892 200.823 140.772 177.703 139.012 171.223H97.1723L95.1723 202.823Z" fill="white" stroke="#263238" stroke-miterlimit="10" stroke-linecap="round" stroke-linejoin="round"/>
<path d="M78.0597 280.9C81.3397 279.7 85.7397 276.5 87.1797 272.58C87.2597 272.26 87.4197 272.02 87.4997 271.78C85.6597 273.78 82.6997 276.5 82.6997 276.5C82.6997 276.5 82.4597 274.98 81.4997 273.94C80.6197 272.98 79.4197 273.3 79.4197 273.3L82.6197 269.78C80.2197 271.3 75.8997 274.34 74.2197 276.9C71.8197 280.5 74.7797 282.02 78.0597 280.9Z" fill="#263238" stroke="#263238" stroke-miterlimit="10" stroke-linecap="round" stroke-linejoin="round"/>
<path d="M157.965 278.503C156.445 277.383 150.045 276.583 145.805 274.583C145.645 274.743 145.485 274.903 145.405 275.143C145.005 276.023 144.765 277.463 144.765 277.463L135.965 275.543C135.965 275.623 135.965 275.703 135.965 275.783C136.365 278.343 136.205 280.103 137.805 280.663C139.325 281.223 143.005 281.223 144.845 281.223C146.765 281.223 153.325 282.183 156.605 281.383C159.885 280.663 160.285 280.183 157.965 278.503Z" fill="#263238" stroke="#263238" stroke-miterlimit="10" stroke-linecap="round" stroke-linejoin="round"/>
<path d="M107.347 133.782C107.347 133.782 103.187 135.702 98.1475 144.742C92.6275 154.582 93.5875 160.102 93.5075 171.942C93.4275 183.862 93.1875 203.542 93.1875 203.542C93.1875 203.542 108.388 207.622 119.268 206.982C130.228 206.342 143.988 203.862 143.988 203.862C143.988 203.862 141.028 163.622 138.228 152.102C135.428 140.502 133.748 135.302 133.748 135.302C133.748 135.302 126.708 136.502 117.428 135.542C108.308 134.582 107.347 133.782 107.347 133.782Z" fill="#263238" stroke="#263238" stroke-miterlimit="10" stroke-linecap="round" stroke-linejoin="round"/>
<path d="M124.83 169.382C125.23 170.742 125.63 172.102 125.95 173.542" stroke="white" stroke-miterlimit="10" stroke-linecap="round" stroke-linejoin="round"/>
<path d="M115.18 146.741C115.18 146.741 119.9 155.141 123.42 165.221" stroke="white" stroke-miterlimit="10" stroke-linecap="round" stroke-linejoin="round"/>
<path d="M209.236 126.102C208.756 125.782 200.916 124.582 200.916 124.582L199.396 123.942C199.396 123.942 208.916 124.742 208.996 124.342C209.076 123.942 209.396 123.462 208.756 123.382C208.116 123.302 195.876 120.822 195.876 120.822C195.876 120.822 198.996 117.862 199.396 117.222C199.796 116.582 200.356 115.302 199.716 115.302C199.076 115.302 198.916 115.702 198.036 116.262C197.156 116.822 193.716 118.182 192.756 118.982C191.796 119.782 188.916 121.862 188.916 121.862L155.636 117.302C155.636 117.302 143.956 102.902 141.396 99.8616C138.836 96.8216 135.396 94.4216 135.396 94.4216C132.916 93.3016 133.076 95.1416 133.076 95.1416L138.116 117.862C138.116 117.862 151.316 125.702 152.116 125.702C152.916 125.702 188.676 126.902 188.676 126.902C188.676 126.902 191.076 128.022 192.596 128.982C194.116 129.942 203.716 132.982 203.716 132.982C203.716 132.982 204.356 132.662 203.636 132.102C202.916 131.542 198.276 129.302 198.276 129.302L207.876 131.382C207.876 131.382 208.436 130.982 208.196 130.582C207.956 130.182 199.396 126.902 199.396 126.902L208.996 127.382C208.996 127.302 209.716 126.422 209.236 126.102Z" fill="white" stroke="#263238" stroke-miterlimit="10" stroke-linecap="round" stroke-linejoin="round"/>
<path d="M153.636 114.743C150.196 110.503 143.316 102.023 141.396 99.7029C138.836 96.6629 135.396 94.2629 135.396 94.2629C132.916 93.1429 133.076 94.9829 133.076 94.9829L138.116 117.703C138.116 117.703 144.116 121.223 148.276 123.623L153.636 114.743Z" fill="white" stroke="#263238" stroke-miterlimit="10" stroke-linecap="round" stroke-linejoin="round"/>
<path d="M118.303 92.4216C118.303 92.4216 111.343 92.7416 107.103 97.4616C102.863 102.182 103.343 112.582 105.103 118.742C106.863 124.982 109.103 128.422 108.623 130.582C108.143 132.742 106.383 133.462 107.343 135.462C108.303 137.462 113.823 139.622 123.583 139.302C133.343 138.982 135.183 136.902 135.263 135.062C135.343 133.222 134.623 131.702 134.863 130.582C135.103 129.462 142.143 123.222 142.143 116.342C142.143 109.462 139.103 107.062 138.383 102.102C137.663 97.1416 137.903 96.4216 134.943 94.2616C131.983 92.1816 122.223 91.0616 118.303 92.4216Z" fill="white" stroke="#263238" stroke-miterlimit="10" stroke-linecap="round" stroke-linejoin="round"/>
<path d="M115.168 116.182C115.168 116.182 111.328 119.462 107.488 120.982" stroke="#263238" stroke-miterlimit="10" stroke-linecap="round" stroke-linejoin="round"/>
<path d="M115.91 116.982C115.91 116.982 114.15 122.502 109.99 125.622" stroke="#263238" stroke-miterlimit="10" stroke-linecap="round" stroke-linejoin="round"/>
<path d="M133.169 97.3853L133.969 105.065L130.609 101.145L133.169 97.3853Z" fill="white" stroke="#263238" stroke-miterlimit="10" stroke-linecap="round" stroke-linejoin="round"/>
<path d="M128.658 105.704L133.138 97.384L129.058 93.064L128.658 105.704Z" fill="white" stroke="#263238" stroke-miterlimit="10" stroke-linecap="round" stroke-linejoin="round"/>
<path d="M120.025 78.8232C120.025 78.8232 121.225 83.3832 121.065 87.3032C120.905 91.2232 120.505 92.8232 120.505 92.8232L128.665 105.783L130.985 93.7832L132.505 85.4632C132.505 85.4632 123.225 84.9032 120.025 78.8232Z" fill="white" stroke="#263238" stroke-miterlimit="10" stroke-linecap="round" stroke-linejoin="round"/>
<path d="M128.193 98.7451L128.673 105.705L126.273 101.945L128.193 98.7451Z" fill="white" stroke="#263238" stroke-miterlimit="10" stroke-linecap="round" stroke-linejoin="round"/>
<path d="M117.799 92.5043L125.239 105.784L128.199 98.7443L120.279 87.9443L117.799 92.5043Z" fill="white" stroke="#263238" stroke-miterlimit="10" stroke-linecap="round" stroke-linejoin="round"/>
<path d="M247.893 98.6621H180.533V153.942H247.893V98.6621Z" fill="#000000"/>
<path opacity="0.2" d="M247.893 98.6621H180.533V153.942H247.893V98.6621Z" fill="black"/>
<path d="M247.893 98.6621H180.533V153.942H247.893V98.6621Z" stroke="#263238" stroke-miterlimit="10" stroke-linecap="round" stroke-linejoin="round"/>
<path d="M233.596 98.6621H166.236V153.942H233.596V98.6621Z" fill="#000000" stroke="#263238" stroke-miterlimit="10" stroke-linecap="round" stroke-linejoin="round"/>
<path d="M258.938 172.58C256.778 169.14 247.818 153.94 247.818 153.94H233.578L240.938 172.58H258.938Z" fill="#000000"/>
<path opacity="0.2" d="M258.938 172.58C256.778 169.14 247.818 153.94 247.818 153.94H233.578L240.938 172.58H258.938Z" fill="black"/>
<path d="M258.938 172.58C256.778 169.14 247.818 153.94 247.818 153.94H233.578L240.938 172.58H258.938Z" stroke="#263238" stroke-miterlimit="10" stroke-linecap="round" stroke-linejoin="round"/>
<path d="M155.104 172.58C157.264 169.14 166.224 153.94 166.224 153.94H180.464L173.103 172.58H155.104Z" fill="#000000" stroke="#263238" stroke-miterlimit="10" stroke-linecap="round" stroke-linejoin="round"/>
<path d="M166.224 153.94L159.984 172.58H230.384L233.664 153.94H166.224Z" fill="#000000" stroke="#263238" stroke-miterlimit="10" stroke-linecap="round" stroke-linejoin="round"/>
<path d="M256.547 118.662V137.222" stroke="#263238" stroke-miterlimit="10" stroke-linecap="round" stroke-linejoin="round"/>
<path d="M260.025 126.663V141.703" stroke="#263238" stroke-miterlimit="10" stroke-linecap="round" stroke-linejoin="round"/>
<path d="M159.008 137.219V148.739" stroke="#263238" stroke-miterlimit="10" stroke-linecap="round" stroke-linejoin="round"/>
<path d="M155.963 143.704V152.744" stroke="#263238" stroke-miterlimit="10" stroke-linecap="round" stroke-linejoin="round"/>
<path d="M106.705 112.263C106.705 112.263 110.145 116.343 114.945 119.223C119.745 122.103 137.345 132.103 138.705 132.663C140.065 133.223 182.145 126.343 182.145 126.343C182.145 126.343 184.545 127.463 186.065 128.423C187.585 129.383 197.185 132.423 197.185 132.423C197.185 132.423 197.825 132.103 197.105 131.543C196.385 130.983 191.745 128.743 191.745 128.743L201.345 130.823C201.345 130.823 201.905 130.423 201.665 130.023C201.425 129.623 192.865 126.343 192.865 126.343L202.465 126.823C202.465 126.823 203.185 125.943 202.705 125.623C202.225 125.303 192.385 123.063 192.385 123.063C192.385 123.063 202.865 122.183 202.945 121.783C203.025 121.383 203.345 120.903 202.705 120.823C202.065 120.743 188.945 119.463 188.945 119.463C188.945 119.463 192.385 117.303 192.785 116.663C193.185 116.023 193.745 114.743 193.105 114.743C192.465 114.743 192.305 115.143 191.425 115.703C190.545 116.263 187.105 117.623 186.145 118.423C185.185 119.223 182.305 121.303 182.305 121.303L143.825 121.383L119.985 102.583" fill="white"/>
<path d="M106.705 112.263C106.705 112.263 110.145 116.343 114.945 119.223C119.745 122.103 137.345 132.103 138.705 132.663C140.065 133.223 182.145 126.343 182.145 126.343C182.145 126.343 184.545 127.463 186.065 128.423C187.585 129.383 197.185 132.423 197.185 132.423C197.185 132.423 197.825 132.103 197.105 131.543C196.385 130.983 191.745 128.743 191.745 128.743L201.345 130.823C201.345 130.823 201.905 130.423 201.665 130.023C201.425 129.623 192.865 126.343 192.865 126.343L202.465 126.823C202.465 126.823 203.185 125.943 202.705 125.623C202.225 125.303 192.385 123.063 192.385 123.063C192.385 123.063 202.865 122.183 202.945 121.783C203.025 121.383 203.345 120.903 202.705 120.823C202.065 120.743 188.945 119.463 188.945 119.463C188.945 119.463 192.385 117.303 192.785 116.663C193.185 116.023 193.745 114.743 193.105 114.743C192.465 114.743 192.305 115.143 191.425 115.703C190.545 116.263 187.105 117.623 186.145 118.423C185.185 119.223 182.305 121.303 182.305 121.303L143.825 121.383L119.985 102.583" stroke="#263238" stroke-miterlimit="10" stroke-linecap="round" stroke-linejoin="round"/>
<path d="M202.713 120.821C202.073 120.741 188.953 119.461 188.953 119.461C188.953 119.461 192.393 117.301 192.793 116.661C193.193 116.021 193.753 114.741 193.113 114.741C192.473 114.741 192.313 115.141 191.433 115.701C190.553 116.261 187.113 117.621 186.153 118.421C185.193 119.221 182.313 121.301 182.313 121.301L143.833 121.381L139.513 118.021C137.913 120.821 134.953 126.101 132.953 129.541C135.913 131.221 138.233 132.421 138.633 132.661C139.993 133.221 182.073 126.341 182.073 126.341C182.073 126.341 184.473 127.461 185.993 128.421C187.513 129.381 197.113 132.421 197.113 132.421C197.113 132.421 197.753 132.101 197.033 131.541C196.313 130.981 191.673 128.741 191.673 128.741L201.273 130.821C201.273 130.821 201.833 130.421 201.593 130.021C201.353 129.621 192.793 126.341 192.793 126.341L202.393 126.821C202.393 126.821 203.113 125.941 202.633 125.621C202.153 125.301 192.313 123.061 192.313 123.061C192.313 123.061 202.793 122.181 202.873 121.781C203.033 121.381 203.353 120.901 202.713 120.821Z" fill="white" stroke="#263238" stroke-miterlimit="10" stroke-linecap="round" stroke-linejoin="round"/>
<path d="M138.214 72.1025C138.214 71.8625 139.814 71.0624 140.214 72.5825C140.614 74.1025 139.814 76.6625 138.934 77.5425C138.054 78.4226 137.254 78.6626 137.254 77.5425C137.254 76.4225 138.214 72.1025 138.214 72.1025Z" fill="white" stroke="#263238" stroke-miterlimit="10" stroke-linecap="round" stroke-linejoin="round"/>
<path d="M128.463 58.103C128.463 58.103 128.303 64.023 123.743 68.423C119.184 72.823 115.104 74.823 115.104 74.823C115.104 74.823 115.584 77.303 116.544 78.103C117.504 78.903 119.344 78.743 119.344 78.743C119.344 78.743 120.784 83.143 124.543 86.583C128.303 90.023 132.703 89.703 135.183 84.583C137.663 79.383 138.943 74.263 138.623 71.303C138.303 68.343 138.303 68.343 138.303 68.343C138.303 68.343 130.143 63.783 128.463 58.103Z" fill="white" stroke="#263238" stroke-miterlimit="10" stroke-linecap="round" stroke-linejoin="round"/>
<path d="M127.974 73.622C128.372 73.622 128.694 73.0489 128.694 72.342C128.694 71.6351 128.372 71.062 127.974 71.062C127.576 71.062 127.254 71.6351 127.254 72.342C127.254 73.0489 127.576 73.622 127.974 73.622Z" fill="#263238"/>
<path d="M131.88 83.7831C132.278 83.7831 132.6 83.2101 132.6 82.5031C132.6 81.7962 132.278 81.2231 131.88 81.2231C131.483 81.2231 131.16 81.7962 131.16 82.5031C131.16 83.2101 131.483 83.7831 131.88 83.7831Z" fill="#263238"/>
<path d="M134.849 73.622C135.247 73.622 135.569 73.0489 135.569 72.342C135.569 71.6351 135.247 71.062 134.849 71.062C134.451 71.062 134.129 71.6351 134.129 72.342C134.129 73.0489 134.451 73.622 134.849 73.622Z" fill="#263238"/>
<path d="M133.486 70.9839C133.486 70.9839 133.006 72.5839 133.246 73.9439C133.486 75.3039 134.606 77.6239 133.646 78.0239C132.686 78.4239 131.406 78.2639 130.926 77.7039" stroke="#263238" stroke-miterlimit="10" stroke-linecap="round" stroke-linejoin="round"/>
<path d="M125.887 70.023C125.887 70.023 126.287 67.543 129.487 67.863" stroke="#263238" stroke-miterlimit="10" stroke-linecap="round" stroke-linejoin="round"/>
<path d="M134.443 68.583C134.443 68.583 137.403 66.183 138.443 70.583" stroke="#263238" stroke-miterlimit="10" stroke-linecap="round" stroke-linejoin="round"/>
</svg>
