<svg width="35" height="34" viewBox="0 0 35 34" fill="none" xmlns="http://www.w3.org/2000/svg">
<rect y="0.46875" width="35" height="32.7591" rx="5" fill="#FFD2B7"/>
<path d="M22.8118 17.0455L22.0831 17.0484L22.0812 16.5797L22.7099 16.5772C22.4099 15.4528 21.7534 14.4719 20.8701 13.7621L20.3709 14.2652L20.0381 13.9351L20.4887 13.4811C19.6871 12.9448 18.7349 12.6182 17.7112 12.5781L17.7139 13.2593L17.2452 13.2612L17.2426 12.5862C16.2344 12.6363 15.285 12.9509 14.4726 13.5052L14.9336 13.9624L14.6035 14.2952L14.0934 13.7891C13.1836 14.5349 12.5674 15.5174 12.2848 16.6191L12.8985 16.6165L12.9004 17.0852L12.1861 17.0882C12.1383 17.3815 12.1091 17.6796 12.1104 17.9826C12.115 19.118 12.4645 20.1967 13.1225 21.1097L15.7716 21.0991C15.8793 20.5119 16.39 20.0724 17.0031 20.07L18.0157 20.0658C18.6312 20.0658 19.142 20.5058 19.2545 21.0851L21.9045 21.0745C22.5552 20.1565 22.8959 19.075 22.8913 17.9392C22.89 17.6347 22.862 17.3364 22.8118 17.0456L22.8118 17.0455ZM20.791 17.8845C20.7841 16.1737 19.3657 14.7122 17.5012 14.7063L17.7257 18.3715C18.0079 18.4652 18.2132 18.7272 18.2145 19.0387C18.216 19.4298 17.8991 19.7493 17.5081 19.751H17.5052C17.1157 19.751 16.7975 19.4341 16.796 19.0446C16.7948 18.7319 16.9984 18.4681 17.2794 18.3729L17.4869 14.4721L17.486 14.2372C19.6223 14.2448 21.2522 15.9049 21.26 17.8831L20.791 17.8845Z" fill="#B94803"/>
<path d="M17.2644 19.0463C17.265 19.1784 17.3727 19.2859 17.5048 19.2859H17.5058C17.6385 19.2853 17.746 19.1769 17.7455 19.0442C17.7449 18.9121 17.637 18.8047 17.5049 18.8047C17.3712 18.8053 17.2637 18.9137 17.2644 19.0463H17.2644Z" fill="#B94803"/>
<path d="M18.0203 20.5391L17.0045 20.5432C16.6415 20.5446 16.3478 20.788 16.2522 21.1016C16.8399 21.0992 18.3534 21.0932 18.7736 21.0914C18.6722 20.7717 18.3725 20.5391 18.0203 20.5391V20.5391Z" fill="#B94803"/>
<path d="M17.5 10.4689H17.4671C13.3327 10.4853 9.98352 13.8627 10.0001 17.9968C10.0095 19.9281 10.7477 21.7608 12.0837 23.1553L12.1516 23.2279L22.8905 23.1857L22.9609 23.1108C24.2828 21.7069 25.0093 19.867 24.9999 17.9358C24.9836 13.818 21.6179 10.4688 17.5 10.4688L17.5 10.4689ZM22.2126 21.4529L22.1427 21.5473L19.28 21.5588V21.5589C17.6728 21.5654 13.9564 21.5803 12.8877 21.5846L12.817 21.4907C12.0531 20.4768 11.6466 19.2661 11.6414 17.9895C11.6284 14.7569 14.2429 12.1222 17.4748 12.109H17.4987C20.7175 12.109 23.347 14.7258 23.3598 17.9421C23.3651 19.2189 22.9683 20.4329 22.2126 21.4528L22.2126 21.4529Z" fill="#B94803"/>
</svg>
