<svg width="70" height="61" viewBox="0 0 70 61" fill="none" xmlns="http://www.w3.org/2000/svg">
<rect x="0.15" y="0.454688" width="69.7" height="59.7" rx="3.85" fill="#F8FEF5"/>
<path d="M45.417 31.6375L41.0514 33.1703L39.7812 32.3765V32.3608L38.9591 30.3046L39.7779 28.25V28.2343L41.0497 27.4406L45.4152 28.9734H45.4154C45.4987 29.0029 45.5865 29.0177 45.6749 29.0172C45.927 29.0224 46.1663 28.9054 46.3172 28.7031C46.468 28.5008 46.5118 28.2382 46.4349 27.9979C46.358 27.7576 46.1698 27.5692 45.9295 27.4922L42.7437 26.3735L45.3436 24.7578C45.5295 24.6539 45.665 24.4783 45.7185 24.2721C45.7719 24.0658 45.7389 23.8466 45.6269 23.6655C45.515 23.4841 45.3338 23.3564 45.1254 23.312C44.917 23.2675 44.6996 23.3101 44.5233 23.4297L41.9202 25.0546L42.3124 21.6999C42.3414 21.4917 42.2852 21.2807 42.1567 21.1143C42.0282 20.948 41.8381 20.8406 41.6292 20.8161C41.4205 20.7917 41.2107 20.8526 41.0473 20.9848C40.8839 21.1169 40.7806 21.3095 40.7608 21.5187L40.2249 26.1156L38.6312 27.111L36.9764 26.8672L35.7734 25.3469V23.6484L39.3859 20.7578C39.6039 20.5834 39.7122 20.3059 39.6702 20.0299C39.628 19.7538 39.4419 19.5213 39.1819 19.4197C38.9217 19.3182 38.6273 19.363 38.4093 19.5376L35.7733 21.6485V18.5859C35.7733 18.3067 35.6244 18.0488 35.3827 17.9093C35.141 17.7698 34.8432 17.7698 34.6015 17.9093C34.3598 18.0488 34.2108 18.3067 34.2108 18.5859V21.6485L31.5748 19.5376C31.3568 19.363 31.0625 19.3182 30.8023 19.4197C30.5423 19.5214 30.3562 19.7538 30.314 20.0299C30.272 20.3059 30.3803 20.5833 30.5982 20.7578L34.2108 23.6499V25.3469L33.0093 26.8672L31.3546 27.1078L29.7609 26.1125L29.225 21.5187C29.2006 21.3129 29.0956 21.1253 28.9331 20.9969C28.7704 20.8686 28.5635 20.8102 28.3577 20.8342C28.152 20.8587 27.9643 20.9636 27.836 21.1262C27.7076 21.2889 27.6492 21.4957 27.6733 21.7015L28.0639 25.0545L25.4608 23.4296C25.285 23.3198 25.073 23.2844 24.871 23.3309C24.6691 23.3775 24.494 23.5024 24.3844 23.6781C24.2745 23.8537 24.2389 24.066 24.2855 24.2677C24.332 24.4697 24.4571 24.6447 24.6327 24.7546L27.2359 26.3795L24.0546 27.4921C23.8202 27.574 23.6388 27.7624 23.5658 27.9997C23.4927 28.2369 23.5366 28.4948 23.6843 28.6943C23.832 28.8938 24.0657 29.0113 24.3139 29.0108C24.4023 29.0113 24.49 28.9965 24.5734 28.9671L28.9389 27.4342L30.2107 28.2296V28.2452L31.0265 30.3046L30.2075 32.3592V32.3749L28.9358 33.1702L24.5671 31.6374C24.3027 31.5458 24.0098 31.6021 23.7982 31.7854C23.5867 31.9685 23.489 32.2505 23.542 32.5251C23.5949 32.7998 23.7902 33.0254 24.0545 33.117L27.2419 34.2357L24.6405 35.853C24.4038 36.0009 24.264 36.2638 24.2737 36.5428C24.2835 36.8217 24.4413 37.0744 24.6879 37.2053C24.9343 37.3363 25.232 37.3258 25.4686 37.178L28.0638 35.5546L27.6732 38.9093C27.6491 39.1151 27.7075 39.3219 27.8359 39.4846C27.9642 39.6471 28.1519 39.7521 28.3577 39.7765C28.3884 39.7783 28.4191 39.7783 28.4498 39.7765C28.6423 39.7777 28.8283 39.708 28.9726 39.5805C29.1168 39.453 29.2089 39.2769 29.231 39.0858L29.7669 34.4907L31.359 33.4953L33.0154 33.736L34.2169 35.2594L34.217 36.961L30.5982 39.8517C30.3802 40.026 30.2719 40.3035 30.314 40.5796C30.3562 40.8556 30.5422 41.0881 30.8023 41.1897C31.0625 41.2912 31.3568 41.2464 31.5748 41.0719L34.2108 38.9625V42.0235C34.2108 42.3026 34.3598 42.5605 34.6015 42.7001C34.8432 42.8396 35.141 42.8396 35.3827 42.7001C35.6244 42.5605 35.7733 42.3026 35.7733 42.0235V38.9609L38.4093 41.0702C38.6273 41.2448 38.9217 41.2896 39.1819 41.1881C39.4419 41.0865 39.628 40.854 39.6702 40.578C39.7122 40.3019 39.6039 40.0245 39.3859 39.8501L35.7734 36.961V35.264L36.9764 33.7422L38.6312 33.5015L40.2233 34.4969L40.7592 39.092C40.7815 39.2831 40.8736 39.4593 41.0178 39.5867C41.162 39.7142 41.3481 39.784 41.5404 39.7826C41.5711 39.7845 41.602 39.7845 41.6327 39.7826C41.8385 39.7583 42.0261 39.6533 42.1545 39.4908C42.2828 39.3281 42.3412 39.1211 42.317 38.9155L41.9264 35.5608L44.5233 37.1795C44.76 37.3274 45.0576 37.3378 45.304 37.2069C45.5506 37.0757 45.7084 36.8232 45.7182 36.5444C45.728 36.2653 45.5881 36.0024 45.3515 35.8545L42.7545 34.2312L45.9295 33.117C46.1836 33.0178 46.3676 32.7934 46.4149 32.5248C46.4623 32.2562 46.3662 31.9825 46.1613 31.8025C45.9566 31.6223 45.6727 31.5622 45.4123 31.6436L45.417 31.6375Z" fill="#000000"/>
<rect x="0.15" y="0.454688" width="69.7" height="59.7" rx="3.85" stroke="#000000" stroke-width="0.3"/>
</svg>
