<svg width="35" height="36" viewBox="0 0 35 36" fill="none" xmlns="http://www.w3.org/2000/svg">
<rect y="0.226562" width="35" height="35" rx="5" fill="#E2F9F1"/>
<path d="M17.5 10.2266C13.3632 10.2266 10 13.5897 10 17.7266C10 21.8634 13.3632 25.2266 17.5 25.2266C21.6368 25.2266 25 21.8634 25 17.7266C25 13.5897 21.6368 10.2266 17.5 10.2266ZM20.9895 20.395H15.3684L16.1737 21.2002C16.3947 21.4213 16.3947 21.7844 16.1737 22.0055C16.0631 22.116 15.921 22.1791 15.7789 22.1791C15.6368 22.1791 15.4948 22.116 15.3842 22.0055L13.6001 20.2213C13.379 20.0003 13.379 19.6371 13.6001 19.4161L15.3684 17.6477C15.5895 17.4267 15.9526 17.4267 16.1737 17.6477C16.3947 17.8687 16.3947 18.2319 16.1737 18.4529L15.3684 19.2582H20.9895C21.3053 19.2582 21.5579 19.5108 21.5579 19.8266C21.558 20.1424 21.3054 20.395 20.9896 20.395L20.9895 20.395ZM21.4 16.0213L19.6157 17.8055C19.5052 17.9161 19.3631 17.9792 19.221 17.9792C19.0789 17.9792 18.9368 17.9161 18.8263 17.8055C18.6052 17.5845 18.6052 17.2214 18.8263 17.0003L19.6315 16.1951L14.0104 16.195C13.6947 16.195 13.442 15.9423 13.442 15.6265C13.442 15.3108 13.6947 15.0581 14.0104 15.0581H19.6315L18.8263 14.2529C18.6052 14.0318 18.6052 13.6687 18.8263 13.4476C19.0473 13.2266 19.4104 13.2266 19.6315 13.4476L21.3999 15.216C21.5105 15.3266 21.5736 15.4687 21.5736 15.6108C21.5737 15.7529 21.4947 15.9265 21.4 16.0213L21.4 16.0213Z" fill="#2E7A61"/>
</svg>
