<svg width="338" height="347" viewBox="0 0 338 347" fill="none" xmlns="http://www.w3.org/2000/svg">
<path d="M163.048 33.9885L39.076 128.834L302.814 133.659L181.915 34.2816C176.484 29.824 168.651 29.6922 163.048 33.9885Z" fill="#000000"/>
<path d="M290.255 287.55L47.0074 283.143C41.1393 283.02 36.4428 278.138 36.4691 272.244L39.0757 128.832L303.761 133.6L301.154 277.012C301.102 283.003 296.22 287.699 290.255 287.55Z" fill="#7EC65C"/>
<path d="M286.532 136.851L177.038 201.619L54.9371 137.637L58.5416 64.6839C58.7699 56.877 65.3027 50.6558 73.1355 50.7876L273.631 54.403C281.561 54.5606 287.879 61.1192 287.721 69.0486L286.532 136.851Z" fill="#F0F3EE"/>
<path d="M167.091 191.604L36.3936 270.981C36.3085 277.481 41.4811 282.904 47.9805 282.989L289.386 287.317C295.886 287.402 301.309 282.23 301.394 275.73L301.434 274.809L180.547 192C176.518 189.264 171.281 189.103 167.091 191.604Z" fill="#518C36"/>
<path d="M160.689 85.1578L82.2036 83.7461L82.0597 91.7446L160.545 93.1563L160.689 85.1578Z" fill="#B0FF8B"/>
<path d="M255.895 107.225L81.8271 104.094L81.6653 113.092L255.733 116.223L255.895 107.225Z" fill="#B0FF8B"/>
<path d="M255.56 129.275L81.4922 126.145L81.3303 135.143L255.398 138.274L255.56 129.275Z" fill="#B0FF8B"/>
<path d="M251.542 157.705L245.051 161.453L98.5067 160.492L81.75 151.55L81.5915 149.437L255.098 152.55L255.024 155.532L251.542 157.705Z" fill="#B0FF8B"/>
<path d="M206.929 183.955L141.188 182.8L123.42 173.381L221.8 175.205L206.929 183.955Z" fill="#B0FF8B"/>
<path d="M162.289 194.459C162.289 194.459 162.167 194.53 162.018 194.697C161.773 194.839 161.503 195.077 161.039 195.263C160.181 195.758 158.931 196.562 157.409 197.603C154.199 199.538 149.59 202.444 143.904 205.89C132.507 212.879 116.675 222.509 99.2509 233.059C81.7301 243.583 65.7566 252.968 54.2181 259.712C48.4618 263.035 43.7112 265.696 40.4044 267.605C38.8122 268.525 37.4909 269.206 36.6336 269.701C36.2662 269.913 35.8987 270.125 35.6538 270.267C35.4088 270.408 35.2864 270.479 35.3122 270.382C35.3122 270.382 35.4347 270.311 35.6797 270.17C35.9246 270.029 36.292 269.816 36.6595 269.604C37.5168 269.109 38.7674 268.306 40.3596 267.386C43.6664 265.477 48.3204 262.79 54.006 259.344C65.5186 252.697 81.4214 243.189 98.9421 232.666C116.366 222.116 132.295 212.511 143.763 205.645C149.448 202.199 154.128 199.416 157.338 197.481C158.931 196.562 160.181 195.758 161.039 195.263C161.406 195.051 161.773 194.839 162.018 194.697C162.167 194.53 162.289 194.459 162.289 194.459Z" fill="#B0FF8B"/>
<path d="M301.434 274.811C301.312 274.882 275.553 257.42 243.777 235.758C212.027 213.999 186.32 196.344 186.469 196.177C186.591 196.106 212.35 213.568 244.126 235.23C275.779 256.963 301.46 274.715 301.434 274.811Z" fill="#B0FF8B"/>
<path d="M291.798 133.81C291.798 133.81 291.676 133.881 291.553 133.952C291.308 134.093 291.064 134.234 290.793 134.472C290.058 134.897 289.052 135.559 287.802 136.363C285.178 138.041 281.426 140.452 276.817 143.358C267.476 149.241 254.583 157.174 240.15 165.834C225.717 174.493 212.612 182.059 203.059 187.575C198.309 190.236 194.415 192.402 191.721 193.958C190.4 194.639 189.394 195.301 188.563 195.7C188.195 195.912 187.95 196.053 187.731 196.098C187.512 196.143 187.486 196.239 187.486 196.239C187.486 196.239 187.609 196.169 187.731 196.098C187.976 195.957 188.221 195.815 188.492 195.577C189.227 195.153 190.232 194.491 191.554 193.809C194.248 192.254 198.071 189.965 202.821 187.304C212.374 181.789 225.408 174.1 239.841 165.44C254.274 156.781 267.167 148.848 276.579 143.087C281.285 140.207 285.011 137.892 287.731 136.24C288.981 135.436 290.058 134.897 290.722 134.35C291.089 134.138 291.334 133.996 291.483 133.829C291.702 133.784 291.798 133.81 291.798 133.81Z" fill="#B0FF8B"/>
<path d="M162.289 194.457C162.289 194.457 162.192 194.431 161.928 194.257C161.664 194.083 161.375 194.005 161.014 193.805C160.197 193.379 158.948 192.63 157.409 191.804C154.358 190.054 149.839 187.601 144.309 184.67C133.179 178.685 117.742 170.615 100.521 161.86C83.4227 153.033 67.8889 144.937 56.7844 138.856C51.2805 135.828 46.7874 133.278 43.7361 131.529C42.2235 130.606 41.0454 129.98 40.2537 129.457C39.8933 129.257 39.5328 129.057 39.3655 128.909C39.1982 128.76 39.1016 128.734 39.1016 128.734C39.1016 128.734 39.1982 128.76 39.4621 128.934C39.7259 129.109 40.0157 129.186 40.3762 129.386C41.1938 129.813 42.4426 130.561 43.9811 131.388C47.0323 133.137 51.5514 135.59 57.0812 138.521C68.2115 144.506 83.6487 152.576 100.869 161.332C117.968 170.158 133.501 178.254 144.606 184.335C150.11 187.363 154.603 189.913 157.654 191.662C159.167 192.585 160.345 193.211 161.137 193.734C161.497 193.934 161.858 194.134 162.025 194.283C162.192 194.431 162.385 194.483 162.289 194.457Z" fill="#B0FF8B"/>
<path d="M286.532 136.851C286.532 136.851 286.513 136.535 286.501 135.807C286.489 135.079 286.529 134.158 286.55 132.921C286.617 130.351 286.609 126.518 286.666 121.668C286.807 111.871 287.068 97.7574 287.289 80.3203C287.35 78.1624 287.339 75.8821 287.426 73.6277C287.421 72.4875 287.416 71.3473 287.533 70.1365C287.592 69.531 287.528 68.9963 287.49 68.365C287.549 67.7595 287.388 67.1989 287.325 66.6642C287.025 64.3062 285.971 62.0569 284.524 60.1162C282.955 58.2463 281.018 56.5885 278.655 55.7483C277.451 55.2186 276.266 55.0046 274.958 54.8613C273.651 54.7181 272.388 54.7938 271.055 54.7472C268.388 54.6538 265.695 54.657 263.003 54.6602C257.547 54.5442 251.872 54.473 246.1 54.3759C223.014 53.9875 197.577 53.4868 170.974 53.0878C144.3 52.5663 118.959 52.0915 95.7768 51.6773C90.0052 51.5802 84.3562 51.4124 78.8744 51.3929C77.5411 51.3463 76.1818 51.3962 74.7519 51.3236C73.4185 51.2769 72.0852 51.2302 70.7708 51.4992C69.4823 51.6716 68.2386 52.063 67.0656 52.5769C65.8926 53.0909 64.7645 53.8239 63.8295 54.6086C62.7979 55.3675 62.0044 56.3972 61.2367 57.3303C60.5398 58.3859 59.9394 59.4673 59.5322 60.6006C58.6213 62.8411 58.6763 65.3405 58.564 67.6916C58.3134 72.4902 58.1406 76.9991 57.897 81.3856C56.9485 98.8346 56.2746 112.941 55.7218 122.731C55.4454 127.627 55.2605 131.408 55.0964 133.952C55.0497 135.285 55.0099 136.206 54.9254 136.908C54.8667 137.514 54.8597 137.926 54.8597 137.926C54.8597 137.926 54.8408 137.61 54.9254 136.908C55.0099 136.206 54.9531 135.259 55.0964 133.952C55.1639 131.382 55.3488 127.601 55.6252 122.706C56.0814 112.889 56.7553 98.7829 57.5813 81.4045C57.8249 77.0181 57.9978 72.5092 58.2483 67.7105C58.3606 65.3595 58.3056 62.8601 59.2683 60.4263C59.7014 59.1965 60.3018 58.115 60.9987 57.0595C61.7923 56.0298 62.5858 55.0001 63.6174 54.2412C64.6748 53.3857 65.7064 52.6269 66.9759 52.1388C68.1748 51.5283 69.4892 51.2593 70.8036 50.9904C72.118 50.7214 73.5221 50.8905 74.8813 50.8406C76.2147 50.8873 77.5739 50.8374 79.0038 50.91C84.4597 51.026 90.1346 51.0972 95.9062 51.1943C118.992 51.5827 144.429 52.0834 171.129 52.5083C197.803 53.0298 223.144 53.5046 246.326 53.9188C252.098 54.0159 257.747 54.1837 263.229 54.2031C266.018 54.2258 268.685 54.3192 271.351 54.4125C272.685 54.4592 274.044 54.4093 275.351 54.5526C276.659 54.6959 277.915 55.0324 279.119 55.562C281.552 56.5247 283.586 58.2084 285.155 60.0783C286.699 62.0449 287.727 64.3908 288.027 66.7488C288.065 67.3801 288.225 67.9407 288.166 68.5462C288.204 69.1775 288.171 69.6863 288.209 70.3176C288.214 71.4578 288.194 72.6946 288.102 73.8088C288.016 76.0633 288.026 78.3436 287.965 80.5015C287.622 98.0092 287.36 112.122 287.123 121.894C287.066 126.744 286.978 130.551 286.91 133.121C286.889 134.358 286.824 135.376 286.862 136.007C286.61 136.561 286.532 136.851 286.532 136.851Z" fill="#518C36"/>
</svg>
