<svg width="80" height="80" viewBox="0 0 80 80" fill="none" xmlns="http://www.w3.org/2000/svg">
<circle cx="40" cy="40" r="40" fill="#FFF9F0"/>
<path fill-rule="evenodd" clip-rule="evenodd" d="M25.6767 16C28.8114 16 31.3528 18.4897 31.3528 21.561C31.3528 24.6322 28.8114 27.122 25.6767 27.122C22.542 27.122 20 24.6323 20 21.561C20 18.4898 22.542 16 25.6767 16Z" fill="#E99F0C"/>
<path fill-rule="evenodd" clip-rule="evenodd" d="M54.3235 16C57.4582 16 59.9996 18.4897 59.9996 21.561C59.9996 24.6322 57.4582 27.122 54.3235 27.122C51.1888 27.122 48.6475 24.6323 48.6475 21.561C48.6471 18.4898 51.1885 16 54.3235 16Z" fill="#E99F0C"/>
<path fill-rule="evenodd" clip-rule="evenodd" d="M36.0539 21.7133H36.0562C36.0542 21.6621 36.0482 21.6126 36.0482 21.561C36.0482 19.4674 37.7852 17.7699 39.928 17.7699C42.0708 17.7699 43.8078 19.4674 43.8078 21.561L43.9944 25.4475C44.998 24.445 45.6186 23.0745 45.6186 21.561C45.6196 18.4898 43.0717 16 39.929 16C36.7863 16 34.2383 18.4897 34.2383 21.561C34.2383 23.0885 34.8693 24.4712 35.8895 25.4767L36.0539 21.7133Z" fill="#E99F0C"/>
<path d="M36.732 38.5717L27.4596 42.4502C25.4006 43.311 24.1502 45.4156 24.3808 47.631L27.139 60.6656C27.4673 62.2163 28.8168 63.3416 30.4045 63.3875L40.5217 63.6842C42.2909 63.7298 43.9411 62.7981 44.8123 61.2613L54.2909 44.5413C54.854 43.5474 54.5207 42.2867 53.5398 41.6996C52.7042 41.1993 51.6344 41.3351 50.9502 42.0279L46.3882 46.6489C45.2546 47.7968 43.295 47.0388 43.2328 45.4288L42.3127 21.5107C42.2641 20.245 41.2213 19.2441 39.9523 19.2441C38.6936 19.2441 37.6558 20.2287 37.5929 21.4828L36.732 38.5717Z" fill="#E99F0C"/>
</svg>
