<svg width="178" height="162" viewBox="0 0 178 162" fill="none" xmlns="http://www.w3.org/2000/svg">
<path fill-rule="evenodd" clip-rule="evenodd" d="M171.515 45.7949C102.088 45.7949 45.8066 102.076 45.8066 171.503C45.8066 240.93 102.088 297.211 171.515 297.211C240.942 297.211 297.223 240.93 297.223 171.503C297.223 102.076 240.942 45.7949 171.515 45.7949ZM43.8066 171.503C43.8066 100.972 100.984 43.7949 171.515 43.7949C242.046 43.7949 299.223 100.972 299.223 171.503C299.223 242.035 242.046 299.211 171.515 299.211C100.984 299.211 43.8066 242.035 43.8066 171.503Z" fill="#000000"/>
<path fill-rule="evenodd" clip-rule="evenodd" d="M171.5 1.99989C77.8876 1.99989 1.99989 77.8876 1.99989 171.5C1.99989 265.112 77.8876 341 171.5 341C265.112 341 341 265.112 341 171.5C341 77.8876 265.112 1.99989 171.5 1.99989ZM0 171.5C0 76.7831 76.7831 0 171.5 0C266.217 0 343 76.7831 343 171.5C343 266.217 266.217 343 171.5 343C76.7831 343 0 266.217 0 171.5Z" fill="#000000"/>
<path fill-rule="evenodd" clip-rule="evenodd" d="M171.513 23.8789C90.1214 23.8789 23.9043 90.096 23.9043 171.488C23.9043 252.879 90.1214 319.096 171.513 319.096C252.889 319.096 319.122 252.879 319.122 171.488C319.122 90.096 252.905 23.8789 171.513 23.8789ZM21.9043 171.488C21.9043 88.9915 89.0169 21.8789 171.513 21.8789C254.009 21.8789 321.122 88.9915 321.122 171.488C321.122 253.984 253.993 321.096 171.513 321.096C89.0169 321.096 21.9043 253.984 21.9043 171.488Z" fill="#000000"/>
<path fill-rule="evenodd" clip-rule="evenodd" d="M171.515 45.7949C102.088 45.7949 45.8066 102.076 45.8066 171.503C45.8066 240.93 102.088 297.211 171.515 297.211C240.942 297.211 297.223 240.93 297.223 171.503C297.223 102.076 240.942 45.7949 171.515 45.7949ZM43.8066 171.503C43.8066 100.972 100.984 43.7949 171.515 43.7949C242.046 43.7949 299.223 100.972 299.223 171.503C299.223 242.035 242.046 299.211 171.515 299.211C100.984 299.211 43.8066 242.035 43.8066 171.503Z" fill="#000000"/>
<path fill-rule="evenodd" clip-rule="evenodd" d="M171.512 69.2949C115.064 69.2949 69.3047 115.055 69.3047 171.502C69.3047 227.949 115.064 273.709 171.512 273.709C227.959 273.709 273.719 227.949 273.719 171.502C273.719 115.055 227.959 69.2949 171.512 69.2949ZM67.3047 171.502C67.3047 113.95 113.96 67.2949 171.512 67.2949C229.064 67.2949 275.719 113.95 275.719 171.502C275.719 229.054 229.064 275.709 171.512 275.709C113.96 275.709 67.3047 229.054 67.3047 171.502Z" fill="#000000"/>
<path fill-rule="evenodd" clip-rule="evenodd" d="M171.514 90.8242C126.955 90.8242 90.834 126.946 90.834 171.504C90.834 216.062 126.955 252.183 171.514 252.183C216.072 252.183 252.193 216.062 252.193 171.504C252.193 126.946 216.072 90.8242 171.514 90.8242ZM88.834 171.504C88.834 125.841 125.851 88.8242 171.514 88.8242C217.176 88.8242 254.193 125.841 254.193 171.504C254.193 217.166 217.176 254.183 171.514 254.183C125.851 254.183 88.834 217.166 88.834 171.504Z" fill="#000000"/>
</svg>
