<svg width="1200" height="501" viewBox="0 0 1200 501" fill="none" xmlns="http://www.w3.org/2000/svg">
<mask id="mask0_4058_17850" style="mask-type:alpha" maskUnits="userSpaceOnUse" x="0" y="0" width="1200" height="501">
<path d="M0 20.0313C0 8.98557 8.95431 0.03125 20 0.03125H1180C1191.05 0.03125 1200 8.98556 1200 20.0312V480.031C1200 491.077 1191.05 500.031 1180 500.031H20C8.95429 500.031 0 491.077 0 480.031V20.0313Z" fill="#E4AD50"/>
</mask>
<g mask="url(#mask0_4058_17850)">
<path fill-rule="evenodd" clip-rule="evenodd" d="M1179.51 353.826C1110.09 353.826 1053.81 410.108 1053.81 479.534C1053.81 548.961 1110.09 605.243 1179.51 605.243C1248.94 605.243 1305.22 548.961 1305.22 479.534C1305.22 410.108 1248.94 353.826 1179.51 353.826ZM1051.81 479.534C1051.81 409.003 1108.98 351.826 1179.51 351.826C1250.05 351.826 1307.22 409.003 1307.22 479.534C1307.22 550.066 1250.05 607.243 1179.51 607.243C1108.98 607.243 1051.81 550.066 1051.81 479.534Z" fill="#000000"/>
<path fill-rule="evenodd" clip-rule="evenodd" d="M1179.5 310.031C1085.89 310.031 1010 385.919 1010 479.531C1010 573.143 1085.89 649.031 1179.5 649.031C1273.11 649.031 1349 573.143 1349 479.531C1349 385.919 1273.11 310.031 1179.5 310.031ZM1008 479.531C1008 384.814 1084.78 308.031 1179.5 308.031C1274.22 308.031 1351 384.814 1351 479.531C1351 574.248 1274.22 651.031 1179.5 651.031C1084.78 651.031 1008 574.248 1008 479.531Z" fill="#000000"/>
<path fill-rule="evenodd" clip-rule="evenodd" d="M1179.51 331.91C1098.12 331.91 1031.9 398.127 1031.9 479.519C1031.9 560.91 1098.12 627.128 1179.51 627.128C1260.89 627.128 1327.12 560.91 1327.12 479.519C1327.12 398.127 1260.9 331.91 1179.51 331.91ZM1029.9 479.519C1029.9 397.023 1097.02 329.91 1179.51 329.91C1262.01 329.91 1329.12 397.023 1329.12 479.519C1329.12 562.015 1261.99 629.128 1179.51 629.128C1097.02 629.128 1029.9 562.015 1029.9 479.519Z" fill="#000000"/>
<path fill-rule="evenodd" clip-rule="evenodd" d="M1179.51 353.826C1110.09 353.826 1053.81 410.108 1053.81 479.534C1053.81 548.961 1110.09 605.243 1179.51 605.243C1248.94 605.243 1305.22 548.961 1305.22 479.534C1305.22 410.108 1248.94 353.826 1179.51 353.826ZM1051.81 479.534C1051.81 409.003 1108.98 351.826 1179.51 351.826C1250.05 351.826 1307.22 409.003 1307.22 479.534C1307.22 550.066 1250.05 607.243 1179.51 607.243C1108.98 607.243 1051.81 550.066 1051.81 479.534Z" fill="#000000"/>
<path fill-rule="evenodd" clip-rule="evenodd" d="M1179.51 377.326C1123.06 377.326 1077.3 423.086 1077.3 479.533C1077.3 535.98 1123.06 581.74 1179.51 581.74C1235.96 581.74 1281.72 535.98 1281.72 479.533C1281.72 423.086 1235.96 377.326 1179.51 377.326ZM1075.3 479.533C1075.3 421.981 1121.96 375.326 1179.51 375.326C1237.06 375.326 1283.72 421.981 1283.72 479.533C1283.72 537.085 1237.06 583.74 1179.51 583.74C1121.96 583.74 1075.3 537.085 1075.3 479.533Z" fill="#000000"/>
<path fill-rule="evenodd" clip-rule="evenodd" d="M1179.51 398.855C1134.96 398.855 1098.83 434.977 1098.83 479.535C1098.83 524.093 1134.96 560.215 1179.51 560.215C1224.07 560.215 1260.19 524.093 1260.19 479.535C1260.19 434.977 1224.07 398.855 1179.51 398.855ZM1096.83 479.535C1096.83 433.872 1133.85 396.855 1179.51 396.855C1225.18 396.855 1262.19 433.872 1262.19 479.535C1262.19 525.198 1225.18 562.215 1179.51 562.215C1133.85 562.215 1096.83 525.198 1096.83 479.535Z" fill="#000000"/>
<path fill-rule="evenodd" clip-rule="evenodd" d="M-0.486 -120.973C-67.0397 -120.973 -120.992 -67.0202 -120.992 -0.466492C-120.992 66.0872 -67.0397 120.04 -0.486 120.04C66.0677 120.04 120.02 66.0872 120.02 -0.466492C120.02 -67.0202 66.0677 -120.973 -0.486 -120.973ZM-122.992 -0.466492C-122.992 -68.1248 -68.1443 -122.973 -0.486 -122.973C67.1723 -122.973 122.02 -68.1248 122.02 -0.466492C122.02 67.1918 67.1723 122.04 -0.486 122.04C-68.1443 122.04 -122.992 67.1918 -122.992 -0.466492Z" fill="#000000"/>
<path fill-rule="evenodd" clip-rule="evenodd" d="M-0.50007 -162.969C-90.2464 -162.969 -163 -90.2151 -163 -0.46882C-163 89.2775 -90.2464 162.031 -0.50007 162.031C89.2462 162.031 162 89.2775 162 -0.46882C162 -90.2151 89.2462 -162.969 -0.50007 -162.969ZM-165 -0.46882C-165 -91.3196 -91.3509 -164.969 -0.50007 -164.969C90.3507 -164.969 164 -91.3196 164 -0.46882C164 90.382 90.3507 164.031 -0.50007 164.031C-91.3509 164.031 -165 90.382 -165 -0.46882Z" fill="#000000"/>
<path fill-rule="evenodd" clip-rule="evenodd" d="M-0.486725 -141.988C-78.514 -141.988 -141.994 -78.5081 -141.994 -0.480865C-141.994 77.5464 -78.514 141.027 -0.486725 141.027C77.5257 141.027 141.021 77.5463 141.021 -0.480865C141.021 -78.5081 77.5406 -141.988 -0.486725 -141.988ZM-143.994 -0.480865C-143.994 -79.6127 -79.6186 -143.988 -0.486725 -143.988C78.6451 -143.988 143.021 -79.6127 143.021 -0.480865C143.021 78.651 78.6301 143.027 -0.486725 143.027C-79.6186 143.027 -143.994 78.651 -143.994 -0.480865Z" fill="#000000"/>
<path fill-rule="evenodd" clip-rule="evenodd" d="M-0.486 -120.973C-67.0397 -120.973 -120.992 -67.0202 -120.992 -0.466492C-120.992 66.0872 -67.0397 120.04 -0.486 120.04C66.0677 120.04 120.02 66.0872 120.02 -0.466492C120.02 -67.0202 66.0677 -120.973 -0.486 -120.973ZM-122.992 -0.466492C-122.992 -68.1248 -68.1443 -122.973 -0.486 -122.973C67.1723 -122.973 122.02 -68.1248 122.02 -0.466492C122.02 67.1918 67.1723 122.04 -0.486 122.04C-68.1443 122.04 -122.992 67.1918 -122.992 -0.466492Z" fill="#000000"/>
<path fill-rule="evenodd" clip-rule="evenodd" d="M-0.487335 -98.4375C-54.5945 -98.4375 -98.457 -54.575 -98.457 -0.467812C-98.457 53.6394 -54.5945 97.5019 -0.487335 97.5019C53.6198 97.5019 97.4824 53.6394 97.4824 -0.467812C97.4824 -54.575 53.6198 -98.4375 -0.487335 -98.4375ZM-100.457 -0.467812C-100.457 -55.6796 -55.6991 -100.438 -0.487335 -100.438C54.7244 -100.438 99.4824 -55.6796 99.4824 -0.467812C99.4824 54.7439 54.7244 99.5019 -0.487335 99.5019C-55.6991 99.5019 -100.457 54.7439 -100.457 -0.467812Z" fill="#000000"/>
<path fill-rule="evenodd" clip-rule="evenodd" d="M-0.488274 -77.791C-43.1943 -77.791 -77.8145 -43.1709 -77.8145 -0.464851C-77.8145 42.2412 -43.1943 76.8613 -0.488274 76.8613C42.2178 76.8613 76.8379 42.2412 76.8379 -0.464851C76.8379 -43.1709 42.2178 -77.791 -0.488274 -77.791ZM-79.8145 -0.464851C-79.8145 -44.2755 -44.2989 -79.791 -0.488274 -79.791C43.3224 -79.791 78.8379 -44.2755 78.8379 -0.464851C78.8379 43.3458 43.3224 78.8613 -0.488274 78.8613C-44.2989 78.8613 -79.8145 43.3458 -79.8145 -0.464851Z" fill="#000000"/>
</g>
</svg>
