<svg width="24" height="24" viewBox="0 0 24 24" fill="none" xmlns="http://www.w3.org/2000/svg">
<path d="M12 24C15.1825 24 18.235 22.7356 20.4853 20.4853C22.7356 18.2347 24 15.1825 24 12C24 8.8175 22.7356 5.76497 20.4853 3.51473C18.2347 1.26435 15.1825 0 12 0C8.8175 0 5.76497 1.26435 3.51473 3.51473C1.26435 5.7653 0 8.8175 0 12C0 15.1825 1.26435 18.235 3.51473 20.4853C5.7653 22.7356 8.8175 24 12 24ZM5.77105 12.3163C5.97541 12.1132 6.25191 11.9991 6.54009 11.9991C6.82847 11.9991 7.10478 12.1132 7.30933 12.3163L9.8183 14.8255L16.1347 8.50911C16.4156 8.26859 16.7991 8.18677 17.1536 8.2916C17.5082 8.39643 17.7855 8.67385 17.8903 9.02834C17.9953 9.38301 17.9133 9.76653 17.6728 10.0474L10.5817 17.1385L10.5819 17.1383C10.3774 17.3416 10.101 17.4556 9.81267 17.4556C9.52448 17.4556 9.24798 17.3416 9.04363 17.1383L5.77089 13.8656C5.56433 13.6609 5.44818 13.382 5.44818 13.0911C5.44818 12.8003 5.56434 12.5214 5.77089 12.3166L5.77105 12.3163Z" fill="#000000"/>
</svg>
