<svg width="164" height="164" viewBox="0 0 164 164" fill="none" xmlns="http://www.w3.org/2000/svg">
<path fill-rule="evenodd" clip-rule="evenodd" d="M-0.486 -121.004C-67.0397 -121.004 -120.992 -67.0515 -120.992 -0.497742C-120.992 66.056 -67.0397 120.008 -0.486 120.008C66.0677 120.008 120.02 66.056 120.02 -0.497742C120.02 -67.0515 66.0677 -121.004 -0.486 -121.004ZM-122.992 -0.497742C-122.992 -68.156 -68.1443 -123.004 -0.486 -123.004C67.1723 -123.004 122.02 -68.156 122.02 -0.497742C122.02 67.1606 67.1723 122.008 -0.486 122.008C-68.1443 122.008 -122.992 67.1606 -122.992 -0.497742Z" fill="#000000"/>
<path fill-rule="evenodd" clip-rule="evenodd" d="M-0.50007 -163C-90.2464 -163 -163 -90.2464 -163 -0.50007C-163 89.2462 -90.2464 162 -0.50007 162C89.2462 162 162 89.2462 162 -0.50007C162 -90.2464 89.2462 -163 -0.50007 -163ZM-165 -0.50007C-165 -91.3509 -91.3509 -165 -0.50007 -165C90.3507 -165 164 -91.3509 164 -0.50007C164 90.3507 90.3507 164 -0.50007 164C-91.3509 164 -165 90.3507 -165 -0.50007Z" fill="#000000"/>
<path fill-rule="evenodd" clip-rule="evenodd" d="M-0.486725 -142.02C-78.514 -142.02 -141.994 -78.5394 -141.994 -0.512115C-141.994 77.5152 -78.514 140.995 -0.486725 140.995C77.5257 140.995 141.021 77.5151 141.021 -0.512115C141.021 -78.5394 77.5406 -142.02 -0.486725 -142.02ZM-143.994 -0.512115C-143.994 -79.644 -79.6186 -144.02 -0.486725 -144.02C78.6451 -144.02 143.021 -79.644 143.021 -0.512115C143.021 78.6198 78.6301 142.995 -0.486725 142.995C-79.6186 142.995 -143.994 78.6197 -143.994 -0.512115Z" fill="#000000"/>
<path fill-rule="evenodd" clip-rule="evenodd" d="M-0.486 -121.004C-67.0397 -121.004 -120.992 -67.0515 -120.992 -0.497742C-120.992 66.056 -67.0397 120.008 -0.486 120.008C66.0677 120.008 120.02 66.056 120.02 -0.497742C120.02 -67.0515 66.0677 -121.004 -0.486 -121.004ZM-122.992 -0.497742C-122.992 -68.156 -68.1443 -123.004 -0.486 -123.004C67.1723 -123.004 122.02 -68.156 122.02 -0.497742C122.02 67.1606 67.1723 122.008 -0.486 122.008C-68.1443 122.008 -122.992 67.1606 -122.992 -0.497742Z" fill="#000000"/>
<path fill-rule="evenodd" clip-rule="evenodd" d="M-0.487335 -98.4688C-54.5945 -98.4688 -98.457 -54.6062 -98.457 -0.499062C-98.457 53.6081 -54.5945 97.4706 -0.487335 97.4706C53.6198 97.4706 97.4824 53.6081 97.4824 -0.499062C97.4824 -54.6062 53.6198 -98.4688 -0.487335 -98.4688ZM-100.457 -0.499062C-100.457 -55.7108 -55.6991 -100.469 -0.487335 -100.469C54.7244 -100.469 99.4824 -55.7108 99.4824 -0.499062C99.4824 54.7127 54.7244 99.4706 -0.487335 99.4706C-55.6991 99.4706 -100.457 54.7127 -100.457 -0.499062Z" fill="#000000"/>
<path fill-rule="evenodd" clip-rule="evenodd" d="M-0.488274 -77.8223C-43.1943 -77.8223 -77.8145 -43.2022 -77.8145 -0.496101C-77.8145 42.21 -43.1943 76.8301 -0.488274 76.8301C42.2178 76.8301 76.8379 42.21 76.8379 -0.496101C76.8379 -43.2022 42.2178 -77.8223 -0.488274 -77.8223ZM-79.8145 -0.496101C-79.8145 -44.3067 -44.2989 -79.8223 -0.488274 -79.8223C43.3224 -79.8223 78.8379 -44.3067 78.8379 -0.496101C78.8379 43.3145 43.3224 78.8301 -0.488274 78.8301C-44.2989 78.8301 -79.8145 43.3145 -79.8145 -0.496101Z" fill="#000000"/>
</svg>
