<svg width="70" height="61" viewBox="0 0 70 61" fill="none" xmlns="http://www.w3.org/2000/svg">
<rect x="0.15" y="0.454688" width="69.7" height="59.7" rx="3.85" fill="#FBF3FF"/>
<path fill-rule="evenodd" clip-rule="evenodd" d="M21.1262 24.6278C21.129 25.3927 21.7502 26.0111 22.5149 26.0111H26.673V41.396C26.6465 43.2741 29.4771 43.2741 29.4506 41.396V26.0111H33.5953C34.841 26.0125 35.4594 24.5008 34.569 23.6297L29.0275 18.2019C28.4874 17.6723 27.6228 17.6723 27.0827 18.2019L21.5412 23.6294C21.2737 23.8926 21.1239 24.2525 21.1262 24.6277L21.1262 24.6278ZM35.0136 36.0279C35.0248 36.3859 35.1731 36.726 35.4286 36.9772L40.9701 42.4075C41.5101 42.9371 42.3748 42.9371 42.9149 42.4075L48.4563 36.9772C49.3419 36.1055 48.7251 34.5987 47.4827 34.5983H43.3245V19.2134C43.351 17.3353 40.5205 17.3353 40.5469 19.2134V34.5983H36.4023C35.6193 34.598 34.9906 35.2448 35.0136 36.0277L35.0136 36.0279Z" fill="#8948A8"/>
<rect x="0.15" y="0.454688" width="69.7" height="59.7" rx="3.85" stroke="#8948A8" stroke-width="0.3"/>
</svg>
