<svg width="50" height="50" viewBox="0 0 50 50" fill="none" xmlns="http://www.w3.org/2000/svg">
<circle cx="25" cy="25" r="25" fill="#000000"/>
<g clip-path="url(#clip0)">
<path d="M25.3692 29.3962V29.2989C24.8714 29.2934 24.3953 29.2664 23.9353 29.2285C23.6864 29.8724 23.3348 30.473 22.8965 31.0086C23.7243 31.1439 24.563 31.2197 25.4016 31.2305L25.3692 29.3962Z" fill="#000000"/>
<path d="M23.1779 25.8142C22.7775 23.8988 21.3653 22.3405 19.4877 21.7508C18.9683 21.5939 18.4327 21.5127 17.8916 21.5127C16.5497 21.5181 15.2512 22.0159 14.261 22.9141C12.0588 24.916 11.9019 28.3302 13.9039 30.5324C15.9058 32.7345 19.32 32.8914 21.5222 30.8895C22.6476 29.8668 23.2915 28.4222 23.2861 26.9018C23.2861 26.5393 23.2482 26.1713 23.1779 25.8142ZM17.8916 26.1767C18.806 26.1767 19.6122 26.7827 19.8611 27.6647C20.1641 28.7522 19.5364 29.8777 18.4435 30.1861V30.6622C18.4435 30.9598 18.2 31.2033 17.9024 31.2033C17.6048 31.2033 17.3613 30.9598 17.3613 30.6622V30.1915C16.4686 29.948 15.8517 29.1418 15.8463 28.2166C15.8463 27.919 16.0898 27.6755 16.3874 27.6755C16.685 27.6755 16.9285 27.919 16.9285 28.2166C16.9285 28.7468 17.3613 29.1743 17.8916 29.1743C18.4218 29.1743 18.8493 28.7414 18.8493 28.2112C18.8493 27.6809 18.4164 27.2535 17.8862 27.2535C16.9609 27.2535 16.1547 26.6312 15.9167 25.7385C15.6299 24.6563 16.2792 23.5309 17.3667 23.2387V23.0061C17.3667 22.7085 17.6102 22.465 17.9078 22.465C18.2054 22.465 18.4489 22.7085 18.4489 23.0061V23.2495C19.3308 23.4984 19.9368 24.3046 19.9368 25.219C19.9368 25.5166 19.6933 25.7601 19.3958 25.7601C19.0982 25.7601 18.8547 25.5166 18.8547 25.219C18.8547 24.6888 18.4218 24.2559 17.8916 24.2559C17.3613 24.2559 16.9339 24.6834 16.9285 25.219C16.9285 25.7493 17.3613 26.1767 17.8916 26.1767Z" fill="#000000"/>
<path d="M25.3533 28.2111L25.3209 26.2957C24.9854 26.2903 24.6554 26.2795 24.3415 26.2578C24.3578 26.4742 24.3686 26.6853 24.3686 26.8963C24.3686 27.3183 24.3253 27.7458 24.2441 28.1624C24.6012 28.1949 24.9746 28.2111 25.3533 28.2111Z" fill="#000000"/>
<path d="M31.2777 19.2563C30.9043 19.4511 30.5094 19.608 30.1035 19.7271C28.8861 20.095 27.29 20.2952 25.6235 20.2952C24.0273 20.2952 22.5069 20.1112 21.3328 19.7704C20.927 19.6622 20.5374 19.5107 20.1641 19.3213L20.2019 20.8471C20.8133 21.0743 21.3815 21.399 21.8955 21.8048C21.9117 21.8102 21.9225 21.8102 21.9388 21.8156C22.9776 22.0807 24.287 22.2214 25.6235 22.2214C27.1709 22.2214 28.6914 22.0266 29.7897 21.6966C30.9639 21.3395 31.2236 20.9661 31.2236 20.8958C31.2236 20.82 31.2182 20.7497 31.2777 20.674V19.2563Z" fill="#000000"/>
<path d="M29.7837 17.1083C28.6854 16.7729 27.1649 16.5835 25.6175 16.5835C24.0592 16.5835 22.5983 16.7729 21.5053 17.1083C20.3637 17.4546 20.1148 17.7955 20.1094 17.9037C20.1094 17.9037 20.1148 17.9037 20.1148 17.9145C20.1418 18.0336 20.4665 18.4015 21.6298 18.737C22.7065 19.0508 24.1241 19.2239 25.6175 19.2239C27.1649 19.2239 28.68 19.0346 29.7783 18.7045C30.9525 18.3528 31.2176 17.9795 31.2176 17.9037C31.2176 17.8334 30.9579 17.4654 29.7837 17.1083Z" fill="#000000"/>
<path d="M37.4889 32.0798V30.4565C37.1264 30.6405 36.7476 30.7974 36.3526 30.9165C35.1406 31.2844 33.5553 31.4846 31.8834 31.4846C30.4008 31.4846 28.9562 31.3168 27.8199 31.0193C27.3546 30.9002 26.9055 30.7379 26.4727 30.5269L26.4997 32.096C26.4997 32.1014 26.4997 32.1014 26.4997 32.1068C26.4997 32.188 26.7378 32.5505 27.8794 32.9022C28.9616 33.2322 30.4225 33.4162 31.9862 33.4162C33.5445 33.4162 35.0108 33.2268 36.1037 32.886C37.2454 32.5288 37.4943 32.1555 37.4943 32.0798H37.4889Z" fill="#000000"/>
<path d="M31.2674 22.2759C30.894 22.4653 30.5044 22.6222 30.0986 22.7412C28.8812 23.1091 27.2851 23.3093 25.6132 23.3093C24.7907 23.3093 23.9737 23.2552 23.1621 23.1524C23.6004 23.7584 23.925 24.4402 24.1306 25.1652C24.5959 25.1977 25.0991 25.2193 25.6186 25.2193C25.6348 25.2193 25.6564 25.2193 25.6727 25.2193C26.56 24.2454 28.9462 23.7584 31.2674 23.6935V22.2759Z" fill="#000000"/>
<path d="M36.3146 27.9243C35.108 28.2814 33.5389 28.4762 31.8941 28.4762C30.2979 28.4762 28.7775 28.2922 27.6034 27.9513C27.1976 27.8377 26.8026 27.6862 26.4238 27.4968L26.4455 28.7413L26.4509 29.1958C26.8729 29.7206 28.8911 30.397 31.8887 30.397C33.4523 30.397 34.9295 30.213 36.0387 29.8775C37.2074 29.5204 37.4617 29.1525 37.4617 29.0767C37.4617 29.0172 37.4942 28.9523 37.4942 28.8982H37.4996V27.4644C37.1208 27.6537 36.7258 27.8161 36.3146 27.9243Z" fill="#000000"/>
<path d="M36.0611 25.3002C34.9573 24.9647 33.4423 24.7861 31.8948 24.7861H31.8028C30.3636 24.7861 28.9947 24.9485 27.945 25.246C26.825 25.5599 26.4408 25.917 26.3921 26.0631C26.3867 26.0739 26.3867 26.0793 26.3867 26.0847C26.3867 26.0847 26.3867 26.0847 26.3975 26.1063C26.43 26.22 26.7492 26.5879 27.9125 26.9288C28.9893 27.2372 30.4069 27.4103 31.9002 27.4103C33.4423 27.4103 34.9032 27.2318 36.0124 26.9017C37.2136 26.5446 37.4841 26.1713 37.4895 26.0901V26.0847C37.4841 26.0035 37.2136 25.6464 36.0611 25.3002Z" fill="#000000"/>
</g>
<defs>
<clipPath id="clip0">
<rect width="25" height="25" fill="white" transform="translate(12.5 12.5)"/>
</clipPath>
</defs>
</svg>
