<svg width="46" height="35" viewBox="0 0 46 35" fill="none" xmlns="http://www.w3.org/2000/svg">
<path d="M45.3129 31.2521L37.9402 23.8795C36.7951 22.7346 36.0738 21.2341 35.8949 19.6248C35.716 18.0157 34.995 16.5152 33.8504 15.3701L26.7801 8.2998L14.627 20.4537L20.2598 26.0865C20.9093 26.7358 21.7365 27.1784 22.6371 27.3584C23.5375 27.5389 24.3644 27.9817 25.0137 28.6311L30.7605 34.3771H45.3129V31.2521Z" fill="#EDB88E"/>
<path d="M30.9723 30.4561C31.5367 30.9393 32.2137 31.2727 32.9409 31.4254C33.6681 31.5782 34.422 31.5455 35.1332 31.3303L43.0105 28.9482L45.3129 31.2521V34.3771H30.7605L25.0137 28.6311C24.4014 28.0096 23.6229 27.5777 22.7715 27.3873C21.8263 27.2052 20.9539 26.7534 20.2598 26.0865L14.627 20.4537L26.7801 8.2998L33.8504 15.3701L33.8793 15.3998C34.5956 16.1201 34.997 17.095 34.9955 18.1108C34.9941 19.1266 34.5898 20.1004 33.8715 20.8186L30.723 23.967C30.292 24.3982 29.9546 24.9138 29.7322 25.4815C29.5098 26.0492 29.407 26.6567 29.4304 27.266C29.4538 27.8752 29.6028 28.4731 29.8682 29.022C30.1335 29.571 30.5094 30.0592 30.9723 30.4561Z" fill="#DA9367"/>
<path d="M16.8813 1.93867C16.9734 2.33892 17.1435 2.71709 17.3818 3.05155C17.6202 3.38601 17.9222 3.67021 18.2704 3.88788C18.6187 4.10556 19.0065 4.25245 19.4116 4.32014C19.8167 4.38784 20.2311 4.37502 20.6313 4.28242L22.1539 3.93086L23.5602 10.0207L28.125 8.96445L26.8946 3.63633C26.7564 3.03595 26.5013 2.4687 26.1437 1.96701C25.7862 1.46531 25.3332 1.03902 24.8108 0.712509C24.2884 0.385995 23.7067 0.165664 23.0991 0.0641171C22.4915 -0.03743 21.8698 -0.0182018 21.2696 0.120701L17.4672 1.00195C17.3672 1.02498 17.2728 1.06748 17.1892 1.12702C17.1057 1.18656 17.0346 1.26197 16.9802 1.34896C16.9258 1.43594 16.8891 1.53279 16.8721 1.63397C16.8551 1.73515 16.8582 1.83869 16.8813 1.93867Z" fill="#F9DBAF"/>
<path d="M26.8937 3.63613C26.6248 2.46776 25.9165 1.44775 24.9156 0.787696C25.0048 1.20702 24.9868 1.64206 24.8632 2.05256C24.7396 2.46306 24.5145 2.83575 24.2086 3.13613C24.1273 3.21739 24.0265 3.27653 23.9159 3.30794C23.8054 3.33935 23.6886 3.342 23.5767 3.31563C23.4648 3.28926 23.3615 3.23474 23.2765 3.15725C23.1916 3.07977 23.1279 2.98187 23.0914 2.87285C22.971 2.51161 22.7229 2.20676 22.3936 2.01557C22.0643 1.82439 21.6765 1.76002 21.3031 1.83457L20.9703 1.90098C20.4871 1.99668 19.9861 1.9392 19.5371 1.73655C19.0881 1.53391 18.7135 1.19619 18.4656 0.770508L17.4664 1.00488C17.3663 1.02791 17.2718 1.07043 17.1882 1.13002C17.1046 1.18961 17.0335 1.2651 16.9791 1.35217C16.9247 1.43924 16.888 1.53619 16.871 1.63746C16.8541 1.73873 16.8573 1.84235 16.8805 1.94238C16.9726 2.34263 17.1427 2.7208 17.381 3.05526C17.6194 3.38972 17.9214 3.67392 18.2696 3.89159C18.6179 4.10927 19.0057 4.25616 19.4108 4.32385C19.8159 4.39155 20.2303 4.37873 20.6305 4.28613L22.1531 3.93457L23.5594 10.0244L28.1242 8.96426L26.8937 3.63613Z" fill="#EDB88E"/>
<path d="M29.2891 2.91745C29.1077 2.73603 28.8924 2.59212 28.6554 2.49394C28.4184 2.39575 28.1643 2.34521 27.9078 2.34521C27.6513 2.34521 27.3973 2.39575 27.1603 2.49394C26.9233 2.59212 26.7079 2.73603 26.5266 2.91745L13.1031 16.3409C11.9584 17.4859 11.2373 18.9864 11.0586 20.5956C10.8796 22.2045 10.1586 23.7046 9.01406 24.8495L0 33.8635V34.3768H14.9547L20.8352 28.4964C21.4844 27.8471 22.3113 27.4045 23.2117 27.2245C24.1123 27.0443 24.9394 26.6018 25.5891 25.9526L30.6672 20.8745L35.3633 16.1792C35.7296 15.8128 35.9354 15.316 35.9354 14.7979C35.9354 14.2799 35.7296 13.783 35.3633 13.4167C34.997 13.0503 34.5001 12.8445 33.982 12.8445C33.464 12.8445 32.9671 13.0503 32.6008 13.4167L33.1531 12.8643C33.3347 12.6829 33.4787 12.4676 33.577 12.2305C33.6753 11.9935 33.726 11.7394 33.7261 11.4827C33.7262 11.2261 33.6758 10.972 33.5776 10.7348C33.4795 10.4977 33.3357 10.2822 33.1543 10.1007C32.9729 9.91911 32.7575 9.77508 32.5205 9.67677C32.2834 9.57846 32.0293 9.5278 31.7727 9.5277C31.5161 9.52759 31.2619 9.57803 31.0248 9.67613C30.7877 9.77424 30.5722 9.9181 30.3906 10.0995L30.943 9.54714C31.1244 9.36575 31.2682 9.15041 31.3664 8.91342C31.4646 8.67642 31.5151 8.42241 31.5151 8.16589C31.5151 7.90937 31.4646 7.65536 31.3664 7.41836C31.2682 7.18137 31.1244 6.96603 30.943 6.78464C30.7616 6.60325 30.5462 6.45937 30.3092 6.3612C30.0723 6.26303 29.8182 6.21251 29.5617 6.21251C29.3052 6.21251 29.0512 6.26303 28.8142 6.3612C28.5772 6.45937 28.3619 6.60325 28.1805 6.78464L29.2859 5.67995C29.4676 5.49879 29.6117 5.28362 29.7102 5.04673C29.8086 4.80984 29.8594 4.55588 29.8597 4.29935C29.86 4.04282 29.8098 3.78874 29.7119 3.55164C29.6139 3.31453 29.4703 3.09903 29.2891 2.91745Z" fill="#F9DBAF"/>
<path d="M27.6364 2.37175C28.0001 2.73851 28.2038 3.23444 28.2028 3.751C28.2018 4.26756 27.9961 4.76268 27.6309 5.128L25.145 7.61394C24.8521 7.90695 24.6875 8.3043 24.6875 8.71862C24.6875 9.13294 24.8521 9.5303 25.145 9.82331L29.2856 5.68268C29.576 5.3939 29.768 5.02092 29.8342 4.61677C29.9005 4.21262 29.8377 3.79786 29.6547 3.43147C29.4717 3.06507 29.1779 2.76568 28.815 2.57586C28.4521 2.38603 28.0386 2.31543 27.6333 2.37409L27.6364 2.37175Z" fill="#EDB88E"/>
<path d="M29.2963 6.23916C29.66 6.60578 29.8636 7.10149 29.8627 7.61786C29.8619 8.13423 29.6565 8.62924 29.2917 8.99463L26.2495 12.0337C25.9565 12.3267 25.792 12.7241 25.792 13.1384C25.792 13.5527 25.9565 13.95 26.2495 14.2431L30.9448 9.54775C31.2347 9.25916 31.4264 8.88661 31.4927 8.48294C31.559 8.07927 31.4964 7.66498 31.314 7.29884C31.1316 6.93269 30.8385 6.63328 30.4764 6.44307C30.1142 6.25287 29.7013 6.18152 29.2963 6.23916Z" fill="#EDB88E"/>
<path d="M31.5036 9.55394C31.8671 9.92067 32.0706 10.4164 32.0696 10.9328C32.0685 11.4492 31.8631 11.9441 31.4981 12.3094L29.0122 14.7953C28.7192 15.0884 28.5547 15.4857 28.5547 15.9C28.5547 16.3144 28.7192 16.7117 29.0122 17.0047L33.1528 12.8641C33.4433 12.5755 33.6354 12.2026 33.7017 11.7985C33.7681 11.3944 33.7054 10.9797 33.5224 10.6133C33.3395 10.247 33.0457 9.94759 32.6828 9.75782C32.32 9.56804 31.9065 9.49752 31.5012 9.55628L31.5036 9.55394Z" fill="#EDB88E"/>
<path d="M33.6992 12.8692C33.7499 12.914 33.7981 12.9615 33.8438 13.0114C34.144 13.4084 34.2881 13.9017 34.2486 14.3978C34.2091 14.894 33.9889 15.3583 33.6297 15.7028L29.0125 20.3192L25.3516 23.9802C24.9199 24.4118 24.3821 24.7221 23.7923 24.8796C23.2025 25.0372 22.5816 25.0366 21.9922 24.8778C21.5084 24.7476 21.0022 24.7235 20.5082 24.8072C20.0143 24.891 19.5443 25.0806 19.1305 25.363C17.6919 26.3452 16.3481 27.4594 15.1164 28.6911C14.1784 29.629 12.916 30.1707 11.5899 30.2043C10.2639 30.2379 8.97567 29.7608 7.99141 28.8716L6.41563 27.4481L0 33.8638V34.3771H14.9547L20.8352 28.4966C21.4844 27.8473 22.3113 27.4047 23.2117 27.2247C24.1123 27.0446 24.9394 26.602 25.5891 25.9528L30.6672 20.8747L35.3633 16.1794C35.6548 15.8898 35.8472 15.5154 35.913 15.1098C35.9789 14.7043 35.9147 14.2883 35.7299 13.9213C35.545 13.5544 35.2487 13.2553 34.8836 13.0669C34.5184 12.8785 34.1031 12.8104 33.6969 12.8724L33.6992 12.8692Z" fill="#EDB88E"/>
<path d="M22.6553 11.9863C22.4747 12.1683 22.2598 12.3126 22.0232 12.4112C21.7865 12.5097 21.5327 12.5604 21.2764 12.5604C21.02 12.5604 20.7662 12.5097 20.5295 12.4112C20.2929 12.3126 20.0781 12.1683 19.8975 11.9863C20.0837 12.1668 20.2322 12.3825 20.3342 12.6209C20.4362 12.8593 20.4897 13.1157 20.4916 13.375C20.4935 13.6344 20.4437 13.8915 20.3452 14.1314C20.2466 14.3712 20.1013 14.5891 19.9176 14.7722C19.734 14.9553 19.5157 15.1 19.2756 15.1979C19.0354 15.2958 18.7782 15.3448 18.5189 15.3422C18.2595 15.3396 18.0033 15.2854 17.7652 15.1827C17.527 15.08 17.3117 14.9309 17.1318 14.7441L16.0303 13.6426L15.9131 13.5254L21.4365 8.00195L22.6553 9.2207C22.8372 9.40213 22.9815 9.61766 23.0799 9.85495C23.1784 10.0922 23.2291 10.3466 23.2291 10.6035C23.2291 10.8604 23.1784 11.1148 23.0799 11.3521C22.9815 11.5894 22.8372 11.8049 22.6553 11.9863Z" fill="#DA9367"/>
<path d="M16.0322 16.4082C15.6641 16.7723 15.1672 16.9765 14.6494 16.9765C14.1316 16.9765 13.6347 16.7723 13.2666 16.4082C13.5754 16.7217 13.7694 17.1302 13.817 17.5677C13.8646 18.0052 13.763 18.4459 13.5288 18.8184C13.2946 19.191 12.9415 19.4735 12.5266 19.6203C12.1118 19.767 11.6595 19.7694 11.2432 19.627C11.5533 18.3823 12.196 17.2454 13.1025 16.3379L15.915 13.5254L16.0322 13.6426C16.2141 13.824 16.3584 14.0395 16.4569 14.2768C16.5553 14.5141 16.606 14.7685 16.606 15.0254C16.606 15.2823 16.5553 15.5367 16.4569 15.774C16.3584 16.0112 16.2141 16.2268 16.0322 16.4082Z" fill="#DA9367"/>
<path d="M16.0254 7.33691C15.2628 6.57429 14.0263 6.57429 13.2637 7.33691C12.501 8.09954 12.501 9.33601 13.2637 10.0986L17.1301 13.965C17.8927 14.7277 19.1292 14.7277 19.8918 13.965C20.6544 13.2024 20.6544 11.9659 19.8918 11.2033L16.0254 7.33691Z" fill="#F9DBAF"/>
<path d="M18.7881 4.57568C18.0255 3.81306 16.789 3.81306 16.0264 4.57568C15.2637 5.33831 15.2637 6.57477 16.0264 7.3374L19.8928 11.2038C20.6554 11.9664 21.8919 11.9664 22.6545 11.2038C23.4171 10.4412 23.4171 9.20472 22.6545 8.44209L18.7881 4.57568Z" fill="#F9DBAF"/>
<path d="M13.8164 10.6509C13.0538 9.88825 11.8173 9.88825 11.0547 10.6509C10.2921 11.4135 10.2921 12.65 11.0547 13.4126L13.2641 15.622C14.0267 16.3846 15.2632 16.3846 16.0258 15.622C16.7884 14.8593 16.7884 13.6229 16.0258 12.8603L13.8164 10.6509Z" fill="#F9DBAF"/>
<path d="M12.1582 14.5171C11.3956 13.7545 10.1591 13.7545 9.39648 14.5171C8.63386 15.2797 8.63386 16.5162 9.39648 17.2788L10.5012 18.3835C11.2638 19.1461 12.5003 19.1461 13.2629 18.3835C14.0255 17.6209 14.0255 16.3844 13.2629 15.6218L12.1582 14.5171Z" fill="#F9DBAF"/>
<path d="M19.898 12.4034C19.7167 12.5848 19.5013 12.7287 19.2643 12.8269C19.0273 12.9251 18.7733 12.9757 18.5168 12.9757C18.2602 12.9757 18.0062 12.9251 17.7692 12.8269C17.5322 12.7287 17.3169 12.5848 17.1355 12.4034L13.2683 8.53701C13.0974 8.36388 12.9601 8.16041 12.8636 7.93701C12.706 8.2964 12.6604 8.69493 12.7325 9.08066C12.8047 9.46639 12.9914 9.82143 13.2683 10.0995L17.1355 13.9659C17.4578 14.2848 17.881 14.4816 18.3325 14.5226C18.7841 14.5636 19.2358 14.4463 19.6102 14.1907C19.9847 13.9351 20.2586 13.5572 20.3849 13.1218C20.5113 12.6863 20.4822 12.2205 20.3027 11.8042C20.2064 12.0275 20.0692 12.2307 19.898 12.4034Z" fill="#EDB88E"/>
<path d="M22.6556 9.64199C22.2894 10.0081 21.7927 10.2138 21.2748 10.2138C20.7569 10.2138 20.2602 10.0081 19.8939 9.64199L16.0267 5.7748C15.8562 5.60181 15.7197 5.39827 15.6244 5.1748C15.4668 5.53419 15.4211 5.93272 15.4933 6.31845C15.5655 6.70418 15.7522 7.05922 16.0291 7.3373L19.8963 11.2045C20.2187 11.5231 20.6419 11.7197 21.0933 11.7605C21.5448 11.8013 21.9963 11.6838 22.3707 11.4282C22.745 11.1725 23.0187 10.7946 23.145 10.3593C23.2712 9.92394 23.2421 9.45823 23.0627 9.04199C22.9661 9.26588 22.828 9.46947 22.6556 9.64199Z" fill="#EDB88E"/>
<path d="M16.0312 14.0645C15.8499 14.246 15.6345 14.3899 15.3975 14.4881C15.1605 14.5863 14.9065 14.6368 14.65 14.6368C14.3934 14.6368 14.1394 14.5863 13.9024 14.4881C13.6654 14.3899 13.4501 14.246 13.2687 14.0645L11.0594 11.8544C10.888 11.6816 10.7507 11.478 10.6547 11.2544C10.4971 11.6138 10.4514 12.0123 10.5236 12.398C10.5957 12.7838 10.7825 13.1388 11.0594 13.4169L13.2687 15.627C13.591 15.9462 14.0144 16.1432 14.4661 16.1843C14.9178 16.2254 15.3697 16.108 15.7443 15.8522C16.1189 15.5964 16.3928 15.2183 16.519 14.7826C16.6452 14.3469 16.6158 13.8809 16.4359 13.4645C16.3397 13.6881 16.2024 13.8916 16.0312 14.0645Z" fill="#EDB88E"/>
<path d="M13.2685 16.8229C12.9023 17.189 12.4056 17.3947 11.8877 17.3947C11.3698 17.3947 10.8731 17.189 10.5068 16.8229L9.40212 15.7182C9.23048 15.5456 9.09315 15.342 8.99744 15.1182C8.83984 15.4776 8.79415 15.8761 8.86634 16.2618C8.93852 16.6475 9.12523 17.0026 9.40212 17.2807L10.5068 18.3854C10.8293 18.7035 11.2524 18.8996 11.7036 18.9401C12.1547 18.9806 12.606 18.8631 12.98 18.6076C13.3541 18.352 13.6277 17.9744 13.754 17.5394C13.8803 17.1044 13.8515 16.639 13.6724 16.2229C13.577 16.4466 13.4399 16.6502 13.2685 16.8229Z" fill="#EDB88E"/>
</svg>
