<svg width="350" height="261" viewBox="0 0 350 261" fill="none" xmlns="http://www.w3.org/2000/svg">
<g clip-path="url(#clip0_4598_17781)">
<path d="M350 229.18H0V229.32H350V229.18Z" fill="#EAEBF1"/>
<path d="M314.93 240.449H291.76V240.589H314.93V240.449Z" fill="#EAEBF1"/>
<path d="M231.84 242.41H225.75V242.55H231.84V242.41Z" fill="#EAEBF1"/>
<path d="M291.06 234.012H277.62V234.152H291.06V234.012Z" fill="#EAEBF1"/>
<path d="M66.99 235.129H36.75V235.269H66.99V235.129Z" fill="#EAEBF1"/>
<path d="M77.63 235.129H73.22V235.269H77.63V235.129Z" fill="#EAEBF1"/>
<path d="M157.64 238.141H92.05V238.281H157.64V238.141Z" fill="#EAEBF1"/>
<path d="M165.9 197.96H30.73C28.56 197.96 26.74 196.14 26.74 193.97V3.99C26.74 1.82 28.56 0 30.73 0H165.9C168.07 0 169.89 1.82 169.89 3.99V193.97C169.89 196.21 168.14 197.96 165.9 197.96ZM30.73 0.14C28.63 0.14 26.88 1.82 26.88 3.99V193.97C26.88 196.07 28.56 197.82 30.73 197.82H165.9C168 197.82 169.75 196.14 169.75 193.97V3.99C169.75 1.89 168.07 0.14 165.9 0.14H30.73V0.14Z" fill="#EAEBF1"/>
<path d="M317.31 197.96H182.14C179.97 197.96 178.15 196.14 178.15 193.97V3.99C178.15 1.82 179.97 0 182.14 0H317.31C319.48 0 321.3 1.82 321.3 3.99V193.97C321.3 196.21 319.55 197.96 317.31 197.96ZM182.14 0.14C180.04 0.14 178.29 1.82 178.29 3.99V193.97C178.29 196.07 179.97 197.82 182.14 197.82H317.31C319.41 197.82 321.16 196.14 321.16 193.97V3.99C321.16 1.89 319.48 0.14 317.31 0.14H182.14V0.14Z" fill="#EAEBF1"/>
<path d="M121.8 63.6992V18.1292V17.4992V11.1992H41.3V11.8992V13.2992V222.599H51.8V25.9692L89.74 21.6992L89.88 21.9092L90.0201 21.6992L108.85 19.5992L109.06 19.8092L109.27 19.5292L119.63 18.3392V63.6992H108.43V69.2992H132.23V63.6992H121.8ZM67.62 14.9092L73.92 21.4192L60.9 22.8192L67.62 14.9092ZM59.08 21.6992L52.92 13.2992H66.15L59.08 21.6992ZM69.02 13.2992H81.9L75.67 20.1592L69.02 13.2992ZM119.7 14.2092V16.2392L118.09 16.4492L119.7 14.2092ZM116.27 15.3992L114.38 13.3692H117.74L116.27 15.3992ZM111.58 13.2992L108.99 16.5192L106.05 13.2992H111.58ZM103.32 13.2992L100.17 17.2192L96.74 13.2992H103.32ZM94.0101 13.2992L89.74 18.6892L84.7 13.2992H94.0101ZM51.8 15.3292L57.6101 23.2392L51.8 23.8692V15.3292ZM77.84 20.9292L83.37 14.8392L87.99 19.7392L77.84 20.9292ZM95.4101 14.9792L98.63 18.6192L91.98 19.3892L95.4101 14.9792ZM102.06 18.1992L104.65 14.9092L107.1 17.6392L102.06 18.1992ZM112.98 14.9792L114.73 16.8692L111.23 17.2892L112.98 14.9792Z" fill="#DDE1E9"/>
<path d="M98.0001 74.1984H83.3001V67.1984H81.2001V74.1984H67.2001V60.8984H64.4001V207.198H100.8V65.0984H98.0001V74.1984ZM81.2001 85.3984H67.2001V77.6984H81.2001V85.3984ZM98.0001 85.3984H83.3001V77.6984H98.0001V85.3984Z" fill="#DDE1E9"/>
<path d="M317.1 228.898V193.128H314.02V176.048H309.54V116.688H303.1V109.058L289.24 102.618V94.9184H287.35V116.688H284.69V176.048H281.96V144.828H274.68V128.798H272.65V176.048H267.12V158.058H263.55V153.438H255.08V137.758H250.46V126.698H244.79V110.528H242.76V126.698H237.09V137.758H232.54V153.438H224.07V158.058H220.43V176.048H216.16V153.438H207.69V104.858H205.03V99.4684H187.04V104.858H183.19V140.068H167.93V143.498H162.19V146.228H167.93V159.948H151.83V114.028H148.4V104.298H140.91V69.6484H138.81V104.298H133.42V114.028H102.06V110.808H100.1V132.648H97.4401V132.998H95.8301V154.838H93.1701V160.788H87.5001V144.688H85.4701V182.978H83.2301V166.878H81.2001V192.008H79.9401V174.018H76.3001V169.398H67.9001V153.718H63.2801V142.588H57.6101V126.418H55.5801V142.588H49.9101V153.718H45.29V169.398H36.8901V174.018H33.25V191.588H32.55V192.008H30.8V228.898H317.1Z" fill="#EAEBF1"/>
<path d="M121.73 116.199H119.56V118.369H121.73V116.199Z" fill="#F7F8FA"/>
<path d="M121.73 119.84H119.56V122.01H121.73V119.84Z" fill="#F7F8FA"/>
<path d="M121.73 134.398H119.56V136.568H121.73V134.398Z" fill="#F7F8FA"/>
<path d="M121.73 138.039H119.56V140.209H121.73V138.039Z" fill="#F7F8FA"/>
<path d="M121.73 141.609H119.56V143.779H121.73V141.609Z" fill="#F7F8FA"/>
<path d="M121.73 152.531H119.56V154.701H121.73V152.531Z" fill="#F7F8FA"/>
<path d="M121.73 156.172H119.56V158.342H121.73V156.172Z" fill="#F7F8FA"/>
<path d="M125.16 130.762H122.99V132.932H125.16V130.762Z" fill="#F7F8FA"/>
<path d="M125.16 134.398H122.99V136.568H125.16V134.398Z" fill="#F7F8FA"/>
<path d="M125.16 138.039H122.99V140.209H125.16V138.039Z" fill="#F7F8FA"/>
<path d="M125.16 141.609H122.99V143.779H125.16V141.609Z" fill="#F7F8FA"/>
<path d="M125.16 145.25H122.99V147.42H125.16V145.25Z" fill="#F7F8FA"/>
<path d="M125.16 152.531H122.99V154.701H125.16V152.531Z" fill="#F7F8FA"/>
<path d="M125.16 156.172H122.99V158.342H125.16V156.172Z" fill="#F7F8FA"/>
<path d="M128.59 116.199H126.42V118.369H128.59V116.199Z" fill="#F7F8FA"/>
<path d="M128.59 119.84H126.42V122.01H128.59V119.84Z" fill="#F7F8FA"/>
<path d="M128.59 123.48H126.42V125.65H128.59V123.48Z" fill="#F7F8FA"/>
<path d="M128.59 127.121H126.42V129.291H128.59V127.121Z" fill="#F7F8FA"/>
<path d="M128.59 130.762H126.42V132.932H128.59V130.762Z" fill="#F7F8FA"/>
<path d="M128.59 134.398H126.42V136.568H128.59V134.398Z" fill="#F7F8FA"/>
<path d="M128.59 138.039H126.42V140.209H128.59V138.039Z" fill="#F7F8FA"/>
<path d="M128.59 141.609H126.42V143.779H128.59V141.609Z" fill="#F7F8FA"/>
<path d="M128.59 145.25H126.42V147.42H128.59V145.25Z" fill="#F7F8FA"/>
<path d="M128.59 148.891H126.42V151.061H128.59V148.891Z" fill="#F7F8FA"/>
<path d="M128.59 156.172H126.42V158.342H128.59V156.172Z" fill="#F7F8FA"/>
<path d="M132.09 116.199H129.92V118.369H132.09V116.199Z" fill="#F7F8FA"/>
<path d="M132.09 119.84H129.92V122.01H132.09V119.84Z" fill="#F7F8FA"/>
<path d="M132.09 123.48H129.92V125.65H132.09V123.48Z" fill="#F7F8FA"/>
<path d="M132.09 127.121H129.92V129.291H132.09V127.121Z" fill="#F7F8FA"/>
<path d="M132.09 130.762H129.92V132.932H132.09V130.762Z" fill="#F7F8FA"/>
<path d="M132.09 134.398H129.92V136.568H132.09V134.398Z" fill="#F7F8FA"/>
<path d="M132.09 138.039H129.92V140.209H132.09V138.039Z" fill="#F7F8FA"/>
<path d="M132.09 170.73H129.92V172.9H132.09V170.73Z" fill="#F7F8FA"/>
<path d="M135.52 116.199H133.35V118.369H135.52V116.199Z" fill="#F7F8FA"/>
<path d="M135.52 119.84H133.35V122.01H135.52V119.84Z" fill="#F7F8FA"/>
<path d="M135.52 123.48H133.35V125.65H135.52V123.48Z" fill="#F7F8FA"/>
<path d="M135.52 127.121H133.35V129.291H135.52V127.121Z" fill="#F7F8FA"/>
<path d="M135.52 130.762H133.35V132.932H135.52V130.762Z" fill="#F7F8FA"/>
<path d="M135.52 134.398H133.35V136.568H135.52V134.398Z" fill="#F7F8FA"/>
<path d="M135.52 138.039H133.35V140.209H135.52V138.039Z" fill="#F7F8FA"/>
<path d="M135.52 141.609H133.35V143.779H135.52V141.609Z" fill="#F7F8FA"/>
<path d="M135.52 163.449H133.35V165.619H135.52V163.449Z" fill="#F7F8FA"/>
<path d="M135.52 167.09H133.35V169.26H135.52V167.09Z" fill="#F7F8FA"/>
<path d="M135.52 170.73H133.35V172.9H135.52V170.73Z" fill="#F7F8FA"/>
<path d="M135.52 174.371H133.35V176.541H135.52V174.371Z" fill="#F7F8FA"/>
<path d="M135.52 188.93H133.35V191.1H135.52V188.93Z" fill="#F7F8FA"/>
<path d="M138.95 116.199H136.78V118.369H138.95V116.199Z" fill="#F7F8FA"/>
<path d="M138.95 119.84H136.78V122.01H138.95V119.84Z" fill="#F7F8FA"/>
<path d="M138.95 123.48H136.78V125.65H138.95V123.48Z" fill="#F7F8FA"/>
<path d="M138.95 127.121H136.78V129.291H138.95V127.121Z" fill="#F7F8FA"/>
<path d="M138.95 130.762H136.78V132.932H138.95V130.762Z" fill="#F7F8FA"/>
<path d="M138.95 134.398H136.78V136.568H138.95V134.398Z" fill="#F7F8FA"/>
<path d="M138.95 138.039H136.78V140.209H138.95V138.039Z" fill="#F7F8FA"/>
<path d="M138.95 141.609H136.78V143.779H138.95V141.609Z" fill="#F7F8FA"/>
<path d="M138.95 145.25H136.78V147.42H138.95V145.25Z" fill="#F7F8FA"/>
<path d="M138.95 148.891H136.78V151.061H138.95V148.891Z" fill="#F7F8FA"/>
<path d="M138.95 159.809H136.78V161.979H138.95V159.809Z" fill="#F7F8FA"/>
<path d="M138.95 163.449H136.78V165.619H138.95V163.449Z" fill="#F7F8FA"/>
<path d="M138.95 167.09H136.78V169.26H138.95V167.09Z" fill="#F7F8FA"/>
<path d="M138.95 170.73H136.78V172.9H138.95V170.73Z" fill="#F7F8FA"/>
<path d="M138.95 174.371H136.78V176.541H138.95V174.371Z" fill="#F7F8FA"/>
<path d="M138.95 188.93H136.78V191.1H138.95V188.93Z" fill="#F7F8FA"/>
<path d="M142.38 116.199H140.21V118.369H142.38V116.199Z" fill="#F7F8FA"/>
<path d="M142.38 119.84H140.21V122.01H142.38V119.84Z" fill="#F7F8FA"/>
<path d="M142.38 123.48H140.21V125.65H142.38V123.48Z" fill="#F7F8FA"/>
<path d="M142.38 127.121H140.21V129.291H142.38V127.121Z" fill="#F7F8FA"/>
<path d="M142.38 130.762H140.21V132.932H142.38V130.762Z" fill="#F7F8FA"/>
<path d="M142.38 134.398H140.21V136.568H142.38V134.398Z" fill="#F7F8FA"/>
<path d="M142.38 138.039H140.21V140.209H142.38V138.039Z" fill="#F7F8FA"/>
<path d="M142.38 141.609H140.21V143.779H142.38V141.609Z" fill="#F7F8FA"/>
<path d="M142.38 145.25H140.21V147.42H142.38V145.25Z" fill="#F7F8FA"/>
<path d="M142.38 148.891H140.21V151.061H142.38V148.891Z" fill="#F7F8FA"/>
<path d="M142.38 152.531H140.21V154.701H142.38V152.531Z" fill="#F7F8FA"/>
<path d="M142.38 156.172H140.21V158.342H142.38V156.172Z" fill="#F7F8FA"/>
<path d="M142.38 159.809H140.21V161.979H142.38V159.809Z" fill="#F7F8FA"/>
<path d="M142.38 163.449H140.21V165.619H142.38V163.449Z" fill="#F7F8FA"/>
<path d="M142.38 167.09H140.21V169.26H142.38V167.09Z" fill="#F7F8FA"/>
<path d="M142.38 170.73H140.21V172.9H142.38V170.73Z" fill="#F7F8FA"/>
<path d="M142.38 174.371H140.21V176.541H142.38V174.371Z" fill="#F7F8FA"/>
<path d="M142.38 178.012H140.21V180.182H142.38V178.012Z" fill="#F7F8FA"/>
<path d="M145.88 116.199H143.71V118.369H145.88V116.199Z" fill="#F7F8FA"/>
<path d="M145.88 119.84H143.71V122.01H145.88V119.84Z" fill="#F7F8FA"/>
<path d="M145.88 123.48H143.71V125.65H145.88V123.48Z" fill="#F7F8FA"/>
<path d="M145.88 127.121H143.71V129.291H145.88V127.121Z" fill="#F7F8FA"/>
<path d="M145.88 130.762H143.71V132.932H145.88V130.762Z" fill="#F7F8FA"/>
<path d="M145.88 134.398H143.71V136.568H145.88V134.398Z" fill="#F7F8FA"/>
<path d="M145.88 138.039H143.71V140.209H145.88V138.039Z" fill="#F7F8FA"/>
<path d="M145.88 141.609H143.71V143.779H145.88V141.609Z" fill="#F7F8FA"/>
<path d="M145.88 145.25H143.71V147.42H145.88V145.25Z" fill="#F7F8FA"/>
<path d="M145.88 148.891H143.71V151.061H145.88V148.891Z" fill="#F7F8FA"/>
<path d="M145.88 159.809H143.71V161.979H145.88V159.809Z" fill="#F7F8FA"/>
<path d="M145.88 163.449H143.71V165.619H145.88V163.449Z" fill="#F7F8FA"/>
<path d="M145.88 167.09H143.71V169.26H145.88V167.09Z" fill="#F7F8FA"/>
<path d="M145.88 170.73H143.71V172.9H145.88V170.73Z" fill="#F7F8FA"/>
<path d="M149.31 116.199H147.14V118.369H149.31V116.199Z" fill="#F7F8FA"/>
<path d="M149.31 119.84H147.14V122.01H149.31V119.84Z" fill="#F7F8FA"/>
<path d="M149.31 123.48H147.14V125.65H149.31V123.48Z" fill="#F7F8FA"/>
<path d="M149.31 127.121H147.14V129.291H149.31V127.121Z" fill="#F7F8FA"/>
<path d="M149.31 130.762H147.14V132.932H149.31V130.762Z" fill="#F7F8FA"/>
<path d="M149.31 134.398H147.14V136.568H149.31V134.398Z" fill="#F7F8FA"/>
<path d="M149.31 138.039H147.14V140.209H149.31V138.039Z" fill="#F7F8FA"/>
<path d="M149.31 141.609H147.14V143.779H149.31V141.609Z" fill="#F7F8FA"/>
<path d="M149.31 145.25H147.14V147.42H149.31V145.25Z" fill="#F7F8FA"/>
<path d="M149.31 148.891H147.14V151.061H149.31V148.891Z" fill="#F7F8FA"/>
<path d="M149.31 159.809H147.14V161.979H149.31V159.809Z" fill="#F7F8FA"/>
<path d="M149.31 163.449H147.14V165.619H149.31V163.449Z" fill="#F7F8FA"/>
<path d="M149.31 167.09H147.14V169.26H149.31V167.09Z" fill="#F7F8FA"/>
<path d="M188.09 106.75H185.92V108.92H188.09V106.75Z" fill="#F7F8FA"/>
<path d="M188.09 110.391H185.92V112.561H188.09V110.391Z" fill="#F7F8FA"/>
<path d="M188.09 114.031H185.92V116.201H188.09V114.031Z" fill="#F7F8FA"/>
<path d="M188.09 117.672H185.92V119.842H188.09V117.672Z" fill="#F7F8FA"/>
<path d="M188.09 121.309H185.92V123.479H188.09V121.309Z" fill="#F7F8FA"/>
<path d="M188.09 124.949H185.92V127.119H188.09V124.949Z" fill="#F7F8FA"/>
<path d="M188.09 128.59H185.92V130.76H188.09V128.59Z" fill="#F7F8FA"/>
<path d="M188.09 132.23H185.92V134.4H188.09V132.23Z" fill="#F7F8FA"/>
<path d="M188.09 143.078H185.92V145.248H188.09V143.078Z" fill="#F7F8FA"/>
<path d="M188.09 146.719H185.92V148.889H188.09V146.719Z" fill="#F7F8FA"/>
<path d="M191.52 106.75H189.35V108.92H191.52V106.75Z" fill="#F7F8FA"/>
<path d="M191.52 110.391H189.35V112.561H191.52V110.391Z" fill="#F7F8FA"/>
<path d="M191.52 114.031H189.35V116.201H191.52V114.031Z" fill="#F7F8FA"/>
<path d="M191.52 117.672H189.35V119.842H191.52V117.672Z" fill="#F7F8FA"/>
<path d="M191.52 121.309H189.35V123.479H191.52V121.309Z" fill="#F7F8FA"/>
<path d="M191.52 124.949H189.35V127.119H191.52V124.949Z" fill="#F7F8FA"/>
<path d="M191.52 128.59H189.35V130.76H191.52V128.59Z" fill="#F7F8FA"/>
<path d="M191.52 132.23H189.35V134.4H191.52V132.23Z" fill="#F7F8FA"/>
<path d="M191.52 146.719H189.35V148.889H191.52V146.719Z" fill="#F7F8FA"/>
<path d="M194.95 106.75H192.78V108.92H194.95V106.75Z" fill="#F7F8FA"/>
<path d="M194.95 110.391H192.78V112.561H194.95V110.391Z" fill="#F7F8FA"/>
<path d="M194.95 114.031H192.78V116.201H194.95V114.031Z" fill="#F7F8FA"/>
<path d="M194.95 117.672H192.78V119.842H194.95V117.672Z" fill="#F7F8FA"/>
<path d="M194.95 121.309H192.78V123.479H194.95V121.309Z" fill="#F7F8FA"/>
<path d="M194.95 124.949H192.78V127.119H194.95V124.949Z" fill="#F7F8FA"/>
<path d="M194.95 128.59H192.78V130.76H194.95V128.59Z" fill="#F7F8FA"/>
<path d="M194.95 132.23H192.78V134.4H194.95V132.23Z" fill="#F7F8FA"/>
<path d="M198.45 106.75H196.28V108.92H198.45V106.75Z" fill="#F7F8FA"/>
<path d="M198.45 110.391H196.28V112.561H198.45V110.391Z" fill="#F7F8FA"/>
<path d="M198.45 114.031H196.28V116.201H198.45V114.031Z" fill="#F7F8FA"/>
<path d="M198.45 117.672H196.28V119.842H198.45V117.672Z" fill="#F7F8FA"/>
<path d="M198.45 121.309H196.28V123.479H198.45V121.309Z" fill="#F7F8FA"/>
<path d="M198.45 124.949H196.28V127.119H198.45V124.949Z" fill="#F7F8FA"/>
<path d="M198.45 132.23H196.28V134.4H198.45V132.23Z" fill="#F7F8FA"/>
<path d="M198.45 135.871H196.28V138.041H198.45V135.871Z" fill="#F7F8FA"/>
<path d="M198.45 146.719H196.28V148.889H198.45V146.719Z" fill="#F7F8FA"/>
<path d="M198.45 150.359H196.28V152.529H198.45V150.359Z" fill="#F7F8FA"/>
<path d="M198.45 154H196.28V156.17H198.45V154Z" fill="#F7F8FA"/>
<path d="M198.45 157.641H196.28V159.811H198.45V157.641Z" fill="#F7F8FA"/>
<path d="M198.45 161.281H196.28V163.451H198.45V161.281Z" fill="#F7F8FA"/>
<path d="M198.45 164.922H196.28V167.092H198.45V164.922Z" fill="#F7F8FA"/>
<path d="M198.45 168.559H196.28V170.729H198.45V168.559Z" fill="#F7F8FA"/>
<path d="M201.88 106.75H199.71V108.92H201.88V106.75Z" fill="#F7F8FA"/>
<path d="M201.88 110.391H199.71V112.561H201.88V110.391Z" fill="#F7F8FA"/>
<path d="M201.88 114.031H199.71V116.201H201.88V114.031Z" fill="#F7F8FA"/>
<path d="M201.88 117.672H199.71V119.842H201.88V117.672Z" fill="#F7F8FA"/>
<path d="M201.88 121.309H199.71V123.479H201.88V121.309Z" fill="#F7F8FA"/>
<path d="M201.88 124.949H199.71V127.119H201.88V124.949Z" fill="#F7F8FA"/>
<path d="M201.88 135.871H199.71V138.041H201.88V135.871Z" fill="#F7F8FA"/>
<path d="M201.88 139.441H199.71V141.611H201.88V139.441Z" fill="#F7F8FA"/>
<path d="M201.88 143.078H199.71V145.248H201.88V143.078Z" fill="#F7F8FA"/>
<path d="M201.88 146.719H199.71V148.889H201.88V146.719Z" fill="#F7F8FA"/>
<path d="M201.88 150.359H199.71V152.529H201.88V150.359Z" fill="#F7F8FA"/>
<path d="M201.88 154H199.71V156.17H201.88V154Z" fill="#F7F8FA"/>
<path d="M201.88 157.641H199.71V159.811H201.88V157.641Z" fill="#F7F8FA"/>
<path d="M201.88 161.281H199.71V163.451H201.88V161.281Z" fill="#F7F8FA"/>
<path d="M201.88 164.922H199.71V167.092H201.88V164.922Z" fill="#F7F8FA"/>
<path d="M201.88 168.559H199.71V170.729H201.88V168.559Z" fill="#F7F8FA"/>
<path d="M201.88 172.199H199.71V174.369H201.88V172.199Z" fill="#F7F8FA"/>
<path d="M201.88 179.48H199.71V181.65H201.88V179.48Z" fill="#F7F8FA"/>
<path d="M205.31 106.75H203.14V108.92H205.31V106.75Z" fill="#F7F8FA"/>
<path d="M205.31 110.391H203.14V112.561H205.31V110.391Z" fill="#F7F8FA"/>
<path d="M205.31 114.031H203.14V116.201H205.31V114.031Z" fill="#F7F8FA"/>
<path d="M205.31 117.672H203.14V119.842H205.31V117.672Z" fill="#F7F8FA"/>
<path d="M205.31 121.309H203.14V123.479H205.31V121.309Z" fill="#F7F8FA"/>
<path d="M205.31 124.949H203.14V127.119H205.31V124.949Z" fill="#F7F8FA"/>
<path d="M205.31 135.871H203.14V138.041H205.31V135.871Z" fill="#F7F8FA"/>
<path d="M205.31 139.441H203.14V141.611H205.31V139.441Z" fill="#F7F8FA"/>
<path d="M205.31 143.078H203.14V145.248H205.31V143.078Z" fill="#F7F8FA"/>
<path d="M205.31 146.719H203.14V148.889H205.31V146.719Z" fill="#F7F8FA"/>
<path d="M205.31 157.641H203.14V159.811H205.31V157.641Z" fill="#F7F8FA"/>
<path d="M205.31 161.281H203.14V163.451H205.31V161.281Z" fill="#F7F8FA"/>
<path d="M205.31 164.922H203.14V167.092H205.31V164.922Z" fill="#F7F8FA"/>
<path d="M205.31 168.559H203.14V170.729H205.31V168.559Z" fill="#F7F8FA"/>
<path d="M205.31 172.199H203.14V174.369H205.31V172.199Z" fill="#F7F8FA"/>
<path d="M205.31 179.48H203.14V181.65H205.31V179.48Z" fill="#F7F8FA"/>
<path d="M205.31 183.121H203.14V185.291H205.31V183.121Z" fill="#F7F8FA"/>
<path d="M236.6 140.559H234.43V142.729H236.6V140.559Z" fill="#F7F8FA"/>
<path d="M236.6 144.199H234.43V146.369H236.6V144.199Z" fill="#F7F8FA"/>
<path d="M236.6 147.84H234.43V150.01H236.6V147.84Z" fill="#F7F8FA"/>
<path d="M236.6 151.48H234.43V153.65H236.6V151.48Z" fill="#F7F8FA"/>
<path d="M236.6 155.121H234.43V157.291H236.6V155.121Z" fill="#F7F8FA"/>
<path d="M236.6 158.762H234.43V160.932H236.6V158.762Z" fill="#F7F8FA"/>
<path d="M236.6 162.398H234.43V164.568H236.6V162.398Z" fill="#F7F8FA"/>
<path d="M236.6 173.32H234.43V175.49H236.6V173.32Z" fill="#F7F8FA"/>
<path d="M236.6 176.961H234.43V179.131H236.6V176.961Z" fill="#F7F8FA"/>
<path d="M236.6 180.531H234.43V182.701H236.6V180.531Z" fill="#F7F8FA"/>
<path d="M240.03 140.559H237.86V142.729H240.03V140.559Z" fill="#F7F8FA"/>
<path d="M240.03 144.199H237.86V146.369H240.03V144.199Z" fill="#F7F8FA"/>
<path d="M240.03 147.84H237.86V150.01H240.03V147.84Z" fill="#F7F8FA"/>
<path d="M240.03 151.48H237.86V153.65H240.03V151.48Z" fill="#F7F8FA"/>
<path d="M240.03 155.121H237.86V157.291H240.03V155.121Z" fill="#F7F8FA"/>
<path d="M240.03 158.762H237.86V160.932H240.03V158.762Z" fill="#F7F8FA"/>
<path d="M240.03 162.398H237.86V164.568H240.03V162.398Z" fill="#F7F8FA"/>
<path d="M243.46 140.559H241.29V142.729H243.46V140.559Z" fill="#F7F8FA"/>
<path d="M243.46 144.199H241.29V146.369H243.46V144.199Z" fill="#F7F8FA"/>
<path d="M243.46 147.84H241.29V150.01H243.46V147.84Z" fill="#F7F8FA"/>
<path d="M243.46 151.48H241.29V153.65H243.46V151.48Z" fill="#F7F8FA"/>
<path d="M243.46 155.121H241.29V157.291H243.46V155.121Z" fill="#F7F8FA"/>
<path d="M243.46 158.762H241.29V160.932H243.46V158.762Z" fill="#F7F8FA"/>
<path d="M243.46 162.398H241.29V164.568H243.46V162.398Z" fill="#F7F8FA"/>
<path d="M246.89 140.559H244.72V142.729H246.89V140.559Z" fill="#F7F8FA"/>
<path d="M246.89 144.199H244.72V146.369H246.89V144.199Z" fill="#F7F8FA"/>
<path d="M246.89 147.84H244.72V150.01H246.89V147.84Z" fill="#F7F8FA"/>
<path d="M246.89 151.48H244.72V153.65H246.89V151.48Z" fill="#F7F8FA"/>
<path d="M246.89 155.121H244.72V157.291H246.89V155.121Z" fill="#F7F8FA"/>
<path d="M246.89 158.762H244.72V160.932H246.89V158.762Z" fill="#F7F8FA"/>
<path d="M246.89 162.398H244.72V164.568H246.89V162.398Z" fill="#F7F8FA"/>
<path d="M246.89 166.039H244.72V168.209H246.89V166.039Z" fill="#F7F8FA"/>
<path d="M246.89 169.68H244.72V171.85H246.89V169.68Z" fill="#F7F8FA"/>
<path d="M246.89 173.32H244.72V175.49H246.89V173.32Z" fill="#F7F8FA"/>
<path d="M246.89 176.961H244.72V179.131H246.89V176.961Z" fill="#F7F8FA"/>
<path d="M250.32 140.559H248.15V142.729H250.32V140.559Z" fill="#F7F8FA"/>
<path d="M250.32 144.199H248.15V146.369H250.32V144.199Z" fill="#F7F8FA"/>
<path d="M250.32 147.84H248.15V150.01H250.32V147.84Z" fill="#F7F8FA"/>
<path d="M250.32 151.48H248.15V153.65H250.32V151.48Z" fill="#F7F8FA"/>
<path d="M250.32 155.121H248.15V157.291H250.32V155.121Z" fill="#F7F8FA"/>
<path d="M250.32 158.762H248.15V160.932H250.32V158.762Z" fill="#F7F8FA"/>
<path d="M250.32 162.398H248.15V164.568H250.32V162.398Z" fill="#F7F8FA"/>
<path d="M250.32 166.039H248.15V168.209H250.32V166.039Z" fill="#F7F8FA"/>
<path d="M250.32 169.68H248.15V171.85H250.32V169.68Z" fill="#F7F8FA"/>
<path d="M250.32 173.32H248.15V175.49H250.32V173.32Z" fill="#F7F8FA"/>
<path d="M250.32 176.961H248.15V179.131H250.32V176.961Z" fill="#F7F8FA"/>
<path d="M250.32 180.531H248.15V182.701H250.32V180.531Z" fill="#F7F8FA"/>
<path d="M250.32 191.449H248.15V193.619H250.32V191.449Z" fill="#F7F8FA"/>
<path d="M250.32 195.09H248.15V197.26H250.32V195.09Z" fill="#F7F8FA"/>
<path d="M253.82 140.559H251.65V142.729H253.82V140.559Z" fill="#F7F8FA"/>
<path d="M253.82 144.199H251.65V146.369H253.82V144.199Z" fill="#F7F8FA"/>
<path d="M253.82 147.84H251.65V150.01H253.82V147.84Z" fill="#F7F8FA"/>
<path d="M253.82 158.762H251.65V160.932H253.82V158.762Z" fill="#F7F8FA"/>
<path d="M253.82 162.398H251.65V164.568H253.82V162.398Z" fill="#F7F8FA"/>
<path d="M253.82 166.039H251.65V168.209H253.82V166.039Z" fill="#F7F8FA"/>
<path d="M253.82 169.68H251.65V171.85H253.82V169.68Z" fill="#F7F8FA"/>
<path d="M253.82 173.32H251.65V175.49H253.82V173.32Z" fill="#F7F8FA"/>
<path d="M253.82 176.961H251.65V179.131H253.82V176.961Z" fill="#F7F8FA"/>
<path d="M253.82 180.531H251.65V182.701H253.82V180.531Z" fill="#F7F8FA"/>
<path d="M253.82 191.449H251.65V193.619H253.82V191.449Z" fill="#F7F8FA"/>
<path d="M253.82 195.09H251.65V197.26H253.82V195.09Z" fill="#F7F8FA"/>
<path d="M253.82 198.73H251.65V200.9H253.82V198.73Z" fill="#F7F8FA"/>
<path d="M289.94 118.719H287.77V120.889H289.94V118.719Z" fill="#F7F8FA"/>
<path d="M289.94 122.359H287.77V124.529H289.94V122.359Z" fill="#F7F8FA"/>
<path d="M289.94 126H287.77V128.17H289.94V126Z" fill="#F7F8FA"/>
<path d="M289.94 129.641H287.77V131.811H289.94V129.641Z" fill="#F7F8FA"/>
<path d="M289.94 133.281H287.77V135.451H289.94V133.281Z" fill="#F7F8FA"/>
<path d="M289.94 136.922H287.77V139.092H289.94V136.922Z" fill="#F7F8FA"/>
<path d="M289.94 140.559H287.77V142.729H289.94V140.559Z" fill="#F7F8FA"/>
<path d="M289.94 144.199H287.77V146.369H289.94V144.199Z" fill="#F7F8FA"/>
<path d="M289.94 147.84H287.77V150.01H289.94V147.84Z" fill="#F7F8FA"/>
<path d="M289.94 151.48H287.77V153.65H289.94V151.48Z" fill="#F7F8FA"/>
<path d="M289.94 155.121H287.77V157.291H289.94V155.121Z" fill="#F7F8FA"/>
<path d="M289.94 158.762H287.77V160.932H289.94V158.762Z" fill="#F7F8FA"/>
<path d="M289.94 162.398H287.77V164.568H289.94V162.398Z" fill="#F7F8FA"/>
<path d="M289.94 166.039H287.77V168.209H289.94V166.039Z" fill="#F7F8FA"/>
<path d="M289.94 169.68H287.77V171.85H289.94V169.68Z" fill="#F7F8FA"/>
<path d="M289.94 173.32H287.77V175.49H289.94V173.32Z" fill="#F7F8FA"/>
<path d="M289.94 176.961H287.77V179.131H289.94V176.961Z" fill="#F7F8FA"/>
<path d="M289.94 180.531H287.77V182.701H289.94V180.531Z" fill="#F7F8FA"/>
<path d="M289.94 184.172H287.77V186.342H289.94V184.172Z" fill="#F7F8FA"/>
<path d="M289.94 187.809H287.77V189.979H289.94V187.809Z" fill="#F7F8FA"/>
<path d="M289.94 191.449H287.77V193.619H289.94V191.449Z" fill="#F7F8FA"/>
<path d="M289.94 195.09H287.77V197.26H289.94V195.09Z" fill="#F7F8FA"/>
<path d="M289.94 198.73H287.77V200.9H289.94V198.73Z" fill="#F7F8FA"/>
<path d="M293.37 118.719H291.2V120.889H293.37V118.719Z" fill="#F7F8FA"/>
<path d="M293.37 122.359H291.2V124.529H293.37V122.359Z" fill="#F7F8FA"/>
<path d="M293.37 126H291.2V128.17H293.37V126Z" fill="#F7F8FA"/>
<path d="M293.37 129.641H291.2V131.811H293.37V129.641Z" fill="#F7F8FA"/>
<path d="M293.37 133.281H291.2V135.451H293.37V133.281Z" fill="#F7F8FA"/>
<path d="M293.37 136.922H291.2V139.092H293.37V136.922Z" fill="#F7F8FA"/>
<path d="M293.37 140.559H291.2V142.729H293.37V140.559Z" fill="#F7F8FA"/>
<path d="M293.37 144.199H291.2V146.369H293.37V144.199Z" fill="#F7F8FA"/>
<path d="M293.37 147.84H291.2V150.01H293.37V147.84Z" fill="#F7F8FA"/>
<path d="M293.37 151.48H291.2V153.65H293.37V151.48Z" fill="#F7F8FA"/>
<path d="M293.37 155.121H291.2V157.291H293.37V155.121Z" fill="#F7F8FA"/>
<path d="M293.37 158.762H291.2V160.932H293.37V158.762Z" fill="#F7F8FA"/>
<path d="M293.37 162.398H291.2V164.568H293.37V162.398Z" fill="#F7F8FA"/>
<path d="M293.37 166.039H291.2V168.209H293.37V166.039Z" fill="#F7F8FA"/>
<path d="M293.37 169.68H291.2V171.85H293.37V169.68Z" fill="#F7F8FA"/>
<path d="M293.37 173.32H291.2V175.49H293.37V173.32Z" fill="#F7F8FA"/>
<path d="M293.37 176.961H291.2V179.131H293.37V176.961Z" fill="#F7F8FA"/>
<path d="M293.37 180.531H291.2V182.701H293.37V180.531Z" fill="#F7F8FA"/>
<path d="M293.37 184.172H291.2V186.342H293.37V184.172Z" fill="#F7F8FA"/>
<path d="M296.8 118.719H294.63V120.889H296.8V118.719Z" fill="#F7F8FA"/>
<path d="M296.8 122.359H294.63V124.529H296.8V122.359Z" fill="#F7F8FA"/>
<path d="M296.8 126H294.63V128.17H296.8V126Z" fill="#F7F8FA"/>
<path d="M296.8 129.641H294.63V131.811H296.8V129.641Z" fill="#F7F8FA"/>
<path d="M296.8 133.281H294.63V135.451H296.8V133.281Z" fill="#F7F8FA"/>
<path d="M296.8 136.922H294.63V139.092H296.8V136.922Z" fill="#F7F8FA"/>
<path d="M296.8 140.559H294.63V142.729H296.8V140.559Z" fill="#F7F8FA"/>
<path d="M296.8 144.199H294.63V146.369H296.8V144.199Z" fill="#F7F8FA"/>
<path d="M296.8 147.84H294.63V150.01H296.8V147.84Z" fill="#F7F8FA"/>
<path d="M296.8 151.48H294.63V153.65H296.8V151.48Z" fill="#F7F8FA"/>
<path d="M296.8 155.121H294.63V157.291H296.8V155.121Z" fill="#F7F8FA"/>
<path d="M296.8 158.762H294.63V160.932H296.8V158.762Z" fill="#F7F8FA"/>
<path d="M296.8 162.398H294.63V164.568H296.8V162.398Z" fill="#F7F8FA"/>
<path d="M296.8 166.039H294.63V168.209H296.8V166.039Z" fill="#F7F8FA"/>
<path d="M296.8 169.68H294.63V171.85H296.8V169.68Z" fill="#F7F8FA"/>
<path d="M296.8 173.32H294.63V175.49H296.8V173.32Z" fill="#F7F8FA"/>
<path d="M296.8 176.961H294.63V179.131H296.8V176.961Z" fill="#F7F8FA"/>
<path d="M296.8 180.531H294.63V182.701H296.8V180.531Z" fill="#F7F8FA"/>
<path d="M296.8 184.172H294.63V186.342H296.8V184.172Z" fill="#F7F8FA"/>
<path d="M300.23 118.719H298.06V120.889H300.23V118.719Z" fill="#F7F8FA"/>
<path d="M300.23 122.359H298.06V124.529H300.23V122.359Z" fill="#F7F8FA"/>
<path d="M300.23 126H298.06V128.17H300.23V126Z" fill="#F7F8FA"/>
<path d="M300.23 129.641H298.06V131.811H300.23V129.641Z" fill="#F7F8FA"/>
<path d="M300.23 133.281H298.06V135.451H300.23V133.281Z" fill="#F7F8FA"/>
<path d="M300.23 136.922H298.06V139.092H300.23V136.922Z" fill="#F7F8FA"/>
<path d="M300.23 140.559H298.06V142.729H300.23V140.559Z" fill="#F7F8FA"/>
<path d="M300.23 144.199H298.06V146.369H300.23V144.199Z" fill="#F7F8FA"/>
<path d="M300.23 147.84H298.06V150.01H300.23V147.84Z" fill="#F7F8FA"/>
<path d="M300.23 151.48H298.06V153.65H300.23V151.48Z" fill="#F7F8FA"/>
<path d="M300.23 155.121H298.06V157.291H300.23V155.121Z" fill="#F7F8FA"/>
<path d="M300.23 158.762H298.06V160.932H300.23V158.762Z" fill="#F7F8FA"/>
<path d="M300.23 162.398H298.06V164.568H300.23V162.398Z" fill="#F7F8FA"/>
<path d="M300.23 166.039H298.06V168.209H300.23V166.039Z" fill="#F7F8FA"/>
<path d="M300.23 169.68H298.06V171.85H300.23V169.68Z" fill="#F7F8FA"/>
<path d="M303.66 118.719H301.49V120.889H303.66V118.719Z" fill="#F7F8FA"/>
<path d="M303.66 122.359H301.49V124.529H303.66V122.359Z" fill="#F7F8FA"/>
<path d="M303.66 126H301.49V128.17H303.66V126Z" fill="#F7F8FA"/>
<path d="M303.66 129.641H301.49V131.811H303.66V129.641Z" fill="#F7F8FA"/>
<path d="M303.66 133.281H301.49V135.451H303.66V133.281Z" fill="#F7F8FA"/>
<path d="M303.66 136.922H301.49V139.092H303.66V136.922Z" fill="#F7F8FA"/>
<path d="M303.66 140.559H301.49V142.729H303.66V140.559Z" fill="#F7F8FA"/>
<path d="M303.66 144.199H301.49V146.369H303.66V144.199Z" fill="#F7F8FA"/>
<path d="M303.66 147.84H301.49V150.01H303.66V147.84Z" fill="#F7F8FA"/>
<path d="M303.66 151.48H301.49V153.65H303.66V151.48Z" fill="#F7F8FA"/>
<path d="M303.66 155.121H301.49V157.291H303.66V155.121Z" fill="#F7F8FA"/>
<path d="M303.66 158.762H301.49V160.932H303.66V158.762Z" fill="#F7F8FA"/>
<path d="M303.66 162.398H301.49V164.568H303.66V162.398Z" fill="#F7F8FA"/>
<path d="M307.16 118.719H304.99V120.889H307.16V118.719Z" fill="#F7F8FA"/>
<path d="M307.16 122.359H304.99V124.529H307.16V122.359Z" fill="#F7F8FA"/>
<path d="M307.16 126H304.99V128.17H307.16V126Z" fill="#F7F8FA"/>
<path d="M307.16 129.641H304.99V131.811H307.16V129.641Z" fill="#F7F8FA"/>
<path d="M307.16 133.281H304.99V135.451H307.16V133.281Z" fill="#F7F8FA"/>
<path d="M307.16 136.922H304.99V139.092H307.16V136.922Z" fill="#F7F8FA"/>
<path d="M307.16 140.559H304.99V142.729H307.16V140.559Z" fill="#F7F8FA"/>
<path d="M307.16 144.199H304.99V146.369H307.16V144.199Z" fill="#F7F8FA"/>
<path d="M307.16 147.84H304.99V150.01H307.16V147.84Z" fill="#F7F8FA"/>
<path d="M307.16 151.48H304.99V153.65H307.16V151.48Z" fill="#F7F8FA"/>
<path d="M307.16 155.121H304.99V157.291H307.16V155.121Z" fill="#F7F8FA"/>
<path d="M307.16 158.762H304.99V160.932H307.16V158.762Z" fill="#F7F8FA"/>
<path d="M53.9701 145.25H51.8V147.42H53.9701V145.25Z" fill="#F7F8FA"/>
<path d="M53.9701 148.891H51.8V151.061H53.9701V148.891Z" fill="#F7F8FA"/>
<path d="M53.9701 152.531H51.8V154.701H53.9701V152.531Z" fill="#F7F8FA"/>
<path d="M53.9701 156.172H51.8V158.342H53.9701V156.172Z" fill="#F7F8FA"/>
<path d="M53.9701 159.809H51.8V161.979H53.9701V159.809Z" fill="#F7F8FA"/>
<path d="M53.9701 163.449H51.8V165.619H53.9701V163.449Z" fill="#F7F8FA"/>
<path d="M53.9701 167.09H51.8V169.26H53.9701V167.09Z" fill="#F7F8FA"/>
<path d="M53.9701 170.73H51.8V172.9H53.9701V170.73Z" fill="#F7F8FA"/>
<path d="M53.9701 174.371H51.8V176.541H53.9701V174.371Z" fill="#F7F8FA"/>
<path d="M53.9701 178.012H51.8V180.182H53.9701V178.012Z" fill="#F7F8FA"/>
<path d="M53.9701 181.648H51.8V183.818H53.9701V181.648Z" fill="#F7F8FA"/>
<path d="M53.9701 185.289H51.8V187.459H53.9701V185.289Z" fill="#F7F8FA"/>
<path d="M53.9701 188.93H51.8V191.1H53.9701V188.93Z" fill="#F7F8FA"/>
<path d="M53.9701 192.57H51.8V194.74H53.9701V192.57Z" fill="#F7F8FA"/>
<path d="M53.9701 196.211H51.8V198.381H53.9701V196.211Z" fill="#F7F8FA"/>
<path d="M53.9701 199.852H51.8V202.022H53.9701V199.852Z" fill="#F7F8FA"/>
<path d="M53.9701 203.488H51.8V205.658H53.9701V203.488Z" fill="#F7F8FA"/>
<path d="M53.9701 207.129H51.8V209.299H53.9701V207.129Z" fill="#F7F8FA"/>
<path d="M53.9701 210.77H51.8V212.94H53.9701V210.77Z" fill="#F7F8FA"/>
<path d="M53.9701 214.41H51.8V216.58H53.9701V214.41Z" fill="#F7F8FA"/>
<path d="M57.4002 145.25H55.2302V147.42H57.4002V145.25Z" fill="#F7F8FA"/>
<path d="M57.4002 148.891H55.2302V151.061H57.4002V148.891Z" fill="#F7F8FA"/>
<path d="M57.4002 152.531H55.2302V154.701H57.4002V152.531Z" fill="#F7F8FA"/>
<path d="M57.4002 156.172H55.2302V158.342H57.4002V156.172Z" fill="#F7F8FA"/>
<path d="M57.4002 159.809H55.2302V161.979H57.4002V159.809Z" fill="#F7F8FA"/>
<path d="M57.4002 163.449H55.2302V165.619H57.4002V163.449Z" fill="#F7F8FA"/>
<path d="M57.4002 167.09H55.2302V169.26H57.4002V167.09Z" fill="#F7F8FA"/>
<path d="M57.4002 170.73H55.2302V172.9H57.4002V170.73Z" fill="#F7F8FA"/>
<path d="M57.4002 174.371H55.2302V176.541H57.4002V174.371Z" fill="#F7F8FA"/>
<path d="M57.4002 178.012H55.2302V180.182H57.4002V178.012Z" fill="#F7F8FA"/>
<path d="M57.4002 181.648H55.2302V183.818H57.4002V181.648Z" fill="#F7F8FA"/>
<path d="M57.4002 185.289H55.2302V187.459H57.4002V185.289Z" fill="#F7F8FA"/>
<path d="M57.4002 188.93H55.2302V191.1H57.4002V188.93Z" fill="#F7F8FA"/>
<path d="M57.4002 192.57H55.2302V194.74H57.4002V192.57Z" fill="#F7F8FA"/>
<path d="M57.4002 196.211H55.2302V198.381H57.4002V196.211Z" fill="#F7F8FA"/>
<path d="M57.4002 199.852H55.2302V202.022H57.4002V199.852Z" fill="#F7F8FA"/>
<path d="M57.4002 203.488H55.2302V205.658H57.4002V203.488Z" fill="#F7F8FA"/>
<path d="M57.4002 207.129H55.2302V209.299H57.4002V207.129Z" fill="#F7F8FA"/>
<path d="M60.9002 145.25H58.7302V147.42H60.9002V145.25Z" fill="#F7F8FA"/>
<path d="M60.9002 148.891H58.7302V151.061H60.9002V148.891Z" fill="#F7F8FA"/>
<path d="M60.9002 152.531H58.7302V154.701H60.9002V152.531Z" fill="#F7F8FA"/>
<path d="M60.9002 156.172H58.7302V158.342H60.9002V156.172Z" fill="#F7F8FA"/>
<path d="M60.9002 159.809H58.7302V161.979H60.9002V159.809Z" fill="#F7F8FA"/>
<path d="M60.9002 163.449H58.7302V165.619H60.9002V163.449Z" fill="#F7F8FA"/>
<path d="M60.9002 167.09H58.7302V169.26H60.9002V167.09Z" fill="#F7F8FA"/>
<path d="M60.9002 170.73H58.7302V172.9H60.9002V170.73Z" fill="#F7F8FA"/>
<path d="M60.9002 174.371H58.7302V176.541H60.9002V174.371Z" fill="#F7F8FA"/>
<path d="M60.9002 178.012H58.7302V180.182H60.9002V178.012Z" fill="#F7F8FA"/>
<path d="M60.9002 181.648H58.7302V183.818H60.9002V181.648Z" fill="#F7F8FA"/>
<path d="M60.9002 185.289H58.7302V187.459H60.9002V185.289Z" fill="#F7F8FA"/>
<path d="M60.9002 188.93H58.7302V191.1H60.9002V188.93Z" fill="#F7F8FA"/>
<path d="M60.9002 192.57H58.7302V194.74H60.9002V192.57Z" fill="#F7F8FA"/>
<path d="M60.9002 196.211H58.7302V198.381H60.9002V196.211Z" fill="#F7F8FA"/>
<path d="M60.9002 199.852H58.7302V202.022H60.9002V199.852Z" fill="#F7F8FA"/>
<path d="M60.9002 203.488H58.7302V205.658H60.9002V203.488Z" fill="#F7F8FA"/>
<path d="M60.9002 207.129H58.7302V209.299H60.9002V207.129Z" fill="#F7F8FA"/>
<path d="M41.0902 171.852H38.9202V174.022H41.0902V171.852Z" fill="#F7F8FA"/>
<path d="M41.0902 175.488H38.9202V177.658H41.0902V175.488Z" fill="#F7F8FA"/>
<path d="M41.0902 179.059H38.9202V181.229H41.0902V179.059Z" fill="#F7F8FA"/>
<path d="M41.0902 182.699H38.9202V184.869H41.0902V182.699Z" fill="#F7F8FA"/>
<path d="M41.0902 186.34H38.9202V188.51H41.0902V186.34Z" fill="#F7F8FA"/>
<path d="M41.0902 189.98H38.9202V192.15H41.0902V189.98Z" fill="#F7F8FA"/>
<path d="M41.0902 193.621H38.9202V195.791H41.0902V193.621Z" fill="#F7F8FA"/>
<path d="M41.0902 197.262H38.9202V199.432H41.0902V197.262Z" fill="#F7F8FA"/>
<path d="M41.0902 200.898H38.9202V203.068H41.0902V200.898Z" fill="#F7F8FA"/>
<path d="M41.0902 204.539H38.9202V206.709H41.0902V204.539Z" fill="#F7F8FA"/>
<path d="M41.0902 208.18H38.9202V210.35H41.0902V208.18Z" fill="#F7F8FA"/>
<path d="M41.0902 211.82H38.9202V213.99H41.0902V211.82Z" fill="#F7F8FA"/>
<path d="M41.0902 215.461H38.9202V217.631H41.0902V215.461Z" fill="#F7F8FA"/>
<path d="M44.5201 171.852H42.3501V174.022H44.5201V171.852Z" fill="#F7F8FA"/>
<path d="M44.5201 175.488H42.3501V177.658H44.5201V175.488Z" fill="#F7F8FA"/>
<path d="M44.5201 179.059H42.3501V181.229H44.5201V179.059Z" fill="#F7F8FA"/>
<path d="M44.5201 182.699H42.3501V184.869H44.5201V182.699Z" fill="#F7F8FA"/>
<path d="M44.5201 186.34H42.3501V188.51H44.5201V186.34Z" fill="#F7F8FA"/>
<path d="M44.5201 189.98H42.3501V192.15H44.5201V189.98Z" fill="#F7F8FA"/>
<path d="M44.5201 193.621H42.3501V195.791H44.5201V193.621Z" fill="#F7F8FA"/>
<path d="M44.5201 197.262H42.3501V199.432H44.5201V197.262Z" fill="#F7F8FA"/>
<path d="M44.5201 200.898H42.3501V203.068H44.5201V200.898Z" fill="#F7F8FA"/>
<path d="M44.5201 204.539H42.3501V206.709H44.5201V204.539Z" fill="#F7F8FA"/>
<path d="M44.5201 208.18H42.3501V210.35H44.5201V208.18Z" fill="#F7F8FA"/>
<path d="M44.5201 211.82H42.3501V213.99H44.5201V211.82Z" fill="#F7F8FA"/>
<path d="M44.5201 215.461H42.3501V217.631H44.5201V215.461Z" fill="#F7F8FA"/>
<path d="M47.9503 171.852H45.7803V174.022H47.9503V171.852Z" fill="#F7F8FA"/>
<path d="M47.9503 175.488H45.7803V177.658H47.9503V175.488Z" fill="#F7F8FA"/>
<path d="M47.9503 179.059H45.7803V181.229H47.9503V179.059Z" fill="#F7F8FA"/>
<path d="M47.9503 182.699H45.7803V184.869H47.9503V182.699Z" fill="#F7F8FA"/>
<path d="M47.9503 186.34H45.7803V188.51H47.9503V186.34Z" fill="#F7F8FA"/>
<path d="M47.9503 189.98H45.7803V192.15H47.9503V189.98Z" fill="#F7F8FA"/>
<path d="M47.9503 193.621H45.7803V195.791H47.9503V193.621Z" fill="#F7F8FA"/>
<path d="M47.9503 197.262H45.7803V199.432H47.9503V197.262Z" fill="#F7F8FA"/>
<path d="M47.9503 200.898H45.7803V203.068H47.9503V200.898Z" fill="#F7F8FA"/>
<path d="M47.9503 204.539H45.7803V206.709H47.9503V204.539Z" fill="#F7F8FA"/>
<path d="M47.9503 208.18H45.7803V210.35H47.9503V208.18Z" fill="#F7F8FA"/>
<path d="M47.9503 211.82H45.7803V213.99H47.9503V211.82Z" fill="#F7F8FA"/>
<path d="M47.9503 215.461H45.7803V217.631H47.9503V215.461Z" fill="#F7F8FA"/>
<path d="M47.9503 219.102H45.7803V221.272H47.9503V219.102Z" fill="#F7F8FA"/>
<path d="M67.1302 172.898H64.9602V175.068H67.1302V172.898Z" fill="#F7F8FA"/>
<path d="M67.1302 176.539H64.9602V178.709H67.1302V176.539Z" fill="#F7F8FA"/>
<path d="M67.1302 180.18H64.9602V182.35H67.1302V180.18Z" fill="#F7F8FA"/>
<path d="M67.1302 183.82H64.9602V185.99H67.1302V183.82Z" fill="#F7F8FA"/>
<path d="M67.1302 187.461H64.9602V189.631H67.1302V187.461Z" fill="#F7F8FA"/>
<path d="M67.1302 191.102H64.9602V193.272H67.1302V191.102Z" fill="#F7F8FA"/>
<path d="M67.1302 194.738H64.9602V196.908H67.1302V194.738Z" fill="#F7F8FA"/>
<path d="M67.1302 198.379H64.9602V200.549H67.1302V198.379Z" fill="#F7F8FA"/>
<path d="M67.1302 202.02H64.9602V204.19H67.1302V202.02Z" fill="#F7F8FA"/>
<path d="M67.1302 205.66H64.9602V207.83H67.1302V205.66Z" fill="#F7F8FA"/>
<path d="M67.1302 216.578H64.9602V218.748H67.1302V216.578Z" fill="#F7F8FA"/>
<path d="M70.5601 172.898H68.3901V175.068H70.5601V172.898Z" fill="#F7F8FA"/>
<path d="M70.5601 176.539H68.3901V178.709H70.5601V176.539Z" fill="#F7F8FA"/>
<path d="M70.5601 180.18H68.3901V182.35H70.5601V180.18Z" fill="#F7F8FA"/>
<path d="M70.5601 183.82H68.3901V185.99H70.5601V183.82Z" fill="#F7F8FA"/>
<path d="M70.5601 187.461H68.3901V189.631H70.5601V187.461Z" fill="#F7F8FA"/>
<path d="M70.5601 191.102H68.3901V193.272H70.5601V191.102Z" fill="#F7F8FA"/>
<path d="M70.5601 194.738H68.3901V196.908H70.5601V194.738Z" fill="#F7F8FA"/>
<path d="M70.5601 198.379H68.3901V200.549H70.5601V198.379Z" fill="#F7F8FA"/>
<path d="M70.5601 202.02H68.3901V204.19H70.5601V202.02Z" fill="#F7F8FA"/>
<path d="M70.5601 212.941H68.3901V215.111H70.5601V212.941Z" fill="#F7F8FA"/>
<path d="M70.5601 216.578H68.3901V218.748H70.5601V216.578Z" fill="#F7F8FA"/>
<path d="M73.9901 172.898H71.8201V175.068H73.9901V172.898Z" fill="#F7F8FA"/>
<path d="M73.9901 176.539H71.8201V178.709H73.9901V176.539Z" fill="#F7F8FA"/>
<path d="M73.9901 180.18H71.8201V182.35H73.9901V180.18Z" fill="#F7F8FA"/>
<path d="M73.9901 183.82H71.8201V185.99H73.9901V183.82Z" fill="#F7F8FA"/>
<path d="M73.9901 187.461H71.8201V189.631H73.9901V187.461Z" fill="#F7F8FA"/>
<path d="M73.9901 191.102H71.8201V193.272H73.9901V191.102Z" fill="#F7F8FA"/>
<path d="M73.9901 194.738H71.8201V196.908H73.9901V194.738Z" fill="#F7F8FA"/>
<path d="M73.9901 198.379H71.8201V200.549H73.9901V198.379Z" fill="#F7F8FA"/>
<path d="M73.9901 209.301H71.8201V211.471H73.9901V209.301Z" fill="#F7F8FA"/>
<path d="M73.9901 212.941H71.8201V215.111H73.9901V212.941Z" fill="#F7F8FA"/>
<path d="M73.9901 216.578H71.8201V218.748H73.9901V216.578Z" fill="#F7F8FA"/>
<path d="M106.05 117.672H103.88V119.842H106.05V117.672Z" fill="#F7F8FA"/>
<path d="M106.05 121.309H103.88V123.479H106.05V121.309Z" fill="#F7F8FA"/>
<path d="M106.05 124.949H103.88V127.119H106.05V124.949Z" fill="#F7F8FA"/>
<path d="M106.05 128.59H103.88V130.76H106.05V128.59Z" fill="#F7F8FA"/>
<path d="M106.05 132.23H103.88V134.4H106.05V132.23Z" fill="#F7F8FA"/>
<path d="M106.05 135.871H103.88V138.041H106.05V135.871Z" fill="#F7F8FA"/>
<path d="M106.05 139.441H103.88V141.611H106.05V139.441Z" fill="#F7F8FA"/>
<path d="M106.05 143.078H103.88V145.248H106.05V143.078Z" fill="#F7F8FA"/>
<path d="M106.05 146.719H103.88V148.889H106.05V146.719Z" fill="#F7F8FA"/>
<path d="M106.05 150.359H103.88V152.529H106.05V150.359Z" fill="#F7F8FA"/>
<path d="M106.05 154H103.88V156.17H106.05V154Z" fill="#F7F8FA"/>
<path d="M106.05 157.641H103.88V159.811H106.05V157.641Z" fill="#F7F8FA"/>
<path d="M106.05 161.281H103.88V163.451H106.05V161.281Z" fill="#F7F8FA"/>
<path d="M106.05 164.922H103.88V167.092H106.05V164.922Z" fill="#F7F8FA"/>
<path d="M106.05 168.559H103.88V170.729H106.05V168.559Z" fill="#F7F8FA"/>
<path d="M106.05 172.199H103.88V174.369H106.05V172.199Z" fill="#F7F8FA"/>
<path d="M106.05 175.84H103.88V178.01H106.05V175.84Z" fill="#F7F8FA"/>
<path d="M106.05 183.121H103.88V185.291H106.05V183.121Z" fill="#F7F8FA"/>
<path d="M106.05 186.762H103.88V188.932H106.05V186.762Z" fill="#F7F8FA"/>
<path d="M106.05 190.398H103.88V192.568H106.05V190.398Z" fill="#F7F8FA"/>
<path d="M106.05 194.039H103.88V196.209H106.05V194.039Z" fill="#F7F8FA"/>
<path d="M106.05 197.68H103.88V199.85H106.05V197.68Z" fill="#F7F8FA"/>
<path d="M109.48 117.672H107.31V119.842H109.48V117.672Z" fill="#F7F8FA"/>
<path d="M109.48 121.309H107.31V123.479H109.48V121.309Z" fill="#F7F8FA"/>
<path d="M109.48 124.949H107.31V127.119H109.48V124.949Z" fill="#F7F8FA"/>
<path d="M109.48 128.59H107.31V130.76H109.48V128.59Z" fill="#F7F8FA"/>
<path d="M109.48 132.23H107.31V134.4H109.48V132.23Z" fill="#F7F8FA"/>
<path d="M109.48 135.871H107.31V138.041H109.48V135.871Z" fill="#F7F8FA"/>
<path d="M109.48 139.441H107.31V141.611H109.48V139.441Z" fill="#F7F8FA"/>
<path d="M109.48 143.078H107.31V145.248H109.48V143.078Z" fill="#F7F8FA"/>
<path d="M109.48 146.719H107.31V148.889H109.48V146.719Z" fill="#F7F8FA"/>
<path d="M109.48 150.359H107.31V152.529H109.48V150.359Z" fill="#F7F8FA"/>
<path d="M109.48 154H107.31V156.17H109.48V154Z" fill="#F7F8FA"/>
<path d="M109.48 157.641H107.31V159.811H109.48V157.641Z" fill="#F7F8FA"/>
<path d="M109.48 161.281H107.31V163.451H109.48V161.281Z" fill="#F7F8FA"/>
<path d="M109.48 164.922H107.31V167.092H109.48V164.922Z" fill="#F7F8FA"/>
<path d="M109.48 168.559H107.31V170.729H109.48V168.559Z" fill="#F7F8FA"/>
<path d="M109.48 172.199H107.31V174.369H109.48V172.199Z" fill="#F7F8FA"/>
<path d="M109.48 194.039H107.31V196.209H109.48V194.039Z" fill="#F7F8FA"/>
<path d="M109.48 197.68H107.31V199.85H109.48V197.68Z" fill="#F7F8FA"/>
<path d="M112.91 117.672H110.74V119.842H112.91V117.672Z" fill="#F7F8FA"/>
<path d="M112.91 121.309H110.74V123.479H112.91V121.309Z" fill="#F7F8FA"/>
<path d="M112.91 124.949H110.74V127.119H112.91V124.949Z" fill="#F7F8FA"/>
<path d="M112.91 128.59H110.74V130.76H112.91V128.59Z" fill="#F7F8FA"/>
<path d="M112.91 132.23H110.74V134.4H112.91V132.23Z" fill="#F7F8FA"/>
<path d="M112.91 135.871H110.74V138.041H112.91V135.871Z" fill="#F7F8FA"/>
<path d="M112.91 139.441H110.74V141.611H112.91V139.441Z" fill="#F7F8FA"/>
<path d="M112.91 143.078H110.74V145.248H112.91V143.078Z" fill="#F7F8FA"/>
<path d="M112.91 146.719H110.74V148.889H112.91V146.719Z" fill="#F7F8FA"/>
<path d="M112.91 150.359H110.74V152.529H112.91V150.359Z" fill="#F7F8FA"/>
<path d="M112.91 154H110.74V156.17H112.91V154Z" fill="#F7F8FA"/>
<path d="M112.91 157.641H110.74V159.811H112.91V157.641Z" fill="#F7F8FA"/>
<path d="M112.91 161.281H110.74V163.451H112.91V161.281Z" fill="#F7F8FA"/>
<path d="M112.91 164.922H110.74V167.092H112.91V164.922Z" fill="#F7F8FA"/>
<path d="M112.91 168.559H110.74V170.729H112.91V168.559Z" fill="#F7F8FA"/>
<path d="M112.91 172.199H110.74V174.369H112.91V172.199Z" fill="#F7F8FA"/>
<path d="M112.91 179.48H110.74V181.65H112.91V179.48Z" fill="#F7F8FA"/>
<path d="M112.91 183.121H110.74V185.291H112.91V183.121Z" fill="#F7F8FA"/>
<path d="M112.91 186.762H110.74V188.932H112.91V186.762Z" fill="#F7F8FA"/>
<path d="M112.91 190.398H110.74V192.568H112.91V190.398Z" fill="#F7F8FA"/>
<path d="M112.91 197.68H110.74V199.85H112.91V197.68Z" fill="#F7F8FA"/>
<path d="M93.5201 163.449H91.3501V165.619H93.5201V163.449Z" fill="#F7F8FA"/>
<path d="M93.5201 167.09H91.3501V169.26H93.5201V167.09Z" fill="#F7F8FA"/>
<path d="M93.5201 170.73H91.3501V172.9H93.5201V170.73Z" fill="#F7F8FA"/>
<path d="M93.5201 174.371H91.3501V176.541H93.5201V174.371Z" fill="#F7F8FA"/>
<path d="M93.5201 178.012H91.3501V180.182H93.5201V178.012Z" fill="#F7F8FA"/>
<path d="M93.5201 181.648H91.3501V183.818H93.5201V181.648Z" fill="#F7F8FA"/>
<path d="M93.5201 185.289H91.3501V187.459H93.5201V185.289Z" fill="#F7F8FA"/>
<path d="M93.5201 192.57H91.3501V194.74H93.5201V192.57Z" fill="#F7F8FA"/>
<path d="M93.5201 196.211H91.3501V198.381H93.5201V196.211Z" fill="#F7F8FA"/>
<path d="M93.5201 199.852H91.3501V202.022H93.5201V199.852Z" fill="#F7F8FA"/>
<path d="M93.5201 203.488H91.3501V205.658H93.5201V203.488Z" fill="#F7F8FA"/>
<path d="M93.5201 207.129H91.3501V209.299H93.5201V207.129Z" fill="#F7F8FA"/>
<path d="M93.5201 210.77H91.3501V212.94H93.5201V210.77Z" fill="#F7F8FA"/>
<path d="M93.5201 214.41H91.3501V216.58H93.5201V214.41Z" fill="#F7F8FA"/>
<path d="M93.5201 217.98H91.3501V220.15H93.5201V217.98Z" fill="#F7F8FA"/>
<path d="M96.9503 163.449H94.7803V165.619H96.9503V163.449Z" fill="#F7F8FA"/>
<path d="M96.9503 167.09H94.7803V169.26H96.9503V167.09Z" fill="#F7F8FA"/>
<path d="M96.9503 170.73H94.7803V172.9H96.9503V170.73Z" fill="#F7F8FA"/>
<path d="M96.9503 174.371H94.7803V176.541H96.9503V174.371Z" fill="#F7F8FA"/>
<path d="M96.9503 178.012H94.7803V180.182H96.9503V178.012Z" fill="#F7F8FA"/>
<path d="M96.9503 181.648H94.7803V183.818H96.9503V181.648Z" fill="#F7F8FA"/>
<path d="M96.9503 192.57H94.7803V194.74H96.9503V192.57Z" fill="#F7F8FA"/>
<path d="M96.9503 196.211H94.7803V198.381H96.9503V196.211Z" fill="#F7F8FA"/>
<path d="M96.9503 199.852H94.7803V202.022H96.9503V199.852Z" fill="#F7F8FA"/>
<path d="M96.9503 203.488H94.7803V205.658H96.9503V203.488Z" fill="#F7F8FA"/>
<path d="M96.9503 207.129H94.7803V209.299H96.9503V207.129Z" fill="#F7F8FA"/>
<path d="M96.9503 210.77H94.7803V212.94H96.9503V210.77Z" fill="#F7F8FA"/>
<path d="M96.9503 214.41H94.7803V216.58H96.9503V214.41Z" fill="#F7F8FA"/>
<path d="M96.9503 217.98H94.7803V220.15H96.9503V217.98Z" fill="#F7F8FA"/>
<path d="M100.45 163.449H98.2803V165.619H100.45V163.449Z" fill="#F7F8FA"/>
<path d="M100.45 167.09H98.2803V169.26H100.45V167.09Z" fill="#F7F8FA"/>
<path d="M100.45 170.73H98.2803V172.9H100.45V170.73Z" fill="#F7F8FA"/>
<path d="M100.45 174.371H98.2803V176.541H100.45V174.371Z" fill="#F7F8FA"/>
<path d="M100.45 178.012H98.2803V180.182H100.45V178.012Z" fill="#F7F8FA"/>
<path d="M100.45 181.648H98.2803V183.818H100.45V181.648Z" fill="#F7F8FA"/>
<path d="M100.45 188.93H98.2803V191.1H100.45V188.93Z" fill="#F7F8FA"/>
<path d="M100.45 192.57H98.2803V194.74H100.45V192.57Z" fill="#F7F8FA"/>
<path d="M100.45 196.211H98.2803V198.381H100.45V196.211Z" fill="#F7F8FA"/>
<path d="M100.45 199.852H98.2803V202.022H100.45V199.852Z" fill="#F7F8FA"/>
<path d="M100.45 203.488H98.2803V205.658H100.45V203.488Z" fill="#F7F8FA"/>
<path d="M100.45 207.129H98.2803V209.299H100.45V207.129Z" fill="#F7F8FA"/>
<path d="M100.45 210.77H98.2803V212.94H100.45V210.77Z" fill="#F7F8FA"/>
<path d="M100.45 214.41H98.2803V216.58H100.45V214.41Z" fill="#F7F8FA"/>
<path d="M100.45 217.98H98.2803V220.15H100.45V217.98Z" fill="#F7F8FA"/>
<path d="M173.04 143.078H170.87V145.248H173.04V143.078Z" fill="#F7F8FA"/>
<path d="M173.04 146.719H170.87V148.889H173.04V146.719Z" fill="#F7F8FA"/>
<path d="M173.04 150.359H170.87V152.529H173.04V150.359Z" fill="#F7F8FA"/>
<path d="M173.04 154H170.87V156.17H173.04V154Z" fill="#F7F8FA"/>
<path d="M173.04 157.641H170.87V159.811H173.04V157.641Z" fill="#F7F8FA"/>
<path d="M173.04 161.281H170.87V163.451H173.04V161.281Z" fill="#F7F8FA"/>
<path d="M173.04 164.922H170.87V167.092H173.04V164.922Z" fill="#F7F8FA"/>
<path d="M173.04 168.559H170.87V170.729H173.04V168.559Z" fill="#F7F8FA"/>
<path d="M173.04 172.199H170.87V174.369H173.04V172.199Z" fill="#F7F8FA"/>
<path d="M173.04 175.84H170.87V178.01H173.04V175.84Z" fill="#F7F8FA"/>
<path d="M173.04 179.48H170.87V181.65H173.04V179.48Z" fill="#F7F8FA"/>
<path d="M173.04 183.121H170.87V185.291H173.04V183.121Z" fill="#F7F8FA"/>
<path d="M173.04 186.762H170.87V188.932H173.04V186.762Z" fill="#F7F8FA"/>
<path d="M173.04 194.039H170.87V196.209H173.04V194.039Z" fill="#F7F8FA"/>
<path d="M173.04 197.68H170.87V199.85H173.04V197.68Z" fill="#F7F8FA"/>
<path d="M173.04 201.32H170.87V203.49H173.04V201.32Z" fill="#F7F8FA"/>
<path d="M173.04 204.961H170.87V207.131H173.04V204.961Z" fill="#F7F8FA"/>
<path d="M173.04 212.238H170.87V214.408H173.04V212.238Z" fill="#F7F8FA"/>
<path d="M173.04 215.809H170.87V217.979H173.04V215.809Z" fill="#F7F8FA"/>
<path d="M173.04 219.449H170.87V221.619H173.04V219.449Z" fill="#F7F8FA"/>
<path d="M176.47 143.078H174.3V145.248H176.47V143.078Z" fill="#F7F8FA"/>
<path d="M176.47 146.719H174.3V148.889H176.47V146.719Z" fill="#F7F8FA"/>
<path d="M176.47 150.359H174.3V152.529H176.47V150.359Z" fill="#F7F8FA"/>
<path d="M176.47 154H174.3V156.17H176.47V154Z" fill="#F7F8FA"/>
<path d="M176.47 157.641H174.3V159.811H176.47V157.641Z" fill="#F7F8FA"/>
<path d="M176.47 161.281H174.3V163.451H176.47V161.281Z" fill="#F7F8FA"/>
<path d="M176.47 164.922H174.3V167.092H176.47V164.922Z" fill="#F7F8FA"/>
<path d="M176.47 168.559H174.3V170.729H176.47V168.559Z" fill="#F7F8FA"/>
<path d="M176.47 172.199H174.3V174.369H176.47V172.199Z" fill="#F7F8FA"/>
<path d="M176.47 175.84H174.3V178.01H176.47V175.84Z" fill="#F7F8FA"/>
<path d="M176.47 179.48H174.3V181.65H176.47V179.48Z" fill="#F7F8FA"/>
<path d="M176.47 183.121H174.3V185.291H176.47V183.121Z" fill="#F7F8FA"/>
<path d="M176.47 186.762H174.3V188.932H176.47V186.762Z" fill="#F7F8FA"/>
<path d="M176.47 197.68H174.3V199.85H176.47V197.68Z" fill="#F7F8FA"/>
<path d="M176.47 201.32H174.3V203.49H176.47V201.32Z" fill="#F7F8FA"/>
<path d="M176.47 208.602H174.3V210.772H176.47V208.602Z" fill="#F7F8FA"/>
<path d="M176.47 212.238H174.3V214.408H176.47V212.238Z" fill="#F7F8FA"/>
<path d="M176.47 215.809H174.3V217.979H176.47V215.809Z" fill="#F7F8FA"/>
<path d="M176.47 219.449H174.3V221.619H176.47V219.449Z" fill="#F7F8FA"/>
<path d="M179.9 143.078H177.73V145.248H179.9V143.078Z" fill="#F7F8FA"/>
<path d="M179.9 146.719H177.73V148.889H179.9V146.719Z" fill="#F7F8FA"/>
<path d="M179.9 150.359H177.73V152.529H179.9V150.359Z" fill="#F7F8FA"/>
<path d="M179.9 154H177.73V156.17H179.9V154Z" fill="#F7F8FA"/>
<path d="M179.9 157.641H177.73V159.811H179.9V157.641Z" fill="#F7F8FA"/>
<path d="M179.9 161.281H177.73V163.451H179.9V161.281Z" fill="#F7F8FA"/>
<path d="M179.9 164.922H177.73V167.092H179.9V164.922Z" fill="#F7F8FA"/>
<path d="M179.9 168.559H177.73V170.729H179.9V168.559Z" fill="#F7F8FA"/>
<path d="M179.9 172.199H177.73V174.369H179.9V172.199Z" fill="#F7F8FA"/>
<path d="M179.9 175.84H177.73V178.01H179.9V175.84Z" fill="#F7F8FA"/>
<path d="M179.9 179.48H177.73V181.65H179.9V179.48Z" fill="#F7F8FA"/>
<path d="M179.9 183.121H177.73V185.291H179.9V183.121Z" fill="#F7F8FA"/>
<path d="M179.9 186.762H177.73V188.932H179.9V186.762Z" fill="#F7F8FA"/>
<path d="M179.9 190.398H177.73V192.568H179.9V190.398Z" fill="#F7F8FA"/>
<path d="M179.9 197.68H177.73V199.85H179.9V197.68Z" fill="#F7F8FA"/>
<path d="M179.9 204.961H177.73V207.131H179.9V204.961Z" fill="#F7F8FA"/>
<path d="M179.9 208.602H177.73V210.772H179.9V208.602Z" fill="#F7F8FA"/>
<path d="M179.9 212.238H177.73V214.408H179.9V212.238Z" fill="#F7F8FA"/>
<path d="M179.9 215.809H177.73V217.979H179.9V215.809Z" fill="#F7F8FA"/>
<path d="M179.9 219.449H177.73V221.619H179.9V219.449Z" fill="#F7F8FA"/>
<path d="M158.97 163.871H156.8V166.041H158.97V163.871Z" fill="#F7F8FA"/>
<path d="M158.97 167.512H156.8V169.682H158.97V167.512Z" fill="#F7F8FA"/>
<path d="M158.97 171.148H156.8V173.318H158.97V171.148Z" fill="#F7F8FA"/>
<path d="M158.97 174.789H156.8V176.959H158.97V174.789Z" fill="#F7F8FA"/>
<path d="M158.97 178.359H156.8V180.529H158.97V178.359Z" fill="#F7F8FA"/>
<path d="M158.97 182H156.8V184.17H158.97V182Z" fill="#F7F8FA"/>
<path d="M158.97 192.922H156.8V195.092H158.97V192.922Z" fill="#F7F8FA"/>
<path d="M158.97 196.559H156.8V198.729H158.97V196.559Z" fill="#F7F8FA"/>
<path d="M158.97 200.199H156.8V202.369H158.97V200.199Z" fill="#F7F8FA"/>
<path d="M158.97 203.84H156.8V206.01H158.97V203.84Z" fill="#F7F8FA"/>
<path d="M158.97 207.48H156.8V209.65H158.97V207.48Z" fill="#F7F8FA"/>
<path d="M158.97 211.121H156.8V213.291H158.97V211.121Z" fill="#F7F8FA"/>
<path d="M158.97 214.762H156.8V216.932H158.97V214.762Z" fill="#F7F8FA"/>
<path d="M162.47 163.871H160.3V166.041H162.47V163.871Z" fill="#F7F8FA"/>
<path d="M162.47 167.512H160.3V169.682H162.47V167.512Z" fill="#F7F8FA"/>
<path d="M162.47 171.148H160.3V173.318H162.47V171.148Z" fill="#F7F8FA"/>
<path d="M162.47 174.789H160.3V176.959H162.47V174.789Z" fill="#F7F8FA"/>
<path d="M162.47 178.359H160.3V180.529H162.47V178.359Z" fill="#F7F8FA"/>
<path d="M162.47 182H160.3V184.17H162.47V182Z" fill="#F7F8FA"/>
<path d="M162.47 192.922H160.3V195.092H162.47V192.922Z" fill="#F7F8FA"/>
<path d="M162.47 196.559H160.3V198.729H162.47V196.559Z" fill="#F7F8FA"/>
<path d="M162.47 200.199H160.3V202.369H162.47V200.199Z" fill="#F7F8FA"/>
<path d="M162.47 203.84H160.3V206.01H162.47V203.84Z" fill="#F7F8FA"/>
<path d="M162.47 207.48H160.3V209.65H162.47V207.48Z" fill="#F7F8FA"/>
<path d="M162.47 211.121H160.3V213.291H162.47V211.121Z" fill="#F7F8FA"/>
<path d="M162.47 218.398H160.3V220.568H162.47V218.398Z" fill="#F7F8FA"/>
<path d="M276.92 147.84H274.75V150.01H276.92V147.84Z" fill="#F7F8FA"/>
<path d="M276.92 151.48H274.75V153.65H276.92V151.48Z" fill="#F7F8FA"/>
<path d="M276.92 155.121H274.75V157.291H276.92V155.121Z" fill="#F7F8FA"/>
<path d="M276.92 158.762H274.75V160.932H276.92V158.762Z" fill="#F7F8FA"/>
<path d="M276.92 162.398H274.75V164.568H276.92V162.398Z" fill="#F7F8FA"/>
<path d="M276.92 166.039H274.75V168.209H276.92V166.039Z" fill="#F7F8FA"/>
<path d="M276.92 169.68H274.75V171.85H276.92V169.68Z" fill="#F7F8FA"/>
<path d="M276.92 173.32H274.75V175.49H276.92V173.32Z" fill="#F7F8FA"/>
<path d="M276.92 176.961H274.75V179.131H276.92V176.961Z" fill="#F7F8FA"/>
<path d="M276.92 180.531H274.75V182.701H276.92V180.531Z" fill="#F7F8FA"/>
<path d="M276.92 184.172H274.75V186.342H276.92V184.172Z" fill="#F7F8FA"/>
<path d="M276.92 191.449H274.75V193.619H276.92V191.449Z" fill="#F7F8FA"/>
<path d="M276.92 195.09H274.75V197.26H276.92V195.09Z" fill="#F7F8FA"/>
<path d="M276.92 198.73H274.75V200.9H276.92V198.73Z" fill="#F7F8FA"/>
<path d="M276.92 202.371H274.75V204.541H276.92V202.371Z" fill="#F7F8FA"/>
<path d="M276.92 206.012H274.75V208.182H276.92V206.012Z" fill="#F7F8FA"/>
<path d="M276.92 209.648H274.75V211.818H276.92V209.648Z" fill="#F7F8FA"/>
<path d="M276.92 213.289H274.75V215.459H276.92V213.289Z" fill="#F7F8FA"/>
<path d="M276.92 216.93H274.75V219.1H276.92V216.93Z" fill="#F7F8FA"/>
<path d="M280.35 147.84H278.18V150.01H280.35V147.84Z" fill="#F7F8FA"/>
<path d="M280.35 151.48H278.18V153.65H280.35V151.48Z" fill="#F7F8FA"/>
<path d="M280.35 155.121H278.18V157.291H280.35V155.121Z" fill="#F7F8FA"/>
<path d="M280.35 158.762H278.18V160.932H280.35V158.762Z" fill="#F7F8FA"/>
<path d="M280.35 162.398H278.18V164.568H280.35V162.398Z" fill="#F7F8FA"/>
<path d="M280.35 166.039H278.18V168.209H280.35V166.039Z" fill="#F7F8FA"/>
<path d="M280.35 169.68H278.18V171.85H280.35V169.68Z" fill="#F7F8FA"/>
<path d="M280.35 173.32H278.18V175.49H280.35V173.32Z" fill="#F7F8FA"/>
<path d="M280.35 176.961H278.18V179.131H280.35V176.961Z" fill="#F7F8FA"/>
<path d="M280.35 180.531H278.18V182.701H280.35V180.531Z" fill="#F7F8FA"/>
<path d="M280.35 184.172H278.18V186.342H280.35V184.172Z" fill="#F7F8FA"/>
<path d="M280.35 187.809H278.18V189.979H280.35V187.809Z" fill="#F7F8FA"/>
<path d="M280.35 191.449H278.18V193.619H280.35V191.449Z" fill="#F7F8FA"/>
<path d="M280.35 195.09H278.18V197.26H280.35V195.09Z" fill="#F7F8FA"/>
<path d="M280.35 198.73H278.18V200.9H280.35V198.73Z" fill="#F7F8FA"/>
<path d="M280.35 202.371H278.18V204.541H280.35V202.371Z" fill="#F7F8FA"/>
<path d="M280.35 206.012H278.18V208.182H280.35V206.012Z" fill="#F7F8FA"/>
<path d="M280.35 209.648H278.18V211.818H280.35V209.648Z" fill="#F7F8FA"/>
<path d="M280.35 213.289H278.18V215.459H280.35V213.289Z" fill="#F7F8FA"/>
<path d="M280.35 216.93H278.18V219.1H280.35V216.93Z" fill="#F7F8FA"/>
<path d="M259.91 161.98H257.74V164.15H259.91V161.98Z" fill="#F7F8FA"/>
<path d="M259.91 165.621H257.74V167.791H259.91V165.621Z" fill="#F7F8FA"/>
<path d="M259.91 169.262H257.74V171.432H259.91V169.262Z" fill="#F7F8FA"/>
<path d="M259.91 172.898H257.74V175.068H259.91V172.898Z" fill="#F7F8FA"/>
<path d="M259.91 176.539H257.74V178.709H259.91V176.539Z" fill="#F7F8FA"/>
<path d="M259.91 180.18H257.74V182.35H259.91V180.18Z" fill="#F7F8FA"/>
<path d="M259.91 183.82H257.74V185.99H259.91V183.82Z" fill="#F7F8FA"/>
<path d="M259.91 187.461H257.74V189.631H259.91V187.461Z" fill="#F7F8FA"/>
<path d="M259.91 191.102H257.74V193.272H259.91V191.102Z" fill="#F7F8FA"/>
<path d="M259.91 194.738H257.74V196.908H259.91V194.738Z" fill="#F7F8FA"/>
<path d="M263.34 161.98H261.17V164.15H263.34V161.98Z" fill="#F7F8FA"/>
<path d="M263.34 165.621H261.17V167.791H263.34V165.621Z" fill="#F7F8FA"/>
<path d="M263.34 169.262H261.17V171.432H263.34V169.262Z" fill="#F7F8FA"/>
<path d="M263.34 172.898H261.17V175.068H263.34V172.898Z" fill="#F7F8FA"/>
<path d="M263.34 176.539H261.17V178.709H263.34V176.539Z" fill="#F7F8FA"/>
<path d="M263.34 180.18H261.17V182.35H263.34V180.18Z" fill="#F7F8FA"/>
<path d="M263.34 183.82H261.17V185.99H263.34V183.82Z" fill="#F7F8FA"/>
<path d="M263.34 187.461H261.17V189.631H263.34V187.461Z" fill="#F7F8FA"/>
<path d="M263.34 191.102H261.17V193.272H263.34V191.102Z" fill="#F7F8FA"/>
<path d="M175 260.82C249.962 260.82 310.73 257.279 310.73 252.91C310.73 248.541 249.962 245 175 245C100.038 245 39.27 248.541 39.27 252.91C39.27 257.279 100.038 260.82 175 260.82Z" fill="#F7F8FA"/>
<path d="M295.54 247.8L285.81 199.5H282.31L272.44 247.8L265.3 252.14V253.4H302.4V252.14L295.54 247.8Z" fill="#000000"/>
<path opacity="0.2" d="M302.61 252.141H265.51V253.751H302.61V252.141Z" fill="black"/>
<path opacity="0.2" d="M285.81 199.852H282.31L272.51 247.942H295.61L285.81 199.852Z" fill="black"/>
<path opacity="0.6" d="M293.51 237.3H274.75L278.11 220.5H290.08L293.44 237.02L293.51 237.3Z" fill="white"/>
<path d="M198.24 82.3891L192.08 84.6991C191.59 84.3491 193.97 63.3491 193.97 63.3491L190.19 62.7891C190.19 62.7891 183.82 84.6291 185.99 89.0391C188.79 94.7791 201.18 89.0391 201.18 89.0391L198.24 82.3891Z" fill="#B97964"/>
<path d="M311.499 95.1857L314.385 82.6328L149.151 44.6559L146.266 57.2087L311.499 95.1857Z" fill="#000000"/>
<path opacity="0.6" d="M311.499 95.1857L314.385 82.6328L149.151 44.6559L146.266 57.2087L311.499 95.1857Z" fill="white"/>
<path opacity="0.2" d="M312.709 89.9316L313.164 87.9531L147.93 49.9762L147.475 51.9546L312.709 89.9316Z" fill="black"/>
<path d="M153.3 52.22C153.93 49.49 153.02 46.69 150.99 44.8L150.71 44.52L149.31 44.17C149.03 44.1 148.75 44.31 148.68 44.52L145.81 57.05C145.74 57.33 145.95 57.61 146.16 57.68L147.56 58.03L147.91 57.89C150.64 57.12 152.67 54.95 153.3 52.22Z" fill="#000000"/>
<path opacity="0.2" d="M153.3 52.22C153.93 49.49 153.02 46.69 150.99 44.8L150.71 44.52L149.31 44.17C149.03 44.1 148.75 44.31 148.68 44.52L145.81 57.05C145.74 57.33 145.95 57.61 146.16 57.68L147.56 58.03L147.91 57.89C150.64 57.12 152.67 54.95 153.3 52.22Z" fill="black"/>
<path d="M182.56 62.5794L190.75 26.8094L187.74 26.1094L179.06 63.8394C178.99 64.1894 179.2 64.5394 179.55 64.6094C179.76 64.6794 179.9 64.6094 180.11 64.4694L182.28 62.9294C182.42 62.8594 182.49 62.7194 182.56 62.5794Z" fill="#000000"/>
<path d="M215.04 70.0016L223.23 34.3016L220.22 33.6016L211.54 71.3316C211.47 71.6816 211.68 72.0316 212.03 72.1016C212.24 72.1716 212.38 72.1016 212.59 71.9616L214.76 70.4216C214.9 70.3516 215.04 70.2116 215.04 70.0016Z" fill="#000000"/>
<path d="M247.52 77.4895L255.71 41.7195L252.7 41.0195L244.02 78.7495C243.95 79.0995 244.16 79.4495 244.51 79.5195C244.72 79.5895 244.86 79.5195 245.07 79.3795L247.24 77.8395C247.38 77.7695 247.52 77.6295 247.52 77.4895Z" fill="#000000"/>
<path d="M280 84.9817L288.19 49.2117L285.18 48.5117L276.5 86.2417C276.43 86.5917 276.64 86.9417 276.99 87.0117C277.2 87.0817 277.34 87.0117 277.55 86.8717L279.72 85.3317C279.86 85.2617 280 85.1217 280 84.9817Z" fill="#000000"/>
<path d="M317.724 68.0646L320.61 55.5117L155.376 17.5348L152.491 30.0876L317.724 68.0646Z" fill="#000000"/>
<path opacity="0.7" d="M317.724 68.0646L320.61 55.5117L155.376 17.5348L152.491 30.0876L317.724 68.0646Z" fill="white"/>
<path opacity="0.2" d="M318.95 62.7441L319.404 60.7656L154.171 22.7887L153.716 24.7671L318.95 62.7441Z" fill="black"/>
<path d="M150.08 55.09L158.55 18.2L155.54 17.5L146.58 56.35C146.51 56.7 146.72 57.05 147.07 57.12C147.28 57.19 147.42 57.12 147.63 56.98L149.8 55.44C149.94 55.37 150.01 55.23 150.08 55.09Z" fill="#000000"/>
<path d="M159.53 25.0598C160.16 22.3298 159.25 19.5298 157.22 17.6398L156.94 17.3598L155.54 17.0098C155.26 16.9398 154.98 17.1498 154.91 17.3598L152.04 29.8898C151.97 30.1698 152.18 30.4498 152.39 30.5198L153.79 30.8698L154.14 30.7298C156.87 29.9598 158.9 27.7898 159.53 25.0598Z" fill="#000000"/>
<path opacity="0.1" d="M159.53 25.0598C160.16 22.3298 159.25 19.5298 157.22 17.6398L156.94 17.3598L155.54 17.0098C155.26 16.9398 154.98 17.1498 154.91 17.3598L152.04 29.8898C151.97 30.1698 152.18 30.4498 152.39 30.5198L153.79 30.8698L154.14 30.7298C156.87 29.9598 158.9 27.7898 159.53 25.0598Z" fill="white"/>
<path d="M218.54 87.4996C218.26 87.4296 217.91 87.4296 217.42 87.4996C215.67 87.6396 212.59 88.1996 209.37 88.8996C203.35 90.1596 196.77 91.8396 196.77 91.8396L193.9 83.2996C193.9 83.2996 213.29 72.0996 216.44 73.0096C216.44 73.0796 221.69 87.9896 218.54 87.4996Z" fill="#263238"/>
<path d="M263.06 96.25C263.06 96.25 268.24 102.2 267.68 109.9C267.12 117.6 247.52 129.5 247.52 129.5L245 125.65C245 125.65 260.54 112.49 260.96 109.9C261.38 107.31 257.74 101.5 257.74 101.5L263.06 96.25Z" fill="#B97964"/>
<path d="M245.7 124.319C245.7 124.319 248.85 128.589 248.71 129.149C248.57 129.709 245.98 131.319 245.98 131.319C245.98 131.319 246.4 133.839 246.4 134.329C246.4 135.449 244.37 136.919 243.81 136.569C241.92 135.309 241.22 131.879 240.87 130.339C240.66 128.729 244.79 123.899 245.7 124.319Z" fill="#000000"/>
<path opacity="0.7" d="M245.7 124.319C245.7 124.319 248.85 128.589 248.71 129.149C248.57 129.709 245.98 131.319 245.98 131.319C245.98 131.319 246.4 133.839 246.4 134.329C246.4 135.449 244.37 136.919 243.81 136.569C241.92 135.309 241.22 131.879 240.87 130.339C240.66 128.729 244.79 123.899 245.7 124.319Z" fill="white"/>
<path d="M217.35 248.57L211.68 249.13L210.56 236.88L216.3 236.32L217.35 248.57Z" fill="#B97964"/>
<path d="M245.7 248.15H240.17L239.75 235.41H245.21L245.7 248.15Z" fill="#B97964"/>
<path d="M239.4 247.52H246.12C246.33 247.52 246.54 247.66 246.61 247.87L247.73 252.77C247.8 253.19 247.52 253.61 247.1 253.75C247.03 253.75 246.96 253.75 246.89 253.75C244.72 253.68 243.18 253.61 240.45 253.61C238.77 253.61 233.73 253.75 231.42 253.75C229.11 253.75 228.83 251.44 229.74 251.23C234.01 250.32 237.16 249.06 238.56 247.8C238.7 247.59 239.05 247.52 239.4 247.52Z" fill="#263238"/>
<path d="M237.58 248.499C237.23 248.499 236.81 248.429 236.53 248.219C236.32 248.079 236.25 247.799 236.25 247.519C236.25 247.379 236.32 247.239 236.46 247.169C237.09 246.819 238.84 247.939 239.05 248.079C239.12 248.079 239.12 248.149 239.12 248.219C239.12 248.289 239.05 248.289 239.05 248.359C238.56 248.359 238.07 248.429 237.58 248.499ZM236.74 247.309C236.67 247.309 236.6 247.309 236.6 247.309C236.53 247.309 236.53 247.379 236.53 247.449C236.53 247.659 236.6 247.799 236.67 247.939C237.3 248.219 238 248.219 238.63 248.009C238.07 247.729 237.44 247.449 236.74 247.309Z" fill="#000000"/>
<path d="M238.98 248.29C238.35 248.01 237.23 246.75 237.37 246.19C237.44 245.98 237.58 245.84 237.79 245.84C238 245.84 238.21 245.84 238.35 245.98C238.98 246.47 239.12 248.08 239.12 248.15C239.12 248.22 239.12 248.22 239.05 248.29H238.98ZM237.86 246.05C237.65 246.05 237.58 246.12 237.58 246.19C237.51 246.54 238.21 247.45 238.77 247.87C238.7 247.24 238.49 246.61 238.14 246.12C238.07 246.05 238 246.05 237.86 246.05Z" fill="#000000"/>
<path d="M211.05 247.309H217.77C217.98 247.309 218.19 247.449 218.26 247.659L219.38 252.559C219.45 252.979 219.17 253.399 218.75 253.539C218.68 253.539 218.61 253.539 218.54 253.539C216.37 253.469 214.83 253.399 212.1 253.399C210.42 253.399 205.38 253.539 203.07 253.539C200.76 253.539 200.48 251.229 201.39 251.019C205.66 250.109 208.81 248.849 210.21 247.589C210.35 247.449 210.7 247.309 211.05 247.309Z" fill="#263238"/>
<path d="M209.23 248.288C208.88 248.288 208.46 248.218 208.18 248.008C207.97 247.868 207.9 247.588 207.9 247.308C207.9 247.168 207.97 247.028 208.11 246.958C208.74 246.608 210.49 247.728 210.7 247.868C210.77 247.868 210.77 247.938 210.77 248.008C210.77 248.078 210.7 248.078 210.7 248.148C210.21 248.218 209.72 248.288 209.23 248.288ZM208.39 247.168C208.32 247.168 208.25 247.168 208.25 247.168C208.18 247.168 208.18 247.238 208.18 247.308C208.18 247.518 208.25 247.658 208.32 247.798C208.95 248.078 209.65 248.078 210.28 247.868C209.72 247.518 209.09 247.308 208.39 247.168Z" fill="#000000"/>
<path d="M210.63 248.079C210 247.799 208.88 246.539 209.02 245.979C209.09 245.769 209.23 245.629 209.44 245.629C209.65 245.629 209.86 245.629 210 245.769C210.63 246.259 210.77 247.869 210.77 247.939C210.77 248.009 210.77 248.009 210.7 248.079C210.7 248.149 210.63 248.079 210.63 248.079ZM209.51 245.839C209.3 245.839 209.23 245.909 209.23 245.979C209.16 246.329 209.86 247.239 210.42 247.659C210.35 247.029 210.14 246.399 209.79 245.909C209.72 245.909 209.65 245.839 209.51 245.839Z" fill="#000000"/>
<path opacity="0.2" d="M216.3 236.32L210.56 236.88L211.12 243.25L216.86 242.62L216.3 236.32Z" fill="black"/>
<path opacity="0.2" d="M245.21 235.41H239.75L239.96 241.99H245.49L245.21 235.41Z" fill="black"/>
<path d="M242.97 123.551H213.78C210.98 138.741 202.3 192.361 208.53 240.171L218.4 238.911C218.4 238.911 217.49 175.421 226.24 151.971C227.22 164.501 228.41 177.871 229.46 185.011C231.98 202.511 237.44 240.731 237.44 240.731H247.52C247.52 240.731 245.49 204.121 244.51 186.901C243.46 168.351 242.97 127.401 242.97 123.551Z" fill="#000000"/>
<path opacity="0.2" d="M226.24 152.04C224.98 155.47 223.86 159.81 222.95 164.71C222.11 153.51 225.4 141.68 225.4 141.68L226.24 152.04Z" fill="black"/>
<path d="M207.41 242.551L219.59 240.731L219.24 237.301L206.5 238.981L207.41 242.551Z" fill="#000000"/>
<path opacity="0.6" d="M207.41 242.551L219.59 240.731L219.24 237.301L206.5 238.981L207.41 242.551Z" fill="white"/>
<path d="M236.25 240.94H248.08V237.37L235.76 237.16L236.25 240.94Z" fill="#000000"/>
<path opacity="0.6" d="M236.25 240.94H248.08V237.37L235.76 237.16L236.25 240.94Z" fill="white"/>
<path d="M213.5 123.898H242.9V127.398L213.15 127.048L213.5 123.898Z" fill="#263238"/>
<path d="M233.45 122.359H232.4V128.589H233.45V122.359Z" fill="#000000"/>
<path d="M218.61 122.359H217.56V128.589H218.61V122.359Z" fill="#000000"/>
<path opacity="0.2" d="M217.49 87.4994C215.74 87.6394 212.66 88.1994 209.44 88.8994C210.49 84.2094 216.3 80.3594 216.3 80.3594L217.49 87.4994Z" fill="black"/>
<path d="M226.94 123.34H221.48V127.26H226.94V123.34Z" fill="white"/>
<path d="M248.85 75.6692C248.85 75.6692 247.94 80.1492 246.89 86.6592C246.4 89.5992 245.84 92.9592 245.35 96.5292C244.02 105.699 242.9 116.199 242.97 123.969H213.5C213.5 123.969 211.61 91.1392 216.44 73.0792C216.44 73.0792 234.99 72.1692 248.85 75.6692Z" fill="#263238"/>
<path d="M238.28 73.7106C235.62 76.1606 229.04 75.2506 229.04 75.2506C229.04 75.2506 224.91 74.1306 225.82 72.8706C228.2 72.4506 229.39 71.3306 229.88 69.9306C230.16 69.0906 230.23 68.1806 230.09 67.2006C230.02 66.7106 229.95 66.1506 229.88 65.6606L238 59.6406C236.95 63.5606 235.62 70.8406 238.28 73.7106Z" fill="#B97964"/>
<path opacity="0.2" d="M236.11 63.3516C235.76 68.2516 231.77 69.5816 229.81 69.8616C230.09 69.0216 230.16 68.1116 230.02 67.1316L236.11 63.3516Z" fill="black"/>
<path d="M237.09 70.6289L229.32 74.1289L228.9 71.3289L226.03 72.3089C224.98 72.6589 224.35 73.7089 224.49 74.7589L224.84 77.8389L228.76 75.6689L230.72 78.4689L240.03 73.9889L237.09 70.6289Z" fill="#263238"/>
<path opacity="0.2" d="M237.09 70.6289L229.32 74.1289L228.9 71.3289L226.03 72.3089C224.98 72.6589 224.35 73.7089 224.49 74.7589L224.84 77.8389L228.76 75.6689L230.72 78.4689L240.03 73.9889L237.09 70.6289Z" fill="white"/>
<path d="M245.84 74.9708C245.84 74.9708 238.98 98.0708 245.07 102.201C245.07 102.201 244.23 121.171 243.04 123.901C243.04 123.901 227.36 124.811 213.57 123.901C213.57 123.901 212.38 115.011 212.66 102.271C212.66 102.271 214.9 99.4708 214.9 97.3708C214.9 95.2708 216.16 78.4008 220.36 72.8008H222.67C222.67 72.8008 219.31 79.6608 219.73 85.7508C219.73 85.7508 230.02 87.5008 237.44 86.4508C237.44 86.4508 239.68 78.2608 242.13 74.2008L245.84 74.9708Z" fill="#000000"/>
<path opacity="0.2" d="M218.54 103.602H235.9C235.9 103.602 236.95 117.812 225.05 116.902C215.95 116.202 218.54 103.602 218.54 103.602Z" fill="black"/>
<path d="M224.35 46.6875C224.35 46.6875 222.04 53.9675 225.54 57.5375C229.04 61.0375 231.28 47.1075 231.28 47.1075L224.35 46.6875Z" fill="#263238"/>
<path d="M237.23 63.9772C236.95 64.4672 236.6 64.8872 236.18 65.3072C233.8 67.7572 230.58 68.0372 227.99 66.7072C226.31 65.8672 224.91 64.3972 224.21 62.5072C224.14 62.2272 224.07 62.0172 223.93 61.7372C223.79 61.1072 223.65 60.4772 223.58 59.7772C222.95 54.9472 224 48.4372 228.69 46.4772C232.47 44.8672 236.88 46.6172 238.49 50.3972C238.98 51.4472 239.19 52.6372 239.12 53.8272C238.77 58.4472 238.84 61.4572 237.23 63.9772Z" fill="#B97964"/>
<path opacity="0.1" d="M237.23 63.9803C236.95 64.4703 236.6 64.8903 236.18 65.3103C233.8 67.7603 230.58 68.0403 227.99 66.7103C226.31 65.8703 224.91 64.4003 224.21 62.5103C224.14 62.2303 224.07 62.0203 223.93 61.7403C223.79 61.1103 223.65 60.4803 223.58 59.7803C224.35 60.2003 225.47 60.6903 226.24 60.6203C227.43 60.5503 228.06 61.1803 228.06 61.1803C229.81 60.1303 232.68 60.0603 234.01 59.7103C235.34 59.3603 235.69 54.3203 235.69 54.3203L237.37 56.1403C237.93 59.5003 237.86 62.0203 237.23 63.9803Z" fill="black"/>
<path d="M230.79 55.438C230.86 55.858 230.58 56.278 230.3 56.278C230.02 56.278 229.74 55.928 229.74 55.508C229.74 55.088 229.95 54.668 230.23 54.668C230.51 54.668 230.72 55.018 230.79 55.438Z" fill="#263238"/>
<path d="M225.75 55.5083C225.82 55.9283 225.54 56.3483 225.26 56.3483C224.98 56.3483 224.7 55.9983 224.7 55.5783C224.7 55.1583 224.91 54.7383 225.19 54.7383C225.47 54.7383 225.75 55.0883 225.75 55.5083Z" fill="#263238"/>
<path d="M227.36 55.7188C226.87 57.0488 226.17 58.3788 225.26 59.5688C225.89 59.9888 226.66 60.1288 227.43 59.9188L227.36 55.7188Z" fill="#A24E3F"/>
<path d="M232.26 53.8297C232.19 53.8297 232.05 53.8297 231.98 53.7597C231.56 53.1997 230.93 52.9197 230.3 52.9197C230.16 52.9197 230.02 52.8497 230.02 52.7097C230.02 52.5697 230.09 52.4297 230.23 52.4297C231.07 52.4297 231.84 52.7797 232.33 53.4797C232.4 53.6197 232.4 53.7597 232.33 53.8297C232.4 53.8297 232.33 53.8297 232.26 53.8297Z" fill="#263238"/>
<path d="M228.13 62.2295C229.39 62.4395 230.72 61.9495 231.63 60.9695C231.7 60.8995 231.7 60.8295 231.63 60.7595C231.56 60.6895 231.49 60.6895 231.42 60.7595C230.58 61.5995 229.39 62.0195 228.2 61.8795C228.13 61.8795 228.06 61.9495 228.06 62.0195C227.99 62.1595 228.06 62.2295 228.13 62.2295Z" fill="#263238"/>
<path d="M223.58 53.8278C223.51 53.8278 223.51 53.8278 223.44 53.8278C223.3 53.7578 223.23 53.6178 223.3 53.4778C223.65 52.7078 224.35 52.1478 225.19 52.0078C225.33 52.0078 225.47 52.0778 225.47 52.2178C225.47 52.3578 225.4 52.4978 225.26 52.4978C224.63 52.6378 224.07 53.0578 223.79 53.6878C223.72 53.7578 223.65 53.8278 223.58 53.8278Z" fill="#263238"/>
<path d="M234.92 47.1094L234.57 49.4894C235.34 49.9094 235.76 50.8194 235.41 51.7994C234.57 53.7594 235.62 56.9794 237.09 58.2394C237.09 58.2394 237.16 57.3994 237.93 57.6094C238.63 57.8194 238.28 62.3694 236.81 64.5394C236.81 64.5394 239.05 62.6494 240.45 57.8894C241.71 53.4794 241.99 49.8394 241.15 48.0894L234.92 47.1094Z" fill="#263238"/>
<path d="M240.94 48.7176C240.94 48.7176 243.39 44.9376 236.81 42.9776C230.3 41.0176 225.75 43.8176 225.75 43.8176C225.75 43.8176 221.48 48.9276 227.15 49.6976C232.75 50.6076 240.94 48.7176 240.94 48.7176Z" fill="#263238"/>
<path d="M241.92 58.3779C241.36 59.6379 240.24 60.5479 238.98 61.0379C237.23 61.6679 236.32 60.1279 236.67 58.4479C237.02 56.9779 238.35 54.8079 240.1 54.9479C241.92 55.0879 242.62 56.8379 241.92 58.3779Z" fill="#B97964"/>
<path d="M238.28 49.2773C238.28 49.2773 236.39 67.4073 227.15 66.2173L228.27 66.9873C228.27 66.9873 236.53 68.1773 239.47 49.4873L238.28 49.2773Z" fill="#263238"/>
<path opacity="0.2" d="M238.28 49.2773C238.28 49.2773 236.39 67.4073 227.15 66.2173L228.27 66.9873C228.27 66.9873 236.53 68.1773 239.47 49.4873L238.28 49.2773Z" fill="black"/>
<path d="M242.76 50.8184C240.03 50.1184 231.21 51.5884 227.01 51.3784C222.88 51.1684 221.48 50.5384 220.85 49.9084C220.08 49.2784 222.67 48.5084 222.67 48.5084C222.67 48.5084 223.02 42.2084 228.2 39.3384C229.53 38.5684 231.21 38.0784 233.31 37.9384C234.92 37.7984 236.18 38.0084 237.3 38.3584C243.53 40.4584 243.04 48.8584 243.04 48.8584C243.04 48.8584 245.49 51.4484 242.76 50.8184Z" fill="#000000"/>
<path opacity="0.2" d="M242.76 50.8193C240.03 50.1193 231.21 51.5893 227.01 51.3793C222.88 51.1693 221.48 50.5393 220.85 49.9093C220.08 49.2793 222.67 48.5093 222.67 48.5093C222.67 48.5093 225.26 50.2593 227.92 49.7693C230.58 49.2793 238.28 47.1793 243.04 48.8593C243.04 48.9293 245.49 51.4493 242.76 50.8193Z" fill="black"/>
<path opacity="0.2" d="M237.23 38.4287C234.57 38.8487 232.33 41.2987 231.35 43.6087C230.02 46.6187 225.26 50.0487 225.89 43.3287C226.03 41.5787 226.94 40.3187 228.2 39.4087C229.53 38.6387 231.21 38.1487 233.31 38.0087C234.85 37.8687 236.18 38.0787 237.23 38.4287Z" fill="black"/>
<path d="M199.08 92.6084L194.46 81.8984L192.43 83.3684L196.14 93.1684L199.08 92.6084Z" fill="#263238"/>
<path opacity="0.2" d="M199.08 92.6084L194.46 81.8984L192.43 83.3684L196.14 93.1684L199.08 92.6084Z" fill="white"/>
<path d="M190.75 54.2508C190.75 54.2508 190.47 56.2108 191.31 56.4208C192.15 56.6308 195.02 57.4008 195.72 57.3308C196.42 57.2608 196.91 54.5308 196.91 54.2508C196.91 53.9008 191.38 52.2208 190.75 54.2508Z" fill="#000000"/>
<path opacity="0.7" d="M190.75 54.2508C190.75 54.2508 190.47 56.2108 191.31 56.4208C192.15 56.6308 195.02 57.4008 195.72 57.3308C196.42 57.2608 196.91 54.5308 196.91 54.2508C196.91 53.9008 191.38 52.2208 190.75 54.2508Z" fill="white"/>
<path opacity="0.2" d="M246.82 86.5911C246.33 89.5311 245.77 92.8911 245.28 96.4611C242.97 92.1911 244.79 85.1211 244.79 85.1211L246.82 86.5911Z" fill="black"/>
<path d="M248.85 75.668C248.85 75.668 252.98 76.998 267.68 101.078L259.21 106.258C259.21 106.258 248.64 91.768 245.84 90.998C245.84 90.998 242.34 79.028 248.85 75.668Z" fill="#263238"/>
<path d="M267.19 99.5391L257.67 106.259L259.56 107.939L268.38 102.269L267.19 99.5391Z" fill="#263238"/>
<path opacity="0.2" d="M267.19 99.5391L257.67 106.259L259.56 107.939L268.38 102.269L267.19 99.5391Z" fill="white"/>
<path d="M38.3601 253.751H43.4001L55.0901 148.191H50.0501L38.3601 253.751Z" fill="#263238"/>
<path opacity="0.1" d="M51.8701 177.172L47.8101 213.712L43.4001 253.402H38.3601L42.7701 213.712L47.1801 173.602H47.2501L51.8701 177.172Z" fill="white"/>
<path d="M121.8 253.751H126.84L138.53 148.191H133.49L121.8 253.751Z" fill="#263238"/>
<path opacity="0.1" d="M128.94 234.711L126.84 253.401H121.8L124.32 231.141L128.94 234.711Z" fill="white"/>
<path d="M42.77 213.921H131.32L143.43 104.371H54.88L42.77 213.921Z" fill="#263238"/>
<path opacity="0.1" d="M100.94 214.203H42.77L47.25 173.883L51.87 177.453L100.94 214.203Z" fill="white"/>
<path d="M160.23 253.751H155.12L143.5 148.191H148.54L160.23 253.751Z" fill="#263238"/>
<path opacity="0.2" d="M160.23 253.751H155.12L143.5 148.191H148.54L160.23 253.751Z" fill="white"/>
<path d="M76.7901 253.751H71.7501L60.0601 148.191H65.1001L76.7901 253.751Z" fill="#263238"/>
<path opacity="0.2" d="M76.7901 253.751H71.7501L60.0601 148.191H65.1001L76.7901 253.751Z" fill="white"/>
<path d="M155.82 213.921H67.2702L55.1602 104.371H143.71L155.82 213.921Z" fill="#000000"/>
<path opacity="0.6" d="M155.82 213.921H67.2702L55.1602 104.371H143.71L155.82 213.921Z" fill="white"/>
<path d="M143.64 104.301L144.76 114.101H56.2802L55.1602 104.301H143.64Z" fill="#000000"/>
<path opacity="0.2" d="M143.64 104.301L144.76 114.101H56.2802L55.1602 104.301H143.64Z" fill="white"/>
<path d="M63.2802 104.301L61.3902 114.101H58.4502L60.3402 104.301H63.2802Z" fill="#263238"/>
<path d="M72.5902 104.301L70.7002 114.101H70.6302H67.6902L69.5802 104.301H72.5902Z" fill="#263238"/>
<path d="M81.8302 104.301L79.9402 114.101H77.0002L78.8902 104.301H81.8302Z" fill="#263238"/>
<path d="M91.1402 104.301L89.1802 114.101H86.2402L88.1302 104.301H91.1402Z" fill="#263238"/>
<path d="M100.38 104.301L98.4903 114.101H95.5503L97.4403 104.301H100.38Z" fill="#263238"/>
<path d="M109.69 104.301L107.73 114.101H104.79L106.68 104.301H109.69Z" fill="#263238"/>
<path d="M118.93 104.301L117.04 114.101H114.1L115.99 104.301H118.93Z" fill="#263238"/>
<path d="M128.24 104.301L126.28 114.101H123.34L125.23 104.301H128.24Z" fill="#263238"/>
<path d="M137.48 104.301L135.59 114.101H132.65L134.54 104.301H137.48Z" fill="#263238"/>
<path d="M143.78 105.492L144.76 114.102H141.89L143.78 105.492Z" fill="#263238"/>
<path d="M67.3402 214.202L66.2202 204.402H154.7L155.82 214.202H67.3402Z" fill="#000000"/>
<path opacity="0.2" d="M67.3402 214.202L66.2202 204.402H154.7L155.82 214.202H67.3402Z" fill="white"/>
<path d="M147.7 214.202L149.59 204.472V204.402H152.53V204.472L150.64 214.202H147.7Z" fill="#263238"/>
<path d="M138.46 214.202L140.35 204.472V204.402H143.29V204.472L141.4 214.202H138.46Z" fill="#263238"/>
<path d="M129.15 214.202L131.04 204.472V204.402H134.05L133.98 204.472L132.09 214.202H129.15Z" fill="#263238"/>
<path d="M119.91 214.202L121.8 204.472V204.402H124.74V204.472L122.85 214.202H119.91Z" fill="#263238"/>
<path d="M110.6 214.202L112.49 204.472V204.402H115.5L115.43 204.472L113.54 214.202H110.6Z" fill="#263238"/>
<path d="M101.36 214.202L103.25 204.472V204.402H106.19V204.472L104.3 214.202H101.36Z" fill="#263238"/>
<path d="M92.0503 214.202L93.9403 204.472V204.402H96.9503L96.8803 204.472L94.9903 214.202H92.0503Z" fill="#263238"/>
<path d="M82.8103 214.202L84.7003 204.472V204.402H87.6403V204.472L85.7503 214.202H82.8103Z" fill="#263238"/>
<path d="M73.5002 214.202L75.3902 204.472V204.402H78.4003V204.472L76.4402 214.202H73.5002Z" fill="#263238"/>
<path d="M67.2002 213.082L66.2202 204.402H69.0902L67.2002 213.082Z" fill="#263238"/>
<path d="M89.3203 143.641L82.1103 160.721L83.9303 181.091L74.0603 196.001H76.1603L87.0103 182.631L88.5503 169.541L97.6503 182.701L96.7403 196.001H98.9103L101.29 179.831L93.1003 162.751L99.2603 151.201L89.3203 143.641Z" fill="#000000"/>
<path d="M93.3103 148.471C93.3103 148.471 94.7803 140.981 97.6503 140.281C98.7003 140.001 102.34 143.571 102.34 146.021C102.34 148.541 94.4303 149.941 94.4303 149.941L93.3103 148.471Z" fill="#000000"/>
<path d="M89.3202 143.639C89.3202 143.639 80.4302 142.939 79.1702 143.289C77.9102 143.639 78.8902 152.739 78.8902 152.739L80.3602 153.159C80.3602 153.159 80.2902 145.669 80.7102 145.669C81.1302 145.669 88.8302 147.909 88.8302 147.909L89.3202 143.639Z" fill="#000000"/>
<path d="M99.2603 151.199C100.24 151.969 97.1603 164.569 97.1603 164.569L100.17 171.219L99.4703 171.639C99.4703 171.639 95.0603 166.039 94.5703 164.779C93.5203 162.329 95.4103 154.069 95.4103 154.069L99.2603 151.199Z" fill="#000000"/>
<path d="M112.98 183.61L113.68 182.63L69.7903 142.66L69.0203 143.71L112.98 183.61Z" fill="#000000"/>
<path d="M113.54 179.973L110.95 183.263C110.95 183.263 114.59 187.253 117.67 186.973C117.67 186.973 117.6 184.033 113.54 179.973Z" fill="#000000"/>
<path d="M99.5402 170.59C99.5402 170.59 102.06 171.36 101.99 171.99C101.85 172.69 101.5 173.74 101.08 173.81C100.66 173.88 99.4702 171.57 99.4702 171.57L99.5402 170.59Z" fill="#000000"/>
<path d="M79.0302 151.973C79.0302 151.973 78.6102 153.163 79.9402 154.493C81.2702 155.823 81.8302 154.493 81.8302 154.493L79.0302 151.973Z" fill="#000000"/>
<path d="M70.3503 196H145.6L141.47 194.04C141.47 194.04 137.48 187.11 135.31 185.5C133.14 183.96 128.73 180.18 127.33 179.9C125.93 179.69 125.37 176.82 124.04 176.82C122.64 176.82 115.85 186.83 115.85 186.83C115.85 186.83 114.66 188.65 113.19 189.35C111.72 190.05 109.2 193.9 109.2 193.9C109.2 193.9 86.8703 194.6 70.3503 196Z" fill="#000000"/>
<g opacity="0.2">
<g opacity="0.2">
<g opacity="0.2">
<path opacity="0.2" d="M89.3203 143.641L82.1103 160.721L83.9303 181.091L74.0603 196.001H76.1603L87.0103 182.631L88.5503 169.541L97.6503 182.701L96.7403 196.001H98.9103L101.29 179.831L93.1003 162.751L99.2603 151.201L89.3203 143.641Z" fill="black"/>
</g>
<g opacity="0.2">
<path opacity="0.2" d="M93.3103 148.471C93.3103 148.471 94.7803 140.981 97.6503 140.281C98.7003 140.001 102.34 143.571 102.34 146.021C102.34 148.541 94.4303 149.941 94.4303 149.941L93.3103 148.471Z" fill="black"/>
</g>
<g opacity="0.2">
<path opacity="0.2" d="M89.3202 143.639C89.3202 143.639 80.4302 142.939 79.1702 143.289C77.9102 143.639 78.8902 152.739 78.8902 152.739L80.3602 153.159C80.3602 153.159 80.2902 145.669 80.7102 145.669C81.1302 145.669 88.8302 147.909 88.8302 147.909L89.3202 143.639Z" fill="black"/>
</g>
<g opacity="0.2">
<path opacity="0.2" d="M99.2603 151.199C100.24 151.969 97.1603 164.569 97.1603 164.569L100.17 171.219L99.4703 171.639C99.4703 171.639 95.0603 166.039 94.5703 164.779C93.5203 162.329 95.4103 154.069 95.4103 154.069L99.2603 151.199Z" fill="black"/>
</g>
<g opacity="0.2">
<path opacity="0.2" d="M112.98 183.61L113.68 182.63L69.7903 142.66L69.0203 143.71L112.98 183.61Z" fill="black"/>
</g>
<g opacity="0.2">
<path opacity="0.2" d="M113.54 179.973L110.95 183.263C110.95 183.263 114.59 187.253 117.67 186.973C117.67 186.973 117.6 184.033 113.54 179.973Z" fill="black"/>
</g>
<g opacity="0.2">
<path opacity="0.2" d="M99.5402 170.59C99.5402 170.59 102.06 171.36 101.99 171.99C101.85 172.69 101.5 173.74 101.08 173.81C100.66 173.88 99.4702 171.57 99.4702 171.57L99.5402 170.59Z" fill="black"/>
</g>
<g opacity="0.2">
<path opacity="0.2" d="M79.0302 151.973C79.0302 151.973 78.6102 153.163 79.9402 154.493C81.2702 155.823 81.8302 154.493 81.8302 154.493L79.0302 151.973Z" fill="black"/>
</g>
</g>
<path opacity="0.2" d="M70.3503 196H145.6L141.47 194.04C141.47 194.04 137.48 187.11 135.31 185.5C133.14 183.96 128.73 180.18 127.33 179.9C125.93 179.69 125.37 176.82 124.04 176.82C122.64 176.82 115.85 186.83 115.85 186.83C115.85 186.83 114.66 188.65 113.19 189.35C111.72 190.05 109.2 193.9 109.2 193.9C109.2 193.9 86.8703 194.6 70.3503 196Z" fill="black"/>
</g>
<path d="M182.28 233.098L175.35 241.988L172.9 241.638L180.18 233.098H182.28Z" fill="#000000"/>
<path opacity="0.3" d="M182.28 233.098L175.35 241.988L172.9 241.638L180.18 233.098H182.28Z" fill="black"/>
<path d="M180.18 224.699L173.25 233.589L170.8 233.239L178.08 224.699H180.18Z" fill="#000000"/>
<path opacity="0.3" d="M180.18 224.699L173.25 233.589L170.8 233.239L178.08 224.699H180.18Z" fill="black"/>
<path d="M160.3 220.148H130.41L137.41 238.698H167.3L160.3 220.148Z" fill="#000000"/>
<path opacity="0.3" d="M160.3 220.148H130.41L137.41 238.698H167.3L160.3 220.148Z" fill="black"/>
<path d="M183.47 231.699H136.01V234.079H183.47V231.699Z" fill="#000000"/>
<path opacity="0.2" d="M154.21 231.699H136.01V234.079H154.21V231.699Z" fill="black"/>
<path d="M180.67 224.699H133.21V227.079H180.67V224.699Z" fill="#000000"/>
<path opacity="0.2" d="M151.41 224.699H133.21V227.079H151.41V224.699Z" fill="black"/>
<path d="M130.48 220.289L128.8 222.249L135.1 238.699H137.55L130.48 220.289Z" fill="#000000"/>
<path d="M195.44 229.948L198.66 230.718C198.45 229.248 197.26 227.428 195.44 226.938C193.34 226.448 191.24 227.638 190.47 229.598C190.19 230.298 190.12 230.928 190.26 231.698L170.94 243.318C168.7 241.428 165.97 242.828 164.92 244.368L168.14 245.138C168.91 245.348 169.33 246.048 169.19 246.818C168.98 247.588 168.21 248.008 167.51 247.868L164.29 247.098C164.5 248.568 165.69 250.388 167.51 250.878C169.61 251.368 171.78 250.318 172.55 248.358C172.83 247.658 172.97 247.098 172.83 246.398L192.15 234.778C194.04 236.108 197.05 235.128 198.17 233.588L194.95 232.748C194.18 232.538 193.76 231.768 193.9 230.998C193.9 230.298 194.67 229.808 195.44 229.948Z" fill="#000000"/>
<path opacity="0.6" d="M195.44 229.948L198.66 230.718C198.45 229.248 197.26 227.428 195.44 226.938C193.34 226.448 191.24 227.638 190.47 229.598C190.19 230.298 190.12 230.928 190.26 231.698L170.94 243.318C168.7 241.428 165.97 242.828 164.92 244.368L168.14 245.138C168.91 245.348 169.33 246.048 169.19 246.818C168.98 247.588 168.21 248.008 167.51 247.868L164.29 247.098C164.5 248.568 165.69 250.388 167.51 250.878C169.61 251.368 171.78 250.318 172.55 248.358C172.83 247.658 172.97 247.098 172.83 246.398L192.15 234.778C194.04 236.108 197.05 235.128 198.17 233.588L194.95 232.748C194.18 232.538 193.76 231.768 193.9 230.998C193.9 230.298 194.67 229.808 195.44 229.948Z" fill="white"/>
<path d="M189.07 238.699H137.41V253.749H189.07V238.699Z" fill="#000000"/>
<path opacity="0.2" d="M157.71 238.699H137.41V253.749H157.71V238.699Z" fill="black"/>
<path d="M119.28 249.97L116.97 247.66C116.34 249.06 116.48 251.23 117.81 252.56C119.35 254.1 121.73 254.1 123.41 252.84C123.97 252.42 124.39 251.86 124.67 251.16H147.21C148.19 253.96 151.2 254.1 152.95 253.4L150.64 251.09C150.08 250.53 150.08 249.69 150.64 249.13C151.2 248.57 152.04 248.57 152.6 249.13L154.91 251.44C155.54 250.04 155.4 247.87 154.07 246.54C152.53 245 150.15 244.86 148.47 246.12C147.91 246.54 147.49 246.96 147.21 247.66H124.67C123.69 245.56 120.68 244.86 118.93 245.56L121.24 247.94C121.8 248.5 121.8 249.41 121.24 249.97C120.68 250.46 119.84 250.53 119.28 249.97Z" fill="#000000"/>
<path opacity="0.6" d="M119.28 249.97L116.97 247.66C116.34 249.06 116.48 251.23 117.81 252.56C119.35 254.1 121.73 254.1 123.41 252.84C123.97 252.42 124.39 251.86 124.67 251.16H147.21C148.19 253.96 151.2 254.1 152.95 253.4L150.64 251.09C150.08 250.53 150.08 249.69 150.64 249.13C151.2 248.57 152.04 248.57 152.6 249.13L154.91 251.44C155.54 250.04 155.4 247.87 154.07 246.54C152.53 245 150.15 244.86 148.47 246.12C147.91 246.54 147.49 246.96 147.21 247.66H124.67C123.69 245.56 120.68 244.86 118.93 245.56L121.24 247.94C121.8 248.5 121.8 249.41 121.24 249.97C120.68 250.46 119.84 250.53 119.28 249.97Z" fill="white"/>
</g>
<defs>
<clipPath id="clip0_4598_17781">
<rect width="350" height="260.82" fill="white"/>
</clipPath>
</defs>
</svg>
