<svg width="89" height="71" viewBox="0 0 89 71" fill="none" xmlns="http://www.w3.org/2000/svg">
<path d="M33.875 4.20703L46.2361 38.7463L72.7831 4.74671" stroke="#000080" stroke-width="0.5" stroke-miterlimit="10"/>
<path d="M83.3188 26.7422L46.2354 38.7435L71.1375 66.7296" stroke="#000080" stroke-width="0.5" stroke-miterlimit="10"/>
<path d="M17.7092 65.6256L46.2349 38.7446L7.35254 32.1914" stroke="#000080" stroke-width="0.5" stroke-miterlimit="10"/>
<path d="M86.4656 28.5967C87.4264 26.7608 86.717 24.4935 84.8811 23.5326C83.0451 22.5717 80.7778 23.2811 79.817 25.1171C78.8561 26.9531 79.5655 29.2203 81.4014 30.1812C83.2374 31.1421 85.5047 30.4327 86.4656 28.5967Z" fill="#000080" stroke="#000080" stroke-width="0.5" stroke-miterlimit="10"/>
<path d="M84.3991 26.5938H81.9577C81.4695 26.5938 81.084 26.9792 81.084 27.4675V29.5234C81.6494 29.9603 82.3689 30.243 83.1656 30.243C83.9623 30.243 84.7075 29.9603 85.2729 29.4977V27.4675C85.2729 26.9792 84.8874 26.5938 84.3991 26.5938Z" fill="#F0F3EE" stroke="#000080" stroke-width="0.4" stroke-miterlimit="10"/>
<path d="M83.1397 26.2327C83.8335 26.2327 84.3732 25.6673 84.3732 24.9992C84.3732 24.3053 83.8078 23.7656 83.1397 23.7656C82.4458 23.7656 81.9061 24.331 81.9061 24.9992C81.8804 25.6673 82.4458 26.2327 83.1397 26.2327Z" fill="#F0F3EE" stroke="#000080" stroke-width="0.4" stroke-miterlimit="10"/>
<path d="M74.9739 66.8466C75.774 64.9352 74.8731 62.7371 72.9617 61.9371C71.0503 61.137 68.8522 62.0379 68.0522 63.9493C67.2521 65.8607 68.153 68.0587 70.0644 68.8588C71.9758 69.6589 74.1739 68.758 74.9739 66.8466Z" fill="#000080" stroke="#000080" stroke-width="0.5" stroke-miterlimit="10"/>
<path d="M72.7556 65.1367H70.3142C69.8259 65.1367 69.4404 65.5222 69.4404 66.0105V68.0664C70.0058 68.5033 70.7254 68.7859 71.522 68.7859C72.3187 68.7859 73.064 68.5033 73.6293 68.0407V66.0105C73.6293 65.5222 73.2439 65.1367 72.7556 65.1367Z" fill="#F0F3EE" stroke="#000080" stroke-width="0.4" stroke-miterlimit="10"/>
<path d="M71.4963 64.7523C72.1901 64.7523 72.7298 64.1869 72.7298 63.5187C72.7298 62.8248 72.1644 62.2852 71.4963 62.2852C70.8024 62.2852 70.2627 62.8505 70.2627 63.5187C70.2627 64.2126 70.8024 64.7523 71.4963 64.7523Z" fill="#F0F3EE" stroke="#000080" stroke-width="0.4" stroke-miterlimit="10"/>
<path d="M33.7205 6.64224C35.1966 6.64224 36.3932 5.44564 36.3932 3.96956C36.3932 2.49347 35.1966 1.29688 33.7205 1.29688C32.2445 1.29688 31.0479 2.49347 31.0479 3.96956C31.0479 5.44564 32.2445 6.64224 33.7205 6.64224Z" fill="#000080" stroke="#000080" stroke-width="0.5" stroke-miterlimit="10"/>
<path d="M34.5938 3.79297H32.8463C32.5122 3.79297 32.2295 4.07566 32.2295 4.40974V5.87458C32.6407 6.18296 33.1547 6.38855 33.6943 6.38855C34.2597 6.38855 34.7737 6.18296 35.1849 5.84888V4.40974C35.2106 4.07566 34.9536 3.79297 34.5938 3.79297Z" fill="#F0F3EE" stroke="#000080" stroke-width="0.4" stroke-miterlimit="10"/>
<path d="M33.6941 3.50924C34.1824 3.50924 34.5678 3.12376 34.5678 2.63548C34.5678 2.1472 34.1824 1.76172 33.6941 1.76172C33.2058 1.76172 32.8203 2.1472 32.8203 2.63548C32.8203 3.12376 33.2058 3.50924 33.6941 3.50924Z" fill="#F0F3EE" stroke="#000080" stroke-width="0.4" stroke-miterlimit="10"/>
<path d="M19.7769 66.2325C20.3454 64.8702 19.7018 63.3051 18.3396 62.7366C16.9773 62.1682 15.4121 62.8117 14.8437 64.174C14.2753 65.5363 14.9188 67.1014 16.2811 67.6699C17.6433 68.2383 19.2085 67.5948 19.7769 66.2325Z" fill="#000080" stroke="#000080" stroke-width="0.5" stroke-miterlimit="10"/>
<path d="M18.1729 65.0391H16.4254C16.0913 65.0391 15.8086 65.3217 15.8086 65.6558V67.1207C16.2198 67.429 16.7338 67.6346 17.2734 67.6346C17.8388 67.6346 18.3528 67.429 18.764 67.095V65.6558C18.7897 65.296 18.5327 65.0391 18.1729 65.0391Z" fill="#F0F3EE" stroke="#000080" stroke-width="0.4" stroke-miterlimit="10"/>
<path d="M17.2732 64.7553C17.7614 64.7553 18.1469 64.3698 18.1469 63.8816C18.1469 63.3933 17.7614 63.0078 17.2732 63.0078C16.7849 63.0078 16.3994 63.3933 16.3994 63.8816C16.3994 64.3698 16.7849 64.7553 17.2732 64.7553Z" fill="#F0F3EE" stroke="#000080" stroke-width="0.4" stroke-miterlimit="10"/>
<path d="M75.2116 4.7395C75.7493 3.36483 75.0708 1.81451 73.6961 1.27678C72.3215 0.73904 70.7712 1.41751 70.2334 2.79218C69.6957 4.16686 70.3742 5.71717 71.7488 6.25491C73.1235 6.79264 74.6738 6.11417 75.2116 4.7395Z" fill="#000080" stroke="#000080" stroke-width="0.5" stroke-miterlimit="10"/>
<path d="M73.6035 3.59375H71.856C71.5219 3.59375 71.2393 3.87644 71.2393 4.21052V5.67536C71.6504 5.98374 72.1644 6.18933 72.7041 6.18933C73.2694 6.18933 73.7834 5.98374 74.1946 5.64966V4.21052C74.2203 3.87644 73.9376 3.59375 73.6035 3.59375Z" fill="#F0F3EE" stroke="#000080" stroke-width="0.4" stroke-miterlimit="10"/>
<path d="M72.7038 3.33346C73.1921 3.33346 73.5776 2.94798 73.5776 2.4597C73.5776 1.97142 73.1921 1.58594 72.7038 1.58594C72.2156 1.58594 71.8301 1.97142 71.8301 2.4597C71.8301 2.92228 72.2156 3.33346 72.7038 3.33346Z" fill="#F0F3EE" stroke="#000080" stroke-width="0.4" stroke-miterlimit="10"/>
<path d="M11.5068 33.4585C12.5552 30.974 11.3911 28.11 8.90668 27.0616C6.42223 26.0131 3.55822 27.1772 2.50975 29.6616C1.46128 32.1461 2.62538 35.0101 5.10983 36.0586C7.59429 37.1071 10.4583 35.943 11.5068 33.4585Z" fill="#000080" stroke="#000080" stroke-width="0.5" stroke-miterlimit="10"/>
<path d="M8.63772 31.2422H5.45106C4.83429 31.2422 4.32031 31.7562 4.32031 32.3729V35.0456C5.06558 35.611 5.99074 35.9708 6.99299 35.9708C8.02095 35.9708 8.9718 35.611 9.71707 35.0199V32.3986C9.74277 31.7305 9.25449 31.2422 8.63772 31.2422Z" fill="#F0F3EE" stroke="#000080" stroke-width="0.4" stroke-miterlimit="10"/>
<path d="M6.99305 30.7302C7.89251 30.7302 8.61208 30.0107 8.61208 29.1112C8.61208 28.2118 7.89251 27.4922 6.99305 27.4922C6.09359 27.4922 5.37402 28.2118 5.37402 29.1112C5.37402 30.0107 6.09359 30.7302 6.99305 30.7302Z" fill="#F0F3EE" stroke="#000080" stroke-width="0.4" stroke-miterlimit="10"/>
<path d="M43.9906 55.0008C55.0311 55.0008 63.9812 46.0507 63.9812 35.0102C63.9812 23.9696 55.0311 15.0195 43.9906 15.0195C32.9501 15.0195 24 23.9696 24 35.0102C24 46.0507 32.9501 55.0008 43.9906 55.0008Z" fill="#F0F3EE" stroke="#000080" stroke-width="0.3" stroke-miterlimit="10"/>
<path d="M43.2656 25.7402L45.1599 26.5862L45.6748 27.4322L46.5208 27.7632L46.6127 28.6644L46.2817 29.1793L45.6196 29.3264L44.2035 28.7563V28.5724L45.0127 28.2414L44.7369 27.2483L43.4495 26.7701L42.8794 26.0161L43.2656 25.7402ZM55.2196 47.6621L53.6932 47.0368L51.8357 46.3747H50.3645L48.9852 46.0989L47.4587 46.4299L46.6127 46.4851H46.0978L45.1047 47.0552L44.1484 47.4414L42.861 46.6322L43.1921 45.3081L42.3829 44.977H41.4265L41.2794 44.554L41.3714 43.7081L41.0403 43.2299L40.3783 43.3219L40.1944 43.8L39.3852 43.8552L38.6679 43.0092L38.3921 41.869L39.1093 40.5448L40.4886 40.6368L40.8748 40.9678H41.4449L42.1622 40.5448L42.7875 40.7288L43.6334 42.2L43.9645 42.1448L43.8725 41.0598L43.5967 40.4897L43.6886 39.5885L45.4357 38.8345L45.6748 37.0874L46.4288 36.4621L47.0541 35.377L47.5323 35.2851L48.6173 34.5678L48.6725 34.1816L47.9185 34.2368L47.7714 33.8506H47.2564L46.4472 34.0345L46.8334 33.4092L48.4886 32.931L48.8748 32.5081L49.5369 33.5563L49.9599 33.9793L50.6219 33.7954L50.3461 33.1701L49.353 32.4529L48.2127 31.1655L47.0357 30.3563L45.8955 30.1724L45.3254 29.6023L44.5714 29.4184L44.4794 29.6023L44.3875 30.9816L44.5714 31.4598L44.1484 32.9862L43.1921 32.2322L43.3392 31.5701L42.3461 31.092L41.9231 30.577L42.1622 29.4L43.5415 28.4069L43.6334 27.2667L43.1185 27.3218L42.7875 26.8989L42.6403 26.1816L42.3093 26.1264L42.1254 26.8805L41.6104 26.9724L41.3714 25.3172L40.9852 25.0782L40.3231 24.8023L39.5691 25.1885L40.5254 26.0897L40.7093 26.8989L38.9989 25.6115L37.8219 24.3241L37.73 23.0368L36.4978 22.6506L35.5415 23.2759C35.5415 23.2759 35.0633 23.5517 34.8242 23.6621C34.5852 23.754 33.684 23.846 33.684 23.846L33.5001 24.6552L32.415 24.7104L32.507 25.2253L34.2541 25.5012L35.1553 26.4943V28.1494L34.6403 29.6207L34.7323 31.1839L33.4081 33.5012L33.1323 36.9586L33.5553 38.9448L34.1806 40.4713L34.8978 40.5632L34.5852 39.7908L34.1989 39.2207L33.9599 38.1724L34.3829 38.0805L35.0449 39.7908L35.5231 41.3173V42.5494L36.4242 43.6345L38.0426 44.8115L40.507 45.4736L41.261 46.1908L41.8311 46.9449L42.6771 47.4598L43.7254 47.7357L44.7737 47.6805C44.7737 47.6805 44.7185 48.1586 44.7185 48.3977C44.7185 48.6368 44.0564 49.446 44.0564 49.446L43.5415 50.4023L43.9277 51.4506L44.976 51.8736L46.4472 53.4L47.1093 53.6759V54.3931L47.2013 54.7242C50.9714 54.1173 54.3921 52.4437 57.1507 50.0345L57.1691 49.6851L58.4564 47.3678L57.8311 46.9449L55.2196 47.6621ZM60.1484 28.9218L59.6334 28.0207L58.9714 26.9724L58.7875 25.5563L59.6334 25.7035L59.6886 25.2253L59.0633 25.1701L59.5783 24.931L60.1484 24.6V24.1218L59.5783 23.3678L59.4495 22.3379C55.7898 17.8506 50.2173 15 43.9645 15C41.1323 15 38.4288 15.5885 35.9829 16.6552L37.0679 17.4276L36.4058 18.2736L35.5047 18.4575L35.4127 19.7448L35.0265 19.892L34.5484 20.4069L34.6035 21.2529L35.4127 21.3448L35.0817 22.154H35.8909L37.2702 20.4069L37.4173 19.6529L38.7415 19.5609L39.0725 18.9908L40.4518 18.8437L40.5989 18.0345L41.5921 17.9793C41.5921 17.9793 42.3093 17.5931 42.438 17.5931C42.5852 17.5931 43.2472 17.8322 43.2472 17.8322L43.9645 18.4023H44.9576L45.8035 17.8874L46.8886 17.9793C46.8886 17.9793 47.1645 18.1632 47.4035 18.1632C47.6426 18.1632 48.3599 17.8322 48.3599 17.8322L49.7392 18.6782L50.3093 19.1012V19.8184L51.0265 19.9103L51.2656 19.4874L51.8909 19.7632L51.8357 20.1494L50.4196 20.5356L51.2288 21.5839L52.9392 22.5402L53.6564 23.4966L54.7047 23.5885L54.9438 23.1104L55.33 23.0184L54.0978 22.0621L53.3438 21.9701L53.9691 21.7862L53.399 20.977L54.2081 20.9218L55.2564 21.492L55.4955 22.6322L56.0104 23.2575L56.4334 24.6368L57.4817 25.3908V26.954L58.5668 27.6713L58.5116 28.1862L58.3645 28.8115L58.6403 29.6575L58.7323 30.0805L59.5415 30.2276L59.9277 29.4184L60.1484 28.9218ZM60.7737 24.1402V24.4161L60.5346 25.1701L60.6817 25.8322L61.1967 26.0161V26.9173L60.6265 26.6782L60.4794 29.2345L59.9093 30.2828L60.2955 31.6069L60.9208 32.177V34.7333L61.5461 36.7196L62.2082 38.246L63.2932 38.5219L63.6794 37.5655L63.8265 37.4368C63.9185 36.6276 63.9737 35.8 63.9737 34.954C63.9737 31 62.7967 27.2667 60.7737 24.1402ZM49.8127 23.846L46.6863 22.4667L45.307 22.5218L44.976 23.423L44.4058 22.7977L43.3576 23.0368L43.2656 24.6L44.1116 25.2253L44.7369 24.3241L45.4541 25.0414L46.9254 26.3287L47.2013 27.7081L48.4334 29.2713L50.4196 28.9402L50.3645 28.223L49.9415 27.4138L49.8495 25.5195L50.3277 24.7104L49.8127 23.846ZM52.3691 24.8943L51.6518 24.7104L51.0265 25.2253L51.3576 26.6046H51.9829L52.3691 24.8943ZM56.7829 25.7954L55.1645 24.9494L54.8334 24.3793L54.4472 24.5264L54.7783 25.4828L55.0541 26.715L55.7714 26.9908L55.9185 26.8069L55.4955 26.0897L56.7277 26.5678L56.7829 25.7954ZM42.9346 42.9173L42.7507 43.1012L44.1668 43.5242L44.7369 44.1862L45.638 44.2782L45.9691 43.7632L44.884 43.5793L42.9346 42.9173ZM47.1645 43.8184L46.1714 44.0943L46.3185 44.4805H47.5507L47.7898 44.0943L47.3668 44.1494L47.1645 43.8184Z" fill="#000000" stroke="#000080" stroke-width="0.3" stroke-miterlimit="10"/>
</svg>
