<svg width="69" height="34" viewBox="0 0 69 34" fill="none" xmlns="http://www.w3.org/2000/svg">
<rect width="69" height="34" rx="10" fill="#000000"/>
<path d="M15.8804 19.295C15.9537 19.295 16.0187 19.3233 16.0754 19.38L16.6054 19.955C16.312 20.3183 15.9504 20.5967 15.5204 20.79C15.0937 20.9833 14.5804 21.08 13.9804 21.08C13.4437 21.08 12.9604 20.9883 12.5304 20.805C12.1037 20.6217 11.7387 20.3667 11.4354 20.04C11.132 19.7133 10.8987 19.3233 10.7354 18.87C10.5754 18.4167 10.4954 17.9217 10.4954 17.385C10.4954 16.8417 10.582 16.345 10.7554 15.895C10.9287 15.4417 11.172 15.0517 11.4854 14.725C11.802 14.3983 12.1787 14.145 12.6154 13.965C13.052 13.7817 13.5354 13.69 14.0654 13.69C14.592 13.69 15.0587 13.7767 15.4654 13.95C15.8754 14.1233 16.2237 14.35 16.5104 14.63L16.0604 15.255C16.0337 15.295 15.9987 15.33 15.9554 15.36C15.9154 15.39 15.8587 15.405 15.7854 15.405C15.7354 15.405 15.6837 15.3917 15.6304 15.365C15.577 15.335 15.5187 15.3 15.4554 15.26C15.392 15.2167 15.3187 15.17 15.2354 15.12C15.152 15.07 15.0554 15.025 14.9454 14.985C14.8354 14.9417 14.707 14.9067 14.5604 14.88C14.417 14.85 14.2504 14.835 14.0604 14.835C13.737 14.835 13.4404 14.8933 13.1704 15.01C12.9037 15.1233 12.6737 15.29 12.4804 15.51C12.287 15.7267 12.137 15.9933 12.0304 16.31C11.9237 16.6233 11.8704 16.9817 11.8704 17.385C11.8704 17.7917 11.927 18.1533 12.0404 18.47C12.157 18.7867 12.3137 19.0533 12.5104 19.27C12.707 19.4867 12.9387 19.6533 13.2054 19.77C13.472 19.8833 13.7587 19.94 14.0654 19.94C14.2487 19.94 14.4137 19.93 14.5604 19.91C14.7104 19.89 14.847 19.8583 14.9704 19.815C15.097 19.7717 15.2154 19.7167 15.3254 19.65C15.4387 19.58 15.5504 19.495 15.6604 19.395C15.6937 19.365 15.7287 19.3417 15.7654 19.325C15.802 19.305 15.8404 19.295 15.8804 19.295ZM19.4943 15.79C19.8743 15.79 20.2193 15.8517 20.5293 15.975C20.8426 16.0983 21.1093 16.2733 21.3293 16.5C21.5526 16.7267 21.7243 17.0033 21.8443 17.33C21.9643 17.6567 22.0243 18.0217 22.0243 18.425C22.0243 18.8317 21.9643 19.1983 21.8443 19.525C21.7243 19.8517 21.5526 20.13 21.3293 20.36C21.1093 20.59 20.8426 20.7667 20.5293 20.89C20.2193 21.0133 19.8743 21.075 19.4943 21.075C19.1109 21.075 18.7626 21.0133 18.4493 20.89C18.1359 20.7667 17.8676 20.59 17.6443 20.36C17.4243 20.13 17.2526 19.8517 17.1293 19.525C17.0093 19.1983 16.9493 18.8317 16.9493 18.425C16.9493 18.0217 17.0093 17.6567 17.1293 17.33C17.2526 17.0033 17.4243 16.7267 17.6443 16.5C17.8676 16.2733 18.1359 16.0983 18.4493 15.975C18.7626 15.8517 19.1109 15.79 19.4943 15.79ZM19.4943 20.125C19.9209 20.125 20.2359 19.9817 20.4393 19.695C20.6459 19.4083 20.7493 18.9883 20.7493 18.435C20.7493 17.8817 20.6459 17.46 20.4393 17.17C20.2359 16.88 19.9209 16.735 19.4943 16.735C19.0609 16.735 18.7393 16.8817 18.5293 17.175C18.3226 17.465 18.2193 17.885 18.2193 18.435C18.2193 18.985 18.3226 19.405 18.5293 19.695C18.7393 19.9817 19.0609 20.125 19.4943 20.125ZM22.9664 21V15.87H23.7214C23.8814 15.87 23.9864 15.945 24.0364 16.095L24.1164 16.475C24.2064 16.375 24.2998 16.2833 24.3964 16.2C24.4964 16.1167 24.6014 16.045 24.7114 15.985C24.8248 15.925 24.9448 15.8783 25.0714 15.845C25.2014 15.8083 25.3431 15.79 25.4964 15.79C25.8198 15.79 26.0848 15.8783 26.2914 16.055C26.5014 16.2283 26.6581 16.46 26.7614 16.75C26.8414 16.58 26.9414 16.435 27.0614 16.315C27.1814 16.1917 27.3131 16.0917 27.4564 16.015C27.5998 15.9383 27.7514 15.8817 27.9114 15.845C28.0748 15.8083 28.2381 15.79 28.4014 15.79C28.6848 15.79 28.9364 15.8333 29.1564 15.92C29.3764 16.0067 29.5614 16.1333 29.7114 16.3C29.8614 16.4667 29.9748 16.67 30.0514 16.91C30.1314 17.15 30.1714 17.425 30.1714 17.735V21H28.9364V17.735C28.9364 17.4083 28.8648 17.1633 28.7214 17C28.5781 16.8333 28.3681 16.75 28.0914 16.75C27.9648 16.75 27.8464 16.7717 27.7364 16.815C27.6298 16.8583 27.5348 16.9217 27.4514 17.005C27.3714 17.085 27.3081 17.1867 27.2614 17.31C27.2148 17.4333 27.1914 17.575 27.1914 17.735V21H25.9514V17.735C25.9514 17.3917 25.8814 17.1417 25.7414 16.985C25.6048 16.8283 25.4031 16.75 25.1364 16.75C24.9564 16.75 24.7881 16.795 24.6314 16.885C24.4781 16.9717 24.3348 17.0917 24.2014 17.245V21H22.9664ZM32.5804 19.67C32.7204 19.84 32.872 19.96 33.0354 20.03C33.202 20.1 33.382 20.135 33.5754 20.135C33.762 20.135 33.9304 20.1 34.0804 20.03C34.2304 19.96 34.357 19.8533 34.4604 19.71C34.567 19.5667 34.6487 19.3867 34.7054 19.17C34.762 18.95 34.7904 18.6917 34.7904 18.395C34.7904 18.095 34.7654 17.8417 34.7154 17.635C34.6687 17.425 34.6004 17.255 34.5104 17.125C34.4204 16.995 34.3104 16.9 34.1804 16.84C34.0537 16.78 33.9087 16.75 33.7454 16.75C33.4887 16.75 33.2704 16.805 33.0904 16.915C32.9104 17.0217 32.7404 17.1733 32.5804 17.37V19.67ZM32.5154 16.57C32.7254 16.3333 32.9637 16.1417 33.2304 15.995C33.497 15.8483 33.8104 15.775 34.1704 15.775C34.4504 15.775 34.7054 15.8333 34.9354 15.95C35.1687 16.0667 35.3687 16.2367 35.5354 16.46C35.7054 16.68 35.8354 16.9533 35.9254 17.28C36.0187 17.6033 36.0654 17.975 36.0654 18.395C36.0654 18.7783 36.0137 19.1333 35.9104 19.46C35.807 19.7867 35.6587 20.07 35.4654 20.31C35.2754 20.55 35.0437 20.7383 34.7704 20.875C34.5004 21.0083 34.197 21.075 33.8604 21.075C33.5737 21.075 33.3287 21.0317 33.1254 20.945C32.922 20.855 32.7404 20.7317 32.5804 20.575V22.675H31.3454V15.87H32.1004C32.2604 15.87 32.3654 15.945 32.4154 16.095L32.5154 16.57ZM38.2789 13.57V21H37.0439V13.57H38.2789ZM42.8144 17.845C42.8144 17.685 42.7911 17.535 42.7444 17.395C42.7011 17.2517 42.6344 17.1267 42.5444 17.02C42.4544 16.9133 42.3394 16.83 42.1994 16.77C42.0627 16.7067 41.9027 16.675 41.7194 16.675C41.3627 16.675 41.0811 16.7767 40.8744 16.98C40.6711 17.1833 40.5411 17.4717 40.4844 17.845H42.8144ZM40.4594 18.59C40.4794 18.8533 40.5261 19.0817 40.5994 19.275C40.6727 19.465 40.7694 19.6233 40.8894 19.75C41.0094 19.8733 41.1511 19.9667 41.3144 20.03C41.4811 20.09 41.6644 20.12 41.8644 20.12C42.0644 20.12 42.2361 20.0967 42.3794 20.05C42.5261 20.0033 42.6527 19.9517 42.7594 19.895C42.8694 19.8383 42.9644 19.7867 43.0444 19.74C43.1277 19.6933 43.2077 19.67 43.2844 19.67C43.3877 19.67 43.4644 19.7083 43.5144 19.785L43.8694 20.235C43.7327 20.395 43.5794 20.53 43.4094 20.64C43.2394 20.7467 43.0611 20.8333 42.8744 20.9C42.6911 20.9633 42.5027 21.0083 42.3094 21.035C42.1194 21.0617 41.9344 21.075 41.7544 21.075C41.3977 21.075 41.0661 21.0167 40.7594 20.9C40.4527 20.78 40.1861 20.605 39.9594 20.375C39.7327 20.1417 39.5544 19.855 39.4244 19.515C39.2944 19.1717 39.2294 18.775 39.2294 18.325C39.2294 17.975 39.2861 17.6467 39.3994 17.34C39.5127 17.03 39.6744 16.7617 39.8844 16.535C40.0977 16.305 40.3561 16.1233 40.6594 15.99C40.9661 15.8567 41.3111 15.79 41.6944 15.79C42.0177 15.79 42.3161 15.8417 42.5894 15.945C42.8627 16.0483 43.0977 16.2 43.2944 16.4C43.4911 16.5967 43.6444 16.84 43.7544 17.13C43.8677 17.4167 43.9244 17.745 43.9244 18.115C43.9244 18.3017 43.9044 18.4283 43.8644 18.495C43.8244 18.5583 43.7477 18.59 43.6344 18.59H40.4594ZM46.5124 21.08C46.0657 21.08 45.7224 20.955 45.4824 20.705C45.2457 20.4517 45.1274 20.1033 45.1274 19.66V16.795H44.6024C44.5357 16.795 44.479 16.7733 44.4324 16.73C44.3857 16.6867 44.3624 16.6217 44.3624 16.535V16.045L45.1874 15.91L45.4474 14.51C45.464 14.4433 45.4957 14.3917 45.5424 14.355C45.589 14.3183 45.649 14.3 45.7224 14.3H46.3624V15.915H47.7324V16.795H46.3624V19.575C46.3624 19.735 46.4007 19.86 46.4774 19.95C46.5574 20.04 46.6657 20.085 46.8024 20.085C46.879 20.085 46.9424 20.0767 46.9924 20.06C47.0457 20.04 47.0907 20.02 47.1274 20C47.1674 19.98 47.2024 19.9617 47.2324 19.945C47.2624 19.925 47.2924 19.915 47.3224 19.915C47.359 19.915 47.389 19.925 47.4124 19.945C47.4357 19.9617 47.4607 19.9883 47.4874 20.025L47.8574 20.625C47.6774 20.775 47.4707 20.8883 47.2374 20.965C47.004 21.0417 46.7624 21.08 46.5124 21.08ZM51.789 17.845C51.789 17.685 51.7657 17.535 51.719 17.395C51.6757 17.2517 51.609 17.1267 51.519 17.02C51.429 16.9133 51.314 16.83 51.174 16.77C51.0374 16.7067 50.8774 16.675 50.694 16.675C50.3374 16.675 50.0557 16.7767 49.849 16.98C49.6457 17.1833 49.5157 17.4717 49.459 17.845H51.789ZM49.434 18.59C49.454 18.8533 49.5007 19.0817 49.574 19.275C49.6474 19.465 49.744 19.6233 49.864 19.75C49.984 19.8733 50.1257 19.9667 50.289 20.03C50.4557 20.09 50.639 20.12 50.839 20.12C51.039 20.12 51.2107 20.0967 51.354 20.05C51.5007 20.0033 51.6274 19.9517 51.734 19.895C51.844 19.8383 51.939 19.7867 52.019 19.74C52.1024 19.6933 52.1824 19.67 52.259 19.67C52.3624 19.67 52.439 19.7083 52.489 19.785L52.844 20.235C52.7074 20.395 52.554 20.53 52.384 20.64C52.214 20.7467 52.0357 20.8333 51.849 20.9C51.6657 20.9633 51.4774 21.0083 51.284 21.035C51.094 21.0617 50.909 21.075 50.729 21.075C50.3724 21.075 50.0407 21.0167 49.734 20.9C49.4274 20.78 49.1607 20.605 48.934 20.375C48.7074 20.1417 48.529 19.855 48.399 19.515C48.269 19.1717 48.204 18.775 48.204 18.325C48.204 17.975 48.2607 17.6467 48.374 17.34C48.4874 17.03 48.649 16.7617 48.859 16.535C49.0724 16.305 49.3307 16.1233 49.634 15.99C49.9407 15.8567 50.2857 15.79 50.669 15.79C50.9924 15.79 51.2907 15.8417 51.564 15.945C51.8374 16.0483 52.0724 16.2 52.269 16.4C52.4657 16.5967 52.619 16.84 52.729 17.13C52.8424 17.4167 52.899 17.745 52.899 18.115C52.899 18.3017 52.879 18.4283 52.839 18.495C52.799 18.5583 52.7224 18.59 52.609 18.59H49.434ZM57.0458 17.18C56.9058 17.01 56.7525 16.89 56.5858 16.82C56.4225 16.75 56.2458 16.715 56.0558 16.715C55.8692 16.715 55.7008 16.75 55.5508 16.82C55.4008 16.89 55.2725 16.9967 55.1658 17.14C55.0592 17.28 54.9775 17.46 54.9208 17.68C54.8642 17.8967 54.8358 18.1533 54.8358 18.45C54.8358 18.75 54.8592 19.005 54.9058 19.215C54.9558 19.4217 55.0258 19.5917 55.1158 19.725C55.2058 19.855 55.3158 19.95 55.4458 20.01C55.5758 20.0667 55.7208 20.095 55.8808 20.095C56.1375 20.095 56.3558 20.0417 56.5358 19.935C56.7158 19.8283 56.8858 19.6767 57.0458 19.48V17.18ZM58.2808 13.57V21H57.5258C57.3625 21 57.2592 20.925 57.2158 20.775L57.1108 20.28C56.9042 20.5167 56.6658 20.7083 56.3958 20.855C56.1292 21.0017 55.8175 21.075 55.4608 21.075C55.1808 21.075 54.9242 21.0167 54.6908 20.9C54.4575 20.7833 54.2558 20.615 54.0858 20.395C53.9192 20.1717 53.7892 19.8967 53.6958 19.57C53.6058 19.2433 53.5608 18.87 53.5608 18.45C53.5608 18.07 53.6125 17.7167 53.7158 17.39C53.8192 17.0633 53.9675 16.78 54.1608 16.54C54.3542 16.3 54.5858 16.1133 54.8558 15.98C55.1258 15.8433 55.4292 15.775 55.7658 15.775C56.0525 15.775 56.2975 15.82 56.5008 15.91C56.7042 16 56.8858 16.1217 57.0458 16.275V13.57H58.2808Z" fill="white"/>
</svg>
