<svg width="200" height="202" viewBox="0 0 200 202" fill="none" xmlns="http://www.w3.org/2000/svg">
<g clip-path="url(#clip0_5517_22865)">
<path d="M200 94.2793C200 149.578 155.453 197.384 100.308 201.079C44.9833 204.749 0 162.665 0 107.007C0 51.3489 44.9833 3.54283 100.308 0.18127C155.453 -3.15463 200 38.9804 200 94.2793Z" fill="#000000"/>
<path d="M96.7925 154.966C92.4558 155.248 88.427 153.221 86.1689 149.628L48.4733 89.0944C44.9321 83.4234 46.8566 75.6481 52.7329 71.7477C58.6093 67.8473 66.2305 69.2586 69.7717 74.9296L95.92 116.962L130.382 46.7028C133.487 40.3902 140.929 37.5162 146.985 40.2363C153.066 42.982 155.479 50.2953 152.374 56.5822L107.827 147.447C105.774 151.604 101.719 154.478 97.2287 154.914C97.0747 154.94 96.9464 154.966 96.7925 154.966Z" fill="white"/>
</g>
<defs>
<clipPath id="clip0_5517_22865">
<rect width="200" height="201.283" fill="white"/>
</clipPath>
</defs>
</svg>
