<svg width="100" height="100" viewBox="0 0 100 100" fill="none" xmlns="http://www.w3.org/2000/svg">
<circle cx="50" cy="50" r="50" fill="#D0E8FF"/>
<path d="M72.8777 53.6013C72.9749 53.9638 72.9243 54.3503 72.7368 54.6753C72.5492 55.0002 72.2401 55.2375 71.8776 55.335L65.4931 57.0451L71.604 60.5663C71.9365 60.7499 72.1809 61.0598 72.2823 61.4259C72.3838 61.7915 72.3341 62.1832 72.1441 62.512C71.9542 62.8409 71.6403 63.0794 71.2723 63.1746C70.9047 63.2694 70.5142 63.2125 70.1889 63.0167L64.0898 59.4955L65.7998 65.8824V65.8821C65.8969 66.2445 65.8464 66.6311 65.6589 66.956C65.4713 67.2814 65.1621 67.5183 64.7997 67.6158C64.6804 67.6478 64.5577 67.6644 64.4341 67.6651C63.794 67.6647 63.2338 67.234 63.0687 66.6156L60.6278 57.4976L51.8868 52.4503V62.54L58.5616 69.2148C58.8305 69.4793 58.9829 69.8402 58.9845 70.2173C58.9864 70.5948 58.8372 70.9572 58.5707 71.2241C58.3041 71.491 57.9421 71.6403 57.5646 71.6391C57.1871 71.6379 56.8263 71.4859 56.5613 71.217L51.8868 66.5425V73.5849C51.8868 74.3667 51.2531 75 50.4717 75C49.6903 75 49.0566 74.3667 49.0566 73.5849V66.5425L44.3821 71.2265C44.1172 71.4954 43.7563 71.6474 43.3788 71.6486C43.0013 71.6498 42.6393 71.5005 42.3728 71.2336C42.1063 70.9667 41.957 70.6042 41.959 70.2268C41.9606 69.8497 42.113 69.4884 42.3818 69.2243L49.0566 62.5495V52.4503L40.316 57.4976L37.8747 66.6133C37.7097 67.232 37.1494 67.6624 36.5094 67.6628C36.3858 67.662 36.263 67.6454 36.1437 67.6135C35.7813 67.5163 35.4721 67.279 35.2846 66.9537C35.097 66.6287 35.0465 66.2426 35.1436 65.8797L36.8537 59.4927L30.7546 63.0191C30.4292 63.2149 30.0387 63.2718 29.6711 63.177C29.3031 63.0819 28.9892 62.8434 28.7993 62.5145C28.6094 62.1856 28.5596 61.7939 28.6611 61.4283C28.7626 61.0623 29.007 60.7523 29.3394 60.5687L35.4385 57.0475L29.054 55.3375C28.2967 55.1353 27.8462 54.3579 28.0483 53.6001C28.2501 52.8428 29.0279 52.3923 29.7853 52.5945L38.9151 55.0448L47.6415 50L38.9151 44.9551L29.7853 47.4055C29.666 47.4379 29.5432 47.4545 29.4196 47.4552C28.7081 47.4568 28.106 46.9297 28.0132 46.2245C27.9208 45.5189 28.3662 44.8544 29.054 44.672L35.4386 42.962L29.3395 39.4337C28.6785 39.0361 28.4582 38.1821 28.844 37.514C29.2297 36.846 30.0795 36.6098 30.7546 36.9834L36.8537 40.5046L35.1413 34.118C35.0268 33.75 35.0667 33.3516 35.2522 33.014C35.4382 32.6768 35.7533 32.4296 36.1252 32.3297C36.4972 32.2298 36.894 32.2855 37.2237 32.4849C37.5533 32.6839 37.7875 33.0085 37.8724 33.3844L40.3161 42.5024L49.0567 47.5497V37.46L42.3819 30.7852C41.8264 30.2328 41.824 29.3349 42.3764 28.7794C42.9284 28.2239 43.8267 28.2211 44.3822 28.7735L49.0567 33.4575V26.4151C49.0567 25.6333 49.6904 25 50.4718 25C51.2532 25 51.8869 25.6333 51.8869 26.4151V33.4575L56.5614 28.7735C57.1158 28.229 58.0053 28.2329 58.5546 28.7826C59.1038 29.3326 59.107 30.2221 58.5617 30.7757L51.8869 37.46V47.5497L60.6275 42.5024L63.0684 33.3844H63.0688C63.1537 33.0085 63.3878 32.6839 63.7175 32.4849C64.0472 32.2855 64.444 32.2299 64.8159 32.3298C65.1879 32.4297 65.503 32.6768 65.6889 33.014C65.8745 33.3516 65.9144 33.75 65.7999 34.118L64.0898 40.505L70.1889 36.9811C70.8641 36.6075 71.7138 36.8437 72.0995 37.5117C72.4852 38.1798 72.265 39.0339 71.604 39.4314L65.5049 42.9553L71.8895 44.6654V44.665C72.5773 44.8474 73.0227 45.5119 72.9303 46.2175C72.8375 46.9227 72.2354 47.4497 71.5239 47.4482C71.4003 47.4474 71.2775 47.4308 71.1582 47.3985L62.0284 44.9552L53.302 50L62.0284 55.0449L71.1582 52.5945C71.9108 52.4014 72.678 52.8508 72.8778 53.6014L72.8777 53.6013Z" fill="#1F5182"/>
</svg>
