<svg width="70" height="61" viewBox="0 0 70 61" fill="none" xmlns="http://www.w3.org/2000/svg">
<rect x="0.15" y="0.454688" width="69.7" height="59.7" rx="3.85" fill="#FFF1E9"/>
<path d="M28.2294 24.5756V28.2215H26.6669C25.5158 28.2215 24.5835 29.1538 24.5835 30.3049V40.7213C24.5835 41.8724 25.5158 42.8047 26.6669 42.8047H43.3333C44.4844 42.8047 45.4166 41.8724 45.4166 40.7213V30.3049C45.4166 29.1538 44.4844 28.2215 43.3333 28.2215H41.7708V24.5756C41.7708 20.8361 38.7396 17.8047 34.9998 17.8047C31.2603 17.8047 28.2289 20.8358 28.2289 24.5756H28.2294ZM30.8336 28.2213V24.5754C30.8336 22.2734 32.6982 20.4089 35.0002 20.4089C37.3022 20.4089 39.1668 22.2734 39.1668 24.5754V28.2213H30.8334H30.8336ZM32.9168 33.9507C32.9168 32.7996 33.8491 31.8674 35.0002 31.8674C36.1513 31.8674 37.0836 32.7996 37.0836 33.9507C37.0836 34.6851 36.7034 35.331 36.1304 35.7007C36.1304 35.7007 36.3341 36.9299 36.5627 38.3777C36.5627 38.81 36.2137 39.1589 35.7814 39.1589H34.2189C33.7866 39.1589 33.4377 38.81 33.4377 38.3777L33.87 35.7007C33.2971 35.3308 32.9168 34.6851 32.9168 33.9507H32.9168Z" fill="#B94803"/>
<rect x="0.15" y="0.454688" width="69.7" height="59.7" rx="3.85" stroke="#B94803" stroke-width="0.3"/>
</svg>
