<svg width="136" height="70" viewBox="0 0 136 70" fill="none" xmlns="http://www.w3.org/2000/svg">
<g clip-path="url(#clip0_8701_56126)">
<path d="M116.252 23.6043C104.521 12.0769 88.4356 4.96484 70.6859 4.96484C58.2211 4.96484 46.5782 8.46994 36.6879 14.5563C31.8038 17.5587 27.3546 21.1861 23.4351 25.3297C12.4239 36.9726 5.67188 52.6844 5.67188 69.9789H47.93C47.93 64.0963 50.1648 58.73 53.8262 54.6951C55.5787 52.7591 57.6641 51.1288 59.9873 49.8925C63.1799 48.1876 66.8208 47.223 70.6927 47.223C77.9882 47.223 84.4889 50.6601 88.6529 55.9993C91.6622 59.8576 93.4555 64.7077 93.4555 69.9789H135.714C135.7 51.8217 128.255 35.4035 116.252 23.6043Z" fill="#000000"/>
<path d="M23.4351 25.3203L53.8262 54.6925C50.1649 58.7342 47.9301 64.0937 47.9301 69.9763H5.67872C5.67192 52.6818 12.424 36.97 23.4351 25.3203Z" fill="#B0FF8B"/>
<path d="M70.6796 4.96484V47.223C63.9954 47.223 57.9838 50.1031 53.8198 54.6951L23.4287 25.3229C35.2754 12.7834 52.0672 4.96484 70.6796 4.96484Z" fill="#97E373"/>
<path d="M116.252 23.6033L88.6458 55.9915C84.4818 50.6523 77.9878 47.2152 70.6855 47.2152V4.95703C88.4352 4.96382 104.521 12.0759 116.252 23.6033Z" fill="#000000"/>
<path d="M101.029 69.9794H100.927C100.927 62.0318 97.8298 54.5597 92.2121 48.9421C86.5945 43.3244 79.1224 40.2269 71.1748 40.2269C63.2272 40.2269 55.7551 43.3244 50.1374 48.9421C44.5197 54.5597 41.4222 62.0318 41.4222 69.9794H41.3203C41.3203 62.0047 44.4246 54.5054 50.0627 48.8674C55.7007 43.2293 63.2 40.125 71.1748 40.125C79.1495 40.125 86.6488 43.2293 92.2868 48.8674C97.9249 54.5054 101.029 62.0047 101.029 69.9794Z" fill="#281833"/>
<path d="M86.1054 70.002H56.251C56.251 61.7623 62.9351 55.0781 71.1748 55.0781C79.4213 55.0781 86.1054 61.7623 86.1054 70.002Z" fill="#000000"/>
<path d="M54.4441 30.4185L68.3762 64.0905C69.1166 65.8702 71.2224 66.6446 72.9342 65.7548C74.4218 64.9872 74.9856 63.1463 74.184 61.6791L56.679 29.8004C56.4956 29.4607 55.5649 27.3957 54.6887 27.7421C53.9482 27.7421 54.1588 29.7324 54.4441 30.4185Z" fill="#121243"/>
<path d="M21.6213 21.9073C21.465 21.9073 21.302 21.8665 21.1593 21.7714C20.7722 21.5201 20.6635 20.9971 20.9216 20.6167C21.0439 20.4332 33.5766 1.89564 65.4689 0.177059C65.9444 0.122717 66.3248 0.503115 66.352 0.965026C66.3791 1.42694 66.0259 1.82092 65.564 1.84809C34.5072 3.51913 22.4432 21.3503 22.3209 21.5337C22.1647 21.7782 21.893 21.9073 21.6213 21.9073Z" fill="#97E373"/>
<path d="M118.44 21.6148C118.216 21.6148 117.985 21.5196 117.836 21.3295C101.75 1.82727 75.591 1.57593 75.3261 1.57593C74.8913 1.57593 74.5381 1.22271 74.5381 0.787967C74.5381 0.353227 74.8913 0 75.3261 0C75.5978 0 102.497 0.258128 119.045 20.3241C119.323 20.657 119.276 21.1528 118.936 21.4313C118.793 21.5536 118.617 21.6148 118.44 21.6148Z" fill="#000000"/>
<path d="M0.787566 66.9098C0.77398 66.9098 0.760395 66.9098 0.740016 66.9098C0.305276 66.8827 -0.0275722 66.5159 -0.000400968 66.0811C1.3242 42.2247 14.611 27.0156 14.74 26.8662C15.0253 26.5401 15.528 26.5129 15.8472 26.7982C16.1733 27.0903 16.2005 27.5862 15.9152 27.9123C15.7861 28.0549 2.86617 42.8768 1.57553 66.1694C1.54836 66.5838 1.20193 66.9098 0.787566 66.9098Z" fill="#B0FF8B"/>
</g>
<defs>
<clipPath id="clip0_8701_56126">
<rect width="135.7" height="70" fill="white"/>
</clipPath>
</defs>
</svg>
