<svg width="600" height="230" viewBox="0 0 600 230" fill="none" xmlns="http://www.w3.org/2000/svg">
<path d="M0 10C0 4.47715 4.47715 0 10 0H590C595.523 0 600 4.47715 600 10V230H0V10Z" fill="#F0F3EE"/>
<g clip-path="url(#clip0_12065_102857)">
<path d="M315.061 56.026L323.194 55.9626L323.13 49.0344C323.13 47.9572 322.687 46.9221 321.926 46.1617C321.145 45.4225 320.11 45 319.032 45L278.942 45.3168C277.886 45.3168 276.83 45.7604 276.069 46.5208C275.309 47.2812 274.886 48.3374 274.907 49.4146L274.971 56.3428L283.103 56.2794L283.082 53.4068L315.04 53.1533L315.061 56.026Z" fill="#97E373"/>
<path d="M245.716 82.4308C244.428 82.452 243.224 83.0223 242.421 84.015C241.618 85.0078 241.28 86.3174 241.513 87.5636L259.509 181.495C259.911 183.544 261.706 185.023 263.776 185.002L336.501 184.431C338.571 184.41 340.345 182.932 340.725 180.883L357.898 86.6765C358.13 85.4091 357.771 84.0995 356.947 83.1279C356.124 82.1562 354.898 81.5859 353.61 81.5859L245.716 82.4308ZM276.724 178.623C274.379 179.003 272.183 177.398 271.824 175.074L259.467 97.639C259.087 95.2944 260.692 93.0977 263.016 92.7386C265.36 92.3584 267.557 93.9637 267.916 96.2872L280.273 173.722C280.653 176.046 279.069 178.243 276.724 178.623ZM300.424 178.918C298.058 178.94 296.115 177.039 296.115 174.673L295.502 96.2661C295.481 93.9004 297.382 91.9571 299.748 91.9571C302.113 91.936 304.057 93.837 304.078 96.2027L304.69 174.609C304.69 176.975 302.789 178.897 300.424 178.918ZM340.092 97.0054L328.939 174.609C328.601 176.954 326.425 178.581 324.081 178.243C321.736 177.905 320.11 175.729 320.448 173.384L331.6 95.7803C331.938 93.4357 334.114 91.8092 336.459 92.1472C338.803 92.4852 340.43 94.6608 340.092 97.0054Z" fill="#97E373"/>
<path d="M236.106 78.4145L363.158 77.4217L363.052 64.4736L351.266 64.5581L351.223 57.7566C351.223 57.2286 350.991 56.7005 350.611 56.3414C350.231 55.9612 349.702 55.75 349.174 55.75L323.173 55.9612L315.04 56.0246L283.103 56.2781L274.971 56.3414L250.744 56.5315C250.215 56.5315 249.687 56.7639 249.328 57.1441C248.948 57.5243 248.737 58.0524 248.737 58.5804L248.779 65.3819L236 65.4664L236.106 78.4145Z" fill="#000000"/>
<path d="M299.727 91.9533C297.361 91.9744 295.46 93.8966 295.481 96.2623L296.094 174.669C296.115 177.035 298.037 178.936 300.403 178.915C302.768 178.894 304.669 176.971 304.648 174.606L304.036 96.1989C304.036 93.8332 302.114 91.9322 299.727 91.9533Z" fill="#000000"/>
<path d="M331.6 95.7791L320.448 173.383C320.11 175.728 321.736 177.903 324.081 178.241C326.425 178.579 328.601 176.953 328.939 174.608L340.092 97.0042C340.43 94.6596 338.803 92.484 336.459 92.146C334.114 91.808 331.938 93.4345 331.6 95.7791Z" fill="#000000"/>
<path d="M263.016 92.736C260.671 93.1162 259.087 95.2918 259.467 97.6364L271.824 175.072C272.183 177.395 274.401 179 276.724 178.62C279.069 178.24 280.653 176.043 280.273 173.72L267.916 96.2846C267.557 93.94 265.36 92.3558 263.016 92.736Z" fill="#000000"/>
</g>
<defs>
<clipPath id="clip0_12065_102857">
<rect width="127.158" height="140" fill="white" transform="translate(236 45)"/>
</clipPath>
</defs>
</svg>
