<svg width="50" height="50" viewBox="0 0 50 50" fill="none" xmlns="http://www.w3.org/2000/svg">
<circle cx="25" cy="25" r="25" fill="#F0F3EE"/>
<path d="M36.1074 36.2143H34.7681C35.036 35.3214 35.2146 34.4286 35.2146 33.5357C35.2146 29.0714 31.6431 25.5 27.1789 25.5C22.7146 25.5 19.1431 29.0714 19.1431 33.5357C19.1431 34.4286 19.3217 35.3214 19.5896 36.2143H18.2503C17.8039 36.2143 17.3574 36.6607 17.3574 37.1071C17.3574 37.5536 17.8039 38 18.2503 38H36.1074C36.5538 38 37.0003 37.5536 37.0003 37.1071C37.0003 36.6607 36.5538 36.2143 36.1074 36.2143ZM26.4646 33.5357H27.9824C29.3217 33.5357 30.3931 34.6071 30.3931 35.9464V36.2143H28.5181C28.6074 36.125 28.6074 36.0357 28.6074 35.9464C28.6074 35.5893 28.3396 35.3214 27.9824 35.3214H26.4646C25.1253 35.3214 24.0539 34.25 24.0539 32.9107C24.0539 31.6607 25.036 30.5893 26.286 30.5893V29.9643C26.286 29.5179 26.7324 29.0714 27.1789 29.0714C27.6253 29.0714 28.0717 29.5179 28.0717 29.9643V30.5893H29.411C29.8574 30.5893 30.3038 30.9464 30.3038 31.4821C30.3038 31.9286 29.8574 32.375 29.411 32.375H26.4646C26.1074 32.375 25.8396 32.6429 25.8396 33C25.8396 33.2679 26.1074 33.5357 26.4646 33.5357Z" fill="#000000"/>
<path d="M18.6967 24.339L19.0539 24.4283C19.7681 24.6069 20.4824 24.5176 21.1074 24.0711L24.1431 22.1961C24.7681 21.839 24.8574 20.8569 24.2324 20.4104C24.1431 20.2319 23.8753 20.1426 23.6074 20.1426H20.9289C20.4824 20.1426 20.036 19.6961 20.036 19.2497C20.036 18.8033 20.4824 18.3569 20.9289 18.3569H24.6789L25.661 19.1604L27.0896 20.3211L30.2146 22.9104L30.5717 23.1783L31.286 23.8033C31.911 24.339 32.8038 24.5176 33.6074 24.339L36.286 23.6247C36.6431 23.5354 36.8217 23.2676 36.911 22.9997C37.0003 22.7319 36.911 22.3747 36.6431 22.1069L29.1431 14.6069C28.6967 14.1604 28.0717 13.8926 27.3574 13.8926H19.1431C18.161 13.8926 17.3574 14.6961 17.3574 15.6783V22.5533C17.3574 23.3569 17.8931 24.0711 18.6967 24.339Z" fill="#000000"/>
<path d="M13.7857 13C12.8036 13 12 13.8036 12 14.7857V22.8214C12 23.8036 12.8036 24.6071 13.7857 24.6071C14.7679 24.6071 15.5714 23.8036 15.5714 22.8214V14.7857C15.5714 13.8036 14.7679 13 13.7857 13Z" fill="#000000"/>
</svg>
