<svg width="14" height="30" viewBox="0 0 14 30" fill="none" xmlns="http://www.w3.org/2000/svg">
<path d="M6.99996 30C6.68523 30 6.38891 29.8517 6.20007 29.5999L0.200036 21.5999C-0.027305 21.2969 -0.0638018 20.8915 0.105614 20.5526C0.275037 20.2138 0.621239 19.9998 0.999961 19.9998L5.99988 19.9998L5.99988 1.00027C5.99988 0.447809 6.44787 0.000143327 7 0.000143303C7.55212 0.000143279 8.00012 0.447809 8.00012 1.00027L8.00012 19.9998L13 19.9998C13.3787 19.9998 13.7249 20.2138 13.8944 20.5526C14.0638 20.8914 14.0273 21.2969 13.8 21.5999L7.79992 29.5999C7.61108 29.8517 7.31476 30 7.00003 30L6.99996 30Z" fill="white"/>
</svg>
