<svg width="600" height="300" viewBox="0 0 600 300" fill="none" xmlns="http://www.w3.org/2000/svg">
<path d="M0 10C0 4.47716 4.47715 0 10 0H590C595.523 0 600 4.47715 600 10V300H0V10Z" fill="#000000"/>
<path d="M442.268 95.6857L447.121 93.1722L451.955 95.7437C452.496 96.0338 453.154 95.5697 453.057 94.951L452.168 89.5565L456.112 85.7475C456.557 85.3222 456.325 84.5488 455.706 84.4521L450.292 83.64L447.895 78.7096C447.624 78.1489 446.831 78.1489 446.541 78.7096L444.086 83.6014L438.653 84.3554C438.034 84.4328 437.782 85.2062 438.227 85.6315L442.133 89.4792L441.166 94.8737C441.069 95.4924 441.727 95.9564 442.268 95.6857Z" fill="#7EC65C"/>
<path d="M432.079 194.609H192.847V219.648H432.079V194.609Z" fill="#F47257"/>
<path d="M368.447 283.239C314.502 254.72 255.897 237.163 195.746 231.498C197.97 205.396 200.212 179.294 202.436 153.191C271.984 159.746 339.734 180.048 402.109 213.014C390.895 236.429 379.661 259.824 368.447 283.239Z" fill="#000000"/>
<path d="M201.063 217.172C202.591 200.892 204.099 184.612 205.627 168.332C211.949 168.989 217.614 164.909 218.291 159.051C276.277 166.34 332.793 183.258 385.713 209.206C383.354 214.562 386.119 221.155 391.823 224.113C384.94 238.788 378.037 253.444 371.154 268.12C365.914 265.393 359.707 267.656 357.349 272.992C310.886 250.215 261.253 235.327 210.325 228.947C211.021 223.127 206.864 217.771 201.063 217.172Z" fill="#97E373"/>
<path d="M325.541 219.861C320.688 233.86 305.684 240.995 291.782 236.721C277.88 232.41 268.947 217.889 272.079 203.349C275.192 188.829 290.622 180.147 306.264 184.981C321.906 189.815 330.394 205.882 325.541 219.861Z" fill="#000000"/>
<path d="M291.647 231.791C292.034 230.225 292.42 228.659 292.807 227.092C290.719 226.416 288.727 225.449 287.142 224.444C285.808 223.593 285.344 221.872 286.059 220.519C286.079 220.461 286.117 220.403 286.137 220.345C286.929 218.836 288.863 218.353 290.332 219.32C291.821 220.306 293.581 221.176 295.533 221.717C298.376 222.51 300.599 222.007 301.102 220.035C301.585 218.16 300.29 216.516 296.848 214.235C291.879 210.948 288.708 207.525 289.81 202.711C290.796 198.341 294.818 195.731 300.696 196.253C301.083 194.687 301.469 193.121 301.856 191.555C303.577 192.038 305.298 192.521 307.018 193.024C306.651 194.474 306.284 195.924 305.916 197.355C307.792 197.974 309.3 198.689 310.499 199.405C311.988 200.275 312.51 202.112 311.697 203.484C310.847 204.915 308.933 205.321 307.424 204.393C306.303 203.697 304.872 202.982 303.035 202.46C299.671 201.512 298.24 202.595 297.912 203.987C297.506 205.631 299.072 207.139 302.997 209.962C308.527 213.79 310.189 217.27 308.971 221.659C307.753 226.029 303.615 228.755 297.718 228.117C297.293 229.799 296.848 231.462 296.423 233.144C294.857 232.7 293.252 232.236 291.647 231.791Z" fill="#000000"/>
<path d="M263.824 202.81C250.077 199.639 236.194 197.068 222.215 195.076C222.544 192.562 222.853 190.049 223.182 187.555C237.354 189.566 251.43 192.195 265.371 195.405C264.868 197.88 264.346 200.354 263.824 202.81Z" fill="#000000"/>
<path d="M371.037 240.883C358.237 234.619 345.224 228.934 332.019 223.81C332.85 221.432 333.681 219.054 334.532 216.676C347.931 221.877 361.118 227.658 374.111 234C373.067 236.301 372.061 238.602 371.037 240.883Z" fill="#000000"/>
<path d="M393.66 193.638C337.995 205.258 284.997 228.576 237.453 262.316C224.614 240.139 211.756 217.981 198.918 195.803C253.907 156.785 315.179 129.832 379.526 116.395C384.225 142.149 388.943 167.903 393.66 193.638Z" fill="#000000"/>
<path d="M233.411 247.564C225.484 233.663 217.576 219.741 209.668 205.839C214.695 202.34 216.609 195.495 213.864 190.41C260.712 159.319 311.834 136.852 365.296 123.82C366.533 129.563 372.237 133.062 378.076 131.786C381.131 147.834 384.205 163.882 387.26 179.911C381.885 181.091 378.559 186.814 379.778 192.556C332.832 203.983 287.936 223.724 246.791 251.025C244.065 245.96 238.032 244.355 233.411 247.564Z" fill="#97E373"/>
<path d="M326.8 170.552C330.996 184.783 323.881 199.98 311.236 205.433C298.591 210.846 283.935 204.988 278.173 191.434C272.411 177.919 278.966 161.194 293.216 155.084C307.407 148.955 322.624 156.341 326.8 170.552Z" fill="#000000"/>
<path d="M308.413 201.584C307.833 200.095 307.253 198.606 306.673 197.118C304.74 197.91 302.748 198.413 301.008 198.606C299.558 198.78 298.243 197.717 298.03 196.17C298.03 196.112 298.011 196.054 298.011 195.977C297.76 194.275 298.92 192.651 300.544 192.497C302.187 192.323 303.966 191.917 305.706 191.104C308.239 189.925 309.593 188.108 308.877 186.213C308.201 184.415 306.325 183.931 302.516 184.299C297.025 184.84 292.791 184.144 290.915 179.619C289.233 175.52 290.741 170.88 295.362 167.574C294.782 166.085 294.183 164.596 293.603 163.107C295.15 162.392 296.677 161.677 298.224 160.98C298.746 162.373 299.287 163.745 299.809 165.137C301.549 164.441 303.038 164.055 304.334 163.842C305.919 163.591 307.311 164.712 307.485 166.336C307.659 167.999 306.461 169.565 304.836 169.759C303.618 169.913 302.168 170.261 300.525 171.015C297.508 172.388 297.064 174.167 297.586 175.482C298.204 177.029 300.196 177.261 304.662 176.99C310.888 176.506 314.021 178.227 315.567 182.5C317.095 186.735 315.567 191.549 310.85 194.797C311.468 196.402 312.068 198.007 312.686 199.612C311.256 200.25 309.825 200.907 308.413 201.584Z" fill="#000000"/>
<path d="M271.773 196.227C259.863 202.453 248.184 209.22 236.757 216.529C235.597 214.325 234.456 212.12 233.296 209.936C244.878 202.53 256.73 195.647 268.796 189.344C269.801 191.645 270.787 193.945 271.773 196.227Z" fill="#000000"/>
<path d="M372.044 158.311C359.128 161.482 346.348 165.233 333.761 169.545C333.065 167.128 332.349 164.711 331.653 162.275C344.434 157.886 357.369 154.096 370.478 150.887C371 153.381 371.522 155.856 372.044 158.311Z" fill="#000000"/>
<path d="M402.535 242.303C344.646 238.803 286.68 247.291 231.691 267.342C224.111 242.477 216.551 217.612 208.972 192.747C272.565 169.564 339.58 159.742 406.518 163.802C405.184 189.963 403.869 216.123 402.535 242.303Z" fill="#000000"/>
<path d="M231.13 251.989C226.528 236.424 221.907 220.859 217.306 205.314C223.106 203.265 226.606 197.135 225.059 191.49C278.733 173.837 334.65 165.639 390.683 167.224C390.567 173.121 395.401 178.013 401.491 178.322C400.795 194.661 400.08 210.999 399.384 227.337C393.777 227.047 389.136 231.706 389.02 237.604C339.812 236.211 290.721 243.404 243.582 258.93C242.055 253.265 236.467 250.094 231.13 251.989Z" fill="#97E373"/>
<path d="M341.63 202.206C342.461 217.074 331.885 229.913 318.079 231.827C304.274 233.703 291.107 224.151 288.555 209.514C286.003 194.897 296.405 180.454 311.931 178.327C327.457 176.181 340.798 187.357 341.63 202.206Z" fill="#000000"/>
<path d="M316.185 227.382C315.953 225.778 315.721 224.192 315.489 222.587C313.401 222.839 311.293 222.8 309.534 222.529C308.064 222.317 307.001 220.944 307.136 219.378C307.136 219.32 307.156 219.262 307.156 219.184C307.291 217.483 308.838 216.207 310.481 216.477C312.144 216.748 314.02 216.825 315.934 216.497C318.718 216.033 320.497 214.621 320.226 212.61C319.975 210.696 318.235 209.71 314.368 209.072C308.799 208.144 304.758 206.346 303.965 201.473C303.25 197.065 305.841 192.985 311.177 190.994C310.945 189.408 310.713 187.804 310.481 186.218C312.183 185.928 313.865 185.657 315.566 185.387C315.779 186.876 315.972 188.345 316.185 189.834C318.061 189.621 319.646 189.64 320.98 189.776C322.604 189.95 323.745 191.419 323.532 193.024C323.32 194.687 321.773 195.866 320.11 195.634C318.873 195.46 317.345 195.422 315.547 195.712C312.241 196.253 311.371 197.858 311.583 199.25C311.835 200.913 313.749 201.647 318.254 202.595C324.538 203.794 327.245 206.269 327.786 210.812C328.308 215.317 325.679 219.571 320.246 221.447C320.478 223.167 320.71 224.888 320.942 226.59C319.317 226.86 317.751 227.112 316.185 227.382Z" fill="#000000"/>
<path d="M281.111 212.491C267.847 215.352 254.7 218.813 241.668 222.854C241.03 220.418 240.411 217.982 239.773 215.546C252.979 211.447 266.32 207.947 279.758 205.027C280.222 207.502 280.667 209.996 281.111 212.491Z" fill="#000000"/>
<path d="M389.349 202.384C375.815 202.016 362.261 202.268 348.784 203.099C348.649 200.566 348.514 198.033 348.378 195.52C362.068 194.669 375.795 194.418 389.523 194.785C389.465 197.318 389.407 199.851 389.349 202.384Z" fill="#000000"/>
<path d="M432.079 194.609H192.847V299.889H432.079V194.609Z" fill="#E4AD50"/>
<path d="M419.433 199.789H201.663V207.968H419.433V199.789Z" fill="#000000"/>
<path d="M296.541 298.59H198.261C193.814 298.59 190.217 294.994 190.217 290.547V241.243C190.217 236.796 193.814 233.199 198.261 233.199H296.541C300.988 233.199 304.584 236.796 304.584 241.243V290.547C304.565 294.994 300.968 298.59 296.541 298.59Z" fill="#000000"/>
<path d="M225.716 246.211H197.564V262.588H225.716V246.211Z" fill="#7EC65C"/>
<path d="M297.333 242.055H247.391V245.11H297.333V242.055Z" fill="#7EC65C"/>
<path d="M293.622 276.977H201.722V280.747H293.622V276.977Z" fill="#7EC65C"/>
<path d="M293.622 285.867H201.722V289.638H293.622V285.867Z" fill="#7EC65C"/>
<path d="M305.975 221.484H204.428V224.191H305.975V221.484Z" fill="#000000"/>
<path d="M364.097 203.963C376.59 203.963 386.719 193.834 386.719 181.341C386.719 168.847 376.59 158.719 364.097 158.719C351.603 158.719 341.475 168.847 341.475 181.341C341.475 193.834 351.603 203.963 364.097 203.963Z" fill="#B0FF8B"/>
<path d="M379.623 170.435C385.636 179.02 383.567 190.853 374.983 196.866C366.398 202.879 354.565 200.811 348.552 192.226C342.538 183.641 344.607 171.808 353.192 165.795C361.777 159.782 373.61 161.87 379.623 170.435Z" fill="#000000"/>
<path d="M366.281 194.678L365.45 191.623C364.057 191.932 362.627 192.048 361.409 191.971C360.403 191.913 359.591 191.081 359.572 190.076V189.96C359.552 188.838 360.5 187.93 361.621 188.007C362.762 188.084 364.019 188.007 365.276 187.659C367.112 187.156 368.176 186.112 367.828 184.836C367.499 183.618 366.262 183.115 363.651 182.961C359.9 182.729 357.116 181.762 356.265 178.63C355.492 175.787 356.903 173.042 360.152 171.437L359.32 168.382L362.472 167.531L363.245 170.374C364.425 170.103 365.43 170.006 366.3 170.006C367.364 170.006 368.214 170.857 368.234 171.901C368.253 172.984 367.364 173.873 366.262 173.854C365.45 173.834 364.463 173.912 363.323 174.221C361.234 174.782 360.79 175.865 361.041 176.773C361.331 177.837 362.646 178.204 365.643 178.494C369.839 178.804 371.869 180.157 372.642 183.057C373.416 185.919 372.043 188.916 368.524 190.559L369.413 193.846L366.281 194.678Z" fill="white"/>
<path d="M401.414 269.719C410.249 260.884 410.249 246.561 401.414 237.727C392.58 228.892 378.257 228.892 369.422 237.727C360.588 246.561 360.588 260.884 369.422 269.719C378.257 278.553 392.58 278.553 401.414 269.719Z" fill="#B0FF8B"/>
<path d="M400.969 242.814C406.982 251.399 404.914 263.232 396.329 269.245C387.744 275.258 375.911 273.189 369.898 264.605C363.885 256.02 365.953 244.187 374.538 238.174C383.123 232.161 394.937 234.249 400.969 242.814Z" fill="#000000"/>
<path d="M387.627 267.084L386.796 264.029C385.404 264.338 383.973 264.454 382.755 264.377C381.749 264.319 380.937 263.488 380.918 262.482V262.366C380.899 261.245 381.846 260.336 382.967 260.413C384.108 260.491 385.365 260.413 386.622 260.065C388.459 259.563 389.522 258.518 389.174 257.242C388.845 256.024 387.608 255.522 384.998 255.367C381.247 255.135 378.462 254.168 377.612 251.036C376.838 248.194 378.25 245.448 381.498 243.843L380.667 240.788L383.818 239.938L384.592 242.78C385.771 242.509 386.776 242.412 387.646 242.412C388.71 242.412 389.561 243.263 389.58 244.307C389.599 245.39 388.71 246.279 387.608 246.26C386.796 246.241 385.81 246.318 384.669 246.627C382.581 247.188 382.136 248.271 382.387 249.18C382.677 250.243 383.992 250.61 386.989 250.9C391.185 251.21 393.215 252.563 393.988 255.464C394.762 258.325 393.389 261.322 389.87 262.966L390.759 266.253L387.627 267.084Z" fill="white"/>
<path d="M341.861 248.034C354.354 247.826 364.312 237.53 364.104 225.038C363.896 212.545 353.6 202.587 341.108 202.795C328.615 203.003 318.657 213.299 318.865 225.792C319.073 238.284 329.369 248.243 341.861 248.034Z" fill="#B0FF8B"/>
<path d="M349.183 242.746C358.753 238.485 363.056 227.273 358.794 217.703C354.533 208.134 343.321 203.831 333.751 208.093C324.182 212.354 319.879 223.566 324.14 233.136C328.402 242.705 339.614 247.008 349.183 242.746Z" fill="#000000"/>
<path d="M335.597 237.593L336.68 234.615C335.365 234.074 334.128 233.339 333.161 232.585C332.368 231.966 332.175 230.825 332.755 229.975L332.832 229.878C333.47 228.95 334.747 228.756 335.617 229.452C336.506 230.168 337.569 230.825 338.807 231.27C340.586 231.927 342.075 231.676 342.519 230.419C342.945 229.22 342.229 228.118 340.18 226.494C337.241 224.155 335.52 221.757 336.622 218.702C337.627 215.937 340.354 214.487 343.95 215.048L345.033 212.07L348.107 213.192L347.102 215.957C348.223 216.421 349.112 216.904 349.809 217.407C350.679 218.006 350.891 219.205 350.292 220.075C349.673 220.984 348.436 221.196 347.566 220.539C346.908 220.056 346.058 219.553 344.955 219.147C342.925 218.412 341.939 219.05 341.63 219.92C341.262 220.964 342.113 222.009 344.414 223.981C347.662 226.649 348.552 228.911 347.527 231.734C346.522 234.518 343.679 236.181 339.851 235.504L338.691 238.695L335.597 237.593Z" fill="white"/>
<path d="M419.433 238.438H317.016V293.33H419.433V238.438Z" fill="#000000"/>
<path d="M432.078 267.008H372.874C370.245 267.008 368.118 269.231 368.118 271.977C368.118 274.722 370.245 276.946 372.874 276.946H365.198C362.569 276.946 360.442 279.17 360.442 281.915C360.442 284.661 362.569 286.884 365.198 286.884H366.532C363.903 286.884 361.776 289.108 361.776 291.853C361.776 292.569 361.911 293.245 362.182 293.845H432.078V267.008Z" fill="#E4AD50"/>
<path d="M368.137 271.996C368.137 274.742 370.264 276.965 372.894 276.965H365.218C362.588 276.965 360.461 279.189 360.461 281.934C360.461 284.68 362.588 286.904 365.218 286.904H366.552C365.875 286.904 365.218 287.058 364.638 287.329H419.433V267.008H372.875C370.264 267.008 368.137 269.231 368.137 271.996Z" fill="#E4AD50"/>
<path d="M109.125 298.288C109.125 299.178 109.782 299.893 110.614 299.893H481.943C482.774 299.893 483.432 299.178 483.432 298.288C483.432 297.399 482.774 296.684 481.943 296.684H110.614C109.782 296.684 109.125 297.418 109.125 298.288Z" fill="#000000"/>
<path d="M432.678 296.867H371.54C369.085 296.867 367.093 294.875 367.093 292.42C367.093 289.964 369.085 287.973 371.54 287.973H432.678C435.133 287.973 437.125 289.964 437.125 292.42C437.125 294.895 435.133 296.867 432.678 296.867Z" fill="#7EC65C"/>
<path d="M431.44 287.992H370.303C367.847 287.992 365.855 286 365.855 283.545C365.855 281.089 367.847 279.098 370.303 279.098H431.44C433.895 279.098 435.887 281.089 435.887 283.545C435.868 286 433.895 287.992 431.44 287.992Z" fill="#B0FF8B"/>
<path d="M438.614 279.117H377.476C375.021 279.117 373.029 277.125 373.029 274.67C373.029 272.214 375.021 270.223 377.476 270.223H438.614C441.069 270.223 443.061 272.214 443.061 274.67C443.041 277.125 441.069 279.117 438.614 279.117Z" fill="#7EC65C"/>
<path d="M360.848 92.7908L361.641 98.0499L353.308 100.235L353.501 108.065L347.526 110.734L348.88 113.75L356.846 110.192L356.672 102.768L365.334 100.505L364.174 92.5781L360.848 92.7908Z" fill="#97E373"/>
<path d="M282.097 76.1457L283.702 72.1626C281.943 71.3506 280.299 70.3065 279.042 69.243C277.979 68.3536 277.805 66.8068 278.617 65.6854L278.714 65.5501C279.622 64.332 281.363 64.1193 282.523 65.1054C283.702 66.1108 285.113 67.0582 286.757 67.7156C289.155 68.6823 291.146 68.4116 291.823 66.7295C292.461 65.144 291.533 63.5972 288.845 61.2964C284.959 57.9707 282.755 54.6451 284.398 50.5847C285.887 46.8918 289.657 45.0549 294.491 45.983L296.096 42L300.195 43.6628L298.706 47.3558C300.195 48.0325 301.374 48.7479 302.302 49.444C303.443 50.2947 303.675 51.9189 302.824 53.079C301.954 54.2777 300.253 54.4904 299.093 53.5817C298.223 52.8856 297.101 52.1702 295.612 51.5708C292.886 50.4687 291.533 51.3001 291.069 52.4602C290.508 53.8524 291.629 55.3218 294.646 58.0867C298.919 61.8571 300.001 64.97 298.493 68.7403C296.985 72.472 293.06 74.5988 287.898 73.4968L286.177 77.7698L282.097 76.1457Z" fill="#97E373"/>
<path d="M289.696 118.639C290.121 119.316 289.986 120.205 289.406 120.747C288.265 121.81 286.428 123.048 284.185 123.898C280.917 125.117 277.302 125.233 274.034 123.763C272.004 122.835 270.129 121.172 268.814 119.007L266.88 119.722C266.223 119.973 265.488 119.645 265.256 118.987L265.237 118.929C264.985 118.272 265.314 117.537 265.972 117.305L267.557 116.706C267.306 116.184 267.132 115.855 267.016 115.565C266.822 115.062 266.648 114.463 266.513 113.786L264.889 114.405C264.231 114.656 263.497 114.328 263.265 113.67C263.013 113.013 263.342 112.278 263.999 112.046L265.972 111.311C265.662 108.836 265.991 106.4 266.919 104.351C268.485 100.89 271.463 98.4149 274.866 97.1388C276.857 96.3847 278.481 96.1721 279.815 96.1527C280.743 96.1334 281.498 96.8681 281.536 97.7769V97.7962C281.575 98.7436 280.84 99.5557 279.893 99.575C278.81 99.6137 277.534 99.8264 276.045 100.387C273.88 101.199 271.946 102.707 270.863 105.047C270.245 106.4 269.955 108.044 270.283 109.668L281.401 105.492C282.058 105.24 282.793 105.569 283.025 106.226C283.276 106.884 282.948 107.618 282.29 107.85L270.67 112.201C270.825 112.762 270.979 113.322 271.115 113.67C271.289 114.115 271.443 114.56 271.714 115.14L283.354 110.77C284.03 110.519 284.765 110.867 285.017 111.524C285.268 112.201 284.92 112.936 284.262 113.187L273.125 117.363C274.015 118.659 275.156 119.645 276.393 120.205C278.829 121.269 281.053 121.211 283.528 120.283C285.036 119.722 286.293 118.949 287.24 118.195C288.013 117.576 289.174 117.789 289.696 118.639Z" fill="#7EC65C"/>
<path d="M259.339 78.9804L254.273 79.5025L252.552 71.4591L245.089 71.3044L242.808 65.5039L239.869 66.6447L242.904 74.4174L250 74.572L251.779 82.9248L259.378 82.1514L259.339 78.9804Z" fill="#000000"/>
<path d="M317.693 72.9901L323.087 74.7689C323.087 74.7689 331.653 71.9847 332.504 70.2445C333.354 68.5044 333.586 64.27 334.805 64.154C336.023 64.038 338.381 64.444 338.942 67.3249C339.348 69.4324 336.274 75.5036 336.757 76.161C337.067 76.5671 340.141 77.6885 342.403 78.4619C343.892 78.9646 344.955 80.2794 345.187 81.8649C345.342 82.9283 344.743 83.9724 343.737 84.3591L342.19 84.9585L342.693 86.5633C343.061 87.762 342.403 89.0382 341.224 89.4442L340.025 89.8502L340.412 90.8363C340.914 92.0931 340.218 93.5239 338.923 93.8913L337.879 94.2006L337.917 94.4906C338.091 95.6507 337.357 96.7915 336.235 97.0815L335.191 97.3522L320.806 92.5958C319.452 92.1511 318.215 91.4357 317.152 90.4689L312.376 87.9554C311.854 87.6847 311.622 87.066 311.815 86.5053L316.243 73.7441C316.417 73.1061 317.074 72.7774 317.693 72.9901Z" fill="#7EC65C"/>
<path d="M232.232 130.126L233.372 124.461L238.689 122.18C239.289 121.928 239.347 121.078 238.767 120.749L233.72 117.926L233.198 112.164C233.14 111.507 232.348 111.197 231.864 111.642L227.61 115.548L221.965 114.252C221.327 114.098 220.785 114.755 221.056 115.355L223.453 120.614L220.495 125.583C220.166 126.143 220.611 126.859 221.269 126.782L227.011 126.124L230.82 130.475C231.284 130.997 232.096 130.765 232.232 130.126Z" fill="#B0FF8B"/>
<path d="M162.819 269.375C162.819 269.375 155.723 274.479 154.621 276.007C153.016 278.211 166.628 282.31 165.139 279.739C164.791 279.139 163.824 277.148 163.766 276.954C163.534 275.91 166.435 273.087 166.435 273.087L162.819 269.375Z" fill="#F7A491"/>
<path d="M168.813 284.029L164.018 277.243C164.018 277.243 161.021 276.547 157.928 273.066C157.928 273.066 155.163 274.13 153.442 276.411C153.442 276.411 156.671 279.892 161.621 283.797C161.621 283.797 164.56 286.408 168.639 287.78C172.7 289.153 168.813 284.029 168.813 284.029Z" fill="#000000"/>
<path d="M103.577 176.24C103.577 176.24 104.447 177.014 104.756 177.246C105.123 177.516 106.264 178.27 106.264 178.27C106.264 178.27 110.402 180.629 110.537 180.32C110.673 180.01 110.673 179.121 110.46 178.889C110.247 178.657 109.667 178.406 109.454 178.174C109.242 177.942 109.184 177.458 109.435 177.207C109.706 176.936 111.117 177.71 111.117 177.71C111.117 177.71 112.258 178.348 112.741 179.121C114.404 181.789 113.901 181.944 114.114 182.273C114.385 182.679 120.185 185.308 120.185 185.308C120.185 185.308 137.529 192.52 138.476 192.907H138.496C138.631 193.719 138.186 194.454 137.974 195.169C137.568 197.644 136.813 197.818 136.253 200.196C133.585 198.843 115.178 188.711 113.302 187.648C113.302 187.648 110.498 187.164 108.739 186.816C106.98 186.449 105.452 185.347 104.969 185.173C104.891 185.154 103.325 184.477 101.604 183.143C100.116 181.983 102.03 182.427 102.03 182.427C102.03 182.427 105.162 184.09 105.239 183.819C105.297 183.626 103.538 182.814 101.894 181.557C101.469 181.229 101.044 180.919 100.657 180.61C99.6515 179.836 99.8256 179.005 101.005 179.662C101.43 179.894 102.107 180.3 102.552 180.649C103.035 181.035 103.596 181.229 104.06 181.48C104.969 182.002 105.607 182.389 105.607 182.331C105.607 182.273 105.858 182.253 105.413 181.886C104.891 181.461 103.557 180.784 102.822 180.088C102.397 179.701 101.488 178.928 101.488 178.928C101.488 178.928 100.309 177.516 100.367 177.42C100.676 176.917 101.759 177.652 102.242 178.27C102.745 178.502 103.693 179.334 103.693 179.334C103.693 179.334 105.974 180.61 106.148 180.3C106.225 180.165 104.911 179.218 103.77 178.116C102.706 177.072 101.798 175.853 101.972 175.621C102.281 175.196 103.577 176.24 103.577 176.24Z" fill="#F8A492"/>
<path d="M151.972 216.847L153.094 222.396L181.284 248.034L161.118 268.452L166.57 274.02C166.57 274.02 196.365 252.133 197.448 249.272C199.111 244.863 176.083 215.609 176.083 215.609L151.972 216.847Z" fill="#E4AD50"/>
<path d="M132.425 283.918C132.425 283.918 126.74 290.125 125.619 291.633C124.014 293.837 136.021 297.066 134.532 294.494C134.184 293.895 133.217 291.903 133.159 291.71C132.927 290.666 135.828 287.843 135.828 287.843L132.425 283.918Z" fill="#F7A491"/>
<path d="M140.874 294.299L133.043 291.438C133.043 291.438 130.085 292.791 125.58 291.689C125.58 291.689 123.994 293.932 123.897 296.774C123.897 296.774 138.727 298.669 142.865 297.489C146.983 296.31 140.874 294.299 140.874 294.299Z" fill="#000000"/>
<path d="M152.939 219.415L154.196 254.392L129.176 285.058L135.944 288.77C135.944 288.77 163.612 265.027 166.648 258.414C168.523 254.315 174.865 217.23 174.865 217.23L152.939 219.415Z" fill="#000000"/>
<path d="M175.677 216.557C173.376 211.375 173.647 174.291 164.733 165.609C161.601 166.131 159.358 166.441 158.836 166.576C158.372 170.404 157.85 184.422 157.541 197.28C157.328 205.846 157.541 214.817 156.496 219.554C155.839 222.454 177.784 221.275 175.677 216.557Z" fill="#B0FF8B"/>
<path d="M151.528 168.465C149.014 169.045 147.178 169.432 143.891 174.285C140.739 178.925 133.778 189.946 133.778 189.946L115.391 181.787L114.54 191.106C114.54 191.106 135.325 201.915 138.264 200.948C141.203 199.981 149.44 187.916 150.058 187.104C150.194 186.911 149.362 199.981 149.362 202.069C149.362 204.157 145.379 222.332 145.379 222.332C145.379 222.332 155.492 224.827 157.464 220.302C163.516 206.439 158.875 166.551 158.875 166.551C158.875 166.551 153.326 168.059 151.528 168.465Z" fill="#000000"/>
<path d="M189.289 128.772C188.516 128.134 188.187 126.568 188.052 125.582L187.704 124.267C188.013 124.131 194.142 123.261 195.998 123.223C196.172 123.803 196.269 124.305 196.211 124.615C195.94 126.123 194.007 135.945 194.007 135.945L188.728 136.042C188.728 136.022 189.869 130.203 189.289 128.772Z" fill="#F7A491"/>
<path d="M166.802 167.772C166.802 167.772 170.418 178.077 173.395 176.589C176.373 175.1 193.117 158.027 193.291 157.215C193.465 156.384 194.625 135.444 194.625 135.444L187.993 134.129L184.184 151.298C184.184 151.298 171.926 163.015 169.451 164.176C166.957 165.297 166.802 167.772 166.802 167.772Z" fill="#000000"/>
<path d="M176.585 219.029C178.596 219.029 179.331 218.759 180.665 218.353C180.665 218.353 176.856 196.833 174.632 175.487C173.762 167.057 172.95 163.596 169.47 164.215C168.464 164.389 165.738 165.433 164.752 165.587C173.491 190.317 173.53 209.342 174.767 214.872C175.367 217.637 175.908 219.049 176.585 219.029Z" fill="#000000"/>
<path d="M163.805 161.853L164.714 165.585C164.714 165.585 164.926 168.833 163.418 169.123C161.601 169.471 158.894 166.745 158.894 166.745L157.328 156.207L163.805 161.853Z" fill="#F7A491"/>
<path d="M163.805 161.853L164.714 165.585C164.714 165.585 164.926 168.833 163.418 169.123C161.601 169.471 158.894 166.745 158.894 166.745L157.328 156.207L163.805 161.853Z" fill="#F7A491"/>
<path d="M157.347 156.266L163.805 161.853L164.482 164.638C162.026 164.058 158.507 161.331 157.347 156.266Z" fill="#E28874"/>
<path d="M163.824 146.578C165.391 146.578 166.802 147.661 167.343 149.227C167.807 150.522 168.388 152.437 168.755 154.641C169.432 158.701 167.131 162.394 165.12 162.704C163.109 162.994 158.333 161.679 157.27 155.936C156.825 153.481 156.226 150.252 158.237 148.55C159.822 147.216 162.026 146.578 163.824 146.578Z" fill="#F7A491"/>
<path d="M157.927 160.291C157.927 160.291 150.85 153.988 150.541 149.058C150.231 144.127 154.775 141.498 158.681 141.362C160.44 141.304 161.62 141.382 163.437 141.614C167.343 142.097 169.857 143.837 168.967 147.027C167.768 151.32 159.686 147.704 158.024 149.038C156.651 150.14 158.874 152.77 157.54 153.795C156.303 154.742 156.921 154.413 157.347 156.231C157.772 157.99 157.927 160.291 157.927 160.291Z" fill="#184655"/>
<path d="M155.201 154.566C155.375 155.745 156.091 156.615 156.806 156.519C157.522 156.422 157.966 155.378 157.792 154.198C157.618 153.019 156.903 152.149 156.187 152.246C155.472 152.342 155.027 153.386 155.201 154.566Z" fill="#F7A491"/>
<path d="M189.636 124.248C189.636 124.248 190.777 124.906 191.918 126.414C191.918 126.414 194.895 124.5 194.799 123.9C194.663 123.088 191.608 124.596 191.608 124.596L189.636 124.248Z" fill="#E28874"/>
<path d="M189.618 124.169C189.483 123.783 189.192 123.261 189.328 123.048C190.179 121.733 189.27 120.302 188.632 121.424C188.264 122.081 187.626 123.493 187.684 124.247C187.723 124.788 188.264 126.838 188.264 126.838C188.264 126.838 190.411 126.316 189.618 124.169Z" fill="#F7A491"/>
<path d="M432.406 262.254C432.406 262.254 431.903 268.441 432.309 270.433C432.522 271.515 433.721 273.72 433.179 274.725C432.638 275.73 432 275.982 432 275.982L417.731 276.214C416.957 276.233 417.46 275.73 418.098 275.286C419.123 274.551 419.954 274.048 423.222 272.501C423.435 272.405 424.208 271.921 424.498 271.747C425.213 271.322 425.929 270.645 426.548 269.969C427.572 268.847 427.669 263.414 427.669 263.414L432.406 262.254Z" fill="#F7A491"/>
<path d="M421.25 180.141C421.25 180.141 415.121 177.124 416.301 183.698C417.48 190.272 426.471 264.229 426.471 264.229L434.882 264.693C434.882 264.693 435.964 240.04 435.713 236.502C435.481 232.964 434.089 227.492 434.089 227.492L433.373 205.624L425.427 178.594L421.25 180.141Z" fill="#121243"/>
<path d="M424.479 271.747C428.25 272.694 431.034 272.056 432.6 271.438C433.006 272.559 433.528 273.97 433.257 274.782C432.909 275.769 432.465 276.213 432.02 276.233C428.578 276.329 419.355 276.233 416.726 276.252C416.358 276.252 416.165 275.827 416.397 275.556C417.055 274.782 424.208 271.921 424.479 271.747Z" fill="#000000"/>
<path d="M416.281 135.688C416.281 135.688 411.099 125.711 410.287 122.038C409.475 118.383 406.691 99.9183 406.923 98.7388C407.155 97.5594 411.563 94.6978 411.022 93.6924C410.481 92.687 406.285 92.687 405.318 92.7643C404.351 92.8417 402.418 93.4024 401.606 94.0984C400.774 94.7752 402.534 116.894 403.056 121.651C403.578 126.407 410.017 141.063 410.017 141.063L416.281 135.688Z" fill="#F7A491"/>
<path d="M456.691 213.457C456.691 213.457 460.964 208.971 461.911 207.154C462.414 206.187 462.878 203.712 463.942 203.267C465.005 202.823 465.662 203.035 465.662 203.035L476.877 211.852C477.495 212.335 476.78 212.393 476.007 212.355C474.75 212.277 473.783 212.142 470.264 211.291C470.032 211.233 469.123 211.117 468.795 211.079C467.983 210.963 466.996 211.04 466.088 211.175C464.58 211.407 461.08 215.564 461.08 215.564L456.691 213.457Z" fill="#F7A491"/>
<path d="M468.815 211.057C466.475 207.944 463.904 206.687 462.299 206.185C462.686 205.063 463.13 203.594 463.846 203.13C464.735 202.569 465.354 202.685 465.702 202.956C468.428 205.063 475.582 210.806 477.651 212.449C477.941 212.681 477.825 213.126 477.477 213.203C476.51 213.397 469.143 211.115 468.815 211.057Z" fill="#000000"/>
<path d="M456.788 132.654C454.12 127.066 448.222 123.992 442.519 125.481C440.469 122.716 437.298 120.763 433.992 120.299C427.476 119.371 419.084 122.542 419.935 129.328C417.886 134.085 418.388 140.62 422.487 143.83C421.733 150.075 427.998 155.624 435.403 154.87C438.381 158.988 443.563 161.405 448.416 160.458C449.576 160.226 451.355 159.8 451.645 159.858C451.258 159.82 460.094 165.601 466.185 155.295C472.449 144.796 466.32 133.041 456.788 132.654Z" fill="#E4AD50"/>
<path d="M418.775 182.524C418.775 182.524 432.523 176.414 432.755 177.11C434.475 182.659 439.851 180.88 443.022 190.664C444.356 194.763 445.728 222.006 445.728 222.006C445.728 222.006 451.162 217.501 458.896 209.631C459.495 209.032 465.315 214.562 465.315 214.562C449.924 235.347 443.292 236.43 440.721 235.27C435.365 232.833 424.054 198.862 424.073 198.862C422.72 196.232 418.775 182.524 418.775 182.524Z" fill="#000000"/>
<path d="M441.571 144.118C441.571 144.118 461.448 144.099 465.701 143.848C469.549 143.635 484.843 144.022 485.423 143.944C486.023 143.867 489.967 137.177 490.624 137.912C491.282 138.627 488.42 141.237 489.309 141.895C490.199 142.572 499.673 141.063 499.557 141.759C499.325 143.074 493.795 142.9 493.795 143.538C493.795 144.176 499.576 143.19 499.982 144.234C500.369 145.278 494.414 144.66 494.182 145.124C493.95 145.588 499.712 146.458 499.112 147.425C498.784 147.947 494.008 146.535 494.027 147.27C494.047 147.985 497.546 149.648 497.121 150.209C496.695 150.789 494.375 148.43 492.345 148.411C490.315 148.372 488.865 147.328 485.636 148.217C484.031 148.662 471.85 150.151 461.544 151.021C450.987 151.93 442.325 152.2 442.325 152.2L441.571 144.118Z" fill="#F7A491"/>
<path d="M412.105 158.175C411.834 154.985 412.472 152.529 412.607 151.466C411.641 148.16 409.591 141.083 408.856 139.691C408.856 139.691 412.317 133.04 415.856 133.078C415.856 133.078 419.471 141.238 422.275 142.688C422.314 142.668 423.261 143.113 423.686 143.113C426.393 143.094 435.829 142.804 437.588 142.784L436.602 156.184C429.758 169.602 431.614 176.621 434.224 179.231C435.442 180.449 417.151 185.418 416.32 183.697C415.295 181.648 412.627 164.633 412.105 158.175Z" fill="#97E373"/>
<path d="M432.793 143.292C434.534 142.461 447.14 142.886 447.14 142.886C447.14 142.886 448.9 151.664 447.488 153.772C447.488 153.772 436.216 155.454 436.544 156.382L432.793 143.292Z" fill="#97E373"/>
<path d="M429.487 137.642C429.487 137.642 429.274 142.437 429.487 144.429C429.719 146.42 427.437 151.099 423.222 151.177C419.007 151.254 422.604 146.691 422.971 144.738C423.338 142.785 423.783 135.09 423.783 135.09L429.487 137.642Z" fill="#F7A491"/>
<path d="M423.783 135.09C423.783 135.09 423.686 136.869 423.532 138.938C424.866 140.523 426.915 141.335 429.41 140.368C429.429 138.88 429.487 137.642 429.487 137.642L423.783 135.09Z" fill="#E28874"/>
<path d="M429.835 123.396C429.835 123.396 432.233 124.112 433.567 126.509C434.901 128.907 435.481 135.713 430.318 138.516C425.156 141.32 421.618 136.602 421.85 132.252C422.082 127.921 423.416 122.178 429.835 123.396Z" fill="#F7A491"/>
<path d="M420.825 130.817C421.173 131.9 421.966 132.596 422.584 132.403C423.203 132.19 423.435 131.165 423.087 130.083C422.739 129 421.946 128.304 421.328 128.497C420.69 128.71 420.477 129.734 420.825 130.817Z" fill="#F7A491"/>
<path d="M429.12 123.199C429.12 123.199 431.73 130.353 434.417 131.165C437.105 131.977 436.815 135.458 436.815 135.458C436.815 135.458 437.318 127.376 434.881 125.345C432.465 123.335 429.12 123.199 429.12 123.199Z" fill="#E4AD50"/>
<path d="M433.238 132.538C432.793 133.64 433.045 134.781 433.799 135.071C434.553 135.361 435.5 134.704 435.945 133.601C436.39 132.499 436.138 131.359 435.384 131.069C434.63 130.778 433.663 131.436 433.238 132.538Z" fill="#F7A491"/>
<path d="M400.871 95.7982C400.871 95.7982 406.691 96.0495 407.387 96.0495C408.064 96.0495 410.055 94 410.055 94L400.871 95.7982Z" fill="#F47458"/>
<path d="M406.397 95.5007C418.585 92.7534 426.238 80.6461 423.49 68.4584C420.743 56.2708 408.636 48.6179 396.448 51.3653C384.26 54.1127 376.608 66.2199 379.355 78.4076C382.102 90.5953 394.21 98.2481 406.397 95.5007Z" fill="#B0FF8B"/>
<path d="M416.957 62.546C422.97 71.1308 420.901 82.9638 412.317 88.977C403.732 94.9902 391.899 92.9213 385.886 84.3366C379.872 75.7518 381.941 63.9188 390.526 57.9056C399.111 51.8924 410.944 53.9613 416.957 62.546Z" fill="#000000"/>
<path d="M403.616 86.787L402.785 83.7321C401.392 84.0414 399.962 84.1574 398.743 84.0801C397.738 84.0221 396.926 83.1907 396.907 82.1853V82.0693C396.887 80.9478 397.835 80.0391 398.956 80.1164C400.097 80.1938 401.354 80.1164 402.61 79.7684C404.447 79.2657 405.511 78.2216 405.163 76.9455C404.834 75.7274 403.597 75.2247 400.986 75.07C397.235 74.838 394.451 73.8712 393.6 70.7389C392.827 67.8967 394.238 65.1511 397.487 63.5463L396.655 60.4914L399.807 59.6406L400.58 62.4829C401.76 62.2122 402.765 62.1155 403.635 62.1155C404.699 62.1155 405.549 62.9662 405.569 64.0103C405.588 65.0931 404.699 65.9825 403.597 65.9632C402.784 65.9438 401.798 66.0212 400.658 66.3305C398.569 66.8913 398.125 67.974 398.376 68.8828C398.666 69.9462 399.981 70.3136 402.978 70.6036C407.174 70.9129 409.204 72.2664 409.977 75.1666C410.751 78.0282 409.378 81.0252 405.859 82.6686L406.748 85.9556L403.616 86.787Z" fill="white"/>
<path d="M407.387 96.0547L409.784 93.8892C409.784 93.8892 408.643 92.5358 409.127 92.2651C409.9 91.8397 411.215 93.4832 411.099 93.8699C410.983 94.2759 409.572 95.552 409.572 95.552L407.387 96.0547Z" fill="#F7A491"/>
</svg>
