<svg width="68" height="69" viewBox="0 0 68 69" fill="none" xmlns="http://www.w3.org/2000/svg">
<circle cx="33.9286" cy="34.618" r="33.9286" fill="#000000"/>
<path d="M16.5422 51.353H21.0262C21.9168 51.353 22.6411 50.6286 22.6411 49.7381V49.2392L29.4056 53.0748C30.7932 53.7451 32.4111 53.7902 33.8476 53.1984L51.1291 46.0481C52.5732 45.4508 53.2932 43.7799 52.7364 42.3276C52.1968 40.8879 50.6103 40.1474 49.234 40.5522L40.5953 42.9598V41.8328C40.5953 40.0853 39.1734 38.6639 37.4264 38.6639H33.3071C29.4394 35.5308 24.963 35.6965 22.6419 37.3762V36.3099C22.6419 35.4193 21.9175 34.6955 21.0269 34.6955L16.5421 34.6961C15.6515 34.6961 14.9277 35.4205 14.9277 36.3104V49.7383C14.9277 50.6287 15.6522 51.353 16.5422 51.353ZM32.7125 39.7137C32.8194 39.8034 32.9541 39.852 33.0938 39.852H37.4264C38.5189 39.852 39.4076 40.741 39.4076 41.8332V43.2374L31.2895 44.5621C30.9659 44.6148 30.7464 44.9202 30.7991 45.2438C30.8467 45.5346 31.0984 45.7418 31.3846 45.7418C31.4161 45.7418 31.4481 45.7394 31.4809 45.7342L40.0971 44.3281C40.1097 44.3262 40.1185 44.318 40.131 44.3155C40.1412 44.313 40.1513 44.3174 40.1614 44.3144L49.5614 41.6941C50.3673 41.4571 51.307 41.8961 51.6271 42.7487C51.9573 43.6097 51.5304 44.597 50.6759 44.9502L33.3943 52.1012C32.2722 52.5642 31.0063 52.5292 29.9564 52.0246L22.641 47.8749L22.6413 39.0515C23.706 37.2592 28.4875 36.1769 32.7125 39.7137ZM16.1153 36.3105C16.1153 36.0755 16.3072 35.8836 16.5423 35.8836H21.0263C21.2619 35.8836 21.4538 36.0755 21.4538 36.3105V49.7384C21.4538 49.9741 21.2619 50.166 21.0263 50.166L16.5423 50.1657C16.3072 50.1657 16.1153 49.9738 16.1153 49.7382V36.3105Z" fill="#7EC65C"/>
<path d="M50.1074 20.3374L48.5786 21.8621C48.3465 22.0936 48.346 22.4695 48.5775 22.7015C48.8085 22.9331 49.1843 22.935 49.4169 22.7026L49.9366 22.1849V27.0571C48.8987 27.323 48.1262 28.2582 48.1262 29.3781C48.1262 30.7003 49.2045 31.7756 50.5302 31.7756C51.1975 31.7756 51.7409 32.3212 51.7409 32.9923C51.7409 33.6631 51.1978 34.209 50.5302 34.209C49.8595 34.209 49.3136 33.6634 49.3136 32.9923C49.3136 32.6646 49.0476 32.3986 48.7198 32.3986C48.3921 32.3986 48.1261 32.6646 48.1261 32.9923C48.1261 34.1122 48.8986 35.0473 49.9365 35.3133V35.6725C49.9365 36.0002 50.2025 36.2662 50.5302 36.2662C50.858 36.2662 51.1239 36.0002 51.1239 35.6725V35.3128C52.1577 35.0468 52.9277 34.1122 52.9277 32.9932C52.9277 31.6674 51.8518 30.5891 50.5296 30.5891C49.8588 30.5891 49.3129 30.0465 49.3129 29.379C49.3129 28.7082 49.8585 28.1623 50.5296 28.1623C51.1969 28.1623 51.7403 28.7079 51.7403 29.379C51.7403 29.7067 52.0063 29.9727 52.334 29.9727C52.6618 29.9727 52.9277 29.7067 52.9277 29.379C52.9277 28.2599 52.1577 27.3253 51.1234 27.058V22.1858L51.64 22.7025C51.8721 22.9345 52.2474 22.9345 52.4794 22.7025C52.7115 22.4704 52.7115 22.0951 52.4794 21.863L50.9506 20.3339C50.7409 20.1242 50.357 20.084 50.1074 20.3374Z" fill="#7EC65C"/>
<path d="M32.1954 28.162C32.8626 28.162 33.4055 28.7076 33.4055 29.3787C33.4055 29.7064 33.6714 29.9724 33.9992 29.9724C34.3269 29.9724 34.5929 29.7064 34.5929 29.3787C34.5929 28.2596 33.8229 27.325 32.7891 27.0577V22.1855L33.3057 22.7021C33.5378 22.9342 33.9131 22.9342 34.1452 22.7021C34.3772 22.4701 34.3772 22.0947 34.1452 21.8627L32.6163 20.3338C32.39 20.1075 32.0095 20.0968 31.7733 20.3374L30.2444 21.8621C30.0124 22.0936 30.0118 22.4695 30.2433 22.7015C30.4743 22.9331 30.8502 22.935 31.0828 22.7026L31.6024 22.1849V27.0571C30.5645 27.323 29.792 28.2582 29.792 29.3781C29.792 30.7003 30.8704 31.7756 32.1961 31.7756C32.8634 31.7756 33.4062 32.3212 33.4062 32.9923C33.4062 33.6631 32.8636 34.209 32.1961 34.209C31.5253 34.209 30.9794 33.6634 30.9794 32.9923C30.9794 32.6646 30.7134 32.3986 30.3857 32.3986C30.058 32.3986 29.792 32.6646 29.792 32.9923C29.792 34.1122 30.5645 35.0473 31.6024 35.3133V35.6725C31.6024 36.0002 31.8683 36.2662 32.1961 36.2662C32.5238 36.2662 32.7898 36.0002 32.7898 35.6725V35.3128C33.8241 35.0463 34.5936 34.1111 34.5936 32.9918C34.5936 31.6661 33.5177 30.5877 32.196 30.5877C31.5252 30.5877 30.9793 30.0451 30.9793 29.3776C30.9785 28.7079 31.5243 28.162 32.1954 28.162Z" fill="#7EC65C"/>
<path d="M41.3645 25.894C42.4486 25.894 43.331 26.7805 43.331 27.87C43.331 28.1978 43.597 28.4637 43.9247 28.4637C44.2525 28.4637 44.5184 28.1978 44.5184 27.87C44.5184 26.33 43.4141 25.0469 41.9577 24.7669V17.6391L42.9855 18.6674C43.2176 18.8995 43.5929 18.8995 43.825 18.6674C44.057 18.4359 44.057 18.06 43.825 17.8279L41.785 15.788C41.5783 15.58 41.1888 15.5395 40.9406 15.7932L38.9007 17.8274C38.6686 18.0589 38.6681 18.4348 38.8996 18.6668C39.1311 18.8989 39.507 18.9003 39.739 18.6679L40.7703 17.6396V24.7661C39.3099 25.0452 38.2011 26.3288 38.2011 27.8692C38.2011 29.6082 39.6201 31.0236 41.3646 31.0236C42.4487 31.0236 43.3311 31.9101 43.3311 32.9996C43.3311 34.0891 42.4487 34.9756 41.3646 34.9756C40.275 34.9756 39.3886 34.0891 39.3886 32.9996C39.3886 32.6719 39.1226 32.4059 38.7949 32.4059C38.4671 32.4059 38.2011 32.6719 38.2011 32.9996C38.2011 34.5405 39.3096 35.8235 40.7709 36.1032V36.8038C40.7709 37.1316 41.0369 37.3976 41.3646 37.3976C41.6924 37.3976 41.9583 37.1316 41.9583 36.8038V36.1032C43.4142 35.8236 44.5185 34.5405 44.5185 33.0002C44.5185 31.2556 43.1037 29.8367 41.3647 29.8367C40.2751 29.8367 39.3886 28.9544 39.3886 27.8697C39.3886 26.7796 40.2751 25.8937 41.3647 25.8937L41.3645 25.894Z" fill="#7EC65C"/>
<path d="M18.785 49.2719H19.7338C20.0615 49.2719 20.3275 49.006 20.3275 48.6782C20.3275 48.3505 20.0615 48.0845 19.7338 48.0845H18.785C18.4572 48.0845 18.1912 48.3505 18.1912 48.6782C18.1912 49.006 18.4567 49.2719 18.785 49.2719Z" fill="#7EC65C"/>
</svg>
