<svg width="80" height="71" viewBox="0 0 80 71" fill="none" xmlns="http://www.w3.org/2000/svg">
<path d="M6.98504 64.0995C6.92783 64.0995 6.8792 64.0537 6.87348 63.9965L6.5903 60.8672C6.56741 60.6069 6.36146 60.3952 6.0983 60.3666L3.64406 60.0949C3.58685 60.0892 3.54395 60.0406 3.54395 59.9833C3.54395 59.9261 3.58685 59.8775 3.64406 59.8718L6.0983 59.6C6.3586 59.5714 6.56741 59.3598 6.5903 59.0995L6.87348 55.9702C6.8792 55.913 6.92783 55.8672 6.98504 55.8672C7.0451 55.8672 7.09373 55.913 7.09659 55.9702L7.37977 59.0995C7.40266 59.3626 7.61147 59.5714 7.87177 59.6L10.3231 59.8718C10.3804 59.8775 10.4233 59.9261 10.4233 59.9833C10.4233 60.0406 10.3804 60.0892 10.3231 60.0949L7.87177 60.3666C7.61147 60.3952 7.40266 60.6069 7.37977 60.8672L7.09659 63.9965C7.09087 64.0537 7.04224 64.0995 6.98504 64.0995ZM4.68525 59.9805L6.12119 60.1378C6.49018 60.1779 6.77908 60.4753 6.81341 60.8443L6.98217 62.7236L7.15094 60.8443C7.18526 60.4753 7.47417 60.1779 7.84316 60.1378L9.2791 59.9805L7.84316 59.8203C7.47417 59.7802 7.18526 59.4828 7.15094 59.1138L6.98217 57.2345L6.81341 59.1138C6.77908 59.4828 6.49018 59.7802 6.12119 59.8203L4.68525 59.9805Z" fill="#B0FF8B"/>
<g opacity="0.5">
<path opacity="0.5" d="M10.4239 70.6613C10.3667 70.6613 10.3152 70.6155 10.3123 70.5583L10.1207 68.4273C10.1064 68.2671 9.97766 68.1355 9.81748 68.1184L8.14699 67.9324C8.08978 67.9267 8.04688 67.8781 8.04688 67.8209C8.04688 67.7637 8.08978 67.715 8.14699 67.7093L9.81748 67.5234C9.97766 67.5062 10.1064 67.3746 10.1207 67.2145L10.3123 65.0834C10.3181 65.0262 10.3667 64.9805 10.4239 64.9805C10.4811 64.9805 10.5326 65.0262 10.5354 65.0834L10.7271 67.2145C10.7414 67.3746 10.8701 67.5062 11.0303 67.5234L12.7008 67.7093C12.758 67.715 12.8009 67.7637 12.8009 67.8209C12.8009 67.8781 12.758 67.9267 12.7008 67.9324L11.0303 68.1184C10.8701 68.1355 10.7414 68.2671 10.7271 68.4273L10.5354 70.5583C10.5326 70.6155 10.484 70.6613 10.4239 70.6613ZM9.18818 67.8209L9.84322 67.8924C10.1092 67.921 10.3209 68.1384 10.3467 68.4044L10.4267 69.2854L10.5068 68.4044C10.5297 68.1355 10.7414 67.921 11.0103 67.8924L11.6653 67.8209L11.0103 67.7494C10.7443 67.7208 10.5326 67.5034 10.5068 67.2373L10.4267 66.3563L10.3467 67.2373C10.3238 67.5062 10.1121 67.7208 9.84322 67.7494L9.18818 67.8209Z" fill="#B0FF8B"/>
</g>
<path d="M4.4103 34.2209C4.36739 34.2209 4.33307 34.1894 4.33021 34.1465L4.12998 31.9125C4.11281 31.7266 3.96693 31.575 3.77815 31.555L2.02757 31.3605C1.98752 31.3547 1.95605 31.3204 1.95605 31.2804C1.95605 31.2403 1.98752 31.206 2.02757 31.2003L3.77815 31.0058C3.96407 30.9857 4.11281 30.8341 4.12998 30.6482L4.33021 28.4142C4.33307 28.3713 4.37025 28.3398 4.4103 28.3398C4.45321 28.3398 4.48753 28.3713 4.49039 28.4142L4.69062 30.6482C4.70778 30.8341 4.85652 30.9857 5.04245 31.0058L6.79303 31.2003C6.83308 31.206 6.86454 31.2403 6.86454 31.2804C6.86454 31.3204 6.83308 31.3547 6.79303 31.3605L5.04245 31.555C4.85652 31.575 4.70778 31.7266 4.69062 31.9125L4.49039 34.1465C4.48753 34.1894 4.45034 34.2209 4.4103 34.2209ZM2.77128 31.2832L3.79531 31.3976C4.05847 31.4262 4.26442 31.6379 4.29016 31.9011L4.4103 33.2426L4.53044 31.9011C4.55332 31.6379 4.76213 31.4262 5.02529 31.3976L6.04932 31.2832L5.02529 31.1688C4.76213 31.1402 4.55618 30.9285 4.53044 30.6654L4.4103 29.3238L4.29016 30.6654C4.26728 30.9285 4.05847 31.1402 3.79531 31.1688L2.77128 31.2832Z" fill="#B0FF8B"/>
<g opacity="0.5">
<path opacity="0.5" d="M1.38445 37.5858C1.35012 37.5858 1.32152 37.5601 1.31866 37.5257L1.2071 36.2843C1.19852 36.1899 1.12415 36.1156 1.02975 36.1041L0.0572087 35.9954C0.0228836 35.9926 0 35.964 0 35.9296C0 35.8953 0.025744 35.8667 0.0572087 35.8638L1.02975 35.7551C1.12415 35.7437 1.19852 35.6693 1.2071 35.5749L1.31866 34.3335C1.32152 34.2992 1.35012 34.2734 1.38445 34.2734C1.41877 34.2734 1.44737 34.2992 1.45023 34.3335L1.56179 35.5749C1.57037 35.6693 1.64474 35.7437 1.73914 35.7551L2.71168 35.8638C2.74601 35.8667 2.76889 35.8953 2.76889 35.9296C2.76889 35.964 2.74315 35.9926 2.71168 35.9954L1.73914 36.1041C1.64474 36.1156 1.57037 36.1899 1.56179 36.2843L1.45023 37.5257C1.44737 37.5601 1.41877 37.5858 1.38445 37.5858ZM0.663618 35.9296L1.04406 35.9725C1.19852 35.9897 1.32438 36.1156 1.33868 36.2729L1.38445 36.7878L1.43021 36.2729C1.44451 36.1156 1.56751 35.9897 1.72484 35.9725L2.10527 35.9296L1.72484 35.8867C1.57037 35.8696 1.44451 35.7437 1.43021 35.5864L1.38445 35.0715L1.33868 35.5864C1.32438 35.7437 1.20138 35.8696 1.04406 35.8867L0.663618 35.9296Z" fill="#B0FF8B"/>
</g>
<path d="M67.2667 65.7344C67.2209 65.7344 67.1838 65.7 67.178 65.6543L66.9578 63.2029C66.9406 62.9969 66.7776 62.831 66.5716 62.8081L64.6494 62.5965C64.6037 62.5908 64.5693 62.5536 64.5693 62.5078C64.5693 62.462 64.6037 62.4249 64.6494 62.4191L66.5716 62.2075C66.7776 62.1846 66.9378 62.0187 66.9578 61.8156L67.178 59.3613C67.1809 59.3156 67.2209 59.2812 67.2667 59.2812C67.3125 59.2812 67.3497 59.3156 67.3554 59.3613L67.5756 61.8156C67.5928 62.0215 67.7558 62.1874 67.9618 62.2075L69.884 62.4191C69.9298 62.4249 69.9641 62.462 69.9641 62.5078C69.9641 62.5536 69.9298 62.5908 69.884 62.5965L67.9618 62.8081C67.7558 62.831 67.5957 62.9969 67.5756 63.2029L67.3554 65.6543C67.3497 65.7 67.3125 65.7344 67.2667 65.7344ZM65.4646 62.5078L66.5916 62.6308C66.8806 62.6623 67.1065 62.8968 67.1351 63.1857L67.2667 64.6588L67.3983 63.1857C67.424 62.8968 67.6529 62.6651 67.9418 62.6308L69.0688 62.5078L67.9418 62.3819C67.6529 62.3505 67.4269 62.1188 67.3983 61.8299L67.2667 60.3568L67.1351 61.8299C67.1094 62.1188 66.8806 62.3505 66.5916 62.3819L65.4646 62.5078Z" fill="#B0FF8B"/>
<g opacity="0.5">
<path opacity="0.5" d="M73.9426 61.5312C73.9054 61.5312 73.8739 61.5026 73.8711 61.4654L73.7481 60.101C73.7395 59.998 73.6565 59.915 73.5536 59.9036L72.4838 59.7863C72.4466 59.7835 72.418 59.752 72.418 59.7148C72.418 59.6776 72.4466 59.6462 72.4838 59.6433L73.5536 59.526C73.6565 59.5146 73.7395 59.4316 73.7481 59.3286L73.8711 57.9642C73.8739 57.927 73.9054 57.8984 73.9426 57.8984C73.9798 57.8984 74.0112 57.927 74.0141 57.9642L74.1371 59.3286C74.1457 59.4316 74.2286 59.5146 74.3316 59.526L75.4014 59.6433C75.4386 59.6462 75.4643 59.6776 75.4643 59.7148C75.4643 59.752 75.4357 59.7835 75.4014 59.7863L74.3316 59.9036C74.2286 59.915 74.1457 59.998 74.1371 60.101L74.0141 61.4654C74.0112 61.5026 73.9798 61.5312 73.9426 61.5312ZM73.1502 59.7119L73.5679 59.7577C73.7395 59.7777 73.8739 59.915 73.8911 60.0867L73.9426 60.6502L73.9941 60.0867C74.0084 59.915 74.1457 59.7777 74.3173 59.7577L74.7349 59.7119L74.3173 59.6662C74.1457 59.6462 74.0112 59.5089 73.9941 59.3372L73.9426 58.7737L73.8911 59.3372C73.8768 59.5089 73.7395 59.6462 73.5679 59.6662L73.1502 59.7119Z" fill="#B0FF8B"/>
</g>
<g opacity="0.5">
<path opacity="0.5" d="M69.9828 55.9222C69.9228 55.9222 69.8713 55.8765 69.8684 55.8164L69.6711 53.6253C69.6568 53.4594 69.5252 53.325 69.3593 53.3078L67.643 53.119C67.5829 53.1133 67.54 53.0618 67.54 53.0046C67.54 52.9445 67.5858 52.8959 67.643 52.8902L69.3593 52.7014C69.5252 52.6842 69.6568 52.5498 69.6711 52.3839L69.8684 50.1957C69.8741 50.1356 69.9228 50.0898 69.9828 50.0898C70.0429 50.0898 70.0944 50.1356 70.0973 50.1957L70.2946 52.3868C70.3089 52.5527 70.4405 52.6871 70.6064 52.7043L72.3227 52.8931C72.3827 52.8988 72.4256 52.9503 72.4256 53.0075C72.4256 53.0675 72.3799 53.1162 72.3227 53.1219L70.6064 53.3107C70.4405 53.3278 70.3089 53.4623 70.2946 53.6282L70.0973 55.8164C70.0944 55.8765 70.0429 55.9222 69.9828 55.9222ZM68.7128 53.0046L69.385 53.079C69.6596 53.1105 69.877 53.3307 69.9028 53.6053L69.9857 54.5121L70.0658 53.6053C70.0915 53.3307 70.3089 53.1076 70.5835 53.0761L71.2557 53.0018L70.5835 52.9274C70.3089 52.8959 70.0915 52.6757 70.0658 52.4011L69.9857 51.4943L69.9028 52.4011C69.877 52.6757 69.6596 52.8988 69.385 52.9302L68.7128 53.0046Z" fill="#B0FF8B"/>
</g>
<path d="M76.11 36.8208C76.0556 36.8208 76.0127 36.7807 76.007 36.7264L75.7467 33.8517C75.7238 33.6114 75.535 33.4169 75.2948 33.3911L73.0408 33.1423C72.9893 33.1365 72.9492 33.0908 72.9492 33.0393C72.9492 32.9849 72.9893 32.942 73.0408 32.9363L75.2948 32.6875C75.535 32.6617 75.7238 32.4672 75.7467 32.2269L76.007 29.3522C76.0127 29.2979 76.0556 29.2578 76.11 29.2578C76.1643 29.2578 76.2072 29.2979 76.213 29.3522L76.4733 32.2269C76.4961 32.4672 76.6849 32.6617 76.9252 32.6875L79.1792 32.9363C79.2307 32.942 79.2708 32.9878 79.2708 33.0393C79.2708 33.0936 79.2307 33.1365 79.1792 33.1423L76.9252 33.3911C76.6849 33.4169 76.4933 33.6114 76.4733 33.8517L76.213 36.7264C76.2072 36.7779 76.1643 36.8208 76.11 36.8208ZM73.999 33.0364L75.3176 33.1823C75.6552 33.2195 75.9212 33.4912 75.9527 33.8316L76.1071 35.5593L76.2616 33.8316C76.2931 33.4941 76.5591 33.2195 76.8966 33.1823L78.2153 33.0364L76.8966 32.8906C76.5591 32.8534 76.2902 32.5816 76.2616 32.2412L76.1071 30.5135L75.9527 32.2412C75.9212 32.5788 75.6552 32.8534 75.3176 32.8906L73.999 33.0364Z" fill="#B0FF8B"/>
<g opacity="0.5">
<path opacity="0.5" d="M72.0164 29.599C71.9735 29.599 71.9363 29.5647 71.9306 29.5218L71.7876 27.9228C71.7761 27.8027 71.6817 27.7054 71.5616 27.6911L70.3087 27.5538C70.2658 27.5481 70.2344 27.5138 70.2344 27.468C70.2344 27.4251 70.2658 27.3879 70.3087 27.385L71.5616 27.2477C71.6817 27.2334 71.779 27.1362 71.7876 27.0161L71.9306 25.4171C71.9335 25.3742 71.9706 25.3398 72.0164 25.3398C72.0593 25.3398 72.0965 25.3742 72.1022 25.4171L72.2453 27.0161C72.2567 27.1362 72.3511 27.2334 72.4741 27.2477L73.727 27.385C73.7699 27.3908 73.8013 27.4251 73.8013 27.468C73.8013 27.5109 73.7699 27.5481 73.727 27.5538L72.4741 27.6911C72.3539 27.7054 72.2567 27.8027 72.2453 27.9228L72.1022 29.5218C72.0965 29.5647 72.0593 29.599 72.0164 29.599ZM71.0868 27.468L71.5788 27.5223C71.779 27.5452 71.9392 27.7054 71.9563 27.9085L72.0164 28.5693L72.0765 27.9085C72.0937 27.7083 72.2538 27.5452 72.4541 27.5223L72.9461 27.468L72.4541 27.4137C72.2538 27.3908 72.0937 27.2306 72.0765 27.0275L72.0164 26.3667L71.9563 27.0275C71.9392 27.2277 71.779 27.3908 71.5788 27.4137L71.0868 27.468Z" fill="#B0FF8B"/>
</g>
<path d="M13.4361 13.1066C13.3846 13.1066 13.3417 13.0665 13.336 13.015L13.0871 10.2433C13.0671 10.0116 12.884 9.82568 12.6523 9.79993L10.4813 9.55966C10.4298 9.55393 10.3926 9.51103 10.3926 9.45954C10.3926 9.40805 10.4298 9.36515 10.4813 9.35943L12.6523 9.11915C12.884 9.09341 13.0671 8.90748 13.0871 8.67579L13.336 5.90403C13.3417 5.85255 13.3846 5.8125 13.4361 5.8125C13.4876 5.8125 13.5305 5.85255 13.5362 5.90403L13.785 8.67579C13.8051 8.90748 13.9881 9.09341 14.2198 9.11915L16.3909 9.35943C16.4424 9.36515 16.4796 9.40805 16.4796 9.45954C16.4796 9.51103 16.4424 9.55393 16.3909 9.55966L14.2198 9.79993C13.9881 9.82568 13.8051 10.0116 13.785 10.2433L13.5362 13.015C13.5333 13.0694 13.4876 13.1066 13.4361 13.1066ZM11.4023 9.4624L12.6752 9.60256C13.0013 9.63975 13.2587 9.90005 13.2873 10.229L13.4361 11.8938L13.5848 10.229C13.6134 9.90291 13.8709 9.63975 14.1969 9.60256L15.4698 9.4624L14.1969 9.32224C13.8709 9.28506 13.6134 9.02476 13.5848 8.69581L13.4361 7.03104L13.2873 8.69581C13.2587 9.0219 13.0013 9.28506 12.6752 9.32224L11.4023 9.4624Z" fill="#B0FF8B"/>
<g opacity="0.5">
<path opacity="0.5" d="M10.3925 20.5209C10.3495 20.5209 10.3152 20.4895 10.3124 20.4466L10.1751 18.9248C10.1636 18.8104 10.0749 18.716 9.95767 18.7046L8.76487 18.573C8.72482 18.5673 8.69336 18.5329 8.69336 18.4929C8.69336 18.4528 8.72482 18.4185 8.76487 18.4128L9.95767 18.2812C10.0721 18.2698 10.1636 18.1754 10.1751 18.061L10.3124 16.5392C10.3152 16.4963 10.3524 16.4648 10.3925 16.4648C10.4354 16.4648 10.4697 16.4963 10.4725 16.5392L10.6098 18.061C10.6213 18.1754 10.71 18.2698 10.8272 18.2812L12.02 18.4128C12.0601 18.4185 12.0915 18.4528 12.0915 18.4929C12.0915 18.5329 12.0601 18.5673 12.02 18.573L10.8272 18.7046C10.7128 18.716 10.6213 18.8104 10.6098 18.9248L10.4725 20.4466C10.4668 20.4895 10.4325 20.5209 10.3925 20.5209ZM9.50858 18.49L9.97483 18.5415C10.1665 18.5615 10.3181 18.716 10.3352 18.9076L10.3925 19.5398L10.4497 18.9076C10.4668 18.716 10.6184 18.5615 10.8101 18.5415L11.2763 18.49L10.8101 18.4385C10.6184 18.4185 10.4668 18.2641 10.4497 18.0724L10.3925 17.4402L10.3352 18.0724C10.3181 18.2641 10.1665 18.4185 9.97483 18.4385L9.50858 18.49Z" fill="#B0FF8B"/>
</g>
<g opacity="0.5">
<path opacity="0.5" d="M20.3113 14.3381C20.257 14.3381 20.2112 14.2952 20.2055 14.2409L20.0253 12.2471C20.011 12.0955 19.8937 11.9754 19.7421 11.9582L18.1803 11.7866C18.126 11.7809 18.0859 11.7351 18.0859 11.6808C18.0859 11.6264 18.126 11.5807 18.1803 11.5749L19.7421 11.4033C19.8937 11.3861 20.011 11.266 20.0253 11.1144L20.2055 9.12069C20.2112 9.06634 20.257 9.02344 20.3113 9.02344C20.3657 9.02344 20.4115 9.06634 20.4172 9.12069L20.5974 11.1144C20.6117 11.266 20.729 11.3861 20.8806 11.4033L22.4424 11.5749C22.4967 11.5807 22.5368 11.6264 22.5368 11.6808C22.5368 11.7351 22.4967 11.7809 22.4424 11.7866L20.8806 11.9582C20.729 11.9754 20.6117 12.0955 20.5974 12.2471L20.4172 14.2409C20.4115 14.2952 20.3657 14.3381 20.3113 14.3381ZM19.1557 11.6808L19.7679 11.7494C20.0167 11.778 20.217 11.9783 20.2398 12.23L20.3142 13.0566L20.3886 12.23C20.4115 11.9783 20.6088 11.778 20.8577 11.7494L21.4698 11.6808L20.8577 11.6121C20.6088 11.5835 20.4086 11.3833 20.3886 11.1316L20.3142 10.3049L20.2398 11.1316C20.217 11.3833 20.0196 11.5835 19.7679 11.6121L19.1557 11.6808Z" fill="#B0FF8B"/>
</g>
<g opacity="0.5">
<path opacity="0.5" d="M30.0033 4.28145C29.9661 4.28145 29.9347 4.25285 29.9318 4.21566L29.8088 2.85696C29.8002 2.75399 29.7173 2.67103 29.6143 2.65959L28.5502 2.54232C28.513 2.53946 28.4873 2.50799 28.4873 2.47081C28.4873 2.43362 28.5159 2.40216 28.5502 2.39929L29.6143 2.28202C29.7173 2.27058 29.7974 2.18762 29.8088 2.08465L29.9318 0.725946C29.9347 0.68876 29.9661 0.660156 30.0033 0.660156C30.0405 0.660156 30.072 0.68876 30.0748 0.725946L30.1978 2.08465C30.2064 2.18762 30.2894 2.27058 30.3923 2.28202L31.4564 2.39929C31.4936 2.40216 31.5194 2.43362 31.5194 2.47081C31.5194 2.50799 31.4908 2.53946 31.4564 2.54232L30.3923 2.65959C30.2894 2.67103 30.2093 2.75399 30.1978 2.85696L30.0748 4.21566C30.072 4.25285 30.0405 4.28145 30.0033 4.28145ZM29.2167 2.47081L29.6343 2.51657C29.806 2.5366 29.9404 2.6739 29.9547 2.84266L30.0062 3.40616L30.0577 2.84266C30.072 2.67103 30.2093 2.53373 30.378 2.51371L30.7957 2.46794L30.378 2.42218C30.2064 2.40215 30.072 2.26485 30.0577 2.09609L30.0062 1.53259L29.9547 2.09609C29.9404 2.26771 29.8031 2.40502 29.6343 2.42504L29.2167 2.47081Z" fill="#B0FF8B"/>
</g>
<g opacity="0.5">
<path opacity="0.5" d="M35.1402 7.66137C35.083 7.66137 35.0372 7.61846 35.0315 7.56411L34.8484 5.52463C34.8341 5.37017 34.7111 5.24431 34.5595 5.23001L32.9605 5.05266C32.9062 5.04694 32.8633 5.00117 32.8633 4.94397C32.8633 4.88676 32.9033 4.84385 32.9605 4.83527L34.5595 4.65792C34.714 4.64076 34.837 4.51776 34.8484 4.3633L35.0315 2.32382C35.0372 2.26661 35.083 2.22656 35.1402 2.22656C35.1974 2.22656 35.2432 2.26947 35.2489 2.32382L35.4319 4.3633C35.4462 4.51776 35.5692 4.64362 35.7209 4.65792L37.3198 4.83527C37.3742 4.84099 37.4171 4.88676 37.4171 4.94397C37.4171 5.00117 37.377 5.04408 37.3198 5.05266L35.7209 5.23001C35.5664 5.24717 35.4434 5.37017 35.4319 5.52463L35.2489 7.56411C35.2432 7.62132 35.1945 7.66137 35.1402 7.66137ZM33.956 4.94397L34.5824 5.01262C34.837 5.04122 35.0401 5.24717 35.0629 5.50461L35.1402 6.34843L35.2174 5.50461C35.2403 5.24717 35.4434 5.04122 35.698 5.01262L36.3244 4.94397L35.698 4.87532C35.4434 4.84671 35.2403 4.64076 35.2174 4.38332L35.1402 3.5395L35.0629 4.38332C35.0401 4.64076 34.837 4.84671 34.5824 4.87532L33.956 4.94397Z" fill="#B0FF8B"/>
</g>
<path d="M65.7522 12.7312C65.7122 12.7312 65.6807 12.6998 65.675 12.6626L65.4833 10.5459C65.4662 10.3685 65.3289 10.2255 65.1515 10.2055L63.4925 10.0224C63.4553 10.0195 63.4238 9.98521 63.4238 9.94516C63.4238 9.90512 63.4524 9.87365 63.4925 9.86793L65.1515 9.68487C65.3289 9.66484 65.469 9.52182 65.4833 9.34447L65.675 7.2249C65.6778 7.18485 65.7122 7.15625 65.7522 7.15625C65.7923 7.15625 65.8237 7.18771 65.8294 7.2249L66.0211 9.34447C66.0383 9.52182 66.1784 9.66484 66.3529 9.68487L68.0119 9.86793C68.052 9.87079 68.0806 9.90512 68.0806 9.94516C68.0806 9.98521 68.052 10.0167 68.0119 10.0224L66.3529 10.2055C66.1756 10.2255 66.0354 10.3685 66.0211 10.5459L65.8294 12.6626C65.8237 12.6998 65.7923 12.7312 65.7522 12.7312ZM64.1961 9.9423L65.1687 10.051C65.4175 10.0796 65.6149 10.2798 65.6378 10.5287L65.7522 11.8016L65.8666 10.5287C65.8895 10.2798 66.0869 10.0796 66.3357 10.051L67.3083 9.9423L66.3357 9.83361C66.0869 9.805 65.8895 9.60477 65.8666 9.35592L65.7522 8.08303L65.6378 9.35592C65.6149 9.60477 65.4175 9.805 65.1687 9.83361L64.1961 9.9423Z" fill="#B0FF8B"/>
<g opacity="0.5">
<path opacity="0.5" d="M70.9814 9.50483C70.9299 9.50483 70.8842 9.46478 70.8784 9.4133L70.6239 6.59006C70.6038 6.35264 70.4151 6.16386 70.1805 6.13811L67.9665 5.89497C67.915 5.88925 67.875 5.84635 67.875 5.79486C67.875 5.74337 67.915 5.70047 67.9665 5.69475L70.1805 5.44875C70.4151 5.42301 70.6038 5.23136 70.6239 4.9968L70.8784 2.17356C70.8842 2.12208 70.9271 2.08203 70.9814 2.08203C71.0329 2.08203 71.0787 2.12208 71.0815 2.17356L71.3361 4.9968C71.3561 5.23422 71.5449 5.42301 71.7795 5.44875L73.9934 5.69475C74.0449 5.70047 74.085 5.74337 74.085 5.79486C74.085 5.84635 74.0449 5.88925 73.9934 5.89497L71.7795 6.13811C71.5449 6.16386 71.3561 6.3555 71.3361 6.59006L71.0844 9.4133C71.0787 9.46478 71.0358 9.50483 70.9814 9.50483ZM68.9076 5.78914L70.2034 5.93216C70.5352 5.96935 70.7983 6.23823 70.827 6.57003L70.9814 8.26627L71.133 6.57003C71.1645 6.23823 71.4248 5.96935 71.7566 5.93216L73.0524 5.78914L71.7566 5.64612C71.4248 5.60893 71.1616 5.34291 71.133 5.00824L70.9814 3.31201L70.827 5.00824C70.7983 5.34005 70.5352 5.60893 70.2034 5.64612L68.9076 5.78914Z" fill="#B0FF8B"/>
</g>
<path d="M60.9908 15.5663L71.6535 44.6449C72.2497 46.2831 71.4073 48.0897 69.804 48.6732L23.6717 65.6219C22.0335 66.2181 20.227 65.3757 19.6434 63.7724L8.968 34.6589C8.4225 33.1601 9.18572 31.4613 10.6845 30.9158L57.2477 13.8498C58.7465 13.3043 60.4104 14.0802 60.9908 15.5663Z" fill="#000080"/>
<path opacity="0.2" d="M60.9908 15.5663L71.6535 44.6449C72.2497 46.2831 71.4073 48.0897 69.804 48.6732L23.6717 65.6219C22.0335 66.2181 20.227 65.3757 19.6434 63.7724L8.968 34.6589C8.4225 33.1601 9.18572 31.4613 10.6845 30.9158L57.2477 13.8498C58.7465 13.3043 60.4104 14.0802 60.9908 15.5663Z" fill="#121243"/>
<path d="M24.9634 39.0186L18.0969 41.5178C17.2952 41.8096 16.392 41.3884 16.1002 40.5867L14.7047 36.7527C14.4129 35.951 14.8341 35.0477 15.6358 34.7559L22.4547 32.2346C23.2564 31.9428 24.1596 32.364 24.4514 33.1657L25.8469 36.9997C26.1514 37.8363 25.765 38.7269 24.9634 39.0186Z" fill="#7EC65C"/>
<path d="M46.3012 46.5702L21.6123 55.6289L22.0595 56.8477L46.7484 47.789L46.3012 46.5702Z" fill="#97E373"/>
<path d="M40.0657 51.8869L22.585 58.3008L23.0321 59.5196L40.5129 53.1057L40.0657 51.8869Z" fill="#97E373"/>
<path d="M47.8563 22.9732L35.5293 27.4961L35.9765 28.7149L48.3035 24.1919L47.8563 22.9732Z" fill="#97E373"/>
<path d="M58.7326 24.8739C58.6375 24.8295 58.5425 24.7852 58.3998 24.7187C58.3523 24.6965 58.2572 24.6522 58.2097 24.63C58.5739 23.787 58.656 22.9281 58.3388 22.0568C58.0217 21.1854 57.4416 20.5676 56.5858 20.1686C56.608 20.121 56.665 20.0608 56.6745 19.9784C56.7188 19.8833 56.7632 19.7882 56.8297 19.6456C56.9375 19.7248 57.0801 19.7913 57.1752 19.8356C57.4256 19.9813 57.6538 20.1746 57.8345 20.3457C58.0754 20.5738 58.2941 20.8494 58.478 21.1377C58.5636 21.2644 58.627 21.4387 58.7126 21.5655C58.7253 21.6003 58.8522 21.9489 58.8522 21.9489C58.8902 22.0534 58.9283 22.158 58.9315 22.2752C58.9981 22.5668 59.0299 22.871 59.0268 23.1879C59.0333 23.4224 58.9921 23.6347 58.9858 23.8344C58.9447 24.0467 58.8814 24.3066 58.7927 24.4967C58.8213 24.6837 58.777 24.7788 58.7326 24.8739Z" fill="#E4AD50"/>
<path d="M56.1695 21.191C56.2233 21.0136 56.3247 20.8582 56.3785 20.6808C56.949 20.9468 57.3706 21.346 57.656 21.9131C58.0777 22.7464 58.1001 23.5672 57.736 24.4103C57.5458 24.3216 57.4032 24.2551 57.213 24.1664C57.479 23.5959 57.5105 23.0318 57.2949 22.4393C57.0919 21.8816 56.7052 21.4697 56.1695 21.191Z" fill="#E4AD50"/>
<path d="M56.7366 23.9437C56.594 23.8772 56.4039 23.7885 56.2612 23.722C56.3942 23.4368 56.41 23.1547 56.2958 22.841C56.1817 22.5273 55.9883 22.3214 55.703 22.1884C55.7917 21.9982 55.8582 21.8556 55.9247 21.713C56.7551 22.0423 57.1705 23.0753 56.7366 23.9437Z" fill="#E4AD50"/>
</svg>
