<svg width="50" height="50" viewBox="0 0 50 50" fill="none" xmlns="http://www.w3.org/2000/svg">
<circle cx="25" cy="25" r="25" fill="#000000"/>
<g clip-path="url(#clip0)">
<path d="M25.5 23.0894C27.8461 23.0894 29.748 21.1874 29.748 18.8413C29.748 16.4952 27.8461 14.5933 25.5 14.5933C23.1539 14.5933 21.252 16.4952 21.252 18.8413C21.252 21.1874 23.1539 23.0894 25.5 23.0894Z" fill="#000000"/>
<path d="M34.0938 23.0894C35.5769 23.0894 36.7793 21.887 36.7793 20.4038C36.7793 18.9206 35.5769 17.7183 34.0938 17.7183C32.6106 17.7183 31.4082 18.9206 31.4082 20.4038C31.4082 21.887 32.6106 23.0894 34.0938 23.0894Z" fill="#000000"/>
<path d="M16.9062 23.0894C18.3894 23.0894 19.5918 21.887 19.5918 20.4038C19.5918 18.9206 18.3894 17.7183 16.9062 17.7183C15.4231 17.7183 14.2207 18.9206 14.2207 20.4038C14.2207 21.887 15.4231 23.0894 16.9062 23.0894Z" fill="#000000"/>
<path d="M19.5522 25.5011C18.4951 24.635 17.5377 24.7497 16.3154 24.7497C14.4873 24.7497 13 26.2282 13 28.0451V33.3776C13 34.1666 13.644 34.8082 14.436 34.8082C17.8553 34.8082 17.4434 34.8701 17.4434 34.6608C17.4434 30.8822 16.9958 28.1111 19.5522 25.5011Z" fill="#000000"/>
<path d="M26.6634 24.769C24.5284 24.591 22.6727 24.7711 21.072 26.0923C18.3935 28.2378 18.909 31.1266 18.909 34.6606C18.909 35.5956 19.6697 36.3706 20.6189 36.3706C30.9257 36.3706 31.3359 36.7031 31.947 35.3496C32.1475 34.8919 32.0926 35.0373 32.0926 30.6587C32.0926 27.1809 29.0812 24.769 26.6634 24.769Z" fill="#000000"/>
<path d="M34.6841 24.7495C33.4551 24.7495 32.503 24.6361 31.4473 25.501C33.9846 28.0916 33.5562 30.6736 33.5562 34.6607C33.5562 34.8713 33.2142 34.8081 36.5122 34.8081C37.3325 34.8081 37.9995 34.1436 37.9995 33.3267V28.0449C37.9995 26.228 36.5122 24.7495 34.6841 24.7495Z" fill="#000000"/>
</g>
<defs>
<clipPath id="clip0">
<rect width="25" height="25" fill="white" transform="translate(13 13)"/>
</clipPath>
</defs>
</svg>
