<svg width="80" height="80" viewBox="0 0 80 80" fill="none" xmlns="http://www.w3.org/2000/svg">
<circle cx="40" cy="40" r="40" fill="#000000"/>
<path d="M40 15C26.2094 15 15 26.2094 15 40C15 53.7798 26.2094 65 40 65C53.7798 65 65 53.7798 65 40C65 26.2094 53.7798 15 40 15ZM34.5101 40.0407C34.9002 39.6506 35.5301 39.6506 35.9202 40.0407L39.0001 43.1207V29.9109C39.0001 29.3609 39.45 28.911 40 28.911C40.5499 28.911 40.9999 29.3609 40.9999 29.9109V43.1207L44.0798 40.0407C44.4699 39.6506 45.0998 39.6506 45.4899 40.0407C45.8799 40.4308 45.8799 41.0607 45.4899 41.4507L40.7098 46.2408C40.6098 46.3308 40.4997 46.4007 40.38 46.4509C40.2599 46.5007 40.1302 46.5309 40 46.5309C39.8698 46.5309 39.7401 46.5007 39.62 46.4509C39.4898 46.4011 39.3801 46.3308 39.2902 46.2408L34.5101 41.4507C34.1201 41.0607 34.1201 40.4304 34.5101 40.0407ZM52.64 50.0805C52.64 50.6304 52.1901 51.0803 51.6402 51.0803L28.3598 51.0808C27.8099 51.0808 27.36 50.6308 27.36 50.0809V42.1706C27.36 41.6207 27.8099 41.1708 28.3598 41.1708C28.9098 41.1708 29.3597 41.6207 29.3597 42.1706V49.0806H50.6397V42.1706C50.6397 41.6207 51.0896 41.1708 51.6395 41.1708C52.1895 41.1708 52.6394 41.6207 52.6394 42.1706L52.64 50.0805Z" fill="#000000"/>
</svg>
