<svg width="70" height="70" viewBox="0 0 70 70" fill="none" xmlns="http://www.w3.org/2000/svg">
<circle cx="35" cy="35" r="35" fill="#000000"/>
<g clip-path="url(#clip0)">
<path d="M52.6999 27.0049L43.9955 18.3005C43.5948 17.8998 42.9456 17.8998 42.5449 18.3005L37.9196 22.9258C37.519 23.3264 37.519 23.9756 37.9196 24.3763L46.624 33.0807C46.8243 33.2811 47.0868 33.3813 47.3493 33.3813C47.6117 33.3813 47.8742 33.2811 48.0746 33.0807L52.6998 28.4555C53.1006 28.0548 53.1006 27.4056 52.6999 27.0049Z" fill="white"/>
<path d="M45.1731 34.5313L36.4687 25.8269C36.4559 25.8142 36.4473 25.7985 36.4348 25.7856L26.6224 30.6916C26.398 30.8038 26.2217 30.9951 26.1285 31.2286L18 51.5494L30.467 39.0824C30.275 38.6812 30.1585 38.2377 30.1585 37.764C30.1585 36.067 31.539 34.6865 33.236 34.6865C34.933 34.6865 36.3135 36.067 36.3135 37.764C36.3135 39.4609 34.933 40.8415 33.236 40.8415C32.7623 40.8415 32.3188 40.725 31.9176 40.533L19.4506 53L39.7716 44.8717C40.005 44.7785 40.1964 44.6022 40.3085 44.3778L45.2145 34.5653C45.2016 34.5528 45.1859 34.5441 45.1731 34.5313Z" fill="white"/>
<path d="M33.2367 36.7383C32.6708 36.7383 32.2109 37.1981 32.2109 37.7641C32.2109 38.33 32.6708 38.7899 33.2367 38.7899C33.8027 38.7899 34.2625 38.33 34.2625 37.7641C34.2625 37.1981 33.8028 36.7383 33.2367 36.7383Z" fill="white"/>
</g>
<defs>
<clipPath id="clip0">
<rect width="35" height="35" fill="white" transform="translate(18 18)"/>
</clipPath>
</defs>
</svg>
