<svg width="333" height="289" viewBox="0 0 333 289" fill="none" xmlns="http://www.w3.org/2000/svg">
<path opacity="0.7" d="M44.5541 222.822C44.5541 222.822 76.8741 263.782 132.154 265.462C187.434 267.142 236.794 232.662 277.594 205.862C318.394 178.982 331.754 134.102 311.354 97.0624C291.034 60.0224 254.074 72.6624 209.674 46.6624C165.274 20.5824 157.434 6.90244 105.994 9.22244C54.5541 11.5424 11.9941 66.5024 13.9141 128.022C15.7541 189.622 44.5541 222.822 44.5541 222.822Z" fill="white"/>
<path d="M54.5245 20.2627C54.4445 20.2627 55.0845 17.3027 55.1645 17.0627C55.8845 14.9027 58.4445 11.2227 60.9245 11.2227C62.7645 11.2227 63.9645 12.9027 63.8045 14.5827C63.6445 16.3427 62.0445 17.8627 60.6045 18.7427C58.9245 19.7827 54.5245 20.2627 54.5245 20.2627Z" fill="#CCCCCC"/>
<path d="M49.7557 0.183122C52.1557 1.06312 53.2757 5.38313 53.1957 7.62313C53.1957 7.78313 52.7157 10.8231 52.7157 10.8231C52.7157 10.8231 52.7157 10.8231 52.6357 10.8231C52.7957 11.5431 53.0357 12.2631 53.1957 13.0631C53.5157 14.5831 53.9157 16.2631 54.2357 18.1831C54.5557 20.0231 54.7957 22.1031 54.8757 24.2631C54.9557 26.4231 54.9557 28.7431 54.6357 31.1431V31.2231C54.9557 30.5831 55.8357 28.7431 55.9957 28.5831C57.1957 26.7431 60.7157 23.7831 63.1157 24.5031C64.8757 24.9831 65.5957 26.9031 64.9557 28.5031C64.3157 30.1831 62.3957 31.2231 60.7957 31.6231C58.9557 32.1031 54.9557 31.5431 54.6357 31.4631C54.3157 33.7031 53.7557 36.0231 53.1157 38.3431C52.7157 39.6231 52.3157 40.9832 51.9157 42.2632C52.2357 41.7032 52.4757 41.2231 52.4757 41.1431C53.6757 39.3031 57.1957 36.3431 59.5957 37.0631C61.3557 37.5431 62.0757 39.4631 61.4357 41.0632C60.7957 42.7432 58.8757 43.7832 57.2757 44.1832C55.6757 44.6632 52.1557 44.1832 51.2757 44.1032C51.1157 44.5832 50.9557 45.1432 50.7957 45.6232C49.9957 48.0232 49.1157 50.4232 48.3957 52.7432C48.1557 53.5432 47.9157 54.4232 47.6757 55.2232C47.9157 54.7432 48.1557 54.2632 48.1557 54.2632C49.3557 52.4232 52.8757 49.4632 55.2757 50.1832C57.0357 50.6632 57.7557 52.5832 57.1157 54.1832C56.4757 55.8632 54.5557 56.9032 52.9557 57.3032C51.4357 57.7832 48.2357 57.3832 47.1157 57.2232C46.8757 58.1032 46.7157 58.9032 46.5557 59.7832C46.4757 60.3432 46.3157 60.9032 46.2357 61.4632C46.1557 62.0232 46.0757 62.5832 45.9957 63.1432C45.9157 64.2632 45.7557 65.3832 45.6757 66.4232C45.5957 67.1432 45.5957 67.8632 45.5157 68.5832C45.7557 67.7832 46.3157 66.1032 46.3957 66.0232C47.0357 64.6632 48.5557 62.7432 50.2357 61.6232C50.3157 61.3832 50.3957 61.2232 50.5557 61.0632C51.5157 59.6232 53.5157 59.2232 54.9557 60.3432C56.8757 61.9432 56.3957 66.5032 55.5157 68.5832C55.4357 68.7432 54.7957 69.9432 54.3157 70.7432C54.6357 70.3432 54.9557 69.9432 55.3557 69.4632C56.0757 68.5832 56.7957 67.7832 57.5157 66.9032C57.9157 66.5032 58.3157 66.0232 58.7157 65.6232C59.1157 65.2232 59.5957 64.7432 59.9957 64.3432C61.0357 63.3832 62.0757 62.4232 63.1957 61.5432C62.4757 60.9032 59.8357 58.7432 59.1157 57.2232C58.3957 55.7032 57.8357 53.6232 58.6357 52.0232C59.4357 50.5032 61.3557 49.7032 62.8757 50.6632C65.0357 52.0232 65.1957 56.5032 64.6357 58.6632C64.6357 58.8232 63.9957 60.3432 63.6757 61.1432C64.3157 60.5832 64.9557 60.0232 65.6757 59.5432C67.6757 58.0232 69.6757 56.5032 71.7557 55.0632C72.3957 54.5832 73.0357 54.1032 73.5957 53.7032C73.3557 53.4632 70.1557 50.9032 69.3557 49.2232C68.6357 47.7032 68.0757 45.6232 68.8757 44.0232C69.6757 42.5032 71.5957 41.7032 73.1157 42.6632C75.2757 44.0232 75.4357 48.5032 74.8757 50.6632C74.7957 50.8232 73.9957 52.9832 73.7557 53.5432C75.1157 52.5032 76.4757 51.4632 77.7557 50.4232C79.5157 48.9832 81.1957 47.3832 82.7157 45.7832C82.5557 45.7032 79.2757 43.0632 78.3957 41.3032C77.6757 39.7832 77.1157 37.7032 77.9157 36.1031C78.7157 34.5831 80.6357 33.7831 82.1557 34.7431C84.3158 36.1031 84.4757 40.5831 83.9157 42.7432C83.9157 42.9032 83.2757 44.5832 82.9557 45.3032C83.0357 45.3832 83.0357 45.3032 83.1157 45.3832C84.7157 43.6232 86.0758 41.7832 87.1958 39.9431C87.8358 38.9031 88.4758 37.8632 88.9558 36.8232C88.3158 36.4232 85.2757 34.4231 84.3157 32.9031C83.4357 31.4631 82.6358 29.4631 83.2758 27.7831C83.8358 26.1831 85.6758 25.2231 87.2758 26.0231C89.5158 27.1431 90.2358 31.5431 89.9158 33.7831C89.9158 33.9431 89.5958 35.1431 89.3558 36.0232C89.5958 35.5432 89.8358 35.0631 90.0758 34.5831C90.8758 32.9031 91.5158 31.2231 92.1558 29.8631C92.4758 29.0631 92.7158 28.2631 92.9558 27.6231C92.5558 26.8231 90.7958 23.7831 90.6358 22.0231C90.4758 20.3431 90.7158 18.1831 92.0758 16.9831C93.3558 15.7831 95.4358 15.7831 96.4758 17.2231C97.9958 19.2231 96.5558 23.5431 95.2758 25.3831C95.1958 25.5431 93.1158 27.7831 93.1158 27.7831C93.1158 27.7831 93.1158 27.7831 93.1158 27.7031C92.8758 28.3431 92.6358 29.1431 92.3958 29.8631C91.8358 31.3031 91.2758 32.9831 90.4758 34.6631C89.6758 36.4231 88.7958 38.2632 87.6758 40.1032C86.5558 42.0232 85.2758 43.9432 83.6758 45.7032C83.6758 45.7032 83.6758 45.7032 83.5958 45.7832C84.2358 45.3832 85.9958 44.3432 86.1558 44.3432C88.2358 43.4632 92.7158 42.9832 94.3958 44.8232C95.5958 46.1832 95.1158 48.1832 93.7558 49.2232C92.3158 50.2632 90.1558 50.0232 88.5558 49.5432C86.7958 48.9832 83.7557 46.2632 83.5157 46.0232C81.9957 47.7032 80.3158 49.3832 78.4757 50.9032C77.4357 51.7832 76.3957 52.6632 75.2757 53.5432C75.8357 53.2232 76.3157 52.9832 76.3957 52.9032C78.4757 52.0232 82.9558 51.5432 84.6358 53.3832C85.8358 54.7432 85.3558 56.7432 83.9958 57.7832C82.5558 58.8232 80.3957 58.5832 78.7957 58.1032C77.1957 57.6232 74.5557 55.3032 73.8357 54.6632C73.4357 54.9832 73.0357 55.3032 72.5557 55.6232C70.5557 57.1432 68.5557 58.6632 66.6357 60.2632C65.9157 60.8232 65.2757 61.3832 64.6357 61.9432C65.1157 61.7032 65.5157 61.4632 65.5957 61.3832C67.6757 60.5032 72.1557 60.0232 73.8357 61.8632C75.0357 63.2232 74.5557 65.2232 73.1957 66.2632C71.7557 67.3032 69.5957 67.0632 67.9957 66.5832C66.4757 66.1032 63.9957 64.0232 63.1957 63.3032C62.5557 63.8632 61.9157 64.5032 61.2757 65.1432C60.8757 65.5432 60.4757 65.9432 60.0757 66.4232C59.6757 66.8232 59.2757 67.3032 58.9557 67.7032C58.2357 68.5832 57.5157 69.4632 56.8757 70.2632C56.3957 70.8232 55.9957 71.3832 55.5157 72.0232C56.1557 71.4632 57.5157 70.4232 57.6757 70.3432C59.5957 69.1432 63.9157 68.0232 65.8357 69.6232C67.1957 70.8232 67.1157 72.8232 65.8357 74.0232C64.5557 75.2232 62.3957 75.3832 60.7157 75.1432C58.8757 74.8232 55.5957 72.7432 55.1957 72.4232C54.4757 73.3832 53.7557 74.2632 53.1157 75.1432C50.8757 78.1832 49.1957 80.8232 47.9957 82.7432C47.9157 82.8232 47.9157 82.9032 47.9157 82.9032L46.3957 82.1832C46.4757 82.1032 46.5557 81.9432 46.6357 81.7832C47.8357 79.9432 49.6757 77.3032 51.9957 74.2632C52.7157 73.3032 53.5157 72.2632 54.3157 71.2232C54.0757 70.9832 52.8757 69.6232 51.9157 68.2632C50.1557 68.9832 46.4757 68.9832 45.9957 68.9832C45.9157 70.1832 45.8357 71.3032 45.8357 72.4232C45.6757 76.1832 45.6757 79.3832 45.7557 81.5432C45.7557 81.6232 45.7557 81.7032 45.7557 81.7832L44.0757 80.9832C44.0757 78.8232 44.1557 75.8632 44.3957 72.3432C44.4757 71.1432 44.5557 69.8632 44.7157 68.5032C44.2357 68.4232 40.3957 67.3832 38.9557 66.2632C37.6757 65.2232 36.2357 63.5432 36.3157 61.7832C36.3957 60.0232 37.7557 58.5832 39.5957 58.8232C42.0757 59.1432 44.1557 63.1432 44.5557 65.3832C44.5557 65.5432 44.7157 66.9832 44.7157 67.8632C44.7957 67.3032 44.7957 66.8232 44.8757 66.2632C44.9557 65.1432 45.1157 64.1032 45.2757 62.9032C45.3557 62.3432 45.4357 61.7832 45.5157 61.2232C45.5957 60.6632 45.7557 60.0232 45.8357 59.4632C46.1557 58.1032 46.4757 56.7432 46.8757 55.3832C45.9157 55.3032 42.4757 54.9032 41.0357 54.0232C39.5957 53.2232 37.9957 51.7032 37.7557 49.9432C37.5157 48.1832 38.7157 46.5832 40.5557 46.5032C43.0357 46.4232 45.7557 50.1032 46.4757 52.1832C46.5557 52.3432 46.8757 53.8632 47.0357 54.7432C47.2757 53.9432 47.5157 53.0632 47.8357 52.2632C48.6357 49.8632 49.5157 47.5432 50.3957 45.1432C50.6357 44.4232 50.9557 43.7032 51.1957 42.9832C50.8757 42.9832 46.7957 42.5832 45.1957 41.6232C43.7557 40.8232 42.1557 39.3031 41.9157 37.5431C41.6757 35.7831 42.8757 34.1831 44.7157 34.1031C47.1957 34.0231 49.9157 37.7031 50.6357 39.7832C50.7157 39.9432 51.1957 42.1832 51.2757 42.8232C51.8357 41.2232 52.3957 39.6232 52.8757 38.0232C53.5157 35.7832 54.0757 33.6231 54.4757 31.4631C54.3157 31.4631 50.0757 31.0631 48.3957 30.1031C46.9557 29.3031 45.3557 27.7831 45.1157 26.0231C44.8757 24.2631 46.0757 22.6631 47.9157 22.5831C50.3957 22.5031 53.1157 26.1831 53.8357 28.2631C53.9157 28.4231 54.3157 30.1031 54.4757 30.9831C54.5557 30.9831 54.5557 30.9831 54.6357 30.9831C55.0357 28.6631 55.0357 26.3431 55.0357 24.1831C55.0357 22.9031 54.8757 21.7031 54.7957 20.5831C53.9957 20.5831 50.3957 20.5831 48.7957 19.8631C47.2757 19.2231 45.5157 17.9431 45.1157 16.1831C44.7157 14.5031 45.6757 12.7431 47.5157 12.4231C49.9957 12.1031 53.0357 15.4631 53.9957 17.4631C54.0757 17.5431 54.4757 18.7431 54.7157 19.6231C54.6357 19.0631 54.6357 18.5831 54.5557 18.0231C54.3157 16.1831 53.9157 14.4231 53.5957 12.9031C53.4357 12.0231 53.1957 11.3031 53.0357 10.5831C52.2357 10.1831 49.1157 8.50313 47.9957 7.22313C46.9557 5.94313 45.9957 3.94312 46.3957 2.26312C46.3157 0.663121 47.9957 -0.456879 49.7557 0.183122Z" fill="#CCCCCC"/>
<path d="M95.0472 38.8217C93.0472 38.7417 89.1272 36.7417 89.1272 36.7417C89.0472 36.7417 91.2072 34.5817 91.3672 34.4217C93.1272 33.0616 97.2872 31.3816 99.4472 32.7416C100.967 33.7016 101.047 35.7817 99.9272 37.1417C98.8872 38.5017 96.7272 38.9017 95.0472 38.8217Z" fill="#CCCCCC"/>
<g opacity="0.5">
<path opacity="0.5" d="M54.5245 20.2627C54.4445 20.2627 55.0845 17.3027 55.1645 17.0627C55.8845 14.9027 58.4445 11.2227 60.9245 11.2227C62.7645 11.2227 63.9645 12.9027 63.8045 14.5827C63.6445 16.3427 62.0445 17.8627 60.6045 18.7427C58.9245 19.7827 54.5245 20.2627 54.5245 20.2627Z" fill="white"/>
<path opacity="0.5" d="M49.7557 0.183122C52.1557 1.06312 53.2757 5.38313 53.1957 7.62313C53.1957 7.78313 52.7157 10.8231 52.7157 10.8231C52.7157 10.8231 52.7157 10.8231 52.6357 10.8231C52.7957 11.5431 53.0357 12.2631 53.1957 13.0631C53.5157 14.5831 53.9157 16.2631 54.2357 18.1831C54.5557 20.0231 54.7957 22.1031 54.8757 24.2631C54.9557 26.4231 54.9557 28.7431 54.6357 31.1431V31.2231C54.9557 30.5831 55.8357 28.7431 55.9957 28.5831C57.1957 26.7431 60.7157 23.7831 63.1157 24.5031C64.8757 24.9831 65.5957 26.9031 64.9557 28.5031C64.3157 30.1831 62.3957 31.2231 60.7957 31.6231C58.9557 32.1031 54.9557 31.5431 54.6357 31.4631C54.3157 33.7031 53.7557 36.0231 53.1157 38.3431C52.7157 39.6231 52.3157 40.9832 51.9157 42.2632C52.2357 41.7032 52.4757 41.2231 52.4757 41.1431C53.6757 39.3031 57.1957 36.3431 59.5957 37.0631C61.3557 37.5431 62.0757 39.4631 61.4357 41.0632C60.7957 42.7432 58.8757 43.7832 57.2757 44.1832C55.6757 44.6632 52.1557 44.1832 51.2757 44.1032C51.1157 44.5832 50.9557 45.1432 50.7957 45.6232C49.9957 48.0232 49.1157 50.4232 48.3957 52.7432C48.1557 53.5432 47.9157 54.4232 47.6757 55.2232C47.9157 54.7432 48.1557 54.2632 48.1557 54.2632C49.3557 52.4232 52.8757 49.4632 55.2757 50.1832C57.0357 50.6632 57.7557 52.5832 57.1157 54.1832C56.4757 55.8632 54.5557 56.9032 52.9557 57.3032C51.4357 57.7832 48.2357 57.3832 47.1157 57.2232C46.8757 58.1032 46.7157 58.9032 46.5557 59.7832C46.4757 60.3432 46.3157 60.9032 46.2357 61.4632C46.1557 62.0232 46.0757 62.5832 45.9957 63.1432C45.9157 64.2632 45.7557 65.3832 45.6757 66.4232C45.5957 67.1432 45.5957 67.8632 45.5157 68.5832C45.7557 67.7832 46.3157 66.1032 46.3957 66.0232C47.0357 64.6632 48.5557 62.7432 50.2357 61.6232C50.3157 61.3832 50.3957 61.2232 50.5557 61.0632C51.5157 59.6232 53.5157 59.2232 54.9557 60.3432C56.8757 61.9432 56.3957 66.5032 55.5157 68.5832C55.4357 68.7432 54.7957 69.9432 54.3157 70.7432C54.6357 70.3432 54.9557 69.9432 55.3557 69.4632C56.0757 68.5832 56.7957 67.7832 57.5157 66.9032C57.9157 66.5032 58.3157 66.0232 58.7157 65.6232C59.1157 65.2232 59.5957 64.7432 59.9957 64.3432C61.0357 63.3832 62.0757 62.4232 63.1957 61.5432C62.4757 60.9032 59.8357 58.7432 59.1157 57.2232C58.3957 55.7032 57.8357 53.6232 58.6357 52.0232C59.4357 50.5032 61.3557 49.7032 62.8757 50.6632C65.0357 52.0232 65.1957 56.5032 64.6357 58.6632C64.6357 58.8232 63.9957 60.3432 63.6757 61.1432C64.3157 60.5832 64.9557 60.0232 65.6757 59.5432C67.6757 58.0232 69.6757 56.5032 71.7557 55.0632C72.3957 54.5832 73.0357 54.1032 73.5957 53.7032C73.3557 53.4632 70.1557 50.9032 69.3557 49.2232C68.6357 47.7032 68.0757 45.6232 68.8757 44.0232C69.6757 42.5032 71.5957 41.7032 73.1157 42.6632C75.2757 44.0232 75.4357 48.5032 74.8757 50.6632C74.7957 50.8232 73.9957 52.9832 73.7557 53.5432C75.1157 52.5032 76.4757 51.4632 77.7557 50.4232C79.5157 48.9832 81.1957 47.3832 82.7157 45.7832C82.5557 45.7032 79.2757 43.0632 78.3957 41.3032C77.6757 39.7832 77.1157 37.7032 77.9157 36.1031C78.7157 34.5831 80.6357 33.7831 82.1557 34.7431C84.3158 36.1031 84.4757 40.5831 83.9157 42.7432C83.9157 42.9032 83.2757 44.5832 82.9557 45.3032C83.0357 45.3832 83.0357 45.3032 83.1157 45.3832C84.7157 43.6232 86.0758 41.7832 87.1958 39.9431C87.8358 38.9031 88.4758 37.8632 88.9558 36.8232C88.3158 36.4232 85.2757 34.4231 84.3157 32.9031C83.4357 31.4631 82.6358 29.4631 83.2758 27.7831C83.8358 26.1831 85.6758 25.2231 87.2758 26.0231C89.5158 27.1431 90.2358 31.5431 89.9158 33.7831C89.9158 33.9431 89.5958 35.1431 89.3558 36.0232C89.5958 35.5432 89.8358 35.0631 90.0758 34.5831C90.8758 32.9031 91.5158 31.2231 92.1558 29.8631C92.4758 29.0631 92.7158 28.2631 92.9558 27.6231C92.5558 26.8231 90.7958 23.7831 90.6358 22.0231C90.4758 20.3431 90.7158 18.1831 92.0758 16.9831C93.3558 15.7831 95.4358 15.7831 96.4758 17.2231C97.9958 19.2231 96.5558 23.5431 95.2758 25.3831C95.1958 25.5431 93.1158 27.7831 93.1158 27.7831C93.1158 27.7831 93.1158 27.7831 93.1158 27.7031C92.8758 28.3431 92.6358 29.1431 92.3958 29.8631C91.8358 31.3031 91.2758 32.9831 90.4758 34.6631C89.6758 36.4231 88.7958 38.2632 87.6758 40.1032C86.5558 42.0232 85.2758 43.9432 83.6758 45.7032C83.6758 45.7032 83.6758 45.7032 83.5958 45.7832C84.2358 45.3832 85.9958 44.3432 86.1558 44.3432C88.2358 43.4632 92.7158 42.9832 94.3958 44.8232C95.5958 46.1832 95.1158 48.1832 93.7558 49.2232C92.3158 50.2632 90.1558 50.0232 88.5558 49.5432C86.7958 48.9832 83.7557 46.2632 83.5157 46.0232C81.9957 47.7032 80.3158 49.3832 78.4757 50.9032C77.4357 51.7832 76.3957 52.6632 75.2757 53.5432C75.8357 53.2232 76.3157 52.9832 76.3957 52.9032C78.4757 52.0232 82.9558 51.5432 84.6358 53.3832C85.8358 54.7432 85.3558 56.7432 83.9958 57.7832C82.5558 58.8232 80.3957 58.5832 78.7957 58.1032C77.1957 57.6232 74.5557 55.3032 73.8357 54.6632C73.4357 54.9832 73.0357 55.3032 72.5557 55.6232C70.5557 57.1432 68.5557 58.6632 66.6357 60.2632C65.9157 60.8232 65.2757 61.3832 64.6357 61.9432C65.1157 61.7032 65.5157 61.4632 65.5957 61.3832C67.6757 60.5032 72.1557 60.0232 73.8357 61.8632C75.0357 63.2232 74.5557 65.2232 73.1957 66.2632C71.7557 67.3032 69.5957 67.0632 67.9957 66.5832C66.4757 66.1032 63.9957 64.0232 63.1957 63.3032C62.5557 63.8632 61.9157 64.5032 61.2757 65.1432C60.8757 65.5432 60.4757 65.9432 60.0757 66.4232C59.6757 66.8232 59.2757 67.3032 58.9557 67.7032C58.2357 68.5832 57.5157 69.4632 56.8757 70.2632C56.3957 70.8232 55.9957 71.3832 55.5157 72.0232C56.1557 71.4632 57.5157 70.4232 57.6757 70.3432C59.5957 69.1432 63.9157 68.0232 65.8357 69.6232C67.1957 70.8232 67.1157 72.8232 65.8357 74.0232C64.5557 75.2232 62.3957 75.3832 60.7157 75.1432C58.8757 74.8232 55.5957 72.7432 55.1957 72.4232C54.4757 73.3832 53.7557 74.2632 53.1157 75.1432C50.8757 78.1832 49.1957 80.8232 47.9957 82.7432C47.9157 82.8232 47.9157 82.9032 47.9157 82.9032L46.3957 82.1832C46.4757 82.1032 46.5557 81.9432 46.6357 81.7832C47.8357 79.9432 49.6757 77.3032 51.9957 74.2632C52.7157 73.3032 53.5157 72.2632 54.3157 71.2232C54.0757 70.9832 52.8757 69.6232 51.9157 68.2632C50.1557 68.9832 46.4757 68.9832 45.9957 68.9832C45.9157 70.1832 45.8357 71.3032 45.8357 72.4232C45.6757 76.1832 45.6757 79.3832 45.7557 81.5432C45.7557 81.6232 45.7557 81.7032 45.7557 81.7832L44.0757 80.9832C44.0757 78.8232 44.1557 75.8632 44.3957 72.3432C44.4757 71.1432 44.5557 69.8632 44.7157 68.5032C44.2357 68.4232 40.3957 67.3832 38.9557 66.2632C37.6757 65.2232 36.2357 63.5432 36.3157 61.7832C36.3957 60.0232 37.7557 58.5832 39.5957 58.8232C42.0757 59.1432 44.1557 63.1432 44.5557 65.3832C44.5557 65.5432 44.7157 66.9832 44.7157 67.8632C44.7957 67.3032 44.7957 66.8232 44.8757 66.2632C44.9557 65.1432 45.1157 64.1032 45.2757 62.9032C45.3557 62.3432 45.4357 61.7832 45.5157 61.2232C45.5957 60.6632 45.7557 60.0232 45.8357 59.4632C46.1557 58.1032 46.4757 56.7432 46.8757 55.3832C45.9157 55.3032 42.4757 54.9032 41.0357 54.0232C39.5957 53.2232 37.9957 51.7032 37.7557 49.9432C37.5157 48.1832 38.7157 46.5832 40.5557 46.5032C43.0357 46.4232 45.7557 50.1032 46.4757 52.1832C46.5557 52.3432 46.8757 53.8632 47.0357 54.7432C47.2757 53.9432 47.5157 53.0632 47.8357 52.2632C48.6357 49.8632 49.5157 47.5432 50.3957 45.1432C50.6357 44.4232 50.9557 43.7032 51.1957 42.9832C50.8757 42.9832 46.7957 42.5832 45.1957 41.6232C43.7557 40.8232 42.1557 39.3031 41.9157 37.5431C41.6757 35.7831 42.8757 34.1831 44.7157 34.1031C47.1957 34.0231 49.9157 37.7031 50.6357 39.7832C50.7157 39.9432 51.1957 42.1832 51.2757 42.8232C51.8357 41.2232 52.3957 39.6232 52.8757 38.0232C53.5157 35.7832 54.0757 33.6231 54.4757 31.4631C54.3157 31.4631 50.0757 31.0631 48.3957 30.1031C46.9557 29.3031 45.3557 27.7831 45.1157 26.0231C44.8757 24.2631 46.0757 22.6631 47.9157 22.5831C50.3957 22.5031 53.1157 26.1831 53.8357 28.2631C53.9157 28.4231 54.3157 30.1031 54.4757 30.9831C54.5557 30.9831 54.5557 30.9831 54.6357 30.9831C55.0357 28.6631 55.0357 26.3431 55.0357 24.1831C55.0357 22.9031 54.8757 21.7031 54.7957 20.5831C53.9957 20.5831 50.3957 20.5831 48.7957 19.8631C47.2757 19.2231 45.5157 17.9431 45.1157 16.1831C44.7157 14.5031 45.6757 12.7431 47.5157 12.4231C49.9957 12.1031 53.0357 15.4631 53.9957 17.4631C54.0757 17.5431 54.4757 18.7431 54.7157 19.6231C54.6357 19.0631 54.6357 18.5831 54.5557 18.0231C54.3157 16.1831 53.9157 14.4231 53.5957 12.9031C53.4357 12.0231 53.1957 11.3031 53.0357 10.5831C52.2357 10.1831 49.1157 8.50313 47.9957 7.22313C46.9557 5.94313 45.9957 3.94312 46.3957 2.26312C46.3157 0.663121 47.9957 -0.456879 49.7557 0.183122Z" fill="white"/>
<path opacity="0.5" d="M95.0472 38.8217C93.0472 38.7417 89.1272 36.7417 89.1272 36.7417C89.0472 36.7417 91.2072 34.5817 91.3672 34.4217C93.1272 33.0616 97.2872 31.3816 99.4472 32.7416C100.967 33.7016 101.047 35.7817 99.9272 37.1417C98.8872 38.5017 96.7272 38.9017 95.0472 38.8217Z" fill="white"/>
</g>
<path d="M72.1472 87.8634C72.1472 87.8634 60.2272 59.2234 53.5871 60.4234C46.9471 61.6234 65.0272 106.103 65.0272 106.103C65.0272 106.103 44.0671 66.6634 29.8271 66.6634C15.5871 66.6634 35.0271 110.263 53.1072 124.823C53.1072 124.823 24.5471 94.1034 7.90712 100.743C-8.73289 107.463 41.2671 138.583 41.2671 138.583C41.2671 138.583 12.2271 129.463 15.5871 136.503C18.9471 143.543 27.9871 144.823 27.9871 144.823L35.6671 146.503H77.2672L83.6672 144.023C83.6672 144.023 110.307 130.743 103.187 125.303C96.0672 119.863 80.3872 131.543 80.3872 131.543C80.3872 131.543 107.507 101.623 102.307 90.4234C97.1072 79.2234 73.7472 110.823 73.7472 110.823C73.7472 110.823 92.7872 70.5034 88.9472 63.4634C85.0272 56.3434 72.1472 87.8634 72.1472 87.8634Z" fill="#CCCCCC"/>
<path opacity="0.4" d="M72.1472 87.8634C72.1472 87.8634 60.2272 59.2234 53.5871 60.4234C46.9471 61.6234 65.0272 106.103 65.0272 106.103C65.0272 106.103 44.0671 66.6634 29.8271 66.6634C15.5871 66.6634 35.0271 110.263 53.1072 124.823C53.1072 124.823 24.5471 94.1034 7.90712 100.743C-8.73289 107.463 41.2671 138.583 41.2671 138.583C41.2671 138.583 12.2271 129.463 15.5871 136.503C18.9471 143.543 27.9871 144.823 27.9871 144.823L40.4671 146.503H74.0672L83.6672 144.023C83.6672 144.023 110.307 130.743 103.187 125.303C96.0672 119.863 80.3872 131.543 80.3872 131.543C80.3872 131.543 107.507 101.623 102.307 90.4234C97.1072 79.2234 73.7472 110.823 73.7472 110.823C73.7472 110.823 92.7872 70.5034 88.9472 63.4634C85.0272 56.3434 72.1472 87.8634 72.1472 87.8634Z" fill="white"/>
<path d="M75.9751 89.3867C65.4951 120.347 65.4951 142.187 65.4951 142.187C65.4951 142.187 77.8951 142.667 90.6951 133.147" stroke="#263238" stroke-miterlimit="10" stroke-linecap="round" stroke-linejoin="round"/>
<path d="M70.6948 106.026C70.6948 106.026 68.2948 94.5862 62.1348 78.9062" stroke="#263238" stroke-miterlimit="10" stroke-linecap="round" stroke-linejoin="round"/>
<path d="M39.8311 88.0273L66.4711 127.547C66.4711 127.547 84.5511 112.347 90.7111 103.787" stroke="#263238" stroke-miterlimit="10" stroke-linecap="round" stroke-linejoin="round"/>
<path d="M65.9908 136.987C65.9908 136.987 37.9107 123.707 26.4707 116.027" stroke="#263238" stroke-miterlimit="10" stroke-linecap="round" stroke-linejoin="round"/>
<path d="M150.471 23.8633H144.711V264.903H150.471V23.8633Z" fill="#C2C2C2" stroke="#ABABAB" stroke-miterlimit="10" stroke-linecap="round" stroke-linejoin="round"/>
<path d="M46.3694 23.8633H40.6094V264.903H46.3694V23.8633Z" fill="#C2C2C2" stroke="#ABABAB" stroke-miterlimit="10" stroke-linecap="round" stroke-linejoin="round"/>
<path d="M98.4778 23.8633H92.7178V264.903H98.4778V23.8633Z" fill="#C2C2C2" stroke="#ABABAB" stroke-miterlimit="10" stroke-linecap="round" stroke-linejoin="round"/>
<path d="M202.463 23.8633H196.703V264.903H202.463V23.8633Z" fill="#C2C2C2" stroke="#ABABAB" stroke-miterlimit="10" stroke-linecap="round" stroke-linejoin="round"/>
<path d="M200.773 31.3867H38.7734V42.3467H200.773V31.3867Z" fill="#C2C2C2" stroke="#ABABAB" stroke-miterlimit="10" stroke-linecap="round" stroke-linejoin="round"/>
<path d="M200.786 31.3867H96.5459V42.3467H200.786V31.3867Z" fill="#A6A6A6" stroke="#ABABAB" stroke-miterlimit="10" stroke-linecap="round" stroke-linejoin="round"/>
<path d="M200.773 142.023H38.7734V152.983H200.773V142.023Z" fill="#C2C2C2" stroke="#ABABAB" stroke-miterlimit="10" stroke-linecap="round" stroke-linejoin="round"/>
<path d="M200.786 142.023H96.5459V152.983H200.786V142.023Z" fill="#A6A6A6" stroke="#ABABAB" stroke-miterlimit="10" stroke-linecap="round" stroke-linejoin="round"/>
<path d="M200.773 252.586H38.7734V263.546H200.773V252.586Z" fill="#C2C2C2" stroke="#ABABAB" stroke-miterlimit="10" stroke-linecap="round" stroke-linejoin="round"/>
<path d="M200.786 252.586H96.5459V263.546H200.786V252.586Z" fill="#A6A6A6" stroke="#ABABAB" stroke-miterlimit="10" stroke-linecap="round" stroke-linejoin="round"/>
<path d="M96.5422 193.625H11.7422V264.825H96.5422V193.625Z" fill="#CCCCCC"/>
<path opacity="0.6" d="M96.5422 193.625H11.7422V264.825H96.5422V193.625Z" fill="white" stroke="#8B8C8C" stroke-miterlimit="10" stroke-linecap="round" stroke-linejoin="round"/>
<path d="M96.5422 193.625H11.7422V264.825H96.5422V193.625Z" stroke="#8B8C8C" stroke-miterlimit="10" stroke-linecap="round" stroke-linejoin="round"/>
<path d="M96.5418 193.625H68.3818V264.825H96.5418V193.625Z" fill="#CCCCCC"/>
<path opacity="0.39" d="M96.5418 193.625H68.3818V264.825H96.5418V193.625Z" fill="white" stroke="#8B8C8C" stroke-miterlimit="10" stroke-linecap="round" stroke-linejoin="round"/>
<path d="M96.5418 193.625H68.3818V264.825H96.5418V193.625Z" stroke="#8B8C8C" stroke-miterlimit="10" stroke-linecap="round" stroke-linejoin="round"/>
<path d="M82.7598 193.785V264.905" stroke="#8B8C8C" stroke-miterlimit="10" stroke-linecap="round" stroke-linejoin="round"/>
<path d="M100.878 122.504H16.0781V193.704H100.878V122.504Z" fill="#CCCCCC"/>
<path opacity="0.6" d="M100.878 122.504H16.0781V193.704H100.878V122.504Z" fill="white" stroke="#8B8C8C" stroke-miterlimit="10" stroke-linecap="round" stroke-linejoin="round"/>
<path d="M100.878 122.504H16.0781V193.704H100.878V122.504Z" stroke="#8B8C8C" stroke-miterlimit="10" stroke-linecap="round" stroke-linejoin="round"/>
<path d="M100.801 122.504H72.6406V193.704H100.801V122.504Z" fill="#CCCCCC"/>
<path opacity="0.39" d="M100.801 122.504H72.6406V193.704H100.801V122.504Z" fill="white" stroke="#8B8C8C" stroke-miterlimit="10" stroke-linecap="round" stroke-linejoin="round"/>
<path d="M100.801 122.504H72.6406V193.704H100.801V122.504Z" stroke="#8B8C8C" stroke-miterlimit="10" stroke-linecap="round" stroke-linejoin="round"/>
<path d="M87.0537 122.746V193.786" stroke="#8B8C8C" stroke-miterlimit="10" stroke-linecap="round" stroke-linejoin="round"/>
<path d="M321.423 193.625H236.623V264.825H321.423V193.625Z" fill="#CCCCCC"/>
<path opacity="0.6" d="M321.423 193.625H236.623V264.825H321.423V193.625Z" fill="white" stroke="#919191" stroke-miterlimit="10" stroke-linecap="round" stroke-linejoin="round"/>
<path d="M321.423 193.625H236.623V264.825H321.423V193.625Z" stroke="#919191" stroke-miterlimit="10" stroke-linecap="round" stroke-linejoin="round"/>
<path d="M321.423 193.625H293.263V264.825H321.423V193.625Z" fill="#CCCCCC"/>
<path opacity="0.39" d="M321.423 193.625H293.263V264.825H321.423V193.625Z" fill="white" stroke="#919191" stroke-miterlimit="10" stroke-linecap="round" stroke-linejoin="round"/>
<path d="M321.423 193.625H293.263V264.825H321.423V193.625Z" stroke="#919191" stroke-miterlimit="10" stroke-linecap="round" stroke-linejoin="round"/>
<path d="M307.599 193.785V264.905" stroke="#919191" stroke-miterlimit="10" stroke-linecap="round" stroke-linejoin="round"/>
<path d="M321.423 122.34H236.623V193.54H321.423V122.34Z" fill="#CCCCCC"/>
<path opacity="0.6" d="M321.423 122.34H236.623V193.54H321.423V122.34Z" fill="white" stroke="#919191" stroke-miterlimit="10" stroke-linecap="round" stroke-linejoin="round"/>
<path d="M321.423 122.34H236.623V193.54H321.423V122.34Z" stroke="#919191" stroke-miterlimit="10" stroke-linecap="round" stroke-linejoin="round"/>
<path d="M321.423 122.34H293.263V193.54H321.423V122.34Z" fill="#CCCCCC"/>
<path opacity="0.39" d="M321.423 122.34H293.263V193.54H321.423V122.34Z" fill="white" stroke="#919191" stroke-miterlimit="10" stroke-linecap="round" stroke-linejoin="round"/>
<path d="M321.423 122.34H293.263V193.54H321.423V122.34Z" stroke="#919191" stroke-miterlimit="10" stroke-linecap="round" stroke-linejoin="round"/>
<path d="M307.599 122.5V193.62" stroke="#919191" stroke-miterlimit="10" stroke-linecap="round" stroke-linejoin="round"/>
<path d="M313.892 63.3828H243.812V122.263H313.892V63.3828Z" fill="#CCCCCC"/>
<path opacity="0.6" d="M313.892 63.3828H243.812V122.263H313.892V63.3828Z" fill="white" stroke="#919191" stroke-miterlimit="10" stroke-linecap="round" stroke-linejoin="round"/>
<path d="M313.892 63.3828H243.812V122.263H313.892V63.3828Z" stroke="#919191" stroke-miterlimit="10" stroke-linecap="round" stroke-linejoin="round"/>
<path d="M313.888 63.3828H290.608V122.263H313.888V63.3828Z" fill="#CCCCCC"/>
<path opacity="0.39" d="M313.888 63.3828H290.608V122.263H313.888V63.3828Z" fill="white" stroke="#919191" stroke-miterlimit="10" stroke-linecap="round" stroke-linejoin="round"/>
<path d="M313.888 63.3828H290.608V122.263H313.888V63.3828Z" stroke="#919191" stroke-miterlimit="10" stroke-linecap="round" stroke-linejoin="round"/>
<path d="M302.56 63.543V122.343" stroke="#919191" stroke-miterlimit="10" stroke-linecap="round" stroke-linejoin="round"/>
<path d="M304.928 238.102H293.968V244.982H304.928V238.102Z" fill="white" stroke="#263238" stroke-miterlimit="10" stroke-linecap="round" stroke-linejoin="round"/>
<path d="M201.625 264.901C205.293 264.901 208.265 261.928 208.265 258.261C208.265 254.594 205.293 251.621 201.625 251.621C197.958 251.621 194.985 254.594 194.985 258.261C194.985 261.928 197.958 264.901 201.625 264.901Z" fill="#263238" stroke="#263238" stroke-miterlimit="10" stroke-linecap="round" stroke-linejoin="round"/>
<path d="M310.82 148.344H306.9V258.424H310.82V148.344Z" fill="#263238" stroke="#263238" stroke-miterlimit="10" stroke-linecap="round" stroke-linejoin="round"/>
<path d="M308.738 186.903L299.458 179.543C291.378 173.143 287.858 162.583 290.338 152.583C291.058 149.623 293.698 147.543 296.738 147.543H320.738C323.778 147.543 326.418 149.623 327.138 152.583C329.618 162.583 326.018 173.143 318.018 179.543L308.738 186.903ZM296.738 151.303C295.458 151.303 294.258 152.183 293.938 153.463C291.778 162.023 294.898 171.063 301.778 176.583L308.738 182.103L315.698 176.583C322.578 171.063 325.698 162.023 323.538 153.463C323.218 152.183 322.098 151.303 320.738 151.303H296.738V151.303Z" fill="#263238"/>
<path d="M285.719 241.465H164.359V255.625H285.719V241.465Z" fill="white"/>
<path opacity="0.28" d="M285.719 241.465H164.359V255.625H285.719V241.465Z" fill="black" stroke="#263238" stroke-miterlimit="10" stroke-linecap="round" stroke-linejoin="round"/>
<path d="M285.719 241.465H164.359V255.625H285.719V241.465Z" stroke="#263238" stroke-miterlimit="10" stroke-linecap="round" stroke-linejoin="round"/>
<path d="M177.959 241.465H164.359V255.625H177.959V241.465Z" stroke="#263238" stroke-miterlimit="10" stroke-linecap="round" stroke-linejoin="round"/>
<path d="M285.809 241.465H272.209V255.625H285.809V241.465Z" stroke="#263238" stroke-miterlimit="10" stroke-linecap="round" stroke-linejoin="round"/>
<path d="M231.904 241.465H218.304V255.625H231.904V241.465Z" stroke="#263238" stroke-miterlimit="10" stroke-linecap="round" stroke-linejoin="round"/>
<path d="M285.804 255.623H294.124L304.604 215.863H296.204L285.804 255.623Z" fill="white" stroke="#263238" stroke-miterlimit="10" stroke-linecap="round" stroke-linejoin="round"/>
<path d="M314.344 232.586H303.384V250.346H314.344V232.586Z" fill="white" stroke="#263238" stroke-miterlimit="10" stroke-linecap="round" stroke-linejoin="round"/>
<path d="M306.175 264.903C304.895 264.903 303.775 263.863 303.775 262.503V253.623C303.775 252.343 304.815 251.223 306.175 251.223C307.455 251.223 308.575 252.263 308.575 253.623V262.583C308.575 263.863 307.535 264.903 306.175 264.903Z" fill="#263238"/>
<path d="M311.797 264.903C310.517 264.903 309.397 263.863 309.397 262.503V253.623C309.397 252.343 310.437 251.223 311.797 251.223C313.077 251.223 314.198 252.263 314.198 253.623V262.583C314.198 263.863 313.157 264.903 311.797 264.903Z" fill="#263238"/>
<path d="M1 264.906H332.04" stroke="#263238" stroke-miterlimit="10" stroke-linecap="round" stroke-linejoin="round"/>
<path d="M115.283 288.025C147.183 288.025 173.043 284.873 173.043 280.985C173.043 277.097 147.183 273.945 115.283 273.945C83.3835 273.945 57.5234 277.097 57.5234 280.985C57.5234 284.873 83.3835 288.025 115.283 288.025Z" fill="#CCCCCC"/>
<path opacity="0.5" d="M115.283 288.025C147.183 288.025 173.043 284.873 173.043 280.985C173.043 277.097 147.183 273.945 115.283 273.945C83.3835 273.945 57.5234 277.097 57.5234 280.985C57.5234 284.873 83.3835 288.025 115.283 288.025Z" fill="white"/>
<path d="M234.889 280.981C234.889 282.901 222.009 284.501 206.089 284.501C190.169 284.501 177.289 282.901 177.289 280.981C177.289 279.061 190.169 277.461 206.089 277.461C222.009 277.461 234.889 279.061 234.889 280.981Z" fill="#CCCCCC"/>
<path opacity="0.5" d="M234.889 280.981C234.889 282.901 222.009 284.501 206.089 284.501C190.169 284.501 177.289 282.901 177.289 280.981C177.289 279.061 190.169 277.461 206.089 277.461C222.009 277.461 234.889 279.061 234.889 280.981Z" fill="white"/>
<path d="M126.794 49.6239C126.794 49.6239 122.314 46.1039 117.194 47.8639C112.074 49.6239 108.154 58.1839 106.794 65.0639C105.434 72.0239 100.074 77.3038 101.354 85.3838C102.634 93.5438 111.914 94.8238 123.034 96.0238C134.234 97.2238 140.234 95.8638 145.514 88.5038C150.794 81.1438 148.554 72.1839 145.434 64.3439C142.314 56.4239 137.114 49.0639 132.794 47.7039C128.634 46.4239 126.794 49.6239 126.794 49.6239Z" fill="#263238" stroke="#263238" stroke-miterlimit="10" stroke-linecap="round" stroke-linejoin="round"/>
<path d="M108.346 91.3828C109.626 91.9428 110.666 92.1828 110.666 92.1828" stroke="white" stroke-miterlimit="10" stroke-linecap="round" stroke-linejoin="round"/>
<path d="M125.673 55.3047C125.673 55.3047 123.353 60.8247 118.793 66.7447C114.233 72.5847 104.073 78.1847 103.433 84.3447C103.193 86.3447 103.913 87.7847 104.873 88.9847" stroke="white" stroke-miterlimit="10" stroke-linecap="round" stroke-linejoin="round"/>
<path d="M144.238 84.8242C143.918 85.5442 143.518 86.2642 142.958 86.9842" stroke="white" stroke-miterlimit="10" stroke-linecap="round" stroke-linejoin="round"/>
<path d="M140.381 69.3008C140.381 69.3008 145.501 75.2208 145.021 81.5408" stroke="white" stroke-miterlimit="10" stroke-linecap="round" stroke-linejoin="round"/>
<path d="M124.706 52.0229C124.706 52.0229 118.466 51.0629 113.906 56.2629C113.746 56.5029 113.586 56.6629 113.426 56.9029" stroke="white" stroke-miterlimit="10" stroke-linecap="round" stroke-linejoin="round"/>
<path d="M95.1723 202.823L94.2123 218.183C94.2123 218.183 89.9723 238.823 88.6123 247.303C87.2523 255.783 84.7723 268.743 84.3723 268.743C83.8923 268.743 76.6123 273.143 74.2123 276.823C71.8923 280.423 74.8523 282.023 78.1323 280.823C81.4123 279.623 85.8123 276.423 87.2523 272.503C88.6923 268.583 89.4123 267.143 89.4923 266.503C89.5723 265.863 105.092 224.343 106.612 219.863C108.132 215.463 111.412 202.423 111.412 202.423L119.012 176.583C119.012 176.583 127.172 203.143 127.252 204.263C127.332 205.463 135.652 273.303 136.052 275.783C136.452 278.343 136.292 280.103 137.892 280.663C139.412 281.223 143.092 281.223 144.932 281.223C146.852 281.223 153.412 282.183 156.692 281.383C159.972 280.583 160.292 280.023 158.052 278.423C155.812 276.823 143.252 275.783 142.052 270.983C141.972 270.583 141.892 200.823 141.892 200.823C141.892 200.823 140.772 177.703 139.012 171.223H97.1723L95.1723 202.823Z" fill="white" stroke="#263238" stroke-miterlimit="10" stroke-linecap="round" stroke-linejoin="round"/>
<path d="M78.0597 280.901C81.3397 279.701 85.7397 276.501 87.1797 272.581C87.2597 272.261 87.4197 272.021 87.4997 271.781C85.6597 273.781 82.6997 276.501 82.6997 276.501C82.6997 276.501 82.4597 274.981 81.4997 273.941C80.6197 272.981 79.4197 273.301 79.4197 273.301L82.6197 269.781C80.2197 271.301 75.8997 274.341 74.2197 276.901C71.8197 280.501 74.7797 282.021 78.0597 280.901Z" fill="#263238" stroke="#263238" stroke-miterlimit="10" stroke-linecap="round" stroke-linejoin="round"/>
<path d="M157.964 278.502C156.444 277.382 150.044 276.582 145.804 274.582C145.644 274.742 145.484 274.902 145.404 275.142C145.004 276.022 144.764 277.462 144.764 277.462L135.964 275.542C135.964 275.622 135.964 275.702 135.964 275.782C136.364 278.342 136.204 280.102 137.804 280.662C139.324 281.222 143.004 281.222 144.844 281.222C146.764 281.222 153.324 282.182 156.604 281.382C159.884 280.662 160.284 280.182 157.964 278.502Z" fill="#263238" stroke="#263238" stroke-miterlimit="10" stroke-linecap="round" stroke-linejoin="round"/>
<path d="M107.348 133.781C107.348 133.781 103.188 135.701 98.1485 144.741C92.6285 154.581 93.5885 160.101 93.5085 171.941C93.4285 183.861 93.1885 203.541 93.1885 203.541C93.1885 203.541 108.388 207.621 119.268 206.981C130.228 206.341 143.988 203.861 143.988 203.861C143.988 203.861 141.028 163.621 138.228 152.101C135.428 140.501 133.748 135.301 133.748 135.301C133.748 135.301 126.708 136.501 117.428 135.541C108.308 134.581 107.348 133.781 107.348 133.781Z" fill="#263238" stroke="#263238" stroke-miterlimit="10" stroke-linecap="round" stroke-linejoin="round"/>
<path d="M124.832 169.379C125.232 170.739 125.632 172.099 125.952 173.539" stroke="white" stroke-miterlimit="10" stroke-linecap="round" stroke-linejoin="round"/>
<path d="M115.182 146.738C115.182 146.738 119.902 155.138 123.422 165.218" stroke="white" stroke-miterlimit="10" stroke-linecap="round" stroke-linejoin="round"/>
<path d="M209.235 126.104C208.755 125.784 200.915 124.584 200.915 124.584L199.395 123.944C199.395 123.944 208.915 124.744 208.995 124.344C209.075 123.944 209.395 123.464 208.755 123.384C208.115 123.304 195.875 120.824 195.875 120.824C195.875 120.824 198.995 117.864 199.395 117.224C199.795 116.584 200.355 115.304 199.715 115.304C199.075 115.304 198.915 115.704 198.035 116.264C197.155 116.824 193.715 118.184 192.755 118.984C191.795 119.784 188.915 121.864 188.915 121.864L155.635 117.304C155.635 117.304 143.955 102.904 141.395 99.864C138.835 96.824 135.395 94.424 135.395 94.424C132.915 93.304 133.075 95.144 133.075 95.144L138.115 117.864C138.115 117.864 151.315 125.704 152.115 125.704C152.915 125.704 188.675 126.904 188.675 126.904C188.675 126.904 191.075 128.024 192.595 128.984C194.115 129.944 203.715 132.984 203.715 132.984C203.715 132.984 204.355 132.664 203.635 132.104C202.915 131.544 198.275 129.304 198.275 129.304L207.875 131.384C207.875 131.384 208.435 130.984 208.195 130.584C207.955 130.184 199.395 126.904 199.395 126.904L208.995 127.384C208.995 127.304 209.715 126.424 209.235 126.104Z" fill="white" stroke="#263238" stroke-miterlimit="10" stroke-linecap="round" stroke-linejoin="round"/>
<path d="M153.635 114.744C150.195 110.504 143.315 102.024 141.395 99.7038C138.835 96.6638 135.395 94.2639 135.395 94.2639C132.915 93.1439 133.075 94.9839 133.075 94.9839L138.115 117.704C138.115 117.704 144.115 121.224 148.275 123.624L153.635 114.744Z" fill="white" stroke="#263238" stroke-miterlimit="10" stroke-linecap="round" stroke-linejoin="round"/>
<path d="M118.302 92.4236C118.302 92.4236 111.342 92.7436 107.102 97.4636C102.862 102.184 103.342 112.584 105.102 118.744C106.862 124.984 109.102 128.424 108.622 130.584C108.142 132.744 106.382 133.464 107.342 135.464C108.302 137.464 113.822 139.624 123.582 139.304C133.342 138.984 135.182 136.904 135.262 135.064C135.342 133.224 134.622 131.704 134.862 130.584C135.102 129.464 142.142 123.224 142.142 116.344C142.142 109.464 139.102 107.064 138.382 102.104C137.662 97.1436 137.902 96.4236 134.942 94.2636C131.982 92.1836 122.222 91.0636 118.302 92.4236Z" fill="white" stroke="#263238" stroke-miterlimit="10" stroke-linecap="round" stroke-linejoin="round"/>
<path d="M115.168 116.184C115.168 116.184 111.328 119.464 107.488 120.984" stroke="#263238" stroke-miterlimit="10" stroke-linecap="round" stroke-linejoin="round"/>
<path d="M115.908 116.984C115.908 116.984 114.148 122.504 109.988 125.624" stroke="#263238" stroke-miterlimit="10" stroke-linecap="round" stroke-linejoin="round"/>
<path d="M133.171 97.3867L133.971 105.067L130.611 101.147L133.171 97.3867Z" fill="white" stroke="#263238" stroke-miterlimit="10" stroke-linecap="round" stroke-linejoin="round"/>
<path d="M128.66 105.706L133.14 97.3864L129.06 93.0664L128.66 105.706Z" fill="white" stroke="#263238" stroke-miterlimit="10" stroke-linecap="round" stroke-linejoin="round"/>
<path d="M120.027 78.8242C120.027 78.8242 121.227 83.3842 121.067 87.3042C120.907 91.2242 120.507 92.8242 120.507 92.8242L128.667 105.784L130.987 93.7842L132.507 85.4642C132.507 85.4642 123.227 84.9042 120.027 78.8242Z" fill="white" stroke="#263238" stroke-miterlimit="10" stroke-linecap="round" stroke-linejoin="round"/>
<path d="M128.195 98.7461L128.675 105.706L126.275 101.946L128.195 98.7461Z" fill="white" stroke="#263238" stroke-miterlimit="10" stroke-linecap="round" stroke-linejoin="round"/>
<path d="M117.8 92.5053L125.24 105.785L128.2 98.7453L120.28 87.9453L117.8 92.5053Z" fill="white" stroke="#263238" stroke-miterlimit="10" stroke-linecap="round" stroke-linejoin="round"/>
<path d="M247.894 98.6641H180.534V153.944H247.894V98.6641Z" fill="#CCCCCC"/>
<path opacity="0.2" d="M247.894 98.6641H180.534V153.944H247.894V98.6641Z" fill="black"/>
<path d="M247.894 98.6641H180.534V153.944H247.894V98.6641Z" stroke="#263238" stroke-miterlimit="10" stroke-linecap="round" stroke-linejoin="round"/>
<path d="M233.597 98.6641H166.237V153.944H233.597V98.6641Z" fill="#CCCCCC" stroke="#263238" stroke-miterlimit="10" stroke-linecap="round" stroke-linejoin="round"/>
<path d="M258.94 172.581C256.78 169.141 247.82 153.941 247.82 153.941H233.58L240.94 172.581H258.94Z" fill="#CCCCCC"/>
<path opacity="0.2" d="M258.94 172.581C256.78 169.141 247.82 153.941 247.82 153.941H233.58L240.94 172.581H258.94Z" fill="black"/>
<path d="M258.94 172.581C256.78 169.141 247.82 153.941 247.82 153.941H233.58L240.94 172.581H258.94Z" stroke="#263238" stroke-miterlimit="10" stroke-linecap="round" stroke-linejoin="round"/>
<path d="M155.104 172.581C157.264 169.141 166.224 153.941 166.224 153.941H180.464L173.104 172.581H155.104Z" fill="#CCCCCC" stroke="#263238" stroke-miterlimit="10" stroke-linecap="round" stroke-linejoin="round"/>
<path d="M166.225 153.941L159.985 172.581H230.385L233.665 153.941H166.225Z" fill="#CCCCCC" stroke="#263238" stroke-miterlimit="10" stroke-linecap="round" stroke-linejoin="round"/>
<path d="M256.549 118.664V137.224" stroke="#263238" stroke-miterlimit="10" stroke-linecap="round" stroke-linejoin="round"/>
<path d="M260.027 126.664V141.704" stroke="#263238" stroke-miterlimit="10" stroke-linecap="round" stroke-linejoin="round"/>
<path d="M159.011 137.223V148.743" stroke="#263238" stroke-miterlimit="10" stroke-linecap="round" stroke-linejoin="round"/>
<path d="M155.965 143.707V152.747" stroke="#263238" stroke-miterlimit="10" stroke-linecap="round" stroke-linejoin="round"/>
<path d="M106.705 112.262C106.705 112.262 110.145 116.342 114.945 119.222C119.745 122.102 137.345 132.102 138.705 132.662C140.065 133.222 182.145 126.342 182.145 126.342C182.145 126.342 184.545 127.462 186.065 128.422C187.585 129.382 197.185 132.422 197.185 132.422C197.185 132.422 197.825 132.102 197.105 131.542C196.385 130.982 191.745 128.742 191.745 128.742L201.345 130.822C201.345 130.822 201.905 130.422 201.665 130.022C201.425 129.622 192.865 126.342 192.865 126.342L202.465 126.822C202.465 126.822 203.185 125.942 202.705 125.622C202.225 125.302 192.385 123.062 192.385 123.062C192.385 123.062 202.865 122.182 202.945 121.782C203.025 121.382 203.345 120.902 202.705 120.822C202.065 120.742 188.945 119.462 188.945 119.462C188.945 119.462 192.385 117.302 192.785 116.662C193.185 116.022 193.745 114.742 193.105 114.742C192.465 114.742 192.305 115.142 191.425 115.702C190.545 116.262 187.105 117.622 186.145 118.422C185.185 119.222 182.305 121.302 182.305 121.302L143.825 121.382L119.985 102.582" fill="white"/>
<path d="M106.705 112.262C106.705 112.262 110.145 116.342 114.945 119.222C119.745 122.102 137.345 132.102 138.705 132.662C140.065 133.222 182.145 126.342 182.145 126.342C182.145 126.342 184.545 127.462 186.065 128.422C187.585 129.382 197.185 132.422 197.185 132.422C197.185 132.422 197.825 132.102 197.105 131.542C196.385 130.982 191.745 128.742 191.745 128.742L201.345 130.822C201.345 130.822 201.905 130.422 201.665 130.022C201.425 129.622 192.865 126.342 192.865 126.342L202.465 126.822C202.465 126.822 203.185 125.942 202.705 125.622C202.225 125.302 192.385 123.062 192.385 123.062C192.385 123.062 202.865 122.182 202.945 121.782C203.025 121.382 203.345 120.902 202.705 120.822C202.065 120.742 188.945 119.462 188.945 119.462C188.945 119.462 192.385 117.302 192.785 116.662C193.185 116.022 193.745 114.742 193.105 114.742C192.465 114.742 192.305 115.142 191.425 115.702C190.545 116.262 187.105 117.622 186.145 118.422C185.185 119.222 182.305 121.302 182.305 121.302L143.825 121.382L119.985 102.582" stroke="#263238" stroke-miterlimit="10" stroke-linecap="round" stroke-linejoin="round"/>
<path d="M202.713 120.818C202.073 120.738 188.953 119.458 188.953 119.458C188.953 119.458 192.393 117.298 192.793 116.658C193.193 116.018 193.753 114.738 193.113 114.738C192.473 114.738 192.313 115.138 191.433 115.698C190.553 116.258 187.113 117.618 186.153 118.418C185.193 119.218 182.313 121.298 182.313 121.298L143.833 121.378L139.513 118.018C137.913 120.818 134.953 126.098 132.953 129.538C135.913 131.218 138.233 132.418 138.633 132.658C139.993 133.218 182.073 126.338 182.073 126.338C182.073 126.338 184.473 127.458 185.993 128.418C187.513 129.378 197.113 132.418 197.113 132.418C197.113 132.418 197.753 132.098 197.033 131.538C196.313 130.978 191.673 128.738 191.673 128.738L201.273 130.818C201.273 130.818 201.833 130.418 201.593 130.018C201.353 129.618 192.793 126.338 192.793 126.338L202.393 126.818C202.393 126.818 203.113 125.938 202.633 125.618C202.153 125.298 192.313 123.058 192.313 123.058C192.313 123.058 202.793 122.178 202.873 121.778C203.033 121.378 203.353 120.898 202.713 120.818Z" fill="white" stroke="#263238" stroke-miterlimit="10" stroke-linecap="round" stroke-linejoin="round"/>
<path d="M138.215 72.1049C138.215 71.8649 139.815 71.0649 140.215 72.5849C140.615 74.1049 139.815 76.665 138.935 77.545C138.055 78.425 137.255 78.665 137.255 77.545C137.255 76.425 138.215 72.1049 138.215 72.1049Z" fill="white" stroke="#263238" stroke-miterlimit="10" stroke-linecap="round" stroke-linejoin="round"/>
<path d="M128.464 58.1055C128.464 58.1055 128.304 64.0255 123.744 68.4255C119.184 72.8255 115.104 74.8255 115.104 74.8255C115.104 74.8255 115.584 77.3055 116.544 78.1055C117.504 78.9055 119.344 78.7455 119.344 78.7455C119.344 78.7455 120.784 83.1455 124.544 86.5855C128.304 90.0255 132.704 89.7055 135.184 84.5855C137.664 79.3855 138.944 74.2655 138.624 71.3055C138.304 68.3455 138.304 68.3455 138.304 68.3455C138.304 68.3455 130.144 63.7855 128.464 58.1055Z" fill="white" stroke="#263238" stroke-miterlimit="10" stroke-linecap="round" stroke-linejoin="round"/>
<path d="M127.975 73.6225C128.373 73.6225 128.695 73.0494 128.695 72.3425C128.695 71.6356 128.373 71.0625 127.975 71.0625C127.577 71.0625 127.255 71.6356 127.255 72.3425C127.255 73.0494 127.577 73.6225 127.975 73.6225Z" fill="#263238"/>
<path d="M131.88 83.7866C132.278 83.7866 132.6 83.2135 132.6 82.5066C132.6 81.7996 132.278 81.2266 131.88 81.2266C131.483 81.2266 131.16 81.7996 131.16 82.5066C131.16 83.2135 131.483 83.7866 131.88 83.7866Z" fill="#263238"/>
<path d="M134.849 73.6225C135.247 73.6225 135.569 73.0494 135.569 72.3425C135.569 71.6356 135.247 71.0625 134.849 71.0625C134.451 71.0625 134.129 71.6356 134.129 72.3425C134.129 73.0494 134.451 73.6225 134.849 73.6225Z" fill="#263238"/>
<path d="M133.486 70.9844C133.486 70.9844 133.006 72.5844 133.246 73.9444C133.486 75.3044 134.606 77.6244 133.646 78.0244C132.686 78.4244 131.406 78.2644 130.926 77.7044" stroke="#263238" stroke-miterlimit="10" stroke-linecap="round" stroke-linejoin="round"/>
<path d="M125.888 70.0244C125.888 70.0244 126.288 67.5444 129.488 67.8644" stroke="#263238" stroke-miterlimit="10" stroke-linecap="round" stroke-linejoin="round"/>
<path d="M134.443 68.583C134.443 68.583 137.403 66.183 138.443 70.583" stroke="#263238" stroke-miterlimit="10" stroke-linecap="round" stroke-linejoin="round"/>
</svg>
