<svg width="154" height="150" viewBox="0 0 154 150" fill="none" xmlns="http://www.w3.org/2000/svg">
<g clip-path="url(#clip0_7123_40035)">
<path d="M34.0046 44.8903L33.4442 44.6413C33.9423 43.3959 34.2536 42.3997 34.3782 41.5279L35.0008 41.5902C34.814 42.5865 34.5027 43.645 34.0046 44.8903ZM33.7555 37.792C32.5724 35.1145 30.3308 33.4333 27.2798 32.9352L27.4043 32.3125C30.6422 32.8729 33.0706 34.6786 34.3782 37.4806L33.7555 37.792Z" fill="#D1474E"/>
<path d="M30.4554 51.1761L24.3533 53.9781L24.1043 53.3555C23.6061 52.2969 23.3571 51.4252 23.2948 50.678C23.2325 49.9308 23.2948 49.1836 23.5439 48.4364C23.7929 47.6892 24.4156 46.2571 25.4119 44.14C25.9723 43.0192 26.0968 42.2098 25.8477 41.5871C25.5987 41.0267 25.2251 40.5908 24.7269 40.4663C24.2288 40.2795 23.6061 40.404 22.9212 40.7154C22.174 41.089 21.6136 41.5871 21.3645 42.3343C21.1155 43.0815 21.1777 44.0778 21.6136 45.3854L15.0133 47.4401C14.2039 45.0118 14.2039 42.8324 15.0133 40.7154C15.8228 38.6606 17.7531 36.9171 20.7419 35.5472C23.108 34.4887 25.2251 34.1151 27.0931 34.4264C29.646 34.8623 31.4517 36.1699 32.448 38.3492C32.8838 39.2832 33.0084 40.2795 32.8838 41.338C32.7593 42.3966 32.1989 43.9532 31.2026 45.8835C30.5177 47.2533 30.1441 48.2496 30.0818 48.8723C29.9573 49.5572 30.0818 50.3044 30.4554 51.1761ZM24.9137 55.6593L31.4517 52.6705L34.0669 58.4613L27.5289 61.4501L24.9137 55.6593Z" fill="#D1474E"/>
<path d="M15.3248 64.9987L12.2115 69.2328L11.7756 68.9215C11.0284 68.3611 10.5303 67.863 10.219 67.3649C9.90764 66.8667 9.65858 66.3063 9.53404 65.7459C9.40951 65.1233 9.28498 63.9402 9.16045 62.1345C9.09818 61.2005 8.91138 60.5155 8.47551 60.2665C8.03965 59.9551 7.66605 59.8306 7.23018 59.9551C6.85659 60.0174 6.42072 60.3287 6.10939 60.8269C5.73579 61.325 5.54899 61.9477 5.67352 62.5081C5.79806 63.1307 6.23392 63.7534 6.98112 64.5006L3.24513 68.4234C1.75073 67.1158 0.941268 65.5591 0.692202 63.8779C0.443136 62.1345 1.12807 60.2665 2.62246 58.2117C3.80553 56.5928 5.11312 55.5342 6.54525 55.0361C8.47551 54.3512 10.1567 54.6002 11.7134 55.721C12.336 56.1569 12.8342 56.7796 13.1455 57.589C13.4568 58.3985 13.6436 59.5815 13.7059 61.325C13.7682 62.5081 13.8927 63.3175 14.0795 63.8157C14.3286 64.127 14.7644 64.5629 15.3248 64.9987ZM13.2078 70.2291L16.5702 65.6837L20.5552 68.6102L17.1928 73.1556L13.2078 70.2291Z" fill="#D1474E"/>
<path d="M81.5766 147.762C80.5803 147.762 79.584 147.201 79.0859 146.267C76.5952 141.411 73.4196 135.744 67.7534 129.642C67.0685 128.895 66.8817 127.899 67.1307 126.965C69.2478 119.68 72.5479 109.717 72.5479 109.592C73.046 108.098 74.6027 107.351 76.0971 107.849C77.5915 108.347 78.3387 109.904 77.8406 111.398C77.8406 111.46 74.9763 120.053 72.9215 127.089C78.1519 133.005 81.3275 138.609 84.005 143.777C84.6899 145.147 84.1918 146.828 82.8219 147.513C82.4483 147.7 82.0124 147.762 81.5766 147.762Z" fill="#D1474E"/>
<path d="M86.2469 149.999H64.5781L76.0974 143.523L85.6865 143.897L86.2469 149.999Z" fill="#66191D"/>
<path d="M84.202 123.768C94.0492 120.69 99.9613 111.57 97.407 103.397C94.8528 95.2234 84.7993 91.0925 74.9521 94.17C65.1048 97.2474 59.1927 106.368 61.747 114.541C64.3013 122.714 74.3547 126.845 84.202 123.768Z" fill="#66191D"/>
<path d="M30.269 98.8182C29.1482 98.8182 28.1519 98.1955 27.7161 97.0747C27.1557 95.6426 27.7783 94.0236 29.2105 93.401C30.8294 92.716 31.0785 91.0971 31.0785 91.0348C31.203 89.7895 32.137 88.7933 33.3823 88.5442C34.0673 88.4197 34.6899 88.2329 35.4371 88.0461C39.2354 86.9253 43.9054 85.5554 58.6625 89.7273C73.2329 81.5703 73.3574 66.315 73.3574 65.6301C73.3574 64.0735 74.6027 62.8281 76.1594 62.8281C77.7161 62.8281 78.9614 64.0735 78.9614 65.5679C78.9614 66.3773 78.8991 85.5554 60.2814 95.1444C59.6588 95.4558 58.9116 95.518 58.2267 95.3312C44.1544 91.2839 40.1694 92.4047 36.9938 93.3387C36.6824 93.401 36.4334 93.5255 36.1221 93.5878C35.4371 95.3312 34.005 97.386 31.3898 98.5068C31.0162 98.7559 30.6426 98.8182 30.269 98.8182Z" fill="#66191D"/>
<path d="M62.8969 78.8318C57.6042 57.7858 43.532 3.42712 88.7375 0.126993C129.335 -2.8618 140.481 51.1855 143.158 69.8655C144.715 80.7621 145.275 90.6625 145.338 98.3835C145.462 108.346 138.426 116.939 128.65 118.931C106.546 123.415 85.6241 124.037 71.5519 118.496C67.7537 117.001 65.4498 113.078 65.8234 109.031C66.3838 102.991 66.3838 92.5927 62.8969 78.8318Z" fill="#D1474E"/>
<path opacity="0.1" d="M143.158 69.8679C140.605 52.2465 130.58 3.24278 95.3999 0.12945C91.2903 -0.244149 87.3053 1.81065 85.375 5.4221C83.8183 8.47316 83.8806 12.1469 86.1845 15.7583C93.9055 27.7758 112.399 69.3075 109.597 91.9103C108.351 102.184 101.876 110.403 107.48 121.985C114.267 121.425 121.365 120.366 128.588 118.872C138.364 116.879 145.338 108.286 145.275 98.3237C145.275 90.6649 144.777 80.7646 143.158 69.8679Z" fill="#2E0507"/>
<path d="M137.118 98.6956C136.994 98.6956 136.869 98.571 136.869 98.4465C136.745 88.7952 135.998 79.2684 134.69 69.9284C127.903 23.4154 109.783 -0.0591187 82.2615 1.93341C82.137 1.93341 81.9502 1.80888 81.9502 1.68434C81.9502 1.55981 82.0747 1.37301 82.1993 1.37301C110.095 -0.681784 128.401 23.0418 135.188 69.8662C136.558 79.2061 137.305 88.7952 137.367 98.4465C137.43 98.571 137.305 98.6956 137.118 98.6956Z" fill="#66191D"/>
<path d="M136.697 125.268C146.544 122.19 152.456 113.07 149.902 104.897C147.347 96.7234 137.294 92.5925 127.447 95.67C117.599 98.7474 111.687 107.868 114.242 116.041C116.796 124.214 126.849 128.345 136.697 125.268Z" fill="#66191D"/>
<path d="M138.426 147.762C137.43 147.762 136.434 147.201 135.935 146.267C133.445 141.411 130.269 135.744 124.603 129.642C123.918 128.895 123.731 127.899 123.98 126.965C126.097 119.68 129.398 109.717 129.398 109.592C129.896 108.098 131.452 107.351 132.947 107.849C134.441 108.347 135.188 109.904 134.69 111.398C134.69 111.46 131.826 120.053 129.771 127.089C135.002 133.005 138.177 138.609 140.855 143.777C141.539 145.147 141.041 146.828 139.671 147.513C139.298 147.7 138.862 147.762 138.426 147.762Z" fill="#D1474E"/>
<path d="M132.51 62.6432C131.514 62.6432 130.518 62.0828 130.02 61.1488C129.335 59.7789 129.833 58.0977 131.203 57.3505C131.763 57.0392 143.905 50.439 147.33 34.4365C139.235 31.0741 124.665 23.4153 121.489 19.5548C121.178 19.1812 120.991 18.7453 120.867 18.2472C120.804 17.8113 120.244 14.5112 121.489 11.3979L119.995 8.5336C119.31 7.16374 119.808 5.48254 121.178 4.79761C122.548 4.11268 124.229 4.61081 124.914 5.98068L127.031 10.0903C127.467 10.962 127.467 12.0205 126.906 12.83C126.222 13.8885 126.159 15.5074 126.222 16.5037C129.833 19.7416 144.279 27.4003 151.377 30.0778C152.623 30.5137 153.37 31.8213 153.183 33.1289C150.007 53.5523 134.441 61.9583 133.756 62.2696C133.444 62.5187 132.946 62.6432 132.51 62.6432Z" fill="#66191D"/>
<path d="M123.607 19.182C123.358 19.182 123.109 19.1197 122.859 18.9329C122.237 18.4971 122.05 17.6253 122.424 17.0027C122.548 16.8781 124.852 13.3912 128.339 12.4572C129.086 12.2704 129.833 12.7063 130.02 13.4535C130.207 14.2007 129.771 14.9479 129.024 15.1347C126.595 15.8196 124.727 18.4971 124.727 18.5593C124.541 18.9952 124.105 19.182 123.607 19.182Z" fill="#66191D"/>
<path d="M143.033 149.999H121.365L132.884 143.523L142.473 143.897L143.033 149.999Z" fill="#66191D"/>
<path d="M97.6991 66.5692C105.886 65.8447 111.994 59.287 111.343 51.9223C110.691 44.5575 103.526 39.1745 95.3388 39.8991C87.1519 40.6236 81.0435 47.1813 81.6953 54.546C82.3471 61.9108 89.5122 67.2938 97.6991 66.5692Z" fill="white"/>
<path d="M94.8896 61.7456C97.0723 61.1237 97.9252 57.4024 96.7945 53.4337C95.6638 49.4651 92.9777 46.7521 90.795 47.374C88.6122 47.9959 87.7594 51.7172 88.8901 55.6858C90.0208 59.6544 92.7069 62.3675 94.8896 61.7456Z" fill="#66191D"/>
<path d="M79.5842 55.7925C88.9864 54.6094 107.604 49.2545 110.655 47.1374C108.227 40.0391 96.9565 33.9992 86.9316 37.4239C77.8407 40.4749 79.5842 55.7925 79.5842 55.7925Z" fill="#430A0C"/>
<path d="M81.3901 60.3359C93.034 58.0943 108.227 54.4206 112.586 51.9922C112.337 59.5887 110.095 67.3098 98.2021 69.9249C88.4263 72.042 81.3901 60.3359 81.3901 60.3359Z" fill="#430A0C"/>
<path d="M71.7926 67.6189C76.0086 64.8295 76.5651 58.2437 73.0357 52.9091C69.5062 47.5746 63.2272 45.5114 59.0112 48.3008C54.7952 51.0903 54.2387 57.6761 57.7682 63.0106C61.2976 68.3451 67.5766 70.4083 71.7926 67.6189Z" fill="white"/>
<path d="M65.5742 58.1542C66.2591 61.5166 65.6987 64.2563 64.2043 64.3809C62.7722 64.5054 60.9665 61.8279 60.2816 58.5278C59.5966 55.1654 60.157 52.4257 61.6514 52.3011C63.0835 52.1766 64.8893 54.7918 65.5742 58.1542Z" fill="#66191D"/>
<path d="M53.9926 56.846C60.2815 57.5932 72.797 56.7838 74.9141 55.6007C73.3574 49.5608 65.8855 42.7115 59.1607 43.5832C52.9963 44.455 53.9926 56.846 53.9926 56.846Z" fill="#430A0C"/>
<path d="M55.1753 60.7699C63.0209 61.1435 73.2326 60.9567 76.1591 59.8359C75.91 65.8135 74.2911 71.542 66.321 71.4175C59.783 71.3552 55.1753 60.7699 55.1753 60.7699Z" fill="#430A0C"/>
<path d="M100.257 33.627C88.4882 33.627 80.7049 27.8362 80.269 27.5248C79.0237 26.5908 78.7746 24.8474 79.7086 23.602C80.6426 22.3567 82.3861 22.1077 83.6314 23.0416C83.756 23.1662 93.0337 29.891 105.923 27.4626C107.417 27.1512 108.912 28.1475 109.161 29.7042C109.472 31.1986 108.476 32.693 106.919 32.942C104.678 33.4402 102.436 33.627 100.257 33.627Z" fill="#66191D"/>
<path d="M50.3188 28.834C50.0074 28.834 49.6961 28.7717 49.3848 28.6472C47.9526 28.149 47.2054 26.5301 47.7036 25.098C49.198 20.9884 51.6264 18.3109 54.9888 17.1279C61.0909 15.0108 67.6288 19.1204 67.9402 19.3072C69.2478 20.1167 69.6214 21.8601 68.8119 23.1677C68.0024 24.4753 66.259 24.8489 64.9514 24.0394C63.7061 23.23 59.721 21.4242 56.7945 22.4205C55.1133 22.9809 53.868 24.4753 52.934 26.966C52.5604 28.0868 51.5018 28.834 50.3188 28.834Z" fill="#66191D"/>
<path d="M72.3611 75.9077C72.2988 75.9077 72.2365 75.9077 72.112 75.8455C71.6761 75.7209 71.4271 75.2851 71.5516 74.8492C71.5516 74.7869 72.112 72.9812 74.4158 71.7981C77.5914 70.1169 82.5105 70.4905 88.9239 72.7944C89.3598 72.9812 89.6089 73.4171 89.4221 73.8529C89.2353 74.2888 88.7994 74.5379 88.3636 74.3511C81.0161 71.6736 77.1556 72.234 75.2876 73.2303C73.6064 74.0397 73.2328 75.2228 73.2328 75.2851C73.046 75.7209 72.7347 75.9077 72.3611 75.9077Z" fill="#66191D"/>
<path d="M45.9601 72.8516C29.7085 74.346 18.127 81.0707 18.127 81.0707C22.9215 80.1367 40.1693 101.432 44.5902 117.87C52.7471 114.819 62.2739 112.764 72.4233 111.145C66.1967 94.209 54.9887 75.0309 45.9601 72.8516Z" fill="#D1474E"/>
<path opacity="0.6" d="M45.9601 72.8516C29.7085 74.346 18.127 81.0707 18.127 81.0707C22.9215 80.1367 40.1693 101.432 44.5902 117.87C52.7471 114.819 62.2739 112.764 72.4233 111.145C66.1967 94.209 54.9887 75.0309 45.9601 72.8516Z" fill="white"/>
<path d="M45.9602 72.8504C35.3126 71.6674 18.0648 80.5715 18.0648 80.5715C15.0137 82.5017 15.8232 86.1755 17.5044 87.7321C19.1233 85.4283 36.9316 79.4507 43.6563 78.6412C40.3562 75.5279 43.4695 73.2863 45.9602 72.8504Z" fill="#D1474E"/>
<path opacity="0.2" d="M45.9602 72.8504C35.3126 71.6674 18.0648 80.5715 18.0648 80.5715C15.0137 82.5017 15.8232 86.1755 17.5044 87.7321C19.1233 85.4283 36.9316 79.4507 43.6563 78.6412C40.3562 75.5279 43.4695 73.2863 45.9602 72.8504Z" fill="white"/>
<path d="M30.269 98.823C29.335 98.823 28.4633 98.3871 27.9029 97.5777C25.8481 94.4644 27.1557 89.7321 27.4047 88.7981C27.8406 87.3037 29.3973 86.4942 30.8917 86.9301C32.3861 87.366 33.1955 88.9226 32.7597 90.417C32.3238 91.9737 32.1993 93.9662 32.5729 94.5266C33.4446 95.8342 33.071 97.5777 31.7634 98.3871C31.3275 98.6362 30.8294 98.823 30.269 98.823Z" fill="#66191D"/>
</g>
<defs>
<clipPath id="clip0_7123_40035">
<rect width="152.615" height="150" fill="white" transform="translate(0.692383)"/>
</clipPath>
</defs>
</svg>
