<svg width="150" height="151" viewBox="0 0 150 151" fill="none" xmlns="http://www.w3.org/2000/svg">
<path d="M75 144.294C113.235 144.294 144.231 113.298 144.231 75.0628C144.231 36.8277 113.235 5.83203 75 5.83203C36.7649 5.83203 5.76929 36.8277 5.76929 75.0628C5.76929 113.298 36.7649 144.294 75 144.294Z" fill="white"/>
<path d="M75 0.0625C60.1664 0.0625 45.6659 4.46117 33.3323 12.7023C20.9986 20.9434 11.3856 32.6568 5.70907 46.3612C0.0324963 60.0657 -1.45275 75.1457 1.44114 89.6943C4.33503 104.243 11.4781 117.607 21.967 128.095C32.456 138.584 45.8197 145.727 60.3682 148.621C74.9168 151.515 89.9968 150.03 103.701 144.353C117.406 138.677 129.119 129.064 137.36 116.73C145.601 104.397 150 89.8961 150 75.0625C149.977 55.1782 142.068 36.1147 128.008 22.0544C113.948 7.99402 94.8843 0.0850227 75 0.0625ZM75 138.524C62.4485 138.524 50.1789 134.802 39.7427 127.829C29.3065 120.856 21.1725 110.944 16.3692 99.3482C11.566 87.7521 10.3092 74.9921 12.7579 62.6818C15.2066 50.3714 21.2507 39.0637 30.1259 30.1884C39.0012 21.3132 50.309 15.269 62.6193 12.8204C74.9296 10.3717 87.6896 11.6284 99.2857 16.4317C110.882 21.2349 120.793 29.369 127.766 39.8051C134.74 50.2413 138.462 62.511 138.462 75.0625C138.442 91.8877 131.75 108.018 119.853 119.915C107.956 131.813 91.8252 138.505 75 138.524ZM69.2308 80.8317V40.4471C69.2308 38.917 69.8386 37.4496 70.9206 36.3676C72.0025 35.2857 73.4699 34.6779 75 34.6779C76.5301 34.6779 77.9975 35.2857 79.0795 36.3676C80.1614 37.4496 80.7692 38.917 80.7692 40.4471V80.8317C80.7692 82.3618 80.1614 83.8292 79.0795 84.9112C77.9975 85.9931 76.5301 86.6009 75 86.6009C73.4699 86.6009 72.0025 85.9931 70.9206 84.9112C69.8386 83.8292 69.2308 82.3618 69.2308 80.8317ZM83.6539 106.793C83.6539 108.505 83.1463 110.178 82.1954 111.601C81.2445 113.024 79.893 114.133 78.3117 114.788C76.7304 115.443 74.9904 115.615 73.3117 115.281C71.633 114.947 70.0911 114.123 68.8808 112.912C67.6706 111.702 66.8464 110.16 66.5125 108.482C66.1785 106.803 66.3499 105.063 67.0049 103.482C67.6599 101.9 68.7691 100.549 70.1922 99.5978C71.6153 98.6469 73.2884 98.1394 75 98.1394C77.2952 98.1394 79.4963 99.0511 81.1192 100.674C82.7421 102.297 83.6539 104.498 83.6539 106.793Z" fill="#DD2323"/>
</svg>
