<svg width="71" height="77" viewBox="0 0 71 77" fill="none" xmlns="http://www.w3.org/2000/svg">
<path d="M60.6584 36.4708L52.2727 21.7958C51.3795 20.2331 49.7177 19.2686 47.9176 19.2686H16.478C14.678 19.2686 13.0161 20.2331 12.1229 21.7958L3.73728 36.4706C3.23049 37.3576 3.01937 38.3552 3.09206 39.3321L32.1978 46.4444L61.3036 39.3321C61.3763 38.3552 61.1651 37.3578 60.6584 36.4708Z" fill="#FFE79F"/>
<path d="M12.1229 21.7964L3.73728 36.4712C3.23049 37.3582 3.01937 38.3558 3.09206 39.3327L13.3924 41.8496L12.134 39.3327C8.37256 31.8101 12.1229 21.7964 12.1229 21.7964Z" fill="#FFDD77"/>
<path d="M42.2305 19.269C42.2305 19.269 52.1633 35.0079 61.3042 39.3329L49.766 42.1524L51.0082 39.3329L42.2305 19.269Z" fill="#FFDD77"/>
<path d="M28.4359 19.269C28.4359 19.269 28.3052 34.9118 39.7218 39.3329L32.1979 46.4451L23.4199 39.3329L28.4359 19.269Z" fill="#FFDD77"/>
<path d="M3.09375 39.3335C3.16361 40.2697 3.49382 41.1869 4.08129 41.97L28.1867 74.1105C30.193 76.7857 34.2058 76.7857 36.2123 74.1105L60.3177 41.97C60.9052 41.1869 61.2354 40.2695 61.3053 39.3335H3.09375Z" fill="#FFDD77"/>
<path d="M61.305 39.3335C61.305 39.3335 46.7944 50.2095 42.0996 59.6605L51.0093 39.3335H61.305Z" fill="#F2C94C"/>
<path d="M39.7218 39.3335C39.7218 39.3335 25.8105 45.5992 28.4852 59.6605L23.4199 39.3335H39.7218Z" fill="#F2C94C"/>
<path d="M31.5617 76.0758L24.6727 39.3335H12.1328L30.3489 75.7657C30.741 75.9201 31.1485 76.0235 31.5617 76.0758Z" fill="#D0AA38"/>
<path d="M34.0471 75.7657L52.2632 39.3335H39.7232L32.834 76.0758C33.2475 76.0235 33.655 75.9201 34.0471 75.7657Z" fill="#D0AA38"/>
<path d="M35.959 19.269L39.7209 39.3329H52.2609L42.2288 19.269H35.959Z" fill="#F2C94C"/>
<path d="M22.1646 19.269L12.1328 39.3329H24.6727L28.4347 19.269H22.1646Z" fill="#F2C94C"/>
<path d="M22.1646 19.269C22.1646 19.269 17.8984 31.8384 24.6725 39.3329H12.1328L22.1646 19.269Z" fill="#D0AA38"/>
<path d="M35.959 19.269C35.959 19.269 40.7054 35.0079 52.2609 39.3329H39.7209L35.959 19.269Z" fill="#D0AA38"/>
<path d="M3.09375 39.3335C3.16361 40.2697 3.49382 41.1869 4.08129 41.97L17.3492 59.6605C8.10539 47.3353 12.1357 39.3335 12.1357 39.3335H3.09375Z" fill="#F2C94C"/>
<path d="M24.6727 39.3335H12.1328L22.2963 59.6605C17.6603 50.5938 24.6727 39.3335 24.6727 39.3335Z" fill="#AE8C26"/>
<path d="M52.2632 39.3335C52.2632 39.3335 38.5174 45.1829 35.9121 59.6605L39.7236 39.3335H52.2632Z" fill="#AE8C26"/>
<path d="M70.0424 30.2316C68.8066 29.169 67.8544 27.8155 67.2721 26.2933C67.1084 25.8657 66.7362 25.5527 66.2851 25.4741C65.834 25.3955 65.3777 25.5643 65.0792 25.9115C64.0167 27.1473 62.6631 28.0995 61.141 28.6818C60.7133 28.8455 60.4004 29.2177 60.3218 29.6689C60.2431 30.12 60.412 30.5762 60.7592 30.8747C61.995 31.9373 62.9472 33.2908 63.5295 34.813C63.6932 35.2406 64.0654 35.5536 64.5165 35.6322C64.9676 35.7108 65.4239 35.542 65.7224 35.1947C66.7849 33.959 68.1385 33.0068 69.6606 32.4245C70.0883 32.2608 70.4012 31.8885 70.4798 31.4374C70.5582 30.9863 70.3896 30.5301 70.0424 30.2316Z" fill="#FFF1C6"/>
<path d="M14.6481 61.7112C12.3926 60.768 10.4069 59.2781 8.87112 57.3762C8.43961 56.8418 7.76346 56.5678 7.08346 56.6648C6.40345 56.7617 5.83068 57.2138 5.56568 57.8474C4.62249 60.1029 3.13256 62.0886 1.23071 63.6244C0.696341 64.0559 0.422325 64.732 0.519248 65.412C0.616171 66.0921 1.06831 66.6648 1.70191 66.9298C3.95718 67.873 5.94281 69.3629 7.47888 71.2648C7.9104 71.7992 8.58654 72.0732 9.26655 71.9763C9.94655 71.8793 10.5193 71.4272 10.7843 70.7936C11.7275 68.5383 13.2174 66.5527 15.1193 65.0166C15.6537 64.5851 15.9277 63.909 15.8308 63.229C15.7338 62.5487 15.282 61.9762 14.6481 61.7112Z" fill="#FFF1C6"/>
<path d="M38.982 6.51479C36.8821 5.26278 35.127 3.50734 33.875 1.40777C33.5231 0.817727 32.8923 0.451172 32.2056 0.451172C31.5186 0.451172 30.8879 0.817727 30.5363 1.40777C29.2843 3.50734 27.5288 5.26278 25.4293 6.51479C24.8392 6.86665 24.4727 7.49742 24.4727 8.18413C24.4727 8.87109 24.8392 9.50187 25.4293 9.85373C27.5288 11.1057 29.2843 12.8612 30.5363 14.9607C30.8881 15.5508 31.5189 15.9173 32.2056 15.9173C32.8926 15.9173 33.5233 15.5508 33.875 14.9607C35.127 12.8612 36.8824 11.1057 38.982 9.85373C39.572 9.50187 39.9386 8.87109 39.9386 8.18413C39.9386 7.49742 39.572 6.86665 38.982 6.51479Z" fill="#FFF1C6"/>
</svg>
