<svg width="181" height="37" viewBox="0 0 181 37" fill="none" xmlns="http://www.w3.org/2000/svg">
<path d="M93.4913 17.9477C92.0051 17.9477 90.9337 18.4402 89.8473 18.9419V30.2954C90.8879 30.3956 91.4844 30.3956 92.4716 30.3956C96.039 30.3956 96.528 28.7447 96.528 26.4396V21.0171C96.528 19.3149 95.969 17.9477 93.4913 17.9477ZM69.7992 17.3281C67.3241 17.3281 66.7592 18.7012 66.7592 20.4017V21.3573H72.8359V20.4017C72.8359 18.7012 72.2711 17.3281 69.7992 17.3281ZM23.903 29.1454C23.903 30.4907 24.5312 31.1894 25.9175 31.1894C27.4046 31.1894 28.2852 30.6995 29.3707 30.196V27.5029H26.1191C24.5795 27.5029 23.903 27.7925 23.903 29.1454ZM116.538 17.9477C114.058 17.9477 113.199 19.3149 113.199 21.0171V27.2293C113.199 28.9358 114.058 30.3072 116.538 30.3072C119.01 30.3072 119.876 28.9358 119.876 27.2293V21.0171C119.875 19.3149 119.01 17.9477 116.538 17.9477ZM11.7529 36.111H4.46478V18.2853H0.823242V12.143H4.46561V8.45392C4.46561 3.44227 6.52091 0.462891 12.3627 0.462891H17.2264V6.60685H14.1864C11.912 6.60685 11.762 7.46556 11.762 9.06764L11.7529 12.1421H17.2597L16.6157 18.2844H11.7529V36.111ZM36.6605 36.1573H30.5862L30.3238 34.6049C27.5504 36.1573 25.0752 36.409 23.4423 36.409C18.9876 36.409 16.6166 33.4019 16.6166 29.243C16.6166 24.3366 19.3834 22.5855 24.3329 22.5855H29.3707V21.5248C29.3707 19.0202 29.0866 18.2853 25.2751 18.2853H19.0434L19.6524 12.143H26.464C34.8268 12.143 36.6605 14.8126 36.6605 21.5745V36.1573ZM57.3159 18.7357C53.536 18.0807 52.4505 17.9367 50.6318 17.9367C47.3652 17.9367 46.3779 18.665 46.3779 21.4684V26.7713C46.3779 29.5747 47.3652 30.3063 50.6318 30.3063C52.4505 30.3063 53.536 30.1598 57.3159 29.5023V35.4939C54.0051 36.244 51.8481 36.441 50.0253 36.441C42.2007 36.441 39.0907 32.283 39.0907 26.2763V21.9735C39.0907 15.9617 42.2007 11.7961 50.0253 11.7961C51.8481 11.7961 54.0051 11.994 57.3159 12.7474V18.7357ZM80.1232 26.2763H66.7584V26.7713C66.7584 29.5747 67.7465 30.3063 71.0123 30.3063C73.9482 30.3063 75.7402 30.1598 79.5134 29.5023V35.4939C75.8743 36.244 73.9781 36.441 70.4083 36.441C62.5828 36.441 59.4711 32.283 59.4711 26.2763V21.3564C59.4711 16.1006 61.7797 11.7961 69.7984 11.7961C77.8171 11.7961 80.1232 16.0509 80.1232 21.3564V26.2763ZM103.814 26.3899C103.814 32.1955 102.172 36.4301 92.225 36.4301C88.6326 36.4301 86.5257 36.111 82.5609 35.4948V2.30827L89.8465 1.07998V12.6885C91.421 12.0975 93.4588 11.797 95.3134 11.797C102.6 11.797 103.814 15.098 103.814 20.4026V26.3899H103.814ZM127.169 26.5162C127.169 31.5245 125.123 36.3821 116.562 36.3821C107.997 36.3821 105.912 31.5245 105.912 26.5162V21.6805C105.912 16.6697 107.997 11.8113 116.562 11.8113C125.123 11.8113 127.169 16.6697 127.169 21.6805V26.5162ZM150.508 26.5162C150.508 31.5245 148.459 36.3821 139.9 36.3821C131.335 36.3821 129.25 31.5245 129.25 26.5162V21.6805C129.25 16.6697 131.335 11.8113 139.9 11.8113C148.459 11.8113 150.508 16.6697 150.508 21.6805V26.5162ZM174.459 36.111H166.562L159.883 24.8443V36.111H152.595V2.30743L159.883 1.07914V22.8406L166.562 12.143H174.459L167.168 23.8172L174.459 36.111ZM139.875 17.9477C137.4 17.9477 136.541 19.3149 136.541 21.0171V27.2293C136.541 28.9358 137.4 30.3072 139.875 30.3072C142.347 30.3072 143.222 28.9358 143.222 27.2293V21.0171C143.222 19.3149 142.347 17.9477 139.875 17.9477ZM178.619 31.9067C179.846 31.9067 180.823 32.9178 180.823 34.1806C180.823 35.4628 179.845 36.4629 178.61 36.4629C177.38 36.4629 176.383 35.4628 176.383 34.1806C176.383 32.9178 177.38 31.9067 178.61 31.9067H178.619ZM178.61 32.2603C177.621 32.2603 176.812 33.1199 176.812 34.1806C176.812 35.2607 177.622 36.1093 178.619 36.1093C179.617 36.1194 180.414 35.2607 180.414 34.1907C180.414 33.1207 179.617 32.2603 178.619 32.2603H178.61ZM177.791 35.504V32.9666C178.001 32.9372 178.201 32.9077 178.501 32.9077C178.881 32.9077 179.129 32.9885 179.281 33.0988C179.429 33.2108 179.508 33.3817 179.508 33.6233C179.508 33.9584 179.29 34.1596 179.02 34.2412V34.2606C179.24 34.3018 179.389 34.5022 179.44 34.8751C179.498 35.27 179.559 35.4207 179.598 35.5032H179.179C179.12 35.4207 179.059 35.1892 179.009 34.8549C178.951 34.5325 178.789 34.4113 178.469 34.4113H178.192V35.504H177.791ZM178.191 34.0998H178.481C178.809 34.0998 179.088 33.9777 179.088 33.6637C179.088 33.4414 178.93 33.22 178.481 33.22C178.35 33.22 178.259 33.2301 178.191 33.2394V34.0998Z" fill="#A3B9C2"/>
</svg>
