<svg width="25" height="25" viewBox="0 0 25 25" fill="none" xmlns="http://www.w3.org/2000/svg">
<path d="M12.5 0C5.60759 0 0 5.60759 0 12.5C0 19.3924 5.60759 25 12.5 25C19.3924 25 25 19.3924 25 12.5C25 5.60759 19.3924 0 12.5 0ZM17.0585 15.9728C17.3624 16.279 17.3616 16.7736 17.0562 17.0782C16.9038 17.2298 16.704 17.3056 16.5047 17.3056C16.3039 17.3056 16.1039 17.2291 15.9508 17.076L12.4976 13.6064L9.028 17.0596C8.87559 17.2111 8.67574 17.287 8.47644 17.287C8.27572 17.287 8.0757 17.2104 7.9226 17.0573C7.61864 16.7511 7.61951 16.2565 7.92487 15.9519L11.3945 12.4986L7.94125 9.02904C7.63729 8.72282 7.63817 8.22824 7.94352 7.9236C8.24974 7.61895 8.74361 7.62051 9.04896 7.92587L12.5022 11.3955L15.9718 7.94225C16.278 7.6376 16.7719 7.63916 17.0772 7.94452C17.3812 8.25074 17.3803 8.74532 17.075 9.04996L13.6054 12.5032L17.0585 15.9728Z" fill="#D1474E"/>
</svg>
