<svg width="70" height="71" viewBox="0 0 70 71" fill="none" xmlns="http://www.w3.org/2000/svg">
<path d="M42.6562 55.8906C54.1334 55.8906 63.4375 46.5865 63.4375 35.1094C63.4375 23.6322 54.1334 14.3281 42.6562 14.3281C31.1791 14.3281 21.875 23.6322 21.875 35.1094C21.875 46.5865 31.1791 55.8906 42.6562 55.8906Z" fill="#E9EEF2"/>
<path d="M26.25 51.5156H10.9375C10.6474 51.5156 10.3692 51.4004 10.1641 51.1953C9.95898 50.9902 9.84375 50.712 9.84375 50.4219C9.84375 50.1318 9.95898 49.8536 10.1641 49.6485C10.3692 49.4434 10.6474 49.3281 10.9375 49.3281H26.25C26.5401 49.3281 26.8183 49.4434 27.0234 49.6485C27.2285 49.8536 27.3438 50.1318 27.3438 50.4219C27.3438 50.712 27.2285 50.9902 27.0234 51.1953C26.8183 51.4004 26.5401 51.5156 26.25 51.5156Z" fill="#B0FF8B"/>
<path d="M6.5625 51.5156H5.46875C5.17867 51.5156 4.90047 51.4004 4.69535 51.1953C4.49023 50.9902 4.375 50.712 4.375 50.4219C4.375 50.1318 4.49023 49.8536 4.69535 49.6485C4.90047 49.4434 5.17867 49.3281 5.46875 49.3281H6.5625C6.85258 49.3281 7.13078 49.4434 7.3359 49.6485C7.54102 49.8536 7.65625 50.1318 7.65625 50.4219C7.65625 50.712 7.54102 50.9902 7.3359 51.1953C7.13078 51.4004 6.85258 51.5156 6.5625 51.5156Z" fill="#B0FF8B"/>
<path d="M43.75 59.1719H17.5C17.2099 59.1719 16.9317 59.0566 16.7266 58.8515C16.5215 58.6464 16.4062 58.3682 16.4062 58.0781C16.4062 57.788 16.5215 57.5098 16.7266 57.3047C16.9317 57.0996 17.2099 56.9844 17.5 56.9844H43.75C44.0401 56.9844 44.3183 57.0996 44.5234 57.3047C44.7285 57.5098 44.8438 57.788 44.8438 58.0781C44.8438 58.3682 44.7285 58.6464 44.5234 58.8515C44.3183 59.0566 44.0401 59.1719 43.75 59.1719Z" fill="#B0FF8B"/>
<path d="M13.125 59.1719H4.375C4.08492 59.1719 3.80672 59.0566 3.6016 58.8515C3.39648 58.6464 3.28125 58.3682 3.28125 58.0781C3.28125 57.788 3.39648 57.5098 3.6016 57.3047C3.80672 57.0996 4.08492 56.9844 4.375 56.9844H13.125C13.4151 56.9844 13.6933 57.0996 13.8984 57.3047C14.1035 57.5098 14.2188 57.788 14.2188 58.0781C14.2188 58.3682 14.1035 58.6464 13.8984 58.8515C13.6933 59.0566 13.4151 59.1719 13.125 59.1719Z" fill="#B0FF8B"/>
<path d="M19.6875 30.7344H13.125C12.8349 30.7344 12.5567 30.6191 12.3516 30.414C12.1465 30.2089 12.0312 29.9307 12.0312 29.6406C12.0312 29.3505 12.1465 29.0723 12.3516 28.8672C12.5567 28.6621 12.8349 28.5469 13.125 28.5469H19.6875C19.9776 28.5469 20.2558 28.6621 20.4609 28.8672C20.666 29.0723 20.7812 29.3505 20.7812 29.6406C20.7812 29.9307 20.666 30.2089 20.4609 30.414C20.2558 30.6191 19.9776 30.7344 19.6875 30.7344Z" fill="#B0FF8B"/>
<path d="M19.6875 41.6719H13.125C12.8349 41.6719 12.5567 41.5566 12.3516 41.3515C12.1465 41.1464 12.0312 40.8682 12.0312 40.5781C12.0312 40.288 12.1465 40.0098 12.3516 39.8047C12.5567 39.5996 12.8349 39.4844 13.125 39.4844H19.6875C19.9776 39.4844 20.2558 39.5996 20.4609 39.8047C20.666 40.0098 20.7812 40.288 20.7812 40.5781C20.7812 40.8682 20.666 41.1464 20.4609 41.3515C20.2558 41.5566 19.9776 41.6719 19.6875 41.6719Z" fill="#B0FF8B"/>
<path d="M10.9375 36.2031H4.375C4.08492 36.2031 3.80672 36.0879 3.6016 35.8828C3.39648 35.6777 3.28125 35.3995 3.28125 35.1094C3.28125 34.8193 3.39648 34.5411 3.6016 34.336C3.80672 34.1309 4.08492 34.0156 4.375 34.0156H10.9375C11.2276 34.0156 11.5058 34.1309 11.7109 34.336C11.916 34.5411 12.0312 34.8193 12.0312 35.1094C12.0312 35.3995 11.916 35.6777 11.7109 35.8828C11.5058 36.0879 11.2276 36.2031 10.9375 36.2031Z" fill="#B0FF8B"/>
<path d="M26.25 20.8906H10.9375C10.6474 20.8906 10.3692 20.7754 10.1641 20.5703C9.95898 20.3652 9.84375 20.087 9.84375 19.7969C9.84375 19.5068 9.95898 19.2286 10.1641 19.0235C10.3692 18.8184 10.6474 18.7031 10.9375 18.7031H26.25C26.5401 18.7031 26.8183 18.8184 27.0234 19.0235C27.2285 19.2286 27.3438 19.5068 27.3438 19.7969C27.3438 20.087 27.2285 20.3652 27.0234 20.5703C26.8183 20.7754 26.5401 20.8906 26.25 20.8906Z" fill="#B0FF8B"/>
<path d="M6.5625 20.8906H5.46875C5.17867 20.8906 4.90047 20.7754 4.69535 20.5703C4.49023 20.3652 4.375 20.087 4.375 19.7969C4.375 19.5068 4.49023 19.2286 4.69535 19.0235C4.90047 18.8184 5.17867 18.7031 5.46875 18.7031H6.5625C6.85258 18.7031 7.13078 18.8184 7.3359 19.0235C7.54102 19.2286 7.65625 19.5068 7.65625 19.7969C7.65625 20.087 7.54102 20.3652 7.3359 20.5703C7.13078 20.7754 6.85258 20.8906 6.5625 20.8906Z" fill="#B0FF8B"/>
<path d="M43.75 13.2344H17.5C17.2099 13.2344 16.9317 13.1191 16.7266 12.914C16.5215 12.7089 16.4062 12.4307 16.4062 12.1406C16.4062 11.8505 16.5215 11.5723 16.7266 11.3672C16.9317 11.1621 17.2099 11.0469 17.5 11.0469H43.75C44.0401 11.0469 44.3183 11.1621 44.5234 11.3672C44.7285 11.5723 44.8438 11.8505 44.8438 12.1406C44.8438 12.4307 44.7285 12.7089 44.5234 12.914C44.3183 13.1191 44.0401 13.2344 43.75 13.2344Z" fill="#B0FF8B"/>
<path d="M13.125 13.2344H4.375C4.08492 13.2344 3.80672 13.1191 3.6016 12.914C3.39648 12.7089 3.28125 12.4307 3.28125 12.1406C3.28125 11.8505 3.39648 11.5723 3.6016 11.3672C3.80672 11.1621 4.08492 11.0469 4.375 11.0469H13.125C13.4151 11.0469 13.6933 11.1621 13.8984 11.3672C14.1035 11.5723 14.2188 11.8505 14.2188 12.1406C14.2188 12.4307 14.1035 12.7089 13.8984 12.914C13.6933 13.1191 13.4151 13.2344 13.125 13.2344Z" fill="#B0FF8B"/>
<path d="M42.6562 18.7031C42.3662 18.7031 42.088 18.5879 41.8829 18.3828C41.6777 18.1777 41.5625 17.8995 41.5625 17.6094V15.4219C41.5625 15.1318 41.6777 14.8536 41.8829 14.6485C42.088 14.4434 42.3662 14.3281 42.6562 14.3281C42.9463 14.3281 43.2245 14.4434 43.4296 14.6485C43.6348 14.8536 43.75 15.1318 43.75 15.4219V17.6094C43.75 17.8995 43.6348 18.1777 43.4296 18.3828C43.2245 18.5879 42.9463 18.7031 42.6562 18.7031Z" fill="#9AA3A8"/>
<path d="M42.6562 55.8906C42.3662 55.8906 42.088 55.7754 41.8829 55.5703C41.6777 55.3652 41.5625 55.087 41.5625 54.7969V52.6094C41.5625 52.3193 41.6777 52.0411 41.8829 51.836C42.088 51.6309 42.3662 51.5156 42.6562 51.5156C42.9463 51.5156 43.2245 51.6309 43.4296 51.836C43.6348 52.0411 43.75 52.3193 43.75 52.6094V54.7969C43.75 55.087 43.6348 55.3652 43.4296 55.5703C43.2245 55.7754 42.9463 55.8906 42.6562 55.8906Z" fill="#9AA3A8"/>
<path d="M62.3438 36.2031H60.1562C59.8662 36.2031 59.588 36.0879 59.3829 35.8828C59.1777 35.6777 59.0625 35.3995 59.0625 35.1094C59.0625 34.8193 59.1777 34.5411 59.3829 34.336C59.588 34.1309 59.8662 34.0156 60.1562 34.0156H62.3438C62.6338 34.0156 62.912 34.1309 63.1171 34.336C63.3223 34.5411 63.4375 34.8193 63.4375 35.1094C63.4375 35.3995 63.3223 35.6777 63.1171 35.8828C62.912 36.0879 62.6338 36.2031 62.3438 36.2031Z" fill="#9AA3A8"/>
<path d="M25.1562 36.2031H22.9688C22.6787 36.2031 22.4005 36.0879 22.1954 35.8828C21.9902 35.6777 21.875 35.3995 21.875 35.1094C21.875 34.8193 21.9902 34.5411 22.1954 34.336C22.4005 34.1309 22.6787 34.0156 22.9688 34.0156H25.1562C25.4463 34.0156 25.7245 34.1309 25.9296 34.336C26.1348 34.5411 26.25 34.8193 26.25 35.1094C26.25 35.3995 26.1348 35.6777 25.9296 35.8828C25.7245 36.0879 25.4463 36.2031 25.1562 36.2031Z" fill="#9AA3A8"/>
<path d="M56.577 50.1249C56.4333 50.125 56.291 50.0968 56.1583 50.0419C56.0256 49.9869 55.905 49.9062 55.8036 49.8045L54.2569 48.2578C54.0518 48.0527 53.9365 47.7745 53.9365 47.4844C53.9365 47.1943 54.0518 46.9161 54.2569 46.711C54.462 46.5059 54.7402 46.3906 55.0303 46.3906C55.3204 46.3906 55.5986 46.5059 55.8037 46.711L57.3504 48.2578C57.5033 48.4108 57.6075 48.6057 57.6496 48.8178C57.6918 49.03 57.6702 49.2499 57.5874 49.4497C57.5046 49.6495 57.3644 49.8203 57.1846 49.9405C57.0047 50.0607 56.7933 50.1248 56.577 50.1249Z" fill="#9AA3A8"/>
<path d="M30.2822 23.8292C30.1386 23.8294 29.9963 23.8012 29.8636 23.7462C29.7308 23.6912 29.6103 23.6106 29.5088 23.5089L27.9621 21.962C27.7591 21.7565 27.6456 21.4789 27.6465 21.19C27.6474 20.9011 27.7626 20.6242 27.9669 20.4199C28.1712 20.2156 28.448 20.1005 28.737 20.0996C29.0259 20.0988 29.3034 20.2122 29.509 20.4153L31.0557 21.962C31.2086 22.115 31.3128 22.3099 31.355 22.522C31.3972 22.7342 31.3756 22.9541 31.2928 23.154C31.21 23.3539 31.0698 23.5247 30.8899 23.6449C30.71 23.765 30.4986 23.8292 30.2822 23.8292Z" fill="#9AA3A8"/>
<path d="M55.0303 23.8292C54.814 23.8292 54.6025 23.765 54.4226 23.6449C54.2428 23.5247 54.1026 23.3539 54.0198 23.154C53.937 22.9541 53.9153 22.7342 53.9575 22.522C53.9997 22.3099 54.1039 22.115 54.2569 21.962L55.8036 20.4153C56.0091 20.2122 56.2867 20.0988 56.5756 20.0996C56.8645 20.1005 57.1414 20.2156 57.3457 20.4199C57.55 20.6242 57.6652 20.9011 57.6661 21.19C57.6669 21.4789 57.5535 21.7565 57.3504 21.962L55.8037 23.5089C55.7023 23.6106 55.5817 23.6912 55.449 23.7462C55.3163 23.8012 55.174 23.8294 55.0303 23.8292Z" fill="#9AA3A8"/>
<path d="M28.7353 50.1249C28.519 50.1248 28.3075 50.0607 28.1277 49.9405C27.9478 49.8203 27.8077 49.6495 27.7249 49.4497C27.6421 49.2499 27.6204 49.03 27.6626 48.8178C27.7048 48.6057 27.8089 48.4108 27.9618 48.2578L29.5085 46.711C29.6101 46.6094 29.7307 46.5289 29.8634 46.4739C29.9961 46.4189 30.1383 46.3906 30.282 46.3906C30.4256 46.3906 30.5678 46.4189 30.7005 46.4739C30.8332 46.5289 30.9538 46.6094 31.0554 46.711C31.1569 46.8126 31.2375 46.9331 31.2925 47.0658C31.3474 47.1985 31.3757 47.3408 31.3757 47.4844C31.3757 47.628 31.3474 47.7703 31.2925 47.903C31.2375 48.0357 31.1569 48.1563 31.0554 48.2578L29.5087 49.8045C29.4072 49.9062 29.2867 49.9869 29.1539 50.0419C29.0212 50.0968 28.8789 50.125 28.7353 50.1249Z" fill="#9AA3A8"/>
<path d="M56.5547 34.336L54.3672 32.1485C54.1621 31.9434 53.8839 31.8281 53.5938 31.8281C53.3037 31.8281 53.0255 31.9434 52.8204 32.1485C52.6152 32.3536 52.5 32.6318 52.5 32.9219C52.5 33.212 52.6152 33.4902 52.8204 33.6953L53.1407 34.0157H43.75V26.8125L44.0704 27.1328C44.1719 27.2344 44.2925 27.315 44.4252 27.3699C44.5579 27.4249 44.7001 27.4532 44.8438 27.4532C44.9874 27.4532 45.1296 27.4249 45.2624 27.3699C45.3951 27.315 45.5156 27.2344 45.6172 27.1328C45.7188 27.0313 45.7993 26.9107 45.8543 26.778C45.9093 26.6453 45.9376 26.5031 45.9376 26.3594C45.9376 26.2158 45.9093 26.0735 45.8543 25.9408C45.7993 25.8081 45.7188 25.6876 45.6172 25.586L43.4297 23.3985C43.3281 23.2969 43.2076 23.2164 43.0749 23.1614C42.9421 23.1064 42.7999 23.0781 42.6563 23.0781C42.5126 23.0781 42.3704 23.1064 42.2377 23.1614C42.105 23.2164 41.9844 23.2969 41.8829 23.3985L39.6954 25.586C39.4902 25.7911 39.375 26.0693 39.375 26.3594C39.375 26.6495 39.4902 26.9277 39.6954 27.1328C39.9005 27.338 40.1787 27.4532 40.4688 27.4532C40.7589 27.4532 41.0371 27.338 41.2422 27.1328L41.5625 26.8125V35.1094C41.5625 35.2531 41.5908 35.3953 41.6458 35.528C41.7008 35.6607 41.7813 35.7813 41.8829 35.8828C41.9844 35.9844 42.105 36.0649 42.2377 36.1199C42.3704 36.1749 42.5126 36.2032 42.6563 36.2032H53.1407L52.8204 36.5235C52.7188 36.6251 52.6382 36.7456 52.5833 36.8783C52.5283 37.0111 52.5 37.1533 52.5 37.2969C52.5 37.4406 52.5283 37.5828 52.5833 37.7155C52.6382 37.8482 52.7188 37.9688 52.8204 38.0703C52.9219 38.1719 53.0425 38.2525 53.1752 38.3074C53.3079 38.3624 53.4501 38.3907 53.5938 38.3907C53.7374 38.3907 53.8796 38.3624 54.0124 38.3074C54.1451 38.2525 54.2656 38.1719 54.3672 38.0703L56.5547 35.8828C56.6563 35.7813 56.7368 35.6607 56.7918 35.528C56.8468 35.3953 56.8751 35.2531 56.8751 35.1094C56.8751 34.9658 56.8468 34.8235 56.7918 34.6908C56.7368 34.5581 56.6563 34.4376 56.5547 34.336Z" fill="#9AA3A8"/>
<path d="M42.6562 37.2969C43.8644 37.2969 44.8438 36.3175 44.8438 35.1094C44.8438 33.9013 43.8644 32.9219 42.6562 32.9219C41.4481 32.9219 40.4688 33.9013 40.4688 35.1094C40.4688 36.3175 41.4481 37.2969 42.6562 37.2969Z" fill="#7EC65C"/>
<path d="M42.6563 11.0469C37.8972 11.0469 33.2449 12.4581 29.2879 15.1021C25.3308 17.7462 22.2466 21.5042 20.4254 25.9011C18.6042 30.2979 18.1277 35.1361 19.0561 39.8037C19.9846 44.4714 22.2763 48.7589 25.6415 52.1241C29.0067 55.4893 33.2942 57.7811 37.9619 58.7095C42.6296 59.638 47.4677 59.1615 51.8646 57.3402C56.2614 55.519 60.0195 52.4348 62.6635 48.4778C65.3075 44.5207 66.7188 39.8685 66.7188 35.1094C66.7188 31.9494 66.0964 28.8205 64.8871 25.9011C63.6779 22.9817 61.9054 20.329 59.671 18.0946C57.4366 15.8602 54.784 14.0878 51.8646 12.8785C48.9452 11.6693 45.8162 11.0469 42.6563 11.0469ZM42.6563 54.7969C38.7624 54.7969 34.9561 53.6422 31.7185 51.4789C28.4809 49.3156 25.9575 46.2409 24.4674 42.6435C22.9773 39.046 22.5874 35.0875 23.3471 31.2685C24.1067 27.4495 25.9817 23.9416 28.7351 21.1882C31.4884 18.4349 34.9964 16.5598 38.8154 15.8002C42.6344 15.0405 46.5929 15.4304 50.1903 16.9205C53.7878 18.4106 56.8625 20.934 59.0258 24.1716C61.1891 27.4092 62.3438 31.2156 62.3438 35.1094C62.3438 40.3308 60.2696 45.3384 56.5774 49.0305C52.8853 52.7227 47.8777 54.7969 42.6563 54.7969Z" fill="#000000"/>
</svg>
