<svg width="26" height="27" viewBox="0 0 26 27" fill="none" xmlns="http://www.w3.org/2000/svg">
<path d="M24.5649 0H1.43506C1.05446 0 0.689443 0.157008 0.420318 0.436484C0.151193 0.71596 0 1.09501 0 1.49025V25.5101C9.57569e-05 25.9053 0.151331 26.2843 0.420446 26.5636C0.689561 26.843 1.05452 27 1.43506 27H13.8872V16.5443H10.4989V12.4695H13.8872V9.46425C13.8872 5.97675 15.9384 4.07812 18.9341 4.07812C20.3692 4.07812 21.6024 4.18875 21.9621 4.23862V7.88325L19.8842 7.88438C18.2549 7.88438 17.9396 8.68837 17.9396 9.86812V12.4699H21.8252L21.3193 16.5446H17.9396V27H24.5653C24.9458 26.9999 25.3108 26.8428 25.5798 26.5634C25.8489 26.2839 26 25.9049 26 25.5098V1.49025C26 1.09501 25.8488 0.71596 25.5797 0.436484C25.3106 0.157008 24.9455 0 24.5649 0Z" fill="white"/>
</svg>
