<svg width="235" height="198" viewBox="0 0 235 198" fill="none" xmlns="http://www.w3.org/2000/svg">
<path d="M192.148 10.0289L230.138 116.287C232.262 122.273 229.193 128.9 223.397 131.064L56.6524 193.892C50.7313 196.102 44.2265 193.049 42.1475 187.191L4.11205 80.8055C2.16863 75.3287 4.95095 69.0973 10.3682 67.0749L178.67 3.80986C184.087 1.78745 190.078 4.59916 192.148 10.0289Z" fill="#430A0C"/>
<path opacity="0.2" d="M192.148 10.0289L230.138 116.287C232.262 122.273 229.193 128.9 223.397 131.064L56.6524 193.892C50.7313 196.102 44.2265 193.049 42.1475 187.191L4.11205 80.8055C2.16863 75.3287 4.95095 69.0973 10.3682 67.0749L178.67 3.80986C184.087 1.78745 190.078 4.59916 192.148 10.0289Z" fill="#2E0507"/>
<path d="M51.4932 94.7539L26.6231 103.978C23.7195 105.055 20.4588 103.531 19.4151 100.609L14.4239 86.6346C13.3803 83.7127 14.9168 80.4093 17.8204 79.3323L42.5188 70.0277C45.4225 68.9507 48.6832 70.4749 49.7268 73.3968L54.7181 87.3714C55.8071 90.4203 54.3968 93.677 51.4932 94.7539Z" fill="#EC575E"/>
<path d="M121.44 103.512L32.4528 136.938L34.0331 141.34L123.02 107.914L121.44 103.512Z" fill="#F7787E"/>
<path d="M105.398 140.852L42.3428 164.426L43.9285 168.829L106.983 145.256L105.398 140.852Z" fill="#F7787E"/>
<path d="M133.803 36.106L89.3256 52.7344L90.9127 57.1419L135.39 40.5136L133.803 36.106Z" fill="#F7787E"/>
<path d="M170.093 44.1124C169.748 43.9515 169.402 43.7906 168.883 43.5492C168.71 43.4688 168.365 43.3079 168.192 43.2274C169.535 40.127 169.85 36.974 168.71 33.7825C167.57 30.5909 165.467 28.3349 162.355 26.8867C162.437 26.7118 162.646 26.4898 162.682 26.1872C162.845 25.8375 163.009 25.4877 163.254 24.9631C163.645 25.2517 164.164 25.4931 164.509 25.654C165.419 26.1839 166.248 26.8887 166.903 27.5131C167.777 28.3456 168.569 29.3529 169.234 30.4074C169.544 30.8709 169.772 31.5092 170.081 31.9726C170.127 32.1003 170.583 33.3769 170.583 33.3769C170.72 33.7599 170.857 34.1429 170.866 34.5731C171.104 35.6416 171.214 36.7573 171.197 37.9202C171.216 38.7806 171.062 39.5605 171.035 40.2932C170.882 41.0732 170.646 42.0279 170.319 42.7274C170.42 43.4129 170.257 43.7627 170.093 44.1124Z" fill="#66191D"/>
<path d="M161.983 29.4017C162.182 28.7496 162.554 28.178 162.753 27.5259C164.827 28.4913 166.355 29.9479 167.385 32.0232C168.906 35.0724 168.973 38.0829 167.631 41.1823C166.94 40.8605 166.421 40.6192 165.73 40.2974C166.71 38.1996 166.835 36.1297 166.06 33.96C165.33 31.918 163.929 30.4142 161.983 29.4017Z" fill="#66191D"/>
<path d="M165.099 38.2847C164.581 38.0434 163.891 37.7217 163.373 37.4804C163.862 36.4322 163.924 35.3978 163.514 34.2497C163.104 33.1016 162.404 32.35 161.368 31.8675C161.694 31.1687 161.939 30.6446 162.183 30.1205C165.2 31.3131 166.694 35.0929 165.099 38.2847Z" fill="#66191D"/>
</svg>
