<svg width="600" height="230" viewBox="0 0 600 230" fill="none" xmlns="http://www.w3.org/2000/svg">
<path d="M0 10C0 4.47715 4.47715 0 10 0H590C595.523 0 600 4.47715 600 10V230H0V10Z" fill="#FBF3FF"/>
<path d="M212.961 193.127C212.814 193.127 212.689 193.009 212.674 192.862L211.946 184.815C211.887 184.146 211.357 183.601 210.681 183.528L204.37 182.829C204.223 182.814 204.112 182.689 204.112 182.542C204.112 182.395 204.223 182.27 204.37 182.255L210.681 181.557C211.35 181.483 211.887 180.939 211.946 180.27L212.674 172.223C212.689 172.076 212.814 171.958 212.961 171.958C213.115 171.958 213.24 172.076 213.248 172.223L213.976 180.27C214.035 180.946 214.572 181.483 215.241 181.557L221.544 182.255C221.692 182.27 221.802 182.395 221.802 182.542C221.802 182.689 221.692 182.814 221.544 182.829L215.241 183.528C214.572 183.601 214.035 184.146 213.976 184.815L213.248 192.862C213.233 193.009 213.108 193.127 212.961 193.127ZM207.047 182.535L210.739 182.94C211.688 183.043 212.431 183.807 212.519 184.756L212.953 189.589L213.387 184.756C213.476 183.807 214.219 183.043 215.167 182.94L218.86 182.535L215.167 182.123C214.219 182.02 213.476 181.255 213.387 180.306L212.953 175.474L212.519 180.306C212.431 181.255 211.688 182.02 210.739 182.123L207.047 182.535Z" fill="#D98BFF"/>
<g opacity="0.5">
<path opacity="0.5" d="M221.803 210C221.656 210 221.523 209.883 221.516 209.735L221.023 204.256C220.986 203.844 220.655 203.506 220.243 203.461L215.948 202.983C215.801 202.969 215.69 202.844 215.69 202.696C215.69 202.549 215.801 202.424 215.948 202.41L220.243 201.931C220.655 201.887 220.986 201.549 221.023 201.137L221.516 195.657C221.531 195.51 221.656 195.393 221.803 195.393C221.95 195.393 222.082 195.51 222.09 195.657L222.582 201.137C222.619 201.549 222.95 201.887 223.362 201.931L227.658 202.41C227.805 202.424 227.915 202.549 227.915 202.696C227.915 202.844 227.805 202.969 227.658 202.983L223.362 203.461C222.95 203.506 222.619 203.844 222.582 204.256L222.09 209.735C222.082 209.883 221.957 210 221.803 210ZM218.625 202.696L220.31 202.88C220.994 202.954 221.538 203.513 221.604 204.197L221.81 206.462L222.016 204.197C222.075 203.506 222.619 202.954 223.311 202.88L224.995 202.696L223.311 202.513C222.627 202.439 222.082 201.88 222.016 201.196L221.81 198.93L221.604 201.196C221.545 201.887 221.001 202.439 220.31 202.513L218.625 202.696Z" fill="#D98BFF"/>
</g>
<path d="M206.341 116.295C206.231 116.295 206.143 116.214 206.135 116.104L205.62 110.36C205.576 109.882 205.201 109.492 204.716 109.44L200.214 108.94C200.111 108.925 200.03 108.837 200.03 108.734C200.03 108.631 200.111 108.543 200.214 108.528L204.716 108.028C205.194 107.977 205.576 107.587 205.62 107.109L206.135 101.364C206.143 101.254 206.238 101.173 206.341 101.173C206.451 101.173 206.54 101.254 206.547 101.364L207.062 107.109C207.106 107.587 207.489 107.977 207.967 108.028L212.468 108.528C212.571 108.543 212.652 108.631 212.652 108.734C212.652 108.837 212.571 108.925 212.468 108.94L207.967 109.44C207.489 109.492 207.106 109.882 207.062 110.36L206.547 116.104C206.54 116.214 206.444 116.295 206.341 116.295ZM202.127 108.741L204.76 109.036C205.436 109.109 205.966 109.654 206.032 110.33L206.341 113.78L206.65 110.33C206.709 109.654 207.246 109.109 207.923 109.036L210.556 108.741L207.923 108.447C207.246 108.374 206.716 107.829 206.65 107.153L206.341 103.703L206.032 107.153C205.973 107.829 205.436 108.374 204.76 108.447L202.127 108.741Z" fill="#D98BFF"/>
<g opacity="0.5">
<path opacity="0.5" d="M198.56 124.952C198.472 124.952 198.398 124.886 198.391 124.798L198.104 121.605C198.082 121.363 197.891 121.171 197.648 121.142L195.147 120.862C195.059 120.855 195 120.782 195 120.693C195 120.605 195.066 120.531 195.147 120.524L197.648 120.245C197.891 120.215 198.082 120.024 198.104 119.781L198.391 116.589C198.398 116.501 198.472 116.435 198.56 116.435C198.648 116.435 198.722 116.501 198.729 116.589L199.016 119.781C199.038 120.024 199.229 120.215 199.472 120.245L201.973 120.524C202.061 120.531 202.12 120.605 202.12 120.693C202.12 120.782 202.054 120.855 201.973 120.862L199.472 121.142C199.229 121.171 199.038 121.363 199.016 121.605L198.729 124.798C198.722 124.886 198.648 124.952 198.56 124.952ZM196.706 120.693L197.685 120.804C198.082 120.848 198.406 121.171 198.442 121.576L198.56 122.9L198.678 121.576C198.714 121.171 199.031 120.848 199.435 120.804L200.414 120.693L199.435 120.583C199.038 120.539 198.714 120.215 198.678 119.811L198.56 118.487L198.442 119.811C198.406 120.215 198.089 120.539 197.685 120.583L196.706 120.693Z" fill="#D98BFF"/>
</g>
<path d="M360.877 188.098C360.795 188.014 360.791 187.884 360.865 187.791L364.98 182.982C365.328 182.581 365.34 181.983 365.012 181.563L361.949 177.646C361.877 177.551 361.884 177.421 361.968 177.339C362.052 177.257 362.182 177.253 362.275 177.327L366.117 180.484C366.529 180.821 367.122 180.818 367.532 180.49L372.443 176.486C372.533 176.41 372.668 176.422 372.75 176.506C372.832 176.59 372.836 176.72 372.762 176.813L368.642 181.627C368.294 182.028 368.282 182.626 368.615 183.041L371.678 186.958C371.75 187.053 371.743 187.183 371.659 187.265C371.575 187.347 371.445 187.351 371.352 187.277L367.51 184.12C367.097 183.783 366.504 183.786 366.09 184.119L361.184 188.117C361.089 188.189 360.959 188.182 360.877 188.098ZM363.576 178.986L365.374 181.281C365.836 181.869 365.81 182.706 365.33 183.278L362.856 186.166L365.803 183.762C366.38 183.29 367.218 183.295 367.8 183.765L370.051 185.618L368.258 183.318C367.797 182.73 367.817 181.898 368.297 181.326L370.771 178.438L367.824 180.842C367.247 181.314 366.409 181.309 365.832 180.834L363.576 178.986Z" fill="#D98BFF"/>
<g opacity="0.5">
<path opacity="0.5" d="M380.6 192.834C380.533 192.765 380.529 192.656 380.593 192.584L382.882 189.907C383.056 189.706 383.06 189.404 382.896 189.194L381.19 187.015C381.128 186.942 381.135 186.833 381.203 186.766C381.271 186.699 381.381 186.695 381.453 186.758L383.59 188.516C383.796 188.685 384.098 188.689 384.303 188.519L387.034 186.295C387.108 186.233 387.217 186.24 387.284 186.308C387.351 186.376 387.354 186.486 387.291 186.558L385.002 189.235C384.828 189.436 384.824 189.738 384.988 189.948L386.694 192.126C386.756 192.2 386.744 192.304 386.676 192.371C386.607 192.438 386.498 192.441 386.431 192.383L384.293 190.626C384.087 190.457 383.786 190.453 383.581 190.623L380.85 192.847C380.776 192.909 380.667 192.902 380.6 192.834ZM382.524 188.108L383.19 188.959C383.461 189.31 383.45 189.804 383.165 190.144L382.221 191.251L383.35 190.334C383.692 190.052 384.191 190.058 384.536 190.337L385.37 191.024L384.704 190.173C384.433 189.821 384.444 189.327 384.729 188.987L385.673 187.88L384.544 188.798C384.203 189.08 383.703 189.074 383.358 188.794L382.524 188.108Z" fill="#D98BFF"/>
</g>
<g opacity="0.5">
<path opacity="0.5" d="M383.811 175.474C383.703 175.363 383.695 175.186 383.8 175.073L387.477 170.774C387.756 170.45 387.767 169.966 387.501 169.63L384.765 166.133C384.668 166.012 384.685 165.841 384.791 165.738C384.901 165.63 385.073 165.627 385.186 165.722L388.616 168.541C388.946 168.815 389.43 168.816 389.761 168.544L394.141 164.976C394.262 164.879 394.434 164.886 394.542 164.996C394.649 165.107 394.658 165.284 394.552 165.397L390.876 169.696C390.596 170.021 390.585 170.504 390.852 170.84L393.587 174.337C393.685 174.458 393.667 174.629 393.562 174.732C393.451 174.84 393.28 174.843 393.166 174.748L389.736 171.93C389.406 171.655 388.923 171.655 388.592 171.926L384.211 175.494C384.095 175.597 383.919 175.584 383.811 175.474ZM386.897 167.896L387.968 169.266C388.403 169.828 388.389 170.624 387.93 171.164L386.41 172.946L388.223 171.464C388.774 171.018 389.575 171.017 390.126 171.466L391.471 172.569L390.4 171.199C389.965 170.637 389.979 169.842 390.438 169.301L391.963 167.525L390.145 169.001C389.594 169.447 388.793 169.448 388.242 168.999L386.897 167.896Z" fill="#D98BFF"/>
</g>
<path d="M390.711 122.978C390.571 122.978 390.461 122.875 390.446 122.735L389.777 115.343C389.718 114.725 389.232 114.225 388.614 114.159L382.818 113.519C382.686 113.504 382.583 113.386 382.583 113.254C382.583 113.114 382.686 113.004 382.818 112.989L388.614 112.349C389.232 112.283 389.718 111.783 389.777 111.165L390.446 103.773C390.461 103.633 390.571 103.53 390.711 103.53C390.85 103.53 390.961 103.633 390.975 103.773L391.645 111.165C391.704 111.783 392.189 112.283 392.807 112.349L398.603 112.989C398.735 113.004 398.838 113.122 398.838 113.254C398.838 113.394 398.735 113.504 398.603 113.519L392.807 114.159C392.189 114.225 391.696 114.725 391.645 115.343L390.975 122.735C390.961 122.867 390.85 122.978 390.711 122.978ZM385.282 113.247L388.673 113.622C389.541 113.717 390.225 114.416 390.306 115.291L390.703 119.734L391.1 115.291C391.181 114.424 391.865 113.717 392.733 113.622L396.124 113.247L392.733 112.872C391.865 112.776 391.174 112.077 391.1 111.202L390.703 106.759L390.306 111.202C390.225 112.07 389.541 112.776 388.673 112.872L385.282 113.247Z" fill="#D98BFF"/>
<g opacity="0.5">
<path opacity="0.5" d="M380.184 104.411C380.074 104.411 379.978 104.323 379.963 104.212L379.595 100.101C379.566 99.7919 379.323 99.5418 379.014 99.5051L375.793 99.152C375.682 99.1373 375.602 99.049 375.602 98.9313C375.602 98.821 375.682 98.7254 375.793 98.7181L379.014 98.365C379.323 98.3282 379.573 98.0781 379.595 97.7692L379.963 93.6576C379.971 93.5473 380.066 93.459 380.184 93.459C380.294 93.459 380.39 93.5473 380.405 93.6576L380.772 97.7692C380.802 98.0781 381.044 98.3282 381.361 98.365L384.582 98.7181C384.693 98.7328 384.774 98.821 384.774 98.9313C384.774 99.0417 384.693 99.1373 384.582 99.152L381.361 99.5051C381.052 99.5418 380.802 99.7919 380.772 100.101L380.405 104.212C380.39 104.323 380.294 104.411 380.184 104.411ZM377.793 98.9313L379.059 99.0711C379.573 99.1299 379.985 99.5418 380.029 100.064L380.184 101.763L380.338 100.064C380.383 99.5492 380.794 99.1299 381.309 99.0711L382.574 98.9313L381.309 98.7916C380.794 98.7328 380.383 98.3209 380.338 97.7986L380.184 96.0995L380.029 97.7986C379.985 98.3135 379.573 98.7328 379.059 98.7916L377.793 98.9313Z" fill="#D98BFF"/>
</g>
<path d="M229.548 61.9934C229.415 61.9934 229.305 61.8904 229.29 61.758L228.65 54.6307C228.599 54.0349 228.128 53.5568 227.532 53.4906L221.95 52.8728C221.817 52.8581 221.722 52.7477 221.722 52.6153C221.722 52.483 221.817 52.3726 221.95 52.3579L227.532 51.7401C228.128 51.6739 228.599 51.1958 228.65 50.6L229.29 43.4727C229.305 43.3403 229.415 43.2373 229.548 43.2373C229.68 43.2373 229.79 43.3403 229.805 43.4727L230.445 50.6C230.497 51.1958 230.967 51.6739 231.563 51.7401L237.146 52.3579C237.278 52.3726 237.374 52.483 237.374 52.6153C237.374 52.7477 237.278 52.8581 237.146 52.8728L231.563 53.4906C230.967 53.5568 230.497 54.0349 230.445 54.6307L229.805 61.758C229.798 61.8978 229.68 61.9934 229.548 61.9934ZM224.318 52.6227L227.591 52.9831C228.43 53.0787 229.092 53.7481 229.165 54.5939L229.548 58.8747L229.93 54.5939C230.004 53.7554 230.666 53.0787 231.504 52.9831L234.777 52.6227L231.504 52.2623C230.666 52.1667 230.004 51.4973 229.93 50.6515L229.548 46.3707L229.165 50.6515C229.092 51.49 228.43 52.1667 227.591 52.2623L224.318 52.6227Z" fill="#D98BFF"/>
<g opacity="0.5">
<path opacity="0.5" d="M221.722 81.0656C221.611 81.0656 221.523 80.9847 221.516 80.8744L221.163 76.9613C221.133 76.6671 220.905 76.4244 220.604 76.395L217.536 76.0566C217.433 76.0419 217.353 75.9536 217.353 75.8507C217.353 75.7477 217.433 75.6594 217.536 75.6447L220.604 75.3064C220.898 75.277 221.133 75.0342 221.163 74.74L221.516 70.827C221.523 70.7167 221.619 70.6357 221.722 70.6357C221.832 70.6357 221.92 70.7167 221.928 70.827L222.281 74.74C222.31 75.0342 222.538 75.277 222.84 75.3064L225.907 75.6447C226.01 75.6594 226.091 75.7477 226.091 75.8507C226.091 75.9536 226.01 76.0419 225.907 76.0566L222.84 76.395C222.545 76.4244 222.31 76.6671 222.281 76.9613L221.928 80.8744C221.913 80.9847 221.825 81.0656 221.722 81.0656ZM219.449 75.8433L220.648 75.9757C221.141 76.0272 221.53 76.4244 221.574 76.9172L221.722 78.5427L221.869 76.9172C221.913 76.4244 222.303 76.0272 222.795 75.9757L223.994 75.8433L222.795 75.7109C222.303 75.6594 221.913 75.2622 221.869 74.7694L221.722 73.1439L221.574 74.7694C221.53 75.2622 221.141 75.6594 220.648 75.7109L219.449 75.8433Z" fill="#D98BFF"/>
</g>
<g opacity="0.5">
<path opacity="0.5" d="M247.229 65.1652C247.09 65.1652 246.972 65.0549 246.957 64.9151L246.494 59.7885C246.457 59.3986 246.155 59.0897 245.766 59.0456L241.75 58.6043C241.61 58.5896 241.507 58.4719 241.507 58.3321C241.507 58.1924 241.61 58.0747 241.75 58.06L245.766 57.6187C246.155 57.5745 246.457 57.2656 246.494 56.8758L246.957 51.7491C246.972 51.6094 247.09 51.499 247.229 51.499C247.369 51.499 247.487 51.6094 247.501 51.7491L247.965 56.8758C248.002 57.2656 248.303 57.5745 248.693 57.6187L252.709 58.06C252.849 58.0747 252.952 58.1924 252.952 58.3321C252.952 58.4719 252.849 58.5896 252.709 58.6043L248.693 59.0456C248.303 59.0897 248.002 59.3986 247.965 59.7885L247.501 64.9151C247.487 65.0549 247.369 65.1652 247.229 65.1652ZM244.258 58.3321L245.832 58.5087C246.472 58.5822 246.987 59.0971 247.045 59.7443L247.237 61.87L247.428 59.7443C247.487 59.0971 247.994 58.5822 248.634 58.5087L250.208 58.3321L248.634 58.1556C247.994 58.082 247.479 57.5672 247.428 56.9199L247.237 54.7942L247.045 56.9199C246.987 57.5672 246.479 58.082 245.832 58.1556L244.258 58.3321Z" fill="#D98BFF"/>
</g>
<g opacity="0.5">
<path opacity="0.5" d="M272.151 39.3118C272.056 39.3118 271.975 39.2383 271.967 39.1427L271.651 35.6489C271.629 35.3841 271.416 35.1708 271.151 35.1414L268.415 34.8398C268.319 34.8325 268.253 34.7515 268.253 34.6559C268.253 34.5603 268.326 34.4794 268.415 34.472L271.151 34.1705C271.416 34.1411 271.622 33.9277 271.651 33.663L271.967 30.1692C271.975 30.0736 272.056 30 272.151 30C272.247 30 272.328 30.0736 272.335 30.1692L272.651 33.663C272.673 33.9277 272.887 34.1411 273.152 34.1705L275.888 34.472C275.983 34.4794 276.05 34.5603 276.05 34.6559C276.05 34.7515 275.976 34.8325 275.888 34.8398L273.152 35.1414C272.887 35.1708 272.681 35.3841 272.651 35.6489L272.335 39.1427C272.328 39.2383 272.247 39.3118 272.151 39.3118ZM270.129 34.6559L271.202 34.7736C271.644 34.8251 271.989 35.1782 272.026 35.6121L272.159 37.0611L272.291 35.6121C272.328 35.1708 272.681 34.8177 273.115 34.7663L274.189 34.6486L273.115 34.5309C272.673 34.4794 272.328 34.1263 272.291 33.6924L272.159 32.2434L272.026 33.6924C271.989 34.1337 271.636 34.4868 271.202 34.5382L270.129 34.6559Z" fill="#D98BFF"/>
</g>
<g opacity="0.5">
<path opacity="0.5" d="M285.361 48.0064C285.214 48.0064 285.096 47.896 285.081 47.7563L284.61 42.5119C284.574 42.1148 284.257 41.7911 283.868 41.7543L279.756 41.2983C279.616 41.2836 279.506 41.1659 279.506 41.0188C279.506 40.8717 279.609 40.7614 279.756 40.7393L283.868 40.2833C284.265 40.2391 284.581 39.9229 284.61 39.5257L285.081 34.2813C285.096 34.1342 285.214 34.0312 285.361 34.0312C285.508 34.0312 285.626 34.1416 285.64 34.2813L286.111 39.5257C286.148 39.9229 286.464 40.2465 286.854 40.2833L290.965 40.7393C291.105 40.754 291.216 40.8717 291.216 41.0188C291.216 41.1659 291.113 41.2762 290.965 41.2983L286.854 41.7543C286.457 41.7985 286.14 42.1148 286.111 42.5119L285.64 47.7563C285.626 47.9034 285.5 48.0064 285.361 48.0064ZM282.316 41.0188L283.926 41.1953C284.581 41.2689 285.103 41.7985 285.162 42.4605L285.361 44.6303L285.559 42.4605C285.618 41.7985 286.14 41.2689 286.795 41.1953L288.406 41.0188L286.795 40.8423C286.14 40.7687 285.618 40.2391 285.559 39.5772L285.361 37.4073L285.162 39.5772C285.103 40.2391 284.581 40.7687 283.926 40.8423L282.316 41.0188Z" fill="#D98BFF"/>
</g>
<path d="M364.078 61.0396C363.975 61.0396 363.894 60.9587 363.879 60.8631L363.387 55.4202C363.343 54.9641 362.989 54.5964 362.533 54.5449L358.267 54.0741C358.172 54.0668 358.091 53.9785 358.091 53.8755C358.091 53.7726 358.164 53.6917 358.267 53.677L362.533 53.2062C362.989 53.1547 363.35 52.787 363.387 52.3309L363.879 46.8806C363.887 46.7777 363.975 46.7041 364.078 46.7041C364.181 46.7041 364.262 46.785 364.277 46.8806L364.769 52.3309C364.814 52.787 365.174 53.1547 365.623 53.2062L369.889 53.677C369.992 53.6843 370.065 53.7726 370.065 53.8755C370.065 53.9785 369.992 54.0594 369.889 54.0741L365.623 54.5449C365.167 54.5964 364.806 54.9641 364.769 55.4202L364.277 60.8631C364.262 60.9587 364.181 61.0396 364.078 61.0396ZM360.077 53.8682L362.578 54.1477C363.217 54.2212 363.725 54.7361 363.784 55.376L364.078 58.6492L364.372 55.376C364.431 54.7361 364.939 54.2212 365.579 54.1477L368.079 53.8682L365.579 53.5887C364.939 53.5151 364.431 53.0003 364.372 52.3604L364.078 49.0872L363.784 52.3604C363.725 53.0003 363.217 53.5151 362.578 53.5887L360.077 53.8682Z" fill="#D98BFF"/>
<g opacity="0.5">
<path opacity="0.5" d="M377.523 52.7502C377.391 52.7502 377.273 52.6472 377.258 52.5148L376.604 45.2551C376.552 44.6446 376.067 44.1591 375.464 44.0929L369.771 43.4677C369.638 43.453 369.535 43.3427 369.535 43.2103C369.535 43.0779 369.638 42.9676 369.771 42.9529L375.464 42.3203C376.067 42.2541 376.552 41.7613 376.604 41.1582L377.258 33.8985C377.273 33.7661 377.383 33.6631 377.523 33.6631C377.655 33.6631 377.773 33.7661 377.78 33.8985L378.435 41.1582C378.487 41.7687 378.972 42.2541 379.575 42.3203L385.268 42.9529C385.401 42.9676 385.504 43.0779 385.504 43.2103C385.504 43.3427 385.401 43.453 385.268 43.4677L379.575 44.0929C378.972 44.1591 378.487 44.6519 378.435 45.2551L377.788 52.5148C377.773 52.6472 377.663 52.7502 377.523 52.7502ZM372.19 43.1956L375.522 43.5634C376.376 43.659 377.052 44.3504 377.126 45.2036L377.523 49.5653L377.913 45.2036C377.994 44.3504 378.663 43.659 379.516 43.5634L382.848 43.1956L379.516 42.8278C378.663 42.7322 377.986 42.0482 377.913 41.1876L377.523 36.8259L377.126 41.1876C377.052 42.0408 376.376 42.7322 375.522 42.8278L372.19 43.1956Z" fill="#D98BFF"/>
</g>
<path d="M377.055 155.722L236.739 181.426L237.111 183.454L377.427 157.75L377.055 155.722Z" fill="#8948A8"/>
<path d="M378.867 157.487L235.674 183.718L236.045 185.746L379.238 159.515L378.867 157.487Z" fill="#6F368B"/>
<path d="M381.213 159.152L234.072 186.106L234.444 188.135L381.585 161.181L381.213 159.152Z" fill="#8948A8"/>
<path d="M366.218 79.1085L218.3 106.205L286.612 54.2414L366.218 79.1085Z" fill="#BE73E2"/>
<path d="M239.819 97.0021L342.794 77.9151L287.797 61.0015L239.819 97.0021Z" fill="#6F368B"/>
<path d="M363.078 79.6869L222.16 105.501L222.759 108.769L363.677 82.955L363.078 79.6869Z" fill="#8948A8"/>
<path d="M246.506 101.037L232.625 103.58L233.525 108.494L247.406 105.951L246.506 101.037Z" fill="#BE73E2"/>
<path d="M244.291 106.515L236.64 107.917L249.67 179.051L257.322 177.649L244.291 106.515Z" fill="#BE73E2"/>
<path d="M276.499 95.5432L262.618 98.0859L263.518 103L277.399 100.457L276.499 95.5432Z" fill="#BE73E2"/>
<path d="M274.284 101.022L266.633 102.424L279.664 173.558L287.315 172.156L274.284 101.022Z" fill="#BE73E2"/>
<path d="M323.647 86.9085L309.767 89.4512L310.667 94.3649L324.547 91.8222L323.647 86.9085Z" fill="#BE73E2"/>
<path d="M321.432 92.3865L313.78 93.7881L326.811 164.922L334.462 163.52L321.432 92.3865Z" fill="#BE73E2"/>
<path d="M351.888 81.7356L338.008 84.2783L338.908 89.1921L352.789 86.6493L351.888 81.7356Z" fill="#BE73E2"/>
<path d="M349.674 87.2136L342.022 88.6152L355.053 159.749L362.705 158.348L349.674 87.2136Z" fill="#BE73E2"/>
<path d="M292.508 77.2476C292.469 77.0138 292.401 76.8137 292.305 76.6464C292.209 76.4791 292.075 76.3364 291.9 76.2166C291.726 76.0968 291.51 75.9964 291.253 75.9129C290.996 75.8303 290.687 75.7591 290.325 75.6992C289.703 75.5924 289.134 75.4659 288.616 75.3215C288.098 75.1763 287.645 74.9853 287.253 74.7479C286.862 74.5104 286.539 74.2101 286.283 73.8465C286.028 73.483 285.855 73.0282 285.763 72.4829C285.684 72.0099 285.695 71.5644 285.797 71.1457C285.899 70.7278 286.082 70.3483 286.345 70.0058C286.608 69.6641 286.942 69.3657 287.346 69.1123C287.75 68.858 288.217 68.6611 288.749 68.5196L288.448 66.7321L289.887 66.4898L290.192 68.3021C290.718 68.2821 291.209 68.3403 291.663 68.4751C292.118 68.6108 292.519 68.8178 292.868 69.097C293.217 69.3761 293.509 69.7266 293.743 70.1481C293.978 70.5697 294.141 71.0586 294.235 71.6155L291.637 72.0527C291.525 71.3843 291.292 70.9098 290.94 70.6285C290.588 70.3472 290.163 70.2484 289.665 70.3322C289.396 70.3779 289.169 70.4543 288.987 70.5622C288.804 70.6702 288.662 70.8003 288.558 70.9517C288.454 71.1041 288.387 71.2738 288.357 71.4623C288.327 71.6508 288.329 71.8473 288.364 72.0534C288.399 72.2595 288.46 72.4406 288.547 72.5975C288.635 72.7543 288.765 72.8915 288.936 73.0093C289.106 73.1262 289.323 73.2271 289.587 73.3122C289.851 73.3972 290.174 73.4752 290.556 73.5486C291.174 73.6682 291.74 73.8018 292.255 73.9494C292.77 74.098 293.223 74.2918 293.614 74.5319C294.006 74.772 294.33 75.0742 294.585 75.4377C294.84 75.8012 295.013 76.2534 295.104 76.7933C295.186 77.2832 295.175 77.7379 295.069 78.1556C294.964 78.5741 294.779 78.952 294.516 79.2881C294.252 79.6244 293.914 79.9162 293.503 80.1626C293.092 80.409 292.621 80.603 292.089 80.7436L292.369 82.4052L290.939 82.6459L290.661 80.9923C290.155 81.0262 289.656 80.998 289.163 80.9098C288.67 80.8207 288.218 80.6497 287.805 80.3951C287.392 80.1414 287.038 79.7924 286.741 79.3499C286.445 78.9075 286.24 78.3526 286.128 77.6842L288.726 77.247C288.793 77.6422 288.903 77.9633 289.058 78.2089C289.214 78.4546 289.398 78.6416 289.61 78.7684C289.823 78.8959 290.052 78.9717 290.3 78.9961C290.547 79.0207 290.794 79.0114 291.04 78.971C291.322 78.9231 291.562 78.8459 291.763 78.7373C291.963 78.6289 292.125 78.499 292.247 78.3469C292.369 78.1948 292.452 78.0251 292.494 77.8371C292.539 77.6504 292.543 77.4537 292.508 77.2476Z" fill="#BE73E2"/>
<path d="M315.114 167.069L296.069 170.558L292.258 149.751C291.354 144.817 294.621 140.085 299.554 139.181L301.25 138.87C305.898 138.019 310.357 141.097 311.208 145.745L315.114 167.069Z" fill="#8948A8"/>
<path d="M291.071 124.954L282.081 126.601L280.281 116.778C279.855 114.449 281.396 112.216 283.726 111.789L284.526 111.642C286.72 111.241 288.825 112.694 289.227 114.888L291.071 124.954Z" fill="#8948A8"/>
<path d="M264.741 129.779L255.751 131.426L253.952 121.604C253.525 119.274 255.067 117.041 257.397 116.614L258.197 116.468C260.391 116.066 262.496 117.519 262.897 119.713L264.741 129.779Z" fill="#8948A8"/>
<path d="M270.264 159.915L261.274 161.561L259.475 151.739C259.048 149.41 260.59 147.177 262.919 146.75L263.719 146.603C265.913 146.202 268.018 147.655 268.42 149.849L270.264 159.915Z" fill="#8948A8"/>
<path d="M341.008 115.809L332.018 117.456L330.219 107.634C329.792 105.305 331.334 103.071 333.663 102.645L334.463 102.498C336.657 102.096 338.762 103.549 339.164 105.743L341.008 115.809Z" fill="#8948A8"/>
<path d="M346.528 145.947L337.538 147.594L335.738 137.772C335.312 135.442 336.854 133.209 339.183 132.782L339.983 132.636C342.177 132.234 344.282 133.687 344.684 135.881L346.528 145.947Z" fill="#8948A8"/>
<path d="M313.805 120.798L304.815 122.445L303.016 112.623C302.589 110.294 304.131 108.06 306.46 107.634L307.26 107.487C309.455 107.085 311.559 108.539 311.961 110.732L313.805 120.798Z" fill="#8948A8"/>
</svg>
