<svg width="24" height="24" viewBox="0 0 24 24" fill="none" xmlns="http://www.w3.org/2000/svg">
<path fill-rule="evenodd" clip-rule="evenodd" d="M1.84709 18.3954C0.677429 16.5439 0 14.3503 0 12C0 5.37714 5.37703 0 12 0C18.623 0 24 5.37703 24 12C24 18.623 18.623 24 12 24C9.64954 24 7.456 23.3226 5.60457 22.1529L0.838057 23.1621L1.84709 18.3954ZM9.67566 15.6543L10.3813 12.3233C10.4409 12.0983 10.4708 11.8588 10.4708 11.6043C10.4708 11.3048 10.3998 11.0914 10.2574 10.9639C10.1152 10.8369 9.87925 10.7733 9.54977 10.7733C9.28035 10.7733 9.04085 10.818 8.8308 10.9079C8.89085 10.1588 9.15669 9.58649 9.62834 9.18941C10.1002 8.79231 10.6582 8.59386 11.3022 8.59386C12.0207 8.59386 12.6013 8.81886 13.0433 9.26798C13.4848 9.71731 13.7058 10.3914 13.7058 11.2899C13.7058 11.6644 13.6458 12.1508 13.5264 12.7499L12.7648 16.347C12.7047 16.5713 12.6748 16.8108 12.6748 17.066C12.6748 17.3653 12.7462 17.5789 12.8882 17.7059C13.0308 17.8334 13.2663 17.897 13.5958 17.897C13.8659 17.897 14.1054 17.8519 14.3148 17.7624C14.2547 18.5109 13.9893 19.0838 13.5172 19.4809C13.0458 19.8773 12.4877 20.0758 11.8438 20.0758C11.1248 20.0758 10.5443 19.8514 10.1027 19.4019C9.66075 18.9528 9.43975 18.2789 9.43975 17.3805C9.43975 17.0059 9.49979 16.5189 9.61988 15.9199L9.67566 15.6543ZM13.3712 7.49606C12.8772 7.49606 12.4578 7.32351 12.1131 6.97909C11.7687 6.63467 11.5968 6.21549 11.5968 5.72103C11.5968 5.22706 11.7687 4.80361 12.1131 4.45206C12.4578 4.10005 12.8772 3.92416 13.3712 3.92416C13.8658 3.92416 14.2889 4.10005 14.6409 4.45206C14.9929 4.80362 15.1688 5.22703 15.1688 5.72103C15.1688 6.21545 14.9929 6.63463 14.6409 6.97909C14.2888 7.32351 13.8659 7.49606 13.3712 7.49606Z" fill="#57266E"/>
</svg>
