<svg width="270" height="240" viewBox="0 0 270 240" fill="none" xmlns="http://www.w3.org/2000/svg">
<g clip-path="url(#clip0_11178_95127)">
<path opacity="0.5" fill-rule="evenodd" clip-rule="evenodd" d="M302 247.004H65.0742C70.9017 244.343 76.5878 241.896 82.2739 239.448H82.274C110.725 227.203 139.174 214.958 185.321 175.973C231.474 136.984 249.175 110.234 266.876 83.4855C276.875 68.3761 286.874 53.2669 302 35.9523V247.004ZM689.708 -156.031H690.25L636.335 -228.828L636.045 -228.39L635.847 -228.09C635.492 -227.555 635.138 -227.019 634.784 -226.484L689.708 -156.031ZM757.612 148.04V154.579C758.415 153.452 759.231 152.32 760.061 151.182L757.612 148.04Z" fill="#6F368B"/>
<path opacity="0.8" fill-rule="evenodd" clip-rule="evenodd" d="M329.997 245.529H127.841C131.272 244.032 134.664 242.593 138.056 241.154C162.909 230.611 187.761 220.069 228.073 186.504C268.389 152.936 283.852 129.905 299.315 106.875C308.049 93.8677 316.784 80.8593 329.997 65.9522V245.529ZM727.997 160.324L730.953 164.061C729.944 165.412 728.96 166.752 727.997 168.084V160.324ZM621.475 -161.15L621.803 -161.64L622.056 -162.017L646.129 -129.981L621.475 -161.15Z" fill="#6F368B"/>
</g>
<defs>
<clipPath id="clip0_11178_95127">
<rect width="270" height="240" fill="white"/>
</clipPath>
</defs>
</svg>
