<svg width="250" height="221" viewBox="0 0 250 221" fill="none" xmlns="http://www.w3.org/2000/svg">
<path d="M22.0295 200.07C21.8491 200.07 21.6958 199.926 21.6777 199.745L20.7846 189.876C20.7125 189.055 20.063 188.388 19.233 188.298L11.493 187.441C11.3126 187.422 11.1772 187.269 11.1772 187.089C11.1772 186.908 11.3126 186.755 11.493 186.737L19.233 185.88C20.0539 185.79 20.7125 185.122 20.7846 184.301L21.6777 174.432C21.6958 174.252 21.8491 174.107 22.0295 174.107C22.219 174.107 22.3723 174.252 22.3814 174.432L23.2745 184.301C23.3466 185.131 24.0052 185.79 24.8261 185.88L32.5571 186.737C32.7375 186.755 32.8728 186.908 32.8728 187.089C32.8728 187.269 32.7375 187.422 32.5571 187.441L24.8261 188.298C24.0052 188.388 23.3466 189.055 23.2745 189.876L22.3814 199.745C22.3633 199.926 22.21 200.07 22.0295 200.07ZM14.7766 187.08L19.3052 187.576C20.4689 187.702 21.38 188.64 21.4883 189.804L22.0205 195.731L22.5528 189.804C22.661 188.64 23.5721 187.702 24.7359 187.576L29.2644 187.08L24.7359 186.574C23.5721 186.448 22.661 185.51 22.5528 184.346L22.0205 178.42L21.4883 184.346C21.38 185.51 20.4689 186.448 19.3052 186.574L14.7766 187.08Z" fill="#D98BFF"/>
<g opacity="0.5">
<path opacity="0.5" d="M32.8734 220.763C32.693 220.763 32.5306 220.619 32.5216 220.439L31.9172 213.718C31.8721 213.213 31.4661 212.798 30.961 212.744L25.6927 212.157C25.5123 212.139 25.377 211.986 25.377 211.806C25.377 211.625 25.5123 211.472 25.6927 211.454L30.961 210.867C31.4661 210.813 31.8721 210.398 31.9172 209.893L32.5216 203.172C32.5397 202.992 32.693 202.848 32.8734 202.848C33.0539 202.848 33.2162 202.992 33.2253 203.172L33.8297 209.893C33.8748 210.398 34.2807 210.813 34.7859 210.867L40.0542 211.454C40.2346 211.472 40.3699 211.625 40.3699 211.806C40.3699 211.986 40.2346 212.139 40.0542 212.157L34.7859 212.744C34.2807 212.798 33.8748 213.213 33.8297 213.718L33.2253 220.439C33.2162 220.619 33.0629 220.763 32.8734 220.763ZM28.9763 211.806L31.0422 212.031C31.8811 212.121 32.5487 212.807 32.6299 213.646L32.8825 216.424L33.135 213.646C33.2072 212.798 33.8748 212.121 34.7227 212.031L36.7886 211.806L34.7227 211.58C33.8838 211.49 33.2162 210.804 33.135 209.965L32.8825 207.187L32.6299 209.965C32.5577 210.813 31.8901 211.49 31.0422 211.58L28.9763 211.806Z" fill="#D98BFF"/>
</g>
<path d="M13.9103 105.838C13.775 105.838 13.6667 105.739 13.6577 105.604L13.0262 98.5583C12.9721 97.9719 12.512 97.4938 11.9166 97.4307L6.39575 96.8172C6.26946 96.7992 6.17023 96.6909 6.17023 96.5646C6.17023 96.4383 6.26946 96.3301 6.39575 96.312L11.9166 95.6986C12.503 95.6355 12.9721 95.1574 13.0262 94.571L13.6577 87.5256C13.6667 87.3903 13.784 87.291 13.9103 87.291C14.0456 87.291 14.1538 87.3903 14.1629 87.5256L14.7943 94.571C14.8485 95.1574 15.3176 95.6355 15.9039 95.6986L21.4248 96.312C21.5511 96.3301 21.6503 96.4383 21.6503 96.5646C21.6503 96.6909 21.5511 96.7992 21.4248 96.8172L15.9039 97.4307C15.3176 97.4938 14.8485 97.9719 14.7943 98.5583L14.1629 105.604C14.1538 105.739 14.0366 105.838 13.9103 105.838ZM8.74122 96.5737L11.9708 96.9345C12.8007 97.0247 13.4502 97.6923 13.5314 98.5222L13.9103 102.753L14.2892 98.5222C14.3613 97.6923 15.0199 97.0247 15.8498 96.9345L19.0793 96.5737L15.8498 96.2128C15.0199 96.1226 14.3703 95.4551 14.2892 94.6251L13.9103 90.3943L13.5314 94.6251C13.4592 95.4551 12.8007 96.1226 11.9708 96.2128L8.74122 96.5737Z" fill="#D98BFF"/>
<g opacity="0.5">
<path opacity="0.5" d="M4.36618 116.458C4.25793 116.458 4.16772 116.377 4.1587 116.269L3.80688 112.354C3.77981 112.056 3.54527 111.821 3.24757 111.785L0.180421 111.442C0.0721689 111.433 0 111.343 0 111.235C0 111.127 0.08119 111.036 0.180421 111.027L3.24757 110.685C3.54527 110.649 3.77981 110.414 3.80688 110.116L4.1587 106.201C4.16772 106.093 4.25793 106.012 4.36618 106.012C4.47443 106.012 4.56464 106.093 4.57366 106.201L4.92549 110.116C4.95255 110.414 5.18709 110.649 5.48479 110.685L8.55194 111.027C8.66019 111.036 8.73236 111.127 8.73236 111.235C8.73236 111.343 8.65117 111.433 8.55194 111.442L5.48479 111.785C5.18709 111.821 4.95255 112.056 4.92549 112.354L4.57366 116.269C4.56464 116.377 4.47443 116.458 4.36618 116.458ZM2.09288 111.235L3.29268 111.37C3.77981 111.424 4.17674 111.821 4.22184 112.317L4.36618 113.941L4.51052 112.317C4.55562 111.821 4.94353 111.424 5.43968 111.37L6.63948 111.235L5.43968 111.1C4.95255 111.045 4.55562 110.649 4.51052 110.152L4.36618 108.529L4.22184 110.152C4.17674 110.649 3.78883 111.045 3.29268 111.1L2.09288 111.235Z" fill="#D98BFF"/>
</g>
<path d="M212.139 205.221C211.994 205.221 211.877 205.112 211.859 204.968L211.164 197.237C211.11 196.587 210.596 196.064 209.947 195.992L203.884 195.325C203.74 195.306 203.632 195.189 203.632 195.045C203.632 194.901 203.74 194.783 203.884 194.765L209.947 194.098C210.596 194.025 211.101 193.502 211.164 192.862L211.859 185.122C211.868 184.977 211.994 184.869 212.139 184.869C212.283 184.869 212.4 184.977 212.418 185.122L213.113 192.862C213.167 193.511 213.681 194.034 214.331 194.098L220.393 194.765C220.537 194.783 220.646 194.901 220.646 195.045C220.646 195.189 220.537 195.306 220.393 195.325L214.331 195.992C213.681 196.064 213.176 196.587 213.113 197.237L212.418 204.968C212.4 205.112 212.283 205.221 212.139 205.221ZM206.455 195.045L210.01 195.433C210.921 195.532 211.634 196.272 211.724 197.183L212.139 201.829L212.554 197.183C212.635 196.272 213.357 195.541 214.268 195.433L217.822 195.045L214.268 194.648C213.357 194.549 212.644 193.818 212.554 192.907L212.139 188.261L211.724 192.907C211.643 193.818 210.921 194.549 210.01 194.648L206.455 195.045Z" fill="#D98BFF"/>
<g opacity="0.5">
<path opacity="0.5" d="M233.194 191.97C233.077 191.97 232.977 191.88 232.968 191.763L232.58 187.46C232.553 187.135 232.292 186.874 231.967 186.837L228.593 186.468C228.476 186.459 228.386 186.359 228.386 186.242C228.386 186.125 228.476 186.026 228.593 186.017L231.967 185.647C232.292 185.611 232.553 185.349 232.58 185.024L232.968 180.721C232.977 180.604 233.077 180.514 233.194 180.514C233.311 180.514 233.41 180.604 233.419 180.721L233.807 185.024C233.834 185.349 234.096 185.611 234.421 185.647L237.795 186.017C237.912 186.026 237.993 186.125 237.993 186.242C237.993 186.359 237.903 186.459 237.795 186.468L234.421 186.837C234.096 186.874 233.834 187.135 233.807 187.46L233.419 191.763C233.41 191.88 233.311 191.97 233.194 191.97ZM230.695 186.233L232.012 186.377C232.553 186.44 232.977 186.874 233.031 187.415L233.194 189.192L233.356 187.415C233.401 186.874 233.834 186.44 234.376 186.377L235.693 186.233L234.376 186.089C233.834 186.026 233.41 185.593 233.356 185.051L233.194 183.274L233.031 185.051C232.986 185.593 232.553 186.026 232.012 186.089L230.695 186.233Z" fill="#D98BFF"/>
</g>
<g opacity="0.5">
<path opacity="0.5" d="M220.709 174.279C220.519 174.279 220.357 174.134 220.348 173.945L219.726 167.035C219.681 166.512 219.266 166.088 218.742 166.033L213.33 165.438C213.14 165.42 213.005 165.258 213.005 165.077C213.005 164.888 213.149 164.734 213.33 164.716L218.742 164.121C219.266 164.067 219.681 163.643 219.726 163.12L220.348 156.219C220.366 156.029 220.519 155.885 220.709 155.885C220.898 155.885 221.061 156.029 221.07 156.219L221.692 163.129C221.737 163.652 222.152 164.076 222.675 164.13L228.088 164.725C228.278 164.743 228.413 164.906 228.413 165.086C228.413 165.276 228.269 165.429 228.088 165.447L222.675 166.042C222.152 166.097 221.737 166.521 221.692 167.044L221.07 173.945C221.061 174.134 220.898 174.279 220.709 174.279ZM216.704 165.077L218.824 165.312C219.69 165.411 220.375 166.106 220.456 166.972L220.718 169.831L220.971 166.972C221.052 166.106 221.737 165.402 222.603 165.303L224.723 165.068L222.603 164.834C221.737 164.734 221.052 164.04 220.971 163.174L220.718 160.314L220.456 163.174C220.375 164.04 219.69 164.743 218.824 164.843L216.704 165.077Z" fill="#D98BFF"/>
</g>
<path d="M240.032 114.033C239.86 114.033 239.725 113.907 239.707 113.736L238.886 104.669C238.814 103.912 238.219 103.298 237.461 103.217L230.352 102.432C230.19 102.414 230.063 102.27 230.063 102.107C230.063 101.936 230.19 101.801 230.352 101.783L237.461 100.998C238.219 100.917 238.814 100.303 238.886 99.5455L239.707 90.4793C239.725 90.3079 239.86 90.1816 240.032 90.1816C240.203 90.1816 240.338 90.3079 240.356 90.4793L241.177 99.5455C241.25 100.303 241.845 100.917 242.603 100.998L249.711 101.783C249.874 101.801 250 101.945 250 102.107C250 102.279 249.874 102.414 249.711 102.432L242.603 103.217C241.845 103.298 241.241 103.912 241.177 104.669L240.356 113.736C240.338 113.898 240.203 114.033 240.032 114.033ZM233.374 102.098L237.533 102.558C238.597 102.676 239.436 103.533 239.536 104.606L240.023 110.055L240.51 104.606C240.609 103.542 241.448 102.676 242.512 102.558L246.671 102.098L242.512 101.638C241.448 101.521 240.6 100.664 240.51 99.5906L240.023 94.1419L239.536 99.5906C239.436 100.655 238.597 101.521 237.533 101.638L233.374 102.098Z" fill="#D98BFF"/>
<g opacity="0.5">
<path opacity="0.5" d="M227.123 91.2643C226.987 91.2643 226.87 91.1561 226.852 91.0208L226.401 85.978C226.365 85.5991 226.067 85.2924 225.688 85.2473L221.737 84.8143C221.602 84.7963 221.502 84.688 221.502 84.5437C221.502 84.4084 221.602 84.2911 221.737 84.2821L225.688 83.8491C226.067 83.804 226.374 83.4972 226.401 83.1184L226.852 78.0756C226.861 77.9403 226.978 77.832 227.123 77.832C227.258 77.832 227.375 77.9403 227.393 78.0756L227.844 83.1184C227.88 83.4972 228.178 83.804 228.566 83.8491L232.517 84.2821C232.652 84.3001 232.752 84.4084 232.752 84.5437C232.752 84.679 232.652 84.7963 232.517 84.8143L228.566 85.2473C228.187 85.2924 227.88 85.5991 227.844 85.978L227.393 91.0208C227.375 91.1561 227.258 91.2643 227.123 91.2643ZM224.191 84.5437L225.742 84.7151C226.374 84.7873 226.879 85.2924 226.933 85.9329L227.123 88.0168L227.312 85.9329C227.366 85.3014 227.871 84.7873 228.503 84.7151L230.054 84.5437L228.503 84.3723C227.871 84.3001 227.366 83.7949 227.312 83.1544L227.123 81.0706L226.933 83.1544C226.879 83.7859 226.374 84.3001 225.742 84.3723L224.191 84.5437Z" fill="#D98BFF"/>
</g>
<path d="M42.3724 39.24C42.21 39.24 42.0747 39.1137 42.0566 38.9513L41.2718 30.2099C41.2086 29.4792 40.6313 28.8928 39.9006 28.8116L33.0536 28.0539C32.8913 28.0358 32.774 27.9005 32.774 27.7381C32.774 27.5758 32.8913 27.4405 33.0536 27.4224L39.9006 26.6646C40.6313 26.5834 41.2086 25.9971 41.2718 25.2664L42.0566 16.525C42.0747 16.3626 42.21 16.2363 42.3724 16.2363C42.5347 16.2363 42.6701 16.3626 42.6881 16.525L43.4729 25.2664C43.5361 25.9971 44.1134 26.5834 44.8441 26.6646L51.6911 27.4224C51.8535 27.4405 51.9707 27.5758 51.9707 27.7381C51.9707 27.9005 51.8535 28.0358 51.6911 28.0539L44.8441 28.8116C44.1134 28.8928 43.5361 29.4792 43.4729 30.2099L42.6881 38.9513C42.6791 39.1227 42.5347 39.24 42.3724 39.24ZM35.9584 27.7472L39.9728 28.1892C41.0012 28.3065 41.8131 29.1274 41.9033 30.1648L42.3724 35.415L42.8415 30.1648C42.9317 29.1364 43.7436 28.3065 44.772 28.1892L48.7863 27.7472L44.772 27.3051C43.7436 27.1879 42.9317 26.3669 42.8415 25.3295L42.3724 20.0793L41.9033 25.3295C41.8131 26.3579 41.0012 27.1879 39.9728 27.3051L35.9584 27.7472Z" fill="#D98BFF"/>
<g opacity="0.5">
<path opacity="0.5" d="M32.7741 62.6317C32.6388 62.6317 32.5305 62.5324 32.5215 62.3971L32.0885 57.5979C32.0524 57.2371 31.7727 56.9394 31.4029 56.9033L27.6411 56.4883C27.5148 56.4703 27.4156 56.3621 27.4156 56.2358C27.4156 56.1095 27.5148 56.0012 27.6411 55.9832L31.4029 55.5682C31.7637 55.5321 32.0524 55.2344 32.0885 54.8736L32.5215 50.0744C32.5305 49.9391 32.6478 49.8398 32.7741 49.8398C32.9094 49.8398 33.0176 49.9391 33.0267 50.0744L33.4597 54.8736C33.4958 55.2344 33.7754 55.5321 34.1453 55.5682L37.9071 55.9832C38.0333 56.0012 38.1326 56.1095 38.1326 56.2358C38.1326 56.3621 38.0333 56.4703 37.9071 56.4883L34.1453 56.9033C33.7844 56.9394 33.4958 57.2371 33.4597 57.5979L33.0267 62.3971C33.0086 62.5324 32.9004 62.6317 32.7741 62.6317ZM29.9866 56.2267L31.457 56.3891C32.0614 56.4523 32.5395 56.9394 32.5937 57.5438L32.7741 59.5375L32.9545 57.5438C33.0086 56.9394 33.4867 56.4523 34.0912 56.3891L35.5616 56.2267L34.0912 56.0644C33.4867 56.0012 33.0086 55.5141 32.9545 54.9097L32.7741 52.916L32.5937 54.9097C32.5395 55.5141 32.0614 56.0012 31.457 56.0644L29.9866 56.2267Z" fill="#D98BFF"/>
</g>
<g opacity="0.5">
<path opacity="0.5" d="M64.0589 43.1283C63.8875 43.1283 63.7431 42.9929 63.7251 42.8215L63.1568 36.5339C63.1117 36.0558 62.7418 35.6769 62.2637 35.6228L57.3382 35.0815C57.1668 35.0635 57.0405 34.9191 57.0405 34.7477C57.0405 34.5763 57.1668 34.432 57.3382 34.4139L62.2637 33.8727C62.7418 33.8186 63.1117 33.4397 63.1568 32.9616L63.7251 26.6739C63.7431 26.5025 63.8875 26.3672 64.0589 26.3672C64.2303 26.3672 64.3746 26.5025 64.3927 26.6739L64.961 32.9616C65.0061 33.4397 65.376 33.8186 65.8541 33.8727L70.7796 34.4139C70.951 34.432 71.0772 34.5763 71.0772 34.7477C71.0772 34.9191 70.951 35.0635 70.7796 35.0815L65.8541 35.6228C65.376 35.6769 65.0061 36.0558 64.961 36.5339L64.3927 42.8215C64.3746 42.9929 64.2303 43.1283 64.0589 43.1283ZM60.4144 34.7477L62.3449 34.9642C63.1297 35.0544 63.7612 35.6859 63.8334 36.4798L64.0679 39.0868L64.3025 36.4798C64.3746 35.6859 64.9971 35.0544 65.7819 34.9642L67.7124 34.7477L65.7819 34.5312C64.9971 34.441 64.3656 33.8095 64.3025 33.0157L64.0679 30.4086L63.8334 33.0157C63.7612 33.8095 63.1387 34.441 62.3449 34.5312L60.4144 34.7477Z" fill="#D98BFF"/>
</g>
<g opacity="0.5">
<path opacity="0.5" d="M94.622 11.4206C94.5047 11.4206 94.4055 11.3304 94.3964 11.2131L94.0085 6.92815C93.9815 6.6034 93.7199 6.34179 93.3951 6.3057L90.0393 5.93584C89.922 5.92682 89.8408 5.82759 89.8408 5.71031C89.8408 5.59304 89.931 5.49381 90.0393 5.48479L93.3951 5.11493C93.7199 5.07884 93.9724 4.81723 94.0085 4.49247L94.3964 0.207483C94.4055 0.0902099 94.5047 0 94.622 0C94.7392 0 94.8385 0.0902099 94.8475 0.207483L95.2354 4.49247C95.2625 4.81723 95.5241 5.07884 95.8488 5.11493L99.2047 5.48479C99.3219 5.49381 99.4031 5.59304 99.4031 5.71031C99.4031 5.82759 99.3129 5.92682 99.2047 5.93584L95.8488 6.3057C95.5241 6.34179 95.2715 6.6034 95.2354 6.92815L94.8475 11.2131C94.8385 11.3304 94.7392 11.4206 94.622 11.4206ZM92.1412 5.71031L93.4583 5.85465C93.9995 5.9178 94.4235 6.35081 94.4686 6.88305L94.631 8.66019L94.7934 6.88305C94.8385 6.34179 95.2715 5.90878 95.8037 5.84563L97.1208 5.70129L95.8037 5.55696C95.2625 5.49381 94.8385 5.0608 94.7934 4.52856L94.631 2.75141L94.4686 4.52856C94.4235 5.06982 93.9905 5.50283 93.4583 5.56598L92.1412 5.71031Z" fill="#D98BFF"/>
</g>
<g opacity="0.5">
<path opacity="0.5" d="M110.824 22.0872C110.643 22.0872 110.499 21.9519 110.481 21.7805L109.903 15.3485C109.858 14.8614 109.47 14.4645 108.992 14.4193L103.95 13.86C103.778 13.842 103.643 13.6977 103.643 13.5172C103.643 13.3368 103.769 13.2015 103.95 13.1744L108.992 12.6151C109.479 12.561 109.867 12.1731 109.903 11.686L110.481 5.25398C110.499 5.07356 110.643 4.94727 110.824 4.94727C111.004 4.94727 111.148 5.08258 111.166 5.25398L111.744 11.686C111.789 12.1731 112.177 12.57 112.655 12.6151L117.698 13.1744C117.869 13.1925 118.004 13.3368 118.004 13.5172C118.004 13.6977 117.878 13.833 117.698 13.86L112.655 14.4193C112.168 14.4735 111.78 14.8614 111.744 15.3485L111.166 21.7805C111.148 21.9609 110.995 22.0872 110.824 22.0872ZM107.089 13.5172L109.064 13.7338C109.867 13.824 110.508 14.4735 110.58 15.2854L110.824 17.9466L111.067 15.2854C111.139 14.4735 111.78 13.824 112.583 13.7338L114.558 13.5172L112.583 13.3007C111.78 13.2105 111.139 12.561 111.067 11.7491L110.824 9.08792L110.58 11.7491C110.508 12.561 109.867 13.2105 109.064 13.3007L107.089 13.5172Z" fill="#D98BFF"/>
</g>
<path d="M207.366 38.0703C207.24 38.0703 207.141 37.971 207.123 37.8538L206.518 31.1782C206.464 30.6189 206.031 30.1679 205.472 30.1047L200.24 29.5274C200.122 29.5183 200.023 29.4101 200.023 29.2838C200.023 29.1575 200.113 29.0583 200.24 29.0402L205.472 28.4629C206.031 28.3997 206.473 27.9487 206.518 27.3894L207.123 20.7048C207.132 20.5785 207.24 20.4883 207.366 20.4883C207.493 20.4883 207.592 20.5875 207.61 20.7048L208.214 27.3894C208.268 27.9487 208.71 28.3997 209.261 28.4629L214.493 29.0402C214.619 29.0492 214.709 29.1575 214.709 29.2838C214.709 29.4101 214.619 29.5093 214.493 29.5274L209.261 30.1047C208.701 30.1679 208.259 30.6189 208.214 31.1782L207.61 37.8538C207.592 37.971 207.493 38.0703 207.366 38.0703ZM202.459 29.2748L205.526 29.6176C206.311 29.7078 206.933 30.3392 207.006 31.1241L207.366 35.1384L207.727 31.1241C207.799 30.3392 208.422 29.7078 209.207 29.6176L212.274 29.2748L209.207 28.932C208.422 28.8418 207.799 28.2103 207.727 27.4255L207.366 23.4111L207.006 27.4255C206.933 28.2103 206.311 28.8418 205.526 28.932L202.459 29.2748Z" fill="#D98BFF"/>
<g opacity="0.5">
<path opacity="0.5" d="M223.857 27.9018C223.695 27.9018 223.55 27.7755 223.532 27.6131L222.729 18.7093C222.666 17.9606 222.071 17.3652 221.331 17.284L214.349 16.5172C214.186 16.4992 214.06 16.3639 214.06 16.2015C214.06 16.0391 214.186 15.9038 214.349 15.8857L221.331 15.1099C222.071 15.0287 222.666 14.4243 222.729 13.6846L223.532 4.78086C223.55 4.61848 223.686 4.49219 223.857 4.49219C224.019 4.49219 224.164 4.61848 224.173 4.78086L224.976 13.6846C225.039 14.4334 225.634 15.0287 226.374 15.1099L233.356 15.8857C233.518 15.9038 233.645 16.0391 233.645 16.2015C233.645 16.3639 233.518 16.4992 233.356 16.5172L226.374 17.284C225.634 17.3652 225.039 17.9696 224.976 18.7093L224.182 27.6131C224.164 27.7755 224.028 27.9018 223.857 27.9018ZM217.317 16.1834L221.403 16.6345C222.45 16.7518 223.28 17.5997 223.37 18.6462L223.857 23.9957L224.335 18.6462C224.434 17.5997 225.255 16.7518 226.302 16.6345L230.388 16.1834L226.302 15.7324C225.255 15.6151 224.425 14.7762 224.335 13.7207L223.857 8.37123L223.37 13.7207C223.28 14.7671 222.45 15.6151 221.403 15.7324L217.317 16.1834Z" fill="#D98BFF"/>
</g>
<path d="M192.347 47.0037L225.974 138.71C227.855 143.877 225.198 149.574 220.142 151.414L74.6524 204.866C69.486 206.746 63.7885 204.09 61.9481 199.033L28.2807 107.217C26.5604 102.49 28.9674 97.1326 33.6941 95.4122L180.542 41.5904C185.269 39.87 190.517 42.317 192.347 47.0037Z" fill="#3F1951"/>
<path opacity="0.2" d="M192.347 47.0037L225.974 138.71C227.855 143.877 225.198 149.574 220.142 151.414L74.6524 204.866C69.486 206.746 63.7885 204.09 61.9481 199.033L28.2807 107.217C26.5604 102.49 28.9674 97.1326 33.6941 95.4122L180.542 41.5904C185.269 39.87 190.517 42.317 192.347 47.0037Z" fill="#20082B"/>
<path d="M78.7249 120.969L57.0699 128.85C54.5416 129.771 51.6929 128.442 50.7727 125.914L46.3717 113.822C45.4515 111.294 46.7799 108.445 49.3081 107.525L70.8132 99.5736C73.3414 98.6533 76.1902 99.9817 77.1104 102.51L81.5114 114.602C82.4716 117.24 81.2531 120.048 78.7249 120.969Z" fill="#6F368B"/>
<path d="M146.021 144.791L68.1584 173.359L69.5687 177.203L147.431 148.634L146.021 144.791Z" fill="#A35CC5"/>
<path d="M126.357 161.563L71.2277 181.791L72.638 185.635L127.768 165.407L126.357 161.563Z" fill="#A35CC5"/>
<path d="M150.925 70.3589L112.049 84.623L113.459 88.4667L152.335 74.2026L150.925 70.3589Z" fill="#A35CC5"/>
<path d="M185.228 76.3571C184.928 76.2172 184.628 76.0774 184.178 75.8677C184.028 75.7978 183.728 75.6579 183.578 75.588C184.727 72.9292 184.986 70.2207 183.986 67.4726C182.985 64.7245 181.156 62.7762 178.457 61.5178C178.527 61.3678 178.707 61.1779 178.737 60.918C178.877 60.6182 179.016 60.3183 179.226 59.8685C179.566 60.1182 180.016 60.328 180.316 60.4678C181.105 60.9273 181.825 61.5368 182.395 62.0763C183.155 62.7956 183.845 63.6649 184.425 64.5742C184.694 64.9739 184.895 65.5235 185.165 65.9232C185.205 66.0331 185.605 67.1324 185.605 67.1324C185.725 67.4621 185.845 67.7919 185.855 68.1617C186.065 69.0811 186.165 70.0405 186.155 71.0399C186.176 71.7795 186.046 72.4491 186.026 73.0788C185.896 73.7484 185.697 74.568 185.417 75.1677C185.507 75.7573 185.367 76.0572 185.228 76.3571Z" fill="#8948A8"/>
<path d="M177.14 64.7395C177.31 64.1797 177.629 63.6899 177.799 63.1302C179.598 63.9692 180.928 65.2281 181.828 67.0167C183.158 69.6448 183.229 72.2333 182.08 74.8921C181.48 74.6124 181.031 74.4027 180.431 74.123C181.27 72.3238 181.369 70.5448 180.689 68.6761C180.049 66.9173 178.829 65.6185 177.14 64.7395Z" fill="#8948A8"/>
<path d="M178.93 73.4221C178.481 73.2124 177.881 72.9327 177.431 72.723C177.851 71.8234 177.9 70.9339 177.54 69.9446C177.18 68.9553 176.57 68.3058 175.671 67.8863C175.95 67.2866 176.16 66.8368 176.37 66.387C178.989 67.4256 180.299 70.6833 178.93 73.4221Z" fill="#8948A8"/>
</svg>
