<svg width="70" height="61" viewBox="0 0 70 61" fill="none" xmlns="http://www.w3.org/2000/svg">
<rect x="0.15" y="0.454688" width="69.7" height="59.7" rx="3.85" fill="#F8FEF5"/>
<path d="M43.8985 21.1947H38.983C38.6439 19.2456 37.0339 17.8047 35 17.8047C32.966 17.8047 31.3557 19.2453 31.0169 21.1947H26.1014C25.0845 21.1947 24.1523 22.0423 24.1523 23.1438V23.9914C24.1523 25.0084 24.9999 25.9405 26.1014 25.9405H43.8985C44.9155 25.9405 45.8476 25.0929 45.8476 23.9914V23.1438C45.8476 22.042 44.9155 21.1947 43.8985 21.1947ZM35 19.0759C36.2712 19.0759 37.373 20.008 37.7118 21.1947H32.3727C32.6269 19.9235 33.7288 19.0759 35 19.0759Z" fill="#518C36"/>
<path d="M25.9323 39.5846C25.9323 41.3643 27.3729 42.8049 29.1526 42.8049H41.0171C42.7968 42.8049 44.2374 41.3643 44.2374 39.5846L44.2377 26.7031H25.9321L25.9323 39.5846ZM38.6445 31.1103C38.6445 30.7712 38.8987 30.4324 39.3223 30.4324C39.6614 30.4324 40.0002 30.6866 40.0002 31.1103V37.89C40.0002 38.2291 39.746 38.5679 39.3223 38.5679C38.9833 38.5679 38.6445 38.3136 38.6445 37.89V31.1103ZM34.4069 31.1103C34.4069 30.7712 34.6611 30.4324 35.0848 30.4324C35.4238 30.4324 35.7626 30.6866 35.7626 31.1103V37.89C35.7626 38.2291 35.5084 38.5679 35.0848 38.5679C34.7457 38.5679 34.4069 38.3136 34.4069 37.89V31.1103ZM30.1696 31.1103C30.1696 30.7712 30.4238 30.4324 30.8475 30.4324C31.1866 30.4324 31.5253 30.6866 31.5253 31.1103V37.89C31.5253 38.2291 31.2711 38.5679 30.8475 38.5679C30.5084 38.5679 30.1696 38.3136 30.1696 37.89V31.1103Z" fill="#518C36"/>
<rect x="0.15" y="0.454688" width="69.7" height="59.7" rx="3.85" stroke="#000000" stroke-width="0.3"/>
</svg>
