<svg width="35" height="37" viewBox="0 0 35 37" fill="none" xmlns="http://www.w3.org/2000/svg">
<rect y="0.226562" width="35" height="36.688" rx="5" fill="#D0E8FF"/>
<path d="M24.9784 19.7726C25.0108 19.8935 24.994 20.0226 24.9314 20.131C24.8688 20.2395 24.7656 20.3187 24.6446 20.3512L22.5137 20.922L24.5533 22.0972C24.6643 22.1585 24.7458 22.2619 24.7797 22.3841C24.8136 22.5061 24.797 22.6368 24.7336 22.7466C24.6702 22.8564 24.5654 22.936 24.4426 22.9677C24.3199 22.9994 24.1896 22.9804 24.081 22.915L22.0453 21.7398L22.6161 23.8715V23.8714C22.6485 23.9924 22.6316 24.1214 22.569 24.2298C22.5065 24.3384 22.4033 24.4175 22.2823 24.45C22.2425 24.4607 22.2015 24.4663 22.1603 24.4665C21.9466 24.4664 21.7596 24.3226 21.7046 24.1162L20.8899 21.073L17.9725 19.3884V22.756L20.2003 24.9837C20.29 25.072 20.3409 25.1925 20.3414 25.3183C20.3421 25.4443 20.2922 25.5653 20.2033 25.6544C20.1143 25.7434 19.9935 25.7933 19.8675 25.7929C19.7415 25.7925 19.6211 25.7417 19.5326 25.652L17.9725 24.0918V26.4423C17.9725 26.7032 17.761 26.9146 17.5002 26.9146C17.2394 26.9146 17.0279 26.7032 17.0279 26.4423V24.0918L15.4677 25.6552C15.3793 25.7449 15.2588 25.7956 15.1328 25.796C15.0069 25.7964 14.886 25.7466 14.7971 25.6575C14.7081 25.5684 14.6583 25.4475 14.659 25.3215C14.6595 25.1956 14.7104 25.0751 14.8001 24.9869L17.0279 22.7591V19.3884L14.1106 21.073L13.2958 24.1155C13.2407 24.322 13.0537 24.4656 12.8401 24.4657C12.7988 24.4655 12.7579 24.4599 12.7181 24.4493C12.5971 24.4168 12.4939 24.3376 12.4313 24.2291C12.3687 24.1206 12.3518 23.9917 12.3843 23.8706L12.955 21.7389L10.9194 22.9158C10.8108 22.9812 10.6804 23.0002 10.5577 22.9686C10.4349 22.9368 10.3302 22.8572 10.2668 22.7474C10.2034 22.6377 10.1868 22.5069 10.2206 22.3849C10.2545 22.2627 10.3361 22.1593 10.447 22.098L12.4827 20.9228L10.3518 20.352C10.099 20.2846 9.94866 20.0251 10.0161 19.7722C10.0835 19.5194 10.3431 19.3691 10.5959 19.4365L13.643 20.2544L16.5556 18.5706L13.643 16.8868L10.5959 17.7046C10.5561 17.7154 10.5151 17.721 10.4738 17.7212C10.2363 17.7218 10.0354 17.5458 10.0044 17.3105C9.97358 17.075 10.1222 16.8532 10.3518 16.7923L12.4827 16.2216L10.4471 15.044C10.2265 14.9113 10.1529 14.6262 10.2817 14.4033C10.4104 14.1803 10.694 14.1015 10.9194 14.2261L12.955 15.4014L12.3835 13.2698C12.3453 13.147 12.3586 13.014 12.4205 12.9013C12.4826 12.7888 12.5877 12.7063 12.7119 12.6729C12.836 12.6396 12.9685 12.6582 13.0785 12.7247C13.1885 12.7912 13.2667 12.8995 13.295 13.0249L14.1106 16.0682L17.0279 17.7528V14.3852L14.8001 12.1574C14.6147 11.9731 14.6139 11.6734 14.7983 11.488C14.9825 11.3026 15.2823 11.3016 15.4677 11.486L17.0279 13.0493V10.6989C17.0279 10.4379 17.2394 10.2266 17.5002 10.2266C17.761 10.2266 17.9725 10.4379 17.9725 10.6989V13.0493L19.5327 11.486C19.7177 11.3043 20.0146 11.3056 20.1979 11.489C20.3812 11.6726 20.3823 11.9695 20.2003 12.1543L17.9725 14.3852V17.7528L20.8898 16.0682L21.7045 13.0249H21.7046C21.7329 12.8995 21.8111 12.7912 21.9211 12.7247C22.0311 12.6582 22.1636 12.6396 22.2877 12.673C22.4119 12.7063 22.517 12.7888 22.5791 12.9013C22.641 13.014 22.6543 13.147 22.6161 13.2698L22.0454 15.4015L24.081 14.2254C24.3064 14.1007 24.59 14.1795 24.7187 14.4025C24.8474 14.6255 24.7739 14.9105 24.5533 15.0432L22.5177 16.2193L24.6486 16.7901V16.79C24.8781 16.8509 25.0268 17.0726 24.996 17.3081C24.965 17.5435 24.764 17.7194 24.5266 17.7189C24.4853 17.7186 24.4443 17.7131 24.4045 17.7023L21.3573 16.8868L18.4448 18.5706L21.3573 20.2544L24.4045 19.4365C24.6557 19.3721 24.9117 19.5221 24.9784 19.7726L24.9784 19.7726Z" fill="#1F5182"/>
</svg>
