<svg width="70" height="61" viewBox="0 0 70 61" fill="none" xmlns="http://www.w3.org/2000/svg">
<rect x="0.15" y="0.454688" width="69.7" height="59.7" rx="3.85" fill="#F0F2FF"/>
<path d="M35.0001 42.8047C34.7378 42.8047 34.4909 42.6811 34.3335 42.4713L29.3334 35.8046C29.144 35.5521 29.1136 35.2142 29.2548 34.9318C29.3959 34.6494 29.6844 34.4712 30.0001 34.4712L34.1667 34.4712L34.1667 18.6381C34.1667 18.1777 34.54 17.8047 35.0001 17.8047C35.4602 17.8047 35.8335 18.1777 35.8335 18.6381V34.4712H40.0002C40.3157 34.4712 40.6042 34.6494 40.7455 34.9318C40.8866 35.2142 40.8562 35.5521 40.6668 35.8046L35.6667 42.4713C35.5093 42.6811 35.2624 42.8047 35.0001 42.8047Z" fill="#4C5FF7"/>
<rect x="0.15" y="0.454688" width="69.7" height="59.7" rx="3.85" stroke="#4C5FF7" stroke-width="0.3"/>
</svg>
