<svg width="80" height="80" viewBox="0 0 80 80" fill="none" xmlns="http://www.w3.org/2000/svg">
<circle cx="40" cy="40" r="40" fill="#F0F2FF"/>
<path d="M40.0003 43.9996C36.8177 43.9996 33.7655 45.2638 31.5151 47.5143C29.2647 49.7648 28.0004 52.8168 28.0004 55.9994C28.0004 59.182 29.2646 62.2342 31.5151 64.4846C33.7656 66.7349 36.8177 67.9993 40.0003 67.9993C43.1828 67.9993 46.235 66.7351 48.4854 64.4846C50.7358 62.2341 52.0001 59.182 52.0001 55.9994C52.0001 52.8168 50.7359 49.7646 48.4854 47.5143C46.2349 45.2639 43.1828 43.9996 40.0003 43.9996ZM42.8203 57.9994H42.0003V58.8195C42.0003 59.5338 41.619 60.194 41.0003 60.5516C40.3815 60.9087 39.619 60.9087 39.0003 60.5516C38.3816 60.194 38.0003 59.5337 38.0003 58.8195V57.9994H37.1802C36.466 57.9994 35.8057 57.6182 35.4481 56.9994C35.091 56.3807 35.091 55.6182 35.4481 54.9994C35.8057 54.3807 36.466 53.9994 37.1802 53.9994H38.0003V53.1794C38.0003 52.4651 38.3816 51.8049 39.0003 51.4473C39.619 51.0901 40.3815 51.0901 41.0003 51.4473C41.619 51.8049 42.0003 52.4651 42.0003 53.1794V53.9994H42.8203C43.5346 53.9994 44.1948 54.3807 44.5524 54.9994C44.9096 55.6182 44.9096 56.3807 44.5524 56.9994C44.1948 57.6182 43.5346 57.9994 42.8203 57.9994ZM50.0001 21.9999C50.0001 24.6521 48.9466 27.1953 47.0711 29.0707C45.1957 30.9462 42.6525 31.9997 40.0003 31.9997C37.3481 31.9997 34.8048 30.9462 32.9294 29.0707C31.054 27.1953 30.0004 24.6521 30.0004 21.9999C30.0004 19.3477 31.054 16.8044 32.9294 14.929C34.8048 13.0536 37.3481 12 40.0003 12C42.6525 12 45.1957 13.0536 47.0711 14.929C48.9465 16.8044 50.0001 19.3477 50.0001 21.9999ZM60 39.9996V55.9994C60 57.5909 59.3679 59.1168 58.2429 60.2422C57.1174 61.3672 55.5916 61.9993 54.0001 61.9993H52.6202C54.7036 57.6615 54.4131 52.5571 51.8501 48.4841C49.2877 44.4104 44.8127 41.9387 40 41.9387C35.1873 41.9387 30.7126 44.4105 28.1499 48.4841C25.5869 52.5573 25.2963 57.6617 27.3798 61.9993H25.9999C24.4084 61.9993 22.8826 61.3672 21.7571 60.2422C20.6321 59.1168 20 57.5909 20 55.9994V39.9996C20 38.4081 20.6321 36.8823 21.7571 35.7568C22.8826 34.6318 24.4084 33.9997 25.9999 33.9997H53.9996C55.5911 33.9997 57.1169 34.6318 58.2424 35.7568C59.3673 36.8823 59.9995 38.4081 59.9995 39.9996H60Z" fill="#4C5FF7"/>
</svg>
