<svg width="100" height="100" viewBox="0 0 100 100" fill="none" xmlns="http://www.w3.org/2000/svg">
<rect width="100" height="100" rx="10" fill="#E2F9F1"/>
<path d="M50.1247 69.6365C61.2198 69.6365 70.2142 60.6421 70.2142 49.547C70.2142 38.4519 61.2198 29.4575 50.1247 29.4575C39.0295 29.4575 30.0352 38.4519 30.0352 49.547C30.0352 60.6421 39.0295 69.6365 50.1247 69.6365Z" fill="#50B651"/>
<path opacity="0.663" fill-rule="evenodd" clip-rule="evenodd" d="M70.1541 49.4906C70.1541 60.6206 61.1316 69.6431 50.0041 69.6431C38.8766 69.6431 29.8516 60.6206 29.8516 49.4906C29.8516 44.5671 29.9896 43.8351 31.9276 41.0321C31.9276 41.0321 31.8276 44.1981 34.1491 46.0821C35.5926 47.2526 37.0991 46.4076 39.8566 45.1376C42.8396 43.7626 45.2646 42.8756 47.1566 43.1096C50.0066 43.4626 58.7911 48.7381 63.3756 47.6876C67.0381 46.8501 66.6516 38.2151 66.6516 38.2151C70.6516 42.1211 70.1541 44.7611 70.1541 49.4906Z" fill="url(#paint0_linear_11359_97418)"/>
<path opacity="0.586" fill-rule="evenodd" clip-rule="evenodd" d="M58.6484 64.293C65.9368 57.4373 67.1483 49.5833 62.2829 40.731C62.3076 40.749 62.6086 39.7103 63.1859 37.615C65.7753 40.7507 67.1521 44.621 67.3164 49.226C67.3151 55.1907 64.4258 60.213 58.6484 64.293Z" fill="url(#paint1_linear_11359_97418)"/>
<path opacity="0.744" fill-rule="evenodd" clip-rule="evenodd" d="M55.1947 37.6566C51.6767 35.7096 47.6407 31.7931 48.1772 30.9706C48.7137 30.1481 55.6772 30.2896 59.1957 32.2366C62.7142 34.1836 65.7087 40.0241 65.1727 40.8466C64.6367 41.6691 58.7127 39.6036 55.1947 37.6566Z" fill="url(#paint2_radial_11359_97418)"/>
<path fill-rule="evenodd" clip-rule="evenodd" d="M58.2572 54.4945C55.3387 54.4945 52.9727 52.061 52.9727 49.0595C52.9727 46.058 55.3387 43.625 58.2572 43.625C61.1757 43.625 63.5422 46.058 63.5422 49.0595C63.5422 52.061 61.1762 54.4945 58.2572 54.4945ZM58.2947 52.7705C60.1162 52.7705 61.5947 51.109 61.5947 49.0595C61.5947 47.01 60.1162 45.35 58.2947 45.35C56.4732 45.35 54.9947 47.0115 54.9947 49.0605C54.9947 51.1095 56.4732 52.7705 58.2947 52.7705Z" fill="white"/>
<path fill-rule="evenodd" clip-rule="evenodd" d="M47.3555 39.249H51.1635V54.434H49.073V40.9145H47.3555V39.249Z" fill="white"/>
<path fill-rule="evenodd" clip-rule="evenodd" d="M44.5176 43.7796H46.4941V56.4606C46.4941 57.6161 45.2786 58.8196 44.0941 59.3376C43.5341 59.5823 42.5007 59.7276 40.9941 59.7736V58.5121C42.4677 58.3478 43.4624 58.0199 43.9781 57.5286C44.2756 57.1151 44.4616 56.6319 44.5181 56.1256V52.4001C43.9897 53.5211 43.3244 54.2643 42.5221 54.6296C41.6881 55.0796 39.9906 55.0056 39.2976 54.6296C38.6046 54.2536 37.5881 53.2636 37.1221 51.7891C36.9931 51.3821 36.6721 50.2746 36.7056 49.1011C36.7356 47.9836 37.1056 46.8011 37.4131 46.3151C37.9411 45.4851 38.7736 44.4456 40.0346 44.0111C40.6506 43.7988 41.7922 43.7224 43.4596 43.7821V45.0366C42.2206 44.9529 41.4476 44.9947 41.1406 45.1621C40.6801 45.4121 39.6406 45.7206 39.2976 47.9861C38.9546 50.2516 39.3076 52.1056 40.3951 52.6861C40.7676 52.8861 41.4266 53.1226 42.0356 52.9141C43.2056 52.5141 44.3066 51.0876 44.3906 50.1211C44.4752 49.1404 44.5176 47.0266 44.5176 43.7796Z" fill="white"/>
<path fill-rule="evenodd" clip-rule="evenodd" d="M69.5227 53.5239C67.6562 62.5114 59.6922 69.2644 50.1517 69.2644C39.2252 69.2644 30.3672 60.4064 30.3672 49.4799C30.3672 42.6919 33.7857 36.7024 38.9947 33.1399C34.7622 36.6499 32.0672 41.9524 32.0672 47.8819C32.0672 58.4584 40.6412 67.0319 51.2172 67.0319C59.8302 67.0319 67.1142 61.3464 69.5227 53.5239Z" fill="url(#paint3_radial_11359_97418)"/>
<path fill-rule="evenodd" clip-rule="evenodd" d="M50.1492 26.05C37.2093 26.05 26.7188 36.54 26.7188 49.48C26.7188 62.42 37.2093 72.9106 50.1492 72.9106C63.0892 72.9106 73.5797 62.42 73.5797 49.48C73.5797 36.54 63.0892 26.05 50.1492 26.05ZM50.1492 69.265C39.2227 69.265 30.3647 60.407 30.3647 49.4805C30.3647 42.6925 33.7832 36.703 38.9922 33.1405C42.2774 30.8906 46.1675 29.6894 50.1492 29.6955C61.0757 29.6955 69.9338 38.553 69.9338 49.48C69.9345 50.8386 69.7959 52.1937 69.5202 53.524C67.6537 62.5115 59.6897 69.2645 50.1492 69.2645V69.265Z" fill="white"/>
<defs>
<linearGradient id="paint0_linear_11359_97418" x1="49.2256" y1="40.9671" x2="51.8086" y2="64.2936" gradientUnits="userSpaceOnUse">
<stop stop-color="#123214"/>
<stop offset="0.46" stop-color="#3E7C37"/>
<stop offset="0.91" stop-color="#5FBB46"/>
</linearGradient>
<linearGradient id="paint1_linear_11359_97418" x1="64.1447" y1="39.4506" x2="64.1447" y2="58.3133" gradientUnits="userSpaceOnUse">
<stop stop-color="white" stop-opacity="0"/>
<stop offset="0.64" stop-color="white" stop-opacity="0.43"/>
<stop offset="1" stop-color="white" stop-opacity="0.42"/>
</linearGradient>
<radialGradient id="paint2_radial_11359_97418" cx="0" cy="0" r="1" gradientUnits="userSpaceOnUse" gradientTransform="translate(57.1031 36.0407) rotate(26.7606) scale(9.92716 4.13449)">
<stop offset="0.13" stop-color="white"/>
<stop offset="0.29" stop-color="white" stop-opacity="0.69"/>
<stop offset="0.45" stop-color="white" stop-opacity="0.4"/>
<stop offset="0.59" stop-color="white" stop-opacity="0.18"/>
<stop offset="0.69" stop-color="white" stop-opacity="0.05"/>
<stop offset="0.74" stop-color="white" stop-opacity="0"/>
</radialGradient>
<radialGradient id="paint3_radial_11359_97418" cx="0" cy="0" r="1" gradientUnits="userSpaceOnUse" gradientTransform="translate(53.5443 44.9215) rotate(39.84) scale(22.2465 24.2487)">
<stop offset="0.86" stop-opacity="0"/>
<stop offset="0.98" stop-opacity="0.47"/>
<stop offset="1"/>
</radialGradient>
</defs>
</svg>
