<svg width="80" height="80" viewBox="0 0 80 80" fill="none" xmlns="http://www.w3.org/2000/svg">
<circle cx="40" cy="40" r="40" fill="#F3FBF9"/>
<path d="M31.4535 58.0715C31.5885 58.1315 31.7186 58.2016 31.8536 58.2616C29.3728 59.392 27.1222 60.0021 25.2616 60.0021C23.646 60.0021 22.3258 59.5521 21.3804 58.6119C19.4197 56.6513 19.5548 52.9503 21.7404 48.1687C22.0956 48.9589 22.5006 49.724 22.9507 50.4545C21.7503 53.6154 21.6752 56.0711 22.7958 57.1965C23.9213 58.3167 26.377 58.2417 29.5378 57.0416C30.0981 57.3866 30.6831 57.6968 31.2783 57.9818C31.3334 58.0216 31.3934 58.0463 31.4534 58.0714L31.4535 58.0715ZM58.6114 21.3804C56.6508 19.4197 52.9499 19.5548 48.1682 21.7404C48.9584 22.0956 49.7235 22.5006 50.454 22.9507C53.6149 21.7503 56.0758 21.6752 57.196 22.7958C58.3163 23.9213 58.2412 26.377 57.0411 29.5378C57.3914 30.1029 57.7162 30.6933 58.0065 31.2933C58.0466 31.3582 58.0766 31.4283 58.1014 31.4984C58.1565 31.6184 58.2113 31.7433 58.2664 31.8637C60.382 27.2222 60.637 23.4108 58.6114 21.3803L58.6114 21.3804ZM44.242 22.5006C46.5076 25.4465 48.0731 30.7581 48.4233 37.2299C48.9236 37.0799 49.4486 36.9948 49.9988 36.9948C50.9042 36.9948 51.7543 37.2198 52.5096 37.605C53.9251 35.6293 55.1154 33.684 56.0357 31.8283C53.6748 27.2169 49.3886 23.7508 44.242 22.5006V22.5006ZM22.0204 40.9962C22.3804 47.5582 26.2766 53.1953 31.8286 56.0355C31.9636 55.9653 32.1035 55.9004 32.2437 55.8254C32.8689 55.5052 33.5042 55.1504 34.1493 54.7701C32.5888 51.3742 31.6085 46.5479 31.5034 40.9964L22.0204 40.9962ZM55.4998 42.4968C55.4998 45.5326 53.034 47.9985 49.998 47.9985C49.2577 47.9985 48.5526 47.8485 47.9076 47.5834C47.2074 51.8546 45.9169 55.3155 44.2416 57.4916C51.8139 55.651 57.5303 49.0193 57.9706 40.9966H55.285C55.4249 41.4763 55.4999 41.9767 55.4999 42.4968L55.4998 42.4968ZM35.7494 22.5007C28.1771 24.3414 22.4607 30.9731 22.0204 38.9957H31.5035C31.6437 31.7287 33.2789 25.7124 35.7496 22.5007H35.7494ZM34.2091 57.0412C34.7143 57.2111 35.2243 57.3663 35.7494 57.4912C35.5195 57.1961 35.3042 56.8811 35.0893 56.5409C34.7942 56.7111 34.499 56.881 34.2091 57.0412L34.2091 57.0412ZM54.0899 38.8305C54.1398 38.8856 54.1901 38.9404 54.2399 38.9955H57.9711C57.8811 37.33 57.556 35.7245 57.041 34.2089C56.2055 35.7147 55.2151 37.2651 54.0899 38.8305L54.0899 38.8305ZM44.4969 42.4968C44.4969 41.9767 44.572 41.4764 44.7118 40.9963H33.5041C33.614 46.2727 34.5696 50.6786 35.8897 53.6902C39.0806 51.5998 42.3965 48.8736 45.5524 45.7279C44.8923 44.8177 44.497 43.7023 44.497 42.4969L44.4969 42.4968ZM45.7574 38.9956C45.9723 38.7356 46.2075 38.5005 46.4677 38.2852C46.1223 28.5976 42.9015 21.9903 39.9957 21.9903C37.0199 21.9903 33.709 28.9224 33.5038 38.9953L45.7574 38.9956ZM36.8101 55.4754C37.8055 57.1008 38.9208 58.0012 39.9961 58.0012C42.1716 58.0012 44.5272 54.2902 45.7127 48.3582C42.7867 51.1439 39.7508 53.5645 36.8101 55.4753V55.4754ZM49.9988 38.9956C48.0682 38.9956 46.4979 40.5662 46.4979 42.4965C46.4979 44.4271 48.0685 45.9974 49.9988 45.9974C51.9295 45.9974 53.4998 44.4268 53.4998 42.4965C53.4998 40.5662 51.9291 38.9956 49.9988 38.9956Z" fill="#3B9B7B"/>
</svg>
