<svg width="60" height="60" viewBox="0 0 60 60" fill="none" xmlns="http://www.w3.org/2000/svg">
<circle cx="30" cy="30" r="30" fill="#F0F8FF"/>
<path d="M29.1469 27.7638C29.1276 27.8233 29.1152 27.8859 29.0912 27.9429C29.0657 28.0037 29.0293 28.0579 28.9985 28.1158C28.9625 28.1835 28.9314 28.2541 28.889 28.3173C28.858 28.3635 28.8185 28.4028 28.7841 28.4465C28.731 28.514 28.6811 28.5837 28.6207 28.6442C28.5872 28.678 28.5475 28.7044 28.5117 28.7359C28.4416 28.7981 28.3728 28.8617 28.2951 28.9146C28.2614 28.9377 28.223 28.9534 28.1879 28.9747C28.1013 29.0271 28.015 29.0793 27.9213 29.1194C27.8878 29.1339 27.851 29.141 27.8166 29.1538C27.716 29.1911 27.6153 29.2273 27.5085 29.2497C27.4746 29.2568 27.4384 29.2566 27.4038 29.2621C27.3023 29.2786 27.2013 29.2968 27.0957 29.2988C26.9479 30.2749 26.8671 31.2827 26.8467 32.3043H32.3867L32.3869 27.5742H29.2058C29.1911 27.6395 29.1674 27.7007 29.1469 27.7638L29.1469 27.7638Z" fill="#4385C6"/>
<path d="M29.1641 39.1318C29.1527 39.1688 29.1401 39.205 29.127 39.2412C29.1028 39.3078 29.0755 39.3726 29.0451 39.4361C29.0291 39.4696 29.0138 39.5033 28.9963 39.5359C28.9585 39.6059 28.9161 39.6729 28.8711 39.7381C28.856 39.7599 28.8433 39.783 28.8274 39.8043C28.7646 39.8888 28.696 39.969 28.6214 40.0437C28.6043 40.0611 28.5848 40.0757 28.5672 40.0924C28.5075 40.1485 28.4456 40.2022 28.3795 40.2519C28.3502 40.2739 28.3196 40.2937 28.2892 40.3141C28.255 40.3372 28.223 40.3629 28.1875 40.384C29.236 42.9814 30.7647 44.6094 32.3871 44.8826V38.9707H29.2058C29.1936 39.0251 29.18 39.079 29.1641 39.1321L29.1641 39.1318Z" fill="#4385C6"/>
<path d="M27.0955 36.2718C27.169 36.2731 27.2382 36.2889 27.3097 36.2973C27.3783 36.3055 27.4486 36.3075 27.5152 36.3219C27.5918 36.3383 27.6632 36.3668 27.7367 36.3909C27.7997 36.4118 27.8652 36.4267 27.9256 36.4529C27.9966 36.4835 28.0607 36.5252 28.1275 36.5629C28.1841 36.5949 28.2438 36.6215 28.2971 36.6582C28.3606 36.7017 28.4156 36.7549 28.474 36.8046C28.5228 36.8461 28.5757 36.883 28.6209 36.9287C28.6755 36.984 28.7201 37.0477 28.7687 37.1083C28.8083 37.1578 28.8529 37.2028 28.8882 37.2554C28.933 37.3224 28.9665 37.397 29.004 37.4689C29.0322 37.5231 29.0664 37.5732 29.0901 37.6298C29.1254 37.714 29.1472 37.8045 29.172 37.8935C29.1822 37.9301 29.1973 37.9645 29.2055 38.0018H32.3867V33.2715H26.8467C26.8671 34.2905 26.9477 35.2968 27.0955 36.2718H27.0955Z" fill="#4385C6"/>
<path d="M33.3555 20.6875V26.6051H38.0483C37.0402 23.2453 35.2654 21.0141 33.3555 20.6875Z" fill="#4385C6"/>
<path d="M21.214 29.8881C21.174 29.8986 21.1332 29.9037 21.0919 29.9037C21.089 29.9037 21.0864 29.9026 21.0835 29.9026C20.89 30.686 20.7763 31.4895 20.7441 32.3036H25.8795C25.9004 31.2138 25.9916 30.1403 26.1521 29.0989C25.6392 28.869 25.2374 28.4497 25.0213 27.9375C23.9411 28.8273 22.6427 29.5157 21.214 29.8882L21.214 29.8881Z" fill="#4385C6"/>
<path d="M37.2504 32.2566C37.2717 32.1691 37.2952 32.0828 37.3265 31.9998C37.344 31.9532 37.3656 31.909 37.3862 31.864C37.42 31.7898 37.4564 31.7179 37.4979 31.6485C37.524 31.6047 37.5516 31.5628 37.5806 31.5211C37.6264 31.4556 37.6754 31.3937 37.7278 31.3337C37.7606 31.2962 37.7926 31.2589 37.8279 31.2237C37.8869 31.1646 37.9504 31.1113 38.0159 31.0592C38.0512 31.031 38.0845 31.001 38.1217 30.9751C38.2063 30.916 38.2964 30.865 38.3894 30.8182C38.4123 30.8066 38.4331 30.7915 38.4564 30.7807C38.5681 30.7292 38.6844 30.6861 38.8056 30.6537C38.7141 29.5861 38.5443 28.5556 38.3077 27.5742L33.3555 27.5744V32.3048H37.2362C37.2397 32.2883 37.2464 32.273 37.2504 32.2566L37.2504 32.2566Z" fill="#4385C6"/>
<path d="M26.1518 36.4746C25.9914 35.4337 25.9002 34.3612 25.8791 33.2734H20.7393C20.8058 34.9606 21.2167 36.5605 21.906 38.0038H24.9043C25.0581 37.3284 25.5213 36.7589 26.1519 36.4746H26.1518Z" fill="#4385C6"/>
<path d="M28.1865 25.186C28.2258 25.2095 28.2616 25.2379 28.2991 25.2637C28.3244 25.281 28.3501 25.2974 28.3745 25.3156C28.4475 25.3704 28.5166 25.4292 28.582 25.4923C28.594 25.5038 28.6073 25.5138 28.6189 25.5256C28.6946 25.6017 28.7643 25.6831 28.828 25.7692C28.843 25.7894 28.855 25.8114 28.8695 25.8323C28.915 25.8982 28.9576 25.9659 28.9955 26.0367C29.0137 26.0704 29.0293 26.1051 29.0457 26.1397C29.075 26.2016 29.1014 26.2644 29.1249 26.329C29.1391 26.3678 29.1524 26.4065 29.1644 26.4462C29.1802 26.4983 29.1931 26.5514 29.205 26.6051H32.3862V20.6875C30.7635 20.9603 29.235 22.5885 28.1865 25.1861L28.1865 25.186Z" fill="#4385C6"/>
<path d="M39.7712 34.9581C39.6791 36.0197 39.5204 37.0386 39.2969 38.0018H43.8335C44.5228 36.5585 44.9336 34.9585 45.0002 33.2715H41.5454C41.3505 34.1342 40.6503 34.8038 39.7711 34.9581H39.7712Z" fill="#4385C6"/>
<path d="M33.3555 38.9707V44.8832C35.2662 44.5571 37.0396 42.3277 38.0434 38.9707H33.3555Z" fill="#4385C6"/>
<path d="M27.1841 21.9074V16.4366C24.2704 16.6988 21.8804 15.4676 21.092 15C20.3035 15.4672 17.9136 16.6961 15 16.4366V21.9074C15 24.9642 17.6105 27.9585 21.092 28.9187C24.5737 27.9586 27.1841 24.9643 27.1841 21.9074ZM20.6079 23.718V22.4986C20.0074 22.2951 19.571 21.7325 19.571 21.064C19.571 20.2254 20.2533 19.5432 21.092 19.5432C21.9306 19.5432 22.6128 20.2254 22.6128 21.064C22.6128 21.7325 22.1767 22.2951 21.5761 22.4986V23.718C21.5761 23.9854 21.3593 24.2021 21.0921 24.2021C20.8248 24.2021 20.608 23.9854 20.608 23.718H20.6079Z" fill="#4385C6"/>
<path d="M36.0293 44.5102C39.1152 43.6775 41.7174 41.6571 43.3139 38.9707H39.0484C38.3606 41.4132 37.3017 43.3213 36.0295 44.5102H36.0293Z" fill="#4385C6"/>
<path d="M27.0524 40.6959C26.001 40.6959 25.1223 39.9561 24.9004 38.9707H22.4248C24.0172 41.6502 26.61 43.6668 29.6856 44.5034C28.7439 43.6158 27.9184 42.3218 27.2652 40.6801C27.1949 40.6868 27.1252 40.6959 27.0524 40.6959L27.0524 40.6959Z" fill="#4385C6"/>
<path d="M39.7665 30.6127C40.6481 30.766 41.3505 31.4378 41.5452 32.3045H44.9998C44.9332 30.6176 44.5226 29.0175 43.8335 27.5742H39.2998C39.5224 28.547 39.6787 29.5642 39.7666 30.6127H39.7665Z" fill="#4385C6"/>
<path d="M28.1525 21.6015V21.9075C28.1525 22.3916 28.091 22.873 27.9834 23.3478C28.4897 22.4198 29.0634 21.6543 29.6879 21.0664C29.1666 21.2078 28.655 21.3889 28.1525 21.6015L28.1525 21.6015Z" fill="#4385C6"/>
<path d="M38.8075 34.9172C38.6859 34.8848 38.5691 34.8417 38.4573 34.7903C38.4348 34.78 38.4151 34.7656 38.3931 34.7545C38.299 34.7075 38.208 34.656 38.1223 34.5965C38.0851 34.5705 38.0518 34.5406 38.0163 34.5124C37.9508 34.4607 37.8873 34.4074 37.8283 34.3486C37.7928 34.3133 37.7606 34.2758 37.7275 34.2383C37.6753 34.1788 37.6263 34.1173 37.5808 34.0523C37.5515 34.0103 37.5235 33.9682 37.4971 33.9242C37.4558 33.8554 37.4197 33.7837 37.3859 33.7103C37.3651 33.665 37.3435 33.6208 37.3258 33.574C37.2945 33.4914 37.2712 33.4055 37.2497 33.3185C37.2457 33.3026 37.2392 33.2875 37.2357 33.2715H33.3545V38.0018H38.3019C38.5398 37.0308 38.712 35.9992 38.8075 34.9172L38.8075 34.9172Z" fill="#4385C6"/>
<path d="M43.3148 26.6055C41.7191 23.9199 39.1187 21.8998 36.0342 21.0664C37.3046 22.2565 38.3633 24.1641 39.0538 26.6055H43.3148Z" fill="#4385C6"/>
</svg>
