<svg width="153" height="49" viewBox="0 0 153 49" fill="none" xmlns="http://www.w3.org/2000/svg">
<path d="M19.3084 0.109375H20.6642C25.3713 0.209518 30.0017 2.06217 33.3274 5.34186C32.0995 6.56861 30.8459 7.7453 29.6436 8.97205C27.7761 7.31969 25.5248 6.04286 23.0689 5.59222C19.4363 4.84114 15.5222 5.51711 12.4779 7.54501C9.15222 9.67305 6.90099 13.2782 6.41492 17.1337C5.8777 20.9392 6.97773 24.9449 9.51037 27.8991C11.9407 30.7782 15.6501 32.5808 19.4874 32.706C23.0689 32.9063 26.8039 31.8297 29.4133 29.3762C31.4599 27.6488 32.4064 25.02 32.7134 22.4663C28.4668 22.4663 24.2201 22.4914 19.9735 22.4663V17.309H37.8554C38.7764 22.8419 37.4461 29.0758 33.1483 33.0315C30.2831 35.8355 26.3179 37.4878 22.2759 37.8133C18.3618 38.1888 14.3198 37.4628 10.8406 35.6101C6.67075 33.432 3.34506 29.7518 1.7078 25.4206C0.172867 21.4399 0.147285 16.9334 1.57989 12.9277C2.88458 9.27248 5.39164 6.04286 8.61499 3.78964C11.7104 1.56145 15.471 0.334697 19.3084 0.109375Z" fill="#A3B9C2"/>
<path d="M121.893 1.41111H127.368V37.1622C125.551 37.1622 123.709 37.1873 121.893 37.1372C121.919 25.2452 121.893 13.3282 121.893 1.41111Z" fill="#A3B9C2"/>
<path d="M50.0326 13.8038C53.4095 13.1779 57.0677 13.879 59.8562 15.8568C62.3888 17.6093 64.154 20.3632 64.6912 23.3675C65.3819 26.8475 64.5121 30.6529 62.2097 33.4069C59.7283 36.4863 55.6607 38.1386 51.6954 37.8883C48.0628 37.688 44.5324 35.9104 42.3835 33.0063C39.9532 29.8017 39.3648 25.3954 40.6951 21.64C42.0254 17.6093 45.786 14.5299 50.0326 13.8038ZM50.8001 18.5606C49.4186 18.9111 48.1395 19.6873 47.2186 20.7888C44.7371 23.693 44.8906 28.4248 47.6279 31.1286C49.1884 32.6808 51.5419 33.4069 53.7164 32.9813C55.7374 32.6308 57.5026 31.3039 58.4747 29.5514C60.1632 26.5721 59.6771 22.4662 57.0933 20.1379C55.4304 18.6358 53.0001 18.0099 50.8001 18.5606Z" fill="#A3B9C2"/>
<path d="M77.1497 13.8038C81.0126 13.0778 85.2337 14.1293 88.1245 16.7831C92.8316 20.914 93.3432 28.6501 89.3268 33.4069C86.8965 36.4112 82.9569 38.0635 79.0684 37.8883C75.359 37.7881 71.7007 35.9856 69.5006 33.0063C67.0192 29.7266 66.4819 25.2202 67.889 21.3897C69.296 17.4841 72.9798 14.5049 77.1497 13.8038ZM77.9172 18.5606C76.5357 18.9111 75.2566 19.6873 74.3357 20.7638C71.8798 23.6179 71.9821 28.2745 74.6171 31.0034C76.1776 32.6308 78.6079 33.4319 80.8591 32.9813C82.8545 32.6057 84.6453 31.3039 85.6174 29.5514C87.2803 26.5471 86.7942 22.4412 84.1848 20.1129C82.522 18.6107 80.0917 18.0099 77.9172 18.5606Z" fill="#A3B9C2"/>
<path d="M100.148 15.2559C103.09 13.4533 107.004 12.9526 110.176 14.5048C111.174 14.9304 111.993 15.6565 112.786 16.3825C112.811 15.7066 112.786 15.0056 112.811 14.3046C114.525 14.3296 116.239 14.3046 117.979 14.3296V36.4112C117.953 39.7409 117.084 43.271 114.628 45.6995C111.941 48.3783 107.823 49.2045 104.113 48.6537C100.148 48.0778 96.6945 45.2488 95.1596 41.6687C96.6945 40.9426 98.3062 40.3668 99.8923 39.6909C100.788 41.7438 102.604 43.4963 104.881 43.8969C107.158 44.2974 109.793 43.7467 111.276 41.894C112.862 39.9913 112.862 37.3876 112.786 35.0592C111.609 36.1858 110.253 37.1873 108.616 37.5628C105.06 38.5392 101.146 37.3375 98.4085 34.9841C95.6457 32.6308 94.0084 29.0006 94.1619 25.3954C94.2386 21.3146 96.5922 17.384 100.148 15.2559ZM105.444 18.4605C103.883 18.7109 102.425 19.5621 101.427 20.7388C99.0225 23.5428 99.0225 28.0242 101.453 30.7781C102.834 32.4054 105.06 33.3067 107.209 33.0814C109.23 32.8811 111.097 31.6293 112.095 29.9019C113.783 26.9727 113.502 22.992 111.225 20.4383C109.818 18.8611 107.567 18.085 105.444 18.4605Z" fill="#A3B9C2"/>
<path d="M133.942 16.5327C137.012 13.7287 141.745 12.7774 145.684 14.2545C149.419 15.6314 151.799 19.1114 153.001 22.6915C147.45 24.9448 141.924 27.1729 136.372 29.4262C137.14 30.8532 138.317 32.1551 139.903 32.6808C142.128 33.4569 144.789 33.1815 146.657 31.7295C147.398 31.1787 147.987 30.4526 148.55 29.7516C149.957 30.678 151.364 31.5793 152.771 32.5056C150.775 35.4348 147.424 37.4877 143.817 37.8132C139.826 38.2888 135.579 36.7867 132.996 33.7323C128.749 28.9255 129.158 20.8639 133.942 16.5327ZM136.679 21.1644C135.81 22.3911 135.452 23.8933 135.477 25.3704C139.187 23.8682 142.896 22.3661 146.605 20.8389C145.991 19.4369 144.508 18.5857 142.998 18.3603C140.568 17.9347 138.035 19.2116 136.679 21.1644Z" fill="#A3B9C2"/>
</svg>
