<svg width="1200" height="554" viewBox="0 0 1200 554" fill="none" xmlns="http://www.w3.org/2000/svg">
<path d="M0 73.0316C0 61.9859 8.95431 53.0316 20 53.0316H1180C1191.05 53.0316 1200 61.9859 1200 73.0316V533.032C1200 544.077 1191.05 553.032 1180 553.032H20C8.95429 553.032 0 544.077 0 533.032V73.0316Z" fill="#E4AD50"/>
<mask id="mask0_0_1" style="mask-type:alpha" maskUnits="userSpaceOnUse" x="0" y="53" width="1200" height="501">
<path d="M0 73.0316C0 61.9859 8.95431 53.0316 20 53.0316H1180C1191.05 53.0316 1200 61.9859 1200 73.0316V533.032C1200 544.077 1191.05 553.032 1180 553.032H20C8.95429 553.032 0 544.077 0 533.032V73.0316Z" fill="#E4AD50"/>
</mask>
<g mask="url(#mask0_0_1)">
<path d="M1179.51 659.243C1249.49 659.243 1306.22 602.514 1306.22 532.535C1306.22 462.556 1249.49 405.827 1179.51 405.827C1109.54 405.827 1052.81 462.556 1052.81 532.535C1052.81 602.514 1109.54 659.243 1179.51 659.243Z" stroke="#7EC65C" stroke-width="2" stroke-miterlimit="10"/>
<path d="M1179.5 703.032C1273.66 703.032 1350 626.696 1350 532.532C1350 438.367 1273.66 362.032 1179.5 362.032C1085.34 362.032 1009 438.367 1009 532.532C1009 626.696 1085.34 703.032 1179.5 703.032Z" stroke="#7EC65C" stroke-width="2" stroke-miterlimit="10"/>
<path d="M1179.51 681.128C1097.57 681.128 1030.91 614.463 1030.91 532.519C1030.91 450.575 1097.57 383.91 1179.51 383.91C1261.46 383.91 1328.12 450.575 1328.12 532.519C1328.12 614.463 1261.44 681.128 1179.51 681.128Z" stroke="#7EC65C" stroke-width="2" stroke-miterlimit="10"/>
<path d="M1179.51 659.243C1249.49 659.243 1306.22 602.514 1306.22 532.535C1306.22 462.556 1249.49 405.827 1179.51 405.827C1109.54 405.827 1052.81 462.556 1052.81 532.535C1052.81 602.514 1109.54 659.243 1179.51 659.243Z" stroke="#7EC65C" stroke-width="2" stroke-miterlimit="10"/>
<path d="M1179.51 635.74C1236.51 635.74 1282.72 589.532 1282.72 532.533C1282.72 475.533 1236.51 429.326 1179.51 429.326C1122.51 429.326 1076.31 475.533 1076.31 532.533C1076.31 589.532 1122.51 635.74 1179.51 635.74Z" stroke="#7EC65C" stroke-width="2" stroke-miterlimit="10"/>
<path d="M1179.51 614.215C1224.62 614.215 1261.19 577.646 1261.19 532.535C1261.19 487.425 1224.62 450.856 1179.51 450.856C1134.4 450.856 1097.83 487.425 1097.83 532.535C1097.83 577.646 1134.4 614.215 1179.51 614.215Z" stroke="#7EC65C" stroke-width="2" stroke-miterlimit="10"/>
<path d="M-0.486244 174.041C66.6198 174.041 121.02 119.641 121.02 52.5347C121.02 -14.5713 66.6198 -68.9715 -0.486244 -68.9715C-67.5923 -68.9715 -121.992 -14.5713 -121.992 52.5347C-121.992 119.641 -67.5923 174.041 -0.486244 174.041Z" stroke="#7EC65C" stroke-width="2" stroke-miterlimit="10"/>
<path d="M-0.500017 216.032C89.7985 216.032 163 142.83 163 52.5316C163 -37.767 89.7985 -110.968 -0.500017 -110.968C-90.7986 -110.968 -164 -37.767 -164 52.5316C-164 142.83 -90.7986 216.032 -0.500017 216.032Z" stroke="#7EC65C" stroke-width="2" stroke-miterlimit="10"/>
<path d="M-0.486658 195.027C-79.0662 195.027 -142.994 131.099 -142.994 52.5194C-142.994 -26.0602 -79.0662 -89.988 -0.486658 -89.988C78.0929 -89.988 142.021 -26.0602 142.021 52.5194C142.021 131.099 78.078 195.027 -0.486658 195.027Z" stroke="#7EC65C" stroke-width="2" stroke-miterlimit="10"/>
<path d="M-0.486244 174.041C66.6198 174.041 121.02 119.641 121.02 52.5347C121.02 -14.5713 66.6198 -68.9715 -0.486244 -68.9715C-67.5923 -68.9715 -121.992 -14.5713 -121.992 52.5347C-121.992 119.641 -67.5923 174.041 -0.486244 174.041Z" stroke="#7EC65C" stroke-width="2" stroke-miterlimit="10"/>
<path d="M-0.488251 151.502C54.1712 151.502 98.4814 107.192 98.4814 52.5327C98.4814 -2.12675 54.1712 -46.437 -0.488251 -46.437C-55.1477 -46.437 -99.4579 -2.12675 -99.4579 52.5327C-99.4579 107.192 -55.1477 151.502 -0.488251 151.502Z" stroke="#7EC65C" stroke-width="2" stroke-miterlimit="10"/>
<path d="M-0.487785 130.861C42.7706 130.861 77.8384 95.7937 77.8384 52.5353C77.8384 9.27695 42.7706 -25.7909 -0.487785 -25.7909C-43.7461 -25.7909 -78.814 9.27695 -78.814 52.5353C-78.814 95.7937 -43.7461 130.861 -0.487785 130.861Z" stroke="#7EC65C" stroke-width="2" stroke-miterlimit="10"/>
</g>
<path d="M981.414 89.4284L977.922 149.424L1009.6 104.75L1150.51 0.0419081L981.414 89.4284Z" fill="#000000"/>
<path opacity="0.1" d="M981.414 89.4284L977.922 149.424L1009.6 104.75L1150.51 0.0419081L981.414 89.4284Z" fill="#121243"/>
<path d="M1018.66 115.743L977.914 149.413L1009.6 104.739L1018.66 115.743Z" fill="#000000"/>
<path d="M1009.6 104.75L1150.5 0.0417623L1058.76 165.457L1009.6 104.75Z" fill="#000000"/>
<path d="M981.413 89.428L903 66.6955L1150.51 0.0414589L981.413 89.428Z" fill="#000000"/>
</svg>
