<svg width="20" height="20" viewBox="0 0 20 20" fill="none" xmlns="http://www.w3.org/2000/svg">
<g clip-path="url(#clip0_12470_11376)">
<path d="M15.3146 20.0214H4.68536C2.09778 20.0214 0 17.9237 0 15.336V4.72443C0 2.13684 2.09778 0.0390625 4.68536 0.0390625H15.3146C17.9022 0.0390625 20 2.13684 20 4.72443V15.336C20 17.9237 17.9022 20.0214 15.3146 20.0214Z" fill="#8B8C8C"/>
<path d="M15.3125 0.0390625H13.75C16.3388 0.0390625 18.4375 2.13593 18.4375 4.72244V15.338C18.4375 17.9247 16.3388 20.0214 13.75 20.0214H15.3125C17.9013 20.0214 20 17.9247 20 15.338V4.72244C20 2.13593 17.9013 0.0390625 15.3125 0.0390625Z" fill="#2D2F30"/>
<path d="M7.007 9.494L7.02439 8.74769C7.03126 8.4535 7.25556 8.21028 7.54838 8.17915L11.2257 7.78898C11.5738 7.75206 11.8764 8.02626 11.8735 8.37584L11.8146 15.4695L12.4391 15.5035C12.7499 15.5205 12.9932 15.7771 12.9932 16.0879V16.7058C12.9932 17.0283 12.7321 17.29 12.4094 17.2912L7.71745 17.3083C7.39015 17.3095 7.12541 17.0427 7.12937 16.7158L7.13685 16.1035C7.14051 15.795 7.38328 15.5423 7.69166 15.5259L8.35725 15.4909L8.36488 10.1173L7.57447 10.0926C7.25282 10.0827 6.99952 9.81535 7.007 9.494Z" fill="white"/>
<path d="M11.9532 4.58258C11.9532 3.43024 11.0181 2.49609 9.86468 2.49609C8.71143 2.49609 7.77637 3.43024 7.77637 4.58258C7.77637 5.73508 8.71143 6.66922 9.86468 6.66922C11.0181 6.66922 11.9532 5.73508 11.9532 4.58258Z" fill="white"/>
<path d="M12.44 15.5025L11.8154 15.4685L11.8743 8.37501C11.8772 8.02528 11.5745 7.75108 11.2264 7.78801L10.0858 7.90901C10.2238 8.01658 10.3134 8.18428 10.3118 8.37501L10.2529 15.4685L10.8775 15.5025C11.1881 15.5195 11.4315 15.7761 11.4315 16.0871V16.7049C11.4315 17.0274 11.1704 17.2892 10.8477 17.2903L7.64062 17.302C7.66611 17.3052 7.69174 17.3075 7.71814 17.3075L12.4102 17.2904C12.7329 17.2892 12.9939 17.0274 12.9939 16.7049V16.0871C12.994 15.7761 12.7506 15.5195 12.44 15.5025Z" fill="#EAEAEA"/>
<path d="M9.86621 2.49609C9.59003 2.49609 9.32651 2.55026 9.08496 2.64761C9.85126 2.95676 10.3922 3.70642 10.3922 4.58258C10.3922 5.45889 9.85126 6.20856 9.08496 6.5177C9.32651 6.61505 9.59003 6.66922 9.86621 6.66922C11.0196 6.66922 11.9547 5.73492 11.9547 4.58258C11.9547 3.43024 11.0196 2.49609 9.86621 2.49609Z" fill="#EAEAEA"/>
</g>
<defs>
<clipPath id="clip0_12470_11376">
<rect width="20" height="20" fill="white"/>
</clipPath>
</defs>
</svg>
