<svg width="38" height="40" viewBox="0 0 38 40" fill="none" xmlns="http://www.w3.org/2000/svg">
<path d="M33.5293 37.5817C33.5062 37.5817 31.3256 35.5966 31.1764 35.7458C31.0272 35.895 23.5996 35.7458 23.5996 35.7458L21.2939 37.5635V37.5816V39.2327C21.2939 39.6564 21.6375 39.9999 22.0613 39.9999H32.7851C33.2089 39.9999 33.5524 39.6564 33.5524 39.2327V37.5816V37.5788C33.5385 37.5806 33.5303 37.5817 33.5293 37.5817Z" fill="#000000"/>
<path d="M18.9483 26.0919C26.1534 26.0919 31.9943 20.251 31.9943 13.046C31.9943 5.84087 26.1534 0 18.9483 0C11.7432 0 5.90234 5.84087 5.90234 13.046C5.90234 20.251 11.7432 26.0919 18.9483 26.0919Z" fill="#F9F8F9"/>
<path d="M19.9087 22.0955L26.6985 14.6463C28.4155 12.7617 28.3486 9.8605 26.5453 8.05805L26.53 8.04193C24.6663 6.17903 21.645 6.17903 19.7821 8.04193L18.9301 8.89398L18.0603 8.02822C16.1958 6.17177 13.1801 6.17419 11.3197 8.03548C10.3894 8.96492 9.92188 10.1862 9.92188 11.4098C9.92188 12.5698 10.3427 13.7322 11.1899 14.6479L18.0796 22.102C18.5738 22.6356 19.4186 22.6332 19.9087 22.0955Z" fill="#97E373"/>
<path d="M14.6958 14.6483C13.8486 13.7326 13.4278 12.5702 13.4278 11.4102C13.4278 10.1866 13.8953 8.96531 14.8255 8.03587C15.3026 7.55858 15.8558 7.20446 16.446 6.97165C14.7313 6.29509 12.7046 6.64937 11.3187 8.03587C10.3884 8.96531 9.9209 10.1866 9.9209 11.4102C9.9209 12.5702 10.3417 13.7326 11.1889 14.6483L18.0787 22.1024C18.5728 22.636 19.4176 22.6336 19.9077 22.0959L20.7378 21.1852L14.6958 14.6483Z" fill="#000000"/>
<path d="M15.5632 35.1994L15.56 35.2195C15.4842 35.2058 15.4068 35.1994 15.327 35.1994H5.83031C5.75051 35.1994 5.67232 35.2058 5.59654 35.2195L5.59332 35.1994V30.8351L0.822001 25.0119C0.352044 24.4395 0.0957031 23.7213 0.0957031 22.9805V12.614C0.0957031 12.0747 0.314157 11.587 0.667229 11.2331C1.0203 10.8801 1.5088 10.6616 2.04808 10.6616C3.08554 10.6616 3.94162 11.4734 3.99724 12.51L4.38175 19.7206L4.39465 19.7375C4.6792 19.5207 5.02179 19.4111 5.36519 19.4111C5.72552 19.4111 6.08665 19.5312 6.38411 19.7754L14.745 26.6241C15.2633 27.0481 15.5632 27.6825 15.5632 28.3523V35.1994Z" fill="#FFCEBF"/>
<path d="M7.42671 30.6681C7.42671 29.7838 7.12047 28.927 6.56007 28.243L2.65539 23.4774C2.18543 22.905 1.92909 22.1868 1.92909 21.446V11.0795C1.92909 10.9368 1.94481 10.798 1.97383 10.6641C1.46365 10.6829 1.0032 10.8968 0.666253 11.2337C0.31318 11.5876 0.0947266 12.0753 0.0947266 12.6146V22.9811C0.0947266 23.7219 0.351067 24.4401 0.821025 25.0124L5.59234 30.8357V35.2L5.59557 35.2201C5.67134 35.2064 5.74953 35.2 5.82934 35.2H7.42679V30.6681H7.42671Z" fill="#FFB09E"/>
<path d="M6.68914 36.3452L4.44922 37.5812V39.2755C4.44922 39.6753 4.77335 39.9995 5.17318 39.9995H15.9836C16.3834 39.9995 16.7075 39.6754 16.7075 39.2755V37.5812L15.4377 36.3452H6.68914Z" fill="#000000"/>
<path d="M22.4395 35.1994L22.4427 35.2195C22.5184 35.2058 22.5958 35.1994 22.6756 35.1994H32.1723C32.2521 35.1994 32.3303 35.2058 32.4061 35.2195L32.4093 35.1994V30.8351L37.1806 25.0119C37.6506 24.4395 37.9069 23.7213 37.9069 22.9805V12.614C37.9069 12.0747 37.6885 11.587 37.3354 11.2331C36.9823 10.8801 36.4938 10.6616 35.9546 10.6616C34.9171 10.6616 34.061 11.4734 34.0054 12.51L33.6209 19.7206L33.608 19.7375C33.3234 19.5207 32.9808 19.4111 32.6374 19.4111C32.2771 19.4111 31.916 19.5312 31.6185 19.7754L23.2576 26.6241C22.7393 27.0481 22.4395 27.6825 22.4395 28.3523V35.1994Z" fill="#FFCEBF"/>
<path d="M35.2275 19.1952C35.4157 19.0526 35.5315 18.8344 35.5441 18.5986L35.8275 13.2839C35.8786 12.3328 36.6035 11.5715 37.5239 11.4522C37.4664 11.3746 37.4035 11.3013 37.3354 11.2331C36.9823 10.8801 36.4938 10.6616 35.9546 10.6616C34.9171 10.6616 34.061 11.4734 34.0054 12.51L33.6209 19.7206L33.608 19.7375C33.3234 19.5207 32.9809 19.4111 32.6375 19.4111C32.2771 19.4111 31.916 19.5312 31.6185 19.7754L23.2576 26.6241C22.7393 27.0481 22.4395 27.6825 22.4395 28.3523V35.1994L22.4427 35.2195C22.5185 35.2058 22.5958 35.1994 22.6756 35.1994H24.2616V29.1262C24.2616 28.4563 24.5614 27.8219 25.0798 27.3979L33.4407 20.5493L35.2275 19.1952Z" fill="#FFB09E"/>
<path d="M8.01402 26.5476C7.85933 26.5476 7.70456 26.4885 7.58646 26.3705L3.79939 22.5834C3.38151 22.1655 3.15137 21.6099 3.15137 21.0189C3.15137 20.4279 3.38151 19.8723 3.79939 19.4544C4.03558 19.2183 4.41832 19.2183 4.65443 19.4544C4.89053 19.6905 4.89053 20.0733 4.65443 20.3094C4.46483 20.4989 4.36052 20.7509 4.36052 21.0189C4.36052 21.2869 4.46491 21.5389 4.65443 21.7284L8.44149 25.5155C8.6776 25.7516 8.6776 26.1344 8.44149 26.3705C8.32348 26.4885 8.16871 26.5476 8.01402 26.5476Z" fill="#FFB09E"/>
<path d="M33.5289 35.2905V37.5815H21.2705V35.2905C21.2705 34.6078 21.7671 34.0403 22.4184 33.9298C22.4942 33.9161 22.5716 33.9097 22.6514 33.9097H32.148C32.2279 33.9097 32.306 33.9161 32.3818 33.9298C33.0331 34.0403 33.5289 34.6078 33.5289 35.2905Z" fill="#97E373"/>
<path d="M16.7066 35.2905V37.5815H4.44824V35.2905C4.44824 34.6078 4.944 34.0403 5.59533 33.9298C5.6711 33.9161 5.74929 33.9097 5.8291 33.9097H15.3258C15.4056 33.9097 15.483 33.9161 15.5588 33.9298C16.2101 34.0403 16.7066 34.6078 16.7066 35.2905Z" fill="#97E373"/>
</svg>
