<svg width="620" height="150" viewBox="0 0 620 150" fill="none" xmlns="http://www.w3.org/2000/svg">
<rect x="0.5" y="0.5" width="619" height="149" rx="4.5" fill="#F8FFF5" stroke="#000000" stroke-dasharray="10 10"/>
<rect x="220" y="76" width="180" height="30" rx="5" fill="#000000"/>
<path d="M253.46 88.537C253.418 88.607 253.373 88.6607 253.327 88.698C253.28 88.7307 253.219 88.747 253.145 88.747C253.065 88.747 252.972 88.7073 252.865 88.628C252.762 88.5487 252.629 88.4623 252.466 88.369C252.307 88.271 252.113 88.1823 251.885 88.103C251.661 88.0237 251.388 87.984 251.066 87.984C250.762 87.984 250.494 88.026 250.261 88.11C250.027 88.1893 249.831 88.299 249.673 88.439C249.519 88.579 249.402 88.7447 249.323 88.936C249.243 89.1227 249.204 89.3257 249.204 89.545C249.204 89.825 249.271 90.0583 249.407 90.245C249.547 90.427 249.729 90.5833 249.953 90.714C250.181 90.8447 250.438 90.959 250.723 91.057C251.012 91.1503 251.306 91.2483 251.605 91.351C251.908 91.4537 252.202 91.5703 252.487 91.701C252.776 91.827 253.033 91.988 253.257 92.184C253.485 92.38 253.667 92.6203 253.803 92.905C253.943 93.1897 254.013 93.5397 254.013 93.955C254.013 94.3937 253.938 94.8067 253.789 95.194C253.639 95.5767 253.42 95.9103 253.131 96.195C252.846 96.4797 252.494 96.7037 252.074 96.867C251.658 97.0303 251.185 97.112 250.653 97.112C250.004 97.112 249.411 96.9953 248.875 96.762C248.343 96.524 247.888 96.2043 247.51 95.803L247.902 95.159C247.939 95.1077 247.983 95.0657 248.035 95.033C248.091 94.9957 248.151 94.977 248.217 94.977C248.315 94.977 248.427 95.0307 248.553 95.138C248.679 95.2407 248.835 95.355 249.022 95.481C249.213 95.607 249.442 95.7237 249.708 95.831C249.978 95.9337 250.307 95.985 250.695 95.985C251.017 95.985 251.304 95.9407 251.556 95.852C251.808 95.7633 252.02 95.6397 252.193 95.481C252.37 95.3177 252.505 95.124 252.599 94.9C252.692 94.676 252.739 94.4263 252.739 94.151C252.739 93.8477 252.669 93.6003 252.529 93.409C252.393 93.213 252.214 93.0497 251.99 92.919C251.766 92.7883 251.509 92.6787 251.22 92.59C250.935 92.4967 250.641 92.4033 250.338 92.31C250.039 92.212 249.745 92.1 249.456 91.974C249.171 91.848 248.917 91.6847 248.693 91.484C248.469 91.2833 248.287 91.0337 248.147 90.735C248.011 90.4317 247.944 90.0583 247.944 89.615C247.944 89.2603 248.011 88.9173 248.147 88.586C248.287 88.2547 248.487 87.9607 248.749 87.704C249.01 87.4473 249.332 87.242 249.715 87.088C250.102 86.934 250.545 86.857 251.045 86.857C251.605 86.857 252.116 86.9457 252.578 87.123C253.04 87.3003 253.443 87.557 253.789 87.893L253.46 88.537ZM258.356 89.797C258.781 89.797 259.173 89.8693 259.532 90.014C259.892 90.154 260.202 90.3593 260.463 90.63C260.725 90.896 260.928 91.2273 261.072 91.624C261.222 92.016 261.296 92.464 261.296 92.968C261.296 93.164 261.275 93.2947 261.233 93.36C261.191 93.4253 261.112 93.458 260.995 93.458H256.277C256.287 93.906 256.347 94.2957 256.459 94.627C256.571 94.9583 256.725 95.236 256.921 95.46C257.117 95.6793 257.351 95.845 257.621 95.957C257.892 96.0643 258.195 96.118 258.531 96.118C258.844 96.118 259.112 96.083 259.336 96.013C259.565 95.9383 259.761 95.859 259.924 95.775C260.088 95.691 260.223 95.614 260.33 95.544C260.442 95.4693 260.538 95.432 260.617 95.432C260.72 95.432 260.799 95.4717 260.855 95.551L261.205 96.006C261.051 96.1927 260.867 96.356 260.652 96.496C260.438 96.6313 260.207 96.7433 259.959 96.832C259.717 96.9207 259.465 96.986 259.203 97.028C258.942 97.0747 258.683 97.098 258.426 97.098C257.936 97.098 257.484 97.0163 257.068 96.853C256.658 96.685 256.301 96.4423 255.997 96.125C255.699 95.803 255.465 95.4063 255.297 94.935C255.129 94.4637 255.045 93.9223 255.045 93.311C255.045 92.8163 255.12 92.3543 255.269 91.925C255.423 91.4957 255.643 91.1247 255.927 90.812C256.212 90.4947 256.56 90.2473 256.97 90.07C257.381 89.888 257.843 89.797 258.356 89.797ZM258.384 90.714C257.782 90.714 257.309 90.889 256.963 91.239C256.618 91.5843 256.403 92.065 256.319 92.681H260.176C260.176 92.3917 260.137 92.128 260.057 91.89C259.978 91.6473 259.861 91.4397 259.707 91.267C259.553 91.0897 259.364 90.9543 259.14 90.861C258.921 90.763 258.669 90.714 258.384 90.714ZM264.277 86.689V97H263.031V86.689H264.277ZM269.28 89.797C269.705 89.797 270.097 89.8693 270.456 90.014C270.816 90.154 271.126 90.3593 271.387 90.63C271.649 90.896 271.852 91.2273 271.996 91.624C272.146 92.016 272.22 92.464 272.22 92.968C272.22 93.164 272.199 93.2947 272.157 93.36C272.115 93.4253 272.036 93.458 271.919 93.458H267.201C267.211 93.906 267.271 94.2957 267.383 94.627C267.495 94.9583 267.649 95.236 267.845 95.46C268.041 95.6793 268.275 95.845 268.545 95.957C268.816 96.0643 269.119 96.118 269.455 96.118C269.768 96.118 270.036 96.083 270.26 96.013C270.489 95.9383 270.685 95.859 270.848 95.775C271.012 95.691 271.147 95.614 271.254 95.544C271.366 95.4693 271.462 95.432 271.541 95.432C271.644 95.432 271.723 95.4717 271.779 95.551L272.129 96.006C271.975 96.1927 271.791 96.356 271.576 96.496C271.362 96.6313 271.131 96.7433 270.883 96.832C270.641 96.9207 270.389 96.986 270.127 97.028C269.866 97.0747 269.607 97.098 269.35 97.098C268.86 97.098 268.408 97.0163 267.992 96.853C267.582 96.685 267.225 96.4423 266.921 96.125C266.623 95.803 266.389 95.4063 266.221 94.935C266.053 94.4637 265.969 93.9223 265.969 93.311C265.969 92.8163 266.044 92.3543 266.193 91.925C266.347 91.4957 266.567 91.1247 266.851 90.812C267.136 90.4947 267.484 90.2473 267.894 90.07C268.305 89.888 268.767 89.797 269.28 89.797ZM269.308 90.714C268.706 90.714 268.233 90.889 267.887 91.239C267.542 91.5843 267.327 92.065 267.243 92.681H271.1C271.1 92.3917 271.061 92.128 270.981 91.89C270.902 91.6473 270.785 91.4397 270.631 91.267C270.477 91.0897 270.288 90.9543 270.064 90.861C269.845 90.763 269.593 90.714 269.308 90.714ZM278.652 91.169C278.615 91.2203 278.577 91.26 278.54 91.288C278.503 91.316 278.449 91.33 278.379 91.33C278.309 91.33 278.232 91.302 278.148 91.246C278.069 91.1853 277.966 91.12 277.84 91.05C277.714 90.98 277.56 90.917 277.378 90.861C277.201 90.8003 276.981 90.77 276.72 90.77C276.375 90.77 276.069 90.833 275.803 90.959C275.537 91.0803 275.313 91.2577 275.131 91.491C274.954 91.7243 274.818 92.0067 274.725 92.338C274.636 92.6693 274.592 93.0403 274.592 93.451C274.592 93.8803 274.641 94.263 274.739 94.599C274.837 94.9303 274.975 95.2103 275.152 95.439C275.329 95.663 275.544 95.8357 275.796 95.957C276.053 96.0737 276.34 96.132 276.657 96.132C276.96 96.132 277.21 96.097 277.406 96.027C277.602 95.9523 277.765 95.8707 277.896 95.782C278.027 95.6933 278.134 95.614 278.218 95.544C278.302 95.4693 278.386 95.432 278.47 95.432C278.577 95.432 278.657 95.4717 278.708 95.551L279.058 96.006C278.75 96.384 278.365 96.6617 277.903 96.839C277.441 97.0117 276.953 97.098 276.44 97.098C275.997 97.098 275.584 97.0163 275.201 96.853C274.823 96.6897 274.494 96.454 274.214 96.146C273.934 95.8333 273.712 95.4507 273.549 94.998C273.39 94.5453 273.311 94.0297 273.311 93.451C273.311 92.9237 273.383 92.436 273.528 91.988C273.677 91.54 273.892 91.155 274.172 90.833C274.457 90.5063 274.807 90.252 275.222 90.07C275.637 89.888 276.113 89.797 276.65 89.797C277.145 89.797 277.583 89.8787 277.966 90.042C278.349 90.2007 278.687 90.427 278.981 90.721L278.652 91.169ZM282.499 97.112C281.939 97.112 281.507 96.9557 281.204 96.643C280.905 96.3303 280.756 95.88 280.756 95.292V90.952H279.902C279.827 90.952 279.764 90.931 279.713 90.889C279.662 90.8423 279.636 90.7723 279.636 90.679V90.182L280.798 90.035L281.085 87.844C281.094 87.774 281.125 87.718 281.176 87.676C281.227 87.6293 281.293 87.606 281.372 87.606H282.002V90.049H284.032V90.952H282.002V95.208C282.002 95.5067 282.074 95.7283 282.219 95.873C282.364 96.0177 282.55 96.09 282.779 96.09C282.91 96.09 283.022 96.0737 283.115 96.041C283.213 96.0037 283.297 95.964 283.367 95.922C283.437 95.88 283.495 95.8427 283.542 95.81C283.593 95.7727 283.638 95.754 283.675 95.754C283.74 95.754 283.799 95.7937 283.85 95.873L284.214 96.468C283.999 96.6687 283.74 96.8273 283.437 96.944C283.134 97.056 282.821 97.112 282.499 97.112ZM294.657 86.969V88.075H289.841V91.582H293.957V92.688H289.841V97H288.476V86.969H294.657ZM297.596 89.909V97H296.35V89.909H297.596ZM297.876 87.683C297.876 87.8043 297.85 87.9187 297.799 88.026C297.752 88.1287 297.687 88.222 297.603 88.306C297.523 88.3853 297.43 88.4483 297.323 88.495C297.215 88.5417 297.101 88.565 296.98 88.565C296.858 88.565 296.744 88.5417 296.637 88.495C296.534 88.4483 296.441 88.3853 296.357 88.306C296.277 88.222 296.214 88.1287 296.168 88.026C296.121 87.9187 296.098 87.8043 296.098 87.683C296.098 87.5617 296.121 87.4473 296.168 87.34C296.214 87.228 296.277 87.1323 296.357 87.053C296.441 86.969 296.534 86.9037 296.637 86.857C296.744 86.8103 296.858 86.787 296.98 86.787C297.101 86.787 297.215 86.8103 297.323 86.857C297.43 86.9037 297.523 86.969 297.603 87.053C297.687 87.1323 297.752 87.228 297.799 87.34C297.85 87.4473 297.876 87.5617 297.876 87.683ZM301.178 86.689V97H299.932V86.689H301.178ZM306.181 89.797C306.605 89.797 306.997 89.8693 307.357 90.014C307.716 90.154 308.026 90.3593 308.288 90.63C308.549 90.896 308.752 91.2273 308.897 91.624C309.046 92.016 309.121 92.464 309.121 92.968C309.121 93.164 309.1 93.2947 309.058 93.36C309.016 93.4253 308.936 93.458 308.82 93.458H304.102C304.111 93.906 304.172 94.2957 304.284 94.627C304.396 94.9583 304.55 95.236 304.746 95.46C304.942 95.6793 305.175 95.845 305.446 95.957C305.716 96.0643 306.02 96.118 306.356 96.118C306.668 96.118 306.937 96.083 307.161 96.013C307.389 95.9383 307.585 95.859 307.749 95.775C307.912 95.691 308.047 95.614 308.155 95.544C308.267 95.4693 308.362 95.432 308.442 95.432C308.544 95.432 308.624 95.4717 308.68 95.551L309.03 96.006C308.876 96.1927 308.691 96.356 308.477 96.496C308.262 96.6313 308.031 96.7433 307.784 96.832C307.541 96.9207 307.289 96.986 307.028 97.028C306.766 97.0747 306.507 97.098 306.251 97.098C305.761 97.098 305.308 97.0163 304.893 96.853C304.482 96.685 304.125 96.4423 303.822 96.125C303.523 95.803 303.29 95.4063 303.122 94.935C302.954 94.4637 302.87 93.9223 302.87 93.311C302.87 92.8163 302.944 92.3543 303.094 91.925C303.248 91.4957 303.467 91.1247 303.752 90.812C304.036 90.4947 304.384 90.2473 304.795 90.07C305.205 89.888 305.667 89.797 306.181 89.797ZM306.209 90.714C305.607 90.714 305.133 90.889 304.788 91.239C304.442 91.5843 304.228 92.065 304.144 92.681H308.001C308.001 92.3917 307.961 92.128 307.882 91.89C307.802 91.6473 307.686 91.4397 307.532 91.267C307.378 91.0897 307.189 90.9543 306.965 90.861C306.745 90.763 306.493 90.714 306.209 90.714ZM320.45 86.969V88.11H317.209V97H315.851V88.11H312.596V86.969H320.45ZM323.074 89.797C323.592 89.797 324.058 89.8833 324.474 90.056C324.894 90.2287 325.248 90.4737 325.538 90.791C325.832 91.1083 326.056 91.4933 326.21 91.946C326.368 92.394 326.448 92.8957 326.448 93.451C326.448 94.011 326.368 94.515 326.21 94.963C326.056 95.411 325.832 95.7937 325.538 96.111C325.248 96.4283 324.894 96.6733 324.474 96.846C324.058 97.014 323.592 97.098 323.074 97.098C322.556 97.098 322.087 97.014 321.667 96.846C321.251 96.6733 320.897 96.4283 320.603 96.111C320.309 95.7937 320.082 95.411 319.924 94.963C319.765 94.515 319.686 94.011 319.686 93.451C319.686 92.8957 319.765 92.394 319.924 91.946C320.082 91.4933 320.309 91.1083 320.603 90.791C320.897 90.4737 321.251 90.2287 321.667 90.056C322.087 89.8833 322.556 89.797 323.074 89.797ZM323.074 96.125C323.774 96.125 324.296 95.8917 324.642 95.425C324.987 94.9537 325.16 94.298 325.16 93.458C325.16 92.6133 324.987 91.9553 324.642 91.484C324.296 91.0127 323.774 90.777 323.074 90.777C322.719 90.777 322.411 90.8377 322.15 90.959C321.888 91.0803 321.669 91.2553 321.492 91.484C321.319 91.7127 321.188 91.995 321.1 92.331C321.016 92.6623 320.974 93.038 320.974 93.458C320.974 93.878 321.016 94.2537 321.1 94.585C321.188 94.9163 321.319 95.1963 321.492 95.425C321.669 95.649 321.888 95.8217 322.15 95.943C322.411 96.0643 322.719 96.125 323.074 96.125ZM334.785 95.922C335.2 95.922 335.571 95.852 335.898 95.712C336.225 95.572 336.5 95.376 336.724 95.124C336.953 94.872 337.125 94.571 337.242 94.221C337.363 93.871 337.424 93.486 337.424 93.066V86.969H338.775V93.066C338.775 93.6447 338.682 94.1813 338.495 94.676C338.313 95.1707 338.049 95.6 337.704 95.964C337.363 96.3233 336.946 96.6057 336.451 96.811C335.956 97.0163 335.401 97.119 334.785 97.119C334.169 97.119 333.614 97.0163 333.119 96.811C332.624 96.6057 332.204 96.3233 331.859 95.964C331.514 95.6 331.248 95.1707 331.061 94.676C330.879 94.1813 330.788 93.6447 330.788 93.066V86.969H332.139V93.059C332.139 93.479 332.197 93.864 332.314 94.214C332.435 94.564 332.608 94.865 332.832 95.117C333.061 95.369 333.338 95.5673 333.665 95.712C333.996 95.852 334.37 95.922 334.785 95.922ZM340.917 99.401V89.909H341.659C341.836 89.909 341.948 89.9953 341.995 90.168L342.1 91.008C342.403 90.6393 342.748 90.343 343.136 90.119C343.528 89.895 343.978 89.783 344.487 89.783C344.893 89.783 345.261 89.8623 345.593 90.021C345.924 90.175 346.206 90.406 346.44 90.714C346.673 91.0173 346.853 91.3953 346.979 91.848C347.105 92.3007 347.168 92.821 347.168 93.409C347.168 93.9317 347.098 94.4193 346.958 94.872C346.818 95.32 346.617 95.7097 346.356 96.041C346.094 96.3677 345.772 96.6267 345.39 96.818C345.012 97.0047 344.585 97.098 344.109 97.098C343.67 97.098 343.294 97.0257 342.982 96.881C342.674 96.7363 342.401 96.531 342.163 96.265V99.401H340.917ZM344.074 90.791C343.668 90.791 343.311 90.8843 343.003 91.071C342.699 91.2577 342.419 91.5213 342.163 91.862V95.292C342.391 95.6 342.641 95.817 342.912 95.943C343.187 96.069 343.493 96.132 343.829 96.132C344.487 96.132 344.993 95.8963 345.348 95.425C345.702 94.9537 345.88 94.2817 345.88 93.409C345.88 92.947 345.838 92.5503 345.754 92.219C345.674 91.8877 345.558 91.617 345.404 91.407C345.25 91.1923 345.061 91.036 344.837 90.938C344.613 90.84 344.358 90.791 344.074 90.791ZM350.027 86.689V97H348.781V86.689H350.027ZM355.093 89.797C355.611 89.797 356.078 89.8833 356.493 90.056C356.913 90.2287 357.268 90.4737 357.557 90.791C357.851 91.1083 358.075 91.4933 358.229 91.946C358.388 92.394 358.467 92.8957 358.467 93.451C358.467 94.011 358.388 94.515 358.229 94.963C358.075 95.411 357.851 95.7937 357.557 96.111C357.268 96.4283 356.913 96.6733 356.493 96.846C356.078 97.014 355.611 97.098 355.093 97.098C354.575 97.098 354.106 97.014 353.686 96.846C353.271 96.6733 352.916 96.4283 352.622 96.111C352.328 95.7937 352.102 95.411 351.943 94.963C351.785 94.515 351.705 94.011 351.705 93.451C351.705 92.8957 351.785 92.394 351.943 91.946C352.102 91.4933 352.328 91.1083 352.622 90.791C352.916 90.4737 353.271 90.2287 353.686 90.056C354.106 89.8833 354.575 89.797 355.093 89.797ZM355.093 96.125C355.793 96.125 356.316 95.8917 356.661 95.425C357.007 94.9537 357.179 94.298 357.179 93.458C357.179 92.6133 357.007 91.9553 356.661 91.484C356.316 91.0127 355.793 90.777 355.093 90.777C354.739 90.777 354.431 90.8377 354.169 90.959C353.908 91.0803 353.689 91.2553 353.511 91.484C353.339 91.7127 353.208 91.995 353.119 92.331C353.035 92.6623 352.993 93.038 352.993 93.458C352.993 93.878 353.035 94.2537 353.119 94.585C353.208 94.9163 353.339 95.1963 353.511 95.425C353.689 95.649 353.908 95.8217 354.169 95.943C354.431 96.0643 354.739 96.125 355.093 96.125ZM365.21 97H364.657C364.536 97 364.438 96.9813 364.363 96.944C364.289 96.9067 364.24 96.8273 364.216 96.706L364.076 96.048C363.89 96.216 363.708 96.3677 363.53 96.503C363.353 96.6337 363.166 96.7457 362.97 96.839C362.774 96.9277 362.564 96.9953 362.34 97.042C362.121 97.0887 361.876 97.112 361.605 97.112C361.33 97.112 361.071 97.0747 360.828 97C360.59 96.9207 360.383 96.804 360.205 96.65C360.028 96.496 359.886 96.3023 359.778 96.069C359.676 95.831 359.624 95.551 359.624 95.229C359.624 94.949 359.701 94.6807 359.855 94.424C360.009 94.1627 360.257 93.9317 360.597 93.731C360.943 93.5303 361.393 93.367 361.948 93.241C362.504 93.1103 363.183 93.0357 363.985 93.017V92.464C363.985 91.9133 363.866 91.498 363.628 91.218C363.395 90.9333 363.047 90.791 362.585 90.791C362.282 90.791 362.025 90.8307 361.815 90.91C361.61 90.9847 361.43 91.071 361.276 91.169C361.127 91.2623 360.996 91.3487 360.884 91.428C360.777 91.5027 360.67 91.54 360.562 91.54C360.478 91.54 360.404 91.519 360.338 91.477C360.278 91.4303 360.229 91.3743 360.191 91.309L359.967 90.91C360.359 90.532 360.782 90.2497 361.234 90.063C361.687 89.8763 362.189 89.783 362.739 89.783C363.136 89.783 363.488 89.8483 363.796 89.979C364.104 90.1097 364.363 90.2917 364.573 90.525C364.783 90.7583 364.942 91.0407 365.049 91.372C365.157 91.7033 365.21 92.0673 365.21 92.464V97ZM361.976 96.237C362.196 96.237 362.396 96.216 362.578 96.174C362.76 96.1273 362.931 96.0643 363.089 95.985C363.253 95.901 363.407 95.8007 363.551 95.684C363.701 95.5673 363.845 95.4343 363.985 95.285V93.808C363.411 93.8267 362.924 93.8733 362.522 93.948C362.121 94.018 361.794 94.1113 361.542 94.228C361.29 94.3447 361.106 94.4823 360.989 94.641C360.877 94.7997 360.821 94.977 360.821 95.173C360.821 95.3597 360.852 95.5207 360.912 95.656C360.973 95.7913 361.055 95.9033 361.157 95.992C361.26 96.076 361.381 96.139 361.521 96.181C361.661 96.2183 361.813 96.237 361.976 96.237ZM372.089 97C371.912 97 371.8 96.9137 371.753 96.741L371.641 95.88C371.338 96.2487 370.99 96.545 370.598 96.769C370.211 96.9883 369.765 97.098 369.261 97.098C368.855 97.098 368.487 97.021 368.155 96.867C367.824 96.7083 367.542 96.4773 367.308 96.174C367.075 95.8707 366.895 95.4927 366.769 95.04C366.643 94.5873 366.58 94.067 366.58 93.479C366.58 92.9563 366.65 92.471 366.79 92.023C366.93 91.5703 367.131 91.1783 367.392 90.847C367.658 90.5157 367.98 90.2567 368.358 90.07C368.736 89.8787 369.166 89.783 369.646 89.783C370.08 89.783 370.451 89.8577 370.759 90.007C371.067 90.1517 371.343 90.357 371.585 90.623V86.689H372.831V97H372.089ZM369.674 96.09C370.08 96.09 370.435 95.9967 370.738 95.81C371.046 95.6233 371.329 95.3597 371.585 95.019V91.589C371.357 91.281 371.105 91.0663 370.829 90.945C370.559 90.819 370.258 90.756 369.926 90.756C369.264 90.756 368.755 90.9917 368.4 91.463C368.046 91.9343 367.868 92.6063 367.868 93.479C367.868 93.941 367.908 94.3377 367.987 94.669C368.067 94.9957 368.183 95.2663 368.337 95.481C368.491 95.691 368.68 95.845 368.904 95.943C369.128 96.041 369.385 96.09 369.674 96.09Z" fill="#000000"/>
<g clip-path="url(#clip0)">
<path d="M300.416 58.8854C297.748 58.8854 295.374 57.177 294.512 54.6336L294.454 54.442C294.251 53.7684 294.166 53.202 294.166 52.6353V41.2715L290.122 54.7685C289.602 56.7537 290.787 58.8119 292.776 59.3603L318.548 66.2623C318.87 66.3456 319.191 66.3856 319.508 66.3856C321.168 66.3856 322.685 65.2839 323.11 63.6603L324.611 58.8854H300.416Z" fill="#000000"/>
<path d="M305 41.3848C306.838 41.3848 308.333 39.8897 308.333 38.0513C308.333 36.2129 306.838 34.7178 305 34.7178C303.161 34.7178 301.666 36.2129 301.666 38.0513C301.666 39.8897 303.161 41.3848 305 41.3848Z" fill="#000000"/>
<path d="M325.833 29.7178H300.833C298.536 29.7178 296.666 31.5879 296.666 33.8847V52.2183C296.666 54.5151 298.536 56.3853 300.833 56.3853H325.833C328.13 56.3853 330 54.5151 330 52.2183V33.8847C330 31.5879 328.13 29.7178 325.833 29.7178ZM300.833 33.0513H325.833C326.294 33.0513 326.667 33.4245 326.667 33.8847V45.7167L321.402 39.5731C320.843 38.9181 320.035 38.5681 319.167 38.5483C318.303 38.5531 317.493 38.9364 316.94 39.5999L310.75 47.0299L308.733 45.0181C307.593 43.8783 305.738 43.8783 304.6 45.0181L300 49.6166V33.8847C300 33.4245 300.373 33.0513 300.833 33.0513Z" fill="#000000"/>
</g>
<path d="M262.02 120H261.05V112.835H262.02V120ZM263.796 120V114.935H264.326C264.453 114.935 264.533 114.997 264.566 115.12L264.631 115.64C264.818 115.41 265.026 115.222 265.256 115.075C265.49 114.928 265.76 114.855 266.066 114.855C266.41 114.855 266.686 114.95 266.896 115.14C267.11 115.33 267.263 115.587 267.356 115.91C267.426 115.727 267.518 115.568 267.631 115.435C267.748 115.302 267.878 115.192 268.021 115.105C268.165 115.018 268.316 114.955 268.476 114.915C268.64 114.875 268.805 114.855 268.971 114.855C269.238 114.855 269.475 114.898 269.681 114.985C269.891 115.068 270.068 115.192 270.211 115.355C270.358 115.518 270.47 115.72 270.546 115.96C270.623 116.197 270.661 116.468 270.661 116.775V120H269.771V116.775C269.771 116.378 269.685 116.078 269.511 115.875C269.338 115.668 269.086 115.565 268.756 115.565C268.61 115.565 268.47 115.592 268.336 115.645C268.206 115.695 268.091 115.77 267.991 115.87C267.891 115.97 267.811 116.097 267.751 116.25C267.695 116.4 267.666 116.575 267.666 116.775V120H266.776V116.775C266.776 116.368 266.695 116.065 266.531 115.865C266.368 115.665 266.13 115.565 265.816 115.565C265.596 115.565 265.391 115.625 265.201 115.745C265.015 115.862 264.843 116.022 264.686 116.225V120H263.796ZM275.729 120H275.334C275.248 120 275.178 119.987 275.124 119.96C275.071 119.933 275.036 119.877 275.019 119.79L274.919 119.32C274.786 119.44 274.656 119.548 274.529 119.645C274.403 119.738 274.269 119.818 274.129 119.885C273.989 119.948 273.839 119.997 273.679 120.03C273.523 120.063 273.348 120.08 273.154 120.08C272.958 120.08 272.773 120.053 272.599 120C272.429 119.943 272.281 119.86 272.154 119.75C272.028 119.64 271.926 119.502 271.849 119.335C271.776 119.165 271.739 118.965 271.739 118.735C271.739 118.535 271.794 118.343 271.904 118.16C272.014 117.973 272.191 117.808 272.434 117.665C272.681 117.522 273.003 117.405 273.399 117.315C273.796 117.222 274.281 117.168 274.854 117.155V116.76C274.854 116.367 274.769 116.07 274.599 115.87C274.433 115.667 274.184 115.565 273.854 115.565C273.638 115.565 273.454 115.593 273.304 115.65C273.158 115.703 273.029 115.765 272.919 115.835C272.813 115.902 272.719 115.963 272.639 116.02C272.563 116.073 272.486 116.1 272.409 116.1C272.349 116.1 272.296 116.085 272.249 116.055C272.206 116.022 272.171 115.982 272.144 115.935L271.984 115.65C272.264 115.38 272.566 115.178 272.889 115.045C273.213 114.912 273.571 114.845 273.964 114.845C274.248 114.845 274.499 114.892 274.719 114.985C274.939 115.078 275.124 115.208 275.274 115.375C275.424 115.542 275.538 115.743 275.614 115.98C275.691 116.217 275.729 116.477 275.729 116.76V120ZM273.419 119.455C273.576 119.455 273.719 119.44 273.849 119.41C273.979 119.377 274.101 119.332 274.214 119.275C274.331 119.215 274.441 119.143 274.544 119.06C274.651 118.977 274.754 118.882 274.854 118.775V117.72C274.444 117.733 274.096 117.767 273.809 117.82C273.523 117.87 273.289 117.937 273.109 118.02C272.929 118.103 272.798 118.202 272.714 118.315C272.634 118.428 272.594 118.555 272.594 118.695C272.594 118.828 272.616 118.943 272.659 119.04C272.703 119.137 272.761 119.217 272.834 119.28C272.908 119.34 272.994 119.385 273.094 119.415C273.194 119.442 273.303 119.455 273.419 119.455ZM278.783 114.85C279.003 114.85 279.208 114.875 279.398 114.925C279.591 114.972 279.766 115.042 279.923 115.135H281.298V115.465C281.298 115.575 281.228 115.645 281.088 115.675L280.513 115.755C280.626 115.972 280.683 116.213 280.683 116.48C280.683 116.727 280.634 116.952 280.538 117.155C280.444 117.355 280.313 117.527 280.143 117.67C279.976 117.813 279.776 117.923 279.543 118C279.313 118.077 279.059 118.115 278.783 118.115C278.546 118.115 278.323 118.087 278.113 118.03C278.006 118.097 277.924 118.168 277.868 118.245C277.814 118.322 277.788 118.397 277.788 118.47C277.788 118.59 277.836 118.682 277.933 118.745C278.029 118.805 278.158 118.848 278.318 118.875C278.478 118.902 278.659 118.918 278.863 118.925C279.066 118.932 279.273 118.943 279.483 118.96C279.696 118.973 279.904 118.998 280.108 119.035C280.311 119.072 280.493 119.132 280.653 119.215C280.813 119.298 280.941 119.413 281.038 119.56C281.134 119.707 281.183 119.897 281.183 120.13C281.183 120.347 281.128 120.557 281.018 120.76C280.911 120.963 280.756 121.143 280.553 121.3C280.349 121.46 280.101 121.587 279.808 121.68C279.514 121.777 279.183 121.825 278.813 121.825C278.443 121.825 278.118 121.788 277.838 121.715C277.561 121.642 277.331 121.543 277.148 121.42C276.964 121.297 276.826 121.153 276.733 120.99C276.643 120.83 276.598 120.662 276.598 120.485C276.598 120.235 276.676 120.023 276.833 119.85C276.993 119.673 277.211 119.533 277.488 119.43C277.344 119.363 277.229 119.275 277.143 119.165C277.059 119.052 277.018 118.902 277.018 118.715C277.018 118.642 277.031 118.567 277.058 118.49C277.084 118.41 277.124 118.332 277.178 118.255C277.234 118.178 277.303 118.105 277.383 118.035C277.463 117.965 277.556 117.903 277.663 117.85C277.413 117.71 277.216 117.525 277.073 117.295C276.933 117.062 276.863 116.79 276.863 116.48C276.863 116.233 276.909 116.01 277.003 115.81C277.099 115.607 277.233 115.435 277.403 115.295C277.573 115.152 277.774 115.042 278.008 114.965C278.244 114.888 278.503 114.85 278.783 114.85ZM280.363 120.275C280.363 120.148 280.328 120.047 280.258 119.97C280.188 119.893 280.093 119.835 279.973 119.795C279.853 119.752 279.714 119.72 279.558 119.7C279.401 119.68 279.236 119.667 279.063 119.66C278.889 119.65 278.713 119.64 278.533 119.63C278.353 119.62 278.181 119.602 278.018 119.575C277.828 119.665 277.673 119.775 277.553 119.905C277.436 120.035 277.378 120.19 277.378 120.37C277.378 120.483 277.406 120.588 277.463 120.685C277.523 120.785 277.613 120.87 277.733 120.94C277.853 121.013 278.003 121.07 278.183 121.11C278.366 121.153 278.581 121.175 278.828 121.175C279.068 121.175 279.283 121.153 279.473 121.11C279.663 121.067 279.823 121.005 279.953 120.925C280.086 120.845 280.188 120.75 280.258 120.64C280.328 120.53 280.363 120.408 280.363 120.275ZM278.783 117.525C278.963 117.525 279.121 117.5 279.258 117.45C279.398 117.4 279.514 117.33 279.608 117.24C279.701 117.15 279.771 117.043 279.818 116.92C279.864 116.793 279.888 116.655 279.888 116.505C279.888 116.195 279.793 115.948 279.603 115.765C279.416 115.582 279.143 115.49 278.783 115.49C278.426 115.49 278.153 115.582 277.963 115.765C277.776 115.948 277.683 116.195 277.683 116.505C277.683 116.655 277.706 116.793 277.753 116.92C277.803 117.043 277.874 117.15 277.968 117.24C278.061 117.33 278.176 117.4 278.313 117.45C278.449 117.5 278.606 117.525 278.783 117.525ZM284.19 114.855C284.493 114.855 284.773 114.907 285.03 115.01C285.287 115.11 285.508 115.257 285.695 115.45C285.882 115.64 286.027 115.877 286.13 116.16C286.237 116.44 286.29 116.76 286.29 117.12C286.29 117.26 286.275 117.353 286.245 117.4C286.215 117.447 286.158 117.47 286.075 117.47H282.705C282.712 117.79 282.755 118.068 282.835 118.305C282.915 118.542 283.025 118.74 283.165 118.9C283.305 119.057 283.472 119.175 283.665 119.255C283.858 119.332 284.075 119.37 284.315 119.37C284.538 119.37 284.73 119.345 284.89 119.295C285.053 119.242 285.193 119.185 285.31 119.125C285.427 119.065 285.523 119.01 285.6 118.96C285.68 118.907 285.748 118.88 285.805 118.88C285.878 118.88 285.935 118.908 285.975 118.965L286.225 119.29C286.115 119.423 285.983 119.54 285.83 119.64C285.677 119.737 285.512 119.817 285.335 119.88C285.162 119.943 284.982 119.99 284.795 120.02C284.608 120.053 284.423 120.07 284.24 120.07C283.89 120.07 283.567 120.012 283.27 119.895C282.977 119.775 282.722 119.602 282.505 119.375C282.292 119.145 282.125 118.862 282.005 118.525C281.885 118.188 281.825 117.802 281.825 117.365C281.825 117.012 281.878 116.682 281.985 116.375C282.095 116.068 282.252 115.803 282.455 115.58C282.658 115.353 282.907 115.177 283.2 115.05C283.493 114.92 283.823 114.855 284.19 114.855ZM284.21 115.51C283.78 115.51 283.442 115.635 283.195 115.885C282.948 116.132 282.795 116.475 282.735 116.915H285.49C285.49 116.708 285.462 116.52 285.405 116.35C285.348 116.177 285.265 116.028 285.155 115.905C285.045 115.778 284.91 115.682 284.75 115.615C284.593 115.545 284.413 115.51 284.21 115.51ZM292.263 115.77C292.223 115.843 292.161 115.88 292.078 115.88C292.028 115.88 291.971 115.862 291.908 115.825C291.844 115.788 291.766 115.748 291.673 115.705C291.583 115.658 291.474 115.617 291.348 115.58C291.221 115.54 291.071 115.52 290.898 115.52C290.748 115.52 290.613 115.54 290.493 115.58C290.373 115.617 290.269 115.668 290.183 115.735C290.099 115.802 290.034 115.88 289.988 115.97C289.944 116.057 289.923 116.152 289.923 116.255C289.923 116.385 289.959 116.493 290.033 116.58C290.109 116.667 290.209 116.742 290.333 116.805C290.456 116.868 290.596 116.925 290.753 116.975C290.909 117.022 291.069 117.073 291.233 117.13C291.399 117.183 291.561 117.243 291.718 117.31C291.874 117.377 292.014 117.46 292.138 117.56C292.261 117.66 292.359 117.783 292.433 117.93C292.509 118.073 292.548 118.247 292.548 118.45C292.548 118.683 292.506 118.9 292.423 119.1C292.339 119.297 292.216 119.468 292.053 119.615C291.889 119.758 291.689 119.872 291.453 119.955C291.216 120.038 290.943 120.08 290.633 120.08C290.279 120.08 289.959 120.023 289.673 119.91C289.386 119.793 289.143 119.645 288.943 119.465L289.153 119.125C289.179 119.082 289.211 119.048 289.248 119.025C289.284 119.002 289.333 118.99 289.393 118.99C289.453 118.99 289.516 119.013 289.583 119.06C289.649 119.107 289.729 119.158 289.823 119.215C289.919 119.272 290.034 119.323 290.168 119.37C290.304 119.417 290.474 119.44 290.678 119.44C290.851 119.44 291.003 119.418 291.133 119.375C291.263 119.328 291.371 119.267 291.458 119.19C291.544 119.113 291.608 119.025 291.648 118.925C291.691 118.825 291.713 118.718 291.713 118.605C291.713 118.465 291.674 118.35 291.598 118.26C291.524 118.167 291.426 118.088 291.303 118.025C291.179 117.958 291.038 117.902 290.878 117.855C290.721 117.805 290.559 117.753 290.393 117.7C290.229 117.647 290.068 117.587 289.908 117.52C289.751 117.45 289.611 117.363 289.488 117.26C289.364 117.157 289.264 117.03 289.188 116.88C289.114 116.727 289.078 116.542 289.078 116.325C289.078 116.132 289.118 115.947 289.198 115.77C289.278 115.59 289.394 115.433 289.548 115.3C289.701 115.163 289.889 115.055 290.113 114.975C290.336 114.895 290.591 114.855 290.878 114.855C291.211 114.855 291.509 114.908 291.773 115.015C292.039 115.118 292.269 115.262 292.463 115.445L292.263 115.77ZM294.689 114.935V120H293.799V114.935H294.689ZM294.889 113.345C294.889 113.432 294.87 113.513 294.834 113.59C294.8 113.663 294.754 113.73 294.694 113.79C294.637 113.847 294.57 113.892 294.494 113.925C294.417 113.958 294.335 113.975 294.249 113.975C294.162 113.975 294.08 113.958 294.004 113.925C293.93 113.892 293.864 113.847 293.804 113.79C293.747 113.73 293.702 113.663 293.669 113.59C293.635 113.513 293.619 113.432 293.619 113.345C293.619 113.258 293.635 113.177 293.669 113.1C293.702 113.02 293.747 112.952 293.804 112.895C293.864 112.835 293.93 112.788 294.004 112.755C294.08 112.722 294.162 112.705 294.249 112.705C294.335 112.705 294.417 112.722 294.494 112.755C294.57 112.788 294.637 112.835 294.694 112.895C294.754 112.952 294.8 113.02 294.834 113.1C294.87 113.177 294.889 113.258 294.889 113.345ZM299.792 115.315C299.792 115.378 299.781 115.44 299.757 115.5C299.734 115.557 299.704 115.608 299.667 115.655L296.927 119.305H299.692V120H295.877V119.63C295.877 119.587 295.887 119.537 295.907 119.48C295.931 119.42 295.962 119.363 296.002 119.31L298.757 115.635H296.032V114.935H299.792V115.315ZM302.881 114.855C303.185 114.855 303.465 114.907 303.721 115.01C303.978 115.11 304.2 115.257 304.386 115.45C304.573 115.64 304.718 115.877 304.821 116.16C304.928 116.44 304.981 116.76 304.981 117.12C304.981 117.26 304.966 117.353 304.936 117.4C304.906 117.447 304.85 117.47 304.766 117.47H301.396C301.403 117.79 301.446 118.068 301.526 118.305C301.606 118.542 301.716 118.74 301.856 118.9C301.996 119.057 302.163 119.175 302.356 119.255C302.55 119.332 302.766 119.37 303.006 119.37C303.23 119.37 303.421 119.345 303.581 119.295C303.745 119.242 303.885 119.185 304.001 119.125C304.118 119.065 304.215 119.01 304.291 118.96C304.371 118.907 304.44 118.88 304.496 118.88C304.57 118.88 304.626 118.908 304.666 118.965L304.916 119.29C304.806 119.423 304.675 119.54 304.521 119.64C304.368 119.737 304.203 119.817 304.026 119.88C303.853 119.943 303.673 119.99 303.486 120.02C303.3 120.053 303.115 120.07 302.931 120.07C302.581 120.07 302.258 120.012 301.961 119.895C301.668 119.775 301.413 119.602 301.196 119.375C300.983 119.145 300.816 118.862 300.696 118.525C300.576 118.188 300.516 117.802 300.516 117.365C300.516 117.012 300.57 116.682 300.676 116.375C300.786 116.068 300.943 115.803 301.146 115.58C301.35 115.353 301.598 115.177 301.891 115.05C302.185 114.92 302.515 114.855 302.881 114.855ZM302.901 115.51C302.471 115.51 302.133 115.635 301.886 115.885C301.64 116.132 301.486 116.475 301.426 116.915H304.181C304.181 116.708 304.153 116.52 304.096 116.35C304.04 116.177 303.956 116.028 303.846 115.905C303.736 115.778 303.601 115.682 303.441 115.615C303.285 115.545 303.105 115.51 302.901 115.51ZM309.044 112.635V120H308.154V112.635H309.044ZM311.603 114.935V120H310.713V114.935H311.603ZM311.803 113.345C311.803 113.432 311.784 113.513 311.748 113.59C311.714 113.663 311.668 113.73 311.608 113.79C311.551 113.847 311.484 113.892 311.408 113.925C311.331 113.958 311.249 113.975 311.163 113.975C311.076 113.975 310.994 113.958 310.918 113.925C310.844 113.892 310.778 113.847 310.718 113.79C310.661 113.73 310.616 113.663 310.583 113.59C310.549 113.513 310.533 113.432 310.533 113.345C310.533 113.258 310.549 113.177 310.583 113.1C310.616 113.02 310.661 112.952 310.718 112.895C310.778 112.835 310.844 112.788 310.918 112.755C310.994 112.722 311.076 112.705 311.163 112.705C311.249 112.705 311.331 112.722 311.408 112.755C311.484 112.788 311.551 112.835 311.608 112.895C311.668 112.952 311.714 113.02 311.748 113.1C311.784 113.177 311.803 113.258 311.803 113.345ZM313.171 120V114.935H313.701C313.828 114.935 313.908 114.997 313.941 115.12L314.006 115.64C314.193 115.41 314.401 115.222 314.631 115.075C314.865 114.928 315.135 114.855 315.441 114.855C315.785 114.855 316.061 114.95 316.271 115.14C316.485 115.33 316.638 115.587 316.731 115.91C316.801 115.727 316.893 115.568 317.006 115.435C317.123 115.302 317.253 115.192 317.396 115.105C317.54 115.018 317.691 114.955 317.851 114.915C318.015 114.875 318.18 114.855 318.346 114.855C318.613 114.855 318.85 114.898 319.056 114.985C319.266 115.068 319.443 115.192 319.586 115.355C319.733 115.518 319.845 115.72 319.921 115.96C319.998 116.197 320.036 116.468 320.036 116.775V120H319.146V116.775C319.146 116.378 319.06 116.078 318.886 115.875C318.713 115.668 318.461 115.565 318.131 115.565C317.985 115.565 317.845 115.592 317.711 115.645C317.581 115.695 317.466 115.77 317.366 115.87C317.266 115.97 317.186 116.097 317.126 116.25C317.07 116.4 317.041 116.575 317.041 116.775V120H316.151V116.775C316.151 116.368 316.07 116.065 315.906 115.865C315.743 115.665 315.505 115.565 315.191 115.565C314.971 115.565 314.766 115.625 314.576 115.745C314.39 115.862 314.218 116.022 314.061 116.225V120H313.171ZM322.374 114.935V120H321.484V114.935H322.374ZM322.574 113.345C322.574 113.432 322.556 113.513 322.519 113.59C322.486 113.663 322.439 113.73 322.379 113.79C322.323 113.847 322.256 113.892 322.179 113.925C322.103 113.958 322.021 113.975 321.934 113.975C321.848 113.975 321.766 113.958 321.689 113.925C321.616 113.892 321.549 113.847 321.489 113.79C321.433 113.73 321.388 113.663 321.354 113.59C321.321 113.513 321.304 113.432 321.304 113.345C321.304 113.258 321.321 113.177 321.354 113.1C321.388 113.02 321.433 112.952 321.489 112.895C321.549 112.835 321.616 112.788 321.689 112.755C321.766 112.722 321.848 112.705 321.934 112.705C322.021 112.705 322.103 112.722 322.179 112.755C322.256 112.788 322.323 112.835 322.379 112.895C322.439 112.952 322.486 113.02 322.519 113.1C322.556 113.177 322.574 113.258 322.574 113.345ZM325.478 120.08C325.078 120.08 324.77 119.968 324.553 119.745C324.34 119.522 324.233 119.2 324.233 118.78V115.68H323.623C323.57 115.68 323.525 115.665 323.488 115.635C323.451 115.602 323.433 115.552 323.433 115.485V115.13L324.263 115.025L324.468 113.46C324.475 113.41 324.496 113.37 324.533 113.34C324.57 113.307 324.616 113.29 324.673 113.29H325.123V115.035H326.573V115.68H325.123V118.72C325.123 118.933 325.175 119.092 325.278 119.195C325.381 119.298 325.515 119.35 325.678 119.35C325.771 119.35 325.851 119.338 325.918 119.315C325.988 119.288 326.048 119.26 326.098 119.23C326.148 119.2 326.19 119.173 326.223 119.15C326.26 119.123 326.291 119.11 326.318 119.11C326.365 119.11 326.406 119.138 326.443 119.195L326.703 119.62C326.55 119.763 326.365 119.877 326.148 119.96C325.931 120.04 325.708 120.08 325.478 120.08ZM331.657 114.855C332.027 114.855 332.36 114.917 332.657 115.04C332.957 115.163 333.21 115.338 333.417 115.565C333.627 115.792 333.787 116.067 333.897 116.39C334.01 116.71 334.067 117.068 334.067 117.465C334.067 117.865 334.01 118.225 333.897 118.545C333.787 118.865 333.627 119.138 333.417 119.365C333.21 119.592 332.957 119.767 332.657 119.89C332.36 120.01 332.027 120.07 331.657 120.07C331.287 120.07 330.952 120.01 330.652 119.89C330.355 119.767 330.102 119.592 329.892 119.365C329.682 119.138 329.52 118.865 329.407 118.545C329.294 118.225 329.237 117.865 329.237 117.465C329.237 117.068 329.294 116.71 329.407 116.39C329.52 116.067 329.682 115.792 329.892 115.565C330.102 115.338 330.355 115.163 330.652 115.04C330.952 114.917 331.287 114.855 331.657 114.855ZM331.657 119.375C332.157 119.375 332.53 119.208 332.777 118.875C333.024 118.538 333.147 118.07 333.147 117.47C333.147 116.867 333.024 116.397 332.777 116.06C332.53 115.723 332.157 115.555 331.657 115.555C331.404 115.555 331.184 115.598 330.997 115.685C330.81 115.772 330.654 115.897 330.527 116.06C330.404 116.223 330.31 116.425 330.247 116.665C330.187 116.902 330.157 117.17 330.157 117.47C330.157 117.77 330.187 118.038 330.247 118.275C330.31 118.512 330.404 118.712 330.527 118.875C330.654 119.035 330.81 119.158 330.997 119.245C331.184 119.332 331.404 119.375 331.657 119.375ZM335.364 120V115.695L334.804 115.63C334.734 115.613 334.675 115.588 334.629 115.555C334.585 115.518 334.564 115.467 334.564 115.4V115.035H335.364V114.545C335.364 114.255 335.404 113.998 335.484 113.775C335.567 113.548 335.684 113.358 335.834 113.205C335.987 113.048 336.17 112.93 336.384 112.85C336.597 112.77 336.837 112.73 337.104 112.73C337.33 112.73 337.54 112.763 337.734 112.83L337.714 113.275C337.71 113.342 337.682 113.382 337.629 113.395C337.575 113.408 337.5 113.415 337.404 113.415H337.249C337.095 113.415 336.955 113.435 336.829 113.475C336.705 113.515 336.599 113.58 336.509 113.67C336.419 113.76 336.349 113.878 336.299 114.025C336.252 114.172 336.229 114.353 336.229 114.57V115.035H337.694V115.68H336.259V120H335.364ZM342.741 112.755C343.045 112.755 343.328 112.8 343.591 112.89C343.855 112.98 344.081 113.112 344.271 113.285C344.465 113.455 344.616 113.663 344.726 113.91C344.836 114.157 344.891 114.437 344.891 114.75C344.891 115.017 344.851 115.263 344.771 115.49C344.691 115.717 344.583 115.935 344.446 116.145C344.31 116.352 344.151 116.553 343.971 116.75C343.795 116.943 343.606 117.142 343.406 117.345L341.521 119.275C341.655 119.238 341.79 119.21 341.926 119.19C342.063 119.167 342.195 119.155 342.321 119.155H344.721C344.818 119.155 344.895 119.183 344.951 119.24C345.008 119.297 345.036 119.37 345.036 119.46V120H340.256V119.695C340.256 119.632 340.268 119.567 340.291 119.5C340.318 119.433 340.36 119.372 340.416 119.315L342.711 117.01C342.901 116.817 343.075 116.632 343.231 116.455C343.388 116.275 343.521 116.095 343.631 115.915C343.745 115.735 343.831 115.553 343.891 115.37C343.951 115.183 343.981 114.985 343.981 114.775C343.981 114.565 343.948 114.382 343.881 114.225C343.815 114.065 343.723 113.933 343.606 113.83C343.49 113.727 343.353 113.65 343.196 113.6C343.04 113.547 342.871 113.52 342.691 113.52C342.511 113.52 342.345 113.547 342.191 113.6C342.038 113.653 341.901 113.728 341.781 113.825C341.665 113.918 341.565 114.03 341.481 114.16C341.401 114.29 341.345 114.433 341.311 114.59C341.285 114.687 341.245 114.757 341.191 114.8C341.138 114.843 341.068 114.865 340.981 114.865C340.965 114.865 340.946 114.865 340.926 114.865C340.91 114.862 340.89 114.858 340.866 114.855L340.401 114.775C340.448 114.448 340.538 114.16 340.671 113.91C340.805 113.657 340.973 113.445 341.176 113.275C341.383 113.105 341.618 112.977 341.881 112.89C342.148 112.8 342.435 112.755 342.741 112.755ZM346.267 120V114.935H346.797C346.924 114.935 347.004 114.997 347.037 115.12L347.102 115.64C347.289 115.41 347.497 115.222 347.727 115.075C347.96 114.928 348.23 114.855 348.537 114.855C348.88 114.855 349.157 114.95 349.367 115.14C349.58 115.33 349.734 115.587 349.827 115.91C349.897 115.727 349.989 115.568 350.102 115.435C350.219 115.302 350.349 115.192 350.492 115.105C350.635 115.018 350.787 114.955 350.947 114.915C351.11 114.875 351.275 114.855 351.442 114.855C351.709 114.855 351.945 114.898 352.152 114.985C352.362 115.068 352.539 115.192 352.682 115.355C352.829 115.518 352.94 115.72 353.017 115.96C353.094 116.197 353.132 116.468 353.132 116.775V120H352.242V116.775C352.242 116.378 352.155 116.078 351.982 115.875C351.809 115.668 351.557 115.565 351.227 115.565C351.08 115.565 350.94 115.592 350.807 115.645C350.677 115.695 350.562 115.77 350.462 115.87C350.362 115.97 350.282 116.097 350.222 116.25C350.165 116.4 350.137 116.575 350.137 116.775V120H349.247V116.775C349.247 116.368 349.165 116.065 349.002 115.865C348.839 115.665 348.6 115.565 348.287 115.565C348.067 115.565 347.862 115.625 347.672 115.745C347.485 115.862 347.314 116.022 347.157 116.225V120H346.267ZM354.51 120V112.635H355.405V115.665C355.615 115.422 355.855 115.227 356.125 115.08C356.398 114.93 356.71 114.855 357.06 114.855C357.353 114.855 357.618 114.91 357.855 115.02C358.092 115.13 358.293 115.295 358.46 115.515C358.627 115.732 358.755 116.002 358.845 116.325C358.935 116.645 358.98 117.015 358.98 117.435C358.98 117.808 358.93 118.157 358.83 118.48C358.73 118.8 358.585 119.078 358.395 119.315C358.208 119.548 357.978 119.733 357.705 119.87C357.435 120.003 357.13 120.07 356.79 120.07C356.463 120.07 356.185 120.007 355.955 119.88C355.728 119.753 355.53 119.577 355.36 119.35L355.315 119.81C355.288 119.937 355.212 120 355.085 120H354.51ZM356.77 115.565C356.48 115.565 356.225 115.632 356.005 115.765C355.788 115.898 355.588 116.087 355.405 116.33V118.78C355.565 119 355.742 119.155 355.935 119.245C356.132 119.335 356.35 119.38 356.59 119.38C357.063 119.38 357.427 119.212 357.68 118.875C357.933 118.538 358.06 118.058 358.06 117.435C358.06 117.105 358.03 116.822 357.97 116.585C357.913 116.348 357.83 116.155 357.72 116.005C357.61 115.852 357.475 115.74 357.315 115.67C357.155 115.6 356.973 115.565 356.77 115.565Z" fill="#CCCCCC"/>
<defs>
<clipPath id="clip0">
<rect width="40" height="40" fill="white" transform="translate(290 28)"/>
</clipPath>
</defs>
</svg>
