<svg width="70" height="70" viewBox="0 0 70 70" fill="none" xmlns="http://www.w3.org/2000/svg">
<circle cx="35" cy="35" r="34.5" stroke="#000000"/>
<g clip-path="url(#clip0)">
<path d="M46.875 38.9999C44.9076 38.9999 43.1729 39.9489 42.0515 41.3953L30.203 36.8382C30.215 36.6826 30.25 36.5336 30.25 36.375C30.25 36.0806 30.2034 35.7987 30.163 35.5154L42.3044 29.911C43.4276 31.1815 45.0502 32 46.8749 32C50.2519 32 52.9999 29.252 52.9999 25.875C52.9999 22.498 50.2519 19.75 46.8749 19.75C43.4979 19.75 40.75 22.498 40.75 25.8749C40.75 26.1694 40.7966 26.4512 40.8369 26.7345L28.6956 32.3389C27.5723 31.0685 25.9497 30.2499 24.125 30.2499C20.748 30.2499 18 32.998 18 36.3749C18 39.7519 20.748 42.5 24.125 42.5C26.0924 42.5 27.8271 41.5509 28.9485 40.1046L40.797 44.6616C40.785 44.8173 40.75 44.9663 40.75 45.1249C40.75 48.5018 43.4981 51.2499 46.8751 51.2499C50.252 51.2499 53.0001 48.5018 53.0001 45.1249C53 41.748 50.252 38.9999 46.875 38.9999Z" fill="#000000"/>
</g>
<defs>
<clipPath id="clip0">
<rect width="35" height="35" fill="white" transform="translate(18 18)"/>
</clipPath>
</defs>
</svg>
