<svg width="137" height="17" viewBox="0 0 137 17" fill="none" xmlns="http://www.w3.org/2000/svg">
<g clip-path="url(#clip0_2725:37082)">
<path d="M112.623 15.7327V16.3318C111.799 16.2876 110.999 16.212 110.199 16.2106C109.039 16.2106 107.878 16.2919 106.718 16.2776C106.3 16.2776 105.878 15.9923 105.469 16.0109C104.308 16.075 103.152 16.232 101.994 16.3532C101.877 16.366 101.76 16.3831 101.597 16.4045V15.3704C101.018 15.6942 100.509 16.0836 99.9342 16.2804C97.8145 16.9937 95.324 16.0151 94.5452 13.6359C94.1986 12.5803 93.9932 11.4963 94.0673 10.4008C94.1772 8.77326 94.6208 7.2413 95.7377 6.00032C96.5935 5.05319 97.7075 4.58818 98.9728 4.52969C99.7944 4.49118 100.62 4.52969 101.525 4.52969C101.49 3.76514 101.475 2.91072 101.403 2.05915C101.386 1.83677 101.286 1.62894 101.123 1.47716C100.96 1.32539 100.745 1.24084 100.522 1.2404C99.9684 1.22613 99.9513 0.982216 100.05 0.494384C100.407 0.51578 100.765 0.51578 101.122 0.494384C102.285 0.355547 103.446 0.198644 104.606 0.0236711C105.006 -0.0376645 105.138 0.0493468 105.074 0.443036C105.033 0.647135 105.008 0.854122 104.999 1.0621V13.6387C104.999 14.7428 105.161 14.9468 106.192 15.2848C106.324 15.329 106.413 15.5088 106.53 15.6371C107.528 15.3804 107.735 14.5588 107.749 13.6901C107.784 11.5148 107.805 9.33812 107.741 7.16427C107.71 6.1344 107.611 5.89762 106.426 5.63944V4.9619C106.892 4.9619 107.333 4.99613 107.768 4.9619C108.747 4.89308 109.721 4.77501 110.688 4.60815C111.216 4.50402 111.258 4.68517 111.258 5.09741C111.258 8.03391 111.263 10.9699 111.271 13.9055C111.271 15.0709 111.509 15.3989 112.623 15.7327ZM101.536 10.3509V6.74633C101.536 6.08876 101.385 5.89049 100.751 5.68366C99.5947 5.31137 98.5876 5.78636 98.241 7.03304C97.9892 7.98571 97.8456 8.96376 97.8131 9.94862C97.7603 11.1625 97.8131 12.3892 98.2938 13.5403C98.793 14.7257 99.8628 15.1835 101.07 14.7599C101.393 14.6458 101.549 14.4846 101.542 14.1123C101.523 12.8599 101.542 11.6061 101.542 10.3509H101.536Z" fill="#03ADED"/>
<path d="M31.5006 15.9178V16.467H25.4983L25.4712 15.925C26.4697 15.6397 26.8605 15.0192 26.8562 13.9736C26.8434 10.5146 26.9133 7.05554 26.939 3.5965C26.9432 3.16128 26.9098 2.72651 26.8391 2.29705C26.7421 1.71935 26.2885 1.43264 25.504 1.4084V0.826423L30.4237 0.255859V5.88874C31.1825 5.15414 32.0484 4.72622 33.1096 4.72622C34.148 4.72622 35.1793 4.6763 36.0751 5.37238C36.8981 6.01142 37.2034 6.89151 37.2333 7.86147C37.2918 9.73434 37.2804 11.6101 37.3018 13.4829C37.3018 13.7825 37.3146 14.0835 37.336 14.383C37.4045 15.3416 37.6712 15.6668 38.6098 15.9221V16.4171H32.7045V15.8993C33.0166 15.8142 33.2905 15.6255 33.4813 15.3643C33.672 15.103 33.7683 14.7846 33.7543 14.4615C33.7715 12.3946 33.8371 10.3249 33.7201 8.26371C33.6274 6.63761 32.2238 5.92726 30.7246 6.61479C30.6399 6.66162 30.5671 6.72724 30.5117 6.80662C30.4563 6.88599 30.4199 6.977 30.4051 7.07267C30.4051 9.6402 30.4194 12.2044 30.4479 14.7653C30.4636 15.3687 30.7518 15.6554 31.502 15.9207L31.5006 15.9178Z" fill="#242021"/>
<path d="M60.7518 0.645542V3.32149H60.1128C59.9701 2.323 59.3454 1.71107 58.3626 1.59981C56.832 1.42721 55.2758 1.37444 54.0477 2.55265C53.2717 3.29723 52.8367 4.26434 52.6041 5.30847C52.0593 7.7676 52.0564 10.2167 52.8595 12.6188C53.5441 14.6686 55.0918 15.5886 57.22 15.329V11.8571C57.22 11.7516 57.21 11.6446 57.22 11.539C57.2443 10.8258 57.0446 10.512 56.4155 10.2553C55.9377 10.057 55.9377 10.057 55.9648 9.56059H62.0883L62.114 10.077L61.8672 10.1554C61.0356 10.4079 60.7361 10.8073 60.7261 11.6988C60.7161 12.9369 60.7033 14.1765 60.7161 15.4074C60.7161 15.7583 60.6477 15.9095 60.2583 16.0108C58.6735 16.4273 57.066 16.4487 55.4498 16.386C53.8722 16.3246 52.4044 15.9053 51.0879 15.0109C49.6729 14.0481 48.9297 12.6659 48.663 11.017C48.5332 10.2267 48.3991 9.41938 48.429 8.62487C48.5032 6.64787 48.8341 4.73077 50.1322 3.11465C51.1806 1.80949 52.5671 1.08773 54.1532 0.701174C56.4683 0.140596 58.7748 0.338866 60.7575 0.642691L60.7518 0.645542ZM128.131 4.60383L128.178 5.62656C128.606 5.35412 128.941 5.04458 129.342 4.89339C130.787 4.34564 132.256 4.24009 133.658 5.00607C134.643 5.54526 135.019 6.49952 135.048 7.57361C135.106 9.71322 135.112 11.8528 135.158 13.9825C135.182 15.1136 135.453 15.4474 136.511 15.7484V16.2576H130.546C130.44 15.9081 130.485 15.7155 130.901 15.523C131.186 15.3889 131.453 14.9667 131.526 14.6286C131.63 14.037 131.67 13.4359 131.646 12.8356C131.637 11.2266 131.59 9.61765 131.577 8.00866C131.564 6.34404 130.293 6.03166 128.963 6.28413C128.418 6.38826 128.208 6.62932 128.221 7.23269C128.271 9.56773 128.248 11.9042 128.255 14.2392C128.255 15.0865 128.478 15.3989 129.289 15.7056V16.2562H123.298L123.263 15.717C124.404 15.4916 124.739 14.6586 124.75 13.653C124.773 11.4948 124.799 9.33522 124.739 7.17707C124.711 6.15433 124.609 5.84338 123.4 5.63084V5.06028L128.131 4.60383Z" fill="#03ADED"/>
<path d="M61.1802 5.75083V5.16029L66.03 4.58973V12.3551C66.0307 12.739 66.0738 13.1217 66.1583 13.4962C66.3794 14.4476 67.2781 14.9141 68.4092 14.6816C68.6499 14.6469 68.8803 14.5613 69.0853 14.4305C69.1748 14.366 69.2506 14.2843 69.3084 14.1903C69.3662 14.0963 69.4048 13.9918 69.422 13.8828C69.4405 11.7945 69.4305 9.70626 69.422 7.61942C69.422 7.25569 69.4491 6.84774 69.2979 6.54106C69.1352 6.20467 68.8566 5.93827 68.5133 5.79077C68.074 5.64813 67.9656 5.44272 68.0569 5.09325L72.9295 4.60399V6.58813C72.9295 8.97736 72.9195 11.3652 72.9295 13.7544C72.9295 14.8527 73.1677 15.1038 74.2233 15.3021C74.3559 15.9525 74.3317 16.0038 73.7155 15.9853C72.4165 15.9248 71.1156 16.0545 69.8542 16.3704C69.5689 16.446 69.4077 16.3704 69.4262 16.0395C69.4362 15.7828 69.4262 15.526 69.4262 15.3563C68.713 15.6943 68.0441 16.1265 67.3166 16.3234C66.0071 16.6785 64.7006 16.5573 63.5865 15.6957C63.3091 15.4817 63.0822 15.2092 62.922 14.8976C62.7617 14.586 62.6721 14.2429 62.6594 13.8928C62.5838 11.8673 62.5795 9.83891 62.5367 7.81341C62.5506 7.4297 62.5127 7.04587 62.424 6.67229C62.25 6.11028 61.8106 5.80075 61.1816 5.75083H61.1802ZM80.0416 15.3848C79.6222 15.613 79.026 16.1165 78.347 16.2749C76.1888 16.7827 74.3231 16.0966 74.229 13.4506C74.225 12.9688 74.2878 12.4887 74.4158 12.0242C74.6797 10.9772 75.4 10.3524 76.4385 10.1698C77.3514 10.003 78.2928 9.94732 79.2057 9.86031C79.4995 9.83178 79.7977 9.86031 80.1885 9.86031C80.14 9.00446 80.2099 8.18142 80.0188 7.42115C79.7777 6.4626 78.9746 5.92627 77.6366 6.13738C76.8835 6.26005 76.3843 6.73505 75.982 7.34698C75.9535 7.35019 75.9247 7.34472 75.8993 7.33128C75.1861 6.6837 75.2118 6.47544 75.8993 5.76224C76.7551 4.86217 77.8121 4.52982 79.0017 4.53981C79.7377 4.53981 80.4923 4.53981 81.207 4.68245C82.5749 4.96773 83.4992 6.14023 83.5334 7.62512C83.5776 9.55078 83.542 11.4764 83.5448 13.4035C83.5448 14.4919 83.7902 14.6759 84.8643 14.4405C84.9698 14.4177 85.1781 14.4933 85.2052 14.5703C85.2579 14.7229 85.2865 14.9569 85.2052 15.071C84.6346 15.8655 83.8658 16.3647 82.873 16.4089C82.2568 16.4375 81.6121 16.5516 81.0543 16.1165C80.7091 15.8455 80.3411 15.6087 80.0344 15.3876L80.0416 15.3848ZM80.1842 10.7661C79.8133 10.8017 79.5338 10.8203 79.2556 10.8545C78.5524 10.9415 78.0075 11.2653 77.8035 11.9742C77.5767 12.7559 77.5183 13.5519 78.0517 14.2465C78.464 14.7885 79.5081 14.8613 80.0273 14.4148C80.115 14.3351 80.1691 14.2249 80.1785 14.1067C80.1885 13.0184 80.1785 11.93 80.1785 10.7647L80.1842 10.7661ZM118.543 9.85175C118.483 9.01302 118.513 8.22992 118.353 7.48676C118.104 6.32567 117.083 5.8735 115.967 6.18018C115.331 6.35563 114.773 6.82063 114.113 7.19007C113.472 6.76215 113.495 6.54106 114.113 5.86637C115.061 4.81796 116.244 4.47704 117.589 4.52839C118.255 4.55407 118.94 4.53695 119.579 4.69529C121.028 5.05474 121.821 6.11313 121.861 7.77347C121.915 9.71767 121.872 11.6647 121.875 13.6103C121.875 14.4362 122.323 14.7515 123.101 14.4976C123.228 14.4562 123.48 14.489 123.528 14.5675C123.567 14.644 123.588 14.7283 123.589 14.814C123.591 14.8996 123.573 14.9846 123.537 15.0624C122.918 15.8883 122.101 16.3876 121.045 16.4147C120.295 16.4332 119.516 16.5131 118.987 15.7927C118.834 15.5859 118.702 15.3648 118.559 15.1409C118.221 15.4019 117.877 15.653 117.549 15.9225C116.676 16.6357 114.337 16.6514 113.485 15.7713C113.091 15.3411 112.807 14.8211 112.659 14.2565C112.345 13.0868 112.461 11.9129 113.295 10.9758C113.677 10.5795 114.168 10.3042 114.705 10.1841C115.606 9.98298 116.545 9.94019 117.471 9.85032C117.78 9.81894 118.098 9.85032 118.543 9.85032V9.85175ZM118.493 10.7675C118.08 10.8146 117.73 10.836 117.388 10.8959C116.739 11.0086 116.247 11.3794 116.125 12.0242C116.009 12.574 116 13.1413 116.1 13.6945C116.304 14.6502 117.526 15.0325 118.311 14.4462C118.361 14.4035 118.403 14.3511 118.433 14.2921C118.463 14.233 118.481 14.1686 118.486 14.1024C118.498 13.0169 118.486 11.9386 118.486 10.7604L118.493 10.7675Z" fill="#03ADED"/>
<path d="M25.3729 3.43276H24.6512C24.5285 2.21176 24.0007 1.7496 22.7598 1.75388H20.8926V13.7913C20.8926 15.1022 21.3433 15.5829 22.6785 15.6927C22.6785 15.7897 22.6956 15.891 22.6956 15.9937C22.6933 16.0792 22.6862 16.1644 22.6742 16.249H15.4993L15.4794 15.8211C15.9629 15.61 16.4365 15.4987 16.776 15.2235C17.0399 15.0095 17.2196 14.6058 17.2895 14.2564C17.3716 13.7415 17.4031 13.2198 17.3836 12.6987V1.76386C16.5178 1.76386 15.6534 1.68969 14.8075 1.78526C14.0116 1.8737 13.6992 2.36439 13.5067 3.43847H12.9019V0.611328H25.216L25.3729 3.43276Z" fill="#242021"/>
<path d="M47.6992 9.83701H41.376C41.4487 11.3804 41.4173 12.9323 42.6326 14.0806C43.0419 14.4539 43.5499 14.7014 44.0961 14.7938C45.0387 14.9503 46.0063 14.8431 46.8919 14.4842C46.9732 14.4699 47.0567 14.4754 47.1354 14.5003C47.2141 14.5251 47.2857 14.5685 47.344 14.6269C47.404 14.6925 47.344 14.9578 47.2556 15.0548C46.5188 15.848 45.5036 16.3254 44.4228 16.3871C43.2474 16.4498 42.0663 16.5454 40.8981 16.126C39.6243 15.6682 38.827 14.7981 38.312 13.6013C37.7557 12.3047 37.7729 10.9182 37.9155 9.58169C38.0852 7.98126 38.6686 6.455 40.0252 5.45794C40.6769 5.00403 41.4222 4.70229 42.2061 4.57499C42.9678 4.44234 43.7923 4.51366 44.5654 4.63918C46.24 4.91305 47.2599 6.33946 47.538 7.89567C47.6464 8.51188 47.645 9.1395 47.6992 9.83701ZM41.3546 8.65594H44.2587C44.1874 7.90993 44.1703 7.18674 44.0391 6.48495C43.9078 5.78316 43.4685 5.46364 42.8209 5.47506C42.1733 5.48647 41.7511 5.79457 41.6113 6.5092C41.4687 7.1953 41.4416 7.89995 41.3574 8.64881L41.3546 8.65594Z" fill="#252122"/>
<path d="M91.7107 15.7009V16.2501H84.9523L84.9224 15.7166C85.4929 15.574 86.0007 15.3415 86.2061 14.7894C86.3461 14.3976 86.4175 13.9845 86.4172 13.5684C86.4372 11.463 86.4586 9.35624 86.4172 7.25229C86.393 6.12258 86.1576 5.77881 85.075 5.63047V5.0599L89.7921 4.6006V5.90291C90.0689 5.66613 90.2743 5.54203 90.4126 5.36516C91.2271 4.32245 93.3439 4.30248 94.3424 4.95292C94.5977 5.11838 94.6591 5.31238 94.5421 5.57198C94.1741 6.38361 93.8075 7.19523 93.4195 7.99688C93.3831 8.05827 93.3327 8.11026 93.2725 8.14866C93.2123 8.18706 93.1439 8.2108 93.0729 8.21797C92.9688 8.21797 92.8404 8.06677 92.7733 7.95409C92.4881 7.46625 92.3083 6.8586 91.6536 6.7288C91.165 6.63724 90.6699 6.58477 90.173 6.5719C90.0931 6.5719 89.9305 6.81438 89.9291 6.94561C89.9148 9.35196 89.8963 11.7583 89.9291 14.1647C89.9433 15.1903 90.434 15.5754 91.7107 15.7009Z" fill="#03ADED"/>
<path d="M10.8948 16.5813H0.196777V0.283203H10.8948V16.5813ZM0.590466 0.648363V16.1876H10.484V0.648363H0.590466Z" fill="#0CB0EE"/>
<path d="M107.548 2.3341C107.532 1.55528 107.778 0.986143 108.711 0.920529C109.33 0.880886 109.953 0.913919 110.565 1.01895C111.161 1.11737 111.421 1.60093 111.472 2.16008C111.538 2.79055 111.265 3.3012 110.735 3.55225C110.384 3.72182 110.003 3.81963 109.613 3.83996C109.224 3.86029 108.835 3.80273 108.468 3.67064C107.789 3.44099 107.551 3.06299 107.548 2.3341Z" fill="#03ADED"/>
<path d="M6.88667 6.99142C8.33019 6.38805 9.23739 4.27411 8.67966 2.81775C8.49423 2.33419 8.21751 2.22008 7.87089 2.49538C7.89942 2.52188 7.93102 2.54487 7.96503 2.56385C8.42291 2.74785 8.54558 2.95183 8.39296 3.28561C8.26458 3.57089 7.89514 3.64364 7.53711 3.46248C7.358 3.37307 7.21426 3.22589 7.12911 3.04472C7.04396 2.86354 7.02236 2.65896 7.06782 2.464C7.15769 1.94051 7.47292 1.60815 7.94078 1.56108C8.64258 1.48263 9.22455 1.85492 9.42568 2.59095C9.778 3.86188 9.66531 5.95584 8.15047 7.13263C7.69687 7.48495 7.15198 7.71175 6.66843 7.97849C6.63419 7.96137 6.69696 8.02128 6.75687 8.01701C7.21046 7.9899 7.28606 8.27803 7.26752 8.62893C7.2447 9.0754 7.11204 9.1781 6.64561 9.18666C6.00943 9.18666 5.90102 9.26083 5.98803 9.88845C6.11784 10.8242 6.33037 11.7428 6.49298 12.6799C6.59695 13.1774 6.66418 13.6818 6.6941 14.1891C6.71122 14.8666 6.19058 15.3074 5.47738 15.3002C4.76417 15.2931 4.25067 14.8894 4.31343 14.2033C4.39759 13.279 4.61725 12.3675 4.76132 11.4475C4.85689 10.8413 4.94247 10.2322 5.00096 9.62171C5.02949 9.31218 4.87115 9.17382 4.52454 9.17668C3.90833 9.17668 3.81133 9.05686 3.79707 8.55048C3.79707 8.19958 3.90833 7.99275 4.29774 8.02414C4.39071 8.01862 4.48267 8.00186 4.57161 7.97421C4.53452 7.92143 4.52168 7.88863 4.50599 7.8872C2.4049 7.5791 1.579 5.7647 1.50055 4.10579C1.4706 3.47532 1.46917 2.83914 1.81436 2.26573C2.3293 1.40988 3.41907 1.32715 3.92545 2.10454C4.30487 2.68794 3.96539 3.49244 3.31494 3.49672C3.21333 3.49366 3.11354 3.46892 3.02227 3.42414C2.931 3.37937 2.85036 3.3156 2.78575 3.23711C2.64311 3.00461 2.7615 2.76069 3.00969 2.61377L3.15233 2.52961C2.92411 2.33562 2.72441 2.33705 2.58177 2.60949C2.4384 2.87076 2.34185 3.1551 2.29649 3.44964C2.05685 4.90458 2.7943 6.42228 4.00818 6.98571C4.21643 7.08271 4.4361 7.14404 4.66147 7.21964L4.75276 7.11979C4.67859 7.0556 4.61012 6.97715 4.52882 6.9258C4.40615 6.83451 4.19646 6.76604 4.17221 6.65193C4.11088 6.37806 4.3334 6.36665 4.54165 6.36665C4.60442 6.36665 4.66718 6.30959 4.82694 6.22401C4.71116 6.20364 4.59784 6.17113 4.48888 6.12701C4.37385 6.0496 4.26292 5.96629 4.15652 5.87739C4.2578 5.79323 4.35337 5.70479 4.46178 5.62919C4.53024 5.5807 4.6144 5.55502 4.66575 5.4295C4.60223 5.42321 4.54011 5.40684 4.48174 5.381C4.36335 5.30398 4.25637 5.21268 4.14511 5.12567C4.24781 5.03581 4.34909 4.94167 4.45607 4.8518C4.52882 4.79475 4.61012 4.74768 4.68715 4.69633C4.61364 4.65359 4.54311 4.60594 4.47604 4.55369C4.36621 4.46382 4.26493 4.36255 4.15938 4.2684C4.25923 4.1657 4.34624 3.99453 4.4632 3.97314C4.71425 3.92179 4.76417 3.79626 4.74848 3.57232C4.73565 3.23426 4.75847 2.92473 4.47461 2.62946C4.31628 2.464 4.27919 2.09884 4.32056 1.84636C4.37619 1.50688 4.72138 1.58533 4.97386 1.58248C5.37325 1.58248 5.77407 1.62099 6.17061 1.58248C6.91092 1.51971 6.99365 2.12166 6.68127 2.55814C6.56647 2.70102 6.48281 2.86631 6.43565 3.04342C6.38849 3.22053 6.37886 3.40554 6.4074 3.58658C6.42879 3.72922 6.55004 3.8362 6.64846 3.95031C6.74688 4.06443 6.8453 4.15857 6.94658 4.26127C6.83532 4.35684 6.72548 4.45526 6.6128 4.54655C6.56698 4.58179 6.51937 4.61465 6.47016 4.64497L6.93802 5.08859L6.40597 5.4994C6.46905 5.53637 6.53 5.57684 6.58855 5.62064C6.69125 5.70194 6.78682 5.79038 6.88667 5.87597C6.78825 5.96155 6.69268 6.05141 6.58855 6.12844C6.4887 6.18387 6.38474 6.23156 6.27759 6.27108C6.64989 6.41372 7.13344 6.36665 6.81107 6.88586L6.36888 7.02851L6.42451 7.17115L6.88667 6.99142ZM5.98803 3.56804C5.7812 3.40543 5.66138 3.23854 5.52873 3.22855C5.42888 3.21999 5.2192 3.41827 5.22633 3.50242C5.2387 3.58067 5.27016 3.65465 5.31793 3.71784C5.3657 3.78104 5.4283 3.83148 5.5002 3.86473C5.61574 3.89896 5.76409 3.72209 5.98661 3.57945L5.98803 3.56804ZM5.98803 7.22963C5.7812 7.06701 5.66138 6.90155 5.53301 6.89157C5.43173 6.89157 5.2249 7.07843 5.23061 7.16544C5.24274 7.24289 5.27419 7.31603 5.32205 7.3781C5.36992 7.44018 5.43266 7.48919 5.50448 7.52061C5.62002 7.55057 5.76551 7.37797 5.98803 7.23533V7.22963ZM5.50305 4.51945L5.13932 4.722C5.26362 4.79136 5.39859 4.83957 5.53871 4.86464C5.65425 4.86464 5.76979 4.76765 5.8839 4.71202L5.50305 4.51945ZM5.09225 5.40382C5.23489 5.80179 5.52017 5.62064 5.71559 5.6563C5.76123 5.66486 5.82257 5.57785 5.87677 5.53363C5.82257 5.48941 5.77407 5.41381 5.71701 5.4081C5.53871 5.39099 5.349 5.4081 5.10081 5.4081L5.09225 5.40382ZM5.1493 6.14841L5.10651 6.25254C5.17213 6.30389 5.23632 6.39518 5.30336 6.39518C5.49094 6.39176 5.67814 6.37699 5.86393 6.35096C5.82685 6.28249 5.79689 6.1584 5.75267 6.15412C5.55424 6.14041 5.35522 6.13708 5.15644 6.14413L5.1493 6.14841Z" fill="#282425"/>
<path d="M5.99352 3.56721C5.76957 3.70985 5.6198 3.89243 5.50996 3.87104C5.43806 3.83779 5.37546 3.78734 5.32769 3.72415C5.27993 3.66096 5.24847 3.58697 5.23609 3.50873C5.22754 3.41886 5.43722 3.22344 5.53849 3.23485C5.6683 3.23485 5.78383 3.40317 5.99494 3.56721H5.99352Z" fill="#EFEEEE"/>
<path d="M5.99518 7.23127C5.77123 7.37392 5.62431 7.54651 5.5102 7.52797C5.43838 7.49655 5.37564 7.44753 5.32777 7.38546C5.2799 7.32338 5.24845 7.25024 5.23633 7.17279C5.23633 7.0815 5.43603 6.88751 5.53873 6.89892C5.66996 6.89892 5.78407 7.06581 5.9966 7.2327L5.99518 7.23127Z" fill="#F4F4F4"/>
<path d="M5.50729 4.51367L5.88814 4.70623C5.7726 4.76044 5.65564 4.86029 5.54295 4.85886C5.40283 4.83379 5.26786 4.78558 5.14355 4.71622L5.50729 4.51367Z" fill="#E1E0E0"/>
<path d="M5.10352 5.39702C5.35171 5.39702 5.54142 5.38703 5.72828 5.39702C5.78391 5.39702 5.83526 5.47832 5.88804 5.52254C5.83384 5.56533 5.77107 5.65092 5.72686 5.64521C5.53001 5.61526 5.24616 5.78785 5.10352 5.39844V5.39702ZM5.16057 6.1416C5.36221 6.13425 5.56409 6.13758 5.76537 6.15159C5.80959 6.15159 5.83954 6.27854 5.87663 6.34843C5.69083 6.37446 5.50363 6.38923 5.31605 6.39265C5.24901 6.39265 5.17341 6.29851 5.11921 6.25001L5.16057 6.1416Z" fill="#F9F9F9"/>
<path d="M6.88666 6.99078L6.41452 7.18763L6.35889 7.04498L6.80107 6.90234L6.88666 6.99078Z" fill="#FCFDFD"/>
</g>
<defs>
<clipPath id="clip0_2725:37082">
<rect width="136.315" height="16.5749" fill="white" transform="translate(0.195312 0.00585938)"/>
</clipPath>
</defs>
</svg>
