<svg width="68" height="69" viewBox="0 0 68 69" fill="none" xmlns="http://www.w3.org/2000/svg">
<circle cx="33.9286" cy="34.7606" r="33.9286" fill="#000000"/>
<path d="M50.5014 41.7645L50.7584 40.8431C50.9051 40.3183 50.9789 39.7793 50.9789 39.2398V29.6242C50.9789 28.9131 50.8518 28.2099 50.6006 27.535L49.4433 24.4256C49.0853 23.4634 48.4739 22.5777 47.6774 21.8637L45.3791 19.8051C44.8691 19.3482 44.1327 19.1904 43.4549 19.3914L43.1491 19.483C42.3531 19.7205 41.8183 20.4025 41.8183 21.1792V21.6135C41.8183 22.0845 42.0251 22.5409 42.3839 22.8729L42.1161 22.9067C41.4761 23.0502 40.9661 23.4805 40.7515 24.0586C40.5505 24.6006 40.6368 25.1815 40.9869 25.6525L41.0737 25.7697C41.2616 26.0227 41.5193 26.2272 41.8178 26.3607L44.8444 27.7166L44.4998 30.8027C44.4903 30.8861 44.475 30.9682 44.4526 31.0492L44.1027 32.3027C44.0797 32.2737 44.0531 32.2478 44.0312 32.217L42.9856 30.7289C42.5524 30.1118 41.7569 29.8205 41.0068 29.9954L40.5701 30.0994C40.1055 30.2094 39.7184 30.4841 39.4614 30.8688L36.2742 25.9716L40.4886 19.3164L37.2989 15.7598H29.1585L26.0133 19.3172L30.1686 25.9743L27.0338 30.8672C26.7769 30.4836 26.3903 30.21 25.9275 30.1L25.4896 29.996C24.7426 29.8211 23.9453 30.1124 23.5115 30.7295L22.4659 32.217C22.4446 32.2476 22.4182 32.2738 22.3944 32.3033L22.0446 31.0503C22.0222 30.9688 22.0069 30.8867 21.9974 30.8025L21.6528 27.7169L24.6794 26.361C24.9778 26.2269 25.235 26.023 25.4234 25.77L25.5097 25.6528C25.8609 25.1818 25.9464 24.6003 25.7456 24.0589C25.5316 23.4808 25.021 23.0507 24.3248 22.8975L24.1156 22.8714C24.4725 22.5392 24.6794 22.0841 24.6794 21.6136V21.1793C24.6794 20.4028 24.1446 19.7208 23.3486 19.4826L23.0422 19.3915C22.365 19.1905 21.628 19.3483 21.118 19.8052L18.8197 21.8638C18.0224 22.5777 17.4118 23.4638 17.0538 24.4257L15.8971 27.5357C15.6459 28.2106 15.5187 28.9132 15.5187 29.6243V39.2398C15.5187 39.7794 15.5926 40.3185 15.7393 40.8432L15.9963 41.7646H14.9277V52.4028H23.2019V41.7646H21.9206V41.04C21.9206 40.0944 22.2647 39.166 22.8892 38.4253L26.6646 33.949C26.8361 33.7456 26.9567 33.5134 27.0227 33.2598L27.2815 32.2789C27.2868 32.2583 27.2868 32.2375 27.2915 32.2169L30.5806 34.9669L33.2072 30.8185L35.871 34.959L39.2073 32.2127C39.2121 32.2346 39.2121 32.2565 39.2179 32.2784L39.4762 33.2583C39.5429 33.5124 39.6635 33.7448 39.835 33.948L43.6104 38.4249C44.2352 39.1655 44.579 40.094 44.579 41.0396V41.7646H43.2964V52.4028H51.5706V41.7646L50.5014 41.7645ZM42.3015 25.283C42.1867 25.2316 42.0904 25.1567 42.0226 25.0648L41.935 24.9472C41.7962 24.7598 41.8168 24.5844 41.8593 24.4701C41.9337 24.2691 42.1258 24.1161 42.3173 24.0701L43.5442 23.9176L44.4473 24.7268C44.8692 25.1052 45.0779 25.621 45.0202 26.1429L44.9824 26.4833L42.3015 25.283ZM35.9543 16.942L34.218 19.6517H32.2085L30.497 16.942H35.9543ZM33.2061 21.2316L32.9549 20.8345H33.4602L33.2061 21.2316ZM27.482 19.4396L29.3447 17.3326L32.5019 22.3308L30.8737 24.8722L27.482 19.4396ZM24.6375 24.4703C24.68 24.5843 24.7008 24.76 24.5613 24.9478L24.4744 25.065C24.4072 25.156 24.3109 25.2317 24.1956 25.2832L21.5147 26.4835L21.4769 26.1431C21.4184 25.6212 21.6276 25.1054 22.0497 24.727L22.9534 23.9173L24.123 24.0603C24.371 24.1163 24.5631 24.2695 24.6375 24.4703ZM22.0194 51.2205H16.1092V42.9463H22.0194V51.2205ZM26.1382 31.9778L25.8794 32.9596C25.858 33.0424 25.8179 33.1187 25.7606 33.1865L21.9853 37.6634C21.1816 38.6166 20.7389 39.8163 20.7389 41.0398L20.7386 41.7643H17.2226L16.877 40.5256C16.7598 40.1047 16.7002 39.672 16.7002 39.2401V29.6245C16.7002 29.0541 16.8025 28.4903 17.0047 27.9473L18.1619 24.8387C18.4532 24.0551 18.954 23.3311 19.608 22.7448L21.9063 20.6863C22.1098 20.5042 22.424 20.4404 22.7042 20.5248L23.0102 20.6158C23.3012 20.7027 23.4967 20.9296 23.4967 21.1797V21.614C23.4967 21.7617 23.4282 21.9047 23.3041 22.0158L21.2604 23.8469C20.5501 24.4833 20.2008 25.3677 20.3011 26.2735L20.8216 30.9324C20.8375 31.0791 20.8659 31.2237 20.9061 31.3667L21.3522 32.9654C21.0372 33.0451 20.7003 33.0559 20.3688 32.9772L19.5691 32.7875L19.2966 33.9376L20.0963 34.1273C21.3627 34.4263 22.7034 33.9318 23.4326 32.8957L24.4782 31.4077C24.6355 31.1836 24.9328 31.0768 25.2159 31.1451L25.6539 31.2491C25.836 31.2924 25.9856 31.3979 26.0753 31.548C26.1534 31.6807 26.1758 31.8332 26.1381 31.9781L26.1382 31.9778ZM30.303 33.1947L28.1173 31.3668L37.1128 17.3237L39.0107 19.44L30.303 33.1947ZM36.144 33.2023L33.9029 29.7177L35.5796 27.0695L38.375 31.3657L36.144 33.2023ZM44.5127 37.664L40.7373 33.1871C40.6793 33.119 40.6397 33.0428 40.6181 32.9596L40.3592 31.9792C40.3215 31.8338 40.3439 31.6813 40.4218 31.5496C40.5115 31.4 40.6611 31.2937 40.8437 31.2507L41.2803 31.1467C41.5653 31.0781 41.8608 31.1853 42.0186 31.4093L43.0642 32.8973C43.7924 33.9335 45.1332 34.4273 46.4005 34.1285L47.2002 33.9388L46.9277 32.7887L46.128 32.9784C45.7963 33.0565 45.4602 33.0457 45.1451 32.966L45.5913 31.3674C45.6309 31.2249 45.6594 31.0795 45.6757 30.9341L46.1963 26.2741C46.2968 25.3681 45.9475 24.4839 45.2369 23.8475L43.1932 22.0172C43.0692 21.9056 43.0006 21.7626 43.0006 21.6148L43.0009 21.1795C43.0009 20.9294 43.1964 20.7025 43.4879 20.6157L43.794 20.5246C44.0752 20.4389 44.3884 20.5041 44.5918 20.6861L46.8901 22.7446C47.5445 23.3309 48.045 24.0549 48.3362 24.838L49.4935 27.9466C49.6945 28.4903 49.7969 29.0547 49.7969 29.6244V39.2399C49.7969 39.6719 49.7373 40.1051 49.6201 40.5259L49.2745 41.7647H45.759V41.0401C45.759 39.8167 45.3165 38.6175 44.5126 37.6643L44.5127 37.664ZM50.388 51.2208H44.4779V42.9466H50.388V51.2208Z" fill="#7EC65C"/>
<path d="M45.6598 44.1286H46.8418V45.3106H45.6598V44.1286Z" fill="#7EC65C"/>
<path d="M19.6553 44.1286H20.8373V45.3106H19.6553V44.1286Z" fill="#7EC65C"/>
</svg>
