<svg width="70" height="71" viewBox="0 0 70 71" fill="none" xmlns="http://www.w3.org/2000/svg">
<g clip-path="url(#clip0_2725:37240)">
<path d="M70 35.1094C70 38.1218 66.942 40.6922 66.1994 43.4704C65.431 46.3451 66.7715 50.0958 65.3153 52.6128C63.8382 55.1659 59.9058 55.8713 57.8337 57.9433C55.7617 60.0153 55.0562 63.9477 52.5031 65.4248C49.9863 66.881 46.2355 65.5405 43.3609 66.3087C40.5826 67.0514 38.0125 70.1094 35 70.1094C31.9875 70.1094 29.4172 67.0514 26.639 66.3087C23.7643 65.5404 20.0136 66.8809 17.4966 65.4247C14.9435 63.9476 14.238 60.0152 12.1661 57.943C10.0941 55.8711 6.16164 55.1656 4.68453 52.6125C3.22834 50.0957 4.56887 46.3449 3.80064 43.4703C3.05799 40.6921 0 38.1218 0 35.1094C0 32.0969 3.05799 29.5266 3.80064 26.7483C4.569 23.8737 3.22848 20.1229 4.68467 17.606C6.16178 15.0529 10.0942 14.3474 12.1663 12.2754C14.2383 10.2035 14.9438 6.27102 17.4969 4.79391C20.0137 3.33771 23.7645 4.67824 26.6391 3.91002C29.4172 3.16736 31.9875 0.109375 35 0.109375C38.0125 0.109375 40.5828 3.16736 43.361 3.91002C46.2357 4.67838 49.9864 3.33785 52.5034 4.79404C55.0565 6.27115 55.762 10.2036 57.8339 12.2757C59.9059 14.3477 63.8384 15.0531 65.3155 17.6062C66.7717 20.1231 65.4311 23.8738 66.1994 26.7485C66.942 29.5267 70 32.097 70 35.1094Z" fill="#7EC65C"/>
<path d="M70.0002 35.1086C70.0002 32.0961 66.9422 29.5258 66.1995 26.7475C65.4312 23.8729 66.7719 20.1221 65.3157 17.6053C63.8386 15.0522 59.9061 14.3467 57.834 12.2748C55.762 10.2028 55.0566 6.27035 52.5035 4.79311C51.4639 4.19154 50.2137 4.06727 48.9018 4.07451C50.0336 5.83682 50.8088 8.06656 52.2 9.45781C54.2719 11.5298 58.2044 12.2353 59.6816 14.7883C61.1378 17.3052 59.7971 21.0559 60.5655 23.9306C61.3082 26.7088 64.3661 29.2792 64.3661 32.2916C64.3661 35.3041 61.3082 37.8744 60.5655 40.6527C59.7971 43.5273 61.1377 47.278 59.6815 49.7949C58.2044 52.348 54.2719 53.0535 52.1998 55.1256C50.1279 57.1975 49.4224 61.13 46.8693 62.6071C44.3524 64.0633 40.6017 62.7228 37.7271 63.491C34.9488 64.2336 32.3785 67.2916 29.366 67.2916C29.1603 67.2916 28.9567 67.2773 28.7549 67.2505C30.7704 68.4226 32.7635 70.1086 35.0002 70.1086C38.0127 70.1086 40.583 67.0506 43.3612 66.3079C46.2359 65.5396 49.9866 66.8802 52.5035 65.424C55.0566 63.9469 55.762 60.0145 57.834 57.9425C59.906 55.8705 63.8384 55.1651 65.3157 52.6119C66.7719 50.095 65.4313 46.3443 66.1997 43.4696C66.9422 40.6913 70.0002 38.121 70.0002 35.1086Z" fill="#000000"/>
<path d="M34.9998 48.7204C42.5171 48.7204 48.611 42.6265 48.611 35.1092C48.611 27.592 42.5171 21.498 34.9998 21.498C27.4826 21.498 21.3887 27.592 21.3887 35.1092C21.3887 42.6265 27.4826 48.7204 34.9998 48.7204Z" fill="#F2FBFF"/>
<path d="M40.6558 28.3027L33.6578 35.3008L29.3415 30.9846L25.5488 34.7772L33.6578 42.8861L44.4484 32.0955L40.6558 28.3027Z" fill="#FED402"/>
<path d="M12.9781 41.9075C14.589 41.9075 15.8948 40.6016 15.8948 38.9908C15.8948 37.38 14.589 36.0742 12.9781 36.0742C11.3673 36.0742 10.0615 37.38 10.0615 38.9908C10.0615 40.6016 11.3673 41.9075 12.9781 41.9075Z" fill="#FED402"/>
<path d="M57.0211 41.9075C58.6319 41.9075 59.9377 40.6016 59.9377 38.9908C59.9377 37.38 58.6319 36.0742 57.0211 36.0742C55.4103 36.0742 54.1045 37.38 54.1045 38.9908C54.1045 40.6016 55.4103 41.9075 57.0211 41.9075Z" fill="#FED402"/>
<path d="M43.6041 59.8306C43.77 60.372 43.4656 60.9455 42.9242 61.1115C41.1586 61.6528 39.3122 62.0112 37.4364 62.1772C37.4056 62.18 37.3752 62.1812 37.3448 62.1812C36.8197 62.1812 36.3723 61.7799 36.3246 61.247C36.2565 60.4849 35.7099 54.3643 35.6433 53.6177C35.6185 53.3388 35.7088 53.0619 35.8931 52.8512C36.4365 52.2304 36.9172 52.7659 40.102 51.8202C40.6449 51.659 41.2156 51.9684 41.3768 52.5113C41.538 53.0543 41.2286 53.6251 40.6857 53.7861C39.8803 54.0252 38.7467 54.288 37.7753 54.4364L37.9338 56.2103C39.004 56.0509 40.3253 55.7502 41.2157 55.4846C41.7586 55.3222 42.3294 55.6317 42.4913 56.1743C42.6532 56.717 42.3443 57.288 41.8016 57.4499C40.7987 57.7489 39.3372 58.0835 38.1165 58.2563L38.2742 60.0235C39.6563 59.8444 41.0142 59.552 42.3229 59.1507C42.8641 58.9851 43.438 59.289 43.6041 59.8306ZM50.0911 55.1994C48.982 56.0339 47.8071 56.7752 46.5877 57.4109L45.8242 55.7849C46.7036 55.3304 47.5958 54.8394 49.0177 53.7805C49.4719 53.4421 49.566 52.7998 49.2277 52.3456C48.8893 51.8913 48.2469 51.7975 47.7929 52.1356C46.5348 53.0726 45.7553 53.5099 44.952 53.9272L44.1998 52.3254C44.7993 52.0075 45.6565 51.5071 46.7148 50.7206C47.1693 50.3826 47.2639 49.7403 46.9261 49.2859C46.5881 48.8317 45.9461 48.7367 45.4913 49.0746C43.8014 50.3308 42.7739 50.729 42.3494 50.9655C41.8792 51.2278 41.6919 51.8093 41.9208 52.2967L43.5486 55.7632L45.1762 59.2298C45.4164 59.7414 46.0262 59.9633 46.5401 59.7223C48.2167 58.9355 49.8263 57.9651 51.324 56.8381C51.7767 56.4977 51.8675 55.8548 51.5269 55.4023C51.1866 54.9497 50.5435 54.8588 50.0911 55.1994ZM26.5386 54.6528C25.4244 54.1615 24.4932 53.6705 23.5682 53.0805L24.597 51.6251C25.4154 52.1404 26.2576 52.5831 27.2298 53.0132C27.748 53.2424 28.3534 53.0083 28.5825 52.4906C28.8116 51.9727 28.5776 51.367 28.0598 51.1379C26.8765 50.6142 25.9097 50.0722 24.9251 49.3801C24.4626 49.055 23.8243 49.1654 23.4981 49.6271L19.0766 55.8817C18.7496 56.3441 18.8595 56.984 19.322 57.3109C19.7864 57.6391 20.4256 57.5262 20.7511 57.0654L22.383 54.7571C23.4232 55.4272 24.4628 55.9787 25.711 56.5291C26.229 56.7578 26.8344 56.5228 27.063 56.0047C27.2915 55.4866 27.0567 54.8812 26.5386 54.6528ZM34.7906 55.5358C34.747 56.2747 34.4471 56.9352 33.968 57.4183C34.3801 57.977 34.5994 58.6629 34.5582 59.3588L34.4419 61.2719C34.4088 61.8159 33.9572 62.2351 33.4193 62.2351C32.8243 62.2351 32.3592 61.7343 32.3949 61.1475L32.5111 59.2361C32.5349 58.8343 32.2549 58.4903 31.967 58.3285C31.6592 58.1511 31.4658 58.2505 29.854 57.8681L29.1093 60.6062C28.9615 61.1495 28.4008 61.4757 27.8507 61.3266C27.3043 61.178 26.9818 60.6144 27.1303 60.0679L28.1354 56.3724C28.1357 56.3716 28.136 56.3706 28.1361 56.3698L29.1405 52.6769C29.2857 52.1436 29.8275 51.8212 30.365 51.9479C31.8672 52.3018 32.3077 52.3708 32.3841 52.3815C33.6698 52.4884 34.89 53.8491 34.7906 55.5358ZM30.3921 55.8882C31.0499 56.0439 31.0205 56.0347 31.9071 56.1799C31.9097 56.1803 31.9122 56.1807 31.9148 56.1812C32.2937 56.2379 32.7117 55.9517 32.7434 55.415C32.7716 54.9373 32.4924 54.4708 32.1458 54.4168L32.1461 54.4152C32.1446 54.415 32.1431 54.4149 32.1414 54.4147L32.1413 54.416C31.8666 54.3711 31.754 54.3643 30.8608 54.1656L30.3921 55.8882ZM20.1632 16.4052C19.0899 14.9289 19.4657 12.7412 21.3662 11.5955C21.3757 11.5898 21.3852 11.5842 21.3949 11.5788C23.3425 10.4885 25.435 11.2786 26.1687 12.9216L26.7938 14.3134C26.7944 14.3146 26.795 14.3158 26.7956 14.3171L28.3649 17.8106C28.5969 18.3271 28.3662 18.9342 27.8496 19.1662C27.3328 19.3979 26.726 19.1676 26.494 18.6509L25.3602 16.1265C24.3472 16.6471 23.8113 16.9776 23.3398 17.2875L24.9744 19.5366C25.3074 19.9947 25.2058 20.6359 24.7478 20.9688C24.2904 21.3015 23.649 21.2012 23.3156 20.7423L21.069 17.6512C21.0672 17.6489 21.0656 17.6467 21.0638 17.6442L20.1632 16.4052ZM21.8222 15.1993L22.1283 15.6207C22.7851 15.1914 23.6664 14.6699 24.514 14.2427L24.2972 13.7601C24.046 13.1972 23.2765 12.8859 22.4129 13.3592C21.5702 13.8746 21.4496 14.6871 21.8222 15.1993ZM57.5054 19.8774C56.3852 18.2442 55.315 16.9676 53.9266 15.6086C53.7316 15.4178 53.4659 15.3073 53.1961 15.3161C52.9234 15.3195 52.6633 15.4316 52.4734 15.6272C51.9261 16.1915 47.6961 20.5516 47.1399 21.1248C46.7459 21.531 46.7554 22.1795 47.1609 22.574C48.0215 23.4109 48.7983 24.3379 49.4697 25.3292C49.7859 25.7961 50.4225 25.922 50.8938 25.6032C51.3627 25.2856 51.4852 24.6481 51.1678 24.1791C50.6091 23.3544 49.9854 22.5698 49.3063 21.8369L50.5465 20.5585C51.3093 21.3711 51.9524 22.1802 52.6442 23.1865C52.9649 23.653 53.6034 23.7712 54.0702 23.4507C54.5368 23.1298 54.655 22.4913 54.3343 22.0247C53.5595 20.8976 52.84 19.997 51.9762 19.085L53.2162 17.8068C54.1741 18.8117 54.9642 19.7978 55.814 21.0372C56.1335 21.5027 56.771 21.624 57.2397 21.3028C57.7067 20.9828 57.8257 20.3444 57.5054 19.8774ZM19.1091 25.6009C19.5826 25.9213 20.2186 25.7917 20.5333 25.3273C20.8509 24.8583 20.7286 24.2208 20.2598 23.9031L17.9586 22.3437C18.425 21.7217 18.9257 21.1244 19.4568 20.5561L21.3919 22.5503C21.7864 22.9567 22.4354 22.9664 22.8418 22.5721C23.2483 22.1777 23.258 21.5286 22.8637 21.1222L20.1966 18.3736C20.1948 18.3719 20.193 18.3701 20.1913 18.3683L17.5293 15.6252C17.1352 15.2188 16.4858 15.2087 16.0796 15.6034C15.6731 15.9977 15.6634 16.647 16.0577 17.0532L18.027 19.0825C17.3974 19.7505 16.8062 20.4557 16.2591 21.192L13.9191 19.606C13.4502 19.2881 12.8125 19.4105 12.4951 19.8795C12.1773 20.3483 12.2997 20.9859 12.7685 21.3035L15.9316 23.4474C15.934 23.449 15.9363 23.4507 15.9388 23.4523L19.1091 25.6009ZM41.6145 18.598C41.7116 18.8524 41.9059 19.0579 42.1547 19.1691C43.2225 19.6457 44.2656 20.2521 45.2552 20.9718C45.7145 21.3054 46.3551 21.2028 46.6878 20.7456C47.0208 20.2874 46.9194 19.6462 46.4615 19.313C45.6436 18.7183 44.7912 18.1922 43.9178 17.742L46.6493 11.6674C46.8816 11.1509 46.6513 10.5439 46.1347 10.3117C45.6181 10.0796 45.0112 10.3097 44.779 10.8263L41.6376 17.8123C41.5257 18.0605 41.5175 18.3434 41.6145 18.598ZM30.9255 14.2071C30.9845 14.1982 30.9516 14.2029 31.6252 14.0844C31.8922 14.0473 32.0758 14.1414 32.1837 14.2278C32.357 14.3667 32.4622 14.5801 32.4798 14.8288C32.5115 15.2768 32.2794 15.6358 32.1045 15.7479C32.0955 15.7538 32.0863 15.7597 32.0774 15.7659C31.8557 15.8934 31.117 16.0549 30.7978 15.8305C30.3346 15.505 29.695 15.6167 29.3692 16.0796C29.0435 16.543 29.1551 17.1824 29.6183 17.5082C30.1209 17.8615 30.7094 17.9911 31.2737 17.9911C32.085 17.9911 32.8455 17.7229 33.2257 17.465C34.0822 16.9075 34.6039 15.7927 34.5255 14.6836C34.4676 13.8697 34.0813 13.1199 33.4656 12.6269C32.8596 12.1419 32.0937 11.9398 31.3102 12.0579C31.3044 12.0587 31.2986 12.0597 31.2928 12.0606C31.2791 12.063 30.5236 12.1963 30.5012 12.2008C29.9977 12.3017 29.4386 11.9853 29.3052 11.5218C29.1715 11.0578 29.5633 10.7327 29.7118 10.6291C30.0905 10.4037 30.7675 10.3521 31.0325 10.3011C31.2764 10.2698 31.4846 10.2858 31.6365 10.3481C32.16 10.5628 32.7593 10.3124 32.9743 9.78838C33.1891 9.26447 32.9386 8.66551 32.4146 8.45059C31.9128 8.24482 31.3411 8.18535 30.716 8.27463C29.9806 8.37703 29.2487 8.50158 28.613 8.89725C28.6026 8.90381 28.5922 8.91051 28.582 8.91721C27.4823 9.65754 26.9926 10.9028 27.3344 12.0895C27.7517 13.538 29.3193 14.5284 30.9255 14.2071ZM37.3207 13.7058C37.872 14.0198 38.2919 14.0749 38.5701 14.1117C38.6211 14.1184 38.7402 14.1393 38.7607 14.1426C39.344 14.2343 39.46 14.3397 39.5847 14.557C39.8305 14.9863 39.587 15.5619 39.2041 15.8308C38.8687 16.0669 38.1197 15.8977 37.8972 15.7467C37.8321 15.7035 37.7678 15.6353 37.7109 15.5494C37.3984 15.0773 36.762 14.9479 36.2899 15.2604C35.8177 15.5729 35.6883 16.2091 36.0009 16.6815C36.2106 16.9982 36.4667 17.2586 36.7538 17.4491C37.1932 17.7475 37.9372 17.9989 38.716 17.9989C39.2894 17.9989 39.8815 17.8626 40.3843 17.5081C41.6851 16.5941 42.1156 14.8505 41.3639 13.5371C40.4651 11.9723 38.9517 12.2485 38.3184 11.9142C37.9942 11.7354 37.777 11.3557 37.802 11.0113C37.8168 10.8064 37.9025 10.6438 38.0641 10.5145C38.4693 10.1906 38.9481 10.2998 39.3071 10.3548C39.7251 10.4191 40.1198 10.4795 40.3772 10.6906C40.8149 11.0493 41.4613 10.9858 41.8203 10.5477C42.1793 10.1098 42.1153 9.46367 41.6774 9.10465C40.9914 8.54219 40.2363 8.41408 39.2969 8.27531C38.3781 8.13736 37.4613 8.37033 36.7826 8.91338C36.1768 9.39832 35.8125 10.0907 35.7565 10.8634C35.6741 11.9994 36.3025 13.1406 37.3207 13.7058Z" fill="#F2FBFF"/>
<path d="M51.6853 55.709C51.2995 56.2001 50.9605 56.755 50.6396 57.3353C50.87 57.1728 51.0982 57.0067 51.3237 56.8371C51.6806 56.5685 51.8126 56.112 51.6853 55.709Z" fill="#F0F3EE"/>
</g>
<defs>
<clipPath id="clip0_2725:37240">
<rect width="70" height="70" fill="white" transform="translate(0 0.109375)"/>
</clipPath>
</defs>
</svg>
