<svg width="100" height="100" viewBox="0 0 100 100" fill="none" xmlns="http://www.w3.org/2000/svg">
<circle r="50" transform="matrix(-1 0 0 1 50 50)" fill="#FFF5F5"/>
<path fill-rule="evenodd" clip-rule="evenodd" d="M79.9436 57.4336C80.1772 62.1057 79.71 67.0113 78.0748 71.6835L71.3003 67.4787C72.2348 64.2083 72.4684 60.7042 72.2348 57.4337L79.9436 57.4336Z" fill="#D1474E"/>
<path fill-rule="evenodd" clip-rule="evenodd" d="M74.8044 42.25C77.1404 45.9876 78.7756 50.1925 79.4764 54.3975H71.7676C71.0668 51.5943 69.8988 48.791 68.2636 46.2214L74.8044 42.25Z" fill="#D1474E"/>
<path fill-rule="evenodd" clip-rule="evenodd" d="M64.5259 31.9688C67.7963 33.8376 70.8331 36.6408 73.1689 39.9112L66.6282 43.8824C64.7593 42.0136 62.8905 40.3784 60.5545 38.9768L64.5259 31.9688Z" fill="#D1474E"/>
<path fill-rule="evenodd" clip-rule="evenodd" d="M51.4446 28C54.9486 28.2336 58.6863 29.168 61.9569 30.5696L58.2193 37.8113C55.8833 36.8768 53.7809 36.4097 51.4448 36.176L51.4446 28Z" fill="#D1474E"/>
<path fill-rule="evenodd" clip-rule="evenodd" d="M37.8952 30.5696C41.3992 29.168 44.9032 28.2336 48.6407 28V36.176C46.3047 36.4096 43.9687 36.8768 41.8663 37.8113L37.8952 30.5696Z" fill="#D1474E"/>
<path fill-rule="evenodd" clip-rule="evenodd" d="M26.6823 39.9112C29.2519 36.6408 32.2888 33.8376 35.5595 31.9688L39.2971 38.9768C37.1947 40.3784 35.0923 42.0136 33.4571 43.8824L26.6823 39.9112Z" fill="#D1474E"/>
<path fill-rule="evenodd" clip-rule="evenodd" d="M20.6089 54.3975C21.3097 50.1926 22.7113 45.9878 25.281 42.25L31.8218 46.2212C30.1865 48.7908 29.0186 51.5941 28.3177 54.3972L20.6089 54.3975Z" fill="#D1474E"/>
<path fill-rule="evenodd" clip-rule="evenodd" d="M22.011 71.6835C20.3757 67.0115 19.6749 62.1058 20.1421 57.4336H27.851C27.3837 60.704 27.6173 64.208 28.7854 67.4786L22.011 71.6835Z" fill="#D1474E"/>
<path fill-rule="evenodd" clip-rule="evenodd" d="M70.1327 62.339C66.1615 60.003 53.7803 51.5934 51.6778 50.8929C49.3418 49.9584 46.7722 51.1265 46.0714 53.4625C45.1369 55.5649 46.305 58.1346 48.641 58.8354C50.7434 59.7698 65.6939 61.405 70.1321 62.3394L70.1327 62.339ZM52.3792 55.5645C53.5472 52.5277 48.6416 50.6589 47.4736 53.9293C46.3056 56.9661 51.2112 58.8349 52.3792 55.5645Z" fill="#D1474E"/>
</svg>
