<svg width="27" height="27" viewBox="0 0 27 27" fill="none" xmlns="http://www.w3.org/2000/svg">
<path d="M22.5 0H4.5C1.95 0 0 1.95 0 4.5V22.5C0 25.05 1.95 27 4.5 27H22.5C25.05 27 27 25.05 27 22.5V4.5C27 1.95 25.05 0 22.5 0ZM13.5 9C16.05 9 18 10.95 18 13.5C18 16.05 16.05 18 13.5 18C10.95 18 9 16.05 9 13.5C9 10.95 10.95 9 13.5 9ZM19.2 6C19.2 4.95 20.1 4.2 21 4.2C21.9 4.2 22.8 5.1 22.8 6C22.8 6.9 22.05 7.8 21 7.8C19.95 7.8 19.2 7.05 19.2 6ZM22.5 24H4.5C3.6 24 3 23.4 3 22.5V13.5H6C6 17.7 9.3 21 13.5 21C17.7 21 21 17.7 21 13.5H24V22.5C24 23.4 23.4 24 22.5 24Z" fill="white"/>
</svg>
