<svg width="24" height="24" viewBox="0 0 24 24" fill="none" xmlns="http://www.w3.org/2000/svg">
<path d="M20 0H4C1.73333 0 0 1.73333 0 4V20C0 22.2667 1.73333 24 4 24H20C22.2667 24 24 22.2667 24 20V4C24 1.73333 22.2667 0 20 0ZM12 8C14.2667 8 16 9.73333 16 12C16 14.2667 14.2667 16 12 16C9.73333 16 8 14.2667 8 12C8 9.73333 9.73333 8 12 8ZM17.0667 5.33333C17.0667 4.4 17.8667 3.73333 18.6667 3.73333C19.4667 3.73333 20.2667 4.53333 20.2667 5.33333C20.2667 6.13333 19.6 6.93333 18.6667 6.93333C17.7333 6.93333 17.0667 6.26667 17.0667 5.33333ZM20 21.3333H4C3.2 21.3333 2.66667 20.8 2.66667 20V12H5.33333C5.33333 15.7333 8.26667 18.6667 12 18.6667C15.7333 18.6667 18.6667 15.7333 18.6667 12H21.3333V20C21.3333 20.8 20.8 21.3333 20 21.3333Z" fill="#000000"/>
</svg>
