<svg width="40" height="40" viewBox="0 0 40 40" fill="none" xmlns="http://www.w3.org/2000/svg">
<g clip-path="url(#clip0)">
<path d="M10.4159 30.8854C7.74767 30.8854 5.37426 29.177 4.51242 26.6336L4.45413 26.442C4.25088 25.7684 4.16574 25.202 4.16574 24.6353V13.2715L0.122364 26.7685C-0.397668 28.7537 0.787358 30.8119 2.77563 31.3603L28.548 38.2623C28.8697 38.3456 29.1914 38.3856 29.5082 38.3856C31.168 38.3856 32.6848 37.2839 33.1099 35.6603L34.6114 30.8854H10.4159Z" fill="#000000"/>
<path d="M14.9995 13.3848C16.838 13.3848 18.3327 11.8897 18.3327 10.0513C18.3327 8.21287 16.838 6.71777 14.9995 6.71777C13.1611 6.71777 11.666 8.21287 11.666 10.0513C11.666 11.8897 13.1611 13.3848 14.9995 13.3848Z" fill="#000000"/>
<path d="M35.8333 1.71777H10.8327C8.53618 1.71777 6.66602 3.58794 6.66602 5.88475V24.2183C6.66602 26.5151 8.53618 28.3853 10.8327 28.3853H35.8333C38.1301 28.3853 40.0003 26.5151 40.0003 24.2183V5.88475C40.0003 3.58794 38.1301 1.71777 35.8333 1.71777ZM10.8327 5.05129H35.8333C36.2935 5.05129 36.6668 5.42453 36.6668 5.88475V17.7167L31.4017 11.5731C30.8432 10.9181 30.0348 10.5681 29.1666 10.5483C28.3032 10.5531 27.4932 10.9364 26.94 11.5999L20.7496 19.0299L18.733 17.0181C17.5931 15.8783 15.7379 15.8783 14.5996 17.0181L9.99953 21.6166V5.88475C9.99953 5.42453 10.3728 5.05129 10.8327 5.05129Z" fill="#000000"/>
</g>
<defs>
<clipPath id="clip0">
<rect width="40" height="40" fill="white"/>
</clipPath>
</defs>
</svg>
