<svg width="40" height="40" viewBox="0 0 40 40" fill="none" xmlns="http://www.w3.org/2000/svg">
<path d="M30.6292 39.6292H9.37072C4.19556 39.6292 0 35.4774 0 30.3554V9.35188C0 4.23026 4.19556 0.078125 9.37072 0.078125H30.6292C35.8044 0.078125 40 4.23026 40 9.35188V30.3554C40 35.4774 35.8044 39.6292 30.6292 39.6292Z" fill="#E99F0C"/>
<path d="M30.625 0.078125H27.5C32.6776 0.078125 36.875 4.22846 36.875 9.34796V30.3594C36.875 35.4792 32.6776 39.6292 27.5 39.6292H30.625C35.8026 39.6292 40 35.4792 40 30.3594V9.34796C40 4.22846 35.8026 0.078125 30.625 0.078125Z" fill="#936710"/>
<path d="M14.014 18.7915L14.0488 17.3143C14.0625 16.7321 14.5111 16.2506 15.0968 16.189L22.4514 15.4168C23.1476 15.3437 23.7528 15.8864 23.747 16.5783L23.6292 30.6188L24.8782 30.6862C25.4998 30.7198 25.9864 31.2276 25.9864 31.843V33.0658C25.9864 33.7042 25.4642 34.2222 24.8188 34.2246L15.4349 34.2584C14.7803 34.2608 14.2508 33.7326 14.2587 33.0858L14.2737 31.8738C14.281 31.263 14.7666 30.7628 15.3833 30.7306L16.7145 30.6612L16.7298 20.0252L15.1489 19.9763C14.5056 19.9567 13.999 19.4276 14.014 18.7915Z" fill="white"/>
<path d="M23.9072 9.07121C23.9072 6.79037 22.0372 4.94141 19.7303 4.94141C17.4238 4.94141 15.5537 6.79037 15.5537 9.07121C15.5537 11.3523 17.4238 13.2013 19.7303 13.2013C22.0372 13.2013 23.9072 11.3523 23.9072 9.07121Z" fill="white"/>
<path d="M24.879 30.6862L23.6298 30.6188L23.7476 16.5786C23.7534 15.8864 23.148 15.3437 22.452 15.4168L20.1708 15.6563C20.4466 15.8692 20.6258 16.2011 20.6226 16.5786L20.5048 30.6188L21.754 30.6862C22.3754 30.7198 22.862 31.2278 22.862 31.8432V33.066C22.862 33.7042 22.34 34.2226 21.6944 34.2246L15.2803 34.2478C15.3312 34.2542 15.3825 34.2588 15.4353 34.2588L24.8194 34.225C25.465 34.2226 25.9868 33.7042 25.9868 33.066V31.8432C25.987 31.2278 25.5004 30.7198 24.879 30.6862Z" fill="#EAEAEA"/>
<path d="M19.7314 4.94141C19.1791 4.94141 18.652 5.04863 18.1689 5.24131C19.7015 5.85321 20.7834 7.33703 20.7834 9.07121C20.7834 10.8057 19.7015 12.2895 18.1689 12.9014C18.652 13.0941 19.1791 13.2013 19.7314 13.2013C22.0382 13.2013 23.9084 11.352 23.9084 9.07121C23.9084 6.79037 22.0382 4.94141 19.7314 4.94141Z" fill="#EAEAEA"/>
</svg>
