<svg width="20" height="20" viewBox="0 0 20 20" fill="none" xmlns="http://www.w3.org/2000/svg">
<g clip-path="url(#clip0_3219:16894)">
<path d="M15.3146 19.8146H4.68536C2.09778 19.8146 0 17.7387 0 15.1777V4.67594C0 2.11513 2.09778 0.0390625 4.68536 0.0390625H15.3146C17.9022 0.0390625 20 2.11513 20 4.67594V15.1777C20 17.7387 17.9022 19.8146 15.3146 19.8146Z" fill="#000000"/>
<path d="M15.3125 0.0390625H13.75C16.3388 0.0390625 18.4375 2.11423 18.4375 4.67398V15.1797C18.4375 17.7396 16.3388 19.8146 13.75 19.8146H15.3125C17.9013 19.8146 20 17.7396 20 15.1797V4.67398C20 2.11423 17.9013 0.0390625 15.3125 0.0390625V0.0390625Z" fill="#000000"/>
<path d="M7.007 9.39575L7.02439 8.65717C7.03126 8.36603 7.25556 8.12532 7.54838 8.09451L11.2257 7.70838C11.5738 7.67184 11.8764 7.9432 11.8735 8.28916L11.8146 15.3094L12.4391 15.3431C12.7499 15.3599 12.9932 15.6138 12.9932 15.9215V16.5329C12.9932 16.8521 12.7321 17.1111 12.4094 17.1123L7.71745 17.1292C7.39015 17.1304 7.12541 16.8663 7.12937 16.5429L7.13685 15.9369C7.14051 15.6315 7.38328 15.3814 7.69166 15.3653L8.35725 15.3306L8.36488 10.0126L7.57447 9.98816C7.25282 9.97835 6.99952 9.71378 7.007 9.39575Z" fill="white"/>
<path d="M11.9536 4.5356C11.9536 3.39518 11.0186 2.4707 9.86517 2.4707C8.71191 2.4707 7.77686 3.39518 7.77686 4.5356C7.77686 5.67617 8.71191 6.60064 9.86517 6.60064C11.0186 6.60064 11.9536 5.67617 11.9536 4.5356Z" fill="white"/>
<path d="M12.4395 15.3431L11.8149 15.3094L11.8738 8.28931C11.8767 7.9432 11.574 7.67184 11.226 7.70838L10.0854 7.82813C10.2233 7.93459 10.3129 8.10055 10.3113 8.28931L10.2524 15.3094L10.877 15.3431C11.1877 15.3599 11.431 15.6139 11.431 15.9216V16.533C11.431 16.8521 11.17 17.1113 10.8472 17.1123L7.64014 17.1239C7.66562 17.1271 7.69125 17.1294 7.71765 17.1294L12.4097 17.1125C12.7325 17.1113 12.9934 16.8521 12.9934 16.533V15.9216C12.9935 15.6139 12.7502 15.3599 12.4395 15.3431V15.3431Z" fill="#EAEAEA"/>
<path d="M9.86572 2.4707C9.58954 2.4707 9.32602 2.52431 9.08447 2.62065C9.85077 2.9266 10.3917 3.66851 10.3917 4.5356C10.3917 5.40284 9.85077 6.14475 9.08447 6.45069C9.32602 6.54704 9.58954 6.60064 9.86572 6.60064C11.0191 6.60064 11.9542 5.67602 11.9542 4.5356C11.9542 3.39518 11.0191 2.4707 9.86572 2.4707Z" fill="#EAEAEA"/>
</g>
<defs>
<clipPath id="clip0_3219:16894">
<rect width="20" height="19.793" fill="white"/>
</clipPath>
</defs>
</svg>
