<svg width="30" height="31" viewBox="0 0 30 31" fill="none" xmlns="http://www.w3.org/2000/svg">
<g clip-path="url(#clip0_2990:1545)">
<path d="M21.7208 0.287109H8.27869C3.71382 0.287109 0 4.00111 0 8.56598V22.0081C0 26.5731 3.71382 30.2869 8.27869 30.2869H21.7208C26.286 30.2869 29.9998 26.5729 29.9998 22.0081V8.56598C30 4.00111 26.286 0.287109 21.7208 0.287109ZM27.3383 22.0081C27.3383 25.1054 24.8183 27.6252 21.721 27.6252H8.27869C5.1815 27.6254 2.66173 25.1054 2.66173 22.0081V8.56598C2.66173 5.46879 5.1815 2.94884 8.27869 2.94884H21.7208C24.8181 2.94884 27.3381 5.46879 27.3381 8.56598V22.0081H27.3383Z" fill="white"/>
<path d="M14.9997 7.55664C10.7372 7.55664 7.26953 11.0243 7.26953 15.2868C7.26953 19.5492 10.7372 23.0167 14.9997 23.0167C19.2622 23.0167 22.7299 19.5492 22.7299 15.2868C22.7299 11.0243 19.2622 7.55664 14.9997 7.55664ZM14.9997 20.3548C12.2051 20.3548 9.93126 18.0813 9.93126 15.2867C9.93126 12.4918 12.2049 10.2182 14.9997 10.2182C17.7945 10.2182 20.0682 12.4918 20.0682 15.2867C20.0682 18.0813 17.7944 20.3548 14.9997 20.3548Z" fill="white"/>
<path d="M23.0545 5.30078C22.5416 5.30078 22.0379 5.5084 21.6757 5.87217C21.3118 6.23416 21.1025 6.73812 21.1025 7.25272C21.1025 7.76572 21.3119 8.2695 21.6757 8.63327C22.0377 8.99526 22.5416 9.20465 23.0545 9.20465C23.5691 9.20465 24.0713 8.99526 24.435 8.63327C24.7988 8.2695 25.0064 7.76554 25.0064 7.25272C25.0064 6.73812 24.7988 6.23416 24.435 5.87217C24.073 5.5084 23.5691 5.30078 23.0545 5.30078Z" fill="white"/>
</g>
<defs>
<clipPath id="clip0_2990:1545">
<rect width="30" height="30" fill="white" transform="translate(0 0.287109)"/>
</clipPath>
</defs>
</svg>
