<svg width="170" height="54" viewBox="0 0 170 54" fill="none" xmlns="http://www.w3.org/2000/svg">
<rect width="170" height="54" rx="15" fill="black"/>
<path d="M54.325 33.086L52.741 28.757C52.663 28.565 52.582 28.337 52.498 28.073C52.414 27.809 52.33 27.524 52.246 27.218C52.168 27.524 52.087 27.812 52.003 28.082C51.919 28.346 51.838 28.577 51.76 28.775L50.185 33.086H54.325ZM58.6 38H56.728C56.518 38 56.347 37.949 56.215 37.847C56.083 37.739 55.984 37.607 55.918 37.451L54.946 34.796H49.555L48.583 37.451C48.535 37.589 48.442 37.715 48.304 37.829C48.166 37.943 47.995 38 47.791 38H45.901L51.022 24.986H53.488L58.6 38ZM61.8015 35.606C62.0535 35.912 62.3265 36.128 62.6205 36.254C62.9205 36.38 63.2445 36.443 63.5925 36.443C63.9285 36.443 64.2315 36.38 64.5015 36.254C64.7715 36.128 64.9995 35.936 65.1855 35.678C65.3775 35.42 65.5245 35.096 65.6265 34.706C65.7285 34.31 65.7795 33.845 65.7795 33.311C65.7795 32.771 65.7345 32.315 65.6445 31.943C65.5605 31.565 65.4375 31.259 65.2755 31.025C65.1135 30.791 64.9155 30.62 64.6815 30.512C64.4535 30.404 64.1925 30.35 63.8985 30.35C63.4365 30.35 63.0435 30.449 62.7195 30.647C62.3955 30.839 62.0895 31.112 61.8015 31.466V35.606ZM61.6845 30.026C62.0625 29.6 62.4915 29.255 62.9715 28.991C63.4515 28.727 64.0155 28.595 64.6635 28.595C65.1675 28.595 65.6265 28.7 66.0405 28.91C66.4605 29.12 66.8205 29.426 67.1205 29.828C67.4265 30.224 67.6605 30.716 67.8225 31.304C67.9905 31.886 68.0745 32.555 68.0745 33.311C68.0745 34.001 67.9815 34.64 67.7955 35.228C67.6095 35.816 67.3425 36.326 66.9945 36.758C66.6525 37.19 66.2355 37.529 65.7435 37.775C65.2575 38.015 64.7115 38.135 64.1055 38.135C63.5895 38.135 63.1485 38.057 62.7825 37.901C62.4165 37.739 62.0895 37.517 61.8015 37.235V41.015H59.5785V28.766H60.9375C61.2255 28.766 61.4145 28.901 61.5045 29.171L61.6845 30.026ZM72.0319 35.606C72.2839 35.912 72.5569 36.128 72.8509 36.254C73.1509 36.38 73.4749 36.443 73.8229 36.443C74.1589 36.443 74.4619 36.38 74.7319 36.254C75.0019 36.128 75.2299 35.936 75.4159 35.678C75.6079 35.42 75.7549 35.096 75.8569 34.706C75.9589 34.31 76.0099 33.845 76.0099 33.311C76.0099 32.771 75.9649 32.315 75.8749 31.943C75.7909 31.565 75.6679 31.259 75.5059 31.025C75.3439 30.791 75.1459 30.62 74.9119 30.512C74.6839 30.404 74.4229 30.35 74.1289 30.35C73.6669 30.35 73.2739 30.449 72.9499 30.647C72.6259 30.839 72.3199 31.112 72.0319 31.466V35.606ZM71.9149 30.026C72.2929 29.6 72.7219 29.255 73.2019 28.991C73.6819 28.727 74.2459 28.595 74.8939 28.595C75.3979 28.595 75.8569 28.7 76.2709 28.91C76.6909 29.12 77.0509 29.426 77.3509 29.828C77.6569 30.224 77.8909 30.716 78.0529 31.304C78.2209 31.886 78.3049 32.555 78.3049 33.311C78.3049 34.001 78.2119 34.64 78.0259 35.228C77.8399 35.816 77.5729 36.326 77.2249 36.758C76.8829 37.19 76.4659 37.529 75.9739 37.775C75.4879 38.015 74.9419 38.135 74.3359 38.135C73.8199 38.135 73.3789 38.057 73.0129 37.901C72.6469 37.739 72.3199 37.517 72.0319 37.235V41.015H69.8089V28.766H71.1679C71.4559 28.766 71.6449 28.901 71.7349 29.171L71.9149 30.026ZM82.2894 24.626V38H80.0664V24.626H82.2894ZM90.4533 32.321C90.4533 32.033 90.4113 31.763 90.3273 31.511C90.2493 31.253 90.1293 31.028 89.9673 30.836C89.8053 30.644 89.5983 30.494 89.3463 30.386C89.1003 30.272 88.8123 30.215 88.4823 30.215C87.8403 30.215 87.3333 30.398 86.9613 30.764C86.5953 31.13 86.3613 31.649 86.2593 32.321H90.4533ZM86.2143 33.662C86.2503 34.136 86.3343 34.547 86.4663 34.895C86.5983 35.237 86.7723 35.522 86.9883 35.75C87.2043 35.972 87.4593 36.14 87.7533 36.254C88.0533 36.362 88.3833 36.416 88.7433 36.416C89.1033 36.416 89.4123 36.374 89.6703 36.29C89.9343 36.206 90.1623 36.113 90.3543 36.011C90.5523 35.909 90.7233 35.816 90.8673 35.732C91.0173 35.648 91.1613 35.606 91.2993 35.606C91.4853 35.606 91.6233 35.675 91.7133 35.813L92.3523 36.623C92.1063 36.911 91.8303 37.154 91.5243 37.352C91.2183 37.544 90.8973 37.7 90.5613 37.82C90.2313 37.934 89.8923 38.015 89.5443 38.063C89.2023 38.111 88.8693 38.135 88.5453 38.135C87.9033 38.135 87.3063 38.03 86.7543 37.82C86.2023 37.604 85.7223 37.289 85.3143 36.875C84.9063 36.455 84.5853 35.939 84.3513 35.327C84.1173 34.709 84.0002 33.995 84.0002 33.185C84.0002 32.555 84.1023 31.964 84.3063 31.412C84.5103 30.854 84.8013 30.371 85.1793 29.963C85.5633 29.549 86.0283 29.222 86.5743 28.982C87.1263 28.742 87.7473 28.622 88.4373 28.622C89.0193 28.622 89.5563 28.715 90.0483 28.901C90.5403 29.087 90.9633 29.36 91.3173 29.72C91.6713 30.074 91.9473 30.512 92.1453 31.034C92.3493 31.55 92.4512 32.141 92.4512 32.807C92.4512 33.143 92.4153 33.371 92.3433 33.491C92.2713 33.605 92.1333 33.662 91.9293 33.662H86.2143ZM105.777 27.353C105.705 27.479 105.627 27.572 105.543 27.632C105.465 27.686 105.366 27.713 105.246 27.713C105.12 27.713 104.982 27.668 104.832 27.578C104.688 27.482 104.514 27.377 104.31 27.263C104.106 27.149 103.866 27.047 103.59 26.957C103.32 26.861 102.999 26.813 102.627 26.813C102.291 26.813 101.997 26.855 101.745 26.939C101.493 27.017 101.28 27.128 101.106 27.272C100.938 27.416 100.812 27.59 100.728 27.794C100.644 27.992 100.602 28.211 100.602 28.451C100.602 28.757 100.686 29.012 100.854 29.216C101.028 29.42 101.256 29.594 101.538 29.738C101.82 29.882 102.141 30.011 102.501 30.125C102.861 30.239 103.23 30.362 103.608 30.494C103.986 30.62 104.355 30.77 104.715 30.944C105.075 31.112 105.396 31.328 105.678 31.592C105.96 31.85 106.185 32.168 106.353 32.546C106.527 32.924 106.614 33.383 106.614 33.923C106.614 34.511 106.512 35.063 106.308 35.579C106.11 36.089 105.816 36.536 105.426 36.92C105.042 37.298 104.571 37.598 104.013 37.82C103.455 38.036 102.816 38.144 102.096 38.144C101.682 38.144 101.274 38.102 100.872 38.018C100.47 37.94 100.083 37.826 99.7114 37.676C99.3454 37.526 99.0004 37.346 98.6764 37.136C98.3524 36.926 98.0644 36.692 97.8124 36.434L98.5234 35.273C98.5834 35.189 98.6614 35.12 98.7574 35.066C98.8534 35.006 98.9554 34.976 99.0634 34.976C99.2134 34.976 99.3754 35.039 99.5494 35.165C99.7234 35.285 99.9304 35.42 100.17 35.57C100.41 35.72 100.689 35.858 101.007 35.984C101.331 36.104 101.718 36.164 102.168 36.164C102.858 36.164 103.392 36.002 103.77 35.678C104.148 35.348 104.337 34.877 104.337 34.265C104.337 33.923 104.25 33.644 104.076 33.428C103.908 33.212 103.683 33.032 103.401 32.888C103.119 32.738 102.798 32.612 102.438 32.51C102.078 32.408 101.712 32.297 101.34 32.177C100.968 32.057 100.602 31.913 100.242 31.745C99.8824 31.577 99.5614 31.358 99.2794 31.088C98.9974 30.818 98.7694 30.482 98.5954 30.08C98.4274 29.672 98.3434 29.171 98.3434 28.577C98.3434 28.103 98.4364 27.641 98.6224 27.191C98.8144 26.741 99.0904 26.342 99.4504 25.994C99.8104 25.646 100.254 25.367 100.782 25.157C101.31 24.947 101.916 24.842 102.6 24.842C103.368 24.842 104.076 24.962 104.724 25.202C105.372 25.442 105.924 25.778 106.38 26.21L105.777 27.353ZM111.049 38.144C110.245 38.144 109.627 37.919 109.195 37.469C108.769 37.013 108.556 36.386 108.556 35.588V30.431H107.611C107.491 30.431 107.389 30.392 107.305 30.314C107.221 30.236 107.179 30.119 107.179 29.963V29.081L108.664 28.838L109.132 26.318C109.162 26.198 109.219 26.105 109.303 26.039C109.387 25.973 109.495 25.94 109.627 25.94H110.779V28.847H113.245V30.431H110.779V35.435C110.779 35.723 110.848 35.948 110.986 36.11C111.13 36.272 111.325 36.353 111.571 36.353C111.709 36.353 111.823 36.338 111.913 36.308C112.009 36.272 112.09 36.236 112.156 36.2C112.228 36.164 112.291 36.131 112.345 36.101C112.399 36.065 112.453 36.047 112.507 36.047C112.573 36.047 112.627 36.065 112.669 36.101C112.711 36.131 112.756 36.179 112.804 36.245L113.47 37.325C113.146 37.595 112.774 37.799 112.354 37.937C111.934 38.075 111.499 38.144 111.049 38.144ZM118.684 28.622C119.368 28.622 119.989 28.733 120.547 28.955C121.111 29.177 121.591 29.492 121.987 29.9C122.389 30.308 122.698 30.806 122.914 31.394C123.13 31.982 123.238 32.639 123.238 33.365C123.238 34.097 123.13 34.757 122.914 35.345C122.698 35.933 122.389 36.434 121.987 36.848C121.591 37.262 121.111 37.58 120.547 37.802C119.989 38.024 119.368 38.135 118.684 38.135C117.994 38.135 117.367 38.024 116.803 37.802C116.239 37.58 115.756 37.262 115.354 36.848C114.958 36.434 114.649 35.933 114.427 35.345C114.211 34.757 114.103 34.097 114.103 33.365C114.103 32.639 114.211 31.982 114.427 31.394C114.649 30.806 114.958 30.308 115.354 29.9C115.756 29.492 116.239 29.177 116.803 28.955C117.367 28.733 117.994 28.622 118.684 28.622ZM118.684 36.425C119.452 36.425 120.019 36.167 120.385 35.651C120.757 35.135 120.943 34.379 120.943 33.383C120.943 32.387 120.757 31.628 120.385 31.106C120.019 30.584 119.452 30.323 118.684 30.323C117.904 30.323 117.325 30.587 116.947 31.115C116.575 31.637 116.389 32.393 116.389 33.383C116.389 34.373 116.575 35.129 116.947 35.651C117.325 36.167 117.904 36.425 118.684 36.425ZM127.031 30.368C127.319 29.816 127.661 29.384 128.057 29.072C128.453 28.754 128.921 28.595 129.461 28.595C129.887 28.595 130.229 28.688 130.487 28.874L130.343 30.539C130.313 30.647 130.268 30.725 130.208 30.773C130.154 30.815 130.079 30.836 129.983 30.836C129.893 30.836 129.758 30.821 129.578 30.791C129.404 30.761 129.233 30.746 129.065 30.746C128.819 30.746 128.6 30.782 128.408 30.854C128.216 30.926 128.042 31.031 127.886 31.169C127.736 31.301 127.601 31.463 127.481 31.655C127.367 31.847 127.259 32.066 127.157 32.312V38H124.934V28.766H126.239C126.467 28.766 126.626 28.808 126.716 28.892C126.806 28.97 126.866 29.114 126.896 29.324L127.031 30.368ZM137.334 32.321C137.334 32.033 137.292 31.763 137.208 31.511C137.13 31.253 137.01 31.028 136.848 30.836C136.686 30.644 136.479 30.494 136.227 30.386C135.981 30.272 135.693 30.215 135.363 30.215C134.721 30.215 134.214 30.398 133.842 30.764C133.476 31.13 133.242 31.649 133.14 32.321H137.334ZM133.095 33.662C133.131 34.136 133.215 34.547 133.347 34.895C133.479 35.237 133.653 35.522 133.869 35.75C134.085 35.972 134.34 36.14 134.634 36.254C134.934 36.362 135.264 36.416 135.624 36.416C135.984 36.416 136.293 36.374 136.551 36.29C136.815 36.206 137.043 36.113 137.235 36.011C137.433 35.909 137.604 35.816 137.748 35.732C137.898 35.648 138.042 35.606 138.18 35.606C138.366 35.606 138.504 35.675 138.594 35.813L139.233 36.623C138.987 36.911 138.711 37.154 138.405 37.352C138.099 37.544 137.778 37.7 137.442 37.82C137.112 37.934 136.773 38.015 136.425 38.063C136.083 38.111 135.75 38.135 135.426 38.135C134.784 38.135 134.187 38.03 133.635 37.82C133.083 37.604 132.603 37.289 132.195 36.875C131.787 36.455 131.466 35.939 131.232 35.327C130.998 34.709 130.881 33.995 130.881 33.185C130.881 32.555 130.983 31.964 131.187 31.412C131.391 30.854 131.682 30.371 132.06 29.963C132.444 29.549 132.909 29.222 133.455 28.982C134.007 28.742 134.628 28.622 135.318 28.622C135.9 28.622 136.437 28.715 136.929 28.901C137.421 29.087 137.844 29.36 138.198 29.72C138.552 30.074 138.828 30.512 139.026 31.034C139.23 31.55 139.332 32.141 139.332 32.807C139.332 33.143 139.296 33.371 139.224 33.491C139.152 33.605 139.014 33.662 138.81 33.662H133.095Z" fill="white"/>
<path d="M51.78 19.108C51.78 19.532 51.7093 19.9213 51.568 20.276C51.4267 20.6307 51.228 20.936 50.972 21.192C50.716 21.448 50.408 21.6467 50.048 21.788C49.688 21.9293 49.288 22 48.848 22H46.644V16.216H48.848C49.288 16.216 49.688 16.288 50.048 16.432C50.408 16.5733 50.716 16.772 50.972 17.028C51.228 17.2813 51.4267 17.5853 51.568 17.94C51.7093 18.2947 51.78 18.684 51.78 19.108ZM50.676 19.108C50.676 18.7907 50.6333 18.5067 50.548 18.256C50.4653 18.0027 50.344 17.7893 50.184 17.616C50.0267 17.44 49.8347 17.3053 49.608 17.212C49.384 17.1187 49.1307 17.072 48.848 17.072H47.724V21.144H48.848C49.1307 21.144 49.384 21.0973 49.608 21.004C49.8347 20.9107 50.0267 20.7773 50.184 20.604C50.344 20.428 50.4653 20.2147 50.548 19.964C50.6333 19.7107 50.676 19.4253 50.676 19.108ZM54.3353 17.832C54.6393 17.832 54.9153 17.8813 55.1633 17.98C55.4139 18.0787 55.6273 18.2187 55.8033 18.4C55.9819 18.5813 56.1192 18.8027 56.2153 19.064C56.3113 19.3253 56.3593 19.6173 56.3593 19.94C56.3593 20.2653 56.3113 20.5587 56.2153 20.82C56.1192 21.0813 55.9819 21.304 55.8033 21.488C55.6273 21.672 55.4139 21.8133 55.1633 21.912C54.9153 22.0107 54.6393 22.06 54.3353 22.06C54.0286 22.06 53.7499 22.0107 53.4993 21.912C53.2486 21.8133 53.0339 21.672 52.8553 21.488C52.6793 21.304 52.5419 21.0813 52.4433 20.82C52.3473 20.5587 52.2993 20.2653 52.2993 19.94C52.2993 19.6173 52.3473 19.3253 52.4433 19.064C52.5419 18.8027 52.6793 18.5813 52.8553 18.4C53.0339 18.2187 53.2486 18.0787 53.4993 17.98C53.7499 17.8813 54.0286 17.832 54.3353 17.832ZM54.3353 21.3C54.6766 21.3 54.9286 21.1853 55.0913 20.956C55.2566 20.7267 55.3393 20.3907 55.3393 19.948C55.3393 19.5053 55.2566 19.168 55.0913 18.936C54.9286 18.704 54.6766 18.588 54.3353 18.588C53.9886 18.588 53.7313 18.7053 53.5633 18.94C53.3979 19.172 53.3153 19.508 53.3153 19.948C53.3153 20.388 53.3979 20.724 53.5633 20.956C53.7313 21.1853 53.9886 21.3 54.3353 21.3ZM62.9027 17.896L61.5987 22H60.8067C60.716 22 60.6534 21.9413 60.6187 21.824L59.8827 19.452C59.8587 19.372 59.836 19.2933 59.8147 19.216C59.796 19.136 59.78 19.056 59.7667 18.976C59.7507 19.056 59.732 19.1373 59.7107 19.22C59.692 19.3 59.6707 19.38 59.6467 19.46L58.8987 21.824C58.8667 21.9413 58.796 22 58.6867 22H57.9267L56.6267 17.896H57.4147C57.4867 17.896 57.548 17.9133 57.5987 17.948C57.6494 17.9827 57.6827 18.0267 57.6987 18.08L58.2867 20.272C58.316 20.392 58.3414 20.5093 58.3627 20.624C58.3867 20.7387 58.4067 20.8533 58.4227 20.968C58.452 20.8533 58.4827 20.7387 58.5147 20.624C58.5494 20.5093 58.5854 20.392 58.6227 20.272L59.3027 18.072C59.3187 18.0187 59.3494 17.9747 59.3947 17.94C59.4427 17.9053 59.5 17.888 59.5667 17.888H60.0027C60.072 17.888 60.1307 17.9053 60.1787 17.94C60.2294 17.9747 60.2627 18.0187 60.2787 18.072L60.9387 20.272C60.9734 20.392 61.0054 20.5107 61.0347 20.628C61.0667 20.7427 61.0974 20.8573 61.1267 20.972C61.1614 20.7453 61.2107 20.512 61.2747 20.272L61.8787 18.08C61.8974 18.0267 61.9307 17.9827 61.9787 17.948C62.0267 17.9133 62.084 17.896 62.1507 17.896H62.9027ZM64.3886 18.4C64.4712 18.3173 64.5579 18.2413 64.6486 18.172C64.7419 18.1 64.8392 18.04 64.9406 17.992C65.0446 17.9413 65.1552 17.9027 65.2726 17.876C65.3899 17.8467 65.5179 17.832 65.6566 17.832C65.8806 17.832 66.0792 17.8707 66.2526 17.948C66.4259 18.0227 66.5699 18.1293 66.6846 18.268C66.8019 18.404 66.8899 18.568 66.9486 18.76C67.0099 18.9493 67.0406 19.1587 67.0406 19.388V22H66.0526V19.388C66.0526 19.1373 65.9952 18.944 65.8806 18.808C65.7659 18.6693 65.5912 18.6 65.3566 18.6C65.1859 18.6 65.0259 18.6387 64.8766 18.716C64.7272 18.7933 64.5859 18.8987 64.4526 19.032V22H63.4646V17.896H64.0686C64.1966 17.896 64.2806 17.956 64.3206 18.076L64.3886 18.4ZM68.9802 16.056V22H67.9922V16.056H68.9802ZM71.7806 17.832C72.0846 17.832 72.3606 17.8813 72.6086 17.98C72.8592 18.0787 73.0726 18.2187 73.2486 18.4C73.4272 18.5813 73.5646 18.8027 73.6606 19.064C73.7566 19.3253 73.8046 19.6173 73.8046 19.94C73.8046 20.2653 73.7566 20.5587 73.6606 20.82C73.5646 21.0813 73.4272 21.304 73.2486 21.488C73.0726 21.672 72.8592 21.8133 72.6086 21.912C72.3606 22.0107 72.0846 22.06 71.7806 22.06C71.4739 22.06 71.1952 22.0107 70.9446 21.912C70.6939 21.8133 70.4792 21.672 70.3006 21.488C70.1246 21.304 69.9872 21.0813 69.8886 20.82C69.7926 20.5587 69.7446 20.2653 69.7446 19.94C69.7446 19.6173 69.7926 19.3253 69.8886 19.064C69.9872 18.8027 70.1246 18.5813 70.3006 18.4C70.4792 18.2187 70.6939 18.0787 70.9446 17.98C71.1952 17.8813 71.4739 17.832 71.7806 17.832ZM71.7806 21.3C72.1219 21.3 72.3739 21.1853 72.5366 20.956C72.7019 20.7267 72.7846 20.3907 72.7846 19.948C72.7846 19.5053 72.7019 19.168 72.5366 18.936C72.3739 18.704 72.1219 18.588 71.7806 18.588C71.4339 18.588 71.1766 18.7053 71.0086 18.94C70.8432 19.172 70.7606 19.508 70.7606 19.948C70.7606 20.388 70.8432 20.724 71.0086 20.956C71.1766 21.1853 71.4339 21.3 71.7806 21.3ZM76.7263 20.248C76.441 20.2613 76.201 20.2867 76.0063 20.324C75.8116 20.3587 75.6556 20.404 75.5383 20.46C75.421 20.516 75.337 20.5813 75.2863 20.656C75.2356 20.7307 75.2103 20.812 75.2103 20.9C75.2103 21.0733 75.261 21.1973 75.3623 21.272C75.4663 21.3467 75.601 21.384 75.7663 21.384C75.969 21.384 76.1436 21.348 76.2903 21.276C76.4396 21.2013 76.585 21.0893 76.7263 20.94V20.248ZM74.4623 18.468C74.9343 18.036 75.5023 17.82 76.1663 17.82C76.4063 17.82 76.621 17.86 76.8103 17.94C76.9996 18.0173 77.1596 18.1267 77.2903 18.268C77.421 18.4067 77.5196 18.5733 77.5863 18.768C77.6556 18.9627 77.6903 19.176 77.6903 19.408V22H77.2423C77.149 22 77.077 21.9867 77.0263 21.96C76.9756 21.9307 76.9356 21.8733 76.9063 21.788L76.8183 21.492C76.7143 21.5853 76.613 21.668 76.5143 21.74C76.4156 21.8093 76.313 21.868 76.2063 21.916C76.0996 21.964 75.985 22 75.8623 22.024C75.7423 22.0507 75.609 22.064 75.4623 22.064C75.289 22.064 75.129 22.0413 74.9823 21.996C74.8356 21.948 74.709 21.8773 74.6023 21.784C74.4956 21.6907 74.413 21.5747 74.3543 21.436C74.2956 21.2973 74.2663 21.136 74.2663 20.952C74.2663 20.848 74.2836 20.7453 74.3183 20.644C74.353 20.54 74.409 20.4413 74.4863 20.348C74.5663 20.2547 74.669 20.1667 74.7943 20.084C74.9196 20.0013 75.073 19.9293 75.2543 19.868C75.4383 19.8067 75.6516 19.7573 75.8943 19.72C76.137 19.68 76.4143 19.656 76.7263 19.648V19.408C76.7263 19.1333 76.6676 18.9307 76.5503 18.8C76.433 18.6667 76.2636 18.6 76.0423 18.6C75.8823 18.6 75.749 18.6187 75.6423 18.656C75.5383 18.6933 75.4463 18.736 75.3663 18.784C75.2863 18.8293 75.213 18.8707 75.1463 18.908C75.0823 18.9453 75.0103 18.964 74.9303 18.964C74.861 18.964 74.8023 18.9467 74.7543 18.912C74.7063 18.8747 74.6676 18.832 74.6383 18.784L74.4623 18.468ZM81.1968 18.944C81.0848 18.808 80.9621 18.712 80.8288 18.656C80.6981 18.6 80.5568 18.572 80.4048 18.572C80.2555 18.572 80.1208 18.6 80.0008 18.656C79.8808 18.712 79.7781 18.7973 79.6928 18.912C79.6075 19.024 79.5421 19.168 79.4968 19.344C79.4515 19.5173 79.4288 19.7227 79.4288 19.96C79.4288 20.2 79.4475 20.404 79.4848 20.572C79.5248 20.7373 79.5808 20.8733 79.6528 20.98C79.7248 21.084 79.8128 21.16 79.9168 21.208C80.0208 21.2533 80.1368 21.276 80.2648 21.276C80.4701 21.276 80.6448 21.2333 80.7888 21.148C80.9328 21.0627 81.0688 20.9413 81.1968 20.784V18.944ZM82.1848 16.056V22H81.5808C81.4501 22 81.3675 21.94 81.3328 21.82L81.2488 21.424C81.0835 21.6133 80.8928 21.7667 80.6768 21.884C80.4635 22.0013 80.2141 22.06 79.9288 22.06C79.7048 22.06 79.4995 22.0133 79.3128 21.92C79.1261 21.8267 78.9648 21.692 78.8288 21.516C78.6955 21.3373 78.5915 21.1173 78.5168 20.856C78.4448 20.5947 78.4088 20.296 78.4088 19.96C78.4088 19.656 78.4501 19.3733 78.5328 19.112C78.6155 18.8507 78.7341 18.624 78.8888 18.432C79.0435 18.24 79.2288 18.0907 79.4448 17.984C79.6608 17.8747 79.9035 17.82 80.1728 17.82C80.4021 17.82 80.5981 17.856 80.7608 17.928C80.9235 18 81.0688 18.0973 81.1968 18.22V16.056H82.1848ZM86.9212 17.832C87.2252 17.832 87.5012 17.8813 87.7492 17.98C87.9999 18.0787 88.2132 18.2187 88.3892 18.4C88.5679 18.5813 88.7052 18.8027 88.8012 19.064C88.8972 19.3253 88.9452 19.6173 88.9452 19.94C88.9452 20.2653 88.8972 20.5587 88.8012 20.82C88.7052 21.0813 88.5679 21.304 88.3892 21.488C88.2132 21.672 87.9999 21.8133 87.7492 21.912C87.5012 22.0107 87.2252 22.06 86.9212 22.06C86.6145 22.06 86.3359 22.0107 86.0852 21.912C85.8345 21.8133 85.6199 21.672 85.4412 21.488C85.2652 21.304 85.1279 21.0813 85.0292 20.82C84.9332 20.5587 84.8852 20.2653 84.8852 19.94C84.8852 19.6173 84.9332 19.3253 85.0292 19.064C85.1279 18.8027 85.2652 18.5813 85.4412 18.4C85.6199 18.2187 85.8345 18.0787 86.0852 17.98C86.3359 17.8813 86.6145 17.832 86.9212 17.832ZM86.9212 21.3C87.2625 21.3 87.5145 21.1853 87.6772 20.956C87.8425 20.7267 87.9252 20.3907 87.9252 19.948C87.9252 19.5053 87.8425 19.168 87.6772 18.936C87.5145 18.704 87.2625 18.588 86.9212 18.588C86.5745 18.588 86.3172 18.7053 86.1492 18.94C85.9839 19.172 85.9012 19.508 85.9012 19.948C85.9012 20.388 85.9839 20.724 86.1492 20.956C86.3172 21.1853 86.5745 21.3 86.9212 21.3ZM90.6229 18.4C90.7056 18.3173 90.7923 18.2413 90.8829 18.172C90.9763 18.1 91.0736 18.04 91.1749 17.992C91.2789 17.9413 91.3896 17.9027 91.5069 17.876C91.6243 17.8467 91.7523 17.832 91.8909 17.832C92.1149 17.832 92.3136 17.8707 92.4869 17.948C92.6603 18.0227 92.8043 18.1293 92.9189 18.268C93.0363 18.404 93.1243 18.568 93.1829 18.76C93.2443 18.9493 93.2749 19.1587 93.2749 19.388V22H92.2869V19.388C92.2869 19.1373 92.2296 18.944 92.1149 18.808C92.0003 18.6693 91.8256 18.6 91.5909 18.6C91.4203 18.6 91.2603 18.6387 91.1109 18.716C90.9616 18.7933 90.8203 18.8987 90.6869 19.032V22H89.6989V17.896H90.3029C90.4309 17.896 90.5149 17.956 90.5549 18.076L90.6229 18.4ZM97.5279 22.064C97.1705 22.064 96.8959 21.964 96.7039 21.764C96.5145 21.5613 96.4199 21.2827 96.4199 20.928V18.636H95.9999C95.9465 18.636 95.9012 18.6187 95.8639 18.584C95.8265 18.5493 95.8079 18.4973 95.8079 18.428V18.036L96.4679 17.928L96.6759 16.808C96.6892 16.7547 96.7145 16.7133 96.7519 16.684C96.7892 16.6547 96.8372 16.64 96.8959 16.64H97.4079V17.932H98.5039V18.636H97.4079V20.86C97.4079 20.988 97.4385 21.088 97.4999 21.16C97.5639 21.232 97.6505 21.268 97.7599 21.268C97.8212 21.268 97.8719 21.2613 97.9119 21.248C97.9545 21.232 97.9905 21.216 98.0199 21.2C98.0519 21.184 98.0799 21.1693 98.1039 21.156C98.1279 21.14 98.1519 21.132 98.1759 21.132C98.2052 21.132 98.2292 21.14 98.2479 21.156C98.2665 21.1693 98.2865 21.1907 98.3079 21.22L98.6039 21.7C98.4599 21.82 98.2945 21.9107 98.1079 21.972C97.9212 22.0333 97.7279 22.064 97.5279 22.064ZM100.124 18.336C100.284 18.1867 100.46 18.0653 100.652 17.972C100.844 17.8787 101.07 17.832 101.328 17.832C101.552 17.832 101.751 17.8707 101.924 17.948C102.098 18.0227 102.242 18.1293 102.356 18.268C102.474 18.404 102.562 18.568 102.62 18.76C102.682 18.9493 102.712 19.1587 102.712 19.388V22H101.724V19.388C101.724 19.1373 101.667 18.944 101.552 18.808C101.438 18.6693 101.263 18.6 101.028 18.6C100.858 18.6 100.698 18.6387 100.548 18.716C100.399 18.7933 100.258 18.8987 100.124 19.032V22H99.1364V16.056H100.124V18.336ZM106.296 19.476C106.296 19.348 106.277 19.228 106.24 19.116C106.205 19.0013 106.152 18.9013 106.08 18.816C106.008 18.7307 105.916 18.664 105.804 18.616C105.695 18.5653 105.567 18.54 105.42 18.54C105.135 18.54 104.909 18.6213 104.744 18.784C104.581 18.9467 104.477 19.1773 104.432 19.476H106.296ZM104.412 20.072C104.428 20.2827 104.465 20.4653 104.524 20.62C104.583 20.772 104.66 20.8987 104.756 21C104.852 21.0987 104.965 21.1733 105.096 21.224C105.229 21.272 105.376 21.296 105.536 21.296C105.696 21.296 105.833 21.2773 105.948 21.24C106.065 21.2027 106.167 21.1613 106.252 21.116C106.34 21.0707 106.416 21.0293 106.48 20.992C106.547 20.9547 106.611 20.936 106.672 20.936C106.755 20.936 106.816 20.9667 106.856 21.028L107.14 21.388C107.031 21.516 106.908 21.624 106.772 21.712C106.636 21.7973 106.493 21.8667 106.344 21.92C106.197 21.9707 106.047 22.0067 105.892 22.028C105.74 22.0493 105.592 22.06 105.448 22.06C105.163 22.06 104.897 22.0133 104.652 21.92C104.407 21.824 104.193 21.684 104.012 21.5C103.831 21.3133 103.688 21.084 103.584 20.812C103.48 20.5373 103.428 20.22 103.428 19.86C103.428 19.58 103.473 19.3173 103.564 19.072C103.655 18.824 103.784 18.6093 103.952 18.428C104.123 18.244 104.329 18.0987 104.572 17.992C104.817 17.8853 105.093 17.832 105.4 17.832C105.659 17.832 105.897 17.8733 106.116 17.956C106.335 18.0387 106.523 18.16 106.68 18.32C106.837 18.4773 106.96 18.672 107.048 18.904C107.139 19.1333 107.184 19.396 107.184 19.692C107.184 19.8413 107.168 19.9427 107.136 19.996C107.104 20.0467 107.043 20.072 106.952 20.072H104.412Z" fill="white"/>
<g clip-path="url(#clip0)">
<path d="M29.8739 12C28.4878 12.0959 26.8676 12.9831 25.9235 14.1385C25.0623 15.1866 24.3538 16.7433 24.63 18.2562C26.1445 18.3033 27.7094 17.395 28.6161 16.2201C29.4644 15.1265 30.1062 13.5795 29.8739 12Z" fill="white"/>
<path d="M35.3517 20.723C34.0209 19.0541 32.1505 18.0856 30.3841 18.0856C28.0523 18.0856 27.0659 19.202 25.4458 19.202C23.7753 19.202 22.5062 18.0889 20.4896 18.0889C18.5087 18.0889 16.3995 19.2995 15.0621 21.3697C13.182 24.285 13.5037 29.7661 16.5506 34.4347C17.641 36.1052 19.097 37.9836 21.0014 37.9999C22.6963 38.0161 23.1741 36.9128 25.4702 36.9014C27.7663 36.8884 28.2018 38.0145 29.8934 37.9966C31.7995 37.982 33.3351 35.9004 34.4255 34.2299C35.2071 33.0323 35.498 32.4294 36.1041 31.0774C31.6955 29.3988 30.9886 23.1296 35.3517 20.723Z" fill="white"/>
</g>
<defs>
<clipPath id="clip0">
<rect width="26" height="26" fill="white" transform="translate(12 12)"/>
</clipPath>
</defs>
</svg>
