<svg width="60" height="60" viewBox="0 0 60 60" fill="none" xmlns="http://www.w3.org/2000/svg">
<circle cx="30" cy="30" r="30" fill="#000000"/>
<path d="M30.5999 33.6C30.7646 33.6 30.8996 33.3975 30.8996 33.15V30.45C30.8996 30.2025 30.7646 30 30.5999 30H29.4001C29.2346 30 29.0996 30.2025 29.0996 30.45V33.15C29.0996 33.3975 29.2346 33.6 29.3993 33.6H30.5999Z" fill="#000000"/>
<path d="M40.7999 20.1H36.858L35.8049 17.9941C35.3459 17.0759 34.419 16.5 33.384 16.5H26.616C25.581 16.5 24.6541 17.0759 24.195 17.9941L23.1419 20.1H19.2C17.715 20.1 16.5 21.315 16.5 22.8V27.3C16.5 28.0831 16.8419 28.8031 17.4 29.2981C17.7869 29.6491 18.2731 29.8922 18.8219 29.9641L19.2 30.0181L27.3 31.1791V29.1C27.3 28.605 27.705 28.2 28.2 28.2H31.8C32.295 28.2 32.7 28.605 32.7 29.1V31.1791L40.8 30.0181L41.1781 29.9641C41.7272 29.8922 42.2131 29.6491 42.6 29.2981C43.1581 28.8031 43.5 28.0831 43.5 27.3V22.8C43.5 21.315 42.285 20.1 40.8 20.1H40.7999ZM25.9499 20.1L24.5999 21L25.158 20.1L25.8061 18.795C25.959 18.489 26.265 18.3 26.6159 18.3H33.3839C33.7349 18.3 34.0408 18.489 34.1939 18.795L34.8418 20.1H25.9499Z" fill="#000000"/>
<path d="M32.6994 32.9961V34.4992C32.6994 34.9942 32.2944 35.3993 31.7994 35.3993H28.1994C27.7044 35.3993 27.2994 34.9942 27.2994 34.4992V32.9961L18.5694 31.7452C18.1644 31.6912 17.7685 31.5833 17.3994 31.4121V40.7994C17.3994 42.2844 18.6144 43.4994 20.0994 43.4994H39.8994C41.3845 43.4994 42.5995 42.2844 42.5995 40.7994V31.4126C42.2214 31.5836 41.8254 31.6917 41.4113 31.7457L32.6994 32.9961ZM23.792 41.9576C23.2799 42.016 22.6823 42.0639 22.0424 42.0952C21.722 42.1068 21.3917 42.133 21.055 42.133C20.6671 42.1474 20.2135 42.0502 19.8527 41.8314C19.4872 41.6108 19.1921 41.2824 19.0085 40.9081C18.8141 40.5481 18.7781 40.0738 18.8042 39.7552C18.8365 39.1154 18.8844 38.5177 18.9418 38.0056C19.0491 36.9823 19.1994 36.2992 19.1994 36.2992C19.1994 36.2992 19.3496 36.9822 19.4567 38.0066C19.5144 38.5186 19.563 39.1163 19.5943 39.7562C19.5997 40.0766 19.661 40.2763 19.7815 40.5158C19.9003 40.74 20.0875 40.9352 20.3117 41.0594C20.5341 41.1962 20.7726 41.2637 21.055 41.2645C21.3907 41.2645 21.722 41.2914 22.0424 41.3023C22.6822 41.3338 23.2799 41.3824 23.792 41.4399C24.8164 41.548 25.4994 41.6992 25.4994 41.6992C25.4994 41.6992 24.8164 41.8505 23.792 41.9576L23.792 41.9576Z" fill="#000000"/>
</svg>
