<svg width="25" height="25" viewBox="0 0 25 25" fill="none" xmlns="http://www.w3.org/2000/svg">
<g clip-path="url(#clip0_1371_9375)">
<path d="M21.8375 3.31323H19.729V1.20483C19.7291 0.542138 19.1868 0 18.5245 0H3.16279C2.50015 0 1.95801 0.542138 1.95801 1.20483V20.4819C1.95801 21.1445 2.50015 21.6867 3.16284 21.6867H5.27128V23.7952C5.27128 24.4578 5.81318 25 6.47612 25H16.7168C17.3791 25 18.3165 24.6283 18.7987 24.1744L22.1644 21.0064C22.6472 20.5525 23.0418 19.6386 23.0418 18.9759L23.0423 4.51816C23.0423 3.85541 22.5001 3.31323 21.8375 3.31323ZM5.27119 4.51811V20.7831H3.16279C2.99956 20.7831 2.86162 20.6452 2.86162 20.4819V1.20483C2.86162 1.0416 2.99956 0.90366 3.16279 0.90366H18.5245C18.6875 0.90366 18.8257 1.0416 18.8257 1.20483V3.31328H6.47602C5.81308 3.31328 5.27119 3.85541 5.27119 4.51811ZM21.545 20.3484L18.1794 23.5163C18.1104 23.5811 18.0206 23.6446 17.9215 23.7051V20.9337C17.9215 20.7268 18.005 20.5406 18.1426 20.4021C18.2815 20.2644 18.4676 20.1807 18.6745 20.1807H21.6881C21.6414 20.2442 21.5935 20.3026 21.545 20.3484ZM22.1381 18.9758C22.1381 19.0653 22.1217 19.1689 22.0971 19.277H18.6745C17.7604 19.2788 17.0197 20.0195 17.0178 20.9337V24.0598C16.9103 24.0815 16.8067 24.0962 16.7167 24.0962H6.47602V24.0963C6.31244 24.0963 6.17485 23.9584 6.17485 23.7951V4.51806C6.17485 4.35483 6.31249 4.21689 6.47602 4.21689H21.8374C22.0006 4.21689 22.1386 4.35483 22.1386 4.51806L22.1381 18.9758Z" fill="#121243" stroke="white" stroke-width="0.5"/>
<path d="M18.5246 7.53027H9.7897C9.53999 7.53027 9.33789 7.73237 9.33789 7.98208C9.33789 8.23179 9.54004 8.43388 9.7897 8.43388H18.5246C18.774 8.43388 18.9764 8.23179 18.9764 7.98208C18.9764 7.73237 18.774 7.53027 18.5246 7.53027Z" fill="#121243" stroke="white" stroke-width="0.5"/>
<path d="M18.5246 13.5542H9.7897C9.53999 13.5542 9.33789 13.7563 9.33789 14.006C9.33789 14.2557 9.54004 14.4578 9.7897 14.4578H18.5246C18.774 14.4578 18.9764 14.2557 18.9764 14.006C18.9764 13.7562 18.774 13.5542 18.5246 13.5542Z" fill="#121243" stroke="white" stroke-width="0.5"/>
<path d="M14.6089 16.5664H9.7897C9.53999 16.5664 9.33789 16.7685 9.33789 17.0182C9.33789 17.2679 9.53999 17.47 9.7897 17.47H14.6089C14.8583 17.47 15.0604 17.2679 15.0604 17.0182C15.0604 16.7685 14.8583 16.5664 14.6089 16.5664Z" fill="#121243" stroke="white" stroke-width="0.5"/>
<path d="M18.5246 10.5425H9.7897C9.53999 10.5425 9.33789 10.7446 9.33789 10.9943C9.33789 11.244 9.54004 11.4461 9.7897 11.4461H18.5246C18.774 11.4461 18.9764 11.244 18.9764 10.9943C18.9764 10.7446 18.774 10.5425 18.5246 10.5425Z" fill="#121243" stroke="white" stroke-width="0.5"/>
</g>
<defs>
<clipPath id="clip0_1371_9375">
<rect width="25" height="25" fill="white"/>
</clipPath>
</defs>
</svg>
