<svg width="30" height="30" viewBox="0 0 30 30" fill="none" xmlns="http://www.w3.org/2000/svg">
<circle cx="15" cy="15" r="15" fill="#C43138"/>
<path d="M13.6057 15.2624L10.1499 10H12.1589C12.2989 10 12.3988 10.02 12.4588 10.06C12.5237 10.095 12.5812 10.1549 12.6312 10.2399L15.0975 14.2204C15.1224 14.1554 15.1499 14.093 15.1799 14.033C15.2099 13.968 15.2449 13.903 15.2849 13.8381L17.5412 10.2774C17.6512 10.0925 17.7936 10 17.9685 10H19.9025L16.4093 15.1799L20 20.8396H17.9835C17.8486 20.8396 17.7386 20.8046 17.6537 20.7346C17.5737 20.6647 17.5062 20.5847 17.4513 20.4948L14.94 16.3418C14.92 16.4018 14.8976 16.4593 14.8726 16.5142C14.8476 16.5642 14.8226 16.6117 14.7976 16.6567L12.3913 20.4948C12.3363 20.5797 12.2689 20.6597 12.1889 20.7346C12.1089 20.8046 12.009 20.8396 11.8891 20.8396H10L13.6057 15.2624Z" fill="white"/>
</svg>
