<svg width="75" height="34" viewBox="0 0 75 34" fill="none" xmlns="http://www.w3.org/2000/svg">
<rect width="75" height="34" rx="10" fill="#C43138"/>
<path d="M26.6032 14.84V16.98H29.3132V18.055H26.6032V21H25.2532V13.77H29.8132V14.84H26.6032ZM32.7585 18.81C32.4018 18.8267 32.1018 18.8583 31.8585 18.905C31.6151 18.9483 31.4201 19.005 31.2735 19.075C31.1268 19.145 31.0218 19.2267 30.9585 19.32C30.8951 19.4133 30.8635 19.515 30.8635 19.625C30.8635 19.8417 30.9268 19.9967 31.0535 20.09C31.1835 20.1833 31.3518 20.23 31.5585 20.23C31.8118 20.23 32.0301 20.185 32.2135 20.095C32.4001 20.0017 32.5818 19.8617 32.7585 19.675V18.81ZM29.9285 16.585C30.5185 16.045 31.2285 15.775 32.0585 15.775C32.3585 15.775 32.6268 15.825 32.8635 15.925C33.1001 16.0217 33.3001 16.1583 33.4635 16.335C33.6268 16.5083 33.7501 16.7167 33.8335 16.96C33.9201 17.2033 33.9635 17.47 33.9635 17.76V21H33.4035C33.2868 21 33.1968 20.9833 33.1335 20.95C33.0701 20.9133 33.0201 20.8417 32.9835 20.735L32.8735 20.365C32.7435 20.4817 32.6168 20.585 32.4935 20.675C32.3701 20.7617 32.2418 20.835 32.1085 20.895C31.9751 20.955 31.8318 21 31.6785 21.03C31.5285 21.0633 31.3618 21.08 31.1785 21.08C30.9618 21.08 30.7618 21.0517 30.5785 20.995C30.3951 20.935 30.2368 20.8467 30.1035 20.73C29.9701 20.6133 29.8668 20.4683 29.7935 20.295C29.7201 20.1217 29.6835 19.92 29.6835 19.69C29.6835 19.56 29.7051 19.4317 29.7485 19.305C29.7918 19.175 29.8618 19.0517 29.9585 18.935C30.0585 18.8183 30.1868 18.7083 30.3435 18.605C30.5001 18.5017 30.6918 18.4117 30.9185 18.335C31.1485 18.2583 31.4151 18.1967 31.7185 18.15C32.0218 18.1 32.3685 18.07 32.7585 18.06V17.76C32.7585 17.4167 32.6851 17.1633 32.5385 17C32.3918 16.8333 32.1801 16.75 31.9035 16.75C31.7035 16.75 31.5368 16.7733 31.4035 16.82C31.2735 16.8667 31.1585 16.92 31.0585 16.98C30.9585 17.0367 30.8668 17.0883 30.7835 17.135C30.7035 17.1817 30.6135 17.205 30.5135 17.205C30.4268 17.205 30.3535 17.1833 30.2935 17.14C30.2335 17.0933 30.1851 17.04 30.1485 16.98L29.9285 16.585ZM36.4066 15.87V21H35.1666V15.87H36.4066ZM36.5766 14.375C36.5766 14.4817 36.5549 14.5817 36.5116 14.675C36.4683 14.7683 36.4099 14.85 36.3366 14.92C36.2666 14.99 36.1833 15.0467 36.0866 15.09C35.9899 15.13 35.8866 15.15 35.7766 15.15C35.6699 15.15 35.5683 15.13 35.4716 15.09C35.3783 15.0467 35.2966 14.99 35.2266 14.92C35.1566 14.85 35.0999 14.7683 35.0566 14.675C35.0166 14.5817 34.9966 14.4817 34.9966 14.375C34.9966 14.265 35.0166 14.1617 35.0566 14.065C35.0999 13.9683 35.1566 13.885 35.2266 13.815C35.2966 13.745 35.3783 13.69 35.4716 13.65C35.5683 13.6067 35.6699 13.585 35.7766 13.585C35.8866 13.585 35.9899 13.6067 36.0866 13.65C36.1833 13.69 36.2666 13.745 36.3366 13.815C36.4099 13.885 36.4683 13.9683 36.5116 14.065C36.5549 14.1617 36.5766 14.265 36.5766 14.375ZM38.9157 13.57V21H37.6807V13.57H38.9157ZM43.4511 17.845C43.4511 17.685 43.4278 17.535 43.3811 17.395C43.3378 17.2517 43.2711 17.1267 43.1811 17.02C43.0911 16.9133 42.9761 16.83 42.8361 16.77C42.6995 16.7067 42.5395 16.675 42.3561 16.675C41.9995 16.675 41.7178 16.7767 41.5111 16.98C41.3078 17.1833 41.1778 17.4717 41.1211 17.845H43.4511ZM41.0961 18.59C41.1161 18.8533 41.1628 19.0817 41.2361 19.275C41.3095 19.465 41.4061 19.6233 41.5261 19.75C41.6461 19.8733 41.7878 19.9667 41.9511 20.03C42.1178 20.09 42.3011 20.12 42.5011 20.12C42.7011 20.12 42.8728 20.0967 43.0161 20.05C43.1628 20.0033 43.2895 19.9517 43.3961 19.895C43.5061 19.8383 43.6011 19.7867 43.6811 19.74C43.7645 19.6933 43.8445 19.67 43.9211 19.67C44.0245 19.67 44.1011 19.7083 44.1511 19.785L44.5061 20.235C44.3695 20.395 44.2161 20.53 44.0461 20.64C43.8761 20.7467 43.6978 20.8333 43.5111 20.9C43.3278 20.9633 43.1395 21.0083 42.9461 21.035C42.7561 21.0617 42.5711 21.075 42.3911 21.075C42.0345 21.075 41.7028 21.0167 41.3961 20.9C41.0895 20.78 40.8228 20.605 40.5961 20.375C40.3695 20.1417 40.1911 19.855 40.0611 19.515C39.9311 19.1717 39.8661 18.775 39.8661 18.325C39.8661 17.975 39.9228 17.6467 40.0361 17.34C40.1495 17.03 40.3111 16.7617 40.5211 16.535C40.7345 16.305 40.9928 16.1233 41.2961 15.99C41.6028 15.8567 41.9478 15.79 42.3311 15.79C42.6545 15.79 42.9528 15.8417 43.2261 15.945C43.4995 16.0483 43.7345 16.2 43.9311 16.4C44.1278 16.5967 44.2811 16.84 44.3911 17.13C44.5045 17.4167 44.5611 17.745 44.5611 18.115C44.5611 18.3017 44.5411 18.4283 44.5011 18.495C44.4611 18.5583 44.3845 18.59 44.2711 18.59H41.0961ZM48.7079 17.18C48.5679 17.01 48.4146 16.89 48.2479 16.82C48.0846 16.75 47.9079 16.715 47.7179 16.715C47.5313 16.715 47.3629 16.75 47.2129 16.82C47.0629 16.89 46.9346 16.9967 46.8279 17.14C46.7213 17.28 46.6396 17.46 46.5829 17.68C46.5263 17.8967 46.4979 18.1533 46.4979 18.45C46.4979 18.75 46.5213 19.005 46.5679 19.215C46.6179 19.4217 46.6879 19.5917 46.7779 19.725C46.8679 19.855 46.9779 19.95 47.1079 20.01C47.2379 20.0667 47.3829 20.095 47.5429 20.095C47.7996 20.095 48.0179 20.0417 48.1979 19.935C48.3779 19.8283 48.5479 19.6767 48.7079 19.48V17.18ZM49.9429 13.57V21H49.1879C49.0246 21 48.9213 20.925 48.8779 20.775L48.7729 20.28C48.5663 20.5167 48.3279 20.7083 48.0579 20.855C47.7913 21.0017 47.4796 21.075 47.1229 21.075C46.8429 21.075 46.5863 21.0167 46.3529 20.9C46.1196 20.7833 45.9179 20.615 45.7479 20.395C45.5813 20.1717 45.4513 19.8967 45.3579 19.57C45.2679 19.2433 45.2229 18.87 45.2229 18.45C45.2229 18.07 45.2746 17.7167 45.3779 17.39C45.4813 17.0633 45.6296 16.78 45.8229 16.54C46.0163 16.3 46.2479 16.1133 46.5179 15.98C46.7879 15.8433 47.0913 15.775 47.4279 15.775C47.7146 15.775 47.9596 15.82 48.1629 15.91C48.3663 16 48.5479 16.1217 48.7079 16.275V13.57H49.9429Z" fill="white"/>
</svg>
