<svg width="300" height="300" viewBox="0 0 300 300" fill="none" xmlns="http://www.w3.org/2000/svg">
<circle cx="150" cy="150" r="150" fill="#F0F3EE"/>
<g opacity="0.5">
<path opacity="0.5" d="M214.009 74.2317L90.123 33.2051L34.9927 199.679L158.878 240.705L214.009 74.2317Z" fill="#518C36"/>
</g>
<path d="M211.011 75.742L90.9961 35.9971L37.7888 196.664L157.804 236.409L211.011 75.742Z" fill="#F8FEF5"/>
<path d="M139.404 59.5447L98.1084 45.8691L97.6812 47.1593L138.976 60.8348L139.404 59.5447Z" fill="#000000"/>
<path opacity="0.7" d="M137.482 65.3523L96.1865 51.6768L95.7593 52.9669L137.054 66.6424L137.482 65.3523Z" fill="#518C36"/>
<path d="M186.83 75.2517L145.535 61.5762L145.108 62.8663L186.403 76.5418L186.83 75.2517Z" fill="#E0E0E0"/>
<path d="M181.099 114.173L139.804 100.497L139.376 101.787L180.672 115.463L181.099 114.173Z" fill="#E0E0E0"/>
<path d="M180.892 118.036L139.597 104.36L139.169 105.65L180.465 119.326L180.892 118.036Z" fill="#E0E0E0"/>
<path d="M181.651 122.225L140.355 108.55L139.928 109.84L181.223 123.515L181.651 122.225Z" fill="#E0E0E0"/>
<path d="M162.189 171.266L120.894 157.591L120.466 158.881L161.761 172.556L162.189 171.266Z" fill="#E0E0E0"/>
<path d="M161.983 175.142L120.688 161.467L120.26 162.757L161.555 176.432L161.983 175.142Z" fill="#E0E0E0"/>
<path d="M162.742 179.329L121.447 165.653L121.02 166.943L162.315 180.619L162.742 179.329Z" fill="#E0E0E0"/>
<g opacity="0.5">
<path opacity="0.5" d="M134.507 84.0505L90.6318 69.5205L75.8877 114.042L119.763 128.572L134.507 84.0505Z" fill="#000000"/>
</g>
<path d="M133.77 84.8921L90.585 70.5908L76.4822 113.176L119.667 127.477L133.77 84.8921Z" fill="#B0FF8B"/>
<g opacity="0.5">
<path opacity="0.5" d="M131.538 87.0117L91.2598 73.6729L82.0717 101.418L122.35 114.756L131.538 87.0117Z" fill="url(#paint0_linear_11575_103827)"/>
</g>
<path d="M131.147 87.2429L91.4238 74.0879L82.556 100.866L122.279 114.021L131.147 87.2429Z" fill="white"/>
<path opacity="0.4" d="M79.5093 98.7878L94.6414 86.6135L96.5917 94.7761L108.723 88.4136L113.369 100.332L124.736 88.7045L132.969 122.218L77.1515 101.584L79.5093 98.7878Z" fill="#97E373"/>
<path opacity="0.4" d="M93.5556 82.3144C95.1592 82.8454 96.8896 81.976 97.4206 80.3724C97.9517 78.7689 97.0822 77.0385 95.4787 76.5074C93.8751 75.9764 92.1447 76.8458 91.6137 78.4494C91.0826 80.0529 91.9521 81.7834 93.5556 82.3144Z" fill="#97E373"/>
<g opacity="0.5">
<path opacity="0.5" d="M115.595 141.164L71.7197 126.634L56.9756 171.156L100.851 185.686L115.595 141.164Z" fill="#000000"/>
</g>
<path d="M114.86 141.995L71.6748 127.693L57.572 170.279L100.757 184.58L114.86 141.995Z" fill="#B0FF8B"/>
<g opacity="0.5">
<path opacity="0.5" d="M112.624 144.121L72.3457 130.782L63.1576 158.527L103.436 171.866L112.624 144.121Z" fill="url(#paint1_linear_11575_103827)"/>
</g>
<path d="M112.238 144.351L72.5146 131.196L63.6468 157.974L103.37 171.129L112.238 144.351Z" fill="white"/>
<path opacity="0.4" d="M60.5952 155.888L75.7273 143.714L77.6768 151.879L89.8091 145.514L94.454 157.436L105.822 145.805L114.055 179.319L58.2365 158.688L60.5952 155.888Z" fill="#97E373"/>
<path opacity="0.4" d="M74.6367 139.421C76.2402 139.952 77.9706 139.082 78.5017 137.479C79.0327 135.875 78.1633 134.145 76.5597 133.614C74.9562 133.083 73.2258 133.952 72.6947 135.556C72.1637 137.159 73.0331 138.89 74.6367 139.421Z" fill="#97E373"/>
<g opacity="0.5">
<path opacity="0.5" d="M143.489 41.7506L56.9668 194.285L170.479 258.673L257.001 106.138L143.489 41.7506Z" fill="#518C36"/>
</g>
<path d="M143.793 44.6562L60.2891 191.87L170.255 254.246L253.759 107.032L143.793 44.6562Z" fill="#F8FEF5"/>
<path d="M225.973 100.253L147.932 55.9854L147.261 57.1675L225.303 101.435L225.973 100.253Z" fill="#000000"/>
<path d="M162.593 211.992L84.5508 167.725L83.8803 168.907L161.922 213.174L162.593 211.992Z" fill="#000000"/>
<path d="M140.995 208.728L80.6895 174.521L80.0189 175.704L140.324 209.91L140.995 208.728Z" fill="#000000"/>
<path opacity="0.7" d="M99.301 194.066L76.8359 181.323L76.1654 182.505L98.6305 195.248L99.301 194.066Z" fill="#E4AD50"/>
<path opacity="0.7" d="M183.093 84.9152L144.073 62.7822L143.403 63.9643L182.422 86.0973L183.093 84.9152Z" fill="#E4AD50"/>
<path d="M210.575 109.49L140.221 69.583L139.55 70.7651L209.904 110.672L210.575 109.49Z" fill="#000000"/>
<path opacity="0.7" d="M153.507 86.1046L136.362 76.3799L135.692 77.562L152.836 87.2867L153.507 86.1046Z" fill="#E4AD50"/>
<path d="M210.546 127.449L132.504 83.1816L131.833 84.3637L209.875 128.631L210.546 127.449Z" fill="#000000"/>
<g opacity="0.5">
<path opacity="0.5" d="M129.694 116.368L106.891 156.569L176.949 196.308L199.752 156.106L129.694 116.368Z" fill="url(#paint2_linear_11575_103827)"/>
</g>
<path d="M199.145 156.153L129.973 116.917L107.672 156.233L176.844 195.469L199.145 156.153Z" fill="#000000"/>
<path d="M206.693 134.25L128.651 89.9824L127.981 91.1645L206.023 135.432L206.693 134.25Z" fill="#000000"/>
<path d="M160.31 147.445C156.846 146.298 155.057 151.68 158.527 152.829C161.997 153.978 163.78 148.594 160.31 147.445Z" fill="url(#paint3_linear_11575_103827)"/>
<path d="M164.228 146.921C160.764 145.773 158.975 151.156 162.445 152.305C165.915 153.454 167.698 148.07 164.228 146.921Z" fill="#000000"/>
<path d="M221.218 144.004C218.609 138.545 214.934 133.664 210.41 129.647C205.885 125.63 200.604 122.559 194.875 120.614C189.146 118.669 183.086 117.889 177.051 118.321C171.017 118.752 165.129 120.387 159.736 123.128C137.995 134.162 128.858 160.826 139.244 182.886C143.807 192.577 151.651 200.342 161.389 204.805C171.127 209.267 182.13 210.14 192.45 207.269L212.858 249.959C213.111 250.487 213.563 250.893 214.116 251.088C214.668 251.283 215.275 251.251 215.803 250.998L226.031 246.108C226.559 245.855 226.965 245.403 227.16 244.851C227.355 244.299 227.323 243.692 227.07 243.163L206.669 200.479C215.346 194.277 221.559 185.216 224.22 174.889C226.88 164.561 225.818 153.626 221.218 144.004ZM194.281 192.854C188.491 195.621 182.01 196.61 175.658 195.695C169.306 194.779 163.368 192.001 158.596 187.711C153.823 183.421 150.429 177.812 148.844 171.593C147.259 165.374 147.553 158.825 149.69 152.774C151.827 146.723 155.711 141.441 160.849 137.596C165.988 133.752 172.151 131.518 178.559 131.176C184.968 130.835 191.334 132.401 196.852 135.677C202.37 138.953 206.793 143.792 209.561 149.582C211.399 153.427 212.462 157.596 212.689 161.851C212.916 166.106 212.302 170.365 210.883 174.383C209.464 178.401 207.268 182.1 204.419 185.269C201.57 188.439 198.125 191.016 194.281 192.854V192.854Z" fill="#000000"/>
<path d="M190.169 138.202C180.915 134.904 170.882 136.772 164.032 142.339C161.797 144.155 165.303 147.575 167.526 145.767C173.197 141.159 181.524 139.796 189.137 142.532C197.115 145.398 202.911 152.424 204.672 160.095C205.339 163.005 209.922 162.079 209.264 159.188C207.113 149.892 199.724 141.62 190.169 138.202Z" fill="#000000"/>
<path d="M225.137 143.488C222.528 138.03 218.853 133.149 214.329 129.132C209.804 125.115 204.523 122.043 198.794 120.098C193.065 118.153 187.005 117.373 180.97 117.805C174.936 118.237 169.048 119.871 163.655 122.612C141.914 133.646 132.777 160.311 143.163 182.37C147.726 192.062 155.571 199.826 165.309 204.288C175.047 208.75 186.05 209.622 196.37 206.75L216.774 249.442C217.027 249.97 217.479 250.377 218.032 250.572C218.584 250.767 219.191 250.734 219.719 250.482L229.947 245.592C230.475 245.339 230.882 244.887 231.077 244.334C231.272 243.782 231.239 243.175 230.987 242.647L210.578 199.957C219.255 193.756 225.469 184.698 228.132 174.371C230.794 164.045 229.734 153.111 225.137 143.488V143.488ZM198.207 192.316C192.417 195.084 185.936 196.072 179.584 195.157C173.232 194.241 167.295 191.463 162.522 187.173C157.749 182.883 154.355 177.274 152.77 171.055C151.185 164.837 151.48 158.287 153.617 152.236C155.753 146.185 159.637 140.903 164.775 137.059C169.914 133.214 176.077 130.98 182.486 130.639C188.894 130.297 195.26 131.863 200.778 135.139C206.296 138.416 210.719 143.255 213.487 149.044C215.325 152.889 216.388 157.058 216.615 161.313C216.842 165.569 216.228 169.827 214.809 173.845C213.39 177.863 211.194 181.562 208.345 184.732C205.497 187.901 202.052 190.478 198.207 192.316V192.316Z" fill="#000000"/>
<path d="M194.089 137.686C184.835 134.388 174.802 136.256 167.952 141.823C165.717 143.64 169.222 147.06 171.446 145.252C177.117 140.643 185.444 139.28 193.057 142.016C201.035 144.882 206.831 151.909 208.592 159.579C209.259 162.489 213.842 161.563 213.184 158.672C211.032 149.351 203.654 141.083 194.089 137.686Z" fill="#000000"/>
<defs>
<linearGradient id="paint0_linear_11575_103827" x1="7824.36" y1="13762.4" x2="8747.12" y2="10976" gradientUnits="userSpaceOnUse">
<stop stop-color="#808080" stop-opacity="0.25"/>
<stop offset="0.54" stop-color="#808080" stop-opacity="0.12"/>
<stop offset="1" stop-color="#808080" stop-opacity="0.1"/>
</linearGradient>
<linearGradient id="paint1_linear_11575_103827" x1="5906.18" y1="19554.6" x2="6828.94" y2="16768.2" gradientUnits="userSpaceOnUse">
<stop stop-color="#808080" stop-opacity="0.25"/>
<stop offset="0.54" stop-color="#808080" stop-opacity="0.12"/>
<stop offset="1" stop-color="#808080" stop-opacity="0.1"/>
</linearGradient>
<linearGradient id="paint2_linear_11575_103827" x1="5218.9" y1="55636.7" x2="11530.2" y2="44510.1" gradientUnits="userSpaceOnUse">
<stop stop-color="#808080" stop-opacity="0.25"/>
<stop offset="0.54" stop-color="#808080" stop-opacity="0.12"/>
<stop offset="1" stop-color="#808080" stop-opacity="0.1"/>
</linearGradient>
<linearGradient id="paint3_linear_11575_103827" x1="158.528" y1="152.827" x2="160.31" y2="147.445" gradientUnits="userSpaceOnUse">
<stop stop-opacity="0.12"/>
<stop offset="0.55" stop-opacity="0.09"/>
<stop offset="1" stop-opacity="0.02"/>
</linearGradient>
</defs>
</svg>
