<svg width="76" height="34" viewBox="0 0 76 34" fill="none" xmlns="http://www.w3.org/2000/svg">
<rect width="76" height="34" rx="10" fill="#E99F0C"/>
<path d="M23.113 17.405C23.3597 17.405 23.5747 17.375 23.758 17.315C23.9413 17.2517 24.093 17.1633 24.213 17.05C24.3363 16.9333 24.428 16.7933 24.488 16.63C24.548 16.4633 24.578 16.2783 24.578 16.075C24.578 15.8817 24.548 15.7067 24.488 15.55C24.428 15.3933 24.338 15.26 24.218 15.15C24.098 15.04 23.9463 14.9567 23.763 14.9C23.5797 14.84 23.363 14.81 23.113 14.81H22.108V17.405H23.113ZM23.113 13.77C23.5963 13.77 24.0147 13.8267 24.368 13.94C24.7213 14.0533 25.013 14.2117 25.243 14.415C25.473 14.6183 25.643 14.8617 25.753 15.145C25.8663 15.4283 25.923 15.7383 25.923 16.075C25.923 16.425 25.8647 16.7467 25.748 17.04C25.6313 17.33 25.4563 17.58 25.223 17.79C24.9897 18 24.6963 18.1633 24.343 18.28C23.993 18.3967 23.583 18.455 23.113 18.455H22.108V21H20.763V13.77H23.113ZM29.83 17.845C29.83 17.685 29.8067 17.535 29.76 17.395C29.7167 17.2517 29.65 17.1267 29.56 17.02C29.47 16.9133 29.355 16.83 29.215 16.77C29.0784 16.7067 28.9184 16.675 28.735 16.675C28.3784 16.675 28.0967 16.7767 27.89 16.98C27.6867 17.1833 27.5567 17.4717 27.5 17.845H29.83ZM27.475 18.59C27.495 18.8533 27.5417 19.0817 27.615 19.275C27.6884 19.465 27.785 19.6233 27.905 19.75C28.025 19.8733 28.1667 19.9667 28.33 20.03C28.4967 20.09 28.68 20.12 28.88 20.12C29.08 20.12 29.2517 20.0967 29.395 20.05C29.5417 20.0033 29.6684 19.9517 29.775 19.895C29.885 19.8383 29.98 19.7867 30.06 19.74C30.1434 19.6933 30.2234 19.67 30.3 19.67C30.4034 19.67 30.48 19.7083 30.53 19.785L30.885 20.235C30.7484 20.395 30.595 20.53 30.425 20.64C30.255 20.7467 30.0767 20.8333 29.89 20.9C29.7067 20.9633 29.5184 21.0083 29.325 21.035C29.135 21.0617 28.95 21.075 28.77 21.075C28.4134 21.075 28.0817 21.0167 27.775 20.9C27.4684 20.78 27.2017 20.605 26.975 20.375C26.7484 20.1417 26.57 19.855 26.44 19.515C26.31 19.1717 26.245 18.775 26.245 18.325C26.245 17.975 26.3017 17.6467 26.415 17.34C26.5284 17.03 26.69 16.7617 26.9 16.535C27.1134 16.305 27.3717 16.1233 27.675 15.99C27.9817 15.8567 28.3267 15.79 28.71 15.79C29.0334 15.79 29.3317 15.8417 29.605 15.945C29.8784 16.0483 30.1134 16.2 30.31 16.4C30.5067 16.5967 30.66 16.84 30.77 17.13C30.8834 17.4167 30.94 17.745 30.94 18.115C30.94 18.3017 30.92 18.4283 30.88 18.495C30.84 18.5583 30.7634 18.59 30.65 18.59H27.475ZM33.0218 16.5C33.1252 16.3967 33.2335 16.3017 33.3468 16.215C33.4635 16.125 33.5852 16.05 33.7118 15.99C33.8418 15.9267 33.9802 15.8783 34.1268 15.845C34.2735 15.8083 34.4335 15.79 34.6068 15.79C34.8868 15.79 35.1352 15.8383 35.3518 15.935C35.5685 16.0283 35.7485 16.1617 35.8918 16.335C36.0385 16.505 36.1485 16.71 36.2218 16.95C36.2985 17.1867 36.3368 17.4483 36.3368 17.735V21H35.1018V17.735C35.1018 17.4217 35.0302 17.18 34.8868 17.01C34.7435 16.8367 34.5252 16.75 34.2318 16.75C34.0185 16.75 33.8185 16.7983 33.6318 16.895C33.4452 16.9917 33.2685 17.1233 33.1018 17.29V21H31.8668V15.87H32.6218C32.7818 15.87 32.8868 15.945 32.9368 16.095L33.0218 16.5ZM40.7314 17.18C40.5914 17.01 40.438 16.89 40.2714 16.82C40.108 16.75 39.9314 16.715 39.7414 16.715C39.5547 16.715 39.3864 16.75 39.2364 16.82C39.0864 16.89 38.958 16.9967 38.8514 17.14C38.7447 17.28 38.663 17.46 38.6064 17.68C38.5497 17.8967 38.5214 18.1533 38.5214 18.45C38.5214 18.75 38.5447 19.005 38.5914 19.215C38.6414 19.4217 38.7114 19.5917 38.8014 19.725C38.8914 19.855 39.0014 19.95 39.1314 20.01C39.2614 20.0667 39.4064 20.095 39.5664 20.095C39.823 20.095 40.0414 20.0417 40.2214 19.935C40.4014 19.8283 40.5714 19.6767 40.7314 19.48V17.18ZM41.9664 13.57V21H41.2114C41.048 21 40.9447 20.925 40.9014 20.775L40.7964 20.28C40.5897 20.5167 40.3514 20.7083 40.0814 20.855C39.8147 21.0017 39.503 21.075 39.1464 21.075C38.8664 21.075 38.6097 21.0167 38.3764 20.9C38.143 20.7833 37.9414 20.615 37.7714 20.395C37.6047 20.1717 37.4747 19.8967 37.3814 19.57C37.2914 19.2433 37.2464 18.87 37.2464 18.45C37.2464 18.07 37.298 17.7167 37.4014 17.39C37.5047 17.0633 37.653 16.78 37.8464 16.54C38.0397 16.3 38.2714 16.1133 38.5414 15.98C38.8114 15.8433 39.1147 15.775 39.4514 15.775C39.738 15.775 39.983 15.82 40.1864 15.91C40.3897 16 40.5714 16.1217 40.7314 16.275V13.57H41.9664ZM44.4652 15.87V21H43.2252V15.87H44.4652ZM44.6352 14.375C44.6352 14.4817 44.6135 14.5817 44.5702 14.675C44.5269 14.7683 44.4685 14.85 44.3952 14.92C44.3252 14.99 44.2419 15.0467 44.1452 15.09C44.0485 15.13 43.9452 15.15 43.8352 15.15C43.7285 15.15 43.6269 15.13 43.5302 15.09C43.4369 15.0467 43.3552 14.99 43.2852 14.92C43.2152 14.85 43.1585 14.7683 43.1152 14.675C43.0752 14.5817 43.0552 14.4817 43.0552 14.375C43.0552 14.265 43.0752 14.1617 43.1152 14.065C43.1585 13.9683 43.2152 13.885 43.2852 13.815C43.3552 13.745 43.4369 13.69 43.5302 13.65C43.6269 13.6067 43.7285 13.585 43.8352 13.585C43.9452 13.585 44.0485 13.6067 44.1452 13.65C44.2419 13.69 44.3252 13.745 44.3952 13.815C44.4685 13.885 44.5269 13.9683 44.5702 14.065C44.6135 14.1617 44.6352 14.265 44.6352 14.375ZM46.8793 16.5C46.9826 16.3967 47.0909 16.3017 47.2043 16.215C47.3209 16.125 47.4426 16.05 47.5693 15.99C47.6993 15.9267 47.8376 15.8783 47.9843 15.845C48.1309 15.8083 48.2909 15.79 48.4643 15.79C48.7443 15.79 48.9926 15.8383 49.2093 15.935C49.4259 16.0283 49.6059 16.1617 49.7493 16.335C49.8959 16.505 50.0059 16.71 50.0793 16.95C50.1559 17.1867 50.1943 17.4483 50.1943 17.735V21H48.9593V17.735C48.9593 17.4217 48.8876 17.18 48.7443 17.01C48.6009 16.8367 48.3826 16.75 48.0893 16.75C47.8759 16.75 47.6759 16.7983 47.4893 16.895C47.3026 16.9917 47.1259 17.1233 46.9593 17.29V21H45.7243V15.87H46.4793C46.6393 15.87 46.7443 15.945 46.7943 16.095L46.8793 16.5ZM53.2438 18.31C53.3971 18.31 53.5305 18.29 53.6438 18.25C53.7571 18.2067 53.8505 18.1483 53.9238 18.075C54.0005 18.0017 54.0571 17.9133 54.0938 17.81C54.1338 17.7067 54.1538 17.5933 54.1538 17.47C54.1538 17.2167 54.0771 17.0167 53.9238 16.87C53.7738 16.72 53.5471 16.645 53.2438 16.645C52.9405 16.645 52.7121 16.72 52.5588 16.87C52.4088 17.0167 52.3338 17.2167 52.3338 17.47C52.3338 17.59 52.3521 17.7017 52.3888 17.805C52.4288 17.9083 52.4855 17.9983 52.5588 18.075C52.6355 18.1483 52.7305 18.2067 52.8438 18.25C52.9605 18.29 53.0938 18.31 53.2438 18.31ZM54.6388 21.23C54.6388 21.13 54.6088 21.0483 54.5488 20.985C54.4888 20.9217 54.4071 20.8733 54.3038 20.84C54.2005 20.8033 54.0788 20.7767 53.9388 20.76C53.8021 20.7433 53.6555 20.7317 53.4988 20.725C53.3455 20.715 53.1855 20.7067 53.0188 20.7C52.8555 20.6933 52.6955 20.68 52.5388 20.66C52.4021 20.7367 52.2905 20.8267 52.2038 20.93C52.1205 21.0333 52.0788 21.1533 52.0788 21.29C52.0788 21.38 52.1005 21.4633 52.1438 21.54C52.1905 21.62 52.2621 21.6883 52.3588 21.745C52.4588 21.8017 52.5871 21.845 52.7438 21.875C52.9005 21.9083 53.0921 21.925 53.3188 21.925C53.5488 21.925 53.7471 21.9067 53.9138 21.87C54.0805 21.8367 54.2171 21.7883 54.3238 21.725C54.4338 21.665 54.5138 21.5917 54.5638 21.505C54.6138 21.4217 54.6388 21.33 54.6388 21.23ZM55.8688 16.045V16.505C55.8688 16.6517 55.7805 16.7417 55.6038 16.775L55.1438 16.86C55.2138 17.0367 55.2488 17.23 55.2488 17.44C55.2488 17.6933 55.1971 17.9233 55.0938 18.13C54.9938 18.3333 54.8538 18.5067 54.6738 18.65C54.4938 18.7933 54.2805 18.905 54.0338 18.985C53.7905 19.0617 53.5271 19.1 53.2438 19.1C53.1438 19.1 53.0471 19.095 52.9538 19.085C52.8605 19.075 52.7688 19.0617 52.6788 19.045C52.5188 19.1417 52.4388 19.25 52.4388 19.37C52.4388 19.4733 52.4855 19.55 52.5788 19.6C52.6755 19.6467 52.8021 19.68 52.9588 19.7C53.1155 19.72 53.2938 19.7333 53.4938 19.74C53.6938 19.7433 53.8988 19.7533 54.1088 19.77C54.3188 19.7867 54.5238 19.8167 54.7238 19.86C54.9238 19.9 55.1021 19.965 55.2588 20.055C55.4155 20.145 55.5405 20.2683 55.6338 20.425C55.7305 20.5783 55.7788 20.7767 55.7788 21.02C55.7788 21.2467 55.7221 21.4667 55.6088 21.68C55.4988 21.8933 55.3371 22.0833 55.1238 22.25C54.9138 22.4167 54.6538 22.55 54.3438 22.65C54.0371 22.7533 53.6871 22.805 53.2938 22.805C52.9071 22.805 52.5705 22.7667 52.2838 22.69C51.9971 22.6167 51.7588 22.5167 51.5688 22.39C51.3788 22.2667 51.2371 22.1233 51.1438 21.96C51.0505 21.7967 51.0038 21.6267 51.0038 21.45C51.0038 21.21 51.0755 21.01 51.2188 20.85C51.3655 20.6867 51.5655 20.5567 51.8188 20.46C51.6821 20.39 51.5738 20.2967 51.4938 20.18C51.4138 20.0633 51.3738 19.91 51.3738 19.72C51.3738 19.6433 51.3871 19.565 51.4138 19.485C51.4438 19.4017 51.4855 19.32 51.5388 19.24C51.5955 19.16 51.6655 19.085 51.7488 19.015C51.8321 18.9417 51.9305 18.8767 52.0438 18.82C51.7838 18.68 51.5788 18.4933 51.4288 18.26C51.2821 18.0267 51.2088 17.7533 51.2088 17.44C51.2088 17.1867 51.2588 16.9583 51.3588 16.755C51.4621 16.5483 51.6038 16.3733 51.7838 16.23C51.9671 16.0833 52.1821 15.9717 52.4288 15.895C52.6788 15.8183 52.9505 15.78 53.2438 15.78C53.4638 15.78 53.6705 15.8033 53.8638 15.85C54.0571 15.8933 54.2338 15.9583 54.3938 16.045H55.8688Z" fill="white"/>
</svg>
