<svg width="600" height="230" viewBox="0 0 600 230" fill="none" xmlns="http://www.w3.org/2000/svg">
<path d="M0 10C0 4.47715 4.47715 0 10 0H590C595.523 0 600 4.47715 600 10V230H0V10Z" fill="#F0F3EE"/>
<g clip-path="url(#clip0_12221_100421)">
<path d="M344.371 176.066C346.337 188.475 335.545 200.516 320.249 202.953C304.952 205.39 290.965 197.281 288.999 184.871C287.033 172.441 342.406 163.656 344.371 176.066Z" fill="#000000"/>
<path d="M325.061 170.147C327.109 176.372 326.986 183.437 325.491 189.601C324.303 194.516 322.235 199.185 319.286 203.076C319.614 203.035 319.921 203.014 320.249 202.953C335.546 200.516 346.337 188.495 344.371 176.065C343.614 171.355 335.156 169.697 325.061 170.147Z" fill="#518C36"/>
<path d="M379.471 136.748L377.444 137.075L365.997 97.3687C358.604 72.8363 342.119 56.7203 320.188 52.5018C320.311 50.6998 320.27 48.8568 319.962 46.9933C317.874 33.8261 305.526 24.8568 292.358 26.9455C279.212 29.0342 270.242 41.3824 272.331 54.5496C272.659 56.6179 273.273 58.5837 274.072 60.4267C254.577 71.8534 243.498 92.9455 245.382 116.515L246.549 157.86L243.539 158.331C233.73 159.887 227.055 169.103 228.611 178.891C230.167 188.7 239.382 195.376 249.171 193.819L385.102 172.236C394.911 170.679 401.587 161.464 400.031 151.676C398.474 141.867 389.259 135.191 379.471 136.748ZM300.795 44.8431C300.795 44.966 300.836 45.3346 300.816 45.5598C300.816 45.5803 300.816 45.6213 300.795 45.6418C300.693 46.0718 300.611 46.5223 300.468 46.9523C300.447 46.9933 300.427 47.0547 300.406 47.0957C300.365 47.1571 299.997 47.9148 299.771 48.2629C299.751 48.2834 299.751 48.3039 299.73 48.3243C299.444 48.6929 299.116 49.0411 298.768 49.3482C298.727 49.3892 298.686 49.4302 298.645 49.4506L298.625 49.4711C298.358 49.6349 297.805 49.9831 297.539 50.1469C297.519 50.1469 297.519 50.1674 297.498 50.1674C297.478 50.1878 297.457 50.1878 297.416 50.2083C297.396 50.2288 297.355 50.2288 297.334 50.2493C296.904 50.3926 296.454 50.536 296.003 50.6588C295.942 50.6793 295.881 50.6793 295.819 50.6793C295.819 50.6793 295.799 50.6793 295.778 50.6793C295.491 50.6998 294.734 50.6998 294.447 50.7203C294.427 50.7203 294.427 50.7203 294.406 50.7203C294.386 50.7203 294.345 50.7203 294.324 50.7203C294.283 50.7203 294.263 50.6998 294.222 50.6998C293.935 50.6383 293.259 50.4745 292.973 50.3926H292.952C292.932 50.3926 292.932 50.3926 292.911 50.3721C292.87 50.3517 292.85 50.3517 292.809 50.3312C292.788 50.3312 292.788 50.3107 292.768 50.3107C292.481 50.1674 291.928 49.8602 291.662 49.6964C291.662 49.6964 291.642 49.6964 291.642 49.6759C291.58 49.6349 291.519 49.594 291.457 49.553C291.109 49.2459 290.782 48.9387 290.454 48.611C290.433 48.5906 290.392 48.5496 290.372 48.5086C289.819 47.8124 289.471 47.0342 289.328 46.1537C289.307 45.7237 289.307 45.2732 289.287 44.8431C289.389 43.9831 289.696 43.2049 290.188 42.5086C290.229 42.4677 290.27 42.4063 290.331 42.3653C290.413 42.181 290.474 41.9967 290.597 41.8329C290.863 41.2595 291.253 40.768 291.765 40.3585C292.256 39.908 292.829 39.6213 293.485 39.4984C294.099 39.2527 294.754 39.1708 295.43 39.2732C295.491 39.2732 295.553 39.2936 295.614 39.3141C295.635 39.3141 295.676 39.3346 295.696 39.3346C296.126 39.437 296.556 39.5394 296.986 39.6622C297.089 39.6827 297.171 39.7237 297.253 39.7646C297.662 39.9694 298.072 40.1947 298.461 40.4199C298.502 40.4404 298.522 40.4609 298.543 40.4813C298.891 40.768 299.218 41.0957 299.526 41.4028C299.546 41.4233 299.567 41.4438 299.587 41.4848C300.201 42.2834 300.611 43.1025 300.754 44.1059C300.816 44.3517 300.795 44.7407 300.795 44.8431Z" fill="#000000"/>
<path d="M261.642 154.666C253.307 107.792 261.396 75.2532 286.666 65.26C272.495 55.8197 276.877 40.5023 283.737 30.0996C275.546 35.0143 270.734 44.5569 272.331 54.5501C272.659 56.6184 273.273 58.5843 274.072 60.4273C254.577 71.8539 243.498 92.946 245.382 116.516L246.549 157.861L243.539 158.332C233.73 159.888 227.055 169.103 228.611 178.891C230.167 188.7 239.382 195.376 249.171 193.82L257.997 192.427C242.863 191.854 234.836 169.779 253.86 161.792C253.962 161.751 261.068 155.014 261.642 154.666Z" fill="#7EC65C"/>
<path d="M379.471 136.747L377.444 137.075L365.997 97.3685C358.604 72.8361 342.12 56.72 320.188 52.5016C320.311 50.6995 320.27 48.8565 319.963 46.9931C318.263 36.3446 309.847 28.4402 299.73 26.9248C301.164 29.8327 306.836 32.1876 308.515 40.174C311.587 54.7337 308.393 59.8941 309.027 61.6552C309.396 62.6381 339.478 63.0272 349.164 110.7C351.519 122.31 354.468 138.693 346.481 148.051C360.55 153.007 365.137 165.846 355.963 176.884L385.102 172.235C394.911 170.679 401.587 161.464 400.031 151.676C398.474 141.867 389.259 135.191 379.471 136.747Z" fill="#518C36"/>
<path d="M379.471 136.748L377.444 137.076L376.993 132.837C374.741 133.82 291.929 154.318 246.509 152.188L246.55 157.758C262.359 162.386 363.765 148.81 379.471 136.748Z" fill="#000080"/>
<path d="M284.556 74.0858C282.959 71.7923 279.969 70.6455 277.246 71.2598C277.02 71.3008 276.836 71.4032 276.611 71.4646C276.59 71.4646 276.57 71.4646 276.549 71.4646C274.072 71.4646 271.983 72.2837 270.017 73.7377C267.252 75.7854 265.123 78.6728 263.689 81.7854C261.949 85.5534 261.416 90.3656 264.713 93.4578C267.764 96.3452 272.474 95.9356 276.16 94.666C281.669 92.7616 286.317 86.8639 286.42 80.9663C286.42 78.4476 285.99 76.1745 284.556 74.0858Z" fill="#000080"/>
<path d="M270.733 103.123C270.365 102.345 269.832 101.69 269.136 101.178L268.03 100.584C267.211 100.256 266.351 100.174 265.471 100.318L264.918 100.4C264.242 100.482 263.648 100.727 263.116 101.116C262.542 101.403 262.071 101.833 261.703 102.366C261.293 102.877 261.047 103.451 260.945 104.086C260.74 104.721 260.699 105.355 260.822 106.031C260.945 106.461 261.068 106.871 261.191 107.301C261.559 108.079 262.092 108.734 262.788 109.246L263.894 109.84C264.713 110.168 265.573 110.25 266.453 110.106L267.006 110.024C267.682 109.942 268.276 109.697 268.808 109.308C269.382 109.021 269.853 108.591 270.221 108.058C270.631 107.546 270.877 106.973 270.979 106.338C271.184 105.703 271.225 105.069 271.102 104.393C270.979 103.963 270.856 103.553 270.733 103.123Z" fill="#000080"/>
<path d="M273.887 174.099C264.611 170.516 253.942 171.417 244.215 169.39C238.276 168.14 237.212 177.622 243.171 178.789C253.307 180.755 265.287 182.434 274.235 176.27C275.034 175.717 274.727 174.427 273.887 174.099Z" fill="#000080"/>
<path d="M290.761 170.085L284.105 171.027C280.583 171.519 281.464 177.109 284.965 176.495L291.58 175.328C294.938 174.734 294.139 169.614 290.761 170.085Z" fill="#000080"/>
<path d="M315.621 205C304.072 205 293.259 198.652 287.73 188.229L290.638 186.693C296.311 197.382 308.147 203.259 320.085 201.375C332.044 199.471 341.464 190.194 343.533 178.297L346.768 178.87C344.454 192.16 333.928 202.522 320.597 204.631C318.918 204.877 317.259 205 315.621 205Z" fill="#121243"/>
<path d="M246.344 195.683C242.249 195.683 238.255 194.393 234.877 191.936C230.638 188.864 227.853 184.318 227.034 179.137C225.334 168.468 232.644 158.393 243.313 156.693L244.89 156.447L243.743 116.536C241.839 92.9867 252.385 71.8126 272.023 59.7103C271.409 58.072 270.958 56.4133 270.713 54.7751C268.481 40.7478 278.085 27.5191 292.112 25.287C306.139 23.055 319.368 32.6591 321.6 46.6864C321.825 48.1198 321.928 49.6147 321.907 51.1301C343.634 55.8399 360.242 72.427 367.593 96.8365L378.651 135.171L379.245 135.069C389.935 133.369 399.989 140.68 401.689 151.348C403.388 162.017 396.078 172.093 385.409 173.792L249.457 195.437C248.412 195.601 247.368 195.683 246.344 195.683ZM296.167 28.2768C294.999 28.2768 293.812 28.3587 292.624 28.5635C280.378 30.5089 272.003 42.0379 273.948 54.2836C274.235 56.1062 274.788 57.9492 275.586 59.7512L276.16 61.0823L274.911 61.8195C255.621 73.1437 245.197 93.5191 247.04 116.372L248.269 159.253L243.846 159.949C234.958 161.362 228.877 169.738 230.289 178.645C230.965 182.946 233.3 186.734 236.822 189.294C240.344 191.854 244.665 192.877 248.965 192.202L384.877 170.618C389.177 169.942 392.965 167.608 395.525 164.086C398.085 160.563 399.129 156.243 398.433 151.942C397.02 143.055 388.624 136.973 379.737 138.366L376.276 138.918L364.419 97.8195C357.17 73.758 341.361 58.2359 319.88 54.1198L318.446 53.8536L318.549 52.3997C318.672 50.6386 318.61 48.898 318.344 47.2597C316.603 36.1812 307.02 28.2768 296.167 28.2768Z" fill="#121243"/>
<path d="M295.533 53.3007C291.519 53.3007 287.976 50.3723 287.321 46.2768C286.604 41.7512 289.696 37.4713 294.222 36.7546C298.727 36.0174 303.027 39.13 303.744 43.6556C304.461 48.1812 301.369 52.4611 296.843 53.1778C296.393 53.2802 295.963 53.3007 295.533 53.3007ZM295.533 39.9491C295.266 39.9491 295 39.9696 294.734 40.0106C291.99 40.4406 290.106 43.0413 290.556 45.7853C290.987 48.5293 293.587 50.3928 296.331 49.9628C299.075 49.5328 300.959 46.9321 300.509 44.188C300.12 41.7307 297.969 39.9491 295.533 39.9491Z" fill="#121243"/>
<path d="M358.666 47.6896C359.628 48.2425 360.591 48.8158 361.512 49.4507C361.922 49.7373 362.352 50.024 362.761 50.3312C362.966 50.4745 363.171 50.6384 363.375 50.7817C363.867 51.1503 362.536 50.1059 363.212 50.6588C364.891 52.0309 366.488 53.5053 367.963 55.1025C368.679 55.8807 369.314 56.7408 370.031 57.5189C369.744 57.1913 369.457 56.7817 369.908 57.3756C370.051 57.5803 370.215 57.7851 370.358 57.9899C370.686 58.4404 370.993 58.8909 371.3 59.3619C372.488 61.1844 373.553 63.0889 374.454 65.0547C374.945 66.1196 376.317 67.0206 377.403 67.3073C378.57 67.635 380.147 67.4916 381.191 66.8158C383.608 65.2595 384.099 62.5974 382.952 60.0786C378.959 51.3346 372.017 43.9216 363.662 39.1913C361.43 37.9216 358.195 38.5769 356.925 40.9524C355.655 43.2868 356.27 46.338 358.666 47.6896Z" fill="#121243"/>
<path d="M373.512 41.5462C375.273 43.4507 377.034 45.3551 378.795 47.2595C379.246 47.7305 379.778 48.0787 380.372 48.2834C380.966 48.5906 381.58 48.7339 382.276 48.7135C382.952 48.7339 383.587 48.5906 384.181 48.2834C384.795 48.0787 385.327 47.751 385.757 47.2595C386.618 46.3176 387.252 45.0889 387.191 43.7783C387.129 43.3483 387.068 42.8978 387.007 42.4677C386.781 41.6281 386.351 40.9114 385.737 40.2971C383.976 38.3926 382.215 36.4882 380.454 34.5838C380.003 34.1128 379.471 33.7647 378.877 33.5599C378.283 33.2527 377.669 33.1094 376.972 33.1298C376.297 33.1094 375.662 33.2527 375.068 33.5599C374.454 33.7647 373.921 34.0923 373.491 34.5838C372.631 35.5258 371.996 36.7544 372.058 38.065C372.119 38.495 372.181 38.9455 372.242 39.3756C372.467 40.2152 372.897 40.9319 373.512 41.5462Z" fill="#121243"/>
<path d="M219.396 89.2797C219.662 88.4811 219.97 87.6825 220.277 86.9043C220.522 86.2695 220.154 87.1296 220.113 87.2934C220.154 87.1296 220.277 86.9453 220.338 86.7814C220.522 86.3924 220.686 86.0033 220.871 85.6347C221.608 84.1193 222.468 82.6449 223.389 81.232C223.819 80.5562 224.29 79.9214 224.761 79.2661C225.273 78.5698 224.209 79.9419 224.598 79.4709C224.72 79.3275 224.823 79.1842 224.946 79.0203C225.212 78.6927 225.478 78.3651 225.765 78.0374C226.871 76.7473 228.058 75.5391 229.328 74.4128C231.253 72.6927 231.212 69.191 229.328 67.4504C227.28 65.5664 224.413 65.6074 222.366 67.4504C216.611 72.6313 212.393 79.3275 209.895 86.6381C209.075 89.075 210.836 92.1262 213.335 92.6791C216.079 93.3343 218.516 91.9009 219.396 89.2797Z" fill="#121243"/>
<path d="M208.174 77.6286C209.976 75.1507 211.758 72.6934 213.56 70.2156C213.928 69.6422 214.112 69.0484 214.153 68.3931C214.297 67.7378 214.276 67.0825 214.072 66.4272C213.764 65.2804 212.884 64.0518 211.819 63.4784C210.672 62.8845 209.3 62.5774 208.031 62.9869C207.641 63.1507 207.252 63.3146 206.863 63.4784C206.126 63.9084 205.532 64.5023 205.102 65.2395C203.3 67.7173 201.519 70.1746 199.717 72.6525C199.348 73.2258 199.164 73.8197 199.123 74.475C198.979 75.1303 199 75.7856 199.205 76.4409C199.512 77.5876 200.392 78.8163 201.457 79.3897C202.604 79.9835 203.976 80.2907 205.246 79.8811C205.635 79.7173 206.024 79.5535 206.413 79.3897C207.15 78.9391 207.723 78.3658 208.174 77.6286Z" fill="#121243"/>
</g>
<defs>
<clipPath id="clip0_12221_100421">
<rect width="202.894" height="180" fill="white" transform="translate(199 25)"/>
</clipPath>
</defs>
</svg>
