<svg width="60" height="60" viewBox="0 0 60 60" fill="none" xmlns="http://www.w3.org/2000/svg">
<circle cx="30" cy="30" r="30" fill="#F0F2FF"/>
<path d="M38.1069 13H38.0576H38.0578C35.3908 13.0195 32.8383 14.0876 30.9528 15.9737C29.0667 17.8597 27.9986 20.412 27.9791 23.0787L27.9518 27.9514L23.0791 27.9787L23.0789 27.979C20.4119 27.9985 17.8596 29.0666 15.9738 30.9526C14.0878 32.8384 13.0197 35.3909 13.0002 38.0577C12.9855 40.6905 14.0214 43.2204 15.8786 45.0865C17.7356 46.9527 20.2605 48.0014 22.8931 47.9996H22.9424H22.9422C25.6092 47.9801 28.1617 46.912 30.0472 45.026C31.9333 43.1399 33.0014 40.5877 33.0209 37.9209L33.0455 33.0453L37.9211 33.0207C40.5881 33.0011 43.1404 31.933 45.0262 30.047C46.9122 28.1612 47.9803 25.6087 47.9998 22.9419C48.0145 20.3091 46.9786 17.7792 45.1214 15.9131C43.2644 14.0469 40.7395 12.9983 38.1069 13L38.1069 13ZM29.4524 37.9872C29.4422 39.6928 28.7603 41.3256 27.5545 42.5322C26.3487 43.7385 24.7161 44.4211 23.0102 44.4321H22.9775C21.2714 44.4333 19.6354 43.754 18.4323 42.5446C17.2289 41.3353 16.558 39.6957 16.568 37.9899C16.579 36.284 17.2616 34.6514 18.4679 33.4456C19.6745 32.2398 21.3073 31.5579 23.0129 31.5477C24.2844 31.5423 26.7974 31.5286 28.6021 31.5176H28.6075L28.6077 31.5174C28.8394 31.5171 29.0616 31.6094 29.2249 31.7737C29.388 31.938 29.4791 32.1609 29.4771 32.3924L29.4524 37.9872ZM42.5313 27.5552C41.3282 28.7654 39.6934 29.448 37.9868 29.4526L32.3923 29.4773H32.3894C32.1577 29.4788 31.935 29.387 31.7714 29.2231C31.6079 29.0581 31.5163 28.8347 31.517 28.6023C31.528 26.7976 31.5417 24.2846 31.5471 23.0131H31.5473C31.5576 21.3075 32.2394 19.6747 33.4453 18.4681C34.6511 17.2618 36.2837 16.5791 37.9895 16.5682H38.0222C39.7283 16.567 41.3643 17.2462 42.5675 18.4557C43.7708 19.6649 44.4417 21.3046 44.4317 23.0104C44.4249 24.7172 43.7415 26.3515 42.5313 27.5551L42.5313 27.5552Z" fill="#4751D1"/>
</svg>
