<svg width="30" height="31" viewBox="0 0 30 31" fill="none" xmlns="http://www.w3.org/2000/svg">
<g clip-path="url(#clip0_2990:1550)">
<path d="M9.37546 25.0723H5.2739V11.8301H9.37546V25.0723ZM9.7847 7.6111C9.7847 6.28519 8.70895 5.20898 7.38373 5.20898C6.05347 5.20898 4.98047 6.28519 4.98047 7.6111C4.98047 8.93747 6.05347 10.0137 7.38373 10.0137C8.70895 10.0137 9.7847 8.93747 9.7847 7.6111ZM24.7266 17.787C24.7266 14.2322 23.9756 11.5957 19.823 11.5957C17.8276 11.5957 16.4882 12.5936 15.9414 13.6314H15.9375V11.8301H11.9531V25.0723H15.9375V18.4974C15.9375 16.7755 16.3758 15.1074 18.5101 15.1074C20.6154 15.1074 20.6836 17.0765 20.6836 18.6068V25.0723H24.7266V17.787ZM30 26.7715V3.80273C30 1.86411 28.423 0.287109 26.4844 0.287109H3.51562C1.577 0.287109 0 1.86411 0 3.80273V26.7715C0 28.7101 1.577 30.2871 3.51562 30.2871H26.4844C28.423 30.2871 30 28.7101 30 26.7715V26.7715ZM26.4844 2.63086C27.1305 2.63086 27.6562 3.1566 27.6562 3.80273V26.7715C27.6562 27.4176 27.1305 27.9434 26.4844 27.9434H3.51562C2.86949 27.9434 2.34375 27.4176 2.34375 26.7715V3.80273C2.34375 3.1566 2.86949 2.63086 3.51562 2.63086H26.4844Z" fill="white"/>
</g>
<defs>
<clipPath id="clip0_2990:1550">
<rect width="30" height="30" fill="white" transform="translate(0 0.287109)"/>
</clipPath>
</defs>
</svg>
