<svg width="79" height="71" viewBox="0 0 79 71" fill="none" xmlns="http://www.w3.org/2000/svg">
<path d="M11.6057 63.707C11.545 63.707 11.4935 63.6584 11.4874 63.5978L11.1872 60.2806C11.163 60.0047 10.9447 59.7803 10.6657 59.75L8.06413 59.462C8.00349 59.4559 7.95801 59.4044 7.95801 59.3437C7.95801 59.2831 8.00349 59.2315 8.06413 59.2255L10.6657 58.9374C10.9416 58.9071 11.163 58.6827 11.1872 58.4068L11.4874 55.0896C11.4935 55.029 11.545 54.9805 11.6057 54.9805C11.6693 54.9805 11.7209 55.029 11.7239 55.0896L12.0241 58.4068C12.0484 58.6857 12.2697 58.9071 12.5456 58.9374L15.1442 59.2255C15.2048 59.2315 15.2503 59.2831 15.2503 59.3437C15.2503 59.4044 15.2048 59.4559 15.1442 59.462L12.5456 59.75C12.2697 59.7803 12.0484 60.0047 12.0241 60.2806L11.7239 63.5978C11.7179 63.6584 11.6663 63.707 11.6057 63.707ZM9.16783 59.3407L10.69 59.5075C11.0811 59.5499 11.3873 59.8652 11.4237 60.2564L11.6026 62.2485L11.7815 60.2564C11.8179 59.8652 12.1242 59.5499 12.5153 59.5075L14.0374 59.3407L12.5153 59.1709C12.1242 59.1284 11.8179 58.8131 11.7815 58.4219L11.6026 56.4298L11.4237 58.4219C11.3873 58.8131 11.0811 59.1284 10.69 59.1709L9.16783 59.3407Z" fill="#B0FF8B"/>
<g opacity="0.5">
<path opacity="0.5" d="M15.2502 70.6624C15.1895 70.6624 15.135 70.6139 15.1319 70.5533L14.9288 68.2943C14.9136 68.1245 14.7772 67.9851 14.6074 67.9669L12.8366 67.7698C12.776 67.7637 12.7305 67.7122 12.7305 67.6515C12.7305 67.5909 12.776 67.5393 12.8366 67.5333L14.6074 67.3362C14.7772 67.318 14.9136 67.1785 14.9288 67.0087L15.1319 64.7498C15.138 64.6891 15.1895 64.6406 15.2502 64.6406C15.3108 64.6406 15.3654 64.6891 15.3684 64.7498L15.5716 67.0087C15.5867 67.1785 15.7232 67.318 15.893 67.3362L17.6637 67.5333C17.7244 67.5393 17.7699 67.5909 17.7699 67.6515C17.7699 67.7122 17.7244 67.7637 17.6637 67.7698L15.893 67.9669C15.7232 67.9851 15.5867 68.1245 15.5716 68.2943L15.3684 70.5533C15.3654 70.6139 15.3138 70.6624 15.2502 70.6624ZM13.9403 67.6515L14.6346 67.7273C14.9166 67.7577 15.141 67.9881 15.1683 68.2701L15.2532 69.204L15.3381 68.2701C15.3624 67.9851 15.5867 67.7577 15.8718 67.7273L16.5661 67.6515L15.8718 67.5757C15.5898 67.5454 15.3654 67.315 15.3381 67.033L15.2532 66.0991L15.1683 67.033C15.144 67.318 14.9197 67.5454 14.6346 67.5757L13.9403 67.6515Z" fill="#B0FF8B"/>
</g>
<path d="M4.67579 32.0388C4.63031 32.0388 4.59392 32.0054 4.59089 31.9599L4.37864 29.5918C4.36045 29.3947 4.20581 29.234 4.00569 29.2128L2.15002 29.0066C2.10757 29.0006 2.07422 28.9642 2.07422 28.9217C2.07422 28.8793 2.10757 28.8429 2.15002 28.8368L4.00569 28.6306C4.20278 28.6094 4.36045 28.4487 4.37864 28.2516L4.59089 25.8835C4.59392 25.838 4.63334 25.8047 4.67579 25.8047C4.72127 25.8047 4.75766 25.838 4.76069 25.8835L4.97294 28.2516C4.99113 28.4487 5.1488 28.6094 5.34589 28.6306L7.20156 28.8368C7.24401 28.8429 7.27736 28.8793 7.27736 28.9217C7.27736 28.9642 7.24401 29.0006 7.20156 29.0066L5.34589 29.2128C5.1488 29.234 4.99113 29.3947 4.97294 29.5918L4.76069 31.9599C4.75766 32.0054 4.71824 32.0388 4.67579 32.0388ZM2.93838 28.9248L4.02388 29.046C4.30284 29.0764 4.52115 29.3007 4.54844 29.5797L4.67579 31.0018L4.80314 29.5797C4.8274 29.3007 5.04874 29.0764 5.3277 29.046L6.4132 28.9248L5.3277 28.8035C5.04874 28.7731 4.83043 28.5488 4.80314 28.2698L4.67579 26.8477L4.54844 28.2698C4.52418 28.5488 4.30284 28.7731 4.02388 28.8035L2.93838 28.9248Z" fill="#B0FF8B"/>
<g opacity="0.5">
<path opacity="0.5" d="M1.46755 35.605C1.43117 35.605 1.40085 35.5777 1.39781 35.5413L1.27956 34.2253C1.27046 34.1253 1.19163 34.0464 1.09157 34.0343L0.0606429 33.9191C0.0242573 33.9161 0 33.8857 0 33.8494C0 33.813 0.0272894 33.7827 0.0606429 33.7796L1.09157 33.6644C1.19163 33.6523 1.27046 33.5734 1.27956 33.4734L1.39781 32.1574C1.40085 32.121 1.43117 32.0938 1.46755 32.0938C1.50394 32.0938 1.53426 32.121 1.53729 32.1574L1.65555 33.4734C1.66464 33.5734 1.74348 33.6523 1.84354 33.6644L2.87446 33.7796C2.91085 33.7827 2.9351 33.813 2.9351 33.8494C2.9351 33.8857 2.90782 33.9161 2.87446 33.9191L1.84354 34.0343C1.74348 34.0464 1.66464 34.1253 1.65555 34.2253L1.53729 35.5413C1.53426 35.5777 1.50394 35.605 1.46755 35.605ZM0.703455 33.8494L1.10673 33.8948C1.27046 33.913 1.40388 34.0464 1.41904 34.2132L1.46755 34.759L1.51607 34.2132C1.53123 34.0464 1.66161 33.913 1.82838 33.8948L2.23165 33.8494L1.82838 33.8039C1.66464 33.7857 1.53123 33.6523 1.51607 33.4855L1.46755 32.9397L1.41904 33.4855C1.40388 33.6523 1.2735 33.7857 1.10673 33.8039L0.703455 33.8494Z" fill="#B0FF8B"/>
</g>
<path d="M69.6239 70.4811C69.5754 70.4811 69.536 70.4447 69.53 70.3962L69.2965 67.7977C69.2783 67.5794 69.1055 67.4035 68.8871 67.3792L66.8495 67.1549C66.801 67.1488 66.7646 67.1094 66.7646 67.0609C66.7646 67.0124 66.801 66.9729 66.8495 66.9669L68.8871 66.7425C69.1055 66.7182 69.2752 66.5424 69.2965 66.3271L69.53 63.7255C69.533 63.677 69.5754 63.6406 69.6239 63.6406C69.6725 63.6406 69.7119 63.677 69.7179 63.7255L69.9514 66.3271C69.9696 66.5454 70.1424 66.7213 70.3608 66.7425L72.3983 66.9669C72.4469 66.9729 72.4832 67.0124 72.4832 67.0609C72.4832 67.1094 72.4469 67.1488 72.3983 67.1549L70.3608 67.3792C70.1424 67.4035 69.9726 67.5794 69.9514 67.7977L69.7179 70.3962C69.7119 70.4447 69.6725 70.4811 69.6239 70.4811ZM67.7137 67.0609L68.9084 67.1913C69.2146 67.2246 69.4542 67.4732 69.4845 67.7795L69.6239 69.341L69.7634 67.7795C69.7907 67.4732 70.0333 67.2276 70.3395 67.1913L71.5342 67.0609L70.3395 66.9275C70.0333 66.8941 69.7937 66.6485 69.7634 66.3423L69.6239 64.7807L69.4845 66.3423C69.4572 66.6485 69.2146 66.8941 68.9084 66.9275L67.7137 67.0609Z" fill="#B0FF8B"/>
<g opacity="0.5">
<path opacity="0.5" d="M76.7001 66.0305C76.6607 66.0305 76.6273 66.0002 76.6243 65.9608L76.4939 64.5144C76.4848 64.4053 76.3969 64.3173 76.2877 64.3052L75.1537 64.1809C75.1143 64.1779 75.084 64.1445 75.084 64.1051C75.084 64.0657 75.1143 64.0323 75.1537 64.0293L76.2877 63.905C76.3969 63.8928 76.4848 63.8049 76.4939 63.6958L76.6243 62.2494C76.6273 62.21 76.6607 62.1797 76.7001 62.1797C76.7395 62.1797 76.7729 62.21 76.7759 62.2494L76.9063 63.6958C76.9154 63.8049 77.0033 63.8928 77.1125 63.905L78.2465 64.0293C78.2859 64.0323 78.3132 64.0657 78.3132 64.1051C78.3132 64.1445 78.2829 64.1779 78.2465 64.1809L77.1125 64.3052C77.0033 64.3173 76.9154 64.4053 76.9063 64.5144L76.7759 65.9608C76.7729 66.0002 76.7395 66.0305 76.7001 66.0305ZM75.8602 64.1021L76.3029 64.1506C76.4848 64.1718 76.6273 64.3173 76.6455 64.4993L76.7001 65.0966L76.7547 64.4993C76.7699 64.3173 76.9154 64.1718 77.0973 64.1506L77.54 64.1021L77.0973 64.0536C76.9154 64.0323 76.7729 63.8868 76.7547 63.7049L76.7001 63.1075L76.6455 63.7049C76.6304 63.8868 76.4848 64.0323 76.3029 64.0536L75.8602 64.1021Z" fill="#B0FF8B"/>
</g>
<g opacity="0.5">
<path opacity="0.5" d="M72.5045 60.0849C72.4408 60.0849 72.3862 60.0363 72.3832 59.9727L72.174 57.6501C72.1588 57.4742 72.0193 57.3317 71.8435 57.3135L70.0242 57.1134C69.9605 57.1073 69.915 57.0527 69.915 56.9921C69.915 56.9284 69.9636 56.8769 70.0242 56.8708L71.8435 56.6707C72.0193 56.6525 72.1588 56.51 72.174 56.3341L72.3832 54.0145C72.3893 53.9509 72.4408 53.9023 72.5045 53.9023C72.5682 53.9023 72.6227 53.9509 72.6258 54.0145L72.835 56.3371C72.8501 56.513 72.9896 56.6555 73.1655 56.6737L74.9848 56.8738C75.0484 56.8799 75.0939 56.9345 75.0939 56.9951C75.0939 57.0588 75.0454 57.1103 74.9848 57.1164L73.1655 57.3165C72.9896 57.3347 72.8501 57.4772 72.835 57.6531L72.6258 59.9727C72.6227 60.0363 72.5682 60.0849 72.5045 60.0849ZM71.1582 56.9921L71.8708 57.0709C72.1619 57.1043 72.3923 57.3378 72.4196 57.6288L72.5075 58.59L72.5924 57.6288C72.6197 57.3378 72.8501 57.1012 73.1412 57.0679L73.8538 56.9891L73.1412 56.9102C72.8501 56.8769 72.6197 56.6434 72.5924 56.3523L72.5075 55.3911L72.4196 56.3523C72.3923 56.6434 72.1619 56.8799 71.8708 56.9132L71.1582 56.9921Z" fill="#B0FF8B"/>
</g>
<path d="M72.6122 40.0052C72.5546 40.0052 72.5091 39.9628 72.5031 39.9052L72.2271 36.8579C72.2029 36.6032 72.0028 36.397 71.7481 36.3697L69.3587 36.1059C69.3042 36.0999 69.2617 36.0513 69.2617 35.9968C69.2617 35.9392 69.3042 35.8937 69.3587 35.8876L71.7481 35.6238C72.0028 35.5965 72.2029 35.3903 72.2271 35.1356L72.5031 32.0883C72.5091 32.0307 72.5546 31.9883 72.6122 31.9883C72.6698 31.9883 72.7153 32.0307 72.7214 32.0883L72.9973 35.1356C73.0216 35.3903 73.2217 35.5965 73.4764 35.6238L75.8657 35.8876C75.9203 35.8937 75.9627 35.9422 75.9627 35.9968C75.9627 36.0544 75.9203 36.0999 75.8657 36.1059L73.4764 36.3697C73.2217 36.397 73.0185 36.6032 72.9973 36.8579L72.7214 39.9052C72.7153 39.9598 72.6698 40.0052 72.6122 40.0052ZM70.3745 35.9937L71.7723 36.1484C72.1301 36.1878 72.4121 36.4758 72.4455 36.8367L72.6092 38.6681L72.7729 36.8367C72.8063 36.4789 73.0883 36.1878 73.4461 36.1484L74.8439 35.9937L73.4461 35.8391C73.0883 35.7997 72.8032 35.5116 72.7729 35.1508L72.6092 33.3194L72.4455 35.1508C72.4121 35.5086 72.1301 35.7997 71.7723 35.8391L70.3745 35.9937Z" fill="#B0FF8B"/>
<g opacity="0.5">
<path opacity="0.5" d="M68.2718 32.3508C68.2263 32.3508 68.1869 32.3144 68.1809 32.2689L68.0293 30.574C68.0171 30.4466 67.9171 30.3435 67.7897 30.3284L66.4616 30.1828C66.4162 30.1767 66.3828 30.1404 66.3828 30.0918C66.3828 30.0464 66.4162 30.0069 66.4616 30.0039L67.7897 29.8584C67.9171 29.8432 68.0202 29.7401 68.0293 29.6128L68.1809 27.9178C68.1839 27.8723 68.2233 27.8359 68.2718 27.8359C68.3173 27.8359 68.3567 27.8723 68.3628 27.9178L68.5144 29.6128C68.5265 29.7401 68.6266 29.8432 68.757 29.8584L70.085 30.0039C70.1305 30.01 70.1639 30.0464 70.1639 30.0918C70.1639 30.1373 70.1305 30.1767 70.085 30.1828L68.757 30.3284C68.6296 30.3435 68.5265 30.4466 68.5144 30.574L68.3628 32.2689C68.3567 32.3144 68.3173 32.3508 68.2718 32.3508ZM67.2864 30.0918L67.8079 30.1495C68.0202 30.1737 68.19 30.3435 68.2082 30.5588L68.2718 31.2592L68.3355 30.5588C68.3537 30.3465 68.5235 30.1737 68.7357 30.1495L69.2573 30.0918L68.7357 30.0342C68.5235 30.01 68.3537 29.8402 68.3355 29.6249L68.2718 28.9245L68.2082 29.6249C68.19 29.8371 68.0202 30.01 67.8079 30.0342L67.2864 30.0918Z" fill="#B0FF8B"/>
</g>
<path d="M14.2418 9.646C14.1872 9.646 14.1418 9.60355 14.1357 9.54897L13.8719 6.61084C13.8507 6.36523 13.6566 6.16815 13.411 6.14086L11.1096 5.88616C11.055 5.88009 11.0156 5.83461 11.0156 5.78003C11.0156 5.72545 11.055 5.67997 11.1096 5.67391L13.411 5.41921C13.6566 5.39192 13.8507 5.19483 13.8719 4.94923L14.1357 2.01109C14.1418 1.95651 14.1872 1.91406 14.2418 1.91406C14.2964 1.91406 14.3419 1.95651 14.3479 2.01109L14.6117 4.94923C14.633 5.19483 14.827 5.39192 15.0726 5.41921L17.374 5.67391C17.4286 5.67997 17.468 5.72545 17.468 5.78003C17.468 5.83461 17.4286 5.88009 17.374 5.88616L15.0726 6.14086C14.827 6.16815 14.633 6.36523 14.6117 6.61084L14.3479 9.54897C14.3449 9.60658 14.2964 9.646 14.2418 9.646ZM12.086 5.78307L13.4353 5.93164C13.7809 5.97106 14.0538 6.24698 14.0841 6.59568L14.2418 8.36038L14.3995 6.59568C14.4298 6.25001 14.7027 5.97106 15.0484 5.93164L16.3977 5.78307L15.0484 5.63449C14.7027 5.59507 14.4298 5.31915 14.3995 4.97045L14.2418 3.20575L14.0841 4.97045C14.0538 5.31612 13.7809 5.59507 13.4353 5.63449L12.086 5.78307Z" fill="#B0FF8B"/>
<g opacity="0.5">
<path opacity="0.5" d="M11.015 17.5066C10.9695 17.5066 10.9331 17.4732 10.9301 17.4278L10.7845 15.8147C10.7724 15.6934 10.6784 15.5933 10.5541 15.5812L9.28967 15.4417C9.24722 15.4356 9.21387 15.3993 9.21387 15.3568C9.21387 15.3144 9.24722 15.278 9.28967 15.2719L10.5541 15.1324C10.6754 15.1203 10.7724 15.0202 10.7845 14.899L10.9301 13.2859C10.9331 13.2404 10.9725 13.207 11.015 13.207C11.0604 13.207 11.0968 13.2404 11.0999 13.2859L11.2454 14.899C11.2575 15.0202 11.3515 15.1203 11.4758 15.1324L12.7402 15.2719C12.7827 15.278 12.816 15.3144 12.816 15.3568C12.816 15.3993 12.7827 15.4356 12.7402 15.4417L11.4758 15.5812C11.3546 15.5933 11.2575 15.6934 11.2454 15.8147L11.0999 17.4278C11.0938 17.4732 11.0574 17.5066 11.015 17.5066ZM10.078 15.3538L10.5723 15.4084C10.7754 15.4296 10.9361 15.5933 10.9543 15.7965L11.015 16.4666L11.0756 15.7965C11.0938 15.5933 11.2545 15.4296 11.4576 15.4084L11.9519 15.3538L11.4576 15.2992C11.2545 15.278 11.0938 15.1142 11.0756 14.9111L11.015 14.241L10.9543 14.9111C10.9361 15.1142 10.7754 15.278 10.5723 15.2992L10.078 15.3538Z" fill="#B0FF8B"/>
</g>
<g opacity="0.5">
<path opacity="0.5" d="M21.5309 10.9501C21.4733 10.9501 21.4247 10.9046 21.4187 10.847L21.2277 8.73362C21.2125 8.57292 21.0882 8.44557 20.9275 8.42737L19.2719 8.24545C19.2143 8.23938 19.1719 8.19087 19.1719 8.13326C19.1719 8.07565 19.2143 8.02713 19.2719 8.02107L20.9275 7.83914C21.0882 7.82095 21.2125 7.6936 21.2277 7.53289L21.4187 5.4195C21.4247 5.36189 21.4733 5.31641 21.5309 5.31641C21.5885 5.31641 21.637 5.36189 21.6431 5.4195L21.8341 7.53289C21.8492 7.6936 21.9736 7.82095 22.1343 7.83914L23.7898 8.02107C23.8474 8.02713 23.8899 8.07565 23.8899 8.13326C23.8899 8.19087 23.8474 8.23938 23.7898 8.24545L22.1343 8.42737C21.9736 8.44557 21.8492 8.57292 21.8341 8.73362L21.6431 10.847C21.637 10.9046 21.5885 10.9501 21.5309 10.9501ZM20.3059 8.13326L20.9548 8.20603C21.2186 8.23635 21.4308 8.4486 21.4551 8.71543L21.5339 9.59171L21.6127 8.71543C21.637 8.4486 21.8462 8.23635 22.11 8.20603L22.7589 8.13326L22.11 8.06049C21.8462 8.03016 21.634 7.81791 21.6127 7.55109L21.5339 6.6748L21.4551 7.55109C21.4308 7.81791 21.2216 8.03016 20.9548 8.06049L20.3059 8.13326Z" fill="#B0FF8B"/>
</g>
<g opacity="0.5">
<path opacity="0.5" d="M37.6871 4.49884C37.6477 4.49884 37.6143 4.46852 37.6113 4.4291L37.4809 2.98883C37.4718 2.87968 37.3839 2.79175 37.2747 2.77962L36.1468 2.6553C36.1074 2.65227 36.0801 2.61891 36.0801 2.5795C36.0801 2.54008 36.1104 2.50673 36.1468 2.50369L37.2747 2.37938C37.3839 2.36725 37.4688 2.27932 37.4809 2.17016L37.6113 0.729895C37.6143 0.690477 37.6477 0.660156 37.6871 0.660156C37.7265 0.660156 37.7599 0.690477 37.7629 0.729895L37.8933 2.17016C37.9024 2.27932 37.9903 2.36725 38.0995 2.37938L39.2274 2.50369C39.2669 2.50673 39.2941 2.54008 39.2941 2.5795C39.2941 2.61891 39.2638 2.65227 39.2274 2.6553L38.0995 2.77962C37.9903 2.79175 37.9054 2.87968 37.8933 2.98883L37.7629 4.4291C37.7599 4.46852 37.7265 4.49884 37.6871 4.49884ZM36.8533 2.5795L37.296 2.62801C37.4779 2.64924 37.6204 2.79478 37.6356 2.97367L37.6901 3.571L37.7447 2.97367C37.7599 2.79175 37.9054 2.6462 38.0843 2.62498L38.527 2.57646L38.0843 2.52795C37.9024 2.50673 37.7599 2.36118 37.7447 2.18229L37.6901 1.58496L37.6356 2.18229C37.6204 2.36422 37.4749 2.50976 37.296 2.53098L36.8533 2.5795Z" fill="#B0FF8B"/>
</g>
<g opacity="0.5">
<path opacity="0.5" d="M43.1314 8.08527C43.0707 8.08527 43.0222 8.03979 43.0161 7.98218L42.8221 5.82027C42.8069 5.65653 42.6765 5.52312 42.5158 5.50796L40.8209 5.31997C40.7633 5.3139 40.7178 5.26539 40.7178 5.20475C40.7178 5.1441 40.7602 5.09862 40.8209 5.08952L42.5158 4.90153C42.6796 4.88334 42.8099 4.75296 42.8221 4.58922L43.0161 2.42731C43.0222 2.36667 43.0707 2.32422 43.1314 2.32422C43.192 2.32422 43.2405 2.3697 43.2466 2.42731L43.4406 4.58922C43.4558 4.75296 43.5862 4.88637 43.7469 4.90153L45.4418 5.08952C45.4995 5.09559 45.5449 5.1441 45.5449 5.20475C45.5449 5.26539 45.5025 5.31087 45.4418 5.31997L43.7469 5.50796C43.5831 5.52615 43.4528 5.65653 43.4406 5.82027L43.2466 7.98218C43.2405 8.04282 43.189 8.08527 43.1314 8.08527ZM41.8761 5.20475L42.5401 5.27752C42.8099 5.30784 43.0252 5.52615 43.0495 5.79904L43.1314 6.69352L43.2132 5.79904C43.2375 5.52615 43.4528 5.30784 43.7226 5.27752L44.3867 5.20475L43.7226 5.13197C43.4528 5.10165 43.2375 4.88334 43.2132 4.61045L43.1314 3.71597L43.0495 4.61045C43.0252 4.88334 42.8099 5.10165 42.5401 5.13197L41.8761 5.20475Z" fill="#B0FF8B"/>
</g>
<path d="M54.5658 21.476C54.5234 21.476 54.49 21.4427 54.4839 21.4033L54.2808 19.1595C54.2626 18.9715 54.1171 18.8199 53.9291 18.7987L52.1704 18.6046C52.131 18.6016 52.0977 18.5652 52.0977 18.5227C52.0977 18.4803 52.128 18.4469 52.1704 18.4409L53.9291 18.2468C54.1171 18.2256 54.2656 18.074 54.2808 17.886L54.4839 15.6392C54.487 15.5967 54.5234 15.5664 54.5658 15.5664C54.6083 15.5664 54.6416 15.5998 54.6477 15.6392L54.8508 17.886C54.869 18.074 55.0176 18.2256 55.2026 18.2468L56.9612 18.4409C57.0036 18.4439 57.034 18.4803 57.034 18.5227C57.034 18.5652 57.0036 18.5985 56.9612 18.6046L55.2026 18.7987C55.0146 18.8199 54.866 18.9715 54.8508 19.1595L54.6477 21.4033C54.6416 21.4427 54.6083 21.476 54.5658 21.476ZM52.9163 18.5197L53.9473 18.6349C54.211 18.6652 54.4203 18.8775 54.4445 19.1413L54.5658 20.4906L54.6871 19.1413C54.7113 18.8775 54.9206 18.6652 55.1844 18.6349L56.2153 18.5197L55.1844 18.4045C54.9206 18.3742 54.7113 18.1619 54.6871 17.8981L54.5658 16.5488L54.4445 17.8981C54.4203 18.1619 54.211 18.3742 53.9473 18.4045L52.9163 18.5197Z" fill="#B0FF8B"/>
<g opacity="0.5">
<path opacity="0.5" d="M60.1103 18.0598C60.0557 18.0598 60.0072 18.0173 60.0011 17.9628L59.7313 14.97C59.71 14.7184 59.5099 14.5183 59.2613 14.491L56.9144 14.2332C56.8598 14.2272 56.8174 14.1817 56.8174 14.1271C56.8174 14.0725 56.8598 14.0271 56.9144 14.021L59.2613 13.7602C59.5099 13.7329 59.71 13.5298 59.7313 13.2811L60.0011 10.2884C60.0072 10.2339 60.0527 10.1914 60.1103 10.1914C60.1649 10.1914 60.2134 10.2339 60.2164 10.2884L60.4863 13.2811C60.5075 13.5328 60.7076 13.7329 60.9562 13.7602L63.3031 14.021C63.3577 14.0271 63.4001 14.0725 63.4001 14.1271C63.4001 14.1817 63.3577 14.2272 63.3031 14.2332L60.9562 14.491C60.7076 14.5183 60.5075 14.7214 60.4863 14.97L60.2194 17.9628C60.2134 18.0173 60.1679 18.0598 60.1103 18.0598ZM57.912 14.1211L59.2855 14.2727C59.6373 14.3121 59.9162 14.5971 59.9465 14.9488L60.1103 16.7469L60.271 14.9488C60.3043 14.5971 60.5803 14.3121 60.932 14.2727L62.3055 14.1211L60.932 13.9694C60.5803 13.93 60.3013 13.648 60.271 13.2933L60.1103 11.4952L59.9465 13.2933C59.9162 13.645 59.6373 13.93 59.2855 13.9694L57.912 14.1211Z" fill="#B0FF8B"/>
</g>
<g clip-path="url(#clip0_6131_27875)">
<path d="M20.0645 23.5245C20.0645 30.4158 25.6664 36.0178 32.5577 36.0178C39.449 36.0178 45.051 30.4158 45.051 23.5245C45.051 16.6332 39.449 11.0312 32.5577 11.0312C25.6664 11.0312 20.0645 16.6332 20.0645 23.5245ZM42.2945 23.5245C42.2945 28.8331 37.9908 33.1279 32.6911 33.1279C27.3826 33.1279 23.0877 28.8242 23.0877 23.5245C23.0877 18.216 27.3826 13.9212 32.6911 13.9212C37.9908 13.9212 42.2945 18.216 42.2945 23.5245Z" fill="#000000"/>
<path d="M32.3539 30.853H33.4565C33.7855 30.853 34.0523 30.5862 34.0523 30.2572V29.2346C34.9326 29.1012 35.6973 28.8256 36.3553 28.3988C37.3779 27.723 37.9025 26.7893 37.9292 25.5978C37.947 24.8508 37.7425 24.2195 37.3068 23.7038C36.6132 22.8768 35.5284 22.3522 34.0523 22.1477V20.0758C34.3101 20.2003 34.5591 20.3604 34.7992 20.5649C34.9504 20.6894 35.1193 20.7516 35.3149 20.7516C35.475 20.7516 35.6884 20.6449 35.6884 20.6449L36.9244 19.8713C37.0933 19.7646 37.1823 19.6312 37.1823 19.4623C37.1823 19.3289 37.1289 19.2133 37.0222 19.1155C36.2575 18.2441 35.2616 17.7017 34.0523 17.4883V16.3234C34.0523 15.9944 33.7855 15.7188 33.4565 15.7188H32.3539C32.0249 15.7188 31.7581 15.9855 31.7581 16.3234V17.4616C31.189 17.5416 30.6733 17.6839 30.2198 17.8973C28.7437 18.5731 28.0146 19.5779 28.0413 20.9206C28.0502 21.5786 28.2547 22.1655 28.6282 22.6634C29.2684 23.5259 30.3176 24.0684 31.7581 24.2907V26.8782C31.1357 26.6559 30.5488 26.2469 29.9886 25.6511C29.8641 25.4911 29.7041 25.411 29.4996 25.411C29.3929 25.411 29.1706 25.5089 29.1706 25.5089L28.0502 26.1669C27.8545 26.2736 27.7656 26.4247 27.7656 26.6026C27.7656 26.7182 27.8101 26.8249 27.899 26.9227C28.1924 27.3317 28.5837 27.723 29.0728 28.0964C29.8641 28.71 30.7622 29.0834 31.7581 29.2435V30.2661C31.7492 30.5862 32.0249 30.853 32.3539 30.853ZM34.0523 24.5574C34.648 24.7441 34.9504 25.0909 34.9415 25.5978C34.9326 26.0691 34.7192 26.4336 34.2924 26.7004C34.2123 26.7448 34.1323 26.7893 34.0523 26.8249V24.5574ZM31.029 20.9206C31.029 20.5471 31.2424 20.2626 31.6692 20.0581L31.7492 20.0225V21.8542C31.2691 21.6764 31.029 21.3652 31.029 20.9206Z" fill="white"/>
<path d="M31.0283 20.9176C31.0283 21.3622 31.2773 21.6734 31.7575 21.8513V20.0195L31.6774 20.0551C31.2328 20.2596 31.0283 20.5442 31.0283 20.9176Z" fill="#000000"/>
<path d="M34.0518 26.8339C34.1318 26.7983 34.2207 26.7538 34.2918 26.7094C34.7187 26.4515 34.9321 26.0869 34.941 25.6068C34.941 25.0999 34.6475 24.7531 34.0518 24.5664V26.8339Z" fill="#000000"/>
<path d="M23.0879 23.5252C23.0879 28.8338 27.3827 33.1286 32.6913 33.1286C37.9998 33.1286 42.2946 28.8249 42.2946 23.5252C42.2946 18.2167 37.9909 13.9219 32.6913 13.9219C27.3827 13.9219 23.0879 18.2167 23.0879 23.5252ZM34.0517 16.3227V17.4876C35.2611 17.701 36.257 18.2434 37.0217 19.1148C37.1284 19.2126 37.1817 19.3282 37.1817 19.4616C37.1817 19.6305 37.0928 19.7639 36.9239 19.8706L35.6879 20.6442C35.6879 20.6442 35.4656 20.7509 35.3144 20.7509C35.1188 20.7509 34.9498 20.6887 34.7987 20.5642C34.5586 20.3597 34.3096 20.1907 34.0517 20.0751V22.147C35.5278 22.3515 36.6126 22.8761 37.3062 23.7031C37.733 24.2188 37.9375 24.8502 37.9287 25.5971C37.902 26.7886 37.3774 27.7223 36.3548 28.3981C35.7057 28.8249 34.932 29.1005 34.0517 29.2339V30.2565C34.0517 30.5855 33.785 30.8523 33.456 30.8523H32.3534C32.0244 30.8523 31.7576 30.5855 31.7576 30.2565V29.2339C30.7617 29.0739 29.8725 28.6915 29.0722 28.0869C28.5832 27.7134 28.1919 27.3221 27.8985 26.9131C27.8095 26.8153 27.774 26.7086 27.7651 26.593C27.7651 26.4152 27.854 26.264 28.0496 26.1573L29.17 25.4993C29.17 25.4993 29.3834 25.4015 29.499 25.4015C29.7035 25.4015 29.8636 25.4815 29.9881 25.6415C30.5394 26.2462 31.1352 26.6552 31.7576 26.8686V24.2811C30.3171 24.0588 29.2767 23.5164 28.6276 22.6538C28.2453 22.147 28.0496 21.5601 28.0407 20.911C28.0141 19.5772 28.7432 18.5635 30.2193 17.8877C30.6817 17.6743 31.1885 17.532 31.7576 17.452V16.3227C31.7576 15.9937 32.0244 15.7181 32.3534 15.7181H33.456C33.785 15.727 34.0517 15.9937 34.0517 16.3227Z" fill="#000000"/>
<path d="M68.046 44.6516L68.0638 44.5983C63.8134 44.5983 61.217 42.0107 58.087 39.8232C55.8195 38.2405 53.2675 36.8711 49.604 36.8711C47.959 36.8711 46.5629 36.8889 45.3714 36.9244H36.7284C35.4657 36.9244 34.4431 37.947 34.4431 39.2097C34.4431 40.4724 35.4657 41.4949 36.7284 41.4949H41.6279H44.8468C46.4829 41.7617 47.7367 43.1755 47.7367 44.8917C47.7367 46.1899 47.0164 47.3103 45.9494 47.8883C45.6915 47.9594 44.4555 48.2884 42.7927 48.7241C41.7257 48.982 40.712 49.2488 39.7606 49.5244L39.556 49.5778C35.9903 50.5203 32.1579 51.534 31.4643 51.6941C31.0019 51.7208 30.584 51.703 30.2105 51.6052L17.4327 43.3356L15.1208 41.6639C15.0141 41.5928 14.8896 41.5305 14.774 41.4683C14.605 41.3793 14.4272 41.2993 14.2405 41.246C14.0982 41.2015 13.947 41.1659 13.787 41.1482C13.6269 41.1215 13.458 41.1037 13.289 41.1037C13.0578 41.1037 12.8355 41.1304 12.6221 41.1748C10.737 41.3349 9.24316 42.8999 9.24316 44.8294C9.24316 45.852 9.66998 46.7679 10.3369 47.4259L10.3547 47.4348C10.6214 47.6927 10.9238 47.9239 11.2617 48.0928L12.142 48.733L32.1757 63.2537C32.2557 63.2804 32.3446 63.3159 32.4246 63.3515C32.8781 63.5116 33.3494 63.6094 33.8563 63.6094C34.1497 63.6094 34.4342 63.5738 34.7188 63.5205L34.8166 63.4938C41.6012 61.7687 55.6239 58.203 62.1862 56.5847C62.3463 56.5224 62.4974 56.4691 62.6575 56.4068C64.3292 55.9889 66.6144 55.491 68.046 55.491V54.5306H68.0638L68.046 53.2146V44.9273V44.6516V44.6516Z" fill="#000000"/>
</g>
<defs>
<clipPath id="clip0_6131_27875">
<rect width="58.8207" height="52.5874" fill="white" transform="translate(9.24316 11.0312)"/>
</clipPath>
</defs>
</svg>
