<svg width="170" height="130" viewBox="0 0 170 130" fill="none" xmlns="http://www.w3.org/2000/svg">
<path d="M169.723 22.6445H6.36426V47.3808H169.723V22.6445Z" fill="white"/>
<path d="M170 47.7155H6.08789V22.4258H170V47.7155ZM6.64128 47.1621H169.447V22.9792H6.64128V47.1621Z" fill="#DBDBDB"/>
<path d="M20.8066 29.3906C21.1387 30.3314 21.3047 31.2721 21.4707 32.2129C21.5814 33.1536 21.6367 34.0944 21.6367 35.0351C21.6367 35.9759 21.5814 36.9167 21.4707 37.8574C21.36 38.7982 21.1387 39.7389 20.8066 40.6797C20.4746 39.7389 20.3086 38.7982 20.1426 37.8574C20.0319 36.9167 19.9766 35.9759 19.9766 35.0351C19.9766 34.0944 20.0319 33.1536 20.1426 32.2129C20.2533 31.2721 20.4746 30.3314 20.8066 29.3906Z" fill="#E4AD50"/>
<path d="M26.4512 35.0332C25.5104 35.3652 24.5697 35.5312 23.6289 35.6973C22.6881 35.8079 21.7474 35.8633 20.8066 35.8633C19.8659 35.8633 18.9251 35.8079 17.9844 35.6973C17.0436 35.5866 16.1029 35.3652 15.1621 35.0332C16.1029 34.7012 17.0436 34.5352 17.9844 34.3691C18.9251 34.2585 19.8659 34.2031 20.8066 34.2031C21.7474 34.2031 22.6881 34.2585 23.6289 34.3691C24.5697 34.5352 25.5104 34.7012 26.4512 35.0332Z" fill="#E4AD50"/>
<path d="M24.7917 31.0508C24.349 31.9362 23.8509 32.7663 23.2422 33.541C22.6335 34.3158 22.0247 34.9798 21.3607 35.6992C20.6966 36.3633 19.9772 36.972 19.2578 37.5807C18.4831 38.1341 17.7083 38.6875 16.7676 39.1302C17.2103 38.2448 17.7083 37.4147 18.3171 36.64C18.9258 35.8652 19.5345 35.2012 20.1986 34.5371C20.8626 33.873 21.582 33.2643 22.3568 32.6556C23.0762 31.9915 23.9062 31.4382 24.7917 31.0508Z" fill="#E4AD50"/>
<path d="M24.7904 39.0202C23.9049 38.5775 23.0749 38.0794 22.3001 37.4707C21.5254 36.862 20.8613 36.2532 20.1419 35.5892C19.4779 34.9251 18.8691 34.2057 18.2604 33.4863C17.707 32.7116 17.1536 31.9368 16.7109 30.9961C17.5964 31.4388 18.4264 31.9368 19.2012 32.5456C19.9759 33.1543 20.64 33.763 21.304 34.4271C21.9681 35.0911 22.5768 35.8105 23.1855 36.5853C23.8496 37.36 24.403 38.1348 24.7904 39.0202Z" fill="#E4AD50"/>
<path d="M42.8877 29.3906C43.2197 30.3314 43.3857 31.2721 43.5518 32.2129C43.6624 33.1536 43.7178 34.0944 43.7178 35.0351C43.7178 35.9759 43.6624 36.9167 43.5518 37.8574C43.4411 38.7982 43.2197 39.7389 42.8877 40.6797C42.5557 39.7389 42.3897 38.7982 42.2236 37.8574C42.113 36.9167 42.0576 35.9759 42.0576 35.0351C42.0576 34.0944 42.113 33.1536 42.2236 32.2129C42.3897 31.2721 42.5557 30.3314 42.8877 29.3906Z" fill="#E4AD50"/>
<path d="M48.5869 35.0332C47.6462 35.3652 46.7054 35.5312 45.7646 35.6973C44.8239 35.8079 43.8831 35.8633 42.9424 35.8633C42.0016 35.8633 41.0609 35.8079 40.1201 35.6973C39.1794 35.5866 38.2386 35.3652 37.2979 35.0332C38.2386 34.7012 39.1794 34.5352 40.1201 34.3691C41.0609 34.2585 42.0016 34.2031 42.9424 34.2031C43.8831 34.2031 44.8239 34.2585 45.7646 34.3691C46.6501 34.5352 47.6462 34.7012 48.5869 35.0332Z" fill="#E4AD50"/>
<path d="M46.9274 31.0508C46.4847 31.9362 45.9866 32.7663 45.3779 33.541C44.7692 34.3158 44.1605 34.9798 43.4964 35.6992C42.8323 36.3633 42.113 36.972 41.3936 37.5807C40.6188 38.1341 39.8441 38.6875 38.9033 39.1302C39.346 38.2448 39.8441 37.4147 40.4528 36.64C41.0615 35.8652 41.6702 35.2012 42.3343 34.5371C42.9984 33.873 43.7178 33.2643 44.4925 32.6556C45.2119 31.9915 45.9866 31.4382 46.9274 31.0508Z" fill="#E4AD50"/>
<path d="M46.9261 39.0202C46.0407 38.5775 45.2106 38.0794 44.4359 37.4707C43.6611 36.862 42.9971 36.2532 42.2777 35.5892C41.6136 34.9251 41.0049 34.2057 40.3962 33.4863C39.8428 32.7116 39.2894 31.9368 38.8467 30.9961C39.7321 31.4388 40.5622 31.9368 41.3369 32.5456C42.1116 33.1543 42.7757 33.763 43.4398 34.4271C44.1038 35.0911 44.7125 35.8105 45.3213 36.5853C45.93 37.36 46.4834 38.1348 46.9261 39.0202Z" fill="#E4AD50"/>
<path d="M65.0225 29.3906C65.3545 30.3314 65.5205 31.2721 65.6865 32.2129C65.7972 33.1536 65.8525 34.0944 65.8525 35.0351C65.8525 35.9759 65.7972 36.9167 65.6865 37.8574C65.5759 38.7982 65.3545 39.7389 65.0225 40.6797C64.6904 39.7389 64.5244 38.7982 64.3584 37.8574C64.2477 36.9167 64.1924 35.9759 64.1924 35.0351C64.1924 34.0944 64.2477 33.1536 64.3584 32.2129C64.4691 31.2721 64.6351 30.3314 65.0225 29.3906Z" fill="#E4AD50"/>
<path d="M70.667 35.0332C69.7262 35.3652 68.7855 35.5312 67.8447 35.6973C66.904 35.8079 65.9632 35.8633 65.0224 35.8633C64.0817 35.8633 63.1409 35.8079 62.2002 35.6973C61.2594 35.5866 60.3187 35.3652 59.3779 35.0332C60.3187 34.7012 61.2594 34.5352 62.2002 34.3691C63.1409 34.2585 64.0817 34.2031 65.0224 34.2031C65.9632 34.2031 66.904 34.2585 67.8447 34.3691C68.7855 34.5352 69.7262 34.7012 70.667 35.0332Z" fill="#E4AD50"/>
<path d="M69.0075 31.0508C68.5648 31.9362 68.0667 32.7663 67.458 33.541C66.8493 34.3158 66.2405 34.9798 65.5765 35.6992C64.9124 36.3633 64.193 36.972 63.4736 37.5807C62.6989 38.1341 61.9242 38.6875 60.9834 39.1302C61.4261 38.2448 61.9241 37.4147 62.5329 36.64C63.1416 35.8652 63.7503 35.2012 64.4144 34.5371C65.0784 33.873 65.7978 33.2643 66.5726 32.6556C67.292 31.9915 68.1221 31.4382 69.0075 31.0508Z" fill="#E4AD50"/>
<path d="M69.0062 39.0202C68.1208 38.5775 67.2907 38.0794 66.5159 37.4707C65.7412 36.862 65.0771 36.2532 64.3577 35.5892C63.6937 34.9251 63.085 34.2057 62.4762 33.4863C61.9228 32.7116 61.3695 31.9368 60.9268 30.9961C61.8122 31.4388 62.6423 31.9368 63.417 32.5456C64.1917 33.1543 64.8558 33.763 65.5198 34.4271C66.1839 35.0911 66.7926 35.8105 67.4014 36.5853C68.0654 37.36 68.5635 38.1348 69.0062 39.0202Z" fill="#E4AD50"/>
<path d="M87.1025 29.3906C87.4346 30.3314 87.6006 31.2721 87.7666 32.2129C87.8773 33.1536 87.9326 34.0944 87.9326 35.0351C87.9326 35.9759 87.8773 36.9167 87.7666 37.8574C87.6559 38.7982 87.4346 39.7389 87.1025 40.6797C86.7705 39.7389 86.6045 38.7982 86.4385 37.8574C86.3278 36.9167 86.2725 35.9759 86.2725 35.0351C86.2725 34.0944 86.3278 33.1536 86.4385 32.2129C86.5492 31.2721 86.7705 30.3314 87.1025 29.3906Z" fill="#E4AD50"/>
<path d="M92.7471 35.0332C91.8063 35.3652 90.8655 35.5312 89.9248 35.6973C88.984 35.8079 88.0433 35.8633 87.1025 35.8633C86.1618 35.8633 85.221 35.8079 84.2803 35.6973C83.3395 35.5866 82.3988 35.3652 81.458 35.0332C82.3988 34.7012 83.3395 34.5352 84.2803 34.3691C85.221 34.2585 86.1618 34.2031 87.1025 34.2031C88.0433 34.2031 88.984 34.2585 89.9248 34.3691C90.8655 34.5352 91.8063 34.7012 92.7471 35.0332Z" fill="#E4AD50"/>
<path d="M91.0876 31.0508C90.6448 31.9362 90.1468 32.7663 89.5381 33.541C88.9294 34.3158 88.3206 34.9798 87.6566 35.6992C86.9925 36.3633 86.2731 36.972 85.5537 37.5807C84.779 38.1341 84.0042 38.6875 83.0635 39.1302C83.5062 38.2448 84.0042 37.4147 84.6129 36.64C85.2217 35.8652 85.8304 35.2012 86.4945 34.5371C87.1585 33.873 87.8779 33.2643 88.6527 32.6556C89.4274 31.9915 90.2021 31.4382 91.0876 31.0508Z" fill="#E4AD50"/>
<path d="M91.0863 39.0202C90.2008 38.5775 89.3708 38.0794 88.596 37.4707C87.8213 36.862 87.1572 36.2532 86.4378 35.5892C85.7738 34.9251 85.165 34.2057 84.5563 33.4863C84.0029 32.7116 83.4495 31.9368 83.0068 30.9961C83.8923 31.4388 84.7223 31.9368 85.4971 32.5456C86.2718 33.1543 86.9359 33.763 87.5999 34.4271C88.264 35.0911 88.8727 35.8105 89.4814 36.5853C90.1455 37.36 90.6989 38.1348 91.0863 39.0202Z" fill="#E4AD50"/>
<path d="M109.183 29.3906C109.515 30.3314 109.681 31.2721 109.847 32.2129C109.957 33.1536 110.013 34.0944 110.013 35.0351C110.013 35.9759 109.957 36.9167 109.847 37.8574C109.736 38.7982 109.515 39.7389 109.183 40.6797C108.851 39.7389 108.685 38.7982 108.519 37.8574C108.408 36.9167 108.353 35.9759 108.353 35.0351C108.353 34.0944 108.408 33.1536 108.519 32.2129C108.685 31.2721 108.851 30.3314 109.183 29.3906Z" fill="#E4AD50"/>
<path d="M114.882 35.0332C113.941 35.3652 113 35.5312 112.06 35.6973C111.119 35.8079 110.178 35.8633 109.237 35.8633C108.297 35.8633 107.356 35.8079 106.415 35.6973C105.474 35.5866 104.534 35.3652 103.593 35.0332C104.534 34.7012 105.474 34.5352 106.415 34.3691C107.356 34.2585 108.297 34.2031 109.237 34.2031C110.178 34.2031 111.119 34.2585 112.06 34.3691C113 34.5352 113.941 34.7012 114.882 35.0332Z" fill="#E4AD50"/>
<path d="M113.222 31.0508C112.78 31.9362 112.282 32.7663 111.673 33.541C111.064 34.3158 110.455 34.9798 109.791 35.6992C109.127 36.3633 108.408 36.972 107.688 37.5807C106.914 38.1341 106.139 38.6875 105.198 39.1302C105.641 38.2448 106.139 37.4147 106.748 36.64C107.356 35.8652 107.965 35.2012 108.629 34.5371C109.293 33.873 110.013 33.2643 110.787 32.6556C111.507 31.9915 112.282 31.4382 113.222 31.0508Z" fill="#E4AD50"/>
<path d="M113.221 39.0202C112.336 38.5775 111.506 38.0794 110.731 37.4707C109.956 36.862 109.292 36.2532 108.573 35.5892C107.909 34.9251 107.3 34.2057 106.691 33.4863C106.138 32.7116 105.584 31.9368 105.142 30.9961C106.027 31.4388 106.857 31.9368 107.632 32.5456C108.407 33.1543 109.071 33.763 109.735 34.4271C110.399 35.0911 111.007 35.8105 111.616 36.5853C112.225 37.36 112.778 38.1348 113.221 39.0202Z" fill="#E4AD50"/>
<path d="M131.318 29.3906C131.65 30.3314 131.816 31.2721 131.982 32.2129C132.093 33.1536 132.148 34.0944 132.148 35.0351C132.148 35.9759 132.093 36.9167 131.982 37.8574C131.872 38.7982 131.65 39.7389 131.318 40.6797C130.986 39.7389 130.82 38.7982 130.654 37.8574C130.544 36.9167 130.488 35.9759 130.488 35.0351C130.488 34.0944 130.544 33.1536 130.654 32.2129C130.765 31.2721 130.931 30.3314 131.318 29.3906Z" fill="#E4AD50"/>
<path d="M136.963 35.0332C136.022 35.3652 135.081 35.5312 134.141 35.6973C133.2 35.8079 132.259 35.8633 131.318 35.8633C130.378 35.8633 129.437 35.8079 128.496 35.6973C127.555 35.5866 126.615 35.3652 125.674 35.0332C126.615 34.7012 127.555 34.5352 128.496 34.3691C129.437 34.2585 130.378 34.2031 131.318 34.2031C132.259 34.2031 133.2 34.2585 134.141 34.3691C135.081 34.5352 136.022 34.7012 136.963 35.0332Z" fill="#E4AD50"/>
<path d="M135.303 31.0508C134.861 31.9362 134.363 32.7663 133.754 33.541C133.145 34.3158 132.536 34.9798 131.872 35.6992C131.208 36.3633 130.489 36.972 129.77 37.5807C128.995 38.1341 128.22 38.6875 127.279 39.1302C127.722 38.2448 128.22 37.4147 128.829 36.64C129.438 35.8652 130.046 35.2012 130.71 34.5371C131.374 33.873 132.094 33.2643 132.868 32.6556C133.588 31.9915 134.418 31.4382 135.303 31.0508Z" fill="#E4AD50"/>
<path d="M135.302 39.0202C134.417 38.5775 133.587 38.0794 132.812 37.4707C132.037 36.862 131.373 36.2532 130.654 35.5892C129.99 34.9251 129.381 34.2057 128.772 33.4863C128.219 32.7116 127.665 31.9368 127.223 30.9961C128.108 31.4388 128.938 31.9368 129.713 32.5456C130.488 33.1543 131.152 33.763 131.816 34.4271C132.48 35.0911 133.089 35.8105 133.697 36.5853C134.361 37.36 134.859 38.1348 135.302 39.0202Z" fill="#E4AD50"/>
<path d="M115.989 30.0592V60.2187H107.466V30.0592C107.466 18.6041 98.7783 9.30728 88.0426 9.30728C77.3069 9.30728 68.6188 18.6041 68.6188 30.0592V60.2187H60.0967V30.0592C60.0967 13.6237 72.6032 0.287109 88.0426 0.287109C103.482 0.287109 115.989 13.6237 115.989 30.0592Z" fill="#455A64"/>
<path d="M60.0967 37.8613L68.6188 38.1934V60.1627H60.0967V37.8613Z" fill="#000000"/>
<path d="M115.988 40.1309V60.1634H107.466V39.7988L115.988 40.1309Z" fill="#000000"/>
<path d="M126.891 43.0078H49.1953V113.509H126.891V43.0078Z" fill="#97E373"/>
<path opacity="0.1" d="M126.891 43.0078H88.043V113.509H126.891V43.0078Z" fill="#121243"/>
<path d="M91.3073 80.8607L94.5722 96.3001H80.793L84.0579 80.8607C82.1211 79.6432 80.793 77.485 80.793 75.0501C80.793 71.1764 83.8919 68.1328 87.7103 68.1328C91.5286 68.1328 94.6276 71.1764 94.6276 75.0501C94.5722 77.485 93.2441 79.5879 91.3073 80.8607Z" fill="#000000"/>
<path d="M64.912 68.4698C64.912 68.4698 60.1923 106.486 52.3692 115.02C42.9945 125.3 36.2059 123.748 32.456 129.05C28.7061 123.748 21.8528 125.235 12.5427 115.02C4.71969 106.486 0 68.4698 0 68.4698C20.5598 58.5132 32.456 47.3281 32.456 47.3281C32.8439 47.6514 44.6755 58.6425 64.912 68.4698Z" fill="#EBEBEB"/>
<path d="M32.456 47.3281V129.05C28.7061 123.748 21.8528 125.235 12.5427 115.02C4.71969 106.486 0 68.4698 0 68.4698C20.4951 58.5132 32.456 47.3281 32.456 47.3281Z" fill="#DBDBDB"/>
<path d="M59.8694 71.5045C59.8694 71.5045 55.8609 103.573 49.2663 110.814C41.3786 119.477 35.6244 118.184 32.3917 122.71C29.2237 118.249 23.4696 119.542 15.5172 110.814C8.92257 103.573 4.91406 71.5045 4.91406 71.5045C22.2412 63.0996 32.3271 53.6602 32.3271 53.6602C32.3271 53.6602 42.5423 63.0996 59.8694 71.5045Z" fill="#DBDBDB"/>
<path d="M4.97852 71.5045C4.97852 71.5045 8.98702 103.573 15.5817 110.814C23.4694 119.477 29.2235 118.184 32.4562 122.645V53.6602C32.1329 53.9834 22.1117 63.2289 4.97852 71.5045Z" fill="#C7C7C7"/>
<path d="M41.451 97.1819C46.425 92.208 46.425 84.1436 41.451 79.1696C36.4771 74.1957 28.4127 74.1957 23.4387 79.1696C18.4648 84.1436 18.4648 92.208 23.4387 97.1819C28.4127 102.156 36.4771 102.156 41.451 97.1819Z" fill="#97E373"/>
<path d="M30.9696 96.4605L25.3447 90.5771L27.4136 88.5728L30.5817 91.8055L37.3056 81.4609L39.7624 83.0773L30.9696 96.4605Z" fill="white"/>
</svg>
