<svg xmlns="http://www.w3.org/2000/svg" version="1.1" xmlns:xlink="http://www.w3.org/1999/xlink" xmlns:svgjs="http://svgjs.dev/svgjs" width="1000" height="590" viewBox="0 0 1000 590"><g transform="matrix(1,0,0,1,-0.6055095853772627,-0.2018851572265703)"><svg viewBox="0 0 396 234" data-background-color="#ffffff" preserveAspectRatio="xMidYMid meet" height="590" width="1000" xmlns="http://www.w3.org/2000/svg" xmlns:xlink="http://www.w3.org/1999/xlink"><g id="tight-bounds" transform="matrix(1,0,0,1,0.23990188830703119,0.08006970642546207)"><svg viewBox="0 0 395.52 233.8392878609243" height="233.8392878609243" width="395.52"><g><svg viewBox="0 0 395.52 233.8392878609243" height="233.8392878609243" width="395.52"><g transform="matrix(1,0,0,1,0,153.449279409433)"><svg viewBox="0 0 395.52 80.39000845149131" height="80.39000845149131" width="395.52"><g><svg viewBox="0 0 395.52 80.39000845149131" height="80.39000845149131" width="395.52"><g><svg viewBox="0 0 395.52 80.39000845149131" height="80.39000845149131" width="395.52"><g transform="matrix(1,0,0,1,0,0)"><svg width="395.52" viewBox="-1.4169080257415771 -39.58207702636719 302.9136657714844 61.5676383972168" height="80.39000845149131" data-palette-color="#010c80"><path d="M22.585-21.757l-1.148-6.571 13.772-2.404 1.147 6.57-2.935 0.513 5.18 29.671-7.94 1.386-19.182-20.79 2.947 16.874 3.044-0.531 1.143 6.551-13.752 2.401-1.143-6.551 2.994-0.523-4.036-23.12-2.946 0.514-1.147-6.571 10.954-1.912 19.129 21.125-2.998-17.17zM67.582-8.819l-18.372 2.337 0.164 0.736c0.27 0.698 0.652 1.295 1.145 1.789 0.499 0.488 1.06 0.88 1.682 1.177 0.622 0.297 1.299 0.493 2.031 0.589 0.731 0.095 1.457 0.097 2.178 0.005v0c0.721-0.092 1.403-0.226 2.045-0.401 0.637-0.168 1.25-0.367 1.84-0.597 0.589-0.23 1.162-0.484 1.717-0.763 0.55-0.272 1.108-0.558 1.675-0.858v0l3.278 4.603c-0.848 0.679-1.627 1.262-2.338 1.749-0.711 0.487-1.437 0.909-2.178 1.265-0.734 0.356-1.527 0.648-2.378 0.877-0.85 0.236-1.854 0.427-3.012 0.575v0c-2.169 0.276-4.139 0.164-5.91-0.337-1.777-0.5-3.319-1.288-4.625-2.365-1.299-1.071-2.354-2.389-3.164-3.952-0.81-1.557-1.331-3.251-1.565-5.084v0c-0.233-1.832-0.134-3.588 0.298-5.269 0.424-1.687 1.138-3.203 2.143-4.547 1.005-1.344 2.267-2.463 3.787-3.355 1.513-0.891 3.248-1.462 5.206-1.711v0c1.964-0.25 3.745-0.147 5.341 0.309 1.597 0.455 2.991 1.192 4.183 2.209 1.19 1.011 2.165 2.255 2.924 3.731 0.76 1.483 1.276 3.11 1.549 4.884v0c0.098 0.398 0.175 0.791 0.23 1.18 0.064 0.395 0.106 0.803 0.126 1.224zM53.805-16.32v0c-0.899 0.114-1.653 0.321-2.26 0.62-0.607 0.299-1.102 0.664-1.483 1.096-0.389 0.432-0.678 0.906-0.868 1.421-0.197 0.509-0.335 1.041-0.412 1.595v0l10.426-1.327c-0.182-0.535-0.41-1.03-0.683-1.486-0.266-0.457-0.608-0.843-1.025-1.16-0.417-0.323-0.924-0.558-1.521-0.703-0.597-0.146-1.321-0.165-2.174-0.056zM78.502-33.721l0.857 9.571 4.998-0.473 0.6 6.331-5.047 0.479 0.953 10.587c0.058 0.611 0.155 1.1 0.29 1.469 0.129 0.369 0.297 0.658 0.504 0.867 0.207 0.208 0.444 0.34 0.711 0.394 0.266 0.055 0.569 0.067 0.907 0.035v0c0.611-0.058 1.146-0.169 1.606-0.333 0.453-0.164 0.904-0.35 1.353-0.561v0l1.488 4.57c-0.775 0.589-1.651 1.087-2.631 1.495-0.973 0.4-2.153 0.666-3.54 0.798v0c-0.982 0.093-1.937 0.013-2.866-0.24-0.928-0.254-1.763-0.69-2.505-1.31-0.736-0.627-1.355-1.435-1.857-2.425-0.502-0.99-0.808-2.17-0.918-3.539v0l-0.982-11.097-3.604 0.341-0.6-6.331 3.624-0.344-0.519-5.998zM128.659-31.691l-0.292-6.663 15.735-0.69 0.292 6.664-3.327 0.145-7.143 30.463-10.469 0.459-6.561-22.695-4.669 23.187-10.38 0.455-9.921-29.714-3.706 0.163-0.292-6.664 15.754-0.691 0.293 6.664-3.827 0.168 6.274 19.574 5.366-26.691 9.011-0.395 7.562 26.124 4.566-20.05zM172.603-12.956l-18.518-0.203 0.061 0.751c0.172 0.729 0.468 1.372 0.889 1.93 0.427 0.551 0.929 1.017 1.505 1.396 0.576 0.38 1.219 0.667 1.931 0.861 0.711 0.194 1.43 0.296 2.157 0.304v0c0.727 0.008 1.42-0.031 2.081-0.117 0.654-0.08 1.289-0.193 1.904-0.339 0.615-0.147 1.217-0.32 1.806-0.521 0.582-0.194 1.174-0.401 1.777-0.62v0l2.615 5.009c-0.933 0.556-1.785 1.027-2.556 1.412-0.771 0.385-1.548 0.703-2.33 0.954-0.776 0.252-1.601 0.432-2.476 0.543-0.875 0.117-1.895 0.169-3.062 0.157v0c-2.187-0.024-4.122-0.405-5.808-1.144-1.692-0.739-3.111-1.731-4.258-2.977-1.14-1.239-2.004-2.689-2.592-4.348-0.589-1.653-0.873-3.403-0.853-5.25v0c0.02-1.847 0.359-3.573 1.017-5.179 0.651-1.613 1.566-3.016 2.746-4.21 1.18-1.194 2.583-2.129 4.211-2.804 1.621-0.676 3.418-1.003 5.391-0.982v0c1.98 0.022 3.73 0.368 5.249 1.038 1.519 0.67 2.799 1.591 3.84 2.762 1.041 1.165 1.836 2.53 2.385 4.097 0.549 1.573 0.838 3.256 0.865 5.049v0c0.042 0.407 0.065 0.807 0.067 1.201 0.009 0.4-0.006 0.81-0.044 1.23zM159.985-22.275v0c-0.907-0.01-1.681 0.092-2.324 0.305-0.642 0.213-1.182 0.507-1.62 0.882-0.444 0.375-0.796 0.805-1.054 1.288-0.265 0.477-0.474 0.985-0.626 1.524v0l10.509 0.115c-0.107-0.555-0.265-1.076-0.473-1.566-0.201-0.489-0.487-0.919-0.856-1.289-0.369-0.377-0.839-0.679-1.41-0.905-0.571-0.226-1.286-0.344-2.146-0.354zM176.054-32.941l0.338-6.641 10.956 0.558-0.671 13.163c0.894-0.382 1.809-0.662 2.747-0.841 0.93-0.18 1.882-0.245 2.853-0.195v0c1.858 0.095 3.561 0.532 5.11 1.311 1.543 0.773 2.859 1.788 3.95 3.045 1.084 1.25 1.912 2.694 2.483 4.332 0.578 1.632 0.821 3.343 0.73 5.134v0c-0.092 1.811-0.499 3.499-1.219 5.064-0.721 1.572-1.684 2.921-2.89 4.049-1.212 1.126-2.628 1.996-4.248 2.607-1.613 0.605-3.365 0.86-5.256 0.763v0c-1.019-0.052-1.986-0.198-2.901-0.438-0.909-0.247-1.767-0.567-2.575-0.962v0l-0.034 0.679-7.441-0.379 1.583-31.07zM191.427-20.232v0c-1.065-0.054-2.036 0.14-2.913 0.582-0.87 0.443-1.622 1.102-2.254 1.978v0l-0.383 7.511c0.48 0.805 1.14 1.467 1.982 1.983 0.841 0.523 1.794 0.812 2.86 0.867v0c0.826 0.042 1.616-0.068 2.37-0.33 0.761-0.262 1.435-0.658 2.023-1.189 0.581-0.524 1.054-1.171 1.42-1.94 0.36-0.769 0.565-1.647 0.615-2.632v0c0.051-0.999-0.063-1.912-0.341-2.741-0.285-0.822-0.686-1.53-1.204-2.124-0.524-0.594-1.144-1.06-1.861-1.397-0.724-0.337-1.495-0.527-2.314-0.568zM210.387-30.025l0.616-6.642 16.917 1.57c1.885 0.175 3.591 0.628 5.117 1.359 1.525 0.737 2.812 1.657 3.861 2.758 1.049 1.108 1.835 2.343 2.358 3.704 0.523 1.367 0.718 2.761 0.586 4.182v0c-0.158 1.706-0.559 3.279-1.201 4.719-0.643 1.447-1.55 2.668-2.72 3.665-1.164 0.997-2.588 1.738-4.274 2.224-1.685 0.486-3.64 0.626-5.864 0.42v0l-5.098-0.473-0.648 6.98 3.356 0.311-0.615 6.622-15.175-1.408 0.615-6.622 3.794 0.352 2.168-23.369zM225.512-28.622l-3.306-0.307-0.913 9.838 3.306 0.307c1.839 0.171 3.335-0.082 4.489-0.758 1.147-0.67 1.798-1.842 1.953-3.515v0c0.145-1.567-0.249-2.838-1.182-3.816-0.926-0.983-2.375-1.566-4.347-1.749zM255.416 5.212l0.182-1.348c-0.609 0.274-1.162 0.506-1.658 0.694-0.503 0.188-0.996 0.326-1.479 0.416-0.483 0.089-0.98 0.137-1.492 0.141-0.505 0.006-1.055-0.032-1.65-0.112v0c-1.486-0.201-2.793-0.586-3.92-1.155-1.121-0.569-2.039-1.265-2.756-2.088-0.71-0.822-1.217-1.749-1.521-2.779-0.298-1.029-0.37-2.112-0.217-3.249v0c0.156-1.156 0.519-2.194 1.087-3.112 0.575-0.918 1.325-1.667 2.251-2.249 0.934-0.587 2.031-0.993 3.294-1.22 1.263-0.233 2.67-0.244 4.222-0.034v0c1.143 0.154 2.175 0.355 3.098 0.6 0.922 0.246 1.771 0.512 2.546 0.798v0l0.103-0.763c0.085-0.628 0.039-1.185-0.137-1.673-0.183-0.489-0.469-0.911-0.858-1.266-0.396-0.356-0.888-0.645-1.478-0.866-0.589-0.221-1.244-0.38-1.963-0.477v0c-1.513-0.205-2.861-0.235-4.044-0.093-1.19 0.142-2.351 0.422-3.484 0.841v0l-1.678-4.98c1.789-0.895 3.616-1.519 5.48-1.873 1.871-0.353 3.807-0.394 5.809-0.123v0c1.559 0.211 2.976 0.577 4.251 1.1 1.275 0.522 2.332 1.237 3.171 2.144 0.846 0.908 1.452 2.023 1.818 3.344 0.366 1.321 0.428 2.88 0.186 4.677v0l-1.226 9.067 3.349 0.453-0.891 6.59zM250.622-0.603v0c1.136 0.154 2.195 0.108 3.177-0.136 0.982-0.244 1.835-0.586 2.56-1.026v0l0.429-3.171-5.768-0.78c-0.37-0.05-0.741-0.043-1.113 0.022-0.365 0.065-0.701 0.181-1.005 0.348-0.313 0.173-0.572 0.4-0.779 0.682-0.213 0.281-0.347 0.623-0.401 1.025v0c-0.099 0.733 0.085 1.387 0.553 1.962 0.475 0.569 1.257 0.927 2.347 1.074zM272.883-10.927l1.165-6.547 12.139 2.159-1.164 6.547-1.92-0.341 1.916 9.898 5.3-8.615-2.126-0.378 1.164-6.547 12.14 2.159-1.165 6.547-2.697-0.48-13.655 21.207 4.253 0.756-1.164 6.548-15.369-2.734 1.164-6.547 4.332 0.77 2.698-4.375-4.5-19.581z" opacity="1" transform="matrix(1,0,0,1,0,0)" fill="#010c80" class="undefined-text-0" data-fill-palette-color="primary" id="text-0"></path></svg></g></svg></g></svg></g></svg></g><g transform="matrix(1,0,0,1,78.74901248149942,0)"><svg viewBox="0 0 238.02197503700114 130.07103367451293" height="130.07103367451293" width="238.02197503700114"><g><svg xmlns="http://www.w3.org/2000/svg" xmlns:xlink="http://www.w3.org/1999/xlink" version="1.1" x="0" y="0" viewBox="0 0 39.16800308227539 21.404001235961914" enable-background="new 0 0 39.167 21.404" xml:space="preserve" width="238.02197503700114" height="130.07103367451293" class="icon-icon-0" data-fill-palette-color="accent" id="icon-0"><rect x="22.053" y="0.098" transform="matrix(-0.0888 0.9961 -0.9961 -0.0888 38.3583 -16.986)" width="9.792" height="17.909" fill="#010c80" data-fill-palette-color="accent"></rect><path d="M10.293 0L9.575 8.063c1.2 1.09 1.976 2.64 2.009 4.383 1.962 0.114 3.595 1.405 4.221 3.178l22.025 1.964 1.338-15.014L10.293 0zM36.017 15.424l-19.122-1.706L17.88 2.682l19.121 1.705L36.017 15.424z" fill="#010c80" data-fill-palette-color="accent"></path><path d="M11.549 13.022c-0.192 2.533-1.918 4.614-4.265 5.334 0.504 1.756 2.104 3.048 4.022 3.048 2.322 0 4.204-1.882 4.204-4.203C15.509 14.963 13.754 13.15 11.549 13.022" fill="#010c80" data-fill-palette-color="accent"></path><path d="M11.016 12.563c0 3.041-2.466 5.507-5.507 5.507C2.466 18.07 0 15.604 0 12.563c0-3.043 2.466-5.509 5.508-5.509C8.549 7.055 11.016 9.521 11.016 12.563" fill="#010c80" data-fill-palette-color="accent"></path></svg></g></svg></g><g></g></svg></g><defs></defs></svg><rect width="395.52" height="233.8392878609243" fill="none" stroke="none" visibility="hidden"></rect></g></svg></g></svg>