<svg width="114" height="64" viewBox="0 0 114 64" fill="none" xmlns="http://www.w3.org/2000/svg">
<path d="M106.253 28.5117C101.253 19.857 94.0501 12.6419 85.4097 7.63401C77.034 2.78005 67.3098 0 56.937 0C46.5642 0 36.84 2.78005 28.4642 7.63401C19.8239 12.6419 12.6208 19.857 7.6213 28.5117C2.77541 36.9014 0 46.6419 0 57.032H20.3035C20.3035 50.3469 22.0975 44.0841 25.216 38.6864C28.4318 33.1178 33.0643 28.4792 38.6237 25.2564C44.0124 22.1327 50.2647 20.3357 56.9387 20.3357C63.6127 20.3357 69.865 22.1327 75.2537 25.2564C80.8131 28.4775 85.4439 33.1178 88.6614 38.6864C91.7799 44.0841 93.5738 50.3469 93.5738 57.032H113.877C113.874 46.6419 111.1 36.9014 106.253 28.5117Z" fill="white"/>
<path d="M75.2523 25.2564L85.41 7.63401C77.0343 2.78005 67.3101 0 56.9373 0V20.3374C63.6112 20.3357 69.8636 22.1327 75.2523 25.2564Z" fill="#F9971E"/>
<path d="M38.6237 25.263L28.466 7.64062C19.8257 12.6485 12.6226 19.8636 7.62305 28.5183L25.216 38.693C28.4318 33.1244 33.0644 28.4841 38.6237 25.263Z" fill="#35B86D"/>
<path d="M56.9371 20.3357V0C46.5643 0 36.8401 2.78005 28.4644 7.63401L38.6221 25.2564C44.0125 22.1327 50.2631 20.3357 56.9371 20.3357Z" fill="#F9971E"/>
<path d="M88.6601 38.693L106.253 28.5183C101.254 19.8636 94.0505 12.6485 85.4102 7.64062L75.2524 25.263C80.8118 28.4841 85.4443 33.1244 88.6601 38.693Z" fill="#DD2323"/>
<path d="M93.5724 57.0359H113.876C113.876 46.6458 111.1 36.9053 106.255 28.5156L88.6616 38.6903C91.7784 44.088 93.5724 50.3508 93.5724 57.0359Z" fill="#DD2323"/>
<path d="M20.3036 57.0359C20.3036 50.3508 22.0975 44.088 25.216 38.6903L7.62301 28.5156C2.77712 36.9053 0.00170898 46.6458 0.00170898 57.0359H20.3036Z" fill="#35B86D"/>
<path d="M92.4204 36.6583C88.8223 30.4297 83.6419 25.2406 77.4236 21.6365C71.3949 18.1435 64.4034 16.1328 56.9375 16.1328C49.4715 16.1328 42.48 18.1418 36.4513 21.6365C30.233 25.2406 25.0526 30.4297 21.4545 36.6583C17.9895 42.6561 15.989 49.6079 15.9634 57.0299H20.3023C20.3023 50.3448 22.0963 44.082 25.2148 38.6844C28.4306 33.1157 33.0631 28.4772 38.6224 25.2543C44.0111 22.1306 50.2635 20.3337 56.9375 20.3337C63.6114 20.3337 69.8638 22.1306 75.2525 25.2543C80.8118 28.4755 85.4426 33.1157 88.6601 38.6844C91.7786 44.082 93.5726 50.3448 93.5726 57.0299H97.9115C97.8859 49.6079 95.8854 42.6561 92.4204 36.6583Z" fill="#F9FBFF"/>
<path d="M12.3962 45.0312L56.0809 60.0753L57.7383 53.8809L12.3962 45.0312Z" fill="#0A1D4F"/>
<path d="M56.9385 64.0008C60.7875 64.0008 63.9078 60.8754 63.9078 57.02C63.9078 53.1645 60.7875 50.0391 56.9385 50.0391C53.0895 50.0391 49.9692 53.1645 49.9692 57.02C49.9692 60.8754 53.0895 64.0008 56.9385 64.0008Z" fill="#0A1D4F"/>
<path d="M56.9383 61.982C59.674 61.982 61.8917 59.7605 61.8917 57.0203C61.8917 54.28 59.674 52.0586 56.9383 52.0586C54.2026 52.0586 51.9849 54.28 51.9849 57.0203C51.9849 59.7605 54.2026 61.982 56.9383 61.982Z" fill="#F4F7FF"/>
<path d="M56.9389 60.5051C58.8582 60.5051 60.4141 58.9465 60.4141 57.024C60.4141 55.1015 58.8582 53.543 56.9389 53.543C55.0195 53.543 53.4636 55.1015 53.4636 57.024C53.4636 58.9465 55.0195 60.5051 56.9389 60.5051Z" fill="#0A1D4F"/>
</svg>
