<svg width="100" height="100" viewBox="0 0 100 100" fill="none" xmlns="http://www.w3.org/2000/svg">
<circle cx="50" cy="50" r="50" fill="#FFF9F0"/>
<path fill-rule="evenodd" clip-rule="evenodd" d="M20.0564 57.4375C19.8228 62.1096 20.29 67.0152 21.9252 71.6874L28.6997 67.4826C27.7652 64.2122 27.5316 60.7082 27.7652 57.4376L20.0564 57.4375Z" fill="#E99F0C"/>
<path fill-rule="evenodd" clip-rule="evenodd" d="M25.1956 42.2578C22.8596 45.9954 21.2244 50.2003 20.5236 54.4053H28.2324C28.9332 51.6021 30.1012 48.7989 31.7364 46.2293L25.1956 42.2578Z" fill="#E99F0C"/>
<path fill-rule="evenodd" clip-rule="evenodd" d="M35.4743 31.9766C32.2039 33.8454 29.167 36.6486 26.8312 39.919L33.372 43.8902C35.2408 42.0214 37.1096 40.3862 39.4456 38.9846L35.4743 31.9766Z" fill="#E99F0C"/>
<path fill-rule="evenodd" clip-rule="evenodd" d="M48.5554 28.0078C45.0514 28.2414 41.3137 29.1758 38.0431 30.5774L41.7807 37.8191C44.1167 36.8846 46.2191 36.4175 48.5552 36.1838L48.5554 28.0078Z" fill="#E99F0C"/>
<path fill-rule="evenodd" clip-rule="evenodd" d="M62.1049 30.5774C58.6009 29.1758 55.0969 28.2414 51.3594 28.0078V36.1838C53.6954 36.4175 56.0314 36.8846 58.1338 37.8191L62.1049 30.5774Z" fill="#E99F0C"/>
<path fill-rule="evenodd" clip-rule="evenodd" d="M73.3178 39.919C70.7482 36.6486 67.7114 33.8454 64.4406 31.9766L60.703 38.9846C62.8054 40.3862 64.9078 42.0214 66.543 43.8902L73.3178 39.919Z" fill="#E99F0C"/>
<path fill-rule="evenodd" clip-rule="evenodd" d="M79.3911 54.4053C78.6903 50.2004 77.2887 45.9956 74.719 42.2578L68.1782 46.229C69.8135 48.7986 70.9814 51.6019 71.6823 54.405L79.3911 54.4053Z" fill="#E99F0C"/>
<path fill-rule="evenodd" clip-rule="evenodd" d="M77.9892 71.6874C79.6244 67.0154 80.3252 62.1097 79.858 57.4375H72.1492C72.6164 60.7079 72.3828 64.2119 71.2147 67.4825L77.9892 71.6874Z" fill="#E99F0C"/>
<path fill-rule="evenodd" clip-rule="evenodd" d="M29.8673 62.3468C33.8385 60.0108 46.2197 51.6012 48.3222 50.9007C50.6582 49.9663 53.2278 51.1343 53.9286 53.4703C54.8631 55.5727 53.695 58.1424 51.359 58.8432C49.2566 59.7776 34.3061 61.4128 29.8679 62.3472L29.8673 62.3468ZM47.6208 55.5724C46.4528 52.5355 51.3584 50.6667 52.5264 53.9371C53.6944 56.9739 48.7888 58.8427 47.6208 55.5724Z" fill="#E99F0C"/>
</svg>
