<svg width="546" height="310" viewBox="0 0 546 310" fill="none" xmlns="http://www.w3.org/2000/svg">
<path d="M545.801 56.5371H316.464V63.2683H545.801V56.5371Z" fill="#E6E6E6"/>
<path d="M393.522 0.240356H335.423V58.3729H393.522V0.240356Z" fill="#E6E6E6"/>
<path d="M381.902 11.8668H347.043V46.7464H381.902V11.8668Z" fill="#CCCCCC"/>
<path d="M480.364 0.240356H465.686V58.3729H480.364V0.240356Z" fill="#E6E6E6"/>
<path d="M480.364 9.41919H465.686V16.1503H480.364V9.41919Z" fill="#CCCCCC"/>
<path d="M480.364 38.7914H465.686V45.5225H480.364V38.7914Z" fill="#CCCCCC"/>
<path d="M457.736 0.240356H443.058V58.3729H457.736V0.240356Z" fill="#E6E6E6"/>
<path d="M457.736 9.41919H443.058V16.1503H457.736V9.41919Z" fill="#CCCCCC"/>
<path d="M457.736 38.7914H443.058V45.5225H457.736V38.7914Z" fill="#CCCCCC"/>
<path d="M493.01 9.61279e-06L479.856 6.51611L505.634 58.6133L518.788 52.0972L493.01 9.61279e-06Z" fill="#E6E6E6"/>
<path d="M497.08 8.22585L483.927 14.7419L486.911 20.7742L500.065 14.2581L497.08 8.22585Z" fill="#CCCCCC"/>
<path d="M510.105 34.5487L496.951 41.0648L499.936 47.0971L513.09 40.5811L510.105 34.5487Z" fill="#CCCCCC"/>
<path d="M357.133 23.5748L364.525 36.3845L371.916 49.1941H357.133H342.351L349.742 36.3845L357.133 23.5748Z" fill="#E6E6E6"/>
<path d="M369.976 26.0223L377.367 38.832L384.759 51.6416H369.976H355.194L362.585 38.832L369.976 26.0223Z" fill="#E6E6E6"/>
<path d="M375.175 22.2695C377.539 22.2695 379.456 20.3518 379.456 17.9861C379.456 15.6204 377.539 13.7026 375.175 13.7026C372.81 13.7026 370.894 15.6204 370.894 17.9861C370.894 20.3518 372.81 22.2695 375.175 22.2695Z" fill="#E6E6E6"/>
<path d="M316.464 155.668L545.801 155.668V148.937L316.464 148.937V155.668Z" fill="#E6E6E6"/>
<path d="M468.744 150.773H526.842V92.6405H468.744V150.773Z" fill="#E6E6E6"/>
<path d="M480.364 139.147H515.223V104.267H480.364V139.147Z" fill="#CCCCCC"/>
<path d="M381.902 150.773H396.579V92.6405H381.902V150.773Z" fill="#E6E6E6"/>
<path d="M381.902 108.55H396.579V101.819H381.902V108.55Z" fill="#CCCCCC"/>
<path d="M381.902 137.923H396.579V131.191H381.902V137.923Z" fill="#CCCCCC"/>
<path d="M404.53 150.773H419.207V92.6405H404.53V150.773Z" fill="#E6E6E6"/>
<path d="M404.53 108.55H419.207V101.819H404.53V108.55Z" fill="#CCCCCC"/>
<path d="M404.53 137.923H419.207V131.191H404.53V137.923Z" fill="#CCCCCC"/>
<path d="M343.478 144.497L356.631 151.013L382.409 98.9162L369.255 92.4001L343.478 144.497Z" fill="#E6E6E6"/>
<path d="M362.2 106.658L375.354 113.174L378.339 107.142L365.185 100.626L362.2 106.658Z" fill="#CCCCCC"/>
<path d="M349.176 132.981L362.329 139.497L365.314 133.465L352.161 126.949L349.176 132.981Z" fill="#CCCCCC"/>
<path d="M505.132 115.974L497.741 128.784L490.349 141.594H505.132H519.915L512.523 128.784L505.132 115.974Z" fill="#E6E6E6"/>
<path d="M492.289 118.422L484.898 131.232L477.506 144.042H492.289H507.072L499.681 131.232L492.289 118.422Z" fill="#E6E6E6"/>
<path d="M487.091 114.67C489.455 114.67 491.372 112.752 491.372 110.386C491.372 108.021 489.455 106.103 487.091 106.103C484.727 106.103 482.81 108.021 482.81 110.386C482.81 112.752 484.727 114.67 487.091 114.67Z" fill="#E6E6E6"/>
<path d="M270.358 309.822C419.562 309.822 540.516 301.227 540.516 290.624C540.516 280.021 419.562 271.425 270.358 271.425C121.153 271.425 0.199097 280.021 0.199097 290.624C0.199097 301.227 121.153 309.822 270.358 309.822Z" fill="#E6E6E6"/>
<path d="M481.419 301.375C437.368 293.53 389.196 294.834 338.665 301.375C361.696 281.921 381.573 262.466 358.542 243.011C403.467 252.285 409.76 251.346 459.735 243.011C448.144 262.466 469.828 281.921 481.419 301.375Z" fill="#6B8754"/>
<path d="M470.674 293.075C433.254 286.813 392.334 287.854 349.41 293.075C368.974 277.546 385.859 262.017 366.295 246.488C404.457 253.89 409.802 253.141 452.254 246.488C442.408 262.017 460.828 277.546 470.674 293.075Z" fill="#000000"/>
<path d="M456.421 268.054C467.433 268.054 476.36 259.122 476.36 248.104C476.36 237.086 467.433 228.154 456.421 228.154C445.41 228.154 436.483 237.086 436.483 248.104C436.483 259.122 445.41 268.054 456.421 268.054Z" fill="#2F2E41"/>
<path d="M365.911 224.964L379.726 227.268L386.633 247.235L366.679 259.522L343.653 224.964H365.143H365.911Z" fill="#A0616A"/>
<path d="M405.053 255.682C422.856 255.682 437.288 241.242 437.288 223.429C437.288 205.616 422.856 191.175 405.053 191.175C387.251 191.175 372.819 205.616 372.819 223.429C372.819 241.242 387.251 255.682 405.053 255.682Z" fill="#A0616A"/>
<path d="M226.994 105.933C226.994 105.933 148.71 114.381 134.895 112.845C121.08 111.309 114.94 109.773 114.94 109.773C114.94 109.773 105.73 122.06 110.335 127.436C112.914 130.533 116.035 133.135 119.545 135.115C119.545 135.115 127.987 132.811 134.127 135.115C140.267 137.419 202.434 147.402 213.179 138.187C223.924 128.971 226.994 105.933 226.994 105.933Z" fill="#2F2E41"/>
<path d="M232.367 277.185C232.367 277.185 180.944 262.594 171.735 198.086V191.943C171.735 191.943 161.56 209.803 157.92 213.445C153.698 217.669 138.732 255.682 139.5 259.522C140.267 263.362 139.5 264.898 139.5 264.898L117.242 262.594V255.682C117.242 255.682 129.139 219.973 129.906 211.525C130.674 203.078 159.455 144.33 159.455 144.33C159.455 144.33 170.2 122.06 188.619 144.33C207.039 166.601 208.574 181.96 208.574 181.96L232.367 228.036L232.367 277.185Z" fill="#2F2E41"/>
<path d="M117.242 107.469L92.6825 99.0216C92.6825 99.0216 69.6576 82.1268 75.03 99.0216C80.4025 115.916 104.962 152.778 111.87 148.938C118.777 145.098 127.085 135.567 125.233 134.189C123.382 132.811 111.102 122.828 117.242 107.469Z" fill="#2F2E41"/>
<path d="M120.211 251.148L100.385 260.837C100.385 260.837 76.4095 264.527 89.7805 271.447C103.151 278.367 140.037 285.749 141.881 279.29C143.725 272.831 142.994 262.112 141.054 262.397C139.115 262.682 125.744 264.066 120.211 251.148Z" fill="#2F2E41"/>
<path d="M222.389 226.5C222.389 226.5 212.412 269.505 229.297 278.72C246.182 287.936 364.376 289.472 373.586 272.577C382.796 255.682 378.191 255.682 378.191 255.682L353.631 228.036L373.586 226.5C373.586 226.5 373.586 220.357 366.679 219.589C359.771 218.821 338.281 211.141 319.861 216.517C301.441 221.893 290.696 205.766 290.696 205.766L222.389 226.5Z" fill="#575A89"/>
<path d="M209.342 92.11L196.294 163.529L286.092 152.778L302.209 88.2703L209.342 92.11Z" fill="#3F3D56"/>
<path d="M212.028 94.7981L201.283 158.537L283.021 148.938L298.755 90.9584L212.028 94.7981Z" fill="white"/>
<path d="M199.364 164.297L196.294 163.529L194.759 166.6L219.32 234.948L221.629 234.064L222.389 229.572L199.364 164.297Z" fill="#B3B3B3"/>
<path d="M196.294 162.761L220.854 234.18L313.721 220.357L286.092 152.778L196.294 162.761Z" fill="#D0CDE1"/>
<path d="M208.575 160.457V164.297L276.881 156.618L276.114 152.778L208.575 160.457Z" fill="#3F3D56"/>
<path d="M210.109 168.137L220.854 198.087L290.697 189.639L278.417 161.225L210.109 168.137Z" fill="#3F3D56"/>
<path d="M297.604 210.374L295.301 204.23C295.301 204.23 277.649 173.512 268.439 179.656C259.229 185.799 287.626 215.749 287.626 215.749H296.836L297.604 210.374Z" fill="#A0616A"/>
<path d="M239.274 214.981L236.972 205.766C236.972 205.766 230.832 177.352 241.577 178.888C252.322 180.424 255.392 207.302 255.392 207.302L254.624 213.445L239.274 214.981Z" fill="#A0616A"/>
<path d="M257.694 211.142C257.694 211.142 237.739 208.07 236.972 212.677C236.204 217.285 232.367 286.4 251.554 288.704C270.742 291.008 365.911 300.991 355.934 277.185C345.956 253.379 330.606 256.45 330.606 256.45L265.369 263.362L257.694 211.142Z" fill="#575A89"/>
<path d="M317.942 219.973L297.604 205.766L284.173 216.133L301.058 234.564L317.942 219.973Z" fill="#575A89"/>
<path opacity="0.2" d="M263.451 233.796L266.52 262.978L319.478 259.906L273.428 259.138L263.451 233.796Z" fill="black"/>
<path d="M420.966 267.687C442.159 267.687 459.34 250.496 459.34 229.289C459.34 208.083 442.159 190.892 420.966 190.892C399.772 190.892 382.591 208.083 382.591 229.289C382.591 250.496 399.772 267.687 420.966 267.687Z" fill="#2F2E41"/>
<path d="M223.541 117.068L271.126 115.411L275.73 97.8699L226.611 99.3531L223.541 117.068Z" fill="#000000"/>
<path d="M211.261 127.052L283.405 124.748L284.173 121.676L212.028 124.218L211.261 127.052Z" fill="#E6E6E6"/>
<path d="M209.726 134.731L281.871 132.427L282.638 129.355L210.493 131.897L209.726 134.731Z" fill="#E6E6E6"/>
<path d="M208.958 140.874L281.102 138.571L281.871 135.499L209.726 138.04L208.958 140.874Z" fill="#E6E6E6"/>
</svg>
