<svg width="531" height="381" viewBox="0 0 531 381" fill="none" xmlns="http://www.w3.org/2000/svg">
<path d="M104.061 63.9783C114.298 63.9783 122.596 55.6904 122.596 45.4666C122.596 35.2429 114.298 26.9549 104.061 26.9549C93.8244 26.9549 85.5259 35.2429 85.5259 45.4666C85.5259 55.6904 93.8244 63.9783 104.061 63.9783Z" fill="#2F2E41"/>
<path d="M47.6075 268.333L58.9951 228.89L62.8718 230.1C62.8718 230.1 58.2683 259.622 50.9996 267.123L47.6075 268.333Z" fill="#2F2E41"/>
<path d="M90.9775 56.5979C90.9775 56.5979 92.4312 72.0848 89.0391 76.4405C85.6471 80.7962 91.2197 89.2656 91.2197 89.2656L101.396 101.365L116.418 94.5892L118.599 82.0061L117.145 73.2947C117.145 73.2947 112.057 68.213 114.237 59.0177C116.418 49.8223 90.9775 56.5979 90.9775 56.5979Z" fill="#FFB9B9"/>
<path opacity="0.1" d="M90.9775 56.5979C90.9775 56.5979 92.4312 72.0848 89.0391 76.4405C85.6471 80.7962 91.2197 89.2656 91.2197 89.2656L101.396 101.365L116.418 94.5892L118.599 82.0061L117.145 73.2947C117.145 73.2947 112.057 68.213 114.237 59.0177C116.418 49.8223 90.9775 56.5979 90.9775 56.5979Z" fill="black"/>
<path d="M99.7 346.252V356.173L113.026 358.835L111.814 342.38L99.7 346.252Z" fill="#FFB9B9"/>
<path d="M139.678 342.38L136.77 356.173L142.585 360.286L152.762 352.785L151.55 340.928L139.678 342.38Z" fill="#FFB9B9"/>
<path d="M114.237 357.625C114.237 357.625 109.149 349.035 99.6999 354.419C99.6999 354.419 98.0039 363.916 96.3079 364.642C94.6118 365.368 85.1625 379.161 96.3079 380.371C107.453 381.581 113.026 377.951 113.026 377.951C113.026 377.951 110.845 379.825 114.237 378.857C117.629 377.889 116.176 372.566 116.176 372.566L114.237 357.625Z" fill="#2F2E41"/>
<path d="M147.431 351.817C147.431 351.817 139.92 357.141 138.709 354.721C137.497 352.301 135.559 352.543 135.559 352.543C135.559 352.543 128.775 378.085 133.136 379.295C135.944 379.985 138.894 379.833 141.616 378.857C141.616 378.857 147.431 374.79 147.431 377.936C147.431 381.082 163.665 380.855 170.449 380.613C177.233 380.371 173.598 375.29 173.598 375.29L164.634 366.578L154.458 351.817C154.458 351.817 149.854 347.704 147.431 351.817Z" fill="#2F2E41"/>
<path d="M75.9554 189.931L86.1316 287.45C86.1316 287.45 91.7043 346.978 92.6735 347.945C93.6426 348.913 99.9422 352.059 113.753 347.945L110.603 270.027L116.418 221.63L129.744 255.024C129.744 255.024 132.894 344.8 135.074 344.8C137.255 344.8 150.581 349.155 153.731 343.832C156.88 338.508 156.396 281.158 156.396 281.158C156.396 281.158 154.942 190.656 144.281 187.753C133.621 184.849 75.9554 189.931 75.9554 189.931Z" fill="#2F2E41"/>
<path d="M104.061 65.5512C113.294 65.5512 120.779 58.0758 120.779 48.8544C120.779 39.633 113.294 32.1576 104.061 32.1576C94.828 32.1576 87.3431 39.633 87.3431 48.8544C87.3431 58.0758 94.828 65.5512 104.061 65.5512Z" fill="#FFB9B9"/>
<path d="M105.03 95.3152C105.03 95.3152 103.334 84.9099 103.334 82.974C103.334 81.0381 95.8233 79.8282 95.8233 79.8282C95.8233 79.8282 90.0083 73.2947 88.7968 74.2626C87.5854 75.2305 69.1713 87.5717 66.2638 89.2656C63.3563 90.9594 60.2066 98.219 60.4489 98.7029C60.6912 99.1869 75.7132 130.645 75.7132 130.645C75.7132 130.645 82.255 150.003 77.6515 160.167C73.048 170.33 67.233 190.415 75.7132 194.528C84.1933 198.642 125.383 207.595 132.894 199.852C140.405 192.108 145.735 189.931 147.673 189.931C149.612 189.931 139.678 156.295 141.858 153.149C144.039 150.003 140.889 130.403 140.889 130.403L152.035 99.1869C152.035 99.1869 151.065 81.7641 129.017 77.8924L115.827 71.5051L105.03 95.3152Z" fill="#575A89"/>
<path d="M59.722 194.286C59.722 194.286 58.5106 205.901 58.5106 209.289C58.5106 212.677 52.6956 232.52 61.1757 234.939C69.6559 237.359 68.929 208.563 68.929 208.563V193.802L59.722 194.286Z" fill="#FFB9B9"/>
<path d="M160.273 183.397C160.273 183.397 161.726 194.528 160.999 196.948C160.273 199.368 168.026 220.42 157.607 221.63C147.189 222.84 149.854 196.464 149.854 196.464V183.397L160.273 183.397Z" fill="#FFB9B9"/>
<path d="M57.5414 264.461L64.5678 227.196H66.7484C68.2731 229.159 69.2731 231.477 69.6546 233.932C70.036 236.387 69.7864 238.899 68.929 241.231C66.0216 249.458 63.5986 264.461 63.5986 264.461H57.5414Z" fill="#2F2E41"/>
<path d="M64.0833 95.7991L60.4489 98.7029C60.4489 98.7029 55.6031 175.654 56.8145 181.461C58.026 187.269 52.4533 195.496 57.2991 196.222C62.1449 196.948 67.9599 200.094 70.6251 198.158C73.2903 196.222 73.7749 189.205 74.744 187.511C75.7132 185.817 77.4092 165.732 77.4092 165.732C77.4092 165.732 82.4973 145.648 79.3475 130.645C76.1977 115.642 73.2903 100.397 73.2903 100.397L64.0833 95.7991Z" fill="#575A89"/>
<path d="M140.889 89.7495L152.035 99.1869L160.515 148.551C160.515 148.551 165.845 187.027 161.726 187.511C157.607 187.995 151.308 186.785 148.643 187.511C145.977 188.237 143.797 186.301 143.797 186.301C143.797 186.301 140.889 170.814 140.889 170.572C140.889 170.33 138.951 152.665 138.951 152.665L136.528 132.823L140.162 111.044L140.889 89.7495Z" fill="#575A89"/>
<path d="M88.3123 318.182C88.3123 318.182 86.7374 322.699 84.5665 328.851C83.5585 331.711 82.4222 334.927 81.2519 338.206C80.4984 340.325 79.7328 342.472 78.9792 344.567C77.7775 347.919 76.6096 351.137 75.5896 353.901C74.2424 357.547 73.1497 360.405 72.5634 361.738C69.8982 367.788 21.1978 358.109 17.3212 355.689C13.4445 353.269 12.4754 345.042 11.9908 333.427C11.9884 333.366 11.9859 333.306 11.9859 333.245C11.9229 330.9 12.5214 327.408 13.5221 323.312C14.0212 321.264 14.622 319.067 15.2908 316.785C16.1873 313.724 17.2049 310.516 18.2685 307.321C22.8381 293.601 28.2242 280.19 28.2242 280.19C28.2242 280.19 37.6736 273.657 41.0656 269.301C44.4577 264.945 63.1141 261.557 63.1141 261.557C68.4445 261.799 80.559 282.368 85.4048 288.66C90.2506 294.951 88.3123 318.182 88.3123 318.182Z" fill="#3F3D56"/>
<path d="M61.1758 281.4C62.3801 281.4 63.3564 280.425 63.3564 279.222C63.3564 278.02 62.3801 277.044 61.1758 277.044C59.9714 277.044 58.9951 278.02 58.9951 279.222C58.9951 280.425 59.9714 281.4 61.1758 281.4Z" fill="#2F2E41"/>
<path d="M64.5678 282.852C65.2369 282.852 65.7793 282.31 65.7793 281.642C65.7793 280.974 65.2369 280.432 64.5678 280.432C63.8987 280.432 63.3564 280.974 63.3564 281.642C63.3564 282.31 63.8987 282.852 64.5678 282.852Z" fill="#2F2E41"/>
<path d="M84.5665 328.851C83.5585 331.711 82.4222 334.927 81.2519 338.206L15.2908 316.785C16.1873 313.724 17.2049 310.516 18.2685 307.321L84.5665 328.851Z" fill="#F2F2F2"/>
<path d="M78.9792 344.567C77.7775 347.919 76.6096 351.137 75.5896 353.901L11.986 333.245C11.923 330.9 12.5214 327.408 13.5221 323.312L78.9792 344.567Z" fill="#F2F2F2"/>
<path d="M61.1758 279.706C61.1758 279.706 66.0216 301.001 63.1141 319.875C60.2066 338.75 70.3828 356.415 70.3828 356.415" stroke="#2F2E41" stroke-width="3" stroke-miterlimit="10"/>
<path d="M64.5678 281.4C64.5678 281.4 55.1185 315.762 54.8762 320.601C54.6339 325.441 50.7573 360.045 45.9115 363.674" stroke="#2F2E41" stroke-width="3" stroke-miterlimit="10"/>
<path d="M91.2264 38.6656C91.2264 38.6656 87.4422 28.839 92.9294 25.6265L94.4431 29.9729C94.4431 29.9729 108.256 21.6581 111.851 23.5478L108.445 28.0832C108.445 28.0832 124.528 28.0832 125.663 34.3193L119.987 34.5082C119.987 34.5082 126.042 38.4767 126.231 44.9017L114.121 45.6576L119.987 49.0591C119.987 49.0591 98.0381 52.0827 92.7402 43.3899L91.2264 38.6656Z" fill="#2F2E41"/>
<path d="M87.9488 39.0541C87.9488 39.0541 92.3101 47.7655 98.125 45.5876C103.94 43.4097 98.125 35.4243 98.125 35.4243L94.2484 33.4884L87.9488 39.0541Z" fill="#2F2E41"/>
<path d="M464.027 176.485L384.945 77.7874C381.354 81.0672 376.93 83.2983 372.155 84.2371C357.267 87.1655 342.728 77.0116 339.68 61.5577C338.63 56.4469 338.997 51.1466 340.742 46.2289C342.487 41.3112 345.544 36.9628 349.582 33.6531L322.617 3.05176e-05L168.996 131.126L310.406 307.612L464.027 176.485Z" fill="#F2F2F2"/>
<path d="M365.764 79.548C378.077 79.548 388.059 69.579 388.059 57.2816C388.059 44.9843 378.077 35.0153 365.764 35.0153C353.451 35.0153 343.47 44.9843 343.47 57.2816C343.47 69.579 353.451 79.548 365.764 79.548Z" fill="#F2F2F2"/>
<path d="M226.264 156.497L219.442 164.381L242.424 184.214L249.246 176.33L226.264 156.497Z" fill="#000000"/>
<path d="M374 297.499L367.178 305.384L387.55 322.964L394.371 315.079L374 297.499Z" fill="#000000"/>
<path d="M410.807 238.773V239.384C410.793 240.919 410.749 242.447 410.675 243.969C409.349 270.005 398.103 294.549 379.241 312.57C360.38 330.592 335.331 340.726 309.229 340.897C283.126 341.068 257.947 331.261 238.851 313.488C219.755 295.714 208.188 271.319 206.521 245.303C206.382 243.142 206.312 240.966 206.312 238.773C206.275 217.622 212.848 196.988 225.113 179.746C226.094 178.356 227.114 176.992 228.174 175.654C228.904 174.723 229.655 173.813 230.413 172.91C247.674 152.488 272.261 139.636 298.9 137.111C325.539 134.587 352.108 142.59 372.906 159.405C374.137 160.399 375.348 161.427 376.53 162.476C377.476 163.317 378.406 164.176 379.319 165.053C397.31 182.24 408.384 205.408 410.453 230.186C410.689 233.021 410.807 235.883 410.807 238.773Z" fill="#3F3D56"/>
<path d="M308.56 353.742C245.085 353.742 193.444 302.167 193.444 238.773C193.407 209.768 204.383 181.828 224.16 160.588L226.709 162.951C207.53 183.549 196.885 210.645 196.922 238.773C196.922 300.252 247.003 350.269 308.56 350.269C323.517 350.319 338.329 347.344 352.103 341.521C365.877 335.699 378.328 327.15 388.704 316.392L391.201 318.809C380.501 329.903 367.663 338.718 353.46 344.722C339.256 350.726 323.983 353.794 308.56 353.742Z" fill="#000000"/>
<path d="M325.253 351.311H296.04V380.487H325.253V351.311Z" fill="#000000"/>
<path d="M228.174 175.654C228.224 175.675 228.271 175.703 228.313 175.737C228.862 176.189 228.174 177.057 228.257 177.773C228.355 178.69 229.579 178.891 230.504 178.982C231.429 179.079 232.597 179.822 232.159 180.642C229.836 181.441 227.485 180.656 225.113 179.746C212.848 196.988 206.275 217.622 206.312 238.773C206.312 240.968 206.382 243.144 206.521 245.303C206.715 245.444 206.928 245.559 207.154 245.643C207.849 245.907 208.656 245.858 209.296 246.233C209.804 246.532 210.145 247.06 210.653 247.338C212.106 248.13 214.123 246.609 215.48 247.553C215.83 247.872 216.162 248.211 216.474 248.568C217.726 249.651 219.785 248.922 221.232 249.735C222.164 250.256 222.644 251.298 223.145 252.242C224.39 254.604 226.407 256.925 229.071 257.112C229.911 257.074 230.753 257.102 231.589 257.196C232.41 257.383 233.217 258.099 233.084 258.925C232.855 260.349 233.557 261.905 233.37 263.33C233.029 265.935 229.335 267.074 229.022 269.679C229.021 270.252 228.989 270.825 228.925 271.395C228.758 272.076 228.243 272.631 228.062 273.312C227.715 274.597 228.64 275.882 229.648 276.744C230.664 277.612 231.874 278.362 232.431 279.571C233.015 280.856 232.73 282.35 232.917 283.746C233.335 286.796 235.971 289.054 238.684 290.512C239.553 290.875 240.325 291.437 240.937 292.152C241.633 293.159 241.563 294.486 241.8 295.688C242.37 298.626 244.846 301.051 244.916 304.045C244.965 306.177 243.782 308.109 243.073 310.116C242.343 312.221 242.126 314.469 242.44 316.674C246.406 320.033 250.621 323.087 255.05 325.809C255.291 325.454 255.468 325.059 255.572 324.642C255.656 324.181 255.598 323.706 255.405 323.279C255.213 322.853 254.895 322.494 254.494 322.252C255.241 321.97 255.921 321.535 256.49 320.974C256.769 320.687 256.954 320.321 257.019 319.926C257.083 319.531 257.025 319.126 256.852 318.765C258.076 318.918 259.53 318.994 260.336 318.056C260.983 317.306 260.942 316.181 260.684 315.229C260.331 314.304 260.097 313.337 259.989 312.353C262.825 312.491 265.668 312.396 268.488 312.068C268.08 310.694 267.152 309.533 265.901 308.831C267.181 308.616 268.342 307.087 268.746 305.858C269.095 304.603 269.114 303.28 268.801 302.016C268.705 301.691 268.69 301.348 268.76 301.016C268.966 300.575 269.327 300.226 269.775 300.036C271.89 298.821 274.004 297.607 276.119 296.396C276.496 296.206 276.839 295.955 277.134 295.653C277.795 294.868 277.698 293.694 277.357 292.728C277.016 291.763 276.474 290.853 276.341 289.839C275.952 286.803 279.207 284.621 280.306 281.759C280.68 280.617 280.881 279.425 280.904 278.223C280.995 276.931 281.002 275.438 280.014 274.611C279.061 273.812 277.579 273.993 276.585 273.25C275.674 272.569 275.361 271.256 274.366 270.707C273.462 270.207 272.335 270.526 271.326 270.29C269.56 269.88 268.447 267.845 266.638 267.657C265.623 267.546 264.468 268.046 263.633 267.456C262.896 266.928 262.868 265.879 262.729 264.99C262.482 263.605 261.817 262.329 260.822 261.333C259.827 260.337 258.551 259.669 257.165 259.418C256.114 259.252 254.974 259.314 254.076 258.738C253.172 258.154 252.762 257.064 252.045 256.251C250.905 254.952 249.096 254.486 247.406 254.09C245.111 253.555 242.818 253.018 240.527 252.479C239.31 252.187 237.738 252.034 237.077 253.104C236.881 253.511 236.745 253.943 236.673 254.389C236.425 255.191 235.93 255.894 235.258 256.398C234.586 256.902 233.772 257.181 232.931 257.196C232.356 256.215 231.424 255.493 230.33 255.181C229.615 255.061 228.908 254.894 228.215 254.681C227.854 254.504 227.532 254.255 227.269 253.949C227.007 253.643 226.81 253.288 226.69 252.903C226.57 252.519 226.53 252.114 226.573 251.714C226.615 251.314 226.738 250.926 226.936 250.575C227.33 249.87 227.482 249.055 227.367 248.256C227.253 247.456 226.879 246.717 226.303 246.15C225.134 245.101 223.444 244.844 221.872 244.948C221.462 244.052 222.15 243.045 222.887 242.392C223.632 241.746 224.529 241.107 224.689 240.134C224.946 238.606 222.992 237.446 221.51 237.897C220.029 238.356 219.083 239.794 218.457 241.211C218.153 242.047 217.739 242.839 217.226 243.566C216.962 243.925 216.605 244.205 216.192 244.374C215.78 244.544 215.329 244.596 214.888 244.525C213.664 244.212 213.198 242.76 212.927 241.537C212.492 239.903 212.273 238.22 212.273 236.529C212.284 234.821 212.963 233.186 214.165 231.972C216.189 230.11 219.305 230.291 222.039 230.589C221.746 230.199 221.606 229.716 221.644 229.23C221.683 228.744 221.897 228.289 222.248 227.95C222.613 227.625 223.053 227.395 223.528 227.279C224.003 227.162 224.5 227.164 224.974 227.283C225.798 227.453 226.541 227.896 227.082 228.54C227.861 229.485 228.083 230.77 228.668 231.84C229.259 232.916 230.58 233.833 231.659 233.257C232.598 232.757 232.744 231.465 232.514 230.429C232.278 229.401 231.784 228.394 231.867 227.338C232.027 225.331 234.121 224.115 235.964 223.288C237.807 222.462 239.915 221.343 240.207 219.342C240.22 218.953 240.296 218.569 240.43 218.203C240.634 217.877 240.919 217.609 241.257 217.425C246.634 213.875 252.108 210.277 258.257 208.339C258.577 208.234 258.612 208.346 258.938 208.269C259.398 208.005 259.091 207.276 258.653 206.984C258.215 206.692 257.631 206.463 257.52 205.949C257.443 205.574 257.666 205.199 257.721 204.817C257.736 204.586 257.693 204.355 257.598 204.144C257.502 203.934 257.356 203.75 257.173 203.609C256.99 203.467 256.775 203.373 256.546 203.334C256.318 203.295 256.084 203.313 255.864 203.386C255.37 202.733 256.344 201.975 257.137 201.753C259.511 201.104 261.948 200.708 264.406 200.572C264.689 200.525 264.981 200.574 265.233 200.711C265.414 200.885 265.521 201.122 265.533 201.373C265.544 201.623 265.46 201.869 265.296 202.059C264.961 202.43 264.591 202.767 264.19 203.066C263.791 203.453 263.506 203.942 263.366 204.48C263.226 205.018 263.237 205.584 263.397 206.116C264.684 206.769 266.075 207.443 267.501 207.213C268.92 206.984 270.179 205.386 269.511 204.115C268.892 202.927 267.021 202.656 266.701 201.357C266.325 199.836 268.482 198.481 267.995 196.995C267.786 196.342 267.132 195.953 266.631 195.487C266.042 194.908 265.641 194.164 265.481 193.354C265.321 192.543 265.409 191.704 265.734 190.944C264.92 191.086 264.083 191.031 263.294 190.785C262.505 190.538 261.787 190.107 261.199 189.527C260.114 188.436 259.251 186.706 257.707 186.762C256.295 186.804 255.078 188.45 253.757 187.95C253.43 187.825 253.089 187.575 252.776 187.721C252.673 187.787 252.586 187.876 252.522 187.98C252.458 188.085 252.419 188.203 252.407 188.325C252.073 189.93 252.651 191.757 251.774 193.146C250.821 194.653 248.616 194.862 247.462 196.223C246.836 196.96 246.592 197.953 246.015 198.731C245.438 199.509 244.22 200.009 243.525 199.329C243.865 198.631 243.959 197.839 243.789 197.082C243.62 196.324 243.198 195.647 242.593 195.161C241.952 194.741 241.26 194.404 240.534 194.16C239.723 193.818 238.951 193.39 238.232 192.882C237.873 192.664 237.582 192.352 237.39 191.979C237.238 191.51 237.258 191.003 237.446 190.548C237.798 189.545 238.417 188.656 239.237 187.978C240.057 187.3 241.046 186.858 242.099 186.699C243.017 186.574 244.088 186.616 244.7 185.914C245.02 185.546 245.187 184.984 245.66 184.838C245.958 184.776 246.268 184.812 246.544 184.942C247.691 185.345 248.832 185.748 249.98 186.151C250.362 186.326 250.785 186.395 251.204 186.352C251.411 186.325 251.601 186.221 251.734 186.059C251.867 185.898 251.934 185.692 251.92 185.484C251.809 184.914 250.933 184.643 251.016 184.067C251.057 183.878 251.156 183.708 251.301 183.58C252.542 182.262 254.059 181.235 255.743 180.571C257.428 179.906 259.239 179.622 261.046 179.739C261.477 180.454 260.796 181.295 260.218 181.899C259.648 182.51 259.189 183.594 259.884 184.06C260.165 184.207 260.479 184.278 260.796 184.268C261.641 184.381 262.463 184.63 263.23 185.004C264.419 185.518 265.588 186.088 266.729 186.699C266.561 185.955 266.59 185.179 266.812 184.449C266.938 184.09 267.193 183.791 267.527 183.61C267.861 183.429 268.251 183.379 268.621 183.469C269.302 183.733 269.65 184.636 270.38 184.72C271.347 184.831 271.73 183.4 271.326 182.511C270.923 181.621 270.116 180.885 270.054 179.905C270.005 179.252 270.255 178.44 269.734 178.044C269.548 177.921 269.336 177.845 269.115 177.821C264.746 177.023 260.376 176.221 256.003 175.418C255.224 175.272 254.104 175.383 254.07 176.168C254.049 176.613 254.445 177.05 254.271 177.453C254.083 177.884 253.471 177.849 253.026 178.002C252.692 178.154 252.416 178.41 252.24 178.732C252.064 179.054 251.998 179.425 252.052 179.787C252.171 180.51 252.452 181.196 252.873 181.795C252.018 181.441 250.731 181.378 249.875 181.017C249.751 180.028 249.498 179.058 249.124 178.134C249.103 177.987 249.049 177.846 248.968 177.722C248.886 177.598 248.778 177.493 248.651 177.415C248.525 177.336 248.382 177.287 248.235 177.27C248.087 177.252 247.937 177.268 247.796 177.314C246.669 177.488 245.542 177.655 244.415 177.828C244.132 177.842 243.861 177.947 243.643 178.127C243.205 178.593 243.636 179.336 243.622 179.975C243.581 180.332 243.43 180.668 243.19 180.936C242.949 181.203 242.631 181.39 242.28 181.468C241.572 181.612 240.841 181.603 240.137 181.441C238.558 181.198 236.987 180.954 235.408 180.711C236.801 180.268 238.041 179.439 238.983 178.322C239.609 177.585 239.943 176.21 239.038 175.862C238.771 175.789 238.493 175.768 238.218 175.8C236.075 175.814 234.385 174.028 232.382 173.271C231.752 173.037 231.086 172.914 230.413 172.91L228.174 175.654Z" fill="#000000"/>
<path d="M410.675 243.969C410.43 244.298 410.108 244.561 409.737 244.737C409.366 244.913 408.957 244.995 408.547 244.976C406.37 244.789 405.452 241.656 403.295 241.301C403.105 241.252 402.903 241.272 402.725 241.357C402.405 241.531 402.349 241.961 402.329 242.322C402.238 244.115 402.162 245.976 402.864 247.63C403.887 250.047 406.537 252.076 405.98 254.639C402.989 253.257 401.431 249.901 400.729 246.685C400.019 243.469 399.908 240.093 398.642 237.05C397.675 238.279 395.658 237.265 394.782 235.973C393.947 234.75 393.432 233.333 392.625 232.09C391.819 230.853 390.58 229.742 389.106 229.672C387.555 229.603 386.205 230.666 385.023 231.673C383.994 232.432 383.131 233.391 382.484 234.493C381.656 236.161 381.872 238.12 381.83 239.974C381.789 241.975 381.364 244.094 379.994 245.567C378.624 247.032 376.099 247.546 374.59 246.22C373.86 245.46 373.34 244.524 373.08 243.503C371.439 238.727 370.074 233.861 368.99 228.929C368.74 230.054 367.745 231.506 366.799 230.846C366.588 230.667 366.417 230.444 366.298 230.193C364.532 227.213 361.27 225.421 357.966 224.344C354.669 223.274 351.198 222.774 347.936 221.593C346.106 220.93 344.358 220.06 342.726 219.002C342.311 219.612 342.069 220.323 342.025 221.059C341.981 221.795 342.136 222.529 342.475 223.184C342.842 223.825 343.41 224.327 344.092 224.612C344.774 224.897 345.531 224.95 346.245 224.761C346.969 224.525 347.581 224.025 348.297 223.774C349.014 223.531 349.981 223.649 350.294 224.344C350.6 225.004 350.141 225.803 350.37 226.498C350.711 227.547 352.304 227.63 352.86 228.589C353.024 228.968 353.061 229.39 352.967 229.793C352.874 230.195 352.653 230.557 352.338 230.825C351.698 231.347 350.992 231.781 350.238 232.118C347.901 233.417 346.238 235.633 344.193 237.355C342.148 239.085 339.262 240.343 336.827 239.238C337.405 236.3 333.906 234.146 333.259 231.221C333.044 230.256 333.155 229.235 332.856 228.297C332.418 226.935 331.207 226.004 330.22 224.976C329.02 223.714 328.085 222.225 327.469 220.596C326.854 218.968 326.571 217.233 326.637 215.494C326.693 214.285 326.916 213.056 326.637 211.875C326.366 210.701 325.385 209.561 324.175 209.61C321.414 209.735 317.929 209.943 316.482 207.588C315.961 206.748 315.738 205.518 316.489 204.872C316.783 204.686 317.11 204.561 317.453 204.502C317.796 204.444 318.147 204.454 318.485 204.532C320.565 204.733 322.638 204.942 324.718 205.143C326.171 205.282 327.743 205.4 328.995 204.643C330.247 203.886 330.79 201.864 329.628 200.968C328.787 200.315 327.27 200.35 327.02 199.315C326.818 198.446 327.778 197.467 327.257 196.737C326.888 196.223 326.053 196.362 325.545 196.751C325.102 197.211 324.621 197.631 324.106 198.009C323.111 198.523 321.929 198.03 320.857 197.696C319.786 197.363 318.353 197.335 317.839 198.328C317.254 199.433 318.346 200.892 317.776 202.003C317.011 203.469 314.437 202.635 313.366 203.9C312.142 205.345 314.201 207.512 313.79 209.36C313.262 209.622 312.675 209.742 312.086 209.709C311.497 209.676 310.927 209.491 310.431 209.172C309.944 208.842 309.556 208.385 309.309 207.852C309.062 207.319 308.964 206.728 309.026 206.143C309.123 205.31 309.561 204.455 309.269 203.67C308.954 203.064 308.434 202.589 307.802 202.33C305.784 201.211 303.767 200.097 301.75 198.988C301.187 200.03 301.896 201.315 302.787 202.1C303.67 202.878 304.783 203.469 305.367 204.497C305.737 205.21 305.821 206.036 305.601 206.808C305.381 207.58 304.875 208.24 304.185 208.651C304.097 208.711 303.998 208.752 303.894 208.77C303.789 208.788 303.682 208.783 303.58 208.755C303.483 208.699 303.399 208.624 303.332 208.534C303.265 208.445 303.217 208.343 303.19 208.234C302.126 205.504 300.519 202.816 297.959 201.392C295.393 199.961 291.713 200.259 290.03 202.656C289.634 203.226 289.362 203.879 289.014 204.483C287.171 207.686 283.207 209.2 279.506 209.103C279.144 209.126 278.784 209.041 278.47 208.86C277.872 208.45 277.899 207.574 277.99 206.852C278.122 205.831 278.247 204.817 278.379 203.795C278.383 203.172 278.624 202.573 279.054 202.121C279.743 201.579 280.73 201.92 281.607 201.906C282.268 201.876 282.904 201.644 283.429 201.24C283.953 200.836 284.339 200.28 284.535 199.648C284.711 199.011 284.71 198.337 284.531 197.701C284.352 197.064 284.002 196.488 283.52 196.036C283.123 195.661 282.588 195.188 282.796 194.681C282.881 194.541 282.995 194.422 283.131 194.331C283.267 194.24 283.421 194.179 283.582 194.153C285.147 193.702 286.81 193.584 288.347 193.042C289.891 192.507 291.386 191.409 291.755 189.818C291.866 189.332 291.915 188.742 292.353 188.499C292.575 188.41 292.81 188.363 293.049 188.36C293.885 188.24 294.646 187.812 295.183 187.16C295.72 186.509 295.993 185.68 295.949 184.838C296.687 184.324 297.723 184.706 298.439 185.254C299.149 185.803 299.782 186.526 300.651 186.762C302.272 187.206 303.837 185.768 305.52 185.761C306.23 185.761 306.96 186.012 307.621 185.768C308.295 185.525 308.699 184.858 309.214 184.365C309.735 183.865 310.64 183.566 311.119 184.101C310.98 183.094 310.848 182.094 310.709 181.093C311.529 181.299 312.383 181.328 313.214 181.177C314.046 181.026 314.835 180.699 315.529 180.218C313.777 179.627 312.031 179.037 310.278 178.447C310.094 178.401 309.924 178.31 309.784 178.183C309.401 177.773 309.784 177.134 310.09 176.668C310.834 175.55 310.96 173.709 309.735 173.153C308.901 172.771 307.948 173.23 307.148 173.674C305.868 174.383 304.588 175.098 303.308 175.807C303.19 176.536 304.08 176.953 304.63 177.439C304.965 177.736 305.202 178.127 305.31 178.561C305.418 178.994 305.392 179.451 305.235 179.87C305.079 180.288 304.799 180.65 304.433 180.907C304.066 181.164 303.631 181.304 303.183 181.309C303.435 181.637 303.61 182.018 303.696 182.423C303.781 182.828 303.775 183.247 303.677 183.65C302.821 183.712 301.959 183.775 301.096 183.837C300.953 183.866 300.806 183.866 300.662 183.837C300.519 183.808 300.383 183.752 300.262 183.67C299.984 183.427 300.025 182.997 299.956 182.635C299.841 182.204 299.6 181.816 299.262 181.523C298.925 181.229 298.508 181.043 298.064 180.989C297.178 180.89 296.28 180.972 295.428 181.232C295.057 181.363 294.651 181.353 294.287 181.204C294.08 181.068 293.924 180.868 293.842 180.635C293.69 180.158 293.665 179.651 293.767 179.162C293.869 178.673 294.096 178.218 294.426 177.842C295.094 177.101 295.83 176.425 296.624 175.821C298.424 174.247 299.747 172.202 300.443 169.916C301.862 169.318 303.329 168.513 304.755 167.915C305.901 167.385 307.103 166.982 308.337 166.713C309.499 166.536 310.676 166.48 311.85 166.547C313.45 166.574 315.056 166.602 316.656 166.637C318.084 166.577 319.511 166.782 320.864 167.241C322.179 167.783 323.341 168.957 323.431 170.374C323.458 170.536 323.444 170.702 323.389 170.856C323.334 171.01 323.241 171.148 323.118 171.257C322.933 171.359 322.724 171.407 322.513 171.396C321.184 171.437 320.621 171.771 319.292 171.819C320.134 172.715 321.08 173.66 322.304 173.82C324.46 174.098 326.011 171.868 327.006 169.93C327.042 170.423 327.269 170.883 327.639 171.211C328.01 171.54 328.494 171.71 328.988 171.687C329.521 171.596 330.03 171.397 330.484 171.104C334.762 168.769 339.555 167.532 344.43 167.505C344.382 167.137 344.473 166.763 344.685 166.458C344.897 166.152 345.215 165.936 345.578 165.852C346.572 165.657 347.463 166.512 347.943 167.401C348.416 168.29 348.715 169.318 349.48 169.985C350.238 170.652 351.706 170.617 352.005 169.659C352.297 168.735 351.33 167.943 350.53 167.394C349.723 166.852 348.882 165.845 349.424 165.039C353.514 164.129 357.639 163.226 361.833 163.045C362.546 163.067 363.256 162.944 363.92 162.684C364.248 162.545 364.522 162.302 364.698 161.991C364.874 161.681 364.943 161.322 364.893 160.968C363.978 161.182 363.02 161.119 362.141 160.787C361.262 160.456 360.501 159.871 359.955 159.107C364.26 158.752 368.768 158.44 372.906 159.405L376.53 162.476C375.842 163.191 374.923 163.865 375.424 164.581C375.589 164.745 375.79 164.87 376.01 164.946C376.231 165.021 376.466 165.046 376.697 165.018C377.574 165.032 378.45 165.053 379.319 165.053C397.31 182.24 408.384 205.407 410.453 230.186C408.992 230.131 407.65 231.979 407.837 233.59C408.06 235.459 409.409 236.959 410.376 238.571C410.536 238.833 410.68 239.105 410.807 239.384L410.675 243.969Z" fill="#000000"/>
<path d="M219.069 47.7922C223.942 47.7922 227.892 43.8469 227.892 38.98C227.892 34.1131 223.942 30.1678 219.069 30.1678C214.196 30.1678 210.245 34.1131 210.245 38.98C210.245 43.8469 214.196 47.7922 219.069 47.7922Z" stroke="#3F3D56" stroke-width="2" stroke-miterlimit="10"/>
<path d="M479.785 215.61C484.658 215.61 488.608 211.664 488.608 206.797C488.608 201.93 484.658 197.985 479.785 197.985C474.912 197.985 470.962 201.93 470.962 206.797C470.962 211.664 474.912 215.61 479.785 215.61Z" stroke="#3F3D56" stroke-width="2" stroke-miterlimit="10"/>
<path d="M419.549 127.819C424.422 127.819 428.373 123.874 428.373 119.007C428.373 114.14 424.422 110.195 419.549 110.195C414.676 110.195 410.726 114.14 410.726 119.007C410.726 123.874 414.676 127.819 419.549 127.819Z" stroke="#3F3D56" stroke-width="2" stroke-miterlimit="10"/>
<path d="M361.659 203.34C367.127 203.34 371.561 198.912 371.561 193.451C371.561 187.989 367.127 183.561 361.659 183.561C356.19 183.561 351.757 187.989 351.757 193.451C351.757 198.912 356.19 203.34 361.659 203.34Z" fill="#3F3D56"/>
<path d="M393.466 174.7C400.674 174.7 406.518 168.864 406.518 161.664C406.518 154.465 400.674 148.629 393.466 148.629C386.257 148.629 380.413 154.465 380.413 161.664C380.413 168.864 386.257 174.7 393.466 174.7Z" fill="white"/>
<path d="M406.666 148.15C403.162 144.737 398.445 142.853 393.551 142.914C388.657 142.975 383.988 144.974 380.571 148.473C373.454 155.759 363.294 192.554 363.294 192.554C363.294 192.554 399.872 181.498 406.989 174.212C410.406 170.713 412.292 166.002 412.232 161.114C412.171 156.227 410.169 151.563 406.666 148.15ZM387.494 167.778C386.283 166.598 385.45 165.087 385.1 163.434C384.749 161.782 384.897 160.062 385.525 158.494C386.153 156.925 387.232 155.578 388.627 154.622C390.021 153.667 391.668 153.145 393.36 153.124C395.051 153.103 396.71 153.584 398.128 154.505C399.546 155.426 400.658 156.746 401.325 158.299C401.992 159.851 402.182 161.566 401.873 163.227C401.563 164.887 400.768 166.419 399.587 167.628C398.003 169.25 395.839 170.176 393.571 170.204C391.304 170.233 389.117 169.36 387.494 167.778Z" fill="#57B894"/>
</svg>
