<svg width="500" height="384" viewBox="0 0 500 384" fill="none" xmlns="http://www.w3.org/2000/svg">
<g clip-path="url(#clip0)">
<path d="M500 337.95H0V338.2H500V337.95Z" fill="#EBEBEB"/>
<path d="M449.9 354.05H416.78V354.3H449.9V354.05Z" fill="#EBEBEB"/>
<path d="M331.22 356.76H322.53V357.01H331.22V356.76Z" fill="#EBEBEB"/>
<path d="M415.78 344.76H396.59V345.01H415.78V344.76Z" fill="#EBEBEB"/>
<path d="M95.65 346.44H52.46V346.69H95.65V346.44Z" fill="#EBEBEB"/>
<path d="M110.89 346.44H104.56V346.69H110.89V346.44Z" fill="#EBEBEB"/>
<path d="M225.15 350.67H131.47V350.92H225.15V350.67Z" fill="#EBEBEB"/>
<path d="M237 293.36H43.91C42.3982 293.355 40.9499 292.751 39.8818 291.681C38.8137 290.611 38.2127 289.162 38.21 287.65V16.22C38.21 14.7074 38.8102 13.2565 39.8789 12.186C40.9476 11.1154 42.3974 10.5127 43.91 10.51H237C238.514 10.51 239.967 11.1116 241.038 12.1824C242.108 13.2533 242.71 14.7056 242.71 16.22V287.65C242.707 289.164 242.105 290.614 241.035 291.685C239.964 292.755 238.514 293.357 237 293.36ZM43.91 10.76C42.4637 10.7627 41.0775 11.3391 40.0557 12.3627C39.0339 13.3864 38.46 14.7737 38.46 16.22V287.65C38.46 289.096 39.0339 290.484 40.0557 291.507C41.0775 292.531 42.4637 293.107 43.91 293.11H237C238.447 293.107 239.835 292.531 240.858 291.508C241.881 290.484 242.457 289.097 242.46 287.65V16.22C242.457 14.7727 241.881 13.3855 240.858 12.3621C239.835 11.3388 238.447 10.7627 237 10.76H43.91Z" fill="#EBEBEB"/>
<path d="M453.31 293.36H260.21C258.697 293.355 257.248 292.751 256.178 291.682C255.109 290.612 254.505 289.163 254.5 287.65V16.22C254.503 14.7064 255.105 13.2556 256.175 12.1854C257.246 11.1151 258.696 10.5127 260.21 10.51H453.31C454.821 10.5153 456.268 11.1192 457.335 12.1895C458.401 13.2597 459 14.7091 459 16.22V287.65C458.997 289.16 458.398 290.608 457.332 291.678C456.266 292.747 454.82 293.352 453.31 293.36ZM260.21 10.76C258.763 10.7627 257.375 11.3388 256.352 12.3621C255.329 13.3855 254.753 14.7727 254.75 16.22V287.65C254.753 289.097 255.329 290.484 256.352 291.508C257.375 292.531 258.763 293.107 260.21 293.11H453.31C454.757 293.107 456.145 292.531 457.168 291.508C458.191 290.484 458.767 289.097 458.77 287.65V16.22C458.767 14.7727 458.191 13.3855 457.168 12.3621C456.145 11.3388 454.757 10.7627 453.31 10.76H260.21Z" fill="#EBEBEB"/>
<path d="M393.93 101.86L285.09 65.1L285 65.02L227.5 6.07999L181.38 48.2L180.71 47.46L227.54 4.67999L285.63 64.23L393.55 100.68L437.85 39.74L438.66 40.33L393.93 101.86Z" fill="#F0F0F0"/>
<path d="M55.61 192.34C55.6179 193.406 55.3092 194.45 54.7228 195.34C54.1365 196.23 53.2991 196.926 52.3167 197.339C51.3344 197.752 50.2514 197.865 49.2052 197.661C48.1589 197.458 47.1966 196.949 46.4401 196.198C45.6837 195.448 45.1674 194.489 44.9565 193.444C44.7457 192.4 44.8498 191.316 45.2558 190.331C45.6618 189.345 46.3513 188.502 47.2369 187.91C48.1225 187.317 49.1643 187 50.23 187C51.65 187 53.0124 187.561 54.0202 188.562C55.028 189.562 55.5995 190.92 55.61 192.34Z" fill="#F0F0F0"/>
<path d="M232.9 5.38C232.9 6.44406 232.584 7.48423 231.993 8.36897C231.402 9.2537 230.562 9.94327 229.579 10.3505C228.596 10.7577 227.514 10.8642 226.47 10.6566C225.427 10.449 224.468 9.93664 223.716 9.18423C222.963 8.43183 222.451 7.4732 222.243 6.42959C222.036 5.38597 222.142 4.30423 222.55 3.32116C222.957 2.3381 223.646 1.49786 224.531 0.906693C225.416 0.315531 226.456 0 227.52 0C228.947 0 230.315 0.56682 231.324 1.57577C232.333 2.58471 232.9 3.95314 232.9 5.38Z" fill="#F0F0F0"/>
<path d="M443.63 40C443.63 41.0641 443.314 42.1042 442.723 42.989C442.132 43.8737 441.292 44.5633 440.309 44.9705C439.326 45.3777 438.244 45.4842 437.2 45.2766C436.157 45.069 435.198 44.5566 434.446 43.8042C433.693 43.0518 433.181 42.0932 432.973 41.0496C432.766 40.006 432.872 38.9242 433.28 37.9412C433.687 36.9581 434.376 36.1179 435.261 35.5267C436.146 34.9355 437.186 34.62 438.25 34.62C439.677 34.62 441.045 35.1868 442.054 36.1958C443.063 37.2047 443.63 38.5731 443.63 40Z" fill="#F0F0F0"/>
<path d="M444.1 323.94C444.1 325.004 443.784 326.044 443.193 326.929C442.602 327.814 441.762 328.503 440.779 328.91C439.796 329.318 438.714 329.424 437.67 329.217C436.627 329.009 435.668 328.497 434.916 327.744C434.163 326.992 433.651 326.033 433.443 324.99C433.236 323.946 433.342 322.864 433.75 321.881C434.157 320.898 434.846 320.058 435.731 319.467C436.616 318.876 437.656 318.56 438.72 318.56C440.147 318.56 441.515 319.127 442.524 320.136C443.533 321.145 444.1 322.513 444.1 323.94Z" fill="#F0F0F0"/>
<path d="M290.74 64.67C290.74 65.734 290.424 66.7742 289.833 67.659C289.242 68.5437 288.402 69.2333 287.419 69.6405C286.436 70.0477 285.354 70.1542 284.31 69.9466C283.267 69.739 282.308 69.2266 281.556 68.4742C280.803 67.7218 280.291 66.7632 280.083 65.7196C279.876 64.676 279.982 63.5942 280.39 62.6112C280.797 61.6281 281.486 60.7878 282.371 60.1967C283.256 59.6055 284.296 59.29 285.36 59.29C286.067 59.2887 286.767 59.4269 287.42 59.6968C288.074 59.9667 288.667 60.363 289.167 60.8628C289.667 61.3627 290.063 61.9563 290.333 62.6096C290.603 63.2629 290.741 63.9631 290.74 64.67Z" fill="#F0F0F0"/>
<path d="M191.35 324.08L190.94 324L56.02 298.52L56.2 297.54L190.71 322.94L284.89 64.49L285.83 64.84L191.35 324.08Z" fill="#F0F0F0"/>
<path d="M62.4744 88.4774L61.8114 89.226L107.843 129.995L108.506 129.246L62.4744 88.4774Z" fill="#F0F0F0"/>
<path d="M438.46 324.37L371.75 283.02L373.21 282.63L443.29 215.2L393.28 101.47L394.2 101.07L444.49 215.44L444.24 215.68L374.01 283.25L438.98 323.51L438.46 324.37Z" fill="#F0F0F0"/>
<path d="M56.53 298.3L55.69 297.76L96.01 235.49L49.53 192.37L49.87 192L108.08 128.97L108.43 129.18L373.71 282.64L373.21 283.51L108.27 130.24L50.94 192.32L97.3 235.32L56.53 298.3Z" fill="#F0F0F0"/>
<path d="M250 383.11C357.082 383.11 443.89 378.042 443.89 371.79C443.89 365.538 357.082 360.47 250 360.47C142.917 360.47 56.11 365.538 56.11 371.79C56.11 378.042 142.917 383.11 250 383.11Z" fill="#F5F5F5"/>
<path d="M241 254.69C243.667 254.91 246.333 255 249 254.96C269.177 254.643 288.514 246.831 303.25 233.044C317.985 219.257 327.064 200.481 328.72 180.37C328.72 179.88 328.8 179.37 328.83 178.89C329.48 168.994 328.307 159.062 325.37 149.59C320.98 135.463 312.822 122.801 301.772 112.965C290.723 103.13 277.2 96.4933 262.66 93.77C259.93 93.2657 257.177 92.8986 254.41 92.67C243.665 91.5847 232.812 92.6512 222.485 95.8071C212.157 98.9631 202.561 104.145 194.259 111.051C185.956 117.957 179.112 126.448 174.128 136.028C169.143 145.608 166.117 156.085 165.227 166.847C164.337 177.61 165.6 188.442 168.943 198.711C172.286 208.98 177.641 218.479 184.696 226.656C191.751 234.832 200.365 241.52 210.034 246.33C219.703 251.14 230.233 253.975 241.01 254.67L241 254.69Z" fill="#000000"/>
<g opacity="0.7">
<path opacity="0.7" d="M241 254.69C243.667 254.91 246.333 255 249 254.96C269.177 254.643 288.514 246.831 303.25 233.044C317.985 219.257 327.064 200.481 328.72 180.37C328.72 179.88 328.8 179.37 328.83 178.89C329.48 168.994 328.307 159.062 325.37 149.59C320.98 135.463 312.822 122.801 301.772 112.965C290.723 103.13 277.2 96.4933 262.66 93.77C259.93 93.2657 257.177 92.8986 254.41 92.67C243.665 91.5847 232.812 92.6512 222.485 95.8071C212.157 98.9631 202.561 104.145 194.259 111.051C185.956 117.957 179.112 126.448 174.128 136.028C169.143 145.608 166.117 156.085 165.227 166.847C164.337 177.61 165.6 188.442 168.943 198.711C172.286 208.98 177.641 218.479 184.696 226.656C191.751 234.832 200.365 241.52 210.034 246.33C219.703 251.14 230.233 253.975 241.01 254.67L241 254.69Z" fill="white"/>
</g>
<path d="M186.82 193.5C186.55 195.01 184.63 195.55 183.08 195.75L176.08 196.61C174.98 193.73 171.56 193.7 169.16 194.83C173.52 210.987 182.759 225.406 195.615 236.119C208.472 246.832 224.321 253.317 241 254.69C243.667 254.91 246.333 255 249 254.96C249.049 254.897 249.093 254.83 249.13 254.76C250.35 252.63 248.59 250.76 247.65 249C247.44 248.6 245.44 243.57 246.1 243.55C243.961 243.597 241.827 243.321 239.77 242.73C239.611 242.705 239.467 242.619 239.37 242.49C239.17 242.16 239.64 241.83 240.01 241.75C241.01 241.52 241.96 241.47 242.9 241.19C243.381 241.079 243.831 240.862 244.219 240.556C244.606 240.25 244.921 239.862 245.14 239.42C245.51 238.5 245.23 237.42 245.44 236.49C245.604 235.907 245.896 235.368 246.296 234.913C246.696 234.457 247.193 234.098 247.75 233.86C248.822 233.415 249.949 233.116 251.1 232.97C248.65 231.63 250.44 228.84 248.51 226.97C247.89 226.37 246.99 225.64 247.37 224.87C247.75 224.1 249.03 224.15 249.19 223.34C249.3 222.78 248.71 222.34 248.19 222.19C247.62 222.15 247.058 222.032 246.52 221.84C246.35 221.735 246.203 221.597 246.088 221.435C245.972 221.272 245.89 221.088 245.846 220.894C245.802 220.699 245.798 220.498 245.833 220.301C245.868 220.105 245.942 219.917 246.05 219.75C246.47 219.16 247.25 218.98 247.89 218.64C248.53 218.3 249.1 217.51 248.72 216.9C248.625 216.756 248.499 216.637 248.35 216.55C247.35 215.91 245.94 216.45 244.93 217.13C243.92 217.81 242.93 218.67 241.66 218.65C241.593 218.534 241.551 218.405 241.535 218.272C241.519 218.139 241.53 218.004 241.568 217.875C241.605 217.747 241.668 217.627 241.752 217.523C241.837 217.419 241.942 217.333 242.06 217.27C242.236 217.215 242.402 217.131 242.55 217.02C242.84 216.72 242.63 216.24 242.43 215.89C241.51 214.174 241.309 212.164 241.87 210.3L249.31 210.44C249.37 209.89 249.43 209.55 250.03 209.38C248.261 207.468 246.592 205.465 245.03 203.38C244.879 203.106 244.649 202.883 244.37 202.74C244.039 202.692 243.704 202.675 243.37 202.69C242.3 202.55 242.13 201.08 242.24 200C242.08 199.67 241.56 199.82 241.36 200.12C241.16 200.42 241.11 200.81 240.87 201.12C240.664 201.292 240.412 201.4 240.146 201.43C239.879 201.46 239.609 201.412 239.37 201.29C238.511 200.918 237.831 200.223 237.478 199.356C237.125 198.488 237.125 197.517 237.48 196.65C237.557 196.443 237.697 196.265 237.88 196.14C238.31 195.89 238.82 196.19 239.3 196.28C241.2 196.62 240.91 194.52 240.46 193.53C239.84 192.18 237.99 191.32 236.65 190.97C235.08 190.57 224.65 188.57 226.33 185.16C226.514 184.848 226.8 184.608 227.14 184.48C228.191 184.2 229.26 183.996 230.34 183.87C231.34 183.57 232.4 182.48 231.94 181.49C231.76 181.1 231.38 180.82 231.17 180.49C230.58 179.43 231.49 178.05 231.07 176.91C230.805 176.418 230.497 175.949 230.15 175.51C229.87 175.03 229.82 174.3 230.3 174.01C230.78 173.72 231.57 174.17 232.14 173.91C232.268 173.817 232.372 173.696 232.444 173.555C232.516 173.414 232.554 173.258 232.554 173.1C232.554 172.942 232.516 172.786 232.444 172.645C232.372 172.504 232.268 172.383 232.14 172.29C231.853 172.129 231.524 172.055 231.196 172.079C230.867 172.102 230.552 172.22 230.29 172.42C230.037 172.654 229.732 172.825 229.4 172.92C228.79 173 228.33 172.39 228.02 171.86L226.53 169.32C226.252 169.361 225.993 169.482 225.783 169.669C225.574 169.855 225.423 170.099 225.35 170.37C225.16 170.9 225.12 171.48 224.91 172C223.85 174.5 220.04 174.21 220.53 177.64C220.782 177.629 221.032 177.676 221.263 177.778C221.493 177.88 221.696 178.034 221.857 178.227C222.018 178.421 222.132 178.649 222.189 178.895C222.247 179.14 222.247 179.395 222.19 179.64C221.79 180.85 219.97 181.52 220.19 182.77C220.28 183.21 220.63 183.56 220.7 184C220.89 185.21 219.02 185.65 218.21 185.93C215.54 186.85 215.36 185.09 213.05 184.99C211.99 184.99 211.05 185.66 209.99 185.77C208.93 185.88 208.06 185.47 207.08 185.52C204.41 185.68 205.75 189.31 205.94 190.88C204.5 189.88 202.58 191.04 201.44 192.33C199.68 194.33 199.85 193.96 197.52 194.05C197.211 194.047 196.907 194.129 196.641 194.285C196.375 194.442 196.157 194.668 196.01 194.94C195.58 195.94 196.5 196.94 196.53 198.04C196.53 198.55 196.34 199.04 196.38 199.57C196.51 200.91 198.1 201.5 199.06 202.44C199.475 202.86 199.783 203.374 199.957 203.938C200.131 204.502 200.166 205.099 200.06 205.68C199.39 205.716 198.718 205.665 198.06 205.53L196.85 203.2C196.548 202.483 196.082 201.846 195.49 201.34C195.119 201.132 194.782 200.869 194.49 200.56C193.99 199.87 194.4 198.91 194.49 198.06C194.78 195.99 193.74 192.51 193.23 190.45C192.72 188.39 191.23 187.45 190.71 185.39C190.676 185.305 190.624 185.229 190.557 185.167C190.49 185.105 190.41 185.059 190.323 185.031C190.236 185.003 190.144 184.995 190.054 185.007C189.963 185.019 189.877 185.051 189.8 185.1C189.65 185.205 189.523 185.338 189.425 185.493C189.327 185.647 189.261 185.82 189.23 186C189.011 186.837 189.089 187.724 189.45 188.51C188.98 187.51 186.45 190.17 186.25 190.68C185.99 191.51 186.55 192.68 186.52 193.57C186.47 195.72 185.95 196.93 183.73 195.35C182.88 194.74 181.79 194.03 180.89 194.55C180.959 194.851 180.923 195.167 180.786 195.444C180.649 195.721 180.421 195.942 180.14 196.07C179.569 196.316 178.932 196.366 178.33 196.21C177.917 196.163 177.532 195.976 177.24 195.68C177.124 195.491 176.99 195.314 176.84 195.15C176.27 194.71 175.55 195.48 175.24 196.15" fill="#000000"/>
<path d="M285 129.58C285.45 130.28 285 131.2 284.46 131.86C283.92 132.52 283.35 133.29 283.57 134.1L286.47 134.36C286.655 134.359 286.833 134.427 286.97 134.55C287.016 134.629 287.046 134.717 287.058 134.808C287.07 134.899 287.064 134.991 287.04 135.08C286.97 135.7 286.89 136.32 286.82 136.94C286.21 137.41 285.62 135.94 284.82 136.07C284.49 136.13 284.32 136.49 284.13 136.78C282.57 139.24 279.83 137.4 278.37 136.12C276.67 134.64 274.21 134.54 271.96 134.52C271.152 134.408 270.332 134.62 269.68 135.11C269.12 135.67 269.09 136.56 268.81 137.31C268.32 138.6 267.08 139.45 266.37 140.65C263.91 144.82 268.37 148.02 272.1 146.89C274.05 146.3 273.71 145.96 275.7 146.53C276.53 146.77 277.55 146.53 278.06 147.53C278.181 147.764 278.24 148.025 278.232 148.289C278.223 148.552 278.148 148.809 278.013 149.035C277.878 149.261 277.687 149.449 277.459 149.581C277.231 149.714 276.973 149.785 276.71 149.79C275.626 149.931 274.524 149.804 273.5 149.42C273.88 150.73 273.5 152.24 273.36 153.64C273.043 153.592 272.72 153.628 272.421 153.743C272.122 153.859 271.859 154.05 271.657 154.299C271.455 154.547 271.321 154.844 271.269 155.16C271.217 155.476 271.248 155.8 271.36 156.1C271.99 156.1 272.85 156.35 272.8 156.98C272.767 157.162 272.691 157.333 272.58 157.48C272.085 158.076 271.621 158.696 271.19 159.34C270.6 160.34 270.61 163.49 269.12 163.86C268.86 163.93 268.58 163.91 268.32 163.99C268.052 164.095 267.83 164.294 267.696 164.549C267.562 164.804 267.524 165.099 267.59 165.38C267.669 165.657 267.82 165.908 268.027 166.108C268.234 166.308 268.491 166.45 268.77 166.52C269.14 166.62 269.54 166.61 269.9 166.74C271.82 167.41 270.13 169.31 270.59 170.25C271.751 171.267 273.042 172.125 274.43 172.8C273.828 173.16 273.318 173.656 272.942 174.248C272.565 174.84 272.332 175.512 272.26 176.21C272.26 177.78 273.41 178.54 274.89 179C276.37 179.46 278.37 179.65 279.5 180.09C279.785 180.247 280.105 180.329 280.43 180.329C280.755 180.329 281.075 180.247 281.36 180.09C282 179.59 281.86 178.4 282.6 178.09C282.844 178.005 283.102 177.964 283.36 177.97C284.112 177.863 284.791 177.464 285.25 176.859C285.708 176.254 285.91 175.493 285.81 174.74C286.16 174.28 286.81 174.33 287.42 174.34C288.03 174.35 288.72 174.17 288.8 173.6C288.88 173.03 288.06 172.6 287.4 172.6C286.729 172.559 286.056 172.613 285.4 172.76C284.927 172.929 284.415 172.95 283.93 172.82C283.594 172.631 283.322 172.345 283.15 172C282.615 171.25 282.328 170.351 282.33 169.43C282.353 168.973 282.54 168.539 282.859 168.21C283.177 167.881 283.604 167.678 284.06 167.64C284.303 167.665 284.547 167.665 284.79 167.64C285.42 167.54 285.69 166.78 285.65 166.15C285.519 165.532 285.492 164.897 285.57 164.27C285.74 163.66 286.57 163.21 287.01 163.68C287.36 162.87 287.59 161.68 286.8 161.31C286.535 161.209 286.254 161.159 285.97 161.16C284.23 161 281.88 158.65 283.82 157.31C285.09 156.43 287.14 158.26 288.25 156.6C288.79 155.8 288.46 154.6 289.01 153.85C289.33 153.61 289.71 154.09 289.78 154.48C289.889 155.106 289.835 155.749 289.623 156.348C289.411 156.947 289.048 157.482 288.57 157.9C289.57 158.47 291.09 157.82 291.76 158.74C292.43 159.66 291.44 161.21 292.31 161.92C292.573 162.101 292.881 162.205 293.2 162.22C294.77 162.45 297.69 162.22 297.78 164.43C297.766 164.701 297.783 164.973 297.83 165.24C298.07 166.03 299.15 166.1 299.97 166.02C300.39 165.21 299.84 164.27 299.47 163.44C299.1 162.61 299.14 161.32 300.02 161.12C300.66 160.97 301.4 161.51 301.93 161.12C302.18 160.95 302.29 160.62 302.56 160.47C303.21 160.13 303.75 161.13 304.45 161.35C305.45 161.65 306.14 160.35 306.14 159.35C306.14 158.35 305.89 157.19 306.54 156.43C306.75 156.19 307.03 156.02 307.26 155.79C307.887 155.024 308.22 154.06 308.2 153.07C308.36 151.51 314.53 155.55 314.92 155.62C317.92 156.11 319.7 153.17 321.73 151.56C322.831 150.763 324.019 150.092 325.27 149.56C321.022 136.104 313.373 123.971 303.064 114.336C292.754 104.701 280.133 97.8892 266.42 94.56C265.178 94.2302 263.915 93.9863 262.64 93.83C263.02 95.72 264.19 98.71 262.92 100.5C261.31 102.78 257.92 100.78 256.65 103.45C256.65 104.13 257.75 104.02 258.27 104.45C258.519 104.737 258.694 105.08 258.78 105.45C258.93 105.8 259.27 106.16 259.63 106.05C260.05 106.68 259.39 107.45 258.83 107.97C258.139 108.541 257.614 109.287 257.31 110.13C256.79 111.91 257.97 113.69 258.72 115.39C259.297 116.816 259.739 118.292 260.04 119.8C260.04 119.09 261.04 118.8 261.69 119.12C262.267 119.538 262.785 120.033 263.23 120.59C264.1 121.43 265.23 120.92 266.17 121.59C267.35 122.47 268.1 124.07 269.54 124.31C271.3 124.6 272.54 122.73 273.35 121.14C275.28 122.14 276.47 124.62 278.65 124.79C279.491 124.783 280.321 124.592 281.08 124.23L285.87 122.34C286.5 122.001 287.231 121.898 287.93 122.05C288.301 122.245 288.627 122.516 288.887 122.845C289.148 123.174 289.336 123.554 289.44 123.96C289.78 124.8 290.13 125.63 290.44 126.47C290.612 126.802 290.681 127.178 290.64 127.55C290.501 127.926 290.227 128.237 289.87 128.42C288.035 129.614 285.816 130.068 283.66 129.69C283.871 132.59 284.442 135.452 285.36 138.21C283.73 137.79 281.85 138.33 280.36 137.7" fill="#000000"/>
<path d="M266.44 195.58C266.15 195.958 265.78 196.266 265.356 196.484C264.933 196.702 264.466 196.824 263.99 196.84C263.408 196.76 262.831 196.65 262.26 196.51C261.974 196.443 261.676 196.457 261.397 196.549C261.118 196.64 260.87 196.807 260.68 197.03C260.27 197.66 260.68 198.48 261.05 199.12C261.298 199.68 261.748 200.126 262.31 200.37C262.74 200.49 263.2 200.37 263.64 200.45C264.51 200.59 265.07 201.45 265.64 202.07C266.21 202.69 267.16 203.34 267.93 202.91C268.43 202.62 268.65 201.98 269.14 201.68C270.34 200.92 271.81 202.56 272.89 201.94C274.17 201.21 273.7 199.12 273.17 197.94C272.507 196.795 271.644 195.779 270.62 194.94C268 192.42 268.38 193.26 266.44 195.58Z" fill="#000000"/>
<path d="M307 229.27C319.78 216.6 327.26 198.13 328.73 180.37C328.73 179.88 328.81 179.37 328.84 178.89C326.38 176.35 321.46 174.73 320.18 179.3C319.67 179.3 319.57 178.96 319.18 178.68C318.57 178.23 317.72 178.84 317.38 179.51C316.27 181.72 316.11 184.51 313.05 183.9C309.4 183.19 311.88 181.63 310.69 179.61C310.478 179.343 310.237 179.102 309.97 178.89C309.1 178.01 309.22 176.58 309.39 175.35C309.567 175.432 309.76 175.477 309.956 175.481C310.151 175.485 310.346 175.448 310.526 175.373C310.707 175.297 310.87 175.185 311.005 175.044C311.14 174.902 311.244 174.734 311.31 174.55C311.35 174.255 311.445 173.97 311.59 173.71C312.01 173.23 312.86 173.71 313.06 174.29C313.26 174.87 313.06 175.57 313.24 176.2C313.42 176.83 314.05 177.44 314.6 177.1C314.819 176.944 314.972 176.712 315.03 176.45C315.188 175.91 315.214 175.34 315.104 174.788C314.994 174.236 314.753 173.718 314.4 173.28C314.703 173.199 314.97 173.019 315.159 172.768C315.347 172.517 315.446 172.21 315.439 171.896C315.432 171.583 315.32 171.28 315.121 171.038C314.921 170.796 314.646 170.627 314.34 170.56C313.45 170.36 312.18 170.89 311.82 170.05C311.879 170.419 311.834 170.798 311.689 171.142C311.544 171.487 311.305 171.784 311 172C308.64 173.72 303.34 172.19 303.86 177.21C304.03 178.005 304.147 178.81 304.21 179.62C304.235 180.026 304.125 180.428 303.897 180.765C303.669 181.101 303.336 181.353 302.95 181.48C304.38 182.64 303.86 185.28 305.4 186.29C305.767 186.522 306.202 186.624 306.633 186.578C307.065 186.533 307.469 186.343 307.78 186.04C307.87 185.926 307.987 185.837 308.12 185.78C308.4 185.69 308.66 185.95 308.95 186.01C309.44 186.12 309.88 185.6 310.38 185.58C311.09 185.58 311.48 186.39 311.61 187.08C311.74 187.77 311.92 188.64 312.61 188.83C312.84 188.9 313.09 188.83 313.32 188.93C313.55 189.016 313.748 189.17 313.888 189.372C314.027 189.574 314.101 189.814 314.1 190.06C314.093 190.55 313.984 191.034 313.78 191.48C313.48 191.78 312.96 191.6 312.67 191.29C312.439 190.935 312.178 190.601 311.89 190.29C311.7 190.14 307.45 190.47 307.59 190.16C306.96 191.63 306.64 194.83 304.44 194.01C303.67 193.72 302.87 193.2 302.08 193.44C302.46 192.44 302.82 191.36 303.18 190.32C302.85 190.04 302.36 190.43 302.18 190.83C302 191.23 302.02 191.73 301.68 191.99C301.418 192.146 301.112 192.209 300.81 192.17L297.87 192.11C296.81 192.11 295.58 192.11 294.92 192.97C294.26 193.83 294.6 195.37 295.4 196.27C295.513 196.362 295.607 196.476 295.675 196.605C295.744 196.734 295.786 196.875 295.8 197.02C295.743 197.277 295.593 197.505 295.38 197.66C294.862 198.124 294.461 198.703 294.209 199.351C293.957 200 293.861 200.698 293.93 201.39C294.031 202.076 294.378 202.703 294.906 203.153C295.433 203.603 296.106 203.847 296.8 203.84C297.33 203.84 297.99 203.62 298.3 204.05C298.48 204.3 298.48 204.71 298.76 204.84C299.04 204.97 299.42 204.55 299.68 204.25C299.923 203.99 300.245 203.818 300.597 203.762C300.948 203.706 301.308 203.769 301.62 203.94C301.93 204.13 302.92 207.15 302.62 207.58C302.03 208.58 299.25 208.19 298.16 208.24C297.95 208.223 297.738 208.248 297.537 208.313C297.336 208.378 297.15 208.483 296.99 208.62C296.56 209.12 296.91 209.91 297.39 210.35C297.87 210.79 298.51 211.15 298.75 211.76C298.877 212.317 298.889 212.894 298.786 213.457C298.682 214.019 298.466 214.554 298.15 215.03C297.87 215.27 297.52 215.39 297.24 215.62C296.959 215.926 296.768 216.304 296.689 216.711C296.609 217.119 296.644 217.541 296.79 217.93C297.01 218.72 297.43 219.46 297.59 220.27C297.91 222 296.96 223.87 297.65 225.49C297.98 226.27 299.01 226.9 299.65 226.35C300.29 225.8 300.2 224.75 300.93 224.67C301.66 224.59 302.5 226.35 303.08 226.67C303.66 226.99 304.46 226.49 305.31 227.11C306.1 227.64 306.24 228.73 307 229.27Z" fill="#000000"/>
<path d="M198.42 121C199.14 120.09 199.6 119 200.95 118.8C202.79 118.48 203.48 119.51 202.68 121.25C202.586 121.399 202.547 121.576 202.57 121.75C202.69 122.28 203.49 121.97 203.94 121.66C204.466 121.336 205.066 121.15 205.683 121.121C206.3 121.091 206.915 121.218 207.47 121.49C207.74 121.61 208.24 116.56 207.97 115.98C207.05 113.98 202.8 114.91 203.67 112.7C205.27 112.7 206.9 112.88 208.49 112.99L208.76 110.69C208.69 111.26 211.66 111.14 212 110.97C213.31 110.31 212.95 107.97 215.3 108.31C218.3 108.8 218.44 114.64 215.06 113.69C214.301 115.482 213.893 117.404 213.86 119.35H212.02C211.869 119.562 211.771 119.806 211.733 120.064C211.694 120.321 211.717 120.583 211.8 120.83C212.552 121.327 213.434 121.592 214.335 121.592C215.236 121.592 216.118 121.327 216.87 120.83C217.87 121.57 219.2 120.83 220.19 120.16C221.58 122.39 225.57 122.08 226.59 119.66C227.61 117.24 225.07 114.15 222.49 114.66C222.44 113.427 222.003 112.24 221.24 111.27C222.841 111.291 224.409 110.812 225.725 109.9C227.041 108.987 228.039 107.687 228.58 106.18C229.1 104.66 229.22 102.81 230.5 101.85C231.07 101.41 231.79 101.24 232.39 100.85C233.72 99.95 234.11 98.2 234.32 96.61C234.46 95.5367 234.56 94.4667 234.62 93.4C215.931 96.4496 198.892 105.924 186.44 120.19C186.333 120.744 186.374 121.317 186.56 121.85C186.845 122.283 187.221 122.648 187.661 122.921C188.101 123.194 188.596 123.367 189.11 123.43C193.01 124.43 195.5 124.23 198.2 121.2L198.42 121Z" fill="#000000"/>
<g opacity="0.4">
<path opacity="0.4" d="M186.82 193.5C186.55 195.01 184.63 195.55 183.08 195.75L176.08 196.61C174.98 193.73 171.56 193.7 169.16 194.83C173.52 210.987 182.759 225.406 195.615 236.119C208.472 246.832 224.321 253.317 241 254.69C243.667 254.91 246.333 255 249 254.96C249.049 254.897 249.093 254.83 249.13 254.76C250.35 252.63 248.59 250.76 247.65 249C247.44 248.6 245.44 243.57 246.1 243.55C243.961 243.597 241.827 243.321 239.77 242.73C239.611 242.705 239.467 242.619 239.37 242.49C239.17 242.16 239.64 241.83 240.01 241.75C241.01 241.52 241.96 241.47 242.9 241.19C243.381 241.079 243.831 240.862 244.219 240.556C244.606 240.25 244.921 239.862 245.14 239.42C245.51 238.5 245.23 237.42 245.44 236.49C245.604 235.907 245.896 235.368 246.296 234.913C246.696 234.457 247.193 234.098 247.75 233.86C248.822 233.415 249.949 233.116 251.1 232.97C248.65 231.63 250.44 228.84 248.51 226.97C247.89 226.37 246.99 225.64 247.37 224.87C247.75 224.1 249.03 224.15 249.19 223.34C249.3 222.78 248.71 222.34 248.19 222.19C247.62 222.15 247.058 222.032 246.52 221.84C246.35 221.735 246.203 221.597 246.088 221.435C245.972 221.272 245.89 221.088 245.846 220.894C245.802 220.699 245.798 220.498 245.833 220.301C245.868 220.105 245.942 219.917 246.05 219.75C246.47 219.16 247.25 218.98 247.89 218.64C248.53 218.3 249.1 217.51 248.72 216.9C248.625 216.756 248.499 216.637 248.35 216.55C247.35 215.91 245.94 216.45 244.93 217.13C243.92 217.81 242.93 218.67 241.66 218.65C241.593 218.534 241.551 218.405 241.535 218.272C241.519 218.139 241.53 218.004 241.568 217.875C241.605 217.747 241.668 217.627 241.752 217.523C241.837 217.419 241.942 217.333 242.06 217.27C242.236 217.215 242.402 217.131 242.55 217.02C242.84 216.72 242.63 216.24 242.43 215.89C241.51 214.174 241.309 212.164 241.87 210.3L249.31 210.44C249.37 209.89 249.43 209.55 250.03 209.38C248.261 207.468 246.592 205.465 245.03 203.38C244.879 203.106 244.649 202.883 244.37 202.74C244.039 202.692 243.704 202.675 243.37 202.69C242.3 202.55 242.13 201.08 242.24 200C242.08 199.67 241.56 199.82 241.36 200.12C241.16 200.42 241.11 200.81 240.87 201.12C240.664 201.292 240.412 201.4 240.146 201.43C239.879 201.46 239.609 201.412 239.37 201.29C238.511 200.918 237.831 200.223 237.478 199.356C237.125 198.488 237.125 197.517 237.48 196.65C237.557 196.443 237.697 196.265 237.88 196.14C238.31 195.89 238.82 196.19 239.3 196.28C241.2 196.62 240.91 194.52 240.46 193.53C239.84 192.18 237.99 191.32 236.65 190.97C235.08 190.57 224.65 188.57 226.33 185.16C226.514 184.848 226.8 184.608 227.14 184.48C228.191 184.2 229.26 183.996 230.34 183.87C231.34 183.57 232.4 182.48 231.94 181.49C231.76 181.1 231.38 180.82 231.17 180.49C230.58 179.43 231.49 178.05 231.07 176.91C230.805 176.418 230.497 175.949 230.15 175.51C229.87 175.03 229.82 174.3 230.3 174.01C230.78 173.72 231.57 174.17 232.14 173.91C232.268 173.817 232.372 173.696 232.444 173.555C232.516 173.414 232.554 173.258 232.554 173.1C232.554 172.942 232.516 172.786 232.444 172.645C232.372 172.504 232.268 172.383 232.14 172.29C231.853 172.129 231.524 172.055 231.196 172.079C230.867 172.102 230.552 172.22 230.29 172.42C230.037 172.654 229.732 172.825 229.4 172.92C228.79 173 228.33 172.39 228.02 171.86L226.53 169.32C226.252 169.361 225.993 169.482 225.783 169.669C225.574 169.855 225.423 170.099 225.35 170.37C225.16 170.9 225.12 171.48 224.91 172C223.85 174.5 220.04 174.21 220.53 177.64C220.782 177.629 221.032 177.676 221.263 177.778C221.493 177.88 221.696 178.034 221.857 178.227C222.018 178.421 222.132 178.649 222.189 178.895C222.247 179.14 222.247 179.395 222.19 179.64C221.79 180.85 219.97 181.52 220.19 182.77C220.28 183.21 220.63 183.56 220.7 184C220.89 185.21 219.02 185.65 218.21 185.93C215.54 186.85 215.36 185.09 213.05 184.99C211.99 184.99 211.05 185.66 209.99 185.77C208.93 185.88 208.06 185.47 207.08 185.52C204.41 185.68 205.75 189.31 205.94 190.88C204.5 189.88 202.58 191.04 201.44 192.33C199.68 194.33 199.85 193.96 197.52 194.05C197.211 194.047 196.907 194.129 196.641 194.285C196.375 194.442 196.157 194.668 196.01 194.94C195.58 195.94 196.5 196.94 196.53 198.04C196.53 198.55 196.34 199.04 196.38 199.57C196.51 200.91 198.1 201.5 199.06 202.44C199.475 202.86 199.783 203.374 199.957 203.938C200.131 204.502 200.166 205.099 200.06 205.68C199.39 205.716 198.718 205.665 198.06 205.53L196.85 203.2C196.548 202.483 196.082 201.846 195.49 201.34C195.119 201.132 194.782 200.869 194.49 200.56C193.99 199.87 194.4 198.91 194.49 198.06C194.78 195.99 193.74 192.51 193.23 190.45C192.72 188.39 191.23 187.45 190.71 185.39C190.676 185.305 190.624 185.229 190.557 185.167C190.49 185.105 190.41 185.059 190.323 185.031C190.236 185.003 190.144 184.995 190.054 185.007C189.963 185.019 189.877 185.051 189.8 185.1C189.65 185.205 189.523 185.338 189.425 185.493C189.327 185.647 189.261 185.82 189.23 186C189.011 186.837 189.089 187.724 189.45 188.51C188.98 187.51 186.45 190.17 186.25 190.68C185.99 191.51 186.55 192.68 186.52 193.57C186.47 195.72 185.95 196.93 183.73 195.35C182.88 194.74 181.79 194.03 180.89 194.55C180.959 194.851 180.923 195.167 180.786 195.444C180.649 195.721 180.421 195.942 180.14 196.07C179.569 196.316 178.932 196.366 178.33 196.21C177.917 196.163 177.532 195.976 177.24 195.68C177.124 195.491 176.99 195.314 176.84 195.15C176.27 194.71 175.55 195.48 175.24 196.15" fill="white"/>
<path opacity="0.4" d="M285 129.58C285.45 130.28 285 131.2 284.46 131.86C283.92 132.52 283.35 133.29 283.57 134.1L286.47 134.36C286.655 134.359 286.833 134.427 286.97 134.55C287.016 134.629 287.046 134.717 287.058 134.808C287.07 134.899 287.064 134.991 287.04 135.08C286.97 135.7 286.89 136.32 286.82 136.94C286.21 137.41 285.62 135.94 284.82 136.07C284.49 136.13 284.32 136.49 284.13 136.78C282.57 139.24 279.83 137.4 278.37 136.12C276.67 134.64 274.21 134.54 271.96 134.52C271.152 134.408 270.332 134.62 269.68 135.11C269.12 135.67 269.09 136.56 268.81 137.31C268.32 138.6 267.08 139.45 266.37 140.65C263.91 144.82 268.37 148.02 272.1 146.89C274.05 146.3 273.71 145.96 275.7 146.53C276.53 146.77 277.55 146.53 278.06 147.53C278.181 147.764 278.24 148.025 278.232 148.289C278.223 148.552 278.148 148.809 278.013 149.035C277.878 149.261 277.687 149.449 277.459 149.581C277.231 149.714 276.973 149.785 276.71 149.79C275.626 149.931 274.524 149.804 273.5 149.42C273.88 150.73 273.5 152.24 273.36 153.64C273.043 153.592 272.72 153.628 272.421 153.743C272.122 153.859 271.859 154.05 271.657 154.299C271.455 154.547 271.321 154.844 271.269 155.16C271.217 155.476 271.248 155.8 271.36 156.1C271.99 156.1 272.85 156.35 272.8 156.98C272.767 157.162 272.691 157.333 272.58 157.48C272.085 158.076 271.621 158.696 271.19 159.34C270.6 160.34 270.61 163.49 269.12 163.86C268.86 163.93 268.58 163.91 268.32 163.99C268.052 164.095 267.83 164.294 267.696 164.549C267.562 164.804 267.524 165.099 267.59 165.38C267.669 165.657 267.82 165.908 268.027 166.108C268.234 166.308 268.491 166.45 268.77 166.52C269.14 166.62 269.54 166.61 269.9 166.74C271.82 167.41 270.13 169.31 270.59 170.25C271.751 171.267 273.042 172.125 274.43 172.8C273.828 173.16 273.318 173.656 272.942 174.248C272.565 174.84 272.332 175.512 272.26 176.21C272.26 177.78 273.41 178.54 274.89 179C276.37 179.46 278.37 179.65 279.5 180.09C279.785 180.247 280.105 180.329 280.43 180.329C280.755 180.329 281.075 180.247 281.36 180.09C282 179.59 281.86 178.4 282.6 178.09C282.844 178.005 283.102 177.964 283.36 177.97C284.112 177.863 284.791 177.464 285.25 176.859C285.708 176.254 285.91 175.493 285.81 174.74C286.16 174.28 286.81 174.33 287.42 174.34C288.03 174.35 288.72 174.17 288.8 173.6C288.88 173.03 288.06 172.6 287.4 172.6C286.729 172.559 286.056 172.613 285.4 172.76C284.927 172.929 284.415 172.95 283.93 172.82C283.594 172.631 283.322 172.345 283.15 172C282.615 171.25 282.328 170.351 282.33 169.43C282.353 168.973 282.54 168.539 282.859 168.21C283.177 167.881 283.604 167.678 284.06 167.64C284.303 167.665 284.547 167.665 284.79 167.64C285.42 167.54 285.69 166.78 285.65 166.15C285.519 165.532 285.492 164.897 285.57 164.27C285.74 163.66 286.57 163.21 287.01 163.68C287.36 162.87 287.59 161.68 286.8 161.31C286.535 161.209 286.254 161.159 285.97 161.16C284.23 161 281.88 158.65 283.82 157.31C285.09 156.43 287.14 158.26 288.25 156.6C288.79 155.8 288.46 154.6 289.01 153.85C289.33 153.61 289.71 154.09 289.78 154.48C289.889 155.106 289.835 155.749 289.623 156.348C289.411 156.947 289.048 157.482 288.57 157.9C289.57 158.47 291.09 157.82 291.76 158.74C292.43 159.66 291.44 161.21 292.31 161.92C292.573 162.101 292.881 162.205 293.2 162.22C294.77 162.45 297.69 162.22 297.78 164.43C297.766 164.701 297.783 164.973 297.83 165.24C298.07 166.03 299.15 166.1 299.97 166.02C300.39 165.21 299.84 164.27 299.47 163.44C299.1 162.61 299.14 161.32 300.02 161.12C300.66 160.97 301.4 161.51 301.93 161.12C302.18 160.95 302.29 160.62 302.56 160.47C303.21 160.13 303.75 161.13 304.45 161.35C305.45 161.65 306.14 160.35 306.14 159.35C306.14 158.35 305.89 157.19 306.54 156.43C306.75 156.19 307.03 156.02 307.26 155.79C307.887 155.024 308.22 154.06 308.2 153.07C308.36 151.51 314.53 155.55 314.92 155.62C317.92 156.11 319.7 153.17 321.73 151.56C322.831 150.763 324.019 150.092 325.27 149.56C321.022 136.104 313.373 123.971 303.064 114.336C292.754 104.701 280.133 97.8892 266.42 94.56C265.178 94.2302 263.915 93.9863 262.64 93.83C263.02 95.72 264.19 98.71 262.92 100.5C261.31 102.78 257.92 100.78 256.65 103.45C256.65 104.13 257.75 104.02 258.27 104.45C258.519 104.737 258.694 105.08 258.78 105.45C258.93 105.8 259.27 106.16 259.63 106.05C260.05 106.68 259.39 107.45 258.83 107.97C258.139 108.541 257.614 109.287 257.31 110.13C256.79 111.91 257.97 113.69 258.72 115.39C259.297 116.816 259.739 118.292 260.04 119.8C260.04 119.09 261.04 118.8 261.69 119.12C262.267 119.538 262.785 120.033 263.23 120.59C264.1 121.43 265.23 120.92 266.17 121.59C267.35 122.47 268.1 124.07 269.54 124.31C271.3 124.6 272.54 122.73 273.35 121.14C275.28 122.14 276.47 124.62 278.65 124.79C279.491 124.783 280.321 124.592 281.08 124.23L285.87 122.34C286.5 122.001 287.231 121.898 287.93 122.05C288.301 122.245 288.627 122.516 288.887 122.845C289.148 123.174 289.336 123.554 289.44 123.96C289.78 124.8 290.13 125.63 290.44 126.47C290.612 126.802 290.681 127.178 290.64 127.55C290.501 127.926 290.227 128.237 289.87 128.42C288.035 129.614 285.816 130.068 283.66 129.69C283.871 132.59 284.442 135.452 285.36 138.21C283.73 137.79 281.85 138.33 280.36 137.7" fill="white"/>
<path opacity="0.4" d="M266.44 195.58C266.15 195.958 265.78 196.266 265.356 196.484C264.933 196.702 264.466 196.824 263.99 196.84C263.408 196.76 262.831 196.65 262.26 196.51C261.974 196.443 261.676 196.457 261.397 196.549C261.118 196.64 260.87 196.807 260.68 197.03C260.27 197.66 260.68 198.48 261.05 199.12C261.298 199.68 261.748 200.126 262.31 200.37C262.74 200.49 263.2 200.37 263.64 200.45C264.51 200.59 265.07 201.45 265.64 202.07C266.21 202.69 267.16 203.34 267.93 202.91C268.43 202.62 268.65 201.98 269.14 201.68C270.34 200.92 271.81 202.56 272.89 201.94C274.17 201.21 273.7 199.12 273.17 197.94C272.507 196.795 271.644 195.779 270.62 194.94C268 192.42 268.38 193.26 266.44 195.58Z" fill="white"/>
<path opacity="0.4" d="M307 229.27C319.78 216.6 327.26 198.13 328.73 180.37C328.73 179.88 328.81 179.37 328.84 178.89C326.38 176.35 321.46 174.73 320.18 179.3C319.67 179.3 319.57 178.96 319.18 178.68C318.57 178.23 317.72 178.84 317.38 179.51C316.27 181.72 316.11 184.51 313.05 183.9C309.4 183.19 311.88 181.63 310.69 179.61C310.478 179.343 310.237 179.102 309.97 178.89C309.1 178.01 309.22 176.58 309.39 175.35C309.567 175.432 309.76 175.477 309.956 175.481C310.151 175.485 310.346 175.448 310.526 175.373C310.707 175.297 310.87 175.185 311.005 175.044C311.14 174.902 311.244 174.734 311.31 174.55C311.35 174.255 311.445 173.97 311.59 173.71C312.01 173.23 312.86 173.71 313.06 174.29C313.26 174.87 313.06 175.57 313.24 176.2C313.42 176.83 314.05 177.44 314.6 177.1C314.819 176.944 314.972 176.712 315.03 176.45C315.188 175.91 315.214 175.34 315.104 174.788C314.994 174.236 314.753 173.718 314.4 173.28C314.703 173.199 314.97 173.019 315.159 172.768C315.347 172.517 315.446 172.21 315.439 171.896C315.432 171.583 315.32 171.281 315.121 171.038C314.921 170.796 314.646 170.627 314.34 170.56C313.45 170.36 312.18 170.89 311.82 170.05C311.879 170.419 311.834 170.798 311.689 171.142C311.544 171.487 311.305 171.784 311 172C308.64 173.72 303.34 172.19 303.86 177.21C304.03 178.005 304.147 178.81 304.21 179.62C304.235 180.026 304.125 180.428 303.897 180.765C303.669 181.101 303.336 181.353 302.95 181.48C304.38 182.64 303.86 185.28 305.4 186.29C305.767 186.522 306.202 186.624 306.633 186.578C307.065 186.533 307.469 186.343 307.78 186.04C307.87 185.926 307.987 185.837 308.12 185.78C308.4 185.69 308.66 185.95 308.95 186.01C309.44 186.12 309.88 185.6 310.38 185.58C311.09 185.58 311.48 186.39 311.61 187.08C311.74 187.77 311.92 188.64 312.61 188.83C312.84 188.9 313.09 188.83 313.32 188.93C313.55 189.016 313.748 189.17 313.888 189.372C314.027 189.575 314.101 189.815 314.1 190.06C314.093 190.55 313.984 191.034 313.78 191.48C313.48 191.78 312.96 191.6 312.67 191.29C312.439 190.935 312.178 190.601 311.89 190.29C311.7 190.14 307.45 190.47 307.59 190.16C306.96 191.63 306.64 194.83 304.44 194.01C303.67 193.72 302.87 193.2 302.08 193.44C302.46 192.44 302.82 191.36 303.18 190.32C302.85 190.04 302.36 190.43 302.18 190.83C302 191.23 302.02 191.73 301.68 191.99C301.418 192.146 301.112 192.209 300.81 192.17L297.87 192.11C296.81 192.11 295.58 192.11 294.92 192.97C294.26 193.83 294.6 195.37 295.4 196.27C295.513 196.362 295.607 196.476 295.675 196.605C295.744 196.734 295.786 196.875 295.8 197.02C295.743 197.278 295.593 197.505 295.38 197.66C294.862 198.124 294.461 198.703 294.209 199.352C293.957 200 293.861 200.698 293.93 201.39C294.031 202.076 294.378 202.703 294.906 203.153C295.433 203.603 296.106 203.848 296.8 203.84C297.33 203.84 297.99 203.62 298.3 204.05C298.48 204.3 298.48 204.71 298.76 204.84C299.04 204.97 299.42 204.55 299.68 204.25C299.923 203.99 300.245 203.818 300.597 203.762C300.948 203.706 301.308 203.769 301.62 203.94C301.93 204.13 302.92 207.15 302.62 207.58C302.03 208.58 299.25 208.19 298.16 208.24C297.95 208.223 297.738 208.248 297.537 208.313C297.336 208.378 297.15 208.483 296.99 208.62C296.56 209.12 296.91 209.91 297.39 210.35C297.87 210.79 298.51 211.15 298.75 211.76C298.877 212.317 298.889 212.895 298.786 213.457C298.682 214.019 298.466 214.554 298.15 215.03C297.87 215.27 297.52 215.39 297.24 215.62C296.959 215.926 296.768 216.304 296.689 216.712C296.609 217.119 296.644 217.541 296.79 217.93C297.01 218.72 297.43 219.46 297.59 220.27C297.91 222 296.96 223.87 297.65 225.49C297.98 226.27 299.01 226.9 299.65 226.35C300.29 225.8 300.2 224.75 300.93 224.67C301.66 224.59 302.5 226.35 303.08 226.67C303.66 226.99 304.46 226.49 305.31 227.11C306.1 227.64 306.24 228.73 307 229.27Z" fill="white"/>
<path opacity="0.4" d="M198.42 121C199.14 120.09 199.6 119 200.95 118.8C202.79 118.48 203.48 119.51 202.68 121.25C202.586 121.399 202.547 121.576 202.57 121.75C202.69 122.28 203.49 121.97 203.94 121.66C204.466 121.336 205.066 121.15 205.683 121.121C206.3 121.091 206.915 121.218 207.47 121.49C207.74 121.61 208.24 116.56 207.97 115.98C207.05 113.98 202.8 114.91 203.67 112.7C205.27 112.7 206.9 112.88 208.49 112.99L208.76 110.69C208.69 111.26 211.66 111.14 212 110.97C213.31 110.31 212.95 107.97 215.3 108.31C218.3 108.8 218.44 114.64 215.06 113.69C214.301 115.482 213.893 117.404 213.86 119.35H212.02C211.869 119.562 211.771 119.806 211.733 120.064C211.694 120.321 211.717 120.583 211.8 120.83C212.552 121.327 213.434 121.592 214.335 121.592C215.236 121.592 216.118 121.327 216.87 120.83C217.87 121.57 219.2 120.83 220.19 120.16C221.58 122.39 225.57 122.08 226.59 119.66C227.61 117.24 225.07 114.15 222.49 114.66C222.44 113.427 222.003 112.24 221.24 111.27C222.841 111.291 224.409 110.812 225.725 109.9C227.041 108.987 228.039 107.687 228.58 106.18C229.1 104.66 229.22 102.81 230.5 101.85C231.07 101.41 231.79 101.24 232.39 100.85C233.72 99.95 234.11 98.2 234.32 96.61C234.46 95.5367 234.56 94.4667 234.62 93.4C215.931 96.4496 198.892 105.924 186.44 120.19C186.333 120.744 186.374 121.317 186.56 121.85C186.845 122.283 187.221 122.648 187.661 122.921C188.101 123.194 188.596 123.367 189.11 123.43C193.01 124.43 195.5 124.23 198.2 121.2L198.42 121Z" fill="white"/>
</g>
<path opacity="0.7" d="M209.32 46.33C209.327 52.8451 207.167 59.1774 203.18 64.33C202.127 65.7063 200.952 66.9848 199.67 68.15C198.494 69.2316 197.226 70.2086 195.88 71.07C195.832 71.1191 195.774 71.1567 195.71 71.18C194.66 71.862 193.564 72.4701 192.43 73C186.564 75.7784 179.945 76.5445 173.599 75.1795C167.253 73.8145 161.535 70.3947 157.33 65.45C154.248 61.829 152.087 57.5171 151.029 52.8812C149.972 48.2453 150.05 43.4226 151.257 38.8233C152.464 34.2241 154.764 29.9845 157.962 26.4653C161.159 22.946 165.16 20.2513 169.623 18.6104C174.085 16.9694 178.879 16.4308 183.594 17.0404C188.31 17.6499 192.809 19.3896 196.708 22.1114C200.607 24.8333 203.79 28.4566 205.988 32.6733C208.186 36.8899 209.332 41.575 209.33 46.33H209.32Z" fill="white"/>
<path d="M50.23 88.84C50.2316 90.9364 50.7873 92.9952 51.841 94.8076C52.8948 96.6199 54.4089 98.1215 56.23 99.16C58.2852 100.345 60.6475 100.888 63.0138 100.721C65.3801 100.553 67.6423 99.6825 69.51 98.22C71.1006 96.9752 72.3486 95.3464 73.1365 93.4867C73.9244 91.6269 74.2264 89.5974 74.0141 87.5888C73.8018 85.5802 73.0822 83.6586 71.9229 82.0047C70.7636 80.3507 69.2027 79.0188 67.3871 78.1341C65.5714 77.2493 63.5605 76.8409 61.5436 76.9471C59.5266 77.0534 57.5698 77.6708 55.8571 78.7414C54.1444 79.812 52.7321 81.3005 51.753 83.0671C50.7739 84.8337 50.2601 86.8202 50.26 88.84H50.23Z" fill="#407BFF"/>
<path opacity="0.3" d="M63.941 99.9207C70.063 98.9269 74.2203 93.1585 73.2265 87.0364C72.2328 80.9144 66.4643 76.7571 60.3423 77.7509C54.2203 78.7446 50.063 84.5131 51.0567 90.6351C52.0505 96.7571 57.8189 100.914 63.941 99.9207Z" fill="white"/>
<path d="M55.47 88.66C55.4928 89.0477 55.6391 89.418 55.8874 89.7167C56.1357 90.0154 56.473 90.2268 56.85 90.32C56.6633 90.8576 56.6633 91.4424 56.85 91.98C57.18 92.9 59.02 92.9 59.02 92.9C59.0906 93.0628 59.2062 93.202 59.3532 93.3012C59.5003 93.4005 59.6727 93.4555 59.85 93.46L59.97 93.6C60.05 93.72 60.14 93.85 60.23 93.96C60.46 95.77 60.42 97.68 59.53 98.65C58.76 98.73 57.99 98.83 57.22 98.96C56.85 98.96 56.49 99.07 56.13 99.14C58.1852 100.325 60.5475 100.868 62.9138 100.701C65.2801 100.533 67.5423 99.6625 69.41 98.2H68.34H66.25C65.7749 98.177 65.3169 98.015 64.9329 97.7341C64.549 97.4533 64.2559 97.0659 64.09 96.62C63.9678 96.2187 63.917 95.7989 63.94 95.38C64.286 95.3177 64.6222 95.2101 64.94 95.06C65.8628 94.5987 66.5772 93.8058 66.94 92.84C66.997 92.7036 67.0438 92.5633 67.08 92.42C67.3691 91.2636 67.4571 90.0662 67.34 88.88C67.5493 88.7572 67.7298 88.5911 67.8696 88.3927C68.0093 88.1944 68.1049 87.9684 68.15 87.73C68.2361 87.421 68.196 87.0905 68.0384 86.8111C67.8809 86.5317 67.6189 86.3263 67.31 86.24C67.6781 86.151 68.0027 85.9344 68.2261 85.6286C68.4495 85.3228 68.5572 84.9477 68.53 84.57C68.5602 84.3907 68.5514 84.2069 68.5044 84.0313C68.4574 83.8556 68.3732 83.6921 68.2576 83.5518C68.1419 83.4115 67.9974 83.2976 67.834 83.2179C67.6705 83.1383 67.4918 83.0946 67.31 83.09C67.31 83.09 67.74 82.46 66.9 81.3C66.686 80.9852 66.3603 80.7636 65.9889 80.68C65.6175 80.5965 65.2283 80.6572 64.9 80.85C64.655 80.4653 64.3032 80.1602 63.8877 79.972C63.4722 79.7837 63.0109 79.7205 62.56 79.79C62.1824 79.8414 61.8211 79.9767 61.5027 80.1861C61.1843 80.3955 60.9168 80.6736 60.72 81C60.72 81 60.72 80.15 59.07 80.62C58.595 80.7946 58.1931 81.1249 57.9298 81.557C57.6665 81.9892 57.5573 82.4978 57.62 83C57.4704 82.9222 57.3062 82.8766 57.138 82.8659C56.9697 82.8553 56.8011 82.88 56.6429 82.9384C56.4847 82.9968 56.3405 83.0875 56.2194 83.2049C56.0984 83.3223 56.0032 83.4637 55.94 83.62C55.37 84.81 56.61 86.9 56.61 86.9C56.2422 87.0106 55.9257 87.2483 55.7169 87.5707C55.508 87.893 55.4206 88.2791 55.47 88.66Z" fill="#407BFF"/>
<path opacity="0.7" d="M50.23 88.84C50.2316 90.9364 50.7873 92.9952 51.841 94.8076C52.8948 96.6199 54.4089 98.1215 56.23 99.16C58.2852 100.345 60.6475 100.888 63.0138 100.721C65.3801 100.553 67.6423 99.6825 69.51 98.22C71.1006 96.9752 72.3486 95.3464 73.1365 93.4867C73.9244 91.6269 74.2264 89.5974 74.0141 87.5888C73.8018 85.5802 73.0822 83.6586 71.9229 82.0047C70.7636 80.3507 69.2027 79.0188 67.3871 78.1341C65.5714 77.2493 63.5605 76.8409 61.5436 76.9471C59.5266 77.0534 57.5698 77.6708 55.8571 78.7414C54.1444 79.812 52.7321 81.3005 51.753 83.0671C50.7739 84.8337 50.2601 86.8202 50.26 88.84H50.23Z" fill="white"/>
<path d="M56.11 308.62C61.9587 308.62 66.7 303.879 66.7 298.03C66.7 292.181 61.9587 287.44 56.11 287.44C50.2613 287.44 45.52 292.181 45.52 298.03C45.52 303.879 50.2613 308.62 56.11 308.62Z" fill="#407BFF"/>
<path opacity="0.3" d="M66.1 298C66.1 299.978 65.5135 301.911 64.4147 303.556C63.3159 305.2 61.7541 306.482 59.9269 307.239C58.0996 307.996 56.0889 308.194 54.1491 307.808C52.2093 307.422 50.4275 306.47 49.029 305.071C47.6304 303.673 46.678 301.891 46.2922 299.951C45.9063 298.011 46.1044 296 46.8612 294.173C47.6181 292.346 48.8998 290.784 50.5443 289.685C52.1888 288.586 54.1222 288 56.1 288C57.4173 287.985 58.7243 288.234 59.9442 288.731C61.1642 289.229 62.2724 289.965 63.2039 290.896C64.1355 291.828 64.8715 292.936 65.3689 294.156C65.8662 295.376 66.1148 296.683 66.1 298Z" fill="white"/>
<path d="M64 304.15C62.4398 306.154 60.1752 307.49 57.6661 307.886C55.1569 308.281 52.5913 307.707 50.49 306.28C50.82 305.52 51.03 305.07 51.03 305.07C52.2746 304.673 53.544 304.359 54.83 304.13C55.2086 303.812 55.6577 303.589 56.14 303.48C56.3461 302.734 56.3217 301.942 56.07 301.21C55.6799 300.939 55.3413 300.6 55.07 300.21C54.8658 300.056 54.6841 299.874 54.53 299.67C54.22 299.55 52.1 298.56 51.99 295.08C51.9799 294.937 51.9799 294.793 51.99 294.65C51.33 294.59 50.64 294.79 51.12 296.13C51.94 298.44 51.12 299.65 51.12 299.65C51.1387 299.142 51.112 298.633 51.04 298.13C51.04 300.51 49.75 300.67 49.75 300.67C49.75 300.67 50.57 299.81 49.36 297.15C48.15 294.49 48.5 290.9 50.81 290.74C51.2893 290.705 51.7701 290.783 52.2132 290.969C52.6564 291.155 53.0493 291.443 53.36 291.81C53.9604 291.254 54.7222 290.904 55.535 290.811C56.3477 290.717 57.1691 290.885 57.88 291.29C57.88 291.29 59.95 290.78 60.54 291.29C60.66 291.4 60.54 291.68 60.32 292.04C60.9173 292.434 61.3343 293.049 61.48 293.75C61.6126 294.3 61.6305 294.872 61.5324 295.429C61.4343 295.987 61.2225 296.518 60.91 296.99C61.19 299.62 60.74 301.58 58.65 301.77C58.65 301.83 58.65 301.9 58.65 301.96C58.65 302.02 58.65 302.15 58.65 302.23C58.6286 302.609 58.6795 302.99 58.8 303.35C59.0958 303.407 59.3866 303.488 59.67 303.59C61.54 303.59 63.67 303.78 63.67 303.78C63.7935 303.891 63.9042 304.015 64 304.15Z" fill="#407BFF"/>
<path opacity="0.7" d="M56.11 308.62C61.9587 308.62 66.7 303.879 66.7 298.03C66.7 292.181 61.9587 287.44 56.11 287.44C50.2613 287.44 45.52 292.181 45.52 298.03C45.52 303.879 50.2613 308.62 56.11 308.62Z" fill="white"/>
<path d="M452.158 223.583C456.723 219.017 456.723 211.616 452.158 207.051C447.593 202.485 440.191 202.485 435.626 207.051C431.061 211.616 431.061 219.017 435.626 223.583C440.191 228.148 447.593 228.148 452.158 223.583Z" fill="#407BFF"/>
<path opacity="0.3" d="M454.91 215.32C454.91 218.237 453.751 221.035 451.688 223.098C449.625 225.161 446.827 226.32 443.91 226.32C440.993 226.32 438.195 225.161 436.132 223.098C434.069 221.035 432.91 218.237 432.91 215.32C432.91 212.403 434.069 209.605 436.132 207.542C438.195 205.479 440.993 204.32 443.91 204.32C446.827 204.32 449.625 205.479 451.688 207.542C453.751 209.605 454.91 212.403 454.91 215.32Z" fill="white"/>
<path d="M453.06 221.42C452.221 222.68 451.131 223.754 449.858 224.573C448.586 225.393 447.157 225.941 445.663 226.183C444.168 226.425 442.64 226.356 441.174 225.981C439.707 225.605 438.334 224.931 437.14 224C437.076 223.397 437.096 222.788 437.2 222.19C437.34 220.84 438.89 219.76 438.87 218.81C438.85 217.86 437.27 216.65 438.28 216.11C439.29 215.57 439.51 213.47 438.7 212.29C438.242 211.803 437.993 211.156 438.004 210.488C438.015 209.819 438.286 209.182 438.76 208.71C439.518 207.807 440.59 207.225 441.76 207.08C442.772 206.591 443.911 206.427 445.02 206.61C446.176 206.695 447.291 207.074 448.26 207.71C449.009 208.229 449.596 208.95 449.95 209.79C450.66 211.28 450.782 212.984 450.29 214.56C449.74 216.13 452.19 216.04 452.29 217.49C452.39 218.94 451.14 219.02 451.36 219.98C451.43 220.46 452.28 220.88 453.06 221.42Z" fill="#407BFF"/>
<path opacity="0.7" d="M452.158 223.583C456.723 219.017 456.723 211.616 452.158 207.051C447.593 202.485 440.191 202.485 435.626 207.051C431.061 211.616 431.061 219.017 435.626 223.583C440.191 228.148 447.593 228.148 452.158 223.583Z" fill="white"/>
<path d="M393.297 98.7249L304.1 137.398L304.498 138.315L393.695 99.6424L393.297 98.7249Z" fill="#407BFF"/>
<path d="M181.459 47.5575L180.608 48.0839L218.748 109.694L219.599 109.167L181.459 47.5575Z" fill="#407BFF"/>
<path d="M193.369 211.611L94.4266 232.336L94.6316 233.314L193.574 212.59L193.369 211.611Z" fill="#407BFF"/>
<path opacity="0.8" d="M393.297 98.7249L304.1 137.398L304.498 138.315L393.695 99.6424L393.297 98.7249Z" fill="white"/>
<path d="M316.145 195.741L315.298 196.272L372.232 287.138L373.079 286.607L316.145 195.741Z" fill="#407BFF"/>
<path opacity="0.8" d="M316.145 195.741L315.298 196.272L372.232 287.138L373.079 286.607L316.145 195.741Z" fill="white"/>
<path opacity="0.8" d="M181.459 47.5575L180.608 48.0839L218.748 109.694L219.599 109.167L181.459 47.5575Z" fill="white"/>
<path opacity="0.8" d="M193.369 211.611L94.4266 232.336L94.6316 233.314L193.574 212.59L193.369 211.611Z" fill="white"/>
<path d="M190.88 324.05L94 233L107.7 129.41L107.81 129.3L180.81 47.38H181L313.25 29L394 99V99.26L373.12 287.31L372.76 287.38L190.88 324.05ZM95.06 232.6L191.19 323L372.19 286.5L393 99.39L313 30.09L181.3 48.3L108.65 129.83L95.06 232.6Z" fill="#407BFF"/>
<path opacity="0.8" d="M190.88 324.05L94 233L107.7 129.41L107.81 129.3L180.81 47.38H181L313.25 29L394 99V99.26L373.12 287.31L372.76 287.38L190.88 324.05ZM95.06 232.6L191.19 323L372.19 286.5L393 99.39L313 30.09L181.3 48.3L108.65 129.83L95.06 232.6Z" fill="white"/>
<path d="M220.68 109.44L219.18 118.19L217.68 109.44H220.68Z" fill="#7B7C7B"/>
<path d="M223.52 109.44C223.518 110.298 223.262 111.136 222.784 111.848C222.306 112.561 221.627 113.116 220.834 113.442C220.041 113.769 219.168 113.854 218.327 113.685C217.486 113.517 216.714 113.103 216.108 112.495C215.502 111.888 215.089 111.115 214.923 110.273C214.756 109.431 214.843 108.559 215.171 107.767C215.5 106.974 216.056 106.297 216.77 105.821C217.483 105.344 218.322 105.09 219.18 105.09C219.751 105.09 220.316 105.203 220.843 105.421C221.37 105.64 221.849 105.961 222.252 106.365C222.656 106.769 222.975 107.248 223.193 107.776C223.41 108.304 223.521 108.869 223.52 109.44Z" fill="#7B7C7B"/>
<path opacity="0.3" d="M219.61 106.38C220.09 107.01 219.71 108.11 218.75 108.84C217.79 109.57 216.64 109.64 216.15 109.01C215.66 108.38 216.05 107.27 217 106.54C217.95 105.81 219.12 105.74 219.61 106.38Z" fill="white"/>
<path d="M305.8 137.87L304.3 146.62L302.8 137.87H305.8Z" fill="#7B7C7B"/>
<path d="M304.3 142.21C306.697 142.21 308.64 140.267 308.64 137.87C308.64 135.473 306.697 133.53 304.3 133.53C301.903 133.53 299.96 135.473 299.96 137.87C299.96 140.267 301.903 142.21 304.3 142.21Z" fill="#7B7C7B"/>
<path opacity="0.3" d="M304.72 134.8C305.21 135.44 304.82 136.54 303.87 137.27C302.92 138 301.75 138.07 301.27 137.43C300.79 136.79 301.17 135.7 302.12 134.97C303.07 134.24 304.24 134.17 304.72 134.8Z" fill="white"/>
<path d="M194.98 211.58L193.48 220.33L191.98 211.58H194.98Z" fill="#7B7C7B"/>
<path d="M193.48 215.92C195.877 215.92 197.82 213.977 197.82 211.58C197.82 209.183 195.877 207.24 193.48 207.24C191.083 207.24 189.14 209.183 189.14 211.58C189.14 213.977 191.083 215.92 193.48 215.92Z" fill="#7B7C7B"/>
<path opacity="0.3" d="M193.91 208.52C194.39 209.15 194.01 210.25 193.06 210.98C192.11 211.71 190.94 211.78 190.45 211.15C189.96 210.52 190.35 209.41 191.31 208.68C192.27 207.95 193.42 207.88 193.91 208.52Z" fill="white"/>
<path d="M317.23 196.02L315.73 204.78L314.23 196.02H317.23Z" fill="#7B7C7B"/>
<path d="M320.07 196C320.07 196.858 319.815 197.697 319.339 198.411C318.862 199.125 318.184 199.681 317.391 200.01C316.598 200.338 315.725 200.424 314.883 200.257C314.041 200.089 313.268 199.676 312.661 199.069C312.054 198.462 311.641 197.689 311.473 196.847C311.306 196.005 311.392 195.132 311.72 194.339C312.049 193.546 312.605 192.868 313.319 192.391C314.033 191.915 314.872 191.66 315.73 191.66C316.881 191.66 317.985 192.117 318.799 192.931C319.613 193.745 320.07 194.849 320.07 196Z" fill="#7B7C7B"/>
<path opacity="0.3" d="M316.15 193C316.64 193.63 316.26 194.74 315.3 195.46C314.34 196.18 313.18 196.27 312.7 195.63C312.22 194.99 312.6 193.89 313.55 193.17C314.5 192.45 315.67 192.33 316.15 193Z" fill="white"/>
<path d="M427.08 101.27C427.089 108.481 424.756 115.5 420.43 121.27C418.948 123.252 417.244 125.057 415.35 126.65C413.658 128.116 411.814 129.396 409.85 130.47C405.308 132.973 400.244 134.38 395.061 134.58C389.879 134.78 384.721 133.766 380 131.62C379.61 131.45 379.22 131.26 378.84 131.06C376.492 129.9 374.296 128.456 372.3 126.76C368.59 123.631 365.608 119.729 363.561 115.329C361.515 110.928 360.453 106.133 360.45 101.28C360.45 92.4377 363.963 83.9575 370.215 77.7051C376.468 71.4526 384.948 67.94 393.79 67.94C402.632 67.94 411.112 71.4526 417.365 77.7051C423.617 83.9575 427.13 92.4377 427.13 101.28L427.08 101.27Z" fill="#F6F6F6"/>
<path d="M312.1 49.77C322.152 49.77 330.3 41.6216 330.3 31.57C330.3 21.5184 322.152 13.37 312.1 13.37C302.048 13.37 293.9 21.5184 293.9 31.57C293.9 41.6216 302.048 49.77 312.1 49.77Z" fill="#407BFF"/>
<path opacity="0.3" d="M329.25 31.57C329.25 34.9643 328.243 38.2824 326.357 41.1046C324.471 43.9268 321.791 46.1262 318.655 47.4247C315.518 48.7232 312.068 49.0625 308.739 48.3995C305.41 47.7366 302.352 46.1013 299.953 43.7004C297.553 41.2995 295.919 38.241 295.259 34.9116C294.598 31.5822 294.939 28.1316 296.239 24.9962C297.539 21.8608 299.74 19.1815 302.564 17.2971C305.387 15.4127 308.706 14.408 312.1 14.41C314.355 14.4034 316.589 14.8428 318.673 15.703C320.758 16.5631 322.651 17.827 324.245 19.4219C325.839 21.0168 327.102 22.9112 327.961 24.9961C328.82 27.081 329.258 29.3151 329.25 31.57Z" fill="white"/>
<path d="M324.67 43.24C323.007 45.0293 320.98 46.443 318.727 47.3867C316.473 48.3304 314.045 48.7823 311.602 48.7123C309.16 48.6423 306.761 48.0519 304.566 46.9806C302.37 45.9093 300.428 44.3817 298.87 42.5C298.96 42.4596 299.054 42.4294 299.15 42.41C299.375 42.0808 299.652 41.7903 299.97 41.55C299.965 41.5034 299.965 41.4565 299.97 41.41L300.27 41.35C300.84 41.0189 301.49 40.8495 302.15 40.86H302.7L303.77 40.67C303.77 40.67 303.77 40.77 303.77 40.96C305.13 41.07 307.2 41.19 309.55 41.35C310.051 40.9731 310.422 40.4485 310.61 39.85C310.811 39.2036 310.882 38.524 310.82 37.85C309.984 37.8064 309.167 37.5884 308.42 37.21C307.031 36.5049 305.96 35.3013 305.42 33.84C305.349 33.6365 305.289 33.4296 305.24 33.22C304.752 31.0906 304.722 28.8821 305.15 26.74H305C304.956 26.7326 304.916 26.7091 304.888 26.674C304.861 26.6388 304.847 26.5946 304.85 26.55C304.85 26.55 304.85 26.55 304.85 26.5C304.86 26.4485 304.889 26.4029 304.932 26.373C304.975 26.3431 305.028 26.3312 305.08 26.34H305.13C305.033 25.0394 305.131 23.7316 305.42 22.46C305.131 21.8488 304.981 21.1811 304.981 20.505C304.981 19.8288 305.131 19.1611 305.42 18.55C306.06 17.63 305.56 18.12 307.24 17.98C308.92 17.84 307.91 16.34 308.98 16.33C310.05 16.32 309.83 16.98 311.14 17.48C312.45 17.98 311.97 16.48 313.47 16.34C314.97 16.2 315.17 17.34 316.24 17.63C316.923 17.7663 317.627 17.7663 318.31 17.63C319.09 17.63 319.16 19.9 319.49 20.33C319.82 20.76 320.38 20.11 321.09 21.28C321.18 21.4525 321.221 21.6459 321.21 21.84C321.21 23.35 319.33 26.23 319.33 26.23C319.236 26.9427 319.105 27.6503 318.94 28.35C319.223 28.6477 319.407 29.0252 319.468 29.4314C319.529 29.8375 319.463 30.2525 319.28 30.62C318.909 31.3574 318.332 31.972 317.62 32.39C317.317 33.0477 316.955 33.6769 316.54 34.27C316.07 36.89 315.84 39.99 316.73 41.94C319.404 42.1895 322.057 42.6239 324.67 43.24Z" fill="#407BFF"/>
<path opacity="0.5" d="M312.1 49.77C322.152 49.77 330.3 41.6216 330.3 31.57C330.3 21.5184 322.152 13.37 312.1 13.37C302.048 13.37 293.9 21.5184 293.9 31.57C293.9 41.6216 302.048 49.77 312.1 49.77Z" fill="white"/>
<path d="M125.887 133.786C128.196 124.003 122.138 114.201 112.355 111.892C102.572 109.583 92.7698 115.642 90.4609 125.425C88.1519 135.208 94.2107 145.01 103.993 147.319C113.776 149.628 123.579 143.569 125.887 133.786Z" fill="#407BFF"/>
<path opacity="0.2" d="M125.34 129.61C125.34 133.004 124.334 136.322 122.448 139.144C120.562 141.966 117.882 144.165 114.747 145.464C111.611 146.763 108.161 147.102 104.832 146.44C101.504 145.778 98.4459 144.144 96.0461 141.744C93.6462 139.344 92.0119 136.286 91.3498 132.958C90.6876 129.629 91.0275 126.179 92.3263 123.043C93.6251 119.908 95.8245 117.228 98.6464 115.342C101.468 113.456 104.786 112.45 108.18 112.45C110.435 112.445 112.669 112.885 114.753 113.745C116.837 114.606 118.731 115.87 120.326 117.464C121.92 119.059 123.184 120.953 124.045 123.037C124.905 125.121 125.345 127.355 125.34 129.61Z" fill="white"/>
<path d="M121 141C118.165 144.174 114.252 146.181 110.02 146.632C105.788 147.083 101.54 145.945 98.1 143.44L104.9 141.34C105.03 141.49 105.15 141.65 105.28 141.81L106.15 141.65C106.7 141.55 107.24 141.47 107.79 141.39C108.168 140.745 108.4 140.025 108.47 139.28H107.53C107.72 138.6 106.71 137.19 106.71 137.19L106.37 139.06C105.972 138.987 105.587 138.852 105.23 138.66C104.77 138.37 104.23 136.34 104.23 136.34C104.23 136.34 103.05 138.34 102.79 138.77C102.53 139.2 101.85 138.77 101.85 138.77C101.593 137.619 101.631 136.422 101.96 135.29C102.061 135.098 102.107 134.883 102.094 134.667C102.081 134.45 102.008 134.242 101.884 134.064C101.76 133.887 101.59 133.747 101.391 133.66C101.193 133.572 100.975 133.541 100.76 133.57C100.717 134.24 100.565 134.899 100.31 135.52C99.9742 136.323 99.8173 137.19 99.85 138.06C99.85 138.78 99.91 139.28 99.4 139.28C98.89 139.28 98.82 138.83 98.88 138.06C98.94 137.29 98.14 136.54 98.6 135.92C99.06 135.3 98.71 133.57 98.71 133.57C98.43 134.77 97.11 134.72 96.89 135.57C96.67 136.42 97.51 137.63 97.11 138.06C96.71 138.49 96.03 138.06 96.03 138.06C96.03 138.06 96.6 137.12 96.2 136.57C95.8 136.02 95.2 135.74 95.45 134.63C95.7 133.52 96.25 133.52 96.09 132.28C95.93 131.04 95.34 131.12 96.09 130.66C97.041 129.693 97.6427 128.437 97.8 127.09C97.8 126.15 97.4 123.98 99 123.22C100.6 122.46 101 121.87 100.71 119.86C100.42 117.85 101.96 117.99 103.91 118.39C103.91 118.39 104.91 116.85 105.79 117.13C106.67 117.41 107.39 117.25 107.58 116.73C107.77 116.21 110.3 116.27 110.68 116.73C111.034 117.012 111.452 117.202 111.897 117.282C112.342 117.362 112.8 117.331 113.23 117.19C114.06 116.85 116.23 118.19 116.23 119.12C116.23 120.05 116.17 120.56 117.35 121.12C118.53 121.68 118.75 121.91 119.26 123.96C119.77 126.01 118.92 126.82 119.95 127.61C120.98 128.4 120.86 131.56 120.95 132.53C121.04 133.5 120.95 134.58 120.95 134.58L120.66 134.67C120.38 134.74 120.15 133.61 120.2 132.77C120.25 131.93 118.47 130.77 118.32 130.71C118.32 130.79 118.68 131.48 118.89 132.03C119.126 133.035 119.203 134.071 119.12 135.1C119.06 136.1 120.2 136.61 120.2 136.61L118.95 137.23C118.95 137.23 117.95 135.16 118.31 134.08C118.38 133.714 118.36 133.336 118.252 132.979C118.144 132.622 117.951 132.296 117.69 132.03V134.08C117.69 134.08 117.35 134.81 116.84 135.78C116.33 136.75 117.24 137.04 117.38 137.56C117.52 138.08 116.26 138.1 116.26 138.1L116.02 136.87L115.59 138.1C114.823 138.508 113.984 138.763 113.12 138.85C113.118 139.548 113.289 140.235 113.62 140.85C114.02 140.85 114.43 140.85 114.84 140.79C115.64 140.79 116.48 140.79 117.29 140.79C118.6 140.87 120 141 121 141Z" fill="#407BFF"/>
<path d="M179.8 76.85C196.656 76.85 210.32 63.1857 210.32 46.33C210.32 29.4743 196.656 15.81 179.8 15.81C162.944 15.81 149.28 29.4743 149.28 46.33C149.28 63.1857 162.944 76.85 179.8 76.85Z" fill="#F6F6F6"/>
<path d="M95.44 263.08C111.379 263.08 124.3 250.159 124.3 234.22C124.3 218.281 111.379 205.36 95.44 205.36C79.5011 205.36 66.58 218.281 66.58 234.22C66.58 250.159 79.5011 263.08 95.44 263.08Z" fill="#F7F7F7"/>
<path d="M190.24 351.83C206.179 351.83 219.1 338.909 219.1 322.97C219.1 307.031 206.179 294.11 190.24 294.11C174.301 294.11 161.38 307.031 161.38 322.97C161.38 338.909 174.301 351.83 190.24 351.83Z" fill="#F6F6F6"/>
<path d="M399.152 309.084C413.117 295.119 413.117 272.477 399.152 258.512C385.187 244.547 362.545 244.547 348.58 258.512C334.615 272.477 334.615 295.119 348.58 309.084C362.545 323.049 385.187 323.049 399.152 309.084Z" fill="#F6F6F6"/>
<path d="M268.957 94.3959L255.253 93.74C253.217 93.6426 251.488 95.2138 251.391 97.2494L250.735 110.954C250.637 112.989 252.209 114.718 254.244 114.816L267.948 115.472C269.984 115.569 271.713 113.998 271.811 111.962L272.467 98.2581C272.564 96.2225 270.993 94.4933 268.957 94.3959Z" fill="#000000"/>
<path opacity="0.6" d="M267.6 100.73C266.23 98.24 263.34 99.03 261.78 100.84C260.4 98.84 257.6 97.84 256 100.17C253.29 104.17 258.28 108.17 260.65 109.75L261.33 110.2L262.05 109.81C264.56 108.45 269.91 104.92 267.6 100.73Z" fill="white"/>
<path d="M263.44 113.61C263.44 113.61 260.37 119.8 254.08 121.48C254.08 121.48 257.6 119.67 257.65 113.07L263.44 113.61Z" fill="#000000"/>
<path d="M279.51 178.88C279.51 178.88 287.45 170.94 290 165.28C290 165.28 289 162.12 289.94 160.48C290.88 158.84 296.14 154.15 297.55 155.15C298.96 156.15 301 160.08 300.16 161.74C299.32 163.4 294.16 166.74 294.16 166.74C294.16 166.74 287.73 179.63 283.75 182.54C279.77 185.45 279.51 178.88 279.51 178.88Z" fill="#EBB376"/>
<path d="M259.43 155C264.05 155.6 269.33 178 273.02 180.13C276.71 182.26 286.3 169.85 286.3 169.85L290.69 174.85C290.69 174.85 278 192.51 273 190.94C268 189.37 258.57 171.94 258.57 171.94L259.43 155Z" fill="#263238"/>
<path opacity="0.05" d="M259.43 155C264.05 155.6 269.33 178 273.02 180.13C276.71 182.26 286.3 169.85 286.3 169.85L290.69 174.85C290.69 174.85 278 192.51 273 190.94C268 189.37 258.57 171.94 258.57 171.94L259.43 155Z" fill="white"/>
<path d="M287.49 361.8L281.42 362.87L278.93 354.59L276.65 346.99L283.66 344.54L285.69 353.68L287.49 361.8Z" fill="#EBB376"/>
<path d="M280.05 362.71C279.95 362.04 288.27 361.11 288.27 361.11C288.27 361.11 294.27 365.37 299.36 365.65C304.45 365.93 302.25 369.38 296.76 370.35L283.16 372.75C279.26 373.44 281.11 369.68 280.05 362.71Z" fill="#263238"/>
<path d="M292.35 362.5C291.334 362.455 290.327 362.29 289.35 362.01H289.28L289.22 361.95V361.89C289.215 361.857 289.215 361.823 289.22 361.79C289.22 361.7 289.59 359.66 290.62 359C290.776 358.898 290.953 358.831 291.138 358.803C291.322 358.776 291.511 358.788 291.69 358.84C292.1 358.96 292.32 359.16 292.36 359.44C292.36 359.88 291.9 360.44 291.29 360.89C291.892 360.672 292.545 360.63 293.17 360.77C293.288 360.806 293.397 360.867 293.49 360.948C293.583 361.029 293.658 361.128 293.71 361.24C293.801 361.376 293.849 361.536 293.849 361.7C293.849 361.864 293.801 362.024 293.71 362.16C293.518 362.305 293.298 362.41 293.065 362.469C292.831 362.527 292.588 362.538 292.35 362.5ZM290.1 361.74C291.4 362.04 292.99 362.23 293.32 361.84C293.32 361.84 293.44 361.7 293.32 361.4C293.292 361.34 293.252 361.287 293.202 361.243C293.152 361.2 293.093 361.168 293.03 361.15C292.017 361.067 291.002 361.272 290.1 361.74ZM291.31 359.2C291.147 359.203 290.987 359.252 290.85 359.34C290.284 359.876 289.9 360.575 289.75 361.34C290.89 360.66 291.95 359.82 291.91 359.44C291.91 359.33 291.69 359.25 291.57 359.22C291.484 359.204 291.397 359.197 291.31 359.2Z" fill="#7B7C7B"/>
<path opacity="0.2" d="M285.72 353.87L278.96 354.76L276.67 347.07L283.67 344.58L285.72 353.87Z" fill="black"/>
<path d="M246.94 364.4H240.77L239.76 355.81L238.84 347.93L246.17 346.74L246.58 356.09L246.94 364.4Z" fill="#EBB376"/>
<path d="M239.45 364C239.45 363.32 247.82 363.85 247.82 363.85C247.82 363.85 252.96 369.08 257.96 370.25C262.96 371.42 260.16 374.42 254.58 374.42H240.77C236.81 374.43 239.29 371.05 239.45 364Z" fill="#263238"/>
<path d="M252.22 366C251.014 365.851 249.843 365.492 248.76 364.94C248.728 364.929 248.7 364.908 248.68 364.88C248.66 364.825 248.66 364.765 248.68 364.71C248.68 364.62 249.41 362.71 250.55 362.2C250.719 362.121 250.903 362.081 251.09 362.081C251.277 362.081 251.461 362.121 251.63 362.2C252.01 362.38 252.19 362.62 252.18 362.9C252.18 363.34 251.56 363.78 250.88 364.15C251.51 364.042 252.157 364.111 252.75 364.35C252.86 364.409 252.958 364.489 253.035 364.588C253.113 364.686 253.169 364.799 253.2 364.92C253.259 365.071 253.271 365.237 253.235 365.395C253.2 365.554 253.118 365.698 253 365.81C252.77 365.961 252.494 366.028 252.22 366ZM249.52 364.8C250.75 365.32 252.28 365.8 252.68 365.46C252.68 365.46 252.81 365.34 252.68 365.02C252.663 364.956 252.633 364.896 252.592 364.844C252.551 364.793 252.499 364.75 252.44 364.72C251.477 364.483 250.468 364.511 249.52 364.8ZM251.01 362.5C250.896 362.499 250.784 362.523 250.68 362.57C250.019 363 249.514 363.631 249.24 364.37C250.48 363.89 251.68 363.24 251.7 362.87C251.7 362.75 251.51 362.64 251.4 362.59C251.275 362.53 251.138 362.5 251 362.5H251.01Z" fill="#7B7C7B"/>
<path opacity="0.2" d="M246.58 356.28L239.76 355.98L238.84 348.02L246.17 346.78L246.58 356.28Z" fill="black"/>
<path d="M286.3 349.05L276.3 350.81C266.22 325.7 259.06 304.75 254 287.36C251.27 277.97 249.15 269.63 247.51 262.23L247.97 289.55V351.64H237.84C213.17 234 230.65 207.12 230.65 207.12L260.16 202.12C261.328 207.566 262.153 213.08 262.63 218.63L263.96 228.39L275.5 287.95L286.3 349.05Z" fill="#A2BB8D"/>
<path d="M274.75 349.57L287.13 345.47L286.96 350.73L276.72 354L274.75 349.57Z" fill="#7B7C7B"/>
<path d="M236.51 350.14L249.43 348.25L248.34 353.41L237.69 354.85L236.51 350.14Z" fill="#7B7C7B"/>
<path d="M257.5 142.74C257.457 142.749 257.413 142.749 257.37 142.74C253.61 140.46 250.25 132.11 250.11 131.74C250.097 131.709 250.09 131.676 250.09 131.643C250.09 131.609 250.097 131.576 250.11 131.545C250.123 131.515 250.142 131.487 250.166 131.464C250.19 131.44 250.219 131.422 250.25 131.41C250.312 131.387 250.382 131.388 250.443 131.414C250.504 131.44 250.553 131.489 250.58 131.55C250.58 131.64 254.01 140.1 257.58 142.29C257.637 142.323 257.678 142.378 257.695 142.441C257.712 142.505 257.703 142.573 257.67 142.63C257.651 142.659 257.626 142.684 257.597 142.703C257.567 142.722 257.534 142.735 257.5 142.74Z" fill="#263238"/>
<path d="M227.23 120.8C227.23 120.8 228.7 115.8 238.5 114.96C248.3 114.12 253.17 123.77 250.86 130.96C250.86 130.96 252.92 140.73 256.86 143.59C256.86 143.59 238 152.12 228.48 152.16C226.36 152.16 221.84 141.66 221.25 134.07C220.71 126.75 222.91 121 227.23 120.8Z" fill="#263238"/>
<path d="M230.65 202.71V207.12L260.75 204.81V199.6L230.65 202.71Z" fill="#263238"/>
<path opacity="0.3" d="M230.65 202.71V207.12L260.75 204.81V199.6L230.65 202.71Z" fill="white"/>
<path d="M253.8 200.668L247.217 201.258L247.664 206.248L254.248 205.658L253.8 200.668Z" fill="white"/>
<path d="M240.764 200.841L239.276 200.917L239.665 208.517L241.153 208.441L240.764 200.841Z" fill="#7B7C7B"/>
<path d="M259.134 198.831L257.646 198.907L258.034 206.507L259.522 206.431L259.134 198.831Z" fill="#7B7C7B"/>
<path d="M260.87 200.13L230.77 202.73C230.48 198.18 230.19 194.28 229.5 189.91C229.06 187.11 228.45 184.11 227.57 180.62C226.89 177.89 226.04 174.85 224.96 171.37C224.91 171.18 224.85 170.99 224.79 170.8C224.17 168.8 219.79 170.33 219.36 167.94C217.62 157.3 229.1 156.52 233.36 155.82C237.827 155.027 242.345 154.553 246.88 154.4C252.73 154.35 259.46 155.01 259.46 155.01C259.46 155.01 260.46 155.24 261.02 161.45C261.54 167.27 262.08 178.93 260.87 200.13Z" fill="#263238"/>
<path d="M244.36 161C236.95 160.05 234.72 156.88 234.72 156.88C239.42 152.44 235.51 144.75 235.51 144.75L244.44 146.42C244.239 147.661 244.122 148.914 244.09 150.17C244.03 155.59 246.48 155.65 246.48 155.65C248 158.62 244.36 161 244.36 161Z" fill="#EBB376"/>
<path opacity="0.2" d="M244.44 146.46C244.239 147.701 244.122 148.954 244.09 150.21C238.09 150.21 235.51 144.79 235.51 144.79L244.44 146.46Z" fill="black"/>
<path d="M237.6 121.47C245.18 119.75 248.54 123.25 250.86 130.94C253.77 140.55 253.17 147.94 243.22 148.04C229.71 148.12 225 124.32 237.6 121.47Z" fill="#EBB376"/>
<path d="M245.86 131.63C246.724 132.624 247.704 133.51 248.78 134.27C248.631 134.634 248.384 134.949 248.066 135.18C247.748 135.412 247.372 135.55 246.98 135.58L245.86 131.63Z" fill="#D58745"/>
<path d="M241.08 132.06C241.24 132.68 241.03 133.26 240.62 133.37C240.21 133.48 239.74 133.05 239.62 132.43C239.5 131.81 239.62 131.23 240.08 131.12C240.54 131.01 240.93 131.44 241.08 132.06Z" fill="#263238"/>
<path d="M239.89 131.2L241.1 130.33C241.1 130.33 240.72 131.63 239.89 131.2Z" fill="#263238"/>
<path d="M248.75 130C248.91 130.62 248.7 131.21 248.29 131.31C247.88 131.41 247.41 131 247.29 130.38C247.17 129.76 247.34 129.17 247.75 129.07C248.16 128.97 248.6 129.38 248.75 130Z" fill="#263238"/>
<path d="M247.56 129.13L248.77 128.27C248.77 128.27 248.39 129.57 247.56 129.13Z" fill="#263238"/>
<path d="M236.79 129.09H236.63C236.587 129.069 236.548 129.039 236.517 129.003C236.485 128.967 236.462 128.924 236.447 128.879C236.432 128.833 236.426 128.785 236.43 128.737C236.434 128.689 236.448 128.643 236.47 128.6C236.821 128.016 237.304 127.523 237.881 127.159C238.458 126.796 239.112 126.574 239.79 126.51C239.885 126.504 239.978 126.535 240.051 126.597C240.124 126.658 240.17 126.745 240.18 126.84C240.188 126.934 240.16 127.027 240.1 127.1C240.04 127.173 239.954 127.22 239.86 127.23C239.305 127.286 238.771 127.468 238.296 127.76C237.821 128.053 237.419 128.45 237.12 128.92C237.086 128.976 237.038 129.022 236.979 129.052C236.921 129.082 236.855 129.095 236.79 129.09Z" fill="#263238"/>
<path d="M245.26 125.63C245.183 125.63 245.107 125.605 245.045 125.559C244.983 125.513 244.937 125.448 244.914 125.374C244.892 125.3 244.894 125.221 244.92 125.148C244.946 125.075 244.995 125.013 245.06 124.97C245.596 124.691 246.189 124.536 246.794 124.519C247.398 124.502 247.999 124.622 248.55 124.87C248.595 124.887 248.635 124.913 248.67 124.946C248.705 124.978 248.733 125.018 248.752 125.061C248.772 125.105 248.783 125.152 248.784 125.2C248.785 125.248 248.777 125.295 248.76 125.34C248.743 125.385 248.717 125.425 248.684 125.46C248.652 125.495 248.612 125.523 248.568 125.542C248.525 125.562 248.478 125.573 248.43 125.574C248.382 125.575 248.335 125.567 248.29 125.55C247.849 125.335 247.365 125.224 246.875 125.224C246.385 125.224 245.901 125.335 245.46 125.55C245.401 125.592 245.332 125.62 245.26 125.63Z" fill="#263238"/>
<path d="M246.55 138.81C246.386 139.749 246.289 140.698 246.26 141.65C246.09 141.65 245.93 141.65 245.76 141.71C243.51 141.99 242.37 141.37 241.76 140.6C241.338 139.993 241.144 139.256 241.21 138.52C242.678 138.972 244.227 139.102 245.75 138.9C246.25 138.86 246.55 138.81 246.55 138.81Z" fill="#263238"/>
<path d="M245.78 138.9L245.67 139.73C243.54 139.99 242.01 139.88 241.27 139.32C241.231 139.055 241.231 138.785 241.27 138.52C242.729 138.968 244.267 139.097 245.78 138.9Z" fill="white"/>
<path d="M245.76 141.71C243.51 141.99 242.37 141.37 241.76 140.6C242.621 140.517 243.49 140.581 244.33 140.79C244.89 140.942 245.389 141.263 245.76 141.71Z" fill="#DE5753"/>
<path d="M232.2 136.12C232.2 136.12 234.34 129.12 232.71 124.4C232.71 124.4 246.35 114.86 250.54 129.94C250.54 129.94 248.94 116.07 235.84 118.72C222.74 121.37 227.11 140.42 235.13 144.58C235.13 144.58 230.89 140.51 232.2 136.12Z" fill="#263238"/>
<path d="M233.81 137.44C233.536 136.58 232.934 135.863 232.134 135.446C231.334 135.028 230.402 134.943 229.54 135.21C227.25 136 227.22 141.08 233.32 140.91C234.2 140.89 234.49 140 233.81 137.44Z" fill="#EBB376"/>
<path d="M232.71 124.4C232.71 124.4 240.57 121.51 244.99 123.69C244.99 123.69 240.23 119.41 232.15 123.44L232.71 124.4Z" fill="#263238"/>
<path d="M227.84 157.75C227.84 157.75 236.55 164.81 244.66 164.7C252.77 164.59 255.66 155.47 255.66 155.47C255.66 155.47 243 151.74 227.84 157.75Z" fill="#EBB376"/>
<path opacity="0.2" d="M254 287.36C251.27 277.97 249.15 269.63 247.51 262.23C247.655 253.457 248.296 244.7 249.43 236C249.43 236 253.75 269.82 254 287.36Z" fill="black"/>
<path d="M203.47 173.4C203.47 173.4 197.47 163.89 196.27 157.81C196.27 157.81 197.92 154.94 197.4 153.14C196.88 151.34 192.77 145.59 191.18 146.24C189.59 146.89 186.71 150.24 187.18 152.08C187.65 153.92 191.94 158.34 191.94 158.34C191.94 158.34 195.33 172.34 198.56 176.06C201.79 179.78 203.47 173.4 203.47 173.4Z" fill="#EBB376"/>
<path d="M219.72 162.72C222.72 162.3 228.88 168.22 227.95 173.34C227.02 178.46 218.44 192.86 211.82 191.74C202.47 190.16 192.2 165.51 192.2 165.51L197.33 161.04C197.33 161.04 209.44 182.04 211.82 181.6C214.2 181.16 219.72 162.72 219.72 162.72Z" fill="#263238"/>
<path opacity="0.05" d="M219.72 162.72C222.72 162.3 228.88 168.22 227.95 173.34C227.02 178.46 218.44 192.86 211.82 191.74C202.47 190.16 192.2 165.51 192.2 165.51L197.33 161.04C197.33 161.04 209.44 182.04 211.82 181.6C214.2 181.16 219.72 162.72 219.72 162.72Z" fill="white"/>
<path d="M190.1 164.01L197.59 159.51L198.78 161.45L191.71 167.71L190.1 164.01Z" fill="#263238"/>
<path d="M284.63 169.72L290.69 177.23L291.75 174.87L286.3 168.53L284.63 169.72Z" fill="#263238"/>
<path d="M287.66 159.56L297.24 147.89C297.319 147.794 297.416 147.715 297.527 147.658C297.637 147.602 297.758 147.569 297.882 147.561C298.006 147.554 298.131 147.572 298.247 147.615C298.364 147.657 298.47 147.724 298.56 147.81L302.83 151.81C302.997 151.966 303.099 152.181 303.114 152.409C303.128 152.638 303.056 152.863 302.91 153.04L293.18 165C293.1 165.1 292.999 165.181 292.885 165.239C292.771 165.297 292.646 165.329 292.519 165.335C292.391 165.341 292.263 165.319 292.145 165.272C292.026 165.224 291.919 165.152 291.83 165.06L287.7 160.75C287.551 160.59 287.466 160.381 287.458 160.162C287.451 159.944 287.523 159.73 287.66 159.56Z" fill="#407BFF"/>
<path opacity="0.3" d="M287.66 159.56L297.24 147.89C297.319 147.794 297.416 147.715 297.527 147.658C297.637 147.602 297.758 147.569 297.882 147.561C298.006 147.554 298.131 147.572 298.247 147.615C298.364 147.657 298.47 147.724 298.56 147.81L302.83 151.81C302.997 151.966 303.099 152.181 303.114 152.409C303.128 152.638 303.056 152.863 302.91 153.04L293.18 165C293.1 165.1 292.999 165.181 292.885 165.239C292.771 165.297 292.646 165.329 292.519 165.335C292.391 165.341 292.263 165.319 292.145 165.272C292.026 165.224 291.919 165.152 291.83 165.06L287.7 160.75C287.551 160.59 287.466 160.381 287.458 160.162C287.451 159.944 287.523 159.73 287.66 159.56Z" fill="black"/>
<path d="M287.27 159.09L296.86 147.42C296.939 147.324 297.036 147.245 297.147 147.188C297.257 147.132 297.378 147.099 297.502 147.091C297.626 147.084 297.751 147.102 297.867 147.145C297.984 147.188 298.09 147.254 298.18 147.34L302.45 151.34C302.615 151.498 302.715 151.712 302.73 151.939C302.745 152.167 302.673 152.392 302.53 152.57L292.8 164.51C292.719 164.61 292.618 164.691 292.503 164.749C292.388 164.807 292.262 164.84 292.133 164.846C292.005 164.851 291.877 164.83 291.757 164.782C291.638 164.735 291.53 164.662 291.44 164.57L287.32 160.26C287.173 160.103 287.088 159.899 287.079 159.684C287.069 159.47 287.137 159.259 287.27 159.09Z" fill="#407BFF"/>
<path opacity="0.6" d="M297.24 147.89L301.98 152.47L292.71 163.88L288.1 159.03L297.24 147.89Z" fill="white"/>
<g clip-path="url(#clip1)">
<path d="M180 42.3632L182.476 39.3363C182.476 39.3363 186.719 39.4262 190.945 41.3913C189.863 43.0278 187.715 43.8287 187.715 43.8287C187.571 42.391 186.563 42.04 183.36 42.04L180.001 61.0007L176.618 42.0363C173.438 42.0363 172.431 42.388 172.286 43.825C172.286 43.825 170.138 43.0323 169.056 41.395C173.282 39.43 177.525 39.34 177.525 39.34L180.002 42.3632H179.998H180ZM180 38.4647C183.414 38.4332 187.325 38.992 191.328 40.7417C191.864 39.7727 192 39.3475 192 39.3475C187.625 37.6128 183.527 37.0158 180 37C176.473 37.0158 172.375 37.6098 168 39.3475C168 39.3475 168.195 39.8747 168.672 40.7462C172.676 38.9882 176.586 38.434 180 38.461V38.4647Z" fill="#F70B0B"/>
</g>
<g clip-path="url(#clip2)">
<path d="M204 316.557C203.043 316.977 202.015 317.261 200.936 317.388C202.038 316.735 202.883 315.701 203.282 314.469C202.235 315.083 201.089 315.516 199.894 315.749C198.921 314.724 197.535 314.083 196.001 314.083C193.055 314.083 190.666 316.445 190.666 319.36C190.666 319.773 190.714 320.176 190.805 320.562C186.371 320.342 182.441 318.241 179.81 315.049C179.351 315.828 179.088 316.735 179.088 317.702C179.088 319.533 180.03 321.148 181.461 322.094C180.614 322.068 179.785 321.842 179.045 321.434C179.044 321.456 179.044 321.478 179.044 321.5C179.044 324.057 180.883 326.19 183.323 326.675C182.538 326.886 181.714 326.917 180.914 326.765C181.593 328.862 183.563 330.388 185.897 330.43C184.072 331.846 181.772 332.689 179.272 332.689C178.842 332.689 178.417 332.664 178 332.616C180.361 334.113 183.164 334.987 186.177 334.987C195.988 334.987 201.354 326.945 201.354 319.972C201.354 319.743 201.349 319.515 201.338 319.289C202.383 318.542 203.284 317.617 204 316.557Z" fill="#55ACEE"/>
</g>
</g>
<defs>
<clipPath id="clip0">
<rect width="500" height="383.12" fill="white"/>
</clipPath>
<clipPath id="clip1">
<rect width="24" height="24" fill="white" transform="translate(168 37)"/>
</clipPath>
<clipPath id="clip2">
<rect width="26" height="21" fill="white" transform="translate(178 314)"/>
</clipPath>
</defs>
</svg>
