<svg width="512" height="375" viewBox="0 0 512 375" fill="none" xmlns="http://www.w3.org/2000/svg">
<g clip-path="url(#clip0)">
<path opacity="0.2" d="M67.7586 189.988C61.0248 192.019 54.722 196.936 53.0399 203.759C51.1159 211.6 55.5526 219.504 56.1939 227.555C58.265 253.933 20.6798 272.543 26.0416 298.454C28.1705 308.756 36.7757 316.335 45.2547 322.596C58.838 332.594 73.9089 341.427 90.5988 343.92C115.931 347.709 142.398 336.572 167.02 343.61C186.88 349.289 202.077 365.931 221.8 372.071C236.813 376.748 252.988 374.905 268.585 373.011C276.995 371.993 285.805 370.817 292.592 365.779C305.208 356.4 306.002 337.879 314.449 324.606C327.496 304.138 356.103 300.118 380.089 304.096C404.075 308.074 427.368 317.867 451.669 317.069C456.863 316.896 462.183 316.193 466.714 313.648C472.223 310.556 475.945 305.109 479.235 299.719C499.802 265.903 511.091 227.278 511.968 187.726C512.11 180.929 511.869 173.839 508.667 167.84C504.62 160.251 496.53 155.711 488.476 152.657C469.137 145.309 447.774 144.107 428.824 135.82C410.546 127.827 395.743 113.809 379.826 101.796C348.106 77.9015 311.341 61.554 272.333 53.9995C263.191 52.2361 253.703 50.9765 244.619 53.0129C234.153 55.3588 225.133 61.872 217.022 68.8837C195.443 87.536 178.149 110.55 158.263 130.992C144.544 145.089 129.607 157.95 113.623 169.425C106.264 174.72 98.4418 181.008 90.2414 184.923C82.7348 188.502 75.6961 187.6 67.7586 189.988Z" fill="#000000"/>
<path d="M163.945 24.2156C163.945 24.2156 143.628 51.155 158.163 82.5554C172.698 113.956 132.831 164.408 132.831 164.408" stroke="#535461" stroke-width="2" stroke-miterlimit="10"/>
<path d="M173.055 14.1336C171.441 21.0666 163.719 25.197 163.719 25.197C163.719 25.197 158.62 18.0855 160.234 11.1526C161.848 4.21958 166.016 -0.734795 169.57 0.0891851C173.123 0.913165 174.669 7.2006 173.055 14.1336Z" fill="#8ED16F"/>
<path d="M167.868 12.9255C168.376 10.7489 168.124 8.83047 167.307 8.64061C166.49 8.45074 165.416 10.0613 164.909 12.2379C164.402 14.4146 164.653 16.333 165.47 16.5229C166.287 16.7127 167.361 15.1021 167.868 12.9255Z" fill="#8ED16F"/>
<path opacity="0.3" d="M167.868 12.9255C168.376 10.7489 168.124 8.83047 167.307 8.64061C166.49 8.45074 165.416 10.0613 164.909 12.2379C164.402 14.4146 164.653 16.333 165.47 16.5229C166.287 16.7127 167.361 15.1021 167.868 12.9255Z" fill="black"/>
<path d="M169.543 44.9357C162.836 47.3499 155.166 43.1198 155.166 43.1198C155.166 43.1198 158.373 34.9797 165.086 32.5708C171.799 30.1618 178.227 30.9963 179.463 34.3867C180.698 37.777 176.251 42.5215 169.543 44.9357Z" fill="#8ED16F"/>
<path d="M167.659 39.5905C169.763 38.8306 171.238 37.5763 170.952 36.7889C170.667 36.0015 168.73 35.9791 166.626 36.739C164.522 37.4988 163.048 38.7531 163.333 39.5405C163.618 40.3279 165.555 40.3503 167.659 39.5905Z" fill="#8ED16F"/>
<path opacity="0.3" d="M167.659 39.5905C169.763 38.8306 171.238 37.5763 170.952 36.7889C170.667 36.0015 168.73 35.9791 166.626 36.739C164.522 37.4988 163.048 38.7531 163.333 39.5405C163.618 40.3279 165.555 40.3503 167.659 39.5905Z" fill="black"/>
<path d="M167.982 69.482C161.275 71.8962 153.605 67.6661 153.605 67.6661C153.605 67.6661 156.812 59.526 163.525 57.117C170.237 54.7081 176.666 55.5425 177.902 58.9329C179.137 62.3233 174.69 67.073 167.982 69.482Z" fill="#8ED16F"/>
<path d="M166.176 64.5077C168.282 63.7507 169.759 62.4981 169.475 61.7099C169.191 60.9217 167.253 60.8965 165.147 61.6535C163.041 62.4105 161.564 63.6631 161.848 64.4513C162.133 65.2394 164.07 65.2647 166.176 64.5077Z" fill="#8ED16F"/>
<path opacity="0.3" d="M166.176 64.5077C168.282 63.7507 169.759 62.4981 169.475 61.7099C169.191 60.9217 167.253 60.8965 165.147 61.6535C163.041 62.4105 161.564 63.6631 161.848 64.4513C162.133 65.2394 164.07 65.2647 166.176 64.5077Z" fill="black"/>
<path d="M175.82 98.2792C169.112 100.693 161.443 96.4633 161.443 96.4633C161.443 96.4633 164.65 88.3232 171.362 85.9143C178.075 83.5053 184.504 84.3398 185.739 87.7302C186.975 91.1206 182.527 95.8808 175.82 98.2792Z" fill="#8ED16F"/>
<path d="M174.015 93.3177C176.121 92.5607 177.598 91.3081 177.314 90.52C177.029 89.7318 175.092 89.7065 172.986 90.4636C170.88 91.2206 169.403 92.4732 169.687 93.2613C169.971 94.0495 171.909 94.0747 174.015 93.3177Z" fill="#8ED16F"/>
<path opacity="0.3" d="M174.015 93.3177C176.121 92.5607 177.598 91.3081 177.314 90.52C177.029 89.7318 175.092 89.7065 172.986 90.4636C170.88 91.2206 169.403 92.4732 169.687 93.2613C169.971 94.0495 171.909 94.0747 174.015 93.3177Z" fill="black"/>
<path d="M170.721 124.615C164.013 127.029 156.344 122.799 156.344 122.799C156.344 122.799 159.551 114.659 166.263 112.25C172.976 109.841 179.405 110.676 180.64 114.066C181.876 117.456 177.434 122.206 170.721 124.615Z" fill="#8ED16F"/>
<path d="M168.93 119.206C171.034 118.446 172.509 117.192 172.223 116.405C171.938 115.617 170.001 115.595 167.897 116.355C165.793 117.115 164.319 118.369 164.604 119.156C164.889 119.944 166.826 119.966 168.93 119.206Z" fill="#8ED16F"/>
<path opacity="0.3" d="M168.93 119.206C171.034 118.446 172.509 117.192 172.223 116.405C171.938 115.617 170.001 115.595 167.897 116.355C165.793 117.115 164.319 118.369 164.604 119.156C164.889 119.944 166.826 119.966 168.93 119.206Z" fill="black"/>
<path d="M139.26 51.9107C144.212 57.033 152.964 56.6341 152.964 56.6341C152.964 56.6341 153.684 47.9167 148.732 42.7944C143.781 37.6721 137.646 35.5623 135.028 38.071C132.41 40.5797 134.308 46.7884 139.26 51.9107Z" fill="#8ED16F"/>
<path d="M146.999 50.0929C147.603 49.5111 146.832 47.7361 145.277 46.1282C143.723 44.5204 141.973 43.6886 141.37 44.2704C140.766 44.8522 141.537 46.6273 143.091 48.2351C144.646 49.8429 146.396 50.6747 146.999 50.0929Z" fill="#8ED16F"/>
<path opacity="0.3" d="M146.999 50.0929C147.603 49.5111 146.832 47.7361 145.277 46.1282C143.723 44.5204 141.973 43.6886 141.37 44.2704C140.766 44.8522 141.537 46.6273 143.091 48.2351C144.646 49.8429 146.396 50.6747 146.999 50.0929Z" fill="black"/>
<path d="M136.416 133.254C141.368 138.376 150.12 137.977 150.12 137.977C150.12 137.977 150.84 129.26 145.888 124.138C140.937 119.015 134.802 116.905 132.184 119.414C129.566 121.923 131.464 128.132 136.416 133.254Z" fill="#8ED16F"/>
<path d="M144.148 131.443C144.752 130.861 143.981 129.086 142.426 127.478C140.872 125.871 139.122 125.039 138.518 125.621C137.915 126.202 138.686 127.977 140.24 129.585C141.795 131.193 143.545 132.025 144.148 131.443Z" fill="#8ED16F"/>
<path opacity="0.3" d="M144.148 131.443C144.752 130.861 143.981 129.086 142.426 127.478C140.872 125.871 139.122 125.039 138.518 125.621C137.915 126.202 138.686 127.977 140.24 129.585C141.795 131.193 143.545 132.025 144.148 131.443Z" fill="black"/>
<path d="M142.981 80.6608C149.363 83.8413 157.474 80.5348 157.474 80.5348C157.474 80.5348 155.24 72.0799 148.864 68.8994C142.487 65.719 135.995 65.7504 134.371 69.0254C132.747 72.3003 136.6 77.4803 142.981 80.6608Z" fill="#8ED16F"/>
<path d="M149.652 76.3539C150.026 75.6044 148.706 74.1878 146.704 73.19C144.701 72.1921 142.773 71.9908 142.399 72.7404C142.024 73.4899 143.344 74.9065 145.347 75.9043C147.35 76.9022 149.277 77.1035 149.652 76.3539Z" fill="#8ED16F"/>
<path opacity="0.3" d="M149.652 76.3539C150.026 75.6044 148.706 74.1878 146.704 73.19C144.701 72.1921 142.773 71.9908 142.399 72.7404C142.024 73.4899 143.344 74.9065 145.347 75.9043C147.35 76.9022 149.277 77.1035 149.652 76.3539Z" fill="black"/>
<path d="M145.657 109.301C152.039 112.481 160.15 109.175 160.15 109.175C160.15 109.175 157.916 100.72 151.539 97.5392C145.163 94.3587 138.671 94.3902 137.047 97.6651C135.422 100.94 139.302 106.152 145.657 109.301Z" fill="#8ED16F"/>
<path d="M152.33 104.997C152.704 104.248 151.384 102.831 149.381 101.834C147.379 100.836 145.451 100.634 145.077 101.384C144.702 102.133 146.022 103.55 148.025 104.548C150.028 105.546 151.955 105.747 152.33 104.997Z" fill="#8ED16F"/>
<path opacity="0.3" d="M152.33 104.997C152.704 104.248 151.384 102.831 149.381 101.834C147.379 100.836 145.451 100.634 145.077 101.384C144.702 102.133 146.022 103.55 148.025 104.548C150.028 105.546 151.955 105.747 152.33 104.997Z" fill="black"/>
<path d="M66.0921 82.1199C66.0921 82.1199 103.199 119.167 82.2511 174.143C61.3033 229.119 118.159 320.539 118.159 320.539C118.159 320.539 117.55 320.449 116.42 320.25C40.1978 306.82 2.34971 219.793 44.7185 155.144C60.4517 131.107 73.4094 102.914 66.0921 82.1199Z" fill="#8ED16F"/>
<path d="M0 231.963C0 231.963 42.3425 225.23 46.2009 263.117C50.0593 301.005 127.622 306.258 127.622 306.258C127.622 306.258 127.096 306.604 126.165 307.224C62.1234 349.21 0.904151 333.958 10.1296 278.227C13.5675 257.502 13.2836 236.692 0 231.963Z" fill="#8ED16F"/>
<g opacity="0.3">
<path opacity="0.3" d="M0 231.963C0 231.963 42.3425 225.23 46.2009 263.117C50.0593 301.005 127.622 306.258 127.622 306.258C127.622 306.258 127.096 306.604 126.165 307.224C62.1234 349.21 0.904151 333.958 10.1296 278.227C13.5675 257.502 13.2836 236.692 0 231.963Z" fill="white"/>
</g>
<path d="M55.3738 231.496C61.8044 231.496 67.0174 217.917 67.0174 201.166C67.0174 184.416 61.8044 170.837 55.3738 170.837C48.9433 170.837 43.7303 184.416 43.7303 201.166C43.7303 217.917 48.9433 231.496 55.3738 231.496Z" fill="#8ED16F"/>
<path opacity="0.3" d="M55.3738 231.496C61.8044 231.496 67.0174 217.917 67.0174 201.166C67.0174 184.416 61.8044 170.837 55.3738 170.837C48.9433 170.837 43.7303 184.416 43.7303 201.166C43.7303 217.917 48.9433 231.496 55.3738 231.496Z" fill="black"/>
<path d="M54.3099 311.318C57.3748 308.258 54.3294 300.256 47.5077 293.446C40.6861 286.635 32.6715 283.594 29.6065 286.654C26.5416 289.714 29.587 297.716 36.4087 304.527C43.2303 311.338 51.245 314.378 54.3099 311.318Z" fill="#8ED16F"/>
<path opacity="0.3" d="M54.3099 311.318C57.3748 308.258 54.3294 300.256 47.5077 293.446C40.6861 286.635 32.6715 283.594 29.6065 286.654C26.5416 289.714 29.587 297.716 36.4087 304.527C43.2303 311.338 51.245 314.378 54.3099 311.318Z" fill="black"/>
<path d="M380.525 139.321H104.897C101.566 139.321 98.372 140.642 96.0169 142.993C93.6618 145.344 92.3387 148.534 92.3387 151.859V313.154C92.3387 316.48 93.6618 319.669 96.0169 322.02C98.372 324.371 101.566 325.692 104.897 325.692H380.525C383.856 325.692 387.05 324.371 389.405 322.02C391.76 319.669 393.084 316.48 393.084 313.154V151.859C393.084 148.534 391.76 145.344 389.405 142.993C387.05 140.642 383.856 139.321 380.525 139.321Z" fill="url(#paint0_linear)"/>
<path d="M376.499 141.515H108.918C101.715 141.515 95.8764 147.344 95.8764 154.536V310.478C95.8764 317.669 101.715 323.499 108.918 323.499H376.499C383.701 323.499 389.54 317.669 389.54 310.478V154.536C389.54 147.344 383.701 141.515 376.499 141.515Z" fill="#000000"/>
<path d="M389.54 173.361H95.8764V206.724H389.54V173.361Z" fill="#80996A"/>
<path d="M361.696 231.496H123.726V247.672H361.696V231.496Z" fill="#D6D6E3"/>
<path d="M143.47 311.37C156.334 311.37 166.763 300.958 166.763 288.115C166.763 275.271 156.334 264.86 143.47 264.86C130.606 264.86 120.178 275.271 120.178 288.115C120.178 300.958 130.606 311.37 143.47 311.37Z" fill="#80996A"/>
<path d="M372.845 96.6418C373.221 97.8287 374.02 98.8369 375.09 99.4758C379.921 102.662 390.424 101.985 391.685 101.985C391.953 101.985 392.306 102.462 392.695 103.265C394.55 107.086 397.426 118.286 397.62 120.805C397.878 123.854 400.716 138.124 405.363 143.441C405.505 143.603 405.647 143.756 405.784 143.897C410.341 148.469 415.687 143.441 415.687 143.441L416.455 140.78C416.239 141.829 415.997 143.052 415.756 144.422C415.635 145.11 415.514 145.839 415.398 146.59C414.706 150.819 414.342 155.095 414.31 159.38C414.298 160.936 414.365 162.491 414.51 164.04C414.552 164.471 414.599 164.896 414.657 165.31C414.894 167.197 415.01 169.098 415.004 170.999C414.962 182.294 412.076 196.343 412.076 196.343L412.186 196.307C412.118 196.658 412.076 196.831 412.076 196.831L412.244 196.779C412.164 197.3 412.086 197.834 412.013 198.38C411.035 205.465 410.473 214.282 410.205 219.373C410.066 222.058 410.186 224.751 410.562 227.413L415.692 263.474V280.269C415.675 282.813 415.986 285.35 416.618 287.816C418.289 294.161 416.912 316.308 416.139 326.815C415.924 329.681 415.756 331.686 415.708 332.263V332.436L415.855 332.379C415.855 332.499 415.855 332.562 415.855 332.562C416.074 332.469 416.304 332.402 416.539 332.363C414.505 335.512 410.82 340.718 407.986 341.595C406.316 342.102 404.831 343.086 403.713 344.423L403.639 344.523L403.534 344.67C403.184 345.138 402.971 345.694 402.919 346.276C402.878 346.176 402.846 346.072 402.824 345.966C402.609 347.137 403.313 348.207 405.526 348.727C406.816 348.973 408.129 349.078 409.442 349.042C417.117 349.042 430.737 346.685 432.241 344.151V335.407L432.488 335.486V335.564L433.429 335.874L436.01 327.225C439.106 324.937 436.535 283.984 436.01 274.574C435.536 265.998 440.851 231.885 441.792 225.875L441.666 225.723L441.808 224.847C441.997 224.984 442.173 225.139 442.333 225.309C442.642 225.675 442.912 226.072 443.138 226.495C443.582 227.246 443.963 228.032 444.278 228.846C449.472 241.778 451.811 278.757 451.811 282.074V316.849C451.8 320.281 452.278 323.697 453.23 326.994C453.707 328.729 454.076 330.493 454.334 332.274C454.445 332.972 454.539 333.665 454.629 334.326C454.718 334.987 454.807 335.743 454.876 336.362C454.876 336.525 454.913 336.682 454.928 336.829C454.944 336.976 454.928 336.971 454.928 337.044C455.07 338.414 455.144 339.312 455.144 339.312C455.163 339.237 455.199 339.167 455.249 339.107L455.275 339.438C455.312 339.312 455.383 339.2 455.48 339.112C455.694 338.903 455.926 338.713 456.174 338.545V342.964L456.048 342.87V343.631C461.399 347.662 470.11 348.879 476.796 348.832C481.133 348.832 484.644 348.307 485.864 347.698C487.609 346.843 486.652 344.849 485.065 343.321C483.835 342.135 482.231 341.222 481.217 341.337C479.524 341.521 473.737 334.977 470.704 331.392L471.045 331.24L471.529 331.03V273.047C471.529 273.047 472.307 250.154 474.625 227.513C475.725 216.1 474.372 204.584 470.656 193.735L470.583 193.52L471.287 193.63C472.034 193.745 472.433 193.814 472.433 193.814C472.433 193.814 472.433 193.635 472.386 193.289H472.433C472.433 193.289 471.529 183.469 471.518 171.136C471.518 157.154 472.701 140.108 477.595 130.462C480.413 124.909 481.354 120.49 481.275 117.005C481.398 113.939 480.514 110.916 478.757 108.398C478.02 107.384 477.018 106.593 475.86 106.11L475.761 106.052H475.708C474.863 105.71 473.96 105.532 473.048 105.527H462.477C461.253 105.528 460.051 105.212 458.987 104.609L454.85 102.268C453.472 99.2607 453.273 95.5344 453.567 92.039C453.567 91.7609 453.619 91.4827 453.646 91.2098L453.945 90.8949C454.177 90.6482 454.392 90.3701 454.602 90.1339C454.598 90.341 454.582 90.5478 454.555 90.7532C454.503 91.0838 454.413 91.278 454.271 91.32C456.532 91.0261 459.055 90.58 460.443 88.8376C460.5 88.7694 460.553 88.6959 460.606 88.6224C461.016 87.9596 461.356 87.2561 461.62 86.5231C461.814 86.0223 462.074 85.5494 462.393 85.1166C462.74 84.6652 463.192 84.2978 463.565 83.8675L463.628 83.794C464.958 82.2195 465.032 79.9627 465.047 77.9054C465.074 72.9091 464.927 67.4089 461.578 63.6616C458.797 60.5441 454.361 59.3633 450.15 59.2268C445.939 59.0903 441.739 59.8461 437.534 59.8671C434.674 59.8671 431.226 59.8199 429.649 62.1816C428.876 63.3414 428.782 64.8582 427.941 65.9708C427.457 66.6111 426.716 67.1622 426.674 67.9599C426.668 68.328 426.763 68.6907 426.947 69.0096V69.0463C427.967 71.0512 430.133 72.3003 432.393 72.6939C432.011 73.1531 431.66 73.637 431.342 74.1424C429.962 76.345 429.233 78.892 429.239 81.49C429.239 81.7944 429.239 82.0935 429.27 82.3927C429.505 85.9214 431.081 89.2275 433.676 91.6349C433.634 91.9288 433.591 92.2227 433.544 92.5114L433.639 92.5954C433.937 92.8648 434.247 93.1202 434.569 93.3616L434.685 93.4508C434.685 93.6345 434.685 93.8182 434.685 93.9756C434.685 94.28 434.685 94.5897 434.653 94.8889C434.622 95.188 434.653 95.3717 434.622 95.6131L434.553 95.5554L429.418 91.2728L421.159 83.6418C421.159 83.6418 400.511 68.637 399.476 75.7694C399.351 77.0361 399.701 78.3041 400.459 79.3277C404.249 85.1008 417.28 90.0132 417.28 90.0132C417.28 90.0132 425.049 98.2163 430.248 107.06C430.064 107.159 429.88 107.254 429.686 107.343C425.06 109.49 418.31 108.582 418.31 108.582C410.515 109.794 409.81 118.322 409.852 121.771C409.852 121.933 409.852 122.091 409.852 122.232C409.852 122.374 409.852 122.406 409.852 122.484L399.507 98.232L399.476 98.1585C399.138 97.369 398.607 96.6771 397.93 96.1469C397.254 95.6167 396.455 95.2652 395.607 95.125C388.689 93.9651 371.4 91.5457 372.845 96.6418ZM416.155 332.289C416.306 332.254 416.459 332.226 416.612 332.205L416.565 332.279L416.155 332.289Z" fill="url(#paint1_linear)"/>
<path d="M467.844 327.33C467.844 327.33 477.642 339.627 479.908 339.375C482.174 339.123 487.446 344.14 484.434 345.673C481.422 347.205 464.08 348.181 455.522 341.658V331.828L467.844 327.33Z" fill="#ACA9C9"/>
<path d="M418.331 328.08C418.331 328.08 412.549 338.367 408.533 339.627C404.517 340.886 400.995 345.4 406.273 346.654C411.55 347.908 430.401 345.148 432.156 342.135V328.831L418.331 328.08Z" fill="#ACA9C9"/>
<path d="M411.072 227.025L416.066 262.598V279.135C416.05 281.644 416.354 284.145 416.97 286.577C418.599 292.838 417.259 314.682 416.502 325.047C416.255 328.427 416.066 330.589 416.066 330.589C419.33 329.083 433.155 333.848 433.155 333.848L434.553 329.099L435.668 325.32C438.685 323.063 436.194 282.667 435.668 273.362C435.326 267.006 438.165 246.401 439.984 234.052C440.509 230.562 440.935 227.754 441.193 226.064C441.356 225.015 441.445 224.432 441.445 224.432C441.999 224.883 442.46 225.438 442.801 226.064C443.234 226.806 443.605 227.582 443.91 228.384C448.967 241.143 451.27 277.618 451.27 280.867V315.17C451.259 318.554 451.725 321.923 452.652 325.178C453.275 327.552 453.73 329.967 454.014 332.405C454.371 335.129 454.539 337.323 454.539 337.323C454.792 335.816 470.372 329.041 470.372 329.041V271.835C470.372 271.835 471.124 249.267 473.39 226.92C474.363 216.755 473.382 206.497 470.499 196.7C469.873 194.564 469.248 192.754 468.706 191.321C467.786 188.88 467.129 187.531 467.129 187.531H415.803C414.941 187.694 414.226 189.426 413.579 192.056C413.159 193.819 412.791 195.981 412.47 198.353C411.519 205.339 410.972 214.035 410.709 219.063C410.576 221.723 410.698 224.388 411.072 227.025Z" fill="#618FD8"/>
<g opacity="0.1">
<path opacity="0.1" d="M469.468 329.204V271.997C469.468 271.997 470.22 249.43 472.486 227.083C474.751 204.735 466.178 187.689 466.178 187.689H467.182C467.182 187.689 475.724 204.751 473.49 227.083C471.256 249.414 470.472 271.997 470.472 271.997V329.204C470.472 329.204 454.891 335.979 454.639 337.485C454.639 337.485 454.639 337.149 454.56 336.572C457.956 334.216 469.468 329.204 469.468 329.204Z" fill="black"/>
<path opacity="0.1" d="M417.574 330.432C417.1 330.441 416.632 330.537 416.192 330.715V330.463C416.651 330.417 417.113 330.407 417.574 330.432Z" fill="black"/>
<path opacity="0.1" d="M434.79 325.446C437.807 323.189 435.316 282.793 434.79 273.488C434.264 264.183 440.572 224.563 440.572 224.563C440.902 224.818 441.195 225.118 441.44 225.456C440.514 231.376 435.342 265.033 435.799 273.488C436.325 282.772 438.817 323.168 435.799 325.446L433.287 333.974L432.372 333.67L434.79 325.446Z" fill="black"/>
</g>
<path d="M421.343 125.597L416.087 144.165C416.087 144.165 410.557 149.413 406.036 144.165C401.515 138.917 398.729 124.846 398.456 121.834C398.182 118.821 394.182 103.265 392.674 103.265C391.165 103.265 376.089 104.268 374.328 98.0169C372.919 92.989 389.751 95.3927 396.49 96.5211C397.32 96.6622 398.1 97.0104 398.759 97.5334C399.418 98.0564 399.934 98.7372 400.259 99.5126L410.594 124.153C410.594 124.153 416.066 117.819 421.343 125.597Z" fill="#F7C4A7"/>
<path d="M455.27 82.4399C455.27 82.4399 448.736 100.756 457.031 107.28C465.326 113.804 427.368 115.562 427.368 115.562L432.519 110.67C432.519 110.67 436.162 96.2429 433.649 84.1981L455.27 82.4399Z" fill="#F7C4A7"/>
<path opacity="0.1" d="M447.227 107.28C447.227 107.28 453.887 105.648 453.887 103.895L459.791 107.28H474.62C474.62 107.28 485.427 113.3 476.381 131.37C467.334 149.439 471.355 193.824 471.355 193.824C471.355 193.824 439.19 188.051 412.549 196.837C412.549 196.837 416.57 177.014 415.062 165.725C413.553 154.436 417.574 138.628 417.574 138.628L419.835 129.092C419.835 129.092 419.709 120.17 410.41 124.699C410.41 124.699 409.027 111.778 418.578 110.272C418.578 110.272 429.617 111.778 432.903 106.257C432.903 106.278 440.194 110.544 447.227 107.28Z" fill="black"/>
<path d="M447.227 106.782C447.227 106.782 453.887 105.149 453.887 103.396L458.214 105.879C459.247 106.47 460.418 106.781 461.61 106.782H471.981C473.065 106.778 474.134 107.033 475.1 107.524C476.067 108.015 476.902 108.728 477.537 109.605C479.918 112.948 482.053 119.54 476.381 130.871C467.334 148.936 471.355 193.326 471.355 193.326C471.355 193.326 439.19 187.553 412.549 196.338C412.549 196.338 416.57 176.515 415.062 165.226C413.553 153.937 417.574 138.166 417.574 138.166L419.835 128.63C419.835 128.63 419.709 119.708 410.409 124.237C410.409 124.237 409.064 111.673 418.184 109.878C418.438 109.822 418.698 109.804 418.957 109.826C420.907 110.03 429.996 110.686 432.908 105.769C432.903 105.774 440.194 110.041 447.227 106.782Z" fill="#E14B5A"/>
<path opacity="0.1" d="M472.612 129.611C472.612 129.611 464.569 134.629 451.501 129.611C451.501 129.611 437.177 124.363 432.651 114.056C428.125 103.748 455.517 115.814 455.517 115.814C455.517 115.814 461.299 115.814 463.055 114.559C464.811 113.305 477.132 124.09 472.612 129.611Z" fill="black"/>
<path d="M472.612 128.609C472.612 128.609 464.569 133.626 451.501 128.609C451.501 128.609 437.176 123.361 432.65 113.053C428.124 102.746 417.574 91.4565 417.574 91.4565C417.574 91.4565 399.229 84.4291 400.227 77.4069C401.226 70.3847 421.338 85.1848 421.338 85.1848L429.381 92.7108L455.517 114.79C455.517 114.79 461.299 114.79 463.055 113.536C464.811 112.282 477.132 123.088 472.612 128.609Z" fill="#F7C4A7"/>
<path opacity="0.1" d="M433.407 84.9486L455.018 83.1904C453.907 86.5075 453.151 89.9327 452.763 93.4088C450.25 96.0097 446.816 97.522 443.198 97.6201C439.58 97.7183 436.068 96.3945 433.418 93.9336C433.969 90.9635 433.965 87.9174 433.407 84.9486Z" fill="black"/>
<path d="M443.085 96.8674C450.717 96.8674 456.905 90.69 456.905 83.0697C456.905 75.4494 450.717 69.272 443.085 69.272C435.453 69.272 429.265 75.4494 429.265 83.0697C429.265 90.69 435.453 96.8674 443.085 96.8674Z" fill="#F7C4A7"/>
<path opacity="0.1" d="M450.67 86.0665C449.861 84.7335 451.506 82.9963 450.965 81.5373C450.465 80.1937 448.478 79.9628 447.811 78.7084C447.285 77.6955 447.811 76.4517 447.6 75.3338C447.301 73.8905 445.745 72.9931 444.268 72.9196C442.791 72.8461 441.366 73.3972 439.963 73.8695C437.676 74.641 435.268 75.2341 432.871 74.9612C430.474 74.6883 428.082 73.3867 427.015 71.2506C426.841 70.9395 426.749 70.5891 426.747 70.2325C426.789 69.4452 427.515 68.9046 427.983 68.2749C428.803 67.178 428.897 65.6822 429.644 64.5381C431.168 62.2078 434.517 62.2656 437.303 62.2551C441.403 62.2551 445.482 61.4888 449.582 61.6253C453.682 61.7617 457.993 62.9216 460.711 65.9971C463.97 69.6971 464.117 75.1134 464.091 80.0467C464.091 82.0778 464.007 84.2873 462.708 85.8566C462.33 86.3132 461.867 86.6911 461.504 87.1582C460.716 88.2078 460.506 89.5514 459.764 90.6168C458.45 92.5114 455.885 92.9732 453.598 93.2776C454.271 93.1884 453.714 88.6907 453.598 88.276C453.157 86.2082 452.678 86.2502 450.67 86.0665Z" fill="black"/>
<path d="M450.67 85.568C449.861 84.2349 451.506 82.4977 450.965 81.0387C450.465 79.6951 448.478 79.4642 447.811 78.2099C447.285 77.197 447.811 75.9531 447.6 74.8352C447.301 73.392 445.745 72.4945 444.268 72.421C442.791 72.3476 441.366 72.8986 439.963 73.371C437.676 74.1425 435.268 74.7355 432.871 74.4626C430.474 74.1897 428.082 72.8881 427.015 70.7521C426.841 70.4409 426.749 70.0905 426.747 69.7339C426.789 68.9467 427.515 68.4061 427.983 67.7763C428.803 66.6794 428.897 65.1837 429.644 64.0395C431.168 61.7093 434.517 61.767 437.303 61.7565C441.403 61.7565 445.482 60.9903 449.582 61.1268C453.682 61.2632 457.993 62.4231 460.711 65.4986C463.97 69.1986 464.117 74.6148 464.091 79.5482C464.091 81.5793 464.007 83.7888 462.708 85.358C462.33 85.8146 461.867 86.1925 461.504 86.6596C460.716 87.7093 460.506 89.0528 459.764 90.1182C458.45 92.0129 455.885 92.4747 453.598 92.7791C454.271 92.6899 453.714 88.1921 453.598 87.7775C453.157 85.6834 452.678 85.7464 450.67 85.568Z" fill="#281C1C"/>
<path opacity="0.1" d="M472.486 130.241C472.486 130.241 465.699 112.675 460.422 112.177C455.144 111.678 470.472 112.177 470.472 112.177L475.498 121.209L472.486 130.241Z" fill="black"/>
<path d="M472.99 130.241C472.99 130.241 466.204 112.675 460.926 112.177C455.648 111.678 470.977 112.177 470.977 112.177L476.002 121.209L472.99 130.241Z" fill="#E14B5A"/>
<path d="M453.993 332.447C454.35 335.171 454.518 337.365 454.518 337.365C454.771 335.858 470.351 329.083 470.351 329.083V325.005C469.954 324.99 469.557 325.009 469.163 325.063C466.141 325.467 463.339 326.931 460.753 328.495C458.568 329.926 456.312 331.246 453.993 332.447Z" fill="#618FD8"/>
<path opacity="0.3" d="M453.993 332.447C454.35 335.171 454.518 337.365 454.518 337.365C454.771 335.858 470.351 329.083 470.351 329.083V325.005C469.954 324.99 469.557 325.009 469.163 325.063C466.141 325.467 463.339 326.931 460.753 328.495C458.568 329.926 456.312 331.246 453.993 332.447Z" fill="black"/>
<path d="M416.066 330.589C419.33 329.083 433.155 333.848 433.155 333.848L434.553 329.099C432.141 328.61 429.744 328.002 427.389 327.277C426.289 326.96 425.214 326.563 424.171 326.091C423.475 325.72 422.759 325.387 422.027 325.094C420.224 324.475 418.347 324.737 416.497 325.047C416.255 328.427 416.066 330.589 416.066 330.589Z" fill="#618FD8"/>
<path opacity="0.3" d="M416.066 330.589C419.33 329.083 433.155 333.848 433.155 333.848L434.553 329.099C432.141 328.61 429.744 328.002 427.389 327.277C426.289 326.96 425.214 326.563 424.171 326.091C423.475 325.72 422.759 325.387 422.027 325.094C420.224 324.475 418.347 324.737 416.497 325.047C416.255 328.427 416.066 330.589 416.066 330.589Z" fill="black"/>
<path opacity="0.4" d="M484.297 344.891C484.508 344.801 484.695 344.664 484.844 344.492C484.993 344.319 485.101 344.114 485.159 343.894C485.253 344.24 485.217 344.608 485.059 344.93C484.9 345.251 484.629 345.504 484.297 345.641C481.28 347.147 463.944 348.15 455.386 341.626V340.876C463.944 347.399 481.28 346.397 484.297 344.891Z" fill="white"/>
<path opacity="0.4" d="M406.141 345.893C411.398 347.147 430.269 344.387 432.025 341.374V342.125C430.264 345.137 411.419 347.898 406.141 346.644C403.986 346.119 403.297 345.069 403.513 343.92C403.681 344.77 404.469 345.473 406.141 345.893Z" fill="white"/>
<path opacity="0.1" d="M436.798 163.111C436.798 163.111 431.268 161.353 429.759 163.111C428.251 164.869 415.356 168.989 415.356 168.989" fill="black"/>
<path d="M374.228 94.1699H401.116V93.6031H374.228V94.1699Z" fill="#8ED16F"/>
<path d="M374.228 94.7366H401.116V94.1698H374.228V94.7366Z" fill="#8ED16F"/>
<path opacity="0.1" d="M374.228 94.7366H401.116V94.1698H374.228V94.7366Z" fill="black"/>
<path d="M374.228 95.3035H401.116V94.7367H374.228V95.3035Z" fill="#8ED16F"/>
<path d="M374.228 95.8651H401.116V95.2983H374.228V95.8651Z" fill="#8ED16F"/>
<path opacity="0.1" d="M374.228 95.8651H401.116V95.2983H374.228V95.8651Z" fill="black"/>
<path d="M374.228 96.4319H401.116V95.8651H374.228V96.4319Z" fill="#8ED16F"/>
<path d="M374.228 96.9934H401.116V96.4266H374.228V96.9934Z" fill="#8ED16F"/>
<path opacity="0.1" d="M374.228 96.9934H401.116V96.4266H374.228V96.9934Z" fill="black"/>
<path d="M374.228 97.5603H401.116V96.9935H374.228V97.5603Z" fill="#8ED16F"/>
<path d="M374.228 98.1218H401.116V97.555H374.228V98.1218Z" fill="#8ED16F"/>
<path opacity="0.1" d="M374.228 98.1218H401.116V97.555H374.228V98.1218Z" fill="black"/>
<path d="M374.228 89.6564H401.116V89.0896H374.228V89.6564Z" fill="#8ED16F"/>
<path d="M393.246 76.2368L413.919 93.4025L414.282 92.9667L393.609 75.801L393.246 76.2368Z" fill="#8ED16F"/>
<path d="M374.399 67.2055L395.072 84.3712L395.435 83.9354L374.762 66.7697L374.399 67.2055Z" fill="#8ED16F"/>
<path d="M374.228 90.2179H401.116V89.6511H374.228V90.2179Z" fill="#8ED16F"/>
<path opacity="0.1" d="M374.228 90.2179H401.116V89.6511H374.228V90.2179Z" fill="black"/>
<path d="M374.228 90.7899H401.116V90.2231H374.228V90.7899Z" fill="#8ED16F"/>
<path d="M374.228 91.3516H401.116V90.7848H374.228V91.3516Z" fill="#8ED16F"/>
<path opacity="0.1" d="M374.228 91.3516H401.116V90.7848H374.228V91.3516Z" fill="black"/>
<path d="M374.228 91.9131H401.116V91.3463H374.228V91.9131Z" fill="#8ED16F"/>
<path d="M374.228 92.4799H401.116V91.913H374.228V92.4799Z" fill="#8ED16F"/>
<path opacity="0.1" d="M374.228 92.4799H401.116V91.913H374.228V92.4799Z" fill="black"/>
<path d="M374.228 93.0415H401.116V92.4747H374.228V93.0415Z" fill="#8ED16F"/>
<path d="M374.228 93.6083H401.116V93.0415H374.228V93.6083Z" fill="#8ED16F"/>
<path opacity="0.1" d="M374.228 93.6083H401.116V93.0415H374.228V93.6083Z" fill="black"/>
<path d="M370.82 115.616L380.453 117.402L383.94 98.6555L374.307 96.8693L370.82 115.616Z" fill="#8ED16F"/>
<path d="M379.488 107.561C379.894 105.381 379.339 103.45 378.248 103.248C377.158 103.046 375.945 104.649 375.54 106.829C375.134 109.009 375.689 110.941 376.78 111.143C377.87 111.345 379.083 109.742 379.488 107.561Z" fill="#8ED16F"/>
<path opacity="0.1" d="M379.488 107.561C379.894 105.381 379.339 103.45 378.248 103.248C377.158 103.046 375.945 104.649 375.54 106.829C375.134 109.009 375.689 110.941 376.78 111.143C377.87 111.345 379.083 109.742 379.488 107.561Z" fill="black"/>
<path d="M372.468 155.184L382.102 156.971L385.589 138.224L375.955 136.438L372.468 155.184Z" fill="#8ED16F"/>
<path d="M381.132 147.126C381.537 144.946 380.982 143.014 379.892 142.812C378.801 142.61 377.589 144.214 377.183 146.394C376.778 148.574 377.333 150.505 378.423 150.707C379.514 150.909 380.726 149.306 381.132 147.126Z" fill="#8ED16F"/>
<path opacity="0.1" d="M381.132 147.126C381.537 144.946 380.982 143.014 379.892 142.812C378.801 142.61 377.589 144.214 377.183 146.394C376.778 148.574 377.333 150.505 378.423 150.707C379.514 150.909 380.726 149.306 381.132 147.126Z" fill="black"/>
<path d="M337.624 57.9256L332.96 66.5294L349.756 75.604L354.42 67.0002L337.624 57.9256Z" fill="#8ED16F"/>
<path d="M348.864 69.061C349.397 68.0866 348.244 66.4339 346.289 65.3696C344.335 64.3052 342.319 64.2323 341.787 65.2067C341.255 66.1811 342.407 67.8338 344.362 68.8981C346.316 69.9625 348.332 70.0354 348.864 69.061Z" fill="#8ED16F"/>
<path opacity="0.1" d="M348.864 69.061C349.397 68.0866 348.244 66.4339 346.289 65.3696C344.335 64.3052 342.319 64.2323 341.787 65.2067C341.255 66.1811 342.407 67.8338 344.362 68.8981C346.316 69.9625 348.332 70.0354 348.864 69.061Z" fill="black"/>
<path d="M300.744 227.72L296.081 236.324L312.877 245.398L317.54 236.795L300.744 227.72Z" fill="#8ED16F"/>
<path d="M310.293 238.585C310.821 237.611 309.665 235.966 307.712 234.911C305.759 233.855 303.747 233.789 303.219 234.763C302.692 235.737 303.847 237.382 305.8 238.437C307.754 239.493 309.765 239.559 310.293 238.585Z" fill="#8ED16F"/>
<path opacity="0.1" d="M310.293 238.585C310.821 237.611 309.665 235.966 307.712 234.911C305.759 233.855 303.747 233.789 303.219 234.763C302.692 235.737 303.847 237.382 305.8 238.437C307.754 239.493 309.765 239.559 310.293 238.585Z" fill="black"/>
<path d="M278.18 87.5999L273.517 96.2037L290.313 105.278L294.976 96.6745L278.18 87.5999Z" fill="#8ED16F"/>
<path d="M287.724 98.4571C288.252 97.4833 287.096 95.8384 285.143 94.7831C283.19 93.7277 281.179 93.6617 280.651 94.6355C280.123 95.6093 281.278 97.2542 283.232 98.3095C285.185 99.3648 287.196 99.4309 287.724 98.4571Z" fill="#8ED16F"/>
<path opacity="0.1" d="M287.724 98.4571C288.252 97.4833 287.096 95.8384 285.143 94.7831C283.19 93.7277 281.179 93.6617 280.651 94.6355C280.123 95.6093 281.278 97.2542 283.232 98.3095C285.185 99.3648 287.196 99.4309 287.724 98.4571Z" fill="black"/>
<path d="M306.461 57.9233L301.797 66.5271L318.593 75.6017L323.256 66.9979L306.461 57.9233Z" fill="#8ED16F"/>
<path d="M316.005 68.7806C316.532 67.8068 315.377 66.1619 313.424 65.1065C311.47 64.0512 309.459 63.9851 308.931 64.9589C308.403 65.9327 309.559 67.5777 311.512 68.633C313.465 69.6883 315.477 69.7544 316.005 68.7806Z" fill="#8ED16F"/>
<path opacity="0.1" d="M316.005 68.7806C316.532 67.8068 315.377 66.1619 313.424 65.1065C311.47 64.0512 309.459 63.9851 308.931 64.9589C308.403 65.9327 309.559 67.5777 311.512 68.633C313.465 69.6883 315.477 69.7544 316.005 68.7806Z" fill="black"/>
<path d="M334.696 92.9397L324.955 94.0031L327.031 112.957L336.771 111.894L334.696 92.9397Z" fill="#8ED16F"/>
<path d="M331.172 106.956C332.274 106.835 332.972 104.951 332.731 102.747C332.489 100.542 331.4 98.8531 330.298 98.9735C329.195 99.0938 328.497 100.978 328.738 103.183C328.98 105.387 330.069 107.076 331.172 106.956Z" fill="#8ED16F"/>
<path opacity="0.1" d="M331.172 106.956C332.274 106.835 332.972 104.951 332.731 102.747C332.489 100.542 331.4 98.8531 330.298 98.9735C329.195 99.0938 328.497 100.978 328.738 103.183C328.98 105.387 330.069 107.076 331.172 106.956Z" fill="black"/>
<path d="M401.477 196.729L391.737 197.792L393.813 216.746L403.553 215.683L401.477 196.729Z" fill="#8ED16F"/>
<path d="M397.958 210.744C399.06 210.624 399.758 208.74 399.517 206.535C399.276 204.331 398.186 202.642 397.084 202.762C395.981 202.883 395.283 204.767 395.525 206.971C395.766 209.176 396.855 210.865 397.958 210.744Z" fill="#8ED16F"/>
<path opacity="0.1" d="M397.958 210.744C399.06 210.624 399.758 208.74 399.517 206.535C399.276 204.331 398.186 202.642 397.084 202.762C395.981 202.883 395.283 204.767 395.525 206.971C395.766 209.176 396.855 210.865 397.958 210.744Z" fill="black"/>
<path d="M296.555 133.203L291.892 141.807L308.688 150.881L313.351 142.278L296.555 133.203Z" fill="#8ED16F"/>
<path d="M306.096 144.067C306.624 143.094 305.468 141.449 303.515 140.393C301.562 139.338 299.55 139.272 299.023 140.246C298.495 141.22 299.65 142.865 301.604 143.92C303.557 144.975 305.568 145.041 306.096 144.067Z" fill="#8ED16F"/>
<path opacity="0.1" d="M306.096 144.067C306.624 143.094 305.468 141.449 303.515 140.393C301.562 139.338 299.55 139.272 299.023 140.246C298.495 141.22 299.65 142.865 301.604 143.92C303.557 144.975 305.568 145.041 306.096 144.067Z" fill="black"/>
<path d="M254.171 121.117L249.508 129.721L266.304 138.796L270.967 130.192L254.171 121.117Z" fill="#8ED16F"/>
<path d="M265.11 132.553C265.643 131.579 264.49 129.926 262.535 128.862C260.581 127.797 258.565 127.724 258.033 128.699C257.5 129.673 258.653 131.326 260.608 132.39C262.562 133.454 264.578 133.527 265.11 132.553Z" fill="#8ED16F"/>
<path opacity="0.1" d="M265.11 132.553C265.643 131.579 264.49 129.926 262.535 128.862C260.581 127.797 258.565 127.724 258.033 128.699C257.5 129.673 258.653 131.326 260.608 132.39C262.562 133.454 264.578 133.527 265.11 132.553Z" fill="black"/>
<path d="M240.597 324.597L235.933 333.2L252.729 342.275L257.393 333.671L240.597 324.597Z" fill="#8ED16F"/>
<path d="M250.14 335.456C250.668 334.483 249.512 332.838 247.559 331.782C245.606 330.727 243.595 330.661 243.067 331.635C242.539 332.609 243.694 334.253 245.648 335.309C247.601 336.364 249.612 336.43 250.14 335.456Z" fill="#8ED16F"/>
<path opacity="0.1" d="M250.14 335.456C250.668 334.483 249.512 332.838 247.559 331.782C245.606 330.727 243.595 330.661 243.067 331.635C242.539 332.609 243.694 334.253 245.648 335.309C247.601 336.364 249.612 336.43 250.14 335.456Z" fill="black"/>
<path d="M228.377 327.913L226.589 337.531L245.366 341.009L247.154 331.391L228.377 327.913Z" fill="#8ED16F"/>
<path opacity="0.05" d="M228.377 327.913L226.589 337.531L245.366 341.009L247.154 331.391L228.377 327.913Z" fill="black"/>
<path d="M240.806 335.316C241.009 334.227 239.402 333.016 237.219 332.612C235.035 332.207 233.101 332.762 232.899 333.851C232.696 334.939 234.303 336.15 236.486 336.554C238.67 336.959 240.604 336.404 240.806 335.316Z" fill="#8ED16F"/>
<path opacity="0.1" d="M240.806 335.316C241.009 334.227 239.402 333.016 237.219 332.612C235.035 332.207 233.101 332.762 232.899 333.851C232.696 334.939 234.303 336.15 236.486 336.554C238.67 336.959 240.604 336.404 240.806 335.316Z" fill="black"/>
<path d="M230.136 333.681L228.349 343.3L247.126 346.778L248.913 337.159L230.136 333.681Z" fill="#8ED16F"/>
<path d="M242.56 341.084C242.763 339.995 241.156 338.785 238.973 338.38C236.789 337.976 234.855 338.53 234.653 339.619C234.45 340.708 236.056 341.918 238.24 342.323C240.424 342.727 242.358 342.172 242.56 341.084Z" fill="#8ED16F"/>
<path opacity="0.1" d="M242.56 341.084C242.763 339.995 241.156 338.785 238.973 338.38C236.789 337.976 234.855 338.53 234.653 339.619C234.45 340.708 236.056 341.918 238.24 342.323C240.424 342.727 242.358 342.172 242.56 341.084Z" fill="black"/>
<path d="M260.409 349.326L255.745 357.929L272.541 367.004L277.205 358.4L260.409 349.326Z" fill="#8ED16F"/>
<path d="M269.957 360.185C270.485 359.212 269.33 357.567 267.376 356.511C265.423 355.456 263.412 355.39 262.884 356.364C262.356 357.338 263.512 358.982 265.465 360.038C267.418 361.093 269.43 361.159 269.957 360.185Z" fill="#8ED16F"/>
<path opacity="0.1" d="M269.957 360.185C270.485 359.212 269.33 357.567 267.376 356.511C265.423 355.456 263.412 355.39 262.884 356.364C262.356 357.338 263.512 358.982 265.465 360.038C267.418 361.093 269.43 361.159 269.957 360.185Z" fill="black"/>
<path d="M248.192 352.635L246.405 362.254L265.182 365.732L266.969 356.113L248.192 352.635Z" fill="#8ED16F"/>
<path opacity="0.05" d="M248.192 352.635L246.405 362.254L265.182 365.732L266.969 356.113L248.192 352.635Z" fill="black"/>
<path d="M260.617 360.038C260.819 358.949 259.213 357.739 257.029 357.334C254.846 356.93 252.911 357.484 252.709 358.573C252.507 359.662 254.113 360.872 256.297 361.277C258.48 361.681 260.415 361.126 260.617 360.038Z" fill="#8ED16F"/>
<path opacity="0.1" d="M260.617 360.038C260.819 358.949 259.213 357.739 257.029 357.334C254.846 356.93 252.911 357.484 252.709 358.573C252.507 359.662 254.113 360.872 256.297 361.277C258.48 361.681 260.415 361.126 260.617 360.038Z" fill="black"/>
<path d="M249.951 358.41L248.163 368.028L266.94 371.506L268.728 361.888L249.951 358.41Z" fill="#8ED16F"/>
<path d="M262.38 365.812C262.583 364.724 260.976 363.513 258.793 363.109C256.609 362.704 254.675 363.259 254.473 364.348C254.27 365.436 255.877 366.647 258.06 367.051C260.244 367.456 262.178 366.901 262.38 365.812Z" fill="#8ED16F"/>
<path opacity="0.1" d="M262.38 365.812C262.583 364.724 260.976 363.513 258.793 363.109C256.609 362.704 254.675 363.259 254.473 364.348C254.27 365.436 255.877 366.647 258.06 367.051C260.244 367.456 262.178 366.901 262.38 365.812Z" fill="black"/>
<path d="M290.134 333.389L285.471 341.993L302.267 351.067L306.93 342.464L290.134 333.389Z" fill="#8ED16F"/>
<path d="M299.673 344.246C300.201 343.273 299.045 341.628 297.092 340.572C295.139 339.517 293.127 339.451 292.599 340.425C292.072 341.399 293.227 343.044 295.181 344.099C297.134 345.154 299.145 345.22 299.673 344.246Z" fill="#8ED16F"/>
<path opacity="0.1" d="M299.673 344.246C300.201 343.273 299.045 341.628 297.092 340.572C295.139 339.517 293.127 339.451 292.599 340.425C292.072 341.399 293.227 343.044 295.181 344.099C297.134 345.154 299.145 345.22 299.673 344.246Z" fill="black"/>
<path d="M277.915 336.702L276.128 346.321L294.905 349.798L296.692 340.18L277.915 336.702Z" fill="#8ED16F"/>
<path opacity="0.05" d="M277.915 336.702L276.128 346.321L294.905 349.798L296.692 340.18L277.915 336.702Z" fill="black"/>
<path d="M290.34 344.104C290.542 343.016 288.936 341.805 286.752 341.401C284.568 340.996 282.634 341.551 282.432 342.64C282.229 343.728 283.836 344.939 286.019 345.343C288.203 345.748 290.137 345.193 290.34 344.104Z" fill="#8ED16F"/>
<path opacity="0.1" d="M290.34 344.104C290.542 343.016 288.936 341.805 286.752 341.401C284.568 340.996 282.634 341.551 282.432 342.64C282.229 343.728 283.836 344.939 286.019 345.343C288.203 345.748 290.137 345.193 290.34 344.104Z" fill="black"/>
<path d="M279.673 342.475L277.886 352.094L296.663 355.572L298.45 345.953L279.673 342.475Z" fill="#8ED16F"/>
<path d="M292.103 349.879C292.305 348.79 290.699 347.58 288.515 347.175C286.332 346.771 284.397 347.325 284.195 348.414C283.993 349.503 285.599 350.713 287.783 351.118C289.966 351.522 291.901 350.967 292.103 349.879Z" fill="#8ED16F"/>
<path opacity="0.1" d="M292.103 349.879C292.305 348.79 290.699 347.58 288.515 347.175C286.332 346.771 284.397 347.325 284.195 348.414C283.993 349.503 285.599 350.713 287.783 351.118C289.966 351.522 291.901 350.967 292.103 349.879Z" fill="black"/>
</g>
<defs>
<linearGradient id="paint0_linear" x1="242.711" y1="325.692" x2="242.711" y2="139.321" gradientUnits="userSpaceOnUse">
<stop stop-color="#808080" stop-opacity="0.25"/>
<stop offset="0.54" stop-color="#808080" stop-opacity="0.12"/>
<stop offset="1" stop-color="#808080" stop-opacity="0.1"/>
</linearGradient>
<linearGradient id="paint1_linear" x1="-337741" y1="219693" x2="-337741" y2="59650" gradientUnits="userSpaceOnUse">
<stop stop-color="#808080" stop-opacity="0.25"/>
<stop offset="0.54" stop-color="#808080" stop-opacity="0.12"/>
<stop offset="1" stop-color="#808080" stop-opacity="0.1"/>
</linearGradient>
<clipPath id="clip0">
<rect width="512" height="375" fill="white"/>
</clipPath>
</defs>
</svg>
