<svg width="473" height="381" viewBox="0 0 473 381" fill="none" xmlns="http://www.w3.org/2000/svg">
<g clip-path="url(#clip0)">
<path opacity="0.1" d="M472.303 221.056C470.609 205.87 465.678 191.503 459.248 178.667C444.737 149.663 422.747 128.023 398.976 112.523C398.747 112.37 398.498 112.227 398.284 112.079C400.909 108.974 402.785 105.308 403.768 101.364C411.081 71.4449 361.763 33.7325 293.648 17.1403C238.984 3.84178 188.817 8.16975 167.347 25.863C117.266 22.7171 65.017 53.4896 30.2961 100.888C17.8855 117.852 7.38428 137.89 2.77805 160.545C-2.82579 187.981 0.52506 217.509 8.38667 243.987C14.444 264.378 23.2937 283.482 34.4202 299.846C35.2126 301.009 36.0161 302.159 36.8307 303.297C38.2341 305.257 39.6661 307.164 41.1267 309.016C50.2914 320.671 60.7258 330.566 72.2008 338.054C78.7203 342.322 85.7199 345.81 93.0554 348.445C112.626 355.442 133.628 355.733 152.97 348.445C156.211 347.226 159.374 345.807 162.44 344.198C164.139 343.311 165.819 342.358 167.481 341.338C170.683 339.374 173.829 337.182 176.951 334.903C181.28 331.738 185.543 328.402 189.891 325.284L190.264 325.013C195.371 321.352 200.54 318.001 205.929 315.589C209.519 313.939 213.319 312.789 217.223 312.172C223.001 311.352 228.888 311.809 234.469 313.511C235.529 313.816 236.588 314.164 237.638 314.546C241.053 315.805 244.36 317.337 247.529 319.126C261.295 326.753 274.469 338.912 287.987 348.445C289.896 349.808 291.858 351.119 293.806 352.353C311.052 363.283 330.021 368.612 348.789 373.779C370.069 379.642 392.589 385.333 413.176 376.205C425.11 370.919 435.444 360.895 443.725 348.445C447.354 342.958 450.537 337.189 453.243 331.195C454.589 328.23 455.848 325.211 457.019 322.139C463.826 304.264 467.783 284.626 470.513 264.941C472.537 250.451 473.912 235.612 472.303 221.056Z" fill="#000000"/>
<g opacity="0.1">
<path opacity="0.1" d="M148.631 254.14C148.779 254.564 148.932 254.974 149.108 255.374C152.255 252.912 155.304 250.369 158.254 247.748C160.017 246.963 161.476 245.624 162.407 243.935C163.256 243.134 164.101 242.314 164.936 241.499C164.575 241.094 164.188 240.714 163.776 240.36C160.951 237.886 157.457 236.847 154.263 237.9C151.07 238.954 148.889 241.866 148.091 245.527C147.499 248.394 147.685 251.368 148.631 254.14Z" fill="#3F3D56"/>
<path opacity="0.1" d="M143.39 238.305C144.283 241.086 145.903 243.579 148.082 245.527C150.908 247.991 154.397 249.035 157.595 247.977C157.815 247.9 158.025 247.819 158.244 247.734C160.008 246.949 161.466 245.61 162.397 243.92C163.037 242.807 163.5 241.601 163.767 240.346C164.319 237.478 164.126 234.517 163.207 231.745C162.288 228.974 160.673 226.483 158.516 224.511C155.686 222.037 152.196 220.998 149.003 222.052C145.81 223.105 143.628 226.017 142.831 229.678C142.242 232.552 142.435 235.531 143.39 238.305Z" fill="#3F3D56"/>
<path opacity="0.1" d="M152.334 232.172C157.808 230.365 160.326 223.099 157.957 215.943C155.589 208.787 149.231 204.451 143.757 206.258C138.282 208.064 135.765 215.33 138.134 222.486C140.502 229.642 146.86 233.978 152.334 232.172Z" fill="#3F3D56"/>
<path opacity="0.1" d="M147.094 216.339C152.568 214.532 155.086 207.266 152.717 200.11C150.349 192.954 143.991 188.618 138.517 190.425C133.043 192.232 130.525 199.497 132.894 206.653C135.262 213.809 141.62 218.146 147.094 216.339Z" fill="#3F3D56"/>
<path opacity="0.1" d="M141.853 200.507C147.327 198.7 149.844 191.434 147.476 184.278C145.107 177.122 138.749 172.786 133.275 174.593C127.801 176.399 125.284 183.665 127.652 190.821C130.021 197.977 136.379 202.313 141.853 200.507Z" fill="#3F3D56"/>
<path opacity="0.1" d="M138.803 66.9262C139.59 64.7575 140.228 62.5375 140.712 60.2817L113.256 64.6097L141.49 55.52C142.246 48.758 141.613 41.913 139.63 35.4034C137.647 28.8938 134.356 22.8563 129.958 17.6598L98.6544 49.7097L125.032 12.6264C119.902 8.0734 113.888 4.62378 107.365 2.49228C100.843 0.360793 93.9502 -0.406919 87.1174 0.236953C80.2845 0.880826 73.6576 2.92249 67.6492 6.23483C61.6408 9.54716 56.3796 14.0592 52.1933 19.4901C48.007 24.9209 44.9851 31.1542 43.3159 37.8018C41.6467 44.4495 41.3659 51.3691 42.4909 58.1298C43.616 64.8905 46.1229 71.3476 49.8554 77.0988C53.5879 82.8501 58.4662 87.7725 64.1865 91.5595C62.9616 94.9355 62.1054 98.4337 61.6328 101.993L101.251 108.371L61.2079 108.19C61.1501 116.496 63.1674 124.685 67.0771 132.016C70.9868 139.348 76.6656 145.59 83.5995 150.178C80.4076 158.988 79.7627 168.517 81.7385 177.676C83.7144 186.835 88.2312 195.254 94.7727 201.97C101.314 208.686 109.616 213.429 118.73 215.656C127.843 217.883 137.4 217.504 146.308 214.563C155.216 211.621 163.115 206.236 169.103 199.024C175.091 191.811 178.925 183.061 180.168 173.774C181.41 164.488 180.011 155.04 176.13 146.51C172.249 137.98 166.042 130.713 158.22 125.54C162.04 115.01 162.203 103.504 158.684 92.8712C155.165 82.2379 148.168 73.095 138.817 66.9119L138.803 66.9262Z" fill="#6C63FF"/>
<path opacity="0.1" d="M63.7092 124.243C67.214 134.881 74.2124 144.026 83.5708 150.197C80.3855 159.007 79.7463 168.534 81.7265 177.69C83.7066 186.845 88.2261 195.26 94.7685 201.972C101.311 208.684 109.612 213.423 118.724 215.647C127.836 217.871 137.39 217.491 146.296 214.549C155.201 211.608 163.099 206.224 169.085 199.013C175.071 191.802 178.906 183.054 180.149 173.77C181.393 164.486 179.996 155.04 176.118 146.512C172.241 137.983 166.038 130.715 158.22 125.54C161.901 115.373 61.9621 118.9 63.7092 124.243Z" fill="black"/>
</g>
<path d="M185.247 119.258C184.058 116.836 183.614 114.105 183.185 111.426C180.664 95.611 178.306 78.5374 185.151 64.2046C186.23 61.95 187.538 59.7574 189.447 58.2179C191.49 56.5734 194.025 55.7917 196.392 54.724C203.266 51.6353 208.803 46.0919 214.846 41.4922C220.889 36.8926 228.183 33.0555 235.586 34.2281C239.405 34.8334 242.937 36.74 246.641 37.9364C257.104 41.3206 269.18 39.1138 278.579 44.9813C281.973 47.1024 284.741 50.1291 287.462 53.1225L299.601 66.4687C302.889 70.0816 306.24 73.7852 308.231 78.3134C310.221 82.8416 310.641 88.4231 308.107 92.6462C306.832 94.7769 304.818 96.6215 304.598 99.1239C304.36 101.841 306.336 104.176 307.056 106.798C308.966 113.724 301.963 119.667 295.577 122.403C276.278 130.649 255.047 129.701 234.617 129.363C219.404 129.1 194.02 137.075 185.247 119.258Z" fill="#3F3D56"/>
<path d="M219.567 153.533C218.225 156.732 215.342 158.991 212.493 160.979C209.643 162.966 206.602 164.859 203.17 165.021C209.218 172.785 217.49 178.496 225.576 184.087C229.342 186.684 233.161 189.277 237.457 190.745C241.4 192.09 245.595 192.423 249.72 192.986C254.97 193.705 260.197 194.816 265.471 194.597C274.87 194.206 283.858 189.473 290.092 182.437C296.326 175.402 299.896 166.231 300.861 156.875C297.519 156.822 294.436 154.968 291.739 152.947C288.441 150.483 285.347 147.633 283.219 144.11C280.913 140.297 279.877 135.874 278.827 131.541C267.701 131.207 256.574 130.878 245.443 131.093C241.39 131.169 237.328 131.326 233.376 132.332C229.61 133.285 221.743 135.745 219.447 139.134C218.125 141.088 219.447 143.1 219.925 145.206C220.536 147.976 220.688 150.869 219.567 153.533Z" fill="#BE6F72"/>
<path opacity="0.1" d="M219.567 153.533C218.225 156.732 215.342 158.991 212.493 160.979C209.643 162.966 206.602 164.859 203.17 165.021C209.218 172.785 217.49 178.496 225.576 184.087C229.342 186.684 233.161 189.277 237.457 190.745C241.4 192.09 245.595 192.423 249.72 192.986C254.97 193.705 260.197 194.816 265.471 194.597C274.87 194.206 283.858 189.473 290.092 182.437C296.326 175.402 299.896 166.231 300.861 156.875C297.519 156.822 294.436 154.968 291.739 152.947C288.441 150.483 285.347 147.633 283.219 144.11C280.913 140.297 279.877 135.874 278.827 131.541C267.701 131.207 256.574 130.878 245.443 131.093C241.39 131.169 237.328 131.326 233.376 132.332C229.61 133.285 221.743 135.745 219.447 139.134C218.125 141.088 219.447 143.1 219.925 145.206C220.536 147.976 220.688 150.869 219.567 153.533Z" fill="black"/>
<path d="M232.154 166.703C235.338 170.655 238.617 174.687 242.98 177.28C244.311 178.067 245.801 178.71 247.347 178.658C249.638 178.562 251.533 176.932 253.214 175.369C261.603 167.571 269.57 159.333 277.08 150.688C279.433 147.976 281.853 145.149 285.075 143.572C287.987 169.805 288.747 196.233 287.347 222.59C287.363 223.088 287.247 223.581 287.013 224.02C286.512 224.778 285.462 224.888 284.55 224.921C257.605 225.932 229.581 226.742 204.903 215.865C206.617 210.789 206.335 205.298 206.502 199.94C206.774 191.155 208.302 182.457 210.412 173.939C211.447 169.759 212.626 165.617 213.877 161.498C214.918 158.047 215.71 151.965 218.034 149.358C223.381 154.125 227.662 161.127 232.154 166.703Z" fill="#E3E8F4"/>
<path d="M244.388 179.478H247.729L256.321 193.777L247.252 216.18L236.273 194.254L244.388 179.478Z" fill="#3F3D56"/>
<path d="M244.087 202.071C240.98 197.543 238.839 192.426 237.796 187.037C237.462 185.312 237.237 183.553 236.626 181.904C235.72 179.458 234.011 177.409 232.469 175.297C226.752 167.466 223.07 158.34 221.753 148.738C221.161 144.382 220.765 139.391 217.242 136.755C215.027 135.101 212.077 134.849 209.309 134.896C198.602 135.164 188.347 139.262 180.411 146.446C179.092 147.752 177.698 148.981 176.235 150.125C174.736 151.149 173.136 152.018 171.461 152.718C167.232 154.625 162.812 156.207 158.206 156.689C157.022 156.738 155.849 156.932 154.712 157.266C153.337 157.742 152.206 158.748 151.046 159.649C147.341 162.498 143.084 164.55 138.545 165.674C132.139 180.528 127.183 195.965 123.748 211.77C122.884 215.703 122.11 219.664 120.931 223.515C119.304 228.853 116.907 233.944 115.308 239.292C108.95 260.574 115.628 283.759 111.347 305.546L340.971 305.861C337.362 300.27 338.66 293.168 338.35 286.523C338.059 280.403 336.503 274.421 335.424 268.387C333.62 258.296 333.157 248.01 332.971 237.762C332.894 233.434 332.889 228.963 334.565 224.974C337.711 217.485 345.873 213.534 353.601 210.993C357.295 209.783 361.181 208.677 364.102 206.089C367.095 203.415 368.651 199.487 369.606 195.602C364.398 185.354 357.629 175.583 349.08 167.895C345.868 165.035 342.436 162.351 339.725 159.005C338.073 156.96 336.703 154.682 334.88 152.809C330.317 148.076 323.424 146.293 316.856 146.031C314.827 145.95 312.77 145.988 310.803 145.483C305.161 144.053 301.567 138.548 296.484 135.697C292.947 133.726 288.817 133.093 284.851 133.914C281.987 134.51 279.056 136.207 278.412 139.029C278.054 140.616 278.493 142.256 278.66 143.872C279.176 148.843 277.109 153.714 274.608 158.042C265.619 173.491 250.922 185.545 244.087 202.071Z" fill="#000000"/>
<path d="M294.259 106.788C294.257 117.472 290.696 127.852 284.137 136.292C277.578 144.733 268.393 150.755 258.03 153.41C247.666 156.065 236.713 155.202 226.895 150.958C217.076 146.713 208.951 139.327 203.798 129.964C198.645 120.601 196.758 109.792 198.433 99.2403C200.109 88.6883 205.252 78.9925 213.052 71.6802C220.852 64.3678 230.867 59.8542 241.519 58.8503C252.171 57.8464 262.854 60.4092 271.887 66.135C278.743 70.4812 284.389 76.4865 288.3 83.5935C292.211 90.7005 294.261 98.679 294.259 106.788Z" fill="#BE6F72"/>
<path d="M457.029 322.129V299.831H34.4298C35.2221 300.994 36.0257 302.145 36.8403 303.282C37.456 304.738 38.2985 306.088 39.3367 307.281C39.8897 307.913 40.4966 308.495 41.1506 309.021C50.3153 320.675 60.7497 330.57 72.2247 338.059C78.7442 342.327 85.7438 345.814 93.0792 348.45H443.744L457.029 322.129Z" fill="#3F3D56"/>
<path d="M255.075 274.331C248.598 273.816 241.863 272.205 235.763 274.436C233.683 275.265 231.71 276.34 229.887 277.639C223.298 282.056 217.229 287.201 211.796 292.977C210.225 294.641 208.688 296.395 207.724 298.473C206.364 301.404 206.245 304.746 205.338 307.849C204.817 309.627 204.025 311.428 204.34 313.254C204.655 315.079 206.765 316.714 208.345 315.742C208.266 316.251 208.3 316.771 208.446 317.265C208.591 317.759 208.844 318.215 209.187 318.601C209.529 318.986 209.953 319.291 210.427 319.494C210.901 319.697 211.414 319.792 211.93 319.774C214.345 319.691 216.677 318.871 218.612 317.425C218.674 318.003 218.956 318.535 219.401 318.911C219.845 319.286 220.418 319.476 220.999 319.441C225.137 319.169 229.08 317.058 232.622 314.751C236.779 312.062 240.908 309.002 245.777 308.078C242.782 309.441 240.143 311.479 238.068 314.031C237.271 315.008 236.526 316.152 237.405 317.663C237.93 318.511 238.738 319.148 239.686 319.46C245.137 321.367 251.061 318.211 254.698 313.835C256.164 312.067 257.457 310.022 259.472 308.95C262.713 307.21 266.708 308.43 270.355 307.925C274.402 307.372 277.806 304.736 281.524 303.035C286.474 300.775 291.992 300.175 297.276 298.831C297.91 298.738 298.495 298.436 298.937 297.973C299.267 297.422 299.41 296.78 299.343 296.142C299.32 289.614 298.827 283.096 297.868 276.638C297.788 275.597 297.47 274.59 296.937 273.692C295.897 272.214 293.92 271.785 292.14 271.49C289.276 271.013 286.064 269.946 283.18 269.955C280.412 269.955 277.744 271.519 275.104 272.286C268.606 274.17 261.82 274.863 255.075 274.331Z" fill="#BE6F72"/>
<path d="M285.271 265.737C278.116 266.487 271.385 269.492 266.054 274.316C272.006 272.815 278.412 271.333 284.149 273.506C286.944 274.565 289.361 276.429 291.093 278.862C292.826 281.294 293.796 284.185 293.881 287.169C293.966 290.153 293.161 293.094 291.57 295.621C289.979 298.148 287.672 300.146 284.942 301.362C286.102 302.663 287.806 303.301 289.5 303.792C301.744 307.358 314.851 305.222 327.372 302.791C329.663 302.348 332.145 301.762 333.543 299.879C334.789 298.177 334.751 295.885 334.641 293.773C334.321 287.677 333.792 281.38 331.023 275.951C327.271 268.582 320.756 265.837 312.908 266.69C303.677 267.672 294.512 264.802 285.271 265.737Z" fill="#E3E8F4"/>
<path d="M363.171 187.638C367.128 191.398 369.983 196.146 372.603 200.931C381.482 217.134 388.284 234.388 392.852 252.285C393.3 254.044 393.744 255.851 394.794 257.333C396.322 259.483 398.914 260.67 400.58 262.7C402.58 265.169 402.966 268.649 402.308 271.757C401.649 274.864 400.078 277.7 398.489 280.451C394.14 287.972 389.009 295.737 381.023 299.173C377.682 300.603 374.031 301.194 370.417 301.666C356.845 303.45 343.131 303.892 329.472 302.987C331.858 300.222 332.088 296.142 331.243 292.591C330.398 289.04 328.636 285.784 327.424 282.348C326.469 279.664 325.796 276.804 324.121 274.497C322.886 272.914 321.364 271.577 319.634 270.555C315.703 268.064 311.282 266.445 306.67 265.808C310.092 263.139 314.527 262.252 318.699 261.042C322.87 259.831 327.233 257.972 329.419 254.225C330.732 251.98 331.095 249.316 331.271 246.723C331.804 238.921 330.892 231.087 328.579 223.615C327.042 218.644 324.866 213.448 326.193 208.424C326.87 205.888 328.393 203.658 329.887 201.522C332.799 197.328 335.816 193.033 340.064 190.202C343.73 187.757 348.088 186.608 352.45 186.303C355.72 186.088 360.689 185.297 363.171 187.638Z" fill="#000000"/>
<path d="M191.404 333.731C191.366 338.707 177.815 344.217 162.134 344.217C146.454 344.217 133.366 338.721 133.156 333.731C132.425 316.424 146.449 326.166 162.134 326.166C177.82 326.166 191.548 313.807 191.404 333.731Z" fill="#3F3D56"/>
<path opacity="0.2" d="M191.404 333.731C191.366 338.707 177.815 344.217 162.134 344.217C146.454 344.217 133.366 338.721 133.156 333.731C132.425 316.424 146.449 326.166 162.134 326.166C177.82 326.166 191.548 313.807 191.404 333.731Z" fill="black"/>
<path d="M190.531 326.166C190.531 331.147 177.815 336.653 162.134 336.653C146.454 336.653 133.738 331.162 133.738 326.166C133.738 321.171 146.449 318.607 162.134 318.607C177.82 318.607 190.531 321.19 190.531 326.166Z" fill="#3F3D56"/>
<path opacity="0.1" d="M190.531 326.166C190.531 331.147 177.815 336.653 162.134 336.653C146.454 336.653 133.738 331.162 133.738 326.166C133.738 321.171 146.449 318.607 162.134 318.607C177.82 318.607 190.531 321.19 190.531 326.166Z" fill="white"/>
<path d="M184.994 324.203C184.965 328.087 174.397 332.368 162.163 332.368C149.929 332.368 139.729 328.078 139.557 324.203C138.989 310.704 149.929 318.302 162.163 318.302C174.397 318.302 185.108 308.664 184.994 324.203Z" fill="#3F3D56"/>
<path opacity="0.2" d="M184.994 324.203C184.965 328.087 174.397 332.368 162.163 332.368C149.929 332.368 139.729 328.078 139.557 324.203C138.989 310.704 149.929 318.302 162.163 318.302C174.397 318.302 185.108 308.664 184.994 324.203Z" fill="black"/>
<path d="M184.311 317.343C184.311 321.686 174.397 326.471 162.163 326.471C149.929 326.471 140.01 321.705 140.01 317.343C140.01 312.982 149.929 310.756 162.163 310.756C174.397 310.756 184.311 312.996 184.311 317.343Z" fill="#3F3D56"/>
<path opacity="0.1" d="M184.311 317.343C184.311 321.686 174.397 326.471 162.163 326.471C149.929 326.471 140.01 321.705 140.01 317.343C140.01 312.982 149.929 310.756 162.163 310.756C174.397 310.756 184.311 312.996 184.311 317.343Z" fill="white"/>
<path d="M109.079 346.133C109.079 346.133 113.27 341.519 113.991 336.333C114.712 331.147 93.5136 323.182 93.5136 323.182C93.5136 323.182 86.1627 327.472 85.9145 331.49C85.9145 331.49 99.9862 346.591 109.079 346.133Z" fill="#3F3D56"/>
<path opacity="0.2" d="M109.079 346.133C109.079 346.133 113.27 341.519 113.991 336.333C114.712 331.147 93.5136 323.182 93.5136 323.182C93.5136 323.182 86.1627 327.472 85.9145 331.49C85.9145 331.49 99.9862 346.591 109.079 346.133Z" fill="black"/>
<path d="M108.888 346.343C110.198 344.162 105.987 339.234 99.4814 335.336C92.976 331.437 86.64 330.044 85.3295 332.225C84.0191 334.405 88.2305 339.333 94.7359 343.232C101.241 347.13 107.577 348.523 108.888 346.343Z" fill="#3F3D56"/>
<path opacity="0.1" d="M108.888 346.343C110.198 344.162 105.987 339.234 99.4814 335.336C92.976 331.437 86.64 330.044 85.3295 332.225C84.0191 334.405 88.2305 339.333 94.7359 343.232C101.241 347.13 107.577 348.523 108.888 346.343Z" fill="white"/>
<path d="M114.287 334.746L126.344 314.674L114.082 304.274L104.521 302.486L101.537 307.858L93.146 323.406L114.287 334.746Z" fill="#3F3D56"/>
<path opacity="0.1" d="M114.287 334.746L126.344 314.674L114.082 304.274L104.521 302.486L101.537 307.858L93.146 323.406L114.287 334.746Z" fill="white"/>
<path d="M126.507 316.652C126.507 316.652 134.65 308.011 132.559 303.34C130.468 298.668 119.428 289.307 112.397 290.732C105.366 292.157 104.239 302.51 104.239 302.51L126.507 316.652Z" fill="#3F3D56"/>
<path opacity="0.2" d="M126.507 316.652C126.507 316.652 134.65 308.011 132.559 303.34C130.468 298.668 119.428 289.307 112.397 290.732C105.366 292.157 104.239 302.51 104.239 302.51L126.507 316.652Z" fill="black"/>
<path d="M33.8808 278.678L96.2535 316.562C96.2535 316.562 102.182 315.794 101.538 307.868L39.7615 269.574C38.504 268.793 37.0143 268.473 35.5467 268.668C33.857 268.897 31.857 269.512 31.2078 271.118C31.0419 271.527 30.9265 271.954 30.8641 272.391C30.6897 273.619 30.8831 274.871 31.4199 275.99C31.9567 277.109 32.813 278.044 33.8808 278.678Z" fill="#3F3D56"/>
<path opacity="0.2" d="M33.8808 278.678L96.2535 316.562C96.2535 316.562 102.182 315.794 101.538 307.868L39.7615 269.574C38.504 268.793 37.0143 268.473 35.5467 268.668C33.857 268.897 31.857 269.512 31.2078 271.118C31.0419 271.527 30.9265 271.954 30.8641 272.391C30.6897 273.619 30.8831 274.871 31.4199 275.99C31.9567 277.109 32.813 278.044 33.8808 278.678Z" fill="black"/>
<path d="M114.277 337.573C114.603 337.554 114.914 337.432 115.166 337.225C115.418 337.017 115.596 336.735 115.676 336.419C115.981 335.347 115.423 334.317 114.836 333.459C113.787 331.928 112.479 330.593 110.97 329.512C108.43 327.677 105.967 325.609 103.094 324.269C101.43 323.53 99.6877 322.981 97.9002 322.634C96.5604 322.327 95.1891 322.176 93.8143 322.186C93.5703 322.193 93.3342 322.274 93.1372 322.417C92.9402 322.561 92.7917 322.762 92.7114 322.992C92.6311 323.222 92.6229 323.471 92.6877 323.706C92.7525 323.941 92.8874 324.151 93.0744 324.307C93.7099 324.728 94.4192 325.026 95.1651 325.184C98.8835 326.276 102.325 328.168 105.547 330.318C107.282 331.433 108.908 332.709 110.402 334.131C111.394 335.113 112.664 337.611 114.277 337.573Z" fill="#3F3D56"/>
<path opacity="0.2" d="M114.277 337.573C114.603 337.554 114.914 337.432 115.166 337.225C115.418 337.017 115.596 336.735 115.676 336.419C115.981 335.347 115.423 334.317 114.836 333.459C113.787 331.928 112.479 330.593 110.97 329.512C108.43 327.677 105.967 325.609 103.094 324.269C101.43 323.53 99.6877 322.981 97.9002 322.634C96.5604 322.327 95.1891 322.176 93.8143 322.186C93.5703 322.193 93.3342 322.274 93.1372 322.417C92.9402 322.561 92.7917 322.762 92.7114 322.992C92.6311 323.222 92.6229 323.471 92.6877 323.706C92.7525 323.941 92.8874 324.151 93.0744 324.307C93.7099 324.728 94.4192 325.026 95.1651 325.184C98.8835 326.276 102.325 328.168 105.547 330.318C107.282 331.433 108.908 332.709 110.402 334.131C111.394 335.113 112.664 337.611 114.277 337.573Z" fill="black"/>
<path d="M124.235 318.187C124.235 318.187 130.354 318.335 125.289 312.191C120.225 306.047 111.165 299.951 104.717 301.328C104.717 301.328 102.043 303.54 104.354 303.921C106.545 304.283 116.764 306.304 121.461 311.991C121.975 312.608 122.549 313.173 123.175 313.678C124.277 314.574 125.762 316.271 124.235 318.187Z" fill="#3F3D56"/>
<path opacity="0.2" d="M124.235 318.187C124.235 318.187 130.354 318.335 125.289 312.191C120.225 306.047 111.165 299.951 104.717 301.328C104.717 301.328 102.043 303.54 104.354 303.921C106.545 304.283 116.764 306.304 121.461 311.991C121.975 312.608 122.549 313.173 123.175 313.678C124.277 314.574 125.762 316.271 124.235 318.187Z" fill="black"/>
<path d="M134.21 304.649C135.521 302.469 131.309 297.541 124.804 293.642C118.298 289.743 111.962 288.35 110.652 290.531C109.342 292.711 113.553 297.639 120.058 301.538C126.564 305.437 132.9 306.829 134.21 304.649Z" fill="#3F3D56"/>
<path opacity="0.1" d="M134.21 304.649C135.521 302.469 131.309 297.541 124.804 293.642C118.298 289.743 111.962 288.35 110.652 290.531C109.342 292.711 113.553 297.639 120.058 301.538C126.564 305.437 132.9 306.829 134.21 304.649Z" fill="white"/>
<path d="M93.8143 303.073C93.7316 304.183 93.3777 305.256 92.7835 306.199C92.1894 307.141 91.3732 307.924 90.4062 308.478C87.2033 310.184 82.7069 308.664 81.1985 305.365C80.4157 303.649 80.4014 301.724 80.2438 299.832C80.1926 299.214 80.1097 298.6 79.9956 297.992C79.5183 295.537 77.4849 292.93 75.0266 293.416C72.998 293.811 71.9288 296.085 71.6853 298.135C71.6225 298.698 71.5906 299.265 71.5899 299.832C71.5899 300.423 71.6137 301.014 71.6471 301.605C71.714 302.815 71.819 304.031 71.8142 305.241C71.8142 307.625 71.2987 310.156 69.5755 311.791C67.4848 313.778 64.2772 313.869 61.3846 313.835C54.3249 313.764 46.468 313.359 41.1553 309.021C40.5014 308.495 39.8945 307.913 39.3415 307.282C38.3033 306.088 37.4607 304.739 36.8451 303.282C36.3718 302.17 36.0089 301.014 35.7615 299.832C34.9691 296.137 35.1458 292.11 35.7949 288.363C36.215 285.913 37.0264 283.23 38.8212 281.666C39.2486 281.293 39.7318 280.99 40.2532 280.766C41.1124 280.403 42.0861 280.289 42.8355 279.722C43.5849 279.154 44.0718 278.125 44.8642 277.505C46.4537 276.261 48.869 276.795 50.7306 276.376H50.8117L50.912 276.347C52.9215 275.87 54.7783 274.774 56.6733 273.964C57.4895 273.616 58.3058 273.282 59.1268 272.987C61.1709 272.171 63.3777 271.845 65.5707 272.033C72.7307 272.848 81.3226 277.186 86.2248 282.391C87.4325 283.588 88.3728 285.028 88.9837 286.614C89.3843 287.944 89.6058 289.321 89.6424 290.708C89.7713 292.667 89.8763 294.622 90.8501 296.295C91.442 297.305 92.3107 298.13 92.9265 299.155C93.0684 299.385 93.1929 299.626 93.2988 299.874C93.7363 300.881 93.9136 301.98 93.8143 303.073Z" fill="#BE6F72"/>
<path d="M78.0672 279.545C80.9837 281.052 83.8524 282.753 86.1436 285.098C88.4348 287.443 90.1246 290.518 90.2582 293.797C92.2607 291.378 93.9791 288.738 95.38 285.928C96.4874 283.711 97.3991 281.09 96.4158 278.811C95.9459 277.847 95.285 276.987 94.473 276.285C90.1771 272.224 84.4014 269.979 78.5589 269.059C72.2438 268.063 59.628 265.889 58.659 275.07C65.733 274.736 71.7474 276.295 78.0672 279.545Z" fill="#E3E8F4"/>
<path d="M156.311 162.166C151.638 164.182 146.168 162.757 141.227 163.977C137.581 164.878 134.445 167.161 131.485 169.473C125.585 174.077 119.771 179.225 116.616 186.008C115.585 188.229 114.85 190.588 113.614 192.681C111.614 196.093 108.421 198.634 105.094 200.784C96.5924 206.256 86.7212 209.678 79.1555 216.38C75.9192 219.24 73.1937 222.633 70.6591 226.127C67.6805 230.226 64.8309 234.802 64.7736 239.864C64.7736 241.847 65.165 243.858 64.7736 245.808C63.9335 250.169 59.523 252.877 57.5325 256.852C55.6232 260.641 56.0767 265.322 53.9525 268.983C52.5587 271.366 50.0337 273.749 50.8308 276.38C56.6829 271.99 63.7187 270.184 70.8786 271.614C74.4634 272.324 77.8095 273.921 81.0171 275.67C84.7355 277.701 88.4014 280.008 91.0888 283.296C93.7761 286.585 95.3847 290.961 94.4301 295.084C98.3012 293.177 100.592 289.107 102.182 285.103C103.771 281.099 104.984 276.824 107.623 273.435C108.984 271.685 110.674 270.231 112.282 268.711C121.213 260.26 127.652 249.583 133.972 239.044C140.489 228.183 147.003 217.315 153.514 206.441C155.318 203.424 157.132 200.388 158.435 197.128C162.812 186.165 159.977 173.362 156.311 162.166Z" fill="#000000"/>
<path d="M428.976 307.767C444.005 307.767 456.189 305.429 456.189 302.543C456.189 299.658 444.005 297.319 428.976 297.319C413.947 297.319 401.763 299.658 401.763 302.543C401.763 305.429 413.947 307.767 428.976 307.767Z" fill="#000000"/>
<path d="M428.518 304.469C430.268 304.469 431.687 302.615 431.687 300.327C431.687 298.04 430.268 296.185 428.518 296.185C426.767 296.185 425.348 298.04 425.348 300.327C425.348 302.615 426.767 304.469 428.518 304.469Z" fill="#3F3D56"/>
<path d="M428.518 299.402C430.268 299.402 431.687 297.548 431.687 295.26C431.687 292.973 430.268 291.118 428.518 291.118C426.767 291.118 425.348 292.973 425.348 295.26C425.348 297.548 426.767 299.402 428.518 299.402Z" fill="#3F3D56"/>
<path d="M428.518 294.34C430.268 294.34 431.687 292.486 431.687 290.198C431.687 287.911 430.268 286.056 428.518 286.056C426.767 286.056 425.348 287.911 425.348 290.198C425.348 292.486 426.767 294.34 428.518 294.34Z" fill="#3F3D56"/>
<path d="M428.518 289.278C430.268 289.278 431.687 287.424 431.687 285.136C431.687 282.849 430.268 280.994 428.518 280.994C426.767 280.994 425.348 282.849 425.348 285.136C425.348 287.424 426.767 289.278 428.518 289.278Z" fill="#3F3D56"/>
<path d="M428.518 284.217C430.268 284.217 431.687 282.362 431.687 280.074C431.687 277.787 430.268 275.932 428.518 275.932C426.767 275.932 425.348 277.787 425.348 280.074C425.348 282.362 426.767 284.217 428.518 284.217Z" fill="#3F3D56"/>
<path d="M428.518 279.154C430.268 279.154 431.687 277.3 431.687 275.012C431.687 272.725 430.268 270.87 428.518 270.87C426.767 270.87 425.348 272.725 425.348 275.012C425.348 277.3 426.767 279.154 428.518 279.154Z" fill="#3F3D56"/>
<path d="M428.518 274.092C430.268 274.092 431.687 272.238 431.687 269.95C431.687 267.663 430.268 265.808 428.518 265.808C426.767 265.808 425.348 267.663 425.348 269.95C425.348 272.238 426.767 274.092 428.518 274.092Z" fill="#3F3D56"/>
<path d="M440.384 235.302C440.816 234.753 441.21 234.175 441.563 233.572L433.238 232.204L442.241 232.271C443.104 230.395 443.576 228.362 443.626 226.298C443.676 224.233 443.304 222.18 442.532 220.264L430.451 226.523L441.592 218.343C440.549 216.541 439.145 214.972 437.468 213.735C435.792 212.498 433.878 211.619 431.846 211.153C429.814 210.687 427.708 210.644 425.659 211.027C423.609 211.409 421.661 212.209 419.935 213.377C418.209 214.544 416.742 216.055 415.626 217.813C414.511 219.572 413.77 221.541 413.449 223.598C413.129 225.655 413.237 227.756 413.766 229.77C414.294 231.783 415.233 233.667 416.522 235.302C415.85 236.161 415.271 237.087 414.794 238.067L425.601 243.677L414.069 239.812C413.259 242.2 413.059 244.752 413.486 247.237C413.912 249.722 414.953 252.062 416.513 254.044C414.753 256.28 413.658 258.966 413.354 261.794C413.05 264.622 413.548 267.478 414.793 270.036C416.038 272.594 417.978 274.751 420.393 276.26C422.807 277.769 425.598 278.569 428.446 278.569C431.294 278.569 434.085 277.769 436.499 276.26C438.914 274.751 440.854 272.594 442.099 270.036C443.344 267.478 443.842 264.622 443.538 261.794C443.234 258.966 442.14 256.28 440.379 254.044C442.482 251.372 443.625 248.072 443.625 244.673C443.625 241.275 442.482 237.975 440.379 235.302H440.384Z" fill="#000000"/>
<path opacity="0.1" d="M413.277 244.674C413.271 248.073 414.415 251.375 416.522 254.045C414.762 256.281 413.667 258.966 413.363 261.794C413.059 264.622 413.558 267.478 414.803 270.036C416.048 272.595 417.988 274.751 420.402 276.26C422.817 277.769 425.607 278.57 428.456 278.57C431.304 278.57 434.095 277.769 436.509 276.26C438.923 274.751 440.864 272.595 442.108 270.036C443.353 267.478 443.852 264.622 443.548 261.794C443.244 258.966 442.149 256.281 440.389 254.045C442.417 251.466 413.277 242.972 413.277 244.674Z" fill="black"/>
<path d="M222.182 85.7683C225.524 87.0553 228.784 88.9047 232.369 89.1478C236.918 89.4528 241.214 87.1363 245.734 86.4976C254.016 85.3298 261.877 89.8341 269.658 92.8942C277.438 95.9543 287.462 97.2222 293.166 91.1163C298.011 85.9256 297.343 77.2935 293.448 71.3831C289.553 65.4726 283.19 61.6499 276.899 58.3562C269.958 54.7242 262.722 51.421 254.994 50.1388C238.593 47.4267 221.93 54.1999 208.321 63.7376C203.805 66.9026 199.342 70.5966 197.185 75.6538C195.963 78.5137 195.581 82.1744 196.645 85.1535C198.392 90.0534 199.538 89.4719 203.161 88.1945C210.082 85.7636 214.173 82.7082 222.182 85.7683Z" fill="#3F3D56"/>
</g>
<defs>
<clipPath id="clip0">
<rect width="473" height="381" fill="white"/>
</clipPath>
</defs>
</svg>
