<svg width="439" height="256" viewBox="0 0 439 256" fill="none" xmlns="http://www.w3.org/2000/svg">
<rect width="439" height="256" rx="30" fill="#0D0199"/>
<path d="M239.4 63.63V61.8C239.4 61.6667 239.407 61.5367 239.42 61.41C239.44 61.2833 239.47 61.1633 239.51 61.05C239.437 61.1433 239.35 61.2267 239.25 61.3C239.15 61.3733 239.043 61.4467 238.93 61.52L237.35 62.44L236.76 61.44L238.35 60.52C238.47 60.4467 238.587 60.3867 238.7 60.34C238.82 60.2933 238.943 60.26 239.07 60.24C238.943 60.2267 238.82 60.1933 238.7 60.14C238.587 60.0867 238.47 60.0233 238.35 59.95L236.76 59.02L237.34 58.02L238.93 58.96C239.043 59.0333 239.15 59.11 239.25 59.19C239.357 59.2633 239.447 59.3467 239.52 59.44C239.473 59.3267 239.44 59.2067 239.42 59.08C239.407 58.9533 239.4 58.8233 239.4 58.69V56.84H240.58V58.67C240.58 58.81 240.57 58.9467 240.55 59.08C240.537 59.2067 240.507 59.3267 240.46 59.44C240.533 59.3467 240.62 59.2633 240.72 59.19C240.82 59.11 240.93 59.0333 241.05 58.96L242.63 58.04L243.22 59.04L241.63 59.95C241.51 60.0233 241.39 60.0867 241.27 60.14C241.157 60.1867 241.037 60.22 240.91 60.24C241.137 60.28 241.377 60.3733 241.63 60.52L243.22 61.45L242.64 62.45L241.05 61.52C240.93 61.4467 240.82 61.3733 240.72 61.3C240.62 61.2267 240.53 61.1433 240.45 61.05C240.537 61.2633 240.58 61.51 240.58 61.79V63.63H239.4ZM247.408 63.63V61.8C247.408 61.6667 247.414 61.5367 247.428 61.41C247.448 61.2833 247.478 61.1633 247.518 61.05C247.444 61.1433 247.358 61.2267 247.258 61.3C247.158 61.3733 247.051 61.4467 246.938 61.52L245.358 62.44L244.768 61.44L246.358 60.52C246.478 60.4467 246.594 60.3867 246.708 60.34C246.828 60.2933 246.951 60.26 247.078 60.24C246.951 60.2267 246.828 60.1933 246.708 60.14C246.594 60.0867 246.478 60.0233 246.358 59.95L244.768 59.02L245.348 58.02L246.938 58.96C247.051 59.0333 247.158 59.11 247.258 59.19C247.364 59.2633 247.454 59.3467 247.528 59.44C247.481 59.3267 247.448 59.2067 247.428 59.08C247.414 58.9533 247.408 58.8233 247.408 58.69V56.84H248.588V58.67C248.588 58.81 248.578 58.9467 248.558 59.08C248.544 59.2067 248.514 59.3267 248.468 59.44C248.541 59.3467 248.628 59.2633 248.728 59.19C248.828 59.11 248.938 59.0333 249.058 58.96L250.638 58.04L251.228 59.04L249.638 59.95C249.518 60.0233 249.398 60.0867 249.278 60.14C249.164 60.1867 249.044 60.22 248.918 60.24C249.144 60.28 249.384 60.3733 249.638 60.52L251.228 61.45L250.648 62.45L249.058 61.52C248.938 61.4467 248.828 61.3733 248.728 61.3C248.628 61.2267 248.538 61.1433 248.458 61.05C248.544 61.2633 248.588 61.51 248.588 61.79V63.63H247.408ZM255.416 63.63V61.8C255.416 61.6667 255.422 61.5367 255.436 61.41C255.456 61.2833 255.486 61.1633 255.526 61.05C255.452 61.1433 255.366 61.2267 255.266 61.3C255.166 61.3733 255.059 61.4467 254.946 61.52L253.366 62.44L252.776 61.44L254.366 60.52C254.486 60.4467 254.602 60.3867 254.716 60.34C254.836 60.2933 254.959 60.26 255.086 60.24C254.959 60.2267 254.836 60.1933 254.716 60.14C254.602 60.0867 254.486 60.0233 254.366 59.95L252.776 59.02L253.356 58.02L254.946 58.96C255.059 59.0333 255.166 59.11 255.266 59.19C255.372 59.2633 255.462 59.3467 255.536 59.44C255.489 59.3267 255.456 59.2067 255.436 59.08C255.422 58.9533 255.416 58.8233 255.416 58.69V56.84H256.596V58.67C256.596 58.81 256.586 58.9467 256.566 59.08C256.552 59.2067 256.522 59.3267 256.476 59.44C256.549 59.3467 256.636 59.2633 256.736 59.19C256.836 59.11 256.946 59.0333 257.066 58.96L258.646 58.04L259.236 59.04L257.646 59.95C257.526 60.0233 257.406 60.0867 257.286 60.14C257.172 60.1867 257.052 60.22 256.926 60.24C257.152 60.28 257.392 60.3733 257.646 60.52L259.236 61.45L258.656 62.45L257.066 61.52C256.946 61.4467 256.836 61.3733 256.736 61.3C256.636 61.2267 256.546 61.1433 256.466 61.05C256.552 61.2633 256.596 61.51 256.596 61.79V63.63H255.416ZM263.423 63.63V61.8C263.423 61.6667 263.43 61.5367 263.443 61.41C263.463 61.2833 263.493 61.1633 263.533 61.05C263.46 61.1433 263.373 61.2267 263.273 61.3C263.173 61.3733 263.067 61.4467 262.953 61.52L261.373 62.44L260.783 61.44L262.373 60.52C262.493 60.4467 262.61 60.3867 262.723 60.34C262.843 60.2933 262.967 60.26 263.093 60.24C262.967 60.2267 262.843 60.1933 262.723 60.14C262.61 60.0867 262.493 60.0233 262.373 59.95L260.783 59.02L261.363 58.02L262.953 58.96C263.067 59.0333 263.173 59.11 263.273 59.19C263.38 59.2633 263.47 59.3467 263.543 59.44C263.497 59.3267 263.463 59.2067 263.443 59.08C263.43 58.9533 263.423 58.8233 263.423 58.69V56.84H264.603V58.67C264.603 58.81 264.593 58.9467 264.573 59.08C264.56 59.2067 264.53 59.3267 264.483 59.44C264.557 59.3467 264.643 59.2633 264.743 59.19C264.843 59.11 264.953 59.0333 265.073 58.96L266.653 58.04L267.243 59.04L265.653 59.95C265.533 60.0233 265.413 60.0867 265.293 60.14C265.18 60.1867 265.06 60.22 264.933 60.24C265.16 60.28 265.4 60.3733 265.653 60.52L267.243 61.45L266.663 62.45L265.073 61.52C264.953 61.4467 264.843 61.3733 264.743 61.3C264.643 61.2267 264.553 61.1433 264.473 61.05C264.56 61.2633 264.603 61.51 264.603 61.79V63.63H263.423ZM275.298 63.63V61.8C275.298 61.6667 275.305 61.5367 275.318 61.41C275.338 61.2833 275.368 61.1633 275.408 61.05C275.335 61.1433 275.248 61.2267 275.148 61.3C275.048 61.3733 274.942 61.4467 274.828 61.52L273.248 62.44L272.658 61.44L274.248 60.52C274.368 60.4467 274.485 60.3867 274.598 60.34C274.718 60.2933 274.842 60.26 274.968 60.24C274.842 60.2267 274.718 60.1933 274.598 60.14C274.485 60.0867 274.368 60.0233 274.248 59.95L272.658 59.02L273.238 58.02L274.828 58.96C274.942 59.0333 275.048 59.11 275.148 59.19C275.255 59.2633 275.345 59.3467 275.418 59.44C275.372 59.3267 275.338 59.2067 275.318 59.08C275.305 58.9533 275.298 58.8233 275.298 58.69V56.84H276.478V58.67C276.478 58.81 276.468 58.9467 276.448 59.08C276.435 59.2067 276.405 59.3267 276.358 59.44C276.432 59.3467 276.518 59.2633 276.618 59.19C276.718 59.11 276.828 59.0333 276.948 58.96L278.528 58.04L279.118 59.04L277.528 59.95C277.408 60.0233 277.288 60.0867 277.168 60.14C277.055 60.1867 276.935 60.22 276.808 60.24C277.035 60.28 277.275 60.3733 277.528 60.52L279.118 61.45L278.538 62.45L276.948 61.52C276.828 61.4467 276.718 61.3733 276.618 61.3C276.518 61.2267 276.428 61.1433 276.348 61.05C276.435 61.2633 276.478 61.51 276.478 61.79V63.63H275.298ZM283.306 63.63V61.8C283.306 61.6667 283.313 61.5367 283.326 61.41C283.346 61.2833 283.376 61.1633 283.416 61.05C283.343 61.1433 283.256 61.2267 283.156 61.3C283.056 61.3733 282.95 61.4467 282.836 61.52L281.256 62.44L280.666 61.44L282.256 60.52C282.376 60.4467 282.493 60.3867 282.606 60.34C282.726 60.2933 282.85 60.26 282.976 60.24C282.85 60.2267 282.726 60.1933 282.606 60.14C282.493 60.0867 282.376 60.0233 282.256 59.95L280.666 59.02L281.246 58.02L282.836 58.96C282.95 59.0333 283.056 59.11 283.156 59.19C283.263 59.2633 283.353 59.3467 283.426 59.44C283.38 59.3267 283.346 59.2067 283.326 59.08C283.313 58.9533 283.306 58.8233 283.306 58.69V56.84H284.486V58.67C284.486 58.81 284.476 58.9467 284.456 59.08C284.443 59.2067 284.413 59.3267 284.366 59.44C284.44 59.3467 284.526 59.2633 284.626 59.19C284.726 59.11 284.836 59.0333 284.956 58.96L286.536 58.04L287.126 59.04L285.536 59.95C285.416 60.0233 285.296 60.0867 285.176 60.14C285.063 60.1867 284.943 60.22 284.816 60.24C285.043 60.28 285.283 60.3733 285.536 60.52L287.126 61.45L286.546 62.45L284.956 61.52C284.836 61.4467 284.726 61.3733 284.626 61.3C284.526 61.2267 284.436 61.1433 284.356 61.05C284.443 61.2633 284.486 61.51 284.486 61.79V63.63H283.306ZM291.314 63.63V61.8C291.314 61.6667 291.321 61.5367 291.334 61.41C291.354 61.2833 291.384 61.1633 291.424 61.05C291.351 61.1433 291.264 61.2267 291.164 61.3C291.064 61.3733 290.957 61.4467 290.844 61.52L289.264 62.44L288.674 61.44L290.264 60.52C290.384 60.4467 290.501 60.3867 290.614 60.34C290.734 60.2933 290.857 60.26 290.984 60.24C290.857 60.2267 290.734 60.1933 290.614 60.14C290.501 60.0867 290.384 60.0233 290.264 59.95L288.674 59.02L289.254 58.02L290.844 58.96C290.957 59.0333 291.064 59.11 291.164 59.19C291.271 59.2633 291.361 59.3467 291.434 59.44C291.387 59.3267 291.354 59.2067 291.334 59.08C291.321 58.9533 291.314 58.8233 291.314 58.69V56.84H292.494V58.67C292.494 58.81 292.484 58.9467 292.464 59.08C292.451 59.2067 292.421 59.3267 292.374 59.44C292.447 59.3467 292.534 59.2633 292.634 59.19C292.734 59.11 292.844 59.0333 292.964 58.96L294.544 58.04L295.134 59.04L293.544 59.95C293.424 60.0233 293.304 60.0867 293.184 60.14C293.071 60.1867 292.951 60.22 292.824 60.24C293.051 60.28 293.291 60.3733 293.544 60.52L295.134 61.45L294.554 62.45L292.964 61.52C292.844 61.4467 292.734 61.3733 292.634 61.3C292.534 61.2267 292.444 61.1433 292.364 61.05C292.451 61.2633 292.494 61.51 292.494 61.79V63.63H291.314ZM299.322 63.63V61.8C299.322 61.6667 299.329 61.5367 299.342 61.41C299.362 61.2833 299.392 61.1633 299.432 61.05C299.359 61.1433 299.272 61.2267 299.172 61.3C299.072 61.3733 298.965 61.4467 298.852 61.52L297.272 62.44L296.682 61.44L298.272 60.52C298.392 60.4467 298.509 60.3867 298.622 60.34C298.742 60.2933 298.865 60.26 298.992 60.24C298.865 60.2267 298.742 60.1933 298.622 60.14C298.509 60.0867 298.392 60.0233 298.272 59.95L296.682 59.02L297.262 58.02L298.852 58.96C298.965 59.0333 299.072 59.11 299.172 59.19C299.279 59.2633 299.369 59.3467 299.442 59.44C299.395 59.3267 299.362 59.2067 299.342 59.08C299.329 58.9533 299.322 58.8233 299.322 58.69V56.84H300.502V58.67C300.502 58.81 300.492 58.9467 300.472 59.08C300.459 59.2067 300.429 59.3267 300.382 59.44C300.455 59.3467 300.542 59.2633 300.642 59.19C300.742 59.11 300.852 59.0333 300.972 58.96L302.552 58.04L303.142 59.04L301.552 59.95C301.432 60.0233 301.312 60.0867 301.192 60.14C301.079 60.1867 300.959 60.22 300.832 60.24C301.059 60.28 301.299 60.3733 301.552 60.52L303.142 61.45L302.562 62.45L300.972 61.52C300.852 61.4467 300.742 61.3733 300.642 61.3C300.542 61.2267 300.452 61.1433 300.372 61.05C300.459 61.2633 300.502 61.51 300.502 61.79V63.63H299.322ZM311.197 63.63V61.8C311.197 61.6667 311.204 61.5367 311.217 61.41C311.237 61.2833 311.267 61.1633 311.307 61.05C311.234 61.1433 311.147 61.2267 311.047 61.3C310.947 61.3733 310.84 61.4467 310.727 61.52L309.147 62.44L308.557 61.44L310.147 60.52C310.267 60.4467 310.384 60.3867 310.497 60.34C310.617 60.2933 310.74 60.26 310.867 60.24C310.74 60.2267 310.617 60.1933 310.497 60.14C310.384 60.0867 310.267 60.0233 310.147 59.95L308.557 59.02L309.137 58.02L310.727 58.96C310.84 59.0333 310.947 59.11 311.047 59.19C311.154 59.2633 311.244 59.3467 311.317 59.44C311.27 59.3267 311.237 59.2067 311.217 59.08C311.204 58.9533 311.197 58.8233 311.197 58.69V56.84H312.377V58.67C312.377 58.81 312.367 58.9467 312.347 59.08C312.334 59.2067 312.304 59.3267 312.257 59.44C312.33 59.3467 312.417 59.2633 312.517 59.19C312.617 59.11 312.727 59.0333 312.847 58.96L314.427 58.04L315.017 59.04L313.427 59.95C313.307 60.0233 313.187 60.0867 313.067 60.14C312.954 60.1867 312.834 60.22 312.707 60.24C312.934 60.28 313.174 60.3733 313.427 60.52L315.017 61.45L314.437 62.45L312.847 61.52C312.727 61.4467 312.617 61.3733 312.517 61.3C312.417 61.2267 312.327 61.1433 312.247 61.05C312.334 61.2633 312.377 61.51 312.377 61.79V63.63H311.197ZM319.205 63.63V61.8C319.205 61.6667 319.211 61.5367 319.225 61.41C319.245 61.2833 319.275 61.1633 319.315 61.05C319.241 61.1433 319.155 61.2267 319.055 61.3C318.955 61.3733 318.848 61.4467 318.735 61.52L317.155 62.44L316.565 61.44L318.155 60.52C318.275 60.4467 318.391 60.3867 318.505 60.34C318.625 60.2933 318.748 60.26 318.875 60.24C318.748 60.2267 318.625 60.1933 318.505 60.14C318.391 60.0867 318.275 60.0233 318.155 59.95L316.565 59.02L317.145 58.02L318.735 58.96C318.848 59.0333 318.955 59.11 319.055 59.19C319.161 59.2633 319.251 59.3467 319.325 59.44C319.278 59.3267 319.245 59.2067 319.225 59.08C319.211 58.9533 319.205 58.8233 319.205 58.69V56.84H320.385V58.67C320.385 58.81 320.375 58.9467 320.355 59.08C320.341 59.2067 320.311 59.3267 320.265 59.44C320.338 59.3467 320.425 59.2633 320.525 59.19C320.625 59.11 320.735 59.0333 320.855 58.96L322.435 58.04L323.025 59.04L321.435 59.95C321.315 60.0233 321.195 60.0867 321.075 60.14C320.961 60.1867 320.841 60.22 320.715 60.24C320.941 60.28 321.181 60.3733 321.435 60.52L323.025 61.45L322.445 62.45L320.855 61.52C320.735 61.4467 320.625 61.3733 320.525 61.3C320.425 61.2267 320.335 61.1433 320.255 61.05C320.341 61.2633 320.385 61.51 320.385 61.79V63.63H319.205ZM327.213 63.63V61.8C327.213 61.6667 327.219 61.5367 327.233 61.41C327.253 61.2833 327.283 61.1633 327.323 61.05C327.249 61.1433 327.163 61.2267 327.063 61.3C326.963 61.3733 326.856 61.4467 326.743 61.52L325.163 62.44L324.573 61.44L326.163 60.52C326.283 60.4467 326.399 60.3867 326.513 60.34C326.633 60.2933 326.756 60.26 326.883 60.24C326.756 60.2267 326.633 60.1933 326.513 60.14C326.399 60.0867 326.283 60.0233 326.163 59.95L324.573 59.02L325.153 58.02L326.743 58.96C326.856 59.0333 326.963 59.11 327.063 59.19C327.169 59.2633 327.259 59.3467 327.333 59.44C327.286 59.3267 327.253 59.2067 327.233 59.08C327.219 58.9533 327.213 58.8233 327.213 58.69V56.84H328.393V58.67C328.393 58.81 328.383 58.9467 328.363 59.08C328.349 59.2067 328.319 59.3267 328.273 59.44C328.346 59.3467 328.433 59.2633 328.533 59.19C328.633 59.11 328.743 59.0333 328.862 58.96L330.443 58.04L331.033 59.04L329.443 59.95C329.323 60.0233 329.203 60.0867 329.083 60.14C328.969 60.1867 328.849 60.22 328.723 60.24C328.949 60.28 329.189 60.3733 329.443 60.52L331.033 61.45L330.453 62.45L328.862 61.52C328.743 61.4467 328.633 61.3733 328.533 61.3C328.433 61.2267 328.343 61.1433 328.263 61.05C328.349 61.2633 328.393 61.51 328.393 61.79V63.63H327.213ZM335.22 63.63V61.8C335.22 61.6667 335.227 61.5367 335.24 61.41C335.26 61.2833 335.29 61.1633 335.33 61.05C335.257 61.1433 335.17 61.2267 335.07 61.3C334.97 61.3733 334.864 61.4467 334.75 61.52L333.17 62.44L332.58 61.44L334.17 60.52C334.29 60.4467 334.407 60.3867 334.52 60.34C334.64 60.2933 334.764 60.26 334.89 60.24C334.764 60.2267 334.64 60.1933 334.52 60.14C334.407 60.0867 334.29 60.0233 334.17 59.95L332.58 59.02L333.16 58.02L334.75 58.96C334.864 59.0333 334.97 59.11 335.07 59.19C335.177 59.2633 335.267 59.3467 335.34 59.44C335.294 59.3267 335.26 59.2067 335.24 59.08C335.227 58.9533 335.22 58.8233 335.22 58.69V56.84H336.4V58.67C336.4 58.81 336.39 58.9467 336.37 59.08C336.357 59.2067 336.327 59.3267 336.28 59.44C336.354 59.3467 336.44 59.2633 336.54 59.19C336.64 59.11 336.75 59.0333 336.87 58.96L338.45 58.04L339.04 59.04L337.45 59.95C337.33 60.0233 337.21 60.0867 337.09 60.14C336.977 60.1867 336.857 60.22 336.73 60.24C336.957 60.28 337.197 60.3733 337.45 60.52L339.04 61.45L338.46 62.45L336.87 61.52C336.75 61.4467 336.64 61.3733 336.54 61.3C336.44 61.2267 336.35 61.1433 336.27 61.05C336.357 61.2633 336.4 61.51 336.4 61.79V63.63H335.22Z" fill="white"/>
<path d="M352.7 57.97C353.247 57.97 353.777 58.06 354.29 58.24C354.81 58.42 355.267 58.6933 355.66 59.06C356.053 59.42 356.37 59.87 356.61 60.41C356.85 60.95 356.97 61.58 356.97 62.3C356.97 62.9733 356.847 63.6067 356.6 64.2C356.353 64.7867 356.007 65.3 355.56 65.74C355.113 66.18 354.573 66.5267 353.94 66.78C353.313 67.0333 352.62 67.16 351.86 67.16C351.087 67.16 350.393 67.0367 349.78 66.79C349.167 66.5433 348.643 66.2 348.21 65.76C347.777 65.3133 347.443 64.78 347.21 64.16C346.983 63.5333 346.87 62.84 346.87 62.08C346.87 61.4 347.007 60.7033 347.28 59.99C347.56 59.27 347.99 58.5233 348.57 57.75L352.02 53.12C352.14 52.96 352.313 52.8233 352.54 52.71C352.773 52.5967 353.04 52.54 353.34 52.54H355.54L351.25 57.79C351.157 57.9033 351.067 58.01 350.98 58.11C350.9 58.21 350.82 58.3133 350.74 58.42C351.02 58.28 351.32 58.17 351.64 58.09C351.967 58.01 352.32 57.97 352.7 57.97ZM349.24 62.46C349.24 62.86 349.293 63.2267 349.4 63.56C349.513 63.8867 349.677 64.1667 349.89 64.4C350.11 64.6333 350.38 64.8167 350.7 64.95C351.02 65.0767 351.39 65.14 351.81 65.14C352.203 65.14 352.563 65.0733 352.89 64.94C353.223 64.8067 353.507 64.62 353.74 64.38C353.98 64.14 354.167 63.86 354.3 63.54C354.433 63.2133 354.5 62.86 354.5 62.48C354.5 62.0667 354.437 61.6967 354.31 61.37C354.183 61.0367 354.003 60.7567 353.77 60.53C353.537 60.2967 353.257 60.12 352.93 60C352.603 59.88 352.243 59.82 351.85 59.82C351.457 59.82 351.1 59.8867 350.78 60.02C350.46 60.1533 350.183 60.34 349.95 60.58C349.723 60.8133 349.547 61.0933 349.42 61.42C349.3 61.74 349.24 62.0867 349.24 62.46ZM367.492 53.59C367.492 53.9433 367.378 54.23 367.152 54.45C366.932 54.67 366.562 54.78 366.042 54.78H362.062L361.542 57.8C362.195 57.6667 362.792 57.6 363.332 57.6C364.092 57.6 364.758 57.7133 365.332 57.94C365.912 58.1667 366.398 58.48 366.792 58.88C367.185 59.28 367.482 59.75 367.682 60.29C367.882 60.8233 367.982 61.4 367.982 62.02C367.982 62.7867 367.845 63.4867 367.572 64.12C367.305 64.7533 366.932 65.2967 366.452 65.75C365.972 66.1967 365.402 66.5433 364.742 66.79C364.088 67.0367 363.375 67.16 362.602 67.16C362.148 67.16 361.718 67.1133 361.312 67.02C360.905 66.9267 360.522 66.8033 360.162 66.65C359.808 66.49 359.478 66.31 359.172 66.11C358.872 65.9033 358.602 65.6867 358.362 65.46L359.122 64.41C359.282 64.1833 359.495 64.07 359.762 64.07C359.928 64.07 360.095 64.1233 360.262 64.23C360.435 64.3367 360.635 64.4533 360.862 64.58C361.088 64.7067 361.352 64.8233 361.652 64.93C361.952 65.0367 362.315 65.09 362.742 65.09C363.195 65.09 363.595 65.0167 363.942 64.87C364.288 64.7233 364.575 64.52 364.802 64.26C365.035 63.9933 365.208 63.68 365.322 63.32C365.442 62.9533 365.502 62.5567 365.502 62.13C365.502 61.3433 365.272 60.73 364.812 60.29C364.358 59.8433 363.688 59.62 362.802 59.62C362.102 59.62 361.398 59.7467 360.692 60L359.152 59.56L360.352 52.54H367.492V53.59ZM378.623 61.55H380.443V62.98C380.443 63.1133 380.4 63.23 380.313 63.33C380.226 63.4233 380.1 63.47 379.933 63.47H378.623V67H376.463V63.47H370.363C370.196 63.47 370.05 63.42 369.923 63.32C369.796 63.2133 369.716 63.0833 369.683 62.93L369.433 61.68L376.283 52.53H378.623V61.55ZM376.463 56.82C376.463 56.6067 376.47 56.3767 376.483 56.13C376.496 55.8833 376.52 55.6267 376.553 55.36L372.063 61.55H376.463V56.82ZM390.695 53.59C390.695 53.9433 390.581 54.23 390.355 54.45C390.135 54.67 389.765 54.78 389.245 54.78H385.265L384.745 57.8C385.398 57.6667 385.995 57.6 386.535 57.6C387.295 57.6 387.961 57.7133 388.535 57.94C389.115 58.1667 389.601 58.48 389.995 58.88C390.388 59.28 390.685 59.75 390.885 60.29C391.085 60.8233 391.185 61.4 391.185 62.02C391.185 62.7867 391.048 63.4867 390.775 64.12C390.508 64.7533 390.135 65.2967 389.655 65.75C389.175 66.1967 388.605 66.5433 387.945 66.79C387.291 67.0367 386.578 67.16 385.805 67.16C385.351 67.16 384.921 67.1133 384.515 67.02C384.108 66.9267 383.725 66.8033 383.365 66.65C383.011 66.49 382.681 66.31 382.375 66.11C382.075 65.9033 381.805 65.6867 381.565 65.46L382.325 64.41C382.485 64.1833 382.698 64.07 382.965 64.07C383.131 64.07 383.298 64.1233 383.465 64.23C383.638 64.3367 383.838 64.4533 384.065 64.58C384.291 64.7067 384.555 64.8233 384.855 64.93C385.155 65.0367 385.518 65.09 385.945 65.09C386.398 65.09 386.798 65.0167 387.145 64.87C387.491 64.7233 387.778 64.52 388.005 64.26C388.238 63.9933 388.411 63.68 388.525 63.32C388.645 62.9533 388.705 62.5567 388.705 62.13C388.705 61.3433 388.475 60.73 388.015 60.29C387.561 59.8433 386.891 59.62 386.005 59.62C385.305 59.62 384.601 59.7467 383.895 60L382.355 59.56L383.555 52.54H390.695V53.59Z" fill="white"/>
<path d="M58.4 212.59C58.5467 212.59 58.6733 212.647 58.78 212.76L59.84 213.91C59.2533 214.637 58.53 215.193 57.67 215.58C56.8167 215.967 55.79 216.16 54.59 216.16C53.5167 216.16 52.55 215.977 51.69 215.61C50.8367 215.243 50.1067 214.733 49.5 214.08C48.8933 213.427 48.4267 212.647 48.1 211.74C47.78 210.833 47.62 209.843 47.62 208.77C47.62 207.683 47.8 206.69 48.16 205.79C48.52 204.883 49.0267 204.103 49.68 203.45C50.3333 202.797 51.1133 202.29 52.02 201.93C52.9333 201.563 53.94 201.38 55.04 201.38C56.1133 201.38 57.05 201.553 57.85 201.9C58.6567 202.24 59.3467 202.693 59.92 203.26L59.02 204.51C58.9667 204.59 58.8967 204.66 58.81 204.72C58.73 204.78 58.6167 204.81 58.47 204.81C58.3167 204.81 58.16 204.75 58 204.63C57.84 204.51 57.6367 204.38 57.39 204.24C57.1433 204.1 56.83 203.97 56.45 203.85C56.0767 203.73 55.6 203.67 55.02 203.67C54.34 203.67 53.7133 203.79 53.14 204.03C52.5733 204.263 52.0833 204.6 51.67 205.04C51.2633 205.48 50.9433 206.017 50.71 206.65C50.4833 207.277 50.37 207.983 50.37 208.77C50.37 209.583 50.4833 210.307 50.71 210.94C50.9433 211.573 51.2567 212.107 51.65 212.54C52.0433 212.973 52.5067 213.307 53.04 213.54C53.5733 213.767 54.1467 213.88 54.76 213.88C55.1267 213.88 55.4567 213.86 55.75 213.82C56.05 213.78 56.3233 213.717 56.57 213.63C56.8233 213.543 57.06 213.433 57.28 213.3C57.5067 213.16 57.73 212.99 57.95 212.79C58.0167 212.73 58.0867 212.683 58.16 212.65C58.2333 212.61 58.3133 212.59 58.4 212.59ZM66.118 205.58C66.8846 205.58 67.578 205.703 68.198 205.95C68.8246 206.197 69.358 206.547 69.798 207C70.238 207.453 70.578 208.007 70.818 208.66C71.058 209.313 71.178 210.043 71.178 210.85C71.178 211.663 71.058 212.397 70.818 213.05C70.578 213.703 70.238 214.26 69.798 214.72C69.358 215.18 68.8246 215.533 68.198 215.78C67.578 216.027 66.8846 216.15 66.118 216.15C65.3513 216.15 64.6546 216.027 64.028 215.78C63.4013 215.533 62.8646 215.18 62.418 214.72C61.978 214.26 61.6346 213.703 61.388 213.05C61.148 212.397 61.028 211.663 61.028 210.85C61.028 210.043 61.148 209.313 61.388 208.66C61.6346 208.007 61.978 207.453 62.418 207C62.8646 206.547 63.4013 206.197 64.028 205.95C64.6546 205.703 65.3513 205.58 66.118 205.58ZM66.118 214.25C66.9713 214.25 67.6013 213.963 68.008 213.39C68.4213 212.817 68.628 211.977 68.628 210.87C68.628 209.763 68.4213 208.92 68.008 208.34C67.6013 207.76 66.9713 207.47 66.118 207.47C65.2513 207.47 64.6113 207.763 64.198 208.35C63.7846 208.93 63.578 209.77 63.578 210.87C63.578 211.97 63.7846 212.81 64.198 213.39C64.6113 213.963 65.2513 214.25 66.118 214.25ZM73.1052 216V205.74H74.6152C74.9352 205.74 75.1452 205.89 75.2452 206.19L75.4052 206.95C75.5852 206.75 75.7718 206.567 75.9652 206.4C76.1652 206.233 76.3752 206.09 76.5952 205.97C76.8218 205.85 77.0618 205.757 77.3152 205.69C77.5752 205.617 77.8585 205.58 78.1652 205.58C78.8118 205.58 79.3418 205.757 79.7552 206.11C80.1752 206.457 80.4885 206.92 80.6952 207.5C80.8552 207.16 81.0552 206.87 81.2952 206.63C81.5352 206.383 81.7985 206.183 82.0852 206.03C82.3718 205.877 82.6752 205.763 82.9952 205.69C83.3218 205.617 83.6485 205.58 83.9752 205.58C84.5418 205.58 85.0452 205.667 85.4852 205.84C85.9252 206.013 86.2952 206.267 86.5952 206.6C86.8952 206.933 87.1218 207.34 87.2752 207.82C87.4352 208.3 87.5152 208.85 87.5152 209.47V216H85.0452V209.47C85.0452 208.817 84.9018 208.327 84.6152 208C84.3285 207.667 83.9085 207.5 83.3552 207.5C83.1018 207.5 82.8652 207.543 82.6452 207.63C82.4318 207.717 82.2418 207.843 82.0752 208.01C81.9152 208.17 81.7885 208.373 81.6952 208.62C81.6018 208.867 81.5552 209.15 81.5552 209.47V216H79.0752V209.47C79.0752 208.783 78.9352 208.283 78.6552 207.97C78.3818 207.657 77.9752 207.5 77.4352 207.5C77.0818 207.5 76.7485 207.59 76.4352 207.77C76.1285 207.943 75.8418 208.183 75.5752 208.49V216H73.1052ZM92.5711 205.74V216H90.1011V205.74H92.5711ZM92.9411 202.75C92.9411 202.963 92.8978 203.163 92.8111 203.35C92.7244 203.537 92.6078 203.7 92.4611 203.84C92.3211 203.98 92.1544 204.093 91.9611 204.18C91.7678 204.26 91.5611 204.3 91.3411 204.3C91.1278 204.3 90.9244 204.26 90.7311 204.18C90.5444 204.093 90.3811 203.98 90.2411 203.84C90.1011 203.7 89.9878 203.537 89.9011 203.35C89.8211 203.163 89.7811 202.963 89.7811 202.75C89.7811 202.53 89.8211 202.323 89.9011 202.13C89.9878 201.937 90.1011 201.77 90.2411 201.63C90.3811 201.49 90.5444 201.38 90.7311 201.3C90.9244 201.213 91.1278 201.17 91.3411 201.17C91.5611 201.17 91.7678 201.213 91.9611 201.3C92.1544 201.38 92.3211 201.49 92.4611 201.63C92.6078 201.77 92.7244 201.937 92.8111 202.13C92.8978 202.323 92.9411 202.53 92.9411 202.75ZM95.3708 216V205.74H96.8808C97.2008 205.74 97.4108 205.89 97.5108 206.19L97.6808 207C97.8874 206.787 98.1041 206.593 98.3308 206.42C98.5641 206.247 98.8074 206.097 99.0608 205.97C99.3208 205.843 99.5974 205.747 99.8908 205.68C100.184 205.613 100.504 205.58 100.851 205.58C101.411 205.58 101.907 205.677 102.341 205.87C102.774 206.057 103.134 206.323 103.421 206.67C103.714 207.01 103.934 207.42 104.081 207.9C104.234 208.373 104.311 208.897 104.311 209.47V216H101.841V209.47C101.841 208.843 101.694 208.36 101.401 208.02C101.114 207.673 100.681 207.5 100.101 207.5C99.6741 207.5 99.2741 207.597 98.9008 207.79C98.5274 207.983 98.1741 208.247 97.8408 208.58V216H95.3708ZM110.288 205.56C110.728 205.56 111.141 205.607 111.528 205.7C111.915 205.787 112.268 205.917 112.588 206.09H115.538V207.01C115.538 207.163 115.498 207.283 115.418 207.37C115.338 207.457 115.201 207.517 115.008 207.55L114.088 207.72C114.155 207.893 114.205 208.077 114.238 208.27C114.278 208.463 114.298 208.667 114.298 208.88C114.298 209.387 114.195 209.847 113.988 210.26C113.788 210.667 113.508 211.013 113.148 211.3C112.795 211.587 112.371 211.81 111.878 211.97C111.391 212.123 110.861 212.2 110.288 212.2C109.901 212.2 109.525 212.163 109.158 212.09C108.838 212.283 108.678 212.5 108.678 212.74C108.678 212.947 108.771 213.1 108.958 213.2C109.151 213.293 109.401 213.36 109.708 213.4C110.021 213.44 110.375 213.467 110.768 213.48C111.161 213.487 111.565 213.507 111.978 213.54C112.391 213.573 112.795 213.633 113.188 213.72C113.581 213.8 113.931 213.93 114.238 214.11C114.551 214.29 114.801 214.537 114.988 214.85C115.181 215.157 115.278 215.553 115.278 216.04C115.278 216.493 115.165 216.933 114.938 217.36C114.718 217.787 114.395 218.167 113.968 218.5C113.548 218.833 113.031 219.1 112.418 219.3C111.805 219.507 111.105 219.61 110.318 219.61C109.538 219.61 108.861 219.533 108.288 219.38C107.715 219.233 107.238 219.033 106.858 218.78C106.485 218.533 106.205 218.247 106.018 217.92C105.831 217.593 105.738 217.253 105.738 216.9C105.738 216.42 105.885 216.017 106.178 215.69C106.471 215.363 106.878 215.103 107.398 214.91C107.145 214.77 106.941 214.583 106.788 214.35C106.635 214.117 106.558 213.813 106.558 213.44C106.558 213.287 106.585 213.13 106.638 212.97C106.691 212.803 106.771 212.64 106.878 212.48C106.991 212.32 107.131 212.17 107.298 212.03C107.465 211.883 107.661 211.753 107.888 211.64C107.368 211.36 106.958 210.987 106.658 210.52C106.365 210.053 106.218 209.507 106.218 208.88C106.218 208.373 106.318 207.917 106.518 207.51C106.725 207.097 107.008 206.747 107.368 206.46C107.735 206.167 108.165 205.943 108.658 205.79C109.158 205.637 109.701 205.56 110.288 205.56ZM112.998 216.46C112.998 216.26 112.938 216.097 112.818 215.97C112.698 215.843 112.535 215.747 112.328 215.68C112.121 215.607 111.878 215.553 111.598 215.52C111.325 215.487 111.031 215.463 110.718 215.45C110.411 215.43 110.091 215.413 109.758 215.4C109.431 215.38 109.115 215.35 108.808 215.31C108.528 215.463 108.301 215.647 108.128 215.86C107.961 216.067 107.878 216.307 107.878 216.58C107.878 216.76 107.921 216.927 108.008 217.08C108.101 217.24 108.245 217.377 108.438 217.49C108.638 217.603 108.895 217.69 109.208 217.75C109.521 217.817 109.905 217.85 110.358 217.85C110.818 217.85 111.215 217.813 111.548 217.74C111.881 217.673 112.155 217.577 112.368 217.45C112.588 217.33 112.748 217.183 112.848 217.01C112.948 216.843 112.998 216.66 112.998 216.46ZM110.288 210.62C110.595 210.62 110.861 210.58 111.088 210.5C111.315 210.413 111.501 210.297 111.648 210.15C111.801 210.003 111.915 209.827 111.988 209.62C112.068 209.413 112.108 209.187 112.108 208.94C112.108 208.433 111.955 208.033 111.648 207.74C111.348 207.44 110.895 207.29 110.288 207.29C109.681 207.29 109.225 207.44 108.918 207.74C108.618 208.033 108.468 208.433 108.468 208.94C108.468 209.18 108.505 209.403 108.578 209.61C108.658 209.817 108.771 209.997 108.918 210.15C109.071 210.297 109.261 210.413 109.488 210.5C109.721 210.58 109.988 210.62 110.288 210.62ZM128.847 204.17C128.773 204.317 128.687 204.42 128.587 204.48C128.493 204.54 128.38 204.57 128.247 204.57C128.113 204.57 127.963 204.52 127.797 204.42C127.63 204.313 127.433 204.197 127.207 204.07C126.98 203.943 126.713 203.83 126.407 203.73C126.107 203.623 125.75 203.57 125.337 203.57C124.963 203.57 124.637 203.617 124.357 203.71C124.083 203.797 123.85 203.92 123.657 204.08C123.47 204.24 123.33 204.433 123.237 204.66C123.143 204.88 123.097 205.123 123.097 205.39C123.097 205.73 123.19 206.013 123.377 206.24C123.57 206.467 123.823 206.66 124.137 206.82C124.45 206.98 124.807 207.123 125.207 207.25C125.607 207.377 126.013 207.513 126.427 207.66C126.847 207.8 127.257 207.967 127.657 208.16C128.057 208.347 128.413 208.587 128.727 208.88C129.04 209.167 129.29 209.52 129.477 209.94C129.67 210.36 129.767 210.87 129.767 211.47C129.767 212.123 129.653 212.737 129.427 213.31C129.207 213.877 128.88 214.373 128.447 214.8C128.02 215.22 127.497 215.553 126.877 215.8C126.257 216.04 125.547 216.16 124.747 216.16C124.287 216.16 123.833 216.113 123.387 216.02C122.94 215.933 122.51 215.807 122.097 215.64C121.69 215.473 121.307 215.273 120.947 215.04C120.593 214.807 120.277 214.547 119.997 214.26L120.777 212.97C120.85 212.877 120.937 212.8 121.037 212.74C121.143 212.673 121.26 212.64 121.387 212.64C121.553 212.64 121.733 212.71 121.927 212.85C122.12 212.983 122.347 213.133 122.607 213.3C122.873 213.467 123.183 213.62 123.537 213.76C123.897 213.893 124.327 213.96 124.827 213.96C125.593 213.96 126.187 213.78 126.607 213.42C127.027 213.053 127.237 212.53 127.237 211.85C127.237 211.47 127.14 211.16 126.947 210.92C126.76 210.68 126.51 210.48 126.197 210.32C125.883 210.153 125.527 210.013 125.127 209.9C124.727 209.787 124.32 209.663 123.907 209.53C123.493 209.397 123.087 209.237 122.687 209.05C122.287 208.863 121.93 208.62 121.617 208.32C121.303 208.02 121.05 207.647 120.857 207.2C120.67 206.747 120.577 206.19 120.577 205.53C120.577 205.003 120.68 204.49 120.887 203.99C121.1 203.49 121.407 203.047 121.807 202.66C122.213 202.273 122.71 201.963 123.297 201.73C123.883 201.497 124.553 201.38 125.307 201.38C126.16 201.38 126.947 201.513 127.667 201.78C128.387 202.047 129 202.42 129.507 202.9L128.847 204.17ZM136.059 205.58C136.826 205.58 137.519 205.703 138.139 205.95C138.766 206.197 139.299 206.547 139.739 207C140.179 207.453 140.519 208.007 140.759 208.66C140.999 209.313 141.119 210.043 141.119 210.85C141.119 211.663 140.999 212.397 140.759 213.05C140.519 213.703 140.179 214.26 139.739 214.72C139.299 215.18 138.766 215.533 138.139 215.78C137.519 216.027 136.826 216.15 136.059 216.15C135.293 216.15 134.596 216.027 133.969 215.78C133.343 215.533 132.806 215.18 132.359 214.72C131.919 214.26 131.576 213.703 131.329 213.05C131.089 212.397 130.969 211.663 130.969 210.85C130.969 210.043 131.089 209.313 131.329 208.66C131.576 208.007 131.919 207.453 132.359 207C132.806 206.547 133.343 206.197 133.969 205.95C134.596 205.703 135.293 205.58 136.059 205.58ZM136.059 214.25C136.913 214.25 137.543 213.963 137.949 213.39C138.363 212.817 138.569 211.977 138.569 210.87C138.569 209.763 138.363 208.92 137.949 208.34C137.543 207.76 136.913 207.47 136.059 207.47C135.193 207.47 134.553 207.763 134.139 208.35C133.726 208.93 133.519 209.77 133.519 210.87C133.519 211.97 133.726 212.81 134.139 213.39C134.553 213.963 135.193 214.25 136.059 214.25ZM147.427 205.58C148.193 205.58 148.887 205.703 149.507 205.95C150.133 206.197 150.667 206.547 151.107 207C151.547 207.453 151.887 208.007 152.127 208.66C152.367 209.313 152.487 210.043 152.487 210.85C152.487 211.663 152.367 212.397 152.127 213.05C151.887 213.703 151.547 214.26 151.107 214.72C150.667 215.18 150.133 215.533 149.507 215.78C148.887 216.027 148.193 216.15 147.427 216.15C146.66 216.15 145.963 216.027 145.337 215.78C144.71 215.533 144.173 215.18 143.727 214.72C143.287 214.26 142.943 213.703 142.697 213.05C142.457 212.397 142.337 211.663 142.337 210.85C142.337 210.043 142.457 209.313 142.697 208.66C142.943 208.007 143.287 207.453 143.727 207C144.173 206.547 144.71 206.197 145.337 205.95C145.963 205.703 146.66 205.58 147.427 205.58ZM147.427 214.25C148.28 214.25 148.91 213.963 149.317 213.39C149.73 212.817 149.937 211.977 149.937 210.87C149.937 209.763 149.73 208.92 149.317 208.34C148.91 207.76 148.28 207.47 147.427 207.47C146.56 207.47 145.92 207.763 145.507 208.35C145.093 208.93 144.887 209.77 144.887 210.87C144.887 211.97 145.093 212.81 145.507 213.39C145.92 213.963 146.56 214.25 147.427 214.25ZM154.414 216V205.74H155.924C156.244 205.74 156.454 205.89 156.554 206.19L156.724 207C156.93 206.787 157.147 206.593 157.374 206.42C157.607 206.247 157.85 206.097 158.104 205.97C158.364 205.843 158.64 205.747 158.934 205.68C159.227 205.613 159.547 205.58 159.894 205.58C160.454 205.58 160.95 205.677 161.384 205.87C161.817 206.057 162.177 206.323 162.464 206.67C162.757 207.01 162.977 207.42 163.124 207.9C163.277 208.373 163.354 208.897 163.354 209.47V216H160.884V209.47C160.884 208.843 160.737 208.36 160.444 208.02C160.157 207.673 159.724 207.5 159.144 207.5C158.717 207.5 158.317 207.597 157.944 207.79C157.57 207.983 157.217 208.247 156.884 208.58V216H154.414Z" fill="white"/>
<path d="M247.278 216H245.198C244.965 216 244.772 215.943 244.618 215.83C244.472 215.71 244.365 215.563 244.298 215.39L243.218 212.44H237.228L236.148 215.39C236.095 215.543 235.988 215.683 235.828 215.81C235.675 215.937 235.485 216 235.258 216H233.168L238.848 201.54H241.598L247.278 216ZM237.918 210.54H242.528L240.768 205.73C240.688 205.517 240.598 205.267 240.498 204.98C240.405 204.687 240.312 204.37 240.218 204.03C240.125 204.37 240.032 204.687 239.938 204.98C239.852 205.273 239.765 205.53 239.678 205.75L237.918 210.54ZM258.2 212.59C258.346 212.59 258.473 212.647 258.58 212.76L259.64 213.91C259.053 214.637 258.33 215.193 257.47 215.58C256.616 215.967 255.59 216.16 254.39 216.16C253.316 216.16 252.35 215.977 251.49 215.61C250.636 215.243 249.906 214.733 249.3 214.08C248.693 213.427 248.226 212.647 247.9 211.74C247.58 210.833 247.42 209.843 247.42 208.77C247.42 207.683 247.6 206.69 247.96 205.79C248.32 204.883 248.826 204.103 249.48 203.45C250.133 202.797 250.913 202.29 251.82 201.93C252.733 201.563 253.74 201.38 254.84 201.38C255.913 201.38 256.85 201.553 257.65 201.9C258.456 202.24 259.146 202.693 259.72 203.26L258.82 204.51C258.766 204.59 258.696 204.66 258.61 204.72C258.53 204.78 258.416 204.81 258.27 204.81C258.116 204.81 257.96 204.75 257.8 204.63C257.64 204.51 257.436 204.38 257.19 204.24C256.943 204.1 256.63 203.97 256.25 203.85C255.876 203.73 255.4 203.67 254.82 203.67C254.14 203.67 253.513 203.79 252.94 204.03C252.373 204.263 251.883 204.6 251.47 205.04C251.063 205.48 250.743 206.017 250.51 206.65C250.283 207.277 250.17 207.983 250.17 208.77C250.17 209.583 250.283 210.307 250.51 210.94C250.743 211.573 251.056 212.107 251.45 212.54C251.843 212.973 252.306 213.307 252.84 213.54C253.373 213.767 253.946 213.88 254.56 213.88C254.926 213.88 255.256 213.86 255.55 213.82C255.85 213.78 256.123 213.717 256.37 213.63C256.623 213.543 256.86 213.433 257.08 213.3C257.306 213.16 257.53 212.99 257.75 212.79C257.816 212.73 257.886 212.683 257.96 212.65C258.033 212.61 258.113 212.59 258.2 212.59ZM271.868 201.54V203.75H267.518V216H264.828V203.75H260.458V201.54H271.868ZM276.602 216H273.902V201.54H276.602V216ZM278.441 201.54H280.611C280.845 201.54 281.035 201.597 281.181 201.71C281.328 201.823 281.438 201.97 281.511 202.15L284.911 210.97C285.025 211.257 285.131 211.573 285.231 211.92C285.338 212.26 285.438 212.62 285.531 213C285.685 212.233 285.875 211.557 286.101 210.97L289.491 202.15C289.551 201.997 289.658 201.857 289.811 201.73C289.965 201.603 290.155 201.54 290.381 201.54H292.551L286.711 216H284.281L278.441 201.54ZM303.181 201.54V203.68H296.771V207.69H301.821V209.76H296.771V213.85H303.181V216H294.061V201.54H303.181Z" fill="white"/>
<path d="M55.3502 180.095V180.704H51.8712V190H51.1572V180.704H47.6572V180.095H55.3502ZM65.0717 185.044C65.0717 185.809 64.9574 186.505 64.7287 187.13C64.5 187.751 64.178 188.283 63.7627 188.726C63.3474 189.165 62.8504 189.505 62.2717 189.748C61.693 189.986 61.0514 190.105 60.3467 190.105C59.6514 190.105 59.0144 189.986 58.4357 189.748C57.857 189.505 57.36 189.165 56.9447 188.726C56.5294 188.283 56.205 187.751 55.9717 187.13C55.743 186.505 55.6287 185.809 55.6287 185.044C55.6287 184.283 55.743 183.593 55.9717 182.972C56.205 182.347 56.5294 181.815 56.9447 181.376C57.36 180.933 57.857 180.59 58.4357 180.347C59.0144 180.104 59.6514 179.983 60.3467 179.983C61.0514 179.983 61.693 180.104 62.2717 180.347C62.8504 180.585 63.3474 180.926 63.7627 181.369C64.178 181.812 64.5 182.347 64.7287 182.972C64.9574 183.593 65.0717 184.283 65.0717 185.044ZM64.3297 185.044C64.3297 184.353 64.234 183.733 64.0427 183.182C63.8514 182.631 63.5807 182.165 63.2307 181.782C62.8854 181.399 62.4677 181.108 61.9777 180.907C61.4877 180.702 60.944 180.599 60.3467 180.599C59.7587 180.599 59.2197 180.702 58.7297 180.907C58.2444 181.108 57.8244 181.399 57.4697 181.782C57.1197 182.165 56.8467 182.631 56.6507 183.182C56.4594 183.733 56.3637 184.353 56.3637 185.044C56.3637 185.739 56.4594 186.362 56.6507 186.913C56.8467 187.459 57.1197 187.923 57.4697 188.306C57.8244 188.689 58.2444 188.98 58.7297 189.181C59.2197 189.382 59.7587 189.482 60.3467 189.482C60.944 189.482 61.4877 189.382 61.9777 189.181C62.4677 188.98 62.8854 188.689 63.2307 188.306C63.5807 187.923 63.8514 187.459 64.0427 186.913C64.234 186.362 64.3297 185.739 64.3297 185.044ZM73.0416 180.095V180.704H69.5626V190H68.8486V180.704H65.3486V180.095H73.0416ZM81.4115 190H80.8585C80.7931 190 80.7395 189.984 80.6975 189.951C80.6555 189.914 80.6228 189.867 80.5995 189.811L79.4305 186.934H74.5655L73.4035 189.811C73.3848 189.862 73.3521 189.907 73.3055 189.944C73.2588 189.981 73.2028 190 73.1375 190H72.5915L76.6445 180.095H77.3585L81.4115 190ZM74.7825 186.402H79.2205L77.1975 181.397C77.1648 181.318 77.1321 181.229 77.0995 181.131C77.0668 181.028 77.0341 180.921 77.0015 180.809C76.9688 180.921 76.9361 181.028 76.9035 181.131C76.8708 181.229 76.8381 181.32 76.8055 181.404L74.7825 186.402ZM83.6939 189.391H88.3909V190H82.9799V180.095H83.6939V189.391ZM92.851 190V180.095H95.7C96.2646 180.095 96.7523 180.151 97.163 180.263C97.5783 180.375 97.9213 180.541 98.192 180.76C98.4626 180.975 98.6633 181.238 98.794 181.551C98.9293 181.864 98.997 182.218 98.997 182.615C98.997 182.876 98.9503 183.128 98.857 183.371C98.7683 183.614 98.6376 183.838 98.465 184.043C98.2923 184.248 98.08 184.428 97.828 184.582C97.5806 184.731 97.296 184.846 96.974 184.925C97.7533 185.042 98.353 185.301 98.773 185.702C99.193 186.103 99.403 186.633 99.403 187.291C99.403 187.711 99.3283 188.089 99.179 188.425C99.0296 188.761 98.8126 189.046 98.528 189.279C98.2433 189.512 97.8933 189.692 97.478 189.818C97.0626 189.939 96.5913 190 96.064 190H92.851ZM93.565 185.254V189.426H96.05C96.9226 189.426 97.5806 189.239 98.024 188.866C98.4673 188.488 98.689 187.958 98.689 187.277C98.689 186.964 98.6283 186.684 98.507 186.437C98.3903 186.185 98.22 185.973 97.996 185.8C97.772 185.623 97.4966 185.487 97.17 185.394C96.8433 185.301 96.4723 185.254 96.057 185.254H93.565ZM93.565 184.729H95.714C96.1713 184.729 96.561 184.671 96.883 184.554C97.2096 184.437 97.4756 184.283 97.681 184.092C97.891 183.901 98.045 183.684 98.143 183.441C98.241 183.198 98.29 182.949 98.29 182.692C98.29 182.025 98.0776 181.521 97.653 181.18C97.233 180.835 96.582 180.662 95.7 180.662H93.565V184.729ZM109.275 190H108.722C108.656 190 108.603 189.984 108.561 189.951C108.519 189.914 108.486 189.867 108.463 189.811L107.294 186.934H102.429L101.267 189.811C101.248 189.862 101.215 189.907 101.169 189.944C101.122 189.981 101.066 190 101.001 190H100.455L104.508 180.095H105.222L109.275 190ZM102.646 186.402H107.084L105.061 181.397C105.028 181.318 104.995 181.229 104.963 181.131C104.93 181.028 104.897 180.921 104.865 180.809C104.832 180.921 104.799 181.028 104.767 181.131C104.734 181.229 104.701 181.32 104.669 181.404L102.646 186.402ZM111.557 189.391H116.254V190H110.843V180.095H111.557V189.391ZM125.462 190H124.909C124.844 190 124.79 189.984 124.748 189.951C124.706 189.914 124.674 189.867 124.65 189.811L123.481 186.934H118.616L117.454 189.811C117.436 189.862 117.403 189.907 117.356 189.944C117.31 189.981 117.254 190 117.188 190H116.642L120.695 180.095H121.409L125.462 190ZM118.833 186.402H123.271L121.248 181.397C121.216 181.318 121.183 181.229 121.15 181.131C121.118 181.028 121.085 180.921 121.052 180.809C121.02 180.921 120.987 181.028 120.954 181.131C120.922 181.229 120.889 181.32 120.856 181.404L118.833 186.402ZM127.381 180.095C127.446 180.095 127.497 180.104 127.535 180.123C127.572 180.137 127.612 180.172 127.654 180.228L134.066 188.81C134.052 188.67 134.045 188.535 134.045 188.404V180.095H134.675V190H134.332C134.224 190 134.138 189.953 134.073 189.86L127.633 181.264C127.647 181.404 127.654 181.537 127.654 181.663V190H127.031V180.095H127.381ZM144.809 188.334C144.855 188.334 144.895 188.35 144.928 188.383L145.208 188.684C145.002 188.903 144.778 189.102 144.536 189.279C144.293 189.452 144.027 189.601 143.738 189.727C143.453 189.848 143.138 189.942 142.793 190.007C142.452 190.077 142.076 190.112 141.666 190.112C140.98 190.112 140.35 189.993 139.776 189.755C139.206 189.512 138.716 189.172 138.306 188.733C137.9 188.29 137.582 187.755 137.354 187.13C137.125 186.505 137.011 185.809 137.011 185.044C137.011 184.293 137.127 183.607 137.361 182.986C137.599 182.365 137.93 181.833 138.355 181.39C138.784 180.942 139.295 180.597 139.888 180.354C140.485 180.107 141.143 179.983 141.862 179.983C142.221 179.983 142.55 180.011 142.849 180.067C143.147 180.118 143.425 180.195 143.682 180.298C143.943 180.396 144.188 180.52 144.417 180.669C144.645 180.818 144.869 180.991 145.089 181.187L144.872 181.502C144.834 181.558 144.776 181.586 144.697 181.586C144.655 181.586 144.601 181.563 144.536 181.516C144.47 181.465 144.386 181.404 144.284 181.334C144.186 181.259 144.064 181.18 143.92 181.096C143.78 181.007 143.612 180.928 143.416 180.858C143.22 180.783 142.993 180.723 142.737 180.676C142.48 180.625 142.188 180.599 141.862 180.599C141.26 180.599 140.707 180.704 140.203 180.914C139.699 181.119 139.265 181.416 138.901 181.803C138.537 182.186 138.252 182.652 138.047 183.203C137.846 183.749 137.746 184.363 137.746 185.044C137.746 185.744 137.846 186.369 138.047 186.92C138.247 187.471 138.525 187.937 138.88 188.32C139.234 188.698 139.652 188.99 140.133 189.195C140.618 189.396 141.143 189.496 141.708 189.496C142.062 189.496 142.377 189.473 142.653 189.426C142.933 189.379 143.189 189.309 143.423 189.216C143.656 189.123 143.873 189.008 144.074 188.873C144.274 188.738 144.473 188.579 144.669 188.397C144.692 188.378 144.713 188.364 144.732 188.355C144.755 188.341 144.781 188.334 144.809 188.334ZM153.392 180.095V180.69H148.177V184.694H152.517V185.275H148.177V189.405H153.392V190H147.456V180.095H153.392Z" fill="white"/>
<path d="M239.366 181.299C239.324 181.378 239.264 181.418 239.184 181.418C239.124 181.418 239.044 181.376 238.946 181.292C238.853 181.203 238.725 181.108 238.561 181.005C238.398 180.898 238.193 180.8 237.945 180.711C237.703 180.622 237.402 180.578 237.042 180.578C236.683 180.578 236.366 180.629 236.09 180.732C235.82 180.835 235.591 180.975 235.404 181.152C235.222 181.329 235.082 181.535 234.984 181.768C234.891 182.001 234.844 182.246 234.844 182.503C234.844 182.839 234.914 183.117 235.054 183.336C235.199 183.555 235.388 183.742 235.621 183.896C235.855 184.05 236.118 184.181 236.412 184.288C236.711 184.391 237.017 184.493 237.329 184.596C237.642 184.699 237.945 184.813 238.239 184.939C238.538 185.06 238.804 185.214 239.037 185.401C239.271 185.588 239.457 185.819 239.597 186.094C239.742 186.365 239.814 186.703 239.814 187.109C239.814 187.524 239.742 187.916 239.597 188.285C239.457 188.649 239.252 188.966 238.981 189.237C238.711 189.508 238.379 189.722 237.987 189.881C237.595 190.035 237.147 190.112 236.643 190.112C235.99 190.112 235.428 189.998 234.956 189.769C234.485 189.536 234.072 189.218 233.717 188.817L233.913 188.509C233.969 188.439 234.035 188.404 234.109 188.404C234.151 188.404 234.205 188.432 234.27 188.488C234.336 188.544 234.415 188.614 234.508 188.698C234.602 188.777 234.714 188.866 234.844 188.964C234.975 189.057 235.127 189.146 235.299 189.23C235.472 189.309 235.67 189.377 235.894 189.433C236.118 189.489 236.373 189.517 236.657 189.517C237.049 189.517 237.399 189.459 237.707 189.342C238.015 189.221 238.274 189.057 238.484 188.852C238.699 188.647 238.862 188.404 238.974 188.124C239.086 187.839 239.142 187.536 239.142 187.214C239.142 186.864 239.07 186.577 238.925 186.353C238.785 186.124 238.599 185.935 238.365 185.786C238.132 185.632 237.866 185.504 237.567 185.401C237.273 185.298 236.97 185.198 236.657 185.1C236.345 185.002 236.039 184.892 235.74 184.771C235.446 184.65 235.183 184.496 234.949 184.309C234.716 184.118 234.527 183.882 234.382 183.602C234.242 183.317 234.172 182.963 234.172 182.538C234.172 182.207 234.235 181.887 234.361 181.579C234.487 181.271 234.672 181 234.914 180.767C235.157 180.529 235.456 180.34 235.81 180.2C236.17 180.055 236.578 179.983 237.035 179.983C237.549 179.983 238.008 180.065 238.414 180.228C238.825 180.391 239.198 180.641 239.534 180.977L239.366 181.299ZM248.361 180.095V180.704H244.882V190H244.168V180.704H240.668V180.095H248.361ZM256.731 190H256.178C256.112 190 256.059 189.984 256.017 189.951C255.975 189.914 255.942 189.867 255.919 189.811L254.75 186.934H249.885L248.723 189.811C248.704 189.862 248.671 189.907 248.625 189.944C248.578 189.981 248.522 190 248.457 190H247.911L251.964 180.095H252.678L256.731 190ZM250.102 186.402H254.54L252.517 181.397C252.484 181.318 252.451 181.229 252.419 181.131C252.386 181.028 252.353 180.921 252.321 180.809C252.288 180.921 252.255 181.028 252.223 181.131C252.19 181.229 252.157 181.32 252.125 181.404L250.102 186.402ZM263.96 180.095V180.704H260.481V190H259.767V180.704H256.267V180.095H263.96ZM269.343 189.489C269.819 189.489 270.244 189.407 270.617 189.244C270.995 189.076 271.315 188.845 271.576 188.551C271.837 188.257 272.036 187.912 272.171 187.515C272.311 187.114 272.381 186.682 272.381 186.22V180.095H273.095V186.22C273.095 186.766 273.009 187.277 272.836 187.753C272.663 188.224 272.414 188.637 272.087 188.992C271.765 189.342 271.371 189.617 270.904 189.818C270.442 190.019 269.922 190.119 269.343 190.119C268.764 190.119 268.242 190.019 267.775 189.818C267.313 189.617 266.919 189.342 266.592 188.992C266.27 188.637 266.023 188.224 265.85 187.753C265.677 187.277 265.591 186.766 265.591 186.22V180.095H266.312V186.213C266.312 186.675 266.38 187.107 266.515 187.508C266.655 187.905 266.853 188.25 267.11 188.544C267.371 188.838 267.689 189.069 268.062 189.237C268.44 189.405 268.867 189.489 269.343 189.489ZM280.737 181.299C280.695 181.378 280.635 181.418 280.555 181.418C280.495 181.418 280.415 181.376 280.317 181.292C280.224 181.203 280.096 181.108 279.932 181.005C279.769 180.898 279.564 180.8 279.316 180.711C279.074 180.622 278.773 180.578 278.413 180.578C278.054 180.578 277.737 180.629 277.461 180.732C277.191 180.835 276.962 180.975 276.775 181.152C276.593 181.329 276.453 181.535 276.355 181.768C276.262 182.001 276.215 182.246 276.215 182.503C276.215 182.839 276.285 183.117 276.425 183.336C276.57 183.555 276.759 183.742 276.992 183.896C277.226 184.05 277.489 184.181 277.783 184.288C278.082 184.391 278.388 184.493 278.7 184.596C279.013 184.699 279.316 184.813 279.61 184.939C279.909 185.06 280.175 185.214 280.408 185.401C280.642 185.588 280.828 185.819 280.968 186.094C281.113 186.365 281.185 186.703 281.185 187.109C281.185 187.524 281.113 187.916 280.968 188.285C280.828 188.649 280.623 188.966 280.352 189.237C280.082 189.508 279.75 189.722 279.358 189.881C278.966 190.035 278.518 190.112 278.014 190.112C277.361 190.112 276.799 189.998 276.327 189.769C275.856 189.536 275.443 189.218 275.088 188.817L275.284 188.509C275.34 188.439 275.406 188.404 275.48 188.404C275.522 188.404 275.576 188.432 275.641 188.488C275.707 188.544 275.786 188.614 275.879 188.698C275.973 188.777 276.085 188.866 276.215 188.964C276.346 189.057 276.498 189.146 276.67 189.23C276.843 189.309 277.041 189.377 277.265 189.433C277.489 189.489 277.744 189.517 278.028 189.517C278.42 189.517 278.77 189.459 279.078 189.342C279.386 189.221 279.645 189.057 279.855 188.852C280.07 188.647 280.233 188.404 280.345 188.124C280.457 187.839 280.513 187.536 280.513 187.214C280.513 186.864 280.441 186.577 280.296 186.353C280.156 186.124 279.97 185.935 279.736 185.786C279.503 185.632 279.237 185.504 278.938 185.401C278.644 185.298 278.341 185.198 278.028 185.1C277.716 185.002 277.41 184.892 277.111 184.771C276.817 184.65 276.554 184.496 276.32 184.309C276.087 184.118 275.898 183.882 275.753 183.602C275.613 183.317 275.543 182.963 275.543 182.538C275.543 182.207 275.606 181.887 275.732 181.579C275.858 181.271 276.043 181 276.285 180.767C276.528 180.529 276.827 180.34 277.181 180.2C277.541 180.055 277.949 179.983 278.406 179.983C278.92 179.983 279.379 180.065 279.785 180.228C280.196 180.391 280.569 180.641 280.905 180.977L280.737 181.299Z" fill="white"/>
<rect x="322.665" y="190" width="3.512" height="26" rx="1.756" fill="white"/>
<rect x="313.884" y="204" width="3.512" height="12" rx="1.756" fill="white"/>
<rect x="331.444" y="195" width="3.512" height="21" rx="1.756" fill="white"/>
<path d="M65.1667 79.9583C77.409 79.9583 87.3333 69.9034 87.3333 57.5C87.3333 45.0966 77.409 35.0417 65.1667 35.0417C52.9244 35.0417 43 45.0966 43 57.5C43 69.9034 52.9244 79.9583 65.1667 79.9583Z" fill="#EA001B"/>
<path d="M96.8334 79.9583C109.076 79.9583 119 69.9034 119 57.5C119 45.0966 109.076 35.0417 96.8334 35.0417C84.5911 35.0417 74.6667 45.0966 74.6667 57.5C74.6667 69.9034 84.5911 79.9583 96.8334 79.9583Z" fill="#FFA200" fill-opacity="0.8"/>
</svg>
