<svg width="50" height="50" viewBox="0 0 50 50" fill="none" xmlns="http://www.w3.org/2000/svg">
<circle cx="25" cy="25" r="25" fill="#000000"/>
<g clip-path="url(#clip0)">
<path d="M35.306 22.8798L25.5556 13.128C24.9805 12.5543 24.0503 12.5611 23.4828 13.1272C22.912 13.6995 22.912 14.6286 23.4828 15.2L33.2346 24.9512C33.8059 25.5225 34.7346 25.5225 35.306 24.9512C35.8788 24.3783 35.8788 23.4526 35.306 22.8798Z" fill="#000000"/>
<path d="M22.7588 16.5483L22.6855 16.9162C22.1685 19.5021 20.9122 21.9587 19.2129 23.9497L24.5179 29.2548C26.5088 27.5558 28.9315 26.2657 31.5175 25.7482L31.886 25.6748L22.7588 16.5483Z" fill="#000000"/>
<path d="M18.2402 25.0483L14.6146 28.6732C13.7579 29.5299 13.7543 30.9208 14.6146 31.781L16.6859 33.8524C17.5426 34.7091 18.9335 34.7126 19.7937 33.8524L23.419 30.2271L18.2402 25.0483ZM18.7581 30.7454C18.472 31.0315 18.0085 31.0315 17.7224 30.7454C17.4363 30.4593 17.4363 29.9958 17.7224 29.7097L18.7581 28.674C19.0442 28.3879 19.5077 28.3879 19.7938 28.674C20.0799 28.9601 20.0799 29.4236 19.7938 29.7097L18.7581 30.7454Z" fill="#000000"/>
<path d="M26.4772 34.2419L27.4735 33.2455C28.3338 32.3854 28.331 30.9945 27.4736 30.1385L26.7336 29.3979C26.3245 29.6727 25.9339 29.9712 25.5541 30.2898L26.4379 31.1749C26.7233 31.4588 26.7253 31.921 26.4379 32.2099L25.4251 33.2227L23.9367 31.7806L21.8652 33.8521L25.1883 37.0722C25.7554 37.6407 26.6865 37.644 27.259 37.0715C27.8305 36.5 27.8305 35.5709 27.259 34.9993L26.4772 34.2419Z" fill="#000000"/>
<path d="M29.4375 12.5C29.0327 12.5 28.7051 12.8276 28.7051 13.2324V14.6973C28.7051 15.1021 29.0327 15.4297 29.4375 15.4297C29.8423 15.4297 30.1699 15.1021 30.1699 14.6973V13.2324C30.1699 12.8276 29.8423 12.5 29.4375 12.5Z" fill="#000000"/>
<path d="M35.2969 18.3594H33.832C33.4272 18.3594 33.0996 18.687 33.0996 19.0918C33.0996 19.4966 33.4272 19.8242 33.832 19.8242H35.2969C35.7017 19.8242 36.0293 19.4966 36.0293 19.0918C36.0293 18.687 35.7017 18.3594 35.2969 18.3594Z" fill="#000000"/>
<path d="M34.3499 14.1794C34.0638 13.8933 33.6003 13.8933 33.3142 14.1794L31.8493 15.6443C31.5632 15.9303 31.5632 16.3939 31.8493 16.6799C32.1354 16.966 32.5989 16.9661 32.885 16.6799L34.3499 15.2151C34.6359 14.929 34.6359 14.4655 34.3499 14.1794Z" fill="#000000"/>
</g>
<defs>
<clipPath id="clip0">
<rect width="25" height="25" fill="white" transform="translate(12.5 12.5)"/>
</clipPath>
</defs>
</svg>
