<svg width="224" height="47" viewBox="0 0 224 47" fill="none" xmlns="http://www.w3.org/2000/svg">
<path d="M223.119 21.3041V17.4664H218.263V11.5001L218.1 11.5495L213.539 12.9191L213.449 12.9459V17.4666H206.25V14.9482C206.25 13.7755 206.517 12.8781 207.044 12.2797C207.567 11.6884 208.315 11.3878 209.268 11.3878C209.954 11.3878 210.664 11.5463 211.379 11.859L211.558 11.9375V7.8958L211.474 7.86541C210.807 7.63024 209.9 7.51182 208.777 7.51182C207.36 7.51182 206.073 7.81432 204.951 8.41384C203.828 9.0142 202.944 9.87126 202.326 10.9609C201.709 12.0494 201.396 13.3065 201.396 14.6976V17.4664H198.015V21.3041H201.396V37.4719H206.25V21.3041H213.449V31.5785C213.449 35.8099 215.483 37.9543 219.494 37.9543C220.153 37.9543 220.846 37.8785 221.555 37.7301C222.276 37.5777 222.767 37.4255 223.056 37.2629L223.12 37.2258V33.3525L222.922 33.4807C222.659 33.6529 222.331 33.7937 221.946 33.8984C221.56 34.005 221.237 34.0584 220.987 34.0584C220.048 34.0584 219.353 33.81 218.921 33.3196C218.485 32.8248 218.264 31.9595 218.264 30.7491V21.3041H223.119ZM187.175 34.0591C185.413 34.0591 184.024 33.4857 183.045 32.3564C182.06 31.2213 181.561 29.603 181.561 27.5469C181.561 25.4256 182.06 23.7653 183.045 22.6102C184.025 21.4626 185.401 20.8802 187.135 20.8802C188.818 20.8802 190.158 21.4365 191.118 22.5344C192.082 23.638 192.572 25.285 192.572 27.431C192.572 29.6034 192.112 31.2722 191.204 32.3884C190.303 33.4963 188.947 34.0591 187.175 34.0591ZM187.391 16.9844C184.029 16.9844 181.36 17.951 179.456 19.8575C177.554 21.7641 176.589 24.4026 176.589 27.7004C176.589 30.8327 177.531 33.3521 179.388 35.1876C181.245 37.0237 183.772 37.9538 186.899 37.9538C190.157 37.9538 192.774 36.9737 194.677 35.0409C196.579 33.1102 197.543 30.4966 197.543 27.2759C197.543 24.0946 196.639 21.5564 194.854 19.7331C193.068 17.909 190.557 16.9844 187.391 16.9844ZM168.763 16.9844C166.477 16.9844 164.585 17.5584 163.14 18.6901C161.687 19.8285 160.949 21.3216 160.949 23.1284C160.949 24.0676 161.109 24.9019 161.422 25.6095C161.737 26.3194 162.225 26.9444 162.872 27.469C163.515 27.9894 164.508 28.5344 165.823 29.089C166.928 29.5355 167.753 29.9131 168.277 30.2108C168.789 30.5025 169.152 30.7957 169.357 31.0813C169.556 31.3608 169.658 31.7433 169.658 32.2153C169.658 33.5594 168.632 34.2134 166.522 34.2134C165.739 34.2134 164.846 34.053 163.868 33.7367C162.897 33.4253 161.98 32.9692 161.151 32.3844L160.949 32.2426V36.8291L161.023 36.8629C161.71 37.174 162.576 37.4364 163.596 37.6429C164.615 37.8496 165.541 37.9547 166.345 37.9547C168.826 37.9547 170.824 37.378 172.282 36.2395C173.749 35.0932 174.492 33.5649 174.492 31.6956C174.492 30.3471 174.092 29.1907 173.303 28.2581C172.52 27.3331 171.16 26.4838 169.263 25.7332C167.751 25.1379 166.783 24.6437 166.384 24.2643C165.999 23.8979 165.803 23.3796 165.803 22.7233C165.803 22.1415 166.045 21.6754 166.54 21.298C167.039 20.9186 167.734 20.7257 168.606 20.7257C169.415 20.7257 170.242 20.8511 171.065 21.0968C171.887 21.3425 172.61 21.6716 173.212 22.0742L173.411 22.2072V17.8565L173.335 17.8244C172.778 17.5903 172.045 17.3899 171.154 17.2274C170.267 17.0659 169.463 16.9844 168.763 16.9844ZM148.295 34.0591C146.534 34.0591 145.144 33.4857 144.166 32.3564C143.181 31.2213 142.682 29.6034 142.682 27.5469C142.682 25.4256 143.181 23.7653 144.167 22.6102C145.145 21.4626 146.521 20.8802 148.256 20.8802C149.939 20.8802 151.279 21.4365 152.239 22.5344C153.203 23.638 153.693 25.285 153.693 27.431C153.693 29.6034 153.232 31.2722 152.324 32.3884C151.423 33.4963 150.068 34.0591 148.295 34.0591ZM148.512 16.9844C145.15 16.9844 142.48 17.951 140.577 19.8575C138.675 21.7641 137.71 24.4026 137.71 27.7004C137.71 30.8339 138.652 33.3521 140.509 35.1876C142.366 37.0237 144.893 37.9538 148.02 37.9538C151.278 37.9538 153.895 36.9737 155.798 35.0409C157.7 33.1102 158.664 30.4966 158.664 27.2759C158.664 24.0946 157.759 21.5564 155.974 19.7331C154.188 17.909 151.677 16.9844 148.512 16.9844ZM130.341 20.9309V17.4664H125.546V37.4715H130.341V27.2381C130.341 25.498 130.743 24.0684 131.537 22.9887C132.32 21.9218 133.363 21.3812 134.638 21.3812C135.07 21.3812 135.554 21.451 136.079 21.5893C136.599 21.7267 136.975 21.876 137.197 22.033L137.399 22.1764V17.4322L137.321 17.3994C136.875 17.2132 136.243 17.1193 135.444 17.1193C134.239 17.1193 133.161 17.4993 132.237 18.2474C131.426 18.905 130.84 19.8066 130.392 20.9309H130.341ZM116.96 16.9844C114.76 16.9844 112.798 17.4474 111.129 18.3599C109.457 19.2746 108.163 20.5805 107.283 22.241C106.407 23.8975 105.962 25.8324 105.962 27.9902C105.962 29.8804 106.394 31.615 107.246 33.1438C108.099 34.6751 109.306 35.873 110.834 36.7039C112.36 37.5337 114.123 37.9545 116.076 37.9545C118.355 37.9545 120.3 37.5074 121.86 36.6256L121.923 36.5901V32.2789L121.722 32.4233C121.015 32.9284 120.225 33.3316 119.376 33.6221C118.528 33.9124 117.756 34.0591 117.078 34.0591C115.197 34.0591 113.686 33.4813 112.59 32.3422C111.491 31.2017 110.934 29.6001 110.934 27.5847C110.934 25.5567 111.515 23.9139 112.66 22.7018C113.802 21.4933 115.315 20.8802 117.157 20.8802C118.733 20.8802 120.269 21.404 121.722 22.4383L121.923 22.5817V18.0391L121.858 18.0032C121.311 17.7028 120.566 17.4547 119.64 17.2667C118.718 17.079 117.816 16.9844 116.96 16.9844ZM102.66 17.4666H97.8651V37.4715H102.66V17.4666ZM100.312 8.94433C99.5224 8.94433 98.8341 9.20799 98.2686 9.73046C97.7008 10.2544 97.4128 10.9141 97.4128 11.6926C97.4128 12.4589 97.6973 13.1065 98.2598 13.6166C98.8186 14.1251 99.5091 14.3828 100.312 14.3828C101.114 14.3828 101.807 14.1251 102.373 13.6174C102.942 13.1065 103.231 12.4591 103.231 11.6926C103.231 10.9413 102.95 10.2884 102.396 9.75157C101.843 9.2158 101.142 8.94433 100.312 8.94433ZM88.3481 15.9906V37.4715H93.2414V9.55672H86.4688L77.8603 30.291L69.5062 9.55672H62.4578V37.4713H67.0563V15.9885H67.2142L76.0358 37.4715H79.5062L88.1902 15.9906H88.3481Z" fill="#A3B9C2"/>
<path d="M23.3231 22.3659H0.766602V0.228516H23.3231V22.3659Z" fill="#A3B9C2"/>
<path d="M48.228 22.3659H25.6719V0.228516H48.228V22.3659Z" fill="#A3B9C2"/>
<path d="M23.3225 46.8168H0.766602V24.6796H23.3225V46.8168Z" fill="#A3B9C2"/>
<path d="M48.228 46.8168H25.6719V24.6796H48.228V46.8168Z" fill="#A3B9C2"/>
</svg>
