<svg width="50" height="50" viewBox="0 0 50 50" fill="none" xmlns="http://www.w3.org/2000/svg">
<rect width="50" height="50" rx="10" fill="#F0F2FF"/>
<path d="M29.1906 21.2034V13.342H30.868V12H28.5363C28.1657 12 27.8485 12.2816 27.8485 12.6522V21.369C27.8515 21.4752 27.8811 21.579 27.9344 21.6709L30.3353 26.2028H20.6646L23.0656 21.6709H23.0654C23.1188 21.579 23.1483 21.4752 23.1513 21.369V12.6522C23.1513 12.2816 22.8338 12 22.4635 12H20.1318V13.342H21.8093V21.2034L13.0793 37.7636C12.9683 37.9677 12.9742 38.2153 13.0947 38.4141C13.2153 38.6128 13.4322 38.7324 13.6645 38.7284H37.3355C37.5678 38.7324 37.7847 38.6128 37.9053 38.4141C38.0258 38.2154 38.0317 37.9677 37.9207 37.7636L29.1906 21.2034Z" fill="#4751D1"/>
</svg>
