<svg width="100" height="100" viewBox="0 0 100 100" fill="none" xmlns="http://www.w3.org/2000/svg">
<circle cx="50" cy="50" r="50" fill="#F0F3EE"/>
<path fill-rule="evenodd" clip-rule="evenodd" d="M79.8579 57.4336C80.3251 62.1056 79.6243 67.0112 77.9891 71.6834L71.2147 67.4786C72.3827 64.2083 72.6163 60.7042 72.1492 57.4337L79.8579 57.4336Z" fill="#000000"/>
<path fill-rule="evenodd" clip-rule="evenodd" d="M74.7185 42.25C77.2881 45.9876 78.6896 50.1924 79.3905 54.3974H71.6818C70.981 51.5942 69.813 48.791 68.1777 46.2214L74.7185 42.25Z" fill="#000000"/>
<path fill-rule="evenodd" clip-rule="evenodd" d="M64.4401 31.9727C67.7105 33.8415 70.7473 36.6447 73.3172 39.9151L66.5428 43.8862C64.9076 42.0174 62.8052 40.3822 60.7029 38.9806L64.4401 31.9727Z" fill="#000000"/>
<path fill-rule="evenodd" clip-rule="evenodd" d="M51.3591 28C55.0967 28.2336 58.6007 29.168 62.1046 30.5696L58.1334 37.8112C56.031 36.8768 53.695 36.4096 51.359 36.176L51.3591 28Z" fill="#000000"/>
<path fill-rule="evenodd" clip-rule="evenodd" d="M38.0438 30.5696C41.3142 29.168 45.0518 28.2336 48.5561 28V36.176C46.2201 36.4096 44.1177 36.8768 41.7817 37.8112L38.0438 30.5696Z" fill="#000000"/>
<path fill-rule="evenodd" clip-rule="evenodd" d="M26.8308 39.9151C29.1668 36.6447 32.2036 33.8415 35.4738 31.9727L39.445 38.9806C37.109 40.3822 35.2402 42.0174 33.3714 43.8862L26.8308 39.9151Z" fill="#000000"/>
<path fill-rule="evenodd" clip-rule="evenodd" d="M20.5237 54.3974C21.2245 50.1926 22.8597 45.9878 25.1957 42.25L31.7365 46.2212C30.1012 48.7907 28.9333 51.594 28.2324 54.3971L20.5237 54.3974Z" fill="#000000"/>
<path fill-rule="evenodd" clip-rule="evenodd" d="M21.9252 71.6834C20.29 67.0114 19.8228 62.1058 20.0564 57.4336H27.7651C27.5315 60.704 27.7651 64.208 28.6996 67.4785L21.9252 71.6834Z" fill="#000000"/>
<path fill-rule="evenodd" clip-rule="evenodd" d="M49.9571 42.0156C50.6579 46.454 54.3955 60.9368 54.3955 63.2734C54.3955 65.6099 52.2932 67.7117 49.9571 67.7117C47.6211 67.7117 45.7523 65.6094 45.7523 63.2734C45.7523 60.9373 49.2563 46.4538 49.9571 42.0156ZM49.9571 60.9368C53.4612 60.9368 53.4612 66.076 49.9571 66.076C46.6868 66.076 46.6868 60.9368 49.9571 60.9368Z" fill="#000000"/>
</svg>
