<svg id="Layer_1" height="512" viewBox="0 0 512 512" width="512" xmlns="http://www.w3.org/2000/svg" data-name="Layer 1"><path d="m483.8 121.572h-455.6a18.021 18.021 0 0 0 -18 18v232.856a18.021 18.021 0 0 0 18 18h455.6a18.021 18.021 0 0 0 18-18v-232.856a18.021 18.021 0 0 0 -18-18zm6 250.856a6.007 6.007 0 0 1 -6 6h-455.6a6.007 6.007 0 0 1 -6-6v-232.856a6.007 6.007 0 0 1 6-6h455.6a6.007 6.007 0 0 1 6 6z"/><path d="m77 204a6 6 0 0 0 -12 0v2a6 6 0 0 0 12 0z"/><path d="m71 221a6 6 0 0 0 -6 6v70a6 6 0 0 0 12 0v-70a6 6 0 0 0 -6-6z"/><path d="m463.681 184.885c-11.628-.345-20.764-7.773-23.275-18.924a15.9 15.9 0 0 0 -15.6-12.461h-270.139a6 6 0 0 0 0 12h70.816a95.512 95.512 0 0 0 6.726 183h-146.109a3.949 3.949 0 0 1 -3.855-2.946 40.012 40.012 0 0 0 -30.745-29.783v-119.484c14.95-2.625 27.179-13.461 30.725-27.865a3.958 3.958 0 0 1 3.846-2.921h18.6a6 6 0 1 0 0-12h-18.6a15.881 15.881 0 0 0 -15.5 12.055c-2.716 11.032-13.117 18.986-25.287 19.332a5.984 5.984 0 0 0 -5.785 6v130.229a6 6 0 0 0 5.824 6c11.794.353 22.41 9.273 25.246 21.212a15.857 15.857 0 0 0 15.531 12.171h338.68a16.06 16.06 0 0 0 15.62-12.575c2.621-12.1 11.956-20.455 23.237-20.81a6.017 6.017 0 0 0 5.86-6v-130.232a6 6 0 0 0 -5.816-5.998zm-291.181 71.115a83.5 83.5 0 1 1 83.5 83.5 83.595 83.595 0 0 1 -83.5-83.5zm285 59.791c-14.063 2.852-25.518 14.329-28.825 29.594a3.994 3.994 0 0 1 -3.894 3.115h-144.99a95.512 95.512 0 0 0 6.726-183h138.292a3.959 3.959 0 0 1 3.88 3.056 35.837 35.837 0 0 0 28.811 27.712z"/><path d="m256 217.5a16.018 16.018 0 0 1 16 16 6 6 0 0 0 12 0 28.044 28.044 0 0 0 -22-27.346v-6.742a6 6 0 0 0 -12 0v6.742a28 28 0 0 0 6 55.346 16 16 0 0 1 .154 31.992c-.051 0-.1-.008-.154-.008s-.1.006-.154.008a16.014 16.014 0 0 1 -15.846-15.992 6 6 0 0 0 -12 0 28.043 28.043 0 0 0 22 27.345v7.743a6 6 0 0 0 12 0v-7.743a28 28 0 0 0 -6-55.345 16 16 0 0 1 0-32z"/></svg>