<svg width="64" height="64" viewBox="0 0 64 64" fill="none" xmlns="http://www.w3.org/2000/svg">
<g clip-path="url(#clip0)">
<path d="M33.4545 62.5453H1.4545C0.581875 62.5453 0 61.9634 0 61.0907V58.1816C0 57.3088 0.581875 56.7271 1.4545 56.7271H33.4545C34.3272 56.7271 34.909 57.3089 34.909 58.1816V61.0907C34.9091 61.9634 34.3272 62.5453 33.4545 62.5453Z" fill="#F6B545"/>
<path d="M27.6364 58.182H0C0 57.3093 0.581875 56.7275 1.4545 56.7275H27.6364V58.182Z" fill="#FFCB5B"/>
<path d="M27.6364 58.1818V59.6363C27.6364 60.509 27.0545 61.0908 26.1819 61.0908H0C0 61.9635 0.581875 62.5453 1.4545 62.5453H26.1817H33.4545C34.3272 62.5453 34.909 61.9634 34.909 61.0908V58.1816H27.6364V58.1818Z" fill="#F19920"/>
<path d="M4.36368 61.0908V58.9089C4.36368 58.4725 4.0728 58.1816 3.63643 58.1816C3.20005 58.1816 2.90918 58.4725 2.90918 58.9089V61.0908" fill="#F19920"/>
<path d="M8.72696 61.0908V58.9089C8.72696 58.4725 8.43609 58.1816 7.99971 58.1816C7.56334 58.1816 7.27246 58.4725 7.27246 58.9089V61.0908" fill="#F19920"/>
<path d="M13.0902 61.0908V58.9089C13.0902 58.4725 12.7994 58.1816 12.363 58.1816C11.9266 58.1816 11.6357 58.4725 11.6357 58.9089V61.0908" fill="#F19920"/>
<path d="M17.4545 61.0908V58.9089C17.4545 58.4725 17.1636 58.1816 16.7272 58.1816C16.2909 58.1816 16 58.4725 16 58.9089V61.0908" fill="#F19920"/>
<path d="M21.8188 61.0908V58.9089C21.8188 58.4725 21.5279 58.1816 21.0915 58.1816C20.6551 58.1816 20.3643 58.4725 20.3643 58.9089V61.0908" fill="#F19920"/>
<path d="M26.182 61.0908V58.9089C26.182 58.4725 25.8912 58.1816 25.4548 58.1816C25.0184 58.1816 24.7275 58.4725 24.7275 58.9089V61.0908" fill="#F19920"/>
<path d="M36.3637 56.7273H4.36368C3.49093 56.7273 2.90918 56.1454 2.90918 55.2728V52.3637C2.90918 51.4909 3.49105 50.9092 4.36368 50.9092H36.3637C37.2364 50.9092 37.8182 51.4911 37.8182 52.3637V55.2728C37.8182 56.1456 37.2364 56.7273 36.3637 56.7273Z" fill="#F6B545"/>
<path d="M30.5456 52.3637H2.90918C2.90918 51.4909 3.49105 50.9092 4.36368 50.9092H30.5456V52.3637Z" fill="#FFCB5B"/>
<path d="M30.5456 52.3634V53.8179C30.5456 54.6907 29.9637 55.2724 29.0911 55.2724H2.90918C2.90918 56.1452 3.49105 56.7269 4.36368 56.7269H29.0909H36.3637C37.2364 56.7269 37.8182 56.145 37.8182 55.2724V52.3633H30.5456V52.3634Z" fill="#F19920"/>
<path d="M7.27286 55.2724V53.0905C7.27286 52.6542 6.98198 52.3633 6.54561 52.3633C6.10923 52.3633 5.81836 52.6542 5.81836 53.0905V55.2724" fill="#F19920"/>
<path d="M11.6361 55.2724V53.0905C11.6361 52.6542 11.3453 52.3633 10.9089 52.3633C10.4725 52.3633 10.1816 52.6542 10.1816 53.0905V55.2724" fill="#F19920"/>
<path d="M15.9994 55.2724V53.0905C15.9994 52.6542 15.7085 52.3633 15.2722 52.3633C14.8358 52.3633 14.5449 52.6542 14.5449 53.0905V55.2724" fill="#F19920"/>
<path d="M20.3637 55.2724V53.0905C20.3637 52.6542 20.0728 52.3633 19.6364 52.3633C19.2001 52.3633 18.9092 52.6542 18.9092 53.0905V55.2724" fill="#F19920"/>
<path d="M24.7279 55.2724V53.0905C24.7279 52.6542 24.4371 52.3633 24.0007 52.3633C23.5643 52.3633 23.2734 52.6542 23.2734 53.0905V55.2724" fill="#F19920"/>
<path d="M29.0912 55.2724V53.0905C29.0912 52.6542 28.8003 52.3633 28.364 52.3633C27.9276 52.3633 27.6367 52.6542 27.6367 53.0905V55.2724" fill="#F19920"/>
<path d="M39.2729 45.0911H7.27286C6.40011 45.0911 5.81836 44.5092 5.81836 43.6366V40.7274C5.81836 39.8547 6.40023 39.2729 7.27286 39.2729H39.2729C40.1456 39.2729 40.7274 39.8548 40.7274 40.7274V43.6366C40.7274 44.5093 40.1456 45.0911 39.2729 45.0911Z" fill="#F6B545"/>
<path d="M33.4537 40.7274H5.81738C5.81738 39.8547 6.39926 39.2729 7.27188 39.2729H33.4537V40.7274Z" fill="#FFCB5B"/>
<path d="M33.4538 40.7272V42.1817C33.4538 43.0544 32.8719 43.6362 31.9993 43.6362H5.81738C5.81738 44.5089 6.39926 45.0907 7.27188 45.0907H31.9993H39.272C40.1448 45.0907 40.7265 44.5088 40.7265 43.6362V40.7271H33.4538V40.7272Z" fill="#F19920"/>
<path d="M10.1811 43.6362V41.4543C10.1811 41.0179 9.89019 40.7271 9.45381 40.7271C9.01744 40.7271 8.72656 41.0179 8.72656 41.4543V43.6362" fill="#F19920"/>
<path d="M14.5443 43.6362V41.4543C14.5443 41.0179 14.2535 40.7271 13.8171 40.7271C13.3807 40.7271 13.0898 41.0179 13.0898 41.4543V43.6362" fill="#F19920"/>
<path d="M18.9086 43.6362V41.4543C18.9086 41.0179 18.6177 40.7271 18.1814 40.7271C17.745 40.7271 17.4541 41.0179 17.4541 41.4543V43.6362" fill="#F19920"/>
<path d="M23.2719 43.6362V41.4543C23.2719 41.0179 22.981 40.7271 22.5446 40.7271C22.1083 40.7271 21.8174 41.0179 21.8174 41.4543V43.6362" fill="#F19920"/>
<path d="M27.6352 43.6362V41.4543C27.6352 41.0179 27.3443 40.7271 26.9079 40.7271C26.4715 40.7271 26.1807 41.0179 26.1807 41.4543V43.6362" fill="#F19920"/>
<path d="M31.9994 43.6362V41.4543C31.9994 41.0179 31.7086 40.7271 31.2722 40.7271C30.8358 40.7271 30.5449 41.0179 30.5449 41.4543V43.6362" fill="#F19920"/>
<path d="M36.3637 39.2727H4.36368C3.49093 39.2727 2.90918 38.6908 2.90918 37.8182V34.9091C2.90918 34.0363 3.49105 33.4546 4.36368 33.4546H36.3637C37.2364 33.4546 37.8182 34.0365 37.8182 34.9091V37.8182C37.8182 38.6908 37.2364 39.2727 36.3637 39.2727Z" fill="#F6B545"/>
<path d="M30.5456 34.9091H2.90918C2.90918 34.0363 3.49105 33.4546 4.36368 33.4546H30.5456V34.9091Z" fill="#FFCB5B"/>
<path d="M30.5456 34.9088V36.3633C30.5456 37.2361 29.9637 37.8178 29.0911 37.8178H2.90918C2.90918 38.6906 3.49105 39.2723 4.36368 39.2723H29.0909H36.3637C37.2364 39.2723 37.8182 38.6904 37.8182 37.8178V34.9087H30.5456V34.9088Z" fill="#F19920"/>
<path d="M7.27286 37.8178V35.6359C7.27286 35.1996 6.98198 34.9087 6.54561 34.9087C6.10923 34.9087 5.81836 35.1996 5.81836 35.6359V37.8178" fill="#F19920"/>
<path d="M11.6361 37.8178V35.6359C11.6361 35.1996 11.3453 34.9087 10.9089 34.9087C10.4725 34.9087 10.1816 35.1996 10.1816 35.6359V37.8178" fill="#F19920"/>
<path d="M15.9994 37.8178V35.6359C15.9994 35.1996 15.7085 34.9087 15.2722 34.9087C14.8358 34.9087 14.5449 35.1996 14.5449 35.6359V37.8178" fill="#F19920"/>
<path d="M20.3637 37.8178V35.6359C20.3637 35.1996 20.0728 34.9087 19.6364 34.9087C19.2001 34.9087 18.9092 35.1996 18.9092 35.6359V37.8178" fill="#F19920"/>
<path d="M24.7279 37.8178V35.6359C24.7279 35.1996 24.4371 34.9087 24.0007 34.9087C23.5643 34.9087 23.2734 35.1996 23.2734 35.6359V37.8178" fill="#F19920"/>
<path d="M29.0912 37.8178V35.6359C29.0912 35.1996 28.8003 34.9087 28.364 34.9087C27.9276 34.9087 27.6367 35.1996 27.6367 35.6359V37.8178" fill="#F19920"/>
<path d="M33.4545 50.9091H1.4545C0.581875 50.9091 0 50.3272 0 49.4544V46.5453C0 45.6726 0.581875 45.0908 1.4545 45.0908H33.4545C34.3272 45.0908 34.909 45.6727 34.909 46.5453V49.4544C34.9091 50.3272 34.3272 50.9091 33.4545 50.9091Z" fill="#F6B545"/>
<path d="M27.6364 46.5458H0C0 45.6731 0.581875 45.0913 1.4545 45.0913H27.6364V46.5458Z" fill="#FFCB5B"/>
<path d="M27.6364 46.5455V48C27.6364 48.8728 27.0545 49.4545 26.1819 49.4545H0C0 50.3273 0.581875 50.909 1.4545 50.909H26.1817H33.4545C34.3272 50.909 34.909 50.3272 34.909 49.4545V46.5454H27.6364V46.5455Z" fill="#F19920"/>
<path d="M4.36368 49.4545V47.2727C4.36368 46.8363 4.0728 46.5454 3.63643 46.5454C3.20005 46.5454 2.90918 46.8363 2.90918 47.2727V49.4545" fill="#F19920"/>
<path d="M8.72696 49.4545V47.2727C8.72696 46.8363 8.43609 46.5454 7.99971 46.5454C7.56334 46.5454 7.27246 46.8363 7.27246 47.2727V49.4545" fill="#F19920"/>
<path d="M13.0902 49.4545V47.2727C13.0902 46.8363 12.7994 46.5454 12.363 46.5454C11.9266 46.5454 11.6357 46.8363 11.6357 47.2727V49.4545" fill="#F19920"/>
<path d="M17.4545 49.4545V47.2727C17.4545 46.8363 17.1636 46.5454 16.7272 46.5454C16.2909 46.5454 16 46.8363 16 47.2727V49.4545" fill="#F19920"/>
<path d="M21.8188 49.4545V47.2727C21.8188 46.8363 21.5279 46.5454 21.0915 46.5454C20.6551 46.5454 20.3643 46.8363 20.3643 47.2727V49.4545" fill="#F19920"/>
<path d="M26.182 49.4545V47.2727C26.182 46.8363 25.8912 46.5454 25.4548 46.5454C25.0184 46.5454 24.7275 46.8363 24.7275 47.2727V49.4545" fill="#F19920"/>
<path d="M61.0913 53.091C59.2004 51.7818 58.1822 49.6001 58.1822 47.2728C58.1822 38.4001 54.6913 29.9637 48.4367 23.7092L42.1822 17.4547V13.0911L47.273 6.69109C47.7095 6.10921 48.0004 5.38196 48.0004 4.65459C48.0004 2.90909 46.5459 1.45459 44.8004 1.45459H39.2732L37.8187 4.36371L34.9095 1.45459H27.9277C26.1822 1.45459 24.7277 2.90909 24.7277 4.65459C24.7277 5.38184 25.0185 6.10909 25.4549 6.69096L30.5458 13.091V17.4546L24.2913 23.7091C18.0368 29.9636 14.5458 38.4 14.5458 47.2727C14.5458 49.6 13.5277 51.7818 11.6367 53.0908C9.74566 54.3998 8.72754 56.5817 8.72754 58.909C8.72754 60.9453 10.3275 62.5453 12.3639 62.5453H60.3639C62.4003 62.5453 64.0003 60.9453 64.0003 58.909C64.0004 56.582 62.9823 54.4001 61.0913 53.091Z" fill="#000000"/>
<path d="M61.0902 53.091C59.1993 51.6365 58.1811 49.4546 58.1811 47.1273C58.3266 37.9637 54.1083 29.3818 47.7083 22.8365L42.1811 17.4546V13.091L47.2719 6.69096C48.1447 5.67284 48.2901 4.21821 47.5628 2.90909C46.9809 1.89096 45.8173 1.45459 44.6537 1.45459C43.6356 1.45459 43.0537 2.61821 43.3446 3.49096C43.4901 3.78184 43.6354 4.21821 43.6354 4.65459C43.6354 5.38184 43.3446 6.10909 42.9082 6.69096L37.8173 13.091V17.4546H30.5446L29.0901 18.9091H39.2719L44.6538 24.291C50.6174 30.2546 52.9447 38.4001 52.3629 46.691C52.2174 49.1637 53.2357 51.491 55.1266 52.9455C55.2721 53.091 55.4174 53.2363 55.5629 53.2363C57.7448 55.5636 55.8538 59.4908 52.5084 59.4908H8.87207C9.16295 61.0908 10.6176 62.4 12.3629 62.4H54.5448H58.1812H60.3631C62.3993 62.4001 63.9993 60.8001 63.9993 58.7637V58.4728C63.9993 56.291 62.8357 54.4001 61.0902 53.091Z" fill="#E4AD50"/>
<path d="M42.9096 17.4546H29.8186C28.655 17.4546 27.6367 16.4364 27.6367 15.2727C27.6367 14.1091 28.6548 13.0908 29.8186 13.0908H42.9095C44.0731 13.0908 45.0913 14.1089 45.0913 15.2727C45.0913 16.4364 44.0732 17.4546 42.9096 17.4546Z" fill="#FFCB5B"/>
<path d="M29.8181 13.0908H37.0908C37.5272 13.0908 37.8181 13.3817 37.8181 13.8181C37.8181 14.2544 37.5272 14.5453 37.0908 14.5453H29.8181C29.3817 14.5453 29.0908 14.2544 29.0908 13.8181C29.0908 13.3818 29.3818 13.0908 29.8181 13.0908Z" fill="#FFE278"/>
<path d="M42.9085 13.0908H42.1812V14.5453C42.1812 15.4181 41.5994 15.9998 40.7268 15.9998H27.7812C28.0721 16.8726 28.9449 17.4543 29.8176 17.4543H42.9085C44.0721 17.4543 45.0904 16.4362 45.0904 15.2724C45.0904 14.1087 44.0721 13.0908 42.9085 13.0908Z" fill="#F6B545"/>
<path d="M38.5456 16H42.9092C43.3456 16 43.6365 16.2909 43.6365 16.7272C43.6365 17.1636 43.3456 17.4545 42.9092 17.4545H38.5456C38.1092 17.4545 37.8184 17.1636 37.8184 16.7272C37.8182 16.2909 38.1092 16 38.5456 16Z" fill="#F19920"/>
<path d="M37.8183 17.4546H34.9092V29.091H37.8183V17.4546Z" fill="#F6B545"/>
<path d="M34.9092 17.4546V18.9092H36.3637V29.091H37.8182V18.9092V17.4546H34.9092Z" fill="#F19920"/>
<path d="M36.3639 50.909C42.7905 50.909 48.0003 45.6992 48.0003 39.2726C48.0003 32.846 42.7905 27.6362 36.3639 27.6362C29.9373 27.6362 24.7275 32.846 24.7275 39.2726C24.7275 45.6992 29.9373 50.909 36.3639 50.909Z" fill="#F6B545"/>
<path d="M45.2362 31.8545C46.9817 33.8909 47.9998 36.3636 47.9998 39.2727C47.9998 45.6727 42.7634 50.9091 36.3634 50.9091C33.4543 50.9091 30.9816 49.891 28.9453 48.1455C31.1272 50.7636 34.3272 52.3636 37.8181 52.3636C44.2181 52.3636 49.4544 47.1272 49.4544 40.7272C49.4543 37.0909 47.8543 33.8909 45.2362 31.8545Z" fill="#E4AD50"/>
<path d="M36.3635 49.4546C41.9868 49.4546 46.5454 44.896 46.5454 39.2727C46.5454 33.6494 41.9868 29.0908 36.3635 29.0908C30.7402 29.0908 26.1816 33.6494 26.1816 39.2727C26.1816 44.896 30.7402 49.4546 36.3635 49.4546Z" fill="#FFCB5B"/>
<path d="M46.5461 39.2729C46.5461 44.9457 42.037 49.4548 36.3643 49.4548V50.9093C42.7643 50.9093 48.0006 45.673 48.0006 39.2729H46.5461Z" fill="#F19920"/>
<path d="M36.3639 29.0907V27.6362C29.9639 27.6362 24.7275 32.8726 24.7275 39.2726H26.182C26.1822 33.5999 30.6912 29.0907 36.3639 29.0907Z" fill="#FFE27A"/>
<path d="M37.8175 37.8184H34.9084C34.0357 37.8184 33.4539 37.2365 33.4539 36.3639C33.4539 35.4911 34.0358 34.9094 34.9084 34.9094H39.272C40.1448 34.9094 40.7265 34.3275 40.7265 33.4549C40.7265 32.5821 40.1447 32.0004 39.272 32.0004H37.8175C37.8175 31.1276 37.2357 30.5459 36.363 30.5459C35.4903 30.5459 34.9085 31.1278 34.9085 32.0004C32.4358 32.0004 30.5449 33.8913 30.5449 36.364C30.5449 38.8368 32.4358 40.7276 34.9085 40.7276H37.8177C38.6904 40.7276 39.2722 41.3095 39.2722 42.1821C39.2722 43.0548 38.6903 43.6366 37.8177 43.6366H33.454C32.5813 43.6366 31.9995 44.2185 31.9995 45.0911C31.9995 45.9639 32.5814 46.5456 33.454 46.5456H34.9085C34.9085 47.4184 35.4904 48.0001 36.363 48.0001C37.2358 48.0001 37.8175 47.4183 37.8175 46.5456C40.2903 46.5456 42.1812 44.6548 42.1812 42.182C42.1812 39.7093 40.2903 37.8184 37.8175 37.8184Z" fill="#E78825"/>
</g>
<defs>
<clipPath id="clip0">
<rect width="64" height="64" fill="white"/>
</clipPath>
</defs>
</svg>
