<svg width="60" height="60" viewBox="0 0 60 60" fill="none" xmlns="http://www.w3.org/2000/svg">
<circle cx="30" cy="30" r="30" fill="#FFF5F5"/>
<path d="M29.566 47.5333C29.7863 47.8271 30.1322 48 30.4993 48C30.8665 48 31.2123 47.8271 31.4327 47.5333L36.3327 41H24.666L29.566 47.5333Z" fill="#D1474E"/>
<path d="M32.8327 25.8333C32.8327 27.1219 31.7879 28.1667 30.4993 28.1667C29.2108 28.1667 28.166 27.1219 28.166 25.8333C28.166 24.5448 29.2108 23.5 30.4993 23.5C31.7879 23.5 32.8327 24.5448 32.8327 25.8333Z" fill="#D1474E"/>
<path d="M30.5001 20C28.5884 20.0648 26.729 20.6401 25.1144 21.6659C23.5001 22.6914 22.1894 24.1305 21.3184 25.8333C22.1894 27.5362 23.5002 28.9753 25.1144 30.0008C26.729 31.0266 28.5884 31.6019 30.5001 31.6667C32.4118 31.6018 34.2712 31.0266 35.8858 30.0008C37.5001 28.9753 38.8108 27.5362 39.6818 25.8333C38.8108 24.1305 37.5 22.6914 35.8858 21.6659C34.2712 20.6401 32.4118 20.0648 30.5001 20ZM30.5001 30.5C29.2624 30.5 28.0754 30.0083 27.2004 29.1331C26.3251 28.2581 25.8334 27.0711 25.8334 25.8333C25.8334 24.5956 26.3251 23.4086 27.2004 22.5336C28.0754 21.6583 29.2624 21.1667 30.5001 21.1667C31.7378 21.1667 32.9248 21.6583 33.7998 22.5336C34.6751 23.4086 35.1668 24.5956 35.1668 25.8333C35.1668 27.0711 34.6751 28.2581 33.7998 29.1331C32.9248 30.0083 31.7378 30.5 30.5001 30.5Z" fill="#D1474E"/>
<path d="M44.5 13H16.5C15.5716 13 14.6815 13.3687 14.025 14.025C13.3687 14.6815 13 15.5716 13 16.5V35.1667C13 36.0951 13.3687 36.9851 14.025 37.6417C14.6815 38.2979 15.5716 38.6667 16.5 38.6667H44.5C45.4284 38.6667 46.3185 38.2979 46.975 37.6417C47.6313 36.9852 48 36.0951 48 35.1667V16.5C48 15.5716 47.6313 14.6815 46.975 14.025C46.3185 13.3687 45.4284 13 44.5 13ZM42.0383 26.3587C41.0156 28.5793 39.394 30.4707 37.356 31.8204C35.3177 33.1704 32.9435 33.9251 30.5 34.0003C28.0565 33.9251 25.6823 33.1704 23.644 31.8204C21.606 30.4707 19.9843 28.5793 18.9617 26.3587C18.7953 26.0285 18.7953 25.6389 18.9617 25.3087C19.9844 23.0881 21.606 21.1967 23.644 19.8469C25.6823 18.4969 28.0565 17.7423 30.5 17.667C32.9435 17.7423 35.3177 18.4969 37.356 19.8469C39.394 21.1967 41.0157 23.0881 42.0383 25.3087C42.2047 25.6389 42.2047 26.0285 42.0383 26.3587Z" fill="#D1474E"/>
</svg>
