<svg width="100" height="100" viewBox="0 0 100 100" fill="none" xmlns="http://www.w3.org/2000/svg">
<rect width="100" height="100" rx="10" fill="#EAEBF1"/>
<g clip-path="url(#clip0_11359_97420)">
<path d="M50 33C30.6702 33 15 40.8352 15 50.4999C15 60.1648 30.6702 67.9999 50 67.9999C69.3298 67.9999 85 60.1647 85 50.4999C85 40.835 69.3298 33 50 33ZM50 65.2371C32.1959 65.2371 17.7629 58.6391 17.7629 50.4999C17.7629 42.3608 32.1961 35.7627 50 35.7627C67.8041 35.7627 82.2371 42.3608 82.2371 50.4999C82.2371 58.6391 67.8039 65.2371 50 65.2371ZM45.5861 47.4298V44.6665H55.46V47.4298H51.9053V56.3334H49.1414V47.4298H45.5861V47.4298ZM67.3785 44.6665V56.3335H64.6157L59.6047 49.3882V56.3335H56.8418V44.6665H59.6045L64.6156 51.6118V44.6665H67.3785V44.6665ZM32.5392 56.3335V44.6665H35.3021L38.3717 49.3882L41.4413 44.6665H44.203V56.3335H41.4413V49.7344L39.3457 52.9555H37.3977L35.3021 49.7344V56.3335H32.5392V56.3335Z" fill="black"/>
</g>
<defs>
<clipPath id="clip0_11359_97420">
<rect width="70" height="35" fill="white" transform="translate(15 33)"/>
</clipPath>
</defs>
</svg>
