<svg width="38" height="38" viewBox="0 0 38 38" fill="none" xmlns="http://www.w3.org/2000/svg">
<path d="M19.913 27.5677V36.4826C19.913 37.0655 19.4401 37.5384 18.8572 37.5384C18.2743 37.5384 17.8014 37.0655 17.8014 36.4826V27.5058C15.8121 26.9834 14.3368 25.1742 14.3368 23.0234C14.3368 20.8725 15.8114 19.0629 17.8014 18.5404V1.51869C17.8014 0.935791 18.2743 0.462891 18.8572 0.462891C19.4401 0.462891 19.913 0.935791 19.913 1.51869V18.4775C22.0236 18.9121 23.6166 20.7847 23.6166 23.0224C23.6166 25.2612 22.0236 27.1336 19.913 27.5677ZM18.9765 20.4958C17.5833 20.4958 16.4485 21.6301 16.4485 23.0238C16.4485 24.4179 17.5829 25.5512 18.9765 25.5512C20.3707 25.5512 21.5045 24.4179 21.5045 23.0238C21.5045 21.6297 20.3696 20.4958 18.9765 20.4958ZM34.4884 19.4616V36.482C34.4884 37.0649 34.0155 37.5378 33.4326 37.5378C32.8497 37.5378 32.3768 37.0649 32.3768 36.482V19.5232C30.2657 19.0886 28.6731 17.2161 28.6731 14.9783C28.6731 12.7405 30.2657 10.8686 32.3768 10.434V1.51912C32.3768 0.936217 32.8497 0.463316 33.4326 0.463316C34.0155 0.463316 34.4884 0.936217 34.4884 1.51912V10.4959C36.4777 11.0184 37.9529 12.8275 37.9529 14.9783C37.9529 17.1287 36.4778 18.9391 34.4884 19.4616ZM33.3128 12.451C31.9196 12.451 30.7848 13.5844 30.7848 14.9785C30.7848 16.3726 31.9191 17.5065 33.3128 17.5065C34.7069 17.5065 35.8407 16.3721 35.8407 14.9785C35.8407 13.5843 34.7064 12.451 33.3128 12.451ZM5.81527 19.4616V36.482C5.81527 37.0649 5.34237 37.5378 4.75947 37.5378C4.17657 37.5378 3.70367 37.0649 3.70367 36.482V19.5232C1.59255 19.0886 0 17.2161 0 14.9783C0 12.7405 1.59255 10.8686 3.70367 10.434V1.51912C3.70367 0.936217 4.17657 0.463316 4.75947 0.463316C5.34237 0.463316 5.81527 0.936217 5.81527 1.51912V10.4959C7.80457 11.0184 9.27983 12.8275 9.27983 14.9783C9.27983 17.1287 7.8052 18.9391 5.81527 19.4616ZM4.63964 12.451C3.24647 12.451 2.11165 13.5844 2.11165 14.9785C2.11165 16.3726 3.24602 17.5065 4.63964 17.5065C6.03381 17.5065 7.16762 16.3721 7.16762 14.9785C7.16762 13.5843 6.03276 12.451 4.63964 12.451Z" fill="#CCCCCC"/>
</svg>
