<svg width="145" height="39" viewBox="0 0 145 39" fill="none" xmlns="http://www.w3.org/2000/svg">
<g clip-path="url(#clip0_0_1)">
<path d="M21.0792 36.0177C18.992 36.3848 16.8678 36.4958 14.6696 36.7904L7.96849 17.0541V37.6371C5.88132 37.8592 3.97622 38.1522 2.00007 38.4468V0.741554H7.56586L15.1833 22.1358V0.741554H21.0792V36.0177ZM32.6149 14.548C34.8856 14.548 38.3642 14.4384 40.4514 14.4384V20.3299C37.8506 20.3299 34.8116 20.3299 32.6149 20.4394V29.2026C36.0565 28.982 39.4981 28.6874 42.9767 28.5779V34.2473L26.7545 35.5366V0.741554H42.9782V6.633H32.6149V14.5495V14.548ZM64.7662 6.63152H58.6897V33.7322C56.7121 33.7322 54.7345 33.7322 52.8308 33.8062V6.633H46.7514V0.741554H64.7692V6.633L64.7662 6.63152V6.63152ZM74.2887 14.1439H82.3088V20.0353H74.2887V33.4021H68.5394V0.740074H84.9081V6.63152H74.2887V14.1439V14.1439ZM94.4307 28.2463C97.7613 28.3203 101.132 28.5779 104.391 28.7615V34.5789C99.1542 34.2473 93.917 33.9172 88.5703 33.8062V0.741554H94.4307V28.2478V28.2463V28.2463ZM109.334 34.9845C111.202 35.0955 113.18 35.2065 115.083 35.4271V0.741554H109.335V34.986L109.334 34.9845ZM140.756 0.741554L133.322 18.6735L140.756 38.4468C138.557 38.1522 136.361 37.7481 134.164 37.3796L129.953 26.4804L125.669 36.4958C123.543 36.1273 121.493 36.0177 119.369 35.7217L126.914 18.4529L120.101 0.741554H126.4L130.246 10.6475L134.346 0.741554H140.756V0.741554Z" fill="#000000"/>
</g>
<defs>
<clipPath id="clip0_0_1">
<rect width="139.145" height="38.4868" fill="white" transform="translate(2)"/>
</clipPath>
</defs>
</svg>
