<svg width="285" height="240" viewBox="0 0 285 240" fill="none" xmlns="http://www.w3.org/2000/svg">
<path d="M41.6928 218.222C97.2831 247.259 187.387 247.259 242.977 218.222C298.567 189.186 298.567 142.128 242.977 113.091C187.387 84.0543 97.2831 84.0543 41.6928 113.091C-13.8976 142.064 -13.8976 189.186 41.6928 218.222Z" fill="#F5F5F5"/>
<path d="M176.881 206.06L45.7057 130.347C44.8142 129.838 44.8142 128.946 45.7057 128.437L122.564 84.0539C123.456 83.5445 124.984 83.5445 125.876 84.0539L257.051 159.83C257.942 160.339 257.942 161.231 257.051 161.74L180.192 206.123C179.301 206.569 177.836 206.569 176.881 206.06Z" fill="#E6E6E6"/>
<path d="M44.0497 185.493C63.1811 185.493 78.6901 178.109 78.6901 169C78.6901 159.892 63.1811 152.508 44.0497 152.508C24.9182 152.508 9.40918 159.892 9.40918 169C9.40918 178.109 24.9182 185.493 44.0497 185.493Z" fill="#EBEBEB"/>
<path d="M149.626 96.8533C151.217 96.917 153.892 94.8156 154.338 92.2049C154.72 89.5941 155.548 87.5564 159.241 86.1555C162.934 84.7546 165.035 84.1178 166.182 80.8703C167.392 77.6227 165.481 73.9931 165.035 71.255C164.526 68.5169 167.073 65.333 170.766 62.2765C174.46 59.22 176.625 56.0998 173.314 54.1895C170.002 52.2792 165.927 53.107 162.297 55.3993C158.668 57.6917 155.866 60.7482 151.472 60.3662C147.078 59.9841 144.595 61.8308 143.704 65.333C142.812 68.7716 144.086 73.229 140.774 74.3115V89.0847L149.626 96.8533Z" fill="#000000"/>
<path d="M142.939 90.2302H142.876C142.685 90.1665 142.621 90.0391 142.621 89.8481C145.996 75.266 161.215 59.1556 169.429 55.7807C169.62 55.717 169.748 55.7807 169.875 55.9717C169.939 56.1628 169.875 56.2901 169.684 56.4175C161.597 59.7287 146.569 75.648 143.258 90.0391C143.194 90.1028 143.067 90.2302 142.939 90.2302Z" fill="white"/>
<path d="M151.41 72.7831C151.282 72.7831 151.091 72.6557 151.091 72.5284C150.454 68.5804 148.544 65.5239 148.48 65.5239C148.417 65.3965 148.417 65.2055 148.608 65.0781C148.735 65.0144 148.926 65.0144 149.054 65.2055C149.117 65.3328 151.091 68.3893 151.728 72.4647C151.728 72.5921 151.664 72.7831 151.41 72.7831C151.41 72.7831 151.473 72.7831 151.41 72.7831Z" fill="white"/>
<path d="M148.798 77.2406C148.67 77.2406 148.543 77.1769 148.479 76.9859C148.416 76.7949 148.543 76.6675 148.734 76.6038C153.765 75.2666 160.069 76.5402 160.323 76.6038C160.514 76.6675 160.578 76.7949 160.578 76.9859C160.514 77.1769 160.387 77.2406 160.196 77.2406C160.132 77.2406 153.765 75.9671 148.862 77.2406H148.798Z" fill="white"/>
<path d="M205.025 11.2065L207.445 12.1616V6.81272C207.445 2.54633 210.82 1.5275 214.513 3.62885C218.206 5.7302 221.199 10.9517 221.199 15.2181V15.9823C222.027 15.6639 223.109 15.7912 224.319 16.4917C226.994 18.0199 229.159 21.7769 229.159 24.8334V25.2155L232.534 27.1895C234.253 28.2083 235.717 30.6281 235.717 32.6657C235.717 34.7034 234.316 35.5312 232.534 34.5124L204.961 18.593C203.242 17.5742 201.777 15.1545 201.777 13.1168C201.777 11.0791 203.306 10.1876 205.025 11.2065Z" fill="#EBEBEB"/>
<path d="M232.724 12.9894L237.182 15.5365C237.182 15.3455 237.118 15.1544 237.118 14.9634V13.6898C237.118 11.3975 238.71 10.506 240.684 11.6522C241.512 12.0979 242.212 12.862 242.785 13.6898C243.104 10.8244 245.332 9.74185 248.071 11.3338C251 13.0531 253.419 17.1921 253.419 20.6307V22.541C253.419 23.4325 253.228 24.1966 252.974 24.7697L256.667 26.8711C257.749 27.5078 258.641 29.0361 258.641 30.3096C258.641 31.5832 257.749 32.0926 256.667 31.4558L232.724 17.5742C231.642 16.9374 230.75 15.4091 230.75 14.1356C230.687 12.862 231.578 12.3526 232.724 12.9894Z" fill="#EBEBEB"/>
<path d="M142.367 14.8996L165.609 1.52734L170.767 4.52018L165.609 13.435L142.367 26.8709V14.8996Z" fill="#000000"/>
<path d="M165.61 1.52826L162.999 0L139.757 13.4359L142.368 14.9005L165.61 1.52826Z" fill="#121243"/>
<path d="M145.741 20.9485C145.487 21.0758 145.232 21.0758 145.105 21.0758C145.041 21.0758 145.041 21.0758 145.041 21.0122V20.9485L145.232 20.5027C145.232 20.4391 145.296 20.4391 145.296 20.4391H145.359C145.487 20.4391 145.678 20.4391 145.869 20.3754C146.06 20.3117 146.251 20.248 146.442 20.1207C146.697 19.9933 146.888 19.8023 147.079 19.6113C147.206 19.4202 147.27 19.2292 147.27 19.0382C147.27 18.9108 147.27 18.8471 147.206 18.7834C147.142 18.7198 147.079 18.7198 146.951 18.7198C146.824 18.7198 146.697 18.7198 146.442 18.7834H146.315C146.06 18.8471 145.869 18.8471 145.678 18.8471C145.487 18.8471 145.359 18.7834 145.232 18.7198C145.105 18.6561 145.041 18.4651 145.041 18.274C145.041 17.892 145.168 17.5736 145.487 17.1915C145.741 16.8095 146.124 16.5547 146.569 16.3C146.824 16.1727 147.079 16.0453 147.27 15.9816C147.461 15.918 147.652 15.918 147.779 15.918C147.843 15.918 147.843 15.918 147.843 15.9816V16.0453L147.652 16.4911C147.652 16.5547 147.588 16.5547 147.588 16.5547H147.524C147.27 16.5547 146.951 16.6184 146.569 16.8731C146.315 17.0005 146.124 17.1915 145.996 17.3189C145.869 17.5099 145.805 17.6373 145.805 17.892C145.805 18.0193 145.805 18.083 145.869 18.1467C145.932 18.2104 145.996 18.2104 146.124 18.2104C146.251 18.2104 146.378 18.1467 146.633 18.1467H146.76C147.079 18.083 147.27 18.083 147.461 18.083C147.652 18.083 147.779 18.1467 147.843 18.2104C147.906 18.274 147.97 18.4651 147.97 18.7198C147.97 19.0382 147.843 19.4202 147.588 19.7386C147.333 20.057 146.951 20.3754 146.506 20.6938C146.315 20.6938 145.996 20.8211 145.741 20.9485Z" fill="white"/>
<path d="M149.052 18.5933C148.67 18.4022 148.543 18.0202 148.543 17.3197C148.543 16.6193 148.734 16.0462 149.052 15.4731C149.434 14.9 149.88 14.4542 150.581 14.0722C151.217 13.6901 151.727 13.5627 152.109 13.7538C152.491 13.9448 152.618 14.3269 152.618 15.0273C152.618 15.7278 152.427 16.3009 152.109 16.874C151.727 17.4471 151.281 17.8928 150.581 18.2749C149.88 18.6569 149.434 18.7206 149.052 18.5933ZM151.536 16.7466C151.727 16.3646 151.854 15.9188 151.854 15.4094C151.854 14.9 151.727 14.5816 151.536 14.4542C151.345 14.3269 151.026 14.3906 150.581 14.5816C150.135 14.7726 149.817 15.1547 149.625 15.5367C149.434 15.9188 149.307 16.3646 149.307 16.874C149.307 17.3834 149.434 17.7018 149.625 17.8291C149.817 17.9565 150.135 17.8928 150.581 17.7018C151.026 17.5107 151.281 17.1287 151.536 16.7466Z" fill="white"/>
<path d="M154.019 16.0452C153.765 16.1089 153.51 16.0452 153.383 15.9179C153.255 15.7905 153.128 15.5358 153.128 15.2174V12.7977C153.128 12.734 153.128 12.6703 153.192 12.6066C153.255 12.543 153.255 12.4793 153.383 12.4793L153.701 12.2883C153.765 12.2246 153.828 12.2246 153.892 12.2246C153.956 12.2246 153.956 12.2883 153.956 12.3519V14.7717C153.956 15.0901 154.019 15.2811 154.21 15.3448C154.401 15.4085 154.656 15.3448 154.975 15.1537C155.293 14.9627 155.548 14.708 155.739 14.4533C155.93 14.1986 155.993 13.8802 155.993 13.5618V11.1421C155.993 11.0784 155.993 11.0147 156.057 10.951C156.121 10.8874 156.121 10.8237 156.248 10.8237L156.566 10.6326C156.694 10.569 156.821 10.569 156.821 10.6963V13.1161C156.821 13.4345 156.758 13.7528 156.566 14.0712C156.439 14.3896 156.184 14.708 155.93 14.9627C155.675 15.2174 155.357 15.4721 154.975 15.6632C154.592 15.9179 154.274 16.0452 154.019 16.0452Z" fill="white"/>
<path d="M158.54 13.4993C158.477 13.4993 158.477 13.4356 158.477 13.3719V10.1244L157.458 10.6975C157.394 10.7611 157.33 10.7611 157.267 10.7611C157.267 10.7611 157.203 10.6975 157.203 10.6338V10.5064C157.203 10.4427 157.203 10.3791 157.267 10.3154C157.267 10.2517 157.33 10.188 157.458 10.188L160.323 8.53243C160.387 8.46875 160.451 8.46875 160.514 8.46875C160.578 8.46875 160.578 8.53243 160.578 8.5961V8.78714C160.578 8.85081 160.578 8.91449 160.514 8.97817C160.514 9.04184 160.451 9.10552 160.323 9.10552L159.304 9.67862V12.9262C159.304 12.9898 159.304 13.0535 159.241 13.1172C159.177 13.1809 159.177 13.2446 159.05 13.2446L158.731 13.4356C158.604 13.4993 158.54 13.5629 158.54 13.4993Z" fill="white"/>
<path d="M161.024 12.0978C160.96 12.0978 160.96 12.0341 160.96 11.9704V8.34081C160.96 8.27713 160.96 8.21346 161.024 8.14978C161.087 8.0861 161.087 8.02242 161.215 8.02242L161.533 7.8314C161.597 7.76772 161.66 7.76771 161.724 7.76771C161.788 7.76771 161.788 7.83139 161.788 7.89507V9.42333L163.762 8.27713V6.74888C163.762 6.6852 163.762 6.62153 163.825 6.55785C163.889 6.49417 163.889 6.43049 164.016 6.43049L164.335 6.23946C164.399 6.17579 164.462 6.17578 164.526 6.17578C164.59 6.17578 164.59 6.23946 164.59 6.30314V9.93274C164.59 9.99642 164.59 10.0601 164.526 10.1238C164.462 10.1875 164.462 10.2511 164.335 10.2511L164.016 10.4422C163.953 10.5058 163.889 10.5058 163.825 10.5058C163.762 10.5058 163.762 10.4422 163.762 10.3785V8.85023L161.788 9.99642V11.5247C161.788 11.5884 161.788 11.652 161.724 11.7157C161.66 11.7794 161.66 11.8431 161.533 11.8431L161.215 12.0341C161.087 12.0978 161.024 12.0978 161.024 12.0978Z" fill="white"/>
<path d="M139.693 28.3371L116.451 14.9648L111.293 17.9577L116.451 26.8725L139.693 40.3084V28.3371Z" fill="#000000"/>
<path d="M116.451 14.9658L119.062 13.4375L142.304 26.8734L139.693 28.338L116.451 14.9658Z" fill="#121243"/>
<path d="M118.679 24.5173C118.616 24.4536 118.616 24.4536 118.616 24.3899L117.533 19.9962V19.9325C117.533 19.8688 117.597 19.8688 117.661 19.9325L118.234 20.2509C118.297 20.3146 118.361 20.3146 118.361 20.3783C118.361 20.4419 118.425 20.4419 118.425 20.5056L119.125 23.4985L119.953 21.6518C119.953 21.5881 120.017 21.5881 120.017 21.5881C120.017 21.5881 120.08 21.5881 120.144 21.6518L120.462 21.8428C120.526 21.9065 120.59 21.9065 120.59 21.9702C120.59 22.0339 120.653 22.0339 120.653 22.0975L121.481 24.8994L122.182 22.6706C122.182 22.607 122.182 22.607 122.245 22.607C122.245 22.607 122.309 22.607 122.373 22.6706L122.946 22.989C123.009 23.0527 123.073 23.1164 123.073 23.1801V23.2437L121.991 26.3639C121.991 26.4276 121.927 26.4276 121.927 26.4276C121.863 26.4276 121.863 26.4276 121.8 26.3639L121.418 26.1729C121.354 26.1092 121.29 26.1092 121.29 26.0455C121.226 25.9819 121.226 25.9819 121.226 25.8545L120.399 22.989L119.571 24.8994C119.571 24.963 119.507 24.963 119.507 24.963C119.444 24.963 119.444 24.963 119.38 24.8994L118.998 24.7083C118.743 24.581 118.679 24.5173 118.679 24.5173Z" fill="white"/>
<path d="M123.773 27.3835C123.709 27.3199 123.709 27.2562 123.709 27.1925V23.5629C123.709 23.4992 123.709 23.4355 123.773 23.4355C123.836 23.4355 123.9 23.4355 123.964 23.4992L126.829 25.1548C126.893 25.2185 126.957 25.2822 127.02 25.2822C127.084 25.3459 127.084 25.4095 127.084 25.4732V25.6643C127.084 25.7279 127.084 25.7916 127.02 25.7916C126.957 25.7916 126.893 25.7916 126.829 25.7279L124.6 24.4544V25.6006L126.192 26.5557C126.256 26.6194 126.32 26.6831 126.383 26.6831C126.447 26.7468 126.447 26.8104 126.447 26.8741V27.0015C126.447 27.0652 126.447 27.1288 126.383 27.1288C126.32 27.1288 126.256 27.1288 126.192 27.0652L124.6 26.11V27.2562L126.829 28.5297C126.893 28.5934 126.957 28.6571 127.02 28.7208C127.084 28.7844 127.084 28.8481 127.084 28.9118V29.1028C127.084 29.1665 127.084 29.2302 127.02 29.2302C126.957 29.2302 126.893 29.2302 126.829 29.1665L123.964 27.5109C123.836 27.5109 123.773 27.4472 123.773 27.3835Z" fill="white"/>
<path d="M128.357 30.1218C128.039 29.8671 127.784 29.6761 127.593 29.4214C127.529 29.3577 127.529 29.294 127.529 29.294V29.2303L127.784 29.0393H127.848L127.911 29.103C128.102 29.294 128.293 29.485 128.484 29.6761C128.739 29.8671 128.93 29.9945 129.185 30.1218C129.503 30.3129 129.758 30.3765 129.885 30.3765C130.013 30.3765 130.14 30.2492 130.14 30.0581C130.14 29.9308 130.14 29.8034 130.076 29.7398C130.013 29.6124 129.949 29.5487 129.822 29.4214C129.694 29.294 129.503 29.103 129.249 28.912L129.121 28.7846C128.803 28.5299 128.548 28.2752 128.357 28.0841C128.166 27.8931 127.975 27.6384 127.848 27.4474C127.72 27.1927 127.657 27.0016 127.657 26.7469C127.657 26.3649 127.848 26.1738 128.166 26.1738C128.484 26.1738 128.93 26.3012 129.44 26.6196C129.758 26.8106 130.013 27.0016 130.267 27.1927C130.522 27.3837 130.713 27.5747 130.841 27.7658C130.904 27.8294 130.904 27.8931 130.904 27.8931V27.9568L130.713 28.1478H130.649L130.586 28.0841C130.267 27.7658 129.949 27.4474 129.503 27.1927C129.185 27.0016 128.994 26.938 128.867 26.938C128.739 26.938 128.675 27.0653 128.675 27.2563C128.675 27.3837 128.675 27.5111 128.739 27.5747C128.803 27.7021 128.867 27.8294 128.994 27.8931C129.121 28.0205 129.312 28.2115 129.567 28.4662L129.758 28.5936C130.076 28.912 130.331 29.1667 130.522 29.3577C130.713 29.5487 130.841 29.7398 130.968 29.9945C131.095 30.1855 131.095 30.4402 131.095 30.6312C131.095 30.9496 130.968 31.1407 130.649 31.2043C130.331 31.2043 129.949 31.077 129.376 30.7586C128.994 30.5676 128.675 30.3765 128.357 30.1218Z" fill="white"/>
<path d="M132.752 32.6049C132.688 32.5412 132.688 32.4776 132.688 32.4139V29.1663L131.478 28.4659C131.415 28.4022 131.351 28.3385 131.287 28.3385C131.224 28.2748 131.224 28.2112 131.224 28.1475V27.9565C131.224 27.8928 131.224 27.8291 131.287 27.8291C131.351 27.8291 131.415 27.8291 131.478 27.8928L134.79 29.8031C134.853 29.8668 134.917 29.9305 134.981 29.9941C135.044 30.0578 135.044 30.1215 135.044 30.1852V30.3762C135.044 30.4399 135.044 30.5036 134.981 30.5036C134.917 30.5036 134.853 30.5036 134.79 30.4399L133.58 29.7394V32.987C133.58 33.0507 133.58 33.1143 133.516 33.1143C133.452 33.1143 133.389 33.1143 133.325 33.0506L132.943 32.8596C132.879 32.7323 132.816 32.6686 132.752 32.6049Z" fill="white"/>
<path d="M142.367 2.54729C142.367 2.16523 142.113 1.78316 141.603 1.52845C140.584 0.955359 138.929 0.955359 137.846 1.52845C137.337 1.84684 137.082 2.16523 137.082 2.54729V142.765H142.367V2.54729Z" fill="#000000"/>
<path d="M188.915 108.442L157.841 99.4639L125.684 72.3373C124.856 71.6369 123.455 71.5095 122.563 72.0826L45.7047 116.466C44.8133 116.975 44.6859 117.994 45.5137 118.631L77.6708 145.757L108.745 154.736L142.367 183.136L176.753 194.47C177.772 194.789 179.3 194.662 180.191 194.088L183.694 192.051L257.05 149.705C257.941 149.196 257.878 148.495 256.859 148.177L222.473 136.842L188.915 108.442Z" fill="#000000"/>
<path d="M157.841 99.5283L77.6709 145.822L108.682 154.737L188.915 108.443L157.841 99.5283Z" fill="#000000"/>
<path d="M142.305 183.137L176.69 194.472C177.709 194.79 179.238 194.663 180.129 194.09L256.988 149.707C257.879 149.197 257.815 148.497 256.797 148.178L222.411 136.844L142.305 183.137Z" fill="#000000"/>
<path d="M152.683 102.457L123.264 77.6865L53.4102 117.994L82.8291 142.828L152.683 102.457Z" fill="#E0E0E0"/>
<path d="M183.694 111.435L113.904 151.742L82.8291 142.827L152.683 102.456L183.694 111.435Z" fill="#E0E0E0"/>
<g opacity="0.5">
<path opacity="0.5" d="M183.694 111.435L113.904 151.742L82.8291 142.827L152.683 102.456L183.694 111.435Z" fill="#E0E0E0"/>
</g>
<path d="M217.315 139.836L147.525 180.143L113.903 151.743L183.694 111.436L217.315 139.836Z" fill="#E0E0E0"/>
<path d="M246.988 149.579L177.134 189.886L147.524 180.144L217.315 139.836L246.988 149.579Z" fill="#E0E0E0"/>
<g opacity="0.5">
<path opacity="0.5" d="M246.988 149.579L177.134 189.886L147.524 180.144L217.315 139.836L246.988 149.579Z" fill="#E0E0E0"/>
</g>
<path d="M70.4747 132.321L80.281 126.399L64.7438 111.435L53.4092 117.993L70.4747 132.321Z" fill="#F0F0F0"/>
<path d="M82.8283 124.871L67.291 109.97L90.5969 96.4707L106.134 111.435L82.8283 124.871Z" fill="#F0F0F0"/>
<path d="M93.208 95.0063L108.682 109.97L116.45 105.449L113.903 83.0986L93.208 95.0063Z" fill="#F0F0F0"/>
<path d="M119.061 103.985L116.45 81.5708L123.264 77.6865L148.48 98.9548L119.061 103.985Z" fill="#F0F0F0"/>
<path d="M91.8705 137.607L84.1655 130.093L74.4229 135.696L82.8283 142.828L91.8705 137.607Z" fill="#F0F0F0"/>
<path d="M86.7129 128.628L94.4815 136.079L117.724 122.643L110.019 115.192L86.7129 128.628Z" fill="#F0F0F0"/>
<path d="M120.335 121.178L112.566 113.664L119.698 109.588L134.599 106.978V112.963L120.335 121.178Z" fill="#F0F0F0"/>
<path d="M137.145 111.434V106.531L149.434 104.366L137.145 111.434Z" fill="#F0F0F0"/>
<path d="M150.073 115.893C147.207 115.066 143.132 115.384 141.031 116.657C138.866 117.867 139.439 119.587 142.304 120.414C145.17 121.242 149.245 120.924 151.346 119.65C153.511 118.44 152.938 116.721 150.073 115.893Z" fill="#E6E6E6"/>
<path d="M141.667 114.301C141.094 114.492 140.521 114.747 140.075 115.002C137.846 116.275 137.783 117.994 137.846 118.695C137.91 119.013 137.974 119.395 138.228 119.841L131.988 123.407L120.335 121.178L134.535 112.964L141.667 114.301Z" fill="#E6E6E6"/>
<path d="M137.145 111.436L145.168 112.836L149.243 113.41L162.998 105.45L152.682 102.457L137.145 111.436Z" fill="#E6E6E6"/>
<path d="M183.693 111.436L164.272 122.644L152.683 121.052C154.529 119.778 154.593 118.25 154.529 117.613C154.466 117.295 154.402 116.913 154.147 116.467L169.876 107.425L183.693 111.436Z" fill="#E6E6E6"/>
<path d="M161.979 123.98L152.682 129.329L137.145 126.337L143.64 122.643H143.703C144.404 122.707 145.168 122.771 145.868 122.771C147.46 122.771 148.989 122.58 150.326 122.134L161.979 123.98Z" fill="#E6E6E6"/>
<path d="M117.724 122.642L94.4814 136.078L106.134 138.306L129.377 124.87L117.724 122.642Z" fill="#E6E6E6"/>
<path d="M152.683 129.391L137.146 126.398L113.903 139.834L129.377 142.827L152.683 129.391Z" fill="#E6E6E6"/>
<path d="M91.8713 137.604L82.8291 142.826L93.2085 145.819L103.524 139.833L91.8713 137.604Z" fill="#E6E6E6"/>
<path d="M126.83 144.292L111.293 141.299L100.086 147.794L113.904 151.742L126.83 144.292Z" fill="#E6E6E6"/>
<path d="M168.222 129.393L176.818 145.312L199.233 132.322L178.537 123.407L168.222 129.393Z" fill="#F0F0F0"/>
<path d="M126.83 144.293L129.377 148.75L128.613 164.16L113.903 151.743L126.83 144.293Z" fill="#F0F0F0"/>
<path d="M129.377 142.829L131.988 147.286L164.4 128.565L161.98 123.98L129.377 142.829Z" fill="#F0F0F0"/>
<path d="M164.272 122.643L166.883 127.1L187.897 115.001L183.694 111.436L164.272 122.643Z" fill="#F0F0F0"/>
<path d="M165.609 130.857L133.261 149.515L132.434 167.408L134.917 169.51L174.27 146.777L165.609 130.857Z" fill="#F0F0F0"/>
<path d="M181.146 121.878L189.998 116.784L204.707 129.201L201.842 130.857L181.146 121.878Z" fill="#F0F0F0"/>
<path d="M139.12 173.075L150.073 166.707L155.294 175.686L147.526 180.143L139.12 173.075Z" fill="#F0F0F0"/>
<path d="M163.053 159.235L152.686 165.221L157.843 174.154L168.211 168.168L163.053 159.235Z" fill="#F0F0F0"/>
<path d="M165.609 157.73L176.753 151.299L181.72 160.405L170.767 166.709L165.609 157.73Z" fill="#F0F0F0"/>
<path d="M184.267 158.94L179.3 149.834L201.842 136.844L213.112 136.271L217.315 139.836L184.267 158.94Z" fill="#F0F0F0"/>
<path d="M206.809 130.921L201.842 133.85L209.865 133.532L206.809 130.921Z" fill="#F0F0F0"/>
<path d="M196.812 163.779C193.947 162.951 189.871 163.27 187.77 164.543C185.669 165.817 186.178 167.472 189.044 168.3C191.909 169.128 195.984 168.81 198.086 167.536C200.251 166.326 199.678 164.607 196.812 163.779Z" fill="#E6E6E6"/>
<path d="M155.294 175.687L165.61 178.616L157.395 183.391L147.525 180.144L155.294 175.687Z" fill="#E6E6E6"/>
<path d="M157.841 174.159L168.22 177.151L178.536 171.166L168.22 168.173L157.841 174.159Z" fill="#E6E6E6"/>
<path d="M170.769 166.707L181.148 169.7L184.587 167.726C184.587 167.726 182.931 164.096 187.77 162.568L181.721 160.467L170.769 166.707Z" fill="#E6E6E6"/>
<path d="M184.268 158.939L190.635 161.231C190.635 161.231 192.673 160.913 195.793 161.231L214.769 150.279L204.453 147.286L184.268 158.939Z" fill="#E6E6E6"/>
<path d="M207.001 145.822L217.317 148.751L227.25 143.083L217.317 139.836L207.001 145.822Z" fill="#E6E6E6"/>
<path d="M233.809 145.248L217.316 154.736L230.307 159.257L246.99 149.578L233.809 145.248Z" fill="#E6E6E6"/>
<path d="M214.769 156.266L201.142 164.098C201.142 164.098 202.798 166.709 200.696 168.746L209.611 171.166L227.696 160.723L215.087 156.393" fill="#E6E6E6"/>
<path d="M207.001 172.693L197.831 170.4C197.831 170.4 193.374 172.12 189.68 170.782L175.99 178.615L173.379 188.612L177.136 189.822L207.001 172.693Z" fill="#E6E6E6"/>
<path d="M173.379 180.145L171.214 187.977L163.955 185.557L173.379 180.145Z" fill="#E6E6E6"/>
<path d="M161.98 156.264C161.789 156.264 161.534 156.136 161.407 155.945C161.216 155.627 161.343 155.245 161.661 155.054L175.288 147.031L162.68 123.979L150.773 122.133C150.518 122.069 150.327 121.878 150.263 121.623C150.199 121.369 150.327 121.114 150.581 120.987C152.364 119.904 153.256 118.885 153.129 118.057C153.065 117.23 152.046 116.402 150.39 115.765C147.971 114.81 142.877 115.128 140.712 116.848C138.801 118.312 139.947 120.095 140.011 120.159C140.138 120.286 140.138 120.477 140.075 120.668C140.011 120.859 139.947 120.987 139.756 121.05L133.198 124.998C133.07 125.062 132.879 125.126 132.752 125.062L118.998 122.578C118.87 122.578 118.743 122.515 118.679 122.387L104.797 108.378C104.543 108.124 104.543 107.742 104.797 107.487C105.052 107.232 105.434 107.232 105.689 107.487L119.38 121.305L132.752 123.725L138.61 120.222C138.164 119.076 138.037 117.23 139.884 115.765C142.431 113.791 148.034 113.473 150.836 114.491C152.11 115.001 154.211 116.083 154.402 117.866C154.529 118.949 153.893 120.031 152.556 121.114L163.19 122.769C163.381 122.769 163.572 122.897 163.635 123.088L176.753 146.967C176.944 147.285 176.817 147.667 176.498 147.795L162.362 156.136C162.171 156.264 162.043 156.264 161.98 156.264Z" fill="#000000"/>
<path d="M109.318 88.4484L107.153 87.1748C106.134 86.4744 104.67 86.538 103.078 87.4295C99.8938 89.2762 97.3467 93.9246 97.3467 97.8089V98.7004C97.3467 102.585 102.568 106.851 102.568 106.851L104.733 108.061C104.733 108.061 103.46 106.596 103.587 106.278C104.988 103.413 108.809 95.2618 108.809 92.078V91.1865C108.809 90.486 108.745 89.8493 108.554 89.2762L108.809 89.4035L109.318 88.4484ZM103.078 97.4269C101.486 98.3184 100.212 97.6179 100.212 95.7713C101.04 95.6439 103.205 91.9506 103.078 90.8044C104.67 89.9129 105.943 90.6134 105.943 92.46C105.943 94.3067 104.67 96.5354 103.078 97.4269Z" fill="#000000"/>
<path d="M109.318 88.4484L107.153 87.1748C106.134 86.4744 104.67 86.538 103.078 87.4295C99.8938 89.2762 97.3467 93.9246 97.3467 97.8089V98.7004C97.3467 102.585 102.568 106.851 102.568 106.851L104.733 108.061C104.733 108.061 103.46 106.596 103.587 106.278C104.988 103.413 108.809 95.2618 108.809 92.078V91.1865C108.809 90.486 108.745 89.8493 108.554 89.2762L108.809 89.4035L109.318 88.4484ZM103.078 97.4269C101.486 98.3184 100.212 97.6179 100.212 95.7713C101.04 95.6439 103.205 91.9506 103.078 90.8044C104.67 89.9129 105.943 90.6134 105.943 92.46C105.943 94.3067 104.67 96.5354 103.078 97.4269Z" fill="#000000"/>
<g opacity="0.2">
<path opacity="0.2" d="M109.318 88.4484L107.153 87.1748C106.134 86.4744 104.67 86.538 103.078 87.4295C99.8938 89.2762 97.3467 93.9246 97.3467 97.8089V98.7004C97.3467 102.585 102.568 106.851 102.568 106.851L104.733 108.061C104.733 108.061 103.46 106.596 103.587 106.278C104.988 103.413 108.809 95.2618 108.809 92.078V91.1865C108.809 90.486 108.745 89.8493 108.554 89.2762L108.809 89.4035L109.318 88.4484ZM103.078 97.4269C101.486 98.3184 100.212 97.6179 100.212 95.7713C101.04 95.6439 103.205 91.9506 103.078 90.8044C104.67 89.9129 105.943 90.6134 105.943 92.46C105.943 94.3067 104.67 96.5354 103.078 97.4269Z" fill="black"/>
</g>
<path d="M111.102 92.5875C111.102 88.7032 108.554 86.9839 105.371 88.8305C102.187 90.6772 99.6396 95.3256 99.6396 99.2099V100.101C99.6396 103.094 103.015 106.597 104.606 108.061C104.989 108.443 105.625 108.316 105.816 107.806C107.154 105.068 111.102 96.7265 111.102 93.479V92.5875ZM105.371 98.7642C103.779 99.6557 102.505 98.9552 102.505 97.1086C102.505 95.2619 103.779 93.0332 105.371 92.1417C106.963 91.2503 108.236 91.9507 108.236 93.7974C108.236 95.5803 106.963 97.809 105.371 98.7642Z" fill="#000000"/>
<path d="M165.993 136.843L163.828 135.569C162.809 134.869 161.344 134.933 159.752 135.824C156.569 137.671 154.021 142.319 154.021 146.203V147.095C154.021 150.979 159.243 155.246 159.243 155.246L161.408 156.456C161.408 156.456 160.135 154.991 160.262 154.673C161.663 151.807 165.483 143.656 165.483 140.473V139.581C165.483 138.881 165.42 138.244 165.229 137.671L165.483 137.798L165.993 136.843ZM159.752 145.821C158.161 146.713 156.887 146.012 156.887 144.166C157.715 144.038 159.88 140.345 159.752 139.199C161.344 138.307 162.618 139.008 162.618 140.855C162.618 142.701 161.344 144.93 159.752 145.821Z" fill="#000000"/>
<path d="M165.993 136.843L163.828 135.569C162.809 134.869 161.344 134.933 159.752 135.824C156.569 137.671 154.021 142.319 154.021 146.203V147.095C154.021 150.979 159.243 155.246 159.243 155.246L161.408 156.456C161.408 156.456 160.135 154.991 160.262 154.673C161.663 151.807 165.483 143.656 165.483 140.473V139.581C165.483 138.881 165.42 138.244 165.229 137.671L165.483 137.798L165.993 136.843ZM159.752 145.821C158.161 146.713 156.887 146.012 156.887 144.166C157.715 144.038 159.88 140.345 159.752 139.199C161.344 138.307 162.618 139.008 162.618 140.855C162.618 142.701 161.344 144.93 159.752 145.821Z" fill="#000000"/>
<g opacity="0.2">
<path opacity="0.2" d="M165.993 136.843L163.828 135.569C162.809 134.869 161.344 134.933 159.752 135.824C156.569 137.671 154.021 142.319 154.021 146.203V147.095C154.021 150.979 159.243 155.246 159.243 155.246L161.408 156.456C161.408 156.456 160.135 154.991 160.262 154.673C161.663 151.807 165.483 143.656 165.483 140.473V139.581C165.483 138.881 165.42 138.244 165.229 137.671L165.483 137.798L165.993 136.843ZM159.752 145.821C158.161 146.713 156.887 146.012 156.887 144.166C157.715 144.038 159.88 140.345 159.752 139.199C161.344 138.307 162.618 139.008 162.618 140.855C162.618 142.701 161.344 144.93 159.752 145.821Z" fill="black"/>
</g>
<path d="M167.774 140.982C167.774 137.098 165.227 135.378 162.043 137.225C158.86 139.072 156.312 143.72 156.312 147.604V148.496C156.312 151.489 159.687 154.991 161.279 156.456C161.661 156.838 162.298 156.71 162.489 156.201C163.826 153.463 167.774 145.121 167.774 141.874V140.982ZM162.043 147.159C160.452 148.05 159.178 147.35 159.178 145.503C159.178 143.656 160.452 141.428 162.043 140.536C163.635 139.645 164.909 140.345 164.909 142.192C164.909 143.975 163.635 146.204 162.043 147.159Z" fill="#000000"/>
<path d="M209.992 62.3403C209.929 62.3403 209.929 62.2767 209.865 62.2767L205.471 59.7932C204.516 59.1565 203.306 58.7744 202.033 58.7744C200.504 58.7744 198.785 59.2838 197.002 60.3027C190.443 64.0596 185.158 73.6749 185.158 81.7619V83.6086C185.158 91.6956 195.983 100.419 195.983 100.419L200.377 102.903C200.25 102.712 197.703 99.8463 198.021 99.2732C200.95 93.2875 208.846 76.4767 208.846 69.8543V68.0076C208.846 66.5431 208.655 65.2058 208.337 64.0596L208.846 64.378L209.992 62.3403ZM201.778 83.5449C198.849 85.2005 196.429 84.1817 195.92 81.3162C193.182 82.335 191.08 80.7431 191.08 77.3682C192.863 77.1135 197.257 69.5359 197.002 67.1161C199.931 65.4605 202.351 66.4794 202.861 69.3448C205.599 68.326 207.7 69.918 207.7 73.2929C207.7 77.0498 205.089 81.6983 201.778 83.5449Z" fill="#263238"/>
<path d="M209.992 62.3404C209.928 62.3404 209.928 62.2767 209.865 62.2767C207.763 61.0669 204.898 61.2579 201.778 63.0409C197.066 65.779 192.99 71.4463 191.08 77.432C190.316 79.788 189.87 82.2078 189.87 84.5001V86.3468C189.87 92.5872 196.938 99.7827 200.122 102.776C200.186 102.839 200.25 102.903 200.377 102.967C201.141 103.476 202.224 103.158 202.669 102.33C205.471 96.5988 213.622 79.3423 213.622 72.6562V70.8095C213.622 66.6068 212.221 63.6776 209.992 62.3404ZM195.919 81.3163C195.856 80.9342 195.792 80.5521 195.792 80.1064C195.792 76.3494 198.467 71.701 201.714 69.8543C202.096 69.6633 202.415 69.4723 202.797 69.3449C205.535 68.3261 207.636 69.918 207.636 73.2929C207.636 77.0499 204.962 81.6983 201.714 83.545C198.849 85.2643 196.429 84.2454 195.919 81.3163Z" fill="#000000"/>
<path d="M203.752 67.8171C203.306 67.9445 202.86 68.1992 202.414 68.4539C198.466 70.7463 195.219 76.2862 195.219 80.871C195.219 81.3804 195.282 81.8898 195.346 82.3356C195.983 85.8378 198.848 87.0477 202.414 85.01C206.362 82.7176 209.61 77.1777 209.61 72.5929C209.61 68.5176 207.063 66.6073 203.752 67.8171Z" fill="#263238"/>
<path d="M202.925 69.5982L204.135 72.1453C204.198 72.3363 204.326 72.3363 204.517 72.2726L207.191 71.2538C207.637 71.0628 207.764 71.6996 207.51 72.2726L205.536 75.9023C205.408 76.157 205.345 76.4117 205.408 76.6027L205.854 79.9139C205.918 80.4234 205.472 81.1238 205.09 81.0601L202.67 80.7417C202.543 80.7417 202.352 80.8054 202.161 80.9964L199.741 84.053C199.359 84.5624 198.913 84.3714 198.977 83.7346L199.423 79.9139C199.423 79.6592 199.423 79.4682 199.295 79.4045L197.321 78.0036C197.003 77.7489 197.194 76.9848 197.64 76.6664L200.314 74.565C200.505 74.4377 200.632 74.183 200.696 73.9283L201.906 69.9803C202.161 69.5345 202.734 69.2161 202.925 69.5982Z" fill="#000000"/>
<path d="M237.693 78.2593C237.629 78.2593 237.629 78.1956 237.565 78.1956L233.171 75.7122C232.216 75.0754 231.006 74.6934 229.733 74.6934C228.205 74.6934 226.485 75.2028 224.702 76.2216C218.144 79.9786 212.858 89.5939 212.858 97.6809V99.5275C212.858 107.615 223.684 116.338 223.684 116.338L228.077 118.822C227.95 118.631 225.403 115.765 225.721 115.192C228.65 109.206 236.546 92.3957 236.546 85.7732V83.9266C236.546 82.462 236.355 81.1248 236.037 79.9786L236.546 80.297L237.693 78.2593ZM229.478 99.5275C226.549 101.183 224.129 100.164 223.62 97.2988C220.882 98.3177 218.78 96.7257 218.78 93.3508C220.563 93.0961 224.957 85.5185 224.702 83.0988C227.632 81.4432 230.051 82.462 230.561 85.3275C233.299 84.3086 235.4 85.9006 235.4 89.2755C235.4 93.0324 232.789 97.6172 229.478 99.5275Z" fill="#263238"/>
<path d="M237.691 78.2603C237.628 78.2603 237.628 78.1967 237.564 78.1967C235.463 76.9868 232.597 77.1778 229.477 78.9608C224.765 81.6989 220.69 87.3662 218.779 93.3519C218.015 95.7079 217.569 98.1277 217.569 100.42V102.267C217.569 108.507 224.638 115.703 227.821 118.695C227.885 118.759 227.949 118.823 228.076 118.887C228.84 119.396 229.923 119.078 230.368 118.25C233.17 112.519 241.321 95.2622 241.321 88.5761V86.7294C241.385 82.5904 239.984 79.6612 237.691 78.2603ZM223.682 97.2999C223.619 96.9178 223.555 96.5357 223.555 96.09C223.555 92.333 226.229 87.6846 229.477 85.8379C229.859 85.6469 230.177 85.4559 230.56 85.3285C233.298 84.3097 235.399 85.9016 235.399 89.2765C235.399 93.0335 232.725 97.6819 229.477 99.5286C226.612 101.184 224.192 100.165 223.682 97.2999Z" fill="#000000"/>
<path d="M231.451 83.7996C231.005 83.9269 230.559 84.1816 230.113 84.4363C226.166 86.7287 222.918 92.2687 222.918 96.8534C222.918 97.3628 222.982 97.8723 223.045 98.318C223.682 101.82 226.548 103.03 230.113 100.992C234.061 98.7001 237.309 93.1601 237.309 88.5754C237.309 84.5 234.762 82.5897 231.451 83.7996Z" fill="#263238"/>
<path d="M236.1 88.4472L230.433 86.9189L224.766 95.006L226.294 94.1145V98.8266L229.541 96.98V94.3055L231.324 93.2867V95.9611L234.636 94.0508V89.3387L236.1 88.4472Z" fill="#000000"/>
<path d="M265.393 94.1138C265.329 94.1138 265.329 94.0501 265.265 94.0501L260.872 91.5667C259.917 90.9299 258.707 90.5479 257.433 90.5479C255.905 90.5479 254.186 91.0573 252.403 92.0761C245.844 95.8331 240.559 105.448 240.559 113.535V115.382C240.559 123.469 251.384 132.193 251.384 132.193L255.777 134.676C255.65 134.485 253.103 131.62 253.421 131.047C256.351 125.061 264.247 108.25 264.247 101.691V99.8448C264.247 98.3802 264.056 97.0429 263.737 95.8968L264.247 96.2151L265.393 94.1138ZM257.178 115.382C254.249 117.038 251.829 116.082 251.32 113.153C248.582 114.172 246.481 112.58 246.481 109.205C248.264 108.951 252.657 101.373 252.403 98.9533C255.332 97.2977 257.751 98.2528 258.261 101.182C260.999 100.163 263.1 101.755 263.1 105.13C263.164 108.887 260.49 113.472 257.178 115.382Z" fill="#263238"/>
<path d="M265.392 94.1148C265.328 94.1148 265.328 94.0512 265.264 94.0512C263.163 92.8413 260.297 93.0323 257.177 94.8153C252.465 97.5534 248.39 103.221 246.479 109.206C245.715 111.562 245.27 113.982 245.27 116.275V118.121C245.27 124.362 252.338 131.557 255.522 134.55C255.585 134.614 255.649 134.677 255.776 134.741C256.54 135.25 257.623 134.932 258.069 134.104C260.87 128.373 269.021 111.117 269.021 104.431V102.584C269.085 98.4449 267.684 95.5157 265.392 94.1148ZM251.383 113.154C251.319 112.772 251.255 112.39 251.255 111.944C251.255 108.188 253.93 103.539 257.177 101.692C257.559 101.501 257.878 101.31 258.26 101.183C260.998 100.164 263.099 101.756 263.099 105.131C263.099 108.888 260.425 113.536 257.177 115.383C254.312 117.039 251.892 116.02 251.383 113.154Z" fill="#000000"/>
<path d="M259.152 99.5916C258.706 99.7189 258.26 99.9736 257.815 100.228C253.867 102.521 250.619 108.061 250.619 112.645C250.619 113.155 250.683 113.664 250.746 114.11C251.383 117.612 254.249 118.822 257.815 116.784C261.763 114.492 265.01 108.952 265.01 104.367C265.01 100.292 262.463 98.3817 259.152 99.5916Z" fill="#263238"/>
<path d="M257.814 103.22C259.152 102.456 260.298 103.093 260.298 104.621C260.298 106.213 259.215 108.123 257.814 108.888C256.477 109.652 255.331 109.015 255.331 107.487C255.331 105.895 256.414 103.984 257.814 103.22Z" fill="#000000"/>
<path d="M253.103 117.484C254.376 118.057 256.032 117.866 257.815 116.784C259.661 115.765 261.253 113.982 262.527 112.008V111.626C262.527 109.079 260.744 107.996 258.515 109.27L257.114 110.098C254.885 111.371 253.103 114.491 253.103 117.102V117.484Z" fill="#000000"/>
<path d="M40.8015 56.418C36.4078 56.609 33.2876 57.6915 30.1037 60.8754C27.7477 63.2314 22.7808 76.7947 24.9459 87.8109C26.6015 96.28 35.7073 100.674 43.3486 96.7257C49.398 93.6692 50.5442 84.1176 50.4168 78.514C50.1621 72.9741 40.8015 56.418 40.8015 56.418Z" fill="#263238"/>
<path d="M35.2609 60.4929C35.2609 60.4929 34.0511 58.901 31.3129 59.7925C31.3129 59.7925 28.3838 63.2947 26.1551 69.9809C26.1551 69.9809 25.4546 69.9809 25.9004 68.0705C26.3461 66.2239 28.1927 61.7028 29.4026 60.1109C30.6125 58.5189 32.2681 57.2454 40.2278 54.3162C47.2323 51.7691 45.0036 58.1369 45.0036 58.1369L35.2609 60.4929Z" fill="#121243"/>
<path d="M21.698 151.104C20.7428 150.595 20.1697 151.804 19.3419 152.76C18.7688 153.396 17.8137 154.479 17.6863 155.243C17.4953 156.389 18.5141 158.172 19.5966 159.127C20.7428 160.083 22.0164 160.783 22.4621 162.948C22.8442 165.113 23.672 166.387 25.9007 167.342C28.3204 168.361 31.568 168.042 32.7142 167.342C34.0514 166.514 32.8415 165.559 30.9949 162.948C28.5751 159.509 26.7285 157.09 26.7285 153.906L21.698 151.104Z" fill="#263238"/>
<path d="M23.6085 148.304L21.6345 151.169C20.8067 152.443 21.0614 154.162 22.2713 154.99C22.2713 154.99 22.3349 154.99 22.3349 155.054C23.5448 155.818 25.1367 155.499 26.0919 154.48L29.1484 151.106L23.6085 148.304Z" fill="#FFA8A7"/>
<path d="M60.2225 92.9035C60.3499 96.5968 59.7131 110.606 57.0387 117.674C54.5553 124.233 52.2629 127.799 51.4351 129.136C50.6073 130.473 27.6197 152.888 27.6197 152.888C27.6197 152.888 23.7354 152.633 23.0986 148.812C23.0986 148.812 32.5229 132.766 34.5606 129.518C36.5982 126.207 43.8575 121.176 43.8575 121.176L43.2207 90.3564L60.2225 92.9035Z" fill="#121243"/>
<path d="M54.6598 170.347L59.5029 169.246L57.8936 162.168L53.0504 163.269L54.6598 170.347Z" fill="#FFA8A7"/>
<path d="M50.8625 104.811C50.8625 104.811 52.7728 103.219 55.3199 99.7171C59.0132 94.5592 58.4401 90.0381 58.4401 90.0381H56.9118L34.4974 92.9672C34.1153 95.0686 33.6696 98.5709 34.7521 103.983C36.7261 113.917 44.6858 130.855 44.6858 130.855C44.5584 132.256 43.9853 137.987 45.3225 143.081C47.3602 151.168 53.0275 164.795 53.0275 164.795C53.0275 164.795 56.5298 165.305 58.3127 163.267C58.3127 163.267 55.1925 135.567 54.3647 128.499C53.4732 120.731 50.8625 104.811 50.8625 104.811Z" fill="#121243"/>
<path d="M58.9499 166.833L58.8225 166.133C59.332 166.26 61.497 169.826 63.662 171.418C66.0181 173.137 68.1194 174.156 69.1383 174.92C70.5392 175.939 68.5015 178.104 64.9992 178.295C63.471 178.359 61.6243 178.168 60.2234 177.467C58.6952 176.767 57.8037 175.366 56.5938 174.22C55.766 173.392 54.4925 172.755 53.792 171.736C53.4736 171.291 53.4736 170.144 53.4736 169.126C53.4736 168.234 53.5373 167.215 53.8557 167.215C53.8557 167.343 53.9831 167.725 53.9831 167.725C54.4288 168.043 55.8297 168.425 56.9122 168.362C57.8674 168.362 59.3956 168.17 58.9499 166.833Z" fill="#263238"/>
<path d="M53.728 123.723C53.728 123.723 51.3719 107.04 50.7988 104.811C50.7988 104.811 54.9379 103.219 56.2114 101.818C56.2114 101.818 55.3199 103.856 52.3271 105.639L53.728 123.723Z" fill="#263238"/>
<path d="M44.7484 130.79C43.7295 129.39 41.2461 123.213 41.2461 123.213L43.7932 131.236C43.1564 133.656 43.2201 137.604 43.2201 137.604L44.5573 136.458C44.4936 135.566 44.7484 130.79 44.7484 130.79Z" fill="#263238"/>
<path d="M57.7395 85.9631C54.492 75.0743 55.1924 65.8411 54.5557 62.9756L62.8974 74.7559C62.8974 74.7559 63.4705 81.5057 64.553 86.2815C65.5082 90.4842 66.7817 95.6421 68.3737 98.8896C68.6284 99.4627 69.1378 99.9085 69.7109 100.163C71.3028 100.8 72.0033 101.628 73.2768 102.583C74.2957 103.347 74.9961 103.411 74.9324 103.729C74.8687 104.111 74.3593 104.812 73.2768 104.684C72.7037 104.621 72.0033 104.302 71.0481 103.92C71.0481 103.92 71.9396 105.576 73.7226 107.168C76.1423 109.269 76.4607 110.797 72.449 111.498C69.9019 111.943 67.6095 110.734 64.744 105.448C63.9162 103.92 62.6427 101.564 61.8786 99.4627C60.1593 94.0501 58.6947 89.2743 57.7395 85.9631Z" fill="#FFA8A7"/>
<path d="M51.6895 58.1357C55.6374 58.1994 59.5218 59.0272 60.7953 63.2299C62.0689 67.3053 63.7882 79.1493 63.7882 79.1493C63.7882 79.1493 62.1325 81.3143 56.5926 80.9959L51.6895 58.1357Z" fill="#000000"/>
<path d="M51.6895 58.1357C55.6374 58.1994 59.5218 59.0272 60.7953 63.2299C62.0689 67.3053 63.7882 79.1493 63.7882 79.1493C63.7882 79.1493 62.1325 81.3143 56.5926 80.9959L51.6895 58.1357Z" fill="#000000"/>
<g opacity="0.1">
<path opacity="0.1" d="M51.6895 58.1357C55.6374 58.1994 59.5218 59.0272 60.7953 63.2299C62.0689 67.3053 63.7882 79.1493 63.7882 79.1493C63.7882 79.1493 62.1325 81.3143 56.5926 80.9959L51.6895 58.1357Z" fill="black"/>
</g>
<path d="M43.6664 58.3268C40.9283 58.9635 37.6808 59.5366 35.07 60.8739C33.2233 61.7654 35.8978 77.1753 35.8978 77.1753L34.6242 92.9036C38.3175 96.9152 52.3265 98.7619 60.3499 92.9036C60.3499 92.9036 60.3499 71.508 60.3499 67.4326C60.3499 63.3573 58.0575 58.4541 51.8171 58.1357L43.6664 58.3268Z" fill="#000000"/>
<path d="M35.8334 76.858L38.2532 70.1719L35.3877 82.2069L35.8334 76.858Z" fill="#000000"/>
<path opacity="0.2" d="M35.8334 76.858L38.2532 70.1719L35.3877 82.2069L35.8334 76.858Z" fill="black"/>
<path d="M39.2734 44.1912L40.9927 51.0047C41.3748 52.4693 42.712 53.4881 44.1766 53.4881H46.2143V43.9365L39.2734 44.1912Z" fill="#263238"/>
<path d="M54.1129 48.9133C58.1269 48.4179 60.9792 44.7623 60.4838 40.7483C59.9884 36.7343 56.3327 33.8819 52.3188 34.3774C48.3048 34.8728 45.4524 38.5284 45.9478 42.5424C46.4433 46.5564 50.0989 49.4087 54.1129 48.9133Z" fill="#263238"/>
<path d="M41.8843 37.5044C41.8843 37.5044 40.6107 37.3134 39.5919 38.3322C38.5731 39.3511 38.8278 41.1977 39.5919 45.5278L42.6484 45.9099L41.8843 37.5044Z" fill="#263238"/>
<path d="M43.3486 45.8459C42.9028 46.1006 42.266 45.2728 41.6929 44.636C41.1198 44.0629 39.2732 43.2351 38.3817 45.1454C37.4266 47.1194 38.8911 49.6665 40.292 50.2396C42.266 51.0674 43.0938 49.3482 43.0938 49.3482L43.6669 58.263C43.6669 58.263 45.3226 62.211 49.7163 62.8478C54.11 63.4209 53.2186 59.7912 51.754 58.0083V55.2702C51.754 55.2702 53.9827 55.6522 55.1289 55.4612C56.7208 55.1428 57.5486 53.6782 58.2491 51.7679C59.3953 48.9024 60.0957 44.8907 59.0769 39.7966C57.8033 33.0467 50.2894 32.8557 46.023 35.5938C41.6929 38.3956 43.3486 45.8459 43.3486 45.8459Z" fill="#FFA8A7"/>
<path d="M43.348 46.6104C43.0933 46.6104 42.2655 45.1458 41.6924 44.6364C40.9283 43.9359 41.9471 37.4408 41.9471 37.4408C42.3292 32.1556 50.1615 31.7736 52.3265 31.5825C57.2933 31.2005 60.6046 33.9386 59.2673 37.4408C58.3759 39.0328 56.5292 39.4148 54.8099 39.6696C51.8808 40.0516 46.9776 38.4597 46.3408 38.396C45.513 38.2687 45.322 39.0965 44.8763 41.3252C44.4305 43.2992 44.1121 46.6104 43.348 46.6104Z" fill="#263238"/>
<path d="M41.8846 38.0144L39.1465 36.5498C39.5285 35.7857 40.4837 35.4673 41.2478 35.8494C41.9483 36.2315 42.2667 37.2503 41.8846 38.0144Z" fill="#263238"/>
<path d="M51.6905 55.397C51.6905 55.397 47.6151 54.5692 46.2142 53.8051C45.2591 53.2956 44.4949 52.4042 44.2402 51.8311C44.2402 51.8311 44.4949 53.0409 45.3864 54.1234C46.4053 55.4607 51.7542 56.4158 51.7542 56.4158V55.397H51.6905Z" fill="#F28F8F"/>
<path d="M51.8177 45.7194C51.8177 46.1652 51.4357 46.5472 50.9899 46.5472C50.5442 46.5472 50.1621 46.1652 50.1621 45.7194C50.1621 45.2737 50.5442 44.8916 50.9899 44.8916C51.4993 44.8916 51.8177 45.2737 51.8177 45.7194Z" fill="#263238"/>
<path d="M50.9896 42.6626L49.2703 43.6177C49.0156 43.1083 49.2067 42.4715 49.6524 42.2168C50.0981 41.9621 50.7349 42.1531 50.9896 42.6626Z" fill="#263238"/>
<path d="M51.3072 51.1963L53.1538 51.8967C52.9628 52.4062 52.3897 52.7246 51.8803 52.5335C51.4346 52.2788 51.1798 51.7057 51.3072 51.1963Z" fill="#F28F8F"/>
<path d="M58.6954 43.3L57.1035 42.0901C57.4219 41.6444 58.0587 41.517 58.5044 41.8991C58.9502 42.2175 59.0138 42.8542 58.6954 43.3Z" fill="#263238"/>
<path d="M58.1849 45.2742C58.1849 45.72 57.8028 46.102 57.3571 46.102C56.9114 46.102 56.5293 45.72 56.5293 45.2742C56.5293 44.8285 56.9114 44.4464 57.3571 44.4464C57.8665 44.3827 58.1849 44.7648 58.1849 45.2742Z" fill="#263238"/>
<path d="M54.8092 45.4004L53.9814 50.2399L56.7196 49.9215L54.8092 45.4004Z" fill="#F28F8F"/>
<path d="M40.9297 58.2002C40.9297 58.2002 47.1064 60.9383 47.7432 70.4263C49.1441 90.2936 34.1799 94.8147 34.1799 94.8147C32.9063 92.3312 33.9252 88.9563 35.0077 86.5366C35.0077 86.5366 42.9037 81.9518 42.4579 71.8272C42.1395 64.5679 38.5099 60.5563 36.727 59.9832C36.727 59.9832 38.4463 58.7096 40.9297 58.2002Z" fill="#121243"/>
<path d="M29.3392 95.3876C32.0137 94.4325 32.6504 94.1141 36.0253 91.376C39.4639 88.6378 42.2657 85.0719 44.9402 81.4423C45.2586 80.9966 45.6406 80.6145 46.0227 80.2961C46.4048 79.9141 47.1689 79.2773 47.8693 78.2584C49.0792 76.4755 49.0792 75.3293 49.2066 73.1642C49.3339 70.9992 48.9518 68.8979 48.3151 66.7965C48.2514 66.6055 48.1877 66.3508 47.9967 66.1597C47.8693 65.9687 47.6146 65.8414 47.3599 65.905C47.1689 65.9687 47.0415 66.1597 46.9142 66.2871C46.15 67.4333 45.6406 68.7068 44.8765 69.853C44.5581 70.3624 44.3034 70.6172 43.985 71.1266C43.9213 71.1903 43.3482 71.827 43.2209 71.5086C43.0935 71.1903 43.4756 70.4261 43.3482 69.0889C43.2209 67.8154 42.8388 67.2423 42.4568 67.1786C41.82 66.9875 41.82 67.7517 41.5016 68.8342C41.1832 70.1077 40.6738 71.1903 40.7375 73.0369C40.8011 74.6925 40.5464 75.393 40.1644 76.8575C39.7823 78.3221 38.1267 81.6333 34.0513 84.1168C33.1599 84.6899 32.8415 84.7535 33.4146 82.5885C34.7518 76.9212 35.9617 73.7373 37.2989 70.8082C38.9545 67.0512 40.1007 64.1857 38.5724 62.7212C35.9617 60.1104 32.2684 61.575 30.167 66.0324C27.811 71.1903 26.4737 75.0746 25.5186 84.4988C25.1365 88.6378 24.7544 96.9796 29.3392 95.3876Z" fill="#FFA8A7"/>
<path d="M37.0451 60.1104C33.9249 60.2377 31.8872 61.5113 29.7859 65.5866C27.7482 69.5983 26.1562 76.7302 26.1562 76.7302C26.1562 76.7302 29.0854 79.8504 34.7527 79.6593C34.7527 79.6593 38.3186 70.2987 39.0191 67.8153C39.7195 65.0772 39.0828 61.0655 37.0451 60.1104Z" fill="#000000"/>
</svg>
