<?xml version="1.0" encoding="utf-8"?>
<!-- Generator: Adobe Illustrator 25.0.0, SVG Export Plug-In . SVG Version: 6.00 Build 0)  -->
<svg version="1.1" id="Layer_1" xmlns="http://www.w3.org/2000/svg" xmlns:xlink="http://www.w3.org/1999/xlink" x="0px" y="0px"
	 viewBox="0 0 79 35" style="enable-background:new 0 0 79 35;" xml:space="preserve">
<style type="text/css">
	.st0{fill:none;}
	.st1{fill:#FFFFFF;}
</style>
<rect y="0" class="st0" width="78.8" height="34.8"/>
<g>
	<path class="st1" d="M10.2,32.9c0.1-0.7,0.5-1.3,0.8-2c1.4-3.2,2.7-6.4,4.1-9.6c1.3-3.1,2.6-6.1,4-9.2c0.8-1.9,1.6-3.8,2.5-5.7
		c0.1-0.3,0.4-0.5,0.7-0.7c2.7-1.2,5.5-2.3,8.2-3.5c0.1-0.1,0.3-0.2,0.4-0.1c0.2,0.1,0,0.3-0.1,0.5c-1.6,3.8-3.2,7.5-4.8,11.3
		c-2.1,4.9-4.2,9.7-6.3,14.6c-0.6,1.5-1.3,2.9-1.9,4.4C15.2,32.9,12.7,32.9,10.2,32.9z"/>
	<path class="st1" d="M78.2,12.6c-0.5,0.9-1.1,1.4-2.1,1.6c-1.1,0.2-2.3-0.3-2.8-1.3c-0.5-0.9-0.4-2.3,0.3-3.1
		c0.8-0.9,2.1-1.2,3.1-0.7c0.7,0.3,1.2,0.8,1.5,1.5C78.2,11.3,78.2,12,78.2,12.6z"/>
	<path class="st1" d="M35.5,25.4c-1.9,0-3.8,0-5.7,0c-0.4,0-0.5,0.1-0.4,0.5c0.6,1.7,1.6,2.8,3.4,3.1c1.7,0.2,3.2-0.3,4.3-1.7
		c0.2-0.2,0.3-0.4,0.6-0.3c1.1,0.2,2.1,0.5,3.2,0.7c0.3,0.1,0.4,0.2,0.2,0.5c-1.4,2.9-3.7,4.5-6.9,4.7c-1.5,0.1-3,0.1-4.5-0.6
		c-2.9-1.4-4.6-3.7-4.9-6.8c-0.3-2.4,0.2-4.7,1.7-6.7c1.5-2,3.6-3.1,6.1-3.3c2.5-0.2,4.6,0.6,6.5,2.3c1.8,1.7,2.6,3.8,2.6,6.2
		c0,1.4,0,1.4-1.4,1.4C38.8,25.4,37.2,25.4,35.5,25.4z M33.3,22.2c1.1,0,2.1,0,3.2,0c0.6,0,0.7-0.1,0.4-0.7c-0.5-1.2-1.5-1.8-2.8-2
		c-1.8-0.3-3.7,0.6-4.5,2.2c-0.2,0.5-0.2,0.6,0.4,0.6C31.2,22.2,32.3,22.2,33.3,22.2z"/>
	<path class="st1" d="M50.1,32.8c-1.7,0.1-3.3-0.2-4.8-1c-1.3-0.7-2.2-1.8-2.5-3.2c-0.1-0.6-0.1-0.6,0.5-0.7
		c1.2-0.2,2.3-0.5,3.5-0.7c0.2,0,0.4-0.1,0.5,0.2c0.3,1.2,1.2,1.7,2.3,1.8c0.7,0.1,1.4,0.1,2.1-0.1c0.4-0.1,0.8-0.3,1-0.6
		c0.5-0.6,0.3-1.4-0.4-1.8c-0.9-0.5-1.8-0.5-2.7-0.7c-1.3-0.3-2.5-0.5-3.7-1c-3.4-1.6-3.1-5.5-1.4-7.4c1.2-1.3,2.8-1.9,4.6-2.1
		c1.7-0.1,3.5,0,5,0.9c1.4,0.8,2.5,1.8,3,3.4c0.2,0.6,0.2,0.7-0.4,0.8c-1.1,0.2-2.1,0.4-3.2,0.7c-0.3,0.1-0.5,0.1-0.6-0.3
		c-0.3-1.3-1.4-1.7-2.6-1.9c-0.5-0.1-1,0-1.5,0.2c-0.6,0.2-1,0.7-1,1.3c0,0.5,0.3,0.9,0.9,1.2c0.8,0.3,1.7,0.4,2.5,0.6
		c1,0.3,2.1,0.4,3,0.7c2.5,0.9,3.7,3.2,3,5.8c-0.5,2-1.9,3-3.7,3.6C52.4,32.8,51.3,32.9,50.1,32.8z"/>
	<path class="st1" d="M61,23.9c0-1.4,0-2.6,0-3.8c0-0.4-0.1-0.5-0.5-0.5c-0.8,0-1.6,0-2.5,0c-0.4,0-0.5-0.1-0.5-0.5
		c0-0.9,0-1.8,0-2.7c0-0.4,0.2-0.5,0.5-0.5c0.8,0,1.6,0,2.4,0c0.4,0,0.6-0.1,0.6-0.6c0-1.3,0-2.5,0-3.8c0-0.6,0-0.6,0.6-0.6
		c1.1,0,2.2,0,3.2,0c0.5,0,0.6,0.1,0.6,0.6c0,1.3,0,2.5,0,3.8c0,0.4,0.1,0.5,0.5,0.5c1.4,0,2.8,0,4.2,0c0.5,0,0.6,0.2,0.6,0.6
		c0,0.8,0,1.7,0,2.5c0,0.5-0.2,0.6-0.6,0.6c-1.4,0-2.8,0-4.2,0c-0.4,0-0.6,0.1-0.6,0.5c0,2,0,3.9,0,5.9c0,0.4,0.1,0.8,0.2,1.2
		c0.3,0.8,0.9,1.3,1.8,1.4c0.9,0.1,1.8-0.1,2.6-0.5c0.4-0.2,0.6-0.1,0.7,0.3c0.3,0.9,0.7,1.9,1,2.8c0.1,0.2,0.1,0.4-0.2,0.6
		c-2.4,1.2-4.9,1.5-7.4,0.4c-1.9-0.8-2.8-2.4-3.1-4.4C60.9,26.4,61,25,61,23.9z"/>
	<path class="st1" d="M5.4,22c0.1-0.2,0.1-0.4,0.2-0.6c1.1-2.5,2.1-4.9,3.2-7.4c0.4-0.9,0.8-1.9,1.2-2.8c0.1-0.3,0.3-0.5,0.6-0.6
		c2.8-1.2,5.6-2.4,8.5-3.6c0.1,0,0.2-0.2,0.4-0.1c0.1,0.1,0,0.3,0,0.4c-2,4.6-3.9,9.1-5.9,13.7c-1.3,3-2.6,6-3.9,9
		c-0.1,0.2-0.1,0.5-0.3,0.5c-0.2,0-0.3-0.3-0.3-0.5c-1.1-2.5-2.1-4.9-3.2-7.4C5.6,22.5,5.5,22.2,5.4,22z"/>
	<path class="st1" d="M77.9,24.7c0,2.4,0,4.9,0,7.3c0,0.8,0,0.8-0.8,0.8c-1,0-2,0-3,0c-0.8,0-0.8,0-0.8-0.7c0-3.3,0-6.5,0-9.8
		c0-1.7,0-3.5,0-5.2c0-0.7,0.1-0.7,0.7-0.7c1,0,2.1,0,3.1,0c0.6,0,0.7,0,0.7,0.7C77.9,19.6,77.9,22.1,77.9,24.7z"/>
	<path class="st1" d="M4.5,10.9c1,0,2.1,0,3.1,0c0.6,0,0.6,0,0.4,0.6c-0.9,2.1-1.8,4.3-2.7,6.4c-0.2,0.5-0.4,1-0.6,1.5
		c0,0.1-0.1,0.2-0.2,0.2c-0.1,0-0.2-0.1-0.2-0.2C3.1,16.6,2,14,0.9,11.4c-0.2-0.4-0.1-0.5,0.4-0.5C2.3,10.9,3.4,10.9,4.5,10.9z"/>
</g>
</svg>
