<svg width="247" height="200" viewBox="0 0 247 200" fill="none" xmlns="http://www.w3.org/2000/svg">
<g clip-path="url(#clip0_10308_81407)">
<path d="M246.609 177.707H0V177.806H246.609V177.707Z" fill="#EBEBEB"/>
<path d="M221.899 185.646H205.573V185.745H221.899V185.646Z" fill="#EBEBEB"/>
<path d="M134.747 184.117H128.385V184.216H134.747V184.117Z" fill="#EBEBEB"/>
<path d="M172.429 184.66H159.063V184.759H172.429V184.66Z" fill="#EBEBEB"/>
<path d="M205.08 181.061H177.411V181.159H205.08V181.061Z" fill="#EBEBEB"/>
<path d="M38.9642 186.781H25.8939V186.88H38.9642V186.781Z" fill="#EBEBEB"/>
<path d="M54.6979 186.781H43.3539V186.88H54.6979V186.781Z" fill="#EBEBEB"/>
<path d="M94.5992 184.068H64.6116V184.167H94.5992V184.068Z" fill="#EBEBEB"/>
<path d="M116.893 155.709H21.6523C20.1233 155.709 18.8409 154.426 18.8409 152.897V19.0379C18.8409 17.5089 20.1233 16.2266 21.6523 16.2266H116.893C118.422 16.2266 119.704 17.5089 119.704 19.0379V152.897C119.704 154.476 118.471 155.709 116.893 155.709ZM21.6523 16.3252C20.1726 16.3252 18.9396 17.5089 18.9396 19.0379V152.897C18.9396 154.377 20.1233 155.61 21.6523 155.61H116.893C118.372 155.61 119.605 154.426 119.605 152.897V19.0379C119.605 17.5583 118.422 16.3252 116.893 16.3252H21.6523Z" fill="#EBEBEB"/>
<path d="M223.576 155.709H128.335C126.806 155.709 125.524 154.426 125.524 152.897V19.0379C125.524 17.5089 126.806 16.2266 128.335 16.2266H223.576C225.105 16.2266 226.387 17.5089 226.387 19.0379V152.897C226.387 154.476 225.154 155.709 223.576 155.709ZM128.335 16.3252C126.856 16.3252 125.623 17.5089 125.623 19.0379V152.897C125.623 154.377 126.806 155.61 128.335 155.61H223.576C225.055 155.61 226.289 154.426 226.289 152.897V19.0379C226.289 17.5583 225.105 16.3252 223.576 16.3252H128.335Z" fill="#EBEBEB"/>
<path d="M230.382 84.8825C232.01 79.3091 231.714 73.6371 229.889 68.6062C231.319 66.5841 232.404 64.3152 233.144 61.8492C236.449 50.4065 230.432 38.4706 219.581 34.1796C217.509 19.1858 206.856 6.06616 191.319 1.57788C179.038 -1.97329 166.461 0.690084 156.942 7.64446C154.575 5.12905 151.517 3.2055 147.916 2.16974C137.164 -0.937536 125.968 5.27702 122.861 16.0292C122.318 17.8048 122.072 19.6297 122.072 21.4053C111.27 23.5754 101.998 31.5656 98.7423 42.8603C95.783 53.0205 98.397 63.4768 104.76 71.023C103.921 72.5027 103.28 74.081 102.787 75.8072C99.2848 87.9897 106.289 100.764 118.52 104.266C122.565 105.45 126.609 105.45 130.407 104.513C134.895 110.678 141.406 115.511 149.297 117.78C159.457 120.69 169.864 118.865 178.15 113.637C181.85 122.268 184.908 135.191 178.348 147.916C202.17 145.598 219.433 122.712 215.882 101.751C222.688 98.5939 228.113 92.6753 230.382 84.8825Z" fill="#EBEBEB"/>
<path d="M184.612 143.18C184.464 143.18 184.365 143.131 184.266 143.032C184.118 142.884 184.069 142.736 184.118 142.539C187.472 130.849 184.414 119.604 181.258 112.255L179.679 108.556L176.276 110.726C171.097 113.981 165.179 115.757 159.112 115.757C156.104 115.757 153.144 115.313 150.234 114.475C143.329 112.502 137.411 108.359 133.169 102.489L131.788 100.615L129.519 101.158C126.215 101.996 122.713 101.898 119.408 100.96C114.377 99.5301 110.234 96.2255 107.719 91.6386C105.203 87.0517 104.612 81.7742 106.042 76.7927C106.437 75.4117 107.028 74.0307 107.719 72.7483L108.853 70.6768L107.324 68.8519C101.455 61.8975 99.4822 52.5757 101.998 43.8457C104.809 34.08 112.75 26.7804 122.713 24.8075L125.475 24.265L125.524 21.4536C125.524 19.9247 125.771 18.445 126.165 16.9654C128.237 9.86301 134.846 4.8815 142.294 4.8815C143.872 4.8815 145.45 5.12811 146.979 5.52269C149.84 6.36116 152.404 7.89014 154.476 10.0603L156.548 12.2305L159.014 10.4549C165.13 5.91726 172.725 3.45117 180.321 3.45117C183.675 3.45117 187.078 3.94439 190.333 4.8815C203.995 8.82725 214.155 20.5165 216.128 34.6226L216.424 36.5954L218.298 37.3353C227.67 41.0344 232.651 51.1454 229.84 60.8618C229.248 62.9333 228.311 64.8568 227.078 66.6324L226.042 68.1121L226.634 69.789C228.261 74.376 228.409 79.3081 227.078 83.9937C225.203 90.5042 220.617 95.8309 214.451 98.6423L212.035 99.7274L212.478 102.341C213.958 111.269 211.295 121.034 205.08 129.123C199.901 135.88 192.7 140.862 184.76 143.18C184.71 143.18 184.661 143.18 184.612 143.18ZM179.926 107.323C179.975 107.323 180.025 107.323 180.074 107.323C180.222 107.372 180.321 107.471 180.37 107.619L182.195 111.861C185.351 119.16 188.409 130.258 185.351 141.898C192.75 139.53 199.458 134.795 204.291 128.482C210.308 120.59 212.922 111.121 211.492 102.44L210.999 99.4808C210.949 99.2835 211.097 99.0369 211.295 98.9382L214.057 97.6559C219.926 94.9432 224.365 89.8137 226.141 83.5991C227.423 79.1108 227.275 74.4253 225.746 70.0356L225.056 68.1121C225.006 67.9641 225.006 67.8161 225.105 67.6682L226.289 65.9912C227.472 64.3143 228.311 62.4894 228.903 60.5165C231.566 51.2933 226.831 41.7249 217.953 38.2231L215.832 37.3846C215.684 37.3353 215.536 37.1873 215.536 36.99L215.24 34.7212C213.317 21.0097 203.502 9.6164 190.185 5.7693C186.88 4.8815 183.576 4.43761 180.321 4.43761C172.922 4.43761 165.573 6.85438 159.556 11.244L156.745 13.2662C156.548 13.4142 156.252 13.3649 156.104 13.2169L153.736 10.7015C151.813 8.67929 149.396 7.19963 146.683 6.4598C145.253 6.06523 143.773 5.81862 142.294 5.81862C135.29 5.81862 129.075 10.5042 127.102 17.2613C126.708 18.6423 126.511 20.0233 126.461 21.4536L126.412 24.6596C126.412 24.9062 126.264 25.1035 126.017 25.1528L122.91 25.794C113.292 27.7175 105.647 34.7705 102.984 44.1417C100.567 52.5264 102.491 61.5523 108.113 68.2107L109.889 70.2822C110.037 70.4302 110.037 70.6768 109.938 70.8248L108.607 73.1922C107.916 74.4253 107.374 75.7076 106.979 77.0393C105.598 81.7742 106.19 86.8051 108.557 91.1454C110.974 95.4857 114.871 98.6423 119.655 99.974C122.762 100.862 126.116 100.96 129.223 100.171L131.788 99.5301C131.985 99.4808 132.183 99.5794 132.33 99.7274L133.909 101.898C138.003 107.57 143.724 111.565 150.432 113.488C153.243 114.277 156.153 114.721 159.063 114.721C164.932 114.721 170.703 113.044 175.734 109.888L179.63 107.422C179.729 107.372 179.827 107.323 179.926 107.323Z" fill="white"/>
<path d="M150.037 61.2084L136.819 59.1369L137.016 57.8052C137.361 55.5364 137.904 53.7608 138.644 52.4292C139.383 51.0975 140.321 49.9631 141.504 48.9273C142.688 47.9409 145.302 46.2146 149.248 43.8472C151.369 42.6141 152.503 41.3317 152.7 40.0987C152.898 38.8163 152.7 37.7806 152.01 36.9421C151.369 36.1036 150.284 35.5611 148.755 35.3638C147.127 35.1172 145.647 35.4624 144.414 36.3502C143.181 37.2873 142.195 39.0629 141.455 41.7263L128.237 37.9779C129.47 33.095 131.887 29.3959 135.536 26.8311C139.137 24.3157 144.217 23.5266 150.678 24.5623C155.758 25.3515 159.655 27.0284 162.417 29.6425C166.214 33.1443 167.694 37.2873 166.954 42.0222C166.658 43.9951 165.82 45.82 164.439 47.497C163.058 49.1739 160.493 51.0481 156.695 53.169C154.081 54.6486 152.355 55.931 151.566 56.9668C150.826 58.0025 150.333 59.4328 150.037 61.2084ZM135.832 62.5894L149.988 64.8089L148.064 77.2873L133.909 75.0679L135.832 62.5894Z" fill="white"/>
<path d="M183.773 80.5922L176.424 74.6243L177.016 73.8844C178.052 72.6514 178.989 71.7143 179.926 71.1717C180.863 70.6292 181.85 70.2346 182.935 70.0866C184.02 69.8894 186.19 69.7907 189.445 69.7414C191.171 69.7414 192.306 69.3961 192.898 68.6563C193.49 67.9658 193.687 67.226 193.588 66.4862C193.49 65.7463 192.996 65.0558 192.158 64.3653C191.221 63.6255 190.234 63.3296 189.149 63.4282C188.064 63.5268 186.831 64.316 185.45 65.6477L178.693 58.6933C181.159 56.1286 183.97 54.7476 187.078 54.4516C190.185 54.205 193.539 55.4874 197.139 58.4467C199.951 60.7155 201.726 63.1323 202.515 65.697C203.6 69.1989 203.058 72.2568 200.888 74.8709C200 75.9559 198.866 76.7944 197.435 77.2876C196.005 77.8302 193.785 78.0768 190.727 78.0275C188.607 78.0275 187.078 78.1754 186.239 78.5207C185.401 78.9152 184.562 79.5564 183.773 80.5922ZM174.599 76.3998L182.441 82.7624L176.819 89.7167L168.977 83.3542L174.599 76.3998Z" fill="white"/>
<path d="M185.845 37.8297L182.688 33.4894L183.132 33.1935C183.872 32.6509 184.513 32.3057 185.105 32.1084C185.697 31.9604 186.289 31.8618 186.93 31.9111C187.571 31.9604 188.755 32.207 190.58 32.6509C191.517 32.8975 192.207 32.8482 192.651 32.5523C193.046 32.2563 193.292 31.8618 193.342 31.4672C193.391 31.0726 193.243 30.5794 192.848 30.0862C192.454 29.5436 191.961 29.2477 191.319 29.1491C190.678 29.0504 189.889 29.297 188.952 29.8396L186.239 25.006C187.966 23.9703 189.741 23.5757 191.467 23.9209C193.194 24.2169 194.871 25.4499 196.449 27.5708C197.682 29.2477 198.274 30.826 198.372 32.355C198.471 34.4265 197.731 36.0541 196.153 37.1885C195.512 37.6817 194.772 37.9283 193.884 38.027C192.996 38.1256 191.763 37.9283 190.086 37.4351C188.903 37.0899 188.064 36.9912 187.571 37.0406C186.979 37.1885 186.437 37.4351 185.845 37.8297ZM181.406 34.2292L184.809 38.8655L180.715 41.8741L177.312 37.2378L181.406 34.2292Z" fill="white"/>
<path d="M63.2799 99.3831C59.1862 99.3831 55.0925 98.2487 51.4427 96.0785C46.4612 93.1192 42.91 88.483 41.677 83.3535C37.6326 83.0576 33.8841 81.0847 31.3687 77.8295C29.5438 75.5113 28.508 72.7493 28.3601 69.79C27.275 69.0502 26.3379 68.1624 25.5487 67.1266C21.6523 62.0958 22.1455 55.0921 26.6338 50.7025C24.7596 42.663 27.7189 34.2783 34.2294 29.1981C39.3095 25.2524 45.82 23.8221 52.1332 25.351C52.873 23.6741 54.0074 22.2438 55.4378 21.1094C57.7559 19.3338 60.6165 18.5446 63.5265 18.8899C66.4365 19.2351 69.0506 20.7148 70.8262 23.0329C71.3687 23.7234 71.8126 24.5126 72.2072 25.3017C78.1258 24.3153 84.0937 26.6334 87.7929 31.4176C91.0974 35.6593 92.0839 41.2327 90.4562 46.3621C91.0974 46.9047 91.6893 47.5459 92.1825 48.187C96.3749 53.6124 95.3884 61.4053 90.0123 65.5977C88.3847 66.88 86.4119 67.7185 84.3403 68.0637C83.2553 72.1081 80.9371 75.5607 77.6819 78.1254C73.5389 81.3806 68.2121 82.7123 62.984 81.8739C62.9347 86.6581 64.0691 93.1686 69.3958 97.8048C69.4945 97.9034 69.5438 98.0514 69.5438 98.1994C69.4945 98.3473 69.3958 98.446 69.2972 98.4953C67.3736 99.0872 65.3514 99.3831 63.2799 99.3831ZM47.201 25.5977C42.762 25.5977 38.4217 27.0773 34.7719 29.8887C28.4587 34.8208 25.598 43.0083 27.5216 50.8011C27.5709 50.9491 27.5216 51.097 27.423 51.1957C23.0333 55.3387 22.5401 61.9972 26.2392 66.7321C27.0284 67.7185 27.9655 68.6063 29.0506 69.2968C29.1492 69.3461 29.1985 69.4941 29.2479 69.5927C29.3465 72.4534 30.3329 75.1168 32.1085 77.3856C34.5253 80.4928 38.1751 82.4164 42.1209 82.6137C42.3181 82.6137 42.4661 82.7616 42.4661 82.9096C43.5512 87.9404 47.0037 92.478 51.9359 95.4374C57.0161 98.446 63.0333 99.3831 68.508 97.9528C63.2306 93.0206 62.2442 86.2635 62.3428 81.43C62.3428 81.3313 62.3921 81.2327 62.4908 81.134C62.5894 81.0847 62.6881 81.0354 62.7867 81.0354C67.9162 82.0218 73.1936 80.7394 77.2873 77.5335C80.4932 75.0181 82.762 71.6149 83.7485 67.6198C83.7978 67.4719 83.8964 67.3732 84.0937 67.3239C86.1159 67.028 88.0395 66.2388 89.6178 65.0058C94.6979 61.06 95.5857 53.7604 91.6893 48.6803C91.1467 47.9898 90.5549 47.3486 89.8644 46.806C89.7164 46.7074 89.6671 46.5594 89.7657 46.3621C91.3934 41.3806 90.5056 36.0046 87.2996 31.8615C83.6992 27.2746 77.9285 25.0551 72.1578 26.0909C71.9606 26.1402 71.8126 26.0415 71.7139 25.8443C71.3687 25.0058 70.8755 24.2166 70.3329 23.4768C68.656 21.3067 66.2392 19.975 63.5265 19.6297C60.8138 19.2845 58.1505 20.0243 55.9803 21.7012C54.55 22.7863 53.4649 24.266 52.7744 25.9429C52.7251 26.1402 52.5278 26.2388 52.3305 26.1895C50.6535 25.8443 48.9273 25.5977 47.201 25.5977Z" fill="#E6E6E6"/>
<path d="M49.6178 58.1495L42.8113 59.7771L42.6634 59.0866C42.3674 57.9029 42.3181 56.9658 42.4168 56.1766C42.5154 55.3875 42.762 54.6477 43.1073 53.9078C43.5018 53.168 44.3896 51.8856 45.8693 49.9128C46.6584 48.877 46.9544 48.0385 46.8064 47.3974C46.6584 46.7562 46.3132 46.263 45.8693 46.0163C45.3761 45.7204 44.7842 45.7204 43.9951 45.8684C43.1566 46.0657 42.5154 46.5096 42.0715 47.2001C41.6276 47.8906 41.529 48.9756 41.6769 50.406L34.5253 51.1951C34.18 48.5811 34.6239 46.3123 35.857 44.3394C37.09 42.4158 39.4081 41.0348 42.762 40.2457C45.3761 39.6538 47.5956 39.7031 49.4698 40.3937C51.9852 41.3308 53.5635 43.057 54.106 45.5231C54.3526 46.5589 54.3033 47.5946 53.9581 48.6797C53.6128 49.7648 52.725 51.1951 51.344 52.9707C50.3576 54.2038 49.7657 55.1409 49.6178 55.8314C49.3711 56.4232 49.3711 57.2124 49.6178 58.1495ZM43.0086 61.602L50.3083 59.8758L51.8372 66.2876L44.4883 68.0632L43.0086 61.602Z" fill="#EBEBEB"/>
<path d="M66.979 43.7487L62.2441 42.3184L62.3921 41.8251C62.6387 41.036 62.9346 40.3948 63.2799 39.9509C63.6251 39.507 64.0197 39.1124 64.5129 38.8165C65.0061 38.5206 66.0419 38.0274 67.6202 37.3862C68.4587 37.0409 68.9519 36.6463 69.0999 36.2024C69.2478 35.7586 69.1985 35.364 69.0012 35.0187C68.8039 34.6735 68.4587 34.4269 67.8668 34.2789C67.2749 34.0816 66.7324 34.1309 66.2392 34.4269C65.746 34.7228 65.3021 35.3147 64.8582 36.2518L60.2219 34.1803C60.9124 32.454 61.9975 31.2209 63.4772 30.4811C64.9075 29.7413 66.831 29.7413 69.1492 30.4318C70.9741 30.9743 72.3058 31.8128 73.1936 32.8979C74.3773 34.3775 74.7225 35.9558 74.2293 37.6821C74.032 38.3726 73.6375 39.0138 73.0456 39.5563C72.4537 40.0989 71.418 40.6414 69.9383 41.2333C68.9026 41.6278 68.2121 42.0224 67.8668 42.3677C67.4229 42.6143 67.1763 43.1075 66.979 43.7487ZM61.7016 43.5514L66.7817 45.0804L65.4007 49.5687L60.3206 48.0397L61.7016 43.5514Z" fill="#EBEBEB"/>
<path d="M123.305 200C176.122 200 218.94 197.505 218.94 194.427C218.94 191.349 176.122 188.854 123.305 188.854C70.4868 188.854 27.6696 191.349 27.6696 194.427C27.6696 197.505 70.4868 200 123.305 200Z" fill="#F5F5F5"/>
<path d="M77.7312 111.171L77.2873 110.973C77.6819 109.987 77.9285 109.198 78.0271 108.507L78.5203 108.556C78.4217 109.296 78.1751 110.135 77.7312 111.171ZM77.5339 105.499C76.5968 103.378 74.8212 102.046 72.4044 101.651L72.5031 101.158C75.0678 101.602 76.9913 103.032 78.0271 105.252L77.5339 105.499Z" fill="#D1474E"/>
<path d="M74.9692 116.104L70.1356 118.323L69.9383 117.83C69.5438 116.991 69.3465 116.301 69.2972 115.709C69.2478 115.117 69.2972 114.525 69.4944 113.933C69.6917 113.342 70.185 112.207 70.9741 110.53C71.418 109.642 71.5166 109.001 71.3194 108.508C71.1221 108.064 70.8261 107.719 70.4316 107.62C70.037 107.472 69.5438 107.571 69.0012 107.818C68.4094 108.113 67.9655 108.508 67.7682 109.1C67.5709 109.692 67.6202 110.481 67.9655 111.517L62.7374 113.144C62.0962 111.221 62.0962 109.494 62.7374 107.818C63.3785 106.19 64.9075 104.809 67.275 103.724C69.1492 102.885 70.8261 102.589 72.3058 102.836C74.328 103.181 75.7583 104.217 76.5475 105.943C76.8927 106.683 76.9914 107.472 76.8927 108.311C76.7941 109.149 76.3502 110.382 75.561 111.911C75.0185 112.996 74.7226 113.785 74.6732 114.279C74.5253 114.871 74.6732 115.462 74.9692 116.104ZM70.5302 119.704L75.709 117.337L77.7805 121.924L72.6017 124.291L70.5302 119.704Z" fill="#D1474E"/>
<path d="M62.9346 127.101L60.4685 130.454L60.1726 130.208C59.5808 129.764 59.1862 129.369 58.9396 128.975C58.693 128.58 58.4957 128.136 58.397 127.692C58.2984 127.199 58.1997 126.262 58.1011 124.832C58.0518 124.092 57.9038 123.549 57.5586 123.352C57.2133 123.106 56.9174 123.007 56.5721 123.106C56.2762 123.155 55.9309 123.401 55.6843 123.796C55.3884 124.191 55.2404 124.684 55.3391 125.128C55.4377 125.621 55.783 126.114 56.3748 126.706L53.4155 129.813C52.2318 128.778 51.5906 127.544 51.3933 126.213C51.196 124.832 51.7386 123.352 52.9223 121.724C53.8594 120.442 54.8952 119.604 56.0296 119.209C57.5586 118.667 58.8903 118.864 60.1233 119.752C60.6165 120.097 61.0111 120.59 61.2577 121.231C61.5043 121.872 61.6523 122.81 61.7016 124.191C61.7509 125.128 61.8496 125.769 61.9975 126.163C62.1948 126.41 62.4907 126.755 62.9346 127.101ZM61.307 131.194L63.9704 127.594L67.127 129.912L64.4636 133.512L61.307 131.194Z" fill="#D1474E"/>
<path d="M115.462 192.651C114.673 192.651 113.884 192.207 113.49 191.467C111.517 187.62 109.001 183.132 104.513 178.298C103.97 177.707 103.822 176.917 104.02 176.178C105.697 170.407 108.311 162.515 108.311 162.417C108.705 161.233 109.938 160.641 111.122 161.036C112.306 161.43 112.898 162.663 112.503 163.847C112.503 163.896 110.234 170.703 108.607 176.276C112.75 180.962 115.265 185.401 117.386 189.494C117.928 190.58 117.534 191.911 116.449 192.454C116.153 192.552 115.808 192.651 115.462 192.651Z" fill="#D1474E"/>
<path d="M119.162 194.425H101.998L111.073 189.246L118.718 189.542L119.162 194.425Z" fill="#263238"/>
<path d="M117.501 173.654C125.301 171.216 129.984 163.992 127.961 157.518C125.937 151.044 117.974 147.772 110.174 150.209C102.374 152.647 97.6907 159.871 99.714 166.345C101.737 172.819 109.701 176.092 117.501 173.654Z" fill="#263238"/>
<path d="M74.8211 153.834C73.9334 153.834 73.1442 153.341 72.799 152.453C72.3551 151.319 72.8483 150.036 73.9827 149.543C75.265 149.001 75.4623 147.718 75.4623 147.669C75.561 146.683 76.3008 145.893 77.2872 145.696C77.8298 145.597 78.323 145.449 78.9149 145.302C81.9235 144.414 85.6226 143.329 97.3119 146.633C108.853 140.172 108.952 128.088 108.952 127.546C108.952 126.313 109.938 125.326 111.171 125.326C112.404 125.326 113.391 126.313 113.391 127.496C113.391 128.138 113.341 143.329 98.5943 150.924C98.101 151.171 97.5092 151.22 96.9666 151.072C85.8199 147.866 82.6633 148.754 80.1479 149.494C79.9013 149.543 79.704 149.642 79.4574 149.691C78.9149 151.072 77.7805 152.7 75.7089 153.588C75.3637 153.785 75.0678 153.834 74.8211 153.834Z" fill="#263238"/>
<path d="M100.666 138.002C96.4734 121.331 85.2774 78.2729 121.134 75.6589C153.292 73.2914 162.121 116.103 164.242 130.899C165.475 139.531 165.919 147.373 165.968 153.489C166.067 161.38 160.493 168.187 152.75 169.765C135.24 173.316 118.668 173.809 107.521 169.42C104.513 168.236 102.688 165.129 102.984 161.923C103.378 157.188 103.378 148.951 100.666 138.002Z" fill="#D1474E"/>
<path opacity="0.1" d="M164.242 130.949C162.219 116.991 154.279 78.1744 126.412 75.7083C123.157 75.4124 120 77.04 118.471 79.9007C117.238 82.3174 117.287 85.2274 119.112 88.0881C125.228 97.6072 139.877 130.505 137.657 148.409C136.671 156.547 131.541 163.057 135.98 172.231C141.356 171.787 146.979 170.949 152.7 169.765C160.444 168.187 165.968 161.38 165.919 153.489C165.919 147.422 165.475 139.58 164.242 130.949Z" fill="black"/>
<path d="M159.408 153.735C159.309 153.735 159.211 153.636 159.211 153.537C159.112 145.892 158.52 138.346 157.485 130.948C152.158 94.1045 137.805 75.5101 116.005 77.0884C115.906 77.0884 115.758 76.9898 115.758 76.8912C115.758 76.7925 115.857 76.6445 115.956 76.6445C138.052 75.0169 152.552 93.7592 157.928 130.849C159.014 138.247 159.605 145.843 159.655 153.488C159.655 153.636 159.556 153.735 159.408 153.735Z" fill="#263238"/>
<path d="M159.082 174.843C166.882 172.406 171.565 165.181 169.542 158.707C167.519 152.233 159.555 148.961 151.755 151.399C143.955 153.836 139.272 161.061 141.295 167.535C143.319 174.009 151.282 177.281 159.082 174.843Z" fill="#263238"/>
<path d="M160.444 192.651C159.655 192.651 158.866 192.207 158.471 191.467C156.498 187.62 153.983 183.132 149.494 178.298C148.952 177.707 148.804 176.917 149.001 176.178C150.678 170.407 153.292 162.515 153.292 162.417C153.687 161.233 154.92 160.641 156.103 161.036C157.287 161.43 157.879 162.663 157.485 163.847C157.485 163.896 155.216 170.703 153.588 176.276C157.731 180.962 160.247 185.401 162.367 189.494C162.91 190.58 162.515 191.911 161.43 192.454C161.134 192.552 160.789 192.651 160.444 192.651Z" fill="#D1474E"/>
<path d="M155.808 125.177C155.018 125.177 154.229 124.733 153.835 123.993C153.292 122.908 153.687 121.577 154.772 120.985C155.216 120.738 164.833 115.51 167.546 102.834C161.134 100.171 149.593 94.1044 147.078 91.0464C146.831 90.7505 146.683 90.4053 146.584 90.0107C146.535 89.6654 146.091 87.0514 147.078 84.5853L145.894 82.3165C145.351 81.2314 145.746 79.8997 146.831 79.3572C147.916 78.8146 149.248 79.2092 149.79 80.2943L151.467 83.5495C151.813 84.24 151.813 85.0785 151.369 85.7197C150.826 86.5582 150.777 87.8405 150.826 88.6297C153.687 91.1944 165.129 97.261 170.752 99.3818C171.739 99.7271 172.33 100.763 172.182 101.799C169.667 117.976 157.337 124.635 156.794 124.881C156.498 125.128 156.153 125.177 155.808 125.177Z" fill="#263238"/>
<path d="M148.755 90.8004C148.557 90.8004 148.36 90.7511 148.163 90.6031C147.67 90.2578 147.522 89.5673 147.817 89.0741C147.916 88.9755 149.741 86.2135 152.503 85.4736C153.095 85.3257 153.687 85.6709 153.835 86.2628C153.983 86.8546 153.637 87.4465 153.046 87.5945C151.122 88.137 149.642 90.2578 149.642 90.3072C149.445 90.6031 149.1 90.8004 148.755 90.8004Z" fill="#263238"/>
<path d="M164.143 194.425H146.979L156.054 189.246L163.699 189.542L164.143 194.425Z" fill="#263238"/>
<path d="M128.186 128.342C134.671 127.768 139.509 122.574 138.993 116.74C138.477 110.907 132.801 106.643 126.316 107.217C119.831 107.791 114.993 112.985 115.509 118.819C116.025 124.652 121.701 128.916 128.186 128.342Z" fill="white"/>
<path d="M126.01 124.506C127.739 124.013 128.414 121.065 127.519 117.922C126.623 114.778 124.496 112.629 122.767 113.122C121.038 113.614 120.362 116.562 121.258 119.706C122.153 122.849 124.281 124.998 126.01 124.506Z" fill="#263238"/>
<path d="M113.835 119.753C121.282 118.816 136.03 114.574 138.446 112.897C136.523 107.275 127.596 102.49 119.655 105.203C112.454 107.62 113.835 119.753 113.835 119.753Z" fill="#263238"/>
<path d="M115.265 123.353C124.488 121.578 136.523 118.668 139.975 116.744C139.778 122.761 138.003 128.877 128.582 130.949C120.888 132.626 115.265 123.353 115.265 123.353Z" fill="#263238"/>
<path d="M107.653 129.141C110.993 126.932 111.434 121.715 108.638 117.489C105.842 113.264 100.869 111.63 97.5291 113.839C94.1895 116.049 93.7487 121.265 96.5444 125.491C99.3402 129.716 104.314 131.351 107.653 129.141Z" fill="white"/>
<path d="M102.737 121.628C103.28 124.291 102.836 126.461 101.652 126.56C100.518 126.659 99.0875 124.538 98.545 121.924C98.0025 119.26 98.4464 117.09 99.6301 116.992C100.814 116.893 102.195 119.014 102.737 121.628Z" fill="#263238"/>
<path d="M93.5635 120.641C98.545 121.233 108.459 120.592 110.136 119.655C108.903 114.871 102.984 109.445 97.6572 110.136C92.8236 110.777 93.5635 120.641 93.5635 120.641Z" fill="#263238"/>
<path d="M94.5006 123.748C100.715 124.044 108.804 123.896 111.122 123.008C110.925 127.743 109.642 132.28 103.329 132.182C98.1504 132.132 94.5006 123.748 94.5006 123.748Z" fill="#263238"/>
<path d="M130.259 102.194C120.937 102.194 114.772 97.6067 114.427 97.3601C113.44 96.6203 113.243 95.2393 113.983 94.2528C114.723 93.2664 116.104 93.0691 117.09 93.8089C117.189 93.9076 124.538 99.2343 134.747 97.3108C135.931 97.0642 137.115 97.8533 137.312 99.0864C137.559 100.27 136.769 101.454 135.536 101.651C133.711 102.046 131.936 102.194 130.259 102.194Z" fill="#263238"/>
<path d="M90.7029 98.3958C90.4562 98.3958 90.2096 98.3465 89.963 98.2478C88.8286 97.8533 88.2368 96.5709 88.6313 95.4365C89.8151 92.1813 91.7386 90.0604 94.402 89.1233C99.2355 87.4464 104.414 90.7016 104.661 90.8496C105.697 91.4907 105.993 92.8718 105.351 93.9075C104.71 94.9433 103.329 95.2392 102.293 94.598C101.307 93.9568 98.1505 92.5265 95.8323 93.3157C94.5006 93.7596 93.5142 94.9433 92.7744 96.9161C92.4291 97.8533 91.5907 98.3958 90.7029 98.3958Z" fill="#263238"/>
<path d="M108.113 135.734C108.064 135.734 108.015 135.734 107.916 135.684C107.571 135.586 107.374 135.24 107.472 134.895C107.472 134.846 107.916 133.415 109.741 132.478C112.256 131.147 116.153 131.443 121.233 133.268C121.578 133.415 121.776 133.761 121.628 134.106C121.48 134.451 121.134 134.649 120.789 134.501C114.969 132.38 111.911 132.824 110.431 133.613C109.1 134.254 108.804 135.191 108.804 135.24C108.656 135.536 108.409 135.734 108.113 135.734Z" fill="#263238"/>
<path d="M87.2502 133.316C74.3772 134.451 65.1541 139.827 65.1541 139.827C68.9518 139.087 82.614 155.955 86.1158 168.976C92.577 166.559 100.123 164.932 108.163 163.649C103.28 150.234 94.3526 135.043 87.2502 133.316Z" fill="#D1474E"/>
<path opacity="0.6" d="M87.2502 133.316C74.3772 134.451 65.1541 139.827 65.1541 139.827C68.9518 139.087 82.614 155.955 86.1158 168.976C92.577 166.559 100.123 164.932 108.163 163.649C103.28 150.234 94.3526 135.043 87.2502 133.316Z" fill="white"/>
<path d="M87.2503 133.316C78.8162 132.379 65.1541 139.432 65.1541 139.432C62.7373 140.961 63.3785 143.871 64.7102 145.104C65.9926 143.279 80.0986 138.544 85.4254 137.903C82.762 135.437 85.2281 133.661 87.2503 133.316Z" fill="#D1474E"/>
<path opacity="0.2" d="M87.2503 133.316C78.8162 132.379 65.1541 139.432 65.1541 139.432C62.7373 140.961 63.3785 143.871 64.7102 145.104C65.9926 143.279 80.0986 138.544 85.4254 137.903C82.762 135.437 85.2281 133.661 87.2503 133.316Z" fill="white"/>
<path d="M74.8212 153.834C74.0814 153.834 73.3909 153.489 72.947 152.848C71.3193 150.381 72.3551 146.633 72.5524 145.893C72.8977 144.709 74.1307 144.068 75.3144 144.413C76.4981 144.759 77.1393 145.992 76.7941 147.175C76.4488 148.409 76.3502 149.987 76.6461 150.431C77.3366 151.467 77.0407 152.848 76.0049 153.489C75.6104 153.735 75.2158 153.834 74.8212 153.834Z" fill="#263238"/>
</g>
<defs>
<clipPath id="clip0_10308_81407">
<rect width="246.609" height="200" fill="white"/>
</clipPath>
</defs>
</svg>
