<svg width="2144" height="1601" viewBox="0 0 2144 1601" fill="none" xmlns="http://www.w3.org/2000/svg">
<g clip-path="url(#clip0_10007_71431)">
<g opacity="0.5">
<path d="M2043.4 1207.2C1997.8 1072.9 1875.6 962.702 1734.4 949.302C1601.1 936.602 1472.4 1005.9 1338.5 1007.2C1122 1009.2 942.3 837.402 730.2 793.902C483.7 743.302 211.7 896.502 127 1133.5C72.4002 1286.5 100.3 1462 187 1598.6H2004.4C2066.3 1478.6 2086.7 1334.8 2043.4 1207.2Z" fill="#F0F3EE"/>
</g>
<path d="M346 1228.7C521.7 1201.3 677.7 1075.9 744.9 911.801C759 877.301 769 841.601 775.6 805.301C774.3 804.901 772.9 804.501 771.6 804.201C767.1 828.601 761.3 852.801 753.5 876.601C726.1 960.901 675.4 1036.6 609.9 1096.1C544.8 1155.2 465.1 1198.4 379.3 1218.3C290.5 1238.9 196.6 1233.1 110 1205.2C109.2 1205 108.5 1204.7 107.7 1204.4C107.4 1205.7 107.2 1207 107 1208.3C183.8 1233.3 266 1241.2 346 1228.7Z" fill="#000000"/>
<path d="M631.4 1347.3C762.5 1364.8 897.2 1374.2 1026.8 1341C1085.6 1325.9 1142.4 1302 1192.1 1267.1C1242.1 1232 1283.4 1186.1 1316.2 1134.8C1342.4 1093.8 1362.9 1050.1 1379.3 1004.9C1377.9 1005 1376.4 1005.2 1375 1005.3C1363.8 1035.9 1350.7 1065.8 1335.1 1094.8C1304.9 1150.9 1265.7 1202.7 1216.5 1243.5C1168 1283.8 1110.6 1312.1 1050.4 1330.3C923.3 1368.8 788.6 1363 658.3 1346.8C515.9 1329 373.3 1299 229 1305.4C185.9 1307.3 142.2 1312.5 99.6001 1321.8C99.7001 1323.2 99.7001 1324.6 99.8001 1326C134.6 1318.3 170 1313.4 205.3 1310.8C348.3 1300.4 490.3 1328.4 631.4 1347.3Z" fill="#000000"/>
<path d="M1914.7 1441.5C1864.3 1430.4 1814.6 1415 1768.6 1391.4C1725.8 1369.3 1685.4 1340 1656.8 1300.7C1627.4 1260.3 1613.4 1211.4 1617.7 1161.6C1625.8 1070.1 1685.4 996.9 1762.5 953.4C1760.5 953 1758.6 952.7 1756.6 952.4C1691.9 989.8 1640.3 1047.1 1620.6 1122.4C1608 1170.4 1610.9 1221.4 1632 1266.6C1652.2 1310 1687 1344.7 1726.3 1371.1C1767.8 1399 1814.7 1418.6 1862.7 1432.4C1920.2 1449 1979.6 1459.2 2039.3 1463C2044.1 1463.3 2048.9 1463.5 2053.7 1463.7C2054 1462.4 2054.3 1461.1 2054.6 1459.7C2007.5 1457.6 1960.7 1451.6 1914.7 1441.5Z" fill="#000000"/>
<path d="M866.1 907.401C875.2 888.201 885.4 869.501 896.5 851.501C895.3 850.901 894 850.401 892.8 849.801C884.8 862.801 877.3 876.001 870.4 889.601C853.1 923.401 839.2 959.001 829 995.601C817.9 1035.6 808.5 1079.5 818.8 1120.7C826.7 1152.5 847.5 1182.2 879.2 1193.6C915 1206.5 953.9 1193.1 985.6 1175.6C1020.1 1156.5 1051.8 1130.9 1081.7 1105.3C1111.8 1079.5 1140.2 1051.8 1166.7 1022.3C1177.4 1010.4 1187.7 998.201 1197.7 985.801C1196.3 985.401 1194.9 985.001 1193.5 984.501C1145.1 1044.3 1089.2 1098 1027 1143.6C995.1 1167 959.2 1190.6 918.9 1194.3C878.8 1198 845.2 1174.9 829.3 1138.8C811.7 1098.7 818.9 1053.1 829 1012.1C837.7 976.101 850.3 940.901 866.1 907.401Z" fill="#000000"/>
<path d="M1943.7 1337C1985.2 1339.2 2026.8 1328.9 2064.8 1310.8C2064.7 1309.6 2064.6 1308.4 2064.5 1307.2C2033 1322.1 1999 1331.3 1963.5 1333C1923.7 1334.9 1883.1 1324.5 1853.5 1296.9C1826.8 1272 1813.4 1235.7 1823.6 1199.9C1828.1 1184 1837.1 1169.1 1850 1158.6C1866.8 1145 1888.5 1141.5 1909.5 1140.9C1928.4 1140.3 1947.4 1141.7 1966.2 1139.3C1979.9 1137.5 1993.3 1133.8 2006.1 1128.3C2005.4 1127.2 2004.7 1126 2004 1124.9C1999.8 1126.7 1995.6 1128.3 1991.3 1129.6C1952.5 1142 1911 1130 1872.5 1142.3C1842.4 1151.9 1822.4 1178.8 1817.4 1209.4C1812.1 1241.5 1824.1 1272.7 1846.5 1295.7C1872.1 1321.8 1907.5 1335 1943.7 1337Z" fill="#000000"/>
<path d="M1561.9 1469.1C1543.9 1426.3 1525.9 1383.4 1508 1340.6C1495.4 1310.6 1482.2 1278 1455 1258.1C1426.3 1237.2 1387.4 1237.2 1355.3 1250C1321.3 1263.6 1294.3 1290 1271.2 1317.7C1225.3 1372.9 1192.3 1438.5 1174 1507.8C1166.2 1537.5 1161 1567.9 1158.7 1598.5H1162.8C1169.7 1508.9 1200.6 1421.1 1253 1347.7C1274.4 1317.7 1299.4 1287.8 1330.5 1267.4C1362.5 1246.4 1405.2 1236.3 1441 1254.1C1473.7 1270.4 1489.2 1306 1502.6 1337.8C1519.3 1377.6 1536 1417.3 1552.7 1457.1C1572.5 1504.2 1592.3 1551.3 1612 1598.4H1616.3C1598.2 1555.5 1580.1 1512.3 1561.9 1469.1Z" fill="#000000"/>
<g opacity="0.5">
<path d="M1391.8 720.201C1365.9 721.001 1339.8 719.901 1309.7 709.001C1245.5 685.701 1165.5 723.901 1164.9 798.001C1164.5 855.501 1217.4 893.601 1266.4 911.101C1358.8 944.201 1550.2 926.801 1541.2 789.501C1538.3 745.601 1515 725.101 1472.9 720.301C1443.2 716.801 1417.5 719.401 1391.8 720.201Z" fill="#F0F3EE"/>
</g>
<path d="M1737.5 341.4C1712.3 332.7 1695.1 317.6 1675.7 295.4L1683.9 277.9C1704.3 304.9 1710.9 319.5 1736.4 317.4L1737.5 341.4Z" fill="#FFB900"/>
<path d="M2026.7 728.9C2008 704.5 1999.6 679.5 1992.7 646.7L2008.7 636.1C2014.2 674 2013.2 691.7 2037.4 706.3L2026.7 728.9Z" fill="#007BFF"/>
<path d="M1399.1 407.2C1372.6 413.8 1350.5 410 1323.5 401.1L1323.4 380.6C1353.4 393.3 1365.7 402.7 1387.8 386.1L1399.1 407.2Z" fill="#14CCA1"/>
<path d="M717.3 323.6C704.8 341.4 690.7 351 671.7 360.2L663.6 348.5C685.7 339.8 696.4 338.7 702.5 317.5L717.3 323.6Z" fill="#FF5C33"/>
<path d="M281.1 842.501C251.3 844.001 229 835.801 202.8 821.301L208.2 800.301C236.5 819.201 247 831.301 274.8 818.701L281.1 842.501Z" fill="#007BFF"/>
<path d="M335.4 331.801C312.7 315.301 300.8 295.001 289.4 267.201L304.9 252.701C315.4 285.501 316.5 301.901 343.8 308.001L335.4 331.801Z" fill="#14CCA1"/>
<path d="M471.4 514.101C445.6 532.101 421.4 537.301 390.2 539.301L383.8 517.801C419.2 518.601 435 523.301 453 496.701L471.4 514.101Z" fill="#007BFF"/>
<path d="M840.2 18.2004C814.4 33.4004 790.7 36.4004 760.7 35.8004L755.8 14.6004C789.7 18.2004 804.6 24.0004 823.6 -0.0996094L840.2 18.2004Z" fill="#FFB900"/>
<path d="M1206.3 70.6008C1184.8 60.0008 1170.8 44.6008 1155.6 22.8008L1164.4 8.30078C1180.1 34.5008 1184.7 48.2008 1207.4 49.3008L1206.3 70.6008Z" fill="#14CCA1"/>
<path d="M1541.4 154.601C1565 140.701 1578 122.601 1591.1 97.4008L1576.7 82.8008C1564.2 112.801 1562.1 128.001 1534.6 131.801L1541.4 154.601Z" fill="#FF5C33"/>
<g opacity="0.837">
<path d="M765.8 900.201C742 886.101 727.3 867.201 711.5 840.901L722.5 825.201C738.5 856.501 742.8 872.601 768.6 876.001L765.8 900.201Z" fill="#FF5C33"/>
</g>
<path d="M1551.4 687.3C1541.9 716.7 1527.4 736.2 1506.4 757.9L1491.4 746.9C1516.7 724.4 1530.1 717.5 1530 687L1551.4 687.3Z" fill="#FF5C33"/>
<path d="M576 210C581.523 210 586 205.523 586 200C586 194.477 581.523 190 576 190C570.477 190 566 194.477 566 200C566 205.523 570.477 210 576 210Z" fill="#FF5C33"/>
<path d="M1370.7 210C1376.22 210 1380.7 205.523 1380.7 200C1380.7 194.477 1376.22 190 1370.7 190C1365.18 190 1360.7 194.477 1360.7 200C1360.7 205.523 1365.18 210 1370.7 210Z" fill="#FFB900"/>
<path d="M1632 514.701C1637.52 514.701 1642 510.224 1642 504.701C1642 499.178 1637.52 494.701 1632 494.701C1626.48 494.701 1622 499.178 1622 504.701C1622 510.224 1626.48 514.701 1632 514.701Z" fill="#FF5C33"/>
<path d="M592 616C597.523 616 602 611.523 602 606C602 600.477 597.523 596 592 596C586.477 596 582 600.477 582 606C582 611.523 586.477 616 592 616Z" fill="#14CCA1"/>
<path d="M136.139 498.292L116.128 518.303L136.139 538.314L156.15 518.303L136.139 498.292Z" fill="#FFB900"/>
<path d="M1872.82 465.555L1852.81 485.566L1872.82 505.577L1892.83 485.566L1872.82 465.555Z" fill="#14CCA1"/>
<path d="M1183.5 1198.1L1015 1198.3V1159C1015 1145.1 1026.2 1133.8 1040.1 1133.8L1158.3 1133.7C1172.2 1133.7 1183.5 1144.9 1183.5 1158.8V1198.1Z" fill="#FFB900"/>
<path d="M1153.7 963.201H1044.7V1156.2H1153.7V963.201Z" fill="#FFB900"/>
<path d="M1044.7 1046.6V963.201H1153.7L1153.6 1003.7L1044.7 1046.6Z" fill="#E8950C"/>
<path d="M1286.7 814.301L1279.7 791.301C1407.3 752.701 1461.4 672.801 1445.1 547.201C1444.9 547.001 1443.6 546.201 1441.9 546.701L1424.3 551.501C1417.3 553.401 1412.5 558.701 1412.5 564.601V591.801C1412.5 608.301 1398.6 621.501 1380.8 621.901C1362.4 622.301 1330.9 622.801 1326.8 622.801V598.801C1329.7 598.801 1349.7 598.401 1380.4 597.901C1384.8 597.801 1388.6 595.001 1388.6 591.801V564.601C1388.6 547.701 1400.5 533.101 1418.1 528.301L1435.7 523.501C1443.4 521.401 1451.6 522.701 1458.2 527.101C1464.2 531.101 1468.1 537.301 1469 544.101C1477.6 610.101 1468 665.901 1440.4 709.701C1410.6 757.301 1358.9 792.501 1286.7 814.301Z" fill="#FFB900"/>
<path d="M911.6 814.301C839.4 792.501 787.7 757.301 757.9 709.801C730.4 665.901 720.8 610.201 729.3 544.201C730.2 537.401 734.1 531.201 740.1 527.201C746.7 522.801 754.9 521.501 762.6 523.601L780.2 528.401C797.8 533.201 809.7 547.701 809.7 564.701V591.901C809.7 595.101 813.5 597.901 817.9 598.001C848.6 598.601 868.6 598.901 871.5 598.901V622.901C867.3 622.901 835.8 622.301 817.5 622.001C799.7 621.701 785.8 608.501 785.8 591.901V564.701C785.8 558.801 781.1 553.501 774 551.601L756.4 546.801C754.7 546.301 753.4 547.101 753.2 547.501C737 672.901 791.1 752.801 918.7 791.401L911.6 814.301Z" fill="#FFB900"/>
<path d="M1339.2 549.701L1313.1 875.401C1310 914.401 1290.9 948.701 1262.7 971.901C1238.6 991.701 1207.7 1003.6 1174.2 1003.6H1024.3C951.7 1003.6 891.2 947.801 885.4 875.401L871.9 706.401L859.3 549.701C857.3 525.201 876.7 504.201 901.3 504.201H1297.1C1321.7 504.201 1341.1 525.201 1339.2 549.701Z" fill="#FFB900"/>
<path d="M1262.7 971.9C1238.6 991.7 1207.7 1003.6 1174.2 1003.6H1024.3C951.7 1003.6 891.2 947.8 885.4 875.4L871.9 706.4C966.8 826.3 1118.2 929.2 1262.7 971.9Z" fill="#E8950C"/>
<path d="M1180.5 1001.6H1024.3V1005.6H1180.5V1001.6Z" fill="#001F40"/>
<path d="M1069.1 1131.8H1040.1V1135.8H1069.1V1131.8Z" fill="#001F40"/>
<path d="M1159.1 1131.8H1130.1V1135.8H1159.1V1131.8Z" fill="#001F40"/>
<path d="M1222.7 1293.3L975.7 1293.6L975.6 1228.4C975.6 1204.1 995.3 1184.3 1019.6 1184.3L1178.4 1184.1C1202.7 1184.1 1222.5 1203.8 1222.5 1228.1L1222.7 1293.3Z" fill="#FFB900"/>
<path d="M1183.3 1182.7H1015.1V1186.7H1183.3V1182.7Z" fill="#E8950C"/>
<path opacity="0.6" d="M1227.6 687.701C1239.75 687.701 1249.6 668.449 1249.6 644.701C1249.6 620.953 1239.75 601.701 1227.6 601.701C1215.45 601.701 1205.6 620.953 1205.6 644.701C1205.6 668.449 1215.45 687.701 1227.6 687.701Z" fill="white"/>
<path d="M1705.3 1496.3H493.9V1599.3H1705.3V1496.3Z" fill="white"/>
<path d="M1505.2 1393.4H694.1V1496.4H1505.2V1393.4Z" fill="white"/>
<path d="M1364.9 1290.4H834.4V1393.4H1364.9V1290.4Z" fill="white"/>
<path d="M1398 1496.3H801.2V1599.3H1398V1496.3Z" fill="#000000"/>
<path d="M1312.2 1393.3H887.2V1496.3H1312.2V1393.3Z" fill="#000000"/>
<path d="M1224 1290.4H975.3V1393.4H1224V1290.4Z" fill="#000000"/>
<path opacity="0.1" d="M975.3 1369.3H834.4V1393.3H975.3V1369.3Z" fill="#003E80"/>
<path opacity="0.1" d="M1364.9 1369.3H1224V1393.3H1364.9V1369.3Z" fill="#003E80"/>
<path opacity="0.3" d="M1224 1369.3H975.3V1393.3H1224V1369.3Z" fill="#121243"/>
<path opacity="0.1" d="M887.1 1472.2H694.1V1496.2H887.1V1472.2Z" fill="#003E80"/>
<path opacity="0.1" d="M1505.1 1472.2H1312.1V1496.2H1505.1V1472.2Z" fill="#003E80"/>
<path opacity="0.3" d="M1312.2 1472.2H887.2V1496.2H1312.2V1472.2Z" fill="#121243"/>
<path opacity="0.1" d="M801.2 1575.3H493.9V1599.3H801.2V1575.3Z" fill="#003E80"/>
<path opacity="0.1" d="M1705.3 1575.3H1398V1599.3H1705.3V1575.3Z" fill="#003E80"/>
<path opacity="0.3" d="M1398 1575.3H801.2V1599.3H1398V1575.3Z" fill="#121243"/>
<path d="M495.9 1599.3H491.9V1494.3L692.1 1494.2V1391.4L832.4 1391.3V1288.4H974.3V1292.4H836.4V1395.3L696.1 1395.4V1498.2L495.9 1498.3V1599.3Z" fill="#95BEFF"/>
<path d="M1707.3 1599.3H1703.3V1498.3L1503.2 1498.2V1395.4L1362.9 1395.3V1292.4H1222.7V1288.4H1366.9V1391.3L1507.2 1391.4V1494.2L1707.3 1494.3V1599.3Z" fill="#95BEFF"/>
<path d="M1074.3 593.701L1059.4 643.201L1117.6 661.501L1098.1 629.001L1103.8 600.401L1074.3 593.701Z" fill="#121243"/>
<path d="M1097.18 627.229L1085.43 633.01L1087.19 636.599L1098.95 630.818L1097.18 627.229Z" fill="white"/>
<path d="M1064 439.302L1105 443.202C1113.4 444.002 1121.7 446.802 1128.3 452.002C1141.3 462.102 1146.4 477.802 1143.6 493.802C1142.9 497.902 1142 501.802 1141.4 505.002L1107.9 623.902L1057.1 596.802L1079.8 508.302L1028.2 506.702L1000.1 447.702L1010.3 400.602L1064 439.302Z" fill="#000000"/>
<path d="M1056.9 647.002L1044.2 701.102L1108.1 716.902L1085 683.202L1089.2 652.102L1056.9 647.002Z" fill="#121243"/>
<path d="M1083.97 681.506L1071.74 688.527L1073.73 691.996L1085.96 684.974L1083.97 681.506Z" fill="white"/>
<path d="M1002.3 507.501L1046.2 667.501L1095.5 661.901L1066.7 492.301C1063.9 477.501 1063.3 468.401 1040.7 457.201L1016.5 443.801L1010.3 400.701L973.6 424.601L967.7 480.801C966.3 494.401 976.4 506.401 989.8 507.001L1002.3 507.501Z" fill="#000000"/>
<path d="M1066.1 438.502L993 446.802C984.8 447.702 977.5 441.902 976.5 433.702L963.8 325.502L1024.7 310.602L1089.3 320.302L1077.4 427.102C1076.8 433.102 1072.1 437.802 1066.1 438.502Z" fill="white"/>
<path d="M914.1 196.201C914.1 196.201 919.8 168.301 915.4 169.301C911 170.301 906.5 181.001 906.5 181.001C906.5 181.001 896.8 157.801 893.1 158.001C889.4 158.201 890.5 164.101 890.5 164.101C890.5 164.101 883.6 160.801 881.8 167.601C881.8 167.601 874.9 164.301 874.9 177.001C874.9 181.601 878.6 197.601 883.3 216.101L916.4 203.501L914.1 196.201Z" fill="#FFBA9A"/>
<path d="M939.6 267.702L916.4 203.602L883.3 216.202C889.1 239.002 896.4 265.702 900.2 279.402C901.9 285.402 904.9 291.002 909.1 295.602L975.5 374.702L1004.2 334.002L939.6 267.702Z" fill="#121243"/>
<path d="M902.1 193.801C898.8 189.901 899.1 186.201 902.9 182.701L903.6 183.401C900.2 186.501 900 189.701 902.9 193.101L902.1 193.801Z" fill="#974245"/>
<path d="M890.123 163.918L889.178 164.246L893.897 177.851L894.841 177.524L890.123 163.918Z" fill="#974245"/>
<path d="M886.8 179.902L882.6 167.502L883.6 167.102L887.7 179.602L886.8 179.902Z" fill="#974245"/>
<path d="M882.3 183.401L877.1 169.101L878 168.701L883.3 183.101L882.3 183.401Z" fill="#974245"/>
<path d="M1171.1 156.901C1170.4 144.301 1161.8 146.801 1161.8 146.801C1160.1 141.301 1154.7 145.001 1154.7 145.001C1154.7 145.001 1155 141.301 1151.3 141.301C1147.6 141.301 1139.9 162.801 1139.9 162.801C1139.9 162.801 1134.7 152.401 1130.2 151.701C1125.7 151.001 1133.2 178.401 1133.2 178.401L1131.1 187.001L1164.7 198.801C1168.4 179.101 1171.4 161.701 1171.1 156.901Z" fill="#FFBA9A"/>
<path d="M1131.1 187.102L1111.7 252.702L1055.7 327.402L1087.7 360.702L1144.5 277.302C1148.4 272.402 1151.1 266.702 1152.3 260.502C1155.1 247.102 1160.5 221.502 1164.7 198.902L1131.1 187.102Z" fill="#121243"/>
<path d="M1145.4 175.4L1144.6 174.8C1147.1 171.1 1146.5 167.9 1142.8 165.2L1143.4 164.4C1147.6 167.5 1148.3 171.2 1145.4 175.4Z" fill="#974245"/>
<path d="M1154.06 144.457L1150.81 158.484L1151.78 158.71L1155.03 144.683L1154.06 144.457Z" fill="#974245"/>
<path d="M1160.94 146.955L1158.13 159.748L1159.11 159.963L1161.92 147.17L1160.94 146.955Z" fill="#974245"/>
<path d="M1164 163L1163 162.7L1166.7 147.9L1167.6 148.1L1164 163Z" fill="#974245"/>
<path d="M1023.9 328.602C1016.9 328.602 1011.2 322.902 1011.2 315.902V293.402H1036.5V316.002C1036.5 323.002 1030.9 328.602 1023.9 328.602Z" fill="#FFBA9A"/>
<path d="M1036.2 296.701C1032.2 310.801 1016 311.401 1011 296.701H1036.2Z" fill="#121243"/>
<path d="M1023.9 302.301C1034.23 302.301 1042.6 292.541 1042.6 280.501C1042.6 268.461 1034.23 258.701 1023.9 258.701C1013.57 258.701 1005.2 268.461 1005.2 280.501C1005.2 292.541 1013.57 302.301 1023.9 302.301Z" fill="#FFBA9A"/>
<path d="M1006.7 280.902C1007.8 265.902 1017.7 262.302 1017.7 262.302L1030.6 262.102C1035.9 266.102 1040.4 273.602 1040.7 281.402L1045.1 281.202C1047.9 266.502 1045.4 252.102 1036.9 248.802L1041.1 246.702C1006 238.902 997.3 253.002 1001.5 277.602L1006.7 280.902Z" fill="#121243"/>
<path d="M1009.1 279.502C1010.5 282.402 1009.5 285.802 1007 287.002C1004.4 288.202 1001.2 286.802 999.8 283.902C998.4 281.002 999.4 277.602 1001.9 276.402C1004.5 275.102 1007.7 276.502 1009.1 279.502Z" fill="#FFBA9A"/>
<path d="M1005.3 283.202C1004.7 281.502 1003.6 280.402 1001.9 279.802L1002.2 279.002C1004.2 279.702 1005.5 281.002 1006.2 283.002L1005.3 283.202Z" fill="#121243"/>
<path d="M1039.3 279.502C1037.9 282.402 1038.9 285.802 1041.4 287.002C1044 288.202 1047.2 286.802 1048.6 283.902C1050 281.002 1049 277.602 1046.5 276.402C1043.9 275.102 1040.7 276.502 1039.3 279.502Z" fill="#FFBA9A"/>
<path d="M1043 283.202L1042.2 282.902C1042.9 280.902 1044.2 279.602 1046.2 278.902L1046.5 279.702C1044.7 280.302 1043.6 281.502 1043 283.202Z" fill="#121243"/>
<path d="M1010.9 314C1023.9 357.8 1019.5 424.7 1004.7 474.8L952 483L963.9 325.5L1010.9 314Z" fill="#121243"/>
<path d="M1036.4 312.5C1040.4 363.2 1049.8 436.6 1068.5 471.7L1100.4 455.4L1089.4 320.3L1036.4 312.5Z" fill="#121243"/>
<path d="M1094.4 662.101C1094.1 660.401 1066.6 491.801 1062.2 477.501C1057.9 463.601 1030.1 452.201 1029.8 452.101L1030.6 450.201C1031.8 450.701 1059.6 462.001 1064.2 476.801C1068.7 491.201 1095.4 654.701 1096.5 661.701L1094.4 662.101Z" fill="#121243"/>
<path d="M999.538 495.447L997.615 495.996L1017.61 565.993L1019.54 565.444L999.538 495.447Z" fill="#121243"/>
<path d="M1094.3 510.701L1079.6 509.301L1079.8 507.301L1094.5 508.701L1094.3 510.701Z" fill="#121243"/>
<path d="M417.4 1552.8L409.9 1600H473.5L448.6 1575.1L450.5 1551.7L417.4 1552.8Z" fill="#000000"/>
<path d="M447.506 1573.45L434.836 1580.9L436.865 1584.35L449.535 1576.89L447.506 1573.45Z" fill="white"/>
<path d="M548.7 1209C547.8 1214.6 546.9 1220.2 545.8 1225.7C544.1 1236.1 542.2 1246.5 540.4 1256.7C533.7 1293.5 526.4 1329.1 518.4 1363.5C518.4 1363.5 518.4 1363.5 518.4 1363.6C502.6 1433.2 484.4 1498.2 464.4 1559.7H407.8C430.6 1451 452.6 1343.5 459.7 1260.3C460.8 1248.1 461.5 1236.3 461.8 1225.2L548.7 1209Z" fill="#121243"/>
<path d="M546.4 1550.6L543.7 1599.1L611.5 1600L584.6 1575.1L586.6 1551.7L546.4 1550.6Z" fill="#000000"/>
<path d="M583.726 1573.34L570.025 1580.8L571.938 1584.32L585.639 1576.86L583.726 1573.34Z" fill="white"/>
<path d="M594 1558.6H534.9C530.7 1491.4 525.7 1425.7 518.5 1363.7C518.5 1363.7 518.5 1363.7 518.5 1363.6C514.3 1327.2 509.3 1292 503.3 1258.5C501.4 1247.7 499.3 1237.1 497.2 1226.6L545.9 1225.8L570.1 1225.4C571.7 1235.3 573.2 1245.3 574.6 1255.3C588.3 1353.1 592.2 1455.3 594 1558.6Z" fill="#121243"/>
<path opacity="0.3" d="M574.6 1255.2L540.4 1256.8L503.3 1258.5L459.9 1260.5C461 1248.3 461.7 1236.5 462 1225.4L548.7 1209.1C547.8 1214.7 546.9 1220.3 545.8 1225.8L570 1225.4C571.7 1235.3 573.2 1245.2 574.6 1255.2Z" fill="#4A191B"/>
<path d="M514.7 1389.3L512.7 1388.9L532.8 1289.2L534.8 1289.6L514.7 1389.3Z" fill="#121243"/>
<path d="M533.1 1090.8C503.2 1094 478.7 1091.5 454.9 1077.2L431.7 1116.5L458.7 1140.6L453.3 1225.7C453 1230.7 455.7 1235.4 460.2 1237.7C461.9 1238.6 463.8 1239 465.8 1239H568C573.6 1239 578.5 1235.5 580.5 1230.3C581 1229 581.2 1227.7 581.3 1226.4L585.7 1136.2L631.5 1125.4L621 1089.4C585.8 1093.4 554.4 1095.5 533.1 1090.8Z" fill="#000000"/>
<path d="M454.8 1077.2L431.6 1116.5L399.5 1087.8C398.8 1087.2 398.1 1086.5 397.4 1085.8C391.2 1079.5 386.8 1071.6 384.9 1062.9C384.6 1061.8 384.4 1060.6 384.1 1059.4C377 1028.1 363.7 967.199 364.4 961.799C365.3 954.599 372.7 957.7 372.7 957.7C373.3 950.8 379 954.499 379 954.499C379 950.599 380.3 949.599 384.2 949.799C388.1 949.999 393.3 973.599 393.3 973.599C393.3 973.599 399.1 961.299 403.3 962.299C407.6 963.199 399.6 986.9 399.6 986.9L427.5 1055.3C436.9 1064.6 445.8 1071.7 454.8 1077.2Z" fill="#FFBA9A"/>
<path opacity="0.2" d="M401.9 1074.9C401.9 1079.1 400.2 1083 397.5 1085.8C391.3 1079.5 386.9 1071.6 385 1062.9C384.7 1061.8 384.5 1060.6 384.2 1059.4C384.9 1059.3 385.5 1059.3 386.2 1059.3C394.9 1059.3 401.9 1066.3 401.9 1074.9Z" fill="#FF5C33"/>
<path d="M388.5 987.5C385 983.8 385.1 980.1 388.7 976.4L389.4 977.1C386.2 980.4 386.1 983.6 389.2 986.8L388.5 987.5Z" fill="#974245"/>
<path d="M380.8 964.6L378.7 954.7L379.7 954.5L381.8 964.4L380.8 964.6Z" fill="#974245"/>
<path d="M374.8 966.1L372.4 957.9L373.4 957.6L375.8 965.8L374.8 966.1Z" fill="#974245"/>
<path d="M369.039 960.458L368.073 960.717L370.119 968.347L371.085 968.088L369.039 960.458Z" fill="#974245"/>
<path d="M678.4 1100.1C678 1100.9 677.5 1101.6 677 1102.3L674 1106.8C669.9 1112.9 663.8 1117.3 656.7 1119.3C656.3 1119.4 655.9 1119.5 655.5 1119.6L631.2 1125.4L620.7 1089.4C630.4 1088.2 640.4 1087 650.6 1085.7L680.7 1028.8C680.7 1028.8 680.7 1004.6 684 1003.9C687.3 1003.1 690 1018 690 1018C690 1018 703 998.299 707.1 998.299C711.2 998.299 710.1 1003.9 710.1 1003.9C710.1 1003.9 713.9 999.199 716.2 1001.4C717.4 1002.6 717.2 1006.8 717.2 1006.8C717.2 1006.8 718.7 1005.4 721.6 1006.6C727.4 1008.9 709.2 1050.7 678.4 1100.1Z" fill="#FFBA9A"/>
<path opacity="0.2" d="M678.4 1100.1C678 1100.9 677.5 1101.6 677 1102.3L674 1106.8C669.9 1112.9 663.8 1117.3 656.7 1119.3C656.1 1117.6 655.8 1115.9 655.8 1114.1C655.8 1105.4 662.8 1098.5 671.4 1098.5C673.9 1098.4 676.3 1099 678.4 1100.1Z" fill="#FF5C33"/>
<path d="M692.7 1031.7L692.2 1030.8C696.1 1028.5 696.9 1025.5 694.8 1021.4L695.7 1020.9C698 1025.5 697 1029.1 692.7 1031.7Z" fill="#974245"/>
<path d="M706.2 1011.7L705.3 1011.2L710.1 1002.4L711 1002.8L706.2 1011.7Z" fill="#974245"/>
<path d="M713 1014.4L712.1 1013.9L716.5 1005.3L717.4 1005.8L713 1014.4Z" fill="#974245"/>
<path d="M717.3 1015.3L716.5 1014.8L720.6 1008.1L721.5 1008.6L717.3 1015.3Z" fill="#974245"/>
<path d="M432.276 1115.83L430.991 1117.36L472.289 1152L473.574 1150.47L432.276 1115.83Z" fill="#121243"/>
<path d="M585 1171.7L583 1171.6L586 1114L588 1114.1L585 1171.7Z" fill="#121243"/>
<path d="M533.1 1128.1C526.6 1128.1 519.9 1125.2 514.9 1120L516.3 1118.6C521.5 1124 528.5 1126.7 535.2 1126C540.8 1125.4 545.6 1122.2 548.7 1117.1L550.4 1118.1C547 1123.7 541.7 1127.2 535.4 1127.9C534.7 1128.1 533.9 1128.1 533.1 1128.1Z" fill="#121243"/>
<path d="M533.5 1112C525.5 1112.9 518.3 1107.2 517.4 1099.2L513.6 1064.9L542.5 1061.7L546.3 1096C547.2 1103.9 541.5 1111.1 533.5 1112Z" fill="#FFBA9A"/>
<path d="M523.3 1077.7C529.9 1085.3 537.5 1090.7 546.2 1093L544.1 1074.5L523.3 1077.7Z" fill="#121243"/>
<path d="M557.9 1040.6C557.9 1040.6 563.5 1077 550.7 1081.7C538.8 1086.1 523.2 1077.7 523.2 1077.7L512.7 1047.1L526.3 1034.7L557.9 1040.6Z" fill="#FFBA9A"/>
<path d="M518.3 1058.4C519 1051.4 521.8 1045.4 528.9 1041.5C549.6 1049.9 562.5 1043.5 571.8 1030.1C571.8 1030.1 560 1032.6 552.8 1028C545.7 1023.4 527.3 1010 515.7 1029.4C499.5 1036.9 502.9 1050 509.5 1058.4H518.3Z" fill="#121243"/>
<path d="M519.454 1068.7C523.038 1066.62 523.992 1061.57 521.584 1057.41C519.175 1053.25 514.318 1051.57 510.733 1053.64C507.149 1055.72 506.196 1060.77 508.604 1064.93C511.012 1069.09 515.87 1070.78 519.454 1068.7Z" fill="#FFBA9A"/>
<path d="M516.3 1064.9C516.1 1061.7 514.7 1059.5 512.1 1058.2L513 1056.4C516.2 1058 518 1060.8 518.2 1064.7L516.3 1064.9Z" fill="#121243"/>
<path d="M502.3 754C540.6 754 571.6 785 571.6 823.3C571.6 850.1 556.3 873.4 534 884.9L540.9 920.6L516.2 891.2C511.7 892.1 507 892.6 502.2 892.6C463.9 892.6 432.9 861.6 432.9 823.3C433 785 464 754 502.3 754Z" fill="white"/>
<path d="M544.4 927.9L515.5 893.5C511.2 894.3 506.7 894.7 502.3 894.7C463 894.7 431 862.7 431 823.4C431 784.1 463 752.1 502.3 752.1C541.6 752.1 573.6 784.1 573.6 823.4C573.6 849.7 559.3 873.5 536.3 886.1L544.4 927.9ZM517 889.1L537.5 913.5L531.8 883.9L533.1 883.2C555.6 871.6 569.6 848.6 569.6 823.4C569.6 786.3 539.4 756.1 502.3 756.1C465.2 756.1 435 786.2 435 823.3C435 860.4 465.2 890.6 502.3 890.6C506.9 890.6 511.4 890.1 515.9 889.2L517 889.1Z" fill="#95BEFF"/>
<path d="M470 834.699C475.357 834.699 479.7 830.356 479.7 824.999C479.7 819.642 475.357 815.299 470 815.299C464.643 815.299 460.3 819.642 460.3 824.999C460.3 830.356 464.643 834.699 470 834.699Z" fill="#95BEFF"/>
<path d="M502.3 834.699C507.657 834.699 512 830.356 512 824.999C512 819.642 507.657 815.299 502.3 815.299C496.942 815.299 492.6 819.642 492.6 824.999C492.6 830.356 496.942 834.699 502.3 834.699Z" fill="#95BEFF"/>
<path d="M534.6 834.699C539.957 834.699 544.3 830.356 544.3 824.999C544.3 819.642 539.957 815.299 534.6 815.299C529.243 815.299 524.9 819.642 524.9 824.999C524.9 830.356 529.243 834.699 534.6 834.699Z" fill="#95BEFF"/>
<path d="M1569.5 1026.5L1527.8 1110.5L1498.3 1131.4L1515.2 1153.2C1522.9 1149.8 1530.3 1146.6 1536 1144.1C1543 1141 1549.3 1136.4 1554.5 1130.7L1585.4 1096.7L1569.5 1026.5Z" fill="#FF5C33"/>
<path d="M1487.2 1139.3C1487.2 1139.3 1459.7 1138.6 1460.5 1146.8C1461.3 1154.5 1479 1159.3 1479 1159.3C1479 1159.3 1469.2 1169.9 1472.6 1170.1C1475.4 1170.2 1496.2 1161.5 1515.1 1153.3L1498.2 1131.5L1487.2 1139.3Z" fill="#FFBA9A"/>
<path d="M1654.7 1440L1654 1495.3H1588.6L1618.9 1468.3L1622.3 1437.3L1654.7 1440Z" fill="#121243"/>
<path d="M1620.27 1466.86L1617.51 1469.75L1627.63 1479.42L1630.4 1476.53L1620.27 1466.86Z" fill="white"/>
<path d="M1679.9 1221.9L1731.1 1201.1L1756.3 1261.4L1719.8 1243.9L1689.9 1252.8L1679.9 1221.9Z" fill="#121243"/>
<path d="M1722.83 1229.99L1717.83 1243.06L1721.56 1244.49L1726.57 1231.42L1722.83 1229.99Z" fill="white"/>
<path d="M1554.7 1155.2L1606 1447L1662.7 1445L1627.9 1119L1554.7 1155.2Z" fill="#000000"/>
<path d="M1589.8 1140.4L1594.9 1293.1C1595.2 1302 1600.4 1310 1608.5 1313.8C1615.6 1317.2 1623.8 1316.9 1630.6 1313L1698.7 1274L1695.6 1213.5L1656.9 1227.9L1656.7 1133.8L1589.8 1140.4Z" fill="#000000"/>
<path d="M1729 1044.1L1674.4 1012.1C1668.6 1008.7 1662.2 1006.6 1655.6 1005.8L1620.4 1001.6L1591.2 1010.8C1574 1016.2 1562 1031.6 1560.9 1049.6L1554.7 1155.2L1656.5 1133.8L1664.6 1060.7L1723.4 1088.3C1734.6 1093.9 1748.2 1090.1 1754.9 1079.4C1768.3 1057.9 1790.2 1022.1 1804.2 994.5L1770.8 982.6L1729 1044.1Z" fill="#FF5C33"/>
<path d="M1810.6 955C1810.6 955 1812.3 950.6 1810 949.2C1807.8 947.8 1805.3 950.3 1805.3 950.3C1805.3 950.3 1807.8 944.2 1804.2 943.1C1800.6 942 1786.8 962.2 1786.8 962.2C1786.8 962.2 1785.1 949.5 1781.5 949.7C1777.9 950 1775.7 975.4 1775.7 975.4L1770.8 982.6L1804.2 994.5C1812.4 978.3 1817.9 964.9 1817.5 958.9C1817 952.2 1810.6 955 1810.6 955Z" fill="#FFBA9A"/>
<path d="M1788.4 975.1L1787.8 974.3C1791.4 971.6 1791.8 968.4 1789.2 964.7L1790 964.1C1793 968.3 1792.4 972 1788.4 975.1Z" fill="#974245"/>
<path d="M1801.1 957.099L1800.3 956.499L1806 948.199L1806.8 948.799L1801.1 957.099Z" fill="#974245"/>
<path d="M1810.52 953.694L1805.06 960.213L1805.83 960.855L1811.29 954.336L1810.52 953.694Z" fill="#974245"/>
<path d="M1813.43 957.793L1808.53 963.992L1809.31 964.612L1814.21 958.413L1813.43 957.793Z" fill="#974245"/>
<path d="M1647.7 960.4C1646.8 973.4 1635.7 985.7 1621.5 984.7C1607.3 983.7 1591.5 968.8 1592.4 955.8C1593.3 942.8 1607.9 936.1 1622.1 936.6C1642 937.3 1648.6 947.5 1647.7 960.4Z" fill="#E8950C"/>
<path d="M1619.1 1019.7C1611.7 1019.2 1606.1 1012.8 1606.6 1005.4L1608.7 974.9L1635.5 976.7L1633.4 1007.2C1633 1014.6 1626.5 1020.2 1619.1 1019.7Z" fill="#FFBA9A"/>
<path d="M1627.1 993C1621 999.4 1614.4 1004.3 1606.6 1005.4L1607.7 990.9L1627.1 993Z" fill="#121243"/>
<path d="M1598.1 957.1C1598.1 957.1 1592.9 991.7 1604.7 995.4C1616.5 999.1 1631.2 991.6 1631.2 991.6L1634.1 965.4L1630.8 948.4L1598.1 957.1Z" fill="#FFBA9A"/>
<path d="M1633.6 976.001C1630.3 972.301 1627 966.101 1626.2 959.801C1617.7 963.501 1607.4 963.901 1595.6 961.601L1599.1 950.701L1625 945.801L1638.3 949.601L1633.6 976.001Z" fill="#E8950C"/>
<path d="M1641.44 979.879C1643.87 976.799 1643.66 972.584 1640.97 970.464C1638.28 968.345 1634.13 969.123 1631.7 972.203C1629.28 975.283 1629.49 979.498 1632.18 981.617C1634.87 983.737 1639.01 982.958 1641.44 979.879Z" fill="#FFBA9A"/>
<path d="M1634.9 979.301L1632.9 979.201C1633.3 974.101 1636.5 972.901 1639.1 972.801L1639.2 974.801C1636.5 974.801 1635.2 976.201 1634.9 979.301Z" fill="#121243"/>
<path d="M1659.45 947.497C1664.81 939.986 1663.06 929.558 1655.55 924.204C1648.04 918.85 1637.61 920.598 1632.25 928.108C1626.9 935.619 1628.65 946.047 1636.16 951.401C1643.67 956.755 1654.1 955.007 1659.45 947.497Z" fill="#E8950C"/>
<path d="M1555.8 1154.7L1553.8 1154.6L1561.3 1040.1L1563.3 1040.2L1555.8 1154.7Z" fill="#121243"/>
<path d="M1691.4 1074.1L1647.9 1052.1L1648.8 1050.3L1692.3 1072.3L1691.4 1074.1Z" fill="#121243"/>
<path d="M1616.8 1033.9C1616 1033.9 1615.2 1033.8 1614.4 1033.7C1608.8 1032.7 1604.5 1028.3 1602.7 1021.6L1604.6 1021.1C1606.2 1027 1609.9 1030.9 1614.7 1031.7C1620.5 1032.7 1626.9 1029.3 1631.5 1022.8L1633.1 1023.9C1628.7 1030.2 1622.6 1033.9 1616.8 1033.9Z" fill="#121243"/>
<path d="M1618 1316.9C1614.9 1316.9 1612.3 1316.4 1610.1 1315.7C1600.8 1312.6 1596.4 1304.7 1595.4 1301C1591.4 1286.4 1589.4 1170.4 1589.4 1165.4H1591.4C1591.4 1166.6 1593.4 1286.1 1597.4 1300.5C1598.5 1304.4 1602.9 1311.2 1610.8 1313.8C1620.7 1317.1 1633.2 1313.2 1647.1 1302.6L1648.3 1304.2C1635.4 1314 1625.4 1316.9 1618 1316.9Z" fill="#121243"/>
<path d="M1695.08 1212.49L1625.95 1237.74L1626.63 1239.62L1695.77 1214.37L1695.08 1212.49Z" fill="#121243"/>
<path d="M1685 692C1646.7 692 1615.7 723 1615.7 761.3C1615.7 788.1 1631 811.4 1653.3 822.9L1646.4 858.6L1671.1 829.2C1675.6 830.1 1680.3 830.6 1685.1 830.6C1723.4 830.6 1754.4 799.6 1754.4 761.3C1754.3 723 1723.3 692 1685 692Z" fill="white"/>
<path d="M1642.9 865.9L1651 824C1627.9 811.5 1613.7 787.6 1613.7 761.3C1613.7 722 1645.7 690 1685 690C1724.3 690 1756.3 722 1756.3 761.3C1756.3 800.6 1724.3 832.6 1685 832.6C1680.6 832.6 1676.1 832.2 1671.8 831.4L1642.9 865.9ZM1685 694C1647.9 694 1617.7 724.2 1617.7 761.3C1617.7 786.6 1631.7 809.5 1654.2 821.1L1655.5 821.8L1649.8 851.4L1670.3 827L1671.5 827.2C1675.9 828.1 1680.5 828.6 1685.1 828.6C1722.2 828.6 1752.4 798.4 1752.4 761.3C1752.4 724.2 1722.1 694 1685 694Z" fill="#95BEFF"/>
<path d="M1652.7 770.701C1658.06 770.701 1662.4 766.358 1662.4 761.001C1662.4 755.644 1658.06 751.301 1652.7 751.301C1647.34 751.301 1643 755.644 1643 761.001C1643 766.358 1647.34 770.701 1652.7 770.701Z" fill="#95BEFF"/>
<path d="M1685 770.701C1690.36 770.701 1694.7 766.358 1694.7 761.001C1694.7 755.644 1690.36 751.301 1685 751.301C1679.64 751.301 1675.3 755.644 1675.3 761.001C1675.3 766.358 1679.64 770.701 1685 770.701Z" fill="#95BEFF"/>
<path d="M1717.3 770.701C1722.66 770.701 1727 766.358 1727 761.001C1727 755.644 1722.66 751.301 1717.3 751.301C1711.94 751.301 1707.6 755.644 1707.6 761.001C1707.6 766.358 1711.94 770.701 1717.3 770.701Z" fill="#95BEFF"/>
<path d="M2144 1596.7H0V1600.7H2144V1596.7Z" fill="#001F40"/>
</g>
<defs>
<clipPath id="clip0_10007_71431">
<rect width="2144" height="1600.7" fill="white"/>
</clipPath>
</defs>
</svg>
