<svg width="64" height="64" viewBox="0 0 64 64" fill="none" xmlns="http://www.w3.org/2000/svg">
<path d="M32 64C49.6731 64 64 49.6731 64 32C64 14.3269 49.6731 0 32 0C14.3269 0 0 14.3269 0 32C0 49.6731 14.3269 64 32 64Z" fill="#CEFFE3"/>
<g clip-path="url(#clip0)">
<circle cx="32" cy="32" r="18" fill="white"/>
<path d="M54.9363 34.8006L54.0338 33.5646C53.2883 32.5445 53.2785 31.1613 54.0044 30.1215L54.8872 28.8758C55.9074 27.424 55.4366 25.413 53.8671 24.5694L52.5232 23.8435C51.4049 23.2452 50.7967 21.9994 51.0027 20.7536L51.2578 19.2429C51.5521 17.4969 50.2474 15.8783 48.4719 15.8096L46.9416 15.741C45.6762 15.6919 44.5874 14.8287 44.2343 13.6123L43.8125 12.1409C43.322 10.4341 41.4484 9.55126 39.8102 10.2575L38.4075 10.8657C37.2402 11.366 35.8963 11.0717 35.0429 10.1202L34.0227 8.98231C32.8357 7.65804 30.766 7.67766 29.5986 9.01174L28.5981 10.1692C27.7643 11.1208 26.4204 11.4445 25.2531 10.9638L23.8405 10.3851C22.2024 9.70821 20.3386 10.6205 19.8677 12.3371L19.4655 13.8085C19.1418 15.0445 18.0726 15.9176 16.8072 15.9862L15.2769 16.0745C13.5014 16.1726 12.2262 17.8108 12.5499 19.547L12.8246 21.0479C13.0502 22.2937 12.4616 23.5493 11.3532 24.1574L10.0191 24.903C8.46922 25.7662 8.01799 27.7869 9.06759 29.2191L9.97006 30.4551C10.7156 31.4752 10.7254 32.8584 9.99949 33.8982L9.11664 35.144C8.09646 36.5957 8.56732 38.6067 10.1368 39.4503L11.4807 40.1762C12.599 40.7745 13.2072 42.0203 13.0012 43.2661L12.7363 44.767C12.442 46.513 13.7467 48.1316 15.5222 48.2003L17.0524 48.2689C18.3178 48.318 19.4067 49.1812 19.7598 50.3976L20.1816 51.869C20.6721 53.5758 22.5457 54.4586 24.1839 53.7524L25.5866 53.1442C26.7539 52.6439 28.0978 52.9382 28.9512 53.8799L29.9714 55.0178C31.1583 56.342 33.2281 56.3224 34.3954 54.9884L35.396 53.8308C36.2298 52.8793 37.5737 52.5556 38.741 53.0363L40.1535 53.615C41.7917 54.2919 43.6555 53.3796 44.1263 51.663L44.5285 50.1916C44.8621 48.9752 45.9411 48.1022 47.2065 48.0237L48.7368 47.9354C50.5123 47.8373 51.7875 46.1991 51.4638 44.4629L51.1891 42.962C50.9635 41.7162 51.5521 40.4606 52.6605 39.8525L53.9946 39.107C55.5347 38.2633 55.9761 36.2328 54.9363 34.8006ZM32.0019 47.5038C23.4482 47.5038 16.5129 40.5686 16.5129 32.0148C16.5129 23.461 23.4482 16.5257 32.0019 16.5257C40.5557 16.5257 47.491 23.461 47.491 32.0148C47.491 40.5686 40.5557 47.5038 32.0019 47.5038Z" fill="#4DDA89"/>
<path d="M30.0204 32.4268L28.6471 31.0437C27.833 30.2197 26.4989 30.2197 25.6749 31.0339C24.8509 31.8481 24.8509 33.1822 25.6651 34.0062L27.0384 35.3893L28.5687 36.9195C29.3632 37.7239 30.6581 37.7239 31.4624 36.9294L32.9927 35.4089L38.329 30.102C39.153 29.2878 39.153 27.9538 38.3388 27.1298C37.5246 26.3058 36.1905 26.3058 35.3666 27.12L30.0204 32.4268Z" fill="#4DDA89"/>
</g>
<defs>
<clipPath id="clip0">
<rect width="48" height="48" fill="white" transform="translate(8 8)"/>
</clipPath>
</defs>
</svg>
