<svg width="64" height="64" viewBox="0 0 64 64" fill="none" xmlns="http://www.w3.org/2000/svg">
<path d="M32 64C49.6731 64 64 49.6731 64 32C64 14.3269 49.6731 0 32 0C14.3269 0 0 14.3269 0 32C0 49.6731 14.3269 64 32 64Z" fill="#FFBDBD"/>
<path d="M32 50C41.9411 50 50 41.9411 50 32C50 22.0589 41.9411 14 32 14C22.0589 14 14 22.0589 14 32C14 41.9411 22.0589 50 32 50Z" fill="white"/>
<path d="M32 12.5C28.1433 12.5 24.3731 13.6437 21.1664 15.7863C17.9596 17.929 15.4603 20.9745 13.9844 24.5377C12.5084 28.1008 12.1223 32.0216 12.8747 35.8043C13.6271 39.5869 15.4843 43.0615 18.2114 45.7886C20.9386 48.5157 24.4131 50.3729 28.1958 51.1253C31.9784 51.8777 35.8992 51.4916 39.4623 50.0156C43.0255 48.5397 46.071 46.0404 48.2137 42.8336C50.3564 39.6269 51.5 35.8567 51.5 32C51.4942 26.8301 49.4378 21.8736 45.7821 18.2179C42.1264 14.5622 37.1699 12.5059 32 12.5ZM32 48.5C28.7366 48.5 25.5465 47.5323 22.8331 45.7192C20.1197 43.9062 18.0048 41.3293 16.756 38.3143C15.5072 35.2993 15.1804 31.9817 15.8171 28.781C16.4537 25.5803 18.0252 22.6403 20.3327 20.3327C22.6403 18.0252 25.5803 16.4537 28.781 15.817C31.9817 15.1804 35.2993 15.5071 38.3143 16.756C41.3293 18.0048 43.9062 20.1197 45.7193 22.8331C47.5323 25.5465 48.5 28.7366 48.5 32C48.4951 36.3745 46.7551 40.5685 43.6618 43.6618C40.5685 46.7551 36.3746 48.495 32 48.5ZM30.5 33.5V23C30.5 22.6022 30.658 22.2206 30.9394 21.9393C31.2207 21.658 31.6022 21.5 32 21.5C32.3978 21.5 32.7794 21.658 33.0607 21.9393C33.342 22.2206 33.5 22.6022 33.5 23V33.5C33.5 33.8978 33.342 34.2794 33.0607 34.5607C32.7794 34.842 32.3978 35 32 35C31.6022 35 31.2207 34.842 30.9394 34.5607C30.658 34.2794 30.5 33.8978 30.5 33.5ZM34.25 40.25C34.25 40.695 34.1181 41.13 33.8708 41.5C33.6236 41.87 33.2722 42.1584 32.861 42.3287C32.4499 42.499 31.9975 42.5436 31.5611 42.4568C31.1246 42.37 30.7237 42.1557 30.409 41.841C30.0944 41.5263 29.8801 41.1254 29.7932 40.689C29.7064 40.2525 29.751 39.8001 29.9213 39.389C30.0916 38.9778 30.38 38.6264 30.75 38.3792C31.12 38.132 31.555 38 32 38C32.5967 38 33.169 38.2371 33.591 38.659C34.013 39.081 34.25 39.6533 34.25 40.25Z" fill="#FF3636"/>
</svg>
