<svg width="23" height="23" viewBox="0 0 23 23" fill="none" xmlns="http://www.w3.org/2000/svg">
<g clip-path="url(#clip0)">
<path d="M13.8325 18.8184C13.8325 20.8267 12.2043 22.4547 10.196 22.4547C8.18767 22.4547 6.55969 20.8267 6.55969 18.8184C6.55969 16.81 8.18767 15.1819 10.196 15.1819C12.2043 15.1819 13.8325 16.81 13.8325 18.8184Z" fill="#000000"/>
<path d="M16.5669 11.4739C13.485 11.0338 11.1052 8.38379 11.1052 5.18211C11.1052 4.2729 11.2996 3.41031 11.6442 2.62745C11.1787 2.51842 10.6952 2.45483 10.196 2.45483C6.68699 2.45483 3.83238 5.30928 3.83238 8.81842V11.3529C3.83238 13.152 3.04419 14.8502 1.66141 16.0193C1.30785 16.3211 1.1051 16.762 1.1051 17.2275C1.1051 18.1049 1.81871 18.8185 2.69596 18.8185H17.696C18.5734 18.8185 19.287 18.1049 19.287 17.2275C19.287 16.762 19.0842 16.3211 18.7215 16.0111C17.3797 14.8757 16.6015 13.2274 16.5669 11.4739Z" fill="#000000"/>
<path d="M22.0142 5.18198C22.0142 7.69236 19.9791 9.72733 17.4687 9.72733C14.9583 9.72733 12.9232 7.69236 12.9232 5.18198C12.9232 2.67161 14.9583 0.636475 17.4687 0.636475C19.9791 0.636475 22.0142 2.67161 22.0142 5.18198Z" fill="#000080"/>
</g>
<defs>
<clipPath id="clip0">
<rect width="21.8182" height="21.8182" fill="white" transform="translate(0.636353 0.636475)"/>
</clipPath>
</defs>
</svg>
