<svg width="180" height="53" viewBox="0 0 180 53" fill="none" xmlns="http://www.w3.org/2000/svg">
<g clip-path="url(#clip0_9865_70071)">
<path d="M46.5096 26.4518C46.5096 30.2944 46.4597 34.087 46.5595 37.9295C46.5595 39.227 46.2101 40.0255 45.0624 40.7241C38.2257 44.5167 31.4888 48.4591 24.7519 52.4014C23.654 53.0501 22.8556 52.9503 21.8076 52.3515C15.1206 48.4591 8.4336 44.5666 1.7466 40.774C0.49903 40.0754 0 39.2769 0 37.8297C0.049903 30.1946 0.049903 22.5594 0 14.9243C0 13.6268 0.399224 12.8283 1.54699 12.1796C8.3837 8.33707 15.1206 4.39474 21.8575 0.452402C22.9055 -0.196336 23.7538 -0.146433 24.8018 0.452402C31.4389 4.34483 38.1259 8.23727 44.8628 12.0299C46.1602 12.7285 46.5595 13.5769 46.5096 14.9742C46.4597 18.8167 46.5096 22.6093 46.5096 26.4518ZM23.2049 49.2076C26.2989 43.9179 29.0934 39.0274 31.9379 34.1868C32.5367 33.1887 31.9878 32.8893 31.2892 32.4901C28.9936 31.1926 26.6482 29.8952 24.4025 28.4979C23.6041 27.9988 22.9055 27.9988 22.107 28.4979C19.8115 29.8452 17.5159 31.1926 15.2204 32.4901C14.3222 32.9891 14.0227 33.4383 14.6216 34.4363C17.3662 39.1771 20.1608 43.9678 23.2049 49.2076ZM23.0053 24.9548C23.3546 24.855 23.5043 24.855 23.654 24.7551C26.249 23.2581 28.8439 21.8109 31.389 20.3138C32.2373 19.8148 31.7882 19.2159 31.4888 18.667C29.0435 14.525 26.5484 10.433 24.1031 6.29105C23.4045 5.14328 23.0053 5.09338 22.3066 6.29105C20.56 9.28523 18.7635 12.2794 16.967 15.2237C14.1724 19.8647 14.1724 19.8647 18.8134 22.5095C20.2606 23.4078 21.7078 24.2062 23.0053 24.9548ZM42.667 13.8763C37.1278 10.6825 31.888 7.68833 26.6981 4.69415C28.794 9.28523 31.2892 13.4272 33.7344 17.619C34.2334 18.4674 34.6826 18.5672 35.481 18.0682C37.7266 16.7208 40.0222 15.4233 42.667 13.8763ZM3.89243 13.9262C6.48739 15.4233 8.73302 16.7208 10.9287 18.0182C11.5276 18.3676 12.0765 18.6171 12.5755 17.8186C15.0707 13.5769 17.6157 9.38503 20.1109 5.14328C19.9612 5.04348 19.8614 4.94367 19.7117 4.84386C14.5717 7.78814 9.43166 10.7324 3.89243 13.9262ZM42.5672 38.9775C39.9723 37.4804 37.8264 36.2827 35.6806 35.0352C34.982 34.6359 34.4829 34.6359 34.0338 35.3845C31.7383 39.3767 29.4427 43.319 27.1472 47.2614C27.2969 47.3612 27.4466 47.5109 27.5464 47.6107C32.4369 44.8161 37.2775 42.0216 42.5672 38.9775ZM18.6637 47.4111C18.8134 47.3113 18.9631 47.2115 19.1128 47.0618C16.8672 43.1693 14.5717 39.2769 12.326 35.3845C11.9767 34.7856 11.5775 34.586 10.9287 34.9354C8.73302 36.1829 6.53729 37.4305 3.99224 38.9276C9.13224 41.8719 13.9229 44.6165 18.6637 47.4111ZM20.7097 26.5018C19.2126 25.6035 18.0649 24.9548 16.9171 24.2561C15.9689 23.7072 15.0208 23.2082 14.1225 22.6592C13.5237 22.3099 13.0746 22.1103 12.4258 22.8089C10.28 25.2542 10.1303 27.4 12.0765 30.0449C12.6754 30.8433 13.1245 30.8932 13.9229 30.3942C16.0189 29.1466 18.1647 27.9489 20.7097 26.5018ZM25.7 26.4518C28.2451 27.9489 30.5406 29.2464 32.7862 30.5439C33.1356 30.7435 33.4849 30.8433 33.934 30.5439C36.0798 29.0967 35.8802 23.5575 33.6346 22.3598C33.1855 22.1103 32.8361 22.3099 32.4868 22.5095C30.341 23.807 28.1952 25.0546 25.7 26.4518ZM43.715 19.665C43.5653 19.6151 43.4156 19.5652 43.2659 19.5652C42.0682 21.6113 40.8705 23.6573 39.6729 25.7033C39.3734 26.2522 39.1738 26.7513 39.5231 27.3501C40.8206 29.4959 42.0682 31.6418 43.7649 34.3864C43.715 28.8971 43.715 24.306 43.715 19.665ZM3.4433 19.9645C3.2936 20.0144 3.19379 20.0643 3.04408 20.1641C3.04408 24.4557 3.04408 28.7973 3.04408 33.7377C4.54117 31.2924 5.68894 29.3961 6.7868 27.4998C7.13612 26.9509 7.18603 26.4518 6.83671 25.9029C5.73884 23.9567 4.59107 21.9606 3.4433 19.9645ZM8.58331 24.0565C11.0286 20.9126 11.0286 20.9126 8.03438 19.2159C7.18603 18.7169 6.33768 18.3177 5.48933 17.8685C5.38952 17.9683 5.28971 18.0682 5.14001 18.168C6.28777 20.0144 7.38564 21.9107 8.58331 24.0565ZM41.12 18.2179C41.0202 18.1181 40.8705 17.9683 40.7707 17.8685C39.9224 18.3177 39.0241 18.8167 38.1758 19.2658C35.1816 20.9625 35.1816 21.212 37.8764 23.807C39.0241 21.9107 40.0721 20.0643 41.12 18.2179ZM8.68312 29.446C6.48739 32.3903 5.98836 33.4383 5.83865 34.9354C11.5775 31.8913 10.8788 32.54 8.68312 29.446ZM37.8264 29.2464C35.4311 32.6398 35.6806 33.039 41.2198 34.9354C40.0222 32.9392 38.9742 31.2425 37.8264 29.2464Z" fill="#ACC8D2"/>
<path d="M63.9261 5.44471C63.9261 10.3352 63.976 15.2257 63.8762 20.1162C63.8762 20.8647 64.475 22.2121 62.9281 22.2121C61.431 22.2121 61.93 20.9146 61.93 20.1162C61.8801 14.8265 61.8801 9.48685 61.93 4.19714C61.93 3.39869 61.3811 2.25092 62.7284 1.9016C63.9261 1.60219 64.7246 2.15112 65.4232 3.19908C68.9164 8.43889 72.5094 13.5789 76.3519 19.168C76.9009 17.1719 76.6514 15.575 76.6514 13.9781C76.7013 10.5847 76.6514 7.19132 76.7013 3.74801C76.7013 3.04937 76.2022 1.9016 77.5995 1.9016C78.9469 1.9016 78.5976 2.94957 78.6475 3.74801C78.6974 9.23734 78.6974 14.7267 78.6475 20.1661C78.6475 20.9146 79.0966 21.9626 77.8989 22.2121C76.7512 22.4616 75.9028 22.1123 75.2042 21.0144C72.4595 16.8725 69.665 12.7305 66.8704 8.6385C66.0719 7.49073 65.2735 6.39287 64.5249 5.2451C64.2754 5.295 64.0758 5.39481 63.9261 5.44471Z" fill="#ACC8D2"/>
<path d="M97.81 22.7552C91.6719 22.7552 87.1807 18.214 87.1807 11.9761C87.1807 5.83804 91.7717 1.29688 97.9098 1.29688C103.998 1.29688 108.589 5.93785 108.539 12.0759C108.539 18.3138 103.998 22.8051 97.81 22.7552ZM97.8599 3.14328C92.8197 3.14328 89.2766 6.93591 89.3265 12.1258C89.3764 17.166 93.0193 20.9586 97.81 21.0085C102.7 21.0584 106.443 17.166 106.493 12.026C106.543 6.98581 102.85 3.14328 97.8599 3.14328Z" fill="#ACC8D2"/>
<path d="M128.8 40.4782C128.8 37.6337 128.8 34.8392 128.8 31.9947C128.8 30.9467 128.999 30.1982 130.297 30.298C132.792 30.3978 135.287 30.0984 137.732 30.5475C143.022 31.4957 146.365 35.438 146.365 40.5281C146.365 45.718 142.772 49.8599 137.433 50.5087C135.038 50.8081 132.642 50.6085 130.197 50.7083C128.85 50.7582 128.75 49.9598 128.8 48.9617C128.85 46.1172 128.8 43.3227 128.8 40.4782ZM134.439 32.0945C130.945 32.0446 130.796 32.0446 130.796 33.5916C130.746 38.2326 130.746 42.8735 130.796 47.5145C130.796 48.1632 130.796 48.7621 131.694 49.0615C135.836 50.3091 141.725 47.9137 143.471 44.171C145.916 38.8314 142.623 31.6454 134.439 32.0945Z" fill="#ACC8D2"/>
<path d="M99.3567 50.4053C97.66 51.0541 96.8616 50.4552 96.2128 49.3075C94.9153 47.0119 93.4183 44.8162 92.2206 42.4208C91.3722 40.8239 90.0748 41.0735 88.8272 41.2232C87.2303 41.3729 87.9289 42.7203 87.879 43.6185C87.7792 45.5148 87.879 47.4111 87.8291 49.3574C87.8291 50.0061 87.9289 50.7546 86.881 50.7546C85.9328 50.7546 85.833 50.1558 85.833 49.4073C85.833 43.5187 85.833 37.6302 85.833 31.7416C85.833 30.7935 86.1823 30.3443 87.1305 30.3942C89.6256 30.494 92.1208 30.1447 94.566 30.6437C97.2608 31.2426 98.6082 32.6898 98.7579 35.135C98.9575 37.8298 97.9095 39.7261 95.3645 40.5245C93.4682 41.1234 94.0171 41.822 94.7157 42.9199C96.2627 45.3152 97.7598 47.7605 99.3567 50.4053ZM91.2225 39.4766C91.2225 39.4766 91.5719 39.4766 91.8713 39.4267C95.2647 39.1772 96.8117 38.0294 96.8117 35.7338C96.8117 33.3884 95.2148 32.1907 91.8713 31.9911C87.7792 31.7416 87.7792 31.7416 87.7792 35.8337C87.8291 39.5265 87.8291 39.5265 91.2225 39.4766Z" fill="#ACC8D2"/>
<path d="M135.936 21.9094C138.73 15.5718 141.475 9.18418 144.219 2.8465C144.519 2.14786 144.968 1.79854 145.766 1.84844C146.615 1.89834 146.864 2.44728 147.164 3.04611C149.709 8.98456 152.254 14.923 154.799 20.8615C154.998 21.2607 155.448 21.8595 154.799 22.109C154.25 22.3586 153.501 22.4584 153.052 21.7597C152.903 21.4603 152.653 21.1609 152.603 20.8615C151.954 17.0688 149.409 16.3203 146.116 16.8692C145.717 16.9191 145.267 16.9191 144.868 16.8692C141.575 16.3203 139.229 17.1686 138.58 20.8615C138.331 22.109 137.483 22.6081 135.936 21.9094ZM145.567 4.09407C143.97 7.8368 142.672 10.9807 141.375 14.1246C141.026 15.0228 141.674 15.0727 142.323 15.0727C144.469 15.0727 146.615 15.0727 148.761 15.0727C149.809 15.0727 150.058 14.6236 149.659 13.6754C148.361 10.7312 147.114 7.73699 145.567 4.09407Z" fill="#ACC8D2"/>
<path d="M107.491 40.5714C107.491 37.8268 107.541 35.0821 107.491 32.3873C107.441 30.99 107.741 30.2415 109.387 30.2914C112.432 30.3912 115.526 30.3413 118.619 30.3413C119.268 30.3413 120.067 30.2415 120.067 31.2396C120.117 32.2875 119.268 32.0879 118.619 32.0879C116.124 32.0879 113.629 32.1378 111.134 32.0879C109.886 32.038 109.437 32.4871 109.338 33.7846C109.038 39.224 108.988 39.224 114.328 39.224C115.426 39.224 116.474 39.1741 117.572 39.224C118.22 39.2739 119.268 38.9246 119.218 40.1223C119.168 41.2202 118.17 40.9207 117.472 40.9706C115.376 41.0205 113.33 41.0205 111.234 40.9706C109.886 40.9207 109.387 41.4198 109.288 42.8171C108.988 49.0549 108.938 49.0549 115.226 49.0549C116.474 49.0549 117.721 49.0549 118.969 49.0549C119.518 49.0549 120.216 49.005 120.266 49.8534C120.316 50.7017 119.717 50.7516 119.119 50.7516C115.625 50.7516 112.132 50.7017 108.639 50.7516C107.341 50.7516 107.441 49.9033 107.441 49.1048C107.491 46.2105 107.491 43.366 107.491 40.5714Z" fill="#ACC8D2"/>
<path d="M59.7334 40.426C59.7334 36.4337 61.3802 33.1401 65.073 31.144C68.6161 29.1978 72.259 29.2477 75.7523 31.3436C76.401 31.7428 77.7484 32.1421 77.0996 33.2898C76.3012 34.6372 75.5027 33.5892 74.7043 32.9904C72.0594 31.0442 68.4165 31.0442 65.622 32.9405C62.528 34.9865 61.0808 39.0786 62.0788 42.8213C63.7256 49.2089 70.5124 51.4545 75.7023 47.3126C76.3012 46.8634 76.7503 46.4143 77.3491 47.063C78.2474 47.9613 77.1994 48.4104 76.8002 48.8097C73.7561 51.5543 70.213 51.8038 66.5701 50.5563C62.5779 49.2089 60.4819 46.1648 59.8332 42.0728C59.7334 41.5737 59.7334 41.0747 59.7334 40.426Z" fill="#ACC8D2"/>
<path d="M123.161 19.6182C125.107 14.5281 126.854 9.93708 128.55 5.2961C128.8 4.59746 129.099 3.89882 129.299 3.20017C129.548 2.35182 129.998 1.55338 130.996 1.9027C132.343 2.40173 131.345 3.25008 131.095 3.89882C128.95 9.53785 126.804 15.1769 124.658 20.8159C124.359 21.6144 124.059 22.313 122.961 22.2631C121.963 22.2132 121.714 21.6643 121.464 20.9157C119.219 15.0272 116.973 9.18853 114.727 3.29998C114.578 2.90076 114.478 2.50153 114.378 2.10231C115.875 1.35376 116.474 2.10231 116.923 3.39979C118.57 7.89105 120.266 12.3823 121.963 16.8736C122.312 17.6221 122.612 18.3707 123.161 19.6182Z" fill="#ACC8D2"/>
<path d="M171.168 41.1228C171.168 38.7274 171.118 36.3321 171.217 33.9368C171.267 32.5395 170.818 31.9905 169.371 32.0904C168.074 32.1902 166.726 32.0904 165.379 32.0904C164.83 32.0904 164.431 31.8907 164.431 31.242C164.431 30.5933 164.83 30.3438 165.379 30.3438C169.92 30.3438 174.511 30.3438 179.052 30.3438C179.601 30.3438 180 30.5434 180 31.1921C180 31.8408 179.601 32.0404 179.052 32.0404C177.705 32.0404 176.407 32.1403 175.06 32.0404C173.513 31.9406 173.064 32.5395 173.064 34.0366C173.114 38.7774 173.114 43.4682 173.064 48.209C173.064 49.0075 173.812 50.5545 172.216 50.5545C170.419 50.6044 171.267 48.9576 171.217 48.0593C171.118 45.7638 171.168 43.4682 171.168 41.1228Z" fill="#ACC8D2"/>
<path d="M156.945 40.6238C156.945 43.4183 156.945 46.2628 156.945 49.0574C156.945 49.756 157.094 50.6543 155.946 50.6543C154.699 50.6543 154.998 49.756 154.998 49.0574C154.998 43.3684 154.998 37.6296 154.998 31.9406C154.998 31.2919 154.749 30.3438 155.946 30.3438C157.094 30.3438 156.945 31.1921 156.945 31.9406C156.994 34.835 156.945 37.7294 156.945 40.6238Z" fill="#ACC8D2"/>
</g>
<defs>
<clipPath id="clip0_9865_70071">
<rect width="180" height="52.8472" fill="white"/>
</clipPath>
</defs>
</svg>
