<svg width="52" height="54" viewBox="0 0 52 54" fill="none" xmlns="http://www.w3.org/2000/svg">
<rect width="52" height="54" rx="5" fill="#C4C4C4"/>
<path d="M21.08 24.57C21.18 23.8767 21.3733 23.27 21.66 22.75C21.9467 22.2233 22.3033 21.7867 22.73 21.44C23.1633 21.0867 23.6567 20.8233 24.21 20.65C24.77 20.47 25.37 20.38 26.01 20.38C26.6767 20.38 27.2767 20.4767 27.81 20.67C28.35 20.8567 28.81 21.12 29.19 21.46C29.57 21.7933 29.86 22.1867 30.06 22.64C30.2667 23.0933 30.37 23.5833 30.37 24.11C30.37 24.57 30.3167 24.9767 30.21 25.33C30.11 25.6767 29.9633 25.98 29.77 26.24C29.5767 26.5 29.3367 26.72 29.05 26.9C28.7633 27.08 28.44 27.23 28.08 27.35C28.9467 27.6233 29.5933 28.04 30.02 28.6C30.4467 29.16 30.66 29.8633 30.66 30.71C30.66 31.43 30.5267 32.0667 30.26 32.62C29.9933 33.1733 29.6333 33.64 29.18 34.02C28.7267 34.3933 28.2 34.6767 27.6 34.87C27.0067 35.0633 26.3767 35.16 25.71 35.16C24.9833 35.16 24.35 35.0767 23.81 34.91C23.27 34.7433 22.8 34.4967 22.4 34.17C22 33.8433 21.66 33.4433 21.38 32.97C21.1 32.4967 20.86 31.95 20.66 31.33L21.75 30.88C22.0367 30.76 22.3033 30.73 22.55 30.79C22.8033 30.8433 22.9867 30.9767 23.1 31.19C23.22 31.4233 23.35 31.6533 23.49 31.88C23.6367 32.1067 23.81 32.31 24.01 32.49C24.21 32.6633 24.4433 32.8067 24.71 32.92C24.9833 33.0267 25.3067 33.08 25.68 33.08C26.1 33.08 26.4667 33.0133 26.78 32.88C27.0933 32.74 27.3533 32.56 27.56 32.34C27.7733 32.12 27.93 31.8767 28.03 31.61C28.1367 31.3367 28.19 31.0633 28.19 30.79C28.19 30.4433 28.1533 30.13 28.08 29.85C28.0067 29.5633 27.8533 29.32 27.62 29.12C27.3867 28.92 27.05 28.7633 26.61 28.65C26.1767 28.5367 25.5933 28.48 24.86 28.48V26.72C25.4667 26.7133 25.97 26.6567 26.37 26.55C26.77 26.4433 27.0867 26.2967 27.32 26.11C27.56 25.9167 27.7267 25.6867 27.82 25.42C27.9133 25.1533 27.96 24.86 27.96 24.54C27.96 23.86 27.77 23.3433 27.39 22.99C27.01 22.6367 26.5033 22.46 25.87 22.46C25.5767 22.46 25.3067 22.5033 25.06 22.59C24.8133 22.67 24.59 22.7867 24.39 22.94C24.1967 23.0867 24.0333 23.26 23.9 23.46C23.7667 23.66 23.6667 23.88 23.6 24.12C23.4867 24.4267 23.3367 24.63 23.15 24.73C22.97 24.83 22.7133 24.8533 22.38 24.8L21.08 24.57Z" fill="black"/>
</svg>
