<svg width="52" height="54" viewBox="0 0 52 54" fill="none" xmlns="http://www.w3.org/2000/svg">
<rect width="52" height="54" rx="5" fill="#C4C4C4"/>
<path d="M29.81 32.7C30.0767 32.7 30.2867 32.7767 30.44 32.93C30.6 33.0767 30.68 33.2733 30.68 33.52V35H20.76V34.18C20.76 34.0133 20.7933 33.84 20.86 33.66C20.9333 33.4733 21.0467 33.3067 21.2 33.16L25.59 28.76C25.9567 28.3867 26.2833 28.03 26.57 27.69C26.8633 27.35 27.1067 27.0133 27.3 26.68C27.4933 26.3467 27.64 26.01 27.74 25.67C27.8467 25.3233 27.9 24.96 27.9 24.58C27.9 24.2333 27.85 23.93 27.75 23.67C27.65 23.4033 27.5067 23.18 27.32 23C27.14 22.82 26.92 22.6867 26.66 22.6C26.4067 22.5067 26.12 22.46 25.8 22.46C25.5067 22.46 25.2333 22.5033 24.98 22.59C24.7333 22.67 24.5133 22.7867 24.32 22.94C24.1267 23.0867 23.9633 23.26 23.83 23.46C23.6967 23.66 23.5967 23.88 23.53 24.12C23.4167 24.4267 23.27 24.63 23.09 24.73C22.91 24.83 22.65 24.8533 22.31 24.8L21.01 24.57C21.11 23.8767 21.3033 23.27 21.59 22.75C21.8767 22.2233 22.2333 21.7867 22.66 21.44C23.0933 21.0867 23.5867 20.8233 24.14 20.65C24.7 20.47 25.3 20.38 25.94 20.38C26.6067 20.38 27.2167 20.48 27.77 20.68C28.3233 20.8733 28.7967 21.15 29.19 21.51C29.5833 21.87 29.89 22.3033 30.11 22.81C30.33 23.3167 30.44 23.88 30.44 24.5C30.44 25.0333 30.36 25.5267 30.2 25.98C30.0467 26.4333 29.8367 26.8667 29.57 27.28C29.31 27.6933 29.0033 28.0933 28.65 28.48C28.2967 28.8667 27.9267 29.26 27.54 29.66L24.28 32.99C24.5933 32.8967 24.9033 32.8267 25.21 32.78C25.5233 32.7267 25.82 32.7 26.1 32.7H29.81Z" fill="black"/>
</svg>
