<svg width="350" height="250" viewBox="0 0 350 250" fill="none" xmlns="http://www.w3.org/2000/svg">
<g clip-path="url(#clip0_10197_76332)">
<path d="M324.074 0H25.9259C11.6074 0 0 9.3274 0 20.8333V229.167C0 240.673 11.6074 250 25.9259 250H324.074C338.393 250 350 240.673 350 229.167V20.8333C350 9.3274 338.393 0 324.074 0Z" fill="#518C36"/>
<path opacity="0.5" fill-rule="evenodd" clip-rule="evenodd" d="M391.481 257.291H84.3555C91.9096 254.519 99.2805 251.97 106.651 249.42H106.652C143.532 236.665 180.411 223.91 240.231 183.3C300.059 142.687 323.005 114.822 345.95 86.9597C358.912 71.2206 371.874 55.482 391.481 37.4458V257.291ZM894.066 -162.537H894.768L824.879 -238.367L824.503 -237.911L824.246 -237.598C823.786 -237.04 823.327 -236.483 822.868 -235.926L894.066 -162.537ZM982.09 154.204V161.015C983.131 159.841 984.188 158.662 985.264 157.477L982.09 154.204Z" fill="#000000"/>
<path opacity="0.8" fill-rule="evenodd" clip-rule="evenodd" d="M427.775 255.754H165.721C170.168 254.194 174.565 252.695 178.962 251.196C211.179 240.214 243.395 229.233 295.651 194.269C347.913 159.303 367.957 135.312 388.002 111.322C399.324 97.7722 410.647 84.2219 427.775 68.6935V255.754ZM943.701 166.998L947.533 170.891C946.225 172.298 944.949 173.694 943.701 175.082V166.998ZM805.617 -167.87L806.042 -168.381L806.37 -168.773L837.576 -135.403L805.617 -167.87Z" fill="#000000"/>
</g>
<defs>
<clipPath id="clip0_10197_76332">
<rect width="350" height="250" fill="white"/>
</clipPath>
</defs>
</svg>
