<svg width="50" height="51" viewBox="0 0 50 51" fill="none" xmlns="http://www.w3.org/2000/svg">
<circle cx="25" cy="25.4844" r="25" fill="#FFF1E9"/>
<g clip-path="url(#clip0_4058_17737)">
<path d="M34.9948 25.158C34.827 19.9041 30.5801 15.6574 25.3264 15.4896C22.4677 15.3989 19.7931 16.487 17.8166 18.5278C15.9163 20.4896 14.918 23.076 15.0053 25.8107C15.1729 31.0644 19.4198 35.3113 24.6735 35.479C24.7829 35.4825 24.8913 35.4841 24.9999 35.4841C27.7313 35.4841 30.2824 34.4033 32.1833 32.4408C34.0835 30.4791 35.0821 27.8926 34.9948 25.158ZM30.6706 30.9757C29.17 32.525 27.1561 33.3783 24.9999 33.3783C24.9137 33.3783 24.8275 33.3769 24.7406 33.3742C20.5943 33.2418 17.2426 29.8901 17.11 25.7436C17.0411 23.5839 17.8292 21.5417 19.3292 19.993C20.8299 18.4437 22.8438 17.5905 24.9999 17.5905C25.0862 17.5905 25.1724 17.5919 25.2593 17.5945C29.4056 17.7269 32.7573 21.0786 32.8898 25.2251C32.9588 27.3848 32.1706 29.4271 30.6706 30.9757Z" fill="#FD7522"/>
<path d="M28.2808 24.9026L23.8463 21.7231C23.3733 21.3839 22.7148 21.722 22.7148 22.3041V28.6633C22.7148 29.2454 23.3733 29.5835 23.8463 29.2443L28.2807 26.0646C28.6786 25.7794 28.6786 25.1879 28.2808 24.9026Z" fill="#FD7522"/>
</g>
<defs>
<clipPath id="clip0_4058_17737">
<rect width="20" height="20" fill="white" transform="translate(15 15.4844)"/>
</clipPath>
</defs>
</svg>
