<svg width="35" height="32" viewBox="0 0 35 32" fill="none" xmlns="http://www.w3.org/2000/svg">
<rect width="35" height="31.4696" rx="5" fill="#E5EAFF"/>
<path d="M24.9026 12.3634C24.8042 12.2157 24.6236 12.1337 24.4431 12.1337H13.2005H13.1677L12.6424 10.6401C12.5275 10.2626 12.1665 10 11.7725 10H10.3939C10.1805 10 10 10.1805 10 10.3939C10 10.6073 10.1805 10.7879 10.3939 10.7879H11.7725C11.8381 10.7879 11.8875 10.8207 11.9039 10.8863L14.415 18.0586C14.5299 18.436 14.8909 18.6986 15.2848 18.6986H15.4817H22.8345C23.0807 18.6986 23.3269 18.4197 23.3925 18.1899C23.7865 16.8113 24.9845 12.823 24.9845 12.823C25.0175 12.6753 25.0011 12.5111 24.9026 12.3635L24.9026 12.3634Z" fill="#4751D1"/>
<path d="M16.4172 19.0391C15.7442 19.0391 15.2026 19.5807 15.2026 20.2536C15.2026 20.9266 15.7442 21.4682 16.4172 21.4682C17.0901 21.4682 17.6317 20.9266 17.6317 20.2536C17.6317 19.5807 17.0901 19.0391 16.4172 19.0391V19.0391ZM16.4172 20.6803C16.171 20.6803 15.974 20.4834 15.974 20.2371C15.974 19.991 16.1709 19.794 16.4172 19.794C16.6633 19.794 16.8604 19.9909 16.8604 20.2371C16.8604 20.4834 16.6634 20.6803 16.4172 20.6803Z" fill="#4751D1"/>
<path d="M21.6201 19.0391C20.9471 19.0391 20.4055 19.5807 20.4055 20.2536C20.4055 20.9266 20.9471 21.4682 21.6201 21.4682C22.293 21.4682 22.8346 20.9266 22.8346 20.2536C22.8346 19.5807 22.293 19.0391 21.6201 19.0391V19.0391ZM21.6201 20.6803C21.3739 20.6803 21.1769 20.4834 21.1769 20.2371C21.1769 19.991 21.3738 19.794 21.6201 19.794C21.8662 19.794 22.0632 19.9909 22.0632 20.2371C22.0632 20.4834 21.8663 20.6803 21.6201 20.6803Z" fill="#4751D1"/>
</svg>
