<svg width="30" height="30" viewBox="0 0 30 30" fill="none" xmlns="http://www.w3.org/2000/svg">
<path d="M24.375 12.1875H20.625V10.3125C20.625 7.21084 18.1017 4.6875 15 4.6875C11.8983 4.6875 9.375 7.21084 9.375 10.3125V12.1875H5.625V10.3125C5.625 5.14307 9.83063 0.9375 15 0.9375C20.1694 0.9375 24.375 5.14307 24.375 10.3125V12.1875Z" fill="#121243"/>
<path d="M24.375 29.0625H5.625C4.58947 29.0625 3.75 28.223 3.75 27.1875V14.0625C3.75 13.027 4.58947 12.1875 5.625 12.1875H24.375C25.4105 12.1875 26.25 13.027 26.25 14.0625V27.1875C26.25 28.223 25.4105 29.0625 24.375 29.0625Z" fill="#000000"/>
<path d="M18.75 29.0625H5.625C4.58947 29.0625 3.75 28.223 3.75 27.1875V14.0625C3.75 13.027 4.58947 12.1875 5.625 12.1875H18.75C19.7855 12.1875 20.625 13.027 20.625 14.0625V27.1875C20.625 28.223 19.7855 29.0625 18.75 29.0625Z" fill="#000000"/>
<path d="M15 0.9375C9.8223 0.9375 5.625 5.1348 5.625 10.3125V12.1875H7.5V10.3125C7.5 6.17039 10.8578 2.8125 15 2.8125C15.5178 2.8125 15.9375 2.39273 15.9375 1.875C15.9375 1.35727 15.5178 0.9375 15 0.9375Z" fill="#000000"/>
<path d="M21.5625 9.375C21.0447 9.375 20.625 9.79471 20.625 10.3125V12.1875H22.5V10.3125C22.5 9.79471 22.0803 9.375 21.5625 9.375Z" fill="#000000"/>
</svg>
