<svg width="80" height="80" viewBox="0 0 80 80" fill="none" xmlns="http://www.w3.org/2000/svg">
<circle cx="40" cy="40" r="40" fill="#FFF1E9"/>
<path d="M44.5791 32.8166C43.2489 32.8166 42.1667 31.7344 42.1667 30.4042V20.8043C42.1667 20.5232 42.2188 20.2536 42.308 20H25.8043C25.3619 20 25 20.3619 25 20.8043V59.4006C25 59.843 25.3619 60.2049 25.8043 60.2049H54.1808C54.6231 60.2049 54.985 59.843 54.985 59.4006V32.6739C54.7367 32.7606 54.4742 32.8173 54.1965 32.8173L44.5791 32.8166ZM29.9573 26.8347H40.8121C41.2566 26.8347 41.6163 27.1944 41.6163 27.639C41.6163 28.0835 41.2566 28.4432 40.8121 28.4432H29.9573C29.5127 28.4432 29.153 28.0835 29.153 27.639C29.1533 27.1944 29.5127 26.8347 29.9573 26.8347ZM49.8584 53.8718H29.9573C29.5127 53.8718 29.153 53.5121 29.153 53.0676C29.153 52.623 29.5127 52.2633 29.9573 52.2633H49.8584C50.303 52.2633 50.6627 52.623 50.6627 53.0676C50.6627 53.5121 50.303 53.8718 49.8584 53.8718ZM49.8584 48.3101H29.9573C29.5127 48.3101 29.153 47.9504 29.153 47.5058C29.153 47.0613 29.5127 46.7016 29.9573 46.7016H49.8584C50.303 46.7016 50.6627 47.0613 50.6627 47.5058C50.6627 47.9504 50.303 48.3101 49.8584 48.3101ZM49.8584 42.749H29.9573C29.5127 42.749 29.153 42.3893 29.153 41.9447C29.153 41.5002 29.5127 41.1405 29.9573 41.1405H49.8584C50.303 41.1405 50.6627 41.5002 50.6627 41.9447C50.6627 42.3893 50.303 42.749 49.8584 42.749ZM49.8584 37.1869H29.9573C29.5127 37.1869 29.153 36.8272 29.153 36.3827C29.153 35.9381 29.5127 35.5784 29.9573 35.5784H49.8584C50.303 35.5784 50.6627 35.9381 50.6627 36.3827C50.6627 36.8272 50.303 37.1869 49.8584 37.1869Z" fill="#FD7522"/>
<path d="M44.5794 31.2082H54.1801H54.1962C54.6385 31.2082 55.0004 30.8464 55.0004 30.404C55.0004 30.1306 54.8637 29.8894 54.6626 29.7447L45.1503 20.2324C44.9171 20.0072 44.5713 19.9348 44.2739 20.0634C43.9682 20.1843 43.7754 20.4817 43.7754 20.8035V30.4042C43.7754 30.8466 44.1372 31.2081 44.5793 31.2081L44.5794 31.2082Z" fill="#FD7522"/>
</svg>
