<svg width="25" height="25" viewBox="0 0 25 25" fill="none" xmlns="http://www.w3.org/2000/svg">
<g clip-path="url(#clip0_1371_9391)">
<path d="M18.0664 17.8711C18.6057 17.8711 19.043 17.4339 19.043 16.8945C19.043 16.3552 18.6057 15.918 18.0664 15.918C17.5271 15.918 17.0898 16.3552 17.0898 16.8945C17.0898 17.4339 17.5271 17.8711 18.0664 17.8711Z" fill="#121243" stroke="white" stroke-width="0.5"/>
<path d="M22.4609 17.6758C23.0003 17.6758 23.4375 17.2386 23.4375 16.6992V13.0859C23.4375 10.932 21.6852 9.17969 19.5312 9.17969H18.3576V5.73564C18.3576 2.573 15.7291 0 12.4982 0C9.26733 0 6.63882 2.573 6.63882 5.73564V9.17969H5.46875C3.31484 9.17969 1.5625 10.932 1.5625 13.0859V21.0938C1.5625 23.2477 3.31484 25 5.46875 25H19.5312C21.6852 25 23.4375 23.2477 23.4375 21.0938C23.4375 20.5544 23.0003 20.1172 22.4609 20.1172C21.9216 20.1172 21.4844 20.5544 21.4844 21.0938C21.4844 22.1707 20.6082 23.0469 19.5312 23.0469H5.46875C4.3918 23.0469 3.51562 22.1707 3.51562 21.0938V13.0859C3.51562 12.009 4.3918 11.1328 5.46875 11.1328H19.5312C20.6082 11.1328 21.4844 12.009 21.4844 13.0859V16.6992C21.4844 17.2386 21.9216 17.6758 22.4609 17.6758ZM16.4044 9.17969H8.59194V5.73564C8.59194 3.64995 10.3443 1.95312 12.4982 1.95312C14.6521 1.95312 16.4044 3.64995 16.4044 5.73564V9.17969Z" fill="#121243" stroke="white"/>
<path d="M10.6934 17.8711C11.2327 17.8711 11.6699 17.4339 11.6699 16.8945C11.6699 16.3552 11.2327 15.918 10.6934 15.918C10.154 15.918 9.7168 16.3552 9.7168 16.8945C9.7168 17.4339 10.154 17.8711 10.6934 17.8711Z" fill="#121243" stroke="white" stroke-width="0.5"/>
<path d="M7.03125 17.8711C7.57059 17.8711 8.00781 17.4339 8.00781 16.8945C8.00781 16.3552 7.57059 15.918 7.03125 15.918C6.49191 15.918 6.05469 16.3552 6.05469 16.8945C6.05469 17.4339 6.49191 17.8711 7.03125 17.8711Z" fill="#121243" stroke="white" stroke-width="0.5"/>
<path d="M14.3555 17.8711C14.8948 17.8711 15.332 17.4339 15.332 16.8945C15.332 16.3552 14.8948 15.918 14.3555 15.918C13.8161 15.918 13.3789 16.3552 13.3789 16.8945C13.3789 17.4339 13.8161 17.8711 14.3555 17.8711Z" fill="#121243" stroke="white" stroke-width="0.5"/>
</g>
<defs>
<clipPath id="clip0_1371_9391">
<rect width="25" height="25" fill="white"/>
</clipPath>
</defs>
</svg>
