<svg width="70" height="70" viewBox="0 0 70 70" fill="none" xmlns="http://www.w3.org/2000/svg">
<path d="M0 35C0 54.3061 15.694 70 35 70C54.3061 70 70 54.3061 70 35C70 15.694 54.3061 0 35 0C15.694 0 0 15.694 0 35ZM62.2776 35C62.2776 49.8719 50.2206 61.9039 35.3737 61.9039C20.5018 61.9039 8.46975 49.847 8.46975 35C8.46975 20.1281 20.5018 8.09609 35.3737 8.09609C50.2206 8.09609 62.2776 20.1281 62.2776 35Z" fill="#000000"/>
<path d="M34.4283 55.5314H37.5173C38.439 55.5314 39.1863 54.7841 39.1863 53.8624V50.9976C41.6525 50.6239 43.7949 49.8517 45.6383 48.656C48.503 46.7627 49.9728 44.1471 50.0475 40.809C50.0974 38.7164 49.5244 36.9478 48.3038 35.5029C46.3607 33.1862 43.3216 31.7164 39.1863 31.1435V25.3392C39.9087 25.688 40.6062 26.1364 41.2788 26.7093C41.7023 27.0581 42.1756 27.2325 42.7237 27.2325C43.1721 27.2325 43.77 26.9335 43.77 26.9335L47.2326 24.7663C47.7059 24.4673 47.955 24.0937 47.955 23.6204C47.955 23.2467 47.8055 22.9228 47.5066 22.6488C45.3643 20.2075 42.5742 18.688 39.1863 18.0901V14.8268C39.1863 13.9051 38.439 13.1328 37.5173 13.1328H34.4283C33.5066 13.1328 32.7593 13.8801 32.7593 14.8268V18.0154C31.165 18.2396 29.7201 18.6382 28.4497 19.236C24.3144 21.1293 22.2717 23.9442 22.3465 27.7058C22.3714 29.5492 22.9443 31.1933 23.9906 32.5883C25.7842 35.0047 28.7237 36.5243 32.7593 37.1471V44.3962C31.0155 43.7734 29.3714 42.6275 27.802 40.9584C27.4532 40.51 27.0048 40.2858 26.4319 40.2858C26.1329 40.2858 25.5102 40.5599 25.5102 40.5599L22.3714 42.4033C21.8233 42.7022 21.5742 43.1257 21.5742 43.6239C21.5742 43.9478 21.6988 44.2467 21.9479 44.5207C22.7699 45.6666 23.866 46.7627 25.2361 47.809C27.4532 49.5278 29.9692 50.5741 32.7593 51.0225V53.8873C32.7344 54.7841 33.5066 55.5314 34.4283 55.5314ZM39.1863 37.8944C40.8554 38.4175 41.7023 39.389 41.6774 40.809C41.6525 42.1293 41.0547 43.1506 39.8589 43.8979C39.6347 44.0225 39.4105 44.1471 39.1863 44.2467V37.8944ZM30.7166 27.7058C30.7166 26.6595 31.3144 25.8624 32.5102 25.2894L32.7344 25.1898V30.3214C31.3892 29.8232 30.7166 28.9513 30.7166 27.7058Z" fill="white"/>
<path d="M30.7148 27.6998C30.7148 28.9455 31.4124 29.8174 32.7577 30.3157V25.1836L32.5335 25.2832C31.2878 25.8562 30.7148 26.6535 30.7148 27.6998Z" fill="#000000"/>
<path d="M39.1865 44.263C39.4107 44.1634 39.6599 44.0388 39.8592 43.9142C41.055 43.1917 41.6529 42.1703 41.6778 40.825C41.6778 39.4049 40.8557 38.4333 39.1865 37.9102V44.263Z" fill="#000000"/>
<path d="M8.4707 35.0016C8.4707 49.8735 20.5027 61.9055 35.3746 61.9055C50.2465 61.9055 62.2785 49.8486 62.2785 35.0016C62.2785 20.1297 50.2216 8.09766 35.3746 8.09766C20.5027 8.09766 8.4707 20.1297 8.4707 35.0016ZM39.186 14.8236V18.087C42.5739 18.6848 45.3639 20.2044 47.5063 22.6457C47.8052 22.9197 47.9547 23.2436 47.9547 23.6172C47.9547 24.0905 47.7056 24.4642 47.2323 24.7631L43.7696 26.9304C43.7696 26.9304 43.1469 27.2293 42.7234 27.2293C42.1753 27.2293 41.702 27.055 41.2785 26.7062C40.6059 26.1332 39.9084 25.6599 39.186 25.3361V31.1404C43.3212 31.7133 46.3604 33.1831 48.3034 35.4998C49.4992 36.9446 50.0721 38.7133 50.0472 40.8058C49.9725 44.1439 48.5027 46.7596 45.638 48.6528C43.8195 49.8486 41.6522 50.6208 39.186 50.9945V53.8592C39.186 54.7809 38.4387 55.5283 37.517 55.5283H34.428C33.5063 55.5283 32.759 54.7809 32.759 53.8592V50.9945C29.9689 50.5461 27.4778 49.4749 25.2358 47.7809C23.8657 46.7347 22.7696 45.6386 21.9476 44.4927C21.6985 44.2187 21.5988 43.9197 21.5739 43.5959C21.5739 43.0977 21.823 42.6742 22.3711 42.3752L25.5098 40.5318C25.5098 40.5318 26.1077 40.2578 26.4316 40.2578C27.0045 40.2578 27.4529 40.482 27.8017 40.9304C29.3461 42.6244 31.0152 43.7703 32.759 44.3681V37.119C28.7234 36.4962 25.8088 34.9767 23.9903 32.5603C22.9191 31.1404 22.3711 29.4962 22.3461 27.6777C22.2714 23.9411 24.3141 21.1012 28.4493 19.208C29.7447 18.6101 31.1647 18.2115 32.759 17.9873V14.8236C32.759 13.9019 33.5063 13.1297 34.428 13.1297H37.517C38.4387 13.1546 39.186 13.9019 39.186 14.8236Z" fill="#000000"/>
</svg>
