<svg width="600" height="230" viewBox="0 0 600 230" fill="none" xmlns="http://www.w3.org/2000/svg">
<path d="M0 10C0 4.47715 4.47715 0 10 0H590C595.523 0 600 4.47715 600 10V230H0V10Z" fill="#F0F3EE"/>
<path d="M222.38 199.441C222.224 199.441 222.092 199.316 222.076 199.161L221.304 190.63C221.242 189.92 220.681 189.343 219.963 189.265L213.273 188.525C213.117 188.509 213 188.377 213 188.221C213 188.065 213.117 187.932 213.273 187.917L219.963 187.176C220.673 187.098 221.242 186.521 221.304 185.811L222.076 177.281C222.092 177.125 222.224 177 222.38 177C222.544 177 222.677 177.125 222.685 177.281L223.456 185.811C223.519 186.529 224.088 187.098 224.798 187.176L231.48 187.917C231.636 187.932 231.753 188.065 231.753 188.221C231.753 188.377 231.636 188.509 231.48 188.525L224.798 189.265C224.088 189.343 223.519 189.92 223.456 190.63L222.685 199.161C222.669 199.316 222.536 199.441 222.38 199.441ZM216.111 188.213L220.026 188.642C221.031 188.751 221.819 189.562 221.913 190.568L222.373 195.691L222.833 190.568C222.926 189.562 223.714 188.751 224.72 188.642L228.634 188.213L224.72 187.776C223.714 187.667 222.926 186.856 222.833 185.85L222.373 180.727L221.913 185.85C221.819 186.856 221.031 187.667 220.026 187.776L216.111 188.213Z" fill="#97E373"/>
<g opacity="0.5">
<path opacity="0.5" d="M231.75 217.33C231.594 217.33 231.454 217.205 231.446 217.049L230.924 211.24C230.885 210.803 230.534 210.444 230.097 210.398L225.543 209.891C225.387 209.875 225.271 209.743 225.271 209.587C225.271 209.431 225.387 209.298 225.543 209.283L230.097 208.776C230.534 208.729 230.885 208.37 230.924 207.934L231.446 202.124C231.462 201.968 231.594 201.844 231.75 201.844C231.906 201.844 232.047 201.968 232.054 202.124L232.577 207.934C232.616 208.37 232.967 208.729 233.403 208.776L237.957 209.283C238.113 209.298 238.23 209.431 238.23 209.587C238.23 209.743 238.113 209.875 237.957 209.891L233.403 210.398C232.967 210.444 232.616 210.803 232.577 211.24L232.054 217.049C232.047 217.205 231.914 217.33 231.75 217.33ZM228.382 209.587L230.167 209.782C230.893 209.86 231.47 210.452 231.54 211.177L231.758 213.579L231.976 211.177C232.039 210.444 232.616 209.86 233.349 209.782L235.134 209.587L233.349 209.392C232.624 209.314 232.047 208.721 231.976 207.996L231.758 205.594L231.54 207.996C231.477 208.729 230.9 209.314 230.167 209.392L228.382 209.587Z" fill="#97E373"/>
</g>
<path d="M216.024 99.6918C215.907 99.6918 215.814 99.6061 215.806 99.4891L215.26 93.3992C215.213 92.8924 214.816 92.4791 214.301 92.4246L209.529 91.8943C209.42 91.8787 209.334 91.7852 209.334 91.676C209.334 91.5668 209.42 91.4733 209.529 91.4577L214.301 90.9274C214.808 90.8729 215.213 90.4596 215.26 89.9528L215.806 83.8629C215.814 83.7459 215.915 83.6602 216.024 83.6602C216.141 83.6602 216.235 83.7459 216.243 83.8629L216.788 89.9528C216.835 90.4596 217.241 90.8729 217.747 90.9274L222.52 91.4577C222.629 91.4733 222.715 91.5668 222.715 91.676C222.715 91.7852 222.629 91.8787 222.52 91.8943L217.747 92.4246C217.241 92.4791 216.835 92.8924 216.788 93.3992L216.243 99.4891C216.235 99.6061 216.133 99.6918 216.024 99.6918ZM211.556 91.6838L214.348 91.9957C215.065 92.0737 215.627 92.6507 215.697 93.3681L216.024 97.0251L216.352 93.3681C216.414 92.6507 216.983 92.0737 217.701 91.9957L220.492 91.6838L217.701 91.3719C216.983 91.2939 216.422 90.7169 216.352 89.9995L216.024 86.3425L215.697 89.9995C215.634 90.7169 215.065 91.2939 214.348 91.3719L211.556 91.6838Z" fill="#97E373"/>
<g opacity="0.5">
<path opacity="0.5" d="M207.774 108.865C207.68 108.865 207.602 108.795 207.595 108.702L207.291 105.318C207.267 105.06 207.064 104.858 206.807 104.826L204.156 104.53C204.062 104.522 204 104.444 204 104.351C204 104.257 204.07 104.179 204.156 104.171L206.807 103.875C207.064 103.844 207.267 103.641 207.291 103.384L207.595 99.9997C207.602 99.9061 207.68 99.8359 207.774 99.8359C207.868 99.8359 207.946 99.9061 207.953 99.9997L208.257 103.384C208.281 103.641 208.484 103.844 208.741 103.875L211.392 104.171C211.486 104.179 211.548 104.257 211.548 104.351C211.548 104.444 211.478 104.522 211.392 104.53L208.741 104.826C208.484 104.858 208.281 105.06 208.257 105.318L207.953 108.702C207.946 108.795 207.868 108.865 207.774 108.865ZM205.809 104.351L206.846 104.468C207.267 104.514 207.61 104.858 207.649 105.286L207.774 106.69L207.899 105.286C207.938 104.858 208.273 104.514 208.702 104.468L209.739 104.351L208.702 104.234C208.281 104.187 207.938 103.844 207.899 103.415L207.774 102.011L207.649 103.415C207.61 103.844 207.275 104.187 206.846 104.234L205.809 104.351Z" fill="#97E373"/>
</g>
<path d="M370.353 208.634C370.228 208.634 370.127 208.541 370.111 208.416L369.511 201.733C369.464 201.172 369.02 200.72 368.458 200.657L363.218 200.08C363.094 200.065 363 199.963 363 199.839C363 199.714 363.094 199.612 363.218 199.597L368.458 199.02C369.02 198.957 369.456 198.505 369.511 197.952L370.111 191.261C370.119 191.137 370.228 191.043 370.353 191.043C370.478 191.043 370.579 191.137 370.595 191.261L371.195 197.952C371.242 198.513 371.686 198.965 372.248 199.02L377.488 199.597C377.613 199.612 377.706 199.714 377.706 199.839C377.706 199.963 377.613 200.065 377.488 200.08L372.248 200.657C371.686 200.72 371.25 201.172 371.195 201.733L370.595 208.416C370.579 208.541 370.478 208.634 370.353 208.634ZM365.441 199.839L368.513 200.174C369.3 200.26 369.916 200.899 369.994 201.687L370.353 205.702L370.712 201.687C370.782 200.899 371.406 200.267 372.193 200.174L375.265 199.839L372.193 199.495C371.406 199.41 370.79 198.778 370.712 197.991L370.353 193.975L369.994 197.991C369.924 198.778 369.3 199.41 368.513 199.495L365.441 199.839Z" fill="#97E373"/>
<g opacity="0.5">
<path opacity="0.5" d="M388.55 197.192C388.449 197.192 388.363 197.114 388.355 197.013L388.02 193.293C387.997 193.012 387.77 192.786 387.49 192.755L384.573 192.435C384.472 192.428 384.394 192.342 384.394 192.24C384.394 192.139 384.472 192.053 384.573 192.046L387.49 191.726C387.77 191.695 387.997 191.469 388.02 191.188L388.355 187.468C388.363 187.367 388.449 187.289 388.55 187.289C388.651 187.289 388.737 187.367 388.745 187.468L389.08 191.188C389.104 191.469 389.33 191.695 389.611 191.726L392.527 192.046C392.628 192.053 392.698 192.139 392.698 192.24C392.698 192.342 392.62 192.428 392.527 192.435L389.611 192.755C389.33 192.786 389.104 193.012 389.08 193.293L388.745 197.013C388.737 197.114 388.651 197.192 388.55 197.192ZM386.39 192.233L387.529 192.357C387.997 192.412 388.363 192.786 388.41 193.254L388.55 194.79L388.69 193.254C388.729 192.786 389.104 192.412 389.572 192.357L390.71 192.233L389.572 192.108C389.104 192.053 388.737 191.679 388.69 191.211L388.55 189.675L388.41 191.211C388.371 191.679 387.997 192.053 387.529 192.108L386.39 192.233Z" fill="#97E373"/>
</g>
<g opacity="0.5">
<path opacity="0.5" d="M377.761 181.899C377.597 181.899 377.457 181.774 377.449 181.611L376.911 175.638C376.872 175.185 376.513 174.819 376.061 174.772L371.382 174.258C371.219 174.242 371.102 174.102 371.102 173.946C371.102 173.782 371.226 173.649 371.382 173.634L376.061 173.119C376.513 173.072 376.872 172.706 376.911 172.254L377.449 166.289C377.464 166.125 377.597 166 377.761 166C377.924 166 378.065 166.125 378.073 166.289L378.611 172.261C378.65 172.714 379.008 173.08 379.46 173.127L384.139 173.642C384.303 173.657 384.42 173.798 384.42 173.953C384.42 174.117 384.295 174.25 384.139 174.265L379.46 174.78C379.008 174.827 378.65 175.193 378.611 175.646L378.073 181.611C378.065 181.774 377.924 181.899 377.761 181.899ZM374.299 173.946L376.131 174.148C376.88 174.234 377.472 174.835 377.542 175.583L377.768 178.055L377.987 175.583C378.057 174.835 378.65 174.226 379.398 174.141L381.231 173.938L379.398 173.735C378.65 173.649 378.057 173.049 377.987 172.3L377.768 169.829L377.542 172.3C377.472 173.049 376.88 173.657 376.131 173.743L374.299 173.946Z" fill="#97E373"/>
</g>
<path d="M387.02 138.296C386.871 138.296 386.754 138.187 386.739 138.039L386.029 130.202C385.967 129.547 385.452 129.017 384.797 128.947L378.653 128.269C378.512 128.253 378.403 128.128 378.403 127.988C378.403 127.84 378.512 127.723 378.653 127.707L384.797 127.029C385.452 126.959 385.967 126.428 386.029 125.774L386.739 117.937C386.754 117.789 386.871 117.68 387.02 117.68C387.168 117.68 387.285 117.789 387.3 117.937L388.01 125.774C388.072 126.428 388.587 126.959 389.242 127.029L395.386 127.707C395.527 127.723 395.636 127.848 395.636 127.988C395.636 128.136 395.527 128.253 395.386 128.269L389.242 128.947C388.587 129.017 388.064 129.547 388.01 130.202L387.3 138.039C387.285 138.179 387.168 138.296 387.02 138.296ZM381.265 127.98L384.86 128.378C385.78 128.479 386.505 129.22 386.591 130.148L387.012 134.858L387.433 130.148C387.519 129.228 388.244 128.479 389.164 128.378L392.759 127.98L389.164 127.583C388.244 127.481 387.511 126.74 387.433 125.812L387.012 121.103L386.591 125.812C386.505 126.733 385.78 127.481 384.86 127.583L381.265 127.98Z" fill="#97E373"/>
<g opacity="0.5">
<path opacity="0.5" d="M375.858 118.61C375.741 118.61 375.64 118.517 375.624 118.4L375.234 114.041C375.203 113.714 374.946 113.449 374.618 113.41L371.203 113.035C371.086 113.02 371 112.926 371 112.801C371 112.684 371.086 112.583 371.203 112.575L374.618 112.201C374.946 112.162 375.211 111.897 375.234 111.569L375.624 107.211C375.632 107.094 375.733 107 375.858 107C375.975 107 376.076 107.094 376.092 107.211L376.482 111.569C376.513 111.897 376.77 112.162 377.105 112.201L380.521 112.575C380.638 112.591 380.723 112.684 380.723 112.801C380.723 112.918 380.638 113.02 380.521 113.035L377.105 113.41C376.778 113.449 376.513 113.714 376.482 114.041L376.092 118.4C376.076 118.517 375.975 118.61 375.858 118.61ZM373.324 112.801L374.665 112.95C375.211 113.012 375.647 113.449 375.694 114.002L375.858 115.803L376.022 114.002C376.068 113.456 376.505 113.012 377.051 112.95L378.392 112.801L377.051 112.653C376.505 112.591 376.068 112.154 376.022 111.601L375.858 109.799L375.694 111.601C375.647 112.146 375.211 112.591 374.665 112.653L373.324 112.801Z" fill="#97E373"/>
</g>
<path d="M220.93 38.8836C220.789 38.8836 220.673 38.7745 220.657 38.6341L219.979 31.0783C219.924 30.4467 219.425 29.9399 218.793 29.8697L212.875 29.2147C212.735 29.1991 212.633 29.0822 212.633 28.9418C212.633 28.8015 212.735 28.6845 212.875 28.6689L218.793 28.0139C219.425 27.9437 219.924 27.4369 219.979 26.8053L220.657 19.2495C220.673 19.1092 220.789 19 220.93 19C221.07 19 221.187 19.1092 221.203 19.2495L221.881 26.8053C221.936 27.4369 222.435 27.9437 223.066 28.0139L228.985 28.6689C229.125 28.6845 229.226 28.8015 229.226 28.9418C229.226 29.0822 229.125 29.1991 228.985 29.2147L223.066 29.8697C222.435 29.9399 221.936 30.4467 221.881 31.0783L221.203 38.6341C221.195 38.7823 221.07 38.8836 220.93 38.8836ZM215.386 28.9496L218.856 29.3317C219.745 29.4331 220.446 30.1426 220.524 31.0394L220.93 35.5775L221.335 31.0394C221.413 30.1504 222.115 29.4331 223.004 29.3317L226.474 28.9496L223.004 28.5675C222.115 28.4662 221.413 27.7566 221.335 26.8599L220.93 22.3217L220.524 26.8599C220.446 27.7488 219.745 28.4662 218.856 28.5675L215.386 28.9496Z" fill="#97E373"/>
<g opacity="0.5">
<path opacity="0.5" d="M212.632 59.0881C212.515 59.0881 212.421 59.0023 212.413 58.8854L212.039 54.7371C212.008 54.4252 211.766 54.1679 211.446 54.1367L208.195 53.778C208.086 53.7624 208 53.6689 208 53.5597C208 53.4505 208.086 53.3569 208.195 53.3413L211.446 52.9827C211.758 52.9515 212.008 52.6942 212.039 52.3823L212.413 48.234C212.421 48.117 212.523 48.0312 212.632 48.0312C212.749 48.0312 212.842 48.117 212.85 48.234L213.224 52.3823C213.256 52.6942 213.497 52.9515 213.817 52.9827L217.069 53.3413C217.178 53.3569 217.263 53.4505 217.263 53.5597C217.263 53.6689 217.178 53.7624 217.069 53.778L213.817 54.1367C213.505 54.1679 213.256 54.4252 213.224 54.7371L212.85 58.8854C212.834 59.0023 212.741 59.0881 212.632 59.0881ZM210.222 53.5519L211.493 53.6922C212.016 53.7468 212.429 54.1679 212.476 54.6903L212.632 56.4136L212.788 54.6903C212.834 54.1679 213.248 53.7468 213.77 53.6922L215.041 53.5519L213.77 53.4115C213.248 53.3569 212.834 52.9359 212.788 52.4135L212.632 50.6902L212.476 52.4135C212.429 52.9359 212.016 53.3569 211.493 53.4115L210.222 53.5519Z" fill="#97E373"/>
</g>
<g opacity="0.5">
<path opacity="0.5" d="M239.672 42.2378C239.524 42.2378 239.4 42.1208 239.384 41.9727L238.893 36.5378C238.854 36.1245 238.534 35.797 238.121 35.7502L233.863 35.2824C233.715 35.2668 233.606 35.142 233.606 34.9939C233.606 34.8457 233.715 34.721 233.863 34.7054L238.121 34.2375C238.534 34.1907 238.854 33.8632 238.893 33.45L239.384 28.0151C239.4 27.867 239.524 27.75 239.672 27.75C239.821 27.75 239.945 27.867 239.961 28.0151L240.452 33.45C240.491 33.8632 240.811 34.1907 241.224 34.2375L245.482 34.7054C245.63 34.721 245.739 34.8457 245.739 34.9939C245.739 35.142 245.63 35.2668 245.482 35.2824L241.224 35.7502C240.811 35.797 240.491 36.1245 240.452 36.5378L239.961 41.9727C239.945 42.1208 239.821 42.2378 239.672 42.2378ZM236.522 34.9939L238.191 35.181C238.869 35.259 239.415 35.8048 239.477 36.491L239.68 38.7445L239.883 36.491C239.945 35.8048 240.483 35.259 241.162 35.181L242.83 34.9939L241.162 34.8067C240.483 34.7288 239.938 34.1829 239.883 33.4968L239.68 31.2433L239.477 33.4968C239.415 34.1829 238.877 34.7288 238.191 34.8067L236.522 34.9939Z" fill="#97E373"/>
</g>
<g opacity="0.5">
<path opacity="0.5" d="M306.133 21.8716C306.031 21.8716 305.946 21.7937 305.938 21.6923L305.602 17.9885C305.579 17.7078 305.353 17.4816 305.072 17.4505L302.172 17.1308C302.07 17.123 302 17.0372 302 16.9358C302 16.8345 302.078 16.7487 302.172 16.7409L305.072 16.4212C305.353 16.39 305.571 16.1639 305.602 15.8832L305.938 12.1793C305.946 12.078 306.031 12 306.133 12C306.234 12 306.32 12.078 306.328 12.1793L306.663 15.8832C306.686 16.1639 306.912 16.39 307.193 16.4212L310.094 16.7409C310.195 16.7487 310.265 16.8345 310.265 16.9358C310.265 17.0372 310.187 17.123 310.094 17.1308L307.193 17.4505C306.912 17.4816 306.694 17.7078 306.663 17.9885L306.328 21.6923C306.32 21.7937 306.234 21.8716 306.133 21.8716ZM303.988 16.9358L305.127 17.0606C305.595 17.1152 305.961 17.4894 306 17.9495L306.14 19.4856L306.281 17.9495C306.32 17.4816 306.694 17.1074 307.154 17.0528L308.293 16.928L307.154 16.8033C306.686 16.7487 306.32 16.3744 306.281 15.9143L306.14 14.3782L306 15.9143C305.961 16.3822 305.587 16.7565 305.127 16.8111L303.988 16.9358Z" fill="#97E373"/>
</g>
<g opacity="0.5">
<path opacity="0.5" d="M320.133 31.0926C319.977 31.0926 319.852 30.9756 319.837 30.8275L319.338 25.2679C319.299 24.8468 318.963 24.5037 318.55 24.4647L314.191 23.9813C314.043 23.9657 313.926 23.8409 313.926 23.685C313.926 23.529 314.035 23.4121 314.191 23.3887L318.55 22.9052C318.971 22.8584 319.307 22.5231 319.338 22.1021L319.837 16.5425C319.852 16.3865 319.977 16.2773 320.133 16.2773C320.289 16.2773 320.414 16.3943 320.429 16.5425L320.928 22.1021C320.967 22.5231 321.303 22.8662 321.716 22.9052L326.075 23.3887C326.223 23.4043 326.34 23.529 326.34 23.685C326.34 23.8409 326.231 23.9579 326.075 23.9813L321.716 24.4647C321.295 24.5115 320.96 24.8468 320.928 25.2679L320.429 30.8275C320.414 30.9834 320.281 31.0926 320.133 31.0926ZM316.905 23.685L318.613 23.8721C319.307 23.9501 319.86 24.5115 319.923 25.2133L320.133 27.5136L320.344 25.2133C320.406 24.5115 320.96 23.9501 321.654 23.8721L323.361 23.685L321.654 23.4978C320.96 23.4199 320.406 22.8584 320.344 22.1567L320.133 19.8564L319.923 22.1567C319.86 22.8584 319.307 23.4199 318.613 23.4978L316.905 23.685Z" fill="#97E373"/>
</g>
<path d="M357.347 83.0059C357.238 83.0059 357.152 82.9202 357.137 82.8188L356.614 77.0486C356.567 76.5652 356.193 76.1753 355.71 76.1207L351.187 75.6217C351.086 75.6139 351 75.5203 351 75.4112C351 75.302 351.078 75.2162 351.187 75.2006L355.71 74.7016C356.193 74.647 356.575 74.2571 356.614 73.7737L357.137 67.9957C357.144 67.8866 357.238 67.8086 357.347 67.8086C357.456 67.8086 357.542 67.8944 357.558 67.9957L358.08 73.7737C358.127 74.2571 358.509 74.647 358.985 74.7016L363.507 75.2006C363.616 75.2084 363.694 75.302 363.694 75.4112C363.694 75.5203 363.616 75.6061 363.507 75.6217L358.985 76.1207C358.501 76.1753 358.119 76.5652 358.08 77.0486L357.558 82.8188C357.542 82.9202 357.456 83.0059 357.347 83.0059ZM353.105 75.4034L355.756 75.6997C356.435 75.7776 356.973 76.3235 357.035 77.0019L357.347 80.4717L357.659 77.0019C357.721 76.3235 358.259 75.7776 358.938 75.6997L361.589 75.4034L358.938 75.1071C358.259 75.0291 357.721 74.4833 357.659 73.8049L357.347 70.335L357.035 73.8049C356.973 74.4833 356.435 75.0291 355.756 75.1071L353.105 75.4034Z" fill="#97E373"/>
<g opacity="0.5">
<path opacity="0.5" d="M371.603 74.2345C371.463 74.2345 371.338 74.1254 371.323 73.985L370.629 66.2889C370.574 65.6417 370.059 65.127 369.42 65.0569L363.385 64.3941C363.244 64.3785 363.135 64.2615 363.135 64.1212C363.135 63.9808 363.244 63.8638 363.385 63.8482L369.42 63.1777C370.059 63.1075 370.574 62.5851 370.629 61.9457L371.323 54.2495C371.338 54.1092 371.455 54 371.603 54C371.744 54 371.868 54.1092 371.876 54.2495L372.57 61.9457C372.625 62.5928 373.139 63.1075 373.779 63.1777L379.814 63.8482C379.954 63.8638 380.064 63.9808 380.064 64.1212C380.064 64.2615 379.954 64.3785 379.814 64.3941L373.779 65.0569C373.139 65.127 372.625 65.6495 372.57 66.2889L371.884 73.985C371.868 74.1254 371.751 74.2345 371.603 74.2345ZM365.95 64.1056L369.482 64.4954C370.387 64.5968 371.104 65.3298 371.182 66.2343L371.603 70.8582L372.017 66.2343C372.102 65.3298 372.812 64.5968 373.716 64.4954L377.249 64.1056L373.716 63.7157C372.812 63.6143 372.095 62.8892 372.017 61.9768L371.603 57.3529L371.182 61.9768C371.104 62.8814 370.387 63.6143 369.482 63.7157L365.95 64.1056Z" fill="#97E373"/>
</g>
<path d="M312.752 118.669L312.75 118.67C311.07 119.476 309.661 120.748 308.686 122.337C307.711 123.925 307.212 125.765 307.244 127.641C307.25 129.523 307.788 131.371 308.797 132.971C309.805 134.571 311.243 135.857 312.942 136.679L312.942 136.679C330.525 145.148 343.227 166.952 343.5 192.515L251.33 191.894C251.206 166.31 263.609 144.694 281.092 136.496L281.094 136.495C282.774 135.689 284.183 134.417 285.158 132.828C286.133 131.24 286.632 129.4 286.6 127.524C286.602 125.639 286.069 123.786 285.062 122.181C284.054 120.576 282.615 119.286 280.912 118.463L280.912 118.463C263.338 109.987 250.62 88.1814 250.355 62.6268L342.523 63.2644C342.646 88.8479 330.235 110.471 312.752 118.669Z" fill="#000000" stroke="#000000" stroke-width="0.5"/>
<path d="M263.041 200.434L331.842 200.89C329.364 190.561 324.22 181.68 317.424 175.707C311.748 170.687 307.19 164.523 304.054 157.629C300.919 150.735 299.278 143.269 299.243 135.732L299.066 115.058C299.04 113.454 299.539 111.894 300.486 110.615C301.433 109.336 302.776 108.41 304.31 107.978C310.669 106.148 316.321 102.464 320.552 97.3896L264.609 83.4375C269.545 95.7206 278.515 104.851 289.216 107.876C290.754 108.332 292.109 109.277 293.075 110.567C294.041 111.857 294.565 113.422 294.568 115.024L294.718 135.735C294.786 143.267 293.252 150.705 290.218 157.551C287.183 164.397 282.719 170.494 277.122 175.436C270.389 181.335 265.382 190.087 263.041 200.434Z" fill="#000000"/>
<path d="M346.106 192.871L248.617 192.179C246.531 192.164 244.851 193.849 244.866 195.942L244.928 204.69C244.943 206.783 246.647 208.492 248.733 208.507L346.222 209.198C348.309 209.213 349.988 207.528 349.973 205.435L349.911 196.688C349.896 194.594 348.193 192.886 346.106 192.871Z" fill="#3E6F26"/>
<path d="M346.249 209.164C347.25 209.17 348.207 208.777 348.909 208.071C349.611 207.365 350.002 206.405 349.994 205.4L349.952 201.091L349.902 196.699C349.901 196.202 349.801 195.71 349.61 195.249C349.418 194.788 349.138 194.369 348.786 194.015C348.434 193.661 348.016 193.379 347.557 193.186C347.099 192.993 346.608 192.892 346.113 192.89L336.126 192.82C336.139 193.731 335.971 194.633 335.633 195.474C335.294 196.314 334.791 197.076 334.153 197.715C333.515 198.354 332.755 198.858 331.917 199.197C331.079 199.536 330.179 199.703 329.271 199.689L254.261 199.171C252.179 199.156 250.161 199.838 248.527 201.108C246.893 202.379 245.735 204.166 245.238 206.187C245.533 206.876 246.022 207.465 246.644 207.881C247.266 208.298 247.994 208.524 248.737 208.53L346.249 209.164Z" fill="#121243"/>
<g style="mix-blend-mode:lighten" opacity="0.57">
<path d="M277.02 92.7739C273.189 86.7726 270.977 79.8919 270.604 72.8161C270.572 72.1516 270.285 71.5215 269.804 71.0577C269.322 70.5938 268.684 70.332 268.021 70.3272L260.389 70.2707C260.037 70.2687 259.69 70.3389 259.368 70.4771C259.046 70.6154 258.756 70.8186 258.517 71.0744C258.278 71.3302 258.095 71.6332 257.978 71.9646C257.861 72.296 257.813 72.6488 257.837 73.0014C258.316 81.2269 261.302 89.1418 266.392 95.6731C266.639 95.9807 266.951 96.2302 267.304 96.4036C267.657 96.5769 268.044 96.6697 268.435 96.6753L274.89 96.7171C275.349 96.7189 275.799 96.597 276.192 96.3641C276.585 96.1312 276.907 95.796 277.125 95.3932C277.342 94.9905 277.447 94.535 277.429 94.0743C277.411 93.6136 277.269 93.1645 277.02 92.7739V92.7739Z" fill="#B0FF8B"/>
</g>
<g style="mix-blend-mode:lighten" opacity="0.57">
<path d="M273.364 102.285C276.104 104.241 279.149 105.72 282.369 106.659C282.475 106.694 282.586 106.71 282.697 106.705L289.152 106.747C289.428 106.782 289.706 106.714 289.933 106.558C290.161 106.401 290.322 106.165 290.387 105.895C290.453 105.626 290.417 105.34 290.288 105.091C290.158 104.843 289.944 104.649 289.684 104.546C287.551 103.42 285.55 102.054 283.719 100.477C283.509 100.29 283.239 100.187 282.961 100.185L274.005 100.129C273.737 100.093 273.466 100.152 273.241 100.297C273.015 100.443 272.849 100.664 272.772 100.922C272.695 101.181 272.713 101.459 272.821 101.708C272.929 101.958 273.121 102.162 273.364 102.285Z" fill="#B0FF8B"/>
</g>
<g style="mix-blend-mode:overlay" opacity="0.39">
<path d="M313.021 136.426C311.146 135.499 309.61 133.995 308.641 132.137C307.672 130.278 307.321 128.165 307.641 126.109C307.908 124.493 308.566 122.972 309.556 121.679C310.547 120.386 311.841 119.36 313.325 118.689C330.761 110.274 343.057 88.5431 342.836 63.0149L318.962 62.8945C315.624 82.419 304.808 98.292 290.508 105.191C289.024 105.865 287.732 106.893 286.742 108.188C285.753 109.482 285.097 111.004 284.831 112.621C284.51 114.674 284.86 116.786 285.828 118.643C286.796 120.499 288.33 122.002 290.203 122.928C300.57 127.892 309.278 137.602 314.776 149.877C316.157 153.076 316.732 156.557 316.449 160.01C316.166 163.462 315.034 166.778 313.154 169.662C311.273 172.545 308.704 174.907 305.674 176.535C302.645 178.163 299.249 179.008 295.792 178.993L264.292 178.768C260.766 178.733 257.39 180.101 254.903 182.573C252.417 185.045 251.023 188.419 251.027 191.956L251.03 192.086L343.759 192.767C343.539 166.987 330.776 144.965 313.021 136.426Z" fill="#A0EBFF"/>
</g>
<path d="M345.267 48.7185L247.778 48.0268C245.692 48.012 244.012 49.6968 244.027 51.7899L244.089 60.5377C244.104 62.6308 245.807 64.3396 247.894 64.3544L345.383 65.0461C347.469 65.0609 349.149 63.3761 349.134 61.2829L349.072 52.5352C349.057 50.4421 347.353 48.7333 345.267 48.7185Z" fill="#3E6F26"/>
<path d="M349.147 61.276L349.097 56.8842L349.056 52.4852C349.044 51.4818 348.638 50.5181 347.925 49.8043C347.212 49.0904 346.251 48.6842 345.25 48.6743L335.293 48.6406C335.791 49.2662 336.105 50.0169 336.201 50.8073C336.297 51.5976 336.17 52.396 335.835 53.1116C335.5 53.8272 334.971 54.4312 334.306 54.8551C333.642 55.279 332.87 55.5057 332.078 55.5094L253.436 54.9841C251.353 54.9716 249.334 55.6562 247.699 56.9297C246.065 58.2033 244.908 59.9931 244.412 62.0162C244.705 62.7038 245.193 63.2921 245.814 63.7073C246.435 64.1226 247.162 64.3463 247.904 64.3505L345.411 65.0328C346.408 65.033 347.36 64.6387 348.059 63.9354C348.759 63.2321 349.15 62.2766 349.147 61.276Z" fill="#121243"/>
</svg>
