<svg width="61" height="70" viewBox="0 0 61 70" fill="none" xmlns="http://www.w3.org/2000/svg">
<path d="M30.3265 46.0039C42.9867 46.0039 53.2916 35.6993 53.2916 23.0387C53.2916 10.3782 42.987 0 30.3265 0C17.6659 0 7.36133 10.3046 7.36133 22.9651C7.36133 35.6257 17.6659 46.0039 30.3265 46.0039ZM27.0877 11.1881C27.0877 9.42146 28.5596 7.94933 30.3265 7.94933C32.0933 7.94933 33.5653 9.42133 33.5653 11.1881V19.7266H39.748C41.5147 19.7266 42.9868 21.1986 42.9868 22.9654C42.9868 24.7322 41.5149 26.2042 39.748 26.2042L30.3265 26.2037C28.5598 26.2037 27.0877 24.7317 27.0877 22.9649V11.1881Z" fill="white"/>
<path d="M7.87612 54.2461C3.53349 54.2461 0 57.7791 0 62.1222C0 66.4648 3.53296 69.9983 7.87612 69.9983C12.2188 69.9983 15.7522 66.4654 15.7522 62.1222C15.6783 57.7056 12.2188 54.2461 7.87612 54.2461Z" fill="white"/>
<path d="M30.3263 54.2461C25.9837 54.2461 22.4502 57.7791 22.4502 62.1222C22.4502 66.4648 25.9832 69.9983 30.3263 69.9983C34.669 69.9983 38.2024 66.4654 38.2024 62.1222C38.2024 57.7056 34.669 54.2461 30.3263 54.2461Z" fill="white"/>
<path d="M52.7755 54.2461C48.4329 54.2461 44.8994 57.7791 44.8994 62.1222C44.8994 66.4648 48.4324 69.9983 52.7755 69.9983C57.1182 69.9983 60.6517 66.4654 60.6517 62.1222C60.6511 57.7056 57.1182 54.2461 52.7755 54.2461Z" fill="white"/>
</svg>
