<svg width="150" height="150" viewBox="0 0 150 150" fill="none" xmlns="http://www.w3.org/2000/svg">
<path d="M75 144.231C113.235 144.231 144.231 113.235 144.231 75.0003C144.231 36.7652 113.235 5.76953 75 5.76953C36.7649 5.76953 5.76929 36.7652 5.76929 75.0003C5.76929 113.235 36.7649 144.231 75 144.231Z" fill="white"/>
<path d="M75 0C60.1664 0 45.6659 4.39867 33.3323 12.6398C20.9986 20.8809 11.3856 32.5943 5.70907 46.2987C0.0324963 60.0032 -1.45275 75.0832 1.44114 89.6317C4.33503 104.18 11.4781 117.544 21.967 128.033C32.456 138.522 45.8197 145.665 60.3682 148.559C74.9168 151.453 89.9968 149.967 103.701 144.291C117.406 138.614 129.119 129.001 137.36 116.668C145.601 104.334 150 89.8336 150 75C149.977 55.1157 142.068 36.0522 128.008 21.9919C113.948 7.93152 94.8843 0.0225227 75 0V0ZM75 138.461C62.4485 138.461 50.1789 134.74 39.7427 127.766C29.3065 120.793 21.1725 110.882 16.3692 99.2857C11.566 87.6896 10.3092 74.9296 12.7579 62.6192C15.2066 50.3089 21.2507 39.0012 30.1259 30.1259C39.0012 21.2507 50.309 15.2065 62.6193 12.7579C74.9296 10.3092 87.6896 11.5659 99.2857 16.3692C110.882 21.1724 120.793 29.3065 127.766 39.7426C134.74 50.1788 138.462 62.4485 138.462 75C138.442 91.8252 131.75 107.956 119.853 119.853C107.956 131.75 91.8252 138.442 75 138.461V138.461ZM69.2308 80.7692V40.3846C69.2308 38.8545 69.8386 37.3871 70.9206 36.3051C72.0025 35.2232 73.4699 34.6154 75 34.6154C76.5301 34.6154 77.9975 35.2232 79.0795 36.3051C80.1614 37.3871 80.7692 38.8545 80.7692 40.3846V80.7692C80.7692 82.2993 80.1614 83.7667 79.0795 84.8487C77.9975 85.9306 76.5301 86.5384 75 86.5384C73.4699 86.5384 72.0025 85.9306 70.9206 84.8487C69.8386 83.7667 69.2308 82.2993 69.2308 80.7692ZM83.6539 106.731C83.6539 108.442 83.1463 110.115 82.1954 111.539C81.2445 112.962 79.893 114.071 78.3117 114.726C76.7304 115.381 74.9904 115.552 73.3117 115.218C71.6331 114.884 70.0911 114.06 68.8808 112.85C67.6706 111.64 66.8464 110.098 66.5125 108.419C66.1785 106.74 66.3499 105 67.0049 103.419C67.6599 101.838 68.7691 100.486 70.1922 99.5353C71.6153 98.5844 73.2884 98.0769 75 98.0769C77.2952 98.0769 79.4963 98.9886 81.1192 100.612C82.7421 102.234 83.6539 104.436 83.6539 106.731Z" fill="#E99F0C"/>
</svg>
