<svg width="193" height="200" viewBox="0 0 193 200" fill="none" xmlns="http://www.w3.org/2000/svg">
<g opacity="0.5">
<path opacity="0.5" d="M150.172 36.262L46.2476 1.8457L-1.54617e-05 141.497L103.925 175.913L150.172 36.262Z" fill="#BB8211"/>
</g>
<path d="M147.651 37.5325L46.9731 4.19141L2.33879 138.971L103.017 172.312L147.651 37.5325Z" fill="#FFF9F0"/>
<path d="M87.582 23.9448L52.9404 12.4727L52.582 13.5549L87.2236 25.027L87.582 23.9448Z" fill="#E99F0C"/>
<path opacity="0.7" d="M85.9691 28.8139L51.3275 17.3418L50.9691 18.4241L85.6107 29.8962L85.9691 28.8139Z" fill="#BB8211"/>
<path d="M127.366 37.1205L92.7247 25.6484L92.3663 26.7307L127.008 38.2028L127.366 37.1205Z" fill="#E0E0E0"/>
<path d="M122.56 69.767L87.918 58.2949L87.5596 59.3772L122.201 70.8493L122.56 69.767Z" fill="#E0E0E0"/>
<path d="M122.388 73.0092L87.7461 61.5371L87.3877 62.6194L122.029 74.0915L122.388 73.0092Z" fill="#E0E0E0"/>
<path d="M123.026 76.5248L88.3843 65.0527L88.0259 66.135L122.667 77.6071L123.026 76.5248Z" fill="#E0E0E0"/>
<path d="M106.696 117.667L72.0542 106.195L71.6958 107.278L106.337 118.75L106.696 117.667Z" fill="#E0E0E0"/>
<path d="M106.523 120.915L71.8813 109.443L71.5229 110.526L106.165 121.998L106.523 120.915Z" fill="#E0E0E0"/>
<path d="M107.162 124.427L72.5205 112.955L72.1621 114.037L106.804 125.509L107.162 124.427Z" fill="#E0E0E0"/>
<g opacity="0.5">
<path opacity="0.5" d="M83.4751 44.5034L46.6689 32.3145L34.3004 69.6629L71.1066 81.8518L83.4751 44.5034Z" fill="#E99F0C"/>
</g>
<path d="M82.8581 45.2041L46.6313 33.207L34.8008 68.9309L71.0276 80.9279L82.8581 45.2041Z" fill="#FCDA97"/>
<g opacity="0.5">
<path opacity="0.5" d="M80.9807 46.9865L47.1919 35.7969L39.4842 59.0713L73.273 70.2609L80.9807 46.9865Z" fill="url(#paint0_linear_10308_81499)"/>
</g>
<path d="M80.6564 47.178L47.3335 36.1426L39.8944 58.6058L73.2174 69.6413L80.6564 47.178Z" fill="white"/>
<path opacity="0.4" d="M37.338 56.8604L50.032 46.6476L51.6681 53.4951L61.8449 48.1578L65.7421 58.1559L75.278 48.4017L82.1843 76.5158L35.3601 59.2065L37.338 56.8604Z" fill="#FBCB6A"/>
<path opacity="0.4" d="M49.1226 43.0432C50.4678 43.4887 51.9194 42.7593 52.3649 41.4141C52.8104 40.0689 52.081 38.6173 50.7358 38.1718C49.3907 37.7264 47.939 38.4557 47.4936 39.8009C47.0481 41.1461 47.7774 42.5977 49.1226 43.0432Z" fill="#FBCB6A"/>
<g opacity="0.5">
<path opacity="0.5" d="M67.6108 92.4096L30.8047 80.2207L18.4362 117.569L55.2423 129.758L67.6108 92.4096Z" fill="#E99F0C"/>
</g>
<path d="M66.9948 93.1103L30.7681 81.1133L18.9376 116.837L55.1643 128.834L66.9948 93.1103Z" fill="#FCDA97"/>
<g opacity="0.5">
<path opacity="0.5" d="M65.1159 94.8928L31.3271 83.7031L23.6195 106.978L57.4082 118.167L65.1159 94.8928Z" fill="url(#paint1_linear_10308_81499)"/>
</g>
<path d="M64.7928 95.0823L31.4698 84.0469L24.0308 106.51L57.3537 117.546L64.7928 95.0823Z" fill="white"/>
<path opacity="0.4" d="M21.4748 104.765L34.1688 94.5519L35.8042 101.402L45.9817 96.062L49.8782 106.063L59.4148 96.306L66.3212 124.42L19.4962 107.113L21.4748 104.765Z" fill="#FBCB6A"/>
<path opacity="0.4" d="M33.2585 90.9475C34.6037 91.3929 36.0553 90.6636 36.5008 89.3184C36.9462 87.9732 36.2169 86.5216 34.8717 86.0761C33.5265 85.6307 32.0749 86.36 31.6294 87.7052C31.184 89.0504 31.9133 90.502 33.2585 90.9475Z" fill="#FBCB6A"/>
<g opacity="0.5">
<path opacity="0.5" d="M91.0105 9.01484L18.4293 136.973L113.652 190.986L186.234 63.0279L91.0105 9.01484Z" fill="#BB8211"/>
</g>
<path d="M91.2647 11.4529L21.2153 134.947L113.463 187.273L183.513 63.7785L91.2647 11.4529Z" fill="#FFF9F0"/>
<path d="M160.205 58.0919L94.7379 20.957L94.1754 21.9487L159.643 59.0836L160.205 58.0919Z" fill="#E99F0C"/>
<path d="M107.035 151.828L41.5679 114.693L41.0054 115.685L106.473 152.82L107.035 151.828Z" fill="#E99F0C"/>
<path d="M88.9196 149.09L38.3311 120.395L37.7686 121.386L88.3571 150.081L88.9196 149.09Z" fill="#E99F0C"/>
<path opacity="0.7" d="M53.9414 136.789L35.0959 126.1L34.5335 127.091L53.3789 137.781L53.9414 136.789Z" fill="#936710"/>
<path opacity="0.7" d="M124.233 45.2251L91.5005 26.6582L90.938 27.6498L123.671 46.2167L124.233 45.2251Z" fill="#936710"/>
<path d="M147.287 65.8441L88.2681 32.3672L87.7056 33.3588L146.724 66.8358L147.287 65.8441Z" fill="#E99F0C"/>
<path opacity="0.7" d="M99.4137 46.2262L85.0317 38.0684L84.4693 39.06L98.8512 47.2179L99.4137 46.2262Z" fill="#936710"/>
<path d="M147.265 80.9083L81.7974 43.7734L81.2349 44.7651L146.702 81.9L147.265 80.9083Z" fill="#E99F0C"/>
<g opacity="0.5">
<path opacity="0.5" d="M79.4317 71.6097L60.3024 105.334L119.073 138.67L138.202 104.946L79.4317 71.6097Z" fill="url(#paint2_linear_10308_81499)"/>
</g>
<path d="M137.701 104.985L79.6738 72.0703L60.9661 105.051L118.993 137.966L137.701 104.985Z" fill="#FFF3DB"/>
<path d="M144.029 86.6134L78.5615 49.4785L77.999 50.4702L143.466 87.6051L144.029 86.6134Z" fill="#FFF3DB"/>
<path d="M105.119 97.6833C102.213 96.7209 100.713 101.236 103.624 102.2C106.534 103.164 108.03 98.6473 105.119 97.6833Z" fill="url(#paint3_linear_10308_81499)"/>
<path d="M108.408 97.2439C105.502 96.2815 104.002 100.797 106.913 101.761C109.823 102.725 111.319 98.2078 108.408 97.2439Z" fill="#E99F0C"/>
<path d="M156.214 94.7913C154.025 90.2124 150.942 86.1177 147.147 82.748C143.352 79.3782 138.921 76.8017 134.115 75.1699C129.309 73.5382 124.226 72.8841 119.163 73.2464C114.101 73.6086 109.162 74.9797 104.638 77.279C86.3997 86.5353 78.735 108.903 87.4475 127.409C91.275 135.539 97.8557 142.052 106.025 145.796C114.194 149.539 123.424 150.271 132.081 147.863L149.201 183.674C149.413 184.118 149.792 184.458 150.256 184.622C150.719 184.786 151.228 184.758 151.671 184.547L160.251 180.444C160.694 180.232 161.035 179.853 161.199 179.39C161.362 178.926 161.335 178.417 161.123 177.974L144.009 142.167C151.287 136.964 156.5 129.363 158.732 120.7C160.964 112.036 160.072 102.863 156.214 94.7913ZM133.617 135.77C128.759 138.092 123.323 138.921 117.995 138.153C112.666 137.386 107.685 135.055 103.681 131.456C99.6773 127.857 96.8306 123.152 95.5008 117.935C94.1711 112.719 94.4182 107.225 96.2108 102.148C98.0033 97.0721 101.261 92.6413 105.572 89.4164C109.882 86.1915 115.052 84.3172 120.428 84.0306C125.804 83.744 131.144 85.058 135.773 87.8064C140.403 90.5547 144.113 94.614 146.435 99.4709C147.977 102.696 148.868 106.193 149.059 109.763C149.249 113.333 148.734 116.905 147.544 120.276C146.354 123.646 144.511 126.75 142.121 129.408C139.732 132.067 136.842 134.229 133.617 135.77Z" fill="#FFF3DB"/>
<path d="M130.167 89.9249C122.404 87.1585 113.988 88.7251 108.242 93.3953C106.366 94.919 109.307 97.7882 111.172 96.2714C115.93 92.4053 122.915 91.2622 129.301 93.5572C135.994 95.9613 140.856 101.856 142.333 108.291C142.893 110.731 146.738 109.955 146.186 107.53C144.381 99.7315 138.182 92.7926 130.167 89.9249Z" fill="#FFF3DB"/>
<path d="M159.502 94.3577C157.313 89.7788 154.231 85.6841 150.435 82.3144C146.64 78.9447 142.209 76.3681 137.404 74.7363C132.598 73.1046 127.514 72.4505 122.452 72.8128C117.389 73.175 112.451 74.5461 107.926 76.8455C89.6882 86.1017 82.0236 108.47 90.7361 126.975C94.564 135.105 101.145 141.618 109.314 145.361C117.483 149.104 126.713 149.836 135.37 147.427L152.487 183.24C152.699 183.683 153.079 184.024 153.542 184.188C154.005 184.351 154.514 184.324 154.958 184.112L163.537 180.01C163.981 179.798 164.321 179.419 164.485 178.955C164.648 178.492 164.621 177.983 164.409 177.54L147.289 141.728C154.568 136.526 159.781 128.927 162.015 120.265C164.248 111.602 163.359 102.43 159.502 94.3577ZM136.911 135.318C132.054 137.64 126.618 138.469 121.289 137.701C115.961 136.933 110.98 134.603 106.976 131.004C102.972 127.405 100.125 122.7 98.7956 117.483C97.4658 112.266 97.7129 106.773 99.5055 101.696C101.298 96.6199 104.556 92.1892 108.866 88.9642C113.177 85.7393 118.347 83.8651 123.723 83.5785C129.099 83.2919 134.439 84.6059 139.068 87.3542C143.697 90.1026 147.408 94.1619 149.73 99.0188C151.272 102.244 152.163 105.741 152.353 109.311C152.544 112.88 152.029 116.453 150.839 119.823C149.648 123.194 147.806 126.297 145.416 128.956C143.026 131.615 140.137 133.776 136.911 135.318Z" fill="#E99F0C"/>
<path d="M133.456 89.4913C125.693 86.7249 117.276 88.2915 111.53 92.9617C109.655 94.4854 112.596 97.3546 114.461 95.8378C119.218 91.9717 126.203 90.8286 132.59 93.1236C139.282 95.5277 144.145 101.422 145.622 107.857C146.182 110.298 150.026 109.521 149.474 107.096C147.669 99.2771 141.479 92.3412 133.456 89.4913Z" fill="#E99F0C"/>
<defs>
<linearGradient id="paint0_linear_10308_81499" x1="6534.32" y1="11519" x2="7308.4" y2="9181.54" gradientUnits="userSpaceOnUse">
<stop stop-color="#808080" stop-opacity="0.25"/>
<stop offset="0.54" stop-color="#808080" stop-opacity="0.12"/>
<stop offset="1" stop-color="#808080" stop-opacity="0.1"/>
</linearGradient>
<linearGradient id="paint1_linear_10308_81499" x1="4925.2" y1="16377.9" x2="5699.28" y2="14040.5" gradientUnits="userSpaceOnUse">
<stop stop-color="#808080" stop-opacity="0.25"/>
<stop offset="0.54" stop-color="#808080" stop-opacity="0.12"/>
<stop offset="1" stop-color="#808080" stop-opacity="0.1"/>
</linearGradient>
<linearGradient id="paint2_linear_10308_81499" x1="4348.65" y1="46646.4" x2="9643.08" y2="37312.5" gradientUnits="userSpaceOnUse">
<stop stop-color="#808080" stop-opacity="0.25"/>
<stop offset="0.54" stop-color="#808080" stop-opacity="0.12"/>
<stop offset="1" stop-color="#808080" stop-opacity="0.1"/>
</linearGradient>
<linearGradient id="paint3_linear_10308_81499" x1="103.624" y1="102.198" x2="105.119" y2="97.6833" gradientUnits="userSpaceOnUse">
<stop stop-opacity="0.12"/>
<stop offset="0.55" stop-opacity="0.09"/>
<stop offset="1" stop-opacity="0.02"/>
</linearGradient>
</defs>
</svg>
