<svg width="250" height="322" viewBox="0 0 250 322" fill="none" xmlns="http://www.w3.org/2000/svg">
<g clip-path="url(#clip0_4441_17314)">
<path d="M241.671 75.4166C241.128 65.7805 225.145 65.3789 225.145 65.3789C225.145 65.3789 211.33 79.1256 208.211 78.8631C205.093 78.6006 217.727 64.8041 217.727 64.8041C211.96 62.9902 195.433 67.0379 195.433 67.0379C195.433 67.0379 192.451 85.8507 189.493 84.8269C186.535 83.8059 192.984 68.3057 192.984 68.3057C186.926 68.8123 180.203 74.3351 180.203 74.3351C171.271 83.756 183.828 94.7413 183.828 94.7413C183.828 94.7413 182.655 101.238 177.103 107.803C177.103 107.803 175.914 108.981 174.51 111.11L176.064 111.438C176.279 111.05 176.502 110.675 176.741 110.323C176.741 110.32 176.744 110.318 176.746 110.318C176.749 110.312 176.754 110.307 176.757 110.302C176.914 110.084 177.14 109.774 177.418 109.399C177.418 109.399 177.418 109.399 177.418 109.396C177.418 109.396 177.418 109.396 177.421 109.394C178.09 108.564 178.558 107.947 178.865 107.493C178.865 107.491 178.867 107.491 178.867 107.488C180.904 104.873 183.755 101.506 185.29 100.996C185.29 100.996 185.17 100.718 185.109 100.214C185.167 100.464 185.228 100.723 185.29 100.996C186.745 107.254 199.838 111.013 207.566 111.058C215.293 111.102 212.506 108.333 209.235 104.099C205.964 99.8651 197.418 98.9936 195.231 97.1431C193.042 95.2925 196.932 94.7255 201.791 96.1482C206.647 97.5709 208.075 103.031 215.889 105.475C223.704 107.918 232.951 94.2005 232.951 94.2005C227.082 94.7465 217.85 89.6227 217.871 87.6435C217.892 85.6643 232.476 88.9428 234.875 88.8536C237.264 88.767 242.215 85.0527 241.671 75.4166Z" fill="#000000"/>
<path opacity="0.5" d="M189.388 53.7084C189.388 53.7084 199.011 19.1776 220.273 0.963319C223.097 -1.45686 227.41 1.02632 226.767 4.6907C226.756 4.75108 226.746 4.81407 226.733 4.87707C225.533 11.1139 201.268 34.473 189.388 53.7084Z" fill="#F0F3EE"/>
<path opacity="0.5" d="M185.645 63.4418C185.645 63.4418 210.385 22.241 244.065 7.52307C246.118 6.62535 248.585 7.44695 249.559 9.46551C250.192 10.7806 250.273 12.6942 248.911 15.453C245.272 22.8106 207.041 43.5685 185.645 63.4418Z" fill="#F0F3EE"/>
<path opacity="0.5" d="M181.742 237.757C181.742 237.757 219.294 218.937 226.09 225.491C232.883 232.048 181.742 237.757 181.742 237.757Z" fill="#F0F3EE"/>
<path opacity="0.5" d="M175.631 240.012C175.631 240.012 225.911 235.597 226.701 246.076C227.489 256.552 175.631 240.012 175.631 240.012Z" fill="#F0F3EE"/>
<path d="M2.33875 18.5897C8.75144 -1.18381 42.2612 6.74083 42.2612 6.74083C42.2612 6.74083 63.502 42.9385 70.1405 44.1013C76.7789 45.2641 58.0238 9.60724 58.0238 9.60724C71.0277 8.99038 103.233 26.475 103.233 26.475C103.233 26.475 99.1353 67.2872 105.858 66.7806C112.58 66.274 107.643 30.457 107.643 30.457C119.982 34.8301 130.955 50.0152 130.955 50.0152C144.399 74.5294 112.226 90.5283 112.226 90.5283C112.226 90.5283 111.11 104.703 119.079 121.416C119.079 121.416 120.912 124.518 122.67 129.729L119.255 129.561C119.022 128.632 118.757 127.731 118.46 126.865C118.46 126.857 118.457 126.855 118.455 126.849C118.45 126.836 118.447 126.826 118.442 126.813C118.234 126.274 117.935 125.505 117.56 124.571C117.56 124.571 117.56 124.568 117.557 124.568C117.557 124.566 117.554 124.566 117.554 124.563C116.612 122.468 115.979 120.927 115.588 119.814C115.586 119.812 115.586 119.807 115.586 119.804C112.774 113.239 108.682 104.666 105.763 102.766C105.763 102.766 106.168 102.254 106.572 101.235C106.315 101.724 106.047 102.233 105.763 102.766C99.3033 115.003 69.9751 115.657 53.8555 111.517C37.7358 107.378 45.0593 103.133 54.1941 96.1115C63.3288 89.0872 81.6009 91.9562 87.1736 89.2998C92.7437 86.6434 84.9555 83.3307 74.0595 83.6326C63.1634 83.9345 57.2022 94.5234 39.5864 95.3319C21.9679 96.143 10.2266 62.502 10.2266 62.502C22.149 66.8541 44.1879 61.2394 45.2273 57.1052C46.2668 52.9709 14.101 51.8133 9.15042 50.3145C4.20245 48.8157 -4.0713 38.3632 2.33875 18.5897Z" fill="#F0F3EE"/>
<path d="M232.24 167.79C229.048 156.004 209.159 159.687 209.159 159.687C209.159 159.687 195.654 180.314 191.724 180.805C187.795 181.295 199.827 160.916 199.827 160.916C192.215 160.178 172.817 169.51 172.817 169.51C172.817 169.51 174.045 193.575 170.116 193.081C166.186 192.59 170.116 171.717 170.116 171.717C162.75 173.927 155.873 182.521 155.873 182.521C147.279 196.517 165.695 206.831 165.695 206.831C165.695 206.831 165.94 215.181 160.784 224.756C160.784 224.756 159.621 226.525 158.438 229.531H160.446C160.608 228.993 160.789 228.471 160.992 227.972C160.992 227.969 160.992 227.967 160.994 227.964C160.997 227.956 160.999 227.951 161.002 227.943C161.139 227.633 161.338 227.192 161.585 226.654C161.585 226.654 161.585 226.654 161.585 226.651C161.585 226.651 161.585 226.651 161.585 226.649C162.199 225.447 162.614 224.559 162.874 223.919C162.874 223.916 162.876 223.914 162.876 223.914C164.714 220.144 167.362 215.23 169.129 214.201C169.129 214.201 168.906 213.889 168.698 213.28C168.835 213.574 168.979 213.881 169.129 214.201C172.567 221.567 189.755 222.795 199.331 220.832C208.907 218.869 204.733 216.168 199.575 211.784C194.42 207.4 183.613 208.555 180.421 206.836C177.229 205.117 181.894 203.397 188.28 203.888C194.664 204.379 197.856 210.763 208.169 211.747C218.483 212.729 226.342 193.331 226.342 193.331C219.22 195.541 206.453 191.611 205.962 189.157C205.471 186.7 224.378 186.947 227.326 186.209C230.274 185.469 235.432 179.576 232.24 167.79Z" fill="#F0F3EE"/>
<path d="M26.1048 154.001C33.1763 140.601 56.2546 150.474 56.2546 150.474C56.2546 150.474 66.9906 179.119 71.613 180.784C76.2355 182.448 67.2163 154.498 67.2163 154.498C76.6319 155.679 97.5787 172.253 97.5787 172.253C97.5787 172.253 89.5439 201.051 94.4341 201.526C99.3243 202.001 100.248 175.662 100.248 175.662C108.564 180.343 114.549 192.619 114.549 192.619C121.145 211.902 96.0432 219.378 96.0432 219.378C96.0432 219.378 93.4734 229.418 97.1115 242.414C97.1115 242.414 98.0381 244.871 98.6523 248.832L96.2217 248.286C96.1692 247.59 96.0931 246.911 95.9854 246.252C95.9854 246.246 95.9854 246.244 95.9828 246.239C95.9802 246.228 95.9802 246.22 95.9776 246.21C95.8962 245.798 95.7754 245.207 95.6232 244.49V244.488C95.6232 244.485 95.6232 244.485 95.6232 244.485C95.2085 242.863 94.946 241.676 94.8042 240.831C94.8042 240.829 94.8042 240.826 94.8042 240.823C93.6046 235.757 91.7357 229.09 89.8772 227.363C89.8772 227.363 90.2316 227.045 90.649 226.365C90.4022 226.683 90.1476 227.016 89.8772 227.363C83.7113 235.345 62.5676 232.153 51.5088 227.168C40.45 222.184 46.2379 220.05 53.6743 216.146C61.1107 212.243 73.8757 216.582 78.2068 215.369C82.538 214.157 77.359 210.807 69.4947 209.663C61.6331 208.521 56.0289 215.38 43.277 213.763C30.5252 212.146 26.2912 186.522 26.2912 186.522C34.3103 191.136 50.8394 189.853 52.102 187.015C53.3646 184.175 30.407 179.327 27.0419 177.634C23.6715 175.941 19.0332 167.402 26.1048 154.001Z" fill="#000000"/>
<path d="M19.6345 263.353C15.8939 255.245 28.7771 247.979 28.7771 247.979C28.7771 247.979 46.028 253.21 48.4613 251.643C50.8946 250.076 34.586 244.291 34.586 244.291C38.5103 240.306 53.7663 236.437 53.7663 236.437C53.7663 236.437 64.3683 250.509 66.3397 248.388C68.3136 246.27 56.3177 236.408 56.3177 236.408C61.4862 234.19 69.3741 235.786 69.3741 235.786C80.761 239.603 75.2723 254.027 75.2723 254.027C75.2723 254.027 79.0521 258.825 86.436 261.775C86.436 261.775 87.9191 262.222 89.9928 263.35L88.8667 264.293C88.5229 264.067 88.1764 263.86 87.8299 263.673C87.8273 263.671 87.8273 263.671 87.8246 263.671C87.8194 263.668 87.8141 263.665 87.8089 263.663C87.5858 263.553 87.2681 263.398 86.877 263.211C86.877 263.211 86.877 263.211 86.8744 263.211C86.8744 263.211 86.8744 263.211 86.8718 263.211C85.9636 262.825 85.3152 262.524 84.869 262.287C84.8663 262.287 84.8663 262.285 84.8637 262.285C82.0629 261.033 78.2725 259.521 76.8 259.77C76.8 259.77 76.779 259.489 76.6083 259.051C76.6687 259.279 76.7317 259.518 76.8 259.77C78.3277 265.513 69.2638 274.267 62.9719 277.659C56.68 281.05 57.7535 277.577 58.5883 272.7C59.423 267.823 66.0247 263.403 67.009 260.941C67.9934 258.479 64.5705 259.704 61.2211 262.975C57.8717 266.246 59.0765 271.325 53.7532 276.714C48.4298 282.103 34.922 274.911 34.922 274.911C39.9513 272.808 45.2694 264.616 44.3927 263.007C43.516 261.4 33.0268 270.409 31.0292 271.377C29.0317 272.349 23.375 271.461 19.6345 263.353Z" fill="#F0F3EE"/>
<path d="M140.481 178.482C140.25 178.81 139.265 180.379 140.528 182.149C140.609 182.259 140.662 182.351 140.696 182.427C155.818 191.512 201.171 228.266 201.171 254.171V307.838H64.2922V254.15C64.2922 228.08 110.265 190.743 125.054 182.149C125.057 182.149 125.057 182.149 125.057 182.149C125.532 181.485 125.686 180.849 125.686 180.295C125.686 179.19 125.057 178.416 125.057 178.416C110.231 169.63 64.2922 132.569 64.2922 106.498V52.8345H201.174V106.522C201.171 132.551 155.348 169.809 140.481 178.482Z" fill="#F0F3EE"/>
<path d="M209.025 321.663H55.3491V315.048C55.3491 311.069 58.5752 307.84 62.5572 307.84H202.111C205.928 307.84 209.023 310.935 209.023 314.751V321.663H209.025Z" fill="#E4AD50"/>
<path d="M103.472 257.471C102.771 269.482 105.055 295.393 104.847 307.838H64.2922V254.15C64.2922 228.08 110.265 190.743 125.054 182.149C125.057 182.149 125.057 182.149 125.057 182.149C125.532 181.485 125.687 180.849 125.687 180.295C125.687 179.19 125.057 178.416 125.057 178.416C110.231 169.63 64.2922 132.569 64.2922 106.498V52.8345H91.426L110.795 58.1342V100.574C110.795 100.574 108.877 112.798 113.68 124.805C118.484 136.811 128.794 175.332 128.634 180.335C128.472 185.341 104.674 236.881 103.472 257.471Z" fill="#000000"/>
<path d="M183.435 88.5096C175.137 88.6356 160.871 90.1318 137.79 95.9539C121.988 99.9385 94.7439 96.9383 80.3331 94.8725C75.2775 94.148 70.7548 98.067 70.7548 103.175V109.359C70.7548 126.403 116.612 163.322 128.739 172.785C130.577 174.219 131.65 176.418 131.65 178.749V273.525C131.65 276.761 130.054 279.774 127.403 281.63C117.867 288.305 101.797 307.837 101.797 307.837H162.574C162.574 307.837 146.276 288.988 137.128 281.99C135.039 280.391 133.808 277.921 133.808 275.294V178.723C133.808 176.405 134.861 174.213 136.672 172.764C148.56 163.244 193.415 126.188 193.415 109.157V98.3374C193.417 92.8513 188.923 88.4283 183.435 88.5096Z" fill="#000000"/>
<path d="M201.856 58.1341H62.2631C58.4465 58.1341 55.3517 55.0393 55.3517 51.2227V44.3113H209.025V50.9655C209.025 54.9238 205.815 58.1341 201.856 58.1341Z" fill="#E4AD50"/>
</g>
<defs>
<clipPath id="clip0_4441_17314">
<rect width="250" height="321.663" fill="white"/>
</clipPath>
</defs>
</svg>
