<svg width="40" height="40" viewBox="0 0 40 40" fill="none" xmlns="http://www.w3.org/2000/svg">
<g clip-path="url(#clip0_1378_9594)">
<path d="M10.4161 30.8854C7.74792 30.8854 5.37451 29.177 4.51267 26.6336L4.45438 26.442C4.25113 25.7684 4.16598 25.202 4.16598 24.6353V13.2715L0.122608 26.7685C-0.397424 28.7537 0.787602 30.8119 2.77587 31.3603L28.5483 38.2623C28.87 38.3456 29.1916 38.3856 29.5084 38.3856C31.1683 38.3856 32.6851 37.2839 33.1102 35.6603L34.6117 30.8854H10.4161Z" fill="#000000"/>
<path d="M14.9995 13.3848C16.838 13.3848 18.3327 11.8897 18.3327 10.0513C18.3327 8.21287 16.838 6.71777 14.9995 6.71777C13.1611 6.71777 11.666 8.21287 11.666 10.0513C11.666 11.8897 13.1611 13.3848 14.9995 13.3848Z" fill="#000000"/>
<path d="M35.8331 1.71777H10.8324C8.53593 1.71777 6.66577 3.58794 6.66577 5.88475V24.2183C6.66577 26.5151 8.53593 28.3853 10.8324 28.3853H35.8331C38.1299 28.3853 40 26.5151 40 24.2183V5.88475C40 3.58794 38.1299 1.71777 35.8331 1.71777ZM10.8324 5.05129H35.8331C36.2933 5.05129 36.6665 5.42453 36.6665 5.88475V17.7167L31.4015 11.5731C30.843 10.9181 30.0346 10.5681 29.1663 10.5483C28.303 10.5531 27.493 10.9364 26.9397 11.5999L20.7494 19.0299L18.7327 17.0181C17.5929 15.8783 15.7376 15.8783 14.5993 17.0181L9.99929 21.6166V5.88475C9.99929 5.42453 10.3725 5.05129 10.8324 5.05129Z" fill="#000000"/>
</g>
<defs>
<clipPath id="clip0_1378_9594">
<rect width="40" height="40" fill="white"/>
</clipPath>
</defs>
</svg>
