<svg width="50" height="50" viewBox="0 0 50 50" fill="none" xmlns="http://www.w3.org/2000/svg">
<circle cx="25" cy="25" r="25" fill="#F0F3EE"/>
<path d="M24.2765 10C22.1014 10 20.3319 11.7696 20.3319 13.9446C20.3319 16.1197 22.1014 17.8893 24.2765 17.8893C26.4516 17.8893 28.2212 16.1197 28.2212 13.9447C28.2212 11.7696 26.4516 10 24.2765 10Z" fill="#000000"/>
<path d="M38.2176 23.1704V24.4999C38.2176 25.5071 37.5825 26.3683 36.6921 26.7054C36.1719 22.075 32.2331 18.4637 27.4661 18.4637H21.5028C21.3549 18.4637 21.2063 18.4673 21.0575 18.4744C20.3665 17.0495 18.904 16.1055 17.2797 16.1055H16.3886V19.9987C14.9145 20.9735 13.7439 22.3533 13.0239 23.9628H10V31.5346H13.0229C13.565 32.7454 14.3679 33.837 15.3695 34.7185C16.3568 35.5876 17.5218 36.2383 18.7717 36.6233V39.9982H23.9076V37.0337H25.0614V39.9982H30.1973V36.6243C31.9466 36.0848 33.5194 35.0257 34.6818 33.5922C35.8476 32.1544 36.5558 30.3888 36.7161 28.5503C38.5894 28.1547 40 26.4892 40 24.4999V23.1703H38.2176V23.1704ZM16.6965 25.5908C16.1733 25.5908 15.7477 25.1651 15.7477 24.642C15.7477 24.1187 16.1734 23.6932 16.6965 23.6932C17.2197 23.6932 17.6453 24.1188 17.6453 24.642C17.6453 25.1651 17.2197 25.5908 16.6965 25.5908ZM27.5549 22.7695H20.9982V20.9873H27.5549V22.7695Z" fill="#000000"/>
</svg>
