<svg xmlns="http://www.w3.org/2000/svg" width="151" height="150" viewBox="0 0 151 150" fill="none">
<g clip-path="url(#clip0)">
<path d="M116.724 130.802L78.4189 33.9446C77.9954 32.878 77.0214 32.1296 75.882 31.9949L16.5175 25.0089C14.8327 24.7722 13.275 25.9462 13.0383 27.631C13.033 27.6691 13.0283 27.7075 13.0242 27.7459L0.526673 127.728C0.303178 129.439 1.50882 131.007 3.21974 131.231C3.24464 131.234 3.26983 131.237 3.29473 131.24L112.65 143.737H113.006C114.623 143.744 115.979 142.517 116.131 140.907L116.943 132.24C116.985 131.75 116.91 131.257 116.724 130.802Z" fill="#000000"/>
<path d="M138.002 27.7461C137.802 26.0322 136.25 24.8052 134.536 25.0059C134.527 25.007 134.518 25.0079 134.509 25.0091L107.639 28.1711L28.2781 37.5066C26.5789 37.6997 25.3507 39.2231 25.5224 40.9247L34.8957 140.907C35.0477 142.516 36.403 143.744 38.0202 143.737H38.3764L147.732 131.24C149.446 131.043 150.676 129.494 150.48 127.779C150.478 127.766 150.477 127.753 150.475 127.74L138.002 27.7461Z" fill="#97E373"/>
<path d="M91.1355 50.0044C89.4099 50.0076 88.0086 48.611 88.0054 46.8854C88.0039 46.0535 88.3343 45.2553 88.9234 44.6677L104.545 29.0456C105.744 27.8046 107.722 27.77 108.964 28.9689C110.205 30.1678 110.239 32.1456 109.04 33.3869C109.015 33.413 108.99 33.4385 108.964 33.4637L93.3414 49.0858C92.7571 49.6722 91.9636 50.0026 91.1355 50.0044Z" fill="#E4AD50"/>
<path d="M116.131 37.5069C124.759 37.5069 131.753 30.5126 131.753 21.8848C131.753 13.2569 124.759 6.2627 116.131 6.2627C107.503 6.2627 100.509 13.2569 100.509 21.8848C100.509 30.5126 107.503 37.5069 116.131 37.5069Z" fill="#F44336"/>
</g>
<defs>
<clipPath id="clip0">
<rect width="150" height="150" fill="white" transform="translate(0.5)"/>
</clipPath>
</defs>
</svg>