<svg width="71" height="75" viewBox="0 0 71 75" fill="none" xmlns="http://www.w3.org/2000/svg">
<path d="M59.7837 35.4971L51.5198 21.035C50.6395 19.495 49.0018 18.5444 47.2279 18.5444H16.2445C14.4706 18.5444 12.8328 19.495 11.9526 21.035L3.68865 35.4968C3.18922 36.3709 2.98116 37.3541 3.0528 38.3168L31.7362 45.3259L60.4195 38.3168C60.4912 37.3541 60.2831 36.3712 59.7837 35.4971Z" fill="#97E373"/>
<path d="M11.9526 21.0352L3.68865 35.497C3.18922 36.3711 2.98116 37.3542 3.0528 38.317L13.2037 40.7974L11.9635 38.317C8.25666 30.9036 11.9526 21.0352 11.9526 21.0352Z" fill="#7EC65C"/>
<path d="M41.623 18.5449C41.623 18.5449 51.4117 34.0554 60.42 38.3176L49.0492 41.0962L50.2734 38.3176L41.623 18.5449Z" fill="#7EC65C"/>
<path d="M28.0292 18.5449C28.0292 18.5449 27.9004 33.9607 39.1512 38.3176L31.7365 45.3266L23.0859 38.3176L28.0292 18.5449Z" fill="#7EC65C"/>
<path d="M3.05273 38.3179C3.12158 39.2405 3.447 40.1444 4.02594 40.9161L27.7816 72.5902C29.7587 75.2266 33.7132 75.2266 35.6906 72.5902L59.4463 40.9161C60.0252 40.1444 60.3506 39.2403 60.4195 38.3179H3.05273Z" fill="#7EC65C"/>
<path d="M60.4209 38.3179C60.4209 38.3179 46.1208 49.036 41.4941 58.3499L50.2745 38.3179H60.4209Z" fill="#000000"/>
<path d="M39.1512 38.3179C39.1512 38.3179 25.4418 44.4927 28.0777 58.3499L23.0859 38.3179H39.1512Z" fill="#000000"/>
<path d="M31.1099 74.527L24.3208 38.3179H11.9629L29.9146 74.2214C30.301 74.3735 30.7027 74.4754 31.1099 74.527Z" fill="#518C36"/>
<path d="M33.5568 74.2214L51.5086 38.3179H39.1506L32.3613 74.527C32.7688 74.4754 33.1704 74.3735 33.5568 74.2214Z" fill="#518C36"/>
<path d="M35.4434 18.5449L39.1507 38.3176H51.5087L41.6222 18.5449H35.4434Z" fill="#000000"/>
<path d="M21.8491 18.5449L11.9629 38.3176H24.3208L28.0282 18.5449H21.8491Z" fill="#000000"/>
<path d="M21.8491 18.5449C21.8491 18.5449 17.6449 30.9318 24.3206 38.3176H11.9629L21.8491 18.5449Z" fill="#518C36"/>
<path d="M35.4434 18.5449C35.4434 18.5449 40.1209 34.0554 51.5087 38.3176H39.1507L35.4434 18.5449Z" fill="#518C36"/>
<path d="M3.05273 38.3179C3.12158 39.2405 3.447 40.1444 4.02594 40.9161L17.1013 58.3499C7.99164 46.2036 11.9634 38.3179 11.9634 38.3179H3.05273Z" fill="#000000"/>
<path d="M24.3208 38.3179H11.9629L21.9789 58.3499C17.4101 49.4148 24.3208 38.3179 24.3208 38.3179Z" fill="#E4AD50"/>
<path d="M51.5103 38.3179C51.5103 38.3179 37.964 44.0824 35.3965 58.3499L39.1526 38.3179H51.5103Z" fill="#E4AD50"/>
<path d="M70.0495 28.5861C68.8317 27.539 67.8933 26.205 67.3194 24.705C67.1581 24.2835 66.7913 23.9751 66.3467 23.8977C65.9022 23.8202 65.4525 23.9866 65.1583 24.3287C64.1112 25.5466 62.7773 26.485 61.2772 27.0588C60.8558 27.2201 60.5474 27.587 60.4699 28.0315C60.3924 28.4761 60.5588 28.9257 60.901 29.2199C62.1188 30.267 63.0572 31.6009 63.6311 33.101C63.7924 33.5225 64.1592 33.8308 64.6038 33.9083C65.0484 33.9858 65.498 33.8194 65.7922 33.4772C66.8393 32.2594 68.1732 31.321 69.6733 30.7471C70.0947 30.5858 70.4031 30.219 70.4806 29.7745C70.5578 29.3299 70.3917 28.8803 70.0495 28.5861Z" fill="#000000"/>
<path d="M14.4428 60.3711C12.22 59.4416 10.2632 57.9733 8.74964 56.099C8.32439 55.5724 7.65806 55.3024 6.98792 55.3979C6.31778 55.4934 5.75332 55.939 5.49217 56.5634C4.56266 58.7862 3.09436 60.743 1.2201 62.2565C0.693492 62.6818 0.423452 63.3481 0.518969 64.0182C0.614485 64.6884 1.06006 65.2528 1.68447 65.514C3.90701 66.4435 5.86383 67.9118 7.37761 69.786C7.80286 70.3127 8.46919 70.5827 9.13933 70.4872C9.80947 70.3917 10.3739 69.9461 10.6351 69.3217C11.5646 67.0991 13.0329 65.1423 14.9071 63.6285C15.4338 63.2033 15.7038 62.537 15.6083 61.8668C15.5128 61.1964 15.0674 60.6322 14.4428 60.3711Z" fill="#000000"/>
<path d="M38.4238 5.97562C36.3544 4.74178 34.6247 3.01182 33.3909 0.942717C33.0441 0.361236 32.4225 0 31.7457 0C31.0687 0 30.4471 0.361236 30.1006 0.942717C28.8668 3.01182 27.1368 4.74178 25.0677 5.97562C24.4862 6.32237 24.125 6.94399 24.125 7.62074C24.125 8.29774 24.4862 8.91935 25.0677 9.26611C27.1368 10.4999 28.8668 12.2299 30.1006 14.299C30.4474 14.8805 31.069 15.2417 31.7457 15.2417C32.4227 15.2417 33.0444 14.8805 33.3909 14.299C34.6247 12.2299 36.3547 10.4999 38.4238 9.26611C39.0052 8.91935 39.3665 8.29774 39.3665 7.62074C39.3665 6.94399 39.0052 6.32237 38.4238 5.97562Z" fill="#000000"/>
</svg>
