<svg width="40" height="40" viewBox="0 0 40 40" fill="none" xmlns="http://www.w3.org/2000/svg">
<path d="M20.6521 20.1191L18.6511 18.036L2.87198 1.60959C2.45919 2.20956 2.23047 2.92886 2.23047 3.69425V36.3075C2.23047 37.1309 2.49435 37.9011 2.96922 38.5273L18.6511 22.202L20.6521 20.1191Z" fill="#F0F3EE"/>
<path d="M28.048 27.8177L22.2802 21.8131L18.651 25.5905L4.94043 39.8633C5.88282 40.1285 6.89279 40.008 7.7725 39.5005L18.651 33.2324L28.048 27.8177Z" fill="#F0F3EE"/>
<path d="M28.194 12.2675L18.6511 6.76885L7.7726 0.500832C7.19438 0.16758 6.5599 0.00034337 5.92542 0.00034337C5.53434 0.00034337 5.14325 0.0644303 4.76562 0.191078L18.6511 14.6461L22.2803 18.4238L28.194 12.2675Z" fill="#F0F3EE"/>
<path d="M36.0722 23.1935L30.1441 26.6094L23.9082 20.118L30.29 13.4746L36.0722 16.8062C37.2289 17.4727 37.9196 18.6669 37.9196 19.9999C37.9196 21.3332 37.2289 22.527 36.0722 23.1935Z" fill="#F0F3EE"/>
<path d="M20.6523 20.1183L18.6514 18.0352V22.2012L20.6523 20.1183Z" fill="#F0F3EE"/>
<path d="M22.2806 21.813L18.6514 25.5905V33.2324L28.0484 27.8177L22.2806 21.813Z" fill="#F0F3EE"/>
<path d="M28.1942 12.2675L18.6514 6.76884V14.6461L22.2806 18.4238L28.1942 12.2675Z" fill="#F0F3EE"/>
</svg>
