<svg width="151" height="138" viewBox="0 0 151 138" fill="none" xmlns="http://www.w3.org/2000/svg">
<path d="M121.429 48.0767C132.894 48.0767 142.188 38.7826 142.188 27.3177C142.188 15.8527 132.894 6.55859 121.429 6.55859C109.964 6.55859 100.67 15.8527 100.67 27.3177C100.67 38.7826 109.964 48.0767 121.429 48.0767Z" fill="#E0E0E0"/>
<path d="M119.845 48.0767C131.31 48.0767 140.604 38.7826 140.604 27.3177C140.604 15.8527 131.31 6.55859 119.845 6.55859C108.38 6.55859 99.0859 15.8527 99.0859 27.3177C99.0859 38.7826 108.38 48.0767 119.845 48.0767Z" fill="#F5F5F5"/>
<path d="M133.414 40.8863C140.902 33.3983 140.902 21.2579 133.414 13.7699C125.926 6.2819 113.785 6.28191 106.297 13.7699C98.8095 21.2579 98.8095 33.3983 106.297 40.8863C113.785 48.3743 125.926 48.3743 133.414 40.8863Z" fill="white"/>
<path d="M123.133 41.2611C122.935 41.2611 122.737 41.1027 122.697 40.9046L119.409 27.3953C119.33 27.1576 119.488 26.8803 119.766 26.8407C120.003 26.7615 120.281 26.9199 120.32 27.1973L123.608 40.7065C123.688 40.9442 123.529 41.2215 123.252 41.2611C123.212 41.2611 123.173 41.2611 123.133 41.2611Z" fill="#F5F5F5"/>
<path d="M119.846 28.2315C119.608 28.2315 119.37 28.1523 119.172 27.9542L107.961 16.7427C107.604 16.3862 107.604 15.7919 107.961 15.4354C108.317 15.0788 108.912 15.0788 109.268 15.4354L119.846 26.013L126.026 19.8328C126.382 19.4763 126.977 19.4763 127.333 19.8328C127.69 20.1894 127.69 20.7836 127.333 21.1402L120.519 27.9542C120.321 28.1523 120.083 28.2315 119.846 28.2315Z" fill="#EBEBEB"/>
<path d="M66.8391 121.324H69.9688V99.8917H66.8391V121.324Z" fill="#F0F0F0"/>
<path d="M3.52646 124.215L67.9033 124.215V121.323L3.52646 121.323V124.215Z" fill="#F0F0F0"/>
<path d="M66.839 99.8555H1.47168V121.288H66.839V99.8555Z" fill="#F5F5F5"/>
<path d="M62.6389 103.621H5.70996V115.863H62.6389V103.621Z" fill="#F0F0F0"/>
<path d="M20.2897 105.244H47.9816C48.4966 105.244 48.9324 104.808 48.9324 104.293V104.134C48.9324 103.619 48.4966 103.184 47.9816 103.184H20.2897C19.7746 103.184 19.3389 103.619 19.3389 104.134V104.293C19.3785 104.808 19.7746 105.244 20.2897 105.244Z" fill="#F5F5F5"/>
<path d="M0.0336761 99.8828L66.8271 99.8828V97.9812L0.0336761 97.9812V99.8828Z" fill="#F0F0F0"/>
<path d="M71.474 97.957H66.8389V99.8586H71.474V97.957Z" fill="#E6E6E6"/>
<path d="M149.319 77.2344H143.218V124.18H149.319V77.2344Z" fill="#F0F0F0"/>
<path d="M89.8098 124.211H143.213V77.2653H89.8098V124.211Z" fill="#F5F5F5"/>
<path d="M89.3319 120.059H136.198V94.9417H89.3319V120.059Z" fill="#FAFAFA"/>
<path d="M89.3319 92.2852H136.198V84.0053H89.3319V92.2852Z" fill="#FAFAFA"/>
<path opacity="0.7" d="M136.642 94.9844H136.206V120.101H136.642V94.9844Z" fill="#E6E6E6"/>
<path opacity="0.7" d="M136.642 84.0469H136.206V92.3267H136.642V84.0469Z" fill="#E6E6E6"/>
<path opacity="0.7" d="M149.319 79.2148H89.6963V80.2845H149.319V79.2148Z" fill="#E6E6E6"/>
<path d="M150.032 76.6016H143.218V79.6917H150.032V76.6016Z" fill="#F0F0F0"/>
<path d="M89.0967 79.6758H143.213V76.5857H89.0967V79.6758Z" fill="#F5F5F5"/>
<path d="M109.386 67.5688C108.99 67.0142 108.792 66.3407 108.673 65.6672C108.554 64.9938 108.514 64.2807 108.554 63.6072C108.633 62.2206 108.95 60.8736 109.425 59.6059C109.624 58.972 109.941 58.3778 110.218 57.7439C110.535 57.1497 110.852 56.5554 111.208 56.0008C111.565 55.4462 111.961 54.8915 112.357 54.3765C112.793 53.8615 113.229 53.3465 113.704 52.8711C113.466 53.505 113.189 54.0992 112.912 54.6935C112.634 55.2877 112.397 55.9216 112.119 56.4762L111.367 58.2589L111.01 59.1701L110.812 59.6059L110.654 60.0417C110.178 61.2302 109.861 62.4583 109.584 63.6864C109.465 64.3203 109.346 64.9541 109.307 65.588C109.267 66.2615 109.267 66.8953 109.386 67.5688Z" fill="#E6E6E6"/>
<path d="M101.7 68.5957C101.739 67.5657 101.66 66.6149 101.462 65.7433C101.264 64.8718 100.868 64.0795 100.313 63.4456C99.7584 62.8117 99.0453 62.2571 98.2133 61.7817C97.421 61.3063 96.5098 60.9497 95.5986 60.514C96.6287 60.3951 97.6587 60.514 98.6491 60.8309C99.1641 60.9894 99.6395 61.2271 100.075 61.5044C100.511 61.7817 100.947 62.1382 101.303 62.574C102.017 63.406 102.452 64.5152 102.492 65.5849C102.532 66.6941 102.254 67.7638 101.7 68.5957Z" fill="#E6E6E6"/>
<path d="M102.056 68.476C102.017 67.3271 101.937 66.2179 101.739 65.1482C101.541 64.0786 101.304 63.0485 100.868 62.0977C100.472 61.1469 99.917 60.2754 99.2039 59.483C98.4908 58.6907 97.6192 58.0172 96.708 57.3438C97.8569 57.5022 98.9662 58.0172 99.9169 58.7303C100.868 59.483 101.62 60.4735 102.096 61.5827C102.571 62.692 102.769 63.9201 102.769 65.069C102.769 66.2575 102.532 67.4064 102.056 68.476Z" fill="#E6E6E6"/>
<path d="M108.871 66.4577C107.999 65.3484 107.286 64.1203 106.692 62.8526C106.098 61.5848 105.622 60.2379 105.226 58.8909C104.83 57.5439 104.592 56.1177 104.473 54.7312C104.354 53.305 104.394 51.8788 104.671 50.4922C104.949 51.8788 105.186 53.2257 105.503 54.5727C105.82 55.9197 106.137 57.227 106.494 58.5343C106.85 59.8417 107.246 61.149 107.643 62.4564C108.078 63.7637 108.475 65.1107 108.871 66.4577Z" fill="#E6E6E6"/>
<path d="M108.514 66.3389C107.523 65.3881 106.691 64.3185 105.899 63.1696C105.146 62.0207 104.473 60.8322 103.918 59.5645C103.324 58.3364 102.888 57.029 102.571 55.6821C102.254 54.3351 102.056 52.9485 102.096 51.6016C102.611 52.9089 103.047 54.137 103.522 55.3651C104.037 56.5932 104.552 57.8214 105.107 59.0099C105.661 60.238 106.216 61.4265 106.81 62.615C107.365 63.8827 107.959 65.0712 108.514 66.3389Z" fill="#E6E6E6"/>
<path d="M109.979 67.606C108.87 67.0513 107.84 66.259 106.929 65.4271C105.978 64.5951 105.146 63.6839 104.393 62.6539C103.601 61.6635 102.967 60.5542 102.412 59.445C101.858 58.2961 101.501 57.068 101.343 55.8398C102.016 56.9095 102.611 57.9395 103.324 58.9299C103.997 59.9203 104.71 60.9108 105.423 61.8616C106.136 62.8124 106.889 63.7632 107.681 64.714C108.434 65.7044 109.226 66.6155 109.979 67.606Z" fill="#E6E6E6"/>
<path d="M107.84 66.3421C106.73 65.9063 105.78 65.2725 104.868 64.5197C103.957 63.767 103.165 62.9351 102.492 61.9843C102.135 61.5089 101.818 61.0335 101.541 60.5185C101.263 60.0035 100.986 59.4884 100.788 58.9338C100.313 57.8642 100.075 56.7153 99.9561 55.5664C100.59 56.5568 101.105 57.5472 101.699 58.4584C101.976 58.9338 102.293 59.3696 102.61 59.845C102.927 60.2808 103.244 60.7562 103.561 61.192C104.195 62.0635 104.908 62.9351 105.621 63.8066C106.334 64.6386 107.047 65.5102 107.84 66.3421Z" fill="#E6E6E6"/>
<path d="M109.544 67.0511C109.029 66.7342 108.632 66.1795 108.355 65.6249C108.078 65.0703 107.88 64.4364 107.801 63.8422C107.602 62.614 107.642 61.3463 107.919 60.1182C108.038 59.524 108.236 58.9297 108.395 58.3355C108.633 57.7808 108.831 57.1866 109.108 56.6716C109.385 56.1169 109.663 55.6019 109.979 55.0869C110.336 54.5719 110.653 54.0965 111.049 53.6211C110.93 54.2153 110.732 54.77 110.574 55.3642C110.376 55.9188 110.257 56.5131 110.059 57.0677C109.9 57.6224 109.742 58.177 109.583 58.7316L109.385 59.5636C109.306 59.8409 109.227 60.1182 109.187 60.3955C108.949 61.5048 108.831 62.614 108.831 63.7629C108.831 64.3176 108.87 64.8722 108.989 65.4268C109.068 65.9418 109.227 66.4965 109.544 67.0511Z" fill="#E6E6E6"/>
<path d="M108.791 65.7826C107.919 64.8715 107.325 63.7226 106.968 62.4945C106.612 61.2664 106.493 59.959 106.612 58.6913C106.652 58.3744 106.731 58.0574 106.77 57.7405L106.85 57.2651L107.008 56.7897C107.127 56.4728 107.206 56.1954 107.325 55.8785C107.444 55.6012 107.602 55.2843 107.721 55.007L107.919 54.5712L108.157 54.175L108.672 53.3827C109.068 52.9073 109.504 52.4319 109.94 51.9961C109.742 52.5903 109.464 53.145 109.227 53.6996L108.91 54.5316L108.751 54.9277L108.632 55.3635C108.553 55.6408 108.474 55.9181 108.355 56.1954L108.157 57.067L108.038 57.5028L107.959 57.9386C107.919 58.2159 107.84 58.4932 107.84 58.8101C107.721 59.959 107.761 61.1079 107.88 62.2568C108.117 63.4453 108.395 64.5942 108.791 65.7826Z" fill="#E6E6E6"/>
<path d="M107.127 65.2696L101.422 60.2383L102.293 67.0919L107.127 65.2696Z" fill="#E6E6E6"/>
<path d="M96.1934 64.3594H112.634L110.495 76.6009H98.3326L96.1934 64.3594Z" fill="#F5F5F5"/>
<path d="M106.454 64.3594H112.634L110.495 76.6009H107.246L106.454 64.3594Z" fill="#EBEBEB"/>
<path d="M127.214 67.6044C127.293 67.0498 127.253 66.4951 127.135 65.9801C127.016 65.4651 126.857 64.9501 126.659 64.5143C126.223 63.5635 125.669 62.692 124.995 61.86C124.837 61.6619 124.639 61.4638 124.48 61.2658C124.322 61.0677 124.124 60.8696 123.965 60.6715C123.569 60.2753 123.212 59.8792 122.856 59.483C122.46 59.1265 122.103 58.6907 121.707 58.2945C121.311 57.8984 120.915 57.5022 120.519 57.0664C121.073 57.2645 121.549 57.5022 122.064 57.7795C122.579 58.0568 123.054 58.3738 123.529 58.6907C123.767 58.8492 124.005 59.0472 124.203 59.2057C124.441 59.4038 124.639 59.5622 124.876 59.7603C125.273 60.1565 125.708 60.5923 126.065 61.0281C126.818 61.9392 127.372 63.0089 127.689 64.1578C127.848 64.752 127.887 65.3463 127.848 65.9405C127.729 66.5348 127.57 67.129 127.214 67.6044Z" fill="#E6E6E6"/>
<path d="M136.445 65.94C136.048 65.5834 135.732 65.108 135.533 64.593C135.415 64.3157 135.415 64.0384 135.375 63.7611C135.375 63.6026 135.375 63.4838 135.375 63.3253C135.375 63.1668 135.375 63.048 135.415 62.8895C135.613 61.7406 136.286 60.7106 137.079 59.9579C137.277 59.7598 137.514 59.6013 137.712 59.4429C137.95 59.2844 138.148 59.0863 138.386 58.9675C138.624 58.8486 138.861 58.6902 139.099 58.5713C139.218 58.4921 139.337 58.4525 139.456 58.3732L139.812 58.2148C140.05 58.0959 140.287 58.0167 140.565 57.9374C140.802 57.8582 141.04 57.7394 141.317 57.6997C141.833 57.5809 142.348 57.462 142.863 57.3828C142.427 57.7394 142.031 58.0167 141.595 58.294C141.357 58.4128 141.159 58.5713 140.961 58.7298C140.763 58.8882 140.565 59.0071 140.327 59.1656C139.891 59.4429 139.535 59.7598 139.139 60.0371C138.94 60.156 138.742 60.354 138.584 60.5125C138.386 60.671 138.188 60.8294 138.029 60.9879C137.356 61.6218 136.762 62.3745 136.445 63.2064C136.365 63.4045 136.326 63.6422 136.247 63.8403C136.247 64.078 136.167 64.3157 136.207 64.5138C136.207 64.9496 136.286 65.425 136.445 65.94Z" fill="#E6E6E6"/>
<path d="M136.049 65.9442C135.336 65.0726 134.979 63.8842 134.94 62.6957C134.9 61.5072 135.256 60.3187 135.811 59.249L136.286 58.4963C136.485 58.2586 136.683 58.0605 136.841 57.8228L137.118 57.5059L137.435 57.2286C137.673 57.0305 137.871 56.8324 138.109 56.6739C138.584 56.357 139.06 56.0401 139.575 55.7628C140.09 55.5251 140.605 55.327 141.159 55.1289C140.763 55.5647 140.367 55.9212 139.931 56.2778C139.535 56.6739 139.179 57.0305 138.782 57.4267C138.624 57.6247 138.426 57.8228 138.267 58.0209L137.99 58.2982L137.752 58.6152C137.594 58.8132 137.435 59.0113 137.277 59.249L136.881 59.9225C136.405 60.7941 136.049 61.7449 135.89 62.7749C135.811 63.7653 135.811 64.835 136.049 65.9442Z" fill="#E6E6E6"/>
<path d="M127.688 66.4963C128.005 65.2682 128.362 64.0797 128.719 62.9308C129.075 61.7423 129.392 60.5935 129.709 59.405C129.986 58.2165 130.264 57.0676 130.501 55.8791C130.699 54.6906 130.858 53.5021 130.977 52.2344C131.412 53.4229 131.571 54.7302 131.571 55.9979C131.531 57.2657 131.333 58.5334 131.016 59.7615C130.699 60.9896 130.264 62.1781 129.709 63.327C129.154 64.4363 128.52 65.5455 127.688 66.4963Z" fill="#E6E6E6"/>
<path d="M128.125 66.2982C128.64 65.1097 129.195 63.9212 129.749 62.7724C130.304 61.6235 130.859 60.4746 131.374 59.3257C131.889 58.1769 132.404 57.028 132.879 55.8395C133.354 54.651 133.751 53.4625 134.147 52.2344C134.305 53.5417 134.147 54.8887 133.869 56.1564C133.552 57.4241 133.117 58.6919 132.562 59.8804C132.007 61.0689 131.374 62.2177 130.621 63.2874C129.868 64.3966 129.076 65.4267 128.125 66.2982Z" fill="#E6E6E6"/>
<path d="M126.5 67.8051C127.253 66.7355 128.085 65.7451 128.877 64.7546C129.669 63.7642 130.462 62.7738 131.214 61.7834C131.967 60.793 132.72 59.763 133.473 58.7329C134.186 57.7029 134.859 56.6333 135.533 55.4844C135.374 56.7917 134.938 58.0595 134.384 59.2479C133.789 60.4364 133.076 61.5457 132.284 62.5757C131.492 63.6058 130.581 64.5566 129.63 65.4677C128.679 66.3393 127.649 67.1713 126.5 67.8051Z" fill="#E6E6E6"/>
<path d="M128.917 66.0999C129.67 65.1491 130.422 64.2379 131.175 63.3663C131.928 62.4551 132.641 61.544 133.354 60.6328C134.067 59.7216 134.701 58.7708 135.335 57.82C135.969 56.8692 136.523 55.8392 137.118 54.7695C137.038 55.9976 136.721 57.1861 136.246 58.2954C135.731 59.4047 135.137 60.4743 134.384 61.4251C133.631 62.3759 132.799 63.2871 131.888 64.0794C131.017 64.8717 130.026 65.5848 128.917 66.0999Z" fill="#E6E6E6"/>
<path d="M126.976 67.2082C127.451 66.297 127.61 65.3462 127.57 64.4351C127.531 63.5239 127.253 62.6523 126.897 61.7807L126.778 61.4638L126.619 61.1469L126.302 60.513C126.025 60.1168 125.787 59.6811 125.51 59.2849C125.233 58.8887 124.956 58.453 124.678 58.0568C124.401 57.6606 124.084 57.2248 123.807 56.7891C124.282 57.0268 124.678 57.3041 125.114 57.621C125.55 57.9379 125.906 58.2945 126.302 58.651C126.501 58.8095 126.659 59.0472 126.818 59.2453C126.976 59.4434 127.174 59.6415 127.333 59.8792L127.768 60.5526L127.966 60.9092L128.125 61.2657C128.561 62.2561 128.798 63.405 128.64 64.5143C128.442 65.5839 127.887 66.614 126.976 67.2082Z" fill="#E6E6E6"/>
<path d="M127.728 65.9392C128.045 64.9092 128.283 63.9188 128.402 62.9283C128.521 61.9379 128.441 60.9871 128.204 60.076C128.085 59.6006 127.926 59.1648 127.689 58.7686C127.491 58.3328 127.213 57.9367 126.936 57.5405C126.342 56.7482 125.629 55.9955 124.876 55.2031C125.906 55.5201 126.896 56.0747 127.728 56.8274C128.125 57.2236 128.521 57.6593 128.798 58.1347C129.115 58.6101 129.353 59.1648 129.511 59.7194C129.828 60.8287 129.788 62.0568 129.472 63.1264C129.075 64.1961 128.521 65.1865 127.728 65.9392Z" fill="#E6E6E6"/>
<path d="M129.671 64.9893L135.851 59.0469L135.613 64.8705L129.671 64.9893Z" fill="#E6E6E6"/>
<path d="M122.896 64.3594H139.376L137.197 76.6009H125.035L122.896 64.3594Z" fill="#F5F5F5"/>
<path d="M133.196 64.3594H139.376L137.198 76.6009H133.949L133.196 64.3594Z" fill="#EBEBEB"/>
<path d="M20.2491 8.66016V72.7993C20.2491 78.3456 15.7328 82.8619 10.1865 82.8619H56.934C62.4803 82.8619 66.9966 78.3456 66.9966 72.7993V8.66016H20.2491Z" fill="#F5F5F5"/>
<path d="M59.6273 24.9062H29.4395V55.094H59.6273V24.9062Z" fill="#F0F0F0"/>
<path d="M58.7161 23.9531H28.5283V54.1409H58.7161V23.9531Z" fill="white"/>
<path d="M35.9366 58.6562H28.251V66.3418H35.9366V58.6562Z" fill="white"/>
<path d="M58.7169 58.6562H51.0312V66.3418H58.7169V58.6562Z" fill="white"/>
<path d="M47.3467 58.6562H39.6611V66.3418H47.3467V58.6562Z" fill="white"/>
<path d="M20.249 8.66016V16.2665H66.9965V8.66016H20.249Z" fill="#F0F0F0"/>
<path d="M23.0615 6.20419V11.1166C23.0615 11.8694 23.6558 12.4636 24.4085 12.4636C25.1612 12.4636 25.7554 11.8694 25.7554 11.1166V6.20419C25.7554 5.45148 25.1612 4.85723 24.4085 4.85723C23.6558 4.81761 23.0615 5.45148 23.0615 6.20419Z" fill="#E6E6E6"/>
<path d="M61.4502 6.20419V11.1166C61.4502 11.8694 62.0444 12.4636 62.7972 12.4636C63.5499 12.4636 64.1441 11.8694 64.1441 11.1166V6.20419C64.1441 5.45148 63.5499 4.85723 62.7972 4.85723C62.0841 4.81761 61.4502 5.45148 61.4502 6.20419Z" fill="#E6E6E6"/>
<path d="M53.7646 6.20419V11.1166C53.7646 11.8694 54.3589 12.4636 55.1116 12.4636C55.8643 12.4636 56.4586 11.8694 56.4586 11.1166V6.20419C56.4586 5.45148 55.8643 4.85723 55.1116 4.85723C54.3985 4.81761 53.7646 5.45148 53.7646 6.20419Z" fill="#E6E6E6"/>
<path d="M46.0791 6.20419V11.1166C46.0791 11.8694 46.6733 12.4636 47.4261 12.4636C48.1788 12.4636 48.773 11.8694 48.773 11.1166V6.20419C48.773 5.45148 48.1788 4.85723 47.4261 4.85723C46.713 4.81761 46.0791 5.45148 46.0791 6.20419Z" fill="#E6E6E6"/>
<path d="M38.3936 6.20419V11.1166C38.3936 11.8694 38.9878 12.4636 39.7405 12.4636C40.4932 12.4636 41.0875 11.8694 41.0875 11.1166V6.20419C41.0875 5.45148 40.4932 4.85723 39.7405 4.85723C39.0274 4.81761 38.3936 5.45148 38.3936 6.20419Z" fill="#E6E6E6"/>
<path d="M30.748 6.20419V11.1166C30.748 11.8694 31.3423 12.4636 32.095 12.4636C32.8477 12.4636 33.442 11.8694 33.442 11.1166V6.20419C33.442 5.45148 32.8477 4.85723 32.095 4.85723C31.3423 4.81761 30.748 5.45148 30.748 6.20419Z" fill="#E6E6E6"/>
<path d="M52.7348 78.6641C52.7348 81.0014 54.6364 82.8634 56.9341 82.8634H52.7348H4.32338C1.986 82.8634 0.124023 80.9618 0.124023 78.6641H52.7348Z" fill="#E6E6E6"/>
<path opacity="0.2" d="M85.8935 99.7812C85.8935 99.7812 56.7754 116.975 56.7754 133.257H115.012C115.012 116.975 85.8935 99.7812 85.8935 99.7812Z" fill="#000000"/>
<path opacity="0.2" d="M85.8928 120.262C85.8928 120.262 58.9932 126.917 58.9932 133.216H112.753C112.753 126.957 85.8928 120.262 85.8928 120.262Z" fill="#000000"/>
<path opacity="0.3" d="M89.4199 104.531C94.887 109.919 105.504 121.804 105.504 133.253H98.2148C98.2148 121.804 92.4308 109.879 89.4199 104.531Z" fill="white"/>
<path opacity="0.2" d="M85.8935 99.7807C85.8935 99.7807 56.7754 82.5871 56.7754 66.3047H115.012C115.012 82.5871 85.8935 99.7807 85.8935 99.7807Z" fill="#000000"/>
<path opacity="0.2" d="M85.8933 98.1945C85.8933 98.1945 71.0371 91.0635 71.0371 84.2891H100.75C100.75 91.0635 85.8933 98.1945 85.8933 98.1945Z" fill="#000000"/>
<path opacity="0.3" d="M82.724 95.0267C77.2569 89.6388 66.6396 77.7539 66.6396 66.3047H73.9291C73.8895 77.7539 79.7131 89.6388 82.724 95.0267Z" fill="white"/>
<path opacity="0.3" d="M89.4199 95.0267C94.887 89.6388 105.227 76.3673 105.504 66.3047H103.563C102.652 78.5462 93.7381 89.8369 89.4199 95.0267Z" fill="white"/>
<path d="M111.05 60.5586H107.762V60.9548H111.05V60.5586Z" fill="#000000"/>
<path d="M122.261 65.9861H121.865C121.865 63.2129 119.607 60.9548 116.834 60.9548H113.348V60.5586H116.834C119.805 60.5586 122.261 62.9752 122.261 65.9861Z" fill="#000000"/>
<path d="M116.834 70.6604H54.953C52.7345 70.6604 50.9121 68.838 50.9121 66.6195V66.0253C50.9121 63.8067 52.7345 61.9844 54.953 61.9844H116.794C119.013 61.9844 120.835 63.8067 120.835 66.0253V66.6195C120.875 68.838 119.053 70.6604 116.834 70.6604Z" fill="#000000"/>
<path d="M116.834 128.898H54.953C52.7345 128.898 50.9121 130.721 50.9121 132.939V133.534C50.9121 135.752 52.7345 137.574 54.953 137.574H116.794C119.013 137.574 120.835 135.752 120.835 133.534V132.939C120.875 130.721 119.053 128.898 116.834 128.898Z" fill="#000000"/>
<path d="M34.8287 93.3584L32.1348 90.9418L36.7303 83.9297L39.4242 86.3067L34.8287 93.3584Z" fill="#FF8B7B"/>
<path d="M32.6888 89.436L36.0958 91.813C36.2146 91.8922 36.2542 92.0507 36.175 92.1696L34.4715 94.9823C34.313 95.2597 33.8376 95.3389 33.5603 95.1408C32.3718 94.3089 31.936 93.8731 30.5098 92.7242C29.6383 92.0111 27.5386 90.3076 26.469 89.1983C25.3993 88.0891 26.5482 87.059 27.1028 87.4156C28.4102 88.3268 30.7079 89.2776 32.0549 89.1983C32.2926 89.2379 32.5303 89.3172 32.6888 89.436Z" fill="#263238"/>
<path opacity="0.2" d="M39.4242 86.3067L36.7302 83.9297L34.5117 87.2971L37.2849 89.5948L39.4242 86.3067Z" fill="black"/>
<path d="M66.72 51.1676C66.72 51.1676 48.6945 49.9395 46.4759 56.0404C41.405 69.9458 34.7891 84.6435 34.7891 84.6435L40.1373 88.4864C40.1373 88.4864 51.3884 71.3324 54.7954 60.2794C61.7283 61.9433 74.2471 63.4091 78.288 58.774C81.7347 54.8123 79.1596 51.128 79.1596 51.128H66.72V51.1676Z" fill="#263238"/>
<path opacity="0.3" d="M51.3086 61.9844C50.8728 63.6879 50.2389 68.5211 49.8428 71.7697C50.7143 70.0662 51.5463 68.3626 52.299 66.6591L51.3086 61.9844Z" fill="black"/>
<path d="M39.7405 90.271L33.7188 85.5567L34.9469 82.9023L41.6817 88.0525L39.7405 90.271Z" fill="#000000"/>
<path d="M31.2621 89.2414C31.5395 89.4395 31.896 89.598 32.1337 89.6772C32.1733 89.6772 32.2129 89.6772 32.2129 89.6772C32.2526 89.6376 32.2526 89.598 32.2526 89.598C32.2129 89.4791 31.7375 88.2906 31.2621 88.1718C31.1433 88.1322 31.0641 88.1718 30.9452 88.251C30.7867 88.3699 30.7471 88.5283 30.7868 88.6868C30.8264 88.8849 31.0244 89.083 31.2621 89.2414ZM32.0149 89.4395C31.381 89.1622 31.0244 88.8849 30.9452 88.6472C30.9452 88.5283 30.9848 88.4491 31.0641 88.3699C31.1037 88.3303 31.1433 88.3303 31.2225 88.3303C31.4998 88.3699 31.8168 88.9641 32.0149 89.4395Z" fill="#000000"/>
<path d="M32.1343 89.6728C32.2135 89.6728 32.2135 89.6728 32.2531 89.6728C32.2927 89.6332 32.9662 88.8012 32.8474 88.2862C32.8077 88.1674 32.7285 88.0485 32.6097 87.9693C32.4512 87.89 32.3324 87.8901 32.2135 88.0089C31.8966 88.2862 31.9362 89.237 32.1343 89.6728C32.1343 89.6728 32.0947 89.6332 32.1343 89.6728ZM32.57 88.1674C32.6097 88.207 32.6493 88.2466 32.6889 88.3258C32.7681 88.6428 32.4116 89.1578 32.2135 89.4351C32.0947 89.0389 32.1343 88.3258 32.3323 88.1674C32.372 88.0881 32.4116 88.0881 32.57 88.1674C32.57 88.1277 32.5304 88.1277 32.57 88.1674Z" fill="#000000"/>
<path d="M58.5176 97.5187L55.0313 98.1921L54.3975 88.9219L57.9233 89.0407L58.5176 97.5187Z" fill="#FF8B7B"/>
<path d="M54.5961 96.9263L58.5578 95.2624C58.7163 95.1831 58.8351 95.2624 58.9143 95.3812L60.4198 98.4317C60.5782 98.7486 60.4198 99.1844 60.0632 99.3033C58.6766 99.8579 58.0032 100.056 56.26 100.809C55.1904 101.244 52.2984 102.552 50.7533 102.948C49.2479 103.344 48.8517 101.799 49.4856 101.482C50.9514 100.769 53.4076 98.5902 54.0811 97.4017C54.2 97.2036 54.3584 97.0055 54.5961 96.9263Z" fill="#263238"/>
<path d="M53.6061 98.0729C53.9231 97.9541 54.2796 97.7164 54.4777 97.5579C54.5173 97.5183 54.5173 97.5183 54.5173 97.4787C54.5173 97.439 54.4777 97.3994 54.4381 97.3994C54.2796 97.3598 53.0119 97.1221 52.6553 97.4787C52.5761 97.5579 52.5365 97.6767 52.5761 97.7956C52.6157 97.9937 52.6949 98.1521 52.8534 98.1918C53.0515 98.2314 53.3288 98.1918 53.6061 98.0729ZM54.2004 97.5183C53.6061 97.9144 53.1703 98.0729 52.9326 97.9937C52.8534 97.9541 52.7742 97.8748 52.7346 97.7164C52.7346 97.6371 52.7346 97.5975 52.7742 97.5579C52.9723 97.3994 53.6854 97.439 54.2004 97.5183Z" fill="#000000"/>
<path d="M54.4763 97.5571C54.5159 97.5175 54.5556 97.4779 54.5159 97.4383C54.5159 97.3987 54.1594 96.329 53.6444 96.1706C53.5255 96.1309 53.3671 96.1309 53.2482 96.2102C53.0898 96.2894 53.0105 96.4479 53.0501 96.5667C53.1294 97.0025 53.9613 97.4779 54.3971 97.5571C54.4367 97.5571 54.4367 97.5571 54.4763 97.5571ZM53.3671 96.329C53.4463 96.2894 53.4859 96.2894 53.5651 96.329C53.8821 96.4479 54.1198 97.0025 54.2782 97.359C53.8821 97.2402 53.2878 96.8044 53.2086 96.5271C53.2086 96.4875 53.2086 96.4083 53.3671 96.329Z" fill="#000000"/>
<path opacity="0.2" d="M57.9233 89.0446L54.3975 88.9258L54.754 93.759L58.2403 93.7194L57.9233 89.0446Z" fill="black"/>
<path d="M75.5136 51.168C75.5136 51.168 49.7628 53.5846 50.674 61.3494C52.021 72.5213 53.0114 92.1314 53.0114 92.1314L59.5877 92.4088C59.5877 92.4088 62.044 75.1756 60.6178 63.7264C67.2733 63.7264 81.773 64.083 84.3084 60.6363C87.3193 56.5558 85.9327 51.168 85.9327 51.168H75.5136V51.168Z" fill="#263238"/>
<path d="M60.3007 92.8032L52.417 92.407L52.1396 89L60.7761 89.5942L60.3007 92.8032Z" fill="#000000"/>
<path d="M69.7695 28.4709C69.7298 29.184 69.6506 29.8178 69.5714 30.4913C69.4921 31.1648 69.4129 31.7987 69.2941 32.4325C69.096 33.7399 68.8583 35.0472 68.5413 36.3546C68.2244 37.6619 67.8679 38.9693 67.4321 40.2766C66.9567 41.5839 66.4417 42.8913 65.6493 44.2382C65.2532 44.9117 64.7382 45.5852 64.0647 46.2587C63.8666 46.4172 63.7081 46.5756 63.5497 46.6945C63.3912 46.8133 63.2327 46.9322 63.0743 47.051C62.7573 47.2887 62.4008 47.4868 62.0838 47.6849C60.7765 48.398 59.4692 48.913 58.1222 49.3092C57.4487 49.5072 56.8148 49.6657 56.1414 49.8242C55.4679 49.9826 54.834 50.1015 54.1605 50.1807C52.8532 50.3788 51.5458 50.5373 50.1989 50.5769C49.4462 50.6165 48.8123 50.0223 48.8123 49.2695C48.7727 48.6357 49.1688 48.1207 49.7235 47.9226H49.7631C52.0609 47.1699 54.4379 46.3379 56.5771 45.3079C57.6468 44.7929 58.6768 44.2779 59.5088 43.644C59.7068 43.4855 59.9049 43.3271 60.103 43.1686C60.1822 43.0894 60.3011 43.0101 60.3407 42.9309C60.42 42.8517 60.4992 42.7724 60.5388 42.7328C60.7369 42.4951 60.9746 42.1386 61.2123 41.7028C61.6481 40.8312 62.0442 39.7616 62.3612 38.6523C62.6781 37.5431 62.9554 36.3942 63.1931 35.2057C63.4308 34.0172 63.6289 32.8287 63.827 31.6006C64.0251 30.4121 64.1835 29.1444 64.3024 27.9955V27.9162C64.4608 26.4108 65.8474 25.3412 67.3132 25.5393C68.8583 25.7373 69.8883 27.0447 69.7695 28.4709Z" fill="#000000"/>
<path d="M50.3187 47.2109L48.3379 47.3298L49.9226 50.9745C49.9226 50.9745 53.3692 50.8953 53.29 49.1918L52.6561 48.3994C52.1411 47.6863 51.2695 47.2506 50.3187 47.2109Z" fill="#FF8B7B"/>
<path d="M46.1582 47.6054L47.9013 50.9729H49.9218L48.3371 47.3281L46.1582 47.6054Z" fill="#FF8B7B"/>
<path d="M69.493 22.8836L73.3358 22.0913L76.3862 21.6555C76.822 21.5762 77.2578 21.5762 77.6936 21.6159C80.0706 21.8139 82.091 23.4778 82.7249 25.8152C83.4776 28.5884 84.1907 31.9954 84.7057 35.0063C85.4584 39.2056 85.815 45.5046 85.8942 51.2094H67.7498C67.3537 40.8695 65.1351 34.1743 64.422 30.0542C63.9466 27.4791 65.254 24.904 67.631 23.7948L69.493 22.8836Z" fill="#000000"/>
<path d="M67.749 25.1393C67.7886 26.8428 68.1452 32.9042 69.9675 36.3508C70.2845 33.1022 74.1273 23.2773 74.1273 23.2773L67.749 25.1393Z" fill="#F5F5F5"/>
<path opacity="0.3" d="M85.1413 37.8184C85.1413 37.7392 85.1413 37.6995 85.1017 37.6203C85.1017 37.5411 85.0621 37.4222 85.0621 37.343C85.0621 37.1845 85.0225 37.0261 84.9828 36.8676C84.9828 36.7091 84.9432 36.5903 84.9432 36.4318C84.9432 36.313 84.9036 36.1545 84.864 36.0356C84.864 35.9168 84.8244 35.7979 84.8244 35.7187C84.7848 35.481 84.7452 35.2037 84.7055 34.966C84.5867 34.2133 84.4282 33.4606 84.2698 32.6682C84.2698 32.6286 84.2698 32.6286 84.2698 32.589C84.1113 31.7967 83.9528 31.044 83.7944 30.2516V30.212C83.7151 29.8951 83.6359 29.5385 83.5963 29.2216C83.5567 29.1027 83.5567 28.9839 83.517 28.8651C83.4774 28.667 83.4378 28.4293 83.3586 28.2312C83.319 28.0727 83.2793 27.9143 83.2397 27.7558C83.2397 27.7162 83.2397 27.6766 83.2001 27.6369C83.0416 27.0031 82.8832 26.3296 82.7247 25.7353L79.9516 24.2695C80.2685 25.4976 80.5854 26.805 80.8627 28.1916C80.5062 28.3897 80.2289 28.5877 79.9516 28.8254C79.2781 29.4197 79.3177 30.6478 79.9912 32.1532C81.8531 36.3526 82.8039 40.9085 83.002 45.504C83.0813 47.366 83.1209 49.2676 83.1605 51.0899H85.9337C85.8544 46.6529 85.6167 41.7404 85.1413 37.8184Z" fill="black"/>
<path d="M71.909 15.2344L70.3639 17.6114L68.2643 20.8599C68.4227 20.9392 68.7397 21.4542 68.8981 21.8107C69.2943 22.6031 69.6112 23.1577 67.9869 24.2669C67.6304 24.5046 67.6304 24.9008 67.7096 25.297C67.7889 25.812 68.1058 26.327 69.8489 26.0101C71.909 25.6535 73.2559 24.5839 74.286 23.5538C74.8802 22.9596 74.7217 22.5238 74.1671 21.9296C72.5428 20.1864 72.0674 17.4529 71.909 15.2344Z" fill="#FF8B7B"/>
<path d="M68.1455 26.0948L69.2548 26.8079L71.0771 26.0155C70.6413 25.6194 70.1263 25.2628 69.4529 25.1836C68.9775 25.3421 68.5417 25.6986 68.1455 26.0948Z" fill="#263238"/>
<path d="M69.4922 25.179C70.3241 25.5356 70.7599 26.2883 71.1165 27.1995C71.1165 27.1995 75.1177 24.149 75.197 22.1682C74.9989 21.4947 73.9689 21.6136 73.9689 21.6136C73.9689 21.6136 72.7804 23.7132 69.4922 25.179Z" fill="white"/>
<path d="M69.4931 25.1828C68.6612 25.5394 68.2254 26.2525 68.2254 27.1636C68.2254 27.1636 66.4426 25.064 67.9084 23.4793C68.2254 23.2416 69.1366 23.0039 69.1366 23.0039C69.1366 23.0039 68.7008 23.9151 69.4931 25.1828Z" fill="white"/>
<path d="M69.6105 26.4453C69.6105 26.4453 69.2936 26.4453 69.0955 26.4453C68.937 26.7226 68.6994 30.4466 68.6201 32.4274C68.8974 33.6159 69.254 34.8044 69.6898 35.7948V35.8344C69.7294 35.9137 69.7294 35.9533 69.769 36.0325C69.8086 36.1514 69.8878 36.2702 69.9275 36.3891C70.0067 35.5571 70.3236 34.2498 70.7594 32.784C70.284 30.4466 69.6105 26.4453 69.6105 26.4453Z" fill="#263238"/>
<path opacity="0.2" d="M68.7396 20.0282L70.047 17.7305C70.0866 17.7701 70.0866 17.8493 70.1262 17.9286C70.2451 18.1663 70.3243 18.4832 70.4035 18.8001C70.6412 19.8301 69.8489 21.296 68.9773 21.9694C68.9377 21.8902 68.8981 21.8506 68.8585 21.7714C68.7 21.4544 68.4227 20.979 68.2642 20.8602L68.2246 20.8206L68.7396 20.0282Z" fill="black"/>
<path d="M62.401 15.0755C62.084 13.6493 64.3422 11.7081 64.3422 11.7081L61.6879 10.7969C60.4994 11.6684 61.2521 14.1247 62.401 15.0755Z" fill="#263238"/>
<path d="M71.3543 11.0396C71.9882 14.5655 72.5032 16.5859 71.2355 18.8441C69.2943 22.2511 64.6591 21.8153 63.0348 18.6064C61.569 15.7143 60.7767 10.4454 63.7876 8.14759C66.7192 5.84983 70.7205 7.51373 71.3543 11.0396Z" fill="#FF8B7B"/>
<path d="M71.3933 14.6034L69.7294 14.128V11.9887C69.7294 11.9887 67.6297 10.8002 67.9466 9.29481C68.1051 8.3044 68.6201 6.83858 68.6201 6.83858C68.6201 6.83858 71.9479 6.6405 72.9779 7.03667C72.8195 7.27437 72.1064 7.829 72.1064 7.829C72.1064 7.829 73.4137 8.70056 74.1268 9.88906C73.6118 9.92867 72.9779 10.4437 72.9779 10.4437C72.9779 10.4437 73.4533 13.4149 71.3933 14.6034Z" fill="#263238"/>
<path d="M67.5508 4.57903C68.7789 5.33174 68.0658 6.75794 68.0658 6.75794L71.354 6.83717C71.1955 5.80714 68.3431 4.53941 67.5508 4.57903Z" fill="#263238"/>
<path d="M68.8584 10.0475C68.6207 10.7209 65.9664 11.5133 63.5497 11.5925C61.9255 11.6321 60.0239 10.919 60.0239 10.919C60.0239 10.919 60.4597 10.4436 61.2124 10.0871C59.7466 9.73052 57.8846 8.42317 57.4092 7.39314C58.7165 6.91774 59.7466 6.99698 60.6974 7.15544C59.4692 6.0858 59.4296 4.69922 59.4296 4.69922C59.4296 4.69922 65.6098 7.15544 68.0264 6.12541C70.6015 5.01615 72.5823 7.07621 70.8788 8.70049C69.1753 10.2852 68.8584 10.0475 68.8584 10.0475Z" fill="#263238"/>
<path d="M73.2554 13.5708C73.295 14.4028 72.9781 15.1951 72.5423 15.7101C71.9085 16.4628 70.918 15.8686 70.6803 14.9178C70.4823 14.0462 70.7596 12.7389 71.5915 12.3031C72.3839 11.9069 73.2158 12.62 73.2554 13.5708Z" fill="#FF8B7B"/>
<path d="M66.0067 14.285C66.086 14.5623 66.0067 14.8396 65.8483 14.9189C65.6898 14.9981 65.4521 14.8 65.3729 14.5227C65.2936 14.2454 65.3729 13.9681 65.5313 13.8888C65.6898 13.8492 65.8879 14.0077 66.0067 14.285Z" fill="#263238"/>
<path d="M62.9159 15.3934C62.9952 15.6707 62.9159 15.9481 62.7575 16.0273C62.599 16.1065 62.3613 15.9084 62.2821 15.6311C62.2028 15.3538 62.2821 15.0765 62.4405 14.9973C62.599 14.9576 62.8367 15.1557 62.9159 15.3934Z" fill="#263238"/>
<path d="M63.9853 15.2773C63.9853 15.2773 64.0249 16.8224 63.708 17.694C64.2626 17.892 64.8569 17.4166 64.8569 17.4166L63.9853 15.2773Z" fill="#A02724"/>
<path d="M65.8469 18.4848C66.9166 18.1282 67.3127 17.2171 67.3127 17.1774C67.3127 17.1378 67.3127 17.0982 67.2731 17.0586C67.2335 17.0586 67.1939 17.0586 67.1543 17.0982C67.1543 17.0982 66.7185 18.1282 65.4904 18.3659C65.4508 18.3659 65.4111 18.4056 65.4111 18.4848C65.4111 18.5244 65.4508 18.564 65.53 18.564C65.6488 18.564 65.7281 18.5244 65.8469 18.4848Z" fill="#263238"/>
<path d="M66.6793 12.6615C66.7189 12.6615 66.7189 12.6218 66.7585 12.6218C66.7982 12.5426 66.7981 12.4238 66.7189 12.3841C65.9266 11.8691 65.2135 12.2257 65.1739 12.2257C65.0946 12.2653 65.055 12.3841 65.0946 12.4634C65.1343 12.5426 65.2531 12.5822 65.3323 12.5426C65.372 12.5426 65.9266 12.2653 66.5208 12.6615C66.5605 12.7011 66.6001 12.7011 66.6793 12.6615Z" fill="#263238"/>
<path d="M62.3224 13.7326C62.3224 13.693 62.3224 13.693 62.3224 13.6534C62.2828 13.5741 62.2036 13.5345 62.0847 13.5741C61.2131 13.9307 61.0943 14.723 61.0943 14.723C61.0547 14.8022 61.1339 14.9211 61.2528 14.9211C61.332 14.9211 61.4508 14.8815 61.4508 14.7626C61.4508 14.723 61.5697 14.1288 62.2432 13.8515C62.2828 13.8515 62.3224 13.8118 62.3224 13.7326Z" fill="#263238"/>
<path d="M81.8918 24.1062C82.3276 24.6608 82.7237 25.1362 83.0803 25.6512C83.4764 26.1662 83.833 26.6813 84.1895 27.1963C84.9423 28.2659 85.6157 29.3356 86.2892 30.4448C86.9627 31.5541 87.5966 32.703 88.1512 33.9311C88.7058 35.1592 89.2208 36.4269 89.5774 37.8927C89.7359 38.6455 89.8943 39.3982 89.8943 40.3094C89.8943 41.1809 89.7359 41.9732 89.5378 42.726C89.1416 44.1918 88.5077 45.4595 87.8343 46.6084C87.4777 47.2026 87.1212 47.7573 86.725 48.2723C86.3288 48.8269 85.9327 49.3419 85.5365 49.8173C84.7046 50.8473 83.833 51.7585 82.8426 52.6697C82.2879 53.1847 81.4164 53.1451 80.941 52.5905C80.5448 52.1547 80.4656 51.4812 80.7825 50.9662L80.8221 50.9266C82.0106 48.9061 83.1991 46.7668 84.0311 44.7068C84.4272 43.6768 84.7838 42.6071 84.9026 41.6563C84.9819 41.1809 84.9819 40.7451 84.9423 40.3886C84.9026 40.0717 84.8234 39.6359 84.6649 39.1605C84.348 38.2493 83.9122 37.2193 83.3972 36.2288C82.8822 35.2384 82.2879 34.248 81.6541 33.2576C81.0202 32.2672 80.3467 31.2768 79.6733 30.326L78.6432 28.8602C78.2867 28.3848 77.9301 27.8698 77.6132 27.4736L77.5736 27.434C76.6624 26.2455 76.9001 24.542 78.0886 23.6308C79.3167 22.7592 80.9806 22.9573 81.8918 24.1062Z" fill="#000000"/>
<path d="M44.1376 53.302L77.8512 51.7569C78.287 51.7173 78.6832 52.0738 78.6832 52.5096L43.3848 54.0943C43.3452 53.6981 43.7018 53.3416 44.1376 53.302Z" fill="#000000"/>
<g opacity="0.6">
<path opacity="0.6" d="M44.1376 53.302L77.8512 51.7569C78.287 51.7173 78.6832 52.0738 78.6832 52.5096L43.3848 54.0943C43.3452 53.6981 43.7018 53.3416 44.1376 53.302Z" fill="white"/>
</g>
<path d="M38.7886 37.6556L62.7566 36.5859C63.0339 36.5859 63.3508 36.784 63.4697 37.101L68.0652 51.7194C68.1444 51.9968 67.986 52.2741 67.7086 52.2741L43.7407 53.3437C43.4633 53.3437 43.1464 53.1456 43.0276 52.8287L38.432 38.2102C38.3132 37.9329 38.4717 37.6952 38.7886 37.6556Z" fill="#000000"/>
<path opacity="0.6" d="M38.7886 37.6556L62.7566 36.5859C63.0339 36.5859 63.3508 36.784 63.4697 37.101L68.0652 51.7194C68.1444 51.9968 67.986 52.2741 67.7086 52.2741L43.7407 53.3437C43.4633 53.3437 43.1464 53.1456 43.0276 52.8287L38.432 38.2102C38.3132 37.9329 38.4717 37.6952 38.7886 37.6556Z" fill="white"/>
<path opacity="0.5" d="M63.4699 37.1015L68.0655 51.72C68.1447 51.9973 67.9862 52.2746 67.7089 52.2746L62.7568 36.6261C63.0738 36.5865 63.3511 36.7846 63.4699 37.1015Z" fill="#000000"/>
<path opacity="0.5" d="M68.9774 52.1921L77.8515 51.796C78.2873 51.7564 78.6835 52.1129 78.6835 52.5487L68.2247 53.0241C68.1851 52.5883 68.5416 52.1921 68.9774 52.1921Z" fill="#000000"/>
<path d="M80.1878 50.8465L77.9297 51.1634L80.2671 54.3724C80.2671 54.3724 83.9514 53.7781 83.5156 52.1538L82.7233 51.4804C82.0498 50.9653 81.1386 50.7276 80.1878 50.8465Z" fill="#FF8B7B"/>
<path d="M75.1572 52.1539L78.0096 54.6498L80.2281 54.4121L77.9304 51.2031L75.1572 52.1539Z" fill="#FF8B7B"/>
</svg>
