<svg width="321" height="240" viewBox="0 0 321 240" fill="none" xmlns="http://www.w3.org/2000/svg">
<path d="M289.92 235.977C324.04 210.045 339.197 138.14 283.814 102.87C247.107 79.5237 224.336 92.8129 183.103 77.3687C132.748 58.5483 125.205 1.58441 64.0033 29.5995C31.5346 44.469 9.05076 86.276 5.09992 133.83C1.22092 180.306 17.7426 212.272 51.4325 234.109C130.593 237.485 209.969 236.911 289.92 235.977Z" fill="#F0F3EE"/>
<path d="M149.772 31.3951C144.6 52.0831 163.78 72.5556 183.893 81.032C204.078 89.5083 227.137 88.5027 248.759 84.48C258.097 82.756 267.651 80.2418 274.906 74.3515C282.161 68.3893 286.328 58.1171 282.377 49.7844C278.857 42.4574 270.381 38.6502 262.192 36.7107C254.074 34.7712 245.454 33.9811 238.199 29.8866C231.303 26.0076 226.49 19.6144 220.528 14.586C209.466 5.2477 194.022 0.650353 179.655 3.59552C165.36 6.5407 154.154 13.7959 149.772 31.3951Z" fill="#F0F3EE"/>
<path d="M304.143 126.503V110.843H298.181C297.462 108.113 296.385 105.527 295.02 103.157L299.186 98.9187L288.124 87.9282L283.886 92.0945C281.515 90.7297 278.929 89.5804 276.2 88.9339V82.9717H260.54V88.9339C257.81 89.6522 255.224 90.7297 252.854 92.0945L248.616 87.9282L237.553 98.9905L241.72 103.229C240.355 105.599 239.277 108.185 238.559 110.915H232.597V126.575H238.559C239.277 129.304 240.355 131.89 241.72 134.261L237.553 138.499L248.616 149.561L252.854 145.395C255.224 146.76 257.81 147.837 260.54 148.556V154.518H276.2V148.556C278.929 147.837 281.515 146.76 283.886 145.395L288.124 149.561L299.186 138.499L295.02 134.261C296.385 131.89 297.534 129.304 298.181 126.575H304.143V126.503ZM268.442 132.249C260.971 132.249 254.865 126.144 254.865 118.673C254.865 111.202 260.971 105.096 268.442 105.096C275.912 105.096 282.018 111.202 282.018 118.673C281.946 126.215 275.912 132.249 268.442 132.249Z" fill="#97E373"/>
<path d="M256.876 165.724L253.931 157.966L250.986 159.115C250.124 157.894 249.046 156.817 247.969 155.883L249.262 153.01L241.648 149.633L240.355 152.507C238.918 152.291 237.409 152.219 235.901 152.363L234.752 149.418L226.993 152.363L228.143 155.308C226.922 156.17 225.844 157.248 224.91 158.325L222.037 157.032L218.661 164.647L221.534 165.94C221.319 167.376 221.247 168.885 221.39 170.393L218.445 171.543L221.39 179.301L224.336 178.151C225.198 179.373 226.275 180.45 227.353 181.384L226.06 184.257L233.674 187.633L234.967 184.76C236.404 184.976 237.912 185.047 239.421 184.904L240.57 187.849L248.328 184.904L247.179 181.959C248.4 181.097 249.477 180.019 250.411 178.942L253.285 180.235L256.661 172.62L253.787 171.327C254.003 169.891 254.075 168.382 253.931 166.874L256.876 165.724ZM240.211 175.35C236.476 176.787 232.309 174.919 230.872 171.184C229.436 167.448 231.304 163.282 235.039 161.845C238.774 160.408 242.941 162.276 244.305 166.012C245.814 169.819 243.946 173.985 240.211 175.35Z" stroke="#97E373" stroke-miterlimit="10"/>
<path d="M231.447 138.499L229.436 133.255L227.424 134.046C226.85 133.255 226.131 132.465 225.341 131.891L226.203 129.951L221.103 127.652L220.241 129.592C219.235 129.448 218.23 129.376 217.224 129.52L216.434 127.509L211.19 129.52L211.98 131.531C211.19 132.106 210.4 132.824 209.825 133.615L207.886 132.753L205.587 137.853L207.527 138.715C207.383 139.72 207.311 140.726 207.455 141.732L205.443 142.522L207.455 147.766L209.466 146.976C210.041 147.766 210.759 148.556 211.549 149.131L210.687 151.07L215.787 153.369L216.649 151.429C217.655 151.573 218.661 151.645 219.666 151.501L220.457 153.512L225.7 151.501L224.91 149.49C225.7 148.915 226.491 148.197 227.065 147.407L229.005 148.269L231.303 143.168L229.364 142.306C229.508 141.301 229.579 140.295 229.436 139.289L231.447 138.499ZM220.169 145.036C217.655 145.97 214.854 144.749 213.848 142.235C212.914 139.72 214.135 136.919 216.649 135.913C219.164 134.979 221.965 136.201 222.899 138.715C223.976 141.229 222.683 144.03 220.169 145.036Z" stroke="#97E373" stroke-miterlimit="10"/>
<path d="M229.58 46.6961C229.58 54.5259 225.916 61.5656 220.169 66.0911C215.931 69.4673 210.616 71.4068 204.869 71.4068C199.05 71.4068 193.735 69.3954 189.568 66.0911C183.822 61.5656 180.158 54.5259 180.158 46.6961C180.158 33.0477 191.221 21.9854 204.869 21.9854C218.517 21.9854 229.58 33.0477 229.58 46.6961Z" fill="#000000" stroke="#000000" stroke-miterlimit="10"/>
<path d="M205.873 46.6397C210.323 46.0906 213.484 42.0384 212.935 37.5891C212.386 33.1397 208.334 29.978 203.884 30.5271C199.435 31.0763 196.273 35.1284 196.822 39.5778C197.372 44.0272 201.424 47.1889 205.873 46.6397Z" fill="white"/>
<path d="M220.169 63.0018C215.931 66.3779 210.616 68.3174 204.869 68.3174C199.05 68.3174 193.735 66.3061 189.568 63.0018C191.149 56.0339 192.585 49.9999 194.094 48.4914C196.249 46.3364 201.924 45.1152 204.869 45.1152C207.814 45.1152 213.776 46.6237 214.854 47.7012C217.081 49.9281 219.02 56.1058 220.169 63.0018Z" fill="white"/>
<path d="M169.312 107.682V95.4705C169.312 92.1662 172.041 89.4365 175.346 89.4365H213.848C217.153 89.4365 219.882 92.1662 219.882 95.4705V107.682C219.882 110.987 217.153 113.716 213.848 113.716H175.346C172.041 113.716 169.312 110.987 169.312 107.682Z" fill="#000000"/>
<path d="M185.545 107.036L166.94 125.138L197.111 109.909" fill="#000000"/>
<path d="M173.98 95.1116C173.98 94.5369 174.411 94.1777 174.842 94.1777H193.878C194.381 94.1777 194.74 94.6087 194.74 95.0397V95.1116C194.74 95.6144 194.309 95.9736 193.878 95.9736H174.842C174.411 96.0454 173.98 95.6144 173.98 95.1116Z" fill="white"/>
<path d="M195.674 95.1116C195.674 94.5369 196.105 94.1777 196.536 94.1777H213.129C213.632 94.1777 213.991 94.6087 213.991 95.0397V95.1116C213.991 95.6144 213.56 95.9736 213.129 95.9736H196.536C196.033 96.0454 195.674 95.6144 195.674 95.1116Z" fill="white"/>
<path d="M188.419 99.2063C188.419 98.6316 188.85 98.2725 189.281 98.2725H213.13C213.632 98.2725 213.992 98.7035 213.992 99.1345V99.2063C213.992 99.7091 213.561 100.068 213.13 100.068H189.281C188.85 100.14 188.419 99.7091 188.419 99.2063Z" fill="white"/>
<path d="M173.98 99.2063C173.98 98.6316 174.411 98.2725 174.842 98.2725H185.474C185.977 98.2725 186.336 98.7035 186.336 99.1345V99.2063C186.336 99.7091 185.905 100.068 185.474 100.068H174.842C174.411 100.14 173.98 99.7091 173.98 99.2063Z" fill="white"/>
<path d="M191.724 103.3C191.724 102.725 192.155 102.366 192.586 102.366H213.13C213.633 102.366 213.992 102.797 213.992 103.228V103.3C213.992 103.803 213.561 104.162 213.13 104.162H192.586C192.155 104.234 191.724 103.803 191.724 103.3Z" fill="white"/>
<path d="M173.98 103.3C173.98 102.725 174.411 102.366 174.842 102.366H189.066C189.568 102.366 189.927 102.797 189.927 103.228V103.3C189.927 103.803 189.497 104.162 189.066 104.162H174.842C174.411 104.234 173.98 103.803 173.98 103.3Z" fill="white"/>
<path d="M173.98 107.395C173.98 106.82 174.411 106.461 174.842 106.461H180.086C180.589 106.461 180.948 106.892 180.948 107.323V107.395C180.948 107.898 180.517 108.257 180.086 108.257H174.842C174.411 108.329 173.98 107.898 173.98 107.395Z" fill="white"/>
<path d="M182.888 107.395C182.888 106.82 183.319 106.461 183.75 106.461H213.13C213.632 106.461 213.992 106.892 213.992 107.323V107.395C213.992 107.898 213.561 108.257 213.13 108.257H183.75C183.319 108.329 182.888 107.898 182.888 107.395Z" fill="white"/>
<path d="M74.3408 90.3306C79.881 78.4242 74.7202 64.2809 62.8138 58.7407C50.9074 53.2004 36.7641 58.3613 31.2238 70.2677C25.6836 82.1741 30.8444 96.3174 42.7509 101.858C54.6573 107.398 68.8006 102.237 74.3408 90.3306Z" fill="#000000"/>
<path d="M49.1059 97.4356C52.1004 96.3838 53.6752 93.1037 52.6234 90.1092C51.5716 87.1147 48.2915 85.5398 45.297 86.5916C42.3025 87.6434 40.7277 90.9236 41.7794 93.9181C42.8312 96.9126 46.1114 98.4874 49.1059 97.4356Z" fill="white"/>
<path d="M44.1052 94.1061L43.8896 90.4425L46.9067 88.3594L50.211 89.9397L50.4983 93.6032L47.4813 95.6864L44.1052 94.1061Z" fill="#000000"/>
<path d="M60.3374 74.0763C63.3258 73.008 64.8824 69.7193 63.8141 66.7309C62.7458 63.7424 59.4571 62.1858 56.4687 63.2541C53.4802 64.3224 51.9236 67.6111 52.9919 70.5995C54.0603 73.588 57.3489 75.1446 60.3374 74.0763Z" fill="white"/>
<path d="M55.5273 70.4006L55.7428 65.7314L59.1909 62.6426L62.4952 64.2229L62.3515 68.8921L58.8317 71.9809L55.5273 70.4006Z" fill="#000000"/>
<path d="M51.1455 89.3654L46.7637 87.2822L49.9962 79.7397C50.2117 79.2369 50.4272 78.8059 50.6427 78.303L54.4498 71.0479L58.8317 73.131L55.671 80.5299C55.4555 81.1045 55.1682 81.6792 54.8809 82.182L51.1455 89.3654Z" fill="white"/>
<path d="M69.3193 93.1002C70.1813 92.741 83.8297 93.3157 83.8297 93.3157L73.9885 84.2646L69.3193 93.1002Z" fill="#000000"/>
<path d="M129.59 40.0862C134.724 28.2161 129.264 14.4311 117.394 9.29664C105.524 4.16214 91.7389 9.62246 86.6044 21.4926C81.4699 33.3627 86.9303 47.1477 98.8004 52.2822C110.671 57.4167 124.455 51.9564 129.59 40.0862Z" fill="#000000"/>
<path d="M108.9 10.8516H107.319V30.4621H108.9V10.8516Z" fill="white"/>
<path d="M90.7969 41.8286L91.6963 43.1279L108.056 31.8041L107.157 30.5047L90.7969 41.8286Z" fill="white"/>
<path d="M110.265 30.821C110.265 32.0422 109.331 32.976 108.11 32.976C106.889 32.976 105.955 32.0422 105.955 30.821C105.955 29.5999 106.889 28.666 108.11 28.666C109.259 28.666 110.265 29.5999 110.265 30.821Z" fill="white"/>
<path d="M171.539 189.142C170.174 167.736 179.512 145.611 195.244 132.969C195.747 154.447 186.552 176.212 171.539 189.142Z" fill="#97E373"/>
<path d="M192.73 138.716C186.121 151.071 180.375 164.001 175.562 177.362C169.743 193.597 165.218 210.837 155.305 224.413" stroke="#7EC65C" stroke-miterlimit="10" stroke-linecap="round"/>
<path d="M166.582 202.575C174.556 184.76 190.359 171.255 207.814 167.448C200.416 186.556 183.678 201.138 166.582 202.575Z" fill="#97E373"/>
<path d="M203.576 171.399C191.652 181.887 179.512 192.087 167.229 202" stroke="#7EC65C" stroke-miterlimit="10" stroke-linecap="round"/>
<path d="M161.913 218.163C172.544 202.288 192.227 193.956 208.461 198.481C196.537 214.141 176.783 222.473 161.913 218.163Z" fill="#97E373"/>
<path d="M204.582 199.631C190.646 208.395 175.561 214.788 160.045 218.667" stroke="#7EC65C" stroke-miterlimit="10" stroke-linecap="round"/>
<path d="M167.66 197.188C171.036 179.301 165.936 159.332 154.586 146.114C149.917 163.713 154.371 184.33 167.66 197.188Z" fill="#97E373"/>
<path d="M155.735 150.64C157.962 167.305 161.985 182.893 168.163 198.193" stroke="#7EC65C" stroke-miterlimit="10" stroke-linecap="round"/>
<path d="M161.769 212.417C160.333 194.028 150.851 176.716 137.059 167.162C137.849 176.931 140.435 186.342 144.529 194.89C149.342 204.731 156.31 210.909 161.769 212.417Z" fill="#97E373"/>
<path d="M139.142 170.897C144.601 186.27 152.359 200.493 162.128 212.848" stroke="#7EC65C" stroke-miterlimit="10" stroke-linecap="round"/>
<path d="M268.441 208.034C275.984 188.424 293.296 172.549 312.404 167.664C303.999 186.987 286.903 202.575 268.441 208.034Z" fill="#97E373"/>
<path d="M307.806 171.759C296.888 180.091 286.472 189.286 276.774 199.199C264.994 211.267 253.931 224.772 239.564 232.817" stroke="#7EC65C" stroke-miterlimit="10" stroke-linecap="round"/>
<path d="M258.528 217.948C272.895 205.306 292.362 199.775 309.386 203.51C294.948 217.517 274.26 223.695 258.528 217.948Z" fill="#97E373"/>
<path d="M303.999 205.306C289.129 209.759 274.26 213.926 259.318 217.733" stroke="#7EC65C" stroke-miterlimit="10" stroke-linecap="round"/>
<path d="M247.97 229.872C263.917 220.031 284.677 220.678 297.176 231.381C280.223 240.504 259.391 239.857 247.97 229.872Z" fill="#97E373"/>
<path d="M293.296 230.806C277.349 232.889 261.402 232.458 246.102 229.585" stroke="#7EC65C" stroke-miterlimit="10" stroke-linecap="round"/>
<path d="M261.689 213.566C272.033 198.984 275.697 179.086 271.1 162.708C259.678 176.5 255.153 196.685 261.689 213.566Z" fill="#97E373"/>
<path d="M270.238 167.305C265.353 183.036 262.48 198.624 261.689 214.715" stroke="#7EC65C" stroke-miterlimit="10" stroke-linecap="round"/>
<path d="M250.268 224.772C256.518 207.747 255.297 188.496 246.964 174.345C243.66 183.324 242.079 192.806 242.223 202.072C242.367 212.847 245.958 221.18 250.268 224.772Z" fill="#97E373"/>
<path d="M247.252 178.583C245.743 194.458 246.821 210.333 250.412 225.275" stroke="#7EC65C" stroke-miterlimit="10" stroke-linecap="round"/>
<path d="M54.8806 173.77C47.1945 150.28 25.7881 131.316 0.790039 125.929C11.2777 146.186 30.3136 162.42 54.8806 173.77Z" fill="#97E373"/>
<path d="M56.1737 177.433C39.3647 167.951 18.2457 165.796 0 171.83C16.9527 180.235 36.9942 182.605 56.1737 177.433Z" fill="#97E373"/>
<path d="M60.8433 182.462C42.6695 179.948 23.6336 184.401 8.83594 194.673C25.5731 200.851 45.6865 196.9 60.8433 182.462Z" fill="#97E373"/>
<path d="M66.5181 193.596C48.4879 193.524 30.8169 202.072 20.1855 216.008C28.2309 217.589 36.7072 216.655 44.0342 213.35C51.4331 209.974 57.5389 204.299 66.5181 193.596Z" fill="#97E373"/>
<path d="M79.1602 212.273C61.4174 209.256 42.4533 214.715 29.667 226.64C37.2813 229.513 45.9014 230.016 53.6594 227.933C61.561 225.85 68.6007 221.324 79.1602 212.273Z" fill="#97E373"/>
<path d="M59.9806 174.847C48.2718 159.044 45.0393 137.709 51.7198 119.607C56.8199 128.227 61.2018 137.35 63.2131 147.048C65.3681 156.745 64.9371 167.089 59.9806 174.847Z" fill="#97E373"/>
<path d="M67.1642 190.148C64.3627 173.339 70.1094 155.525 82.2492 143.385C83.6859 160.768 78.3702 178.439 67.1642 190.148Z" fill="#97E373"/>
<path d="M6.24902 130.096C41.9502 152.939 69.8216 186.988 84.6193 225.634" stroke="#7EC65C" stroke-miterlimit="10" stroke-linecap="round"/>
<path d="M52.8682 127.94C57.1782 145.54 59.836 163.57 60.7699 181.6" stroke="#7EC65C" stroke-miterlimit="10" stroke-linecap="round"/>
<path d="M79.5906 150.209C78.1539 164.432 73.7721 178.296 66.7324 190.867" stroke="#7EC65C" stroke-miterlimit="10" stroke-linecap="round"/>
<path d="M7.46973 172.19C23.8478 175.279 40.4413 177.003 57.1066 177.219" stroke="#7EC65C" stroke-miterlimit="10" stroke-linecap="round"/>
<path d="M17.3115 193.309C32.3965 192.232 47.2661 188.568 60.9863 182.534" stroke="#7EC65C" stroke-miterlimit="10" stroke-linecap="round"/>
<path d="M26.3623 213.495C40.298 206.527 54.2337 199.631 68.0975 192.663" stroke="#7EC65C" stroke-miterlimit="10" stroke-linecap="round"/>
<path d="M35.4141 225.706C53.5879 222.186 58.9754 218.02 79.1606 212.201" stroke="#7EC65C" stroke-miterlimit="10" stroke-linecap="round"/>
<path d="M150.491 192.447C150.491 192.447 152.071 206.886 153.795 208.035C156.956 210.118 193.376 214.931 193.376 214.931L192.154 224.413C192.154 224.413 142.302 228.867 140.147 226.424C136.484 222.114 130.019 201.211 130.019 201.211L150.491 192.447Z" fill="#E06A58"/>
<path d="M126.427 155.309L130.449 145.611C130.449 145.611 141.368 150.783 144.96 157.105C148.839 163.857 153.508 199.917 153.508 199.917C153.508 199.917 134.185 204.371 130.665 202.503C127.217 200.636 126.427 155.309 126.427 155.309Z" fill="#518C36"/>
<path d="M95.7536 110.412C92.9521 109.407 89.9351 108.473 86.9181 108.688C83.9011 108.904 80.8123 110.556 79.8066 113.142C79.0883 115.01 79.4474 117.237 78.2263 118.961C77.1488 120.613 74.9219 121.259 72.8388 121.403C70.7556 121.547 68.6724 121.259 66.6611 121.547C60.3397 122.409 55.8142 129.233 57.8974 134.908C58.6876 137.135 60.4116 139.29 60.0524 141.66C59.6214 144.174 57.0354 145.826 55.9579 148.125C54.5212 151.214 56.2452 154.949 59.0467 157.032C61.8482 159.116 65.5118 159.906 69.1034 160.48C73.9881 161.199 79.0883 161.558 83.9011 160.552C88.714 159.547 93.3831 156.961 95.8973 152.938C97.0466 151.142 97.6931 149.203 98.9861 147.479C101.644 144.031 106.385 142.738 110.12 140.295C114.215 137.637 117.16 132.465 114.79 128.371C112.491 124.492 106.457 123.63 104.014 119.751C103.009 118.17 102.793 116.303 102.147 114.579C101.5 112.855 99.92 111.921 95.7536 110.412Z" fill="#121243"/>
<path d="M112.203 158.254C112.921 159.044 113.783 159.978 114.933 160.05C116.154 160.122 117.16 159.26 117.95 158.398C122.044 154.088 124.702 148.772 125.78 143.313C124.774 142.738 123.768 142.163 122.906 141.661C122.116 141.158 121.47 140.511 121.11 139.721C120.895 139.146 120.751 138.5 120.823 137.853C121.398 132.466 121.901 129.449 123.84 123.99C114.861 121.978 106.313 119.536 101.428 115.441C100.853 117.956 100.135 122.912 98.6266 127.725C97.0463 132.897 94.5321 137.997 90.2939 140.224C98.6985 145.18 106.097 151.286 112.203 158.254Z" fill="#F9A07B"/>
<path d="M120.895 137.925C120.823 138.572 120.895 139.218 121.182 139.793C115.866 146.258 103.942 137.782 98.6982 127.868C100.207 122.984 100.925 118.099 101.5 115.585C106.384 119.679 114.861 122.05 123.912 124.133C121.972 129.449 121.469 132.466 120.895 137.925Z" fill="#E06A58"/>
<path d="M135.765 216.081C134.616 223.911 143.02 232.315 143.236 236.482C125.349 236.482 87.9242 237.559 68.8165 234.973C67.9545 230.16 77.3647 219.313 77.3647 208.682C77.3647 207.245 77.2929 205.737 77.2211 204.013C76.9337 199.272 76.2154 193.597 75.4252 187.778C73.2702 172.191 70.4687 155.453 72.5519 152.005C76.6464 145.253 86.2002 140.656 90.9412 138.716C92.5934 138.07 93.6709 137.711 93.7427 137.639C99.7049 147.767 111.845 156.459 116.37 156.1C117.663 156.028 121.399 154.663 123.913 142.164C124.847 142.739 125.852 143.242 126.786 143.745C131.527 146.187 135.981 148.27 137.274 151.431C140.65 159.763 143.954 180.811 143.236 188.281C142.518 195.824 139.501 201.57 137.346 209.185C136.843 210.981 136.412 212.848 136.053 214.86C135.909 215.075 135.837 215.578 135.765 216.081Z" fill="#000000"/>
<path d="M143.236 236.41C125.349 236.41 87.9242 237.487 68.8165 234.901C67.9545 230.088 77.3647 219.241 77.3647 208.61C77.3647 207.173 77.2929 205.665 77.2211 203.941C76.9337 199.2 76.2154 193.525 75.4252 187.706C78.8014 191.298 83.7579 176.213 85.9129 180.595C97.6936 204.444 107.032 210.693 123.266 210.693C128.079 210.693 132.533 210.047 137.346 208.969C136.843 210.765 136.412 212.633 136.053 214.644C135.981 215.075 135.909 215.578 135.837 216.081C134.544 223.839 143.021 232.243 143.236 236.41Z" fill="#518C36"/>
<path d="M126.787 143.6C125.997 149.203 123.77 156.674 117.089 158.685C108.11 161.343 95.1801 144.678 90.8701 138.644C92.5223 137.997 93.5998 137.638 93.6716 137.566C99.6338 147.695 111.774 156.387 116.299 156.028C117.592 155.956 121.327 154.591 123.842 142.092C124.847 142.523 125.853 143.098 126.787 143.6Z" fill="#FCE172"/>
<path d="M130.449 228.004L130.377 234.254L241.719 234.9L242.006 227.86L130.449 228.004Z" fill="#000080"/>
<path d="M289.991 172.477L287.548 169.962L206.448 169.388L165.719 228.219L167.874 229.943L289.991 172.477Z" fill="#000080"/>
<path d="M208.029 171.615L167.874 229.944L244.52 230.303L289.991 172.477L208.029 171.615Z" fill="#121243"/>
<path d="M227.353 208.824C232.272 208.824 236.26 206.83 236.26 204.371C236.26 201.911 232.272 199.917 227.353 199.917C222.433 199.917 218.445 201.911 218.445 204.371C218.445 206.83 222.433 208.824 227.353 208.824Z" fill="#000000"/>
<path d="M148.335 95.6873C147.473 101.578 144.887 108.115 141.008 115.298C139.644 109.408 138.782 102.224 137.632 95.0408C136.411 87.8575 134.903 80.6741 132.173 74.7838C131.598 73.4908 130.88 72.2696 130.233 71.1203C131.814 70.9766 133.394 71.1203 134.974 71.5513C137.345 72.1978 139.572 73.419 141.439 75.0711C144.456 77.8008 146.54 81.4643 147.761 85.3433C148.695 88.5758 148.91 92.0238 148.335 95.6873Z" fill="#121243"/>
<path d="M143.81 101.793C143.738 102.942 143.666 104.163 143.595 105.313C141.942 124.42 133.969 137.566 121.685 137.566C104.374 137.566 93.0957 118.099 93.0957 99.0631C93.0957 80.3145 104.589 66.6662 118.094 68.2465C125.852 69.1085 131.527 71.6945 135.549 75.5017C138.207 78.0159 140.147 81.0329 141.44 84.4809C142.948 88.3599 143.666 92.7417 143.81 97.4827C143.81 97.4827 143.81 97.4827 143.81 97.5546C143.882 98.9194 143.882 100.356 143.81 101.793Z" fill="#F9A07B"/>
<path d="M143.81 101.793C143.307 99.925 142.517 98.1291 141.511 96.5488C131.311 101.864 119.099 103.948 107.534 102.008C105.307 103.876 103.152 105.672 100.997 107.467C101.069 98.7756 101.141 92.8853 104.589 88.719C107.749 84.7681 113.065 83.2596 118.093 82.6131C123.768 81.8948 129.515 81.8948 135.19 82.6849C137.345 82.9723 139.572 83.4751 141.511 84.5526C143.02 88.4316 143.738 92.8135 143.882 97.5545C143.882 97.5545 143.882 97.5545 143.882 97.6263C143.882 98.9193 143.882 100.356 143.81 101.793Z" fill="#E06A58"/>
<path d="M146.324 90.0121C143.954 92.0235 140.937 93.6756 137.633 95.0405C128.079 98.9195 115.723 100.141 106.098 99.7097C101.357 110.126 99.4172 113.861 98.196 122.984C93.5268 118.602 89.7915 110.7 88.6422 104.451C87.5647 98.2012 87.6365 91.6643 89.3605 85.5585C92.0902 75.9328 98.9862 70.7608 103.799 68.2466C105.02 67.6001 106.098 67.1691 106.888 66.8099C112.994 64.4394 119.89 64.6549 126.139 66.5944C129.587 67.6719 132.461 69.4678 134.831 71.6946C139.716 76.1483 142.733 82.1105 144.672 86.5641C145.391 87.7853 145.893 89.0065 146.324 90.0121Z" fill="#121243"/>
<path d="M148.336 95.6871C147.976 93.6039 147.33 91.5926 146.54 89.6531C146.109 88.5756 145.534 87.4981 144.816 86.4206C142.661 82.9726 139.5 80.1711 135.621 78.9499C134.544 77.4414 133.394 76.0047 132.173 74.7836C127.791 70.4017 122.763 67.8157 117.304 66.9537C112.778 66.2354 108.109 66.6664 103.799 68.1031C105.02 67.4565 106.098 67.0255 106.888 66.6664C112.994 64.2959 119.89 64.5114 126.139 66.4509C129.587 67.5284 132.46 69.3242 134.831 71.5511C137.201 72.1976 139.428 73.4187 141.296 75.0709C144.313 77.8006 146.396 81.4641 147.617 85.3431C148.695 88.5756 148.91 92.0236 148.336 95.6871Z" fill="#121243"/>
<path d="M111.558 107.396C114.79 105.528 118.094 104.738 122.764 106.462" stroke="#121243" stroke-width="2" stroke-miterlimit="10" stroke-linecap="round"/>
<path d="M133.539 107.252C136.269 105.169 140.363 105.026 142.446 107.252" stroke="#121243" stroke-width="2" stroke-miterlimit="10" stroke-linecap="round"/>
<path d="M130.234 117.74C130.521 119.177 130.378 122.409 129.659 123.846" stroke="#CC454E" stroke-width="2" stroke-miterlimit="10" stroke-linecap="round"/>
<path d="M119.388 118.674C120.102 118.674 120.681 117.741 120.681 116.591C120.681 115.44 120.102 114.508 119.388 114.508C118.674 114.508 118.095 115.44 118.095 116.591C118.095 117.741 118.674 118.674 119.388 118.674Z" fill="#262D40"/>
<path d="M136.699 117.741C137.413 117.741 137.992 116.808 137.992 115.657C137.992 114.507 137.413 113.574 136.699 113.574C135.985 113.574 135.406 114.507 135.406 115.657C135.406 116.808 135.985 117.741 136.699 117.741Z" fill="#262D40"/>
<path d="M128.583 126.647C128.583 126.647 128.295 127.15 127.864 127.796C127.074 128.874 125.781 130.31 123.985 130.813C123.195 131.029 122.405 131.172 121.471 130.957C118.741 130.454 118.023 128.012 117.951 126.072C117.951 125.713 117.951 125.354 117.951 125.066C117.951 124.276 118.023 123.773 118.023 123.773C122.261 126.216 128.583 126.647 128.583 126.647Z" fill="#CC454E"/>
<path d="M128.582 126.647C128.582 126.647 128.295 127.15 127.864 127.796C125.637 127.796 121.183 126.647 117.879 125.066C117.879 124.276 117.951 123.773 117.951 123.773C122.261 126.216 128.582 126.647 128.582 126.647Z" fill="white"/>
<path d="M123.913 130.886C123.123 131.101 122.333 131.245 121.399 131.029C118.669 130.526 117.951 128.084 117.879 126.145C119.172 126.288 120.465 126.791 121.471 127.581C122.62 128.443 123.41 129.593 123.913 130.886Z" fill="#E8729B"/>
<path d="M130.378 211.412L129.947 222.905C129.947 222.905 88.427 235.332 81.531 231.453C78.1549 229.514 75.066 218.954 72.6955 208.61C70.2532 197.763 68.6729 187.204 68.6729 187.204L93.0244 182.463C93.0244 182.463 93.0244 197.332 93.8864 205.881C94.1737 209.041 94.6047 211.412 95.1794 211.771C97.4062 213.064 130.378 211.412 130.378 211.412Z" fill="#F9A07B"/>
<path d="M93.9586 205.737C89.505 207.173 80.9568 209.4 72.7678 208.538C70.3255 197.691 68.7451 187.132 68.7451 187.132L93.0966 182.391C93.0966 182.319 93.0966 197.189 93.9586 205.737Z" fill="#E06A58"/>
<path d="M129.228 211.484C135.406 210.191 145.894 206.958 150.204 205.881C153.292 205.09 161.338 209.257 163.421 213.136C164.355 214.86 165.217 224.557 161.984 223.552C160.404 223.049 160.619 218.882 160.117 217.23C159.686 215.865 158.393 214.501 156.381 213.351C157.674 216.656 157.674 219.529 157.531 223.121C157.531 223.911 157.459 224.701 157.1 225.419C156.74 226.138 155.878 226.569 155.16 226.281C154.442 225.994 154.154 225.06 154.011 224.27C153.436 221.54 152.861 218.739 152.646 215.65C152.718 218.739 152.646 221.756 152.43 224.845C152.287 227.215 151.137 228.436 149.701 228.077C149.054 227.933 148.839 227.287 148.551 226.569C148.12 228.077 147.043 229.729 145.678 229.083C144.816 228.724 144.313 225.635 144.457 222.474C141.799 224.126 138.782 224.845 135.262 224.988C132.173 225.132 128.941 224.557 127.073 222.402C127.289 219.17 128.366 214.285 129.228 211.484Z" fill="#F9A07B"/>
<path d="M148.623 226.066C148.839 223.552 148.623 221.037 147.977 218.667" stroke="#CC454E" stroke-miterlimit="10" stroke-linecap="round"/>
<path d="M90.3665 158.255C88.5706 153.298 82.1056 143.098 82.1056 143.098C82.1056 143.098 72.2645 147.192 68.7446 154.16C62.7824 165.941 65.7994 199.846 65.7994 199.846C73.773 203.222 89.8636 203.222 96.6878 202.288C96.6878 202.288 93.8863 168.168 90.3665 158.255Z" fill="#000000"/>
<path d="M91.5879 160.338C94.3176 173.268 95.7542 185.264 96.1852 197.045" stroke="#518C36" stroke-miterlimit="10" stroke-linecap="round"/>
<path d="M303.065 232.889H19.8262V240H303.065V232.889Z" fill="#121243"/>
</svg>
