<svg width="50" height="51" viewBox="0 0 50 51" fill="none" xmlns="http://www.w3.org/2000/svg">
<circle cx="25" cy="25.4844" r="25" fill="#F9F0FF"/>
<g clip-path="url(#clip0_4058_17756)">
<path d="M14.5126 25.9943L17.4598 27.2114L16.8347 27.5027C16.659 27.5923 16.5812 27.8011 16.659 27.9827L17.5081 29.8071C17.5494 29.8967 17.6261 29.9675 17.7181 30.0005C17.8089 30.0394 17.9126 30.0394 18.0035 30.0005L24.4638 26.9708L24.5452 26.1111L24.6584 24.9612C24.6714 24.8079 24.807 24.6959 24.9591 24.7101C25.0582 24.7183 25.1443 24.7796 25.1855 24.8716C25.2091 24.9141 25.2197 24.9636 25.2162 25.0131L24.4673 32.9476C24.6348 33.0703 24.8447 33.1151 25.0476 33.0762C25.333 33.0007 25.5865 32.667 25.7964 32.1174L28.7931 23.1993L28.8792 22.9458C28.9228 22.7972 29.0785 22.7123 29.2283 22.7559C29.3769 22.8007 29.4618 22.9564 29.4181 23.105C29.4146 23.1121 29.4134 23.1191 29.4111 23.125L29.1186 23.98L28.7896 24.9612L33.8489 22.5908C35.3101 21.908 36.0613 20.5258 35.5565 19.4479C35.27 18.8842 34.7216 18.5009 34.093 18.4254C33.3948 18.3205 32.6813 18.4301 32.0469 18.7403L26.3177 21.4138L20.1675 19.0127C19.3927 18.7214 18.7783 18.7285 18.3478 19.0399C17.9869 19.3359 17.7817 19.7816 17.79 20.2498C17.7935 20.3666 17.8537 20.4775 17.9504 20.5447L22.0934 23.3833L19.7182 24.5072L15.7368 23.5107C15.574 23.4718 15.4042 23.5449 15.3217 23.6899L14.3334 25.466C14.232 25.6464 14.2956 25.874 14.4761 25.9755C14.4879 25.9825 14.5009 25.9884 14.5126 25.9943Z" fill="#A455D9"/>
</g>
<defs>
<clipPath id="clip0_4058_17756">
<rect width="21.4286" height="21.4286" fill="white" transform="translate(14.2852 14.7695)"/>
</clipPath>
</defs>
</svg>
