<svg width="70" height="71" viewBox="0 0 70 71" fill="none" xmlns="http://www.w3.org/2000/svg">
<path d="M67.6669 35.1087H63.0003C61.7117 35.1087 60.6669 36.1533 60.6669 37.442C60.6669 50.308 50.1997 60.7753 37.3336 60.7753C24.4675 60.7753 14.0003 50.308 14.0003 37.442C14.0003 24.576 24.4675 14.1087 37.3336 14.1087H54.0559V4.77539H37.3336C28.608 4.77539 20.4047 8.1733 14.2347 14.3432C8.0649 20.5131 4.66699 28.7164 4.66699 37.442C4.66699 46.1677 8.0649 54.3709 14.2347 60.5408C19.2904 65.5966 25.7119 68.7894 32.667 69.7783V70.1086H37.3336C46.0593 70.1086 54.2625 66.7107 60.4326 60.5408C66.6023 54.3709 70.0002 46.1677 70.0002 37.442C70.0002 36.1533 68.9555 35.1087 67.6669 35.1087Z" fill="#518C36"/>
<path d="M62.9999 35.1094H58.3333C57.0447 35.1094 55.9999 36.154 55.9999 37.4427C55.9999 50.3087 45.5328 60.7761 32.6666 60.7761C19.8005 60.7761 9.33332 50.3087 9.33332 37.4427C9.33332 24.5768 19.8005 14.1094 32.6666 14.1094H48.9999V17.6094C48.9999 18.0672 49.2677 18.4827 49.6845 18.6718C49.8389 18.7418 50.0033 18.7761 50.1663 18.7761C50.4437 18.7761 50.7179 18.6772 50.9349 18.4874L60.2682 10.3207C60.5213 10.0992 60.6666 9.77922 60.6666 9.44278C60.6666 9.10635 60.5213 8.78639 60.2682 8.56472L50.9349 0.398063C50.5904 0.0967721 50.1016 0.024439 49.6846 0.213585C49.2677 0.402876 48.9999 0.818355 48.9999 1.27612V4.77612H32.6666C23.941 4.77612 15.7377 8.17403 9.56768 14.3439C3.39791 20.5139 0 28.7171 0 37.4427C0 46.1684 3.39791 54.3716 9.56768 60.5416C15.7377 66.7115 23.941 70.1094 32.6666 70.1094C41.3923 70.1094 49.5955 66.7115 55.7656 60.5416C61.9353 54.3716 65.3333 46.1684 65.3333 37.4427C65.3333 36.154 64.2885 35.1094 62.9999 35.1094Z" fill="#000000"/>
<path d="M37.333 60.776H32.6663C19.7798 60.776 9.33301 50.3294 9.33301 37.4427C9.33301 24.5561 19.7796 14.1094 32.6663 14.1094H37.333C50.2195 14.1094 60.6663 24.556 60.6663 37.4427C60.6663 50.3294 50.2197 60.776 37.333 60.776Z" fill="#B9AF9B"/>
<path d="M32.6663 60.776C45.5529 60.776 55.9996 50.3293 55.9996 37.4427C55.9996 24.5561 45.5529 14.1094 32.6663 14.1094C19.7797 14.1094 9.33301 24.5561 9.33301 37.4427C9.33301 50.3293 19.7797 60.776 32.6663 60.776Z" fill="#F0E1CD"/>
<path d="M32.6663 39.7767C31.3776 39.7767 30.333 38.7321 30.333 37.4433V18.7767C30.333 17.488 31.3776 16.4434 32.6663 16.4434C33.9551 16.4434 34.9997 17.488 34.9997 18.7767V37.4433C34.9997 38.7321 33.9551 39.7767 32.6663 39.7767Z" fill="#518C36"/>
<path d="M41.9996 49.1093C41.4024 49.1093 40.8054 48.8815 40.3498 48.4259L31.0165 39.0926C30.1052 38.1813 30.1052 36.704 31.0165 35.7929C31.9277 34.8815 33.4051 34.8815 34.3163 35.7929L43.6496 45.1262C44.5609 46.0375 44.5609 47.5148 43.6496 48.4259C43.1939 48.8815 42.5968 49.1093 41.9996 49.1093Z" fill="#518C36"/>
<path d="M32.6667 42.1087C35.244 42.1087 37.3333 40.0194 37.3333 37.4421C37.3333 34.8647 35.244 32.7754 32.6667 32.7754C30.0893 32.7754 28 34.8647 28 37.4421C28 40.0194 30.0893 42.1087 32.6667 42.1087Z" fill="#000000"/>
<path d="M32.6663 39.776C33.955 39.776 34.9997 38.7314 34.9997 37.4427C34.9997 36.154 33.955 35.1094 32.6663 35.1094C31.3777 35.1094 30.333 36.154 30.333 37.4427C30.333 38.7314 31.3777 39.776 32.6663 39.776Z" fill="#518C36"/>
<path d="M64.9349 8.56464L55.6016 0.397979C55.389 0.211896 55.116 0.109375 54.8333 0.109375H50.1667C49.5224 0.109375 49 0.631749 49 1.27604V17.6094C49 18.2536 49.5224 18.776 50.1667 18.776H54.8333C55.116 18.776 55.389 18.6735 55.6016 18.4874L64.9349 10.3208C65.1881 10.0991 65.3333 9.77913 65.3333 9.4427C65.3333 9.10626 65.1881 8.7863 64.9349 8.56464Z" fill="#518C36"/>
<path d="M62.9999 35.1094H58.3333C57.0447 35.1094 55.9999 36.154 55.9999 37.4427C55.9999 50.3087 45.5328 60.7761 32.6666 60.7761C19.8005 60.7761 9.33332 50.3087 9.33332 37.4427C9.33332 24.5768 19.8005 14.1094 32.6666 14.1094H48.9999V17.6094C48.9999 18.0672 49.2677 18.4827 49.6845 18.6718C49.8389 18.7418 50.0033 18.7761 50.1663 18.7761C50.4437 18.7761 50.7179 18.6772 50.9349 18.4874L60.2682 10.3207C60.5213 10.0992 60.6666 9.77922 60.6666 9.44278C60.6666 9.10635 60.5213 8.78639 60.2682 8.56472L50.9349 0.398063C50.5904 0.0967721 50.1016 0.024439 49.6846 0.213585C49.2677 0.402876 48.9999 0.818355 48.9999 1.27612V4.77612H32.6666C23.941 4.77612 15.7377 8.17403 9.56768 14.3439C3.39791 20.5139 0 28.7171 0 37.4427C0 46.1684 3.39791 54.3716 9.56768 60.5416C15.7377 66.7115 23.941 70.1094 32.6666 70.1094C41.3923 70.1094 49.5955 66.7115 55.7656 60.5416C61.9353 54.3716 65.3333 46.1684 65.3333 37.4427C65.3333 36.154 64.2885 35.1094 62.9999 35.1094Z" fill="#000000"/>
<path d="M49.0003 39.776H51.3337C52.6224 39.776 53.667 38.7314 53.667 37.4427C53.667 36.154 52.6224 35.1094 51.3337 35.1094H49.0003C47.7116 35.1094 46.667 36.154 46.667 37.4427C46.667 38.7314 47.7116 39.776 49.0003 39.776Z" fill="#B9AF9B"/>
<path d="M14.0003 39.776H16.3337C17.6224 39.776 18.667 38.7314 18.667 37.4427C18.667 36.154 17.6224 35.1094 16.3337 35.1094H14.0003C12.7116 35.1094 11.667 36.154 11.667 37.4427C11.667 38.7314 12.7116 39.776 14.0003 39.776Z" fill="#B9AF9B"/>
<path d="M30.333 53.7767V56.11C30.333 57.3987 31.3776 58.4434 32.6663 58.4434C33.9551 58.4434 34.9997 57.3987 34.9997 56.11V53.7767C34.9997 52.488 33.9551 51.4434 32.6663 51.4434C31.3776 51.4434 30.333 52.488 30.333 53.7767Z" fill="#B9AF9B"/>
</svg>
