<svg width="64" height="60" viewBox="0 0 64 60" fill="none" xmlns="http://www.w3.org/2000/svg">
<g clip-path="url(#clip0_3189:16122)">
<path d="M15.8657 51.1468C15.8657 51.1468 15.1293 52.4857 15.531 53.6907C15.9327 54.8958 17.0708 55.9669 17.0708 55.9669L17.6063 59.1803L24.5687 59.515L21.69 48.8037L15.8657 51.1468Z" fill="white" stroke="#075227" stroke-miterlimit="10" stroke-linecap="round" stroke-linejoin="round"/>
<path d="M11.1128 31.2637C11.1128 31.2637 14.0584 50.2094 14.4601 51.3474C14.9287 52.4855 18.276 53.8244 19.4141 53.2219C20.5521 52.6194 18.5438 49.8746 18.5438 49.8746L19.1463 31.6654C19.1463 31.6654 14.1923 29.7909 11.1128 31.2637Z" fill="#075227" stroke="#075227" stroke-miterlimit="10" stroke-linecap="round" stroke-linejoin="round"/>
<path d="M19.2803 37.2218C19.2803 37.2218 15.1966 36.954 15.0627 37.6904C14.9288 38.4268 14.9288 40.9038 15.6652 41.1716C16.4016 41.4394 21.3556 41.908 22.2259 41.6402C23.0962 41.3724 24.1004 39.6318 23.2301 38.2929C22.3598 36.954 19.2803 37.2218 19.2803 37.2218Z" fill="white" stroke="#075227" stroke-miterlimit="10" stroke-linecap="round" stroke-linejoin="round"/>
<path d="M19.2802 41.9079C19.2802 41.9079 15.3304 41.9079 15.4643 42.7782C15.5982 43.6485 15.1965 45.523 16.8032 45.8577C18.4099 46.1255 21.1546 45.9916 22.6274 45.7238C24.1003 45.456 24.5019 43.7154 23.3639 42.6443C22.1588 41.5732 19.2802 41.9079 19.2802 41.9079Z" fill="white" stroke="#075227" stroke-miterlimit="10" stroke-linecap="round" stroke-linejoin="round"/>
<path d="M12.9204 42.9789C12.9204 42.9789 12.4518 39.2969 11.2468 39.4308C10.3765 39.4978 8.23425 40.1672 8.43509 41.7739C8.63592 43.3806 9.57316 45.9915 10.3096 47.3304C11.046 48.6693 12.7865 48.5354 13.456 47.1296C14.0585 45.7237 12.9204 42.9789 12.9204 42.9789Z" fill="white" stroke="#075227" stroke-miterlimit="10" stroke-linecap="round" stroke-linejoin="round"/>
<path d="M19.4809 45.7907C19.4809 45.7907 15.9328 45.7907 16.0667 46.661C16.2006 47.5313 15.7989 49.3388 17.2717 49.6066C18.7445 49.8744 21.2215 49.7405 22.5604 49.4727C23.8993 49.2049 24.301 47.5313 23.2299 46.5271C22.1587 45.5229 19.4809 45.7907 19.4809 45.7907Z" fill="white" stroke="#075227" stroke-miterlimit="10" stroke-linecap="round" stroke-linejoin="round"/>
<path d="M19.682 49.0042C19.682 49.0042 16.7364 49.0043 16.8034 49.7407C16.9373 50.4771 16.6025 51.9499 17.8076 52.2176C19.0126 52.4854 21.0879 52.3515 22.226 52.0838C23.2971 51.816 23.6318 50.4101 22.7615 49.6068C21.8912 48.8034 19.682 49.0042 19.682 49.0042Z" fill="white" stroke="#075227" stroke-miterlimit="10" stroke-linecap="round" stroke-linejoin="round"/>
<path d="M10.3094 12.0504C6.22569 11.9835 2.67757 14.5274 1.13782 18.0755C0.602255 19.2806 0.334473 20.6195 0.334473 21.9584C0.334473 24.3684 1.20477 26.5776 2.61062 28.3182C4.41816 30.5274 7.43071 32.0672 10.3094 31.9333C19.0123 31.4647 41.9746 43.7157 41.9746 43.7157V0.334961C41.9746 0.334961 19.347 12.2513 10.3094 12.0504Z" fill="white" stroke="#075227" stroke-miterlimit="10" stroke-linecap="round" stroke-linejoin="round"/>
<path d="M8.50189 22.3604C8.50189 17.6072 11.1128 13.5236 14.9956 11.4482C13.1881 11.8499 11.5814 12.1177 10.2425 12.0508C6.15879 11.9838 2.61067 14.5277 1.07093 18.0759C0.535361 19.2809 0.267578 20.6198 0.267578 21.9587C0.267578 24.3687 1.13787 26.5779 2.54373 28.3185C4.35126 30.5277 7.36381 32.0675 10.2425 31.9336C11.1128 31.8666 12.117 31.9336 13.255 32.1344C10.3764 29.9252 8.50189 26.3771 8.50189 22.3604Z" fill="#4DDA89" stroke="#075227" stroke-miterlimit="10" stroke-linecap="round" stroke-linejoin="round"/>
<path d="M63.0241 27.151C65.8572 15.5119 58.7186 3.77994 47.0795 0.946848C35.4405 -1.88625 23.7085 5.25239 20.8754 16.8914C18.0423 28.5305 25.1809 40.2625 36.82 43.0956C48.459 45.9287 60.191 38.7901 63.0241 27.151Z" fill="white" stroke="#075227" stroke-miterlimit="10" stroke-linecap="round" stroke-linejoin="round"/>
<path d="M60.4516 22.0254C60.4516 32.2681 52.1503 40.5024 41.9746 40.5024C36.2173 40.5024 31.1294 37.8915 27.7152 33.8078C25.0374 30.5944 23.4307 26.5107 23.4307 22.0254C23.4307 19.4145 23.9662 17.0045 24.9035 14.7283C27.7152 8.10069 34.2759 3.48145 41.9076 3.48145C52.1503 3.54839 60.4516 11.8496 60.4516 22.0254Z" fill="#A6A6A6" stroke="#075227" stroke-miterlimit="10" stroke-linecap="round" stroke-linejoin="round"/>
<path d="M41.9746 17.5402V26.5778L27.7152 33.8749C25.0374 30.6615 23.4307 26.5778 23.4307 22.0925C23.4307 19.4816 23.9662 17.0716 24.9035 14.7954L41.9746 17.5402Z" fill="white" stroke="#075227" stroke-miterlimit="10" stroke-linecap="round" stroke-linejoin="round"/>
<path d="M46.46 22.0254C46.46 24.5024 44.4516 26.5107 41.9746 26.5107C39.4976 26.5107 37.4893 24.5024 37.4893 22.0254C37.4893 19.5484 39.4976 17.54 41.9746 17.54C44.4516 17.54 46.46 19.5484 46.46 22.0254Z" fill="white" stroke="#075227" stroke-miterlimit="10" stroke-linecap="round" stroke-linejoin="round"/>
</g>
<defs>
<clipPath id="clip0_3189:16122">
<rect width="64" height="59.7824" fill="white"/>
</clipPath>
</defs>
</svg>
