<svg width="88" height="71" viewBox="0 0 88 71" fill="none" xmlns="http://www.w3.org/2000/svg">
<path d="M71.1827 36.3031L14.0625 33.3633L12.328 67.0645L69.4482 70.0043L71.1827 36.3031Z" fill="#E4AD50"/>
<path opacity="0.7" d="M37.9027 34.5821L28.1113 34.0781L26.3768 67.7793L36.1682 68.2832L37.9027 34.5821Z" fill="white"/>
<path opacity="0.2" d="M71.184 36.2983L51.9531 35.3086L50.2186 69.0098L69.4496 69.9995L71.184 36.2983Z" fill="#000000"/>
<path opacity="0.2" d="M13.9935 34.55L51.8828 36.5L51.9447 35.2976L14.0554 33.3475L13.9935 34.55Z" fill="#000000"/>
<path d="M73.7791 30.3613L13.7188 24.4102L13.2116 29.5286L73.272 35.4797L73.7791 30.3613Z" fill="#E4AD50"/>
<path opacity="0.7" d="M37.4797 26.7714L27.7236 25.8047L27.2165 30.9231L36.9725 31.8898L37.4797 26.7714Z" fill="white"/>
<path opacity="0.2" d="M73.7802 30.3638L51.1465 28.1211L50.6393 33.2396L73.273 35.4822L73.7802 30.3638Z" fill="#000000"/>
<path d="M53.9095 22.953C54.2043 19.9798 52.0338 17.3261 49.0525 17.0312L56.9236 17.8093C59.8967 18.1042 62.0754 20.7579 61.7806 23.7311C61.4857 26.7043 58.832 28.883 55.8588 28.5881L50.4694 28.0557L47.9795 27.81C50.969 28.0967 53.6146 25.9262 53.9095 22.953Z" fill="#E4AD50"/>
<path opacity="0.5" d="M53.9095 22.953C54.2043 19.9798 52.0338 17.3261 49.0525 17.0312L56.9236 17.8093C59.8967 18.1042 62.0754 20.7579 61.7806 23.7311C61.4857 26.7043 58.832 28.883 55.8588 28.5881L50.4694 28.0557L47.9795 27.81C50.969 28.0967 53.6146 25.9262 53.9095 22.953Z" fill="white"/>
<path d="M49.0606 17.0268L56.9317 17.8049C53.9586 17.5101 51.3048 19.6805 51.01 22.6619L50.4776 28.0513L42.6064 27.2732L43.1388 21.8838C43.4337 18.9024 46.0792 16.732 49.0606 17.0268Z" fill="#E4AD50"/>
<path opacity="0.7" d="M49.0606 17.0268L56.9317 17.8049C53.9586 17.5101 51.3048 19.6805 51.01 22.6619L50.4776 28.0513L42.6064 27.2732L43.1388 21.8838C43.4337 18.9024 46.0792 16.732 49.0606 17.0268Z" fill="white"/>
<path d="M40.5098 16.1804L32.6387 15.4023C35.6118 15.6972 37.7905 18.3509 37.4957 21.3241L36.9633 26.7135L44.8344 27.4916L45.3668 22.1022C45.6616 19.129 43.4911 16.4753 40.5098 16.1804Z" fill="#E4AD50"/>
<path opacity="0.5" d="M40.5098 16.1804L32.6387 15.4023C35.6118 15.6972 37.7905 18.3509 37.4957 21.3241L36.9633 26.7135L44.8344 27.4916L45.3668 22.1022C45.6616 19.129 43.4911 16.4753 40.5098 16.1804Z" fill="white"/>
<path d="M34.5883 21.033C34.8832 18.0598 37.537 15.8811 40.5101 16.176L32.639 15.3979C29.6659 15.103 27.0121 17.2735 26.7172 20.2549C26.4224 23.2281 28.5929 25.8818 31.5742 26.1767L36.9636 26.7091L39.4535 26.9548C36.4722 26.6599 34.2935 24.0062 34.5883 21.033Z" fill="#E4AD50"/>
<path opacity="0.7" d="M34.5883 21.033C34.8832 18.0598 37.537 15.8811 40.5101 16.176L32.639 15.3979C29.6659 15.103 27.0121 17.2735 26.7172 20.2549C26.4224 23.2281 28.5929 25.8818 31.5742 26.1767L36.9636 26.7091L39.4535 26.9548C36.4722 26.6599 34.2935 24.0062 34.5883 21.033Z" fill="white"/>
<path d="M62.0854 10.3046C61.0288 9.93601 59.9722 9.56743 58.9074 9.19886C57.859 6.07826 62.5277 4.96435 61.4793 1.84375C62.5359 2.21232 63.5924 2.5809 64.6572 2.94948C65.7056 6.07008 61.037 7.19218 62.0854 10.3046Z" fill="#E4AD50"/>
<path d="M9.68905 18.9839C8.98466 19.6473 8.28028 20.3189 7.5759 20.9824C4.76654 20.5483 5.7576 16.5185 2.94824 16.0844C3.65263 15.421 4.35701 14.7494 5.06139 14.0859C7.87894 14.52 6.87969 18.5498 9.68905 18.9839Z" fill="#E4AD50"/>
<path opacity="0.7" d="M9.68905 18.9839C8.98466 19.6473 8.28028 20.3189 7.5759 20.9824C4.76654 20.5483 5.7576 16.5185 2.94824 16.0844C3.65263 15.421 4.35701 14.7494 5.06139 14.0859C7.87894 14.52 6.87969 18.5498 9.68905 18.9839Z" fill="white"/>
<path d="M81.6186 30.0906C81.0371 29.3125 80.4556 28.5344 79.874 27.7645C80.6276 25.0207 84.5181 26.4704 85.2716 23.7266C85.8531 24.5047 86.4347 25.2828 87.0162 26.0527C86.2627 28.7965 82.3721 27.3468 81.6186 30.0906Z" fill="#E4AD50"/>
<path opacity="0.5" d="M81.6186 30.0906C81.0371 29.3125 80.4556 28.5344 79.874 27.7645C80.6276 25.0207 84.5181 26.4704 85.2716 23.7266C85.8531 24.5047 86.4347 25.2828 87.0162 26.0527C86.2627 28.7965 82.3721 27.3468 81.6186 30.0906Z" fill="white"/>
<path d="M30.4771 4.57033C29.8219 4.72595 29.1666 4.88976 28.5032 5.04538C26.9552 3.80861 28.9537 1.71183 27.3975 0.475053C28.0527 0.319433 28.708 0.15562 29.3714 0C30.9194 1.24496 28.9209 3.33355 30.4771 4.57033Z" fill="#E4AD50"/>
<path d="M4.47203 44.4023C4.6768 45.0494 4.88976 45.6883 5.09452 46.3353C3.98061 47.9734 1.7364 46.1387 0.62249 47.785C0.417726 47.138 0.204764 46.4991 0 45.8521C1.11391 44.214 3.34993 46.0486 4.47203 44.4023Z" fill="#E4AD50"/>
</svg>
