<svg width="600" height="230" viewBox="0 0 600 230" fill="none" xmlns="http://www.w3.org/2000/svg">
<path d="M0 10C0 4.47715 4.47715 0 10 0H590C595.523 0 600 4.47715 600 10V230H0V10Z" fill="#F0F3EE"/>
<path d="M371.046 118.341L224.165 110.781L219.705 197.442L366.586 205.002L371.046 118.341Z" fill="#E4AD50"/>
<path opacity="0.7" d="M285.468 113.921L260.29 112.625L255.83 199.286L281.008 200.582L285.468 113.921Z" fill="white"/>
<path opacity="0.2" d="M371.049 118.338L321.597 115.793L317.137 202.454L366.589 204.999L371.049 118.338Z" fill="#000080"/>
<path opacity="0.2" d="M223.987 113.845L321.418 118.859L321.577 115.767L224.147 110.753L223.987 113.845Z" fill="#000080"/>
<path d="M377.723 103.08L223.281 87.7773L221.977 100.939L376.419 116.242L377.723 103.08Z" fill="#E4AD50"/>
<path opacity="0.7" d="M284.379 93.8373L259.292 91.3516L257.988 104.513L283.075 106.999L284.379 93.8373Z" fill="white"/>
<path opacity="0.2" d="M377.726 103.079L319.525 97.3125L318.221 110.474L376.422 116.241L377.726 103.079Z" fill="#000080"/>
<path d="M326.628 84.0166C327.386 76.3712 321.805 69.5473 314.138 68.7891L334.379 70.7899C342.024 71.5481 347.626 78.3721 346.868 86.0174C346.11 93.6627 339.286 99.2651 331.641 98.5069L317.782 97.1379L311.379 96.506C319.067 97.2432 325.87 91.6619 326.628 84.0166Z" fill="#E4AD50"/>
<path opacity="0.5" d="M326.628 84.0166C327.386 76.3712 321.805 69.5473 314.138 68.7891L334.379 70.7899C342.024 71.5481 347.626 78.3721 346.868 86.0174C346.11 93.6627 339.286 99.2651 331.641 98.5069L317.782 97.1379L311.379 96.506C319.067 97.2432 325.87 91.6619 326.628 84.0166Z" fill="white"/>
<path d="M314.16 68.7877L334.401 70.7885C326.755 70.0303 319.931 75.6116 319.173 83.278L317.804 97.1365L297.564 95.1357L298.933 81.2772C299.691 73.6108 306.494 68.0295 314.16 68.7877Z" fill="#E4AD50"/>
<path opacity="0.7" d="M314.16 68.7877L334.401 70.7885C326.755 70.0303 319.931 75.6116 319.173 83.278L317.804 97.1365L297.564 95.1357L298.933 81.2772C299.691 73.6108 306.494 68.0295 314.16 68.7877Z" fill="white"/>
<path d="M292.172 66.6024L271.931 64.6016C279.577 65.3598 285.179 72.1837 284.421 79.8291L283.052 93.6876L303.292 95.6884L304.661 81.8299C305.419 74.1846 299.838 67.3606 292.172 66.6024Z" fill="#E4AD50"/>
<path opacity="0.5" d="M292.172 66.6024L271.931 64.6016C279.577 65.3598 285.179 72.1837 284.421 79.8291L283.052 93.6876L303.292 95.6884L304.661 81.8299C305.419 74.1846 299.838 67.3606 292.172 66.6024Z" fill="white"/>
<path d="M276.945 79.0867C277.704 71.4413 284.527 65.8389 292.173 66.5971L271.933 64.5963C264.287 63.8381 257.463 69.4194 256.705 77.0858C255.947 84.7311 261.528 91.5551 269.195 92.3133L283.053 93.6823L289.456 94.3141C281.789 93.5559 276.187 86.732 276.945 79.0867Z" fill="#E4AD50"/>
<path opacity="0.7" d="M276.945 79.0867C277.704 71.4413 284.527 65.8389 292.173 66.5971L271.933 64.5963C264.287 63.8381 257.463 69.4194 256.705 77.0858C255.947 84.7311 261.528 91.5551 269.195 92.3133L283.053 93.6823L289.456 94.3141C281.789 93.5559 276.187 86.732 276.945 79.0867Z" fill="white"/>
<path d="M347.648 51.4949C344.931 50.5471 342.214 49.5993 339.476 48.6515C336.78 40.6271 348.785 37.7627 346.089 29.7383C348.806 30.6861 351.523 31.6338 354.261 32.5816C356.957 40.6061 344.952 43.4915 347.648 51.4949Z" fill="#E4AD50"/>
<path d="M212.915 73.8136C211.104 75.5196 209.293 77.2466 207.482 78.9526C200.257 77.8363 202.806 67.474 195.582 66.3578C197.393 64.6518 199.204 62.9247 201.016 61.2188C208.261 62.335 205.691 72.6973 212.915 73.8136Z" fill="#E4AD50"/>
<path opacity="0.7" d="M212.915 73.8136C211.104 75.5196 209.293 77.2466 207.482 78.9526C200.257 77.8363 202.806 67.474 195.582 66.3578C197.393 64.6518 199.204 62.9247 201.016 61.2188C208.261 62.335 205.691 72.6973 212.915 73.8136Z" fill="white"/>
<path d="M397.878 102.384C396.383 100.384 394.887 98.3827 393.392 96.4029C395.33 89.3473 405.334 93.0752 407.272 86.0195C408.767 88.0204 410.262 90.0212 411.758 92.001C409.82 99.0566 399.816 95.3287 397.878 102.384Z" fill="#E4AD50"/>
<path opacity="0.5" d="M397.878 102.384C396.383 100.384 394.887 98.3827 393.392 96.4029C395.33 89.3473 405.334 93.0752 407.272 86.0195C408.767 88.0204 410.262 90.0212 411.758 92.001C409.82 99.0566 399.816 95.3287 397.878 102.384Z" fill="white"/>
<path d="M266.371 36.7523C264.686 37.1525 263.001 37.5738 261.295 37.9739C257.314 34.7936 262.453 29.4019 258.451 26.2216C260.136 25.8214 261.821 25.4002 263.527 25C267.508 28.2014 262.369 33.5721 266.371 36.7523Z" fill="#E4AD50"/>
<path d="M199.5 139.176C200.026 140.84 200.574 142.482 201.1 144.146C198.236 148.359 192.465 143.641 189.601 147.874C189.074 146.21 188.527 144.568 188 142.904C190.864 138.691 196.614 143.409 199.5 139.176Z" fill="#E4AD50"/>
</svg>
