<svg width="250" height="266" viewBox="0 0 250 266" fill="none" xmlns="http://www.w3.org/2000/svg">
<g clip-path="url(#clip0_4567_17328)">
<path d="M70.913 157.352L35.4984 153.66L20.5605 119.672L8.89551 122.693C8.89551 122.693 17.4554 158.611 27.1063 164.15C36.6733 169.689 69.5702 170.696 69.5702 170.696L70.913 157.352Z" fill="#000000"/>
<path d="M89.7918 174.631C95.5494 168.152 94.9648 158.233 88.4861 152.475C82.0075 146.718 72.0881 147.302 66.3305 153.781C60.5729 160.26 61.1575 170.179 67.6362 175.937C74.1148 181.694 84.0342 181.11 89.7918 174.631Z" fill="#263238"/>
<path d="M78.0462 179.925C73.8502 179.925 69.9059 178.331 66.9687 175.31C64.0314 172.373 62.353 168.428 62.353 164.232C62.353 160.036 63.9475 156.092 66.9687 153.155C69.9059 150.217 73.8502 148.539 78.0462 148.539C82.2423 148.539 86.1865 150.134 89.1238 153.155C92.061 156.092 93.7394 160.036 93.7394 164.232C93.7394 168.428 92.1449 172.373 89.1238 175.31C86.1865 178.247 82.2423 179.925 78.0462 179.925ZM78.0462 148.539C73.8502 148.539 69.9059 150.134 66.9687 153.155C64.0314 156.092 62.353 160.036 62.353 164.232C62.353 168.428 63.9475 172.373 66.9687 175.31C69.9059 178.247 73.8502 179.925 78.0462 179.925C82.2423 179.925 86.1865 178.331 89.1238 175.31C92.061 172.373 93.7394 168.428 93.7394 164.232C93.7394 160.036 92.1449 156.092 89.1238 153.155C86.1026 150.217 82.2423 148.539 78.0462 148.539Z" fill="#263238"/>
<path d="M32.4554 166.927C38.7651 165.413 42.6523 159.07 41.1379 152.761C39.6234 146.451 33.2807 142.564 26.971 144.078C20.6614 145.593 16.7741 151.935 18.2886 158.245C19.8031 164.555 26.1458 168.442 32.4554 166.927Z" fill="#263238"/>
<path d="M20.6833 122.441C24.4194 118.704 24.4194 112.647 20.6833 108.911C16.9472 105.175 10.8898 105.175 7.15372 108.911C3.41762 112.647 3.41762 118.704 7.15372 122.441C10.8898 126.177 16.9472 126.177 20.6833 122.441Z" fill="#263238"/>
<path d="M21.064 117.154L28.9526 110.525C29.7918 109.769 29.9596 108.511 29.2043 107.587L29.0365 107.336C28.2812 106.496 27.0224 106.329 26.0992 107.084L18.2107 113.714L21.064 117.154Z" fill="#263238"/>
<path d="M18.8821 108.258V98.1879C18.8821 97.013 17.9589 96.0898 16.784 96.0898H16.4484C15.2735 96.0898 14.3503 97.013 14.3503 98.1879V108.258C14.3503 108.426 14.5182 108.594 14.686 108.594H18.5464C18.7981 108.594 18.8821 108.426 18.8821 108.258Z" fill="#263238"/>
<path d="M13.9309 108.091L11.7489 98.272C11.4971 97.181 10.4062 96.4258 9.31521 96.6775L8.97953 96.7614C7.88856 97.0132 7.13327 98.1042 7.38503 99.1951L9.56697 109.014C9.56697 109.182 9.73481 109.266 9.90266 109.266L13.5952 108.426C13.9309 108.426 14.0148 108.259 13.9309 108.091Z" fill="#263238"/>
<path d="M9.14731 109.432L4.11206 100.705C3.52462 99.6975 2.26581 99.3618 1.25876 99.9492L1.00699 100.117C-5.53951e-05 100.705 -0.335738 101.963 0.251707 102.97L5.28695 111.698C5.37087 111.866 5.53872 111.866 5.70656 111.782L8.97947 109.852C9.14731 109.768 9.23123 109.6 9.14731 109.432Z" fill="#263238"/>
<path d="M224.538 245.379L235.118 240.879L204.603 169.138L194.024 173.638L224.538 245.379Z" fill="#000000"/>
<path d="M206.144 175.955C211.746 169.342 210.927 159.439 204.314 153.837C197.701 148.234 187.798 149.054 182.196 155.667C176.593 162.28 177.413 172.182 184.026 177.785C190.639 183.387 200.541 182.568 206.144 175.955Z" fill="#263238"/>
<path d="M194.193 181.52C192.598 181.52 191.088 181.268 189.577 180.849C185.549 179.59 182.276 176.904 180.346 173.212C178.416 169.519 177.996 165.24 179.255 161.211C180.514 157.183 183.199 153.91 186.892 151.98C190.584 150.05 194.864 149.63 198.892 150.889C202.92 152.148 206.193 154.833 208.124 158.526C210.054 162.218 210.473 166.498 209.214 170.527C207.956 174.555 205.27 177.828 201.578 179.758C199.228 180.933 196.71 181.52 194.193 181.52ZM194.193 150.218C191.675 150.218 189.157 150.805 186.892 152.064C183.199 153.994 180.514 157.267 179.255 161.295C177.996 165.323 178.416 169.519 180.346 173.212C182.276 176.904 185.549 179.59 189.577 180.849C193.605 182.108 197.801 181.688 201.494 179.758C205.186 177.828 207.872 174.555 209.131 170.527C210.389 166.498 209.97 162.302 208.04 158.61C206.109 154.917 202.837 152.232 198.808 150.973C197.298 150.386 195.703 150.218 194.193 150.218Z" fill="#263238"/>
<path d="M225.924 212.711C227.662 206.459 224.002 199.982 217.75 198.244C211.498 196.507 205.021 200.166 203.284 206.418C201.546 212.67 205.206 219.147 211.458 220.885C217.709 222.622 224.186 218.963 225.924 212.711Z" fill="#263238"/>
<path d="M232.293 255.704C237.576 255.704 241.86 251.421 241.86 246.137C241.86 240.854 237.576 236.57 232.293 236.57C227.009 236.57 222.726 240.854 222.726 246.137C222.726 251.421 227.009 255.704 232.293 255.704Z" fill="#263238"/>
<path d="M225.16 246.977L219.789 255.788C219.201 256.795 219.537 258.054 220.46 258.642L220.712 258.809C221.719 259.397 222.978 259.061 223.565 258.138L228.936 249.326L225.16 246.977Z" fill="#263238"/>
<path d="M230.027 254.696L233.216 264.179C233.551 265.27 234.726 265.857 235.817 265.522L236.069 265.438C237.16 265.102 237.748 263.927 237.412 262.836L234.223 253.353C234.139 253.185 233.971 253.101 233.887 253.185L230.279 254.36C230.027 254.36 229.943 254.528 230.027 254.696Z" fill="#263238"/>
<path d="M234.726 253.356L239.929 261.916C240.517 262.923 241.776 263.175 242.783 262.587L243.035 262.419C244.042 261.832 244.293 260.573 243.706 259.566L238.503 251.006C238.419 250.838 238.251 250.838 238.083 250.922L234.81 252.936C234.726 253.02 234.642 253.188 234.726 253.356Z" fill="#263238"/>
<path d="M238.923 250.502L246.475 257.132C247.315 257.887 248.657 257.803 249.413 256.964L249.58 256.712C250.336 255.873 250.252 254.53 249.413 253.775L241.86 247.145C241.776 247.061 241.524 247.061 241.44 247.145L238.923 249.998C238.755 250.25 238.755 250.418 238.923 250.502Z" fill="#263238"/>
<path d="M73.3467 147.871C73.3467 147.871 74.4377 257.891 136.203 260.073C197.969 262.255 200.571 148.627 200.571 147.871C200.571 147.871 193.269 131.423 136.959 132.094C80.6478 132.766 73.3467 147.871 73.3467 147.871Z" fill="#000000"/>
<path d="M108.006 128.566H160.205C163.646 128.566 166.331 125.797 166.331 122.44V121.517C166.331 118.076 163.562 115.391 160.205 115.391H108.006C104.565 115.391 101.88 118.16 101.88 121.517V122.44C101.88 125.797 104.649 128.566 108.006 128.566Z" fill="#263238"/>
<path d="M131.841 30.668H136.373V7.84152H131.841V30.668Z" fill="#263238"/>
<path d="M203.054 98.5107C210.179 96.8169 214.581 89.6682 212.888 82.5437C211.194 75.4191 204.045 71.0166 196.92 72.7104C189.796 74.4042 185.393 81.5529 187.087 88.6775C188.781 95.8021 195.93 100.205 203.054 98.5107Z" fill="#000000"/>
<path d="M69.2361 97.6939C76.3775 96.0741 80.8536 88.9717 79.2338 81.8303C77.6139 74.6889 70.5115 70.2128 63.3701 71.8326C56.2287 73.4525 51.7526 80.5549 53.3725 87.6963C54.9923 94.8377 62.0947 99.3138 69.2361 97.6939Z" fill="#000000"/>
<path d="M131.504 25.7644C131.504 25.7644 77.6266 25.093 69.1506 71.7529C60.5907 118.413 106.16 119.252 119.251 120.175C125.21 120.595 137.882 120.595 149.127 120.427C173.968 120.007 191.507 115.224 197.465 92.1457C198.137 89.4602 198.64 86.6908 198.808 83.9215C200.319 58.5774 183.283 24.5055 131.504 25.7644Z" fill="#000000"/>
<path d="M170.611 96.7619L92.3967 98.0207C84.1725 98.1885 77.4588 91.6427 77.291 83.4185C77.1232 75.1943 83.669 68.4806 91.8932 68.3127L170.107 67.0539C178.332 66.8861 185.045 73.4319 185.213 81.6562C185.297 89.8804 178.751 96.5941 170.611 96.7619Z" fill="#263238"/>
<path d="M108.594 81.7392C108.09 84.3408 105.572 86.0192 102.971 85.5157C100.369 85.0121 98.6909 82.4945 99.1944 79.893C99.6979 77.2914 102.216 75.613 104.817 76.1165C107.419 76.6201 109.097 79.1377 108.594 81.7392Z" fill="white"/>
<path d="M163.226 80.8994C162.722 83.5009 160.205 85.1793 157.603 84.6758C155.002 84.1723 153.323 81.6547 153.827 79.0531C154.33 76.4516 156.848 74.7732 159.449 75.2767C162.051 75.7802 163.729 78.2978 163.226 80.8994Z" fill="white"/>
<path d="M155.337 191.593C154.498 203.342 144.26 212.153 132.511 211.314C120.762 210.475 111.95 200.237 112.789 188.488C113.629 176.739 123.867 167.927 135.616 168.766C147.449 169.689 156.26 179.844 155.337 191.593Z" fill="#263238"/>
<path d="M149.631 191.173C149.043 199.733 141.574 206.111 133.014 205.524C124.455 204.936 118.077 197.467 118.664 188.908C119.251 180.348 126.72 173.97 135.28 174.557C143.84 175.228 150.218 182.613 149.631 191.173Z" fill="white"/>
<path d="M142.162 194.028C142.078 194.028 142.078 193.105 141.994 191.511C141.994 189.916 141.91 187.65 141.91 184.797L142.078 185.133C139.728 183.79 137.042 182.195 134.105 180.517H134.525C132.007 181.944 129.322 183.454 126.468 185.049C126.217 185.384 126.804 184.545 126.72 184.629V184.713V184.881V185.216V185.804V186.979C126.72 187.734 126.72 188.573 126.72 189.329C126.72 190.839 126.636 192.35 126.636 193.776L126.385 193.357C129.322 195.119 131.923 196.798 134.273 198.14H133.937C136.371 196.798 138.385 195.79 139.896 195.035C141.238 194.364 142.078 193.944 142.162 194.028C142.246 194.028 141.49 194.532 140.148 195.371C138.805 196.21 136.791 197.385 134.273 198.812L134.105 198.896L133.937 198.812C131.588 197.469 128.902 195.874 125.965 194.196L125.713 194.028V193.776C125.713 192.35 125.713 190.839 125.797 189.329C125.797 188.573 125.797 187.734 125.797 186.979V185.804V185.216V184.881V184.713V184.629C125.713 184.713 126.217 183.874 126.049 184.209C128.902 182.615 131.588 181.104 134.105 179.762L134.357 179.594L134.609 179.762C137.546 181.524 140.231 183.202 142.497 184.545L142.665 184.629V184.797C142.581 187.734 142.497 190 142.413 191.594C142.246 193.189 142.162 194.028 142.162 194.028Z" fill="#000000"/>
<path d="M139.486 12.711C142.403 9.79421 142.403 5.06517 139.486 2.14839C136.57 -0.768388 131.841 -0.768382 128.924 2.1484C126.007 5.06517 126.007 9.7942 128.924 12.711C131.841 15.6278 136.57 15.6278 139.486 12.711Z" fill="#000000"/>
<path d="M122.273 79.5586C122.608 79.5586 122.44 81.237 123.531 83.5029C124.035 84.5938 124.874 85.7687 126.049 86.8597C127.224 87.8667 128.818 88.706 130.497 88.8738C132.259 89.0416 133.937 88.5381 135.28 87.6989C136.623 86.9436 137.714 85.8526 138.385 84.8456C139.812 82.8315 139.896 81.1531 140.315 81.237C140.483 81.237 140.567 81.6566 140.567 82.4119C140.567 83.1672 140.315 84.3421 139.728 85.6009C139.057 86.8597 137.966 88.2864 136.371 89.2934C134.777 90.3844 132.679 91.0557 130.329 90.8879C128.063 90.6361 126.049 89.5452 124.706 88.2024C123.363 86.8597 122.524 85.3491 122.105 83.9225C121.685 82.5797 121.685 81.4048 121.853 80.5656C121.937 79.8943 122.189 79.5586 122.273 79.5586Z" fill="white"/>
<path d="M193.941 101.295C193.857 101.211 194.864 99.7847 195.787 97.0992C196.71 94.4977 197.55 90.6373 197.969 86.4413C198.389 82.1613 198.305 78.301 198.221 75.4477C198.137 74.021 198.053 72.9301 198.053 72.0908C197.969 71.3356 197.969 70.832 197.969 70.832C197.969 70.832 198.053 71.2516 198.221 72.0069C198.305 72.7622 198.473 73.9371 198.557 75.3638C198.724 78.1331 198.892 82.0774 198.473 86.3574C198.053 90.6373 197.214 94.4977 196.123 97.0992C195.619 98.442 195.116 99.449 194.696 100.12C194.277 100.96 194.025 101.295 193.941 101.295Z" fill="#263238"/>
<path d="M69.2346 70.1602C69.2346 70.1602 69.1506 70.5798 68.9828 71.335C68.8989 71.7547 68.731 72.1743 68.6471 72.7617C68.5632 73.3491 68.3954 73.9366 68.2275 74.608C67.9758 75.9507 67.724 77.6291 67.6401 79.4754C67.5562 81.3216 67.5562 83.3357 67.724 85.5177C67.8918 87.6157 68.3114 89.6298 68.731 91.476C69.1506 93.2384 69.6542 94.8329 70.1577 96.1756C70.4095 96.847 70.6612 97.4344 70.8291 97.9379C70.9969 98.4415 71.2487 98.8611 71.4165 99.2807C71.7522 100.036 71.92 100.372 71.92 100.372C71.92 100.372 71.6683 100.036 71.3326 99.2807C71.1647 98.945 70.913 98.5254 70.6612 98.0219C70.4095 97.5183 70.1577 96.9309 69.9059 96.2595C69.4024 94.9168 68.815 93.3223 68.3954 91.56C67.9758 89.7137 67.5562 87.6996 67.3883 85.5177C67.2205 83.3357 67.2205 81.3216 67.3044 79.3914C67.4722 77.5452 67.724 75.8668 67.9758 74.4401C68.0597 73.7687 68.3114 73.0974 68.3954 72.5939C68.5632 72.0064 68.6471 71.5868 68.815 71.2511C69.0667 70.5798 69.2346 70.1602 69.2346 70.1602Z" fill="#263238"/>
<path d="M73.095 147.785C73.095 147.785 73.1789 147.785 73.4307 147.869C73.6824 147.953 73.9342 148.037 74.3538 148.205C75.193 148.54 76.3679 148.96 77.9624 149.464C78.7177 149.715 79.6408 150.051 80.5639 150.387C81.487 150.722 82.578 150.974 83.669 151.31C85.9348 151.981 88.4525 152.82 91.3058 153.492C92.7324 153.827 94.243 154.247 95.7536 154.667C97.3481 155.086 98.9426 155.338 100.621 155.758C103.978 156.513 107.67 157.1 111.531 157.688C119.251 158.695 127.811 159.45 136.791 159.534C145.77 159.534 154.33 158.779 162.051 157.772C165.911 157.184 169.52 156.597 172.961 155.842C174.639 155.506 176.318 155.17 177.828 154.751C179.423 154.331 180.849 153.995 182.276 153.576C185.129 152.904 187.647 152.065 189.913 151.394C191.004 151.058 192.095 150.722 193.018 150.471C193.941 150.135 194.78 149.799 195.619 149.547C197.13 149.044 198.389 148.624 199.228 148.289C199.647 148.121 199.899 148.037 200.151 147.953C200.403 147.869 200.487 147.869 200.487 147.869C200.487 147.869 200.403 147.953 200.151 148.037C199.899 148.121 199.647 148.205 199.228 148.373C198.389 148.708 197.214 149.128 195.703 149.715C194.948 149.967 194.109 150.303 193.102 150.638C192.179 150.974 191.088 151.31 189.997 151.646C187.731 152.317 185.213 153.24 182.36 153.911C180.933 154.247 179.423 154.667 177.912 155.086C176.318 155.506 174.723 155.758 173.045 156.177C169.688 156.933 165.995 157.52 162.135 158.107C154.414 159.198 145.854 159.87 136.875 159.954C127.895 159.954 119.335 159.198 111.615 158.107C107.754 157.436 104.062 156.933 100.705 156.177C99.0265 155.842 97.3481 155.506 95.8375 155.086C94.243 154.667 92.8164 154.247 91.3897 153.911C88.5364 153.24 86.0188 152.317 83.7529 151.646C82.6619 151.31 81.571 150.974 80.6478 150.638C79.7247 150.303 78.8855 149.967 78.0463 149.715C76.5357 149.128 75.3608 148.708 74.5216 148.373C74.102 148.205 73.8503 148.121 73.5985 148.037C73.1789 147.869 73.095 147.785 73.095 147.785Z" fill="#263238"/>
<g opacity="0.3">
<path opacity="0.3" d="M73.3467 147.871C73.3467 147.871 80.6478 132.766 136.959 132.094C193.269 131.423 200.571 147.871 200.571 147.871C200.571 147.871 143.756 175.901 73.3467 147.871Z" fill="black"/>
</g>
<path d="M124.706 29.207C124.706 29.207 124.622 29.207 124.538 29.207C124.37 29.207 124.203 29.207 123.951 29.291C123.447 29.3749 122.692 29.3749 121.769 29.4588C119.839 29.6266 117.153 30.0462 113.796 30.8015C110.524 31.5568 106.579 32.8156 102.551 34.6619C98.4389 36.5081 94.2429 39.1097 90.2147 42.3826C86.1865 45.7394 82.9136 49.348 80.2281 53.0405C77.6266 56.6491 75.6125 60.2577 74.2697 63.3628C72.8431 66.4679 72.0039 69.0694 71.5003 70.9157C71.2486 71.8388 71.0807 72.5102 70.9129 73.0137C70.829 73.2654 70.829 73.4333 70.7451 73.6011C70.7451 73.6851 70.6611 73.769 70.6611 73.769C70.6611 73.769 70.6611 73.6851 70.6611 73.6011C70.6611 73.4333 70.7451 73.2654 70.7451 73.0137C70.829 72.5102 70.9968 71.7549 71.2486 70.9157C71.7521 69.0694 72.5913 66.3839 73.934 63.2789C75.2768 60.1738 77.207 56.5652 79.8924 52.8727C82.494 49.1802 85.8508 45.4877 89.879 42.1308C93.9072 38.8579 98.1872 36.2564 102.299 34.3262C106.411 32.4799 110.356 31.2211 113.629 30.4658C116.985 29.7106 119.755 29.3749 121.601 29.291C122.524 29.207 123.279 29.207 123.783 29.207C124.035 29.207 124.203 29.207 124.37 29.207C124.622 29.207 124.706 29.207 124.706 29.207Z" fill="white"/>
<path d="M72.004 93.8228C71.9201 93.8228 71.6683 93.2353 71.2487 92.1443C70.8291 91.0534 70.4095 89.5428 70.1577 87.8644C69.906 86.102 69.8221 84.5915 69.906 83.4166C69.9899 82.2417 70.0738 81.5703 70.1577 81.5703C70.3256 81.5703 70.0738 84.3397 70.6613 87.7805C71.0809 91.1373 72.1718 93.7388 72.004 93.8228Z" fill="white"/>
<path d="M57.9054 89.46C57.9054 89.46 57.7375 89.2921 57.4858 89.0403C57.234 88.7047 56.8983 88.2011 56.5626 87.6137C55.8913 86.3549 55.3038 84.2569 55.5556 81.991C55.8913 79.7251 56.9822 77.8789 57.9893 76.7879C58.4928 76.2005 58.9124 75.8648 59.2481 75.613C59.5838 75.3613 59.7516 75.2773 59.8356 75.2773C59.9195 75.3613 59.1642 75.8648 58.2411 76.9558C57.3179 78.0467 56.3109 79.8091 56.0591 81.991C55.8074 84.1729 56.3109 86.1031 56.8983 87.4459C57.4019 88.7047 57.9893 89.46 57.9054 89.46Z" fill="white"/>
<path d="M134.609 2.26537C134.609 2.34929 133.854 2.09753 132.595 2.18145C131.42 2.26537 129.742 3.02066 128.735 4.53123C127.727 6.12573 127.811 7.88806 128.231 9.06295C128.567 10.2378 129.154 10.8253 129.07 10.8253C129.07 10.8253 128.902 10.7414 128.651 10.4896C128.399 10.2378 128.147 9.81824 127.895 9.2308C127.392 8.0559 127.224 6.12573 128.315 4.36339C129.406 2.68497 131.252 2.01361 132.511 1.92969C133.182 1.92969 133.686 2.01361 134.022 2.09753C134.441 2.09753 134.609 2.26537 134.609 2.26537Z" fill="white"/>
<path d="M207.788 79.3062C207.704 79.3901 206.361 78.1313 204.431 77.2082C202.501 76.285 200.654 75.9493 200.738 75.8654C200.738 75.7815 202.585 75.7815 204.683 76.7885C206.613 77.7956 207.872 79.2223 207.788 79.3062Z" fill="white"/>
<path d="M92.7325 226.252C92.7325 226.252 92.6485 226.168 92.6485 226.084C92.5646 225.916 92.4807 225.748 92.3968 225.581C92.145 225.077 91.8093 224.49 91.3897 223.65C91.138 223.231 90.9701 222.727 90.6344 222.224C90.3827 221.72 90.1309 221.133 89.8791 220.545C89.2917 219.37 88.7043 217.944 88.0329 216.349C87.6972 215.594 87.3615 214.755 87.0258 213.916C86.6902 213.076 86.3545 212.153 86.0188 211.23C85.2635 209.384 84.6761 207.37 84.0047 205.188C82.662 200.908 81.4031 196.124 80.2283 191.089C79.1373 186.054 78.2981 181.186 77.6267 176.739C77.0393 172.291 76.5357 168.347 76.284 164.906C76.1161 163.227 76.0322 161.717 75.9483 160.374C75.8644 159.031 75.7805 157.856 75.7805 156.933C75.7805 156.01 75.6965 155.255 75.6965 154.751C75.6965 154.5 75.6965 154.332 75.6965 154.164C75.6965 153.996 75.6965 153.996 75.6965 153.996C75.6965 153.996 75.6965 154.08 75.6965 154.164C75.6965 154.332 75.6965 154.5 75.7805 154.751C75.7805 155.255 75.8644 156.01 75.9483 156.933C76.0322 157.856 76.1161 159.031 76.2001 160.374C76.284 161.717 76.4518 163.227 76.6197 164.906C76.9554 168.263 77.4589 172.291 78.0463 176.655C78.7177 181.103 79.5569 185.886 80.7318 190.921C81.8228 195.956 83.1655 200.656 84.4243 204.936C85.0957 207.034 85.767 209.048 86.4384 210.978C86.7741 211.901 87.1098 212.825 87.4454 213.664C87.7811 214.503 88.1168 215.342 88.4525 216.097C89.0399 217.692 89.7113 219.035 90.2148 220.294C90.4666 220.881 90.7184 221.468 90.9701 221.972C91.2219 222.475 91.4736 222.979 91.6415 223.399C92.0611 224.238 92.3129 224.909 92.5646 225.329C92.6485 225.497 92.7325 225.664 92.8164 225.832C92.6485 226.168 92.7325 226.252 92.7325 226.252Z" fill="white"/>
<path d="M59.8354 157.771C59.8354 157.855 57.0661 157.771 53.7092 157.519C50.3524 157.267 47.583 157.016 47.583 156.848C47.583 156.764 50.3524 156.848 53.7092 157.1C57.0661 157.435 59.8354 157.687 59.8354 157.771Z" fill="white"/>
<path d="M28.2813 139.896C28.1973 139.98 26.7707 137.546 25.0923 134.441C23.4139 131.42 22.155 128.819 22.3229 128.819C22.4068 128.735 23.8335 131.168 25.5119 134.273C27.1064 137.295 28.3652 139.812 28.2813 139.896Z" fill="white"/>
<path d="M122.44 252.687C122.44 252.687 122.105 252.687 121.433 252.603C120.762 252.519 119.923 252.267 118.832 251.931C117.741 251.596 116.482 251.092 115.055 250.505C113.713 249.833 112.202 248.994 110.775 248.071C109.349 247.064 108.09 245.973 106.999 244.882C105.908 243.791 105.069 242.784 104.397 241.861C103.726 240.938 103.222 240.183 102.887 239.595C102.551 239.008 102.383 238.756 102.467 238.672C102.551 238.588 103.222 239.847 104.649 241.609C105.32 242.532 106.244 243.539 107.335 244.546C108.426 245.553 109.684 246.644 111.027 247.651C112.454 248.658 113.88 249.414 115.223 250.085C116.566 250.757 117.825 251.26 118.916 251.596C121.098 252.351 122.44 252.603 122.44 252.687Z" fill="white"/>
<path d="M135.364 213.83C135.364 213.83 135.196 213.83 134.777 213.914C134.357 213.914 133.854 213.998 133.098 213.998C131.588 213.998 129.49 213.746 126.972 212.991C125.713 212.655 124.371 212.068 122.944 211.397C121.601 210.641 120.175 209.802 118.748 208.711C115.979 206.529 113.461 203.508 111.782 199.816C110.188 196.039 109.684 192.179 110.02 188.654C110.104 186.892 110.524 185.297 110.859 183.787C111.279 182.276 111.782 180.933 112.454 179.759C113.629 177.409 114.888 175.646 115.895 174.555C116.398 173.968 116.818 173.632 117.069 173.381C117.321 173.129 117.489 172.961 117.489 172.961C117.489 172.961 116.902 173.548 115.979 174.639C115.055 175.73 113.797 177.493 112.622 179.842C112.034 181.017 111.531 182.36 111.111 183.871C110.775 185.381 110.356 186.976 110.272 188.654C110.02 192.095 110.524 195.955 112.034 199.564C113.629 203.172 116.146 206.194 118.832 208.292C120.175 209.383 121.601 210.222 122.944 210.977C124.287 211.648 125.629 212.236 126.888 212.655C129.406 213.411 131.504 213.746 132.931 213.746C134.525 213.83 135.364 213.83 135.364 213.83Z" fill="white"/>
<path d="M33.7361 147.785C33.7361 147.869 33.0647 147.534 32.0576 147.282C30.9667 147.03 29.4561 146.946 27.8616 147.282C26.2671 147.701 24.9244 148.457 24.0852 149.128C23.246 149.799 22.8264 150.387 22.7424 150.303C22.7424 150.303 22.9942 149.632 23.8334 148.876C24.6726 148.121 26.0153 147.198 27.6938 146.862C29.3722 146.443 30.9667 146.61 32.0576 146.946C33.1486 147.282 33.7361 147.701 33.7361 147.785Z" fill="white"/>
<path d="M157.687 64.3689C157.687 64.4529 147.365 64.6207 134.693 64.6207C122.021 64.6207 111.698 64.5368 111.698 64.3689C111.698 64.285 122.021 64.1172 134.693 64.1172C147.365 64.1172 157.687 64.2011 157.687 64.3689Z" fill="white"/>
<path d="M118.412 116.818C118.412 116.818 118.244 116.818 117.993 116.902C117.657 116.902 117.321 116.985 116.902 116.985C116.398 116.985 115.811 117.069 115.139 117.069C114.468 117.069 113.629 117.153 112.79 117.069C111.027 117.069 108.929 116.985 106.663 116.734C104.397 116.482 101.88 116.062 99.2783 115.475C96.6768 114.887 94.2431 114.132 92.0611 113.293C89.8792 112.454 87.949 111.698 86.4385 110.859C85.6832 110.524 84.9279 110.104 84.3404 109.768C83.753 109.433 83.1655 109.181 82.8299 108.929C82.4103 108.677 82.1585 108.509 81.9067 108.342C81.655 108.174 81.571 108.09 81.571 108.09C81.571 108.09 81.7389 108.09 81.9067 108.258C82.1585 108.426 82.4942 108.593 82.9138 108.761C83.3334 109.013 83.8369 109.265 84.5083 109.6C85.0957 109.936 85.851 110.272 86.6063 110.607C88.2008 111.363 90.131 112.118 92.229 112.957C94.4109 113.713 96.8446 114.468 99.4462 115.055C102.048 115.643 104.565 116.062 106.831 116.398C109.097 116.65 111.195 116.818 112.957 116.818C113.797 116.902 114.636 116.818 115.307 116.818C115.979 116.818 116.566 116.818 117.07 116.818C117.489 116.818 117.909 116.818 118.161 116.818C118.244 116.818 118.412 116.818 118.412 116.818Z" fill="white"/>
<path d="M185.381 154.666C185.381 154.666 185.297 154.666 185.213 154.75C185.045 154.834 184.877 154.918 184.626 155.002C184.038 155.169 183.283 155.505 182.276 155.841C181.269 156.177 180.01 156.596 178.583 157.1C177.157 157.519 175.478 158.107 173.632 158.526C172.709 158.778 171.702 159.03 170.695 159.282C169.688 159.533 168.597 159.785 167.506 160.037C165.324 160.54 162.89 160.96 160.456 161.464C155.421 162.303 149.882 163.058 144.008 163.394C138.134 163.729 132.511 163.729 127.476 163.478C124.958 163.31 122.524 163.226 120.258 162.89C119.167 162.806 118.076 162.722 116.985 162.555C115.978 162.387 114.971 162.303 113.964 162.135C112.034 161.883 110.356 161.547 108.845 161.296C107.335 161.044 106.076 160.792 104.985 160.54C103.978 160.289 103.139 160.121 102.551 160.037C102.299 159.953 102.132 159.953 101.964 159.869C101.796 159.869 101.712 159.785 101.712 159.785C101.712 159.785 101.796 159.785 101.964 159.785C102.132 159.785 102.299 159.869 102.635 159.869C103.222 159.953 104.062 160.121 105.069 160.289C106.16 160.54 107.419 160.708 108.929 160.96C110.44 161.212 112.118 161.547 114.048 161.715C114.971 161.799 115.978 161.967 117.069 162.135C118.076 162.303 119.167 162.303 120.342 162.471C122.608 162.722 125.042 162.806 127.56 162.974C132.595 163.142 138.217 163.226 144.092 162.806C149.966 162.387 155.505 161.715 160.456 160.876C162.974 160.456 165.324 160.037 167.506 159.533C168.597 159.282 169.688 159.114 170.695 158.862C171.702 158.61 172.709 158.358 173.632 158.107C175.478 157.687 177.157 157.1 178.667 156.68C180.178 156.26 181.353 155.841 182.444 155.505C183.451 155.169 184.206 154.918 184.793 154.75C185.045 154.666 185.213 154.582 185.381 154.582C185.297 154.666 185.381 154.582 185.381 154.666Z" fill="white"/>
</g>
<defs>
<clipPath id="clip0_4567_17328">
<rect width="250" height="265.609" fill="white"/>
</clipPath>
</defs>
</svg>
