<svg width="18" height="20" viewBox="0 0 18 20" fill="none" xmlns="http://www.w3.org/2000/svg">
<path d="M10.9306 3.21324C11.101 3.21324 11.2645 3.14559 11.385 3.02508C11.5055 2.90458 11.5733 2.74103 11.5733 2.57064V1.92789C11.5733 1.75749 11.5055 1.59395 11.385 1.47345C11.2645 1.35295 11.101 1.28516 10.9306 1.28516H7.07438C6.90398 1.28516 6.74043 1.35294 6.61993 1.47345C6.49943 1.59395 6.43164 1.7575 6.43164 1.92789V2.57064C6.43164 2.74104 6.49943 2.90458 6.61993 3.02508C6.74044 3.14558 6.90398 3.21324 7.07438 3.21324H10.9306ZM9.55526 1.92789L9.39454 2.57063H8.44973L8.61045 1.92789H9.55526ZM10.9306 2.57063H10.0565L10.2172 1.92789H10.9306V2.57063ZM7.07438 1.92789H7.94846L7.78774 2.57063H7.07438V1.92789Z" fill="#121243"/>
<path d="M9.00246 15.7473C8.88774 15.7473 8.78162 15.686 8.72433 15.5864C8.66703 15.487 8.66716 15.3645 8.72459 15.2651C8.78202 15.1657 8.888 15.1045 9.00286 15.1047C9.11758 15.1047 9.2237 15.1659 9.28113 15.2653C9.37245 15.4131 9.56464 15.4614 9.71512 15.3745C9.86549 15.2876 9.91969 15.0969 9.83724 14.944C9.72091 14.7483 9.53893 14.6003 9.32375 14.5262V14.4619C9.32375 14.2844 9.17997 14.1406 9.00244 14.1406C8.82491 14.1406 8.68114 14.2844 8.68114 14.4619V14.5211C8.39305 14.6225 8.17033 14.8547 8.08102 15.1466C7.99158 15.4385 8.04605 15.7556 8.22788 16.0009C8.40958 16.2461 8.69714 16.3905 9.00243 16.39C9.11715 16.3902 9.22327 16.4515 9.28056 16.5509C9.33786 16.6504 9.33772 16.7728 9.28029 16.8722C9.22286 16.9716 9.11688 17.0328 9.00203 17.0328C8.8873 17.0326 8.78119 16.9714 8.72376 16.872C8.63244 16.7244 8.44025 16.676 8.28977 16.7628C8.1394 16.8497 8.0852 17.0404 8.16764 17.1934C8.28412 17.3892 8.46636 17.5371 8.68169 17.6111V17.6754C8.68169 17.8529 8.8256 17.9968 9.00313 17.9968C9.18052 17.9968 9.32443 17.8529 9.32443 17.6754V17.6162V17.6163C9.61252 17.5148 9.83524 17.2827 9.92469 16.9905C10.014 16.6986 9.95939 16.3814 9.77742 16.1361C9.59545 15.8908 9.3079 15.7466 9.00247 15.7473L9.00246 15.7473Z" fill="#121243"/>
<path d="M3.21827 15.7473C3.10355 15.7473 2.99743 15.686 2.94014 15.5864C2.88285 15.487 2.88298 15.3645 2.94041 15.2651C2.99784 15.1657 3.10382 15.1045 3.21867 15.1047C3.33339 15.1047 3.43951 15.1659 3.49694 15.2653C3.58826 15.4131 3.78045 15.4614 3.93093 15.3745C4.08129 15.2876 4.13549 15.0969 4.05305 14.944C3.93671 14.7483 3.75474 14.6003 3.53956 14.5262V14.4619C3.53956 14.2844 3.39579 14.1406 3.21826 14.1406C3.04073 14.1406 2.89695 14.2844 2.89695 14.4619V14.5211C2.60887 14.6225 2.38615 14.8547 2.29684 15.1466C2.2074 15.4385 2.26187 15.7556 2.4437 16.0009C2.6254 16.2461 2.91295 16.3905 3.21824 16.39C3.33296 16.3902 3.43908 16.4515 3.49637 16.5509C3.55367 16.6504 3.55353 16.7728 3.4961 16.8722C3.43867 16.9716 3.33269 17.0328 3.21784 17.0328C3.10312 17.0326 2.997 16.9714 2.93958 16.872C2.84826 16.7244 2.65606 16.676 2.50558 16.7628C2.35522 16.8497 2.30102 17.0404 2.38346 17.1934C2.49993 17.3892 2.68217 17.5371 2.89751 17.6111V17.6754C2.89751 17.8529 3.04141 17.9968 3.21894 17.9968C3.39634 17.9968 3.54024 17.8529 3.54024 17.6754V17.6162V17.6163C3.82833 17.5148 4.05105 17.2827 4.1405 16.9905C4.2298 16.6986 4.1752 16.3814 3.99323 16.1361C3.81126 15.8908 3.52371 15.7466 3.21828 15.7473L3.21827 15.7473Z" fill="#121243"/>
<path d="M14.4656 14.4619V14.5211C14.1775 14.6225 13.9548 14.8547 13.8654 15.1466C13.776 15.4385 13.8305 15.7556 14.0123 16.0009C14.194 16.2461 14.4816 16.3905 14.7869 16.39C14.9016 16.3901 15.0077 16.4515 15.065 16.5509C15.1223 16.6504 15.1222 16.7728 15.0647 16.8722C15.0073 16.9716 14.9013 17.0328 14.7865 17.0328C14.6717 17.0326 14.5656 16.9714 14.5082 16.872C14.4169 16.7244 14.2247 16.6759 14.0742 16.7628C13.9238 16.8497 13.8696 17.0404 13.9521 17.1933C14.0685 17.3892 14.2508 17.5371 14.4661 17.6111V17.6754C14.4661 17.8529 14.61 17.9968 14.7876 17.9968C14.965 17.9968 15.1089 17.8529 15.1089 17.6754V17.6162V17.6163C15.3969 17.5148 15.6197 17.2827 15.7091 16.9905C15.7984 16.6985 15.7438 16.3814 15.5619 16.1361C15.3799 15.8908 15.0923 15.7466 14.7869 15.7473C14.6722 15.7473 14.5661 15.686 14.5088 15.5864C14.4515 15.487 14.4516 15.3645 14.509 15.2651C14.5665 15.1657 14.6724 15.1045 14.7873 15.1047C14.902 15.1047 15.0081 15.1659 15.0656 15.2653C15.1569 15.4131 15.3491 15.4614 15.4996 15.3745C15.6499 15.2876 15.7041 15.0969 15.6217 14.944C15.5053 14.7483 15.3234 14.6003 15.1082 14.5262V14.4619C15.1082 14.2844 14.9644 14.1406 14.7869 14.1406C14.6093 14.1406 14.4656 14.2844 14.4656 14.4619L14.4656 14.4619Z" fill="#121243"/>
<path d="M7.71719 4.81852H10.288H10.2879C10.4654 4.81852 10.6093 4.67461 10.6093 4.49722C10.6093 4.31969 10.4654 4.17578 10.2879 4.17578H7.71719C7.53966 4.17578 7.39575 4.31969 7.39575 4.49722C7.39575 4.67461 7.53966 4.81852 7.71719 4.81852H7.71719Z" fill="#121243"/>
<path d="M3.86105 11.5685C3.60538 11.5685 3.36006 11.67 3.1793 11.8508C2.99854 12.0317 2.897 12.2769 2.897 12.5325V12.8702C1.76094 12.9827 0.769867 13.6894 0.293353 14.7268C-0.183161 15.7641 -0.0735354 16.9765 0.581303 17.9116C1.23617 18.8466 2.33793 19.3641 3.47571 19.2709C4.61353 19.1777 5.61645 18.488 6.11042 17.4587C6.46037 18.1899 7.07446 18.7614 7.82883 19.0582C8.58319 19.3549 9.42191 19.3549 10.1763 19.0582C10.9306 18.7614 11.5447 18.1899 11.8947 17.4587C12.3892 18.4863 13.3916 19.1744 14.5281 19.2669C15.6647 19.3592 16.7649 18.8421 17.419 17.9082C18.0732 16.9741 18.1829 15.7633 17.7076 14.7269C17.2322 13.6904 16.2428 12.9838 15.1081 12.8702V12.5325C15.1081 12.2769 15.0066 12.0317 14.8258 11.8508C14.6451 11.67 14.3998 11.5685 14.1441 11.5685H9.31799L9.3157 10.9257H12.2159C12.3864 10.9257 12.5498 10.8581 12.6703 10.7376C12.791 10.6171 12.8586 10.4535 12.8586 10.2831V8.34982C12.8586 8.00902 12.7232 7.68205 12.4822 7.44093C12.241 7.19992 11.9141 7.06447 11.5733 7.06447H10.6092V6.37494C10.778 6.32208 10.9291 6.2235 11.0453 6.09022L12.6264 4.24566C12.7223 4.13295 12.7907 3.99967 12.8265 3.85618H13.18C13.4356 3.85618 13.6809 3.75464 13.8617 3.57388C14.0425 3.39299 14.144 3.14781 14.144 2.89213V0.321302C14.144 0.143908 14.0002 0 13.8227 0C13.6452 0 13.5014 0.143908 13.5014 0.321302V0.70179C13.3984 0.663727 13.2897 0.643823 13.18 0.642749H12.7995C12.7333 0.455401 12.6108 0.293076 12.4488 0.17808C12.2868 0.0630898 12.0932 0.000819438 11.8946 1.0329e-05H6.11031C5.91166 0.000817303 5.71811 0.0630864 5.55605 0.17808C5.39412 0.293069 5.2716 0.455404 5.20541 0.642749H4.82492C4.71518 0.643825 4.6065 0.66373 4.50349 0.70179V0.321302C4.50349 0.143908 4.35971 0 4.18218 0C4.00465 0 3.86088 0.143908 3.86088 0.321302V2.89213C3.86088 3.1478 3.96242 3.39299 4.14318 3.57388C4.32394 3.75464 4.56925 3.85618 4.82493 3.85618H5.17998C5.21521 3.99956 5.28327 4.13284 5.37849 4.24566L6.95918 6.09022H6.95931C7.07565 6.22364 7.22669 6.32222 7.39561 6.37494V7.06461L6.43157 7.06448C6.09076 7.06448 5.76379 7.19991 5.52268 7.44094C5.28167 7.68208 5.14622 8.00903 5.14622 8.34982V10.2831C5.14622 10.4535 5.21387 10.6171 5.33451 10.7376C5.45502 10.8581 5.61843 10.9257 5.78896 10.9257H8.67304L8.67532 11.5685L3.86105 11.5685ZM10.9306 10.2831H7.07442V8.99255H10.9306V10.2831ZM13.5014 1.60673V2.89208C13.5014 2.97735 13.4676 3.05899 13.4073 3.11938C13.347 3.17963 13.2653 3.21339 13.18 3.21339H12.8587V1.2853H13.18C13.2653 1.2853 13.347 1.31919 13.4073 1.37944C13.4676 1.4397 13.5014 1.52147 13.5014 1.60674V1.60673ZM4.50345 2.89208V1.60673C4.50345 1.42921 4.64736 1.2853 4.82489 1.2853H5.14619V3.21339H4.82489C4.64736 3.21339 4.50345 3.06961 4.50345 2.89208V2.89208ZM5.86599 3.82748C5.81637 3.76911 5.78906 3.695 5.78893 3.61834V0.963986C5.78893 0.786457 5.9327 0.642684 6.11023 0.642684H11.8945C11.9798 0.642684 12.0614 0.676441 12.1218 0.736695C12.1821 0.797082 12.2158 0.87872 12.2158 0.963989V3.61835C12.2157 3.69501 12.1884 3.76911 12.1387 3.82748L10.5574 5.67204C10.4963 5.74319 10.4073 5.78421 10.3134 5.78421H7.69133C7.59732 5.78435 7.50815 5.74333 7.44709 5.67204L5.86599 3.82748ZM8.03833 6.42696H9.96642V7.06447H8.03833V6.42696ZM5.78894 8.34995V8.34982C5.78894 8.17941 5.85659 8.01601 5.97709 7.89537C6.0976 7.77487 6.26114 7.70722 6.43154 7.70722H7.69227C7.70034 7.70937 7.70868 7.71112 7.71701 7.71233H10.2878H10.2877C10.2961 7.71112 10.3044 7.70937 10.3125 7.70722H11.5732C11.7436 7.70722 11.9071 7.77487 12.0276 7.89537C12.1481 8.01601 12.2158 8.17942 12.2158 8.34982V10.2831H11.5732V8.99256C11.5732 8.82216 11.5054 8.65861 11.3849 8.53811C11.2644 8.41762 11.1008 8.34982 10.9304 8.34982H7.07427C6.90386 8.34982 6.74032 8.41761 6.61982 8.53811C6.49932 8.65862 6.43153 8.82216 6.43153 8.99256V10.2831H5.78892L5.78894 8.34995ZM3.86085 12.2113H8.67729L8.68092 12.8703C7.56841 12.9846 6.59493 13.6683 6.11008 14.676C5.62524 13.6681 4.65179 12.9845 3.53925 12.8703V12.5326C3.53925 12.3551 3.68316 12.2113 3.86069 12.2113L3.86085 12.2113ZM3.2181 18.638C2.53621 18.638 1.88245 18.3672 1.40029 17.8851C0.918131 17.403 0.647268 16.7491 0.647268 16.0673C0.647268 15.3854 0.918137 14.7315 1.40029 14.2495C1.88245 13.7674 2.53621 13.4965 3.2181 13.4965C3.89999 13.4965 4.55375 13.7674 5.03592 14.2495C5.51808 14.7315 5.78894 15.3854 5.78894 16.0673C5.78813 16.7488 5.51699 17.4023 5.03509 17.8842C4.55307 18.3662 3.89968 18.6374 3.2181 18.6381V18.638ZM9.00238 18.638C8.32049 18.638 7.66673 18.3672 7.18457 17.8851C6.70241 17.403 6.43154 16.7491 6.43154 16.0673C6.43154 15.3854 6.70241 14.7315 7.18457 14.2495C7.66673 13.7674 8.32049 13.4965 9.00238 13.4965C9.68427 13.4965 10.338 13.7674 10.8202 14.2495C11.3024 14.7315 11.5732 15.3854 11.5732 16.0673C11.5724 16.7488 11.3013 17.4023 10.8194 17.8842C10.3373 18.3662 9.68396 18.6374 9.00238 18.6381V18.638ZM17.3576 16.0672V16.0673C17.3576 16.7491 17.0867 17.403 16.6045 17.8851C16.1224 18.3672 15.4686 18.638 14.7867 18.638C14.1048 18.638 13.4511 18.3672 12.9689 17.8851C12.4868 17.403 12.2159 16.7491 12.2159 16.0673C12.2159 15.3854 12.4868 14.7315 12.9689 14.2495C13.4511 13.7674 14.1048 13.4965 14.7867 13.4965C15.4683 13.4973 16.1217 13.7683 16.6037 14.2503C17.0856 14.7322 17.3567 15.3857 17.3576 16.0673V16.0672ZM14.144 12.211C14.2292 12.211 14.311 12.2448 14.3713 12.305C14.4315 12.3654 14.4654 12.4471 14.4654 12.5323V12.87C13.3529 12.9842 12.3794 13.6679 11.8946 14.6757C11.4097 13.6679 10.4363 12.9842 9.32375 12.87L9.32025 12.211L14.144 12.211Z" fill="#121243"/>
</svg>
