<svg width="69" height="87" viewBox="0 0 69 87" fill="none" xmlns="http://www.w3.org/2000/svg">
<g clip-path="url(#clip0_3608_16773)">
<path d="M31.0796 66.229L39.3176 53.2018L42.4745 58.1777C43.9912 60.5683 43.2854 64.2889 40.4495 68.8459L35.8883 76.1719L36.877 71.311C37.4156 68.6644 36.1358 66.9854 33.2529 66.5555L31.0796 66.229Z" fill="#121243"/>
<path d="M17.6038 59.1865L23.5973 44.9861L17.7097 45.2346C14.881 45.3539 12.2292 48.0574 10.1065 52.9872L6.6952 60.9141L10.1219 57.3276C11.9874 55.3745 14.0965 55.4668 16.0952 57.5885L17.6038 59.1865Z" fill="#121243"/>
<path d="M27.5902 72.7912L27.5958 72.7941L28.7078 68.5995L17.0234 62.4923L14.2142 65.7998L14.2197 65.8026C13.4048 66.8232 13.4264 68.3372 14.4778 69.9954C16.3133 72.8869 20.5757 75.1148 24.0005 74.9727C25.9621 74.8894 27.219 74.0401 27.5902 72.7912Z" fill="#121243"/>
<path d="M20.8455 69.4073C24.1002 71.1085 27.5351 70.9642 28.5173 69.0849C29.4996 67.2056 27.6574 64.303 24.4026 62.6018C21.1478 60.9006 17.713 61.0449 16.7307 62.9242C15.7484 64.8035 17.5907 67.7061 20.8455 69.4073Z" fill="#000080"/>
<path d="M14.2164 65.8018C13.4015 66.8223 13.4231 68.3364 14.4745 69.9946C16.31 72.8861 20.5724 75.114 23.9972 74.9719C25.9616 74.8901 27.217 74.0435 27.5869 72.7904L27.9098 71.5936C27.6073 72.7447 26.4476 73.5428 24.62 73.6187C21.2441 73.7617 17.0397 71.5641 15.2272 68.7093C14.2504 67.171 14.2422 65.766 15.0034 64.8617L14.2164 65.8018Z" fill="#121243"/>
<path d="M15.9818 63.7185C15.2222 64.6061 15.2255 65.9734 16.178 67.4707C17.8996 70.183 21.8939 72.2708 25.1009 72.1345C26.8642 72.0602 27.9871 71.2922 28.2891 70.169L28.7066 68.5958C28.4154 69.7388 27.2994 70.5139 25.536 70.5882C22.5385 70.7143 18.8068 68.7638 17.1992 66.2307C16.2536 64.7404 16.2529 63.3816 17.0251 62.4901L15.9818 63.7185Z" fill="#121243"/>
<path opacity="0.1" d="M27.2289 67.8272L26.3443 67.3648C25.9756 68.784 24.9768 72.5802 24.6718 73.4062C24.2977 74.4249 21.3422 74.9284 15.9381 71.7201C18.0813 73.7202 21.2989 75.0853 23.9977 74.972C24.7572 74.9396 25.4086 74.7909 25.9486 74.5523L27.2289 67.8272Z" fill="white"/>
<path d="M20.8455 69.4073C24.1002 71.1085 27.5351 70.9642 28.5173 69.0849C29.4996 67.2056 27.6574 64.303 24.4026 62.6018C21.1478 60.9006 17.713 61.0449 16.7307 62.9242C15.7484 64.8035 17.5907 67.7061 20.8455 69.4073Z" fill="#000080"/>
<path d="M48.8103 44.5078C56.4114 29.9653 56.8346 14.1874 53.7895 8.88983C53.7653 8.84196 53.7383 8.79265 53.7098 8.7461C53.7044 8.73623 53.7018 8.72782 53.6949 8.72072L53.6922 8.71927C53.509 8.42998 53.2567 8.18549 52.9333 8.01645C52.6127 7.84885 52.2651 7.77982 51.9273 7.79328L51.9245 7.79183C51.9133 7.79303 51.9049 7.79566 51.8952 7.79409C51.8407 7.7973 51.7848 7.80327 51.7316 7.81069C45.641 8.33314 32.9266 17.6902 25.3255 32.2327C18.0119 46.2252 15.4514 60.6784 15.2221 62.0261C15.2145 62.0609 15.2111 62.0943 15.2035 62.129C15.0635 63.0905 15.3458 64.227 16.1082 65.428C18.1717 68.678 22.9649 71.1833 26.8113 71.0223C28.2828 70.9608 29.4027 70.515 30.1102 69.8079C31.0928 68.8504 41.4981 58.4975 48.8103 44.5078Z" fill="#000000"/>
<path d="M55.3026 14.1298C55.0173 11.9148 54.4972 10.1155 53.7883 8.88626C53.7641 8.83839 53.7356 8.79184 53.7086 8.74252C53.7017 8.73543 53.6963 8.72556 53.6937 8.71715L53.6909 8.7157C53.5091 8.43062 53.2541 8.18468 52.9334 8.01708C52.61 7.84804 52.2625 7.77901 51.9246 7.79247L51.9218 7.79102C51.9134 7.79366 51.9022 7.79486 51.8925 7.79329C51.8366 7.79926 51.7849 7.80391 51.729 7.80988C50.3135 7.9323 48.5408 8.52961 46.5551 9.56116C45.3962 10.1625 44.1661 10.9133 42.8932 11.8C42.6992 12.6559 42.922 13.6909 43.6234 14.7931C45.3694 17.5463 49.4245 19.6658 52.6818 19.5277C53.9844 19.473 54.9641 19.0665 55.5561 18.4187C55.5589 16.8646 55.4704 15.4246 55.3026 14.1298Z" fill="#000080"/>
<path opacity="0.15" d="M25.326 32.2323C18.0124 46.2247 15.4519 60.6779 15.2226 62.0256C15.215 62.0604 15.2116 62.0938 15.204 62.1285C15.064 63.09 15.3463 64.2265 16.1087 65.4275C16.4573 65.9792 16.8929 66.506 17.382 67.0045C19.0653 59.1246 22.9237 46.2684 29.0165 34.6117C37.4383 18.4991 47.372 9.15618 51.7279 7.81152C45.6415 8.33265 32.9271 17.6897 25.326 32.2323Z" fill="#121243"/>
<path opacity="0.35" d="M48.8107 44.5059C41.4971 58.4983 31.0919 68.8512 30.1162 69.8088C30.092 69.8349 30.0665 69.8567 30.0423 69.8828C29.3328 70.5467 28.2386 70.9636 26.8173 71.0232C33.2718 64.0745 40.8924 55.6624 46.9852 44.0057C55.407 27.8931 55.1711 13.2347 53.7886 8.89062C56.8366 14.1826 56.4119 29.9633 48.8107 44.5059Z" fill="white"/>
<path d="M39.5776 65.7885L39.4263 55.7355L37.9645 55.7985L29.5749 67.0958L30.6399 69.5494C32.0491 72.7989 32.3047 76.4307 31.3671 79.8472L29.6416 86.1178C29.6416 86.1178 32.0489 82.8185 34.9004 78.7905C37.4557 75.1743 39.7839 70.6863 39.5776 65.7885Z" fill="#000080"/>
<path d="M29.5732 67.0908L37.9628 55.7935L38.114 65.8465C38.3203 70.7442 36.4736 75.3009 33.8544 79.4432L29.64 86.1058L31.3655 79.8352C32.3058 76.4201 32.0475 72.7868 30.6383 69.5374L29.5732 67.0908Z" fill="#121243"/>
<path d="M13.1153 51.957L21.4557 46.3425L22.2385 47.5787L17.752 60.916L15.1295 61.4423C11.6571 62.1401 8.52924 64.0035 6.25933 66.7236L2.09579 71.7199C2.09579 71.7199 3.43056 67.86 5.11001 63.2194C6.62041 59.0571 8.97903 54.585 13.1153 51.957Z" fill="#000080"/>
<path d="M17.756 60.9154L22.2425 47.578L13.9021 53.1925C9.76304 55.819 7.07598 59.9365 5.16999 64.4516L2.10547 71.7152L6.26901 66.7189C8.53616 63.9974 11.6668 62.1354 15.1392 61.4375L17.756 60.9154Z" fill="#121243"/>
<path d="M46.0247 33.7231C47.739 31.0142 46.9327 27.4285 44.2238 25.7142C41.5149 23.9999 37.9292 24.8061 36.2149 27.515C34.5006 30.2239 35.3068 33.8096 38.0157 35.524C40.7246 37.2383 44.3103 36.432 46.0247 33.7231Z" fill="#121243"/>
<path d="M38.9825 34.706C41.2404 35.8862 44.0275 35.0125 45.2076 32.7546C46.3878 30.4967 45.5141 27.7096 43.2562 26.5294C40.9983 25.3493 38.2113 26.223 37.0311 28.4809C35.8509 30.7387 36.7246 33.5258 38.9825 34.706Z" fill="#000000"/>
<path opacity="0.7" d="M38.9825 34.706C41.2404 35.8862 44.0275 35.0125 45.2076 32.7546C46.3878 30.4967 45.5141 27.7096 43.2562 26.5294C40.9983 25.3493 38.2113 26.223 37.0311 28.4809C35.8509 30.7387 36.7246 33.5258 38.9825 34.706Z" fill="white"/>
<path d="M38.3447 44.862C37.2857 46.8882 34.7855 47.6719 32.7594 46.6129C30.7332 45.5538 29.9495 43.0537 31.0085 41.0275C32.0676 39.0013 34.5677 38.2176 36.5939 39.2766C38.6201 40.3357 39.4038 42.8358 38.3447 44.862Z" fill="#121243"/>
<path d="M36.9502 44.918C38.0381 43.6613 37.9013 41.7605 36.6445 40.6726C35.3877 39.5847 33.487 39.7216 32.3991 40.9783C31.3111 42.2351 31.448 44.1358 32.7048 45.2238C33.9616 46.3117 35.8623 46.1748 36.9502 44.918Z" fill="#000000"/>
<path opacity="0.7" d="M36.9502 44.918C38.0381 43.6613 37.9013 41.7605 36.6445 40.6726C35.3877 39.5847 33.487 39.7216 32.3991 40.9783C31.3111 42.2351 31.448 44.1358 32.7048 45.2238C33.9616 46.3117 35.8623 46.1748 36.9502 44.918Z" fill="white"/>
</g>
<defs>
<clipPath id="clip0_3608_16773">
<rect width="34.3998" height="80" fill="white" transform="translate(37.686 0.046875) rotate(27.5953)"/>
</clipPath>
</defs>
</svg>
