<svg width="73" height="71" viewBox="0 0 73 71" fill="none" xmlns="http://www.w3.org/2000/svg">
<path d="M54.305 3.31935L52.8827 2.15234L43.1924 16.7113L44.6147 17.8783C46.248 19.2172 49.7438 17.0447 52.419 13.0227C55.0943 9.00069 55.9409 4.65828 54.305 3.31935Z" fill="#3E6F26"/>
<path opacity="0.1" d="M54.305 3.31935L52.8827 2.15234L43.1924 16.7113L44.6147 17.8783C46.248 19.2172 49.7438 17.0447 52.419 13.0227C55.0943 9.0033 55.9409 4.65828 54.305 3.31935Z" fill="#121243"/>
<path d="M51.2512 11.4643C53.8362 7.37792 54.4928 3.15499 52.7177 2.03209C50.9426 0.909196 47.4081 3.31155 44.8231 7.39789C42.2381 11.4842 41.5816 15.7072 43.3567 16.8301C45.1317 17.953 48.6663 15.5506 51.2512 11.4643Z" fill="#3E6F26"/>
<path d="M46.2399 11.817L47.5476 9.85286C47.4147 9.47254 47.4095 9.05836 47.5293 8.61031C47.6492 8.15966 47.8784 7.68296 48.2144 7.175C48.5557 6.66182 48.9073 6.28672 49.272 6.04446C49.6367 5.8048 49.9441 5.7475 50.1994 5.87253L50.5146 5.39844L50.7907 5.62506L50.4755 6.09916C50.637 6.32319 50.6865 6.62536 50.6188 7.00307C50.551 7.38079 50.3791 7.81841 50.1004 8.31335L49.5143 8.0737C49.7305 7.68035 49.8217 7.36776 49.7852 7.13592L48.5661 8.96979C48.7354 9.42305 48.7693 9.85547 48.6625 10.2696C48.5583 10.6838 48.3369 11.1449 48.0008 11.6503C47.6231 12.2155 47.2376 12.6349 46.8416 12.9084C46.4457 13.182 46.094 13.2601 45.7866 13.1455L45.4714 13.6196L45.1953 13.393L45.4949 12.9423C45.3177 12.6974 45.2735 12.3484 45.362 11.8977C45.4506 11.4471 45.6798 10.9 46.0497 10.2514L46.6358 10.5275C46.49 10.7932 46.3832 11.0407 46.3206 11.2673C46.2529 11.4966 46.2269 11.6789 46.2399 11.817ZM49.5169 6.89366C49.3997 6.89366 49.2694 6.95097 49.1261 7.06559C48.9829 7.18021 48.85 7.32608 48.7276 7.50843C48.6182 7.67514 48.5348 7.84446 48.4801 8.01899C48.4254 8.19352 48.4124 8.36024 48.4358 8.51393L49.5169 6.89366ZM46.4743 12.1087C46.5994 12.1426 46.7479 12.0983 46.925 11.9733C47.0995 11.8482 47.2662 11.6685 47.4225 11.4341C47.5606 11.2257 47.657 11.0225 47.7065 10.8297C47.756 10.6369 47.7534 10.452 47.6908 10.2775L46.4743 12.1087Z" fill="white"/>
<path opacity="0.1" d="M52.4564 6.9847C52.6492 5.70828 52.4642 4.68454 51.8521 4.18179C50.5209 3.09033 47.6737 4.86168 45.4934 8.13607C44.4905 9.64432 43.8028 11.2073 43.4824 12.5618C43.7064 11.0666 44.4488 9.22233 45.6237 7.45619C47.804 4.18179 50.6486 2.41044 51.9797 3.50191C52.7039 4.09062 52.8341 5.39569 52.4564 6.9847Z" fill="#121243"/>
<path d="M22.4298 68.2999L24.5163 64.4707L17.0532 57.9297L16.4697 68.2999H22.4298Z" fill="#3E6F26"/>
<path opacity="0.1" d="M22.4298 68.2999L24.5163 64.4707L17.0532 57.9297L16.4697 68.2999H22.4298Z" fill="#121243"/>
<path d="M48.1494 24.6629C52.3355 21.7975 55.8418 22.0919 57.0062 22.9255C58.1732 23.759 54.4716 30.1124 54.4716 30.1124C54.4716 30.1124 50.2125 29.1434 48.1494 24.6629Z" fill="#3E6F26"/>
<path opacity="0.2" d="M50.1426 27.5413C52.4974 25.2255 54.9018 24.4831 55.5556 24.8712C56.2069 25.2594 54.1151 29.7242 54.1151 29.7242C54.1151 29.7242 51.2887 30.1306 50.1426 27.5413Z" fill="#121243"/>
<path d="M11.7781 33.6456L11.541 33.5258C12.187 32.2494 12.9633 31.0173 13.8412 29.8633L14.0548 30.0248C13.1847 31.1657 12.4189 32.3849 11.7781 33.6456Z" fill="#3E6F26"/>
<path d="M10.5349 36.5839L10.2822 36.4979C10.4802 35.917 10.7068 35.3361 10.9517 34.7734L11.1966 34.8802C10.9543 35.4377 10.7329 36.0108 10.5349 36.5839Z" fill="#3E6F26"/>
<path d="M59.2445 43.818C59.2445 56.7515 49.5073 67.2337 35.4511 67.2337C21.3949 67.2337 10.001 56.7489 10.001 43.818C10.001 30.8846 21.3949 20.4023 35.4511 20.4023C49.5073 20.4023 59.2445 30.8846 59.2445 43.818Z" fill="#3E6F26"/>
<path opacity="0.1" d="M32.0595 64.7539L31.041 66.8847C31.7782 67.0046 32.5258 67.0931 33.2839 67.1504L32.0595 64.7539Z" fill="#121243"/>
<path d="M30.5178 69.7304L33.4458 64.4658L24.0811 61.043L22.8828 69.7304H30.5178Z" fill="#3E6F26"/>
<path d="M44.1563 69.7304L41.6191 64.4658L50.5358 61.043L51.1271 69.7304H44.1563Z" fill="#3E6F26"/>
<path opacity="0.2" d="M50.5613 47.2011C50.5613 50.7021 47.4667 53.5389 43.6609 53.5389C39.8577 53.5389 36.7734 50.7021 36.7734 47.2011C36.7734 43.7 39.8577 40.8633 43.6609 40.8633C47.4667 40.8633 50.5613 43.7 50.5613 47.2011Z" fill="#121243"/>
<path opacity="0.2" d="M41.3737 49.2773C42.0197 49.2773 42.5433 48.3023 42.5433 47.0996C42.5433 45.8969 42.0197 44.9219 41.3737 44.9219C40.7278 44.9219 40.2041 45.8969 40.2041 47.0996C40.2041 48.3023 40.7278 49.2773 41.3737 49.2773Z" fill="#121243"/>
<path opacity="0.4" d="M33.0091 35.3807C33.3452 36.4044 33.0352 37.5219 32.3188 37.8736C31.6025 38.2252 30.7481 37.6808 30.412 36.6545C30.076 35.6307 30.386 34.5132 31.1023 34.1616C31.8187 33.8099 32.6731 34.3543 33.0091 35.3807Z" fill="#121243"/>
<path opacity="0.4" d="M51.1501 35.4302C50.8948 36.4539 51.21 37.5584 51.856 37.8944C52.502 38.2305 53.2314 37.673 53.4867 36.6493C53.742 35.6255 53.4268 34.5211 52.7808 34.185C52.1348 33.8464 51.4054 34.4038 51.1501 35.4302Z" fill="#121243"/>
<path opacity="0.2" d="M47.5964 49.2773C48.2423 49.2773 48.766 48.3023 48.766 47.0996C48.766 45.8969 48.2423 44.9219 47.5964 44.9219C46.9504 44.9219 46.4268 45.8969 46.4268 47.0996C46.4268 48.3023 46.9504 49.2773 47.5964 49.2773Z" fill="#121243"/>
<path d="M28.0114 24.4496C23.4762 20.6933 19.4282 20.4015 18.0137 21.084C16.5992 21.7665 20.2566 29.1306 20.2566 29.1306C20.2566 29.1306 25.232 28.8389 28.0114 24.4496Z" fill="#3E6F26"/>
<path opacity="0.2" d="M25.4586 27.1571C22.9709 24.2995 20.2826 23.0986 19.4986 23.3956C18.7145 23.6951 20.702 28.7826 20.702 28.7826C20.702 28.7826 23.9061 29.6995 25.4586 27.1571Z" fill="#121243"/>
<path opacity="0.4" d="M37.1716 22.4364H41.0034C41.0034 22.4364 40.1699 21.5195 37.3409 21.2408C34.9001 21.0011 32.5479 21.5013 32.5479 21.5013C32.5479 21.5013 35.705 21.4309 37.1716 22.4364Z" fill="#121243"/>
<path d="M6.36224 64.0282C6.31014 64.0282 6.26586 63.9866 6.26065 63.9345L6.00276 61.0847C5.98192 60.8476 5.79437 60.6549 5.55471 60.6288L3.31969 60.3813C3.26759 60.3761 3.22852 60.3318 3.22852 60.2797C3.22852 60.2276 3.26759 60.1834 3.31969 60.1781L5.55471 59.9307C5.79176 59.9046 5.98192 59.7119 6.00276 59.4748L6.26065 56.625C6.26586 56.5729 6.31014 56.5312 6.36224 56.5312C6.41695 56.5312 6.46123 56.5729 6.46383 56.625L6.72172 59.4748C6.74256 59.7145 6.93272 59.9046 7.16977 59.9307L9.40219 60.1781C9.45429 60.1834 9.49336 60.2276 9.49336 60.2797C9.49336 60.3318 9.45429 60.3761 9.40219 60.3813L7.16977 60.6288C6.93272 60.6549 6.74256 60.8476 6.72172 61.0847L6.46383 63.9345C6.45862 63.9866 6.41434 64.0282 6.36224 64.0282ZM4.26788 60.2771L5.57555 60.4204C5.91159 60.4569 6.17469 60.7278 6.20595 61.0638L6.35964 62.7753L6.51333 61.0638C6.54459 60.7278 6.80768 60.4569 7.14372 60.4204L8.45139 60.2771L7.14372 60.1313C6.80768 60.0948 6.54459 59.8239 6.51333 59.4878L6.35964 57.7764L6.20595 59.4878C6.17469 59.8239 5.91159 60.0948 5.57555 60.1313L4.26788 60.2771Z" fill="#B0FF8B"/>
<g opacity="0.5">
<path opacity="0.5" d="M9.4938 70.0015C9.4417 70.0015 9.39481 69.9598 9.3922 69.9077L9.21767 67.9671C9.20465 67.8212 9.08743 67.7014 8.94155 67.6857L7.42027 67.5164C7.36818 67.5112 7.3291 67.4669 7.3291 67.4148C7.3291 67.3627 7.36818 67.3184 7.42027 67.3132L8.94155 67.1439C9.08743 67.1283 9.20465 67.0084 9.21767 66.8626L9.3922 64.9219C9.39741 64.8698 9.4417 64.8281 9.4938 64.8281C9.54589 64.8281 9.59278 64.8698 9.59539 64.9219L9.76992 66.8626C9.78294 67.0084 9.90016 67.1283 10.046 67.1439L11.5673 67.3132C11.6194 67.3184 11.6585 67.3627 11.6585 67.4148C11.6585 67.4669 11.6194 67.5112 11.5673 67.5164L10.046 67.6857C9.90016 67.7014 9.78294 67.8212 9.76992 67.9671L9.59539 69.9077C9.59278 69.9598 9.5485 70.0015 9.4938 70.0015ZM8.36847 67.4148L8.96499 67.4799C9.20725 67.506 9.40002 67.704 9.42346 67.9462L9.4964 68.7485L9.56934 67.9462C9.59018 67.7014 9.78294 67.506 10.0278 67.4799L10.6243 67.4148L10.0278 67.3497C9.78555 67.3236 9.59278 67.1257 9.56934 66.8834L9.4964 66.0811L9.42346 66.8834C9.40262 67.1283 9.20986 67.3236 8.96499 67.3497L8.36847 67.4148Z" fill="#B0FF8B"/>
</g>
<path d="M4.01725 36.8128C3.97818 36.8128 3.94692 36.7841 3.94432 36.745L3.76197 34.7106C3.74634 34.5413 3.61349 34.4032 3.44157 34.385L1.84735 34.2078C1.81088 34.2026 1.78223 34.1714 1.78223 34.1349C1.78223 34.0984 1.81088 34.0672 1.84735 34.062L3.44157 33.8848C3.61089 33.8666 3.74634 33.7285 3.76197 33.5592L3.94432 31.5248C3.94692 31.4857 3.98078 31.457 4.01725 31.457C4.05633 31.457 4.08759 31.4857 4.09019 31.5248L4.27254 33.5592C4.28817 33.7285 4.42362 33.8666 4.59294 33.8848L6.18716 34.062C6.22363 34.0672 6.25228 34.0984 6.25228 34.1349C6.25228 34.1714 6.22363 34.2026 6.18716 34.2078L4.59294 34.385C4.42362 34.4032 4.28817 34.5413 4.27254 34.7106L4.09019 36.745C4.08759 36.7841 4.05372 36.8128 4.01725 36.8128ZM2.52463 34.1375L3.45719 34.2417C3.69685 34.2677 3.8844 34.4605 3.90785 34.7002L4.01725 35.9219L4.12666 34.7002C4.1475 34.4605 4.33766 34.2677 4.57731 34.2417L5.50988 34.1375L4.57731 34.0333C4.33766 34.0073 4.1501 33.8145 4.12666 33.5748L4.01725 32.3531L3.90785 33.5748C3.88701 33.8145 3.69685 34.0073 3.45719 34.0333L2.52463 34.1375Z" fill="#B0FF8B"/>
<g opacity="0.5">
<path opacity="0.5" d="M1.26078 39.8798C1.22953 39.8798 1.20348 39.8563 1.20087 39.8251L1.09928 38.6945C1.09146 38.6086 1.02374 38.5409 0.937774 38.5304L0.0520987 38.4314C0.0208396 38.4288 0 38.4028 0 38.3715C0 38.3403 0.0234445 38.3142 0.0520987 38.3116L0.937774 38.2126C1.02374 38.2022 1.09146 38.1345 1.09928 38.0485L1.20087 36.918C1.20348 36.8867 1.22953 36.8633 1.26078 36.8633C1.29204 36.8633 1.31809 36.8867 1.3207 36.918L1.42229 38.0485C1.43011 38.1345 1.49783 38.2022 1.5838 38.2126L2.46947 38.3116C2.50073 38.3142 2.52157 38.3403 2.52157 38.3715C2.52157 38.4028 2.49812 38.4288 2.46947 38.4314L1.5838 38.5304C1.49783 38.5409 1.43011 38.6086 1.42229 38.6945L1.3207 39.8251C1.31809 39.8563 1.29204 39.8798 1.26078 39.8798ZM0.604343 38.3715L0.950798 38.4106C1.09146 38.4262 1.20608 38.5409 1.21911 38.6841L1.26078 39.153L1.30246 38.6841C1.31549 38.5409 1.4275 38.4262 1.57077 38.4106L1.91723 38.3715L1.57077 38.3325C1.43011 38.3168 1.31549 38.2022 1.30246 38.0589L1.26078 37.5901L1.21911 38.0589C1.20608 38.2022 1.09407 38.3168 0.950798 38.3325L0.604343 38.3715Z" fill="#B0FF8B"/>
</g>
<path d="M61.2582 65.5134C61.2165 65.5134 61.1827 65.4822 61.1774 65.4405L60.9769 63.2081C60.9612 63.0205 60.8128 62.8694 60.6252 62.8486L58.8747 62.6558C58.833 62.6506 58.8018 62.6168 58.8018 62.5751C58.8018 62.5334 58.833 62.4995 58.8747 62.4943L60.6252 62.3016C60.8128 62.2807 60.9586 62.1296 60.9769 61.9447L61.1774 59.7097C61.1801 59.668 61.2165 59.6367 61.2582 59.6367C61.2999 59.6367 61.3337 59.668 61.339 59.7097L61.5395 61.9447C61.5552 62.1322 61.7036 62.2833 61.8912 62.3016L63.6417 62.4943C63.6834 62.4995 63.7146 62.5334 63.7146 62.5751C63.7146 62.6168 63.6834 62.6506 63.6417 62.6558L61.8912 62.8486C61.7036 62.8694 61.5578 63.0205 61.5395 63.2081L61.339 65.4405C61.3337 65.4822 61.2999 65.5134 61.2582 65.5134ZM59.6171 62.5751L60.6434 62.6871C60.9065 62.7157 61.1123 62.9293 61.1384 63.1924L61.2582 64.534L61.378 63.1924C61.4015 62.9293 61.6099 62.7183 61.873 62.6871L62.8993 62.5751L61.873 62.4605C61.6099 62.4318 61.4041 62.2208 61.378 61.9577L61.2582 60.6162L61.1384 61.9577C61.1149 62.2208 60.9065 62.4318 60.6434 62.4605L59.6171 62.5751Z" fill="#B0FF8B"/>
<g opacity="0.5">
<path opacity="0.5" d="M67.3367 61.6833C67.3028 61.6833 67.2742 61.6572 67.2715 61.6233L67.1595 60.3808C67.1517 60.287 67.0762 60.2115 66.9824 60.2011L66.0082 60.0943C65.9743 60.0916 65.9482 60.063 65.9482 60.0291C65.9482 59.9953 65.9743 59.9666 66.0082 59.964L66.9824 59.8572C67.0762 59.8468 67.1517 59.7712 67.1595 59.6775L67.2715 58.4349C67.2742 58.4011 67.3028 58.375 67.3367 58.375C67.3705 58.375 67.3992 58.4011 67.4018 58.4349L67.5138 59.6775C67.5216 59.7712 67.5972 59.8468 67.6909 59.8572L68.6652 59.964C68.6991 59.9666 68.7225 59.9953 68.7225 60.0291C68.7225 60.063 68.6964 60.0916 68.6652 60.0943L67.6909 60.2011C67.5972 60.2115 67.5216 60.287 67.5138 60.3808L67.4018 61.6233C67.3992 61.6572 67.3705 61.6833 67.3367 61.6833ZM66.6151 60.0265L66.9954 60.0682C67.1517 60.0864 67.2742 60.2115 67.2898 60.3678L67.3367 60.8809L67.3836 60.3678C67.3966 60.2115 67.5216 60.0864 67.6779 60.0682L68.0582 60.0265L67.6779 59.9849C67.5216 59.9666 67.3992 59.8416 67.3836 59.6853L67.3367 59.1721L67.2898 59.6853C67.2768 59.8416 67.1517 59.9666 66.9954 59.9849L66.6151 60.0265Z" fill="#B0FF8B"/>
</g>
<g opacity="0.5">
<path opacity="0.5" d="M63.7324 56.5771C63.6777 56.5771 63.6308 56.5354 63.6282 56.4807L63.4485 54.4853C63.4355 54.3342 63.3156 54.2118 63.1645 54.1962L61.6016 54.0242C61.5469 54.019 61.5078 53.9721 61.5078 53.92C61.5078 53.8653 61.5495 53.8211 61.6016 53.8159L63.1645 53.6439C63.3156 53.6283 63.4355 53.5059 63.4485 53.3548L63.6282 51.362C63.6334 51.3073 63.6777 51.2656 63.7324 51.2656C63.7871 51.2656 63.834 51.3073 63.8366 51.362L64.0164 53.3574C64.0294 53.5085 64.1492 53.6309 64.3003 53.6465L65.8632 53.8184C65.918 53.8237 65.957 53.8706 65.957 53.9227C65.957 53.9774 65.9153 54.0216 65.8632 54.0268L64.3003 54.1988C64.1492 54.2144 64.0294 54.3368 64.0164 54.4879L63.8366 56.4807C63.834 56.5354 63.7871 56.5771 63.7324 56.5771ZM62.5758 53.92L63.188 53.9878C63.4381 54.0164 63.636 54.217 63.6595 54.4671L63.735 55.2928L63.808 54.4671C63.8314 54.217 64.0294 54.0138 64.2795 53.9852L64.8916 53.9174L64.2795 53.8497C64.0294 53.8211 63.8314 53.6205 63.808 53.3704L63.735 52.5446L63.6595 53.3704C63.636 53.6205 63.4381 53.8237 63.188 53.8523L62.5758 53.92Z" fill="#B0FF8B"/>
</g>
<path d="M69.3111 39.1726C69.2616 39.1726 69.2225 39.1361 69.2173 39.0866L68.9802 36.4687C68.9594 36.2499 68.7875 36.0727 68.5687 36.0493L66.516 35.8226C66.4691 35.8174 66.4326 35.7758 66.4326 35.7289C66.4326 35.6794 66.4691 35.6403 66.516 35.6351L68.5687 35.4085C68.7875 35.385 68.9594 35.2079 68.9802 34.9891L69.2173 32.3711C69.2225 32.3216 69.2616 32.2852 69.3111 32.2852C69.3606 32.2852 69.3996 32.3216 69.4048 32.3711L69.6419 34.9891C69.6627 35.2079 69.8346 35.385 70.0535 35.4085L72.1061 35.6351C72.153 35.6403 72.1895 35.682 72.1895 35.7289C72.1895 35.7784 72.153 35.8174 72.1061 35.8226L70.0535 36.0493C69.8346 36.0727 69.6601 36.2499 69.6419 36.4687L69.4048 39.0866C69.3996 39.1335 69.3606 39.1726 69.3111 39.1726ZM67.3886 35.7263L68.5895 35.8591C68.8969 35.893 69.1391 36.1404 69.1678 36.4504L69.3085 38.0238L69.4491 36.4504C69.4778 36.1431 69.72 35.893 70.0274 35.8591L71.2283 35.7263L70.0274 35.5934C69.72 35.5595 69.4752 35.3121 69.4491 35.0021L69.3085 33.4287L69.1678 35.0021C69.1391 35.3095 68.8969 35.5595 68.5895 35.5934L67.3886 35.7263Z" fill="#B0FF8B"/>
<g opacity="0.5">
<path opacity="0.5" d="M65.5818 32.5975C65.5428 32.5975 65.5089 32.5662 65.5037 32.5272L65.3735 31.071C65.363 30.9616 65.2771 30.873 65.1677 30.86L64.0267 30.735C63.9876 30.7298 63.959 30.6985 63.959 30.6568C63.959 30.6177 63.9876 30.5839 64.0267 30.5813L65.1677 30.4562C65.2771 30.4432 65.3656 30.3546 65.3735 30.2452L65.5037 28.7891C65.5063 28.75 65.5402 28.7188 65.5818 28.7188C65.6209 28.7188 65.6548 28.75 65.66 28.7891L65.7902 30.2452C65.8007 30.3546 65.8866 30.4432 65.9986 30.4562L67.1396 30.5813C67.1787 30.5865 67.2073 30.6177 67.2073 30.6568C67.2073 30.6959 67.1787 30.7298 67.1396 30.735L65.9986 30.86C65.8892 30.873 65.8007 30.9616 65.7902 31.071L65.66 32.5272C65.6548 32.5662 65.6209 32.5975 65.5818 32.5975ZM64.7352 30.6568L65.1833 30.7063C65.3656 30.7271 65.5115 30.873 65.5271 31.058L65.5818 31.6597L65.6366 31.058C65.6522 30.8756 65.7981 30.7271 65.9804 30.7063L66.4284 30.6568L65.9804 30.6073C65.7981 30.5865 65.6522 30.4406 65.6366 30.2557L65.5818 29.6539L65.5271 30.2557C65.5115 30.438 65.3656 30.5865 65.1833 30.6073L64.7352 30.6568Z" fill="#B0FF8B"/>
</g>
<path d="M12.2355 17.5801C12.1886 17.5801 12.1495 17.5436 12.1443 17.4967L11.9177 14.9725C11.8995 14.7615 11.7328 14.5922 11.5218 14.5688L9.54462 14.35C9.49773 14.3447 9.46387 14.3057 9.46387 14.2588C9.46387 14.2119 9.49773 14.1728 9.54462 14.1676L11.5218 13.9488C11.7328 13.9253 11.8995 13.756 11.9177 13.545L12.1443 11.0209C12.1495 10.974 12.1886 10.9375 12.2355 10.9375C12.2824 10.9375 12.3215 10.974 12.3267 11.0209L12.5533 13.545C12.5715 13.756 12.7383 13.9253 12.9493 13.9488L14.9264 14.1676C14.9733 14.1728 15.0071 14.2119 15.0071 14.2588C15.0071 14.3057 14.9733 14.3447 14.9264 14.35L12.9493 14.5688C12.7383 14.5922 12.5715 14.7615 12.5533 14.9725L12.3267 17.4967C12.3241 17.5462 12.2824 17.5801 12.2355 17.5801ZM10.3834 14.2614L11.5426 14.389C11.8396 14.4229 12.074 14.6599 12.1001 14.9595L12.2355 16.4756L12.371 14.9595C12.397 14.6625 12.6315 14.4229 12.9284 14.389L14.0876 14.2614L12.9284 14.1337C12.6315 14.0999 12.397 13.8628 12.371 13.5633L12.2355 12.0472L12.1001 13.5633C12.074 13.8602 11.8396 14.0999 11.5426 14.1337L10.3834 14.2614Z" fill="#B0FF8B"/>
<g opacity="0.5">
<path opacity="0.5" d="M9.46432 24.3383C9.42524 24.3383 9.39399 24.3097 9.39138 24.2706L9.26634 22.8848C9.25592 22.7806 9.17517 22.6946 9.06837 22.6842L7.98212 22.5644C7.94565 22.5592 7.91699 22.5279 7.91699 22.4914C7.91699 22.455 7.94565 22.4237 7.98212 22.4185L9.06837 22.2987C9.17257 22.2882 9.25592 22.2023 9.26634 22.0981L9.39138 20.7123C9.39399 20.6732 9.42785 20.6445 9.46432 20.6445C9.50339 20.6445 9.53465 20.6732 9.53726 20.7123L9.66229 22.0981C9.67271 22.2023 9.75346 22.2882 9.86027 22.2987L10.9465 22.4185C10.983 22.4237 11.0116 22.455 11.0116 22.4914C11.0116 22.5279 10.983 22.5592 10.9465 22.5644L9.86027 22.6842C9.75607 22.6946 9.67271 22.7806 9.66229 22.8848L9.53726 24.2706C9.53205 24.3097 9.50079 24.3383 9.46432 24.3383ZM8.6594 22.4888L9.084 22.5357C9.25853 22.5539 9.39659 22.6946 9.41222 22.8691L9.46432 23.4448L9.51642 22.8691C9.53205 22.6946 9.67011 22.5539 9.84464 22.5357L10.2692 22.4888L9.84464 22.4419C9.67011 22.4237 9.53205 22.283 9.51642 22.1085L9.46432 21.5328L9.41222 22.1085C9.39659 22.283 9.25853 22.4237 9.084 22.4419L8.6594 22.4888Z" fill="#B0FF8B"/>
</g>
<g opacity="0.5">
<path opacity="0.5" d="M18.4983 18.6993C18.4488 18.6993 18.4071 18.6603 18.4019 18.6108L18.2378 16.7951C18.2248 16.6571 18.118 16.5477 17.9799 16.532L16.5576 16.3757C16.5081 16.3705 16.4717 16.3288 16.4717 16.2794C16.4717 16.2299 16.5081 16.1882 16.5576 16.183L17.9799 16.0267C18.118 16.011 18.2248 15.9016 18.2378 15.7636L18.4019 13.9479C18.4071 13.8984 18.4488 13.8594 18.4983 13.8594C18.5478 13.8594 18.5895 13.8984 18.5947 13.9479L18.7588 15.7636C18.7718 15.9016 18.8786 16.011 19.0167 16.0267L20.439 16.183C20.4885 16.1882 20.5249 16.2299 20.5249 16.2794C20.5249 16.3288 20.4885 16.3705 20.439 16.3757L19.0167 16.532C18.8786 16.5477 18.7718 16.6571 18.7588 16.7951L18.5947 18.6108C18.5895 18.6603 18.5478 18.6993 18.4983 18.6993ZM17.4459 16.2794L18.0034 16.3419C18.23 16.3679 18.4123 16.5503 18.4332 16.7795L18.5009 17.5323L18.5686 16.7795C18.5895 16.5503 18.7692 16.3679 18.9959 16.3419L19.5533 16.2794L18.9959 16.2168C18.7692 16.1908 18.5869 16.0084 18.5686 15.7792L18.5009 15.0264L18.4332 15.7792C18.4123 16.0084 18.2326 16.1908 18.0034 16.2168L17.4459 16.2794Z" fill="#B0FF8B"/>
</g>
<g opacity="0.5">
<path opacity="0.5" d="M27.323 9.54393C27.2891 9.54393 27.2605 9.51788 27.2579 9.48402L27.1459 8.24668C27.138 8.1529 27.0625 8.07736 26.9687 8.06694L25.9997 7.96014C25.9658 7.95753 25.9424 7.92888 25.9424 7.89501C25.9424 7.86115 25.9684 7.83249 25.9997 7.82989L26.9687 7.72309C27.0625 7.71267 27.1354 7.63712 27.1459 7.54335L27.2579 6.30601C27.2605 6.27214 27.2891 6.24609 27.323 6.24609C27.3569 6.24609 27.3855 6.27214 27.3881 6.30601L27.5001 7.54335C27.5079 7.63712 27.5835 7.71267 27.6773 7.72309L28.6463 7.82989C28.6802 7.83249 28.7036 7.86115 28.7036 7.89501C28.7036 7.92888 28.6776 7.95753 28.6463 7.96014L27.6773 8.06694C27.5835 8.07736 27.5106 8.1529 27.5001 8.24668L27.3881 9.48402C27.3855 9.51788 27.3569 9.54393 27.323 9.54393ZM26.6066 7.89501L26.987 7.93669C27.1433 7.95493 27.2657 8.07996 27.2787 8.23365L27.3256 8.74682L27.3725 8.23365C27.3855 8.07736 27.5106 7.95232 27.6642 7.93409L28.0446 7.89241L27.6642 7.85073C27.5079 7.83249 27.3855 7.70746 27.3725 7.55377L27.3256 7.0406L27.2787 7.55377C27.2657 7.71006 27.1407 7.8351 26.987 7.85333L26.6066 7.89501Z" fill="#B0FF8B"/>
</g>
<g opacity="0.5">
<path opacity="0.5" d="M32.0022 12.633C31.9501 12.633 31.9085 12.5939 31.9032 12.5444L31.7365 10.6871C31.7235 10.5464 31.6115 10.4318 31.4734 10.4188L30.0173 10.2573C29.9678 10.2521 29.9287 10.2104 29.9287 10.1583C29.9287 10.1062 29.9652 10.0671 30.0173 10.0593L31.4734 9.89778C31.6141 9.88215 31.7261 9.77014 31.7365 9.62947L31.9032 7.77216C31.9085 7.72006 31.9501 7.68359 32.0022 7.68359C32.0543 7.68359 32.096 7.72267 32.1012 7.77216L32.2679 9.62947C32.281 9.77014 32.393 9.88476 32.531 9.89778L33.9872 10.0593C34.0367 10.0645 34.0758 10.1062 34.0758 10.1583C34.0758 10.2104 34.0393 10.2494 33.9872 10.2573L32.531 10.4188C32.3904 10.4344 32.2784 10.5464 32.2679 10.6871L32.1012 12.5444C32.096 12.5965 32.0517 12.633 32.0022 12.633ZM30.9238 10.1583L31.4943 10.2208C31.7261 10.2468 31.9111 10.4344 31.9319 10.6688L32.0022 11.4373L32.0726 10.6688C32.0934 10.4344 32.2784 10.2468 32.5102 10.2208L33.0807 10.1583L32.5102 10.0958C32.2784 10.0697 32.0934 9.88215 32.0726 9.64771L32.0022 8.87925L31.9319 9.64771C31.9111 9.88215 31.7261 10.0697 31.4943 10.0958L30.9238 10.1583Z" fill="#B0FF8B"/>
</g>
<path d="M59.8802 17.245C59.8437 17.245 59.8151 17.2163 59.8098 17.1825L59.6353 15.2548C59.6197 15.0933 59.4946 14.9631 59.3331 14.9448L57.8223 14.7781C57.7884 14.7755 57.7598 14.7442 57.7598 14.7078C57.7598 14.6713 57.7858 14.6426 57.8223 14.6374L59.3331 14.4707C59.4946 14.4525 59.6223 14.3222 59.6353 14.1607L59.8098 12.2305C59.8124 12.194 59.8437 12.168 59.8802 12.168C59.9166 12.168 59.9453 12.1966 59.9505 12.2305L60.125 14.1607C60.1407 14.3222 60.2683 14.4525 60.4272 14.4707L61.9381 14.6374C61.9745 14.64 62.0006 14.6713 62.0006 14.7078C62.0006 14.7442 61.9745 14.7729 61.9381 14.7781L60.4272 14.9448C60.2657 14.9631 60.1381 15.0933 60.125 15.2548L59.9505 17.1825C59.9453 17.2163 59.9166 17.245 59.8802 17.245ZM58.4631 14.7052L59.3488 14.8042C59.5754 14.8302 59.7551 15.0125 59.776 15.2392L59.8802 16.3984L59.9844 15.2392C60.0052 15.0125 60.185 14.8302 60.4116 14.8042L61.2973 14.7052L60.4116 14.6062C60.185 14.5801 60.0052 14.3978 59.9844 14.1712L59.8802 13.012L59.776 14.1712C59.7551 14.3978 59.5754 14.5801 59.3488 14.6062L58.4631 14.7052Z" fill="#B0FF8B"/>
<g opacity="0.5">
<path opacity="0.5" d="M64.6405 14.3067C64.5936 14.3067 64.5519 14.2702 64.5467 14.2233L64.3149 11.6522C64.2966 11.436 64.1247 11.2641 63.9111 11.2407L61.8949 11.0192C61.848 11.014 61.8115 10.975 61.8115 10.9281C61.8115 10.8812 61.848 10.8421 61.8949 10.8369L63.9111 10.6129C64.1247 10.5894 64.2966 10.4149 64.3149 10.2013L64.5467 7.63023C64.5519 7.58334 64.591 7.54688 64.6405 7.54688C64.6874 7.54688 64.729 7.58334 64.7316 7.63023L64.9635 10.2013C64.9817 10.4175 65.1536 10.5894 65.3672 10.6129L67.3835 10.8369C67.4303 10.8421 67.4668 10.8812 67.4668 10.9281C67.4668 10.975 67.4303 11.014 67.3835 11.0192L65.3672 11.2407C65.1536 11.2641 64.9817 11.4386 64.9635 11.6522L64.7343 14.2233C64.729 14.2702 64.69 14.3067 64.6405 14.3067ZM62.7519 10.9229L63.9319 11.0531C64.2341 11.087 64.4738 11.3318 64.4998 11.634L64.6405 13.1787L64.7785 11.634C64.8072 11.3318 65.0442 11.087 65.3464 11.0531L66.5264 10.9229L65.3464 10.7926C65.0442 10.7587 64.8046 10.5165 64.7785 10.2117L64.6405 8.66699L64.4998 10.2117C64.4738 10.5139 64.2341 10.7587 63.9319 10.7926L62.7519 10.9229Z" fill="#B0FF8B"/>
</g>
</svg>
