<svg width="50" height="50" viewBox="0 0 50 50" fill="none" xmlns="http://www.w3.org/2000/svg">
<circle cx="25" cy="25" r="25" fill="#F3FBF9"/>
<path d="M36.9996 23.0492C36.9967 22.7458 36.7366 22.4568 36.4216 22.4712C36.1124 22.4857 35.8378 22.7255 35.8436 23.0492C35.8465 23.1937 35.8436 23.3382 35.8349 23.4855C35.832 23.552 35.8263 23.6185 35.8205 23.6849C35.8176 23.7081 35.8147 23.7312 35.8118 23.7572C35.832 23.6474 35.7974 23.8901 35.8118 23.763V23.7572C35.7743 23.9797 35.7251 24.1964 35.65 24.4074C35.6471 24.419 35.6413 24.4305 35.6384 24.4421V24.445C35.6327 24.4594 35.6269 24.4767 35.6211 24.4912C35.6153 24.5085 35.6066 24.5172 35.6038 24.5201C35.598 24.5345 35.5922 24.549 35.5835 24.5606C35.5402 24.6444 35.4939 24.7253 35.4419 24.8004C35.439 24.8062 35.4333 24.812 35.4304 24.8177C35.4275 24.8264 35.4188 24.8409 35.4073 24.8553C35.3986 24.864 35.3928 24.8726 35.3841 24.8842C35.3812 24.8871 35.3784 24.8929 35.3784 24.8958C35.3812 24.8929 35.3812 24.8871 35.3841 24.8842C35.3812 24.8871 35.3812 24.89 35.3784 24.8929C35.3263 24.9536 35.2685 25.0114 35.2107 25.0663C35.1876 25.0865 35.1645 25.1067 35.1443 25.1241C35.1472 25.1212 35.1501 25.1212 35.153 25.1183C35.2599 25.046 35.0374 25.2165 35.1385 25.1298C35.1414 25.1269 35.1443 25.1269 35.1443 25.1241C35.0865 25.1645 35.0316 25.2021 34.9709 25.2339C34.9218 25.2628 34.8698 25.2888 34.8177 25.3148C34.8264 25.3119 34.8322 25.309 34.8409 25.3061C34.8871 25.2888 34.7715 25.3408 34.7657 25.3408C34.7686 25.3379 34.7802 25.3321 34.8062 25.3206C34.8091 25.3177 34.8149 25.3177 34.8177 25.3148C34.7946 25.3234 34.7715 25.3321 34.7484 25.3408C34.6444 25.3784 34.5374 25.4073 34.4276 25.4275C34.4218 25.4275 34.4161 25.4304 34.4074 25.4304V25.4333C34.4161 25.4333 34.4218 25.4333 34.4305 25.4304C34.4218 25.4304 34.4161 25.4304 34.4074 25.4333C34.3872 25.4333 34.3727 25.4361 34.3583 25.4361C34.3756 25.4333 34.3929 25.4333 34.4074 25.4304C34.2282 23.5636 33.2082 21.8528 31.7892 20.6275C30.8877 19.8502 29.856 19.252 28.755 18.8127C28.7521 18.963 28.7405 19.1133 28.7232 19.2636C28.7059 19.4109 28.6827 19.5554 28.6538 19.6999C28.6481 19.7317 28.6423 19.7606 28.6336 19.7924C28.5007 20.3905 28.2435 20.9772 27.8881 21.48C27.8736 21.4974 27.8621 21.5176 27.8505 21.5349C28.1626 21.5494 28.388 21.8066 28.4024 22.1129C28.4169 22.425 28.1279 22.6909 27.8244 22.6909H26.4923C26.0819 22.7054 25.6658 22.6909 25.2554 22.6909H21.4207C21.3803 22.6909 21.3398 22.6938 21.2994 22.6909H19.9672C19.6435 22.6909 19.4037 22.425 19.3892 22.1129C19.3747 21.8095 19.6493 21.5494 19.9411 21.5349C19.7244 21.2286 19.5423 20.8963 19.3979 20.5466C19.2245 20.1305 19.1118 19.6884 19.0626 19.2347C19.0395 19.0324 19.0308 18.8301 19.0337 18.625C19.0366 18.4429 19.0482 18.258 19.0742 18.0759C19.0626 18.0672 19.054 18.0585 19.0424 18.047C18.7303 17.7638 18.4298 17.4517 18.0917 17.2003C17.7391 16.9373 17.2276 16.9316 16.8664 17.1858C16.5601 17.4026 16.3954 17.732 16.3925 18.1048C16.3896 18.5412 16.3925 18.9776 16.3925 19.411V20.5178C15.4302 21.3211 14.6441 22.3239 14.1471 23.474C13.7368 23.4711 13.3322 23.4798 12.9479 23.6647C12.3237 23.9682 12 24.6213 12 25.2917V26.6268C12 26.8319 12.0029 27.0342 12.0491 27.2394C12.1445 27.644 12.393 27.9908 12.7224 28.2335C13.1472 28.5513 13.6443 28.5658 14.1471 28.5629C14.7568 29.976 15.7972 31.1377 17.0484 32.0249C16.8981 32.4179 16.745 32.808 16.5947 33.201C16.5109 33.4178 16.404 33.6345 16.3809 33.8657C16.352 34.1662 16.4791 34.4783 16.7074 34.6719C16.8259 34.7731 16.9588 34.8309 17.1004 34.8858C17.6524 35.0996 18.2044 35.3106 18.7563 35.5244C18.9701 35.6082 19.184 35.7123 19.418 35.7123C19.7475 35.7123 20.0624 35.536 20.2387 35.2614C20.2994 35.1661 20.337 35.0563 20.3774 34.9494C20.5335 34.5419 20.6924 34.1373 20.8484 33.7299C22.5476 34.1576 24.3393 34.2125 26.0703 33.9524C26.4488 33.8946 26.8245 33.8223 27.1973 33.7299C27.3331 34.0824 27.4689 34.4378 27.6076 34.7904C27.729 35.1054 27.8388 35.4175 28.1567 35.5938C28.4803 35.7729 28.8011 35.7151 29.119 35.5909C29.6854 35.3712 30.2547 35.1516 30.8211 34.9349C30.8818 34.9118 30.9424 34.8887 31.006 34.8626C31.2863 34.7499 31.4973 34.565 31.61 34.276C31.7285 33.9639 31.6389 33.6865 31.5291 33.4004C31.3528 32.9438 31.1765 32.4844 31.0002 32.0277C32.8092 30.7447 34.1935 28.8432 34.4044 26.5977C34.6125 26.5775 34.8205 26.5284 35.0084 26.4677C35.7424 26.2278 36.3435 25.699 36.6527 24.9881C36.9185 24.3755 37.0081 23.7167 36.9994 23.0491L36.9996 23.0492ZM17.1586 25.2079C16.7222 25.2079 16.3697 24.8553 16.3697 24.4189C16.3697 23.9826 16.7222 23.63 17.1586 23.63C17.595 23.63 17.9475 23.9826 17.9475 24.4189C17.9475 24.8524 17.5921 25.2079 17.1586 25.2079Z" fill="#40BF95"/>
<path d="M27.5653 18.2319C27.5798 18.3937 27.5914 18.5527 27.5914 18.7145C27.5914 18.8185 27.5885 18.9226 27.5798 19.0266C27.5769 19.067 27.574 19.1075 27.5682 19.148C27.5682 19.1537 27.5653 19.1711 27.5653 19.1884V19.1913V19.1942C27.5625 19.2173 27.5567 19.2578 27.5538 19.2664C27.5451 19.3098 27.5393 19.356 27.5307 19.3994C27.5162 19.4745 27.4989 19.5467 27.4815 19.619C27.444 19.7721 27.3949 19.9195 27.3399 20.0669C27.3313 20.09 27.3255 20.1131 27.3139 20.1363C27.3082 20.1449 27.3024 20.1565 27.2966 20.1738C27.2648 20.2461 27.2272 20.3212 27.1897 20.3906C27.1232 20.5206 27.0481 20.6478 26.9672 20.7691C26.9238 20.8356 26.8747 20.8992 26.8285 20.9656C26.8285 20.9685 26.8256 20.9685 26.8256 20.9714C26.8025 21.0003 26.7793 21.0263 26.7591 21.0523C26.6146 21.2228 26.4557 21.3846 26.2881 21.5291H21.4997C21.335 21.3875 21.1818 21.2315 21.0402 21.0639C21.02 21.0408 21.0027 21.0176 20.9853 20.9974C20.9796 20.9916 20.9767 20.9859 20.9738 20.983C20.9738 20.9801 20.9709 20.9801 20.9709 20.9772C20.9275 20.9165 20.8842 20.8587 20.8437 20.798C20.7628 20.6766 20.6848 20.5495 20.6183 20.4195C20.5837 20.353 20.5519 20.2865 20.5201 20.2201C20.5143 20.2114 20.5027 20.1796 20.4912 20.1594C20.4912 20.1594 20.4883 20.1565 20.4883 20.1536C20.4825 20.1392 20.4767 20.1247 20.471 20.1131C20.4103 19.96 20.3611 19.8039 20.3178 19.6421C20.2802 19.5005 20.2571 19.3618 20.2311 19.2173V19.2115C20.2282 19.1797 20.2224 19.1451 20.2196 19.1133C20.2109 19.015 20.2051 18.9139 20.2022 18.8156C20.1993 18.6711 20.2022 18.5266 20.2138 18.3822C20.2167 18.3619 20.2138 18.2984 20.2167 18.2492C20.2167 18.255 20.2224 18.2492 20.2282 18.2203C20.2369 18.1683 20.2456 18.1163 20.2542 18.0643C20.3034 17.81 20.3727 17.5615 20.4652 17.3187C20.4681 17.3101 20.4825 17.2581 20.4854 17.2465C20.4854 17.2523 20.4825 17.261 20.4767 17.2783C20.4536 17.3679 20.4854 17.2581 20.4941 17.2407C20.5201 17.1829 20.5461 17.1251 20.575 17.0673C20.6386 16.9431 20.7079 16.8217 20.7802 16.7032C20.812 16.6541 20.8409 16.6079 20.8755 16.5616C20.8929 16.5356 20.9131 16.5096 20.9304 16.4836C20.9362 16.4749 20.9651 16.4229 20.968 16.42C20.968 16.4229 20.9622 16.4316 20.9536 16.4518C20.9131 16.5327 20.9651 16.4374 20.9796 16.42C20.9969 16.3998 21.0114 16.3825 21.0287 16.3622C21.0778 16.3044 21.1269 16.2466 21.179 16.1917C21.2657 16.0993 21.3552 16.0126 21.4477 15.9259C21.4939 15.8825 21.5431 15.8421 21.5922 15.8016C21.6124 15.7843 21.6327 15.7698 21.65 15.7554C21.6558 15.7525 21.6616 15.7467 21.6673 15.7438C21.8812 15.5935 22.0979 15.4577 22.3349 15.3421C22.3638 15.3277 22.4042 15.3017 22.4447 15.2843C22.4505 15.2843 22.462 15.2843 22.4765 15.2786C22.514 15.2641 22.5487 15.2497 22.5834 15.2381C22.7105 15.1919 22.8406 15.1514 22.9706 15.1167C23.092 15.0849 23.2105 15.0589 23.3347 15.0387C23.3463 15.0358 23.3607 15.0329 23.3752 15.03C23.3781 15.03 23.3896 15.03 23.4157 15.0271C23.4966 15.0185 23.5746 15.0127 23.6555 15.0069C23.7913 14.9982 23.9243 14.9982 24.0601 15.004C24.1265 15.0069 24.193 15.0098 24.2624 15.0156C24.2884 15.0185 24.3144 15.0214 24.3433 15.0243C24.3693 15.0271 24.3953 15.03 24.4213 15.0329C24.3953 15.03 24.3722 15.0271 24.3462 15.0214C24.3982 15.0098 24.4878 15.0445 24.5398 15.0532C24.6033 15.0647 24.6669 15.0792 24.7305 15.0936C24.8692 15.1254 25.005 15.1659 25.1408 15.2121C25.2015 15.2323 25.2622 15.2554 25.32 15.2786C25.3431 15.2872 25.3547 15.2901 25.3576 15.293C25.372 15.3017 25.3836 15.3075 25.3951 15.3132C25.5107 15.3652 25.6234 15.4259 25.7332 15.4866C25.8431 15.5502 25.95 15.6167 26.054 15.6889C26.0858 15.712 26.1147 15.7322 26.1465 15.7554C26.1609 15.7669 26.1725 15.7698 26.1783 15.7727C26.2187 15.8074 26.2621 15.8507 26.2939 15.8796C26.3979 15.9692 26.499 16.0646 26.5944 16.1657C26.6464 16.2206 26.6955 16.2755 26.7447 16.3333C26.7649 16.3564 26.7851 16.3824 26.8054 16.4056C26.8169 16.42 26.8285 16.4345 26.84 16.4489C26.8429 16.4518 26.8429 16.4547 26.8458 16.4576C26.84 16.4489 26.8314 16.4374 26.8198 16.4229C26.8574 16.4316 26.9181 16.5616 26.9412 16.5934C26.9816 16.6512 27.0192 16.709 27.0539 16.7697C27.1319 16.8997 27.207 17.0326 27.2706 17.1714C27.2822 17.1945 27.2937 17.2176 27.3024 17.2407C27.3082 17.2523 27.314 17.2638 27.3168 17.2754C27.3111 17.2638 27.3082 17.2552 27.3024 17.2436C27.3371 17.2609 27.3689 17.417 27.3833 17.4603C27.4324 17.6019 27.4729 17.7435 27.5076 17.888C27.5249 17.9574 27.5394 18.0296 27.5509 18.099C27.5567 18.1365 27.5625 18.1712 27.5683 18.2088C27.5654 18.2232 27.5654 18.2261 27.5654 18.2319L27.5653 18.2319Z" fill="#40BF95"/>
</svg>
