<svg width="320" height="306" viewBox="0 0 320 306" fill="none" xmlns="http://www.w3.org/2000/svg">
<g clip-path="url(#clip0_3134:17044)">
<path d="M164.307 104.555C168.994 111.998 166.72 121.854 159.276 126.54C151.833 131.227 141.977 129.022 137.29 121.578C132.604 114.135 134.878 104.279 142.322 99.5923C149.765 94.9057 159.621 97.1112 164.307 104.555Z" fill="#F5F5F5"/>
<path d="M161.068 106.553C164.652 112.205 162.929 119.717 157.209 123.301C151.488 126.885 144.045 125.162 140.461 119.511C136.877 113.859 138.6 106.347 144.32 102.763C149.972 99.1789 157.484 100.902 161.068 106.553Z" fill="#EBEBEB"/>
<path d="M160.861 106.279C160.792 106.348 160.447 105.866 159.827 105.245C159.138 104.556 158.173 103.66 156.657 102.833C155.898 102.419 155.071 102.075 154.106 101.799C153.142 101.523 152.108 101.386 151.005 101.386C150.454 101.386 149.902 101.386 149.351 101.523C148.8 101.592 148.179 101.73 147.628 101.868C147.077 102.006 146.456 102.213 145.905 102.488C145.354 102.764 144.802 103.04 144.251 103.384C143.699 103.729 143.217 104.142 142.803 104.556C142.321 104.97 141.976 105.452 141.563 105.866C141.218 106.348 140.874 106.83 140.598 107.313C140.322 107.795 140.047 108.347 139.84 108.829C139.426 109.863 139.22 110.897 139.082 111.862C138.944 112.827 139.013 113.791 139.082 114.618C139.288 116.273 139.771 117.582 140.116 118.478C140.529 119.374 140.805 119.788 140.736 119.856C140.667 119.856 140.322 119.512 139.84 118.616C139.357 117.789 138.737 116.479 138.461 114.687C138.324 113.791 138.255 112.827 138.393 111.793C138.461 110.759 138.737 109.656 139.151 108.553C139.357 108.002 139.633 107.451 139.909 106.899C140.184 106.348 140.529 105.797 140.943 105.314C141.356 104.832 141.77 104.28 142.252 103.867C142.735 103.384 143.286 102.971 143.837 102.626C144.389 102.213 145.009 101.937 145.629 101.661C146.25 101.386 146.87 101.179 147.49 100.972C148.11 100.765 148.731 100.696 149.351 100.628C149.971 100.559 150.592 100.559 151.143 100.559C152.315 100.559 153.417 100.765 154.451 101.11C155.485 101.455 156.312 101.868 157.07 102.282C158.586 103.178 159.62 104.28 160.172 105.038C160.654 105.728 160.93 106.21 160.861 106.279Z" fill="#E0E0E0"/>
<path d="M155.83 118.476L157.002 120.268L155.417 121.302L154.314 119.579C152.66 120.475 150.868 121.026 149.559 120.889L149.145 118.407C150.317 118.476 151.764 118.132 152.936 117.512L151.213 114.893C149.145 115.582 146.802 116.271 145.355 113.997C144.252 112.342 144.527 110.068 146.871 108.138L145.699 106.346L147.284 105.312L148.387 107.036C149.628 106.346 151.006 105.933 152.247 105.933L152.729 108.414C151.626 108.483 150.593 108.759 149.765 109.172L151.488 111.86C153.487 111.102 155.83 110.482 157.278 112.687C158.381 114.341 158.105 116.547 155.83 118.476ZM149.628 112.48L148.18 110.206C147.491 110.964 147.422 111.653 147.767 112.136C148.18 112.756 148.801 112.687 149.628 112.48ZM154.866 114.548C154.521 113.997 153.832 113.997 153.005 114.203L154.452 116.409C155.141 115.72 155.21 115.03 154.866 114.548Z" fill="#E0E0E0"/>
<path d="M133.293 276.439H41.2148L49.6232 191.598H124.678L133.293 276.439Z" fill="#F5F5F5"/>
<path d="M67.612 200.215C67.612 201.386 66.6471 202.351 65.4754 202.351C64.3038 202.351 63.3389 201.386 63.3389 200.215C63.3389 199.043 64.3038 198.078 65.4754 198.078C66.6471 198.078 67.612 199.043 67.612 200.215Z" fill="#E0E0E0"/>
<path d="M109.654 200.215C109.654 201.386 108.689 202.351 107.517 202.351C106.346 202.351 105.381 201.386 105.381 200.215C105.381 199.043 106.346 198.078 107.517 198.078C108.758 198.078 109.654 199.043 109.654 200.215Z" fill="#E0E0E0"/>
<path d="M108.689 200.214H107.999V178.504C107.999 166.718 98.4193 157.138 86.6338 157.138C74.8483 157.138 65.2683 166.718 65.2683 178.504V200.214H64.5791V178.504C64.5791 166.374 74.5037 156.449 86.6338 156.449C98.7639 156.449 108.689 166.374 108.689 178.504V200.214Z" fill="#E0E0E0"/>
<path d="M320 276.439H227.99L236.33 191.598H311.385L320 276.439Z" fill="#F5F5F5"/>
<path d="M254.318 200.215C254.318 201.386 253.353 202.351 252.181 202.351C251.01 202.351 250.045 201.386 250.045 200.215C250.045 199.043 251.01 198.078 252.181 198.078C253.422 198.078 254.318 199.043 254.318 200.215Z" fill="#E0E0E0"/>
<path d="M296.428 200.215C296.428 201.386 295.464 202.351 294.292 202.351C293.12 202.351 292.155 201.386 292.155 200.215C292.155 199.043 293.12 198.078 294.292 198.078C295.464 198.078 296.428 199.043 296.428 200.215Z" fill="#E0E0E0"/>
<path d="M295.464 200.214H294.775V178.504C294.775 166.718 285.195 157.138 273.409 157.138C261.624 157.138 252.044 166.718 252.044 178.504V200.214H251.354V178.504C251.354 166.374 261.279 156.449 273.409 156.449C285.539 156.449 295.464 166.374 295.464 178.504V200.214Z" fill="#E0E0E0"/>
<path d="M55.2057 275.542H7.30566L11.7166 224.609H50.7259L55.2057 275.542Z" fill="#EBEBEB"/>
<path d="M20.3322 231.846C20.9413 231.846 21.435 231.352 21.435 230.743C21.435 230.134 20.9413 229.641 20.3322 229.641C19.7232 229.641 19.2295 230.134 19.2295 230.743C19.2295 231.352 19.7232 231.846 20.3322 231.846Z" fill="#E0E0E0"/>
<path d="M42.1799 231.846C42.7889 231.846 43.2826 231.352 43.2826 230.743C43.2826 230.134 42.7889 229.641 42.1799 229.641C41.5709 229.641 41.0771 230.134 41.0771 230.743C41.0771 231.352 41.5709 231.846 42.1799 231.846Z" fill="#E0E0E0"/>
<path d="M42.9377 230.745H42.3174V219.442C42.3174 213.377 37.3551 208.484 31.359 208.484C25.294 208.484 20.4006 213.446 20.4006 219.442V230.745H19.7803V219.442C19.7803 213.032 24.9493 207.863 31.359 207.863C37.7686 207.863 42.9377 213.032 42.9377 219.442V230.745Z" fill="#E0E0E0"/>
<path d="M45.3501 251.629C45.3501 251.629 41.6973 243.91 41.1459 243.29C40.8702 243.014 40.3188 242.669 39.8364 242.463C39.6296 242.325 39.3539 242.187 39.0093 242.049C38.9404 242.049 38.9404 242.049 38.9404 242.049C37.3552 241.429 34.943 240.809 34.943 240.809C34.943 240.809 34.3227 243.014 31.3591 243.221C28.3955 243.083 27.7752 240.809 27.7752 240.809C27.7752 240.809 25.2941 241.429 23.7778 242.049C23.7778 242.049 23.7778 242.049 23.7089 242.049C23.3643 242.187 23.0886 242.325 22.8818 242.463C22.3994 242.738 21.848 243.014 21.5723 243.29C21.021 243.841 17.3682 251.629 17.3682 251.629L22.6751 254.386L24.2603 250.526L23.9157 264.449H31.0145H31.6348H38.8715L38.3891 250.526L39.9742 254.386L45.3501 251.629Z" fill="#E0E0E0"/>
<path d="M181.124 275.548H117.717L123.437 208.074H175.128L181.124 275.548Z" fill="#EBEBEB"/>
<path d="M134.878 217.723C135.677 217.723 136.325 217.075 136.325 216.275C136.325 215.476 135.677 214.828 134.878 214.828C134.079 214.828 133.431 215.476 133.431 216.275C133.431 217.075 134.079 217.723 134.878 217.723Z" fill="#E0E0E0"/>
<path d="M163.894 217.723C164.693 217.723 165.341 217.075 165.341 216.275C165.341 215.476 164.693 214.828 163.894 214.828C163.094 214.828 162.446 215.476 162.446 216.275C162.446 217.075 163.094 217.723 163.894 217.723Z" fill="#E0E0E0"/>
<path d="M164.859 216.274H164.032V201.319C164.032 193.324 157.484 186.776 149.489 186.776C141.495 186.776 134.947 193.324 134.947 201.319V216.274H134.12V201.319C134.12 192.841 141.012 185.949 149.489 185.949C157.967 185.949 164.859 192.841 164.859 201.319V216.274Z" fill="#E0E0E0"/>
<path d="M226.474 32.6691C220.065 42.3869 207.039 45.1438 197.252 38.7341C187.465 32.3245 184.708 19.2984 191.118 9.51163C197.528 -0.206227 210.554 -2.96307 220.341 3.44658C230.127 9.85623 232.815 22.9512 226.474 32.6691Z" fill="#F5F5F5"/>
<path d="M222.27 29.9108C217.376 37.3543 207.452 39.4219 200.008 34.5285C192.565 29.6351 190.497 19.7105 195.322 12.2671C200.146 4.82359 210.14 2.75597 217.583 7.64935C225.027 12.5427 227.094 22.4674 222.27 29.9108Z" fill="#EBEBEB"/>
<path d="M222.546 29.5011C222.477 29.4322 222.821 28.8119 223.235 27.6402C223.717 26.4686 224.269 24.7455 224.407 22.4711C224.475 21.3684 224.407 20.1278 224.2 18.8872C223.993 17.5778 223.579 16.2683 223.028 14.9588C222.752 14.2695 222.408 13.6493 221.994 12.96C221.581 12.3398 221.098 11.6505 220.616 11.0992C220.065 10.4789 219.513 9.92753 218.893 9.37616C218.273 8.82479 217.583 8.34234 216.894 7.92882C216.205 7.51529 215.447 7.10177 214.689 6.82608C213.931 6.48148 213.172 6.27471 212.414 6.06795C211.656 5.86119 210.898 5.79227 210.14 5.72335C209.382 5.65443 208.624 5.65443 207.934 5.65443C206.487 5.72335 205.109 5.99903 203.868 6.41256C202.627 6.82608 201.525 7.30853 200.56 7.92882C198.63 9.10047 197.321 10.3411 196.494 11.3059C195.666 12.2708 195.253 12.8222 195.184 12.7533C195.115 12.6844 195.391 12.0641 196.149 10.9613C196.907 9.92753 198.148 8.48019 200.146 7.17069C201.111 6.5504 202.283 5.93011 203.592 5.44766C204.902 4.96522 206.349 4.62061 207.934 4.55169C208.693 4.48277 209.52 4.48277 210.347 4.55169C211.174 4.62061 212.001 4.75845 212.828 4.8963C213.655 5.10306 214.482 5.37874 215.309 5.65443C216.136 5.99903 216.894 6.41256 217.721 6.895C218.479 7.37745 219.237 7.92882 219.858 8.48019C220.547 9.03155 221.167 9.65184 221.719 10.3411C222.27 10.9613 222.752 11.6505 223.166 12.4087C223.579 13.0979 223.993 13.856 224.269 14.5452C224.889 15.9926 225.234 17.4399 225.44 18.8183C225.647 20.1967 225.578 21.5062 225.509 22.6779C225.234 25.0212 224.544 26.8132 223.924 27.9159C223.028 29.0186 222.615 29.57 222.546 29.5011Z" fill="#E0E0E0"/>
<path d="M205.04 30.1176L203.523 32.4609L201.387 31.1514L202.834 28.877C200.835 27.4297 199.25 25.4999 198.63 23.8458L201.456 21.9849C202.007 23.4323 203.179 24.9485 204.626 26.1202L206.9 22.6052C204.902 20.5376 202.765 18.1253 204.695 15.0928C206.142 12.8184 208.968 11.9914 212.552 13.7144L214.068 11.3711L216.205 12.6806L214.757 14.955C216.274 16.0577 217.514 17.5051 218.203 18.9524L215.516 20.8822C214.826 19.5727 213.93 18.5389 212.965 17.7118L210.691 21.2957C212.69 23.3633 214.757 25.7756 212.897 28.7392C211.449 30.9446 208.623 31.8406 205.04 30.1176ZM208.83 19.4348L210.76 16.4023C209.45 15.9199 208.623 16.2645 208.21 16.9537C207.727 17.7807 208.141 18.5389 208.83 19.4348ZM209.244 26.8783C209.726 26.1202 209.382 25.362 208.623 24.4661L206.763 27.3608C208.003 27.7743 208.83 27.4986 209.244 26.8783Z" fill="#E0E0E0"/>
<path d="M311.799 91.1836C316.485 98.627 314.211 108.483 306.767 113.169C299.324 117.856 289.468 115.651 284.782 108.207C280.095 100.764 282.369 90.9079 289.813 86.2212C297.256 81.5346 307.112 83.7401 311.799 91.1836Z" fill="#F5F5F5"/>
<path d="M308.628 93.1823C312.212 98.8338 310.489 106.346 304.768 109.93C299.048 113.514 291.604 111.791 288.02 106.139C284.437 100.488 286.16 92.9755 291.88 89.3916C297.532 85.8078 305.044 87.5308 308.628 93.1823Z" fill="#EBEBEB"/>
<path d="M308.421 92.9079C308.352 92.9769 308.008 92.4944 307.387 91.8741C306.698 91.1849 305.733 90.2889 304.217 89.4619C303.459 89.0484 302.632 88.7038 301.667 88.4281C300.702 88.1524 299.668 88.0145 298.566 88.0145C298.014 88.0145 297.463 88.0146 296.911 88.1524C296.36 88.2213 295.74 88.3592 295.188 88.497C294.637 88.6348 294.017 88.8416 293.465 89.1173C292.914 89.393 292.363 89.6687 291.811 90.0133C291.26 90.3579 290.778 90.7714 290.364 91.1849C289.882 91.5984 289.537 92.0809 289.123 92.4944C288.779 92.9769 288.434 93.4593 288.159 93.9418C287.883 94.4242 287.607 94.9756 287.4 95.458C286.987 96.4918 286.78 97.5256 286.642 98.4905C286.504 99.4554 286.573 100.42 286.642 101.247C286.849 102.901 287.331 104.211 287.676 105.107C288.09 106.003 288.365 106.416 288.296 106.485C288.227 106.485 287.883 106.141 287.4 105.245C286.918 104.418 286.298 103.108 286.022 101.316C285.884 100.42 285.815 99.4554 285.953 98.4216C286.022 97.3878 286.298 96.2851 286.711 95.1823C286.918 94.631 287.194 94.0796 287.469 93.5282C287.745 92.9769 288.09 92.4255 288.503 91.943C288.917 91.4606 289.33 90.9092 289.813 90.4957C290.295 90.0133 290.846 89.5997 291.398 89.2551C291.949 88.8416 292.569 88.5659 293.19 88.2902C293.81 88.0146 294.43 87.8078 295.051 87.601C295.671 87.3943 296.291 87.3253 296.911 87.2564C297.532 87.1875 298.152 87.1875 298.703 87.1875C299.875 87.1875 300.978 87.3943 302.012 87.7389C303.045 88.0835 303.873 88.497 304.631 88.9105C306.147 89.8065 307.181 90.9092 307.732 91.6674C308.215 92.3566 308.421 92.839 308.421 92.9079Z" fill="#E0E0E0"/>
<path d="M303.322 105.105L304.493 106.897L302.908 107.931L301.805 106.208C300.151 107.104 298.359 107.655 297.05 107.518L296.636 105.036C297.808 105.105 299.255 104.761 300.427 104.14L298.704 101.521C296.636 102.211 294.293 102.9 292.846 100.625C291.743 98.9714 292.019 96.697 294.362 94.7672L293.19 92.9752L294.776 91.9414L295.878 93.6644C297.119 92.9752 298.497 92.5617 299.738 92.5617L300.22 95.0429C299.118 95.1118 298.084 95.3875 297.257 95.801L298.98 98.4889C300.978 97.7308 303.322 97.1105 304.769 99.316C305.941 100.97 305.665 103.176 303.322 105.105ZM297.188 99.1092L295.74 96.8348C295.051 97.5929 294.982 98.2821 295.327 98.7646C295.671 99.3849 296.361 99.316 297.188 99.1092ZM302.426 101.177C302.081 100.625 301.392 100.625 300.565 100.832L302.012 103.038C302.633 102.28 302.77 101.659 302.426 101.177Z" fill="#E0E0E0"/>
<path d="M318.966 276.375C318.966 276.444 247.564 276.581 159.483 276.581C71.4021 276.513 0 276.444 0 276.375C0 276.306 71.4021 276.168 159.483 276.168C247.564 276.168 318.966 276.237 318.966 276.375Z" fill="#263238"/>
<path d="M169.407 49.621L146.457 11.3699C145.837 10.2671 144.803 9.509 143.562 9.30224L122.817 4.82238C120.611 4.33993 118.337 5.64943 117.648 7.8549L111.376 28.1177C111.031 29.2893 111.169 30.5988 111.79 31.6326L134.74 69.8838C135.981 72.0203 138.669 72.7095 140.805 71.4689L167.822 55.6861C169.959 54.4455 170.648 51.6886 169.407 49.621ZM127.779 18.8823C125.712 19.9161 123.23 19.089 122.197 17.0214C121.163 14.9538 121.99 12.4726 124.057 11.4388C126.125 10.405 128.606 11.232 129.64 13.2997C130.674 15.3673 129.778 17.8484 127.779 18.8823Z" fill="#000000"/>
<path d="M127.78 18.8825C127.78 18.8825 128.124 18.6757 128.607 18.2622C129.089 17.8486 129.709 17.0905 129.916 15.9189C130.123 14.8161 129.847 13.2999 128.744 12.266C127.711 11.2322 125.781 10.8187 124.265 11.5768C122.679 12.335 121.852 14.1269 122.059 15.5743C122.197 17.0905 123.231 18.2622 124.265 18.7446C125.298 19.296 126.263 19.2271 126.884 19.1581C127.435 19.0203 127.711 18.8135 127.78 18.8825C127.78 18.8825 127.711 18.9514 127.573 19.0203C127.435 19.0892 127.159 19.2271 126.884 19.296C126.263 19.4338 125.229 19.5027 124.127 19.0203C123.024 18.5379 121.921 17.2973 121.714 15.6432C121.646 14.8161 121.783 13.9891 122.128 13.162C122.542 12.335 123.231 11.7147 124.058 11.3012C124.885 10.8876 125.85 10.7498 126.746 10.8876C127.642 11.0255 128.4 11.439 128.951 12.0593C130.123 13.2309 130.467 14.8161 130.192 15.9878C129.916 17.1594 129.227 17.9865 128.744 18.4C128.469 18.6068 128.262 18.7446 128.124 18.8135C127.848 18.8135 127.78 18.8825 127.78 18.8825Z" fill="#263238"/>
<path d="M169.408 49.6216C169.408 49.6216 169.477 49.7595 169.614 50.0352C169.752 50.3109 169.959 50.7933 169.959 51.4136C170.028 52.0339 169.959 52.8609 169.545 53.7569C169.339 54.1704 169.063 54.584 168.649 54.9975C168.305 55.411 167.754 55.6867 167.271 56.0313C163.067 58.5125 157.071 62.0274 149.627 66.3694C147.766 67.4722 145.837 68.5749 143.769 69.8155C142.735 70.4358 141.701 70.9871 140.668 71.6074C139.565 72.2277 138.186 72.3656 136.946 71.952C136.326 71.7453 135.774 71.4007 135.292 70.9182C134.809 70.4358 134.465 69.8844 134.12 69.333C133.431 68.2303 132.742 67.0586 132.052 65.887C130.674 63.5437 129.227 61.2004 127.779 58.7192C124.816 53.8258 121.783 48.7257 118.544 43.3498C116.959 40.6619 115.305 37.974 113.651 35.2172C113.237 34.528 112.824 33.8387 112.41 33.1495L111.79 32.1157C111.583 31.7711 111.376 31.4265 111.169 31.013C110.825 30.2549 110.756 29.3589 110.894 28.5318C110.963 28.1183 111.1 27.7048 111.238 27.3602L111.583 26.1885C113.513 19.9167 115.442 13.7827 117.303 7.85555C117.717 6.27036 119.026 5.02979 120.612 4.68518C121.37 4.47842 122.197 4.54734 122.955 4.68518C123.713 4.82302 124.402 5.02979 125.16 5.16763C128.055 5.78792 130.95 6.40821 133.707 7.02849C136.463 7.64878 139.22 8.20015 141.839 8.82044C142.528 8.95828 143.149 9.09612 143.838 9.30289C144.527 9.50965 145.079 9.85425 145.561 10.3367C146.043 10.8191 146.388 11.3705 146.733 11.9219C147.077 12.4732 147.422 13.0246 147.698 13.576C150.317 17.918 152.729 21.9843 154.934 25.7061C159.345 33.0806 162.929 39.1457 165.41 43.2809C166.651 45.3485 167.616 46.9337 168.236 48.0365C168.581 48.5878 168.787 49.0014 168.994 49.277C169.339 49.4838 169.408 49.6216 169.408 49.6216C169.408 49.6216 169.339 49.4838 169.132 49.2081C168.925 48.9324 168.718 48.5189 168.374 47.9675C167.685 46.8648 166.72 45.2796 165.479 43.212C162.998 39.0767 159.345 33.0806 154.934 25.7061C152.729 21.9843 150.248 17.9869 147.629 13.576C147.284 13.0246 146.939 12.4732 146.664 11.9219C146.319 11.3705 146.043 10.8191 145.561 10.4056C145.079 9.9921 144.527 9.64749 143.907 9.44073C143.287 9.30289 142.597 9.16504 141.977 9.0272C139.358 8.47583 136.601 7.85555 133.844 7.23526C131.088 6.61497 128.193 5.99468 125.298 5.37439C124.54 5.23655 123.851 5.02979 123.093 4.89194C122.404 4.68518 121.645 4.68518 120.887 4.89194C119.44 5.23655 118.268 6.40821 117.855 7.85555C115.994 13.7827 114.133 19.9167 112.134 26.1885L111.79 27.3602C111.652 27.7737 111.514 28.1183 111.445 28.5318C111.307 29.29 111.376 30.117 111.652 30.8062C111.79 31.1508 111.996 31.4954 112.203 31.84L112.823 32.8739C113.237 33.5631 113.651 34.2523 114.064 34.9415C115.718 37.6983 117.372 40.3862 118.957 43.0742C122.128 48.3811 125.229 53.5501 128.193 58.4435C129.64 60.9247 131.088 63.268 132.466 65.6113C133.155 66.783 133.844 67.8857 134.534 69.0574C134.878 69.6087 135.154 70.1601 135.636 70.6425C136.05 71.0561 136.601 71.4007 137.222 71.6074C138.393 72.021 139.703 71.8831 140.736 71.3317C141.77 70.7115 142.804 70.0912 143.838 69.5398C145.906 68.3681 147.835 67.1965 149.696 66.1627C157.14 61.8207 163.205 58.3057 167.409 55.8935C167.96 55.6178 168.443 55.2732 168.787 54.9286C169.132 54.584 169.408 54.1704 169.614 53.7569C170.028 52.9299 170.097 52.1028 170.028 51.4825C169.821 50.173 169.408 49.6216 169.408 49.6216Z" fill="#263238"/>
<path d="M124.402 43.2795C122.128 39.5577 123.161 35.9049 126.332 33.9751C129.571 32.0453 133.224 32.8724 135.498 36.5941C137.773 40.3848 136.739 43.9687 133.569 45.8985C130.329 47.8282 126.676 47.0012 124.402 43.2795ZM131.777 38.8685C130.467 36.6631 129.158 36.2495 128.124 36.9387C127.159 37.559 126.814 38.8685 128.124 41.074C129.433 43.2795 130.812 43.6241 131.777 43.0038C132.81 42.3835 133.086 41.0051 131.777 38.8685ZM139.289 26.5317L143.7 23.8438L141.977 54.3757L137.566 57.0637L139.289 26.5317ZM145.768 44.2444C143.493 40.5226 144.458 36.8698 147.697 34.94C150.937 33.0102 154.589 33.8373 156.864 37.559C159.138 41.3497 158.104 44.9336 154.934 46.8634C151.695 48.8621 148.042 48.035 145.768 44.2444ZM153.142 39.8334C151.833 37.6279 150.523 37.2833 149.489 37.9036C148.455 38.5239 148.18 39.8334 149.489 42.0389C150.799 44.2444 152.108 44.589 153.142 43.9687C154.176 43.4173 154.452 42.0389 153.142 39.8334Z" fill="white"/>
<path d="M211.105 99.0414L203.937 98.2144C201.042 101.178 197.32 103.315 193.047 104.417C180.71 107.45 168.236 99.9374 165.203 87.5316C162.171 75.1948 169.683 62.7201 182.089 59.6876C194.426 56.655 206.9 64.1674 209.933 76.5732C211.173 81.7423 210.622 86.9113 208.623 91.3912L211.105 99.0414Z" fill="white"/>
<path d="M211.104 99.0397C211.104 99.0397 211.036 98.9019 210.967 98.5573C210.829 98.2127 210.691 97.7302 210.484 97.1099C210.071 95.8004 209.45 93.8706 208.692 91.3206L208.623 91.1138L208.485 91.2516L208.692 91.3895C209.933 88.6326 211.036 84.7731 210.691 80.0864C210.553 77.8121 209.933 75.3309 208.899 72.9187C207.865 70.5064 206.349 68.0942 204.35 65.9576C202.283 63.8211 199.732 62.0292 196.838 60.7197C193.874 59.4102 190.566 58.7209 187.12 58.7899C180.297 58.8588 173.06 62.3738 168.718 68.5766C166.513 71.747 165.065 75.3309 164.652 78.9837C164.169 82.6365 164.583 86.2893 165.754 89.5975C166.857 92.9057 168.787 95.8004 171.061 98.1437C173.336 100.487 176.024 102.21 178.781 103.382C184.294 105.656 190.015 105.518 194.426 104.14C198.905 102.761 202.076 100.349 204.143 98.2127H204.075C206.418 98.4883 208.21 98.6262 209.45 98.764C210.002 98.8329 210.484 98.9019 210.829 98.9019C210.967 99.0397 211.104 99.0397 211.104 99.0397C211.104 99.0397 210.967 99.0397 210.622 98.9708C210.277 98.9019 209.864 98.8329 209.244 98.764C208.003 98.6262 206.28 98.3505 203.937 98.0748H203.868L203.799 98.1437C201.731 100.211 198.561 102.624 194.15 103.933C189.808 105.312 184.156 105.38 178.712 103.106C176.024 102.003 173.405 100.28 171.13 97.937C168.925 95.6626 167.064 92.7679 165.961 89.5286C164.858 86.2893 164.445 82.7054 164.927 79.1216C165.341 75.5377 166.788 72.0227 168.925 68.9212C173.198 62.8562 180.297 59.4102 186.982 59.3412C190.359 59.2723 193.599 59.9615 196.493 61.2021C199.388 62.4427 201.869 64.2346 203.937 66.3022C205.935 68.3699 207.452 70.7821 208.485 73.1254C209.519 75.5377 210.14 77.9499 210.277 80.2243C210.691 84.7731 209.657 88.6326 208.417 91.3895L208.141 92.0787L208.623 91.4584H208.417C209.244 93.9396 209.864 95.8004 210.346 97.1099C210.553 97.7302 210.76 98.2127 210.829 98.5573C211.036 98.9019 211.104 99.0397 211.104 99.0397Z" fill="#263238"/>
<path d="M176.575 82.9112L179.401 79.8787L185.19 84.7721L195.942 73.6758L198.768 76.5015L184.984 90.4236L176.575 82.9112Z" fill="#000000"/>
<path d="M147.009 239.912L128.331 121.989C127.849 118.68 125.988 115.786 123.3 113.925L76.365 82.0144C71.2649 78.5684 64.4417 79.6022 60.5821 84.2888L24.6743 128.26C22.6067 130.81 21.6418 134.188 22.1242 137.427L40.8018 255.351C41.7667 261.829 47.7628 266.309 54.1725 265.344L137.015 253.283C143.494 252.387 147.974 246.391 147.009 239.912ZM74.4352 121.989C68.3013 122.471 62.9943 117.922 62.5119 111.788C62.0294 105.654 66.5782 100.347 72.7122 99.8649C78.8462 99.3825 84.1531 103.931 84.6355 110.065C85.049 116.199 80.5003 121.506 74.4352 121.989Z" fill="#000000"/>
<path d="M74.4343 121.988C74.4343 121.919 75.3992 121.919 77.0533 121.367C77.8804 121.092 78.8453 120.609 79.8791 119.92C80.9129 119.231 81.9467 118.197 82.7738 116.888C83.6008 115.578 84.29 113.924 84.4279 112.132C84.5657 110.34 84.3589 108.273 83.463 106.412C83.0494 105.447 82.4981 104.551 81.7399 103.793C81.3953 103.379 80.9818 103.035 80.5683 102.621C80.1548 102.276 79.7412 101.932 79.1899 101.656C77.329 100.484 74.9857 99.8642 72.5735 100.071C70.2302 100.278 67.9558 101.243 66.3017 102.69C65.8881 103.035 65.4746 103.448 65.13 103.862C64.7854 104.275 64.4408 104.689 64.1651 105.171C63.6137 106.067 63.1313 107.032 62.9245 108.066C62.3732 110.064 62.4421 112.063 62.8556 113.855C63.3381 115.647 64.234 117.163 65.2678 118.266C66.3017 119.438 67.4733 120.265 68.5761 120.816C69.6788 121.367 70.7126 121.712 71.6086 121.85C73.4005 122.126 74.4343 121.919 74.4343 121.988C74.4343 121.988 74.3654 121.988 74.2276 121.988C74.0897 121.988 73.883 121.988 73.6762 121.988C73.4694 121.988 73.1248 121.988 72.8491 121.988C72.5045 121.988 72.091 121.988 71.6775 121.85C70.7815 121.712 69.7477 121.436 68.5761 120.885C67.4733 120.334 66.2327 119.507 65.13 118.335C64.0962 117.163 63.1313 115.647 62.6489 113.786C62.1664 111.994 62.0975 109.927 62.6489 107.859C62.9245 106.825 63.3381 105.86 63.9584 104.895C64.234 104.413 64.5786 103.999 64.9232 103.517C65.3368 103.103 65.6814 102.69 66.1638 102.345C67.8868 100.829 70.2302 99.8642 72.6424 99.6574C75.0546 99.5196 77.5358 100.071 79.4656 101.311C79.948 101.587 80.4305 102.001 80.844 102.345C81.2575 102.759 81.671 103.103 82.0156 103.517C82.7738 104.344 83.3251 105.24 83.7387 106.274C84.6346 108.204 84.8414 110.271 84.6346 112.132C84.4279 113.993 83.7387 115.647 82.9116 117.025C82.0156 118.335 80.9818 119.369 79.948 120.058C78.9142 120.747 77.8804 121.23 77.0533 121.505C76.6398 121.643 76.2263 121.712 75.8817 121.781C75.5371 121.85 75.2614 121.919 75.0546 121.919C74.8479 121.919 74.6411 121.988 74.5033 121.988C74.4343 121.988 74.4343 121.988 74.4343 121.988Z" fill="#263238"/>
<path d="M147.009 239.911C147.009 239.911 147.078 240.325 147.147 241.221C147.147 242.117 147.147 243.426 146.664 245.011C146.595 245.218 146.526 245.425 146.457 245.632C146.388 245.838 146.251 246.045 146.182 246.252C146.044 246.734 145.768 247.148 145.492 247.63C144.941 248.526 144.252 249.491 143.356 250.318C142.46 251.145 141.288 251.904 139.979 252.524C139.634 252.662 139.29 252.799 138.945 252.937C138.6 253.006 138.256 253.144 137.842 253.213C137.084 253.351 136.326 253.489 135.499 253.627C122.748 255.487 104.209 258.244 81.3959 261.552C75.6755 262.38 69.6794 263.275 63.4765 264.171C60.375 264.654 57.2047 265.067 53.9654 265.55C50.6572 266.032 47.1422 264.93 44.5921 262.724C43.2826 261.621 42.2488 260.174 41.5596 258.589C40.8015 257.004 40.5947 255.212 40.319 253.489C39.7677 250.043 39.2163 246.528 38.6649 242.944C37.5622 235.776 36.3905 228.47 35.15 220.889C32.7377 205.795 30.2566 190.012 27.6376 173.609C26.3281 165.408 25.0186 157.068 23.6402 148.591C23.2956 146.454 22.951 144.318 22.6063 142.25C22.4685 141.216 22.2617 140.114 22.1239 139.08C21.9861 138.046 21.7793 136.943 21.7793 135.841C21.7793 133.635 22.3996 131.43 23.5712 129.569C24.1226 128.604 24.8807 127.777 25.5699 126.95C26.2592 126.123 26.9484 125.227 27.6376 124.4C38.8028 110.753 49.6234 97.4516 60.1683 84.5634C60.8575 83.7364 61.5467 82.9782 62.4427 82.358C62.8562 82.0133 63.3386 81.7377 63.7522 81.462C64.2346 81.2552 64.6481 80.9795 65.1995 80.7728C67.1293 80.0146 69.2658 79.739 71.3335 80.0146C72.3673 80.1525 73.3322 80.4282 74.2971 80.8417C75.262 81.2552 76.1579 81.8066 76.985 82.358C78.6391 83.4607 80.2932 84.6323 81.9473 85.7351C88.5637 90.2149 95.0423 94.6259 101.314 98.899C107.655 103.172 113.789 107.376 119.785 111.443C120.543 111.925 121.301 112.476 121.99 112.959C122.748 113.441 123.507 113.924 124.196 114.544C125.574 115.716 126.746 117.163 127.435 118.748C127.78 119.575 128.124 120.402 128.262 121.229C128.469 122.125 128.538 122.952 128.676 123.779C128.951 125.502 129.227 127.157 129.503 128.88C131.639 142.319 133.569 154.794 135.361 166.166C138.945 188.979 141.84 207.449 143.838 220.2C144.803 226.541 145.63 231.503 146.113 234.88C146.388 236.534 146.595 237.844 146.733 238.671C146.94 239.498 147.009 239.911 147.009 239.911C147.009 239.911 146.94 239.498 146.802 238.602C146.664 237.706 146.457 236.465 146.182 234.811C145.63 231.434 144.872 226.472 143.838 220.131C141.771 207.381 138.876 188.91 135.223 166.166C133.431 154.794 131.433 142.25 129.296 128.88C129.02 127.226 128.745 125.502 128.469 123.779C128.331 122.952 128.193 122.056 128.055 121.229C127.849 120.402 127.573 119.575 127.228 118.817C126.47 117.232 125.436 115.854 124.058 114.751C123.369 114.199 122.611 113.717 121.853 113.235C121.094 112.752 120.336 112.201 119.647 111.718C113.651 107.652 107.517 103.448 101.176 99.1747C94.8355 94.9016 88.4259 90.4906 81.8095 86.0108C80.1553 84.908 78.5012 83.7364 76.8471 82.6336C76.0201 82.0823 75.193 81.5309 74.2281 81.1863C73.3322 80.8417 72.2984 80.566 71.3335 80.4282C69.3348 80.1525 67.2671 80.4282 65.4063 81.1863C64.9238 81.3241 64.5103 81.5998 64.0278 81.8066C63.6143 82.0823 63.1319 82.358 62.7873 82.6336C61.9602 83.2539 61.271 83.9431 60.5818 84.7702C50.1058 97.6584 39.2163 110.96 28.0511 124.607C27.3619 125.434 26.6727 126.33 25.9835 127.157C25.2943 128.053 24.5361 128.811 23.9848 129.776C22.8131 131.568 22.2617 133.773 22.1928 135.91C22.1928 137.012 22.3996 138.046 22.5374 139.08C22.6753 140.183 22.882 141.216 23.0199 142.25C23.3645 144.387 23.7091 146.523 24.0537 148.591C25.3632 157.068 26.7416 165.408 27.9822 173.609C30.6012 190.012 33.0823 205.864 35.4946 220.889C36.6662 228.401 37.8379 235.776 39.0095 242.944C39.5609 246.528 40.1123 250.043 40.6636 253.489C40.9393 255.212 41.1461 256.935 41.8353 258.52C42.5245 260.105 43.5583 261.484 44.7989 262.586C47.349 264.792 50.7261 265.826 53.9654 265.412C57.2047 264.93 60.375 264.516 63.4765 264.034C69.6794 263.138 75.6755 262.242 81.3959 261.415C104.209 258.106 122.748 255.418 135.499 253.558C136.326 253.42 137.084 253.351 137.842 253.213C138.187 253.144 138.6 253.006 138.945 252.937C139.29 252.868 139.634 252.662 139.979 252.593C141.288 252.041 142.391 251.283 143.287 250.456C144.183 249.629 144.872 248.664 145.423 247.837C145.699 247.355 145.906 246.941 146.113 246.528C146.182 246.321 146.319 246.114 146.388 245.907C146.457 245.701 146.526 245.494 146.595 245.287C147.078 243.633 147.147 242.324 147.147 241.496C147.147 241.083 147.078 240.738 147.078 240.532C147.009 240.049 147.009 239.911 147.009 239.911Z" fill="#263238"/>
<path d="M41.7666 179.193C39.9057 167.683 46.0397 159.62 55.8265 158.034C65.6822 156.449 74.0216 162.239 75.8825 173.748C77.7433 185.327 71.6094 193.322 61.6848 194.907C51.898 196.492 43.5586 190.772 41.7666 179.193ZM64.3727 175.609C63.2699 168.855 60.5131 166.581 57.2738 167.063C54.2413 167.546 52.1048 170.647 53.1386 177.401C54.2413 184.155 57.2049 186.43 60.2374 185.947C63.4767 185.396 65.4065 182.364 64.3727 175.609ZM95.3182 152.659L109.033 150.453L74.2284 224.267L60.5131 226.473L95.3182 152.659ZM93.6641 203.109C91.8032 191.599 97.8683 183.535 107.724 181.95C117.58 180.365 125.919 186.154 127.78 197.664C129.641 209.243 123.507 217.238 113.582 218.823C103.795 220.408 95.5249 214.687 93.6641 203.109ZM116.339 199.456C115.236 192.702 112.342 190.427 109.24 190.91C106.07 191.392 104.071 194.494 105.105 201.248C106.208 208.002 109.102 210.277 112.204 209.794C115.374 209.312 117.373 206.21 116.339 199.456Z" fill="white"/>
<path d="M257.213 33.0815C258.316 31.6342 260.177 30.8071 262.038 30.8071C262.796 30.8071 263.623 30.9449 264.243 30.5314C264.657 30.1868 264.863 29.7044 265.139 29.2219C266.035 27.8435 268.241 27.6367 269.481 28.6706C269.757 28.9462 270.033 29.2908 270.446 29.4287C271.962 30.049 273.272 27.2232 274.788 27.8435C274.168 28.1881 273.616 28.6016 273.272 29.2219C272.996 29.8422 273.065 30.6693 273.616 31.0828C275.064 32.1166 277.062 29.2908 278.648 30.1179C279.475 30.6003 279.75 31.9098 280.715 32.0477C281.06 32.1166 281.473 31.9098 281.818 31.8409C283.059 31.5652 284.437 32.4612 284.644 33.7018C284.851 34.7356 284.437 36.114 285.333 36.7343C285.884 37.1478 286.642 37.01 287.263 36.8032C287.332 37.7681 287.194 38.8019 286.849 39.6979C288.71 40.525 289.537 43.0061 288.641 44.7981C289.537 45.3494 290.502 45.9697 291.122 46.8657C291.743 47.7617 291.949 49.0022 291.398 49.8982C291.26 50.105 291.122 50.3117 291.053 50.5185C290.984 50.7942 291.053 51.0699 291.122 51.2766C291.398 52.2415 291.949 53.2064 292.018 54.2402C292.087 55.274 291.398 56.4457 290.433 56.4457C290.226 56.4457 289.951 56.3768 289.744 56.5146C289.606 56.6525 289.537 56.7903 289.537 56.9971C289.468 57.7552 289.744 58.4444 289.882 59.2025C290.02 59.8917 290.157 60.7188 289.744 61.3391C289.399 61.9594 288.366 62.304 287.883 61.7526C288.297 62.8553 288.71 63.9581 289.055 65.0608C289.261 65.75 289.537 66.5082 289.055 67.0595C288.503 67.7487 287.263 67.3352 286.711 66.646C286.16 65.8879 285.953 64.9919 285.333 64.2338C285.126 63.9581 284.782 63.6824 284.644 63.3378C284.506 63.0621 284.437 62.7175 284.161 62.5797C283.679 62.2351 283.059 62.9243 283.128 63.5446C283.265 64.0959 283.748 64.5095 284.161 64.9919C284.575 65.4054 284.919 66.0257 284.713 66.5771C284.575 66.8528 284.368 66.9906 284.23 67.2663C283.817 68.1623 285.195 68.9204 285.402 69.8853C285.609 70.5745 285.126 71.3326 284.644 71.884C284.092 72.5732 282.921 73.1935 282.438 72.4354C282.3 72.1597 282.3 71.8151 282.163 71.5394C282.025 71.1948 281.68 70.988 281.404 70.7813C280.646 70.2299 280.095 69.4718 279.819 68.6447C280.646 69.4718 281.542 70.6434 281.129 71.7461C280.922 72.2286 280.577 72.5732 280.233 72.9867C279.613 73.7449 279.268 74.7097 278.648 75.4679C278.027 76.226 276.994 76.8463 276.098 76.4328C276.511 77.3287 276.167 78.5004 275.339 79.1207C274.512 79.6721 273.341 79.6721 272.583 78.9828C272.376 78.7761 272.169 78.5693 271.962 78.5004C271.687 78.4315 271.411 78.5004 271.135 78.5693C269.412 79.0518 267.482 78.5004 266.311 77.122C266.587 76.9841 266.862 76.8463 267.138 76.7085C265.415 76.6395 263.554 76.5706 262.038 75.7436C260.521 74.9165 259.419 73.0556 259.97 71.4015C260.246 70.7123 260.797 69.9542 260.453 69.265C260.246 68.7825 259.625 68.6447 259.143 68.5069C257.007 67.9555 254.939 67.473 252.802 66.9217C251.769 66.646 250.666 66.3703 249.977 65.6122C249.218 64.8541 249.081 63.4756 249.839 62.7864C249.287 61.8905 248.46 61.1323 247.495 60.6499C246.393 60.0985 245.221 59.9607 244.118 59.4782C243.016 58.9958 241.982 58.0998 241.913 56.8592C241.844 55.6876 243.429 54.5848 244.325 55.4119C243.98 53.6199 240.81 53.8267 240.328 52.1037C239.983 50.6563 241.775 49.7604 242.602 48.5887C242.326 48.1063 241.844 47.8306 241.568 47.3481C241.017 46.3832 241.982 45.2116 243.016 44.6602C243.98 44.1088 245.152 43.4886 245.359 42.3169C245.497 41.1452 244.394 39.9736 244.945 38.9398C245.221 38.3884 245.979 38.1127 246.599 38.3884C247.22 36.2519 251.286 37.4235 252.182 35.4248C252.251 35.287 252.32 35.0802 252.251 34.9424C252.251 34.8045 252.113 34.6667 252.044 34.5288C251.562 33.9775 250.804 33.7707 250.183 33.3572C249.563 32.9437 249.012 32.2544 249.218 31.5652C249.425 30.876 250.666 30.7382 250.735 31.4963C251.424 30.7382 252.802 31.0139 253.216 31.9098C253.629 31.2895 254.663 31.1517 255.352 31.4963C256.042 31.8409 256.593 32.4612 257.075 33.0815" fill="#263238"/>
<path d="M269.136 54.9286C268.171 52.0339 265.69 49.8973 263.071 48.3811C261.968 47.7608 260.796 47.1405 259.487 47.0716C258.177 47.0027 256.868 47.623 256.316 48.7946L256.73 50.8622C256.868 54.2394 259.762 56.7894 261.417 59.753C262.106 61.0625 262.726 62.6477 264.173 63.0612C264.932 63.268 265.759 63.1302 266.448 62.7856C269.136 61.545 270.101 57.8233 269.136 54.9286Z" fill="#E4AD50"/>
<path d="M271.273 70.4386C272.858 67.6818 272.1 63.8222 269.55 61.8924C270.584 60.1694 269.825 57.8261 268.378 56.4477C266.931 55.0692 264.932 54.449 263.002 53.8287C261.417 49.4177 255.903 46.9366 251.561 48.5907C248.736 45.4203 243.704 45.5581 239.845 47.2812C238.88 47.6947 237.984 48.1771 236.95 48.315C236.192 48.3839 235.434 48.315 234.676 48.315C230.541 48.315 226.888 51.6921 225.785 55.7585C225.578 56.3787 225.509 57.0679 225.165 57.6193C224.751 58.3774 223.993 58.8599 223.373 59.4802C222.063 60.7897 221.374 62.7195 221.512 64.6493C221.65 66.2344 222.408 67.8885 221.925 69.4048C221.719 70.1629 221.167 70.8521 221.029 71.6103C220.547 73.8847 223.304 75.8145 223.097 78.0888C223.097 78.5713 222.89 78.9848 222.821 79.4673C222.684 80.4322 222.89 81.466 223.442 82.2241C223.855 82.8444 224.475 83.3958 224.613 84.1539C224.751 84.7053 224.544 85.2566 224.475 85.8769C224.407 87.2553 227.99 92.0798 229.231 92.6312L264.105 88.2892C266.655 87.3932 268.516 84.7053 268.378 82.0173C268.378 81.5349 268.309 81.0524 268.516 80.7078C268.723 80.3632 269.067 80.1565 269.412 79.9497C271.48 78.4334 271.342 75.332 270.79 72.8508C270.721 72.5062 270.653 72.1616 270.653 71.817C270.653 71.3346 270.997 70.9211 271.273 70.4386Z" fill="#263238"/>
<path d="M261.349 71.8139C260.659 65.611 255.835 59.0635 249.287 56.8581C245.152 55.4796 242.188 55.8243 240.121 55.8932C235.503 55.9621 232.126 58.7189 232.126 58.7189C230.265 59.4081 224.062 66.7827 224.614 73.8126C225.234 81.6007 226.337 91.1807 228.06 96.8322C231.575 108.204 240.672 108.411 240.672 108.411L242.395 123.436L266.311 114.545L261.349 71.8139Z" fill="#FFBF9D"/>
<path d="M245.221 92.6303C245.083 92.01 244.669 91.5276 244.256 91.183C243.291 90.4937 242.05 90.5627 241.154 91.2519C240.258 91.9411 239.845 93.3195 240.121 94.5601C240.672 95.2493 241.568 95.6628 242.395 95.6628C242.533 95.6628 242.671 95.6628 242.808 95.6628C243.498 95.5939 244.118 95.3182 244.6 94.7669C245.152 94.1466 245.359 93.3195 245.221 92.6303Z" fill="#FF9A6C"/>
<path d="M228.887 83.0475C228.956 83.8056 229.714 84.4259 230.541 84.357C231.368 84.288 231.988 83.5988 231.919 82.7718C231.85 82.0136 231.092 81.3934 230.265 81.4623C229.369 81.6001 228.818 82.2893 228.887 83.0475Z" fill="#263238"/>
<path d="M227.852 77.9469C228.059 78.0848 229.093 77.1199 230.678 76.9131C232.263 76.6374 233.573 77.3266 233.711 77.1199C233.78 77.0509 233.573 76.7063 232.953 76.4307C232.401 76.155 231.505 75.8793 230.471 76.0171C229.506 76.155 228.679 76.6374 228.266 77.1199C227.852 77.4645 227.783 77.878 227.852 77.9469Z" fill="#263238"/>
<path d="M239.087 89.2491C239.087 89.1802 238.053 89.1113 236.399 89.1802C235.986 89.1802 235.572 89.1802 235.503 88.9045C235.365 88.6288 235.503 88.1464 235.572 87.6639C235.848 86.6301 236.055 85.5274 236.33 84.3557C237.364 79.6691 238.053 75.8095 237.847 75.8095C237.64 75.7406 236.675 79.5313 235.641 84.2179C235.365 85.3895 235.159 86.4923 234.952 87.5261C234.883 88.0085 234.676 88.5599 234.952 89.1802C235.09 89.4559 235.434 89.6626 235.71 89.6626C235.986 89.7316 236.192 89.6626 236.399 89.6626C238.053 89.4559 239.087 89.318 239.087 89.2491Z" fill="#263238"/>
<path d="M240.741 108.41C240.741 108.41 248.667 107.789 255.697 102C255.697 102 252.94 111.235 241.155 111.856L240.741 108.41Z" fill="#FF9A6C"/>
<path d="M243.981 89.6641C243.705 89.6641 243.981 91.456 242.671 92.9033C241.362 94.3507 239.501 94.4196 239.501 94.6953C239.501 94.8331 239.983 94.971 240.742 94.902C241.5 94.8331 242.602 94.4196 243.429 93.5236C244.257 92.6276 244.463 91.5938 244.463 90.8357C244.325 90.0776 244.119 89.6641 243.981 89.6641Z" fill="#263238"/>
<path d="M227.646 71.8155C227.991 72.1601 229.163 71.7466 230.61 71.6087C232.057 71.4709 233.298 71.7466 233.574 71.333C233.711 71.1263 233.505 70.7817 232.953 70.4371C232.402 70.0925 231.506 69.8857 230.541 69.9546C229.576 70.0235 228.68 70.4371 228.198 70.7817C227.646 71.2641 227.509 71.6776 227.646 71.8155Z" fill="#263238"/>
<path d="M246.118 81.1169C246.255 81.875 245.635 82.6332 244.808 82.771C243.981 82.9088 243.223 82.3575 243.154 81.5993C243.016 80.8412 243.636 80.0831 244.464 79.9452C245.222 79.8074 245.98 80.2898 246.118 81.1169Z" fill="#263238"/>
<path d="M249.908 75.3983C249.77 75.6051 248.529 74.9159 246.875 75.0537C245.29 75.1916 244.187 76.1565 243.981 75.9497C243.912 75.8808 244.049 75.4673 244.532 75.0537C245.014 74.6402 245.841 74.1578 246.806 74.0888C247.84 74.0199 248.667 74.2956 249.219 74.5713C249.77 74.9848 249.977 75.3294 249.908 75.3983Z" fill="#263238"/>
<path d="M249.632 69.9541C249.356 70.3676 248.047 70.092 246.599 70.2298C245.083 70.2987 243.843 70.7812 243.498 70.4366C243.36 70.2298 243.498 69.8852 244.049 69.4717C244.532 69.0582 245.428 68.7135 246.462 68.5757C247.495 68.5068 248.391 68.7135 249.012 69.0581C249.494 69.4028 249.701 69.7474 249.632 69.9541Z" fill="#263238"/>
<path d="M261.004 83.1159C260.866 82.22 261.555 80.0834 262.451 79.8077C264.657 79.1185 268.861 78.705 269.688 84.4944C270.86 92.4203 262.658 92.0067 262.658 91.7311C262.52 91.5932 261.417 86.0795 261.004 83.1159Z" fill="#FFBF9D"/>
<path d="M264.312 88.5619C264.312 88.5619 264.45 88.6308 264.726 88.6997C265.002 88.7686 265.346 88.7686 265.76 88.5619C266.518 88.1483 267.069 86.701 266.862 85.2537C266.794 84.4955 266.518 83.8752 266.173 83.3239C265.829 82.7725 265.415 82.4279 265.002 82.4279C264.588 82.4279 264.312 82.7036 264.243 82.9104C264.175 83.1171 264.243 83.3239 264.175 83.3239C264.175 83.3239 263.968 83.186 263.968 82.9104C263.968 82.7725 264.037 82.5657 264.175 82.359C264.312 82.1522 264.588 82.0833 264.933 82.0144C265.553 81.9455 266.173 82.4279 266.587 83.0482C267 83.5996 267.276 84.3577 267.414 85.1847C267.621 86.7699 267 88.424 265.898 88.9065C265.346 89.1132 264.864 89.0443 264.588 88.9065C264.381 88.7686 264.312 88.5619 264.312 88.5619Z" fill="#FF9A6C"/>
<path d="M222.821 74.2255C224.268 72.9849 225.095 71.4687 224.751 69.6078C225.854 69.7456 226.75 68.2294 227.232 67.2645C227.714 66.2307 228.404 65.6793 228.197 64.5766C228.128 64.3698 228.128 64.163 228.197 63.8873C228.335 63.5427 228.679 63.4049 229.024 63.2671C230.609 62.5089 231.781 60.8548 231.988 59.0629C233.779 59.5453 235.709 59.6142 237.57 59.2007C238.535 60.3035 240.12 60.7859 241.568 60.5102C243.015 60.2345 244.255 59.2007 244.807 57.8223C245.427 58.7183 246.53 59.2696 247.633 59.3386C248.735 59.4764 249.838 59.2696 250.941 59.0629C250.803 61.2683 252.526 63.4738 254.662 63.8184C254.938 63.8873 255.283 63.8873 255.49 64.163C255.696 64.4387 255.558 64.7833 255.49 65.059C255.076 66.9888 256.592 69.0564 258.522 69.2632C257.35 70.4348 257.833 72.7782 259.349 73.3984C259.694 73.5363 260.038 73.6741 260.038 74.0187C260.038 74.1566 259.969 74.2944 259.9 74.3633C259.418 75.2593 258.936 76.1553 259.005 77.1891C259.073 78.154 259.9 79.1878 260.865 79.1189C260.383 79.6702 260.038 80.2905 260.107 80.9797C260.176 81.669 261.003 82.2892 261.624 81.9446C261.899 81.8068 265.69 80.4284 265.828 80.2216C267.62 76.8445 264.311 73.8809 263.553 70.1592C262.795 66.4374 260.934 62.9225 258.591 59.9589C257.626 58.7183 256.523 57.4777 255.214 56.5128C253.767 55.4101 252.043 54.6519 250.389 53.8938C248.184 52.9289 245.978 51.964 243.566 51.7573C239.155 51.3437 234.951 53.5492 231.16 55.9614C229.713 56.8574 228.335 57.8223 227.232 59.1318C225.922 60.6481 225.026 62.5089 224.268 64.3698C223.235 67.1266 222.407 69.9524 222.545 72.916" fill="#263238"/>
<path d="M220.892 71.6766C220.892 71.6766 220.892 71.332 221.167 70.7806C221.305 70.505 221.512 70.1604 221.65 69.7468C221.788 69.3333 221.925 68.7819 221.856 68.2306C221.856 67.6103 221.719 66.99 221.512 66.3008C221.374 65.6116 221.167 64.7845 221.236 63.9575C221.305 63.1304 221.512 62.1655 221.925 61.3385C222.132 60.925 222.408 60.4425 222.752 60.0979C223.097 59.6844 223.442 59.3398 223.855 58.9952C224.269 58.6506 224.613 58.237 224.889 57.7546C225.165 57.2721 225.303 56.7208 225.44 56.1694C225.716 54.9977 226.199 53.895 226.957 52.8612C227.646 51.8274 228.542 50.7936 229.713 50.0354C230.265 49.6219 230.885 49.3462 231.505 49.0705C232.126 48.7949 232.815 48.5881 233.573 48.5192C233.918 48.4503 234.262 48.4503 234.676 48.4503C235.02 48.4503 235.365 48.4503 235.779 48.5192C236.468 48.5881 237.226 48.4503 237.915 48.2435C238.604 48.0367 239.294 47.6232 239.983 47.3475C240.672 47.0718 241.43 46.7962 242.188 46.6583C242.946 46.4515 243.704 46.3826 244.531 46.3137C245.29 46.2448 246.117 46.3137 246.944 46.3826C248.529 46.6583 250.114 47.2786 251.286 48.4503C251.424 48.5881 251.493 48.657 251.63 48.7949H251.493C253.836 47.8989 256.386 48.1746 258.522 49.2084C260.659 50.2422 262.382 51.9652 263.14 54.1018L263.071 54.0329C264.105 54.3775 265.139 54.6531 266.035 55.1356C267 55.5491 267.896 56.1005 268.585 56.8586C269.274 57.6167 269.757 58.5127 270.032 59.4776C270.239 60.4425 270.17 61.4763 269.688 62.2345V62.0966C270.997 63.0615 271.755 64.5088 272.1 65.8873C272.444 67.3346 272.307 68.713 271.824 69.9536C271.686 70.2293 271.548 70.505 271.411 70.7806C271.273 71.0563 271.066 71.332 270.997 71.5388C270.859 71.8145 270.79 72.0901 270.859 72.3658C270.859 72.6415 270.928 72.9172 270.997 73.1929C271.204 74.2956 271.342 75.2605 271.342 76.2254C271.342 77.1214 271.204 77.9484 270.859 78.6376C270.584 79.3268 270.17 79.8093 269.825 80.085C269.481 80.4296 269.136 80.5674 268.93 80.7742C268.723 80.912 268.654 81.0499 268.654 81.0499C268.654 81.0499 268.723 80.912 268.861 80.7742C269.067 80.5674 269.412 80.4296 269.757 80.085C270.101 79.7404 270.515 79.2579 270.79 78.6376C271.066 78.0174 271.204 77.1903 271.204 76.2943C271.204 75.3984 271.066 74.3645 270.859 73.3307C270.79 73.055 270.721 72.7794 270.721 72.5037C270.721 72.228 270.79 71.8834 270.928 71.6077C271.066 71.332 271.204 71.0563 271.411 70.7806C271.548 70.505 271.686 70.2293 271.824 69.9536C272.307 68.7819 272.376 67.4035 272.031 66.0251C271.686 64.6467 270.928 63.2683 269.688 62.3034L269.619 62.2345L269.688 62.1655C270.17 61.4074 270.239 60.4425 270.032 59.5465C269.825 58.6506 269.343 57.7546 268.654 57.0654C267.965 56.3762 267.069 55.8248 266.173 55.4113C265.208 54.9977 264.243 54.6531 263.209 54.3775H263.14V54.3085C262.382 52.2409 260.728 50.5179 258.66 49.553C256.593 48.5881 254.043 48.3124 251.837 49.1395H251.768L251.699 49.0705C251.561 48.9327 251.493 48.8638 251.355 48.7259C250.183 47.6232 248.667 46.934 247.15 46.7272C246.392 46.5894 245.565 46.5894 244.807 46.6583C244.049 46.7272 243.291 46.7962 242.533 47.0029C241.775 47.2097 241.085 47.4164 240.396 47.6921C239.707 47.9678 239.018 48.3124 238.329 48.5881C237.984 48.7259 237.639 48.7949 237.226 48.8638C236.881 48.9327 236.468 48.9327 236.123 48.9327C235.779 48.9327 235.434 48.8638 235.02 48.8638C234.676 48.8638 234.331 48.8638 233.987 48.9327C233.297 49.0016 232.608 49.2084 231.988 49.4151C231.368 49.6908 230.747 49.9665 230.196 50.38C229.093 51.1382 228.197 52.1031 227.508 53.1369C226.819 54.1707 226.336 55.2734 226.061 56.3762C225.923 56.9275 225.785 57.4789 225.509 58.0303C225.234 58.5127 224.82 58.9262 224.407 59.2708C223.993 59.6155 223.648 59.9601 223.304 60.3736C222.959 60.7871 222.684 61.2006 222.477 61.6142C222.063 62.4412 221.856 63.3372 221.788 64.1642C221.719 64.9913 221.925 65.8183 222.063 66.5075C222.201 67.1968 222.339 67.886 222.339 68.5063C222.339 69.1265 222.27 69.6779 222.063 70.0914C221.857 70.505 221.719 70.8496 221.581 71.1253C221.443 71.4009 221.374 71.6077 221.305 71.8145C220.892 71.6077 220.892 71.6766 220.892 71.6766Z" fill="#E4AD50"/>
<path d="M247.495 47.4875C247.495 47.4875 247.289 47.4186 246.875 47.2807C246.462 47.1429 245.841 47.005 245.083 47.005C244.325 47.005 243.36 47.2118 242.533 47.7632C241.706 48.3145 240.879 49.1416 240.466 50.2443C240.328 50.5889 240.259 50.8646 240.19 51.2092C240.121 51.5538 240.19 51.8295 240.397 52.0363L240.603 52.3119L240.259 52.243C239.363 52.1052 238.467 52.3809 237.847 52.8633C237.226 53.3458 236.882 53.966 236.675 54.5174C236.537 55.0688 236.537 55.5512 236.537 55.8958C236.537 56.2404 236.606 56.3783 236.606 56.3783C236.606 56.3783 236.606 56.3094 236.537 56.2404C236.537 56.1715 236.468 56.0337 236.468 55.8958C236.399 55.5512 236.399 55.0688 236.537 54.5174C236.675 53.966 237.019 53.2768 237.709 52.7255C238.329 52.243 239.294 51.8984 240.259 52.0363L240.19 52.243C239.914 51.9673 239.914 51.5538 239.914 51.2092C239.983 50.8646 240.052 50.52 240.19 50.1754C240.672 49.0037 241.499 48.1078 242.395 47.6253C243.291 47.0739 244.256 46.8672 245.083 46.8672C245.91 46.8672 246.531 47.074 246.944 47.2118C247.151 47.2807 247.289 47.3496 247.427 47.4186C247.495 47.4186 247.495 47.4186 247.495 47.4875Z" fill="#E4AD50"/>
<path d="M261.693 54.7227C261.693 54.7227 261.624 54.8605 261.486 55.0673C261.348 55.274 261.072 55.5497 260.659 55.8254C260.314 56.1011 259.763 56.3768 259.143 56.5146C258.522 56.6524 257.764 56.5835 257.075 56.17L257.213 56.1011C257.144 56.2389 257.075 56.3078 257.006 56.4457C256.937 56.5835 256.868 56.6524 256.799 56.7903C256.317 57.4795 255.628 57.9619 255.007 58.3065C254.318 58.6511 253.698 58.789 253.147 58.789C252.595 58.789 252.182 58.7201 251.837 58.6511C251.561 58.5822 251.355 58.5133 251.424 58.5133C251.424 58.4444 252.113 58.7201 253.147 58.5822C253.698 58.5133 254.318 58.3755 254.938 58.0309C255.559 57.6863 256.179 57.2038 256.662 56.5835C256.73 56.4457 256.799 56.3768 256.868 56.2389C256.937 56.1011 257.006 56.0322 257.075 55.8943L257.144 55.7565L257.282 55.8254C257.902 56.17 258.591 56.2389 259.143 56.17C259.763 56.0322 260.245 55.8254 260.59 55.5497C261.279 55.1362 261.624 54.7227 261.693 54.7227Z" fill="#E4AD50"/>
<path d="M266.931 61.546C266.931 61.546 266.931 61.6149 266.931 61.6838C266.931 61.7527 266.862 61.8906 266.794 62.0973C266.656 62.4419 266.242 62.8554 265.622 63.1311C265.002 63.4068 264.175 63.4068 263.348 63.2001C262.934 63.1311 262.452 62.9933 262.038 62.8554C261.625 62.7176 261.073 62.5108 260.797 62.0284C260.797 61.9595 260.729 61.9595 260.729 61.8906H260.935C260.246 62.5798 259.557 63.2001 258.799 63.6136C258.041 64.0271 257.282 64.1649 256.593 64.1649C255.973 64.1649 255.422 63.9582 255.146 63.7514C255.008 63.6825 254.87 63.5447 254.801 63.4757C254.732 63.4068 254.732 63.3379 254.732 63.3379C254.732 63.3379 254.87 63.4757 255.215 63.6136C255.491 63.7514 256.042 63.9582 256.662 63.9582C257.282 63.9582 258.041 63.8203 258.73 63.4068C259.488 62.9933 260.177 62.373 260.797 61.6838L260.935 61.546L261.004 61.6838L261.073 61.7527C261.28 62.1662 261.762 62.373 262.176 62.5108C262.589 62.6487 263.072 62.7176 263.485 62.8554C264.312 63.0622 265.071 63.0622 265.691 62.8554C266.311 62.6487 266.656 62.2352 266.794 61.9595C266.862 61.7527 266.862 61.477 266.931 61.546Z" fill="#E4AD50"/>
<path d="M271.411 31.9791C271.411 31.9791 271.273 31.9791 271.066 32.1169C270.859 32.1858 270.515 32.3926 270.239 32.8061C269.963 33.2197 269.825 33.771 269.825 34.3913C269.894 35.0116 270.101 35.7697 270.446 36.5279L270.515 36.6657H270.377C269.481 36.7346 268.516 37.1481 267.758 37.9063C267 38.5955 266.517 39.7671 266.655 40.8699C266.793 41.9037 267.344 42.8686 268.171 43.351L268.447 43.4889L268.102 43.5578C266.862 43.6956 265.828 44.4538 265.277 45.2808C264.656 46.1079 264.518 47.0728 264.587 47.8309C264.656 48.589 264.932 49.2093 265.07 49.5539C265.277 49.8985 265.414 50.1053 265.414 50.1053C265.414 50.1053 265.346 50.0364 265.277 49.9674C265.208 49.8985 265.07 49.7607 265.001 49.5539C264.794 49.2093 264.518 48.589 264.381 47.8309C264.312 47.0728 264.45 46.039 265.001 45.143C265.621 44.247 266.655 43.4889 267.964 43.2821L267.896 43.4889C267 43.0064 266.379 41.9726 266.241 40.801C266.173 40.1807 266.241 39.5604 266.448 39.009C266.655 38.4576 267 37.9752 267.413 37.6306C268.24 36.8725 269.274 36.4589 270.17 36.39L270.101 36.5279C269.825 35.7697 269.55 35.0116 269.55 34.3224C269.481 33.6332 269.688 33.0129 270.032 32.6683C270.308 32.2548 270.652 32.048 270.928 31.9791C271.066 31.9102 271.135 31.9102 271.204 31.9102C271.342 31.9791 271.411 31.9791 271.411 31.9791Z" fill="#E4AD50"/>
<path d="M287.952 47.2101C287.952 47.2101 287.883 47.2791 287.814 47.2791C287.745 47.348 287.607 47.4169 287.469 47.4858C287.125 47.6926 286.642 47.8993 285.953 48.1061C285.264 48.244 284.368 48.3129 283.403 48.175C282.438 48.0372 281.404 47.5547 280.508 46.7966L280.715 46.7277C280.163 47.9683 279.061 49.2778 277.476 49.6913C275.821 50.1737 274.03 49.4156 273.202 48.175L273.409 48.1061C273.271 48.6575 272.996 49.2088 272.651 49.5534C272.307 49.967 271.893 50.2427 271.479 50.4494C270.652 50.8629 269.756 51.0008 269.067 51.0697C268.378 51.1386 267.827 51.0697 267.482 51.0697C267.137 51.0697 266.931 51.0008 266.931 51.0008C266.931 51.0008 267.137 51.0008 267.482 51.0008C267.827 51.0008 268.378 51.0008 269.067 51.0008C269.756 50.9319 270.583 50.794 271.342 50.3805C272.1 49.967 272.927 49.2088 273.202 48.1061L273.271 47.8304L273.409 48.1061C274.167 49.2778 275.821 49.967 277.407 49.5534C278.854 49.1399 279.957 47.9683 280.508 46.7277L280.577 46.5898L280.715 46.6588C281.611 47.4169 282.576 47.8304 283.541 48.0372C284.506 48.2439 285.333 48.175 286.022 48.0372C287.262 47.6926 287.952 47.1412 287.952 47.2101Z" fill="#E4AD50"/>
<path d="M281.335 59.9597C281.335 59.9597 281.335 60.0286 281.267 60.0976C281.198 60.1665 281.06 60.3043 280.853 60.3733C280.439 60.5111 279.819 60.5111 279.061 60.3043C278.303 60.0976 277.476 59.684 276.787 58.9259C276.097 58.1678 275.684 57.065 275.753 55.8245L275.96 55.9623C274.995 56.6515 273.823 56.8583 272.858 56.8583C271.824 56.8583 270.997 56.5137 270.308 56.1691C269.619 55.8245 269.136 55.4109 268.861 55.1353C268.585 54.8596 268.447 54.6528 268.447 54.6528C268.516 54.5839 269.068 55.342 270.377 56.0312C271.066 56.3758 271.893 56.6515 272.858 56.6515C273.823 56.6515 274.926 56.4448 275.822 55.7555L276.029 55.6177V55.8934C275.96 56.9961 276.373 58.0989 276.993 58.7881C277.614 59.5462 278.441 59.9597 279.13 60.1665C279.819 60.3733 280.439 60.3733 280.853 60.3043C281.198 60.1665 281.267 59.9597 281.335 59.9597Z" fill="#E4AD50"/>
<path d="M254.112 34.7344C254.18 34.7344 253.836 35.6993 254.112 37.2155C254.249 37.9737 254.594 38.8696 255.214 39.6278C255.835 40.3859 256.799 41.0751 257.902 41.4197C258.522 41.6265 259.143 41.6954 259.763 41.6265H259.901V41.7643C259.763 42.6603 259.832 43.6252 259.97 44.3833C260.177 45.1414 260.383 45.8306 260.728 46.3131C260.866 46.5888 261.004 46.7955 261.141 47.0023C261.279 47.2091 261.486 47.278 261.624 47.278C261.762 47.278 261.9 47.2091 261.9 47.1401C261.969 47.0712 261.969 47.0023 261.969 47.0023C261.969 47.0023 261.969 47.0712 261.969 47.1401C261.9 47.2091 261.831 47.3469 261.624 47.3469C261.417 47.3469 261.21 47.278 261.073 47.0712C260.935 46.8645 260.728 46.6577 260.59 46.382C260.246 45.8996 259.97 45.2104 259.763 44.3833C259.556 43.5563 259.487 42.6603 259.625 41.6954L259.763 41.8332C259.143 41.9022 258.454 41.8332 257.833 41.6265C256.662 41.2819 255.697 40.5927 255.008 39.7656C254.318 38.9386 254.043 38.0426 253.905 37.2155C253.767 36.4574 253.836 35.7682 253.905 35.3547C253.974 35.1479 253.974 34.9411 254.043 34.8722C254.112 34.8033 254.112 34.7344 254.112 34.7344Z" fill="#E4AD50"/>
<path d="M231.368 279.476L257.696 274.721C257.696 274.721 271.342 299.877 276.305 299.463L268.93 248.117L227.646 253.838L231.368 279.476Z" fill="#E4AD50"/>
<path d="M253.216 259.144C253.354 258.11 254.387 257.283 255.421 257.352C256.455 257.421 257.351 258.454 257.213 259.488C257.075 260.522 255.904 261.556 254.87 261.349C253.836 261.142 252.871 259.902 253.216 258.937" fill="#E0E0E0"/>
<path d="M269.964 248.117L265.967 248.669L273.41 298.016C273.41 298.016 274.72 300.153 276.305 299.67L269.964 248.117Z" fill="#E0E0E0"/>
<path d="M257.559 275.545C257.834 275.476 257.765 274.236 258.386 272.857C259.006 271.479 259.971 270.721 259.833 270.514C259.764 270.307 258.317 270.859 257.559 272.513C256.801 274.167 257.352 275.614 257.559 275.545Z" fill="#263238"/>
<path d="M260.591 280.646C260.867 280.646 261.142 279.543 262.038 278.51C262.934 277.476 264.037 277.131 264.037 276.855C264.037 276.58 262.521 276.649 261.418 277.889C260.246 279.13 260.315 280.646 260.591 280.646Z" fill="#263238"/>
<path d="M267.483 282.786C267.483 282.58 266.173 282.373 264.933 283.2C263.623 284.027 263.279 285.268 263.485 285.337C263.692 285.474 264.312 284.578 265.415 283.889C266.449 283.2 267.483 282.993 267.483 282.786Z" fill="#263238"/>
<path d="M253.767 276.51C253.974 276.372 253.285 275.338 252.94 273.96C252.596 272.582 252.734 271.341 252.458 271.272C252.251 271.203 251.631 272.513 252.044 274.167C252.527 275.752 253.63 276.717 253.767 276.51Z" fill="#263238"/>
<path d="M231.368 215.517C230.403 215.241 193.186 251.149 186.156 259.902C178.919 268.861 186.363 280.578 191.739 280.647C202.766 280.923 254.939 277.477 254.939 277.477L249.495 253.354L270.309 246.324L251.7 212.277L231.368 215.517Z" fill="#263238"/>
<g opacity="0.3">
<g opacity="0.3">
<g opacity="0.3">
<g opacity="0.3">
<path opacity="0.3" d="M221.237 225.717L219.858 227.165C219.858 227.165 244.394 252.941 251.976 252.596L264.037 248.53L223.236 223.512L221.237 225.717Z" fill="black"/>
</g>
</g>
</g>
</g>
<path d="M249.632 254.045C249.701 254.182 240.741 256.939 229.645 260.178C218.549 263.418 209.589 265.968 209.52 265.761C209.451 265.623 218.411 262.866 229.507 259.627C240.603 256.388 249.632 253.907 249.632 254.045Z" fill="#263238"/>
<path d="M196.149 256.664L204.489 283.061C204.489 283.061 180.435 300.429 181.469 305.46L233.297 291.124L221.994 249.496L196.149 256.664Z" fill="#E4AD50"/>
<path d="M219.858 276.443C220.961 276.443 221.926 277.408 221.995 278.442C222.064 279.545 221.099 280.578 219.996 280.578C218.893 280.578 217.653 279.545 217.721 278.442C217.79 277.339 218.962 276.236 219.996 276.443" fill="#E0E0E0"/>
<path d="M233.642 292.226L232.54 288.16L182.848 302.22C182.848 302.22 180.849 303.874 181.538 305.39L233.642 292.226Z" fill="#E0E0E0"/>
<path d="M203.593 283.06C203.662 283.336 204.972 283.06 206.419 283.542C207.866 283.956 208.831 284.921 209.038 284.714C209.245 284.576 208.486 283.198 206.695 282.646C204.903 282.095 203.455 282.853 203.593 283.06Z" fill="#263238"/>
<path d="M198.768 286.78C198.768 287.056 200.008 287.193 201.18 288.02C202.352 288.847 202.903 289.881 203.11 289.812C203.386 289.812 203.11 288.227 201.663 287.262C200.215 286.297 198.699 286.573 198.768 286.78Z" fill="#263238"/>
<path d="M197.459 294.158C197.735 294.158 197.735 292.779 196.701 291.607C195.667 290.367 194.358 290.16 194.289 290.436C194.22 290.711 195.185 291.194 196.012 292.228C196.839 293.193 197.183 294.226 197.459 294.158Z" fill="#263238"/>
<path d="M202.352 276.858C202.49 277.065 203.592 276.375 205.04 276.1C206.487 275.755 207.728 275.962 207.797 275.686C207.866 275.479 206.556 274.859 204.833 275.204C203.11 275.548 202.145 276.651 202.352 276.858Z" fill="#263238"/>
<g opacity="0.3">
<g opacity="0.3">
<g opacity="0.3">
<g opacity="0.3">
<path opacity="0.3" d="M232.884 279.2L230.472 269.826L232.815 268.724L218.342 229.301L215.585 231.713L226.957 267.828L229.852 278.51L232.884 279.2Z" fill="black"/>
</g>
</g>
</g>
</g>
<path d="M199.457 184.709C193.806 183.537 187.809 184.709 183.123 188.224C179.263 191.119 175.955 195.805 177.058 203.18C179.401 219.514 200.284 275.34 200.284 275.34L229.231 266.656C229.369 266.587 229.576 266.105 229.438 266.242C229.231 266.656 214.758 220.134 215.102 220.686C215.516 221.237 244.256 244.532 256.248 248.805C268.516 253.216 280.715 247.978 286.573 239.777C289.399 235.848 295.877 215.103 283.058 198.011L259.143 202.49C259.143 202.49 202.421 185.536 201.594 185.26C201.18 185.122 200.422 184.916 199.457 184.709Z" fill="#263238"/>
<path d="M287.745 239.157C287.745 239.157 287.607 239.364 287.401 239.708C287.194 240.053 286.78 240.604 286.229 241.225C285.126 242.465 283.265 244.257 280.509 245.98C277.752 247.703 274.099 249.495 269.412 250.184C267.138 250.529 264.588 250.667 261.9 250.253C259.281 249.909 256.455 249.219 253.836 247.841C252.458 247.221 251.148 246.463 249.77 245.773C248.46 244.946 247.013 244.188 245.635 243.361C242.878 241.638 239.983 239.777 237.088 237.779C231.299 233.781 225.165 229.232 218.893 224.201C218.135 223.581 217.308 222.961 216.55 222.271L215.378 221.306L215.034 221.031L214.896 220.893C214.965 220.893 214.62 220.755 215.103 220.962C215.447 220.548 215.24 220.755 215.309 220.755V220.824L215.516 221.582C216.136 223.581 216.757 225.58 217.377 227.578C218.686 231.645 219.996 235.78 221.305 240.053C223.993 248.53 226.819 257.421 229.783 266.587L229.852 266.863L229.576 266.932C220.203 269.758 210.347 272.721 200.285 275.754L200.009 275.823L199.94 275.547C198.079 270.516 196.149 265.209 194.22 259.764C190.015 248.048 186.018 236.469 182.503 225.235C180.711 219.652 179.126 214.07 177.816 208.556C177.678 207.867 177.472 207.178 177.334 206.488C177.196 205.799 177.058 205.11 176.92 204.421C176.645 203.042 176.507 201.595 176.507 200.217C176.507 197.391 177.334 194.634 178.85 192.291C181.883 187.673 187.052 184.985 192.152 184.227C194.702 183.882 197.321 184.02 199.733 184.572C200.353 184.709 200.974 184.847 201.594 185.054C202.214 185.261 202.766 185.399 203.386 185.605C204.558 185.95 205.729 186.295 206.901 186.639C216.136 189.396 224.683 191.946 232.54 194.289C248.185 198.976 260.866 202.767 269.619 205.386C273.961 206.695 277.407 207.729 279.681 208.418C280.853 208.763 281.68 209.038 282.3 209.245C282.921 209.452 283.196 209.521 283.196 209.521C283.196 209.521 282.921 209.452 282.3 209.314C281.68 209.107 280.784 208.901 279.681 208.556C277.338 207.867 273.961 206.902 269.55 205.592C260.797 202.973 248.047 199.252 232.402 194.634C224.545 192.291 215.999 189.741 206.763 187.053C205.591 186.708 204.42 186.363 203.248 186.019C202.628 185.812 202.076 185.674 201.456 185.468C200.836 185.33 200.285 185.192 199.664 185.054C197.252 184.503 194.771 184.365 192.221 184.778C187.258 185.468 182.227 188.155 179.264 192.635C177.816 194.841 177.058 197.529 177.058 200.286C177.058 201.664 177.196 203.042 177.472 204.352C177.61 205.041 177.747 205.73 177.885 206.419C178.023 207.109 178.23 207.798 178.368 208.487C179.677 214.001 181.331 219.514 183.054 225.097C186.569 236.331 190.567 247.841 194.771 259.558C196.701 264.933 198.63 270.309 200.491 275.271L200.147 275.134C210.209 272.101 220.065 269.138 229.438 266.312L229.231 266.656C226.337 257.49 223.511 248.599 220.823 240.122C219.513 235.849 218.204 231.713 216.895 227.647C216.274 225.648 215.654 223.581 215.034 221.651L214.827 220.893V220.755C214.896 220.686 214.62 220.824 215.034 220.41C215.516 220.617 215.171 220.479 215.309 220.548L215.447 220.686L215.723 220.893L216.895 221.858C217.653 222.478 218.48 223.167 219.238 223.788C225.51 228.819 231.575 233.368 237.364 237.434C240.259 239.433 243.084 241.293 245.841 243.085C247.22 243.981 248.598 244.74 249.908 245.498C251.286 246.187 252.596 247.014 253.974 247.565C256.593 248.944 259.35 249.633 261.969 249.978C264.588 250.391 267.069 250.253 269.343 249.909C273.961 249.219 277.614 247.496 280.371 245.773C283.128 244.05 284.988 242.327 286.091 241.087C286.643 240.466 287.056 239.984 287.263 239.57C287.607 239.364 287.745 239.157 287.745 239.157Z" fill="#E4AD50"/>
<path d="M201.938 207.866C202.007 207.797 202.903 208.279 204.351 209.175C205.798 210.071 207.659 211.45 209.52 213.242C211.38 215.034 212.897 216.826 213.793 218.273C214.758 219.651 215.171 220.616 215.102 220.685C215.033 220.754 214.482 219.858 213.448 218.549C212.414 217.239 210.967 215.447 209.106 213.724C207.245 212.001 205.453 210.554 204.075 209.589C202.765 208.555 201.869 207.935 201.938 207.866Z" fill="#263238"/>
<path d="M211.794 204.695C211.863 204.695 212.276 205.453 212.828 206.901C213.379 208.279 213.999 210.278 214.551 212.483C215.033 214.689 215.309 216.756 215.378 218.273C215.447 219.789 215.447 220.685 215.378 220.685C215.171 220.685 215.033 217.032 213.999 212.621C213.034 208.141 211.656 204.695 211.794 204.695Z" fill="#263238"/>
<path d="M197.735 129.849C197.735 129.849 192.29 123.233 189.671 122.061C187.052 120.82 175.818 120.82 175.818 120.82C175.818 120.82 174.026 122.957 176.576 124.129C179.126 125.3 183.192 124.887 184.709 125.989C186.225 127.092 185.673 131.71 189.464 133.846C193.255 136.052 196.701 134.88 196.701 134.88L197.735 129.849Z" fill="#FFBF9D"/>
<path d="M244.049 117.993C244.049 117.993 234.538 115.788 230.954 119.579C227.37 123.438 215.516 153.419 215.516 153.419L197.803 129.779L190.566 141.289C190.566 141.289 202.352 166.376 207.383 172.234C213.104 178.92 220.823 178.506 224.338 177.472C227.853 176.438 232.47 167.479 232.47 167.479L244.049 117.993Z" fill="#FFBF9D"/>
<path d="M283.886 187.052L282.37 175.818L286.436 137.912C289.4 115.306 266.311 111.102 266.311 111.102C265.553 112.273 243.843 124.955 241.155 113.376C239.846 113.789 231.162 116.684 227.578 119.923C223.718 123.438 214.207 148.25 214.207 148.25L221.513 157.554C224.201 167.686 230.679 184.089 230.679 184.089L224.89 189.534C251.218 210.348 273.341 203.318 281.818 199.183C286.229 196.977 287.539 191.188 284.231 187.466C284.024 187.19 283.886 187.052 283.886 187.052Z" fill="#E0E0E0"/>
<path d="M283.886 187.052C283.886 187.052 284.231 187.328 284.782 188.086C285.264 188.844 286.023 190.085 286.091 191.877C286.16 192.773 286.091 193.807 285.678 194.841C285.333 195.874 284.713 196.977 283.748 197.873C283.541 198.08 283.266 198.356 282.99 198.493C282.852 198.562 282.714 198.7 282.576 198.769C282.439 198.838 282.301 198.907 282.094 199.045C281.474 199.389 280.853 199.665 280.164 200.01C279.475 200.285 278.786 200.561 278.028 200.906C277.27 201.181 276.511 201.457 275.753 201.733C269.482 203.731 261.28 204.765 252.182 203.111C247.634 202.215 243.016 200.63 238.329 198.424C237.158 197.804 236.055 197.253 234.883 196.632C234.263 196.357 233.712 195.943 233.16 195.599C232.609 195.254 231.989 194.909 231.437 194.565C230.886 194.22 230.265 193.876 229.714 193.462C229.163 193.049 228.611 192.635 228.06 192.222C226.957 191.394 225.786 190.567 224.683 189.74L224.545 189.603L224.683 189.465C226.475 187.742 228.474 185.881 230.472 184.02L230.403 184.227C228.818 180.16 227.164 175.887 225.648 171.476C224.063 167.065 222.546 162.448 221.237 157.692V157.761C218.894 154.797 216.412 151.627 213.931 148.457L213.862 148.388L213.931 148.319C216.206 142.461 218.687 136.396 221.513 130.331C222.477 128.263 223.511 126.126 224.545 124.128C225.096 123.163 225.648 122.129 226.337 121.164C226.475 120.888 226.682 120.682 226.888 120.475C227.095 120.268 227.233 119.992 227.509 119.855L228.198 119.303L228.887 118.821C230.748 117.511 232.816 116.546 234.814 115.719C236.882 114.823 238.95 114.065 241.017 113.376L241.224 113.307L241.293 113.514C241.569 114.754 242.12 115.857 243.085 116.684C243.981 117.511 245.152 117.925 246.393 118.131C248.805 118.476 251.286 117.994 253.63 117.304C255.973 116.615 258.178 115.719 260.315 114.685C261.349 114.203 262.452 113.652 263.416 113.031C263.899 112.756 264.45 112.48 264.933 112.135C265.415 111.86 265.967 111.515 266.242 111.17L266.311 111.102H266.38C270.584 111.998 274.444 113.789 277.683 116.133C280.922 118.476 283.541 121.578 285.058 125.093C285.816 126.816 286.298 128.676 286.574 130.468C286.85 132.26 286.85 134.052 286.781 135.844C286.505 139.359 286.091 142.667 285.747 145.838C284.368 158.588 283.266 168.857 282.508 176.025C282.99 179.609 283.335 182.435 283.61 184.296C283.748 185.261 283.817 185.95 283.886 186.432C283.817 186.777 283.886 187.052 283.886 187.052C283.886 187.052 283.817 186.777 283.748 186.294C283.679 185.812 283.541 185.054 283.404 184.158C283.128 182.228 282.714 179.471 282.232 175.818C282.99 168.651 284.093 158.381 285.402 145.631C285.747 142.461 286.091 139.083 286.436 135.637C286.505 133.914 286.436 132.122 286.229 130.331C285.954 128.539 285.471 126.747 284.713 125.024C283.266 121.578 280.647 118.545 277.407 116.202C274.168 113.858 270.309 112.135 266.242 111.239L266.38 111.17C266.173 111.446 265.898 111.584 265.691 111.791C265.484 111.929 265.208 112.135 264.933 112.273C264.45 112.618 263.968 112.894 263.416 113.169C262.383 113.721 261.349 114.272 260.315 114.823C258.178 115.857 255.904 116.753 253.561 117.442C251.217 118.131 248.736 118.614 246.186 118.269C244.946 118.063 243.705 117.649 242.671 116.753C241.706 115.857 241.086 114.685 240.81 113.376L241.017 113.514C238.95 114.203 236.882 114.961 234.883 115.857C232.884 116.753 230.817 117.718 228.956 118.959C227.026 120.13 225.923 122.198 224.821 124.128C223.718 126.126 222.753 128.194 221.788 130.262C219.031 136.327 216.481 142.461 214.207 148.25V148.043C216.757 151.214 219.238 154.384 221.513 157.348V157.416C222.822 162.172 224.338 166.721 225.923 171.132C227.509 175.543 229.094 179.816 230.679 183.882L230.748 183.951L230.679 184.02C228.68 185.95 226.682 187.811 224.89 189.465V189.258C225.992 190.085 227.164 190.912 228.267 191.739C228.818 192.153 229.37 192.566 229.921 192.98C230.472 193.324 231.093 193.669 231.644 194.082C232.195 194.427 232.816 194.772 233.367 195.116C233.918 195.461 234.47 195.874 235.09 196.15C236.262 196.77 237.433 197.391 238.536 197.942C243.154 200.147 247.84 201.733 252.32 202.629C261.349 204.352 269.55 203.318 275.822 201.319C276.58 201.043 277.338 200.768 278.097 200.561C278.786 200.285 279.544 200.01 280.233 199.734C280.922 199.389 281.543 199.183 282.163 198.838C282.301 198.769 282.439 198.7 282.576 198.562C282.714 198.493 282.852 198.356 282.99 198.287C283.266 198.08 283.472 197.873 283.748 197.666C284.644 196.77 285.264 195.737 285.609 194.703C285.954 193.669 286.091 192.704 286.023 191.808C285.954 190.016 285.264 188.775 284.713 188.017C284.437 187.673 284.231 187.397 284.093 187.19C283.955 187.121 283.886 187.052 283.886 187.052Z" fill="#263238"/>
<path d="M231.988 124.404C231.988 124.404 231.713 124.886 231.299 125.713C230.817 126.54 230.196 127.712 229.507 129.297C228.818 130.814 228.06 132.674 227.302 134.811C226.544 136.879 225.717 139.222 224.821 141.634C223.925 144.046 223.098 146.321 222.477 148.457C221.926 150.594 221.512 152.593 221.443 154.247C221.375 155.901 221.444 157.279 221.65 158.175C221.857 159.071 221.995 159.623 221.926 159.623C221.926 159.623 221.857 159.485 221.788 159.278C221.719 159.071 221.581 158.727 221.512 158.244C221.306 157.348 221.099 155.97 221.168 154.247C221.237 152.524 221.581 150.525 222.133 148.388C222.684 146.252 223.511 143.909 224.476 141.496C225.372 139.084 226.199 136.81 226.957 134.673C227.715 132.606 228.542 130.745 229.232 129.228C229.99 127.712 230.61 126.54 231.161 125.713C231.437 125.3 231.644 125.024 231.782 124.817C231.851 124.473 231.988 124.335 231.988 124.404Z" fill="#263238"/>
<path d="M204.42 176.508C204.42 176.508 195.46 171.959 193.254 170.374C191.049 168.789 188.154 168.444 187.81 168.444C187.465 168.444 181.469 167.962 180.297 169.892L186.638 173.062C186.638 173.062 182.985 174.303 182.365 174.096C181.676 173.889 175.68 171.959 174.715 172.855C173.75 173.682 172.992 174.785 173.957 175.957C174.922 177.128 178.161 177.749 178.161 177.749C178.161 177.749 178.505 181.401 180.918 182.504C180.918 182.504 180.022 184.365 181.676 185.399C181.676 185.399 184.777 189.12 186.362 190.085C187.948 190.981 187.327 190.568 190.98 190.085C194.633 189.603 197.872 187.191 200.215 187.397C202.49 187.604 204.42 176.508 204.42 176.508Z" fill="#FFBF9D"/>
<path d="M173.682 132.052C173.682 132.052 173.544 135.498 174.922 136.049C176.301 136.601 177.265 135.705 178.161 134.12C178.161 134.12 178.575 136.325 181.607 136.049C181.607 136.049 182.779 139.151 184.571 138.117C184.571 138.117 185.467 142.39 188.293 138.737C191.119 135.016 191.463 131.018 190.981 130.398C190.429 129.846 190.223 129.846 190.223 129.846C190.223 129.846 191.739 127.227 190.636 125.987C189.533 124.746 187.741 126.745 187.741 126.745C187.741 126.745 188.362 124.884 187.328 124.264C186.294 123.644 185.054 124.195 184.02 125.436C182.641 127.159 181.814 128.261 181.814 128.261C181.814 128.261 182.917 125.78 181.263 125.436C179.126 125.091 173.682 132.052 173.682 132.052Z" fill="#FFBF9D"/>
<path d="M173.681 132.053C173.681 132.053 173.75 131.984 173.819 131.846C173.957 131.708 174.095 131.502 174.233 131.295C174.646 130.812 175.198 130.123 176.025 129.227C176.852 128.4 177.817 127.297 179.126 126.264C179.471 125.988 179.815 125.781 180.229 125.574C180.436 125.506 180.642 125.368 180.918 125.368C181.194 125.368 181.401 125.437 181.676 125.506C182.159 125.781 182.365 126.333 182.296 126.884C182.296 127.366 182.159 127.918 181.952 128.4L181.676 128.262C182.159 127.642 182.572 127.022 183.055 126.402C183.537 125.781 184.02 125.023 184.709 124.541C185.053 124.265 185.467 124.058 185.949 123.92C186.432 123.851 186.914 123.92 187.328 124.127C187.534 124.265 187.741 124.472 187.879 124.678C188.017 124.885 188.017 125.161 188.086 125.368C188.155 125.85 188.017 126.333 187.879 126.815L187.603 126.677C188.017 126.264 188.499 125.85 189.12 125.574C189.395 125.437 189.809 125.368 190.153 125.506C190.498 125.574 190.774 125.85 190.981 126.126C191.325 126.746 191.325 127.435 191.118 128.125C190.981 128.745 190.705 129.365 190.36 129.985L190.153 129.71C190.429 129.71 190.498 129.779 190.567 129.848C190.705 129.916 190.774 129.985 190.843 130.123L191.049 130.33C191.118 130.399 191.187 130.537 191.187 130.606C191.256 130.812 191.256 130.95 191.256 131.157C191.256 131.502 191.256 131.846 191.256 132.191C191.187 132.88 191.049 133.5 190.843 134.121C190.429 135.361 189.947 136.533 189.258 137.636C188.913 138.187 188.568 138.669 188.155 139.152C187.741 139.634 187.328 140.048 186.707 140.324C186.57 140.392 186.432 140.461 186.225 140.461C186.087 140.461 185.88 140.461 185.743 140.392C185.467 140.255 185.191 140.048 184.984 139.841C184.64 139.359 184.433 138.807 184.295 138.256L184.502 138.394C184.157 138.601 183.744 138.669 183.399 138.601C182.986 138.532 182.71 138.256 182.434 138.049C181.952 137.498 181.607 136.946 181.332 136.326L181.469 136.395C180.642 136.464 179.884 136.395 179.195 135.982C178.506 135.637 178.092 135.017 177.886 134.327L178.092 134.396C177.748 135.017 177.403 135.568 176.921 135.982C176.438 136.395 175.818 136.671 175.267 136.533C174.991 136.464 174.715 136.395 174.508 136.257C174.302 136.119 174.164 135.913 174.026 135.706C173.819 135.292 173.681 134.879 173.612 134.534C173.475 133.776 173.475 133.225 173.475 132.811C173.475 132.604 173.475 132.467 173.475 132.398C173.612 132.122 173.612 132.053 173.681 132.053C173.681 132.053 173.681 132.26 173.681 132.673C173.681 133.087 173.75 133.638 173.888 134.327C173.957 134.672 174.095 135.086 174.302 135.43C174.508 135.844 174.922 136.05 175.473 136.119C175.956 136.188 176.507 135.982 176.921 135.568C177.334 135.154 177.679 134.603 178.023 134.052L178.161 133.776L178.23 134.052C178.368 134.603 178.782 135.223 179.402 135.499C180.022 135.844 180.78 135.913 181.538 135.844H181.676L181.745 135.913C181.952 136.464 182.297 137.084 182.779 137.567C182.986 137.773 183.261 137.98 183.606 138.049C183.882 138.118 184.226 138.049 184.502 137.911L184.709 137.773L184.778 137.98C184.915 138.463 185.122 139.014 185.398 139.428C185.536 139.634 185.743 139.772 186.018 139.91C186.156 139.91 186.225 139.979 186.363 139.91C186.501 139.91 186.639 139.841 186.707 139.841C187.19 139.634 187.603 139.221 188.017 138.738C188.43 138.256 188.706 137.773 189.051 137.291C189.671 136.257 190.222 135.086 190.567 133.914C190.774 133.294 190.912 132.673 190.981 132.053C191.049 131.708 191.049 131.433 190.981 131.088C190.981 130.95 190.981 130.744 190.912 130.675C190.912 130.606 190.843 130.606 190.843 130.537L190.705 130.399C190.636 130.33 190.498 130.261 190.429 130.192C190.36 130.123 190.222 130.054 190.222 130.054L190.016 129.779C190.291 129.227 190.567 128.607 190.705 128.056C190.843 127.435 190.843 126.815 190.567 126.333C190.429 126.126 190.222 125.919 189.947 125.85C189.671 125.781 189.395 125.85 189.189 125.919C188.637 126.126 188.224 126.539 187.81 126.884L187.328 127.366L187.534 126.677C187.672 126.264 187.741 125.781 187.672 125.368C187.672 124.954 187.466 124.541 187.121 124.334C186.432 123.92 185.536 124.127 184.915 124.678C184.295 125.161 183.813 125.85 183.33 126.47C182.848 127.091 182.365 127.711 181.883 128.331L181.194 129.227L181.607 128.193C181.814 127.711 181.952 127.229 181.952 126.815C181.952 126.333 181.814 125.919 181.469 125.712C181.125 125.506 180.711 125.574 180.298 125.781C179.884 125.988 179.54 126.195 179.264 126.402C177.954 127.366 176.99 128.4 176.163 129.296C175.335 130.123 174.784 130.812 174.371 131.295C174.164 131.502 174.026 131.708 173.888 131.846C173.681 131.984 173.681 132.053 173.681 132.053Z" fill="#FF9A6C"/>
<path d="M181.677 128.538C181.746 128.607 181.125 129.847 180.229 131.433C179.333 133.018 178.231 134.052 178.162 133.914C178.093 133.845 179.058 132.742 179.885 131.226C180.85 129.71 181.608 128.469 181.677 128.538Z" fill="#FF9A6C"/>
<path d="M187.672 126.402C187.741 126.402 187.535 127.023 187.121 127.988C186.708 128.952 186.018 130.193 185.191 131.502C184.364 132.812 183.744 134.121 182.986 134.88C182.297 135.638 181.607 135.913 181.607 135.845C181.607 135.776 182.159 135.5 182.779 134.742C183.399 133.984 184.02 132.674 184.847 131.365C185.674 130.055 186.363 128.815 186.845 127.919C187.397 126.954 187.672 126.402 187.672 126.402Z" fill="#FF9A6C"/>
<path d="M190.498 128.884C190.567 128.884 190.36 129.505 190.015 130.401C189.671 131.297 189.05 132.537 188.292 133.778C187.465 135.018 186.638 136.052 185.949 136.741C185.26 137.431 184.777 137.844 184.777 137.775C184.708 137.706 186.431 136.052 188.017 133.571C189.602 131.09 190.36 128.815 190.498 128.884Z" fill="#FF9A6C"/>
<path d="M147.147 157.071C147.147 158.863 145.699 160.311 143.907 160.311C142.115 160.311 140.668 158.863 140.668 157.071C140.668 155.279 142.115 153.832 143.907 153.832C145.699 153.832 147.147 155.279 147.147 157.071Z" fill="#E0E0E0"/>
<path d="M145.975 158.245C145.975 158.314 144.873 158.038 143.77 157.28C142.667 156.522 141.909 155.695 141.978 155.626C142.047 155.557 142.874 156.246 143.977 157.004C145.079 157.693 146.044 158.176 145.975 158.245Z" fill="#263238"/>
<path d="M221.788 169.962C221.719 169.962 221.581 168.997 221.237 167.411C220.892 165.826 220.272 163.621 219.376 161.346C218.48 159.003 217.446 157.073 216.619 155.626C215.792 154.248 215.241 153.352 215.31 153.352C215.31 153.352 215.516 153.558 215.792 153.903C216.068 154.248 216.481 154.799 216.895 155.488C217.791 156.867 218.893 158.865 219.789 161.209C220.685 163.552 221.237 165.757 221.581 167.343C221.719 168.17 221.857 168.79 221.857 169.272C221.788 169.686 221.788 169.893 221.788 169.962Z" fill="#FF9A6C"/>
<path d="M200.698 174.854L244.049 175.612C244.049 175.612 257.351 130.882 261.968 124.473C266.173 118.614 268.102 119.097 274.581 118.683C281.06 118.27 286.16 126.265 285.126 133.915C284.092 141.565 261.486 183.745 257.695 189.327C253.905 194.91 253.491 195.461 248.805 195.944C244.118 196.426 198.01 187.742 198.01 187.742L200.698 174.854Z" fill="#FFBF9D"/>
<path d="M248.254 152.385L275.891 163.551C275.891 163.551 286.712 137.429 286.643 131.227C286.574 125.024 282.301 117.994 277.27 116.409C272.238 114.823 265.002 117.029 261.762 122.474C258.523 127.918 248.254 152.385 248.254 152.385Z" fill="#E0E0E0"/>
<path d="M248.254 152.384C248.254 152.384 248.254 152.246 248.392 152.04C248.461 151.833 248.598 151.488 248.736 151.075C249.081 150.248 249.563 149.007 250.253 147.491C251.562 144.389 253.492 139.909 255.904 134.396C257.145 131.639 258.454 128.606 260.039 125.436C260.866 123.851 261.625 122.197 262.865 120.681C264.106 119.233 265.691 117.993 267.483 117.166C268.379 116.752 269.344 116.407 270.378 116.132C271.342 115.856 272.445 115.718 273.479 115.718C275.547 115.649 277.821 116.063 279.613 117.303C280.509 117.924 281.336 118.682 282.094 119.509C282.852 120.336 283.473 121.232 284.093 122.197C284.713 123.162 285.196 124.195 285.609 125.229C286.023 126.332 286.367 127.435 286.574 128.538C286.712 129.365 286.781 130.261 286.85 131.088C286.85 131.501 286.781 131.915 286.781 132.397C286.781 132.811 286.643 133.224 286.574 133.638C286.229 135.292 285.816 136.877 285.333 138.462C284.368 141.564 283.335 144.596 282.301 147.491C280.164 153.28 278.097 158.656 276.098 163.549L276.029 163.687L275.891 163.618C267.552 160.241 260.66 157.415 255.835 155.417C253.423 154.452 251.562 153.625 250.253 153.142C249.632 152.867 249.15 152.66 248.805 152.522C248.392 152.453 248.254 152.384 248.254 152.384C248.254 152.384 248.461 152.453 248.805 152.591C249.15 152.729 249.632 152.936 250.322 153.142C251.631 153.694 253.561 154.383 255.973 155.348C260.798 157.278 267.69 160.034 276.029 163.343L275.822 163.412C277.821 158.518 279.889 153.142 282.025 147.353C283.059 144.458 284.093 141.426 285.058 138.324C285.54 136.739 285.954 135.154 286.298 133.569C286.367 133.155 286.505 132.742 286.505 132.328C286.505 131.915 286.574 131.501 286.574 131.088C286.574 130.261 286.436 129.433 286.298 128.606C286.091 127.504 285.747 126.401 285.402 125.367C284.989 124.333 284.506 123.3 283.955 122.335C283.404 121.37 282.714 120.474 282.025 119.716C281.267 118.889 280.509 118.199 279.613 117.579C277.821 116.338 275.684 115.994 273.617 115.994C271.549 116.063 269.55 116.545 267.759 117.441C265.967 118.268 264.381 119.44 263.21 120.887C262.038 122.335 261.211 123.989 260.453 125.574C258.868 128.744 257.558 131.777 256.318 134.465C253.836 139.978 251.907 144.458 250.597 147.491C249.908 149.007 249.426 150.248 249.081 151.075C248.874 151.488 248.736 151.764 248.667 151.971C248.323 152.246 248.254 152.384 248.254 152.384Z" fill="#263238"/>
<path d="M249.012 183.125C249.012 183.125 248.874 182.987 248.667 182.642C248.392 182.298 248.047 181.746 247.634 181.126C246.738 179.816 245.497 177.956 243.981 175.612L244.119 175.681C239.639 175.681 233.643 175.681 227.095 175.543C219.927 175.405 213.449 175.268 208.693 175.13C206.35 175.061 204.489 175.061 203.111 174.992C202.49 174.992 202.008 174.992 201.594 174.923C201.25 174.923 201.043 174.923 201.043 174.854C201.043 174.854 201.25 174.854 201.594 174.785C202.008 174.785 202.49 174.785 203.111 174.785C204.42 174.785 206.35 174.785 208.693 174.785C213.38 174.785 219.927 174.923 227.095 175.061C233.643 175.199 239.639 175.268 244.119 175.337H244.187L244.256 175.405C245.773 177.749 246.944 179.61 247.84 180.919C248.254 181.539 248.53 182.091 248.805 182.435C248.874 182.918 249.012 183.125 249.012 183.125Z" fill="#FF9A6C"/>
<path d="M257.627 194.908C257.627 194.908 257.972 194.908 258.661 194.908C259.005 194.908 259.419 194.977 259.832 194.977C260.315 194.977 260.797 195.046 261.418 194.977C262.589 194.977 263.968 194.839 265.484 194.633C267 194.426 268.654 194.081 270.377 193.53C272.1 192.978 273.686 192.358 275.064 191.669C276.442 190.98 277.683 190.291 278.648 189.67C279.13 189.395 279.544 189.05 279.957 188.774C280.371 188.499 280.647 188.292 280.922 188.085C281.474 187.672 281.749 187.465 281.749 187.465C281.749 187.465 281.474 187.741 280.991 188.154C280.715 188.361 280.44 188.637 280.095 188.912C279.751 189.188 279.337 189.532 278.786 189.877C277.821 190.566 276.58 191.255 275.202 192.014C273.823 192.703 272.238 193.392 270.515 193.874C268.792 194.357 267.069 194.702 265.553 194.908C264.037 195.115 262.589 195.184 261.418 195.115C260.797 195.115 260.315 195.046 259.832 195.046C259.35 195.046 258.936 194.977 258.661 194.908C258.04 194.977 257.627 194.908 257.627 194.908Z" fill="#263238"/>
</g>
<defs>
<clipPath id="clip0_3134:17044">
<rect width="320" height="305.458" fill="white"/>
</clipPath>
</defs>
</svg>
