<svg width="40" height="40" viewBox="0 0 40 40" fill="none" xmlns="http://www.w3.org/2000/svg">
<circle cx="20" cy="20" r="20" fill="#000000"/>
<path fill-rule="evenodd" clip-rule="evenodd" d="M12.2189 24.7845V19.0776L18.9225 21.8369C19.2674 21.9772 19.6337 21.9749 19.978 21.8344L26.851 19.0061V24.7843C26.8499 24.8754 26.8317 24.968 26.7937 25.0571C26.7903 25.0658 25.4778 28.1873 19.6011 28.6403C19.5627 28.644 19.5228 28.6446 19.483 28.6414C14.1392 28.2344 12.5624 25.622 12.3138 25.1357C12.2535 25.0323 12.2191 24.9124 12.2191 24.7846L12.2189 24.7845ZM8.43061 15.4776L19.1844 11.0523C19.3608 10.9799 19.5497 10.9853 19.7133 11.0523L30.4668 15.4776C30.8998 15.6557 31.0336 16.2014 30.7435 16.5598V23.2237L31.8942 25.0659C32.1849 25.5331 31.8403 26.1326 31.3022 26.131L28.7878 26.1327C28.2152 26.1327 27.8955 25.4845 28.2185 25.0298L29.3464 23.2245V17.2264L19.713 21.1906C19.5366 21.2629 19.3478 21.2576 19.1841 21.1906L8.43028 16.7656C7.8505 16.5276 7.86267 15.7107 8.43028 15.4775L8.43061 15.4776Z" fill="#000000"/>
</svg>
