<svg width="32" height="32" viewBox="0 0 32 32" fill="none" xmlns="http://www.w3.org/2000/svg">
<path d="M20.5 20.5L31 31L20.5 20.5ZM12.25 23.5C13.7274 23.5 15.1903 23.209 16.5552 22.6436C17.9201 22.0783 19.1603 21.2496 20.205 20.205C21.2496 19.1603 22.0783 17.9201 22.6436 16.5552C23.209 15.1903 23.5 13.7274 23.5 12.25C23.5 10.7726 23.209 9.30972 22.6436 7.94481C22.0783 6.5799 21.2496 5.33971 20.205 4.29505C19.1603 3.25039 17.9201 2.42172 16.5552 1.85636C15.1903 1.29099 13.7274 1 12.25 1C9.26631 1 6.40483 2.18526 4.29505 4.29505C2.18526 6.40483 1 9.26631 1 12.25C1 15.2337 2.18526 18.0952 4.29505 20.205C6.40483 22.3147 9.26631 23.5 12.25 23.5V23.5Z" stroke="#CCCCCC" stroke-width="2"/>
</svg>
