<svg width="24" height="24" viewBox="0 0 24 24" fill="none" xmlns="http://www.w3.org/2000/svg">
<path d="M20.7102 19.29L17.3102 15.9C18.4072 14.5025 19.0025 12.7767 19.0002 11C19.0002 9.41775 18.5311 7.87103 17.652 6.55544C16.773 5.23985 15.5235 4.21447 14.0617 3.60897C12.5999 3.00347 10.9914 2.84504 9.43953 3.15372C7.88768 3.4624 6.46221 4.22433 5.34339 5.34315C4.22457 6.46197 3.46265 7.88743 3.15397 9.43928C2.84528 10.9911 3.00371 12.5997 3.60921 14.0615C4.21471 15.5233 5.24009 16.7727 6.55569 17.6518C7.87128 18.5308 9.418 19 11.0002 19C12.7769 19.0022 14.5027 18.407 15.9002 17.31L19.2902 20.71C19.3832 20.8037 19.4938 20.8781 19.6157 20.9289C19.7375 20.9797 19.8682 21.0058 20.0002 21.0058C20.1323 21.0058 20.263 20.9797 20.3848 20.9289C20.5067 20.8781 20.6173 20.8037 20.7102 20.71C20.804 20.617 20.8784 20.5064 20.9291 20.3846C20.9799 20.2627 21.006 20.132 21.006 20C21.006 19.868 20.9799 19.7373 20.9291 19.6154C20.8784 19.4936 20.804 19.383 20.7102 19.29ZM5.00025 11C5.00025 9.81332 5.35214 8.65328 6.01143 7.66658C6.67072 6.67989 7.60779 5.91085 8.70415 5.45673C9.8005 5.0026 11.0069 4.88378 12.1708 5.11529C13.3347 5.3468 14.4038 5.91825 15.2429 6.75736C16.082 7.59648 16.6534 8.66558 16.885 9.82946C17.1165 10.9933 16.9977 12.1997 16.5435 13.2961C16.0894 14.3925 15.3204 15.3295 14.3337 15.9888C13.347 16.6481 12.1869 17 11.0002 17C9.40895 17 7.88283 16.3679 6.75761 15.2426C5.63239 14.1174 5.00025 12.5913 5.00025 11Z" fill="#959292"/>
</svg>
