<svg width="70" height="71" viewBox="0 0 70 71" fill="none" xmlns="http://www.w3.org/2000/svg">
<g clip-path="url(#clip0_3608_16730)">
<path d="M9.14294 15.4688L10.7167 18.6648L14.2434 19.1806L11.6954 21.6669L12.2949 25.1803L9.14294 23.5228L5.98657 25.1803L6.59051 21.6669L4.03809 19.1806L7.56476 18.6648L9.14294 15.4688Z" fill="#000000"/>
<path d="M20.2518 4.35938L21.83 7.55542L25.3567 8.06679L22.8043 10.5575L23.4038 14.0709L20.2518 12.409L17.0955 14.0709L17.6994 10.5575L15.147 8.06679L18.6736 7.55542L20.2518 4.35938Z" fill="#000000"/>
<path d="M35.099 0L36.6772 3.19605L40.2039 3.70741L37.6514 6.19812L38.251 9.70716L35.099 8.04963L31.9426 9.70716L32.5466 6.19812L29.9941 3.70741L33.5208 3.19605L35.099 0Z" fill="#000000"/>
<path d="M50.4667 4.46484L52.0449 7.66089L55.5715 8.17226L53.0191 10.6586L53.6186 14.172L50.4667 12.5145L47.3103 14.172L47.9142 10.6586L45.3618 8.17226L48.8885 7.66089L50.4667 4.46484Z" fill="#000000"/>
<path d="M61.0555 15.0547L62.6337 18.2507L66.1604 18.7621L63.608 21.2528L64.2119 24.7663L61.0555 23.1043L57.9036 24.7663L58.5031 21.2528L55.9507 18.7621L59.4774 18.2507L61.0555 15.0547Z" fill="#000000"/>
<path d="M64.8993 30.4219L66.4731 33.6179L69.9997 34.1293L67.4517 36.62L68.0512 40.1334L64.8993 38.4715L61.7429 40.1334L62.3469 36.62L59.7944 34.1293L63.3211 33.6179L64.8993 30.4219Z" fill="#000000"/>
<path d="M61.161 45.6836L62.7348 48.8796L66.2659 49.3954L63.7134 51.8817L64.313 55.3952L61.161 53.7376L58.0046 55.3952L58.6086 51.8817L56.0562 49.3954L59.5828 48.8796L61.161 45.6836Z" fill="#000000"/>
<path d="M49.911 56.2773L51.4892 59.4734L55.0159 59.9848L52.4634 62.4711L53.0674 65.9845L49.911 64.327L46.759 65.9845L47.3586 62.4711L44.8062 59.9848L48.3328 59.4734L49.911 56.2773Z" fill="#000000"/>
<path d="M34.7997 60.6406L36.3779 63.8367L39.9045 64.348L37.3521 66.8388L37.956 70.3522L34.7997 68.6903L31.6433 70.3522L32.2473 66.8388L29.6948 64.348L33.2215 63.8367L34.7997 60.6406Z" fill="#000000"/>
<path d="M20.3666 56.2812L21.9448 59.4773L25.4714 59.9887L22.919 62.475L23.5229 65.9884L20.3666 64.3309L17.2146 65.9884L17.8141 62.475L15.2617 59.9887L18.7884 59.4773L20.3666 56.2812Z" fill="#000000"/>
<path d="M8.9447 45.4102L10.5229 48.6062L14.0496 49.1176L11.4971 51.6039L12.1011 55.1173L8.9447 53.4598L5.79274 55.1173L6.39227 51.6039L3.83984 49.1176L7.37092 48.6062L8.9447 45.4102Z" fill="#000000"/>
<path d="M5.10486 30.4395L6.68304 33.6355L10.2097 34.1469L7.65728 36.6376L8.26123 40.151L5.10486 38.4891L1.94849 40.151L2.55243 36.6376L0 34.1469L3.52667 33.6355L5.10486 30.4395Z" fill="#000000"/>
<path d="M45.9832 41.4031H42.8973V24.6073C42.8973 20.653 39.6793 17.4394 35.7294 17.4394C31.7795 17.4394 28.5614 20.6574 28.5614 24.6073V41.4031H25.4756V24.6073C25.4756 18.9514 30.0779 14.3535 35.7294 14.3535C41.3853 14.3535 45.9832 18.9558 45.9832 24.6073V41.4031Z" fill="#121243"/>
<path d="M46.9882 51.6664H24.4704C23.0553 51.6664 21.9092 50.5202 21.9092 49.1051V36.4929C21.9092 35.0778 23.0553 33.9316 24.4704 33.9316H46.9882C48.4033 33.9316 49.5495 35.0778 49.5495 36.4929V49.1051C49.5495 50.5202 48.4033 51.6664 46.9882 51.6664Z" fill="#000000"/>
<path d="M38.0394 40.4857C38.0394 41.7598 37.0034 42.7957 35.7294 42.7957C34.4554 42.7957 33.4194 41.7598 33.4194 40.4857C33.4194 39.2117 34.4554 38.1758 35.7294 38.1758C37.0034 38.1758 38.0394 39.2117 38.0394 40.4857Z" fill="#121243"/>
<path d="M36.3599 41.4023H35.0991V46.1545H36.3599V41.4023Z" fill="#121243"/>
<path d="M23.3817 49.9828C23.32 49.9828 23.2671 47.0248 23.2671 43.3791C23.2671 39.729 23.32 36.7754 23.3817 36.7754C23.4434 36.7754 23.4963 39.7334 23.4963 43.3791C23.4963 47.0248 23.4434 49.9828 23.3817 49.9828Z" fill="#FAFAFA"/>
<path d="M33.9172 43.4493C33.9083 43.4625 33.807 43.414 33.6483 43.295C33.4851 43.1804 33.2691 42.9776 33.0531 42.6866C32.6211 42.1224 32.2288 41.0952 32.4845 39.9887C32.7534 38.8822 33.5645 38.1416 34.2037 37.8286C34.5255 37.6655 34.8121 37.5862 35.006 37.5553C35.2044 37.5245 35.3146 37.5245 35.319 37.5377C35.3278 37.5818 34.8826 37.6214 34.2831 37.9697C33.6923 38.3047 32.9561 39.0189 32.7093 40.0372C32.4712 41.06 32.8107 42.0298 33.1898 42.5941C33.5645 43.176 33.948 43.414 33.9172 43.4493Z" fill="#FAFAFA"/>
</g>
<defs>
<clipPath id="clip0_3608_16730">
<rect width="70" height="70.3527" fill="white"/>
</clipPath>
</defs>
</svg>
