<svg width="40" height="40" viewBox="0 0 40 40" fill="none" xmlns="http://www.w3.org/2000/svg">
<path d="M34.5283 37.5817C34.5053 37.5817 32.3247 35.5966 32.1755 35.7458C32.0262 35.895 24.5986 35.7458 24.5986 35.7458L22.293 37.5635V37.5816V39.2327C22.293 39.6564 22.6365 39.9999 23.0603 39.9999H33.7841C34.2079 39.9999 34.5514 39.6564 34.5514 39.2327V37.5816V37.5788C34.5375 37.5806 34.5294 37.5817 34.5283 37.5817Z" fill="#000000"/>
<path d="M19.9483 26.0919C27.1534 26.0919 32.9943 20.251 32.9943 13.046C32.9943 5.84087 27.1534 0 19.9483 0C12.7432 0 6.90234 5.84087 6.90234 13.046C6.90234 20.251 12.7432 26.0919 19.9483 26.0919Z" fill="#F9F8F9"/>
<path d="M20.9067 22.0955L27.6965 14.6463C29.4135 12.7617 29.3466 9.8605 27.5434 8.05805L27.528 8.04193C25.6643 6.17903 22.6431 6.17903 20.7802 8.04193L19.9281 8.89398L19.0583 8.02822C17.1938 6.17177 14.1782 6.17419 12.3177 8.03548C11.3875 8.96492 10.9199 10.1862 10.9199 11.4098C10.9199 12.5698 11.3407 13.7322 12.1879 14.6479L19.0777 22.102C19.5718 22.6356 20.4166 22.6332 20.9067 22.0955Z" fill="#97E373"/>
<path d="M15.6948 14.6483C14.8476 13.7326 14.4268 12.5702 14.4268 11.4102C14.4268 10.1866 14.8943 8.96531 15.8246 8.03587C16.3016 7.55858 16.8548 7.20446 17.445 6.97165C15.7303 6.29509 13.7036 6.64937 12.3177 8.03587C11.3875 8.96531 10.9199 10.1866 10.9199 11.4102C10.9199 12.5702 11.3407 13.7326 12.1879 14.6483L19.0777 22.1024C19.5718 22.636 20.4166 22.6336 20.9067 22.0959L21.7368 21.1852L15.6948 14.6483Z" fill="#000000"/>
<path d="M16.5612 35.1994L16.558 35.2195C16.4822 35.2058 16.4049 35.1994 16.3251 35.1994H6.82836C6.74856 35.1994 6.67037 35.2058 6.59459 35.2195L6.59137 35.1994V30.8351L1.82005 25.0119C1.35009 24.4395 1.09375 23.7213 1.09375 22.9805V12.614C1.09375 12.0747 1.3122 11.587 1.66528 11.2331C2.01835 10.8801 2.50685 10.6616 3.04613 10.6616C4.08358 10.6616 4.93966 11.4734 4.99528 12.51L5.3798 19.7206L5.39269 19.7375C5.67725 19.5207 6.01984 19.4111 6.36324 19.4111C6.72357 19.4111 7.0847 19.5312 7.38215 19.7754L15.743 26.6241C16.2614 27.0481 16.5612 27.6825 16.5612 28.3523V35.1994Z" fill="#FFCEBF"/>
<path d="M8.42573 30.6681C8.42573 29.7838 8.11949 28.927 7.55909 28.243L3.65441 23.4774C3.18446 22.905 2.92812 22.1868 2.92812 21.446V11.0795C2.92812 10.9368 2.94384 10.798 2.97285 10.6641C2.46267 10.6829 2.00223 10.8968 1.66528 11.2337C1.3122 11.5876 1.09375 12.0753 1.09375 12.6146V22.9811C1.09375 23.7219 1.35009 24.4401 1.82005 25.0124L6.59137 30.8357V35.2L6.59459 35.2201C6.67037 35.2064 6.74856 35.2 6.82836 35.2H8.42581V30.6681H8.42573Z" fill="#FFB09E"/>
<path d="M7.68914 36.3452L5.44922 37.5812V39.2755C5.44922 39.6753 5.77335 39.9995 6.17318 39.9995H16.9836C17.3834 39.9995 17.7075 39.6754 17.7075 39.2755V37.5812L16.4377 36.3452H7.68914Z" fill="#000000"/>
<path d="M23.4375 35.1994L23.4407 35.2195C23.5165 35.2058 23.5939 35.1994 23.6737 35.1994H33.1704C33.2502 35.1994 33.3284 35.2058 33.4041 35.2195L33.4074 35.1994V30.8351L38.1787 25.0119C38.6486 24.4395 38.905 23.7213 38.905 22.9805V12.614C38.905 12.0747 38.6865 11.587 38.3335 11.2331C37.9804 10.8801 37.4919 10.6616 36.9526 10.6616C35.9152 10.6616 35.0591 11.4734 35.0035 12.51L34.6189 19.7206L34.606 19.7375C34.3215 19.5207 33.9789 19.4111 33.6355 19.4111C33.2752 19.4111 32.914 19.5312 32.6166 19.7754L24.2557 26.6241C23.7374 27.0481 23.4375 27.6825 23.4375 28.3523V35.1994Z" fill="#FFCEBF"/>
<path d="M36.2256 19.1952C36.4137 19.0526 36.5296 18.8344 36.5421 18.5986L36.8256 13.2839C36.8766 12.3328 37.6015 11.5715 38.5219 11.4522C38.4645 11.3746 38.4015 11.3013 38.3335 11.2331C37.9804 10.8801 37.4919 10.6616 36.9526 10.6616C35.9152 10.6616 35.0591 11.4734 35.0035 12.51L34.6189 19.7206L34.606 19.7375C34.3215 19.5207 33.9789 19.4111 33.6355 19.4111C33.2752 19.4111 32.914 19.5312 32.6166 19.7754L24.2557 26.6241C23.7374 27.0481 23.4375 27.6825 23.4375 28.3523V35.1994L23.4407 35.2195C23.5165 35.2058 23.5939 35.1994 23.6737 35.1994H25.2596V29.1262C25.2596 28.4563 25.5595 27.8219 26.0778 27.3979L34.4387 20.5493L36.2256 19.1952Z" fill="#FFB09E"/>
<path d="M9.01304 26.5476C8.85835 26.5476 8.70358 26.4885 8.58548 26.3705L4.79842 22.5834C4.38053 22.1655 4.15039 21.6099 4.15039 21.0189C4.15039 20.4279 4.38053 19.8723 4.79842 19.4544C5.0346 19.2183 5.41734 19.2183 5.65345 19.4544C5.88956 19.6905 5.88956 20.0733 5.65345 20.3094C5.46385 20.4989 5.35954 20.7509 5.35954 21.0189C5.35954 21.2869 5.46393 21.5389 5.65345 21.7284L9.44052 25.5155C9.67662 25.7516 9.67662 26.1344 9.44052 26.3705C9.3225 26.4885 9.16773 26.5476 9.01304 26.5476Z" fill="#FFB09E"/>
<path d="M34.5279 35.2905V37.5815H22.2695V35.2905C22.2695 34.6078 22.7661 34.0403 23.4174 33.9298C23.4932 33.9161 23.5706 33.9097 23.6504 33.9097H33.1471C33.2269 33.9097 33.3051 33.9161 33.3808 33.9298C34.0322 34.0403 34.5279 34.6078 34.5279 35.2905Z" fill="#97E373"/>
<path d="M17.7057 35.2905V37.5815H5.44727V35.2905C5.44727 34.6078 5.94302 34.0403 6.59435 33.9298C6.67012 33.9161 6.74831 33.9097 6.82812 33.9097H16.3248C16.4046 33.9097 16.482 33.9161 16.5578 33.9298C17.2091 34.0403 17.7057 34.6078 17.7057 35.2905Z" fill="#97E373"/>
<path d="M35.8246 21.0188C35.8246 20.4278 35.5945 19.8722 35.1764 19.4542C35.1036 19.3814 35.0259 19.3139 34.9455 19.2537C34.8559 19.1866 34.7538 19.1487 34.6501 19.1372L34.6189 19.7206L34.606 19.7375C34.4356 19.6076 34.244 19.517 34.0441 19.4646C33.9136 19.7216 33.9818 20.0425 34.2205 20.2213C34.2552 20.2474 34.2893 20.277 34.3216 20.3093C34.5112 20.4988 34.6155 20.7508 34.6155 21.0188C34.6155 21.2868 34.5111 21.5388 34.3216 21.7283L30.5345 25.5154C30.2984 25.7515 30.2984 26.1343 30.5345 26.3704C30.6526 26.4885 30.8073 26.5475 30.9621 26.5475C31.1168 26.5475 31.2715 26.4885 31.3896 26.3704L35.1767 22.5833C35.5945 22.1655 35.8246 21.6098 35.8246 21.0188Z" fill="#FFB09E"/>
</svg>
