<svg width="18" height="28" viewBox="0 0 18 28" fill="none" xmlns="http://www.w3.org/2000/svg">
<path d="M16.0624 1.00979C16.3349 1.16715 16.5174 1.44377 16.555 1.75624L17.7513 11.6844C17.7966 12.0605 17.6255 12.4299 17.3093 12.6386C16.9932 12.8474 16.5864 12.8596 16.2584 12.6702L11.9284 10.1702L2.4286 26.6243C2.15237 27.1028 1.54056 27.2665 1.06241 26.9904C0.584259 26.7143 0.420114 26.1027 0.696343 25.6242L10.1961 9.17013L5.86606 6.67017C5.5381 6.48083 5.34526 6.12244 5.36793 5.74426C5.39062 5.36611 5.62496 5.03321 5.97337 4.88445L15.1695 0.956317C15.459 0.832682 15.7898 0.852421 16.0624 1.00979Z" fill="white"/>
</svg>
