<svg width="82" height="60" viewBox="0 0 82 60" fill="none" xmlns="http://www.w3.org/2000/svg">
<path d="M33.5273 34.4759C33.3686 34.5639 33.2098 34.652 33.0575 34.7427" stroke="#000000" stroke-width="0.4" stroke-miterlimit="10" stroke-dasharray="1.5 1.5"/>
<path d="M31.9025 35.4602C21.5952 42.3142 23.4083 53.7443 11.805 58.5973" stroke="#000000" stroke-width="0.4" stroke-miterlimit="10" stroke-dasharray="1.5 1.5"/>
<path d="M11.1604 58.8521C10.9896 58.9169 10.8181 58.9797 10.6434 59.0412" stroke="#000000" stroke-width="0.4" stroke-miterlimit="10" stroke-dasharray="1.5 1.5"/>
<path d="M35.6765 22.8278L32.3011 34.8145L40.7002 27.1827L73.874 12.2595L35.6765 22.8278Z" fill="#000000"/>
<path opacity="0.1" d="M35.6765 22.8278L32.3011 34.8145L40.7002 27.1827L73.874 12.2595L35.6765 22.8278Z" fill="#121243"/>
<path d="M42.0447 29.8091L32.3003 34.8107L40.6993 27.1789L42.0447 29.8091Z" fill="#000000"/>
<path d="M40.7001 27.1815L73.8739 12.2584L47.9491 41.6545L40.7001 27.1815Z" fill="#000000"/>
<path d="M35.6763 22.827L20.8182 14.7383L73.8738 12.2587L35.6763 22.827Z" fill="#000000"/>
</svg>
