<svg width="330" height="317" viewBox="0 0 330 317" fill="none" xmlns="http://www.w3.org/2000/svg">
<path d="M44.2539 278.901V284.625H87.221V278.901H44.2539Z" fill="#E0E0E0"/>
<path d="M50.1422 279.141C50.2948 279.141 50.4475 280.362 50.4475 281.812C50.4475 283.262 50.2948 284.483 50.1422 284.483C49.9896 284.483 49.8369 283.262 49.8369 281.812C49.8369 280.362 49.9896 279.141 50.1422 279.141Z" fill="#FAFAFA"/>
<path d="M49.151 278.986C49.3036 278.986 49.4562 280.207 49.4562 281.657C49.4562 283.108 49.3036 284.329 49.151 284.329C48.9983 284.329 48.8457 283.108 48.8457 281.657C48.922 280.207 48.9983 278.986 49.151 278.986Z" fill="#FAFAFA"/>
<path d="M83.8756 279.141C84.0282 279.141 84.1809 280.362 84.1809 281.812C84.1809 283.262 84.0282 284.483 83.8756 284.483C83.723 284.483 83.5703 283.262 83.5703 281.812C83.6466 280.362 83.723 279.141 83.8756 279.141Z" fill="#FAFAFA"/>
<path d="M82.9596 278.986C83.1122 278.986 83.2648 280.207 83.2648 281.657C83.2648 283.108 83.1122 284.329 82.9596 284.329C82.8069 284.329 82.6543 283.108 82.6543 281.657C82.7306 280.207 82.8069 278.986 82.9596 278.986Z" fill="#FAFAFA"/>
<path d="M77.3888 281.96C77.3888 282.112 72.5045 282.265 66.399 282.265C60.2935 282.265 55.4092 282.112 55.4092 281.96C55.4092 281.807 60.2935 281.654 66.399 281.654C72.4281 281.654 77.3888 281.807 77.3888 281.96Z" fill="#FAFAFA"/>
<path d="M44.0479 304.759V316.207H87.015V304.759H44.0479Z" fill="#E0E0E0"/>
<path d="M87.6152 313.028C87.6152 313.028 87.5389 313.104 87.3862 313.18C87.2336 313.257 87.0047 313.409 86.6994 313.486C86.0888 313.715 85.0967 314.096 83.7993 314.325C82.5019 314.478 80.7466 314.554 79.0676 313.638C78.2281 313.18 77.4649 312.493 76.8543 311.578C76.2438 310.662 75.8622 309.517 76.0912 308.296C76.1675 307.685 76.4727 307.075 76.8543 306.617C77.3122 306.083 77.9228 305.777 78.686 305.777C79.3728 305.777 80.0597 306.235 80.5176 306.77C80.9755 307.304 81.2808 307.991 81.3571 308.754C81.5097 310.204 80.8992 311.73 79.9071 312.799C78.9149 313.944 77.3886 314.63 75.7859 314.783C74.1832 314.936 72.5805 314.707 70.9778 314.172C69.4515 313.638 67.8488 312.722 66.7803 311.349C66.2461 310.662 65.8645 309.822 65.7882 308.907C65.7119 307.991 66.0171 306.999 66.704 306.312C67.0856 306.006 67.5435 305.777 68.0777 305.701C68.612 305.701 69.0699 305.854 69.4515 306.083C70.291 306.617 70.8252 307.456 71.0541 308.372C71.4357 310.28 70.7489 312.188 69.3751 313.409C68.0014 314.63 66.2461 315.165 64.5671 315.394C62.8881 315.546 61.1328 315.47 59.5301 314.936C57.9274 314.401 56.5537 313.409 55.7142 311.959C54.8747 310.586 54.6457 308.83 55.2563 307.38C55.5616 306.693 56.2484 306.006 57.0116 305.93C57.7748 305.777 58.6143 306.006 59.1485 306.464C60.3696 307.456 60.5985 309.059 60.1406 310.357C59.759 311.654 58.8432 312.646 58.0037 313.409C56.1721 314.936 53.9589 315.623 52.1272 315.699C50.2193 315.775 48.6166 315.241 47.4718 314.63C46.327 314.02 45.4875 313.333 45.0296 312.799C44.8007 312.57 44.648 312.341 44.4954 312.188C44.4191 312.036 44.3428 311.959 44.3428 311.959C44.4191 311.883 45.1823 313.18 47.5481 314.401C48.6929 314.936 50.2956 315.47 52.1272 315.317C53.9589 315.241 56.0195 314.554 57.7748 313.028C58.6143 312.265 59.4538 311.349 59.759 310.128C60.1406 308.983 59.9117 307.533 58.8432 306.77C58.309 306.388 57.6985 306.235 57.0116 306.312C56.401 306.388 55.8668 306.922 55.6379 307.533C55.1036 308.83 55.3326 310.357 56.0958 311.654C56.859 312.951 58.1564 313.867 59.6827 314.401C61.2091 314.936 62.8118 315.012 64.4908 314.859C66.0935 314.707 67.7725 314.172 68.9936 313.028C70.2146 311.959 70.9015 310.128 70.5199 308.525C70.291 307.685 69.8331 306.999 69.1462 306.541C68.4593 306.083 67.6198 306.083 67.0856 306.693C66.5514 307.228 66.2461 308.067 66.3224 308.83C66.3987 309.593 66.704 310.357 67.1619 311.043C68.1541 312.341 69.6041 313.18 71.1305 313.715C72.6568 314.249 74.1832 314.478 75.7096 314.325C77.2359 314.172 78.6097 313.562 79.5255 312.493C80.5176 311.501 81.0518 310.128 80.8992 308.83C80.8229 307.533 79.8307 306.312 78.686 306.235C78.0754 306.235 77.5412 306.464 77.1596 306.922C76.778 307.38 76.5491 307.914 76.4727 308.449C76.3201 309.593 76.6254 310.662 77.1596 311.501C77.6938 312.341 78.457 313.028 79.2965 313.486C80.8992 314.401 82.5782 314.401 83.8756 314.249C85.173 314.096 86.1652 313.715 86.7757 313.486C87.2336 313.104 87.6152 312.951 87.6152 313.028Z" fill="#FAFAFA"/>
<path d="M47.8721 284.776V304.695H87.0233V284.776H47.8721Z" fill="#EBEBEB"/>
<path d="M54.4156 285.475C54.5683 285.475 54.7209 289.825 54.7209 295.091C54.7209 300.433 54.5683 304.707 54.4156 304.707C54.263 304.707 54.1104 300.357 54.1104 295.091C54.1104 289.825 54.263 285.475 54.4156 285.475Z" fill="#E0E0E0"/>
<path d="M57.3922 285.248C57.5448 285.248 57.6975 289.522 57.6975 294.788C57.6975 300.054 57.5448 304.328 57.3922 304.328C57.2396 304.328 57.0869 300.054 57.0869 294.788C57.0869 289.522 57.2396 285.248 57.3922 285.248Z" fill="#E0E0E0"/>
<path d="M82.5768 284.635C82.7294 284.635 82.882 289.138 82.882 294.632C82.882 300.204 82.7294 304.63 82.5768 304.63C82.4241 304.63 82.2715 300.127 82.2715 294.632C82.3478 289.061 82.5004 284.635 82.5768 284.635Z" fill="#E0E0E0"/>
<path d="M79.1422 284.863C79.2948 284.863 79.4475 289.213 79.4475 294.632C79.4475 300.051 79.2948 304.401 79.1422 304.401C78.9896 304.401 78.8369 300.051 78.8369 294.632C78.8369 289.213 78.9896 284.863 79.1422 284.863Z" fill="#E0E0E0"/>
<path d="M289.781 241.365C293.825 239.305 298.634 239 303.136 239.763C305.578 240.144 308.097 240.908 309.7 242.739C311.379 244.571 311.684 247.776 309.776 249.303C308.631 250.218 307.105 250.371 305.655 250.371C302.144 250.295 298.252 249.684 295.428 251.821C293.825 253.042 292.757 255.026 290.849 255.637C288.941 256.248 286.881 255.103 285.888 253.424C284.896 251.745 284.896 249.608 285.354 247.7C285.201 247.624 285.659 243.426 289.781 241.365Z" fill="#EBEBEB"/>
<path d="M280.469 223.354C282.912 226.865 287.796 225.72 290.009 223.583C292.222 221.446 293.215 218.317 294.054 215.265C296.038 208.472 298.023 201.298 296.573 194.354C296.115 192.293 295.351 190.232 293.901 188.63C292.451 187.103 290.162 186.187 288.178 186.722C285.735 187.332 284.209 189.774 283.141 191.988C279.935 198.627 278.256 206.03 278.18 213.433C278.104 216.944 278.485 220.531 280.469 223.354Z" fill="#EBEBEB"/>
<path d="M273.678 228.469C276.349 225.264 276.883 220.609 275.662 216.64C274.441 212.672 271.77 209.237 268.641 206.414C264.977 203.132 260.703 200.613 256.048 199.011C254.216 198.4 252.308 197.866 250.4 198.019C248.493 198.171 246.585 199.163 245.669 200.919C244.371 203.437 245.592 206.49 246.966 209.008C249.408 213.435 252.156 217.632 255.209 221.601C257.651 224.806 260.551 227.935 264.29 229.385C268.03 230.835 271.999 230.683 273.983 228.012" fill="#EBEBEB"/>
<path d="M280.317 276.856C280.394 276.856 280.47 276.322 280.546 275.253C280.622 274.108 280.775 272.582 281.004 270.827C281.233 268.995 281.462 266.782 281.996 264.416C282.53 262.05 283.294 259.455 284.362 256.784C285.431 254.189 286.728 251.824 288.254 249.916C289.781 248.008 291.536 246.634 293.139 245.871C294.818 245.031 296.268 244.726 297.26 244.573C298.252 244.497 298.863 244.421 298.863 244.344C298.863 244.268 298.252 244.268 297.26 244.344C296.191 244.421 294.665 244.65 292.986 245.489C291.231 246.252 289.399 247.626 287.796 249.61C286.194 251.518 284.82 253.96 283.752 256.632C282.683 259.303 281.92 261.898 281.462 264.34C281.004 266.782 280.775 268.995 280.622 270.903C280.47 272.735 280.394 274.261 280.394 275.33C280.241 276.245 280.241 276.856 280.317 276.856Z" fill="#E0E0E0"/>
<path d="M280.622 273.421C280.622 273.421 280.622 273.192 280.698 272.657C280.698 272.123 280.698 271.36 280.698 270.52C280.698 268.689 280.698 266.018 280.775 262.66C280.927 256.02 281.538 248.922 282.606 238.848C283.675 229.385 285.048 218.395 286.498 211.221C286.804 209.619 287.109 208.168 287.414 206.871C287.72 205.574 287.949 204.505 288.177 203.589C288.406 202.75 288.559 202.063 288.712 201.529C288.788 201.071 288.864 200.766 288.864 200.766C288.864 200.766 288.788 200.995 288.635 201.452C288.483 201.987 288.254 202.674 288.025 203.513C287.72 204.429 287.491 205.497 287.109 206.795C286.804 208.092 286.422 209.542 286.041 211.145C284.591 217.632 283.064 226.714 281.919 236.788C280.851 246.862 280.317 256.02 280.24 262.66C280.164 266.018 280.24 268.689 280.393 270.52C280.469 271.36 280.469 272.123 280.546 272.657C280.546 273.192 280.546 273.421 280.622 273.421Z" fill="#E0E0E0"/>
<path d="M280.622 255.79C280.698 255.79 280.698 255.027 280.622 253.577C280.546 252.127 280.317 250.066 279.935 247.548C279.477 245.029 278.943 241.977 277.951 238.771C277.569 237.245 276.577 233.734 274.288 228.316C271.235 221.066 267.114 215.113 263.451 211.449C262.611 210.457 261.695 209.77 260.932 209.084C260.55 208.778 260.169 208.397 259.864 208.168C259.482 207.939 259.177 207.71 258.871 207.481C257.65 206.641 257.04 206.26 256.963 206.26C256.887 206.412 259.635 208.015 263.145 211.755C266.656 215.494 270.624 221.371 273.677 228.545C275.356 232.437 276.577 235.948 277.417 238.848C278.409 242.053 279.019 245.029 279.477 247.548C279.935 250.066 280.241 252.127 280.393 253.501C280.469 254.951 280.622 255.79 280.622 255.79Z" fill="#E0E0E0"/>
<path d="M262.383 284.256L264.138 308.601H295.352L297.108 284.256H262.383Z" fill="#EBEBEB"/>
<path d="M300.847 274.717H259.33V284.257H300.847V274.717Z" fill="#EBEBEB"/>
<path d="M259.33 307.609V310.281H261.314H300.16V307.609H259.33Z" fill="#E0E0E0"/>
<path d="M263.221 314.632L261.313 309.977H298.633L296.42 314.632H263.221Z" fill="#E0E0E0"/>
<path d="M296.496 292.194C296.496 292.194 296.42 292.27 296.344 292.423C296.191 292.576 296.039 292.804 295.886 293.033C295.428 293.568 294.817 294.407 294.054 295.323L293.978 295.399L293.902 295.323C292.757 293.72 291.231 291.66 289.399 289.141H289.628C288.33 291.049 286.804 293.11 285.201 295.399L285.049 295.628L284.896 295.476C283.293 293.568 281.538 291.431 279.706 289.294H280.012C279.935 289.37 279.859 289.523 279.706 289.675C278.104 291.736 276.501 293.644 275.051 295.552L274.898 295.781L274.746 295.552C273.143 293.339 271.693 291.202 270.319 289.294H270.548C268.411 291.736 266.58 293.873 265.13 295.476L265.053 295.552L264.977 295.399C264.29 294.178 263.68 293.262 263.298 292.576C263.145 292.27 262.993 292.041 262.84 291.812C262.764 291.66 262.688 291.583 262.688 291.507C262.688 291.507 262.764 291.583 262.84 291.736C262.993 291.965 263.145 292.194 263.298 292.499C263.756 293.186 264.367 294.102 265.053 295.323H264.901C266.274 293.72 268.106 291.583 270.243 289.065L270.396 288.912L270.548 289.065C271.922 290.973 273.372 293.033 274.975 295.247H274.669C276.119 293.415 277.722 291.431 279.325 289.37C279.401 289.218 279.554 289.141 279.63 288.989L279.783 288.836L279.935 288.989C281.767 291.202 283.522 293.262 285.125 295.17H284.82C286.422 292.957 287.949 290.82 289.246 288.989L289.399 288.836L289.551 288.989C291.307 291.507 292.833 293.644 293.902 295.247H293.749C294.512 294.255 295.199 293.568 295.657 292.957C295.886 292.728 296.039 292.499 296.191 292.347C296.42 292.27 296.496 292.194 296.496 292.194Z" fill="#F5F5F5"/>
<path d="M297.565 284.102C297.565 284.178 289.781 284.331 280.088 284.331C270.472 284.331 262.611 284.255 262.611 284.102C262.611 284.026 270.396 283.873 280.088 283.873C289.704 283.949 297.565 284.026 297.565 284.102Z" fill="#F5F5F5"/>
<path d="M119.668 31.1109C119.668 31.1109 119.592 31.1109 119.515 31.0345C119.363 30.9582 119.21 30.8819 118.981 30.8056C118.523 30.5766 117.836 30.3477 117.073 29.9661C115.394 29.2029 112.952 28.2108 110.052 26.9134C104.099 24.3185 95.8567 20.7316 86.8512 16.8394C86.5459 16.6867 86.3169 16.6104 86.0117 16.4578H86.1643C77.2351 20.2737 69.2216 23.708 63.4215 26.1502C60.5214 27.3713 58.2318 28.3634 56.5528 29.0503C55.7896 29.3555 55.1028 29.6608 54.6449 29.8134C54.187 29.9661 53.958 30.0424 53.958 30.0424C53.958 30.0424 54.187 29.8898 54.5686 29.7371C55.0265 29.5082 55.637 29.2792 56.4002 28.8976C58.0792 28.1344 60.3687 27.1423 63.1925 25.9212C68.9927 23.4027 77.0061 19.9684 85.859 16.0762H85.9353H86.0117C86.2406 16.1525 86.5459 16.3051 86.8512 16.4578C95.8567 20.4263 104.023 24.0133 109.976 26.6844C112.876 27.9818 115.318 29.0503 116.997 29.8134C117.76 30.195 118.447 30.5003 118.905 30.6529C119.134 30.7293 119.286 30.8056 119.363 30.8819C119.592 31.1109 119.668 31.1109 119.668 31.1109Z" fill="#E0E0E0"/>
<path d="M155.842 27.8281H6.79297V139.405H155.842V27.8281Z" fill="#E0E0E0"/>
<path d="M151.263 33.0195H12.0586V134.828H151.263V33.0195Z" fill="#FAFAFA"/>
<path d="M42.8154 77.5137C42.8154 77.5137 42.9681 94.6089 43.8076 99.7986L65.253 98.8064C65.253 98.8064 63.345 82.0164 64.1082 77.5137H42.8154Z" fill="#E0E0E0"/>
<path d="M53.3484 79.879C53.3484 79.879 53.3484 79.879 53.4247 79.879C53.501 79.879 53.5774 79.879 53.6537 79.879C53.8826 79.879 54.1879 79.8791 54.5695 79.9554C54.9511 80.0317 55.409 80.108 55.9432 80.337C56.4775 80.5659 56.9354 80.9475 57.3933 81.4817C57.8512 82.016 58.2328 82.7028 58.3854 83.5423C58.538 84.3818 58.4617 85.2976 58.1565 86.2135C58.0038 86.6714 57.7749 87.1293 57.5459 87.5109C57.317 87.9688 57.088 88.3504 56.859 88.8846C56.4775 89.8004 56.0959 90.8689 56.0195 91.9373V92.0136H55.9432C55.2564 92.0136 54.5695 92.0136 53.8063 92.0136C53.0431 92.0136 52.28 92.0136 51.5931 92.0136H51.5168V91.9373C51.5168 90.8689 50.9825 89.8767 50.5246 89.0372C50.2957 88.5793 49.9904 88.1977 49.6851 87.7398C49.4562 87.3582 49.1509 86.9766 48.922 86.5187C48.464 85.6792 48.464 84.6871 48.6167 83.9239C48.7693 83.0844 49.0746 82.3975 49.4562 81.787C49.8378 81.1765 50.372 80.7949 50.8299 80.5659C51.2878 80.2606 51.7457 80.1843 52.1273 80.0317C52.5089 79.9554 52.8142 79.879 52.9668 79.879C53.0431 79.879 53.1195 79.879 53.1958 79.879C53.3484 79.879 53.3484 79.879 53.3484 79.879C53.3484 79.879 53.3484 79.879 53.2721 79.879C53.1958 79.879 53.1195 79.879 53.0431 79.879C52.8142 79.879 52.5852 79.9554 52.2036 80.0317C51.822 80.108 51.3641 80.2606 50.9062 80.5659C50.4483 80.8712 49.9141 81.2528 49.5325 81.787C49.1509 82.3212 48.922 83.0844 48.7693 83.8476C48.6167 84.6108 48.693 85.5266 49.0746 86.3661C49.3035 86.7477 49.5325 87.1293 49.8378 87.5872C50.0667 87.9688 50.372 88.4267 50.6773 88.8846C51.2115 89.8004 51.6694 90.7925 51.7457 91.861L51.6694 91.7847C52.3563 91.7847 53.1195 91.7847 53.8826 91.7847C54.6458 91.7847 55.3327 91.7847 56.0195 91.7847L55.9432 91.861C56.0959 90.7162 56.4011 89.7241 56.859 88.8083C57.088 88.3504 57.317 87.8925 57.5459 87.4346C57.7749 86.9766 58.0038 86.595 58.1565 86.1371C58.4617 85.2976 58.538 84.3818 58.3854 83.5423C58.2328 82.7791 57.8512 82.0923 57.3933 81.4817C56.9354 80.9475 56.4775 80.5659 55.9432 80.337C55.4853 80.108 54.9511 79.9554 54.6458 79.879C54.2642 79.8027 53.959 79.8027 53.73 79.8027C53.6537 79.8027 53.5774 79.8027 53.501 79.8027C53.3484 79.8791 53.3484 79.879 53.3484 79.879Z" fill="white"/>
<path d="M54.4177 91.7864C54.4177 91.6338 54.4177 91.6338 54.3414 91.5575C54.3414 91.4048 54.2651 91.0995 54.1887 90.7943C54.1124 90.1074 53.9598 89.1916 53.8835 87.9705C53.8835 87.6652 53.8071 87.36 53.8071 87.0547C53.8071 86.7494 53.8071 86.3678 53.8071 86.0625C53.8071 85.681 53.8835 85.2994 54.0361 84.9941C54.1887 84.6888 54.494 84.3072 54.8756 84.1546C55.2572 84.002 55.7151 84.0783 56.0204 84.3836C56.173 84.5362 56.2493 84.7651 56.2493 84.9941C56.2493 85.223 56.173 85.452 56.0204 85.6046C55.8677 85.7573 55.7151 85.9099 55.4861 85.9862C55.2572 86.0625 55.1046 86.1389 54.8756 86.2152C54.4177 86.2915 53.9598 86.3678 53.5019 86.3678C53.044 86.3678 52.586 86.3678 52.1281 86.2915C51.8992 86.2915 51.6702 86.2152 51.5176 86.1389C51.2886 86.0625 51.136 85.9099 50.9834 85.7573C50.8307 85.6046 50.7544 85.3757 50.6781 85.1467C50.6018 84.9178 50.6781 84.6888 50.7544 84.5362C50.8307 84.3072 50.9834 84.1546 51.2123 84.0783C51.4413 84.002 51.6702 84.002 51.8229 84.0783C51.9755 84.1546 52.1281 84.3072 52.2808 84.4599C52.3571 84.6125 52.4334 84.8415 52.5097 84.9941C52.586 85.3757 52.5861 85.7573 52.5861 86.0625C52.5861 86.7494 52.6624 87.4363 52.6624 88.0468C52.7387 89.2679 52.7387 90.1837 52.815 90.8706C52.815 91.1759 52.815 91.4811 52.815 91.6338C52.815 91.7101 52.815 91.7864 52.815 91.8627C52.815 91.939 52.815 91.939 52.815 91.939C52.815 91.939 52.815 91.939 52.815 91.8627C52.815 91.7864 52.815 91.7101 52.815 91.6338C52.815 91.4811 52.815 91.1759 52.7387 90.8706C52.6624 90.1837 52.6624 89.1916 52.5861 88.0468C52.5861 87.4363 52.5097 86.8257 52.5097 86.0625C52.5097 85.681 52.5097 85.3757 52.4334 84.9941C52.3571 84.8415 52.3571 84.6125 52.2045 84.4599C52.1281 84.3072 51.9755 84.1546 51.7465 84.0783C51.5939 84.002 51.365 84.002 51.2123 84.0783C51.0597 84.1546 50.907 84.3072 50.8307 84.4599C50.7544 84.6125 50.6781 84.8415 50.7544 85.0704C50.8307 85.2994 50.9071 85.452 51.0597 85.6046C51.365 85.9099 51.7466 86.0625 52.2045 86.1389C52.6624 86.2152 53.1203 86.2152 53.5782 86.2152C54.0361 86.2152 54.494 86.1389 54.9519 86.0625C55.1809 85.9862 55.4098 85.9862 55.5625 85.8336C55.7914 85.7573 55.9441 85.6046 56.0204 85.452C56.173 85.2994 56.2493 85.0704 56.2493 84.8415C56.2493 84.6125 56.173 84.4599 56.0204 84.3072C55.7151 84.002 55.2572 83.9256 54.9519 84.0783C54.5703 84.2309 54.3414 84.5362 54.1887 84.8415C54.0361 85.1467 53.9598 85.5283 53.9598 85.9099C53.9598 86.2915 53.9598 86.5968 53.9598 86.902C53.9598 87.2073 53.9598 87.5126 54.0361 87.8179C54.1124 89.039 54.265 89.9548 54.3414 90.6416C54.4177 90.9469 54.4177 91.2522 54.4177 91.4048C54.4177 91.6338 54.4177 91.7101 54.4177 91.7864Z" fill="white"/>
<path d="M51.5928 91.9399C51.5928 91.9399 51.5928 92.1688 51.6691 92.6268C51.6691 93.161 51.7454 93.7715 51.7454 94.4584V94.3821C52.2033 94.9163 52.6612 95.4505 53.1955 96.0611H53.1191C53.6534 96.0611 54.1876 95.9848 54.7981 95.9848H54.7218C55.0271 95.6795 55.256 95.2979 55.5613 94.9926C55.714 94.84 55.8666 94.6874 55.9429 94.4584V94.5347C55.9429 93.5426 55.8666 92.6268 55.8666 91.7873L55.9429 91.8636C54.7218 91.8636 53.6534 91.8636 52.8139 91.8636C52.5086 91.8636 52.2033 91.8636 51.898 91.8636C51.7454 91.9399 51.5928 91.9399 51.5928 91.9399C51.5928 91.9399 51.6691 91.9399 51.898 91.9399C52.127 91.9399 52.4323 91.9399 52.8139 91.8636C53.6534 91.8636 54.7218 91.7873 56.0192 91.7109H56.0955V91.7873C56.0955 92.6268 56.1719 93.5426 56.1719 94.5347C56.0192 94.6873 55.8666 94.84 55.7903 95.0689C55.485 95.4505 55.256 95.7558 54.9508 96.0611H54.8745C54.2639 96.0611 53.7297 96.1374 53.1955 96.1374H53.1191C52.5849 95.5268 52.127 94.9163 51.6691 94.4584C51.6691 93.6952 51.6691 93.0847 51.6691 92.5504C51.5928 92.1689 51.5928 91.9399 51.5928 91.9399Z" fill="white"/>
<path d="M55.9428 94.3057C55.9428 94.3057 55.8664 94.3057 55.7901 94.2294C55.7138 94.1531 55.5612 94.1531 55.3322 94.0768C54.9506 93.9241 54.4164 93.8478 53.8059 93.8478C53.1953 93.8478 52.6611 94.0004 52.2795 94.1531C52.1269 94.2294 51.9742 94.3057 51.8216 94.382C51.7453 94.4584 51.6689 94.4584 51.6689 94.4584C51.6689 94.4584 51.7453 94.382 51.8216 94.382C51.8979 94.3057 52.0505 94.2294 52.2032 94.1531C52.5848 94.0004 53.119 93.8478 53.7295 93.7715C54.3401 93.7715 54.8743 93.8478 55.2559 94.0004C55.4085 94.0768 55.5612 94.1531 55.7138 94.2294C55.8664 94.3057 55.9428 94.3057 55.9428 94.3057Z" fill="white"/>
<path d="M55.9428 93.6924C55.9428 93.6924 55.8664 93.6924 55.7901 93.6161C55.7138 93.5398 55.5612 93.5398 55.3322 93.4635C54.9506 93.3108 54.4164 93.2345 53.8059 93.2345C53.1953 93.2345 52.6611 93.3872 52.2795 93.5398C52.1269 93.6161 51.9742 93.6924 51.8216 93.7687C51.7453 93.8451 51.6689 93.8451 51.6689 93.8451C51.6689 93.8451 51.7453 93.7687 51.8216 93.7687C51.8979 93.6924 52.0505 93.6161 52.2032 93.5398C52.5848 93.3872 53.119 93.2345 53.7295 93.1582C54.3401 93.1582 54.8743 93.2345 55.2559 93.3871C55.4085 93.4635 55.5612 93.5398 55.7138 93.6161C55.8664 93.6161 55.9428 93.6924 55.9428 93.6924Z" fill="white"/>
<path d="M55.8666 93.0069C55.8666 93.0069 55.7903 93.0069 55.714 92.9306C55.6376 92.8543 55.485 92.8543 55.256 92.7779C54.8745 92.6253 54.3402 92.549 53.7297 92.549C53.1191 92.549 52.5849 92.7016 52.2033 92.8542C52.0507 92.9306 51.898 93.0069 51.7454 93.0832C51.6691 93.1595 51.5928 93.1595 51.5928 93.1595C51.5928 93.1595 51.6691 93.0832 51.7454 93.0832C51.8217 93.0069 51.9744 92.9306 52.127 92.8542C52.5086 92.7016 53.0428 92.549 53.6534 92.4727C54.2639 92.4727 54.7981 92.549 55.1797 92.7016C55.3324 92.7779 55.485 92.8543 55.6376 92.9306C55.8666 93.0069 55.8666 93.0069 55.8666 93.0069Z" fill="white"/>
<path d="M18.9277 49.582C18.9277 49.582 19.0804 66.6773 19.9199 71.8669L41.3653 70.8748C41.3653 70.8748 39.4573 54.0848 40.2205 49.582H18.9277Z" fill="#EBEBEB"/>
<path d="M36.9386 56.7541C36.9386 56.9067 33.7333 57.1356 29.7647 57.3646C25.7962 57.5936 22.5908 57.6699 22.5908 57.5936C22.5908 57.4409 25.7962 57.212 29.7647 56.983C33.7333 56.6777 36.9386 56.6014 36.9386 56.7541Z" fill="white"/>
<path d="M36.9386 60.3411C36.9386 60.4938 33.7333 60.7227 29.7647 60.9517C25.7962 61.1806 22.5908 61.2569 22.5908 61.1806C22.5908 61.028 25.7962 60.799 29.7647 60.5701C33.7333 60.3411 36.9386 60.2648 36.9386 60.3411Z" fill="white"/>
<path d="M33.3517 63.9328C33.3517 64.0855 31.5201 64.2381 29.2306 64.3907C26.941 64.5434 25.1094 64.5434 25.1094 64.3907C25.1094 64.2381 26.941 64.0855 29.2306 63.9328C31.4438 63.7802 33.3517 63.7802 33.3517 63.9328Z" fill="white"/>
<path d="M17.8594 99.7949C17.8594 99.7949 18.012 116.89 18.8515 122.08L40.2969 121.088C40.2969 121.088 38.389 104.298 39.1522 99.7949H17.8594Z" fill="#EBEBEB"/>
<path d="M35.9474 107.047C35.9474 107.2 32.7421 107.429 28.7735 107.658C24.805 107.887 21.5996 107.963 21.5996 107.887C21.5996 107.734 24.805 107.505 28.7735 107.276C32.7421 106.971 35.9474 106.894 35.9474 107.047Z" fill="white"/>
<path d="M35.9474 110.634C35.9474 110.786 32.7421 111.015 28.7735 111.244C24.805 111.473 21.5996 111.55 21.5996 111.473C21.5996 111.321 24.805 111.092 28.7735 110.863C32.7421 110.634 35.9474 110.481 35.9474 110.634Z" fill="white"/>
<path d="M32.2844 114.22C32.2844 114.373 30.4527 114.525 28.1632 114.678C25.8736 114.83 24.042 114.83 24.042 114.678C24.042 114.525 25.8736 114.373 28.1632 114.22C30.4527 114.067 32.2844 114.067 32.2844 114.22Z" fill="white"/>
<path d="M76.4717 54.0801L78.6086 103.382L140.121 104.145L137.374 54.6906L76.4717 54.0801Z" fill="#EBEBEB"/>
<path d="M136.916 53.6934H75.7852V99.8659H136.916V53.6934Z" fill="#F5F5F5"/>
<path d="M136.915 99.8683C136.915 99.8683 136.915 99.563 136.915 99.0288C136.915 98.4945 136.915 97.655 136.915 96.5866C136.915 94.4497 136.915 91.2443 136.839 87.2758C136.839 79.2623 136.763 67.7383 136.763 53.7721L136.915 53.9247C119.667 53.9247 98.5273 53.9247 75.7845 53.9247L76.0134 53.6958C76.0134 70.3331 76.0134 86.0547 76.0134 99.8683L75.8608 99.7156C93.9482 99.7919 109.212 99.792 119.973 99.792C125.315 99.792 129.589 99.8683 132.489 99.8683C133.939 99.8683 135.084 99.8683 135.847 99.8683C136.228 99.8683 136.534 99.8683 136.686 99.8683C136.763 99.8683 136.915 99.8683 136.915 99.8683C136.915 99.8683 136.839 99.8683 136.61 99.8683C136.381 99.8683 136.152 99.8683 135.771 99.8683C135.007 99.8683 133.939 99.8683 132.489 99.8683C129.589 99.8683 125.315 99.8683 119.973 99.9446C109.212 99.9446 93.8719 100.021 75.7845 100.021H75.6318V99.8683C75.6318 86.0547 75.6318 70.3331 75.6318 53.6958V53.4668H75.8608C98.6036 53.4668 119.744 53.4668 136.992 53.4668H137.144V53.6194C137.144 67.5857 137.068 79.186 137.068 87.1994C137.068 91.168 137.068 94.3734 136.992 96.5103C136.992 97.5787 136.992 98.3419 136.992 98.9524C136.915 99.6393 136.915 99.8683 136.915 99.8683Z" fill="#E0E0E0"/>
<path d="M107.915 63.4648H83.1113V94.679H107.915V63.4648Z" fill="#F5F5F5"/>
<path d="M107.915 94.6773C107.915 94.6773 107.915 94.601 107.915 94.5247C107.915 94.372 107.915 94.2957 107.915 94.0668C107.915 93.6852 107.915 93.0746 107.915 92.3878C107.915 90.8614 107.915 88.7245 107.839 85.977C107.839 80.4821 107.762 72.6977 107.762 63.4632L107.915 63.6158C100.512 63.6158 92.0408 63.6158 83.1115 63.6158C83.0352 63.6921 83.4931 63.2342 83.3405 63.3869V63.4632V63.6158V63.9211V64.4553V65.5238C83.3405 66.2106 83.3405 66.9738 83.3405 67.6607C83.3405 69.1107 83.3405 70.4845 83.3405 71.8582C83.3405 74.6056 83.3405 77.3531 83.3405 79.9479C83.3405 85.2139 83.3405 90.0982 83.3405 94.5247L83.1878 94.372C90.5907 94.372 96.7725 94.4484 101.123 94.4484C103.26 94.4484 104.939 94.4484 106.16 94.5247C106.694 94.5247 107.152 94.5247 107.457 94.5247C107.762 94.6773 107.915 94.6773 107.915 94.6773C107.915 94.6773 107.762 94.6773 107.457 94.6773C107.152 94.6773 106.694 94.6773 106.16 94.6773C105.015 94.6773 103.336 94.6773 101.199 94.7536C96.8488 94.7536 90.5907 94.83 83.1115 94.83H82.9589V94.6773C82.9589 90.2509 82.9589 85.2902 82.9589 80.1005C82.9589 77.5057 82.9589 74.7583 82.9589 72.0108C82.9589 70.6371 82.9589 69.187 82.9589 67.8133C82.9589 67.1265 82.9589 66.3633 82.9589 65.6764V64.608V64.0737V63.7685V63.6158V63.5395C82.8063 63.6921 83.1878 63.3105 83.1878 63.3105C92.1171 63.3105 100.588 63.3105 107.991 63.3105H108.144V63.4632C108.068 72.774 108.068 80.5585 108.068 86.0534C108.068 88.8008 107.991 90.9377 107.991 92.3878C107.991 93.0746 107.991 93.6852 107.991 94.0668C107.991 94.2194 107.991 94.372 107.991 94.5247C107.915 94.6773 107.915 94.6773 107.915 94.6773Z" fill="#E0E0E0"/>
<path d="M131.573 56.3652H84.1035V60.868H131.573V56.3652Z" fill="#F5F5F5"/>
<path d="M131.574 60.8703C131.574 60.8703 131.574 60.7939 131.574 60.565C131.574 60.336 131.574 60.0308 131.574 59.7255C131.574 58.9623 131.574 57.8175 131.497 56.4438L131.574 56.5201C123.56 56.5964 105.32 56.6728 84.1036 56.6728C84.4852 56.2148 84.2562 56.5201 84.3326 56.4438V56.5201V56.6728V56.978V57.5886C84.3326 57.9702 84.3326 58.3518 84.3326 58.7333C84.3326 59.4965 84.3326 60.2597 84.3326 60.9466L84.1036 60.7176C97.383 60.7176 109.212 60.7939 117.76 60.7939C122.034 60.7939 125.468 60.8703 127.834 60.8703C128.979 60.8703 129.895 60.8703 130.581 60.8703C130.887 60.8703 131.116 60.8703 131.268 60.8703C131.497 60.8703 131.574 60.8703 131.574 60.8703C131.574 60.8703 131.497 60.8703 131.345 60.8703C131.192 60.8703 130.963 60.8703 130.658 60.8703C130.047 60.8703 129.131 60.8703 127.987 60.8703C125.621 60.8703 122.186 60.8703 117.913 60.9466C109.365 60.9466 97.4593 61.0229 84.1036 61.0229H83.8747V60.7939C83.8747 60.1071 83.8747 59.3439 83.8747 58.5807C83.8747 58.1991 83.8747 57.8175 83.8747 57.4359V56.8254V56.5201V56.3675V56.4438C83.951 56.3675 83.6457 56.6728 84.1036 56.2148C105.32 56.2148 123.56 56.2912 131.574 56.3675H131.65V56.4438C131.65 57.8938 131.65 59.0386 131.574 59.8018C131.574 60.1834 131.574 60.4123 131.574 60.6413C131.574 60.7939 131.574 60.8703 131.574 60.8703Z" fill="#E0E0E0"/>
<path d="M131.574 63.4648H110.968V82.2391H131.574V63.4648Z" fill="#F5F5F5"/>
<path d="M131.574 82.3159C131.574 82.3159 131.574 82.1632 131.574 81.9343C131.574 81.7053 131.574 81.3237 131.574 80.9422C131.574 80.0263 131.574 78.7289 131.498 77.1262C131.498 73.8446 131.421 69.1128 131.421 63.5416L131.574 63.6942C125.621 63.6942 118.524 63.6942 110.968 63.6942C110.892 63.7706 111.35 63.3126 111.197 63.4653V63.5416V63.6179V63.7706V64.0758V64.6864C111.197 65.1443 111.197 65.5259 111.197 65.9838C111.197 66.8233 111.197 67.6628 111.197 68.5023C111.197 70.1813 111.197 71.784 111.197 73.3866C111.197 76.5157 111.197 79.4921 111.197 82.3159L111.044 82.1632C117.15 82.2396 122.263 82.2396 125.926 82.2396C127.682 82.2396 129.132 82.2396 130.124 82.3159C130.582 82.3159 130.963 82.3159 131.269 82.3159C131.421 82.3159 131.574 82.3159 131.574 82.3159C131.574 82.3159 131.421 82.3159 131.192 82.3159C130.887 82.3159 130.582 82.3159 130.124 82.3159C129.132 82.3159 127.682 82.3159 125.926 82.3922C122.263 82.3922 117.074 82.4685 110.892 82.4685H110.739V82.3159C110.739 79.5684 110.739 76.592 110.739 73.3866C110.739 71.784 110.739 70.1813 110.739 68.5023C110.739 67.6628 110.739 66.8233 110.739 65.9838C110.739 65.5259 110.739 65.1443 110.739 64.6864V64.0758V63.7706V63.6179V63.5416V63.4653C110.587 63.6179 110.968 63.2363 110.968 63.2363C118.524 63.2363 125.621 63.2363 131.574 63.2363H131.727V63.389C131.727 69.0365 131.65 73.7682 131.65 77.0499C131.65 78.6526 131.65 79.95 131.574 80.8658C131.574 81.2474 131.574 81.629 131.574 81.858C131.574 82.1632 131.574 82.3159 131.574 82.3159Z" fill="#E0E0E0"/>
<path d="M131.573 85.2148H110.967V94.6783H131.573V85.2148Z" fill="#F5F5F5"/>
<path d="M131.573 94.6771C131.573 94.6771 131.573 94.4481 131.573 93.9902C131.573 93.5323 131.573 92.9217 131.573 92.0822C131.573 90.4032 131.497 88.1137 131.497 85.2136L131.649 85.3662C126.307 85.3662 118.981 85.3662 111.044 85.4426C110.891 85.5952 111.273 85.2136 111.273 85.2136V85.2899V85.3662V85.5189V85.8241V86.4347C111.273 86.8163 111.273 87.2742 111.273 87.6558C111.273 88.4953 111.273 89.2585 111.273 90.098C111.273 91.7007 111.273 93.227 111.273 94.6771L111.044 94.4481C116.996 94.5244 122.11 94.5244 125.773 94.5244C127.605 94.5244 129.055 94.6007 130.047 94.6007C130.505 94.6007 130.886 94.6007 131.192 94.6007C131.421 94.6771 131.573 94.6771 131.573 94.6771C131.573 94.6771 131.421 94.6771 131.192 94.6771C130.886 94.6771 130.505 94.6771 130.047 94.6771C128.978 94.6771 127.605 94.6771 125.773 94.7534C122.033 94.7534 116.92 94.8297 110.891 94.8297H110.662V94.6007C110.662 93.1507 110.662 91.6243 110.662 90.0216C110.662 89.2585 110.662 88.419 110.662 87.5795C110.662 87.1979 110.662 86.74 110.662 86.3584V85.7478V85.4426V85.2899V85.2136V85.1373C110.586 85.2136 111.044 84.7557 110.891 84.9083C118.904 84.9083 126.155 84.9846 131.497 84.9846H131.649V85.1373C131.649 88.0374 131.573 90.4032 131.573 92.0822C131.573 92.8454 131.573 93.456 131.497 93.9139C131.573 94.4481 131.573 94.6771 131.573 94.6771Z" fill="#E0E0E0"/>
<path d="M107.304 63.543C99.5961 74.1512 90.8195 84.0726 83.1113 94.6808L107.304 63.543Z" fill="white"/>
<path d="M83.1113 94.679C83.1113 94.679 83.1876 94.5264 83.3403 94.2974C83.4929 94.0684 83.7219 93.7632 83.9508 93.3816C84.485 92.5421 85.4009 91.3973 86.4693 89.9473C88.6062 87.0472 91.659 83.2313 95.0933 78.9574C98.5276 74.6836 101.58 70.8677 103.794 68.0439C104.862 66.6702 105.702 65.5254 106.388 64.6859C106.694 64.3043 106.923 63.9991 107.075 63.7701C107.228 63.5412 107.304 63.4648 107.381 63.4648C107.381 63.4648 107.304 63.6175 107.152 63.8464C106.999 64.0754 106.77 64.3807 106.541 64.7623C106.007 65.6018 105.091 66.7465 104.023 68.1966C101.886 71.0967 98.8329 74.9126 95.3986 79.1864C91.9642 83.4602 88.9115 87.2761 86.6983 90.0999C85.6298 91.4736 84.7903 92.6184 84.1035 93.4579C83.7982 93.8395 83.5692 94.1448 83.4166 94.3737C83.264 94.6027 83.1876 94.679 83.1113 94.679Z" fill="#E0E0E0"/>
<path d="M107.915 94.6777C107.838 94.754 102.191 87.809 95.3221 79.1851C88.4534 70.5611 83.0348 63.5398 83.1111 63.4635C83.1875 63.3872 88.835 70.3322 95.7037 78.9561C102.572 87.5801 107.991 94.6013 107.915 94.6777Z" fill="#E0E0E0"/>
<path d="M78.6087 63.5446C78.6087 65.6815 76.8534 67.4368 74.7165 67.4368C72.5795 67.4368 70.8242 65.6815 70.8242 63.5446C70.8242 61.4077 72.5795 59.6523 74.7165 59.6523C76.8534 59.6523 78.6087 61.4077 78.6087 63.5446Z" fill="#E0E0E0"/>
<path d="M142.029 54.1559C142.029 56.2928 140.273 58.0481 138.136 58.0481C135.999 58.0481 134.244 56.2928 134.244 54.1559C134.244 52.019 135.999 50.2637 138.136 50.2637C140.273 50.2637 142.029 52.019 142.029 54.1559Z" fill="#E0E0E0"/>
<path d="M293.673 81.1777H249.027V145.972H293.673V81.1777Z" fill="#E0E0E0"/>
<path d="M291.385 81.1777H246.739V145.972H291.385V81.1777Z" fill="#F5F5F5"/>
<path d="M285.89 88.1973H252.31V138.949H285.89V88.1973Z" fill="white"/>
<path d="M285.889 138.875C285.889 138.875 285.889 138.799 285.889 138.646C285.889 138.493 285.889 138.264 285.889 137.959C285.889 137.349 285.889 136.356 285.889 135.212C285.889 132.769 285.889 129.259 285.889 124.756C285.889 115.827 285.889 103.158 285.812 88.1997L285.889 88.276C275.662 88.276 264.291 88.276 252.309 88.276L252.461 88.1233C252.461 107.279 252.461 124.909 252.461 138.875L252.385 138.799C262.612 138.799 271.007 138.875 276.807 138.875C279.707 138.875 281.997 138.875 283.523 138.875C284.286 138.875 284.897 138.875 285.278 138.875C285.66 138.875 285.889 138.875 285.889 138.875C285.889 138.875 285.66 138.875 285.278 138.875C284.897 138.875 284.286 138.875 283.523 138.875C281.997 138.875 279.707 138.875 276.807 138.875C270.93 138.875 262.535 138.875 252.309 138.951H252.232V138.875C252.232 124.909 252.232 107.279 252.232 88.1233V87.9707H252.385C264.367 87.9707 275.662 87.9707 285.965 87.9707H286.041V88.047C286.041 103.005 285.965 115.674 285.965 124.68C285.965 129.183 285.965 132.693 285.965 135.135C285.965 136.356 285.965 137.272 285.965 137.883C285.965 138.188 285.965 138.417 285.965 138.57C285.889 138.799 285.889 138.875 285.889 138.875Z" fill="#E0E0E0"/>
<path d="M291.537 81.1777C291.537 81.1777 291.232 81.6356 290.774 82.3225C290.24 83.0094 289.553 83.9252 288.713 84.9936C287.874 85.9858 287.11 86.9016 286.5 87.5885C285.889 88.199 285.508 88.5806 285.508 88.5806C285.508 88.5806 285.813 88.1227 286.347 87.4358C286.958 86.6727 287.721 85.8331 288.484 84.841C289.324 83.8489 290.011 82.9331 290.621 82.2462C291.155 81.5593 291.537 81.1777 291.537 81.1777Z" fill="#E0E0E0"/>
<path d="M286.042 138.719C287.721 141.39 289.705 143.832 291.918 146.045L286.042 138.719Z" fill="white"/>
<path d="M291.918 146.045C291.918 146.045 291.46 145.74 290.926 145.129C290.316 144.519 289.553 143.679 288.713 142.611C287.874 141.619 287.263 140.627 286.805 139.94C286.347 139.253 286.118 138.719 286.118 138.719C286.118 138.719 286.423 139.1 286.958 139.787C287.416 140.474 288.179 141.39 288.942 142.458C289.781 143.45 290.545 144.366 291.079 144.977C291.613 145.664 291.918 146.045 291.918 146.045Z" fill="#E0E0E0"/>
<path d="M246.738 145.893C248.723 143.451 250.63 141.085 252.615 138.643L246.738 145.893Z" fill="white"/>
<path d="M252.614 138.643C252.69 138.719 251.393 140.322 249.79 142.306C248.188 144.29 246.814 145.893 246.738 145.816C246.661 145.74 247.959 144.137 249.561 142.153C251.164 140.169 252.538 138.643 252.614 138.643Z" fill="#E0E0E0"/>
<path d="M246.739 81.1746C246.816 81.0983 248.037 82.6247 249.563 84.5326C251.089 86.4406 252.234 88.0433 252.234 88.0433C252.158 88.1196 250.937 86.5932 249.41 84.6853C247.884 82.7773 246.739 81.1746 246.739 81.1746Z" fill="#E0E0E0"/>
<path d="M275.434 98.5H264.215V130.401H275.434V98.5Z" fill="#E0E0E0"/>
<path d="M283.365 12.3973L276.955 12.4316L277.125 44.2563L283.536 44.222L283.365 12.3973Z" fill="#E0E0E0"/>
<path d="M238.146 12.4387L221.585 12.5273L221.679 30.0805L238.24 29.9919L238.146 12.4387Z" fill="#EBEBEB"/>
<path d="M254.631 12.3625L238.07 12.4512L238.164 30.0044L254.725 29.9157L254.631 12.3625Z" fill="#F5F5F5"/>
<path d="M221.629 17.3734C232.619 17.4497 243.685 17.3734 254.675 17.2208C254.903 17.2208 254.903 16.8392 254.675 16.8392C243.685 16.7628 232.619 16.8392 221.629 17.0681C221.4 17.0681 221.4 17.3734 221.629 17.3734Z" fill="#E0E0E0"/>
<path d="M241.284 29.7392L211.215 29.9004L211.292 44.2482L241.361 44.0871L241.284 29.7392Z" fill="#EBEBEB"/>
<path d="M271.277 29.5792L241.208 29.7402L241.285 44.0881L271.354 43.927L271.277 29.5792Z" fill="#F5F5F5"/>
<path d="M211.249 33.8575C231.245 34.0865 251.316 33.8575 271.312 33.5522C271.541 33.5522 271.541 33.1706 271.312 33.1706C251.316 33.0943 231.245 33.0943 211.249 33.5522C211.097 33.5522 211.097 33.8575 211.249 33.8575Z" fill="#E0E0E0"/>
<path d="M316.644 44.2383H200.03V49.3516H316.644V44.2383Z" fill="#E0E0E0"/>
<path d="M223.841 46.6816H219.109V64.1585H223.841V46.6816Z" fill="#E0E0E0"/>
<path d="M294.512 46.6816H289.78V64.1585H294.512V46.6816Z" fill="#E0E0E0"/>
<path d="M289.668 0.491043L283.257 0.525391L283.492 44.332L289.903 44.2977L289.668 0.491043Z" fill="#EBEBEB"/>
<path d="M299.612 8.64604L289.69 8.69922L289.881 44.1872L299.802 44.134L299.612 8.64604Z" fill="#F5F5F5"/>
<path d="M299.549 15.4651C299.549 15.5415 297.336 15.6178 294.588 15.6178C291.841 15.6178 289.627 15.5415 289.627 15.4651C289.627 15.3888 291.841 15.3125 294.588 15.3125C297.336 15.3125 299.549 15.3888 299.549 15.4651Z" fill="#E0E0E0"/>
<path d="M299.549 14.0127C299.549 14.089 297.336 14.1653 294.588 14.1653C291.841 14.1653 289.627 14.089 289.627 14.0127C289.627 13.9363 291.841 13.86 294.588 13.86C297.336 13.7837 299.549 13.86 299.549 14.0127Z" fill="#E0E0E0"/>
<path d="M299.549 38.7425C299.549 38.8188 297.336 38.8951 294.588 38.8951C291.841 38.8951 289.627 38.8188 289.627 38.7425C289.627 38.6662 291.841 38.5898 294.588 38.5898C297.336 38.5898 299.549 38.6662 299.549 38.7425Z" fill="#E0E0E0"/>
<path d="M299.549 37.2894C299.549 37.3657 297.336 37.442 294.588 37.442C291.841 37.442 289.627 37.3657 289.627 37.2894C289.627 37.213 291.841 37.1367 294.588 37.1367C297.336 37.1367 299.549 37.213 299.549 37.2894Z" fill="#E0E0E0"/>
<path d="M294.742 34.0092C294.665 34.0092 294.589 30.4223 294.589 25.9958C294.589 21.5694 294.665 17.9824 294.742 17.9824C294.818 17.9824 294.894 21.5694 294.894 25.9958C294.894 30.4223 294.818 34.0092 294.742 34.0092Z" fill="#E0E0E0"/>
<path d="M310.463 17.373H299.625V44.1607H310.463V17.373Z" fill="#EBEBEB"/>
<path d="M305.349 37.2133C303.899 37.2133 302.907 36.2211 302.907 34.7711C302.907 34.0079 303.212 33.321 303.746 32.9395L303.975 33.2447C303.517 33.6263 303.288 34.0842 303.288 34.6948C303.288 35.8395 304.128 36.6027 305.273 36.6027C306.417 36.6027 307.257 35.7632 307.257 34.6948C307.257 34.0842 307.028 33.55 306.57 33.2447L306.799 32.9395C307.41 33.321 307.638 34.0079 307.638 34.7711C307.791 36.1448 306.799 37.2133 305.349 37.2133Z" fill="#FAFAFA"/>
<path d="M307.18 32.3312L306.799 32.1023C307.104 31.7207 307.409 31.1102 307.409 30.4233C307.409 29.4312 307.028 29.0496 306.494 29.0496C305.12 29.0496 306.112 32.1786 304.28 32.1786C303.593 32.1786 302.983 31.5681 302.983 30.347C302.983 29.7364 303.136 29.1259 303.441 28.7443L303.822 28.9732C303.517 29.3548 303.365 29.8891 303.365 30.4233C303.365 31.3391 303.746 31.797 304.28 31.797C305.73 31.797 304.662 28.668 306.494 28.668C307.257 28.668 307.791 29.3548 307.791 30.5759C307.791 31.1865 307.486 31.9497 307.18 32.3312Z" fill="#FAFAFA"/>
<path d="M307.18 27.9797L306.799 27.7507C307.104 27.3691 307.409 26.7586 307.409 26.0717C307.409 25.0796 307.028 24.698 306.494 24.698C305.12 24.698 306.112 27.827 304.28 27.827C303.593 27.827 302.983 27.2165 302.983 25.9954C302.983 25.3849 303.136 24.698 303.441 24.3927L303.822 24.6217C303.517 25.0033 303.365 25.5375 303.365 26.0717C303.365 26.9875 303.746 27.4455 304.28 27.4455C305.73 27.4455 304.662 24.3164 306.494 24.3164C307.257 24.3164 307.791 25.0033 307.791 26.2244C307.791 26.8349 307.486 27.5981 307.18 27.9797Z" fill="#FAFAFA"/>
<path d="M286.346 9.81757C287.358 9.81757 288.178 8.99752 288.178 7.98593C288.178 6.97435 287.358 6.1543 286.346 6.1543C285.335 6.1543 284.515 6.97435 284.515 7.98593C284.515 8.99752 285.335 9.81757 286.346 9.81757Z" fill="#E0E0E0"/>
<path d="M286.88 13.0215H285.735V39.046H286.88V13.0215Z" fill="#E0E0E0"/>
<path d="M330 315.932C330 316.008 256.277 316.161 165.382 316.161C74.4107 316.161 0.763672 316.085 0.763672 315.932C0.763672 315.856 74.4871 315.703 165.382 315.703C256.277 315.779 330 315.856 330 315.932Z" fill="#263238"/>
<path d="M89.9031 53.5488C77.6922 72.781 78.4553 99.4924 91.811 118.038C100.74 130.401 114.096 138.644 124.704 149.557C135.312 160.471 143.402 176.497 137.755 190.616C132.031 205.04 115.317 210.841 102.801 219.999C89.1399 229.92 79.6001 245.26 76.6237 261.898C73.7236 278.535 77.4632 296.241 86.8503 310.207H216.897C216.897 310.207 239.716 266.629 210.333 233.507C180.951 200.309 165.153 199.775 166.298 178.024C167.366 156.273 182.63 149.176 191.33 141.009C200.03 132.843 242.463 113.84 217.431 53.5488H89.9031Z" fill="#FAFAFA"/>
<path d="M89.9031 53.549C89.9031 53.549 90.6663 53.549 92.1164 53.549C93.6427 53.549 95.7796 53.549 98.6797 53.549C104.48 53.549 113.028 53.549 124.094 53.549C146.15 53.549 178.051 53.4727 217.583 53.4727H217.66V53.549C219.415 58.0517 221.247 62.7072 222.544 67.6678C223.842 72.5522 224.91 77.6655 225.292 83.0078C225.673 88.2738 225.521 93.7687 224.452 99.1873C223.384 104.606 221.399 109.948 218.576 114.909C217.126 117.427 215.447 119.717 213.691 122.006C211.86 124.296 209.875 126.357 207.662 128.417C205.525 130.478 203.236 132.386 200.87 134.141C198.504 135.973 196.062 137.728 193.62 139.56C192.398 140.475 191.33 141.468 190.185 142.536C189.04 143.528 187.819 144.52 186.598 145.436C184.232 147.344 181.79 149.252 179.501 151.389C174.845 155.51 170.953 160.7 168.816 166.729C167.748 169.705 167.061 172.911 166.756 176.116C166.679 176.955 166.603 177.719 166.527 178.558C166.527 179.398 166.45 180.161 166.527 181C166.527 182.603 166.756 184.206 166.985 185.808C167.595 189.014 168.969 192.067 170.877 194.738C172.785 197.409 175.151 199.775 177.593 202.064C182.553 206.567 187.743 210.917 192.78 215.573C197.817 220.228 202.701 225.112 207.433 230.226C209.799 232.82 212.165 235.415 214.225 238.239C216.362 241.063 218.118 244.116 219.644 247.321C222.697 253.732 224.605 260.753 225.215 267.927C225.902 275.101 225.368 282.427 223.918 289.601C223.231 293.188 222.239 296.775 221.094 300.209C219.949 303.72 218.652 307.154 216.973 310.512L216.897 310.589H216.744C215.676 310.589 214.531 310.589 213.386 310.589C168.969 310.589 126.154 310.589 86.6978 310.589H86.6214L86.5451 310.512C80.3633 301.202 76.7001 290.517 75.6316 279.832C74.5632 269.148 76.1658 258.387 80.1344 248.847C84.0266 239.307 90.0558 230.912 97.306 224.273C100.969 220.915 105.014 218.244 109.059 215.725C113.104 213.207 117.225 210.841 121.117 208.322C125.009 205.727 128.673 203.056 131.725 199.698C134.778 196.417 137.068 192.524 138.289 188.327C139.51 184.129 139.51 179.779 138.823 175.658C138.136 171.537 136.61 167.645 134.778 163.981C132.947 160.394 130.657 157.036 128.215 154.06C125.773 151.007 123.025 148.336 120.278 145.818C114.783 140.781 109.135 136.354 104.098 131.775C101.58 129.486 99.1376 127.196 96.9244 124.83C94.7112 122.464 92.7269 120.022 90.9716 117.504C87.4609 112.467 85.0951 107.201 83.4924 102.087C81.8897 96.974 81.1265 92.0133 80.9739 87.5106C80.8976 86.3658 80.8976 85.2974 80.8976 84.1526C80.8976 83.0841 80.8976 82.0157 80.9739 80.9472C81.0502 79.8788 81.1265 78.8866 81.2028 77.8945C81.3555 76.9024 81.5081 75.9865 81.5844 75.0707C82.7292 67.6678 84.9424 62.3256 86.6978 58.8912C87.0793 58.0517 87.4609 57.2122 87.8425 56.6017C88.2241 55.9912 88.5294 55.4569 88.7583 54.999C89.5978 54.0069 89.9031 53.549 89.9031 53.549C89.8268 53.6253 89.6742 54.0069 89.1399 54.8464C88.911 55.3043 88.6057 55.8385 88.2241 56.4491C87.8425 57.0596 87.4609 57.8228 87.0793 58.7386C85.4003 62.1729 83.1871 67.5915 82.0423 74.9181C81.8897 75.8339 81.7371 76.7497 81.6607 77.7418C81.5844 78.734 81.5081 79.7261 81.4318 80.7183C81.3555 81.7104 81.3555 82.7788 81.3555 83.9236C81.3555 84.9921 81.2792 86.1368 81.4318 87.2816C81.5844 91.7844 82.4239 96.7451 83.9503 101.858C85.553 106.972 87.9189 112.238 91.3532 117.198C93.1085 119.717 95.0928 122.159 97.306 124.449C99.5192 126.814 101.885 129.104 104.48 131.317C109.517 135.896 115.164 140.323 120.736 145.36C123.483 147.878 126.231 150.626 128.673 153.678C131.115 156.731 133.404 160.013 135.236 163.676C137.068 167.263 138.594 171.232 139.281 175.429C139.968 179.55 139.968 183.977 138.747 188.251C137.526 192.448 135.16 196.417 132.107 199.698C129.054 203.056 125.315 205.804 121.499 208.399C117.607 210.993 113.485 213.283 109.441 215.801C105.396 218.32 101.351 220.991 97.7639 224.349C90.5137 230.912 84.5609 239.231 80.6686 248.771C76.7764 258.234 75.0974 268.919 76.2422 279.603C77.2343 290.288 80.8976 300.896 87.0793 310.131L86.9267 310.054C126.383 310.054 169.274 310.054 213.615 310.054C214.76 310.054 215.904 310.054 216.973 310.054L216.82 310.131C218.423 306.849 219.797 303.415 220.941 299.904C222.086 296.393 223.002 292.883 223.689 289.296C225.139 282.122 225.597 274.872 224.986 267.698C224.376 260.524 222.468 253.579 219.415 247.245C217.889 244.116 216.133 240.986 213.997 238.239C211.936 235.415 209.57 232.82 207.281 230.226C202.549 225.112 197.664 220.228 192.627 215.573C187.59 210.917 182.401 206.643 177.44 202.064C174.998 199.775 172.556 197.409 170.648 194.738C168.664 192.067 167.29 188.937 166.679 185.656C166.374 184.053 166.221 182.374 166.221 180.771C166.145 179.932 166.221 179.169 166.221 178.329C166.221 177.49 166.374 176.727 166.45 175.887C166.679 172.605 167.442 169.476 168.511 166.424C170.648 160.318 174.616 155.129 179.272 150.931C181.561 148.794 184.003 146.886 186.446 144.978C187.667 143.986 188.812 143.07 189.956 142.078C191.101 141.086 192.246 140.018 193.467 139.102C195.909 137.27 198.351 135.515 200.717 133.683C203.083 131.851 205.373 129.943 207.509 127.959C209.646 125.975 211.631 123.838 213.462 121.549C215.294 119.259 216.897 116.969 218.347 114.451C221.17 109.567 223.078 104.224 224.223 98.882C225.292 93.4634 225.444 88.0448 225.063 82.7788C224.681 77.5129 223.613 72.3996 222.315 67.5152C221.018 62.6308 219.262 57.9754 217.507 53.4727L217.66 53.549C178.203 53.549 146.302 53.4727 124.246 53.4727C113.18 53.4727 104.633 53.4727 98.8323 53.4727C95.9323 53.4727 93.719 53.4727 92.1927 53.4727C90.6663 53.6253 89.9031 53.549 89.9031 53.549Z" fill="#263238"/>
<path d="M212.394 88.8849C231.55 92.014 201.328 125.976 184.233 139.331C174.311 147.116 163.703 155.511 158.971 167.187C153.629 180.39 157.598 195.273 155.003 208.628C154.545 210.841 151.34 210.46 151.34 208.247C151.492 199.546 151.263 190.77 149.813 182.146C147.753 169.935 143.097 157.877 134.55 148.947C127.605 141.621 118.446 136.813 110.967 129.944C100.13 119.946 88.9112 107.125 87.8428 92.4719C87.8428 92.4719 108.678 75.6819 120.278 77.8188C133.786 80.261 147.142 101.172 168.13 98.8063C182.783 97.051 190.185 85.2217 212.394 88.8849Z" fill="#000000"/>
<path d="M214.073 270.521C213.615 265.713 212.318 260.295 208.044 258.082C205.449 256.708 202.32 256.861 199.496 257.624C196.672 258.387 194.001 259.684 191.254 260.447C185.759 262.05 179.73 261.898 174.311 259.913C169.121 258.005 164.619 254.571 159.811 251.824C155.003 249.076 149.355 247.092 143.936 248.389C134.702 250.679 129.818 261.821 120.659 264.569C116.615 265.79 112.188 265.103 108.067 264.187C103.946 263.271 99.7482 262.05 95.5507 262.203C92.1927 262.355 88.7584 263.5 86.4688 265.79L86.3925 265.866C86.0109 266.248 85.6293 266.629 85.324 267.087C82.5003 270.903 82.0424 275.94 82.8819 280.595C83.874 285.785 86.3162 290.593 88.911 295.172C91.9637 300.591 95.4744 305.933 100.511 309.52C106.769 313.947 114.63 310.894 122.262 311.504C140.044 312.878 159.2 313.87 177.059 312.496C186.446 311.733 195.299 312.802 202.778 307.002C208.044 302.957 211.478 296.851 213.081 290.364C214.76 283.877 214.76 277.085 214.073 270.521Z" fill="#000000"/>
<g opacity="0.24">
<g opacity="0.24">
<path opacity="0.24" d="M180.493 261.363C179.501 262.89 179.043 264.95 180.035 266.553C181.027 268.079 182.325 269.529 182.706 271.361C183.393 274.185 181.638 276.932 180.417 279.527C178.127 284.182 177.135 289.448 177.898 294.562C178.661 299.675 181.256 304.559 185.377 307.688C187.209 309.062 189.499 310.131 191.712 309.52C193.773 308.91 195.07 306.773 195.528 304.712C195.909 302.575 195.604 300.438 195.299 298.301C194.078 288.38 194.307 278.306 196.062 268.461C196.367 266.782 196.596 264.95 195.604 263.653C194.917 262.813 193.849 262.432 192.857 262.126C188.888 260.676 184.538 262.126 180.493 261.363Z" fill="#121243"/>
</g>
</g>
<path d="M77.3868 316.158C77.3868 316.158 77.0052 310.206 84.7897 306.848H221.628C221.628 306.848 228.726 310.435 229.642 316.006L77.3868 316.158Z" fill="#263238"/>
<path d="M218.728 54.3115C218.652 54.3115 218.576 54.3878 218.499 54.3878L89.8268 53.5483C89.8268 53.5483 89.3689 53.2431 88.682 52.7088C85.0187 49.8087 87.0793 43.9322 91.7347 44.0085L216.591 45.0007C221.781 45.077 223.384 52.0983 218.728 54.3115Z" fill="#263238"/>
<g opacity="0.24">
<g opacity="0.24">
<path opacity="0.24" d="M198.122 103.384C198.351 103.842 197.435 104.987 195.603 106.589C193.772 108.192 191.024 110.481 187.59 113.229C184.156 115.976 179.958 119.258 174.616 122.387C171.945 123.913 168.968 125.363 165.763 126.432C164.16 126.966 162.405 127.5 160.65 127.806C158.894 128.187 157.063 128.416 155.155 128.493C151.339 128.721 147.523 128.187 144.089 126.966C140.654 125.745 137.754 124.066 135.159 122.387C132.565 120.708 130.351 119.029 128.291 117.426C126.23 115.824 124.322 114.297 122.643 112.771C115.851 106.894 112.34 102.621 113.027 101.781C113.714 100.942 118.522 103.689 126.001 108.268C127.833 109.413 129.894 110.634 132.107 112.008C134.32 113.305 136.61 114.832 139.052 116.129C141.494 117.503 143.936 118.724 146.531 119.487C149.126 120.25 151.873 120.632 154.773 120.479C160.65 120.174 166.297 118.113 171.258 115.747C176.219 113.305 180.645 110.558 184.537 108.421C188.43 106.208 191.711 104.605 194.077 103.765C196.443 103.079 197.893 102.926 198.122 103.384Z" fill="#121243"/>
</g>
</g>
<path d="M151.492 224.58C152.865 224.046 154.621 225.496 154.316 226.946C154.087 228.396 152.026 229.236 150.805 228.243C149.66 227.328 149.965 225.114 151.339 224.58" fill="#000000"/>
<path d="M105.472 124.678C105.472 124.678 105.32 124.525 105.014 124.22C104.709 123.915 104.327 123.457 103.793 122.846C103.259 122.236 102.572 121.549 101.885 120.633C101.198 119.717 100.359 118.725 99.443 117.58C98.6035 116.435 97.6877 115.138 96.6956 113.764C96.2377 113.077 95.7798 112.314 95.3219 111.551C95.0929 111.169 94.8639 110.788 94.635 110.406C94.406 110.025 94.1771 109.567 93.9481 109.185C92.0402 105.903 90.3612 102.011 89.2164 97.8137C87.9953 93.6162 87.4611 89.4187 87.3848 85.6028C87.3848 84.687 87.4611 83.6949 87.4611 82.8554C87.4611 82.3975 87.4611 81.9396 87.5374 81.558C87.6137 81.1001 87.6137 80.7185 87.69 80.2606C87.7664 79.4211 87.8427 78.5816 87.9953 77.8184C88.1479 77.0552 88.3006 76.292 88.3769 75.6052C88.6059 74.1551 88.9875 72.934 89.2164 71.7892C89.369 71.255 89.4454 70.7208 89.598 70.2629C89.7506 69.805 89.9033 69.3471 89.9796 68.9655C90.2085 68.2023 90.4375 67.6681 90.5901 67.2102C90.7428 66.8286 90.8191 66.5996 90.8191 66.5996C90.8191 66.5996 90.7428 66.8286 90.6665 67.2102C90.5138 67.6681 90.3612 68.2786 90.1322 68.9655C89.9796 69.3471 89.9033 69.805 89.7506 70.2629C89.598 70.7208 89.5217 71.255 89.369 71.7892C89.1401 72.934 88.7585 74.1551 88.5295 75.5288C88.3769 76.2157 88.3006 76.9789 88.1479 77.7421C88.0716 78.5052 87.9953 79.3448 87.919 80.1843C87.8427 80.5658 87.8427 81.0237 87.7664 81.4817C87.69 81.9396 87.7664 82.3212 87.69 82.7791C87.69 83.6949 87.6137 84.6107 87.6137 85.5265C87.69 89.3424 88.2243 93.4636 89.4454 97.6611C90.5901 101.859 92.2691 105.675 94.1008 109.033C94.3297 109.414 94.5587 109.872 94.7876 110.254C95.0166 110.635 95.2455 111.017 95.4745 111.398C95.9324 112.162 96.3903 112.925 96.8482 113.612C97.764 114.985 98.6799 116.283 99.5194 117.428C100.359 118.572 101.198 119.564 101.885 120.48C102.572 121.396 103.259 122.083 103.793 122.693C104.327 123.304 104.709 123.762 105.014 124.144C105.32 124.449 105.472 124.678 105.472 124.678Z" fill="#263238"/>
<path d="M98.2227 238.009C98.2227 238.009 98.299 237.932 98.3753 237.78C98.4516 237.627 98.6042 237.398 98.8332 237.093C99.0621 236.788 99.2911 236.406 99.5964 235.948C99.749 235.719 99.9017 235.49 100.054 235.185C100.207 234.956 100.436 234.651 100.665 234.422C101.123 233.888 101.581 233.277 102.191 232.59C102.802 231.98 103.489 231.293 104.175 230.606C105.626 229.232 107.381 227.706 109.441 226.179C113.486 223.127 118.752 220.074 124.4 216.487C127.224 214.655 130.2 212.747 132.947 210.458C135.771 208.168 138.442 205.497 140.656 202.368C145.006 195.957 146.685 188.555 146.837 181.915C146.99 175.199 145.616 169.246 143.937 164.514C142.258 159.783 140.274 156.119 138.9 153.677C138.213 152.456 137.603 151.54 137.221 150.853C137.069 150.548 136.916 150.319 136.763 150.166C136.687 150.014 136.611 149.938 136.611 149.938C136.611 149.938 136.687 150.014 136.763 150.166C136.916 150.319 137.069 150.548 137.221 150.853C137.679 151.464 138.213 152.38 138.977 153.601C140.427 156.043 142.411 159.63 144.166 164.438C145.922 169.17 147.372 175.199 147.219 181.915C147.219 183.594 147.066 185.349 146.761 187.028C146.532 188.783 146.15 190.539 145.616 192.294C144.624 195.805 143.021 199.315 140.885 202.597C138.671 205.802 135.924 208.474 133.1 210.839C130.276 213.205 127.3 215.113 124.476 216.869C118.752 220.456 113.563 223.432 109.518 226.485C107.457 228.011 105.702 229.461 104.252 230.835C103.565 231.522 102.878 232.209 102.268 232.819C101.733 233.506 101.199 234.04 100.741 234.651C100.512 234.956 100.283 235.185 100.131 235.414C99.978 235.643 99.8253 235.948 99.6727 236.177C99.3674 236.635 99.1385 237.017 98.9095 237.322C98.6806 237.627 98.5279 237.856 98.4516 238.009C98.299 237.932 98.2227 238.009 98.2227 238.009Z" fill="#263238"/>
<path d="M91.1243 251.518C91.1243 251.518 91.048 251.67 90.9717 251.899C90.819 252.128 90.6664 252.51 90.4374 252.891C90.2085 253.273 89.9032 253.807 89.5979 254.418C89.2927 255.028 88.9111 255.715 88.6058 256.478C88.4532 256.86 88.2242 257.318 88.0716 257.699C87.9189 258.157 87.7663 258.615 87.5373 259.073C87.1557 259.989 86.8505 261.057 86.5452 262.126C85.9347 264.339 85.4767 266.781 85.2478 269.376C85.0188 271.971 85.0188 274.489 85.2478 276.779C85.4004 277.924 85.4767 278.992 85.6294 279.984C85.7057 280.518 85.782 280.976 85.8583 281.434C85.9346 281.892 86.0873 282.35 86.1636 282.732C86.3162 283.571 86.6215 284.334 86.7742 284.945C86.9268 285.632 87.1557 286.166 87.3084 286.624C87.461 287.082 87.5373 287.387 87.69 287.692C87.7663 287.921 87.7663 288.074 87.7663 288.074C87.7663 288.074 87.69 287.921 87.6137 287.692C87.461 287.387 87.3847 287.082 87.1557 286.7C87.0031 286.242 86.7742 285.708 86.5452 285.021C86.3162 284.334 86.0873 283.648 85.8583 282.808C85.782 282.35 85.6294 281.969 85.5531 281.511C85.4767 281.053 85.4004 280.595 85.2478 280.061C85.0188 279.068 84.9425 278 84.7899 276.855C84.5609 274.566 84.5609 272.047 84.7899 269.376C85.0188 266.705 85.5531 264.263 86.1636 262.049C86.4689 260.981 86.7742 259.913 87.2321 258.997C87.3847 258.539 87.6136 258.081 87.7663 257.623C87.9952 257.165 88.1479 256.784 88.3005 256.402C88.6058 255.639 89.0637 254.952 89.369 254.341C89.6742 253.731 89.9795 253.197 90.2848 252.815C90.5137 252.433 90.7427 252.128 90.8953 251.899C91.048 251.594 91.1243 251.518 91.1243 251.518Z" fill="#263238"/>
<path d="M185.454 269.832C185.454 269.832 185.378 269.908 185.301 269.908C185.149 269.985 184.996 270.061 184.843 270.214C184.386 270.519 183.775 270.824 183.012 271.358C182.63 271.587 182.172 271.893 181.638 272.122C181.104 272.427 180.57 272.656 179.959 272.961C178.738 273.572 177.441 274.258 175.838 274.869C175.075 275.174 174.235 275.556 173.396 275.861C172.556 276.166 171.64 276.472 170.725 276.777C168.893 277.464 166.832 277.922 164.695 278.532C160.345 279.524 155.537 280.211 150.348 280.364C145.234 280.44 140.35 279.982 135.923 279.295C133.71 278.838 131.65 278.456 129.742 277.922C128.826 277.616 127.834 277.464 126.994 277.159C126.155 276.853 125.315 276.548 124.476 276.319C122.873 275.785 121.499 275.174 120.278 274.64C119.668 274.335 119.057 274.106 118.599 273.877C118.065 273.648 117.607 273.343 117.226 273.19C116.386 272.732 115.775 272.427 115.318 272.198C115.089 272.122 114.936 271.969 114.86 271.893C114.783 271.816 114.707 271.816 114.707 271.816C114.707 271.816 114.783 271.816 114.86 271.893C115.012 271.969 115.165 272.045 115.394 272.122C115.852 272.351 116.539 272.656 117.302 273.037C117.76 273.266 118.218 273.495 118.676 273.724C119.21 273.953 119.744 274.182 120.355 274.411C121.576 274.869 122.949 275.556 124.552 276.014C125.315 276.319 126.155 276.548 127.071 276.853C127.91 277.159 128.902 277.311 129.818 277.616C131.726 278.151 133.787 278.532 135.923 278.99C140.274 279.677 145.158 280.135 150.271 280.059C155.385 279.906 160.193 279.219 164.543 278.227C166.68 277.693 168.74 277.235 170.572 276.548C171.488 276.243 172.404 276.014 173.243 275.632C174.083 275.327 174.922 274.945 175.685 274.64C177.288 274.03 178.585 273.343 179.806 272.808C180.417 272.503 180.951 272.274 181.485 271.969C181.943 271.664 182.401 271.435 182.859 271.206C183.622 270.748 184.309 270.443 184.767 270.137C184.996 270.061 185.149 269.908 185.301 269.908C185.378 269.908 185.454 269.832 185.454 269.832Z" fill="#263238"/>
<path d="M193.466 108.346C193.466 108.346 193.39 108.422 193.314 108.498C193.161 108.575 193.008 108.727 192.779 108.88C192.322 109.262 191.635 109.796 190.795 110.406C189.116 111.78 186.674 113.688 183.545 115.978C180.416 118.267 176.676 120.938 172.174 123.457C169.884 124.678 167.518 125.899 164.847 126.815C162.176 127.731 159.352 128.494 156.376 128.723C150.423 129.104 144.775 127.578 140.196 125.365C137.907 124.22 135.846 122.922 133.938 121.625C132.106 120.328 130.351 119.03 128.901 117.809C125.848 115.367 123.483 113.306 121.88 111.933C121.04 111.246 120.43 110.712 119.972 110.33C119.743 110.177 119.59 110.025 119.514 109.872C119.438 109.796 119.361 109.719 119.361 109.719C119.361 109.719 119.438 109.719 119.514 109.872C119.667 109.948 119.819 110.101 120.048 110.254C120.506 110.635 121.193 111.169 121.956 111.856C123.635 113.23 126.001 115.214 129.054 117.657C130.58 118.878 132.259 120.099 134.167 121.396C136.075 122.694 138.136 123.915 140.425 125.059C145.004 127.273 150.575 128.799 156.452 128.341C159.352 128.112 162.176 127.425 164.771 126.509C167.365 125.594 169.808 124.373 172.021 123.228C176.447 120.786 180.263 118.114 183.392 115.825C186.521 113.535 188.964 111.627 190.719 110.33C191.558 109.719 192.245 109.185 192.703 108.804C192.932 108.651 193.085 108.498 193.237 108.422C193.39 108.422 193.39 108.346 193.466 108.346Z" fill="#263238"/>
<g opacity="0.24">
<g opacity="0.24">
<path opacity="0.24" d="M124.628 276.246C128.215 273.422 133.328 274.109 137.831 275.101C142.334 276.017 146.837 277.543 151.339 276.933C154.774 276.475 157.903 274.796 161.261 274.032C164.619 273.269 168.74 273.88 170.571 276.704C155.689 281.588 139.281 281.435 124.628 276.246Z" fill="#121243"/>
</g>
</g>
<path d="M250.781 255.561L234.372 237.169L234.219 259.53L239.18 273.878L190.031 282.425L187.971 243.656L184.46 213.892C184.002 210.228 186.139 206.794 189.497 205.42L203.005 200.078L222.085 203.589L229.717 206.489C232.922 207.71 235.822 209.694 238.035 212.289L261.083 238.695" fill="#000000"/>
<path d="M233.227 232.741C233.227 232.664 234.295 232.817 235.974 232.512C237.653 232.283 239.943 231.443 241.927 229.688C243.835 227.933 244.827 225.643 245.285 224.04C245.666 222.361 245.59 221.293 245.666 221.293C245.666 221.293 245.743 221.522 245.743 222.056C245.743 222.514 245.666 223.277 245.514 224.117C245.209 225.796 244.216 228.162 242.156 229.993C240.172 231.825 237.729 232.664 235.974 232.817C235.135 232.893 234.371 232.893 233.913 232.893C233.456 232.817 233.227 232.817 233.227 232.741Z" fill="white"/>
<path d="M234.678 258.615C234.83 258.615 234.83 250.831 234.754 241.291C234.678 231.751 234.525 223.967 234.373 223.967C234.22 223.967 234.22 231.751 234.296 241.291C234.373 250.831 234.525 258.615 234.678 258.615Z" fill="#263238"/>
<path d="M232.846 264.261L203.158 252.279C200.792 251.287 199.113 249.074 198.961 246.479L196.824 218.013C196.824 218.013 197.053 205.878 189.497 205.344L185.223 207.023C179.652 209.999 178.278 218.089 179.042 224.347C180.11 233.2 180.568 245.792 181.789 253.501C182.781 259.835 186.368 265.33 192.55 267.009L229.106 274.946L232.846 264.261Z" fill="#000000"/>
<path d="M197.129 222.361C197.129 222.361 197.205 222.59 197.205 223.048C197.282 223.506 197.282 224.117 197.434 224.956C197.587 226.635 197.816 229.001 198.045 231.901C198.274 234.801 198.579 238.312 198.961 242.128C199.037 243.12 199.113 244.112 199.19 245.104C199.266 246.096 199.342 247.165 199.571 248.157C199.8 249.149 200.258 250.141 201.021 250.828C201.784 251.515 202.777 252.049 203.769 252.507C211.935 256.018 219.49 258.994 224.985 261.055C227.733 262.047 229.946 262.886 231.472 263.421C232.235 263.726 232.77 263.878 233.228 264.107C233.609 264.26 233.838 264.336 233.838 264.336C233.838 264.336 233.609 264.26 233.228 264.184C232.77 264.031 232.159 263.878 231.396 263.573C229.87 263.039 227.58 262.276 224.833 261.284C219.338 259.299 211.782 256.399 203.54 252.889C202.548 252.431 201.479 251.896 200.716 251.133C199.876 250.37 199.342 249.302 199.113 248.233C198.884 247.165 198.808 246.173 198.732 245.104C198.655 244.112 198.579 243.12 198.503 242.128C198.198 238.312 197.969 234.801 197.74 231.901C197.511 229.001 197.358 226.635 197.205 224.956C197.129 224.193 197.129 223.506 197.053 223.048C197.129 222.59 197.129 222.361 197.129 222.361Z" fill="#263238"/>
<path d="M180.11 237.854C180.11 237.854 180.11 238.006 180.187 238.235C180.187 238.54 180.263 238.922 180.263 239.304C180.339 240.296 180.492 241.669 180.645 243.348C180.797 245.027 181.026 247.088 181.331 249.301C181.637 251.514 182.018 254.033 182.705 256.551C183.01 257.849 183.468 258.994 184.155 259.986C184.842 260.978 185.605 261.894 186.368 262.733C187.971 264.336 189.65 265.481 191.1 266.32C194.153 267.923 196.366 267.923 196.29 267.999C196.29 267.999 196.137 267.999 195.908 267.999C195.679 267.999 195.298 267.923 194.84 267.847C193.924 267.694 192.55 267.312 190.948 266.549C189.421 265.786 187.666 264.641 186.063 262.962C185.224 262.123 184.461 261.207 183.774 260.215C183.087 259.146 182.553 257.925 182.247 256.628C181.56 254.109 181.179 251.591 180.95 249.378C180.645 247.088 180.492 245.104 180.339 243.348C180.187 241.669 180.11 240.219 180.11 239.304C180.11 238.846 180.11 238.464 180.11 238.235C180.11 238.006 180.11 237.854 180.11 237.854Z" fill="#263238"/>
<path d="M192.855 257.775C192.778 257.775 192.931 257.165 193.389 256.173C193.847 255.257 194.686 254.036 195.907 252.967C197.128 251.899 198.426 251.288 199.418 250.983C200.41 250.678 201.097 250.678 201.097 250.678C201.097 250.754 200.486 250.83 199.571 251.212C198.655 251.594 197.357 252.204 196.213 253.196C195.068 254.188 194.228 255.333 193.694 256.173C193.16 257.241 192.931 257.852 192.855 257.775Z" fill="#263238"/>
<path d="M198.655 236.177C198.655 236.177 198.732 236.177 198.808 236.254C198.961 236.33 199.113 236.406 199.342 236.559C199.8 236.788 200.487 237.17 201.479 237.475C203.311 238.085 206.287 238.772 209.798 238.162C213.308 237.627 217.353 235.567 220.177 231.751C221.551 229.843 222.619 227.553 222.924 225.035C223.077 223.738 222.924 222.44 222.543 221.219C222.161 219.998 221.398 218.853 220.406 217.937C219.414 217.022 218.193 216.411 216.895 216.258C215.598 216.029 214.3 216.411 213.385 217.251C212.927 217.708 212.698 218.243 212.698 218.853C212.698 219.464 212.927 219.998 213.308 220.456C213.995 221.448 215.216 221.83 216.361 222.059C218.651 222.364 220.94 221.982 222.848 221.143C224.756 220.303 226.359 219.082 227.427 217.708C228.572 216.335 229.259 214.885 229.64 213.511C230.022 212.137 230.175 210.916 230.175 209.924C230.175 208.932 230.098 208.169 230.022 207.634C229.946 207.405 229.946 207.177 229.946 207.024C229.946 206.871 229.946 206.795 229.946 206.795C229.946 206.795 230.404 207.863 230.404 209.848C230.404 210.84 230.327 212.137 229.869 213.511C229.488 214.885 228.801 216.411 227.656 217.861C226.511 219.311 224.909 220.532 223.001 221.448C221.017 222.288 218.727 222.745 216.285 222.44C215.14 222.288 213.843 221.83 213.003 220.761C212.621 220.227 212.316 219.616 212.316 218.93C212.316 218.243 212.622 217.556 213.079 217.098C214.072 216.106 215.522 215.8 216.895 216.029C218.269 216.182 219.566 216.869 220.559 217.785C221.627 218.701 222.39 219.922 222.772 221.219C223.23 222.516 223.306 223.89 223.153 225.188C222.924 227.782 221.78 230.148 220.33 232.133C217.43 236.025 213.308 238.085 209.721 238.62C206.134 239.154 203.158 238.467 201.326 237.78C199.571 236.864 198.655 236.177 198.655 236.177Z" fill="white"/>
<path d="M179.194 228.545C179.194 228.545 179.347 228.316 179.652 227.934C179.957 227.553 180.492 227.095 181.255 226.561C182.705 225.492 185.071 224.5 187.818 224.195C189.192 224.042 190.489 224.118 191.711 224.347C192.855 224.576 193.924 224.958 194.687 225.416C195.526 225.797 196.061 226.255 196.519 226.484C196.9 226.789 197.129 226.942 197.129 227.018C197.053 227.095 196.213 226.408 194.611 225.645C193.008 224.882 190.566 224.271 187.895 224.576C185.223 224.805 182.858 225.721 181.408 226.713C180.034 227.782 179.271 228.621 179.194 228.545Z" fill="white"/>
<path d="M184.002 208.167C184.078 208.091 184.765 209.083 186.444 209.922C187.284 210.38 188.276 210.686 189.497 210.838C190.718 210.991 192.015 210.838 193.313 210.304C194.61 209.77 195.679 208.93 196.366 207.938C197.129 207.022 197.587 206.03 197.892 205.114C198.426 203.359 198.273 202.138 198.35 202.214C198.35 202.214 198.426 202.52 198.426 203.054C198.426 203.588 198.35 204.351 198.121 205.267C197.892 206.183 197.358 207.251 196.594 208.243C195.831 209.236 194.686 210.151 193.389 210.686C192.015 211.22 190.642 211.372 189.344 211.22C188.123 211.067 186.978 210.686 186.215 210.228C185.376 209.77 184.765 209.236 184.46 208.854C184.155 208.472 184.002 208.167 184.002 208.167Z" fill="white"/>
<path d="M209.874 255.027C209.874 255.027 209.874 254.798 209.95 254.493C210.027 254.112 210.179 253.577 210.485 252.967C211.095 251.669 212.545 250.067 214.911 249.075C217.201 248.006 220.406 247.854 223.611 248.769C225.214 249.227 226.969 249.838 228.19 251.364C228.801 252.127 228.954 253.272 228.496 254.188C228.038 255.104 227.275 255.714 226.359 256.172C225.443 256.63 224.527 256.859 223.535 256.859C222.543 256.859 221.551 256.63 220.864 256.02C220.101 255.409 219.719 254.493 219.643 253.577C219.566 252.662 219.719 251.822 220.024 250.983C221.322 247.777 223.84 245.793 226.13 244.801C228.496 243.809 230.556 243.656 232.006 243.809C233.38 243.961 234.143 244.267 234.143 244.267C234.143 244.343 233.38 244.038 232.006 243.961C230.633 243.885 228.572 244.038 226.282 245.03C225.138 245.564 223.993 246.251 222.924 247.319C221.856 248.311 220.94 249.609 220.33 251.135C220.024 251.898 219.872 252.738 219.948 253.577C220.024 254.417 220.33 255.256 221.016 255.791C221.703 256.325 222.543 256.554 223.459 256.554C224.374 256.554 225.29 256.325 226.13 255.867C226.969 255.485 227.732 254.875 228.038 254.035C228.419 253.272 228.267 252.28 227.732 251.669C227.198 250.983 226.511 250.448 225.748 250.067C224.985 249.685 224.222 249.456 223.382 249.227C220.253 248.311 217.124 248.464 214.835 249.456C212.545 250.372 211.019 251.898 210.408 253.119C209.95 254.188 209.95 255.027 209.874 255.027Z" fill="white"/>
<path d="M190.108 265.712C190.108 265.636 191.253 265.559 192.932 264.949C194.611 264.338 196.901 263.117 198.809 261.056C200.64 258.996 201.632 256.63 202.09 254.875C202.548 253.119 202.472 251.975 202.548 251.975C202.548 251.975 202.625 252.28 202.625 252.814C202.625 253.348 202.548 254.112 202.396 254.951C202.014 256.783 201.098 259.225 199.114 261.362C197.206 263.499 194.84 264.72 193.085 265.254C192.169 265.559 191.482 265.636 190.948 265.712C190.414 265.788 190.108 265.788 190.108 265.712Z" fill="white"/>
<path d="M180.492 243.582C180.492 243.582 180.645 243.505 180.874 243.429C181.103 243.353 181.484 243.276 181.942 243.124C182.858 242.895 184.232 242.59 185.987 242.742C186.827 242.819 187.819 242.971 188.735 243.429C189.65 243.811 190.643 244.498 191.329 245.413C192.016 246.329 192.398 247.627 192.322 248.848C192.245 249.458 192.093 250.145 191.711 250.679C191.329 251.214 190.871 251.748 190.185 251.977C189.498 252.206 188.735 252.053 188.2 251.595C187.666 251.061 187.513 250.374 187.513 249.764C187.437 248.466 187.742 247.245 188.2 246.253C189.116 244.116 190.871 242.742 192.55 242.132C194.229 241.521 195.68 241.597 196.595 241.75C197.053 241.826 197.435 241.903 197.664 242.055C197.893 242.132 198.045 242.208 198.045 242.208C198.045 242.284 197.511 242.055 196.595 241.903C195.68 241.826 194.229 241.826 192.703 242.437C191.177 243.048 189.498 244.421 188.582 246.406C188.124 247.398 187.895 248.542 187.971 249.764C187.971 250.374 188.124 250.985 188.582 251.366C188.964 251.748 189.65 251.824 190.185 251.671C190.719 251.519 191.177 251.061 191.558 250.527C191.864 249.992 192.016 249.458 192.093 248.848C192.169 247.703 191.787 246.482 191.177 245.642C190.566 244.727 189.65 244.116 188.735 243.734C187.819 243.353 186.903 243.124 186.063 243.048C184.384 242.895 183.011 243.124 182.095 243.353C180.95 243.505 180.492 243.658 180.492 243.582Z" fill="white"/>
<g opacity="0.3">
<g opacity="0.3">
<path opacity="0.3" d="M224.298 260.903C221.093 259.072 218.04 257.698 214.682 256.248C211.324 254.721 208.119 252.813 205.906 249.837C201.785 244.342 202.242 236.329 198.045 230.91C198.35 234.573 198.579 238.237 198.884 241.9C199.113 245.258 198.655 248.616 200.792 250.906C202.624 252.813 206.135 254.34 208.653 255.103C213.843 256.706 219.261 259.224 224.298 260.903Z" fill="#121243"/>
</g>
</g>
<path d="M275.966 302.729C275.966 302.729 300.845 309.597 301.837 309.979C303.364 310.513 303.059 316.008 300.769 315.932C299.701 315.855 281.689 316.618 279.4 316.466C277.11 316.313 270.242 313.642 270.242 313.642L275.966 302.729Z" fill="#000000"/>
<path d="M286.269 312.195C286.421 312.195 286.574 310.898 287.337 309.524C288.1 308.15 289.169 307.311 289.092 307.234C289.016 307.158 287.795 307.845 286.955 309.295C286.192 310.821 286.192 312.271 286.269 312.195Z" fill="#263238"/>
<path d="M283.673 311.049C283.826 311.049 284.055 309.904 284.742 308.607C285.429 307.309 286.192 306.394 286.115 306.317C286.039 306.241 285.047 307.08 284.36 308.454C283.673 309.752 283.597 311.049 283.673 311.049Z" fill="#263238"/>
<path d="M281.231 310.362C281.384 310.362 281.231 309.141 281.842 307.767C282.376 306.394 283.292 305.554 283.216 305.478C283.139 305.402 282.071 306.165 281.46 307.615C280.85 309.141 281.155 310.439 281.231 310.362Z" fill="#263238"/>
<path d="M281.69 307.155C281.766 307.155 281.919 306.468 281.919 305.323C281.919 304.713 281.842 304.026 281.69 303.263C281.613 302.881 281.461 302.5 281.308 302.118C281.232 301.889 281.155 301.66 280.927 301.507C280.698 301.278 280.24 301.355 280.087 301.584C279.858 301.813 279.782 302.042 279.782 302.271C279.782 302.5 279.782 302.728 279.782 302.957C279.782 303.415 279.858 303.797 279.934 304.179C280.087 304.942 280.392 305.552 280.698 306.086C281.308 307.079 281.766 307.613 281.842 307.613C281.919 307.537 281.461 307.002 281.003 306.01C280.774 305.476 280.469 304.865 280.316 304.179C280.24 303.797 280.163 303.415 280.163 303.034C280.163 302.652 280.163 302.194 280.392 301.965C280.545 301.889 280.621 301.889 280.698 301.965C280.774 302.042 280.927 302.194 281.003 302.423C281.155 302.805 281.308 303.186 281.384 303.492C281.613 304.179 281.69 304.865 281.69 305.4C281.766 306.468 281.613 307.155 281.69 307.155Z" fill="#263238"/>
<path d="M281.69 306.926C281.69 306.85 281.079 306.697 280.087 306.697C279.553 306.697 278.942 306.774 278.332 306.926C278.026 307.003 277.645 307.079 277.339 307.308C277.034 307.46 276.653 307.918 276.805 308.453C276.882 308.911 277.339 309.216 277.721 309.368C278.103 309.445 278.484 309.445 278.866 309.368C279.553 309.216 280.087 308.91 280.469 308.605C281.232 307.995 281.69 307.537 281.613 307.46C281.537 307.384 281.079 307.842 280.316 308.376C279.934 308.605 279.4 308.91 278.79 309.063C278.484 309.139 278.179 309.139 277.874 309.063C277.568 308.987 277.339 308.758 277.263 308.453C277.187 308.147 277.339 307.918 277.645 307.766C277.874 307.613 278.255 307.537 278.561 307.384C279.171 307.231 279.782 307.155 280.24 307.079C281.079 306.926 281.69 307.003 281.69 306.926Z" fill="#263238"/>
<path d="M290.085 312.497C290.238 312.497 290.085 311.429 290.543 310.284C291.001 309.139 291.84 308.453 291.764 308.376C291.688 308.3 290.696 308.834 290.161 310.132C289.703 311.353 290.009 312.497 290.085 312.497Z" fill="#263238"/>
<path d="M272.76 313.641C272.76 313.641 273.066 313.794 273.752 314.099C274.363 314.328 275.355 314.71 276.5 314.939C278.866 315.549 282.3 315.855 285.963 315.855C289.703 315.778 293.061 315.626 295.503 315.549C296.648 315.473 297.64 315.473 298.403 315.397C299.09 315.32 299.472 315.32 299.472 315.32C299.472 315.32 299.09 315.244 298.403 315.244C297.64 315.244 296.648 315.244 295.503 315.244C292.985 315.32 289.703 315.32 285.963 315.397C282.224 315.473 278.942 315.168 276.576 314.633C274.21 314.175 272.76 313.565 272.76 313.641Z" fill="#263238"/>
<path d="M271.997 314.175C271.997 314.251 272.683 313.87 273.828 313.335C274.973 312.877 276.652 312.267 278.56 312.572C280.468 312.877 281.765 314.098 282.605 315.014C283.444 315.93 283.979 316.541 284.055 316.464C284.055 316.464 283.673 315.777 282.834 314.785C282.452 314.327 281.918 313.717 281.155 313.259C280.468 312.725 279.552 312.343 278.56 312.191C276.576 311.885 274.82 312.572 273.676 313.106C272.607 313.641 271.997 314.175 271.997 314.175Z" fill="#263238"/>
<path d="M249.56 295.859C249.56 295.859 226.054 311.276 225.214 311.886C223.917 312.878 225.367 317.381 227.58 316.618C228.649 316.236 248.339 310.741 250.476 309.902C252.613 309.062 258.336 304.407 258.336 304.407L249.56 295.859Z" fill="#000000"/>
<path d="M242.539 308.073C242.615 308.073 242.233 306.699 240.936 305.555C239.715 304.41 238.265 304.105 238.265 304.181C238.189 304.334 239.486 304.715 240.631 305.86C241.928 306.928 242.462 308.15 242.539 308.073Z" fill="#263238"/>
<path d="M244.675 306.162C244.751 306.085 244.294 304.941 243.225 303.872C242.157 302.804 241.012 302.27 240.936 302.422C240.859 302.498 241.928 303.185 242.92 304.177C243.988 305.17 244.599 306.238 244.675 306.162Z" fill="#263238"/>
<path d="M246.812 304.792C246.888 304.792 246.812 303.418 245.82 302.197C244.827 300.976 243.53 300.518 243.53 300.671C243.454 300.747 244.598 301.281 245.514 302.503C246.354 303.647 246.659 304.792 246.812 304.792Z" fill="#263238"/>
<path d="M245.438 301.888C245.514 301.888 245.209 301.201 244.904 300.133C244.751 299.599 244.675 298.912 244.599 298.149C244.599 297.767 244.599 297.385 244.599 297.004C244.599 296.775 244.675 296.622 244.751 296.47C244.828 296.393 244.904 296.317 245.056 296.393C245.362 296.47 245.438 296.928 245.591 297.309C245.743 297.691 245.82 298.072 245.82 298.454C245.896 299.217 245.82 299.828 245.743 300.438C245.591 301.583 245.362 302.27 245.438 302.27C245.514 302.27 245.82 301.659 246.049 300.514C246.201 299.98 246.278 299.217 246.201 298.454C246.201 298.072 246.125 297.691 245.972 297.233C245.896 297.004 245.82 296.851 245.743 296.622C245.667 296.393 245.514 296.164 245.209 296.088C244.98 295.935 244.522 296.012 244.37 296.317C244.217 296.546 244.217 296.775 244.141 297.004C244.141 297.462 244.141 297.843 244.141 298.225C244.217 298.988 244.37 299.675 244.522 300.209C244.98 301.278 245.362 301.888 245.438 301.888Z" fill="#263238"/>
<path d="M245.362 301.584C245.362 301.66 245.973 301.355 246.889 301.126C247.347 301.05 247.957 300.897 248.568 300.897C248.873 300.897 249.255 300.897 249.56 300.974C249.865 301.05 250.094 301.203 250.094 301.508C250.094 301.813 249.941 302.118 249.712 302.271C249.483 302.424 249.178 302.5 248.873 302.576C248.262 302.653 247.652 302.5 247.194 302.424C246.278 302.118 245.668 301.889 245.668 301.966C245.668 302.042 246.202 302.347 247.118 302.729C247.576 302.882 248.186 303.034 248.873 302.958C249.178 302.958 249.56 302.882 249.941 302.653C250.323 302.424 250.552 302.042 250.552 301.508C250.552 300.974 250.018 300.668 249.636 300.592C249.255 300.516 248.873 300.516 248.568 300.516C247.881 300.592 247.27 300.668 246.812 300.821C245.82 301.203 245.362 301.584 245.362 301.584Z" fill="#263238"/>
<path d="M230.555 315.781C230.555 315.781 230.937 315.552 231.166 314.865C231.395 314.178 231.242 313.186 230.708 312.346C230.479 311.888 230.174 311.507 229.945 311.201C229.716 310.896 229.411 310.515 229.182 310.362C228.876 310.133 228.648 310.057 228.419 310.057C228.19 310.057 228.113 310.133 228.113 310.133C228.113 310.209 228.571 310.133 228.953 310.591C229.182 310.82 229.411 311.125 229.64 311.43C229.869 311.812 230.174 312.194 230.403 312.575C230.861 313.415 231.013 314.254 230.937 314.865C230.784 315.399 230.479 315.704 230.555 315.781Z" fill="#263238"/>
<path d="M239.028 309.444C239.105 309.444 239.105 308.223 238.189 307.154C237.273 306.086 236.128 305.857 236.128 305.933C236.052 306.086 237.044 306.468 237.884 307.383C238.647 308.452 238.876 309.52 239.028 309.444Z" fill="#263238"/>
<path d="M255.894 305.324C255.894 305.324 255.513 305.553 254.826 306.011C254.139 306.469 253.223 307.08 251.926 307.766C250.628 308.453 249.102 309.14 247.347 309.827C245.591 310.514 243.531 311.124 241.47 311.735C237.273 312.956 233.38 314.101 230.633 314.864C229.336 315.246 228.191 315.627 227.351 315.856C226.588 316.085 226.13 316.238 226.207 316.314C226.207 316.314 226.664 316.238 227.428 316.085C228.267 315.856 229.412 315.551 230.709 315.246C233.533 314.482 237.349 313.414 241.546 312.193C243.683 311.582 245.668 310.972 247.423 310.285C249.178 309.598 250.781 308.835 252.002 308.148C253.299 307.461 254.215 306.774 254.826 306.24C255.589 305.629 255.894 305.324 255.894 305.324Z" fill="#263238"/>
<path d="M256.734 305.628C256.734 305.552 255.97 305.323 254.749 305.094C253.528 304.865 251.62 304.789 249.789 305.705C248.873 306.163 248.186 306.85 247.652 307.536C247.118 308.223 246.812 308.91 246.583 309.521C246.125 310.665 245.896 311.429 245.896 311.505C245.973 311.505 246.278 310.818 246.812 309.673C247.347 308.605 248.262 307.002 249.941 306.163C251.62 305.323 253.452 305.323 254.673 305.476C255.97 305.476 256.734 305.705 256.734 305.628Z" fill="#263238"/>
<path d="M298.404 258.314C298.404 258.314 305.425 260.833 305.501 268.77C305.578 283.957 274.898 300.594 274.898 300.594L234.067 273.578L231.473 272.509C231.549 272.509 286.651 251.827 298.404 258.314Z" fill="#263238"/>
<path d="M254.75 287.236C254.75 287.236 255.132 287.007 255.818 286.549C256.505 286.091 257.421 285.328 258.642 284.412C261.008 282.581 264.137 280.062 267.571 277.086C271.006 274.109 273.982 271.362 276.119 269.378C277.188 268.385 278.027 267.546 278.638 266.935C279.248 266.325 279.553 266.02 279.477 266.02C279.477 266.02 279.095 266.325 278.485 266.859C277.798 267.47 276.959 268.233 275.89 269.225C273.677 271.209 270.701 273.957 267.266 276.857C263.832 279.757 260.703 282.352 258.413 284.26C257.345 285.175 256.429 285.939 255.742 286.473C255.055 286.931 254.75 287.236 254.75 287.236Z" fill="#000000"/>
<path d="M286.88 263.964C286.88 263.887 285.048 263.658 282.911 264.345C280.775 264.956 279.325 266.101 279.401 266.177C279.477 266.253 280.927 265.337 282.988 264.727C285.125 264.116 286.88 264.116 286.88 263.964Z" fill="#000000"/>
<path d="M283.369 261.595C283.369 261.519 281.995 262.053 280.927 263.427C279.858 264.724 279.553 266.174 279.629 266.174C279.782 266.25 280.163 264.953 281.232 263.656C282.3 262.434 283.445 261.671 283.369 261.595Z" fill="#000000"/>
<path d="M300.693 309.599C300.693 309.522 300.236 309.446 299.625 309.904C299.091 310.362 298.633 311.201 298.48 312.27C298.328 313.338 298.557 314.254 298.862 314.865C299.167 315.475 299.472 315.78 299.472 315.78C299.549 315.704 299.32 315.399 299.091 314.788C298.862 314.178 298.709 313.338 298.862 312.346C299.014 311.43 299.396 310.591 299.854 310.133C300.236 309.675 300.693 309.675 300.693 309.599Z" fill="#263238"/>
<path d="M289.016 233.586L274.516 270.448L211.859 271.44L210.714 268.082L232.694 267.242L243.225 234.578L289.016 233.586Z" fill="#000000"/>
<path d="M259.787 249.534C260.627 249 262.077 249.229 262.764 249.839C263.45 250.45 263.756 251.594 263.374 252.51C262.992 253.426 262.077 254.037 261.085 254.113C260.092 254.189 258.948 253.502 258.719 252.51C258.49 251.518 258.795 250.068 259.787 249.534Z" fill="#EBEBEB"/>
<path d="M278.789 302.425C278.789 302.425 221.093 264.571 218.727 263.808C216.361 263.045 210.637 259.305 204.913 260.831C199.19 262.434 194.076 267.547 191.558 275.026C190.108 279.3 189.421 286.627 189.116 292.045C188.734 298.609 190.718 305.096 194.992 310.056C196.9 312.346 199.342 314.254 202.166 315.17C202.776 315.322 203.387 315.551 203.998 315.628C214.911 317.994 226.13 313.109 232.235 303.798L233.609 301.738C233.609 301.738 271.31 315.628 271.921 315.399L278.789 302.425Z" fill="#263238"/>
<path d="M207.433 292.046C207.433 292.046 207.509 292.122 207.738 292.198C207.967 292.275 208.272 292.427 208.654 292.58C209.493 292.885 210.714 293.343 212.317 293.954C215.522 295.175 220.178 296.93 225.902 299.067C231.702 301.204 238.57 303.799 246.355 306.623C254.139 309.446 262.687 312.575 271.922 315.628L272.074 315.704L272.15 315.552C273.6 312.804 275.127 309.904 276.653 306.928C277.416 305.402 278.256 303.951 278.943 302.501L279.019 302.349L278.866 302.272C261.542 291.283 246.05 281.438 234.831 274.34C229.26 270.829 224.757 268.006 221.628 266.021C220.101 265.029 218.88 264.266 218.041 263.808C217.659 263.579 217.354 263.35 217.125 263.198C216.896 263.045 216.82 263.045 216.82 263.045C216.82 263.045 216.896 263.121 217.125 263.274C217.354 263.427 217.659 263.655 218.041 263.884C218.88 264.419 220.025 265.182 221.628 266.174C224.757 268.158 229.183 271.058 234.755 274.645C245.897 281.743 261.39 291.664 278.714 302.654L278.637 302.349C277.874 303.723 277.111 305.249 276.348 306.775C274.822 309.752 273.295 312.652 271.845 315.399L272.074 315.323C262.916 312.194 254.292 309.141 246.508 306.317C238.723 303.494 231.854 300.975 226.054 298.838C220.254 296.701 215.675 295.022 212.393 293.801C210.791 293.191 209.57 292.809 208.73 292.427C208.348 292.275 207.967 292.198 207.738 292.122C207.509 292.046 207.433 292.046 207.433 292.046Z" fill="#000000"/>
<path d="M213.384 157.65C214.377 154.979 216.513 153.834 219.261 153.147C222.008 152.461 225.061 153.3 227.198 155.208C228.572 156.505 229.64 158.261 231.319 159.024C234.143 160.321 237.806 158.413 240.477 160.016C242.08 160.932 242.843 163.069 242.233 164.824C241.622 166.579 239.714 167.724 237.883 167.495C239.714 168.335 240.096 171.159 238.798 172.761C237.501 174.364 235.135 174.822 233.227 174.211C231.243 173.677 229.64 172.303 228.19 170.777C226.816 169.251 225.595 167.572 224.069 166.198C222.543 164.824 220.711 163.679 218.65 163.603C215.903 163.527 213.308 165.358 211.858 167.724C210.408 170.09 209.874 172.914 209.492 175.661C209.111 178.409 208.805 181.233 207.737 183.751C207.584 184.056 207.432 184.362 207.126 184.438C206.668 184.514 206.363 184.056 206.134 183.598C204.074 178.714 202.929 173.448 202.853 168.106C202.853 165.053 203.158 162.153 205.066 159.711C206.974 157.269 211.476 155.895 213.384 157.65Z" fill="#263238"/>
<path d="M206.897 170.012L202.623 200.845C201.936 206.111 205.676 210.842 211.018 211.3C215.903 211.758 220.329 208.247 221.016 203.363C221.321 201.074 221.627 199.089 221.627 198.86C221.627 198.86 229.564 199.166 231.243 191.534C232.006 187.794 233.074 180.01 233.837 172.988C234.753 165.433 229.64 158.412 222.161 156.962L221.398 156.809C213.308 155.588 207.813 161.846 206.897 170.012Z" fill="#FFBE9D"/>
<path d="M221.628 198.707C221.628 198.707 216.667 198.096 212.164 193.822C212.164 193.822 213.461 199.851 221.246 200.691L221.628 198.707Z" fill="#EB996E"/>
<path d="M206.363 175.813C206.21 175.736 201.402 173.218 200.486 178.484C199.571 183.75 205.142 183.597 205.142 183.445C205.218 183.292 206.363 175.813 206.363 175.813Z" fill="#FFBE9D"/>
<path d="M203.843 181.157C203.843 181.157 203.767 181.233 203.538 181.233C203.386 181.309 203.08 181.309 202.851 181.157C202.317 180.852 202.012 179.859 202.164 178.944C202.241 178.486 202.393 178.028 202.622 177.646C202.851 177.265 203.157 177.036 203.462 177.036C203.767 177.036 203.92 177.188 203.996 177.417C204.072 177.57 203.996 177.646 203.996 177.723C203.996 177.723 204.149 177.646 204.149 177.417C204.149 177.341 204.072 177.188 203.996 177.036C203.92 176.883 203.691 176.807 203.538 176.807C203.157 176.73 202.699 177.112 202.47 177.494C202.164 177.875 202.012 178.409 201.936 178.944C201.783 180.012 202.164 181.08 202.928 181.462C203.309 181.615 203.615 181.538 203.767 181.462C203.843 181.309 203.92 181.157 203.843 181.157Z" fill="#EB996E"/>
<path d="M235.746 171.692C232.159 171.921 228.496 170.318 226.282 167.494C224.756 165.51 223.764 162.991 221.551 161.77C220.101 160.931 218.269 160.931 216.666 161.465C215.064 161.999 213.614 162.991 212.392 164.06C213.079 168.257 211.248 172.455 209.416 176.271C209.187 176.729 208.958 177.187 208.577 177.339C207.89 177.721 206.974 177.11 206.592 176.423C205.905 175.355 205.829 173.981 205.829 172.684C205.905 169.784 206.363 166.807 207.584 164.136C208.806 161.465 210.637 159.099 213.156 157.496C216.208 155.512 220.101 154.978 223.688 155.741C227.275 156.504 230.48 158.565 232.922 161.312C234.067 162.61 235.059 164.06 235.441 165.662" fill="#263238"/>
<path d="M22.2094 295.936C22.2094 295.936 22.2857 295.86 22.362 295.631C22.4384 295.402 22.591 295.097 22.8199 294.715C23.2015 293.876 23.6594 292.655 24.1174 291.052C24.9569 287.77 25.2621 282.733 24.041 276.781C23.4305 273.804 22.5147 270.599 21.3699 267.241C20.2251 263.807 18.9277 260.22 17.8593 256.327C16.7908 252.435 15.9513 248.238 16.1039 243.811C16.2566 239.385 17.554 234.958 19.004 230.532C20.4541 226.105 21.9041 221.831 22.362 217.481C22.8963 213.131 21.9041 208.934 19.9962 205.423C18.0882 201.912 15.646 198.86 13.8907 195.807C12.0591 192.678 10.9143 189.473 10.2274 186.496C8.85371 180.467 9.31162 175.43 9.99849 172.148C10.6854 168.79 11.5249 167.111 11.5249 167.111C11.5249 167.111 11.5249 167.264 11.4485 167.417C11.3722 167.646 11.2959 167.951 11.1433 168.409C10.9143 169.248 10.5327 170.546 10.2274 172.225C9.6169 175.583 9.2353 180.543 10.609 186.496C11.2959 189.473 12.4407 192.602 14.2723 195.654C16.1039 198.707 18.4698 201.76 20.4541 205.27C22.4384 208.781 23.4305 213.208 22.8963 217.558C22.4384 221.984 20.912 226.334 19.5383 230.684C18.0882 235.111 16.7908 239.461 16.6382 243.811C16.4855 248.161 17.2487 252.359 18.3172 256.251C19.3856 260.143 20.683 263.73 21.7515 267.164C22.8963 270.599 23.8121 273.804 24.3463 276.781C25.5674 282.81 25.1858 287.847 24.3463 291.128C23.8884 292.807 23.3542 294.028 22.9726 294.792C22.7436 295.173 22.591 295.479 22.5147 295.708C22.2094 295.86 22.2094 296.013 22.2094 295.936Z" fill="#263238"/>
<path d="M16.2556 198.862C16.2556 198.862 12.5923 187.185 19.1556 180.316C19.3846 180.087 19.7662 180.164 19.8425 180.545C20.2241 182.453 20.682 188.33 16.2556 198.862Z" fill="#000000"/>
<path d="M18.4696 184.209C18.5459 184.209 18.3932 185.048 18.2406 186.346C18.0116 187.796 17.7064 189.551 17.4011 191.536C17.0958 193.443 16.7906 195.199 16.5616 196.649C16.3326 197.946 16.2563 198.786 16.18 198.786C16.1037 198.786 16.1037 197.946 16.2563 196.649C16.409 195.351 16.6379 193.443 16.9432 191.459C17.2485 189.475 17.6301 187.643 17.9353 186.346C18.2406 184.972 18.3932 184.209 18.4696 184.209Z" fill="#263238"/>
<path d="M20.6064 226.333C20.6064 226.333 22.8197 214.274 31.8252 211.298C32.1305 211.222 32.4358 211.45 32.3595 211.832C31.7489 213.74 29.383 219.159 20.6064 226.333Z" fill="#000000"/>
<path d="M29.3827 214.426C29.459 214.502 28.9248 215.113 28.1616 216.181C27.2458 217.402 26.1773 218.776 25.0325 220.379C23.8878 221.905 22.8193 223.355 21.9035 224.576C21.1403 225.645 20.6061 226.331 20.5298 226.255C20.4535 226.255 20.9114 225.492 21.5982 224.347C22.3614 223.202 23.4299 221.676 24.651 220.073C25.872 218.471 27.0168 217.021 27.9326 215.952C28.7721 215.036 29.3064 214.426 29.3827 214.426Z" fill="#263238"/>
<path d="M18.1648 256.557C18.1648 256.557 16.791 244.422 24.5755 238.927C24.8808 238.698 25.1861 238.927 25.1861 239.232C25.1861 241.217 24.4992 247.093 18.1648 256.557Z" fill="#000000"/>
<path d="M23.1254 242.592C23.2017 242.592 22.8965 243.431 22.4386 244.652C21.9043 246.026 21.2938 247.705 20.6069 249.537C19.9201 251.368 19.3095 253.047 18.8516 254.421C18.3937 255.642 18.1647 256.482 18.0884 256.405C18.0121 256.405 18.1647 255.566 18.5463 254.268C18.9279 252.971 19.5385 251.216 20.2253 249.308C20.9122 247.4 21.5991 245.645 22.1333 244.423C22.6675 243.355 23.0491 242.592 23.1254 242.592Z" fill="#263238"/>
<path d="M24.956 286.928C24.956 286.928 24.0402 274.717 31.9773 269.527C32.2826 269.375 32.5878 269.527 32.5878 269.909C32.4352 271.817 31.5957 277.693 24.956 286.928Z" fill="#000000"/>
<path d="M30.3749 273.191C30.4512 273.191 30.146 274.03 29.6117 275.251C29.0775 276.625 28.3906 278.304 27.6275 280.059C26.8643 281.891 26.2537 283.494 25.6432 284.867C25.1853 286.089 24.88 286.852 24.8037 286.852C24.7274 286.852 24.9563 286.012 25.3379 284.715C25.7195 283.417 26.4064 281.738 27.1695 279.83C27.9327 277.923 28.6959 276.244 29.3065 275.022C29.917 273.878 30.2986 273.114 30.3749 273.191Z" fill="#263238"/>
<path d="M11.0661 188.557C11.0661 188.557 0.228955 182.909 0 173.446C0 173.141 0.38159 172.912 0.610545 173.064C2.21323 174.209 6.716 178.025 11.0661 188.557Z" fill="#000000"/>
<path d="M2.21289 176.654C2.28921 176.654 2.74712 177.265 3.58662 178.333C4.50244 179.554 5.49457 181.004 6.63935 182.531C7.78412 184.133 8.85257 185.507 9.69207 186.728C10.4553 187.797 10.9895 188.484 10.9132 188.484C10.8368 188.56 10.3026 187.949 9.3868 186.881C8.5473 185.889 7.40253 184.362 6.18144 182.76C4.96035 181.081 3.96821 179.554 3.20503 178.41C2.59448 177.417 2.21289 176.731 2.21289 176.654Z" fill="#263238"/>
<path d="M22.6665 213.667C22.6665 213.667 11.5241 208.706 10.6846 199.243C10.6846 198.937 10.9898 198.708 11.2951 198.861C13.0504 199.853 17.7058 203.44 22.6665 213.667Z" fill="#000000"/>
<path d="M13.2036 202.295C13.2799 202.219 13.8141 202.905 14.6536 203.898C15.5694 205.042 16.7142 206.416 17.9353 207.942C19.1564 209.469 20.3012 210.842 21.217 211.987C22.0565 212.979 22.5907 213.666 22.5907 213.666C22.5144 213.743 21.9038 213.132 20.988 212.216C20.0722 211.224 18.8511 209.85 17.5537 208.248C16.2563 206.645 15.1115 205.195 14.3483 204.126C13.5852 203.058 13.1273 202.371 13.2036 202.295Z" fill="#263238"/>
<path d="M16.255 241.599C16.255 241.599 8.54688 232.059 12.2102 223.282C12.3628 222.977 12.7444 222.901 12.897 223.206C13.9655 224.961 16.484 230.227 16.255 241.599Z" fill="#000000"/>
<path d="M12.9739 227.176C13.0503 227.176 13.2029 227.939 13.5082 229.236C13.8134 230.686 14.195 232.442 14.6529 234.35C15.0345 236.258 15.4161 238.013 15.7977 239.463C16.103 240.76 16.2556 241.6 16.1793 241.6C16.103 241.6 15.7977 240.837 15.4161 239.539C15.0345 238.242 14.5766 236.487 14.195 234.426C13.7371 232.442 13.4318 230.61 13.2029 229.313C12.9739 228.015 12.8976 227.252 12.9739 227.176Z" fill="#263238"/>
<path d="M23.8876 274.568C23.8876 274.568 12.8215 269.378 12.2109 259.915C12.2109 259.609 12.5162 259.38 12.8215 259.533C14.4242 260.601 19.0796 264.188 23.8876 274.568Z" fill="#000000"/>
<path d="M14.5766 263.045C14.6529 263.045 15.1871 263.655 16.0266 264.648C16.9425 265.792 18.0872 267.242 19.232 268.769C20.4531 270.295 21.5216 271.669 22.5137 272.814C23.3532 273.882 23.8874 274.493 23.8111 274.569C23.7348 274.645 23.1242 274.035 22.2847 273.043C21.3689 272.05 20.1478 270.677 18.9267 269.074C17.6293 267.471 16.5609 266.021 15.7977 264.877C14.9582 263.808 14.5003 263.121 14.5766 263.045Z" fill="#263238"/>
<path d="M45.943 226.41C45.943 226.41 45.943 226.486 45.943 226.715C45.943 226.944 45.943 227.173 45.943 227.479C45.943 228.242 45.8667 229.234 45.7904 230.455C45.6377 233.05 45.4851 236.713 45.1798 241.063C44.4167 245.49 42.1271 250.374 39.0744 255.182C36.8612 258.693 34.4953 261.898 32.511 264.875C30.5267 267.851 28.7714 270.598 27.6267 273.041C26.4056 275.483 25.7187 277.543 25.3371 278.993C25.1081 279.757 25.0318 280.291 24.8792 280.672C24.8029 281.054 24.7266 281.283 24.7266 281.283C24.7266 281.283 24.7266 281.054 24.8029 280.672C24.8792 280.291 24.9555 279.68 25.1845 278.917C25.5661 277.467 26.1766 275.33 27.3977 272.888C28.5425 270.446 30.2215 267.622 32.2821 264.646C34.2663 261.669 36.6322 258.464 38.7691 254.953C41.7455 250.221 44.0351 245.413 44.8746 240.987C45.1798 236.637 45.4088 232.974 45.6377 230.379C45.7141 229.158 45.7904 228.165 45.8667 227.402C45.8667 227.097 45.943 226.868 45.943 226.639C45.943 226.563 45.943 226.41 45.943 226.41Z" fill="#263238"/>
<path d="M39.3806 254.265C39.3806 254.265 44.1123 242.97 38.1595 235.567C37.9305 235.338 37.5489 235.414 37.4726 235.719C36.8621 237.551 35.9462 243.427 39.3806 254.265Z" fill="#000000"/>
<path d="M38.4656 239.533C38.5419 239.533 38.6945 240.373 38.8472 241.67C38.9998 242.968 39.2287 244.799 39.3814 246.86C39.534 248.92 39.6103 250.752 39.6103 252.049C39.6103 253.423 39.534 254.186 39.4577 254.186C39.3814 254.186 39.3814 253.347 39.2287 252.049C39.1524 250.523 38.9998 248.768 38.8472 246.86C38.6945 244.952 38.6182 243.12 38.4656 241.67C38.4656 240.296 38.3892 239.533 38.4656 239.533Z" fill="#263238"/>
<g opacity="0.3">
<g opacity="0.3">
<path opacity="0.3" d="M39.3806 254.265C39.3806 254.265 44.1123 242.97 38.1595 235.567C37.9305 235.338 37.5489 235.414 37.4726 235.719C36.8621 237.551 35.9462 243.427 39.3806 254.265Z" fill="#121243"/>
</g>
</g>
<path d="M24.8033 281.51C24.8033 281.51 28.5429 269.833 22.0559 262.965C21.8269 262.736 21.4453 262.812 21.369 263.194C20.9874 265.102 20.5295 270.978 24.8033 281.51Z" fill="#000000"/>
<path d="M22.742 266.857C22.8183 266.857 23.0473 267.621 23.2762 268.994C23.5815 270.292 23.8868 272.123 24.192 274.108C24.4973 276.092 24.7263 278 24.8026 279.297C24.8789 280.671 24.8789 281.434 24.8789 281.434C24.8026 281.434 24.7263 280.595 24.4973 279.297C24.2683 277.847 24.0394 276.092 23.7341 274.108C23.4288 272.2 23.1999 270.444 22.9709 268.918C22.8183 267.697 22.6657 266.857 22.742 266.857Z" fill="#263238"/>
<g opacity="0.3">
<g opacity="0.3">
<path opacity="0.3" d="M24.8033 281.51C24.8033 281.51 28.5429 269.833 22.0559 262.965C21.8269 262.736 21.4453 262.812 21.369 263.194C20.9874 265.102 20.5295 270.978 24.8033 281.51Z" fill="#121243"/>
</g>
</g>
<path d="M45.333 240.453C45.333 240.453 55.3307 233.431 54.3386 224.044C54.3386 223.739 53.8806 223.586 53.6517 223.815C52.2016 225.036 48.3094 229.463 45.333 240.453Z" fill="#000000"/>
<g opacity="0.3">
<g opacity="0.3">
<path opacity="0.3" d="M45.333 240.453C45.333 240.453 55.3307 233.431 54.3386 224.044C54.3386 223.739 53.8806 223.586 53.6517 223.815C52.2016 225.036 48.3094 229.463 45.333 240.453Z" fill="#121243"/>
</g>
</g>
<path d="M52.5063 227.556C52.5826 227.556 52.2773 228.319 51.6668 229.54C51.1326 230.761 50.2931 232.364 49.3009 234.196C48.3088 236.027 47.393 237.554 46.7061 238.698C46.0193 239.843 45.485 240.454 45.4087 240.454C45.3324 240.454 45.7903 239.691 46.4008 238.546C47.0877 237.248 48.0035 235.646 48.9193 233.967C49.8352 232.288 50.6747 230.685 51.4379 229.388C52.0484 228.243 52.43 227.48 52.5063 227.556Z" fill="#263238"/>
<path d="M28.8486 269.989C28.8486 269.989 40.9069 268.081 44.1886 259.228C44.2649 258.922 44.036 258.617 43.7307 258.694C41.8227 259.151 36.3278 261.365 28.8486 269.989Z" fill="#000000"/>
<g opacity="0.3">
<g opacity="0.3">
<path opacity="0.3" d="M28.8486 269.989C28.8486 269.989 40.9069 268.081 44.1886 259.228C44.2649 258.922 44.036 258.617 43.7307 258.694C41.8227 259.151 36.3278 261.365 28.8486 269.989Z" fill="#121243"/>
</g>
</g>
<path d="M40.9841 261.518C41.0604 261.594 40.3735 262.128 39.3814 262.968C38.3129 263.807 36.8629 264.952 35.1839 266.097C33.5049 267.318 31.9785 268.31 30.8337 268.997C29.689 269.684 28.9258 270.065 28.9258 269.989C28.9258 269.913 29.5363 269.455 30.6811 268.691C31.9022 267.852 33.3522 266.784 34.9549 265.715C36.5576 264.57 38.0076 263.578 39.2287 262.662C40.2972 261.899 40.9841 261.518 40.9841 261.518Z" fill="#263238"/>
<path d="M17.3241 292.195L13.8135 315.93H35.7931L32.893 292.195H17.3241Z" fill="#000000"/>
<path d="M33.8093 299.6C33.8093 299.753 29.8408 299.829 24.9564 299.829C20.0721 299.829 16.1035 299.753 16.1035 299.6C16.1035 299.447 20.0721 299.371 24.9564 299.371C29.8408 299.371 33.8093 299.447 33.8093 299.6Z" fill="#263238"/>
<path d="M34.1904 301.43C34.1904 301.583 30.0692 301.659 25.0322 301.659C19.9952 301.659 15.874 301.583 15.874 301.43C15.874 301.277 19.9952 301.201 25.0322 301.201C30.1455 301.201 34.1904 301.354 34.1904 301.43Z" fill="#263238"/>
</svg>
