<svg width="502" height="549" viewBox="0 0 502 549" fill="none" xmlns="http://www.w3.org/2000/svg">
<path d="M251 1C212.676 36.4584 114.897 72.6332 1 148.923C1 148.923 8.16327 406.802 251 547.561V1Z" fill="#000000" stroke="#3E6F26" stroke-miterlimit="10" stroke-linecap="round" stroke-linejoin="round"/>
<path d="M251 1C289.324 36.4584 387.103 72.6332 501 148.923C501 148.923 493.837 406.802 251 547.561V1Z" fill="#3E6F26" stroke="#3E6F26" stroke-miterlimit="10" stroke-linecap="round" stroke-linejoin="round"/>
<path d="M251.003 23.1992C204.8 55.076 124.929 85.8783 19.2695 156.437C19.2695 156.437 25.7165 395.334 251.003 526.064C475.931 395.334 482.736 156.437 482.736 156.437C377.077 85.5201 297.565 55.076 251.003 23.1992Z" fill="#3E6F26" stroke="#3E6F26" stroke-miterlimit="10" stroke-linecap="round" stroke-linejoin="round"/>
<path d="M482.733 156.081C377.074 85.5228 297.562 54.7205 251 22.8438V525.351C476.286 394.978 482.733 156.081 482.733 156.081Z" fill="#000000" stroke="#3E6F26" stroke-miterlimit="10" stroke-linecap="round" stroke-linejoin="round"/>
<path d="M338.752 263.891H166.116C158.236 263.891 151.789 257.444 151.789 249.923V170.41C151.789 115.968 196.918 71.9141 252.434 71.9141C307.949 71.9141 353.078 115.968 353.078 170.41V249.923C353.078 257.444 346.631 263.891 338.752 263.891ZM180.442 235.954H324.425V170.41C324.425 131.37 292.19 99.851 252.434 99.851C212.677 99.851 180.442 131.37 180.442 170.41V235.954Z" fill="white" stroke="#3E6F26" stroke-miterlimit="10" stroke-linecap="round" stroke-linejoin="round"/>
<path d="M360.961 225.559H141.047V407.507H360.961V225.559Z" fill="#000000" stroke="#3E6F26" stroke-miterlimit="10" stroke-linecap="round" stroke-linejoin="round"/>
<path d="M273.929 301.136C273.929 288.242 263.184 277.855 249.932 277.855C236.68 277.855 225.935 288.242 225.935 301.136C225.935 310.09 230.949 317.97 238.47 321.91L234.531 363.099H265.333L261.393 321.91C268.915 317.612 273.929 310.09 273.929 301.136Z" fill="#3E6F26" stroke="#3E6F26" stroke-miterlimit="10" stroke-linecap="round" stroke-linejoin="round"/>
</svg>
