<svg width="60" height="60" viewBox="0 0 60 60" fill="none" xmlns="http://www.w3.org/2000/svg">
<circle cx="30" cy="30" r="30" fill="#FFF1E9"/>
<path d="M48.8218 32.5397L45.7514 31.9089L44.3211 27.5767C43.8165 26.0206 42.3443 24.969 40.7039 24.969H38.2644V22.7398C38.2644 21.9406 37.6337 21.2676 36.7922 21.2676H28.3388C28.423 21.7722 28.4649 22.2771 28.4649 22.8237C28.4649 28.6701 23.712 33.423 17.8657 33.423C17.3189 33.423 16.8142 33.381 16.3096 33.2968V38.5963C16.3096 39.3956 16.9826 40.0686 17.7818 40.0686H19.3802C19.3802 42.3397 21.2309 44.2326 23.5443 44.2326C25.8154 44.2326 27.6661 42.3819 27.6661 40.0686H38.728C38.728 42.3397 40.5787 44.2326 42.8498 44.2326C45.1209 44.2326 47.0139 42.3819 47.0139 40.0686H48.5275C49.3267 40.0686 49.9997 39.4378 49.9997 38.5963V33.9695C49.9997 33.2968 49.4951 32.708 48.822 32.5396L48.8218 32.5397ZM23.5014 42.0033C22.4079 42.0033 21.5246 41.1199 21.5246 40.0265C21.5246 38.933 22.408 38.0915 23.5014 38.0915C24.5949 38.0915 25.4363 38.975 25.4363 40.0265C25.4363 41.1202 24.5529 42.0033 23.5014 42.0033ZM38.2646 31.5723V27.1559H40.7041C41.3771 27.1559 42.0079 27.6186 42.2183 28.2494L43.3118 31.572L38.2646 31.5723ZM42.8069 42.0033C41.7134 42.0033 40.872 41.1199 40.872 40.0265C40.872 38.933 41.7554 38.0915 42.8069 38.0915C43.9004 38.0915 44.7837 38.975 44.7837 40.0265C44.7837 41.1202 43.9006 42.0033 42.8069 42.0033Z" fill="#DB5D11"/>
<path d="M25.6465 22.8232C25.6465 18.491 22.1555 15 17.8232 15C13.491 15 10 18.491 10 22.8232C10 27.1555 13.491 30.6465 17.8232 30.6465C22.1555 30.6465 25.6465 27.1135 25.6465 22.8232ZM16.94 26.0197C16.6034 26.0197 16.2669 25.8936 16.0565 25.6413L14.0377 23.6224C13.5331 23.1178 13.5331 22.3187 14.0377 21.8559C14.5424 21.3513 15.3415 21.3513 15.8043 21.8559L16.94 22.9916L19.9264 20.0052C20.431 19.5005 21.2302 19.5005 21.6929 20.0052C22.1976 20.5098 22.1976 21.309 21.6929 21.7717L17.8234 25.6413C17.5708 25.8936 17.2765 26.0197 16.94 26.0197Z" fill="#DB5D11"/>
</svg>
