<svg width="80" height="71" viewBox="0 0 80 71" fill="none" xmlns="http://www.w3.org/2000/svg">
<path d="M7.04964 63.4515C6.99191 63.4515 6.94283 63.4057 6.93706 63.3485L6.65127 60.219C6.62818 59.9587 6.42034 59.747 6.15476 59.7184L3.67794 59.4467C3.62021 59.441 3.5769 59.3923 3.5769 59.3351C3.5769 59.2779 3.62021 59.2293 3.67794 59.2236L6.15476 58.9518C6.41745 58.9232 6.62818 58.7115 6.65127 58.4512L6.93706 55.3217C6.94283 55.2645 6.99191 55.2188 7.04964 55.2188C7.11026 55.2188 7.15934 55.2645 7.16223 55.3217L7.44801 58.4512C7.47111 58.7144 7.68184 58.9232 7.94453 58.9518L10.4185 59.2236C10.4762 59.2293 10.5195 59.2779 10.5195 59.3351C10.5195 59.3923 10.4762 59.441 10.4185 59.4467L7.94453 59.7184C7.68184 59.747 7.47111 59.9587 7.44801 60.219L7.16223 63.3485C7.15645 63.4057 7.10738 63.4515 7.04964 63.4515ZM4.72871 59.3323L6.17785 59.4896C6.55024 59.5296 6.8418 59.8271 6.87644 60.1962L7.04676 62.0755L7.21707 60.1962C7.25171 59.8271 7.54327 59.5296 7.91566 59.4896L9.3648 59.3323L7.91566 59.1721C7.54327 59.132 7.25171 58.8345 7.21707 58.4655L7.04676 56.5861L6.87644 58.4655C6.8418 58.8345 6.55024 59.132 6.17785 59.1721L4.72871 59.3323Z" fill="#000000"/>
<g opacity="0.5">
<path opacity="0.5" d="M10.5197 70.017C10.462 70.017 10.41 69.9713 10.4071 69.9141L10.2137 67.7829C10.1993 67.6227 10.0694 67.4912 9.90774 67.474L8.22188 67.2881C8.16415 67.2823 8.12085 67.2337 8.12085 67.1765C8.12085 67.1193 8.16415 67.0706 8.22188 67.0649L9.90774 66.879C10.0694 66.8618 10.1993 66.7302 10.2137 66.57L10.4071 64.4389C10.4129 64.3817 10.462 64.3359 10.5197 64.3359C10.5775 64.3359 10.6294 64.3817 10.6323 64.4389L10.8257 66.57C10.8402 66.7302 10.9701 66.8618 11.1317 66.879L12.8176 67.0649C12.8753 67.0706 12.9186 67.1193 12.9186 67.1765C12.9186 67.2337 12.8753 67.2823 12.8176 67.2881L11.1317 67.474C10.9701 67.4912 10.8402 67.6227 10.8257 67.7829L10.6323 69.9141C10.6294 69.9713 10.5803 70.017 10.5197 70.017ZM9.27266 67.1765L9.93372 67.248C10.2022 67.2766 10.4158 67.494 10.4418 67.76L10.5226 68.6411L10.6034 67.76C10.6265 67.4912 10.8402 67.2766 11.1115 67.248L11.7726 67.1765L11.1115 67.105C10.843 67.0764 10.6294 66.859 10.6034 66.5929L10.5226 65.7119L10.4418 66.5929C10.4187 66.8618 10.2051 67.0764 9.93372 67.105L9.27266 67.1765Z" fill="#000000"/>
</g>
<path d="M4.45118 33.5767C4.40788 33.5767 4.37324 33.5452 4.37035 33.5023L4.16828 31.2682C4.15096 31.0822 4.00374 30.9306 3.81321 30.9106L2.04653 30.7161C2.00612 30.7104 1.97437 30.676 1.97437 30.636C1.97437 30.5959 2.00612 30.5616 2.04653 30.5559L3.81321 30.3614C4.00085 30.3413 4.15096 30.1897 4.16828 30.0038L4.37035 27.7697C4.37324 27.7268 4.41077 27.6953 4.45118 27.6953C4.49448 27.6953 4.52912 27.7268 4.53201 27.7697L4.73408 30.0038C4.7514 30.1897 4.90151 30.3413 5.08915 30.3614L6.85583 30.5559C6.89624 30.5616 6.928 30.5959 6.928 30.636C6.928 30.676 6.89624 30.7104 6.85583 30.7161L5.08915 30.9106C4.90151 30.9306 4.7514 31.0822 4.73408 31.2682L4.53201 33.5023C4.52912 33.5452 4.4916 33.5767 4.45118 33.5767ZM2.79708 30.6388L3.83053 30.7533C4.09611 30.7819 4.30396 30.9936 4.32994 31.2567L4.45118 32.5983L4.57242 31.2567C4.59552 30.9936 4.80625 30.7819 5.07183 30.7533L6.10528 30.6388L5.07183 30.5244C4.80625 30.4958 4.5984 30.2841 4.57242 30.021L4.45118 28.6794L4.32994 30.021C4.30684 30.2841 4.09611 30.4958 3.83053 30.5244L2.79708 30.6388Z" fill="#000000"/>
<g opacity="0.5">
<path opacity="0.5" d="M1.39718 36.9454C1.36254 36.9454 1.33367 36.9196 1.33078 36.8853L1.2182 35.6438C1.20954 35.5494 1.13449 35.475 1.03922 35.4636L0.0577349 35.3549C0.0230941 35.352 0 35.3234 0 35.2891C0 35.2548 0.0259808 35.2262 0.0577349 35.2233L1.03922 35.1146C1.13449 35.1032 1.20954 35.0288 1.2182 34.9344L1.33078 33.6929C1.33367 33.6586 1.36254 33.6328 1.39718 33.6328C1.43182 33.6328 1.46069 33.6586 1.46357 33.6929L1.57616 34.9344C1.58482 35.0288 1.65987 35.1032 1.75513 35.1146L2.73662 35.2233C2.77126 35.2262 2.79436 35.2548 2.79436 35.2891C2.79436 35.3234 2.76838 35.352 2.73662 35.3549L1.75513 35.4636C1.65987 35.475 1.58482 35.5494 1.57616 35.6438L1.46357 36.8853C1.46069 36.9196 1.43182 36.9454 1.39718 36.9454ZM0.669722 35.2891L1.05366 35.332C1.20954 35.3492 1.33656 35.475 1.35099 35.6324L1.39718 36.1473L1.44337 35.6324C1.4578 35.475 1.58193 35.3492 1.7407 35.332L2.12463 35.2891L1.7407 35.2462C1.58482 35.229 1.4578 35.1032 1.44337 34.9458L1.39718 34.4309L1.35099 34.9458C1.33656 35.1032 1.21243 35.229 1.05366 35.2462L0.669722 35.2891Z" fill="#000000"/>
</g>
<path d="M67.8845 65.0941C67.8384 65.0941 67.8008 65.0598 67.7951 65.014L67.5728 62.5625C67.5554 62.3565 67.3909 62.1906 67.1831 62.1677L65.2432 61.956C65.197 61.9503 65.1624 61.9131 65.1624 61.8674C65.1624 61.8216 65.197 61.7844 65.2432 61.7787L67.1831 61.567C67.3909 61.5441 67.5526 61.3782 67.5728 61.1751L67.7951 58.7207C67.7979 58.675 67.8384 58.6406 67.8845 58.6406C67.9307 58.6406 67.9683 58.675 67.974 58.7207L68.1963 61.1751C68.2136 61.3811 68.3782 61.547 68.586 61.567L70.5259 61.7787C70.5721 61.7844 70.6067 61.8216 70.6067 61.8674C70.6067 61.9131 70.5721 61.9503 70.5259 61.956L68.586 62.1677C68.3782 62.1906 68.2165 62.3565 68.1963 62.5625L67.974 65.014C67.9683 65.0598 67.9307 65.0941 67.8845 65.0941ZM66.0659 61.8674L67.2033 61.9904C67.4948 62.0218 67.7229 62.2564 67.7518 62.5453L67.8845 64.0185L68.0173 62.5453C68.0433 62.2564 68.2742 62.0247 68.5658 61.9904L69.7032 61.8674L68.5658 61.7415C68.2742 61.71 68.0462 61.4783 68.0173 61.1894L67.8845 59.7162L67.7518 61.1894C67.7258 61.4783 67.4948 61.71 67.2033 61.7415L66.0659 61.8674Z" fill="#000000"/>
<g opacity="0.5">
<path opacity="0.5" d="M74.6219 60.8907C74.5844 60.8907 74.5526 60.8621 74.5497 60.8249L74.4256 59.4605C74.4169 59.3575 74.3332 59.2745 74.2293 59.2631L73.1496 59.1458C73.1121 59.1429 73.0833 59.1115 73.0833 59.0743C73.0833 59.0371 73.1121 59.0056 73.1496 59.0028L74.2293 58.8855C74.3332 58.874 74.4169 58.7911 74.4256 58.6881L74.5497 57.3236C74.5526 57.2864 74.5844 57.2578 74.6219 57.2578C74.6594 57.2578 74.6912 57.2864 74.6941 57.3236L74.8182 58.6881C74.8268 58.7911 74.9106 58.874 75.0145 58.8855L76.0941 59.0028C76.1316 59.0056 76.1576 59.0371 76.1576 59.0743C76.1576 59.1115 76.1288 59.1429 76.0941 59.1458L75.0145 59.2631C74.9106 59.2745 74.8268 59.3575 74.8182 59.4605L74.6941 60.8249C74.6912 60.8621 74.6594 60.8907 74.6219 60.8907ZM73.8223 59.0714L74.2437 59.1172C74.4169 59.1372 74.5526 59.2745 74.5699 59.4462L74.6219 60.0097L74.6738 59.4462C74.6883 59.2745 74.8268 59.1372 75 59.1172L75.4215 59.0714L75 59.0257C74.8268 59.0056 74.6912 58.8683 74.6738 58.6967L74.6219 58.1331L74.5699 58.6967C74.5555 58.8683 74.4169 59.0056 74.2437 59.0257L73.8223 59.0714Z" fill="#000000"/>
</g>
<g opacity="0.5">
<path opacity="0.5" d="M70.6271 55.2819C70.5665 55.2819 70.5146 55.2362 70.5117 55.1761L70.3125 52.9849C70.2981 52.819 70.1653 52.6845 69.9978 52.6674L68.2658 52.4786C68.2052 52.4728 68.1619 52.4214 68.1619 52.3641C68.1619 52.3041 68.2081 52.2554 68.2658 52.2497L69.9978 52.0609C70.1653 52.0438 70.2981 51.9093 70.3125 51.7434L70.5117 49.5551C70.5174 49.495 70.5665 49.4492 70.6271 49.4492C70.6878 49.4492 70.7397 49.495 70.7426 49.5551L70.9418 51.7463C70.9562 51.9122 71.089 52.0466 71.2564 52.0638L72.9885 52.2526C73.0491 52.2583 73.0924 52.3098 73.0924 52.367C73.0924 52.4271 73.0462 52.4757 72.9885 52.4814L71.2564 52.6702C71.089 52.6874 70.9562 52.8218 70.9418 52.9877L70.7426 55.1761C70.7397 55.2362 70.6878 55.2819 70.6271 55.2819ZM69.3454 52.3641L70.0238 52.4385C70.3009 52.47 70.5203 52.6903 70.5463 52.9649L70.63 53.8717L70.7109 52.9649C70.7368 52.6903 70.9562 52.4671 71.2334 52.4357L71.9117 52.3613L71.2334 52.2869C70.9562 52.2554 70.7368 52.0352 70.7109 51.7606L70.63 50.8538L70.5463 51.7606C70.5203 52.0352 70.3009 52.2583 70.0238 52.2898L69.3454 52.3641Z" fill="#000000"/>
</g>
<path d="M76.8102 36.1845C76.7553 36.1845 76.7121 36.1444 76.7063 36.0901L76.4436 33.2152C76.4205 32.9749 76.23 32.7804 75.9875 32.7546L73.7127 32.5058C73.6608 32.5 73.6204 32.4543 73.6204 32.4028C73.6204 32.3484 73.6608 32.3055 73.7127 32.2998L75.9875 32.0509C76.23 32.0252 76.4205 31.8307 76.4436 31.5904L76.7063 28.7155C76.7121 28.6611 76.7553 28.6211 76.8102 28.6211C76.865 28.6211 76.9083 28.6611 76.9141 28.7155L77.1768 31.5904C77.1999 31.8307 77.3904 32.0252 77.6329 32.0509L79.9077 32.2998C79.9596 32.3055 80 32.3513 80 32.4028C80 32.4571 79.9596 32.5 79.9077 32.5058L77.6329 32.7546C77.3904 32.7804 77.197 32.9749 77.1768 33.2152L76.9141 36.0901C76.9083 36.1415 76.865 36.1845 76.8102 36.1845ZM74.6798 32.3999L76.0106 32.5458C76.3512 32.583 76.6197 32.8547 76.6514 33.1952L76.8073 34.9229L76.9632 33.1952C76.9949 32.8576 77.2634 32.583 77.604 32.5458L78.9348 32.3999L77.604 32.254C77.2634 32.2168 76.9921 31.9451 76.9632 31.6047L76.8073 29.8769L76.6514 31.6047C76.6197 31.9422 76.3512 32.2168 76.0106 32.254L74.6798 32.3999Z" fill="#000000"/>
<g opacity="0.5">
<path opacity="0.5" d="M72.6793 28.9625C72.636 28.9625 72.5985 28.9282 72.5927 28.8853L72.4484 27.2862C72.4368 27.1661 72.3415 27.0688 72.2203 27.0545L70.9559 26.9172C70.9126 26.9115 70.8809 26.8772 70.8809 26.8314C70.8809 26.7885 70.9126 26.7513 70.9559 26.7484L72.2203 26.6111C72.3415 26.5968 72.4397 26.4996 72.4484 26.3794L72.5927 24.7804C72.5956 24.7375 72.6331 24.7031 72.6793 24.7031C72.7226 24.7031 72.7601 24.7375 72.7659 24.7804L72.9102 26.3794C72.9218 26.4996 73.017 26.5968 73.1412 26.6111L74.4056 26.7484C74.4489 26.7542 74.4806 26.7885 74.4806 26.8314C74.4806 26.8743 74.4489 26.9115 74.4056 26.9172L73.1412 27.0545C73.0199 27.0688 72.9218 27.1661 72.9102 27.2862L72.7659 28.8853C72.7601 28.9282 72.7226 28.9625 72.6793 28.9625ZM71.7411 26.8314L72.2376 26.8857C72.4397 26.9086 72.6013 27.0688 72.6187 27.2719L72.6793 27.9327L72.7399 27.2719C72.7572 27.0717 72.9189 26.9086 73.121 26.8857L73.6175 26.8314L73.121 26.777C72.9189 26.7542 72.7572 26.594 72.7399 26.3909L72.6793 25.7301L72.6187 26.3909C72.6013 26.5911 72.4397 26.7542 72.2376 26.777L71.7411 26.8314Z" fill="#000000"/>
</g>
<path d="M13.559 12.4585C13.5071 12.4585 13.4638 12.4185 13.458 12.367L13.2068 9.59509C13.1866 9.36339 13.0019 9.17745 12.7681 9.1517L10.577 8.91141C10.5251 8.90569 10.4875 8.86279 10.4875 8.81129C10.4875 8.7598 10.5251 8.7169 10.577 8.71118L12.7681 8.47089C13.0019 8.44514 13.1866 8.2592 13.2068 8.0275L13.458 5.2556C13.4638 5.20411 13.5071 5.16406 13.559 5.16406C13.611 5.16406 13.6543 5.20411 13.6601 5.2556L13.9112 8.0275C13.9314 8.2592 14.1162 8.44514 14.35 8.47089L16.541 8.71118C16.593 8.7169 16.6305 8.7598 16.6305 8.81129C16.6305 8.86279 16.593 8.90569 16.541 8.91141L14.35 9.1517C14.1162 9.17745 13.9314 9.36339 13.9112 9.59509L13.6601 12.367C13.6572 12.4213 13.611 12.4585 13.559 12.4585ZM11.5066 8.81416L12.7912 8.95432C13.1202 8.99151 13.3801 9.25182 13.4089 9.58079L13.559 11.2456L13.7091 9.58079C13.738 9.25468 13.9978 8.99151 14.3269 8.95432L15.6115 8.81416L14.3269 8.67399C13.9978 8.6368 13.738 8.37649 13.7091 8.04752L13.559 6.38267L13.4089 8.04752C13.3801 8.37363 13.1202 8.6368 12.7912 8.67399L11.5066 8.81416Z" fill="#000000"/>
<g opacity="0.5">
<path opacity="0.5" d="M10.4879 19.8805C10.4446 19.8805 10.41 19.849 10.4071 19.8061L10.2685 18.2843C10.257 18.1699 10.1675 18.0755 10.0491 18.064L8.84536 17.9325C8.80495 17.9267 8.77319 17.8924 8.77319 17.8524C8.77319 17.8123 8.80495 17.778 8.84536 17.7723L10.0491 17.6407C10.1646 17.6292 10.257 17.5348 10.2685 17.4204L10.4071 15.8986C10.41 15.8557 10.4475 15.8242 10.4879 15.8242C10.5312 15.8242 10.5659 15.8557 10.5687 15.8986L10.7073 17.4204C10.7189 17.5348 10.8083 17.6292 10.9267 17.6407L12.1305 17.7723C12.1709 17.778 12.2026 17.8123 12.2026 17.8524C12.2026 17.8924 12.1709 17.9267 12.1305 17.9325L10.9267 18.064C10.8112 18.0755 10.7189 18.1699 10.7073 18.2843L10.5687 19.8061C10.563 19.849 10.5283 19.8805 10.4879 19.8805ZM9.59591 17.8495L10.0665 17.901C10.2599 17.921 10.4129 18.0755 10.4302 18.2671L10.4879 18.8993L10.5456 18.2671C10.563 18.0755 10.716 17.921 10.9094 17.901L11.3799 17.8495L10.9094 17.798C10.716 17.778 10.563 17.6235 10.5456 17.4319L10.4879 16.7997L10.4302 17.4319C10.4129 17.6235 10.2599 17.778 10.0665 17.798L9.59591 17.8495Z" fill="#000000"/>
</g>
<g opacity="0.5">
<path opacity="0.5" d="M20.4991 13.6939C20.4442 13.6939 20.398 13.6509 20.3922 13.5966L20.2104 11.6028C20.1959 11.4512 20.0776 11.331 19.9246 11.3139L18.3484 11.1422C18.2936 11.1365 18.2532 11.0907 18.2532 11.0364C18.2532 10.982 18.2936 10.9363 18.3484 10.9305L19.9246 10.7589C20.0776 10.7417 20.1959 10.6216 20.2104 10.47L20.3922 8.47616C20.398 8.42181 20.4442 8.37891 20.4991 8.37891C20.5539 8.37891 20.6001 8.42181 20.6059 8.47616L20.7877 10.47C20.8022 10.6216 20.9205 10.7417 21.0735 10.7589L22.6497 10.9305C22.7045 10.9363 22.7449 10.982 22.7449 11.0364C22.7449 11.0907 22.7045 11.1365 22.6497 11.1422L21.0735 11.3139C20.9205 11.331 20.8022 11.4512 20.7877 11.6028L20.6059 13.5966C20.6001 13.6509 20.5539 13.6939 20.4991 13.6939ZM19.3328 11.0364L19.9506 11.105C20.2017 11.1336 20.4038 11.3339 20.4269 11.5856L20.5019 12.4123L20.577 11.5856C20.6001 11.3339 20.7993 11.1336 21.0504 11.105L21.6682 11.0364L21.0504 10.9677C20.7993 10.9391 20.5972 10.7389 20.577 10.4871L20.5019 9.66044L20.4269 10.4871C20.4038 10.7389 20.2046 10.9391 19.9506 10.9677L19.3328 11.0364Z" fill="#000000"/>
</g>
<g opacity="0.5">
<path opacity="0.5" d="M30.279 3.64102C30.2415 3.64102 30.2097 3.61241 30.2068 3.57523L30.0827 2.21645C30.074 2.11347 29.9903 2.03052 29.8864 2.01907L28.8125 1.90179C28.775 1.89893 28.749 1.86746 28.749 1.83028C28.749 1.79309 28.7779 1.76162 28.8125 1.75876L29.8864 1.64148C29.9903 1.63004 30.0711 1.54708 30.0827 1.4441L30.2068 0.0853243C30.2097 0.0481369 30.2415 0.0195312 30.279 0.0195312C30.3165 0.0195312 30.3483 0.0481369 30.3512 0.0853243L30.4753 1.4441C30.484 1.54708 30.5677 1.63004 30.6716 1.64148L31.7455 1.75876C31.783 1.76162 31.809 1.79309 31.809 1.83028C31.809 1.86746 31.7801 1.89893 31.7455 1.90179L30.6716 2.01907C30.5677 2.03052 30.4868 2.11347 30.4753 2.21645L30.3512 3.57523C30.3483 3.61241 30.3165 3.64102 30.279 3.64102ZM29.4851 1.83028L29.9066 1.87604C30.0798 1.89607 30.2155 2.03338 30.2299 2.20215L30.2819 2.76568L30.3338 2.20215C30.3483 2.03052 30.4868 1.89321 30.6572 1.87318L31.0786 1.82741L30.6572 1.78165C30.484 1.76162 30.3483 1.62431 30.3338 1.45554L30.2819 0.892006L30.2299 1.45554C30.2155 1.62717 30.0769 1.76448 29.9066 1.78451L29.4851 1.83028Z" fill="#000000"/>
</g>
<g opacity="0.5">
<path opacity="0.5" d="M35.4634 7.02493C35.4056 7.02493 35.3594 6.98203 35.3537 6.92768L35.1689 4.88809C35.1545 4.73362 35.0304 4.60775 34.8774 4.59345L33.2637 4.41609C33.2088 4.41037 33.1655 4.3646 33.1655 4.30739C33.1655 4.25018 33.2059 4.20727 33.2637 4.19869L34.8774 4.02133C35.0332 4.00417 35.1574 3.88116 35.1689 3.72669L35.3537 1.6871C35.3594 1.62989 35.4056 1.58984 35.4634 1.58984C35.5211 1.58984 35.5673 1.63275 35.5731 1.6871L35.7578 3.72669C35.7722 3.88116 35.8964 4.00703 36.0494 4.02133L37.6631 4.19869C37.7179 4.20441 37.7612 4.25018 37.7612 4.30739C37.7612 4.3646 37.7208 4.40751 37.6631 4.41609L36.0494 4.59345C35.8935 4.61061 35.7694 4.73362 35.7578 4.88809L35.5731 6.92768C35.5673 6.98489 35.5182 7.02493 35.4634 7.02493ZM34.2683 4.30739L34.9005 4.37604C35.1574 4.40465 35.3623 4.61061 35.3854 4.86806L35.4634 5.71193L35.5413 4.86806C35.5644 4.61061 35.7694 4.40465 36.0263 4.37604L36.6585 4.30739L36.0263 4.23874C35.7694 4.21013 35.5644 4.00417 35.5413 3.74672L35.4634 2.90285L35.3854 3.74672C35.3623 4.00417 35.1574 4.21013 34.9005 4.23874L34.2683 4.30739Z" fill="#000000"/>
</g>
<path d="M66.3574 12.0909C66.3169 12.0909 66.2852 12.0594 66.2794 12.0222L66.086 9.90541C66.0687 9.72805 65.9301 9.58502 65.7511 9.565L64.0768 9.38192C64.0393 9.37906 64.0076 9.34473 64.0076 9.30469C64.0076 9.26464 64.0364 9.23317 64.0768 9.22745L65.7511 9.04437C65.9301 9.02435 66.0716 8.88132 66.086 8.70396L66.2794 6.58428C66.2823 6.54423 66.3169 6.51562 66.3574 6.51562C66.3978 6.51562 66.4295 6.54709 66.4353 6.58428L66.6287 8.70396C66.646 8.88132 66.7875 9.02435 66.9636 9.04437L68.6379 9.22745C68.6783 9.23031 68.7072 9.26464 68.7072 9.30469C68.7072 9.34473 68.6783 9.3762 68.6379 9.38192L66.9636 9.565C66.7846 9.58502 66.6432 9.72805 66.6287 9.90541L66.4353 12.0222C66.4295 12.0594 66.3978 12.0909 66.3574 12.0909ZM64.787 9.30182L65.7685 9.41053C66.0196 9.43913 66.2188 9.63937 66.2419 9.88824L66.3574 11.1612L66.4728 9.88824C66.4959 9.63937 66.6951 9.43913 66.9463 9.41053L67.9277 9.30182L66.9463 9.19312C66.6951 9.16452 66.4959 8.96428 66.4728 8.71541L66.3574 7.44245L66.2419 8.71541C66.2188 8.96428 66.0196 9.16452 65.7685 9.19312L64.787 9.30182Z" fill="#000000"/>
<g opacity="0.5">
<path opacity="0.5" d="M71.6343 8.8646C71.5823 8.8646 71.5361 8.82455 71.5303 8.77306L71.2734 5.94967C71.2532 5.71224 71.0627 5.52345 70.826 5.4977L68.5916 5.25455C68.5397 5.24883 68.4993 5.20592 68.4993 5.15443C68.4993 5.10294 68.5397 5.06003 68.5916 5.05431L70.826 4.8083C71.0627 4.78256 71.2532 4.5909 71.2734 4.35633L71.5303 1.53294C71.5361 1.48145 71.5794 1.44141 71.6343 1.44141C71.6862 1.44141 71.7324 1.48145 71.7353 1.53294L71.9922 4.35633C72.0124 4.59376 72.2029 4.78256 72.4397 4.8083L74.674 5.05431C74.7259 5.06003 74.7664 5.10294 74.7664 5.15443C74.7664 5.20592 74.7259 5.24883 74.674 5.25455L72.4397 5.4977C72.2029 5.52345 72.0124 5.7151 71.9922 5.94967L71.7382 8.77306C71.7324 8.82455 71.6891 8.8646 71.6343 8.8646ZM69.5414 5.14871L70.8491 5.29174C71.1839 5.32893 71.4495 5.59782 71.4784 5.92965L71.6343 7.62597L71.7873 5.92965C71.819 5.59782 72.0817 5.32893 72.4166 5.29174L73.7242 5.14871L72.4166 5.00568C72.0817 4.96849 71.8161 4.70246 71.7873 4.36777L71.6343 2.67145L71.4784 4.36777C71.4495 4.6996 71.1839 4.96849 70.8491 5.00568L69.5414 5.14871Z" fill="#000000"/>
</g>
<path d="M58.2486 26.1672C57.9428 26.2689 57.6121 26.1069 57.5098 25.8051L55.3535 19.4436C55.1469 18.8342 54.4764 18.5058 53.8591 18.7113L18.2658 30.5584C17.6482 30.7639 17.314 31.427 17.5205 32.0362L19.6768 38.3977C19.7791 38.6995 19.6141 39.0266 19.3083 39.1283C19.0025 39.2301 18.6718 39.068 18.5695 38.7663L16.4132 32.4048C16.0024 31.193 16.6674 29.8745 17.8954 29.4657L53.4885 17.6186C54.7165 17.2099 56.0499 17.8633 56.4606 19.0751L58.6169 25.4366C58.7194 25.7383 58.5544 26.0654 58.2486 26.1672Z" fill="#121243"/>
<path d="M58.3418 26.4338C57.8839 26.5862 57.3867 26.3426 57.2335 25.8908L55.0772 19.5292C54.9217 19.0705 54.4169 18.8233 53.9522 18.9779L18.3589 30.8251C17.8942 30.9798 17.6424 31.479 17.7978 31.9376L19.9541 38.2991C20.1073 38.7509 19.8593 39.2426 19.4014 39.395C18.9436 39.5474 18.4463 39.3038 18.2932 38.852L16.1369 32.4904C15.6751 31.128 16.4227 29.6456 17.8033 29.1861L53.3964 17.339C54.7772 16.8794 56.2763 17.614 56.7381 18.9764L58.8945 25.3379C59.0476 25.7897 58.7996 26.2814 58.3418 26.4338ZM18.1737 30.2788L53.7668 18.4317C54.5369 18.1753 55.3731 18.5852 55.6306 19.345L57.787 25.7065C57.838 25.8572 58.0038 25.9384 58.1564 25.8876C58.309 25.8368 58.3917 25.6729 58.3406 25.5223L56.1843 19.1607C55.8248 18.0995 54.6572 17.5273 53.5818 17.8853L17.9885 29.7324C16.9131 30.0904 16.3308 31.245 16.6905 32.3061L18.8468 38.6677C18.8979 38.8183 19.0636 38.8995 19.2163 38.8487C19.3689 38.7979 19.4515 38.634 19.4005 38.4834L17.2442 32.1219C16.9866 31.3621 17.4036 30.5351 18.1737 30.2788Z" fill="#518C36"/>
<path d="M31.701 59.7367L30.3682 55.8047L34.3476 54.4801L35.6804 58.4121C35.9338 59.1596 35.525 59.9698 34.7676 60.2219L33.5314 60.6334C32.7737 60.8856 31.9543 60.484 31.701 59.7367Z" fill="#121243"/>
<path d="M34.8627 60.4856L33.6266 60.897C32.7175 61.1996 31.7306 60.7161 31.4265 59.819L30.0936 55.8864C30.0425 55.7357 30.125 55.572 30.2778 55.5211L34.2573 54.1966C34.4101 54.1457 34.5756 54.2268 34.6267 54.3776L35.9597 58.3101C36.2639 59.2072 35.7718 60.183 34.8627 60.4856ZM30.7399 55.9755L31.9803 59.6349C32.1822 60.2306 32.8376 60.5519 33.4414 60.3509L34.6776 59.9395C35.2814 59.7385 35.6083 59.0904 35.4063 58.4945L34.1659 54.8352L30.7399 55.9755Z" fill="#518C36"/>
<path d="M56.9478 51.3343L55.615 47.4023L59.5945 46.0778L60.9273 50.0098C61.1806 50.7572 60.7718 51.5675 60.0144 51.8196L58.7783 52.231C58.0207 52.4832 57.2011 52.0816 56.9478 51.3343Z" fill="#121243"/>
<path d="M60.1049 52.0872L58.8688 52.4986C57.9597 52.8012 56.9728 52.3176 56.6687 51.4205L55.3358 47.488C55.2846 47.3372 55.3672 47.1736 55.52 47.1227L59.4995 45.7981C59.6523 45.7473 59.8178 45.8284 59.8689 45.9792L61.2019 49.9117C61.5061 50.8087 61.014 51.7846 60.1049 52.0872ZM55.9821 47.5771L57.2225 51.2364C57.4244 51.8321 58.0798 52.1534 58.6836 51.9525L59.9198 51.541C60.5234 51.3401 60.8504 50.692 60.6485 50.0961L59.4081 46.4367L55.9821 47.5771Z" fill="#518C36"/>
<path d="M26.9909 53.158L27.8386 55.6589C28.2451 56.858 29.5595 57.5021 30.7746 57.0976L60.0551 47.3517C61.2702 46.9472 61.9257 45.6475 61.5193 44.4484L51.4485 14.7378C51.042 13.5388 49.7276 12.8947 48.5126 13.2991L19.232 23.0451C18.0169 23.4495 17.3614 24.7493 17.7679 25.9483L26.1766 50.7556L26.9909 53.158Z" fill="#000000"/>
<path d="M60.1485 47.6184L30.8679 57.3643C29.5022 57.8189 28.0194 57.0924 27.5626 55.7446L26.7149 53.2437C26.6638 53.0929 26.7463 52.9292 26.8991 52.8784C27.0519 52.8275 27.2174 52.9086 27.2685 53.0594L28.1162 55.5603C28.4709 56.6067 29.6223 57.1709 30.6827 56.818L59.9633 47.072C61.0237 46.7191 61.5979 45.5805 61.2432 44.5341L51.1725 14.8236C50.8177 13.777 49.6664 13.2128 48.6059 13.5658L19.3254 23.3118C18.2649 23.6647 17.6908 24.8033 18.0455 25.8499L26.4543 50.6572C26.5054 50.8079 26.4228 50.9716 26.27 51.0225C26.1172 51.0733 25.9517 50.9922 25.9006 50.8414L17.4919 26.0341C17.0351 24.6865 17.7743 23.2201 19.1402 22.7654L48.4207 13.0195C49.7864 12.5649 51.2693 13.2915 51.7261 14.6394L61.7969 44.35C62.2537 45.6976 61.5143 47.1637 60.1485 47.6184Z" fill="#518C36"/>
<path d="M27.2032 17.3442L22.4803 18.9162C21.2652 19.3206 20.6096 20.6201 21.0159 21.8188L21.2067 22.3817L46.5364 13.9508L46.3456 13.3879C45.9393 12.1892 44.625 11.5454 43.4099 11.9498L29.5518 16.5624L27.2032 17.3442Z" fill="#518C36"/>
<path d="M46.6297 14.229L21.3001 22.66C21.1472 22.7108 20.9818 22.6298 20.9307 22.479L20.7399 21.9161C20.2832 20.5688 21.0226 19.1029 22.3885 18.6482L27.1113 17.0762C27.2641 17.0254 27.4296 17.1065 27.4807 17.2572C27.5318 17.4079 27.4493 17.5716 27.2965 17.6224L22.5736 19.1944C21.5132 19.5474 20.9389 20.6857 21.2935 21.7318L21.3917 22.0216L46.1678 13.775L46.0695 13.4852C45.7149 12.439 44.5636 11.8751 43.5032 12.2281L29.6449 16.8408C29.4921 16.8916 29.3266 16.8106 29.2755 16.6598C29.2244 16.5091 29.3069 16.3454 29.4598 16.2946L43.3181 11.6819C44.6838 11.2273 46.1665 11.9536 46.6232 13.3009L46.814 13.8638C46.8651 14.0146 46.7825 14.1782 46.6297 14.229Z" fill="#518C36"/>
<path d="M20.1794 33.0586L53.8601 21.8481L59.3536 38.0551L25.673 49.2656L20.1794 33.0586Z" fill="#F0F3EE"/>
<path d="M59.4468 38.3257L25.7661 49.5362C25.6133 49.5871 25.4478 49.506 25.3967 49.3552L19.9031 33.1482C19.852 32.9974 19.9346 32.8337 20.0874 32.7829L53.768 21.5723C53.9208 21.5215 54.0863 21.6026 54.1374 21.7534L59.631 37.9604C59.6821 38.1112 59.5996 38.2749 59.4468 38.3257ZM25.8578 48.8978L58.9847 37.8715L53.6763 22.2108L20.5494 33.2371L25.8578 48.8978Z" fill="#518C36"/>
<path d="M38.4165 48.53L39.1117 50.5811C39.1817 50.7876 39.408 50.8984 39.6173 50.8288L49.1701 47.6492C49.3793 47.5795 49.4922 47.3557 49.4222 47.1493L48.727 45.0982C48.657 44.8917 48.4307 44.7809 48.2214 44.8505L38.6687 48.0301C38.4594 48.0998 38.3465 48.3236 38.4165 48.53Z" fill="#518C36"/>
<path d="M49.2649 47.9277L39.7121 51.1073C39.3504 51.2277 38.9579 51.0354 38.8369 50.6786L38.1417 48.6275C38.0207 48.2707 38.2165 47.8826 38.5783 47.7622L48.131 44.5825C48.4927 44.4622 48.8853 44.6544 49.0062 45.0113L49.7015 47.0624C49.8224 47.4192 49.6266 47.8073 49.2649 47.9277ZM38.7635 48.3085C38.707 48.3273 38.6765 48.3877 38.6954 48.4434L39.3906 50.4945C39.4095 50.5502 39.4706 50.5801 39.5271 50.5613L49.0798 47.3817C49.1363 47.3629 49.1668 47.3025 49.1479 47.2468L48.4526 45.1957C48.4337 45.14 48.3727 45.1101 48.3162 45.1289L38.7635 48.3085Z" fill="#518C36"/>
<path d="M33.7968 51.3182C34.2228 52.5749 33.5353 53.9377 32.2613 54.3618C30.9872 54.7859 29.6091 54.1108 29.183 52.8539C28.757 51.5969 29.4444 50.2344 30.7185 49.8103C31.9925 49.3862 33.3707 50.0612 33.7968 51.3182Z" fill="#518C36"/>
<path d="M32.3514 54.633C30.9267 55.1072 29.3801 54.3495 28.9036 52.9437C28.4272 51.538 29.1985 50.0088 30.6233 49.5345C32.048 49.0603 33.5946 49.8181 34.0711 51.2238C34.5476 52.6295 33.7762 54.1588 32.3514 54.633ZM30.8084 50.0808C29.6891 50.4534 29.083 51.6551 29.4573 52.7595C29.8316 53.8638 31.047 54.4593 32.1663 54.0867C33.2856 53.7142 33.8918 52.5124 33.5174 51.4081C33.1431 50.3037 31.9279 49.7082 30.8084 50.0808Z" fill="#518C36"/>
<path d="M58.7482 43.0135C59.1742 44.2703 58.4869 45.633 57.2127 46.0571C55.9386 46.4812 54.5605 45.8061 54.1344 44.5492C53.7084 43.2922 54.3958 41.9297 55.6699 41.5056C56.9441 41.0815 58.3222 41.7566 58.7482 43.0135Z" fill="#518C36"/>
<path d="M57.3031 46.3439C55.8784 46.8181 54.3318 46.0604 53.8553 44.6547C53.3788 43.249 54.1502 41.7197 55.5749 41.2455C56.9997 40.7713 58.5463 41.529 59.0227 42.9347C59.4992 44.3404 58.7277 45.8698 57.3031 46.3439ZM55.7601 41.7917C54.6408 42.1643 54.0346 43.366 54.409 44.4704C54.7833 45.5748 55.9986 46.1702 57.1179 45.7977C58.2372 45.4251 58.8434 44.2234 58.4691 43.119C58.0947 42.0146 56.8794 41.4192 55.7601 41.7917Z" fill="#518C36"/>
<path d="M47.0254 17.0477L22.7079 25.1418C21.7504 25.4604 21.2339 26.4843 21.554 27.4288C21.8742 28.3734 22.9097 28.8806 23.8672 28.5619L48.1848 20.4679C49.1422 20.1492 49.6588 19.1253 49.3386 18.1808C49.0184 17.2363 47.9829 16.729 47.0254 17.0477Z" fill="#518C36"/>
<path d="M48.2783 20.7385L23.9607 28.8325C22.8521 29.2015 21.6486 28.612 21.278 27.5185C20.9073 26.4249 21.5076 25.235 22.6162 24.866L46.9338 16.7719C48.0424 16.4029 49.2459 16.9925 49.6166 18.0861C49.987 19.1796 49.3869 20.3695 48.2783 20.7385ZM22.8014 25.4123C21.9981 25.6797 21.5631 26.5419 21.8317 27.3344C22.1002 28.1266 22.9723 28.5539 23.7756 28.2865L48.0932 20.1925C48.8966 19.9251 49.3316 19.0629 49.063 18.2705C48.7944 17.478 47.9224 17.0509 47.119 17.3183L22.8014 25.4123Z" fill="#518C36"/>
<path d="M42.6067 43.9386C42.4539 43.9894 42.2884 43.9083 42.2373 43.7576L36.7437 27.5505C36.6926 27.3997 36.7751 27.2361 36.928 27.1852C37.0808 27.1343 37.2463 27.2154 37.2974 27.3662L42.791 43.5733C42.8421 43.7241 42.7595 43.8877 42.6067 43.9386Z" fill="#518C36"/>
<path d="M21.8345 42.949C20.6115 43.3561 19.2882 42.7077 18.8791 41.5008L17.2124 36.5838C16.8034 35.3769 17.4633 34.0684 18.6863 33.6613L21.8345 42.949Z" fill="#121243"/>
<path d="M21.9291 43.2157C20.5553 43.673 19.0638 42.9421 18.6043 41.5865L16.9376 36.6694C16.4781 35.3138 17.2219 33.8389 18.5957 33.3817C18.7485 33.3308 18.914 33.4119 18.9651 33.5627L22.1133 42.8504C22.1644 43.0012 22.0819 43.1648 21.9291 43.2157ZM18.5106 34.0394C17.6178 34.4846 17.1653 35.5234 17.4912 36.4852L19.1579 41.4022C19.4839 42.3637 20.4775 42.9213 21.4605 42.7422L18.5106 34.0394Z" fill="#518C36"/>
<path d="M58.562 30.7135L55.4138 21.4258C56.6368 21.0187 57.9601 21.6671 58.3692 22.874L60.0359 27.791C60.4449 28.9979 59.785 30.3064 58.562 30.7135Z" fill="#121243"/>
<path d="M58.6551 30.9841C58.5023 31.035 58.3368 30.9539 58.2857 30.8031L55.1375 21.5154C55.0864 21.3646 55.1689 21.2009 55.3217 21.15C56.6955 20.6928 58.187 21.4236 58.6465 22.7793L60.3132 27.6963C60.7727 29.0519 60.0289 30.5268 58.6551 30.9841ZM55.7903 21.6235L58.7402 30.3261C59.633 29.881 60.0855 28.8421 59.7595 27.8804L58.0928 22.9634C57.767 22.002 56.7733 21.4445 55.7903 21.6235Z" fill="#518C36"/>
<path d="M48.6049 13.5708L45.8367 14.4922C46.8978 14.139 48.0486 14.7044 48.4029 15.7497L48.8529 17.0773C49.199 17.3228 49.4726 17.6756 49.6177 18.1036C49.7627 18.5315 49.7595 18.9764 49.6332 19.3792L50.7221 22.5917L53.4903 21.6703L51.1712 14.8283C50.8169 13.783 49.6661 13.2176 48.6049 13.5708Z" fill="#000000"/>
<path d="M56.4032 39.3365L57.0187 41.1521C57.926 41.3446 58.71 41.9916 59.0255 42.9222C59.3415 43.8546 59.1087 44.84 58.5027 45.5362C58.8003 46.5598 58.2298 47.6455 57.1963 47.9895L59.9646 47.0681C61.0257 46.7149 61.5993 45.5775 61.2444 44.5304L59.1715 38.4151L56.4032 39.3365Z" fill="#000000"/>
<path d="M50.9077 23.1367L53.676 22.2153L58.9847 37.8769L56.2164 38.7983L50.9077 23.1367Z" fill="#000000"/>
</svg>
