<svg width="600" height="230" viewBox="0 0 600 230" fill="none" xmlns="http://www.w3.org/2000/svg">
<path d="M0 10C0 4.47715 4.47715 0 10 0H590C595.523 0 600 4.47715 600 10V230H0V10Z" fill="#F0F3EE"/>
<path d="M342.697 67.882C340.268 67.0154 337.84 66.1489 335.392 65.2823C332.983 57.9453 343.713 55.3263 341.304 47.9893C343.732 48.8558 346.161 49.7224 348.608 50.589C351.018 57.926 340.287 60.5643 342.697 67.882Z" fill="#E4AD50"/>
<path d="M222.27 88.2893C220.651 89.8491 219.032 91.4282 217.413 92.9881C210.956 91.9674 213.234 82.4929 206.777 81.4722C208.396 79.9124 210.015 78.3333 211.634 76.7734C218.109 77.7941 215.813 87.2687 222.27 88.2893Z" fill="#E4AD50"/>
<path opacity="0.7" d="M222.27 88.2893C220.651 89.8491 219.032 91.4282 217.413 92.9881C210.956 91.9674 213.234 82.4929 206.777 81.4722C208.396 79.9124 210.015 78.3333 211.634 76.7734C218.109 77.7941 215.813 87.2687 222.27 88.2893Z" fill="white"/>
<path d="M387.594 114.41C386.257 112.581 384.921 110.751 383.584 108.941C385.316 102.49 394.258 105.898 395.99 99.4473C397.327 101.277 398.663 103.106 400 104.916C398.268 111.368 389.326 107.959 387.594 114.41Z" fill="#E4AD50"/>
<path opacity="0.5" d="M387.594 114.41C386.257 112.581 384.921 110.751 383.584 108.941C385.316 102.49 394.258 105.898 395.99 99.4473C397.327 101.277 398.663 103.106 400 104.916C398.268 111.368 389.326 107.959 387.594 114.41Z" fill="white"/>
<path d="M270.05 54.4018C268.544 54.7677 267.037 55.1528 265.513 55.5187C261.955 52.6109 266.548 47.681 262.971 44.7732C264.477 44.4073 265.983 44.0221 267.508 43.6562C271.066 46.5834 266.473 51.494 270.05 54.4018Z" fill="#E4AD50"/>
<path d="M210.279 148.052C210.749 149.573 211.239 151.075 211.709 152.596C209.149 156.448 203.991 152.134 201.431 156.005C200.96 154.484 200.471 152.982 200 151.46C202.56 147.609 207.7 151.922 210.279 148.052Z" fill="#E4AD50"/>
<path d="M342.724 117.995C342.037 118.094 341.402 117.607 341.306 116.907L339.278 102.152C339.084 100.739 337.797 99.7511 336.41 99.9505L256.438 111.448C255.051 111.647 254.08 112.96 254.274 114.373L256.301 129.127C256.398 129.827 255.919 130.475 255.231 130.573C254.544 130.672 253.91 130.185 253.813 129.485L251.786 114.73C251.4 111.92 253.331 109.31 256.09 108.913L336.062 97.4162C338.821 97.0196 341.38 98.9837 341.766 101.794L343.793 116.549C343.89 117.249 343.411 117.896 342.724 117.995Z" fill="#121243"/>
<path d="M342.814 118.621C341.785 118.769 340.831 118.037 340.687 116.989L338.659 102.234C338.513 101.17 337.544 100.426 336.5 100.577L256.528 112.074C255.484 112.224 254.753 113.212 254.899 114.276L256.926 129.03C257.07 130.078 256.35 131.052 255.321 131.199C254.293 131.347 253.338 130.615 253.194 129.567L251.167 114.812C250.733 111.652 252.904 108.718 256.006 108.272L335.977 96.7751C339.08 96.329 341.957 98.5373 342.391 101.697L344.418 116.452C344.562 117.5 343.842 118.473 342.814 118.621V118.621ZM256.354 110.807L336.326 99.3094C338.056 99.0606 339.661 100.293 339.903 102.055L341.93 116.81C341.978 117.159 342.296 117.403 342.639 117.354C342.982 117.305 343.222 116.98 343.174 116.631L341.147 101.876C340.809 99.4147 338.568 97.6948 336.152 98.0422L256.18 109.539C253.764 109.887 252.073 112.172 252.411 114.633L254.438 129.388C254.486 129.737 254.804 129.982 255.147 129.932C255.49 129.883 255.73 129.559 255.682 129.209L253.655 114.454C253.413 112.692 254.624 111.055 256.354 110.807Z" fill="#3A312A"/>
<path d="M273.229 180.571L271.976 171.451L280.917 170.166L282.17 179.286C282.408 181.019 281.221 182.623 279.52 182.867L276.742 183.267C275.04 183.511 273.467 182.304 273.229 180.571Z" fill="#121243"/>
<path d="M279.615 183.481L276.838 183.88C274.795 184.174 272.901 182.72 272.616 180.639L271.362 171.518C271.314 171.169 271.554 170.845 271.897 170.795L280.839 169.51C281.182 169.461 281.5 169.704 281.548 170.054L282.801 179.175C283.087 181.256 281.658 183.187 279.615 183.481ZM272.694 171.974L273.86 180.461C274.049 181.843 275.307 182.808 276.664 182.613L279.441 182.214C280.798 182.019 281.747 180.736 281.557 179.354L280.391 170.867L272.694 171.974Z" fill="#3A312A"/>
<path d="M329.954 172.407L328.701 163.287L337.642 162.002L338.895 171.122C339.133 172.855 337.946 174.459 336.245 174.703L333.467 175.103C331.765 175.347 330.192 174.14 329.954 172.407Z" fill="#121243"/>
<path d="M336.33 175.331L333.552 175.731C331.51 176.024 329.616 174.571 329.33 172.49L328.077 163.369C328.029 163.019 328.268 162.695 328.612 162.646L337.553 161.36C337.896 161.311 338.214 161.555 338.262 161.905L339.515 171.026C339.801 173.106 338.372 175.038 336.33 175.331ZM329.408 163.824L330.574 172.312C330.764 173.693 332.022 174.659 333.378 174.464L336.156 174.065C337.512 173.87 338.461 172.587 338.272 171.205L337.106 162.717L329.408 163.824Z" fill="#3A312A"/>
<path d="M265.891 164.297L266.688 170.097C267.07 172.878 269.592 174.815 272.323 174.422L338.111 164.964C340.841 164.572 342.744 161.999 342.362 159.218L332.895 90.3073C332.513 87.5263 329.99 85.5901 327.26 85.9826L261.471 95.4407C258.741 95.8332 256.838 98.4057 257.22 101.187L265.125 158.725L265.891 164.297Z" fill="#7EC65C"/>
<path d="M338.201 165.59L272.413 175.048C269.344 175.489 266.498 173.305 266.069 170.179L265.272 164.379C265.224 164.029 265.463 163.705 265.807 163.656C266.15 163.606 266.468 163.85 266.516 164.2L267.313 170C267.646 172.427 269.856 174.123 272.238 173.781L338.027 164.323C340.409 163.98 342.077 161.727 341.743 159.3L332.276 90.3895C331.942 87.9621 329.732 86.2661 327.35 86.6086L261.561 96.0667C259.179 96.4092 257.512 98.6626 257.845 101.09L265.75 158.628C265.798 158.978 265.559 159.302 265.215 159.351C264.872 159.4 264.554 159.157 264.506 158.807L256.601 101.269C256.172 98.1432 258.318 95.2407 261.387 94.7995L327.176 85.3415C330.244 84.9003 333.09 87.0846 333.52 90.2107L342.987 159.121C343.417 162.247 341.27 165.149 338.201 165.59Z" fill="#3A312A"/>
<path d="M280.59 86.2238L269.979 87.7493C267.249 88.1418 265.346 90.7136 265.727 93.4938L265.907 94.7995L322.818 86.6176L322.639 85.3119C322.257 82.5317 319.734 80.5962 317.004 80.9887L285.867 85.4651L280.59 86.2238Z" fill="#F0F3EE"/>
<path d="M322.905 87.2588L265.994 95.4407C265.65 95.4901 265.333 95.2464 265.285 94.8968L265.105 93.5911C264.676 90.4663 266.823 87.565 269.892 87.1238L280.503 85.5982C280.847 85.5488 281.164 85.7925 281.212 86.1422C281.26 86.4918 281.021 86.8156 280.677 86.865L270.066 88.3906C267.683 88.7331 266.016 90.9859 266.349 93.4123L266.442 94.0845L322.109 86.0815L322.017 85.4092C321.683 82.9828 319.474 81.2874 317.091 81.63L285.954 86.1064C285.61 86.1558 285.293 85.9121 285.245 85.5624C285.197 85.2128 285.436 84.889 285.78 84.8396L316.917 80.3632C319.985 79.922 322.831 82.1056 323.261 85.2304L323.44 86.536C323.488 86.8857 323.248 87.2095 322.905 87.2588Z" fill="#3A312A"/>
<path d="M259.487 117.689L335.161 106.81L340.326 144.401L264.651 155.28L259.487 117.689Z" fill="#F0F3EE"/>
<path d="M340.416 145.019L264.741 155.898C264.398 155.948 264.08 155.704 264.032 155.354L258.868 117.763C258.82 117.414 259.059 117.09 259.403 117.04L335.077 106.161C335.421 106.112 335.738 106.356 335.786 106.705L340.951 144.296C340.999 144.646 340.759 144.969 340.416 145.019ZM265.189 154.542L339.62 143.841L334.629 107.518L260.199 118.218L265.189 154.542Z" fill="#3A312A"/>
<path d="M291.885 158.814L292.539 163.571C292.604 164.05 293.039 164.384 293.509 164.316L314.972 161.23C315.443 161.163 315.77 160.72 315.705 160.241L315.051 155.484C314.985 155.005 314.551 154.672 314.081 154.739L292.617 157.825C292.147 157.892 291.819 158.335 291.885 158.814V158.814Z" fill="#F0F3EE"/>
<path d="M315.063 161.886L293.6 164.972C292.787 165.089 292.034 164.51 291.92 163.683L291.266 158.926C291.153 158.098 291.721 157.33 292.534 157.213L313.997 154.127C314.81 154.01 315.563 154.588 315.677 155.416L316.331 160.173C316.444 161.001 315.876 161.769 315.063 161.886ZM292.708 158.48C292.581 158.498 292.493 158.618 292.51 158.747L293.164 163.504C293.182 163.634 293.299 163.724 293.426 163.705L314.889 160.62C315.016 160.601 315.104 160.482 315.087 160.353L314.433 155.595C314.415 155.466 314.298 155.376 314.171 155.394L292.708 158.48Z" fill="#3A312A"/>
<path d="M281.009 163.04C281.41 165.955 279.413 168.652 276.551 169.064C273.688 169.475 271.043 167.446 270.643 164.53C270.242 161.615 272.238 158.918 275.101 158.507C277.963 158.095 280.609 160.125 281.009 163.04Z" fill="#F0F3EE"/>
<path d="M276.635 169.684C273.434 170.144 270.465 167.866 270.017 164.606C269.569 161.346 271.809 158.319 275.01 157.859C278.211 157.399 281.18 159.676 281.627 162.937C282.075 166.197 279.836 169.224 276.635 169.684V169.684ZM275.184 159.126C272.669 159.487 270.909 161.866 271.261 164.427C271.613 166.989 273.946 168.779 276.461 168.417C278.975 168.056 280.735 165.677 280.384 163.116C280.032 160.554 277.699 158.764 275.184 159.126V159.126Z" fill="#3A312A"/>
<path d="M337.07 154.977C337.471 157.891 335.475 160.588 332.612 161C329.75 161.412 327.104 159.382 326.704 156.467C326.303 153.551 328.299 150.855 331.162 150.443C334.025 150.032 336.67 152.061 337.07 154.977Z" fill="#F0F3EE"/>
<path d="M332.689 161.665C329.487 162.125 326.519 159.847 326.071 156.586C325.623 153.326 327.863 150.299 331.064 149.839C334.265 149.379 337.234 151.657 337.681 154.917C338.129 158.178 335.889 161.204 332.689 161.665ZM331.238 151.106C328.723 151.468 326.963 153.846 327.315 156.408C327.667 158.969 330 160.759 332.515 160.398C335.029 160.036 336.789 157.658 336.437 155.096C336.086 152.535 333.753 150.745 331.238 151.106Z" fill="#3A312A"/>
<path d="M322.622 93.5714L267.985 101.426C265.834 101.736 264.334 103.762 264.635 105.953C264.936 108.143 266.924 109.668 269.075 109.359L323.712 101.504C325.863 101.195 327.363 99.1686 327.062 96.9778C326.761 94.7871 324.774 93.2621 322.622 93.5714Z" fill="#F0F3EE"/>
<path d="M323.803 102.129L269.165 109.984C266.674 110.342 264.364 108.57 264.016 106.034C263.668 103.497 265.41 101.142 267.901 100.784L322.539 92.9292C325.03 92.5711 327.339 94.3434 327.688 96.88C328.036 99.4162 326.293 101.771 323.803 102.129ZM268.075 102.051C266.27 102.311 265.008 104.017 265.26 105.855C265.512 107.693 267.186 108.977 268.991 108.718L323.629 100.863C325.434 100.603 326.697 98.8969 326.444 97.0592C326.192 95.2211 324.518 93.9369 322.713 94.1964L268.075 102.051Z" fill="#3A312A"/>
<path d="M302.577 150.473C302.233 150.523 301.916 150.279 301.868 149.929L296.703 112.339C296.655 111.989 296.895 111.665 297.238 111.616C297.582 111.566 297.899 111.81 297.947 112.16L303.112 149.75C303.16 150.1 302.92 150.424 302.577 150.473Z" fill="#3A312A"/>
<path d="M259.051 139.935C256.303 140.33 253.764 138.381 253.379 135.582L251.812 124.177C251.428 121.378 253.344 118.788 256.092 118.393L259.051 139.935Z" fill="#121243"/>
<path d="M259.145 140.561C256.058 141.005 253.196 138.808 252.764 135.663L251.197 124.259C250.765 121.115 252.924 118.196 256.011 117.752C256.355 117.703 256.672 117.946 256.72 118.296L259.68 139.838C259.728 140.188 259.488 140.512 259.145 140.561ZM255.569 119.153C253.505 119.765 252.134 121.849 252.441 124.08L254.008 135.485C254.314 137.715 256.193 139.333 258.343 139.338L255.569 119.153Z" fill="#3A312A"/>
<path d="M341.573 128.057L338.613 106.516C341.361 106.121 343.901 108.07 344.286 110.869L345.852 122.273C346.237 125.073 344.321 127.662 341.573 128.057Z" fill="#121243"/>
<path d="M341.665 128.683C341.322 128.732 341.004 128.488 340.956 128.138L337.996 106.596C337.948 106.247 338.188 105.923 338.531 105.873C341.618 105.43 344.48 107.627 344.912 110.771L346.479 122.175C346.911 125.32 344.752 128.239 341.665 128.683ZM339.333 107.096L342.107 127.281C344.171 126.669 345.542 124.585 345.235 122.354L343.668 110.949C343.362 108.72 341.483 107.102 339.333 107.096Z" fill="#3A312A"/>
<path d="M327.347 86.6205L321.127 87.5146C323.511 87.1719 325.719 88.8703 326.052 91.2948L326.475 94.374C327.109 95.0496 327.547 95.9299 327.684 96.9225C327.82 97.9151 327.636 98.8848 327.209 99.713L328.232 107.164L334.452 106.27L332.272 90.4006C331.939 87.9761 329.731 86.2777 327.347 86.6205Z" fill="#000000"/>
<path d="M333.577 146.002L334.155 150.213C335.997 150.999 337.397 152.728 337.694 154.886C337.991 157.049 337.107 159.106 335.548 160.381C335.77 162.735 334.132 164.874 331.809 165.208L338.029 164.314C340.414 163.971 342.079 161.72 341.745 159.292L339.797 145.108L333.577 146.002Z" fill="#000000"/>
<path d="M328.406 108.429L334.626 107.535L339.617 143.86L333.397 144.754L328.406 108.429Z" fill="#000000"/>
</svg>
