<svg width="80" height="70" viewBox="0 0 80 70" fill="none" xmlns="http://www.w3.org/2000/svg">
<path d="M7.04964 63.4329C6.99191 63.4329 6.94283 63.3872 6.93706 63.33L6.65127 60.2005C6.62818 59.9402 6.42034 59.7285 6.15476 59.6999L3.67794 59.4281C3.62021 59.4224 3.5769 59.3738 3.5769 59.3166C3.5769 59.2594 3.62021 59.2107 3.67794 59.205L6.15476 58.9333C6.41745 58.9046 6.62818 58.693 6.65127 58.4326L6.93706 55.3032C6.94283 55.246 6.99191 55.2002 7.04964 55.2002C7.11026 55.2002 7.15934 55.246 7.16222 55.3032L7.44801 58.4326C7.47111 58.6958 7.68184 58.9046 7.94453 58.9333L10.4185 59.205C10.4762 59.2107 10.5195 59.2594 10.5195 59.3166C10.5195 59.3738 10.4762 59.4224 10.4185 59.4281L7.94453 59.6999C7.68184 59.7285 7.47111 59.9402 7.44801 60.2005L7.16222 63.33C7.15645 63.3872 7.10738 63.4329 7.04964 63.4329ZM4.72871 59.3137L6.17785 59.471C6.55024 59.5111 6.8418 59.8086 6.87644 60.1776L7.04676 62.057L7.21707 60.1776C7.25171 59.8086 7.54327 59.5111 7.91566 59.471L9.3648 59.3137L7.91566 59.1535C7.54327 59.1135 7.25171 58.816 7.21707 58.4469L7.04676 56.5676L6.87644 58.4469C6.8418 58.816 6.55024 59.1135 6.17785 59.1535L4.72871 59.3137Z" fill="#000000"/>
<g opacity="0.5">
<path opacity="0.5" d="M10.5197 69.9995C10.462 69.9995 10.41 69.9537 10.4071 69.8965L10.2137 67.7653C10.1993 67.6052 10.0694 67.4736 9.90774 67.4564L8.22188 67.2705C8.16415 67.2648 8.12085 67.2161 8.12085 67.1589C8.12085 67.1017 8.16415 67.0531 8.22188 67.0473L9.90774 66.8614C10.0694 66.8442 10.1993 66.7127 10.2137 66.5525L10.4071 64.4213C10.4129 64.3641 10.462 64.3184 10.5197 64.3184C10.5775 64.3184 10.6294 64.3641 10.6323 64.4213L10.8257 66.5525C10.8402 66.7127 10.9701 66.8442 11.1317 66.8614L12.8176 67.0473C12.8753 67.0531 12.9186 67.1017 12.9186 67.1589C12.9186 67.2161 12.8753 67.2648 12.8176 67.2705L11.1317 67.4564C10.9701 67.4736 10.8402 67.6052 10.8257 67.7653L10.6323 69.8965C10.6294 69.9537 10.5803 69.9995 10.5197 69.9995ZM9.27266 67.1589L9.93372 67.2304C10.2022 67.259 10.4158 67.4764 10.4418 67.7425L10.5226 68.6235L10.6034 67.7425C10.6265 67.4736 10.8402 67.259 11.1115 67.2304L11.7726 67.1589L11.1115 67.0874C10.843 67.0588 10.6294 66.8414 10.6034 66.5753L10.5226 65.6943L10.4418 66.5753C10.4187 66.8442 10.2051 67.0588 9.93372 67.0874L9.27266 67.1589Z" fill="#000000"/>
</g>
<path d="M4.45118 33.5561C4.40788 33.5561 4.37324 33.5247 4.37035 33.4818L4.16828 31.2477C4.15096 31.0617 4.00374 30.9101 3.81321 30.8901L2.04653 30.6956C2.00612 30.6899 1.97437 30.6555 1.97437 30.6155C1.97437 30.5754 2.00612 30.5411 2.04653 30.5354L3.81321 30.3409C4.00085 30.3208 4.15096 30.1692 4.16828 29.9833L4.37035 27.7492C4.37324 27.7063 4.41077 27.6748 4.45118 27.6748C4.49448 27.6748 4.52912 27.7063 4.53201 27.7492L4.73408 29.9833C4.7514 30.1692 4.90151 30.3208 5.08915 30.3409L6.85583 30.5354C6.89624 30.5411 6.928 30.5754 6.928 30.6155C6.928 30.6555 6.89624 30.6899 6.85583 30.6956L5.08915 30.8901C4.90151 30.9101 4.7514 31.0617 4.73408 31.2477L4.53201 33.4818C4.52912 33.5247 4.4916 33.5561 4.45118 33.5561ZM2.79708 30.6183L3.83053 30.7328C4.09611 30.7614 4.30396 30.9731 4.32994 31.2362L4.45118 32.5778L4.57242 31.2362C4.59552 30.9731 4.80625 30.7614 5.07183 30.7328L6.10528 30.6183L5.07183 30.5039C4.80625 30.4753 4.5984 30.2636 4.57242 30.0005L4.45118 28.6588L4.32994 30.0005C4.30684 30.2636 4.09611 30.4753 3.83053 30.5039L2.79708 30.6183Z" fill="#000000"/>
<g opacity="0.5">
<path opacity="0.5" d="M1.39718 36.9258C1.36254 36.9258 1.33367 36.9001 1.33078 36.8658L1.2182 35.6243C1.20954 35.5299 1.13449 35.4555 1.03922 35.4441L0.0577349 35.3353C0.0230941 35.3325 0 35.3039 0 35.2696C0 35.2352 0.0259808 35.2066 0.0577349 35.2038L1.03922 35.0951C1.13449 35.0836 1.20954 35.0092 1.2182 34.9148L1.33078 33.6734C1.33367 33.639 1.36254 33.6133 1.39718 33.6133C1.43182 33.6133 1.46069 33.639 1.46357 33.6734L1.57616 34.9148C1.58482 35.0092 1.65987 35.0836 1.75513 35.0951L2.73662 35.2038C2.77126 35.2066 2.79436 35.2352 2.79436 35.2696C2.79436 35.3039 2.76838 35.3325 2.73662 35.3353L1.75513 35.4441C1.65987 35.4555 1.58482 35.5299 1.57616 35.6243L1.46357 36.8658C1.46069 36.9001 1.43182 36.9258 1.39718 36.9258ZM0.669722 35.2696L1.05366 35.3125C1.20954 35.3296 1.33656 35.4555 1.35099 35.6128L1.39718 36.1277L1.44337 35.6128C1.4578 35.4555 1.58193 35.3296 1.7407 35.3125L2.12463 35.2696L1.7407 35.2266C1.58482 35.2095 1.4578 35.0836 1.44337 34.9263L1.39718 34.4114L1.35099 34.9263C1.33656 35.0836 1.21243 35.2095 1.05366 35.2266L0.669722 35.2696Z" fill="#000000"/>
</g>
<path d="M67.8845 65.0745C67.8384 65.0745 67.8008 65.0402 67.7951 64.9945L67.5728 62.5429C67.5554 62.337 67.3909 62.1711 67.1831 62.1482L65.2432 61.9365C65.197 61.9308 65.1624 61.8936 65.1624 61.8478C65.1624 61.8021 65.197 61.7649 65.2432 61.7591L67.1831 61.5475C67.3909 61.5246 67.5526 61.3587 67.5728 61.1556L67.7951 58.7012C67.7979 58.6554 67.8384 58.6211 67.8845 58.6211C67.9307 58.6211 67.9683 58.6554 67.974 58.7012L68.1963 61.1556C68.2136 61.3615 68.3782 61.5274 68.586 61.5475L70.5259 61.7591C70.5721 61.7649 70.6067 61.8021 70.6067 61.8478C70.6067 61.8936 70.5721 61.9308 70.5259 61.9365L68.586 62.1482C68.3782 62.1711 68.2165 62.337 68.1963 62.5429L67.974 64.9945C67.9683 65.0402 67.9307 65.0745 67.8845 65.0745ZM66.0659 61.8478L67.2033 61.9708C67.4948 62.0023 67.7229 62.2369 67.7518 62.5258L67.8845 63.999L68.0173 62.5258C68.0433 62.2369 68.2742 62.0052 68.5658 61.9708L69.7032 61.8478L68.5658 61.722C68.2742 61.6905 68.0462 61.4588 68.0173 61.1699L67.8845 59.6967L67.7518 61.1699C67.7258 61.4588 67.4948 61.6905 67.2033 61.722L66.0659 61.8478Z" fill="#000000"/>
<g opacity="0.5">
<path opacity="0.5" d="M74.6219 60.8732C74.5844 60.8732 74.5526 60.8446 74.5497 60.8074L74.4256 59.4429C74.4169 59.3399 74.3332 59.2569 74.2293 59.2455L73.1496 59.1282C73.1121 59.1254 73.0833 59.0939 73.0833 59.0567C73.0833 59.0195 73.1121 58.988 73.1496 58.9852L74.2293 58.8679C74.3332 58.8565 74.4169 58.7735 74.4256 58.6705L74.5497 57.306C74.5526 57.2688 74.5844 57.2402 74.6219 57.2402C74.6594 57.2402 74.6912 57.2688 74.6941 57.306L74.8182 58.6705C74.8268 58.7735 74.9106 58.8565 75.0145 58.8679L76.0941 58.9852C76.1316 58.988 76.1576 59.0195 76.1576 59.0567C76.1576 59.0939 76.1288 59.1254 76.0941 59.1282L75.0145 59.2455C74.9106 59.2569 74.8268 59.3399 74.8182 59.4429L74.6941 60.8074C74.6912 60.8446 74.6594 60.8732 74.6219 60.8732ZM73.8223 59.0538L74.2437 59.0996C74.4169 59.1196 74.5526 59.2569 74.5699 59.4286L74.6219 59.9921L74.6738 59.4286C74.6883 59.2569 74.8268 59.1196 75 59.0996L75.4215 59.0538L75 59.0081C74.8268 58.9881 74.6912 58.8507 74.6738 58.6791L74.6219 58.1156L74.5699 58.6791C74.5555 58.8507 74.4169 58.9881 74.2437 59.0081L73.8223 59.0538Z" fill="#000000"/>
</g>
<g opacity="0.5">
<path opacity="0.5" d="M70.6271 55.2624C70.5665 55.2624 70.5146 55.2166 70.5117 55.1566L70.3125 52.9654C70.2981 52.7994 70.1653 52.665 69.9978 52.6478L68.2658 52.459C68.2052 52.4533 68.1619 52.4018 68.1619 52.3446C68.1619 52.2845 68.2081 52.2359 68.2658 52.2302L69.9978 52.0414C70.1653 52.0242 70.2981 51.8898 70.3125 51.7239L70.5117 49.5355C70.5174 49.4755 70.5665 49.4297 70.6271 49.4297C70.6878 49.4297 70.7397 49.4755 70.7426 49.5355L70.9418 51.7267C70.9562 51.8926 71.089 52.0271 71.2564 52.0442L72.9885 52.233C73.0491 52.2388 73.0924 52.2903 73.0924 52.3475C73.0924 52.4075 73.0462 52.4562 72.9885 52.4619L71.2564 52.6507C71.089 52.6679 70.9562 52.8023 70.9418 52.9682L70.7426 55.1566C70.7397 55.2166 70.6878 55.2624 70.6271 55.2624ZM69.3454 52.3446L70.0238 52.419C70.3009 52.4505 70.5203 52.6707 70.5463 52.9453L70.63 53.8521L70.7109 52.9453C70.7368 52.6707 70.9562 52.4476 71.2334 52.4161L71.9117 52.3418L71.2334 52.2674C70.9562 52.2359 70.7368 52.0156 70.7109 51.741L70.63 50.8342L70.5463 51.741C70.5203 52.0156 70.3009 52.2388 70.0238 52.2702L69.3454 52.3446Z" fill="#000000"/>
</g>
<path d="M76.8102 36.162C76.7553 36.162 76.7121 36.1219 76.7063 36.0676L76.4436 33.1927C76.4205 32.9524 76.23 32.7579 75.9875 32.7322L73.7127 32.4833C73.6608 32.4776 73.6204 32.4318 73.6204 32.3803C73.6204 32.326 73.6608 32.2831 73.7127 32.2773L75.9875 32.0285C76.23 32.0027 76.4205 31.8082 76.4436 31.5679L76.7063 28.693C76.7121 28.6387 76.7553 28.5986 76.8102 28.5986C76.865 28.5986 76.9083 28.6387 76.9141 28.693L77.1768 31.5679C77.1999 31.8082 77.3904 32.0027 77.6329 32.0285L79.9077 32.2773C79.9596 32.2831 80 32.3288 80 32.3803C80 32.4347 79.9596 32.4776 79.9077 32.4833L77.6329 32.7322C77.3904 32.7579 77.197 32.9524 77.1768 33.1927L76.9141 36.0676C76.9083 36.1191 76.865 36.162 76.8102 36.162ZM74.6798 32.3775L76.0106 32.5233C76.3512 32.5605 76.6197 32.8323 76.6514 33.1727L76.8073 34.9005L76.9632 33.1727C76.9949 32.8351 77.2634 32.5605 77.604 32.5233L78.9348 32.3775L77.604 32.2316C77.2634 32.1944 76.9921 31.9226 76.9632 31.5822L76.8073 29.8544L76.6514 31.5822C76.6197 31.9198 76.3512 32.1944 76.0106 32.2316L74.6798 32.3775Z" fill="#000000"/>
<g opacity="0.5">
<path opacity="0.5" d="M72.6793 28.942C72.636 28.942 72.5985 28.9077 72.5927 28.8648L72.4484 27.2657C72.4368 27.1456 72.3415 27.0483 72.2203 27.034L70.9559 26.8967C70.9126 26.891 70.8809 26.8567 70.8809 26.8109C70.8809 26.768 70.9126 26.7308 70.9559 26.7279L72.2203 26.5906C72.3415 26.5763 72.4397 26.4791 72.4484 26.3589L72.5927 24.7599C72.5956 24.7169 72.6331 24.6826 72.6793 24.6826C72.7226 24.6826 72.7601 24.7169 72.7659 24.7599L72.9102 26.3589C72.9218 26.4791 73.017 26.5763 73.1412 26.5906L74.4056 26.7279C74.4489 26.7337 74.4806 26.768 74.4806 26.8109C74.4806 26.8538 74.4489 26.891 74.4056 26.8967L73.1412 27.034C73.0199 27.0483 72.9218 27.1456 72.9102 27.2657L72.7659 28.8648C72.7601 28.9077 72.7226 28.942 72.6793 28.942ZM71.7411 26.8109L72.2376 26.8652C72.4397 26.8881 72.6013 27.0483 72.6187 27.2514L72.6793 27.9122L72.7399 27.2514C72.7572 27.0512 72.9189 26.8881 73.121 26.8652L73.6175 26.8109L73.121 26.7565C72.9189 26.7336 72.7572 26.5735 72.7399 26.3704L72.6793 25.7096L72.6187 26.3704C72.6013 26.5706 72.4397 26.7336 72.2376 26.7565L71.7411 26.8109Z" fill="#000000"/>
</g>
<path d="M13.5592 12.439C13.5072 12.439 13.4639 12.3989 13.4581 12.3475L13.207 9.57556C13.1868 9.34385 13.002 9.15792 12.7682 9.13217L10.5772 8.89188C10.5252 8.88616 10.4877 8.84325 10.4877 8.79176C10.4877 8.74027 10.5252 8.69737 10.5772 8.69164L12.7682 8.45135C13.002 8.42561 13.1868 8.23967 13.207 8.00797L13.4581 5.23607C13.4639 5.18458 13.5072 5.14453 13.5592 5.14453C13.6111 5.14453 13.6544 5.18458 13.6602 5.23607L13.9113 8.00797C13.9315 8.23967 14.1163 8.42561 14.3501 8.45135L16.5411 8.69164C16.5931 8.69737 16.6306 8.74027 16.6306 8.79176C16.6306 8.84325 16.5931 8.88616 16.5411 8.89188L14.3501 9.13217C14.1163 9.15792 13.9315 9.34385 13.9113 9.57556L13.6602 12.3475C13.6573 12.4018 13.6111 12.439 13.5592 12.439ZM11.5067 8.79462L12.7913 8.93479C13.1204 8.97198 13.3802 9.23229 13.409 9.56126L13.5592 11.2261L13.7093 9.56126C13.7381 9.23515 13.9979 8.97198 14.327 8.93479L15.6116 8.79462L14.327 8.65446C13.9979 8.61727 13.7381 8.35696 13.7093 8.02799L13.5592 6.36314L13.409 8.02799C13.3802 8.3541 13.1204 8.61727 12.7913 8.65446L11.5067 8.79462Z" fill="#000000"/>
<g opacity="0.5">
<path opacity="0.5" d="M10.4879 19.861C10.4446 19.861 10.41 19.8295 10.4071 19.7866L10.2685 18.2648C10.257 18.1504 10.1675 18.056 10.0491 18.0445L8.84536 17.9129C8.80495 17.9072 8.77319 17.8729 8.77319 17.8328C8.77319 17.7928 8.80495 17.7585 8.84536 17.7527L10.0491 17.6212C10.1646 17.6097 10.257 17.5153 10.2685 17.4009L10.4071 15.8791C10.41 15.8362 10.4475 15.8047 10.4879 15.8047C10.5312 15.8047 10.5659 15.8362 10.5687 15.8791L10.7073 17.4009C10.7189 17.5153 10.8083 17.6097 10.9267 17.6212L12.1305 17.7527C12.1709 17.7585 12.2026 17.7928 12.2026 17.8328C12.2026 17.8729 12.1709 17.9072 12.1305 17.9129L10.9267 18.0445C10.8112 18.056 10.7189 18.1504 10.7073 18.2648L10.5687 19.7866C10.563 19.8295 10.5283 19.861 10.4879 19.861ZM9.59591 17.83L10.0665 17.8815C10.2599 17.9015 10.4129 18.056 10.4302 18.2476L10.4879 18.8798L10.5456 18.2476C10.563 18.056 10.716 17.9015 10.9094 17.8815L11.3799 17.83L10.9094 17.7785C10.716 17.7585 10.563 17.604 10.5456 17.4123L10.4879 16.7801L10.4302 17.4123C10.4129 17.604 10.2599 17.7585 10.0665 17.7785L9.59591 17.83Z" fill="#000000"/>
</g>
<g opacity="0.5">
<path opacity="0.5" d="M20.4991 13.6733C20.4442 13.6733 20.398 13.6304 20.3922 13.5761L20.2104 11.5823C20.1959 11.4307 20.0776 11.3105 19.9246 11.2933L18.3484 11.1217C18.2936 11.116 18.2532 11.0702 18.2532 11.0159C18.2532 10.9615 18.2936 10.9158 18.3484 10.91L19.9246 10.7384C20.0776 10.7212 20.1959 10.6011 20.2104 10.4495L20.3922 8.45566C20.398 8.40131 20.4442 8.3584 20.4991 8.3584C20.5539 8.3584 20.6001 8.40131 20.6059 8.45566L20.7877 10.4495C20.8022 10.6011 20.9205 10.7212 21.0735 10.7384L22.6497 10.91C22.7045 10.9158 22.7449 10.9615 22.7449 11.0159C22.7449 11.0702 22.7045 11.116 22.6497 11.1217L21.0735 11.2933C20.9205 11.3105 20.8022 11.4307 20.7877 11.5823L20.6059 13.5761C20.6001 13.6304 20.5539 13.6733 20.4991 13.6733ZM19.3328 11.0159L19.9506 11.0845C20.2017 11.1131 20.4038 11.3134 20.4269 11.5651L20.5019 12.3918L20.577 11.5651C20.6001 11.3134 20.7993 11.1131 21.0504 11.0845L21.6682 11.0159L21.0504 10.9472C20.7993 10.9186 20.5972 10.7184 20.577 10.4666L20.5019 9.63993L20.4269 10.4666C20.4038 10.7184 20.2046 10.9186 19.9506 10.9472L19.3328 11.0159Z" fill="#000000"/>
</g>
<g opacity="0.5">
<path opacity="0.5" d="M30.279 3.62149C30.2415 3.62149 30.2097 3.59288 30.2068 3.55569L30.0827 2.19692C30.074 2.09394 29.9903 2.01098 29.8864 1.99954L28.8125 1.88226C28.775 1.8794 28.749 1.84793 28.749 1.81074C28.749 1.77356 28.7779 1.74209 28.8125 1.73923L29.8864 1.62195C29.9903 1.6105 30.0711 1.52755 30.0827 1.42457L30.2068 0.0657931C30.2097 0.0286056 30.2415 0 30.279 0C30.3165 0 30.3483 0.0286056 30.3512 0.0657931L30.4753 1.42457C30.484 1.52755 30.5677 1.6105 30.6716 1.62195L31.7455 1.73923C31.783 1.74209 31.809 1.77356 31.809 1.81074C31.809 1.84793 31.7801 1.8794 31.7455 1.88226L30.6716 1.99954C30.5677 2.01098 30.4868 2.09394 30.4753 2.19692L30.3512 3.55569C30.3483 3.59288 30.3165 3.62149 30.279 3.62149ZM29.4851 1.81074L29.9066 1.85651C30.0798 1.87654 30.2155 2.01384 30.2299 2.18262L30.2819 2.74615L30.3338 2.18262C30.3483 2.01098 30.4868 1.87368 30.6572 1.85365L31.0786 1.80788L30.6572 1.76211C30.484 1.74209 30.3483 1.60478 30.3338 1.43601L30.2819 0.872475L30.2299 1.43601C30.2155 1.60764 30.0769 1.74495 29.9066 1.76497L29.4851 1.81074Z" fill="#000000"/>
</g>
<g opacity="0.5">
<path opacity="0.5" d="M35.4634 7.00443C35.4056 7.00443 35.3594 6.96152 35.3537 6.90717L35.1689 4.86758C35.1545 4.71311 35.0304 4.58724 34.8774 4.57294L33.2637 4.39558C33.2088 4.38986 33.1655 4.34409 33.1655 4.28688C33.1655 4.22967 33.2059 4.18676 33.2637 4.17818L34.8774 4.00082C35.0332 3.98366 35.1574 3.86066 35.1689 3.70619L35.3537 1.6666C35.3594 1.60938 35.4056 1.56934 35.4634 1.56934C35.5211 1.56934 35.5673 1.61224 35.5731 1.6666L35.7578 3.70619C35.7722 3.86066 35.8964 3.98652 36.0494 4.00082L37.6631 4.17818C37.7179 4.1839 37.7612 4.22967 37.7612 4.28688C37.7612 4.34409 37.7208 4.387 37.6631 4.39558L36.0494 4.57294C35.8935 4.5901 35.7694 4.71311 35.7578 4.86758L35.5731 6.90717C35.5673 6.96438 35.5182 7.00443 35.4634 7.00443ZM34.2683 4.28688L34.9005 4.35554C35.1574 4.38414 35.3623 4.5901 35.3854 4.84755L35.4634 5.69142L35.5413 4.84755C35.5644 4.5901 35.7694 4.38414 36.0263 4.35554L36.6585 4.28688L36.0263 4.21823C35.7694 4.18962 35.5644 3.98366 35.5413 3.72621L35.4634 2.88234L35.3854 3.72621C35.3623 3.98366 35.1574 4.18962 34.9005 4.21823L34.2683 4.28688Z" fill="#000000"/>
</g>
<path d="M66.3574 12.0694C66.3169 12.0694 66.2852 12.0379 66.2794 12.0007L66.086 9.88392C66.0687 9.70657 65.9301 9.56354 65.7511 9.54351L64.0768 9.36044C64.0393 9.35758 64.0076 9.32325 64.0076 9.2832C64.0076 9.24315 64.0364 9.21169 64.0768 9.20597L65.7511 9.02289C65.9301 9.00287 66.0716 8.85984 66.086 8.68248L66.2794 6.56279C66.2823 6.52275 66.3169 6.49414 66.3574 6.49414C66.3978 6.49414 66.4295 6.52561 66.4353 6.56279L66.6287 8.68248C66.646 8.85984 66.7875 9.00287 66.9636 9.02289L68.6379 9.20597C68.6783 9.20883 68.7072 9.24315 68.7072 9.2832C68.7072 9.32325 68.6783 9.35472 68.6379 9.36044L66.9636 9.54351C66.7846 9.56354 66.6432 9.70657 66.6287 9.88392L66.4353 12.0007C66.4295 12.0379 66.3978 12.0694 66.3574 12.0694ZM64.787 9.28034L65.7685 9.38904C66.0196 9.41765 66.2188 9.61789 66.2419 9.86676L66.3574 11.1397L66.4728 9.86676C66.4959 9.61789 66.6951 9.41765 66.9463 9.38904L67.9277 9.28034L66.9463 9.17164C66.6951 9.14303 66.4959 8.94279 66.4728 8.69392L66.3574 7.42097L66.2419 8.69392C66.2188 8.94279 66.0196 9.14303 65.7685 9.17164L64.787 9.28034Z" fill="#000000"/>
<g opacity="0.5">
<path opacity="0.5" d="M71.6343 8.84604C71.5823 8.84604 71.5361 8.80599 71.5303 8.7545L71.2734 5.93112C71.2532 5.69369 71.0627 5.50489 70.826 5.47915L68.5916 5.236C68.5397 5.23027 68.4993 5.18737 68.4993 5.13588C68.4993 5.08439 68.5397 5.04148 68.5916 5.03576L70.826 4.78975C71.0627 4.764 71.2532 4.57234 71.2734 4.33778L71.5303 1.51439C71.5361 1.4629 71.5794 1.42285 71.6343 1.42285C71.6862 1.42285 71.7324 1.4629 71.7353 1.51439L71.9922 4.33778C72.0124 4.5752 72.2029 4.764 72.4397 4.78975L74.674 5.03576C74.7259 5.04148 74.7664 5.08439 74.7664 5.13588C74.7664 5.18737 74.7259 5.23027 74.674 5.236L72.4397 5.47915C72.2029 5.50489 72.0124 5.69655 71.9922 5.93112L71.7382 8.7545C71.7324 8.80599 71.6891 8.84604 71.6343 8.84604ZM69.5414 5.13016L70.8491 5.27318C71.1839 5.31037 71.4495 5.57926 71.4784 5.91109L71.6343 7.60741L71.7873 5.91109C71.819 5.57926 72.0817 5.31037 72.4166 5.27318L73.7242 5.13016L72.4166 4.98713C72.0817 4.94994 71.8161 4.68391 71.7873 4.34922L71.6343 2.6529L71.4784 4.34922C71.4495 4.68104 71.1839 4.94994 70.8491 4.98713L69.5414 5.13016Z" fill="#000000"/>
</g>
<path d="M58.2486 26.1466C57.9428 26.2484 57.6121 26.0864 57.5098 25.7846L55.3535 19.4231C55.1469 18.8137 54.4764 18.4853 53.8591 18.6907L18.2658 30.5379C17.6482 30.7434 17.314 31.4065 17.5205 32.0157L19.6768 38.3772C19.7791 38.679 19.6141 39.0061 19.3083 39.1078C19.0025 39.2096 18.6718 39.0475 18.5695 38.7458L16.4132 32.3842C16.0024 31.1725 16.6674 29.854 17.8954 29.4452L53.4885 17.5981C54.7165 17.1894 56.0499 17.8428 56.4606 19.0546L58.6169 25.4161C58.7194 25.7178 58.5544 26.0449 58.2486 26.1466Z" fill="#121243"/>
<path d="M58.3418 26.4153C57.8839 26.5677 57.3867 26.324 57.2335 25.8722L55.0772 19.5107C54.9217 19.0519 54.4169 18.8047 53.9522 18.9594L18.3589 30.8065C17.8942 30.9612 17.6424 31.4605 17.7978 31.919L19.9541 38.2806C20.1073 38.7324 19.8593 39.2241 19.4014 39.3765C18.9436 39.5289 18.4463 39.2852 18.2932 38.8334L16.1369 32.4719C15.6751 31.1095 16.4227 29.6271 17.8033 29.1675L53.3964 17.3204C54.7772 16.8608 56.2763 17.5955 56.7381 18.9578L58.8945 25.3194C59.0476 25.7712 58.7996 26.2629 58.3418 26.4153V26.4153ZM18.1737 30.2602L53.7668 18.4131C54.5369 18.1568 55.3731 18.5667 55.6307 19.3265L57.787 25.688C57.838 25.8386 58.0038 25.9198 58.1564 25.869C58.309 25.8182 58.3917 25.6543 58.3406 25.5037L56.1843 19.1422C55.8248 18.0809 54.6572 17.5088 53.5818 17.8667L17.9885 29.7139C16.9131 30.0718 16.3308 31.2264 16.6905 32.2876L18.8468 38.6491C18.8979 38.7997 19.0636 38.8809 19.2163 38.8301C19.3689 38.7793 19.4515 38.6154 19.4005 38.4648L17.2442 32.1033C16.9866 31.3435 17.4036 30.5165 18.1737 30.2602Z" fill="#000000"/>
<path d="M31.701 59.7162L30.3682 55.7842L34.3476 54.4596L35.6804 58.3916C35.9338 59.1391 35.525 59.9493 34.7676 60.2014L33.5314 60.6128C32.7737 60.8651 31.9543 60.4635 31.701 59.7162Z" fill="#121243"/>
<path d="M34.8627 60.467L33.6266 60.8785C32.7175 61.1811 31.7306 60.6975 31.4265 59.8004L30.0936 55.8679C30.0425 55.7171 30.125 55.5534 30.2778 55.5026L34.2573 54.178C34.4101 54.1272 34.5756 54.2083 34.6267 54.3591L35.9597 58.2916C36.2639 59.1886 35.7718 60.1645 34.8627 60.467ZM30.7399 55.957L31.9803 59.6163C32.1822 60.212 32.8376 60.5333 33.4414 60.3323L34.6776 59.9209C35.2814 59.7199 35.6083 59.0718 35.4063 58.476L34.1659 54.8166L30.7399 55.957Z" fill="#000000"/>
<path d="M56.9478 51.3128L55.615 47.3809L59.5945 46.0563L60.9273 49.9883C61.1806 50.7358 60.7718 51.546 60.0144 51.7981L58.7783 52.2095C58.0207 52.4617 57.2011 52.0601 56.9478 51.3128Z" fill="#121243"/>
<path d="M60.1049 52.0676L58.8688 52.4791C57.9597 52.7817 56.9728 52.2981 56.6687 51.401L55.3358 47.4685C55.2846 47.3177 55.3672 47.154 55.52 47.1032L59.4995 45.7786C59.6523 45.7278 59.8178 45.8089 59.8689 45.9596L61.2019 49.8922C61.5061 50.7892 61.014 51.765 60.1049 52.0676ZM55.9821 47.5575L57.2225 51.2169C57.4244 51.8126 58.0798 52.1339 58.6836 51.9329L59.9198 51.5215C60.5234 51.3206 60.8504 50.6724 60.6485 50.0766L59.4081 46.4172L55.9821 47.5575Z" fill="#000000"/>
<path d="M26.9909 53.1375L27.8386 55.6384C28.2451 56.8375 29.5595 57.4816 30.7746 57.0771L60.0551 47.3312C61.2702 46.9267 61.9257 45.6269 61.5193 44.4279L51.4485 14.7173C51.042 13.5183 49.7276 12.8742 48.5126 13.2786L19.232 23.0246C18.0169 23.429 17.3614 24.7288 17.7679 25.9278L26.1766 50.7351L26.9909 53.1375Z" fill="#000000"/>
<path d="M60.1485 47.5998L30.8679 57.3458C29.5022 57.8003 28.0194 57.0739 27.5626 55.7261L26.7149 53.2251C26.6638 53.0743 26.7463 52.9107 26.8991 52.8598C27.0519 52.8089 27.2174 52.89 27.2685 53.0408L28.1162 55.5418C28.4709 56.5882 29.6223 57.1524 30.6827 56.7994L59.9633 47.0535C61.0237 46.7005 61.5979 45.562 61.2432 44.5155L51.1725 14.8051C50.8177 13.7585 49.6664 13.1943 48.6059 13.5473L19.3254 23.2932C18.2649 23.6462 17.6908 24.7847 18.0455 25.8313L26.4543 50.6386C26.5054 50.7894 26.4228 50.953 26.27 51.0039C26.1172 51.0548 25.9517 50.9737 25.9006 50.8229L17.4919 26.0156C17.0351 24.668 17.7743 23.2015 19.1402 22.7469L48.4207 13.0009C49.7864 12.5464 51.2693 13.273 51.7261 14.6208L61.7969 44.3315C62.2537 45.6791 61.5143 47.1452 60.1485 47.5998Z" fill="#000000"/>
<path d="M27.2032 17.3266L22.4803 18.8986C21.2652 19.303 20.6096 20.6025 21.0159 21.8012L21.2067 22.3641L46.5364 13.9332L46.3456 13.3703C45.9393 12.1716 44.625 11.5278 43.4099 11.9322L29.5518 16.5449L27.2032 17.3266Z" fill="#000000"/>
<path d="M46.6297 14.2095L21.3001 22.6404C21.1472 22.6913 20.9818 22.6102 20.9307 22.4595L20.7399 21.8965C20.2832 20.5493 21.0226 19.0833 22.3885 18.6287L27.1113 17.0567C27.2641 17.0059 27.4296 17.0869 27.4807 17.2377C27.5318 17.3884 27.4493 17.552 27.2965 17.6029L22.5736 19.1749C21.5132 19.5278 20.9389 20.6662 21.2935 21.7123L21.3917 22.0021L46.1678 13.7555L46.0695 13.4656C45.7149 12.4195 44.5636 11.8556 43.5032 12.2085L29.6449 16.8212C29.4921 16.8721 29.3266 16.791 29.2755 16.6403C29.2244 16.4895 29.3069 16.3259 29.4598 16.2751L43.3181 11.6623C44.6838 11.2078 46.1665 11.9341 46.6232 13.2813L46.814 13.8443C46.8651 13.995 46.7825 14.1586 46.6297 14.2095Z" fill="#000000"/>
<path d="M20.1794 33.0391L53.8601 21.8286L59.3536 38.0356L25.673 49.2461L20.1794 33.0391Z" fill="#F0F3EE"/>
<path d="M59.4468 38.3042L25.7661 49.5148C25.6133 49.5656 25.4478 49.4845 25.3967 49.3337L19.9031 33.1267C19.852 32.9759 19.9346 32.8122 20.0874 32.7614L53.768 21.5509C53.9208 21.5 54.0863 21.5811 54.1374 21.7319L59.631 37.9389C59.6821 38.0897 59.5996 38.2534 59.4468 38.3042ZM25.8578 48.8763L58.9847 37.8501L53.6764 22.1893L20.5494 33.2156L25.8578 48.8763Z" fill="#000000"/>
<path d="M38.4165 48.5095L39.1117 50.5606C39.1817 50.7671 39.408 50.8779 39.6173 50.8083L49.1701 47.6286C49.3793 47.559 49.4922 47.3352 49.4222 47.1288L48.727 45.0777C48.657 44.8712 48.4307 44.7604 48.2214 44.83L38.6687 48.0096C38.4594 48.0793 38.3465 48.3031 38.4165 48.5095V48.5095Z" fill="#000000"/>
<path d="M49.2649 47.9092L39.7121 51.0888C39.3504 51.2092 38.9579 51.0169 38.8369 50.66L38.1417 48.609C38.0207 48.2521 38.2165 47.864 38.5783 47.7436L48.131 44.564C48.4927 44.4436 48.8853 44.6359 49.0062 44.9927L49.7015 47.0438C49.8224 47.4006 49.6266 47.7888 49.2649 47.9092ZM38.7635 48.29C38.707 48.3088 38.6765 48.3691 38.6954 48.4249L39.3906 50.4759C39.4095 50.5316 39.4706 50.5616 39.5271 50.5428L49.0798 47.3632C49.1363 47.3444 49.1668 47.284 49.1479 47.2283L48.4526 45.1772C48.4337 45.1215 48.3727 45.0916 48.3162 45.1104L38.7635 48.29Z" fill="#000000"/>
<path d="M33.7968 51.2987C34.2228 52.5554 33.5353 53.9182 32.2613 54.3422C30.9872 54.7663 29.6091 54.0913 29.183 52.8343C28.757 51.5774 29.4444 50.2148 30.7185 49.7908C31.9925 49.3667 33.3707 50.0417 33.7968 51.2987Z" fill="#000000"/>
<path d="M32.3514 54.6115C30.9267 55.0857 29.3801 54.328 28.9036 52.9223C28.4272 51.5166 29.1985 49.9873 30.6233 49.5131C32.048 49.0388 33.5946 49.7966 34.0711 51.2023C34.5476 52.608 33.7762 54.1373 32.3514 54.6115V54.6115ZM30.8084 50.0593C29.6891 50.4319 29.083 51.6336 29.4573 52.738C29.8316 53.8423 31.047 54.4378 32.1663 54.0652C33.2856 53.6927 33.8918 52.4909 33.5174 51.3866C33.1431 50.2822 31.9279 49.6867 30.8084 50.0593V50.0593Z" fill="#000000"/>
<path d="M58.7482 42.992C59.1742 44.2488 58.4869 45.6115 57.2127 46.0356C55.9386 46.4597 54.5605 45.7846 54.1344 44.5277C53.7084 43.2708 54.3958 41.9082 55.6699 41.4841C56.9441 41.06 58.3222 41.7351 58.7482 42.992Z" fill="#000000"/>
<path d="M57.3031 46.3244C55.8784 46.7986 54.3318 46.0409 53.8553 44.6352C53.3788 43.2294 54.1502 41.7002 55.5749 41.226C56.9997 40.7517 58.5463 41.5095 59.0227 42.9152C59.4992 44.3209 58.7277 45.8502 57.3031 46.3244ZM55.7601 41.7722C54.6408 42.1448 54.0346 43.3465 54.409 44.4509C54.7833 45.5552 55.9986 46.1507 57.1179 45.7781C58.2372 45.4056 58.8434 44.2038 58.4691 43.0995C58.0947 41.9951 56.8794 41.3997 55.7601 41.7722Z" fill="#000000"/>
<path d="M47.0254 17.0292L22.7079 25.1232C21.7504 25.4419 21.2339 26.4658 21.554 27.4103C21.8742 28.3548 22.9097 28.8621 23.8672 28.5434L48.1848 20.4493C49.1422 20.1306 49.6588 19.1068 49.3386 18.1623C49.0184 17.2177 47.9829 16.7105 47.0254 17.0292Z" fill="#000000"/>
<path d="M48.2783 20.7179L23.9607 28.812C22.8521 29.181 21.6486 28.5915 21.278 27.498C20.9073 26.4044 21.5076 25.2145 22.6162 24.8455L46.9338 16.7514C48.0424 16.3824 49.2459 16.9719 49.6166 18.0656C49.987 19.1591 49.3869 20.3489 48.2783 20.7179ZM22.8014 25.3918C21.9981 25.6592 21.5631 26.5214 21.8317 27.3139C22.1002 28.106 22.9723 28.5334 23.7756 28.266L48.0932 20.1719C48.8966 19.9046 49.3316 19.0424 49.063 18.25C48.7944 17.4575 47.9224 17.0304 47.119 17.2978L22.8014 25.3918Z" fill="#000000"/>
<path d="M42.6067 43.9181C42.4539 43.9689 42.2884 43.8878 42.2373 43.737L36.7437 27.53C36.6926 27.3792 36.7751 27.2156 36.928 27.1647C37.0808 27.1138 37.2463 27.1949 37.2974 27.3457L42.791 43.5528C42.8421 43.7036 42.7595 43.8672 42.6067 43.9181Z" fill="#000000"/>
<path d="M21.8345 42.9295C20.6115 43.3366 19.2882 42.6881 18.8791 41.4813L17.2124 36.5642C16.8034 35.3574 17.4633 34.0489 18.6863 33.6418L21.8345 42.9295Z" fill="#121243"/>
<path d="M21.9291 43.1981C20.5553 43.6554 19.0638 42.9245 18.6043 41.5689L16.9376 36.6519C16.4781 35.2962 17.2219 33.8214 18.5957 33.3641C18.7485 33.3132 18.914 33.3943 18.9651 33.5451L22.1133 42.8328C22.1644 42.9836 22.0819 43.1473 21.9291 43.1981ZM18.5106 34.0219C17.6178 34.467 17.1653 35.5059 17.4912 36.4676L19.1579 41.3846C19.4839 42.3462 20.4775 42.9037 21.4605 42.7246L18.5106 34.0219Z" fill="#000000"/>
<path d="M58.562 30.6949L55.4138 21.4072C56.6368 21.0001 57.9601 21.6486 58.3692 22.8554L60.0359 27.7725C60.4449 28.9793 59.785 30.2879 58.562 30.6949Z" fill="#121243"/>
<path d="M58.6551 30.9636C58.5023 31.0144 58.3368 30.9333 58.2857 30.7826L55.1375 21.4948C55.0864 21.3441 55.1689 21.1804 55.3217 21.1295C56.6955 20.6723 58.187 21.4031 58.6465 22.7588L60.3132 27.6758C60.7727 29.0314 60.0289 30.5063 58.6551 30.9636ZM55.7903 21.603L58.7402 30.3056C59.633 29.8605 60.0855 28.8216 59.7595 27.8599L58.0928 22.9429C57.767 21.9815 56.7733 21.424 55.7903 21.603Z" fill="#000000"/>
<path d="M48.6049 13.5493L45.8367 14.4707C46.8978 14.1175 48.0486 14.6829 48.4029 15.7282L48.8529 17.0558C49.199 17.3014 49.4726 17.6541 49.6177 18.0821C49.7627 18.51 49.7595 18.9549 49.6332 19.3577L50.7221 22.5702L53.4903 21.6488L51.1712 14.8068C50.8169 13.7615 49.6661 13.1961 48.6049 13.5493Z" fill="#000000"/>
<path d="M56.4032 39.317L57.0187 41.1326C57.926 41.3251 58.71 41.972 59.0255 42.9026C59.3415 43.8351 59.1087 44.8205 58.5027 45.5167C58.8003 46.5403 58.2298 47.626 57.1963 47.97L59.9646 47.0485C61.0257 46.6953 61.5993 45.558 61.2444 44.5109L59.1715 38.3955L56.4032 39.317Z" fill="#000000"/>
<path d="M50.9077 23.1182L53.676 22.1968L58.9847 37.8584L56.2164 38.7798L50.9077 23.1182Z" fill="#000000"/>
</svg>
