<svg width="26" height="25" viewBox="0 0 26 25" fill="none" xmlns="http://www.w3.org/2000/svg">
<path d="M11.9167 16.6665V17.7082C11.9167 18.537 12.2591 19.3318 12.8686 19.9179C13.4781 20.5039 14.3047 20.8332 15.1667 20.8332H19.5C20.362 20.8332 21.1886 20.5039 21.7981 19.9179C22.4076 19.3318 22.75 18.537 22.75 17.7082V7.2915C22.75 6.4627 22.4076 5.66785 21.7981 5.0818C21.1886 4.49574 20.362 4.1665 19.5 4.1665H15.1667C14.3047 4.1665 13.4781 4.49574 12.8686 5.0818C12.2591 5.66785 11.9167 6.4627 11.9167 7.2915V8.33317M7.58333 16.6665L3.25 12.4998L7.58333 16.6665ZM3.25 12.4998L7.58333 8.33317L3.25 12.4998ZM3.25 12.4998H18.4167H3.25Z" stroke="black" stroke-opacity="0.3" stroke-width="2" stroke-linecap="round" stroke-linejoin="round"/>
</svg>
