<svg width="25" height="24" viewBox="0 0 25 24" fill="none" xmlns="http://www.w3.org/2000/svg">
<path d="M1.5625 5.25V18.75H23.4375V5.25H1.5625ZM3.125 6.75H21.875V17.25H3.125V6.75ZM4.6875 8.25V9.75H12.5V8.25H4.6875ZM17.1875 8.25V9.04725C16.3086 9.1875 15.625 9.90225 15.625 10.7812C15.625 11.3467 15.9516 11.865 16.4797 12.117L18.75 13.2188C18.752 13.2562 18.7458 13.2936 18.7318 13.3286C18.7178 13.3636 18.6963 13.3954 18.6687 13.4219C18.6411 13.4485 18.608 13.4691 18.5715 13.4825C18.535 13.496 18.496 13.5019 18.457 13.5H17.4805C17.4415 13.5019 17.4025 13.496 17.366 13.4825C17.3295 13.4691 17.2964 13.4485 17.2688 13.4219C17.2412 13.3954 17.2197 13.3636 17.2057 13.3286C17.1917 13.2936 17.1855 13.2562 17.1875 13.2188V12.75H15.625V13.2188C15.625 14.0977 16.3086 14.8125 17.1875 14.9535V15.75H18.75V14.9528C19.6289 14.8125 20.3125 14.0977 20.3125 13.2188C20.3125 12.6533 19.9859 12.138 19.4578 11.883L17.1875 10.7812C17.1875 10.614 17.3062 10.5 17.4805 10.5H18.457C18.6313 10.5 18.75 10.614 18.75 10.7812V11.25H20.3125V10.7812C20.3125 9.90225 19.6289 9.1875 18.75 9.0465V8.25H17.1875ZM4.6875 10.5V12H10.1562V10.5H4.6875ZM6.64062 12.75C6.16797 12.75 5.83516 13.008 5.61484 13.242C5.39609 13.4768 5.23359 13.737 5.10234 14.016C4.83984 14.5747 4.6875 15.1785 4.6875 15.75H6.25C6.25 15.51 6.37187 14.988 6.54297 14.625C6.59219 14.52 6.64062 14.484 6.68984 14.4142C6.74766 14.49 6.78984 14.5402 6.86016 14.6483C6.97344 14.8245 7.09844 15.0352 7.25078 15.2347C7.40391 15.4335 7.58984 15.762 8.17891 15.7733C8.64297 15.7823 8.78594 15.621 8.93594 15.516C9.08437 15.4102 9.18906 15.3105 9.30156 15.2108C9.37813 15.1433 9.43906 15.0938 9.49688 15.0472C9.51875 15.0765 9.60391 15.126 10.0344 15.3045C10.5562 15.5243 11.3469 15.75 12.5 15.75V14.25C11.5391 14.25 11.0383 14.1 10.6687 13.9455C10.3 13.7902 10.0188 13.5 9.375 13.5C8.90469 13.5 8.78594 13.6755 8.64219 13.7812C8.51406 13.875 8.42578 13.9747 8.325 14.0625C8.27969 13.992 8.25781 13.9575 8.20312 13.875C8.05958 13.6378 7.88757 13.4175 7.69062 13.2188C7.46406 12.999 7.10781 12.75 6.64062 12.75Z" fill="black" fill-opacity="0.3"/>
</svg>
