<svg width="28" height="26" viewBox="0 0 28 26" fill="none" xmlns="http://www.w3.org/2000/svg">
<path d="M24.7188 18.9666H3.28125C3.16094 18.9666 3.0625 19.058 3.0625 19.1698V20.5916C3.0625 20.7033 3.16094 20.7948 3.28125 20.7948H24.7188C24.8391 20.7948 24.9375 20.7033 24.9375 20.5916V19.1698C24.9375 19.058 24.8391 18.9666 24.7188 18.9666ZM4.53086 15.7877L5.61641 16.7906C5.70117 16.8694 5.84063 16.8694 5.92539 16.7906L12.343 10.8518L15.0117 13.3223C15.1761 13.4736 15.3982 13.5584 15.6297 13.5584C15.8611 13.5584 16.0832 13.4736 16.2477 13.3223L23.4719 6.63948C23.5566 6.56077 23.5566 6.43127 23.4719 6.35256L22.3863 5.34709C22.3452 5.30929 22.2897 5.28809 22.2318 5.28809C22.174 5.28809 22.1185 5.30929 22.0773 5.34709L15.6324 11.3139L12.9609 8.84338C12.7965 8.69211 12.5744 8.60725 12.343 8.60725C12.1115 8.60725 11.8894 8.69211 11.725 8.84338L4.53086 15.5008C4.51041 15.5196 4.49417 15.5419 4.48308 15.5665C4.472 15.5911 4.46629 15.6176 4.46629 15.6443C4.46629 15.671 4.472 15.6974 4.48308 15.722C4.49417 15.7466 4.51041 15.769 4.53086 15.7877Z" fill="black"/>
</svg>
