<svg width="64" height="37" viewBox="0 0 64 37" fill="none" xmlns="http://www.w3.org/2000/svg">
<path opacity="0.5" d="M32 36.5176C49.6731 36.5176 64 35.8434 64 35.0117C64 34.1801 49.6731 33.5059 32 33.5059C14.3269 33.5059 0 34.1801 0 35.0117C0 35.8434 14.3269 36.5176 32 36.5176Z" fill="#F0F3EE"/>
<path d="M41.143 10.8101H25.2774C24.6321 10.8101 24.0942 10.2723 24.0942 9.62688V1.55966C24.0942 0.91428 24.6321 0.376465 25.2774 0.376465H41.1968C41.8421 0.376465 42.38 0.91428 42.38 1.55966V9.62688C42.3262 10.2723 41.8421 10.8101 41.143 10.8101ZM26.4606 8.44369H40.0136V2.74285H26.4606V8.44369Z" fill="#5B5A73"/>
<path d="M41.143 3.11933H25.2774C24.4169 3.11933 23.7178 2.42017 23.7178 1.55966C23.7178 0.69916 24.4169 0 25.2774 0H41.1968C42.0573 0 42.7564 0.69916 42.7564 1.55966C42.7564 2.42017 42.0573 3.11933 41.143 3.11933Z" fill="#413F54"/>
<path d="M55.0185 34.743H20.0605V15.9194H55.8253V33.99C55.8253 34.4203 55.4488 34.743 55.0185 34.743Z" fill="#413F54"/>
<path d="M24.9549 34.743H8.82039C8.39014 34.743 8.01367 34.3665 8.01367 33.9362V15.9194H25.7078V33.99C25.7078 34.4203 25.3851 34.743 24.9549 34.743Z" fill="#5B5A73"/>
<path d="M56.7396 16.1881H18.501V7.90576H54.427C55.9329 7.90576 57.1161 9.08896 57.1161 10.5948V15.7579C57.1161 15.973 56.9548 16.1881 56.7396 16.1881Z" fill="#E4AD50"/>
<path d="M26.5145 16.1885H7.26075C7.04562 16.1885 6.88428 16.0272 6.88428 15.8121V10.649C6.88428 9.14315 8.06747 7.95996 9.57335 7.95996H24.2019C25.7078 7.95996 26.891 9.14315 26.891 10.649V15.8121C26.891 15.9734 26.7297 16.1885 26.5145 16.1885Z" fill="#518C36"/>
<path d="M37.9701 14.1445H30.9785V17.2639H37.9701V14.1445Z" fill="#413F54"/>
<path d="M52.9213 14.1445H45.9297V17.2639H52.9213V14.1445Z" fill="#413F54"/>
<path d="M37.3788 15.0586H31.8931V18.7695H37.3788V15.0586Z" fill="#A7A7BC"/>
<path d="M52.33 15.0586H46.8442V18.7695H52.33V15.0586Z" fill="#A7A7BC"/>
<path d="M34.3668 31.8384V33.9896C34.3668 34.4199 33.9903 34.7964 33.5601 34.7964H49.5869C50.0172 34.7964 50.3937 34.4199 50.3937 33.9896V31.8384H34.3668Z" fill="#373647"/>
<path d="M21.8353 31.8384V33.9896C21.8353 34.4199 22.2118 34.7964 22.6421 34.7964H11.9395C11.5093 34.7964 11.1328 34.4199 11.1328 33.9896V31.8384H21.8353Z" fill="#413F54"/>
<path d="M21.8356 13.0688H8.87423C8.76667 13.0688 8.71289 13.015 8.71289 12.9074V10.5948C8.71289 9.94944 9.25071 9.41162 9.89608 9.41162H20.8675C21.5129 9.41162 22.0507 9.94944 22.0507 10.5948V12.9074C22.0507 13.015 21.9431 13.0688 21.8356 13.0688Z" fill="#000000"/>
<path d="M22.0507 19.6304H10.2188V30.064H22.0507V19.6304Z" fill="#828198"/>
</svg>
