<svg width="129" height="100" viewBox="0 0 129 100" fill="none" xmlns="http://www.w3.org/2000/svg">
<path d="M97.9898 0.0306746L1.03516 29.7295L18.5221 86.8173L115.477 57.1185L97.9898 0.0306746Z" fill="#7EC65C"/>
<path opacity="0.2" d="M97.9898 0.0306746L1.03516 29.7295L18.5221 86.8173L115.477 57.1185L97.9898 0.0306746Z" fill="black"/>
<path opacity="0.2" d="M97.9228 -0.000214047L65.375 9.96973L82.862 67.0576L115.41 57.0876L97.9228 -0.000214047Z" fill="black"/>
<path d="M96.4213 2.95312C95.3407 7.9959 94.2601 13.0387 93.1796 18.0814L90.1179 33.2998L87.1462 48.5182C86.1557 53.561 85.2552 58.6938 84.2646 63.7366C85.3452 58.6938 86.4258 53.651 87.5064 48.6082L90.5681 33.3899L93.5398 18.1715C94.5303 13.1287 95.4308 7.9959 96.4213 2.95312Z" fill="#7EC65C"/>
<path d="M112.361 55.182C108.759 51.49 105.067 47.798 101.465 44.1059L90.4786 33.1199L79.4025 22.2239C75.7104 18.6219 72.0184 15.0199 68.2363 11.418C71.8383 15.11 75.4403 18.802 79.1323 22.4941L90.1184 33.4801L101.194 44.3761C104.977 47.9781 108.669 51.5801 112.361 55.182Z" fill="#7EC65C"/>
<path d="M19.6845 37.0205L20.2012 36.8623L17.9073 29.3711L17.3907 29.5293L19.6845 37.0205Z" fill="#000000"/>
<path d="M18.4092 37.4542L18.9258 37.2959L16.6311 29.8055L16.1145 29.9638L18.4092 37.4542Z" fill="#000000"/>
<path d="M17.1211 37.874L17.6377 37.7158L15.3438 30.2247L14.8272 30.3829L17.1211 37.874Z" fill="#000000"/>
<path d="M15.8125 38.2168L16.3291 38.0586L14.0352 30.5674L13.5186 30.7256L15.8125 38.2168Z" fill="#000000"/>
<path d="M14.541 38.6397L15.0576 38.4814L12.763 30.9911L12.2464 31.1493L14.541 38.6397Z" fill="#000000"/>
<path d="M13.2598 39.0645L13.7764 38.9062L11.4817 31.4159L10.9651 31.5741L13.2598 39.0645Z" fill="#000000"/>
<path d="M12.0332 39.3711L12.5498 39.2129L10.2559 31.7217L9.73929 31.8799L12.0332 39.3711Z" fill="#000000"/>
<path d="M10.7559 39.7989L11.2725 39.6406L8.97701 32.1502L8.46043 32.3085L10.7559 39.7989Z" fill="#000000"/>
<path d="M9.47165 40.2197L9.98828 40.0615L7.6944 32.5704L7.17776 32.7286L9.47165 40.2197Z" fill="#000000"/>
<path d="M23.302 28.3468L21.0508 28.4369L25.8234 26.9961L23.9324 28.1667L24.7428 30.9583C26.2737 30.6881 27.2642 31.9488 28.0746 34.4702L23.302 35.911C22.4916 33.3896 22.6717 31.7687 24.1125 31.1384L23.302 28.3468Z" fill="#000000"/>
<path d="M28.0742 30.3279L29.3349 29.8777L28.2543 26.2757L31.4061 25.2852L32.5767 28.8871L33.8374 28.5269L32.1265 33.2095L28.0742 30.3279Z" fill="#000000"/>
<path opacity="0.1" d="M0.969727 29.6984L2.41052 34.381L69.4974 23.3049L65.3551 9.97754L0.969727 29.6984Z" fill="black"/>
<path d="M128.03 63.5568L95.4321 73.5523L82.8252 67.0687L115.423 57.0732L128.03 63.5568Z" fill="#7EC65C"/>
<path opacity="0.2" d="M128.03 63.5568L95.4321 73.5523L82.8252 67.0687L115.423 57.0732L128.03 63.5568Z" fill="black"/>
<path d="M11.6855 99.2163L44.2835 89.2208L51.0372 76.7939L18.5293 86.7894L11.6855 99.2163Z" fill="#7EC65C"/>
<path opacity="0.1" d="M11.6855 99.2163L44.2835 89.2208L51.0372 76.7939L18.5293 86.7894L11.6855 99.2163Z" fill="black"/>
</svg>
