<svg width="46" height="45" viewBox="0 0 46 45" fill="none" xmlns="http://www.w3.org/2000/svg">
<path fill-rule="evenodd" clip-rule="evenodd" d="M0.000304866 6.27354L2.76644 3.5074L8.29871 9.03967L17.3384 0H35.3667C40.8896 0 45.3667 4.47715 45.3667 10V27.2944L35.96 36.701L41.4923 42.2333L38.7262 44.9994L5.53257 39.4671L0.000304866 6.27354ZM13.831 25.6365C12.3041 27.1634 12.3041 29.6418 13.831 31.1687C15.3579 32.6956 17.8363 32.6956 19.3632 31.1687C20.8901 29.6418 20.8901 27.1634 19.3632 25.6365C17.8363 24.1096 15.3579 24.1096 13.831 25.6365ZM24.8955 25.6365L30.4278 31.1687L44.2584 17.3381L38.7262 11.8058L24.8955 25.6365ZM33.1939 6.27353L27.6616 0.741267L13.831 14.5719L19.3632 20.1042L33.1939 6.27353Z" fill="#97E373"/>
</svg>
