<svg width="45" height="20" viewBox="0 0 45 20" fill="none" xmlns="http://www.w3.org/2000/svg">
<rect x="0.25" y="0.25" width="44.5" height="19.5" rx="9.75" fill="#FDE7E8"/>
<path d="M12.54 7.955C12.51 8.005 12.4783 8.04333 12.445 8.07C12.4117 8.09333 12.3683 8.105 12.315 8.105C12.2583 8.105 12.1917 8.07667 12.115 8.02C12.0417 7.96333 11.9467 7.90167 11.83 7.835C11.7167 7.765 11.5783 7.70167 11.415 7.645C11.255 7.58833 11.06 7.56 10.83 7.56C10.6133 7.56 10.4217 7.59 10.255 7.65C10.0883 7.70667 9.94833 7.785 9.835 7.885C9.725 7.985 9.64167 8.10333 9.585 8.24C9.52833 8.37333 9.5 8.51833 9.5 8.675C9.5 8.875 9.54833 9.04167 9.645 9.175C9.745 9.305 9.875 9.41667 10.035 9.51C10.1983 9.60333 10.3817 9.685 10.585 9.755C10.7917 9.82167 11.0017 9.89167 11.215 9.965C11.4317 10.0383 11.6417 10.1217 11.845 10.215C12.0517 10.305 12.235 10.42 12.395 10.56C12.5583 10.7 12.6883 10.8717 12.785 11.075C12.885 11.2783 12.935 11.5283 12.935 11.825C12.935 12.1383 12.8817 12.4333 12.775 12.71C12.6683 12.9833 12.5117 13.2217 12.305 13.425C12.1017 13.6283 11.85 13.7883 11.55 13.905C11.2533 14.0217 10.915 14.08 10.535 14.08C10.0717 14.08 9.64833 13.9967 9.265 13.83C8.885 13.66 8.56 13.4317 8.29 13.145L8.57 12.685C8.59667 12.6483 8.62833 12.6183 8.665 12.595C8.705 12.5683 8.74833 12.555 8.795 12.555C8.865 12.555 8.945 12.5933 9.035 12.67C9.125 12.7433 9.23667 12.825 9.37 12.915C9.50667 13.005 9.67 13.0883 9.86 13.165C10.0533 13.2383 10.2883 13.275 10.565 13.275C10.795 13.275 11 13.2433 11.18 13.18C11.36 13.1167 11.5117 13.0283 11.635 12.915C11.7617 12.7983 11.8583 12.66 11.925 12.5C11.9917 12.34 12.025 12.1617 12.025 11.965C12.025 11.7483 11.975 11.5717 11.875 11.435C11.7783 11.295 11.65 11.1783 11.49 11.085C11.33 10.9917 11.1467 10.9133 10.94 10.85C10.7367 10.7833 10.5267 10.7167 10.31 10.65C10.0967 10.58 9.88667 10.5 9.68 10.41C9.47667 10.32 9.295 10.2033 9.135 10.06C8.975 9.91667 8.845 9.73833 8.745 9.525C8.64833 9.30833 8.6 9.04167 8.6 8.725C8.6 8.47167 8.64833 8.22667 8.745 7.99C8.845 7.75333 8.98833 7.54333 9.175 7.36C9.36167 7.17667 9.59167 7.03 9.865 6.92C10.1417 6.81 10.4583 6.755 10.815 6.755C11.215 6.755 11.58 6.81833 11.91 6.945C12.24 7.07167 12.5283 7.255 12.775 7.495L12.54 7.955ZM20.5777 10.42C20.5777 10.9567 20.4927 11.45 20.3227 11.9C20.1527 12.3467 19.9127 12.7317 19.6027 13.055C19.2927 13.3783 18.9194 13.63 18.4827 13.81C18.0494 13.9867 17.5694 14.075 17.0427 14.075C16.5161 14.075 16.0361 13.9867 15.6027 13.81C15.1694 13.63 14.7977 13.3783 14.4877 13.055C14.1777 12.7317 13.9377 12.3467 13.7677 11.9C13.5977 11.45 13.5127 10.9567 13.5127 10.42C13.5127 9.88333 13.5977 9.39167 13.7677 8.945C13.9377 8.495 14.1777 8.10833 14.4877 7.785C14.7977 7.45833 15.1694 7.205 15.6027 7.025C16.0361 6.845 16.5161 6.755 17.0427 6.755C17.5694 6.755 18.0494 6.845 18.4827 7.025C18.9194 7.205 19.2927 7.45833 19.6027 7.785C19.9127 8.10833 20.1527 8.495 20.3227 8.945C20.4927 9.39167 20.5777 9.88333 20.5777 10.42ZM19.5827 10.42C19.5827 9.98 19.5227 9.585 19.4027 9.235C19.2827 8.885 19.1127 8.59 18.8927 8.35C18.6727 8.10667 18.4061 7.92 18.0927 7.79C17.7794 7.66 17.4294 7.595 17.0427 7.595C16.6594 7.595 16.3111 7.66 15.9977 7.79C15.6844 7.92 15.4161 8.10667 15.1927 8.35C14.9727 8.59 14.8027 8.885 14.6827 9.235C14.5627 9.585 14.5027 9.98 14.5027 10.42C14.5027 10.86 14.5627 11.255 14.6827 11.605C14.8027 11.9517 14.9727 12.2467 15.1927 12.49C15.4161 12.73 15.6844 12.915 15.9977 13.045C16.3111 13.1717 16.6594 13.235 17.0427 13.235C17.4294 13.235 17.7794 13.1717 18.0927 13.045C18.4061 12.915 18.6727 12.73 18.8927 12.49C19.1127 12.2467 19.2827 11.9517 19.4027 11.605C19.5227 11.255 19.5827 10.86 19.5827 10.42ZM28.3063 10.42C28.3063 10.9567 28.2213 11.45 28.0513 11.9C27.8813 12.3467 27.6413 12.7317 27.3313 13.055C27.0213 13.3783 26.6479 13.63 26.2113 13.81C25.7779 13.9867 25.2979 14.075 24.7713 14.075C24.2446 14.075 23.7646 13.9867 23.3313 13.81C22.8979 13.63 22.5263 13.3783 22.2163 13.055C21.9063 12.7317 21.6663 12.3467 21.4963 11.9C21.3263 11.45 21.2413 10.9567 21.2413 10.42C21.2413 9.88333 21.3263 9.39167 21.4963 8.945C21.6663 8.495 21.9063 8.10833 22.2163 7.785C22.5263 7.45833 22.8979 7.205 23.3313 7.025C23.7646 6.845 24.2446 6.755 24.7713 6.755C25.2979 6.755 25.7779 6.845 26.2113 7.025C26.6479 7.205 27.0213 7.45833 27.3313 7.785C27.6413 8.10833 27.8813 8.495 28.0513 8.945C28.2213 9.39167 28.3063 9.88333 28.3063 10.42ZM27.3113 10.42C27.3113 9.98 27.2513 9.585 27.1313 9.235C27.0113 8.885 26.8413 8.59 26.6213 8.35C26.4013 8.10667 26.1346 7.92 25.8213 7.79C25.5079 7.66 25.1579 7.595 24.7713 7.595C24.3879 7.595 24.0396 7.66 23.7263 7.79C23.4129 7.92 23.1446 8.10667 22.9213 8.35C22.7013 8.59 22.5313 8.885 22.4113 9.235C22.2913 9.585 22.2313 9.98 22.2313 10.42C22.2313 10.86 22.2913 11.255 22.4113 11.605C22.5313 11.9517 22.7013 12.2467 22.9213 12.49C23.1446 12.73 23.4129 12.915 23.7263 13.045C24.0396 13.1717 24.3879 13.235 24.7713 13.235C25.1579 13.235 25.5079 13.1717 25.8213 13.045C26.1346 12.915 26.4013 12.73 26.6213 12.49C26.8413 12.2467 27.0113 11.9517 27.1313 11.605C27.2513 11.255 27.3113 10.86 27.3113 10.42ZM29.8798 6.835C29.9664 6.835 30.0298 6.84667 30.0698 6.87C30.1131 6.89 30.1614 6.93333 30.2148 7L34.3648 12.4C34.3548 12.3133 34.3481 12.23 34.3448 12.15C34.3414 12.0667 34.3398 11.9867 34.3398 11.91V6.835H35.1898V14H34.6998C34.6231 14 34.5581 13.9867 34.5048 13.96C34.4548 13.9333 34.4048 13.8883 34.3548 13.825L30.2098 8.43C30.2164 8.51333 30.2214 8.595 30.2248 8.675C30.2281 8.755 30.2298 8.82833 30.2298 8.895V14H29.3798V6.835H29.8798Z" fill="#D1474E"/>
<rect x="0.25" y="0.25" width="44.5" height="19.5" rx="9.75" stroke="#D1474E" stroke-width="0.5"/>
</svg>
