<svg width="600" height="230" viewBox="0 0 600 230" fill="none" xmlns="http://www.w3.org/2000/svg">
<path d="M0 10C0 4.47715 4.47715 0 10 0H590C595.523 0 600 4.47715 600 10V230H0V10Z" fill="#F0F3EE"/>
<path d="M388.587 116.851C388.587 129.425 385.979 141.403 381.268 152.25L299.478 196.566L217.688 152.25C212.978 141.403 210.369 129.425 210.369 116.851C210.369 67.6451 250.272 27.7412 299.478 27.7412C348.684 27.7412 388.587 67.6439 388.587 116.851Z" fill="#A3E440"/>
<path d="M388.587 117.771C388.587 105.198 385.979 93.2197 381.268 82.3717L299.478 38.0566L217.688 82.3717C212.978 93.2197 210.369 105.198 210.369 117.771C210.369 166.977 250.272 206.881 299.478 206.881C348.684 206.881 388.587 166.979 388.587 117.771Z" fill="#A3E440"/>
<path d="M388.573 116.849C388.573 129.422 385.964 141.4 381.267 152.248L323.69 183.444C342.04 167.119 353.602 143.334 353.602 116.849C353.602 73.624 322.834 37.601 281.998 29.4651C287.656 28.3364 293.495 27.752 299.478 27.752C348.683 27.7507 388.573 67.6281 388.573 116.849Z" fill="#99D53B"/>
<path d="M388.573 117.562C388.573 104.989 385.964 93.0108 381.267 82.1628L323.69 50.9668C342.04 67.2916 353.602 91.0772 353.602 117.562C353.602 160.787 322.834 196.809 281.998 204.946C287.656 206.074 293.495 206.658 299.478 206.658C348.683 206.66 388.573 166.782 388.573 117.562Z" fill="#99D53B"/>
<path d="M321.213 162.319C318.479 162.319 315.733 161.334 313.49 159.319C309.634 155.857 304.094 153.859 298.289 153.842C298.263 153.842 298.237 153.842 298.21 153.842C292.435 153.842 286.915 155.8 283.058 159.224C278.029 163.683 270.517 163.012 266.281 157.72C262.04 152.431 262.681 144.527 267.708 140.066C275.912 132.787 286.739 128.783 298.21 128.783H298.361C309.89 128.821 320.754 132.896 328.952 140.259C333.953 144.751 334.547 152.659 330.277 157.924C327.919 160.828 324.577 162.319 321.213 162.319Z" fill="#82B732"/>
<path d="M257.137 117.694C257.114 117.694 257.092 117.694 257.069 117.694C251.693 117.656 247.322 113.269 247.359 107.894C247.396 102.519 251.732 98.1492 257.112 98.2286L257.203 98.2299C262.579 98.2676 266.904 102.655 266.868 108.03C266.83 113.381 262.481 117.694 257.137 117.694Z" fill="#82B732"/>
<path d="M341.9 117.697C341.878 117.697 341.855 117.697 341.832 117.697C336.457 117.659 332.086 113.272 332.122 107.897C332.16 102.546 336.465 98.2314 341.808 98.2314H341.875L341.966 98.2327C347.342 98.2705 351.667 102.658 351.631 108.033C351.593 113.384 347.244 117.697 341.9 117.697Z" fill="#82B732"/>
</svg>
