<svg width="201" height="202" viewBox="0 0 201 202" fill="none" xmlns="http://www.w3.org/2000/svg">
<path d="M200.414 100.833C200.414 114.944 197.487 128.386 192.201 140.559L100.414 190.291L8.627 140.559C3.3416 128.386 0.414062 114.944 0.414062 100.833C0.414062 45.6131 45.1937 0.832031 100.414 0.832031C155.634 0.832031 200.414 45.6117 200.414 100.833Z" fill="#A3E440"/>
<path d="M200.414 101.866C200.414 87.7554 197.487 74.3136 192.201 62.1398L100.414 12.4084L8.627 62.1398C3.3416 74.3136 0.414062 87.7554 0.414062 101.866C0.414062 157.086 45.1937 201.867 100.414 201.867C155.634 201.867 200.414 157.088 200.414 101.866Z" fill="#A3E440"/>
<path d="M200.399 100.83C200.399 114.94 197.471 128.382 192.2 140.556L127.586 175.565C148.178 157.244 161.153 130.552 161.153 100.83C161.153 52.3224 126.625 11.8966 80.7979 2.76623C87.1477 1.49966 93.6997 0.84375 100.414 0.84375C155.633 0.842336 200.399 45.5937 200.399 100.83V100.83Z" fill="#99D53B"/>
<path d="M200.399 101.631C200.399 87.5209 197.471 74.0791 192.2 61.9053L127.586 26.8964C148.178 45.2165 161.153 71.9092 161.153 101.631C161.153 150.139 126.625 190.564 80.7979 199.695C87.1477 200.961 93.6997 201.617 100.414 201.617C155.633 201.619 200.399 156.867 200.399 101.631V101.631Z" fill="#99D53B"/>
<path d="M124.805 151.858C121.737 151.858 118.656 150.752 116.138 148.491C111.811 144.606 105.594 142.364 99.0795 142.344C99.0501 142.344 99.0207 142.344 98.9913 142.344C92.5097 142.344 86.3152 144.542 81.9866 148.384C76.3437 153.388 67.9131 152.635 63.1591 146.697C58.3999 140.761 59.1194 131.891 64.7605 126.885C73.9676 118.716 86.118 114.223 98.9913 114.223H99.1608C112.098 114.265 124.29 118.838 133.49 127.101C139.102 132.142 139.769 141.017 134.977 146.925C132.331 150.184 128.581 151.858 124.805 151.858V151.858Z" fill="#82B732"/>
<path d="M52.8987 101.779C52.8733 101.779 52.8479 101.779 52.8224 101.779C46.7892 101.737 41.8841 96.813 41.9251 90.7813C41.9675 84.7495 46.8331 79.8457 52.8705 79.9348L52.9723 79.9362C59.0054 79.9786 63.8597 84.9021 63.8187 90.9339C63.7763 96.9389 58.8952 101.779 52.8987 101.779Z" fill="#82B732"/>
<path d="M148.021 101.782C147.996 101.782 147.97 101.782 147.945 101.782C141.912 101.739 137.007 96.8158 137.048 90.784C137.09 84.779 141.922 79.9375 147.917 79.9375H147.993L148.095 79.9389C154.128 79.9813 158.982 84.9049 158.941 90.9366C158.899 96.9416 154.018 101.782 148.021 101.782Z" fill="#82B732"/>
</svg>
