<svg width="107" height="137" viewBox="0 0 107 137" fill="none" xmlns="http://www.w3.org/2000/svg">
<g clip-path="url(#clip0_10318_79166)">
<path d="M85 78.1C52.8 81.2 50.3 84.6 48.4 136C48.4 136.2 48.1 136.2 48.1 136C46.2 84.6 43.8 81.2 11.5 78.1C11.3 78.1 11.3 77.8 11.5 77.8C43.7 74.7 46.2 71.3 48.1 19.9C48.1 19.7 48.4 19.7 48.4 19.9C50.3 71.3 52.7 74.7 85 77.8C85.2 77.8 85.2 78.1 85 78.1Z" fill="#000000"/>
<path d="M106.1 33.2004C87.7 35.0004 86.3 36.9004 85.2 66.2004C85.2 66.3004 85 66.3004 85 66.2004C84 36.9004 82.6 35.0004 64.2 33.2004C64.1 33.2004 64.1 33.0004 64.2 33.0004C82.6 31.3004 84 29.3004 85 0.100391C85 0.000390626 85.2 0.000390626 85.2 0.100391C86.3 29.4004 87.7 31.3004 106 33.0004C106.2 33.1004 106.2 33.2004 106.1 33.2004Z" fill="#000000"/>
<path d="M25.6 34.2008C14.4 35.3008 13.6 36.5008 12.9 54.3008C12.9 54.4008 12.8 54.4008 12.8 54.3008C12.1 36.5008 11.3 35.3008 0.100024 34.2008C2.44156e-05 34.2008 2.44156e-05 34.1008 0.100024 34.1008C11.3 33.0008 12.1 31.8008 12.8 14.0008C12.8 13.9008 12.9 13.9008 12.9 14.0008C13.6 31.8008 14.4 33.0008 25.6 34.1008V34.2008Z" fill="#000000"/>
</g>
<defs>
<clipPath id="clip0_10318_79166">
<rect width="106.2" height="136.2" fill="white"/>
</clipPath>
</defs>
</svg>
