<svg width="60" height="60" viewBox="0 0 60 60" fill="none" xmlns="http://www.w3.org/2000/svg">
<circle cx="30" cy="30" r="30" fill="#FFF9F0"/>
<path d="M33.3195 13L31.4099 29.414L47.9255 28.894C47.5745 20.742 41.4132 14.0367 33.3193 13.0002L33.3195 13ZM29.7103 14.0359C23.5784 14.0516 17.8704 17.4242 14.9488 22.9433C11.6943 29.0909 12.5729 36.6069 17.159 41.8379C21.7015 47.0193 28.9432 48.8742 35.4171 46.5537L29.5838 30.8536L29.5836 30.8533C29.5726 30.8246 29.5688 30.7939 29.5723 30.7637L31.6237 14.1401C30.983 14.0685 30.3444 14.0345 29.7102 14.036L29.7103 14.0359ZM47.9979 30.6652L31.5238 31.135L37.2364 46.5949C43.8209 44.0753 48.1177 37.7138 47.9975 30.6653L47.9979 30.6652Z" fill="#E99F0C"/>
</svg>
