<svg width="500" height="475" viewBox="0 0 500 475" fill="none" xmlns="http://www.w3.org/2000/svg">
<path d="M352.23 473.75C308.647 471.22 265.179 467.655 221.595 465.125C215.156 464.78 208.601 464.32 202.621 461.791C196.986 459.491 192.386 455.351 187.212 452.246C182.037 449.141 175.942 446.611 170.077 448.106C164.213 449.601 159.498 456.386 162.143 461.906C159.038 452.131 155.818 441.896 148.688 434.652C141.559 427.292 129.254 423.842 120.859 429.707C111.545 436.262 111.43 449.831 112.465 461.216C109.475 452.706 106.37 443.851 100.39 437.182C94.4104 430.512 84.5208 426.372 76.1261 429.592C70.0314 432.007 65.6616 437.757 63.7066 444.081C61.7517 450.406 61.6367 457.076 61.8667 463.63L61.6367 474.095L352.23 473.75Z" fill="#000000"/>
<path d="M249.54 71.2685C250.69 63.3338 239.42 56.6641 230.911 55.9741C226.886 55.6291 222.631 56.3191 218.836 54.9391C210.556 52.0643 207.221 41.3697 199.172 37.9198C193.077 35.3899 186.177 37.6898 180.313 40.5647C174.448 43.5546 168.698 47.2344 162.143 47.6944C156.394 48.0394 150.299 45.9695 145.239 48.7294C141.559 50.7993 139.604 55.0541 136.154 57.584C132.819 59.9989 128.45 60.5739 124.31 60.8039C120.17 61.0339 115.8 61.0339 112.12 62.7588C108.325 64.4838 105.221 68.5086 106.026 72.5334L249.54 71.2685Z" fill="#EBEBEB"/>
<path d="M459.981 16.6448C460.556 12.735 455.037 9.63013 451.012 9.28514C449.057 9.17015 446.987 9.40014 445.147 8.82516C441.122 7.44521 439.512 2.27042 435.602 0.545492C432.727 -0.719458 429.278 0.430495 426.518 1.81044C423.643 3.19038 420.883 5.03031 417.663 5.2603C414.903 5.49029 411.913 4.45534 409.498 5.72029C407.659 6.75524 406.739 8.82516 405.129 9.97511C403.519 11.1251 401.449 11.4701 399.379 11.585C397.424 11.7 395.239 11.7 393.399 12.505C391.559 13.31 390.064 15.2649 390.409 17.2198L459.981 16.6448Z" fill="#F5F5F5"/>
<path d="M132.359 29.8701C133.049 24.9253 126.149 20.9004 120.86 20.4405C118.33 20.2105 115.8 20.6705 113.385 19.7505C108.325 18.0256 106.255 11.3558 101.31 9.28591C97.6306 7.67598 93.2608 9.17092 89.6959 10.8959C86.131 12.7358 82.5662 15.0357 78.4264 15.2657C74.8615 15.4957 71.0667 14.2307 68.0768 15.9556C65.7769 17.2206 64.6269 19.8655 62.442 21.4754C60.3721 22.9704 57.7272 23.3154 55.0823 23.4304C52.4374 23.5453 49.9075 23.6603 47.6076 24.6953C45.3077 25.7303 43.3528 28.2602 43.8127 30.79L132.359 29.8701Z" fill="#EBEBEB"/>
<path d="M459.981 102.662C442.157 73.6831 412.488 53.7889 378.91 49.1891C365.8 47.4642 352.461 47.8092 339.581 50.5691C300.943 58.7337 267.364 87.4826 253.45 124.396C245.285 146.13 242.985 171.084 227.461 188.334C207.222 210.758 172.953 211.448 142.824 210.528C112.695 209.608 78.3117 210.413 58.1875 232.837C45.538 246.981 41.6282 266.99 42.5481 285.85C45.193 335.873 80.4966 380.491 125.345 402.685C170.193 424.879 222.976 426.834 272.079 417.059C340.846 403.375 406.164 365.771 445.492 307.699C482.981 252.386 493.675 177.984 467.456 116.921C465.386 112.092 462.856 107.262 459.981 102.662Z" fill="#000000"/>
<path d="M500 474.097C500 474.212 388.109 474.442 250 474.442C111.891 474.442 0 474.327 0 474.097C0 473.982 111.891 473.752 250 473.752C388.109 473.752 500 473.867 500 474.097Z" fill="#263238"/>
<path d="M11.9591 154.867C11.9591 154.867 102.69 199.485 127.874 208.11C148.459 215.125 181.577 217.425 201.587 215.24C206.071 214.78 209.866 214.09 212.741 213.17C228.61 208.11 308.532 191.551 308.532 191.551L404.093 186.376L401.909 173.381L292.318 180.051C292.318 180.051 228.955 188.791 220.101 199.255C220.101 199.255 212.511 209.72 199.287 211.445C185.947 213.17 127.069 199.025 120.4 192.356C113.73 185.686 112.005 182.581 92.9159 178.211C73.8266 173.841 30.9333 143.598 30.9333 143.598L9.65918 154.292" fill="#000000"/>
<path opacity="0.5" d="M11.9591 154.867C11.9591 154.867 102.69 199.485 127.874 208.11C148.459 215.125 181.577 217.425 201.587 215.24C206.071 214.78 209.866 214.09 212.741 213.17C228.61 208.11 308.532 191.551 308.532 191.551L404.093 186.376L403.288 181.431L402.024 173.381L292.433 180.051C292.433 180.051 229.07 188.791 220.216 199.255C220.216 199.255 212.626 209.72 199.402 211.445C186.062 213.17 127.184 199.025 120.515 192.356C113.845 185.686 112.12 182.581 93.0309 178.211C73.9416 173.841 31.0483 143.598 31.0483 143.598L9.65918 154.292" fill="black"/>
<path d="M382.704 120.945L257.934 121.52C257.934 121.52 254.024 121.52 248.849 119.105C244.479 117.035 235.28 111.515 232.52 109.675C231.83 109.215 230.91 109.1 230.105 109.215C229.53 109.33 229.185 109.56 229.415 110.135C229.76 110.825 237.465 117.495 237.465 117.495L223.665 113.125C222.86 112.895 222.055 112.895 221.365 113.355C221.02 113.585 220.79 113.815 220.905 114.16C221.02 114.735 229.3 118.645 229.3 118.645L218.835 116.805C217.801 116.69 216.766 117.265 216.651 118.3C216.651 118.415 216.651 118.53 216.651 118.645C216.766 119.565 231.6 124.395 231.6 124.395H217.801C216.306 124.395 215.271 126.005 215.961 127.385C216.766 128.88 237.465 129.455 237.695 131.754C237.925 134.054 231.83 134.514 229.76 137.734C227.69 140.839 231.025 142.104 231.025 142.104C233.095 139.574 241.26 137.504 241.26 137.504L253.909 138.194L372.124 154.983L390.294 143.369L397.308 130.719L382.704 120.945Z" fill="#FFBE9D"/>
<path d="M352.001 120.6L224.586 145.899C224.586 145.899 220.676 146.704 214.927 145.209C210.097 143.944 199.632 140.034 196.412 138.884C195.607 138.539 194.687 138.539 193.882 138.884C193.422 139.114 192.962 139.459 193.307 139.919C193.767 140.609 203.082 145.899 203.082 145.899L188.133 144.174C187.328 144.059 186.408 144.289 185.833 144.864C185.603 145.094 185.373 145.439 185.488 145.784C185.718 146.359 194.917 148.773 194.917 148.773L183.878 149.003C182.843 149.003 181.923 149.808 181.923 150.958C181.923 151.073 181.923 151.188 181.923 151.303C182.153 152.338 198.367 154.293 198.367 154.293L184.338 157.053C182.728 157.398 182.038 159.238 183.073 160.503C184.223 161.883 205.497 158.318 206.187 160.733C206.877 163.033 200.667 164.758 199.172 168.438C197.677 172.118 201.357 172.693 201.357 172.693C202.967 169.703 210.902 166.023 210.902 166.023L223.896 164.183L347.976 157.973L364.306 142.564L368.905 128.189L352.001 120.6Z" fill="#FFBE9D"/>
<path d="M306.578 129.455C306.578 129.455 306.348 129.57 305.773 129.685C305.198 129.8 304.393 130.03 303.358 130.26C301.173 130.72 298.183 131.295 294.503 132.1C287.029 133.595 276.679 135.665 265.41 137.85C254.025 140.15 243.79 142.105 236.316 143.6C232.636 144.29 229.646 144.98 227.461 145.325C226.426 145.555 225.621 145.67 225.046 145.785C224.471 145.9 224.241 145.9 224.241 145.9C224.241 145.9 224.471 145.785 225.046 145.67C225.621 145.555 226.426 145.325 227.461 145.095C229.531 144.635 232.521 143.945 236.201 143.14C243.675 141.53 253.91 139.46 265.295 137.16C276.679 134.975 286.914 133.02 294.388 131.525C298.068 130.835 301.058 130.26 303.243 129.915C304.278 129.685 305.083 129.57 305.658 129.455C306.233 129.455 306.578 129.34 306.578 129.455Z" fill="#EB996E"/>
<path d="M389.834 62.6426C389.489 64.9425 387.764 67.0124 385.579 67.7024C384.314 68.1624 382.934 68.0474 381.669 68.5073C380.404 68.9673 379.254 70.1173 379.484 71.4972C379.714 72.4172 380.634 73.1072 381.324 73.7971C382.014 74.4871 382.704 75.5221 382.244 76.442C381.784 77.477 380.404 77.477 379.599 78.282C378.794 79.0869 379.024 80.5819 379.714 81.5018C380.404 82.4218 381.439 82.9968 382.359 83.6867C383.279 84.3767 384.199 85.1817 384.429 86.3316" fill="#263238"/>
<path d="M435.142 82.9967C438.592 75.867 436.177 67.0123 431.002 61.0326C425.827 55.0528 418.238 51.7179 410.648 49.533C409.613 49.188 408.233 48.9581 407.428 49.763C406.738 50.453 406.968 51.7179 407.658 52.5229C408.348 53.3279 409.268 53.6729 410.188 54.0179C407.083 52.5229 403.748 51.373 400.299 51.258C399.149 51.258 397.884 51.373 396.849 51.9479C395.814 52.6379 395.124 53.9029 395.469 55.0528C395.814 56.2028 397.424 56.8927 398.344 56.0878C395.124 55.7428 391.674 56.4328 388.914 58.2727C386.959 59.5376 385.119 61.7225 385.579 64.0225C385.809 65.4024 386.844 66.4374 387.304 67.8173C388.109 70.2322 386.844 72.7621 385.924 75.062C384.429 78.7419 383.624 82.6517 384.199 86.5616C384.774 90.4714 386.844 94.1513 390.294 96.1062" fill="#263238"/>
<path d="M420.653 60.2282L419.503 59.7682C407.314 56.0883 394.549 63.1031 391.214 75.4076L376.84 123.131L402.024 144.405L409.729 124.396C409.729 124.396 421.803 126.811 426.173 115.426C428.243 109.906 431.693 98.2916 434.683 87.7121C437.902 76.3275 431.808 64.368 420.653 60.2282Z" fill="#FFBE9D"/>
<path d="M409.728 124.28C409.728 124.28 402.253 122.211 396.389 114.506C396.389 114.506 396.849 124.05 408.693 127.27L409.728 124.28Z" fill="#EB996E"/>
<path d="M408.003 66.6673C407.083 64.5974 405.934 60.1125 404.324 58.5026C402.714 56.8927 400.184 57.3527 397.999 58.0426C395.699 58.6176 393.859 60.3425 393.054 62.6424C389.949 70.9221 389.604 78.6268 387.304 86.7915C387.189 87.3665 386.959 87.9414 387.189 88.4014C387.649 89.7814 389.144 90.2413 390.524 90.4713C394.089 91.0463 395.814 88.5164 397.539 85.4115C397.884 84.7216 398.689 80.4667 398.804 79.6618C399.379 74.142 402.599 69.3122 407.543 67.0123L408.003 66.6673Z" fill="#263238"/>
<path d="M393.169 82.077C393.054 81.962 386.154 76.9022 383.509 84.7218C380.865 92.6565 389.374 93.6915 389.489 93.4615C389.604 93.2315 393.169 82.077 393.169 82.077Z" fill="#FFBE9D"/>
<path d="M388.109 89.6686C388.109 89.6686 387.994 89.6686 387.649 89.7836C387.419 89.7836 386.959 89.7836 386.615 89.4386C385.925 88.8636 385.58 87.2537 386.04 85.8737C386.27 85.1838 386.615 84.4938 387.075 84.0338C387.534 83.5738 387.994 83.2288 388.454 83.3438C388.914 83.3438 389.144 83.6888 389.144 84.0338C389.144 84.2638 389.029 84.3788 389.144 84.4938C389.144 84.4938 389.374 84.3788 389.374 84.0338C389.374 83.9188 389.374 83.6888 389.259 83.4588C389.144 83.2288 388.914 83.1138 388.569 82.9989C387.994 82.8839 387.189 83.2288 386.73 83.6888C386.155 84.2638 385.81 84.9538 385.465 85.7587C385.005 87.3687 385.35 89.0936 386.385 89.8986C386.845 90.2436 387.419 90.2436 387.764 90.1286C387.994 89.7836 388.109 89.6686 388.109 89.6686Z" fill="#EB996E"/>
<path d="M404.899 68.5068C408.809 65.8619 412.833 67.2419 415.478 68.8518C418.123 70.4617 420.423 72.6467 423.183 74.1416C425.943 75.6365 429.508 76.0965 432.038 74.2566C433.877 72.8766 434.682 70.4617 434.912 68.1618C435.372 63.792 433.877 59.1922 431.003 55.8573C430.198 54.9374 429.048 54.1324 428.013 54.5924C426.748 55.1674 426.863 57.0073 427.323 58.3872C427.323 58.3872 413.983 53.3274 405.934 56.2023C397.654 58.8472 404.899 68.5068 404.899 68.5068Z" fill="#263238"/>
<path d="M410.073 49.3027C410.188 49.3027 410.188 49.8777 410.648 50.7977C410.993 51.7176 411.913 52.9826 413.178 54.3625C414.443 55.6275 416.283 57.0074 418.468 58.1574C419.618 58.7324 420.768 59.0773 422.033 59.4223C423.298 59.7673 424.678 59.8823 426.173 60.3423C427.553 60.6873 428.932 61.3772 429.967 62.2972C431.002 63.2172 431.807 64.3671 432.267 65.6321C432.727 66.897 432.842 68.047 432.727 69.1969C432.612 70.3469 432.152 71.3818 431.577 72.1868C430.427 73.7967 428.932 74.6017 427.898 74.8317C427.323 74.9467 426.978 75.0617 426.633 75.0617C426.403 75.0617 426.173 75.0617 426.173 75.0617C426.173 74.9467 426.748 74.9467 427.783 74.6017C428.702 74.2567 430.082 73.4518 431.117 71.9568C431.577 71.1519 432.037 70.2319 432.152 69.1969C432.267 68.162 432.152 67.012 431.692 65.8621C431.232 64.7121 430.542 63.6772 429.507 62.8722C428.587 61.9522 427.323 61.4922 425.943 61.0323C424.563 60.6873 423.183 60.4573 421.918 60.1123C420.538 59.7673 419.273 59.3073 418.123 58.7324C415.823 57.5824 414.098 56.0875 412.718 54.7075C411.453 53.3276 410.648 51.9476 410.303 50.9127C410.188 50.4527 410.073 49.9927 410.073 49.7627C410.073 49.4177 410.073 49.3027 410.073 49.3027Z" fill="#455A64"/>
<path d="M401.334 51.6016C401.449 51.6016 401.564 52.1765 402.024 53.2115C402.484 54.2464 403.289 55.5114 404.784 56.8913C406.164 58.2713 408.233 59.4212 410.648 60.2262C413.063 61.1462 415.823 61.6062 418.813 62.1811C421.803 62.7561 424.563 63.3311 426.978 64.596C428.128 65.286 429.163 66.206 429.623 67.3559C430.083 68.5059 430.083 69.6558 429.738 70.6908C429.163 72.7607 427.783 73.7957 426.863 74.3706C426.403 74.7156 425.943 74.8306 425.713 74.9456C425.483 75.0606 425.253 75.0606 425.253 75.0606C425.253 75.0606 425.828 74.7156 426.633 74.1407C427.438 73.4507 428.703 72.4157 429.163 70.4608C429.393 69.5408 429.393 68.5059 428.933 67.4709C428.473 66.436 427.553 65.631 426.518 65.056C424.218 63.9061 421.458 63.3311 418.468 62.7561C415.478 62.1811 412.718 61.6062 410.188 60.6862C407.658 59.7662 405.589 58.5013 404.209 57.1213C402.829 55.7414 402.024 54.2464 401.564 53.2115C401.334 52.6365 401.219 52.2915 401.219 51.9465C401.219 51.7166 401.219 51.6016 401.334 51.6016Z" fill="#455A64"/>
<path d="M429.853 94.843C429.508 94.958 428.588 93.463 426.633 92.8881C424.678 92.1981 422.953 92.6581 422.838 92.3131C422.723 92.1981 423.183 91.8531 423.873 91.6231C424.678 91.3931 425.828 91.2781 426.978 91.7381C428.128 92.1981 429.048 93.0031 429.393 93.578C429.853 94.268 429.968 94.728 429.853 94.843Z" fill="#263238"/>
<path d="M411.453 89.2063C411.108 89.3213 410.188 87.8263 408.233 87.2514C406.278 86.5614 404.554 87.0214 404.439 86.6764C404.324 86.5614 404.784 86.2164 405.473 85.9864C406.278 85.7564 407.428 85.6414 408.578 86.1014C409.728 86.5614 410.648 87.3663 410.993 87.9413C411.568 88.6313 411.683 89.0913 411.453 89.2063Z" fill="#263238"/>
<path d="M413.293 102.546C413.293 102.431 414.558 102.661 416.628 103.121C417.088 103.236 417.663 103.351 417.778 103.006C418.008 102.661 418.008 102.086 418.008 101.396C418.008 100.016 417.893 98.6363 417.893 97.1414C417.778 91.1616 417.893 86.2168 418.123 86.2168C418.353 86.2168 418.698 91.0466 418.813 97.1414C418.813 98.6363 418.813 100.016 418.813 101.396C418.813 101.971 418.928 102.776 418.353 103.351C418.123 103.696 417.663 103.811 417.318 103.811C416.973 103.811 416.743 103.696 416.398 103.581C414.443 103.006 413.293 102.661 413.293 102.546Z" fill="#263238"/>
<path d="M407.198 101.855C407.543 101.97 406.738 104.04 408.003 106.11C409.268 108.18 411.568 108.755 411.453 109.1C411.453 109.215 410.763 109.33 409.843 108.985C408.923 108.64 407.658 107.95 406.968 106.685C406.163 105.42 406.163 104.04 406.393 103.12C406.623 102.2 407.083 101.74 407.198 101.855Z" fill="#263238"/>
<path d="M414.558 78.5121C414.213 78.972 412.373 78.0521 409.958 77.4771C407.659 76.9021 405.589 76.9021 405.474 76.3272C405.474 76.0972 405.934 75.6372 406.854 75.4072C407.774 75.1772 409.038 75.0622 410.533 75.4072C411.913 75.7522 413.063 76.4421 413.753 77.0171C414.443 77.7071 414.788 78.2821 414.558 78.5121Z" fill="#263238"/>
<path d="M431.693 86.3319C431.233 86.6769 430.083 85.7569 428.473 85.1819C426.863 84.492 425.483 84.377 425.253 83.917C425.253 83.687 425.598 83.342 426.288 83.112C426.978 82.882 428.128 82.882 429.163 83.342C430.198 83.802 431.003 84.492 431.463 85.1819C431.808 85.7569 431.923 86.2169 431.693 86.3319Z" fill="#263238"/>
<path d="M404.668 137.851C405.243 140.955 406.163 162.92 404.438 171.774C401.448 188.334 378.679 224.672 377.184 227.547C376.264 229.272 357.405 272.395 357.405 272.395C357.405 272.395 275.298 246.866 271.158 226.052C271.158 226.052 298.872 205.353 305.772 199.028C307.152 197.763 332.336 154.41 332.336 154.41L347.515 128.191C347.515 128.191 359.245 116.691 365.339 116.691C371.434 116.691 378.679 116.691 378.679 116.691L404.668 137.851Z" fill="#000000"/>
<path opacity="0.4" d="M271.158 226.166C271.158 226.166 280.818 226.971 307.842 242.035C334.866 257.215 341.995 261.585 341.995 261.585L286.568 242.15C286.568 242.265 272.193 233.756 271.158 226.166Z" fill="black"/>
<path d="M363.844 116.92L348.78 118.3L305.427 127.155L324.171 162.113L372.009 157.513C372.009 157.513 383.624 134.629 379.254 129.684C374.884 124.74 363.844 116.92 363.844 116.92Z" fill="#000000"/>
<path opacity="0.4" d="M328.312 161.655L360.97 158.436L321.757 172.81L328.312 161.655Z" fill="black"/>
<path d="M370.169 158.203C370.169 158.318 361.66 159.352 351.08 160.272C340.501 161.307 331.991 161.882 331.876 161.767C331.876 161.652 340.386 160.617 350.965 159.697C361.545 158.663 370.054 157.973 370.169 158.203Z" fill="#263238"/>
<path d="M378.564 137.965C378.449 137.965 378.334 136.7 377.759 134.745C377.184 132.79 376.149 130.145 374.309 127.615C372.469 125.085 370.399 123.131 368.674 121.981C366.949 120.831 365.799 120.256 365.914 120.141C365.914 120.141 366.259 120.256 366.719 120.486C367.294 120.716 367.984 121.061 368.904 121.636C370.629 122.786 372.929 124.625 374.769 127.27C376.609 129.915 377.644 132.675 378.104 134.63C378.334 135.665 378.449 136.47 378.449 137.045C378.564 137.62 378.564 137.965 378.564 137.965Z" fill="#263238"/>
<path d="M314.627 200.523C314.627 200.523 315.202 200.408 316.352 200.178C317.502 200.063 318.997 199.718 320.952 199.258C322.907 198.798 325.207 198.223 327.621 197.418C330.151 196.613 332.796 195.578 335.556 194.313C338.316 193.048 340.846 191.668 343.031 190.288C345.216 188.908 347.171 187.528 348.781 186.378C350.391 185.228 351.54 184.193 352.46 183.389C353.265 182.699 353.725 182.239 353.84 182.354C353.84 182.354 353.495 182.814 352.69 183.619C351.885 184.423 350.736 185.458 349.126 186.723C347.631 187.988 345.676 189.368 343.491 190.748C341.306 192.128 338.776 193.508 336.016 194.888C333.256 196.153 330.496 197.188 328.081 197.993C325.551 198.798 323.252 199.373 321.297 199.718C319.342 200.063 317.732 200.293 316.697 200.408C315.202 200.523 314.627 200.523 314.627 200.523Z" fill="#263238"/>
<path d="M319.111 192.589C319.111 192.359 323.136 192.359 327.966 191.209C332.796 190.059 336.476 188.334 336.591 188.564C336.591 188.679 335.786 189.139 334.291 189.829C332.796 190.519 330.611 191.324 328.196 191.899C325.781 192.474 323.481 192.704 321.871 192.819C320.146 192.704 319.111 192.704 319.111 192.589Z" fill="#263238"/>
<path d="M364.994 229.615C364.994 229.615 364.419 229.96 363.384 230.305C362.349 230.765 360.854 231.34 359.014 232.03C355.22 233.41 350.045 235.02 344.065 236.17C338.085 237.32 332.565 237.78 328.656 237.895C326.701 238.01 325.091 238.01 323.941 237.895C322.791 237.895 322.216 237.78 322.216 237.78C322.216 237.78 322.791 237.665 323.941 237.665C325.091 237.665 326.701 237.55 328.656 237.435C332.565 237.205 338.085 236.63 343.95 235.48C349.93 234.33 355.105 232.835 358.899 231.57C360.739 230.995 362.349 230.42 363.384 230.075C364.419 229.73 364.994 229.615 364.994 229.615Z" fill="#263238"/>
<path d="M404.898 169.247L380.864 161.082C377.414 174.536 368.214 185.691 356.6 195.811L386.268 211.795C386.268 211.795 395.698 195.236 402.023 180.286C403.633 176.491 404.438 173.847 404.898 169.247Z" fill="#F5F5F5"/>
<path d="M386.268 158.436L384.198 164.875L387.533 166.37L389.373 159.586L386.268 158.436Z" fill="#E0E0E0"/>
<path d="M381.323 191.093C382.703 190.978 384.198 190.863 385.693 190.978L391.328 179.708L384.888 176.488L383.508 179.248L386.498 180.743L381.323 191.093Z" fill="#000000"/>
<path d="M398.918 187.3H399.033C399.493 185.92 400.068 184.655 400.642 183.39C400.182 183.045 399.608 182.7 399.033 182.355C396.388 180.975 393.743 181.09 391.673 182.125L393.398 185C394.663 184.31 395.928 184.425 397.193 185C398.458 185.575 399.033 186.38 398.918 187.3Z" fill="#000000"/>
<path d="M387.879 190.289C386.384 190.519 385.119 190.519 383.509 190.864L382.589 192.704L386.039 194.429L388.109 190.174C388.109 190.289 387.994 190.289 387.879 190.289Z" fill="#000000"/>
<path d="M397.194 191.209H396.964L389.604 193.394L388.454 195.579L393.514 198.109C393.514 197.994 393.629 197.764 393.744 197.649C394.089 196.844 394.549 196.039 395.009 195.349L394.779 195.234L395.124 195.119L397.194 191.209Z" fill="#000000"/>
<path d="M395.123 188.794C395.123 188.794 394.778 188.909 394.203 189.139C393.628 189.369 392.708 189.599 391.558 189.829C389.258 190.404 386.153 190.979 382.588 191.324C379.024 191.669 375.804 191.784 373.504 191.669C372.354 191.669 371.434 191.554 370.744 191.554C370.054 191.554 369.709 191.439 369.709 191.439C369.709 191.324 371.204 191.324 373.504 191.324C375.804 191.209 379.024 191.094 382.588 190.749C386.153 190.404 389.258 189.829 391.558 189.484C393.628 189.024 395.123 188.679 395.123 188.794Z" fill="#263238"/>
<path d="M338.661 267.336C337.971 269.291 288.638 343.348 246.205 358.527L227.805 355.652L130.404 326.903L141.214 299.649L232.405 319.314L274.264 271.821L286.913 239.047L338.661 267.336Z" fill="#FFBE9D"/>
<path d="M136.039 328.629L176.747 340.589L186.292 309.31L141.559 298.73L136.039 328.629Z" fill="#455A64"/>
<path d="M137.65 328.282L136.96 328.397C136.96 328.397 113.271 353.351 107.636 351.396L132.245 294.014L147.309 300.338L145.929 302.293C140.294 309.768 137.88 318.853 137.65 328.282Z" fill="#000000"/>
<g opacity="0.6">
<g opacity="0.6">
<g opacity="0.6">
<g opacity="0.6">
<path opacity="0.6" d="M141.559 305.742C141.674 304.478 140.754 303.213 139.604 302.983C138.339 302.753 137.074 303.673 136.844 304.938C136.614 306.202 137.764 307.812 138.914 307.812C140.179 307.927 141.674 306.777 141.559 305.513" fill="white"/>
</g>
</g>
</g>
</g>
<g opacity="0.6">
<g opacity="0.6">
<g opacity="0.6">
<path opacity="0.6" d="M132.13 293.898L136.729 296.083L111.43 350.361C111.43 350.361 109.245 352.431 107.521 351.396L132.13 293.898Z" fill="white"/>
</g>
</g>
</g>
<path d="M136.845 329.431C136.615 329.316 137.075 327.821 136.73 326.097C136.5 324.372 135.58 323.107 135.81 322.877C135.925 322.647 137.42 323.797 137.765 325.867C138.11 328.051 137.075 329.546 136.845 329.431Z" fill="#263238"/>
<path d="M131.785 334.377C131.44 334.377 131.555 332.882 130.75 331.503C130.06 330.008 128.795 329.203 129.025 328.973C129.14 328.743 130.865 329.203 131.785 331.043C132.589 332.767 132.015 334.492 131.785 334.377Z" fill="#263238"/>
<path d="M123.045 334.72C123.045 334.49 124.655 334.605 125.92 335.985C127.185 337.365 127.185 338.975 126.955 338.975C126.61 339.09 126.15 337.825 125.23 336.675C124.195 335.64 123.045 334.95 123.045 334.72Z" fill="#263238"/>
<path d="M137.305 328.858C137.19 328.858 137.535 327.593 138.57 325.983C139.145 325.178 139.835 324.258 140.755 323.338C141.215 322.878 141.79 322.418 142.365 322.073C142.595 321.843 142.94 321.613 143.4 321.498C143.86 321.268 144.665 321.498 144.895 321.958C145.24 322.418 145.125 322.993 145.01 323.453C144.895 323.913 144.665 324.143 144.435 324.488C143.975 325.063 143.515 325.523 143.055 325.983C142.135 326.903 141.1 327.478 140.18 327.938C138.34 328.743 137.19 328.743 137.075 328.628C137.075 328.513 138.225 328.168 139.835 327.248C140.64 326.788 141.56 326.098 142.365 325.293C142.825 324.833 143.17 324.373 143.63 323.913C144.09 323.338 144.32 322.878 144.09 322.533C143.975 322.418 143.975 322.418 143.745 322.418C143.515 322.533 143.285 322.648 142.94 322.878C142.365 323.223 141.905 323.683 141.445 324.028C140.525 324.833 139.72 325.638 139.145 326.328C137.995 327.938 137.42 328.973 137.305 328.858Z" fill="#263238"/>
<path d="M136.96 328.282C136.96 328.167 138.225 328.052 140.065 328.742C140.985 329.087 142.02 329.662 143.055 330.467C143.515 330.927 144.09 331.387 144.435 331.962C144.895 332.537 145.47 333.227 145.125 334.377C144.895 334.952 144.205 335.182 143.86 335.182C143.4 335.182 143.055 335.067 142.71 335.067C142.02 334.837 141.33 334.607 140.755 334.262C139.605 333.572 138.8 332.652 138.34 331.732C137.305 330.007 137.535 328.627 137.65 328.627C137.88 328.627 137.995 329.777 139.03 331.272C139.605 331.962 140.295 332.767 141.33 333.342C141.79 333.572 142.365 333.802 143.055 334.032C143.745 334.147 144.32 334.147 144.32 333.917C144.435 333.687 144.205 332.997 143.86 332.537C143.515 332.077 143.055 331.617 142.595 331.157C141.675 330.352 140.755 329.777 139.95 329.317C138.11 328.627 136.96 328.512 136.96 328.282Z" fill="#263238"/>
<path d="M181.462 309.08C181.462 309.08 181.462 309.54 181.232 310.23C181.002 311.15 180.657 312.185 180.312 313.335C179.507 316.095 178.357 319.66 177.207 323.684C176.058 327.709 174.908 331.274 174.103 334.034C173.758 335.299 173.413 336.334 173.183 337.139C172.953 337.829 172.838 338.289 172.723 338.289C172.723 338.289 172.723 337.829 172.953 337.139C173.068 336.334 173.413 335.299 173.758 333.919C174.448 331.274 175.483 327.594 176.632 323.455C177.897 319.43 179.047 315.75 179.967 313.105C180.427 311.84 180.772 310.69 181.117 310C181.232 309.425 181.347 309.08 181.462 309.08Z" fill="#FAFAFA"/>
<path d="M177.668 309.08C177.668 309.08 177.668 309.54 177.438 310.23C177.208 311.15 176.863 312.185 176.518 313.335C175.713 316.095 174.563 319.66 173.413 323.684C172.263 327.709 171.113 331.274 170.308 334.034C169.963 335.299 169.618 336.334 169.388 337.139C169.158 337.829 169.043 338.289 168.928 338.289C168.813 338.289 168.928 337.829 169.158 337.139C169.273 336.334 169.618 335.299 169.963 333.919C170.653 331.274 171.688 327.594 172.838 323.455C174.103 319.43 175.253 315.75 176.173 313.105C176.633 311.84 176.978 310.69 177.323 310C177.438 309.425 177.668 309.08 177.668 309.08Z" fill="#FAFAFA"/>
<path d="M346.481 264.576C348.436 265.841 413.523 331.963 414.788 337.023C416.053 342.083 438.822 443.394 438.822 443.394L416.628 449.719C416.628 449.719 385.579 388.886 385.579 387.046C385.579 385.091 375.114 357.147 375.114 357.147L335.556 322.419L294.388 285.045L346.481 264.576Z" fill="#FFBE9D"/>
<path d="M446.296 450.64L432.382 410.736L401.448 421.086L418.928 463.634L446.296 450.64Z" fill="#455A64"/>
<path d="M445.146 449.604L445.721 450.178C445.721 450.178 479.874 454.893 481.484 460.643L420.537 474.213L416.972 458.343H419.272C428.701 458.228 437.326 454.893 445.146 449.604Z" fill="#000000"/>
<g opacity="0.6">
<g opacity="0.6">
<g opacity="0.6">
<g opacity="0.6">
<path opacity="0.6" d="M424.562 459.608C423.412 460.183 422.952 461.678 423.527 462.828C424.102 463.978 425.597 464.553 426.747 463.978C427.897 463.403 428.587 461.678 427.897 460.528C427.207 459.493 425.367 458.918 424.447 459.723" fill="white"/>
</g>
</g>
</g>
</g>
<g opacity="0.6">
<g opacity="0.6">
<g opacity="0.6">
<path opacity="0.6" d="M420.536 474.098L419.616 469.153L478.379 458.113C478.379 458.113 481.369 458.688 481.484 460.643L420.536 474.098Z" fill="white"/>
</g>
</g>
</g>
<path d="M446.641 449.603C446.641 449.948 445.261 450.408 443.996 451.673C442.731 452.938 442.271 454.433 441.926 454.318C441.696 454.318 441.696 452.478 443.191 450.868C444.686 449.373 446.641 449.258 446.641 449.603Z" fill="#263238"/>
<path d="M453.54 450.869C453.655 451.099 452.505 451.904 451.815 453.399C451.01 454.894 451.125 456.274 450.78 456.274C450.55 456.389 449.975 454.664 450.895 452.824C451.815 451.099 453.54 450.524 453.54 450.869Z" fill="#263238"/>
<path d="M458.945 457.654C458.715 457.769 457.91 456.389 458.37 454.549C458.715 452.709 459.98 451.789 460.21 452.019C460.44 452.249 459.75 453.284 459.405 454.779C458.945 456.274 459.175 457.539 458.945 457.654Z" fill="#263238"/>
<path d="M445.836 449.603C445.836 449.718 444.686 450.178 442.731 450.293C441.811 450.293 440.546 450.293 439.281 450.063C438.591 449.948 438.016 449.718 437.326 449.488C436.981 449.373 436.636 449.258 436.291 449.028C435.946 448.798 435.486 447.993 435.831 447.418C436.061 446.843 436.521 446.613 436.981 446.498C437.441 446.383 437.786 446.383 438.131 446.383C438.821 446.383 439.511 446.498 440.201 446.613C441.466 446.843 442.616 447.303 443.421 447.878C445.146 448.913 445.836 449.833 445.721 449.948C445.606 450.063 444.686 449.258 443.076 448.568C442.271 448.223 441.236 447.878 439.971 447.648C439.396 447.533 438.706 447.533 438.131 447.533C437.441 447.533 436.866 447.648 436.751 447.993C436.751 448.108 436.751 448.108 436.866 448.338C437.096 448.453 437.326 448.568 437.671 448.683C438.246 448.913 438.936 449.143 439.511 449.258C440.661 449.603 441.811 449.718 442.731 449.718C444.686 449.603 445.836 449.373 445.836 449.603Z" fill="#263238"/>
<path d="M445.606 450.064C445.491 450.179 444.686 449.144 444.111 447.304C443.881 446.384 443.651 445.234 443.766 443.854C443.766 443.164 443.881 442.474 444.111 441.784C444.341 441.094 444.571 440.174 445.721 439.829C446.296 439.714 446.871 440.059 447.216 440.404C447.561 440.749 447.676 441.094 447.791 441.439C448.021 442.129 448.251 442.819 448.251 443.509C448.366 444.889 448.021 446.039 447.676 446.959C446.871 448.799 445.721 449.489 445.606 449.374C445.491 449.259 446.411 448.454 446.986 446.729C447.216 445.924 447.446 444.774 447.331 443.624C447.216 443.049 447.101 442.474 446.871 441.899C446.641 441.324 446.296 440.749 446.066 440.979C445.721 441.094 445.376 441.669 445.261 442.244C445.031 442.819 444.916 443.509 444.916 444.084C444.801 445.234 444.801 446.384 445.031 447.304C445.146 448.914 445.721 449.949 445.606 450.064Z" fill="#263238"/>
<path d="M403.979 425.226C403.979 425.226 404.324 424.996 405.128 424.766C405.933 424.421 406.968 424.076 408.233 423.731C410.993 422.811 414.558 421.546 418.468 420.281C422.378 418.901 425.943 417.751 428.703 416.716C429.967 416.256 431.002 415.911 431.807 415.681C432.497 415.451 432.957 415.336 432.957 415.336C432.957 415.336 432.612 415.566 431.922 415.911C431.232 416.256 430.197 416.601 428.933 417.176C426.403 418.211 422.723 419.476 418.813 420.856C414.788 422.236 411.223 423.386 408.578 424.191C407.198 424.536 406.163 424.881 405.473 425.111C404.439 425.226 403.979 425.341 403.979 425.226Z" fill="#FAFAFA"/>
<path d="M406.163 428.329C406.163 428.329 406.508 428.099 407.313 427.869C408.118 427.524 409.153 427.179 410.418 426.834C413.178 425.914 416.743 424.649 420.653 423.384C424.562 422.004 428.127 420.854 430.887 419.819C432.152 419.359 433.187 419.014 433.992 418.784C434.682 418.554 435.142 418.439 435.142 418.439C435.142 418.439 434.797 418.669 434.107 419.014C433.417 419.359 432.382 419.704 431.117 420.279C428.587 421.314 424.907 422.579 420.998 423.959C416.973 425.339 413.408 426.489 410.763 427.294C409.383 427.639 408.348 427.984 407.658 428.214C406.623 428.214 406.163 428.329 406.163 428.329Z" fill="#FAFAFA"/>
<path d="M286.913 239.046C286.913 239.046 252.184 282.629 243.789 286.194C241.144 287.344 250.689 298.499 250.689 298.499L255.404 293.094C270.468 301.029 282.083 311.378 294.042 325.868L314.742 306.433L332.221 329.548L381.784 298.844L357.405 272.625C357.405 272.625 324.516 243.071 294.962 235.136C294.962 235.021 291.627 235.021 286.913 239.046Z" fill="#263238"/>
<path d="M340.156 278.375C340.156 278.375 340.041 278.605 339.811 278.95C339.466 279.295 339.121 279.87 338.546 280.445C337.511 281.71 335.901 283.55 333.831 285.735C329.807 290.22 324.287 296.314 317.962 302.984C311.637 309.654 305.773 315.404 301.403 319.543C299.218 321.613 297.378 323.223 296.113 324.258C295.538 324.718 294.963 325.178 294.618 325.523C294.273 325.753 294.043 325.983 294.043 325.868C294.043 325.753 294.158 325.638 294.503 325.408C294.848 325.063 295.308 324.603 295.883 324.143C297.148 322.993 298.873 321.383 301.058 319.313C305.428 315.174 311.177 309.309 317.502 302.639C323.827 295.969 329.462 289.99 333.486 285.505C335.441 283.32 337.166 281.595 338.316 280.33C338.891 279.755 339.351 279.295 339.696 278.95C340.041 278.49 340.156 278.375 340.156 278.375Z" fill="#455A64"/>
<path d="M294.502 325.178C294.502 325.178 294.272 325.063 294.042 324.718C293.697 324.373 293.237 323.913 292.777 323.338C291.742 322.188 290.132 320.463 288.062 318.393C285.992 316.323 283.577 313.908 280.703 311.379C277.828 308.849 274.608 306.204 271.043 303.444C267.478 300.799 264.028 298.384 260.808 296.314C257.588 294.244 254.599 292.519 252.069 291.139C249.539 289.759 247.469 288.609 245.974 287.919C245.284 287.574 244.709 287.345 244.364 287.115C244.019 286.885 243.789 286.77 243.789 286.77C243.789 286.77 244.019 286.885 244.364 287C244.824 287.23 245.399 287.46 246.089 287.805C247.584 288.494 249.654 289.529 252.299 290.794C254.829 292.174 257.819 293.899 261.153 295.854C264.373 297.924 267.938 300.339 271.388 302.984C274.953 305.629 278.173 308.389 281.048 310.919C283.922 313.563 286.337 315.978 288.292 318.048C290.247 320.118 291.857 321.958 292.892 323.108C293.352 323.683 293.812 324.143 294.042 324.603C294.387 324.948 294.502 325.178 294.502 325.178Z" fill="#455A64"/>
<path d="M313.591 241.115C313.591 241.115 313.476 241.345 313.131 241.69C312.786 242.15 312.326 242.61 311.751 243.3C310.486 244.795 308.761 246.865 306.576 249.395C302.206 254.455 296.112 261.584 289.672 269.634C283.232 277.569 277.482 284.928 273.343 290.333C271.273 292.978 269.663 295.163 268.513 296.658C267.938 297.348 267.478 297.923 267.133 298.383C266.788 298.728 266.673 298.958 266.673 298.958C266.673 298.958 266.788 298.728 267.018 298.268C267.363 297.808 267.708 297.233 268.283 296.543C269.318 295.048 270.928 292.748 272.998 290.103C277.022 284.699 282.657 277.339 289.212 269.289C295.652 261.239 301.746 254.225 306.231 249.165C308.416 246.635 310.256 244.565 311.636 243.185C312.211 242.495 312.786 242.035 313.131 241.575C313.361 241.23 313.591 241.115 313.591 241.115Z" fill="#FAFAFA"/>
<path d="M309.797 240.887C309.797 240.887 309.682 241.117 309.337 241.462C308.992 241.922 308.532 242.382 307.957 243.072C306.692 244.452 304.852 246.521 302.667 248.821C298.183 253.766 292.203 260.551 285.648 268.256C279.093 275.96 273.344 282.975 269.204 288.15C267.134 290.68 265.524 292.75 264.259 294.245C263.684 294.935 263.224 295.51 262.879 295.855C262.534 296.2 262.419 296.43 262.419 296.43C262.419 296.43 262.534 296.2 262.879 295.855C263.224 295.395 263.569 294.82 264.144 294.13C265.294 292.635 266.904 290.565 268.859 287.92C272.884 282.745 278.633 275.615 285.188 267.911C291.743 260.206 297.838 253.421 302.322 248.591C304.622 246.177 306.462 244.222 307.727 242.957C308.302 242.382 308.877 241.807 309.222 241.462C309.567 241.002 309.797 240.887 309.797 240.887Z" fill="#FAFAFA"/>
<path d="M349.125 317.472C349.01 317.587 344.64 311.722 339.466 304.362C334.291 297.003 330.151 291.023 330.266 290.908C330.381 290.793 334.751 296.658 339.926 304.017C345.1 311.377 349.24 317.472 349.125 317.472Z" fill="#455A64"/>
<path d="M407.774 190.058C407.659 191.323 405.359 194.543 402.484 196.268C399.724 197.877 398.689 198.682 392.709 201.557C386.27 204.662 336.477 222.486 336.477 222.486L340.846 212.712L339.811 206.272C353.496 203.282 391.329 192.013 400.989 185.573C402.944 184.193 404.324 181.318 402.599 179.248L402.829 178.558C402.829 178.558 403.749 178.328 406.739 183.388C408.234 185.918 408.004 188.448 407.774 190.058Z" fill="#000000"/>
<g opacity="0.3">
<path opacity="0.3" d="M407.774 190.058C407.659 191.323 405.359 194.543 402.484 196.268C399.724 197.877 398.689 198.682 392.709 201.557C386.27 204.662 336.477 222.486 336.477 222.486L340.846 212.712L339.811 206.272C353.496 203.282 391.329 192.013 400.989 185.573C402.944 184.193 404.324 181.318 402.599 179.248L402.829 178.558C402.829 178.558 403.749 178.328 406.739 183.388C408.234 185.918 408.004 188.448 407.774 190.058Z" fill="black"/>
</g>
<path d="M263.799 212.941L312.212 206.961L318.077 210.181L306.808 223.29C306.808 223.29 245.63 228.465 230.911 237.205C216.881 245.599 212.856 266.644 190.547 268.713C168.238 270.783 111.775 247.324 100.621 252.614L93.9512 235.135C93.9512 235.135 127.53 235.71 152.484 244.679C177.438 253.649 185.258 255.719 197.907 244.679C210.672 233.64 221.481 223.175 243.56 217.886C257.015 214.781 263.799 212.941 263.799 212.941Z" fill="#000000"/>
<g opacity="0.3">
<path opacity="0.3" d="M263.799 212.941L312.212 206.961L318.077 210.181L306.808 223.29C306.808 223.29 245.63 228.465 230.911 237.205C216.881 245.599 212.856 266.644 190.547 268.713C168.238 270.783 111.775 247.324 100.621 252.614L93.9512 235.135C93.9512 235.135 127.53 235.71 152.484 244.679C177.438 253.649 185.258 255.719 197.907 244.679C210.672 233.64 221.481 223.175 243.56 217.886C257.015 214.781 263.799 212.941 263.799 212.941Z" fill="black"/>
</g>
<path d="M221.48 98.8665C221.48 98.9815 202.851 99.2114 179.966 99.2114C157.082 99.2114 138.453 99.0964 138.453 98.8665C138.453 98.6365 157.082 98.5215 179.966 98.5215C202.851 98.6365 221.48 98.7515 221.48 98.8665Z" fill="#455A64"/>
<path d="M167.777 118.644C167.777 118.759 158.693 118.989 147.538 118.989C136.383 118.989 127.299 118.874 127.299 118.644C127.299 118.529 136.383 118.299 147.538 118.299C158.693 118.414 167.777 118.529 167.777 118.644Z" fill="#455A64"/>
<path d="M195.146 109.101C195.146 109.216 158.003 109.446 112.119 109.446C66.2363 109.446 29.0928 109.331 29.0928 109.101C29.0928 108.986 66.2363 108.756 112.119 108.756C158.003 108.756 195.146 108.871 195.146 109.101Z" fill="#455A64"/>
<path d="M343.606 390.265C343.606 390.38 324.976 390.61 302.092 390.61C279.208 390.61 260.579 390.495 260.579 390.265C260.579 390.15 279.208 389.92 302.092 389.92C324.976 389.92 343.606 390.035 343.606 390.265Z" fill="#455A64"/>
<path d="M317.272 400.386C317.272 400.501 280.129 400.731 234.245 400.731C188.362 400.731 151.219 400.616 151.219 400.386C151.219 400.271 188.362 400.041 234.245 400.041C280.129 400.156 317.272 400.271 317.272 400.386Z" fill="#455A64"/>
<path d="M49.4476 453.283C50.2526 450.408 48.2977 447.418 46.1128 445.348C43.9278 443.278 41.3979 441.323 40.363 438.563C38.5231 434.079 40.938 428.214 37.9481 424.419C36.1082 422.234 32.8883 421.429 31.2784 419.129C30.4734 417.864 30.1284 416.369 29.7834 414.874C28.0585 407.4 24.3786 400.385 19.0888 394.865C18.7439 401.535 20.2388 408.205 23.2287 414.069C24.4936 416.484 25.9886 418.784 26.4485 421.429C27.1385 425.684 24.7236 430.169 25.7586 434.309C26.9085 439.138 32.4283 442.358 32.6583 447.303C32.8883 451.443 29.2084 455.123 29.4384 459.378C29.5534 461.218 30.3584 462.828 31.2784 464.322C34.4982 469.727 39.328 473.407 46.4577 473.292L55.3124 473.637L49.4476 453.283Z" fill="#000000"/>
<g opacity="0.3">
<g opacity="0.3">
<g opacity="0.3">
<g opacity="0.3">
<path opacity="0.3" d="M49.4476 453.283C50.2526 450.408 48.2977 447.418 46.1128 445.348C43.9278 443.278 41.3979 441.323 40.363 438.563C38.5231 434.079 40.938 428.214 37.9481 424.419C36.1082 422.234 32.8883 421.429 31.2784 419.129C30.4734 417.864 30.1284 416.369 29.7834 414.874C28.0585 407.4 24.3786 400.385 19.0888 394.865C18.7439 401.535 20.2388 408.205 23.2287 414.069C24.4936 416.484 25.9886 418.784 26.4485 421.429C27.1385 425.684 24.7236 430.169 25.7586 434.309C26.9085 439.138 32.4283 442.358 32.6583 447.303C32.8883 451.443 29.2084 455.123 29.4384 459.378C29.5534 461.218 30.3584 462.828 31.2784 464.322C34.4982 469.727 39.328 473.407 46.4577 473.292L55.3124 473.637L49.4476 453.283Z" fill="black"/>
</g>
</g>
</g>
</g>
<path d="M57.1517 473.982C57.1517 473.982 57.9567 474.211 59.5666 473.982C60.3716 473.867 61.2915 473.637 62.4415 473.292C63.5914 472.947 64.7414 472.372 66.0063 471.337C66.5813 470.877 67.1563 470.187 67.5013 469.382C67.8463 468.577 67.8463 467.657 67.9613 466.737C67.9613 465.817 67.9613 464.897 68.1912 463.862C68.3062 462.942 68.7662 461.907 69.2262 460.987C70.2612 459.147 71.9861 457.422 72.5611 454.892C73.136 452.477 72.6761 449.832 72.3311 447.188C71.8711 444.543 71.5261 441.668 72.5611 438.908C73.481 436.148 75.436 433.618 76.4709 430.513C77.3909 427.408 76.9309 423.959 77.1609 420.624C77.2759 418.899 77.6209 417.289 78.3108 415.679C79.0008 414.069 80.0358 412.689 80.8407 410.964C82.4507 407.629 82.6807 403.834 83.1407 400.154C83.3706 398.315 83.6006 396.36 83.8306 394.52C84.0606 392.565 84.1756 390.725 84.8656 388.885C85.4406 387.045 86.2455 385.205 86.9355 383.365C87.2805 382.445 87.7405 381.525 87.9705 380.49C88.2004 379.455 88.2005 378.42 88.2005 377.5C88.3154 375.43 88.2004 373.476 87.9705 371.406C87.7405 369.336 87.3955 367.381 87.1655 365.311C87.1655 365.196 87.1655 365.081 87.1655 364.966V364.506L86.8205 364.736C84.9806 365.656 83.2556 367.151 82.1057 368.761C80.8407 370.371 79.9208 372.211 79.2308 374.165C77.7359 377.96 77.2759 381.985 76.4709 385.78C75.7809 389.575 74.746 393.255 72.7911 396.475C71.8711 398.085 70.6061 399.464 69.5712 401.074C68.5362 402.569 67.6163 404.294 67.3863 406.134C66.8113 409.929 68.8812 413.149 68.5362 416.484C68.4212 418.094 67.7313 419.704 66.9263 421.084C66.1213 422.464 65.2014 423.844 64.2814 425.108C63.3614 426.373 62.5565 427.753 61.8665 429.133C61.1765 430.513 60.8315 432.123 60.8315 433.618C60.6015 436.608 61.0615 439.368 60.8315 442.128C60.6015 444.773 59.6816 447.188 58.6466 449.372C57.6117 451.557 56.3467 453.512 55.4268 455.467C54.9668 456.387 54.5068 457.307 54.0468 458.227C53.7018 459.147 53.4718 460.067 53.2418 460.987C52.8969 462.827 53.0119 464.552 53.1269 466.047C53.4718 469.037 54.6218 471.222 55.6567 472.487C55.8867 472.832 56.1167 473.062 56.3467 473.292C56.5767 473.522 56.8067 473.637 56.9217 473.751C57.0367 473.866 57.1517 473.982 57.1517 473.982C57.1517 473.982 56.4617 473.522 55.4268 472.257C54.5068 470.992 53.3568 468.807 53.0118 465.817C52.7819 464.322 52.7819 462.597 53.1269 460.872C53.3568 459.952 53.4718 459.032 53.9318 458.112C54.2768 457.192 54.7368 456.272 55.3118 455.352C56.3467 453.512 57.4967 451.557 58.6466 449.372C59.6816 447.188 60.7165 444.773 60.9465 442.013C61.1765 439.253 60.7165 436.493 60.9465 433.503C61.0615 432.008 61.4065 430.628 61.9815 429.248C62.5565 427.868 63.4764 426.603 64.2814 425.223C65.2014 423.959 66.1213 422.579 66.9263 421.199C67.7313 419.819 68.4212 418.209 68.6512 416.369C69.1112 412.804 67.0413 409.584 67.6163 406.019C67.8463 404.294 68.7662 402.684 69.6862 401.189C70.7211 399.694 71.8711 398.2 72.9061 396.59C74.861 393.37 75.8959 389.575 76.5859 385.78C77.3909 381.985 77.8509 378.075 79.3458 374.28C80.0358 372.441 80.9557 370.601 82.2207 368.991C83.3706 367.381 84.9806 366.001 86.8205 365.196L86.3605 364.966C86.3605 365.081 86.3605 365.196 86.3605 365.311C86.5905 367.381 86.9355 369.451 87.1655 371.406C87.3955 373.476 87.5105 375.43 87.3955 377.385C87.2805 378.42 87.2805 379.455 87.1655 380.375C86.9355 381.295 86.5905 382.215 86.1305 383.135C85.3256 384.975 84.5206 386.815 83.9456 388.655C83.3706 390.495 83.1406 392.565 82.9107 394.405C82.6807 396.36 82.4507 398.2 82.3357 400.039C81.8757 403.719 81.6457 407.514 80.1508 410.734C79.4608 412.344 78.4258 413.839 77.7359 415.449C76.9309 417.059 76.5859 418.784 76.5859 420.509C76.3559 423.958 76.8159 427.293 75.8959 430.283C74.976 433.273 73.0211 435.803 72.1011 438.678C71.0661 441.553 71.5261 444.543 71.8711 447.188C72.3311 449.832 72.6761 452.477 72.1011 454.777C71.6411 457.192 69.9162 458.917 68.8812 460.757C68.3062 461.677 67.9613 462.712 67.7313 463.747C67.6163 464.782 67.6163 465.702 67.5013 466.622C67.5013 467.542 67.3863 468.462 67.1563 469.152C66.9263 469.957 66.3513 470.532 65.7763 470.992C64.6264 471.912 63.3614 472.487 62.3265 472.947C61.2915 473.407 60.2566 473.637 59.4516 473.751C58.6466 473.866 58.0716 473.867 57.6117 473.982C57.3817 473.982 57.1517 473.982 57.1517 473.982Z" fill="#263238"/>
<path d="M85.0955 369.91C85.0955 369.91 85.0955 370.025 84.9805 370.14C84.9805 370.37 84.8655 370.6 84.7505 370.945C84.5205 371.635 84.4055 372.67 84.0605 374.05C83.7155 375.315 82.9106 376.81 82.2206 378.65C81.5306 380.49 80.8407 382.56 80.1507 384.86C79.4607 387.159 78.8857 389.804 78.3108 392.679C77.6208 395.439 77.0458 398.429 75.4359 401.304C74.7459 402.684 73.9409 404.179 73.251 405.789C72.561 407.399 72.216 409.124 71.986 410.849C71.526 414.298 70.9511 417.863 70.0311 421.543C68.3062 428.788 66.5812 435.688 65.0863 442.012C63.4763 448.222 62.0964 453.857 60.9465 458.687C59.7965 463.401 58.8765 467.196 58.1866 469.956C57.8416 471.221 57.6116 472.256 57.4966 473.061C57.3816 473.406 57.3816 473.636 57.2666 473.866C57.2666 474.096 57.2666 474.096 57.2666 474.096C57.2666 474.096 57.2666 473.981 57.3816 473.866C57.4966 473.636 57.4966 473.406 57.6116 473.061C57.8416 472.371 58.0716 471.336 58.4166 470.071C59.1065 467.426 60.1415 463.516 61.4064 458.917C62.6714 454.202 64.0513 448.567 65.6613 442.242C67.1562 435.918 68.8811 429.018 70.7211 421.773C71.526 418.093 72.216 414.528 72.676 411.078C72.906 409.354 73.251 407.629 73.9409 406.134C74.5159 404.639 75.3209 403.144 76.1259 401.649C77.7358 398.774 78.3108 395.669 79.0007 392.909C79.5757 390.149 80.1507 387.504 80.8407 385.09C81.5306 382.79 82.2206 380.605 82.7956 378.88C83.4856 377.04 84.1755 375.545 84.5205 374.165C84.8655 372.785 84.9805 371.75 85.0955 371.06C85.0955 370.715 85.2105 370.485 85.2105 370.255C85.0955 370.025 85.0955 369.91 85.0955 369.91Z" fill="#263238"/>
<path d="M58.7618 473.983C64.5116 470.533 66.2365 460.183 63.8216 453.858C61.4067 447.649 57.1519 441.899 56.5769 435.229C56.1169 430.054 57.7269 424.764 56.5769 419.82C54.967 413.035 48.2972 407.745 48.4122 400.845C48.4122 396.936 50.7121 393.256 50.4822 389.346C50.2522 384.516 46.5723 380.721 44.2724 376.581C40.8225 370.142 40.5926 362.437 39.3276 355.307C38.1776 348.063 35.4178 340.358 28.978 336.793C28.058 342.888 26.4481 347.143 26.9081 355.422C27.1381 358.412 30.5879 364.162 31.0479 370.717C31.2779 374.626 31.5079 378.536 31.7379 382.446C31.9679 386.241 32.1979 390.151 33.5778 393.716C34.6128 396.476 36.3377 398.89 37.1427 401.765C38.6376 407.055 36.6827 412.805 37.8327 418.21C38.8676 422.81 41.9725 426.719 42.6625 431.319C43.5824 437.759 39.3276 444.544 41.5125 450.753C42.5475 453.858 45.0774 456.273 45.8823 459.493C46.4573 461.908 45.8823 464.553 46.3423 467.083C47.1473 471.108 54.737 474.212 58.8768 473.868" fill="#000000"/>
<path d="M30.5879 342.771C30.5879 342.771 30.5879 342.886 30.5879 343.116C30.5879 343.346 30.7029 343.691 30.7029 344.151C30.8179 345.071 30.9329 346.336 31.2779 348.061C31.6228 349.786 32.4278 351.626 33.1178 353.926C33.8078 356.226 34.6127 358.871 35.1877 361.861C35.8777 364.851 36.4527 368.07 37.0276 371.635C37.6026 375.085 38.2926 378.995 40.0175 382.675C40.8225 384.515 41.7424 386.355 42.4324 388.31C43.1224 390.265 43.4674 392.335 43.6974 394.519C44.0424 398.889 44.6173 403.374 45.4223 407.974C47.1472 417.059 48.8722 425.798 50.3671 433.618C51.977 441.438 53.472 448.567 54.6219 454.547C55.8869 460.412 56.8068 465.242 57.6118 468.691C57.9568 470.301 58.1868 471.566 58.4168 472.486C58.5318 472.946 58.5318 473.176 58.6468 473.521C58.6468 473.751 58.7618 473.866 58.7618 473.866C58.7618 473.866 58.7618 473.751 58.7618 473.521C58.7618 473.291 58.6468 472.946 58.5318 472.486C58.4168 471.566 58.0718 470.301 57.8418 468.691C57.1518 465.357 56.2319 460.527 55.0819 454.547C53.932 448.567 52.437 441.438 50.9421 433.618C49.4471 425.683 47.7222 417.059 45.9973 407.974C45.1923 403.374 44.6173 398.889 44.2723 394.519C44.0424 392.335 43.6974 390.15 43.0074 388.195C42.3174 386.24 41.3975 384.285 40.5925 382.445C38.8676 378.88 38.2926 375.085 37.6026 371.52C37.0276 367.955 36.4527 364.736 35.7627 361.746C35.0727 358.756 34.2677 356.111 33.5778 353.811C32.8878 351.511 31.9678 349.556 31.6228 347.946C31.2779 346.336 31.1629 344.956 30.9329 344.151C30.8179 343.691 30.8179 343.461 30.7029 343.116C30.5879 342.886 30.5879 342.771 30.5879 342.771Z" fill="#263238"/>
<path d="M346.251 429.365C348.551 429.71 350.621 431.205 352.001 433.045C353.381 435 354.071 437.3 354.416 439.6C355.106 444.085 353.841 449.144 352.231 453.399C347.631 451.214 345.331 445.925 344.296 443.165C342.571 438.68 342.226 429.825 346.251 429.365Z" fill="#000000"/>
<path d="M358.44 459.38C357.175 457.08 357.405 454.09 358.9 451.905C360.28 449.72 362.695 448.225 365.34 447.765C366.49 447.535 367.87 447.535 368.79 448.34C369.71 449.03 369.94 450.295 369.71 451.445C369.48 452.595 368.79 453.515 368.1 454.32C365.34 457.195 362.35 459.495 358.44 459.38Z" fill="#000000"/>
<path d="M357.52 473.985C357.52 473.985 357.405 473.64 357.405 473.065C357.29 472.375 357.29 471.57 357.175 470.535C357.06 468.465 356.715 465.36 357.52 462.141C358.325 458.921 359.82 456.276 361.43 454.781C362.235 453.976 362.925 453.516 363.385 453.171C363.615 453.056 363.845 452.941 363.96 452.826C364.075 452.711 364.19 452.711 364.19 452.711C364.19 452.826 363.04 453.401 361.545 454.896C360.05 456.391 358.555 459.036 357.865 462.256C357.06 465.475 357.29 468.465 357.405 470.535C357.52 471.57 357.52 472.49 357.52 473.065C357.52 473.64 357.52 473.985 357.52 473.985Z" fill="#263238"/>
<path d="M347.055 436.15C347.055 436.15 347.17 436.265 347.17 436.495C347.285 436.725 347.4 437.185 347.515 437.645C347.86 438.565 348.32 439.945 348.78 441.67C349.815 445.12 351.31 449.95 352.805 455.24C354.3 460.529 355.45 465.359 356.255 468.924C356.715 470.649 356.945 472.144 357.175 473.064C357.29 473.524 357.405 473.869 357.405 474.214C357.405 474.444 357.52 474.559 357.52 474.559C357.52 474.559 357.52 474.444 357.405 474.214C357.29 473.869 357.175 473.524 357.06 473.064C356.83 472.029 356.485 470.649 356.025 468.924C355.105 465.474 353.84 460.644 352.46 455.24C350.965 449.95 349.585 445.12 348.55 441.67C348.09 439.945 347.63 438.565 347.285 437.53C347.17 437.07 347.055 436.725 346.94 436.38C347.055 436.38 347.055 436.15 347.055 436.15Z" fill="#263238"/>
<path d="M352.806 463.749C350.506 458.689 345.676 455.009 340.156 453.974C338.776 453.744 337.051 453.744 336.361 455.009C335.556 456.159 336.246 457.769 337.166 458.919C340.731 463.634 347.171 465.819 352.806 464.094" fill="#000000"/>
<path d="M341.996 458C341.996 458 342.341 458 342.916 458.115C343.146 458.115 343.491 458.23 343.951 458.345C344.296 458.46 344.756 458.575 345.216 458.69C345.676 458.805 346.251 459.035 346.711 459.265C347.286 459.495 347.861 459.84 348.436 460.07C349.586 460.76 350.851 461.565 352.001 462.715C353.151 463.75 354.071 464.9 354.761 466.05C355.106 466.625 355.451 467.2 355.681 467.66C355.911 468.235 356.141 468.695 356.371 469.155C356.601 469.615 356.715 470.075 356.83 470.419C356.945 470.764 357.06 471.109 357.06 471.454C357.175 472.029 357.176 472.374 357.176 472.374C357.061 472.374 356.945 471.109 356.141 469.27C355.911 468.81 355.796 468.35 355.451 467.775C355.221 467.2 354.876 466.74 354.531 466.165C353.841 465.015 352.921 463.98 351.771 462.83C350.621 461.795 349.471 460.99 348.321 460.3C347.746 459.955 347.171 459.61 346.711 459.38C346.136 459.15 345.676 458.92 345.216 458.69C343.261 458.23 341.996 458.115 341.996 458Z" fill="#263238"/>
</svg>
