<svg width="58" height="57" viewBox="0 0 58 57" fill="none" xmlns="http://www.w3.org/2000/svg">
<path d="M56.7837 17.4971L48.5198 3.03497C47.6395 1.49503 46.0018 0.544434 44.2279 0.544434H13.2445C11.4706 0.544434 9.83281 1.49503 8.95259 3.03497L0.688649 17.4968C0.18922 18.3709 -0.0188381 19.3541 0.0527992 20.3168L28.7362 27.3259L57.4195 20.3168C57.4912 19.3541 57.2831 18.3712 56.7837 17.4971Z" fill="#F8F6F5"/>
<path d="M8.95259 3.03516L0.688649 17.497C0.18922 18.3711 -0.0188381 19.3542 0.0527992 20.317L10.2037 22.7974L8.96351 20.317C5.25666 12.9036 8.95259 3.03516 8.95259 3.03516Z" fill="#EAEAEA"/>
<path d="M38.623 0.544922C38.623 0.544922 48.4117 16.0554 57.42 20.3176L46.0492 23.0962L47.2734 20.3176L38.623 0.544922Z" fill="#EAEAEA"/>
<path d="M25.0292 0.544922C25.0292 0.544922 24.9004 15.9607 36.1512 20.3176L28.7365 27.3266L20.0859 20.3176L25.0292 0.544922Z" fill="#EAEAEA"/>
<path d="M0.0527344 20.3179C0.121577 21.2405 0.447 22.1444 1.02594 22.9161L24.7816 54.5902C26.7587 57.2266 30.7132 57.2266 32.6906 54.5902L56.4463 22.9161C57.0252 22.1444 57.3506 21.2403 57.4195 20.3179H0.0527344Z" fill="#EAEAEA"/>
<path d="M57.4209 20.3179C57.4209 20.3179 43.1208 31.036 38.4941 40.3499L47.2745 20.3179H57.4209Z" fill="#CCCCCC"/>
<path d="M36.1512 20.3179C36.1512 20.3179 22.4418 26.4927 25.0777 40.3499L20.0859 20.3179H36.1512Z" fill="#CCCCCC"/>
<path d="M28.1099 56.527L21.3208 20.3179H8.96289L26.9146 56.2214C27.301 56.3735 27.7027 56.4754 28.1099 56.527Z" fill="#000000"/>
<path d="M30.5568 56.2214L48.5086 20.3179H36.1506L29.3613 56.527C29.7688 56.4754 30.1704 56.3735 30.5568 56.2214Z" fill="#000000"/>
<path d="M32.4434 0.544922L36.1507 20.3176H48.5087L38.6222 0.544922H32.4434Z" fill="#CCCCCC"/>
<path d="M18.8491 0.544922L8.96289 20.3176H21.3208L25.0282 0.544922H18.8491Z" fill="#CCCCCC"/>
<path d="M18.8491 0.544922C18.8491 0.544922 14.6449 12.9318 21.3206 20.3176H8.96289L18.8491 0.544922Z" fill="#000000"/>
<path d="M32.4434 0.544922C32.4434 0.544922 37.1209 16.0554 48.5087 20.3176H36.1507L32.4434 0.544922Z" fill="#000000"/>
<path d="M0.0527344 20.3179C0.121577 21.2405 0.447 22.1444 1.02594 22.9161L14.1013 40.3499C4.99164 28.2036 8.96345 20.3179 8.96345 20.3179H0.0527344Z" fill="#CCCCCC"/>
<path d="M21.3208 20.3179H8.96289L18.9789 40.3499C14.4101 31.4148 21.3208 20.3179 21.3208 20.3179Z" fill="#4F4F4F"/>
<path d="M48.5103 20.3179C48.5103 20.3179 34.964 26.0824 32.3965 40.3499L36.1526 20.3179H48.5103Z" fill="#4F4F4F"/>
</svg>
