<svg width="600" height="300" viewBox="0 0 600 300" fill="none" xmlns="http://www.w3.org/2000/svg">
<path d="M0 10C0 4.47716 4.47715 0 10 0H590C595.523 0 600 4.47715 600 10V300H0V10Z" fill="#000000"/>
<g clip-path="url(#clip0_6277_29253)">
<path d="M453.705 198.404L440.591 229.602L486.939 249.083L500.052 217.885L453.705 198.404Z" fill="#B0FF8B"/>
<path d="M500 218.295C500 218.295 499.817 218.417 499.391 218.539C498.965 218.66 498.357 218.904 497.626 219.147C496.044 219.634 493.853 220.365 491.114 221.217C485.575 222.921 477.906 225.295 469.507 227.973L469.324 228.034L469.263 227.851C469.203 227.729 469.142 227.607 469.02 227.425C464.759 219.573 460.925 212.452 458.125 207.218C456.786 204.662 455.63 202.592 454.839 201.071C454.473 200.401 454.169 199.793 453.986 199.366C453.804 199.001 453.682 198.758 453.682 198.758C453.682 198.758 453.804 198.94 454.047 199.306C454.291 199.732 454.595 200.279 454.96 200.949C455.812 202.41 456.908 204.479 458.369 207.035C461.229 212.209 465.125 219.33 469.385 227.121C469.446 227.242 469.507 227.364 469.629 227.547L469.385 227.425C477.845 224.869 485.453 222.556 491.053 220.852C493.792 220.06 496.044 219.391 497.626 218.904C498.357 218.721 498.965 218.539 499.391 218.417C499.817 218.356 500 218.295 500 218.295Z" fill="#97E373"/>
<path d="M440.597 230.045C440.536 229.923 445.831 227.123 452.404 223.776C458.978 220.428 464.334 217.811 464.395 217.872C464.456 217.994 459.16 220.794 452.587 224.141C446.014 227.55 440.597 230.167 440.597 230.045Z" fill="#97E373"/>
<path d="M479.915 223.958C480.037 223.897 481.68 229.618 483.627 236.678C485.575 243.738 487.036 249.46 486.914 249.52C486.792 249.581 485.149 243.86 483.201 236.8C481.254 229.74 479.793 224.018 479.915 223.958Z" fill="#97E373"/>
<path d="M156.71 255.364L146.946 278.594L181.398 293.075L191.162 269.845L156.71 255.364Z" fill="#000080"/>
<path d="M191.175 270.218C191.175 270.218 191.053 270.279 190.749 270.401C190.444 270.523 189.958 270.644 189.41 270.827C188.253 271.192 186.61 271.74 184.541 272.349C180.402 273.627 174.741 275.392 168.472 277.34L168.351 277.4L168.29 277.279C168.229 277.157 168.168 277.096 168.107 276.974C164.942 271.131 162.082 265.836 160.012 261.941C158.978 260.054 158.186 258.472 157.578 257.376C157.334 256.828 157.091 256.463 156.908 256.098C156.787 255.794 156.665 255.672 156.726 255.672C156.726 255.672 156.847 255.794 156.969 256.098C157.152 256.402 157.395 256.828 157.699 257.315C158.308 258.411 159.16 259.932 160.195 261.819C162.325 265.654 165.186 270.949 168.412 276.792C168.472 276.913 168.533 276.974 168.594 277.096L168.412 277.035C174.681 275.148 180.402 273.383 184.541 272.105C186.549 271.497 188.253 271.01 189.41 270.644C189.958 270.462 190.384 270.34 190.749 270.279C190.992 270.218 191.175 270.218 191.175 270.218Z" fill="#97E373"/>
<path d="M146.926 278.98C146.866 278.919 150.822 276.789 155.691 274.294C160.56 271.798 164.577 269.851 164.638 269.912C164.699 269.972 160.743 272.103 155.874 274.598C151.004 277.094 146.987 279.041 146.926 278.98Z" fill="#97E373"/>
<path d="M176.202 274.418C176.263 274.418 177.541 278.618 178.941 283.852C180.341 289.086 181.436 293.347 181.376 293.408C181.315 293.408 180.037 289.208 178.637 283.974C177.237 278.739 176.141 274.479 176.202 274.418Z" fill="#97E373"/>
<path d="M140.836 179.209L99.9814 195.398L115.655 234.952L156.509 218.763L140.836 179.209Z" fill="#000080"/>
<path d="M117.468 230.29L120.754 205.457L135.118 214.83L138.04 205.64L152.039 216.595L117.468 230.29Z" fill="#97E373"/>
<path d="M132.38 196.265C133.049 197.908 132.258 199.734 130.615 200.343C128.971 201.012 127.146 200.221 126.537 198.578C125.867 196.934 126.659 195.108 128.302 194.5C129.884 193.83 131.71 194.682 132.38 196.265Z" fill="#97E373"/>
<g opacity="0.3">
<g opacity="0.3">
<g opacity="0.3">
<path opacity="0.3" d="M152.039 216.716C152.039 216.716 152.039 216.655 151.978 216.534C151.917 216.412 151.856 216.29 151.795 216.047C151.613 215.621 151.369 215.012 151.065 214.282C150.456 212.699 149.543 210.447 148.387 207.587C146.074 201.805 142.787 193.588 138.831 183.728L139.075 183.85C129.093 187.806 117.224 192.553 104.565 197.544C104.504 197.605 104.808 197.057 104.686 197.301V197.361V197.422L104.747 197.544L104.869 197.848L105.112 198.396L105.538 199.492C105.843 200.222 106.147 200.952 106.451 201.744C107.06 203.204 107.608 204.665 108.217 206.126C109.373 209.047 110.468 211.847 111.564 214.647C113.755 220.186 115.825 225.42 117.711 230.228L117.468 230.106C127.815 226.028 136.397 222.681 142.483 220.307C145.526 219.151 147.9 218.177 149.543 217.568C150.335 217.264 151.004 217.021 151.43 216.838C151.613 216.777 151.795 216.716 151.917 216.655C151.978 216.716 152.039 216.716 152.039 216.716C152.039 216.716 151.978 216.716 151.917 216.777C151.795 216.838 151.674 216.899 151.43 216.96C151.004 217.142 150.395 217.386 149.604 217.69C147.961 218.36 145.587 219.273 142.605 220.49C136.518 222.924 127.876 226.394 117.59 230.532L117.407 230.593L117.346 230.411C115.459 225.602 113.329 220.368 111.138 214.829C110.042 212.091 108.886 209.23 107.73 206.308C107.182 204.848 106.573 203.387 105.965 201.926C105.66 201.196 105.356 200.465 105.052 199.674L104.626 198.579L104.504 198.031L104.382 197.727L104.321 197.605V197.544V197.483C104.199 197.727 104.443 197.118 104.443 197.179C117.103 192.188 128.971 187.501 138.953 183.545L139.136 183.484L139.196 183.667C143.092 193.588 146.318 201.865 148.63 207.647C149.726 210.508 150.639 212.76 151.248 214.343C151.552 215.073 151.734 215.682 151.917 216.108C151.978 216.29 152.039 216.412 152.1 216.534C152.039 216.655 152.039 216.716 152.039 216.716Z" fill="#97E373"/>
</g>
</g>
</g>
<path d="M374.924 287.381L372.733 285.798C371.454 284.885 370.602 283.546 370.237 282.025L368.655 275.33C367.62 270.887 363.542 268.026 359.16 268.33L358.551 265.713C358.369 265.044 357.76 264.618 357.09 264.8C356.421 264.983 355.995 265.591 356.177 266.261L356.786 268.817C352.526 270.339 349.969 274.904 351.004 279.408L352.526 285.859C352.83 287.259 352.708 288.72 352.1 290.059L350.7 293.041L359.708 290.972C360.316 291.824 361.229 292.433 362.203 292.615C363.664 292.859 365.185 292.189 366.038 291.033C366.403 290.546 366.585 289.937 366.646 289.389L374.924 287.381Z" fill="#B0FF8B"/>
<path d="M380.158 104.727L419.111 130.168L402.678 157.252L362.812 130.229L380.158 104.727Z" fill="#000080"/>
<path d="M380.158 104.726L408.338 102.048C409.556 101.927 410.651 102.657 411.016 103.813L419.111 130.168" fill="#000000"/>
<path d="M380.158 104.726L408.338 102.048C409.556 101.927 410.651 102.657 411.016 103.813L419.111 130.168" fill="#97E373"/>
<path d="M362.812 130.229C362.812 130.168 368.168 128.829 374.741 127.247C381.376 125.664 386.732 124.508 386.732 124.569C386.732 124.63 381.376 125.969 374.802 127.551C368.229 129.134 362.812 130.351 362.812 130.229Z" fill="#97E373"/>
<path d="M402.678 157.251C402.617 157.251 401.765 151.956 400.852 145.383C399.939 138.809 399.209 133.453 399.331 133.453C399.392 133.453 400.244 138.748 401.157 145.322C402.07 151.895 402.8 157.251 402.678 157.251Z" fill="#97E373"/>
<path d="M380.158 104.727L389.349 132.846L419.111 130.168L380.158 104.727Z" fill="#97E373"/>
<path d="M381.132 107.467L389.106 95.3555L423.311 117.449L415.277 130.474L389.471 132.604L381.132 107.467Z" fill="#FAFAFA"/>
<path d="M381.132 107.466C381.132 107.466 381.193 107.649 381.315 107.953C381.437 108.258 381.558 108.684 381.802 109.292C382.228 110.449 382.776 112.153 383.506 114.344C384.967 118.726 387.036 124.995 389.592 132.603L389.471 132.543C396.896 131.934 405.721 131.143 415.277 130.351L415.155 130.412C416.677 127.917 418.32 125.361 419.964 122.683C421.059 120.917 422.155 119.152 423.25 117.387L423.311 117.631C409.556 108.684 397.383 100.832 389.166 95.4762H389.288C386.793 99.2498 384.784 102.293 383.384 104.362C382.715 105.397 382.167 106.188 381.802 106.736C381.619 106.98 381.498 107.223 381.376 107.345C381.193 107.406 381.132 107.466 381.132 107.466C381.132 107.466 381.193 107.406 381.254 107.284C381.376 107.162 381.498 106.919 381.619 106.675C381.984 106.127 382.471 105.336 383.141 104.302C384.48 102.171 386.488 99.1281 388.984 95.2936L389.106 95.1719L389.166 95.2327C397.444 100.589 409.617 108.44 423.372 117.326L423.494 117.387L423.433 117.509C422.337 119.213 421.242 120.978 420.146 122.804C418.503 125.421 416.86 128.039 415.338 130.534L415.277 130.595H415.216C405.661 131.386 396.835 132.116 389.41 132.725H389.288L389.227 132.603C386.732 124.995 384.662 118.665 383.263 114.283C382.532 112.092 381.984 110.388 381.619 109.232C381.437 108.684 381.315 108.197 381.193 107.893C381.193 107.649 381.132 107.466 381.132 107.466Z" fill="#97E373"/>
<path d="M413.938 120.006C413.877 120.067 408.643 116.719 402.191 112.52C395.74 108.32 390.566 104.851 390.627 104.79C390.688 104.729 395.922 108.077 402.374 112.276C408.825 116.476 413.999 119.945 413.938 120.006Z" fill="#97E373"/>
<path d="M411.625 123.412C411.564 123.473 406.33 120.126 399.878 115.926C393.427 111.726 388.253 108.257 388.314 108.196C388.375 108.135 393.609 111.483 400.061 115.682C406.512 119.882 411.686 123.351 411.625 123.412Z" fill="#97E373"/>
<path d="M409.069 127.369C409.008 127.43 403.774 124.083 397.322 119.883C390.87 115.683 385.697 112.214 385.758 112.153C385.819 112.092 391.053 115.44 397.505 119.639C403.895 123.839 409.069 127.308 409.069 127.369Z" fill="#97E373"/>
<path d="M406.452 131.325C406.391 131.386 401.4 128.221 395.253 124.204C389.106 120.187 384.176 116.9 384.236 116.778C384.297 116.717 389.288 119.882 395.435 123.899C401.522 127.916 406.452 131.203 406.452 131.325Z" fill="#97E373"/>
<path d="M399.818 131.874C399.818 131.874 399.635 131.813 399.27 131.57C398.844 131.326 398.357 131.022 397.809 130.657C396.531 129.804 394.827 128.77 393.001 127.613C391.114 126.396 389.471 125.3 388.253 124.509C387.645 124.083 387.158 123.779 386.854 123.535C386.549 123.292 386.367 123.17 386.367 123.109C386.367 123.109 386.549 123.17 386.914 123.414C387.341 123.657 387.827 123.961 388.375 124.327C389.653 125.179 391.358 126.213 393.184 127.37C395.07 128.587 396.714 129.683 397.931 130.474C398.54 130.9 399.026 131.204 399.331 131.448C399.635 131.691 399.818 131.874 399.818 131.874Z" fill="#97E373"/>
<path d="M393.183 132.298C393.123 132.359 391.966 131.69 390.627 130.777C389.288 129.864 388.193 129.073 388.253 129.012C388.314 128.951 389.471 129.62 390.81 130.533C392.21 131.446 393.244 132.237 393.183 132.298Z" fill="#97E373"/>
<path d="M244.188 127.551L238.223 136.437L235.91 135.463L218.564 146.419L215.155 137.229C215.155 137.229 224.954 134.307 227.085 131.203C229.215 128.099 227.328 127.064 227.328 127.064L232.319 122.621L244.188 127.551Z" fill="#B0FF8B"/>
<path d="M240.17 107.404C240.17 107.404 233.293 104.969 224.467 94.1962C215.642 83.4232 212.477 70.094 211.26 70.0331C210.042 69.9722 204.991 66.8073 192.209 87.6837C179.428 108.499 182.836 114.16 184.845 114.342C186.853 114.525 201.035 112.395 209.495 114.342C217.955 116.351 228.423 122.133 228.423 122.133L240.17 107.404Z" fill="#B0FF8B"/>
<path d="M253.743 122.07L250.761 126.392L249.422 128.339C247.596 131.017 244.005 131.748 241.266 130.043L226.719 122.922L237.979 103.75L252.221 113.671C254.96 115.558 255.63 119.331 253.743 122.07Z" fill="#97E373"/>
<path d="M192.939 88.1726C186.123 99.4934 182.593 109.84 185.088 111.362C187.583 112.884 195.131 104.91 201.947 93.5895C208.764 82.2688 212.294 71.9218 209.799 70.4002C207.364 68.9395 199.817 76.8518 192.939 88.1726Z" fill="#97E373"/>
<path d="M250.517 122.497C250.457 122.619 248.509 121.584 246.135 120.184C243.822 118.785 241.936 117.506 242.057 117.385C242.118 117.263 244.066 118.298 246.44 119.698C248.752 121.097 250.578 122.315 250.517 122.497Z" fill="#B0FF8B"/>
<path d="M252.1 119.76C252.039 119.882 250.274 118.847 248.144 117.508C246.074 116.169 244.431 114.952 244.492 114.83C244.553 114.708 246.318 115.743 248.448 117.082C250.578 118.421 252.222 119.638 252.1 119.76Z" fill="#B0FF8B"/>
<path d="M248.57 125.3C248.57 125.36 248.083 125.178 247.292 124.873C246.926 124.691 246.5 124.508 245.953 124.265C245.466 124.021 244.979 123.717 244.431 123.352C242.301 122.013 240.718 120.796 240.779 120.674C240.84 120.552 242.605 121.587 244.735 122.865C245.283 123.169 245.77 123.534 246.196 123.778C246.683 124.021 247.109 124.265 247.413 124.508C248.144 124.934 248.57 125.239 248.57 125.3Z" fill="#B0FF8B"/>
<path d="M204.26 86.8335C204.26 86.8335 198.539 82.2687 194.218 90.181C189.836 98.0934 196.165 100.224 196.165 100.224C199.33 96.4501 202.008 92.007 204.26 86.8335Z" fill="#FAFAFA"/>
<path d="M212.051 77.7031C212.112 77.7031 211.929 78.2509 211.625 79.2856C211.321 80.2594 210.834 81.7202 210.225 83.4852C209.86 84.3373 209.434 85.3112 209.008 86.285C208.764 86.7719 208.582 87.3197 208.338 87.8675C208.216 88.1109 208.095 88.4152 207.973 88.6587C207.851 88.9022 207.669 89.2065 207.547 89.4499C206.938 90.5455 206.33 91.7019 205.721 92.8583C205.538 93.1627 205.417 93.467 205.234 93.7713C205.052 94.0756 204.869 94.3799 204.686 94.6234C204.321 95.232 203.956 95.7798 203.53 96.3885C203.165 96.9971 202.739 97.6057 202.374 98.1535C202.191 98.4578 202.008 98.7622 201.826 99.0056C201.643 99.2491 201.4 99.5534 201.217 99.7969C200.426 100.892 199.635 101.866 198.843 102.901C198.661 103.144 198.478 103.388 198.296 103.631C198.113 103.875 197.87 104.057 197.687 104.301C197.322 104.727 196.896 105.153 196.531 105.579C195.8 106.37 195.07 107.161 194.461 107.831C193.122 109.109 191.966 110.144 191.235 110.813C190.444 111.483 190.018 111.909 190.018 111.848C190.018 111.848 190.383 111.422 191.114 110.631C191.844 109.9 192.94 108.805 194.218 107.527C194.826 106.796 195.496 106.066 196.226 105.214C196.591 104.788 196.957 104.362 197.322 103.936C197.504 103.692 197.687 103.51 197.93 103.266C198.113 103.023 198.296 102.779 198.478 102.536C199.209 101.562 200 100.527 200.791 99.4317C200.974 99.1882 201.217 98.8839 201.4 98.6404C201.582 98.397 201.765 98.0927 201.947 97.7883C202.313 97.1797 202.678 96.6319 203.104 96.0233C203.469 95.4146 203.895 94.8669 204.26 94.2582C204.443 93.9539 204.625 93.7104 204.808 93.4061C204.991 93.1018 205.112 92.7975 205.295 92.4931C205.904 91.3367 206.573 90.1803 207.121 89.0847C207.243 88.8413 207.425 88.537 207.547 88.2935C207.669 88.0501 207.79 87.7457 207.912 87.5023C208.156 86.9545 208.399 86.4676 208.582 85.9807C209.008 85.0068 209.434 84.033 209.86 83.1809C210.529 81.4767 211.016 80.0768 211.381 79.0421C211.747 78.19 211.99 77.7031 212.051 77.7031Z" fill="#97E373"/>
<path d="M179.063 94.0753C179.063 94.1361 174.559 94.0144 169.081 93.771C163.542 93.5275 159.099 93.2232 159.099 93.1014C159.099 93.0406 163.603 93.1623 169.081 93.4058C174.559 93.7101 179.063 94.0144 179.063 94.0753Z" fill="#B0FF8B"/>
<path d="M183.384 81.048C183.323 81.1089 178.15 78.6135 171.82 75.3877C165.49 72.1619 160.317 69.5447 160.377 69.423C160.438 69.3621 165.612 71.8575 171.942 75.0833C178.332 78.3091 183.445 80.9872 183.384 81.048Z" fill="#B0FF8B"/>
<path d="M191.235 72.6506C191.175 72.6506 190.018 68.7553 188.74 63.8862C187.401 59.017 186.427 55 186.488 55C186.549 55 187.705 58.8953 188.983 63.7645C190.322 68.6336 191.296 72.5898 191.235 72.6506Z" fill="#B0FF8B"/>
<path d="M225.624 266.505C225.259 265.653 224.65 264.984 223.859 264.558C223.128 264.071 222.215 263.827 221.363 263.888C220.45 263.949 219.537 264.436 218.929 265.166C218.564 265.592 218.32 266.14 218.259 266.627C217.894 266.262 217.468 266.018 216.981 265.836C216.068 265.531 215.094 265.653 214.303 266.079C213.512 266.505 212.964 267.236 212.599 268.027C212.234 268.818 212.051 269.731 212.173 270.644C212.355 271.74 212.903 272.835 213.755 273.626C214.607 274.418 215.825 274.965 216.92 275.209C218.868 275.696 221.363 276.304 221.363 276.304C221.363 276.304 222.763 274.418 224.102 272.957C224.893 272.105 225.624 271.009 225.928 269.853C226.232 268.757 226.05 267.54 225.624 266.505Z" fill="#B0FF8B"/>
<path d="M465.125 149.584C465.064 149.584 465.186 148.428 464.76 146.358C464.577 145.324 464.151 144.106 463.421 142.828C462.69 141.55 461.656 140.211 460.256 139.055C458.856 137.898 457.03 136.924 454.9 136.437C452.769 136.011 450.396 135.951 448.083 136.742C446.927 137.107 445.77 137.655 444.735 138.385C444.188 138.75 443.701 139.176 443.214 139.602C442.788 140.089 442.301 140.515 441.875 141.063C440.231 143.133 439.197 145.811 439.075 148.61C439.014 151.41 439.805 154.149 441.266 156.34C441.631 156.888 442.057 157.375 442.483 157.862C442.97 158.288 443.396 158.775 443.883 159.14C444.857 159.931 445.953 160.601 447.109 161.027C449.361 162 451.735 162.122 453.865 161.879C455.995 161.574 457.882 160.722 459.404 159.688C460.925 158.653 462.082 157.375 462.873 156.158C463.664 154.94 464.212 153.784 464.455 152.749C465.064 150.741 465.064 149.584 465.125 149.584C465.125 149.584 465.125 149.645 465.125 149.767C465.125 149.949 465.125 150.132 465.064 150.375C465.064 150.68 465.003 150.984 464.942 151.41C464.881 151.836 464.821 152.262 464.638 152.749C464.395 153.784 463.847 154.94 463.056 156.218C462.264 157.497 461.108 158.775 459.586 159.87C458.065 160.966 456.117 161.818 453.926 162.183C451.735 162.487 449.3 162.305 446.987 161.331C445.831 160.905 444.735 160.235 443.701 159.383C443.153 159.018 442.727 158.531 442.24 158.044C441.814 157.557 441.388 157.01 441.023 156.462C439.44 154.21 438.649 151.41 438.71 148.489C438.832 145.628 439.866 142.828 441.631 140.759C442.057 140.211 442.544 139.724 442.97 139.298C443.457 138.872 444.005 138.446 444.553 138.081C445.648 137.35 446.805 136.742 447.961 136.437C450.335 135.646 452.83 135.707 454.961 136.133C457.152 136.62 458.978 137.655 460.438 138.872C461.899 140.089 462.934 141.489 463.603 142.767C464.273 144.106 464.699 145.324 464.881 146.358C465.003 146.845 465.064 147.332 465.064 147.758C465.125 148.184 465.125 148.489 465.125 148.793C465.125 149.036 465.125 149.28 465.125 149.402C465.125 149.523 465.125 149.584 465.125 149.584Z" fill="#97E373"/>
<path d="M451.978 162.608C450.456 162.608 448.691 162.364 446.926 161.634C445.77 161.208 444.614 160.538 443.579 159.686C443.153 159.382 442.727 158.956 442.362 158.591L442.118 158.347L441.875 158.043C441.509 157.617 441.144 157.191 440.84 156.643C439.257 154.33 438.405 151.47 438.527 148.487C438.649 145.505 439.744 142.705 441.509 140.575C441.875 140.088 442.24 139.723 442.666 139.297L442.909 139.053L443.214 138.81C443.64 138.445 444.066 138.079 444.492 137.836C445.587 137.045 446.805 136.497 448.022 136.132C450.822 135.219 453.439 135.462 455.143 135.827C457.152 136.253 459.099 137.227 460.743 138.627C462.082 139.723 463.177 141.123 464.029 142.644C464.699 143.922 465.125 145.201 465.368 146.296C465.49 146.722 465.49 147.209 465.551 147.574V147.696C465.612 148.061 465.612 148.365 465.612 148.731V149.339C465.612 149.461 465.612 149.522 465.612 149.583C465.612 149.644 465.612 149.704 465.612 149.765L465.551 150.374C465.551 150.739 465.49 151.104 465.429 151.409V151.53C465.368 151.896 465.307 152.322 465.125 152.809C464.82 153.904 464.273 155.121 463.542 156.339C462.629 157.799 461.412 159.078 459.951 160.051C458.186 161.269 456.178 162.121 454.169 162.425C453.378 162.547 452.708 162.608 451.978 162.608ZM451.978 136.436C450.822 136.436 449.483 136.619 448.204 137.045C447.048 137.41 446.013 137.897 444.918 138.627C444.492 138.871 444.127 139.236 443.701 139.54L443.214 140.027C442.848 140.392 442.483 140.757 442.179 141.183C440.536 143.192 439.562 145.809 439.44 148.548C439.379 151.287 440.11 153.965 441.57 156.095C441.875 156.582 442.179 156.947 442.544 157.373L442.788 157.617L443.031 157.86C443.396 158.225 443.761 158.591 444.127 158.895C445.1 159.686 446.135 160.295 447.231 160.721C449.726 161.816 452.222 161.756 453.865 161.512C455.752 161.269 457.638 160.538 459.282 159.382C460.621 158.469 461.777 157.252 462.629 155.913C463.36 154.756 463.907 153.661 464.212 152.626C464.638 151.226 464.699 150.313 464.76 149.826C464.76 149.704 464.76 149.583 464.82 149.522C464.82 149.461 464.82 149.339 464.82 149.218C464.82 148.731 464.76 147.757 464.516 146.357C464.334 145.322 463.847 144.105 463.238 142.949C462.447 141.549 461.412 140.271 460.134 139.236C458.551 137.958 456.725 137.106 454.9 136.68C454.047 136.558 453.074 136.436 451.978 136.436Z" fill="#97E373"/>
<path d="M460.621 158.954C460.682 158.893 463.482 161.693 466.768 165.284C470.055 168.875 472.672 171.796 472.611 171.918C472.551 171.979 469.812 169.179 466.464 165.588C463.177 161.997 460.56 159.015 460.621 158.954Z" fill="#97E373"/>
<path d="M472.733 172.224H472.611C472.489 172.224 472.185 172.224 466.281 165.772C460.317 159.32 460.377 159.077 460.377 158.955V158.833L460.499 158.773C460.743 158.529 460.804 158.529 462.812 160.598C463.968 161.816 465.49 163.398 467.073 165.163C468.655 166.867 470.177 168.511 471.272 169.789C473.159 171.919 473.159 171.98 472.916 172.224H472.733Z" fill="#97E373"/>
<path d="M163.481 132.6L160.925 133.635L152.282 128.157L150.274 123.105C150.274 123.105 146.257 124.444 149.361 130.896C152.465 137.348 151.308 135.826 151.308 135.826C151.308 135.826 142.97 139.174 142.605 140.208C142.3 140.939 145.405 149.277 147.109 153.842C147.961 156.094 150.213 157.676 152.526 157.372C152.83 157.311 153.195 157.25 153.5 157.129C155.569 156.276 165.49 150.373 165.49 150.373L169.872 148.608L163.481 132.6Z" fill="#B0FF8B"/>
<path d="M170.176 128.277L175.593 146.293L171.211 147.997L164.394 131.016L170.176 128.277Z" fill="#B0FF8B"/>
<path d="M421.363 264.07L418.381 264.557L410.347 256.523L409.373 250.559C409.373 250.559 404.687 251.046 406.513 258.775C408.339 266.505 407.426 264.618 407.426 264.618C407.426 264.618 397.626 266.262 396.957 267.235C396.47 267.966 397.809 277.765 398.6 283.06C398.965 285.738 401.035 287.929 403.591 288.173C403.956 288.234 404.322 288.173 404.687 288.112C407.121 287.686 419.294 283.669 419.294 283.669L424.468 282.817L421.363 264.07Z" fill="#000080"/>
<path d="M429.641 261.027L431.162 281.721L426.05 282.573L422.763 262.549L429.641 261.027Z" fill="#000080"/>
<path d="M262.447 283.365C265.307 283.121 267.925 281.113 268.959 278.009C270.237 273.992 268.29 269.731 264.516 268.514C260.743 267.296 256.665 269.548 255.326 273.566C254.352 276.67 255.265 279.895 257.517 281.782C246.5 280.017 243.335 291.581 243.335 291.581L268.168 299.615C268.107 299.676 272.368 288.295 262.447 283.365Z" fill="#B0FF8B"/>
<path d="M424.407 252.076H179.611C158.734 252.076 141.814 235.156 141.814 214.279V211.601C141.814 190.725 158.734 173.805 179.611 173.805H424.407C445.283 173.805 462.203 190.725 462.203 211.601V214.279C462.143 235.156 445.283 252.076 424.407 252.076Z" fill="#000000"/>
<g opacity="0.3">
<path opacity="0.3" d="M424.407 252.076H179.611C158.734 252.076 141.814 235.156 141.814 214.279V211.601C141.814 190.725 158.734 173.805 179.611 173.805H424.407C445.283 173.805 462.203 190.725 462.203 211.601V214.279C462.143 235.156 445.283 252.076 424.407 252.076Z" fill="black"/>
</g>
<path d="M423.068 245.626H180.95C159.343 245.626 141.875 228.097 141.875 206.551C141.875 184.945 159.404 167.477 180.95 167.477H423.068C444.675 167.477 462.143 185.005 462.143 206.551C462.143 228.158 444.675 245.626 423.068 245.626Z" fill="#000000"/>
<g opacity="0.3">
<g opacity="0.3">
<path opacity="0.3" d="M374.985 167.477C374.985 167.477 373.22 167.537 372.307 167.537C369.264 167.477 363.786 167.477 363.786 167.477L359.891 174.719C360.804 176.606 361.96 178.797 364.029 179.223C365.064 179.406 366.099 179.162 367.133 178.858C369.568 178.067 371.942 176.911 373.95 175.328C375.168 174.354 376.263 173.137 376.628 171.676C376.993 170.094 376.385 168.085 374.985 167.477Z" fill="black"/>
</g>
</g>
<path d="M206 216.899L207.643 213.247C209.652 214.89 212.878 216.047 215.982 216.047C219.938 216.047 221.581 214.647 221.581 212.76C221.581 207.282 206.548 210.873 206.548 201.5C206.548 197.422 209.774 193.953 216.773 193.953C219.816 193.953 222.981 194.744 225.172 196.205L223.712 199.857C221.46 198.518 218.964 197.848 216.712 197.848C212.817 197.848 211.234 199.37 211.234 201.257C211.234 206.674 226.268 203.144 226.268 212.456C226.268 216.534 222.981 220.003 216.043 220.003C212.026 219.942 208.069 218.725 206 216.899Z" fill="white"/>
<path d="M249.153 200.285V219.579H244.831V217.145C243.37 218.91 241.118 219.883 238.623 219.883C233.693 219.883 230.285 217.145 230.285 211.362V200.346H234.789V210.754C234.789 214.284 236.432 215.927 239.293 215.927C242.458 215.927 244.588 213.98 244.588 210.084V200.346H249.153V200.285Z" fill="white"/>
<path d="M275.568 209.961C275.568 215.986 271.429 219.881 265.769 219.881C263.152 219.881 260.9 218.969 259.378 217.143V219.638H255.057V192.797H259.561V202.657C261.143 200.892 263.273 200.101 265.769 200.101C271.429 200.04 275.568 203.935 275.568 209.961ZM271.003 209.961C271.003 206.248 268.569 203.935 265.282 203.935C262.056 203.935 259.5 206.309 259.5 209.961C259.5 213.673 261.995 215.986 265.282 215.986C268.508 215.986 271.003 213.612 271.003 209.961Z" fill="white"/>
<path d="M277.698 217.691L279.463 214.283C281.168 215.378 283.785 216.17 286.219 216.17C289.08 216.17 290.297 215.378 290.297 214.039C290.297 210.327 278.368 213.796 278.368 206.127C278.368 202.475 281.654 200.102 286.889 200.102C289.445 200.102 292.367 200.71 294.132 201.745L292.367 205.153C290.541 204.058 288.654 203.693 286.828 203.693C284.089 203.693 282.75 204.606 282.75 205.884C282.75 209.779 294.679 206.31 294.679 213.857C294.679 217.448 291.332 219.822 285.915 219.822C282.628 219.882 279.402 218.909 277.698 217.691Z" fill="white"/>
<path d="M296.931 209.962C296.931 204.179 301.253 200.102 307.4 200.102C311.173 200.102 314.156 201.684 315.677 204.606L312.208 206.614C311.052 204.788 309.287 203.936 307.4 203.936C304.052 203.936 301.557 206.249 301.557 209.962C301.557 213.735 304.113 215.987 307.4 215.987C309.287 215.987 311.052 215.135 312.208 213.309L315.677 215.318C314.217 218.239 311.173 219.822 307.4 219.822C301.253 219.882 296.931 215.744 296.931 209.962Z" fill="white"/>
<path d="M330.711 200.039V204.36C330.285 204.3 329.981 204.239 329.676 204.239C326.268 204.239 324.077 206.247 324.077 210.203V219.576H319.573V200.283H323.894V203.082C325.111 201.074 327.485 200.039 330.711 200.039Z" fill="white"/>
<path d="M333.937 194.38C333.937 192.858 335.154 191.641 336.858 191.641C338.501 191.641 339.78 192.736 339.78 194.258C339.78 195.84 338.562 197.058 336.858 197.058C335.154 197.118 333.937 195.901 333.937 194.38ZM334.545 200.283H339.049V219.577H334.545V200.283Z" fill="white"/>
<path d="M365.525 209.961C365.525 215.986 361.387 219.881 355.726 219.881C353.109 219.881 350.857 218.969 349.336 217.143V219.638H345.014V192.797H349.518V202.657C351.101 200.892 353.231 200.101 355.726 200.101C361.326 200.04 365.525 203.935 365.525 209.961ZM360.9 209.961C360.9 206.248 358.465 203.935 355.178 203.935C351.953 203.935 349.396 206.309 349.396 209.961C349.396 213.673 351.892 215.986 355.178 215.986C358.465 215.986 360.9 213.612 360.9 209.961Z" fill="white"/>
<path d="M387.923 211.361H372.768C373.316 214.161 375.69 215.987 379.037 215.987C381.228 215.987 382.932 215.318 384.271 213.918L386.706 216.718C384.941 218.787 382.263 219.882 378.915 219.882C372.464 219.882 368.264 215.744 368.264 209.962C368.264 204.179 372.525 200.102 378.246 200.102C383.906 200.102 387.984 204.058 387.984 210.083C387.984 210.388 387.923 210.935 387.923 211.361ZM372.707 208.379H383.663C383.298 205.579 381.167 203.693 378.185 203.693C375.264 203.693 373.133 205.579 372.707 208.379Z" fill="white"/>
<path d="M391.514 217.021C391.514 215.439 392.731 214.221 394.436 214.221C396.079 214.221 397.296 215.439 397.296 217.021C397.296 218.604 396.079 219.821 394.436 219.821C392.731 219.882 391.514 218.604 391.514 217.021ZM391.758 194.258H397.114L396.201 211.178H392.61L391.758 194.258Z" fill="white"/>
<g opacity="0.3">
<g opacity="0.3">
<path opacity="0.3" d="M235.728 175.267C234.815 173.015 233.354 168.937 231.406 167.477C231.406 167.477 219.112 167.659 219.051 167.477L224.772 187.927C226.598 189.388 227.511 191.396 228.12 193.283C228.728 195.17 229.215 197.239 230.554 198.639C231.954 200.1 234.571 200.465 235.788 198.883C237.127 197.117 235.667 194.622 235.606 192.37C235.545 190.179 236.945 188.17 237.554 186.04C238.588 182.449 237.127 178.676 235.728 175.267Z" fill="black"/>
</g>
</g>
<path d="M328.059 104.361C328.911 102.17 329.763 99.9784 329.763 97.6656C329.763 95.3527 328.728 92.8573 326.72 91.8226C324.833 90.9096 322.581 91.4574 320.572 90.7879C318.138 89.9967 316.494 87.5621 315.338 85.1884C314.182 82.8147 313.208 80.1975 311.382 78.4325C308.886 75.9979 304.869 75.511 301.887 77.1543C299.635 75.6327 296.713 74.9023 294.522 74.9023C291.236 74.9023 287.523 75.2675 285.332 77.7021C283.628 79.5889 282.532 81.9017 280.402 83.3016C277.48 85.1884 273.585 83.7885 270.116 84.032C269.385 84.0929 268.594 84.2754 268.29 84.945C268.046 85.4927 268.351 86.1622 268.655 86.71C269.629 88.5359 270.603 90.4227 271.516 92.2487C270.055 92.979 268.29 92.979 266.829 92.2487C267.073 95.9005 268.716 99.4915 271.272 102.109C270.664 101.683 269.69 102.17 269.446 102.9C269.142 103.63 269.325 104.422 269.568 105.152C270.907 109.595 274.315 113.429 278.576 115.316C282.836 117.203 287.949 117.203 292.149 115.194L311.443 116.047C312.051 117.507 313.329 118.664 314.851 119.029C316.981 117.386 317.286 116.473 317.286 116.473C318.625 117.446 317.59 116.96 318.625 117.446C321.059 118.542 324.528 117.081 325.015 114.342C325.198 113.247 325.502 112.151 326.233 111.36C326.963 110.569 328.059 110.204 328.972 109.717C330.493 108.925 331.71 107.586 332.38 106.004C330.797 106.065 329.215 105.456 328.059 104.361Z" fill="#263238"/>
<path d="M280.402 96.9955C280.463 87.318 287.949 79.3448 297.626 78.6144L298.6 78.5536C309.008 78.371 314.912 87.1354 314.79 97.5432L316.312 145.383L292.636 147.087L291.723 131.566C291.723 131.566 281.68 130.775 280.828 120.793C280.402 115.924 280.341 106.003 280.402 96.9955Z" fill="#FFBE9D"/>
<path d="M285.393 104.544C285.393 105.275 286.062 105.883 286.853 105.883C287.645 105.883 288.253 105.275 288.192 104.484C288.192 103.753 287.523 103.145 286.732 103.145C286.001 103.145 285.393 103.753 285.393 104.544Z" fill="#263238"/>
<path d="M283.445 100.829C283.628 101.012 284.663 100.099 286.184 100.038C287.706 99.9163 288.862 100.586 289.045 100.403C289.106 100.342 288.923 99.9771 288.375 99.6728C287.888 99.3685 287.036 99.0642 286.062 99.125C285.089 99.1859 284.358 99.6119 283.932 99.9771C283.445 100.403 283.324 100.707 283.445 100.829Z" fill="#263238"/>
<path d="M293.549 113.249C293.549 113.188 292.575 113.066 291.053 113.005C290.688 113.005 290.262 112.944 290.201 112.701C290.079 112.397 290.201 111.971 290.384 111.545C290.688 110.571 290.992 109.536 291.297 108.501C292.575 104.18 293.488 100.589 293.305 100.528C293.122 100.467 291.966 103.937 290.627 108.319C290.323 109.414 290.018 110.388 289.714 111.362C289.592 111.788 289.41 112.336 289.653 112.884C289.775 113.188 290.079 113.37 290.323 113.431C290.566 113.492 290.81 113.492 290.992 113.492C292.575 113.37 293.549 113.31 293.549 113.249Z" fill="#263238"/>
<path d="M282.958 97.1166C283.323 97.4209 284.601 96.9948 286.123 96.8731C287.645 96.6905 288.984 96.934 289.288 96.5688C289.41 96.3862 289.166 96.021 288.558 95.7776C287.949 95.4732 287.036 95.2906 285.94 95.3515C284.906 95.4732 283.993 95.8384 283.445 96.2036C282.958 96.6297 282.776 96.9948 282.958 97.1166Z" fill="#263238"/>
<path d="M313.816 104.968C313.999 104.907 320.511 102.473 320.755 109.229C321.059 116.046 314.121 114.889 314.121 114.707C314.121 114.585 313.816 104.968 313.816 104.968Z" fill="#FFBE9D"/>
<path d="M315.521 112.151C315.521 112.151 315.642 112.212 315.825 112.334C316.007 112.395 316.373 112.456 316.738 112.334C317.468 112.029 318.016 110.873 318.016 109.656C318.016 109.047 317.833 108.439 317.59 107.952C317.346 107.465 317.042 107.099 316.677 107.099C316.312 107.039 316.068 107.282 316.007 107.465C315.947 107.647 315.947 107.769 315.947 107.83C315.947 107.83 315.825 107.708 315.825 107.465C315.825 107.343 315.947 107.16 316.068 107.039C316.251 106.917 316.433 106.795 316.738 106.856C317.286 106.856 317.772 107.343 318.016 107.891C318.32 108.439 318.503 109.047 318.503 109.778C318.503 111.177 317.894 112.456 316.92 112.76C316.433 112.882 316.068 112.76 315.825 112.638C315.521 112.334 315.521 112.151 315.521 112.151Z" fill="#EB996E"/>
<path d="M316.129 89.4475C316.129 89.4475 315.582 86.8912 313.512 83.9697C309.921 79.0397 301.826 76.7269 297.201 77.0921C292.575 77.5181 287.767 80.9265 283.506 82.6307C280.706 83.7263 278.576 86.3434 279.611 88.3519C277.907 89.0215 276.202 89.4475 274.376 89.5084C274.376 89.5084 274.194 92.0647 275.655 92.7342L280.098 95.6557C286.002 96.4469 296.409 90.6039 298.418 88.778C300.183 87.1955 302.617 85.3696 304.565 84.3958C302.678 89.3258 308.826 88.2302 308.643 90.1779C306.756 97.1164 312.417 99.7336 312.417 99.7336L312.538 105.82C312.417 107.402 313.086 108.559 314.669 108.498C314.669 108.498 316.373 106.185 316.616 104.298C317.164 100.464 316.799 93.0994 316.129 89.4475Z" fill="#263238"/>
<path d="M291.662 131.505C291.662 131.505 298.052 131.444 304.382 126.758C304.382 126.758 301.826 134.122 291.844 133.94L291.662 131.505Z" fill="#EB996E"/>
<path d="M299.696 103.63C299.696 104.361 300.365 104.969 301.157 104.969C301.948 104.969 302.556 104.361 302.496 103.569C302.496 102.839 301.826 102.23 301.035 102.23C300.304 102.23 299.696 102.839 299.696 103.63Z" fill="#263238"/>
<path d="M298.113 100.039C298.296 100.222 299.513 99.4916 301.156 99.5525C302.8 99.6134 304.017 100.405 304.2 100.222C304.26 100.161 304.078 99.7959 303.591 99.4308C303.104 99.0656 302.191 98.7004 301.156 98.6395C300.122 98.5787 299.209 98.9438 298.722 99.2482C298.174 99.6134 297.991 99.9785 298.113 100.039Z" fill="#263238"/>
<path d="M297.931 95.2297C298.053 95.6557 299.635 95.4731 301.4 95.7166C303.226 95.8992 304.626 96.447 304.869 96.0818C304.991 95.8992 304.748 95.534 304.139 95.108C303.591 94.6819 302.617 94.3167 301.583 94.195C300.487 94.0733 299.513 94.2559 298.844 94.4993C298.174 94.7428 297.87 95.0471 297.931 95.2297Z" fill="#263238"/>
<path d="M293.427 116.169C294.218 115.804 296.531 115.317 297.383 115.195L298.357 114.891C298.844 115.499 298.965 117.082 298.6 117.751C298.235 118.421 297.505 118.908 296.713 119.029C296.166 119.151 295.557 119.09 295.131 118.786C295.009 118.786 293.792 118.238 293.427 116.169Z" fill="#EB996E"/>
<path d="M296.044 119.028C296.044 118.967 296.713 119.028 297.505 118.48C297.87 118.176 298.235 117.75 298.418 117.141C298.6 116.532 298.6 115.802 298.418 115.132C298.418 115.072 298.418 115.072 298.357 115.011L298.539 115.132C297.079 115.437 295.74 115.741 294.827 115.924C293.853 116.106 293.244 116.228 293.244 116.167C293.244 116.106 293.792 115.985 294.766 115.741C295.74 115.498 297.018 115.193 298.478 114.889L298.6 114.828L298.661 114.95C298.661 115.011 298.661 115.011 298.722 115.072C298.965 115.863 298.905 116.654 298.722 117.263C298.478 117.932 298.052 118.419 297.626 118.723C297.2 119.028 296.774 119.149 296.47 119.149C296.226 119.089 296.044 119.028 296.044 119.028Z" fill="#263238"/>
<path d="M327.024 110.202C327.024 110.202 326.902 110.202 326.598 110.08C326.355 109.959 325.989 109.776 325.624 109.35C325.32 108.924 325.015 108.315 324.894 107.585C324.772 106.854 324.894 106.002 325.016 105.029C325.137 104.116 325.198 103.081 324.894 102.046C324.711 101.559 324.407 101.072 323.981 100.707C323.555 100.342 323.007 100.099 322.459 99.7942C321.911 99.5508 321.303 99.2464 320.755 98.8813C320.207 98.5161 319.72 97.9074 319.477 97.2988C318.929 96.0206 318.99 94.5599 318.686 93.2209C318.503 92.5514 318.26 91.8819 317.894 91.3341C317.468 90.7863 316.921 90.482 316.251 90.3603C315.642 90.2385 314.973 90.1777 314.303 90.0559C313.634 89.9342 313.025 89.6299 312.599 89.143C312.173 88.6561 311.991 88.0474 311.808 87.4388C311.686 86.891 311.565 86.2823 311.443 85.7954C311.321 85.2477 311.138 84.7607 310.956 84.3347C310.712 83.9086 310.469 83.4826 310.165 83.1783C308.947 81.7784 307.426 81.2915 306.391 81.1089C305.356 80.9872 304.809 81.1089 304.809 81.048C304.809 81.048 305.356 80.8654 306.452 80.9872C307.487 81.1089 309.069 81.5958 310.347 82.9957C310.652 83.3609 310.956 83.7869 311.199 84.213C311.443 84.6999 311.625 85.1868 311.747 85.7346C311.869 86.2823 311.991 86.8301 312.112 87.3779C312.234 87.9257 312.477 88.4735 312.843 88.9604C313.208 89.3864 313.816 89.6907 314.425 89.7516C315.034 89.8733 315.703 89.8733 316.373 90.0559C317.042 90.1777 317.712 90.5428 318.199 91.1515C318.625 91.7601 318.929 92.4296 319.051 93.16C319.355 94.5599 319.294 96.0206 319.842 97.2379C320.086 97.8466 320.512 98.3335 320.998 98.6987C321.485 99.0638 322.094 99.3073 322.642 99.6116C323.19 99.8551 323.737 100.159 324.224 100.525C324.711 100.89 325.015 101.438 325.198 101.985C325.563 103.081 325.442 104.176 325.32 105.089C325.198 106.002 325.076 106.854 325.198 107.585C325.259 108.315 325.502 108.924 325.807 109.289C326.415 110.141 327.085 110.202 327.024 110.202Z" fill="#455A64"/>
<path d="M272.246 85.9793C272.246 85.9793 272.368 86.0402 272.55 86.1619C272.794 86.3445 273.037 86.5271 273.403 86.7706C274.133 87.2575 275.228 87.9879 276.75 88.4748C278.211 89.0226 280.219 89.266 282.228 88.5965C283.202 88.2313 284.115 87.6227 284.845 86.7097C285.575 85.7968 286.062 84.7621 286.61 83.6665C287.158 82.5709 287.888 81.5363 288.801 80.745C289.714 79.9538 290.688 79.406 291.723 79.0408C293.792 78.3104 295.801 78.3713 297.383 78.6148C298.965 78.9191 300.183 79.406 301.035 79.7712C301.461 79.9538 301.765 80.1364 301.948 80.2581C302.13 80.3798 302.252 80.4407 302.252 80.4407C302.252 80.4407 302.13 80.3798 301.887 80.319C301.644 80.1972 301.339 80.0755 300.913 79.8929C300.061 79.5886 298.844 79.1017 297.261 78.8582C295.679 78.6148 293.731 78.6148 291.784 79.3451C290.81 79.7103 289.836 80.2581 288.984 80.9885C288.132 81.7188 287.462 82.6927 286.914 83.7882C286.367 84.8838 285.819 85.9793 285.088 86.8923C284.358 87.8053 283.384 88.4748 282.35 88.84C280.28 89.5703 278.211 89.2052 276.75 88.6574C275.228 88.1096 274.133 87.3184 273.403 86.8314C273.037 86.588 272.794 86.3445 272.611 86.2228C272.368 86.1011 272.246 85.9793 272.246 85.9793Z" fill="#455A64"/>
<path d="M269.69 95.0488C269.751 94.9879 270.177 95.414 271.029 95.9617C271.881 96.5095 273.098 97.0573 274.62 97.4225C276.081 97.7268 277.481 97.7268 278.454 97.6659C279.428 97.5442 280.037 97.4225 280.037 97.4225C280.037 97.4225 279.915 97.4833 279.611 97.6051C279.367 97.7268 278.941 97.7877 278.454 97.8485C277.481 98.0311 276.02 98.0311 274.498 97.7268C272.977 97.3616 271.698 96.753 270.907 96.1443C270.481 95.84 270.177 95.5965 269.994 95.414C269.751 95.1705 269.69 95.0488 269.69 95.0488Z" fill="#455A64"/>
<path d="M275.411 100.709C275.472 100.648 276.506 101.074 277.845 101.257C279.184 101.5 280.28 101.439 280.341 101.5C280.341 101.561 279.184 101.805 277.845 101.561C276.385 101.379 275.35 100.77 275.411 100.709Z" fill="#455A64"/>
<path d="M292.027 137.29L272.489 142.646L251.43 157.862L257.03 167.478L356.421 167.661C356.421 167.661 352.769 154.392 351.613 150.314C349.848 144.167 347.352 142.402 345.161 140.15C344.492 139.481 342.544 138.263 341.631 138.081C337.675 137.229 319.537 133.151 315.946 133.212C315.946 133.212 311.868 141.672 303.287 141.55C294.705 141.428 292.027 137.29 292.027 137.29Z" fill="#000080"/>
<path d="M332.319 152.869C332.38 152.869 332.562 152.078 333.171 150.861C333.719 149.643 334.753 148.122 336.214 146.661C337.614 145.2 339.136 144.044 340.17 143.253C341.205 142.401 341.875 141.914 341.875 141.853C341.875 141.792 341.144 142.279 340.049 143.009C338.953 143.8 337.431 144.896 335.971 146.418C334.51 147.878 333.475 149.522 332.988 150.8C332.745 151.408 332.562 151.956 332.501 152.321C332.319 152.687 332.319 152.869 332.319 152.869Z" fill="#263238"/>
<path d="M272.976 163.46C273.037 163.46 273.037 162.668 273.037 161.39C273.037 160.112 272.976 158.347 272.793 156.399C272.672 154.452 272.428 152.687 272.246 151.469C272.063 150.191 271.941 149.461 271.88 149.461C271.819 149.461 271.88 150.252 272.002 151.53C272.124 152.93 272.246 154.634 272.428 156.46C272.55 158.347 272.672 160.051 272.732 161.451C272.854 162.668 272.915 163.46 272.976 163.46Z" fill="#263238"/>
<g opacity="0.3">
<g opacity="0.3">
<g opacity="0.3">
<path opacity="0.3" d="M267.133 165.957C268.716 165.471 270.359 164.862 271.576 163.705C272.794 162.549 273.402 160.662 272.672 159.141C274.924 164.192 280.463 167.601 286.001 167.418L262.447 167.723C263.847 166.81 265.49 166.444 267.133 165.957Z" fill="black"/>
</g>
</g>
</g>
<path d="M378.332 167.659C378.332 167.659 375.959 164.433 374.741 163.824C373.585 163.216 371.942 163.216 371.211 163.885C370.481 164.494 370.481 164.494 370.481 164.494C370.481 164.494 366.768 162.85 365.003 164.128C365.003 164.128 361.473 162.485 359.769 164.372C359.769 164.372 357.03 162.607 355.873 164.128C354.717 165.65 354.839 168.267 355.386 169.606C355.934 170.945 356.969 175.51 357.821 175.632C357.821 175.632 360.012 175.875 360.256 174.719C360.56 173.562 360.682 172.954 360.682 172.954C360.682 172.954 361.534 177.093 362.508 177.336C363.481 177.519 365.429 177.458 365.49 175.632C365.49 175.632 366.403 177.032 367.316 176.606C368.229 176.18 369.324 175.571 369.264 174.415C369.142 173.319 369.142 172.163 369.142 172.163C369.142 172.163 369.629 173.806 370.481 173.441C371.272 173.076 372.124 173.136 372.611 171.797C373.098 170.397 374.194 167.78 374.194 167.78H378.332V167.659Z" fill="#FFBE9D"/>
<path d="M369.264 171.979C369.325 171.979 369.081 171.553 368.899 170.823C368.716 170.092 368.594 169.058 368.777 167.962C368.959 166.866 369.507 165.893 369.933 165.345C370.359 164.736 370.724 164.432 370.664 164.371C370.664 164.31 370.238 164.614 369.69 165.162C369.203 165.771 368.594 166.684 368.412 167.901C368.168 169.058 368.351 170.214 368.655 170.944C368.899 171.614 369.203 171.979 369.264 171.979Z" fill="#EB996E"/>
<path d="M364.821 164.066C364.76 164.066 364.577 164.675 364.334 165.71C364.151 166.744 363.968 168.205 364.09 169.788C364.212 171.37 364.516 172.831 364.881 173.805C365.247 174.779 365.551 175.387 365.551 175.387C365.673 175.326 364.638 172.953 364.455 169.788C364.212 166.623 364.942 164.127 364.821 164.066Z" fill="#EB996E"/>
<path d="M359.708 164.371C359.647 164.371 359.342 166.319 359.647 168.753C359.89 171.188 360.621 173.075 360.681 173.014C360.803 172.953 360.255 171.127 360.012 168.692C359.769 166.319 359.829 164.371 359.708 164.371Z" fill="#EB996E"/>
<path d="M345.161 165.287C345.283 164.922 345.709 164.618 346.074 164.557C346.987 164.313 348.022 164.678 348.752 165.287C349.483 165.896 350.213 166.87 350.7 167.722L345.466 167.661C345.526 166.87 344.857 166.078 345.161 165.287Z" fill="#FFBE9D"/>
<path d="M211.868 169.061C212.173 165.774 213.999 162.853 216.798 161.149C218.99 159.871 221.668 159.566 224.102 160.418L234.267 163.948C234.814 164.557 251.552 158.105 251.552 158.105L257.152 167.722L225.137 167.661C227.45 170.4 230.736 173.382 230.736 173.382L232.928 180.625L232.684 187.138C231.528 187.686 229.823 185.677 229.823 185.677L228.85 187.503L229.215 189.268C229.215 189.268 232.197 196.45 232.075 198.032C232.015 198.641 231.649 198.885 231.162 198.945C230.31 199.006 229.519 198.519 229.093 197.728L224.893 189.572C224.893 189.572 221.668 188.781 220.511 187.686C219.294 186.59 217.651 184.521 217.651 184.521L215.581 184.216C215.399 184.277 215.155 184.216 214.851 184.095C213.755 183.547 212.964 182.512 212.781 181.295L211.747 175.817C211.382 174.6 211.625 171.678 211.868 169.061Z" fill="#FFBE9D"/>
<path d="M221.424 183.303C221.363 183.303 221.789 184.885 222.763 186.711C223.737 188.476 224.833 189.693 224.893 189.632C224.954 189.572 223.98 188.293 223.067 186.528C222.033 184.763 221.485 183.242 221.424 183.303Z" fill="#EB996E"/>
<path d="M216.494 182.695C216.373 182.756 216.738 183.608 217.407 184.46C218.077 185.373 218.686 185.982 218.746 185.982C218.807 185.921 218.32 185.19 217.712 184.277C217.042 183.364 216.555 182.634 216.494 182.695Z" fill="#EB996E"/>
<path d="M229.823 190.91C229.884 190.91 229.641 190.119 229.276 188.902C228.91 187.684 228.423 185.98 227.937 184.093C227.693 183.12 227.51 182.268 227.328 181.415C227.145 180.624 227.024 179.833 227.084 179.224C227.206 177.946 227.937 177.398 227.876 177.398C227.876 177.398 227.693 177.459 227.45 177.764C227.206 178.068 226.963 178.555 226.841 179.224C226.719 179.894 226.841 180.685 226.963 181.476C227.145 182.328 227.328 183.241 227.571 184.154C228.058 186.041 228.545 187.745 228.971 188.963C229.458 190.18 229.762 190.91 229.823 190.91Z" fill="#EB996E"/>
<path d="M227.632 178.738C227.571 178.799 227.936 179.164 228.363 179.895C228.789 180.625 229.215 181.721 229.275 182.938C229.336 183.547 229.275 184.216 229.397 184.764C229.519 185.372 229.884 185.799 230.188 186.103C230.797 186.711 231.284 186.894 231.345 186.894C231.406 186.833 230.919 186.529 230.371 185.981C230.128 185.677 229.823 185.251 229.762 184.764C229.641 184.216 229.702 183.668 229.641 182.999C229.58 181.66 229.093 180.564 228.606 179.834C228.058 179.043 227.632 178.738 227.632 178.738Z" fill="#EB996E"/>
<path d="M225.259 167.723C225.32 167.662 224.102 166.688 222.946 165.167C221.729 163.706 220.998 162.367 220.876 162.428C220.876 162.428 220.998 162.793 221.303 163.341C221.607 163.889 222.094 164.619 222.702 165.349C223.859 166.932 225.198 167.784 225.259 167.723Z" fill="#EB996E"/>
<g opacity="0.3">
<path opacity="0.3" d="M330.554 167.659L330.919 158.469L324.467 167.659H330.554Z" fill="black"/>
</g>
<path d="M330.554 167.658C330.493 167.658 330.554 165.223 330.675 162.241C330.858 159.259 331.041 156.824 331.162 156.824C331.223 156.824 331.162 159.259 331.041 162.241C330.797 165.223 330.615 167.658 330.554 167.658Z" fill="#263238"/>
<path d="M328.545 135.645C328.545 135.645 328.667 135.827 328.728 136.253C328.789 136.679 328.728 137.288 328.302 137.957C327.876 138.627 327.146 139.296 326.05 139.601C325.015 139.905 323.737 139.905 322.398 139.905C321.729 139.905 320.998 139.905 320.268 140.027C319.538 140.148 318.807 140.331 318.138 140.757C317.468 141.183 316.981 141.853 316.616 142.583C316.251 143.313 316.007 144.166 315.825 145.078C315.642 145.931 315.46 146.844 315.155 147.757C314.851 148.669 314.425 149.582 313.816 150.374C312.538 151.895 310.591 152.991 308.46 153.173C306.33 153.295 304.261 152.443 302.8 151.165C302.07 150.495 301.461 149.704 301.035 148.852C300.548 148.061 300.061 147.27 299.27 146.844C298.539 146.418 297.626 146.357 296.774 146.418C295.922 146.478 295.131 146.661 294.34 146.844C293.549 147.026 292.757 147.148 292.027 147.148C291.236 147.209 290.566 147.026 289.897 146.783C288.558 146.357 287.584 145.565 286.853 144.713C286.123 143.922 285.697 143.07 285.393 142.34C285.271 141.974 285.21 141.67 285.149 141.366C285.088 141.061 285.088 140.818 285.088 140.635C285.088 140.453 285.088 140.27 285.088 140.148C285.088 140.027 285.088 139.966 285.088 139.966C285.149 139.966 284.967 140.818 285.514 142.279C285.758 143.009 286.245 143.8 286.975 144.592C287.706 145.383 288.679 146.113 289.958 146.539C290.566 146.722 291.297 146.904 292.027 146.844C292.757 146.844 293.488 146.661 294.279 146.539C295.07 146.357 295.861 146.174 296.713 146.113C297.566 146.052 298.539 146.113 299.331 146.539C300.183 147.026 300.73 147.817 301.217 148.669C301.704 149.461 302.252 150.252 302.982 150.921C304.382 152.2 306.391 152.991 308.46 152.869C310.469 152.747 312.356 151.713 313.573 150.191C314.851 148.73 315.155 146.783 315.521 145.018C315.703 144.166 315.947 143.253 316.312 142.461C316.677 141.67 317.225 141.001 317.955 140.514C318.625 140.027 319.416 139.844 320.207 139.722C320.937 139.601 321.668 139.601 322.337 139.662C323.676 139.722 324.954 139.722 325.989 139.418C327.024 139.114 327.754 138.505 328.18 137.897C328.606 137.288 328.667 136.679 328.667 136.253C328.606 135.827 328.545 135.645 328.545 135.645Z" fill="white"/>
<path d="M298.965 166.991C298.965 166.991 298.904 166.869 298.844 166.565C298.783 166.26 298.661 165.834 298.539 165.347C298.235 164.313 297.809 162.791 296.713 161.148C296.47 160.722 296.105 160.356 295.74 159.991C295.374 159.626 294.887 159.322 294.401 159.078C293.427 158.591 292.209 158.409 290.931 158.47C289.653 158.53 288.375 158.835 286.975 159.139C285.636 159.443 284.175 159.748 282.654 159.687C281.193 159.626 279.61 159.2 278.576 158.165C277.541 157.131 277.115 155.731 276.993 154.453C276.872 153.174 276.993 151.896 277.054 150.801C277.176 149.644 277.237 148.61 277.115 147.636C276.993 145.688 276.019 144.288 275.228 143.68C274.376 143.01 273.707 142.949 273.768 142.949C273.768 142.949 273.828 142.949 273.889 142.949C273.95 142.949 274.072 142.949 274.194 143.01C274.498 143.071 274.863 143.254 275.289 143.558C276.141 144.227 277.176 145.627 277.359 147.636C277.48 148.61 277.419 149.705 277.298 150.801C277.237 151.957 277.115 153.174 277.237 154.392C277.359 155.609 277.785 156.948 278.758 157.922C279.732 158.896 281.193 159.322 282.593 159.322C284.054 159.383 285.453 159.078 286.853 158.774C288.192 158.47 289.531 158.165 290.87 158.104C292.149 158.044 293.427 158.226 294.461 158.774C295.009 159.017 295.435 159.383 295.8 159.748C296.166 160.113 296.531 160.539 296.774 160.965C297.87 162.608 298.235 164.191 298.539 165.226C298.661 165.773 298.783 166.139 298.844 166.443C298.965 166.808 298.965 166.991 298.965 166.991Z" fill="white"/>
<path d="M331.284 159.2C331.223 159.26 330.31 158.591 328.606 158.165C327.754 157.982 326.719 157.861 325.563 157.921C324.406 158.043 323.189 158.347 321.972 159.017C320.815 159.686 319.842 160.539 319.111 161.452C318.381 162.364 317.894 163.338 317.65 164.13C317.407 164.982 317.407 165.712 317.529 166.138C317.65 166.625 317.833 166.808 317.772 166.868C317.772 166.868 317.711 166.808 317.65 166.686C317.59 166.564 317.468 166.382 317.407 166.138C317.224 165.651 317.224 164.86 317.468 164.008C317.711 163.156 318.198 162.182 318.929 161.208C319.659 160.234 320.633 159.382 321.85 158.713C323.067 158.043 324.346 157.678 325.563 157.617C326.78 157.556 327.815 157.678 328.667 157.921C329.519 158.165 330.189 158.469 330.615 158.713C330.858 158.834 330.98 158.956 331.102 159.017C331.223 159.139 331.284 159.2 331.284 159.2Z" fill="white"/>
<path d="M337.858 142.765C337.797 142.765 337.614 142.521 337.492 142.034C337.31 141.547 337.249 140.817 337.432 140.026C337.614 139.235 337.918 138.565 338.284 138.2C338.588 137.774 338.892 137.591 338.892 137.652C338.953 137.713 338.04 138.626 337.736 140.147C337.371 141.547 337.918 142.765 337.858 142.765Z" fill="white"/>
<path d="M352.708 154.878C352.708 154.878 352.708 154.999 352.648 155.121C352.587 155.304 352.526 155.547 352.343 155.852C352.039 156.46 351.491 157.312 350.578 158.164C349.665 158.956 348.326 159.747 346.683 159.929C345.039 160.173 343.274 159.625 341.509 159.199C340.596 158.956 339.744 158.834 338.892 158.773C338.04 158.773 337.249 158.895 336.458 159.138C334.997 159.625 333.78 160.538 332.988 161.39C332.197 162.303 331.71 163.155 331.467 163.764C331.223 164.372 331.162 164.738 331.102 164.738C331.102 164.738 331.102 164.616 331.162 164.494C331.223 164.312 331.223 164.068 331.345 163.764C331.588 163.094 332.015 162.242 332.806 161.268C333.597 160.355 334.814 159.442 336.336 158.895C337.127 158.651 337.979 158.469 338.831 158.469C339.744 158.469 340.596 158.651 341.509 158.895C343.274 159.321 344.979 159.869 346.561 159.625C348.144 159.442 349.422 158.712 350.335 157.982C351.248 157.191 351.795 156.399 352.1 155.791C352.587 155.182 352.708 154.817 352.708 154.878Z" fill="white"/>
<path d="M271.333 165.956C271.333 165.956 271.272 165.956 271.15 166.017C271.028 166.017 270.785 166.017 270.542 166.017C269.994 166.017 269.203 165.834 268.35 165.469C267.498 165.043 266.525 164.373 265.794 163.278C265.429 162.73 265.125 162.121 264.942 161.452C264.759 160.782 264.699 160.052 264.577 159.382C264.394 157.983 264.151 156.583 263.36 155.67C262.568 154.757 261.473 154.392 260.56 154.209C259.647 154.026 258.856 154.026 258.369 153.965C257.821 153.965 257.517 153.965 257.517 153.905C257.517 153.905 257.821 153.844 258.369 153.844C258.916 153.844 259.647 153.844 260.621 153.965C261.534 154.148 262.751 154.452 263.603 155.487C264.029 155.974 264.333 156.583 264.516 157.252C264.699 157.922 264.82 158.652 264.881 159.322C264.942 160.052 265.064 160.721 265.246 161.391C265.429 162.06 265.672 162.608 266.038 163.156C266.707 164.191 267.62 164.86 268.472 165.286C270.116 166.077 271.333 165.895 271.333 165.956Z" fill="white"/>
<path d="M296.531 269.486C298.052 272.225 298.296 274.903 298.296 274.903H301.582L315.277 274.66L315.155 274.903C315.155 274.903 317.407 264.374 317.772 261.27C318.137 258.713 319.72 252.505 317.772 249.766C317.042 248.793 315.764 248.367 314.607 248.732C313.938 248.914 313.268 249.401 313.025 250.436C313.025 250.436 312.842 246.784 310.225 246.723C307.608 246.662 307.486 248.732 307.486 248.732C307.486 248.732 306.756 244.593 303.834 244.593C303.834 244.593 302.069 244.654 301.4 246.601V245.323V238.811C301.4 237.228 300.182 235.828 298.539 235.768C296.896 235.707 295.496 237.046 295.496 238.689L295.252 257.009L290.809 251.288C289.653 249.827 286.853 250.558 286.549 251.836C286.549 251.836 285.758 253.479 287.401 255.975C288.801 257.801 296.531 269.486 296.531 269.486Z" fill="#B0FF8B"/>
<path d="M296.53 269.487C296.53 269.487 296.47 269.365 296.287 269.183C296.165 269 295.922 268.696 295.678 268.33C295.131 267.539 294.4 266.383 293.365 264.922C292.392 263.461 291.174 261.635 289.774 259.505C289.044 258.47 288.314 257.314 287.522 256.097C287.096 255.488 286.731 254.819 286.549 254.088C286.366 253.358 286.244 252.506 286.549 251.715C286.731 251.228 287.096 250.862 287.522 250.68C287.949 250.436 288.435 250.315 288.983 250.315C289.47 250.315 290.018 250.376 290.444 250.68C290.566 250.741 290.687 250.862 290.748 250.923C290.87 251.045 290.931 251.106 291.053 251.228C291.235 251.41 291.357 251.654 291.54 251.836C292.818 253.48 294.157 255.123 295.496 256.949L295.252 257.01C295.313 251.897 295.374 246.298 295.435 240.333C295.435 239.968 295.435 239.603 295.435 239.237C295.435 238.872 295.435 238.446 295.496 238.081C295.678 237.29 296.165 236.62 296.835 236.133C297.504 235.707 298.356 235.525 299.148 235.707C299.939 235.89 300.669 236.438 301.095 237.107C301.339 237.472 301.46 237.837 301.521 238.264C301.582 238.69 301.582 239.116 301.582 239.481C301.582 240.272 301.582 241.063 301.582 241.855C301.582 243.437 301.582 245.08 301.582 246.724L301.278 246.663C301.46 245.993 301.947 245.324 302.617 244.898C302.921 244.715 303.165 244.593 303.53 244.533C303.651 244.472 303.834 244.472 304.017 244.472C304.199 244.472 304.321 244.472 304.504 244.533C305.112 244.654 305.721 245.019 306.147 245.446C306.999 246.358 307.425 247.515 307.669 248.732H307.364C307.425 247.88 307.973 247.15 308.703 246.845C309.068 246.663 309.434 246.602 309.86 246.602C310.042 246.602 310.225 246.602 310.407 246.602L310.712 246.663L311.016 246.724C311.807 246.967 312.294 247.637 312.659 248.306C312.964 248.976 313.146 249.706 313.207 250.436H312.903C313.085 249.645 313.633 248.976 314.364 248.671C315.094 248.367 315.946 248.428 316.616 248.732C316.981 248.915 317.285 249.097 317.589 249.402C317.894 249.645 318.015 250.01 318.198 250.315C318.502 250.984 318.685 251.715 318.746 252.445C318.989 255.306 318.381 258.105 317.955 260.662C317.589 263.279 317.042 265.774 316.616 268.148C316.129 270.522 315.642 272.774 315.216 274.904L314.972 274.843C315.033 274.782 315.033 274.66 315.094 274.6L315.216 274.782C309.677 274.843 305.112 274.904 301.521 274.965L301.582 274.904V274.965H301.521C300.243 274.965 299.208 274.965 298.235 274.965H298.174V274.904C297.93 273.078 297.443 271.678 297.078 270.826C296.896 270.4 296.713 270.035 296.652 269.791C296.591 269.609 296.53 269.487 296.53 269.487C296.53 269.487 296.835 269.913 297.2 270.826C297.565 271.739 298.113 273.078 298.356 274.965L298.295 274.904C299.208 274.904 300.304 274.904 301.582 274.904L301.521 274.965V274.904H301.582C305.173 274.843 309.799 274.721 315.277 274.6H315.459L315.398 274.782C315.337 274.843 315.337 274.965 315.277 275.026L315.033 274.965C315.459 272.834 315.946 270.582 316.433 268.209C316.92 265.835 317.407 263.34 317.772 260.722C318.198 258.105 318.807 255.366 318.502 252.567C318.442 251.897 318.259 251.167 317.955 250.558C317.772 250.254 317.65 249.949 317.346 249.706C317.103 249.463 316.798 249.28 316.494 249.097C315.885 248.793 315.094 248.793 314.424 249.036C313.755 249.28 313.268 249.889 313.146 250.558L312.903 251.593L312.842 250.497C312.781 249.828 312.599 249.097 312.355 248.489C312.051 247.88 311.564 247.271 310.894 247.089C310.225 246.906 309.494 246.967 308.825 247.211C308.155 247.454 307.729 248.124 307.669 248.793L307.547 249.828L307.303 248.793C307.06 247.697 306.634 246.541 305.843 245.689C305.051 244.837 303.773 244.472 302.799 245.141C302.191 245.506 301.765 246.115 301.582 246.724L301.278 247.697V246.663C301.278 245.019 301.278 243.376 301.278 241.794C301.278 241.002 301.278 240.211 301.278 239.42C301.278 238.994 301.278 238.629 301.217 238.264C301.156 237.898 301.034 237.533 300.791 237.229C300.426 236.62 299.756 236.133 299.026 235.951C298.295 235.768 297.504 235.951 296.896 236.316C296.287 236.681 295.861 237.351 295.678 238.02C295.617 238.385 295.617 238.75 295.617 239.116C295.617 239.481 295.617 239.846 295.617 240.211C295.557 246.176 295.435 251.775 295.374 256.888V257.253V257.071C293.974 255.306 292.696 253.601 291.418 251.958C291.113 251.532 290.809 251.106 290.444 250.862C290.018 250.619 289.531 250.558 289.105 250.558C288.618 250.558 288.192 250.68 287.766 250.923C287.34 251.106 287.036 251.471 286.914 251.836C286.67 252.567 286.67 253.358 286.914 254.088C287.096 254.819 287.462 255.427 287.888 256.036C288.679 257.253 289.409 258.349 290.14 259.444C291.54 261.575 292.696 263.4 293.731 264.861C294.704 266.322 295.435 267.478 295.983 268.27C296.226 268.635 296.409 268.939 296.53 269.183C296.53 269.426 296.53 269.487 296.53 269.487Z" fill="#263238"/>
<path d="M315.52 279.649H298.357C297.078 279.649 295.983 278.614 295.983 277.275V277.092C295.983 275.814 297.018 274.719 298.357 274.719H315.52C316.799 274.719 317.894 275.753 317.894 277.092V277.275C317.833 278.553 316.799 279.649 315.52 279.649Z" fill="#B0FF8B"/>
<path d="M315.52 279.649C315.52 279.649 315.703 279.649 316.007 279.589C316.312 279.528 316.798 279.345 317.225 278.858C317.407 278.615 317.59 278.31 317.711 278.006C317.833 277.641 317.833 277.215 317.772 276.789C317.651 275.937 316.92 275.024 315.825 274.902C311.321 274.902 305.173 274.902 298.357 274.902C297.565 274.902 296.774 275.389 296.409 276.058C296.226 276.424 296.105 276.789 296.165 277.154C296.165 277.58 296.226 277.945 296.409 278.25C296.774 278.919 297.444 279.406 298.174 279.467C298.904 279.467 299.696 279.467 300.426 279.467C303.408 279.467 306.025 279.467 308.277 279.528C310.469 279.528 312.295 279.589 313.573 279.589C314.181 279.589 314.668 279.589 315.033 279.589C315.338 279.589 315.52 279.649 315.52 279.649C315.52 279.649 315.338 279.649 315.033 279.71C314.668 279.71 314.181 279.71 313.573 279.71C312.295 279.71 310.469 279.71 308.277 279.771C306.025 279.771 303.347 279.771 300.426 279.832C299.696 279.832 298.965 279.832 298.113 279.832C297.261 279.771 296.47 279.223 296.105 278.493C295.922 278.128 295.8 277.641 295.8 277.215C295.8 276.789 295.922 276.363 296.105 275.937C296.531 275.145 297.383 274.598 298.296 274.598C305.113 274.598 311.321 274.598 315.825 274.659C317.042 274.841 317.772 275.815 317.894 276.728C317.955 277.215 317.894 277.641 317.772 278.006C317.651 278.371 317.468 278.676 317.225 278.919C316.798 279.406 316.251 279.528 315.946 279.589C315.642 279.649 315.52 279.649 315.52 279.649Z" fill="#263238"/>
<path d="M301.46 253.42C301.4 253.42 301.278 251.837 301.278 249.89C301.278 247.942 301.339 246.359 301.46 246.359C301.521 246.359 301.643 247.942 301.643 249.89C301.582 251.837 301.521 253.42 301.46 253.42Z" fill="#263238"/>
<path d="M307.547 252.932C307.486 252.932 307.364 251.959 307.364 250.802C307.364 249.646 307.425 248.672 307.547 248.672C307.608 248.672 307.729 249.646 307.729 250.802C307.729 251.959 307.669 252.932 307.547 252.932Z" fill="#263238"/>
<path d="M313.146 254.698C313.086 254.698 312.964 253.724 312.964 252.568C312.964 251.411 313.025 250.438 313.146 250.438C313.268 250.438 313.329 251.411 313.329 252.568C313.268 253.785 313.207 254.698 313.146 254.698Z" fill="#263238"/>
<path d="M294.461 235.465C294.4 235.526 292.939 234.856 291.113 233.943C289.288 233.03 287.888 232.178 287.888 232.117C287.949 232.056 289.409 232.726 291.235 233.639C293.061 234.552 294.461 235.404 294.461 235.465Z" fill="#263238"/>
<path d="M297.444 233.82C297.383 233.82 296.957 231.751 296.531 229.194C296.105 226.638 295.861 224.508 295.983 224.508C296.044 224.508 296.47 226.577 296.896 229.134C297.261 231.69 297.505 233.759 297.444 233.82Z" fill="#263238"/>
<path d="M301.095 234.247C301.034 234.187 301.947 232.726 303.165 231.022C304.382 229.317 305.417 227.918 305.477 227.978C305.538 228.039 304.625 229.5 303.408 231.204C302.252 232.908 301.156 234.247 301.095 234.247Z" fill="#263238"/>
</g>
<defs>
<clipPath id="clip0_6277_29253">
<rect width="400" height="244.674" fill="white" transform="translate(100 55)"/>
</clipPath>
</defs>
</svg>
