<svg width="150" height="150" viewBox="0 0 150 150" fill="none" xmlns="http://www.w3.org/2000/svg">
<g clip-path="url(#clip0_3450_16942)">
<path d="M57.1287 77.5989H44.5099C39.2084 77.5989 33.9628 75.8337 29.739 72.629L13.2153 60.0908C5.52928 54.2586 2.52693 44.2289 5.74461 35.1328C8.8199 26.4392 17.0822 20.5245 26.304 20.4146C35.3148 20.3077 40.4345 20.5924 40.6477 20.6047L40.0835 30.5226C40.0343 30.52 35.0532 30.246 26.4221 30.348C21.3478 30.4083 16.8015 33.6626 15.1096 38.4459C13.3392 43.4504 14.991 48.9688 19.22 52.1777L35.7434 64.7159C38.2498 66.6178 41.3632 67.6652 44.5094 67.6652H57.1281V77.5989H57.1287Z" fill="#FFD064"/>
<path d="M29.7397 67.3955L13.216 54.8573C8.31724 51.1401 5.32515 45.717 4.62934 39.918C3.71294 47.5782 6.86147 55.2692 13.216 60.0909L29.7397 72.6291C33.9631 75.8339 39.209 77.599 44.5106 77.599H57.1293V72.3654H44.5106C39.209 72.3654 33.9631 70.6003 29.7397 67.3955V67.3955Z" fill="#ECBE6B"/>
<path d="M92.9175 77.5989H105.536C110.838 77.5989 116.083 75.8337 120.307 72.629L136.831 60.0908C144.517 54.2586 147.519 44.2289 144.302 35.1328C141.226 26.4392 132.964 20.5245 123.742 20.4146C114.731 20.3077 109.612 20.5924 109.398 20.6047L109.963 30.5226C110.012 30.52 114.993 30.246 123.624 30.348C128.698 30.4083 133.245 33.6626 134.937 38.4459C136.707 43.4504 135.055 48.9688 130.826 52.1777L114.303 64.7159C111.796 66.6178 108.683 67.6652 105.537 67.6652H92.9181V77.5989H92.9175Z" fill="#FFD064"/>
<path d="M144.301 35.1336C142.862 31.0643 140.286 27.604 137.006 25.0625C138.421 26.8859 139.565 28.9449 140.359 31.192C143.577 40.2881 140.575 50.3179 132.889 56.15L116.365 68.6882C112.142 71.893 106.896 73.6581 101.594 73.6581H92.917V77.5997H105.536C110.837 77.5997 116.083 75.8346 120.307 72.6298L136.83 60.0916C144.517 54.2595 147.519 44.2297 144.301 35.1336V35.1336Z" fill="#ECBE6B"/>
<path d="M91.1108 113.983L85.2344 109.529C82.709 107.615 81.2255 104.629 81.2255 101.46V81.6914H67.9162V101.46C67.9162 104.629 66.4326 107.615 63.9072 109.529L58.0308 113.983C56.1992 115.371 57.1809 118.292 59.479 118.292H89.6624C91.9607 118.291 92.9424 115.371 91.1108 113.983Z" fill="#FFD064"/>
<path d="M91.1113 113.983L85.2349 109.529C82.7095 107.615 81.2259 104.629 81.2259 101.46V81.6914H74.3276V101.46C74.3276 104.629 75.8112 107.615 78.3366 109.529L84.213 113.983C86.0447 115.371 85.0629 118.292 82.7649 118.292H89.6631C91.9612 118.291 92.9429 115.371 91.1113 113.983Z" fill="#ECBE6B"/>
<path d="M112.349 5.96484H37.6965C36.2662 5.96484 35.1069 7.12412 35.1069 8.55439V35.2863C35.1069 46.7317 38.2938 57.951 44.3108 67.6872L51.2044 78.8417C62.0085 96.324 87.3922 96.4436 98.3604 79.0635L105.427 67.865C111.641 58.0192 114.938 46.6151 114.938 34.9729V8.55439C114.938 7.12441 113.779 5.96484 112.349 5.96484V5.96484Z" fill="#FFE07D"/>
<path d="M112.349 5.96484H100.384V20.4176C100.384 32.0599 97.0859 43.4643 90.8727 53.3101L83.8057 64.5085C75.9813 76.9069 60.822 80.3971 48.8516 75.034L51.205 78.842C62.0091 96.3243 87.3928 96.4438 98.3609 79.0638L105.428 67.8653C111.641 58.0195 114.939 46.6154 114.939 34.9731V8.55439C114.939 7.12441 113.78 5.96484 112.349 5.96484V5.96484Z" fill="#FFD064"/>
<path d="M75.0003 134.691C60.8294 134.691 47.0783 130.46 35.2336 122.455C23.7158 114.672 14.5368 103.725 8.68916 90.7978C8.175 89.662 8.67949 88.3246 9.81533 87.8107C10.9515 87.2965 12.2886 87.8013 12.8021 88.9369C24.1348 113.989 48.5493 130.176 75.0003 130.176C101.451 130.176 125.865 113.989 137.198 88.9369C137.712 87.8016 139.049 87.2968 140.185 87.8107C141.321 88.3246 141.825 89.662 141.311 90.7978C135.463 103.725 126.284 114.672 114.767 122.455C102.922 130.46 89.1712 134.691 75.0003 134.691Z" fill="#518C36"/>
<path d="M147.237 85.4995C144.772 91.3343 140.569 95.1326 137.849 93.9836C135.13 92.8346 134.923 87.1729 137.388 81.3382C139.174 77.1109 145.06 70.3908 148.167 67.0085C148.838 66.2778 150.054 66.7917 149.998 67.7822C149.74 72.368 149.023 81.2725 147.237 85.4995V85.4995Z" fill="#7EC65C"/>
<path d="M148.168 67.0085C147.306 67.9466 146.23 69.1422 145.087 70.4697C144.679 74.9682 143.95 80.3298 142.682 83.3325C140.945 87.4428 138.346 90.5398 136.011 91.6112C136.36 92.7728 136.974 93.6133 137.85 93.9836C140.569 95.1327 144.773 91.3343 147.238 85.4996C149.024 81.2723 149.74 72.3681 149.999 67.7823C150.055 66.7914 148.839 66.2779 148.168 67.0085V67.0085Z" fill="#97E373"/>
<path d="M130.724 98.4713C130.909 104.451 128.799 109.369 126.012 109.456C123.225 109.542 120.815 104.764 120.629 98.7839C120.495 94.4515 122.896 86.3626 124.229 82.2341C124.517 81.3423 125.763 81.3036 126.106 82.1761C127.692 86.214 130.589 94.1389 130.724 98.4713Z" fill="#7EC65C"/>
<path d="M113.868 110.29C116.224 115.789 116.056 121.138 113.493 122.236C110.929 123.334 106.941 119.767 104.585 114.267C102.877 110.283 102.159 101.876 101.892 97.5454C101.835 96.61 102.981 96.1193 103.618 96.806C106.569 99.9859 112.16 106.305 113.868 110.29V110.29Z" fill="#7EC65C"/>
<path d="M113.868 110.29C112.16 106.306 106.569 99.986 103.618 96.8061C102.981 96.1191 101.835 96.6101 101.892 97.5456C101.968 98.7834 102.082 100.355 102.244 102.06C105 105.253 108.078 109.166 109.269 111.944C110.919 115.796 111.329 119.572 110.547 121.867C111.612 122.445 112.633 122.604 113.493 122.236C116.056 121.138 116.224 115.789 113.868 110.29V110.29Z" fill="#97E373"/>
<path d="M128.895 123.098C123.246 121.128 119.41 117.397 120.328 114.763C121.246 112.13 126.57 111.592 132.22 113.562C136.313 114.989 143.004 120.129 146.381 122.853C147.11 123.441 146.7 124.618 145.763 124.625C141.424 124.66 132.988 124.525 128.895 123.098Z" fill="#7EC65C"/>
<path d="M110.951 135.434C105.302 133.464 101.467 129.733 102.385 127.099C103.303 124.466 108.627 123.928 114.276 125.898C118.369 127.325 125.061 132.465 128.438 135.189C129.167 135.777 128.757 136.954 127.819 136.961C123.481 136.996 115.045 136.861 110.951 135.434V135.434Z" fill="#7EC65C"/>
<path d="M146.381 122.85C145.009 121.743 143.089 120.237 141.019 118.744C136.459 118.737 129.175 118.506 125.463 117.212C123.508 116.53 121.771 115.638 120.372 114.652C120.358 114.689 120.341 114.724 120.328 114.761C119.41 117.394 123.245 121.125 128.894 123.095C132.987 124.522 141.424 124.657 145.762 124.623C146.7 124.616 147.11 123.439 146.381 122.85V122.85Z" fill="#97E373"/>
<path d="M128.438 135.19C127.065 134.083 125.146 132.577 123.076 131.084C118.515 131.077 111.232 130.846 107.52 129.552C105.565 128.87 103.828 127.977 102.429 126.992C102.415 127.029 102.398 127.064 102.385 127.101C101.467 129.734 105.302 133.465 110.952 135.435C115.044 136.862 123.481 136.997 127.819 136.963C128.756 136.955 129.167 135.778 128.438 135.19Z" fill="#97E373"/>
<path d="M2.76378 85.4995C5.22911 91.3343 9.43234 95.1326 12.152 93.9836C14.8716 92.8346 15.0778 87.1729 12.6128 81.3382C10.8269 77.1109 4.94142 70.3908 1.8339 67.0085C1.16271 66.2778 -0.0531141 66.7917 0.00284292 67.7822C0.261534 72.368 0.977843 81.2725 2.76378 85.4995V85.4995Z" fill="#7EC65C"/>
<path d="M12.6118 81.3381C10.8259 77.1109 4.94044 70.3908 1.83292 67.0085C1.16173 66.2778 -0.0540907 66.7917 0.00186635 67.7822C0.0739367 69.0598 0.181749 70.6726 0.338194 72.426C3.32237 75.8898 6.77267 80.2656 8.06788 83.3309C9.77501 87.3715 10.2001 91.3278 9.39737 93.7612C10.3905 94.2252 11.3374 94.3272 12.151 93.9835C14.8709 92.8345 15.0772 87.1729 12.6118 81.3381V81.3381Z" fill="#97E373"/>
<path d="M19.276 98.4713C19.0908 104.451 21.2002 109.369 23.9875 109.456C26.7748 109.542 29.1848 104.764 29.3702 98.7839C29.5044 94.4515 27.1035 86.3626 25.7702 82.2341C25.4822 81.3423 24.2362 81.3036 23.8937 82.1761C22.3073 86.214 19.4101 94.1389 19.276 98.4713V98.4713Z" fill="#7EC65C"/>
<path d="M130.724 98.471C130.59 94.1386 127.693 86.2138 126.107 82.1758C125.764 81.3037 124.518 81.3423 124.23 82.2338C123.837 83.4494 123.352 85.0091 122.867 86.7139C124.265 90.6907 125.7 95.4523 125.793 98.471C125.921 102.586 124.961 106.198 123.442 108.079C124.213 108.98 125.092 109.484 126.012 109.455C128.8 109.369 130.91 104.451 130.724 98.471V98.471Z" fill="#97E373"/>
<path d="M25.7704 82.234C25.4824 81.3422 24.2364 81.3038 23.8937 82.1759C23.4126 83.4006 22.8111 84.9835 22.2023 86.7143C23.3663 90.801 24.5338 95.7272 24.4392 98.7841C24.3149 102.79 23.192 106.253 21.627 108.08C22.3151 108.932 23.1185 109.429 23.9877 109.456C26.775 109.542 29.185 104.764 29.3704 98.7841C29.5046 94.4516 27.1037 86.3625 25.7704 82.234Z" fill="#97E373"/>
<path d="M36.1338 110.29C33.7774 115.789 33.9453 121.138 36.5088 122.236C39.0722 123.334 43.0604 119.767 45.4168 114.267C47.1239 110.283 47.8426 101.876 48.1092 97.5454C48.1666 96.61 47.0208 96.1193 46.3833 96.806C43.4319 99.9859 37.8409 106.305 36.1338 110.29V110.29Z" fill="#7EC65C"/>
<path d="M46.3826 96.8022C45.4618 97.7942 44.2841 99.0921 43.0472 100.529C42.6335 104.687 41.9271 109.515 40.7538 112.253C39.1779 115.931 36.8729 118.742 34.7515 119.874C35.0693 121.029 35.6553 121.867 36.5078 122.232C39.0713 123.33 43.0595 119.762 45.4158 114.263C47.1229 110.279 47.8416 101.871 48.1082 97.5414C48.1659 96.6062 47.0201 96.1152 46.3826 96.8022V96.8022Z" fill="#97E373"/>
<path d="M21.1055 123.098C26.7548 121.128 30.5903 117.397 29.6722 114.763C28.754 112.13 23.4299 111.592 17.7806 113.562C13.6878 114.989 6.99609 120.129 3.61933 122.853C2.89013 123.441 3.30029 124.618 4.23749 124.625C8.57607 124.66 17.0127 124.525 21.1055 123.098V123.098Z" fill="#7EC65C"/>
<path d="M39.0483 135.434C44.6977 133.464 48.5332 129.733 47.6151 127.099C46.6969 124.466 41.3728 123.928 35.7234 125.898C31.6307 127.325 24.939 132.465 21.5622 135.189C20.833 135.777 21.2432 136.954 22.1804 136.961C26.5186 136.996 34.9553 136.861 39.0483 135.434Z" fill="#7EC65C"/>
<path d="M29.6723 114.761C29.2964 113.683 28.1817 112.957 26.609 112.609C25.7418 114.905 22.4758 117.457 18.1369 118.969C15.4182 119.917 10.7834 120.295 6.70588 120.431C5.52991 121.326 4.46936 122.165 3.61946 122.85C2.88997 123.439 3.30042 124.616 4.23762 124.623C8.5759 124.657 17.0125 124.522 21.1056 123.095C26.7549 121.126 30.5905 117.394 29.6723 114.761Z" fill="#97E373"/>
<path d="M47.6151 127.101C47.2392 126.023 46.1244 125.297 44.5518 124.949C43.6846 127.245 40.4186 129.796 36.0797 131.309C33.3609 132.257 28.7262 132.634 24.6486 132.771C23.4727 133.665 22.4121 134.504 21.5622 135.19C20.833 135.778 21.2432 136.956 22.1804 136.963C26.5186 136.997 34.9553 136.862 39.0483 135.435C44.6977 133.466 48.5332 129.734 47.6151 127.101V127.101Z" fill="#97E373"/>
<path d="M74.3271 60.6551C83.6563 60.6551 91.2191 53.0923 91.2191 43.7631C91.2191 34.4339 83.6563 26.8711 74.3271 26.8711C64.9979 26.8711 57.4351 34.4339 57.4351 43.7631C57.4351 53.0923 64.9979 60.6551 74.3271 60.6551Z" fill="#ECBE6B"/>
<path d="M80.6164 28.0859C81.3972 30.0304 81.8311 32.1515 81.8311 34.3751C81.8311 43.7044 74.2684 51.2671 64.9391 51.2671C62.7154 51.2671 60.5943 50.8332 58.6499 50.0525C61.1448 56.266 67.2216 60.6556 74.3273 60.6556C83.6566 60.6556 91.2193 53.0929 91.2193 43.7636C91.2196 36.6576 86.83 30.5812 80.6164 28.0859V28.0859Z" fill="#EAB14D"/>
<path d="M75.5606 36.2478L77.3293 39.8311C77.4901 40.1566 77.8007 40.3825 78.1602 40.4346L82.1146 41.0092C83.0196 41.1407 83.3809 42.2528 82.7261 42.8912L79.8647 45.6805C79.6045 45.934 79.4858 46.2993 79.5474 46.657L80.223 50.5957C80.3776 51.4969 79.4316 52.1842 78.6222 51.7588L75.0852 49.8993C74.7638 49.7303 74.3797 49.7303 74.0583 49.8993L70.5213 51.7588C69.7118 52.1842 68.7658 51.4969 68.9205 50.5957L69.5961 46.657C69.6576 46.299 69.539 45.934 69.2788 45.6805L66.4174 42.8912C65.7626 42.2528 66.1238 41.1407 67.0288 41.0092L70.9833 40.4346C71.3428 40.3825 71.6533 40.1566 71.8142 39.8311L73.5828 36.2478C73.9865 35.4278 75.1561 35.4278 75.5606 36.2478V36.2478Z" fill="#FFE07D"/>
<path d="M82.7259 42.8923C83.3807 42.2539 83.0194 41.1418 82.1144 41.0103L80.6727 40.8008L76.8299 44.5467C76.4446 44.922 76.2691 45.4628 76.3599 45.9928L77.223 51.0242L78.622 51.7596C79.4314 52.185 80.3774 51.4977 80.2227 50.5965L79.5472 46.6578C79.4856 46.2998 79.6043 45.9348 79.8644 45.6814L82.7259 42.8923Z" fill="#FFD064"/>
<path d="M96.9394 144.031H53.1063C51.7215 144.031 50.5991 142.908 50.5991 141.524V120.8C50.5991 119.415 51.7218 118.293 53.1063 118.293H96.9394C98.3243 118.293 99.4467 119.416 99.4467 120.8V141.524C99.447 142.908 98.3243 144.031 96.9394 144.031Z" fill="#000000"/>
<path d="M96.9462 118.293H92.1975V134.281C92.1975 135.662 91.078 136.782 89.697 136.782H50.5991V141.53C50.5991 142.911 51.7186 144.031 53.0996 144.031H96.9462C98.3272 144.031 99.4467 142.911 99.4467 141.53V120.793C99.447 119.412 98.3272 118.293 96.9462 118.293V118.293Z" fill="#518C36"/>
</g>
<defs>
<clipPath id="clip0_3450_16942">
<rect width="150" height="150" fill="white"/>
</clipPath>
</defs>
</svg>
