<svg width="250" height="187" viewBox="0 0 250 187" fill="none" xmlns="http://www.w3.org/2000/svg">
<g clip-path="url(#clip0_10227_78181)">
<g opacity="0.5">
<path d="M238.27 140.765C232.953 125.105 218.704 112.255 202.239 110.693C186.696 109.212 171.689 117.292 156.076 117.444C130.831 117.677 109.877 97.6446 85.145 92.5724C56.402 86.6722 24.6856 104.536 14.8092 132.171C8.4426 150.012 11.6959 170.476 21.8055 186.404H233.722C240.94 172.411 243.319 155.644 238.27 140.765Z" fill="#F0F3EE"/>
</g>
<path d="M40.346 143.272C60.8334 140.077 79.0237 125.455 86.8595 106.32C88.5037 102.297 89.6697 98.1344 90.4393 93.9017C90.2877 93.8551 90.1245 93.8084 89.9729 93.7734C89.4482 96.6186 88.7719 99.4404 87.8623 102.216C84.6674 112.045 78.7555 120.872 71.1179 127.81C63.527 134.702 54.2336 139.739 44.2289 142.059C33.8745 144.461 22.9253 143.785 12.8274 140.532C12.7341 140.508 12.6524 140.474 12.5592 140.439C12.5242 140.59 12.5009 140.742 12.4775 140.893C21.4328 143.808 31.0177 144.73 40.346 143.272Z" fill="#000000"/>
<path d="M73.6245 157.101C88.9114 159.142 104.618 160.238 119.73 156.367C126.586 154.606 133.209 151.819 139.005 147.749C144.835 143.657 149.651 138.305 153.475 132.323C156.53 127.542 158.921 122.446 160.833 117.176C160.67 117.187 160.495 117.211 160.332 117.222C159.026 120.791 157.498 124.277 155.679 127.659C152.158 134.2 147.587 140.24 141.85 144.998C136.194 149.697 129.501 152.997 122.482 155.119C107.661 159.608 91.9547 158.932 76.7612 157.043C60.1567 154.967 43.5289 151.469 26.7029 152.215C21.6772 152.437 16.5816 153.043 11.6143 154.128C11.6259 154.291 11.6259 154.454 11.6376 154.617C15.6954 153.72 19.8232 153.148 23.9394 152.845C40.6138 151.632 57.1716 154.897 73.6245 157.101Z" fill="#000000"/>
<path d="M223.263 168.086C217.386 166.792 211.591 164.996 206.227 162.244C201.236 159.667 196.525 156.251 193.19 151.668C189.762 146.957 188.13 141.255 188.631 135.448C189.576 124.779 196.525 116.244 205.516 111.171C205.282 111.125 205.061 111.09 204.828 111.055C197.283 115.416 191.267 122.097 188.969 130.877C187.5 136.474 187.838 142.421 190.299 147.692C192.654 152.752 196.712 156.799 201.295 159.877C206.134 163.13 211.602 165.416 217.199 167.025C223.904 168.96 230.83 170.15 237.792 170.593C238.351 170.628 238.911 170.651 239.471 170.675C239.506 170.523 239.541 170.371 239.576 170.208C234.084 169.963 228.627 169.264 223.263 168.086Z" fill="#000000"/>
<path d="M100.992 105.807C102.053 103.568 103.242 101.388 104.537 99.289C104.397 99.2191 104.245 99.1608 104.105 99.0908C103.172 100.607 102.298 102.146 101.493 103.732C99.476 107.673 97.8552 111.824 96.6658 116.092C95.3715 120.756 94.2754 125.875 95.4764 130.679C96.3976 134.387 98.823 137.85 102.519 139.179C106.694 140.684 111.23 139.121 114.926 137.081C118.949 134.853 122.645 131.868 126.132 128.883C129.642 125.875 132.953 122.645 136.043 119.205C137.291 117.817 138.492 116.395 139.658 114.949C139.495 114.902 139.331 114.856 139.168 114.797C133.524 121.77 127.006 128.032 119.753 133.349C116.034 136.078 111.848 138.83 107.149 139.261C102.473 139.693 98.5548 136.999 96.7008 132.79C94.6485 128.114 95.4881 122.797 96.6658 118.016C97.6802 113.818 99.1495 109.713 100.992 105.807Z" fill="#000000"/>
<path d="M226.645 155.901C231.484 156.157 236.334 154.956 240.765 152.846C240.754 152.706 240.742 152.566 240.73 152.426C237.057 154.163 233.093 155.236 228.953 155.434C224.313 155.656 219.578 154.443 216.127 151.225C213.014 148.321 211.451 144.089 212.64 139.914C213.165 138.06 214.215 136.323 215.719 135.099C217.678 133.513 220.208 133.105 222.657 133.035C224.861 132.965 227.076 133.128 229.268 132.848C230.866 132.638 232.428 132.207 233.921 131.565C233.839 131.437 233.758 131.297 233.676 131.169C233.186 131.379 232.696 131.565 232.195 131.717C227.671 133.163 222.832 131.764 218.342 133.198C214.833 134.317 212.501 137.454 211.917 141.022C211.299 144.765 212.699 148.403 215.311 151.085C218.296 154.128 222.424 155.668 226.645 155.901Z" fill="#000000"/>
<path d="M182.125 171.303C180.026 166.313 177.928 161.31 175.84 156.32C174.371 152.821 172.832 149.02 169.66 146.7C166.314 144.263 161.778 144.263 158.035 145.755C154.07 147.341 150.922 150.419 148.228 153.649C142.876 160.086 139.028 167.735 136.894 175.816C135.985 179.279 135.379 182.824 135.11 186.392H135.588C136.393 175.944 139.996 165.706 146.106 157.148C148.601 153.649 151.517 150.163 155.143 147.784C158.874 145.335 163.853 144.158 168.028 146.233C171.841 148.134 173.648 152.285 175.211 155.993C177.158 160.634 179.105 165.263 181.053 169.904C183.361 175.396 185.67 180.888 187.967 186.38H188.469C186.358 181.378 184.247 176.341 182.125 171.303Z" fill="#000000"/>
<g opacity="0.5">
<path d="M162.291 83.9785C159.271 84.0717 156.227 83.9435 152.718 82.6725C145.232 79.9556 135.903 84.4099 135.833 93.0503C135.787 99.755 141.955 104.198 147.669 106.238C158.443 110.098 180.761 108.069 179.712 92.0592C179.373 86.9402 176.656 84.5498 171.747 83.9901C168.284 83.582 165.288 83.8852 162.291 83.9785Z" fill="#F0F3EE"/>
</g>
<path d="M202.601 39.8087C199.662 38.7942 197.657 37.0335 195.395 34.4449L196.351 32.4043C198.729 35.5526 199.499 37.255 202.472 37.0102L202.601 39.8087Z" fill="#FFB900"/>
<path d="M236.322 84.9928C234.141 82.1476 233.162 79.2325 232.357 75.4079L234.223 74.1719C234.864 78.5912 234.748 80.6551 237.57 82.3575L236.322 84.9928Z" fill="#007BFF"/>
<path d="M163.141 47.4816C160.051 48.2512 157.474 47.8081 154.326 46.7703L154.314 44.3799C157.813 45.8608 159.247 46.9568 161.824 45.0212L163.141 47.4816Z" fill="#14CCA1"/>
<path d="M83.6406 37.7328C82.183 39.8083 80.5389 40.9277 78.3234 42.0005L77.3789 40.6362C79.9559 39.6218 81.2035 39.4935 81.9148 37.0215L83.6406 37.7328Z" fill="#FF5C33"/>
<path d="M32.7776 98.2391C29.3028 98.414 26.7025 97.4578 23.6475 95.7671L24.2771 93.3184C27.577 95.5222 28.8014 96.9331 32.043 95.4639L32.7776 98.2391Z" fill="#007BFF"/>
<path d="M39.1089 38.6892C36.462 36.7653 35.0744 34.3982 33.7451 31.1566L35.5525 29.4658C36.7768 33.2904 36.9051 35.2028 40.0884 35.914L39.1089 38.6892Z" fill="#14CCA1"/>
<path d="M54.9675 59.9459C51.9591 62.0448 49.1373 62.6511 45.4992 62.8843L44.7529 60.3773C48.8807 60.4706 50.7231 61.0187 52.822 57.917L54.9675 59.9459Z" fill="#007BFF"/>
<path d="M97.9713 2.12214C94.9629 3.89453 92.1994 4.24434 88.7012 4.17438L88.1299 1.70237C92.0828 2.12214 93.8202 2.79845 96.0357 -0.0117188L97.9713 2.12214Z" fill="#FFB900"/>
<path d="M140.66 8.23223C138.153 6.99622 136.52 5.20052 134.748 2.65854L135.774 0.967773C137.605 4.02281 138.141 5.62029 140.788 5.74856L140.66 8.23223Z" fill="#14CCA1"/>
<path d="M179.734 18.0275C182.486 16.4067 184.002 14.2961 185.53 11.3577L183.85 9.65527C182.393 13.1534 182.148 14.9258 178.941 15.3689L179.734 18.0275Z" fill="#FF5C33"/>
<g opacity="0.837">
<path d="M89.2955 104.967C86.5203 103.323 84.8062 101.119 82.9639 98.0524L84.2465 96.2217C86.1122 99.8714 86.6136 101.749 89.622 102.145L89.2955 104.967Z" fill="#FF5C33"/>
</g>
<path d="M180.901 80.1424C179.793 83.5706 178.102 85.8444 175.653 88.3747L173.904 87.092C176.854 84.4684 178.417 83.6639 178.405 80.1074L180.901 80.1424Z" fill="#FF5C33"/>
<path d="M67.1641 24.4874C67.8081 24.4874 68.3301 23.9653 68.3301 23.3213C68.3301 22.6773 67.8081 22.1553 67.1641 22.1553C66.5201 22.1553 65.998 22.6773 65.998 23.3213C65.998 23.9653 66.5201 24.4874 67.1641 24.4874Z" fill="#FF5C33"/>
<path d="M159.83 24.4874C160.474 24.4874 160.996 23.9653 160.996 23.3213C160.996 22.6773 160.474 22.1553 159.83 22.1553C159.186 22.1553 158.664 22.6773 158.664 23.3213C158.664 23.9653 159.186 24.4874 159.83 24.4874Z" fill="#FFB900"/>
<path d="M190.299 60.0167C190.943 60.0167 191.465 59.4946 191.465 58.8506C191.465 58.2066 190.943 57.6846 190.299 57.6846C189.655 57.6846 189.133 58.2066 189.133 58.8506C189.133 59.4946 189.655 60.0167 190.299 60.0167Z" fill="#FF5C33"/>
<path d="M69.0303 71.8282C69.6743 71.8282 70.1963 71.3061 70.1963 70.6621C70.1963 70.0181 69.6743 69.4961 69.0303 69.4961C68.3863 69.4961 67.8643 70.0181 67.8643 70.6621C67.8643 71.3061 68.3863 71.8282 69.0303 71.8282Z" fill="#14CCA1"/>
<path d="M15.8744 58.1032L13.541 60.4365L15.8744 62.7699L18.2077 60.4365L15.8744 58.1032Z" fill="#FFB900"/>
<path d="M218.379 54.2858L216.046 56.6191L218.379 58.9525L220.713 56.6191L218.379 54.2858Z" fill="#14CCA1"/>
<path d="M138.001 139.704L118.354 139.727V135.144C118.354 133.524 119.659 132.206 121.28 132.206L135.063 132.194C136.684 132.194 138.001 133.5 138.001 135.121V139.704Z" fill="#FFB900"/>
<path d="M134.526 112.313H121.816V134.818H134.526V112.313Z" fill="#FFB900"/>
<path d="M121.816 122.038V112.313H134.526L134.515 117.036L121.816 122.038Z" fill="#E8950C"/>
<path d="M150.035 94.9508L149.219 92.2689C164.097 87.768 170.406 78.4513 168.505 63.8057C168.482 63.7824 168.33 63.6891 168.132 63.7474L166.08 64.3071C165.264 64.5287 164.704 65.1467 164.704 65.8347V69.0063C164.704 70.9303 163.083 72.4695 161.007 72.5161C158.862 72.5627 155.189 72.621 154.711 72.621V69.8225C155.049 69.8225 157.381 69.7759 160.961 69.7176C161.474 69.7059 161.917 69.3794 161.917 69.0063V65.8347C161.917 63.864 163.305 62.1616 165.357 61.6019L167.409 61.0422C168.307 60.7973 169.263 60.9489 170.033 61.462C170.732 61.9284 171.187 62.6514 171.292 63.4443C172.295 71.1402 171.175 77.6467 167.957 82.754C164.482 88.3043 158.454 92.4088 150.035 94.9508Z" fill="#FFB900"/>
<path d="M106.297 94.9509C97.878 92.4089 91.8495 88.3044 88.3747 82.7657C85.1681 77.6468 84.0487 71.1519 85.0398 63.456C85.1448 62.6631 85.5995 61.9401 86.2991 61.4737C87.0687 60.9607 88.0249 60.8091 88.9227 61.0539L90.975 61.6136C93.0272 62.1733 94.4148 63.8641 94.4148 65.8464V69.018C94.4148 69.3912 94.8579 69.7177 95.371 69.7293C98.9507 69.7993 101.283 69.8343 101.621 69.8343V72.6328C101.131 72.6328 97.4582 72.5628 95.3243 72.5278C93.2488 72.4928 91.628 70.9537 91.628 69.018V65.8464C91.628 65.1584 91.0799 64.5404 90.252 64.3189L88.1998 63.7592C88.0016 63.7009 87.85 63.7941 87.8267 63.8408C85.9377 78.463 92.246 87.7797 107.125 92.2806L106.297 94.9509Z" fill="#FFB900"/>
<path d="M156.157 64.0975L153.113 102.076C152.752 106.623 150.525 110.623 147.236 113.328C144.426 115.637 140.823 117.024 136.917 117.024H119.438C110.972 117.024 103.918 110.518 103.242 102.076L101.667 82.3694L100.198 64.0975C99.965 61.2407 102.227 58.792 105.096 58.792H151.248C154.116 58.792 156.378 61.2407 156.157 64.0975Z" fill="#FFB900"/>
<path d="M147.237 113.328C144.427 115.636 140.824 117.024 136.917 117.024H119.438C110.973 117.024 103.918 110.517 103.242 102.075L101.668 82.3691C112.734 96.35 130.388 108.349 147.237 113.328Z" fill="#E8950C"/>
<path d="M137.652 116.791H119.438V117.257H137.652V116.791Z" fill="#001F40"/>
<path d="M124.662 131.973H121.28V132.439H124.662V131.973Z" fill="#001F40"/>
<path d="M135.156 131.973H131.774V132.439H135.156V131.973Z" fill="#001F40"/>
<path d="M142.573 150.805L113.771 150.839L113.76 143.237C113.76 140.403 116.057 138.095 118.89 138.095L137.407 138.071C140.241 138.071 142.549 140.368 142.549 143.202L142.573 150.805Z" fill="#FFB900"/>
<path d="M137.978 137.908H118.365V138.375H137.978V137.908Z" fill="#E8950C"/>
<path opacity="0.6" d="M143.143 80.1891C144.56 80.1891 145.709 77.9443 145.709 75.1751C145.709 72.406 144.56 70.1611 143.143 70.1611C141.727 70.1611 140.578 72.406 140.578 75.1751C140.578 77.9443 141.727 80.1891 143.143 80.1891Z" fill="white"/>
<path d="M198.845 174.476H57.5908V186.486H198.845V174.476Z" fill="white"/>
<path d="M175.512 162.477H80.9346V174.487H175.512V162.477Z" fill="white"/>
<path d="M159.154 150.467H97.2949V162.477H159.154V150.467Z" fill="white"/>
<path d="M163.012 174.476H93.4229V186.486H163.012V174.476Z" fill="#000000"/>
<path d="M153.008 162.465H103.451V174.475H153.008V162.465Z" fill="#000000"/>
<path d="M142.723 150.467H113.724V162.477H142.723V150.467Z" fill="#000000"/>
<path opacity="0.1" d="M113.724 159.667H97.2949V162.465H113.724V159.667Z" fill="#003E80"/>
<path opacity="0.1" d="M159.153 159.667H142.724V162.465H159.153V159.667Z" fill="#003E80"/>
<path opacity="0.3" d="M142.723 159.667H113.724V162.465H142.723V159.667Z" fill="#121243"/>
<path opacity="0.1" d="M103.439 171.665H80.9346V174.464H103.439V171.665Z" fill="#003E80"/>
<path opacity="0.1" d="M175.501 171.665H152.996V174.464H175.501V171.665Z" fill="#003E80"/>
<path opacity="0.3" d="M153.008 171.665H103.451V174.464H153.008V171.665Z" fill="#121243"/>
<path opacity="0.1" d="M93.4234 183.688H57.5908V186.486H93.4234V183.688Z" fill="#003E80"/>
<path opacity="0.1" d="M198.845 183.688H163.013V186.486H198.845V183.688Z" fill="#003E80"/>
<path opacity="0.3" d="M163.012 183.688H93.4229V186.486H163.012V183.688Z" fill="#121243"/>
<path d="M57.8238 186.486H57.3574V174.242L80.7016 174.231V162.244L97.0612 162.232V150.233H113.607V150.7H97.5277V162.698L81.1681 162.71V174.697L57.8238 174.709V186.486Z" fill="#95BEFF"/>
<path d="M199.079 186.486H198.612V174.709L175.28 174.697V162.71L158.92 162.698V150.7H142.572V150.233H159.387V162.232L175.746 162.244V174.231L199.079 174.242V186.486Z" fill="#95BEFF"/>
<path d="M125.269 69.2285L123.531 75.0004L130.318 77.1343L128.044 73.3447L128.708 70.0098L125.269 69.2285Z" fill="#121243"/>
<path d="M127.937 73.1384L126.566 73.8125L126.772 74.231L128.143 73.5569L127.937 73.1384Z" fill="white"/>
<path d="M124.067 51.2245L128.848 51.6793C129.828 51.7725 130.795 52.099 131.565 52.7054C133.081 53.8831 133.675 55.7138 133.349 57.5794C133.267 58.0575 133.162 58.5123 133.092 58.8854L129.186 72.7497L123.263 69.5897L125.91 59.2702L119.893 59.0836L116.616 52.204L117.806 46.7119L124.067 51.2245Z" fill="#000000"/>
<path d="M123.24 75.4434L121.759 81.7517L129.21 83.594L126.516 79.6644L127.006 76.038L123.24 75.4434Z" fill="#121243"/>
<path d="M126.396 79.4664L124.97 80.2852L125.202 80.6896L126.628 79.8709L126.396 79.4664Z" fill="white"/>
<path d="M116.873 59.177L121.992 77.8337L127.74 77.1807L124.382 57.4046C124.056 55.6789 123.986 54.6178 121.35 53.3118L118.529 51.7493L117.806 46.7236L113.526 49.5105L112.838 56.0636C112.675 57.6495 113.853 59.0487 115.415 59.1187L116.873 59.177Z" fill="#000000"/>
<path d="M124.312 51.1315L115.789 52.0993C114.832 52.2042 113.981 51.5279 113.865 50.5718L112.384 37.9552L119.485 36.2178L127.018 37.3488L125.63 49.8022C125.56 50.5018 125.012 51.0499 124.312 51.1315Z" fill="white"/>
<path d="M106.588 22.8783C106.588 22.8783 107.253 19.625 106.74 19.7416C106.227 19.8582 105.702 21.1059 105.702 21.1059C105.702 21.1059 104.571 18.4007 104.14 18.424C103.708 18.4473 103.837 19.1353 103.837 19.1353C103.837 19.1353 103.032 18.7505 102.822 19.5434C102.822 19.5434 102.018 19.1586 102.018 20.6395C102.018 21.1758 102.449 23.0415 102.997 25.1987L106.857 23.7295L106.588 22.8783Z" fill="#FFBA9A"/>
<path d="M109.562 31.2156L106.857 23.7412L102.997 25.2104C103.673 27.869 104.525 30.9823 104.968 32.5798C105.166 33.2795 105.516 33.9324 106.005 34.4688L113.748 43.6922L117.095 38.9464L109.562 31.2156Z" fill="#121243"/>
<path d="M105.19 22.599C104.805 22.1442 104.84 21.7128 105.283 21.3047L105.364 21.3863C104.968 21.7478 104.945 22.1209 105.283 22.5174L105.19 22.599Z" fill="#974245"/>
<path d="M103.793 19.1141L103.683 19.1523L104.233 20.7388L104.343 20.7006L103.793 19.1141Z" fill="#974245"/>
<path d="M103.406 20.9779L102.916 19.532L103.033 19.4854L103.511 20.9429L103.406 20.9779Z" fill="#974245"/>
<path d="M102.881 21.386L102.274 19.7185L102.379 19.6719L102.997 21.351L102.881 21.386Z" fill="#974245"/>
<path d="M136.556 18.2956C136.474 16.8264 135.472 17.1179 135.472 17.1179C135.273 16.4766 134.644 16.908 134.644 16.908C134.644 16.908 134.679 16.4766 134.247 16.4766C133.816 16.4766 132.918 18.9836 132.918 18.9836C132.918 18.9836 132.312 17.7709 131.787 17.6892C131.262 17.6076 132.137 20.8026 132.137 20.8026L131.892 21.8054L135.81 23.1813C136.241 20.8842 136.591 18.8553 136.556 18.2956Z" fill="#FFBA9A"/>
<path d="M131.892 21.8174L129.629 29.4666L123.1 38.177L126.831 42.0599L133.454 32.3351C133.909 31.7637 134.224 31.0991 134.364 30.3762C134.69 28.8137 135.32 25.8286 135.809 23.1933L131.892 21.8174Z" fill="#121243"/>
<path d="M133.559 20.4526L133.466 20.3826C133.757 19.9512 133.687 19.578 133.256 19.2632L133.326 19.1699C133.816 19.5314 133.897 19.9628 133.559 20.4526Z" fill="#974245"/>
<path d="M134.569 16.8449L134.189 18.4805L134.303 18.5068L134.682 16.8712L134.569 16.8449Z" fill="#974245"/>
<path d="M135.371 17.1362L135.043 18.6279L135.157 18.653L135.485 17.1612L135.371 17.1362Z" fill="#974245"/>
<path d="M135.728 19.0068L135.611 18.9718L136.043 17.2461L136.148 17.2694L135.728 19.0068Z" fill="#974245"/>
<path d="M119.391 38.3164C118.575 38.3164 117.91 37.6517 117.91 36.8355V34.2119H120.86V36.8472C120.86 37.6634 120.207 38.3164 119.391 38.3164Z" fill="#FFBA9A"/>
<path d="M120.825 34.5967C120.359 36.2408 118.47 36.3108 117.887 34.5967H120.825Z" fill="#121243"/>
<path d="M119.391 35.25C120.596 35.25 121.572 34.1119 121.572 32.708C121.572 31.3041 120.596 30.166 119.391 30.166C118.187 30.166 117.211 31.3041 117.211 32.708C117.211 34.1119 118.187 35.25 119.391 35.25Z" fill="#FFBA9A"/>
<path d="M117.386 32.7545C117.514 31.0055 118.669 30.5857 118.669 30.5857L120.173 30.5624C120.791 31.0288 121.315 31.9033 121.35 32.8128L121.864 32.7895C122.19 31.0754 121.898 29.3963 120.907 29.0115L121.397 28.7667C117.304 27.8571 116.29 29.5013 116.78 32.3697L117.386 32.7545Z" fill="#121243"/>
<path d="M117.666 32.591C117.829 32.9292 117.712 33.3256 117.421 33.4655C117.117 33.6055 116.744 33.4422 116.581 33.1041C116.418 32.7659 116.534 32.3695 116.826 32.2295C117.129 32.0779 117.502 32.2412 117.666 32.591Z" fill="#FFBA9A"/>
<path d="M117.223 33.022C117.153 32.8237 117.024 32.6955 116.826 32.6255L116.861 32.5322C117.094 32.6138 117.246 32.7654 117.328 32.9986L117.223 33.022Z" fill="#121243"/>
<path d="M121.187 32.591C121.023 32.9292 121.14 33.3256 121.431 33.4655C121.735 33.6055 122.108 33.4422 122.271 33.1041C122.434 32.7659 122.318 32.3695 122.026 32.2295C121.723 32.0779 121.35 32.2412 121.187 32.591Z" fill="#FFBA9A"/>
<path d="M121.618 33.0229L121.524 32.9879C121.606 32.7547 121.758 32.6031 121.991 32.5215L122.026 32.6148C121.816 32.6847 121.688 32.8247 121.618 33.0229Z" fill="#121243"/>
<path d="M117.876 36.6143C119.392 41.7215 118.879 49.5224 117.153 55.3643L111.008 56.3204L112.395 37.9552L117.876 36.6143Z" fill="#121243"/>
<path d="M120.85 36.4395C121.316 42.3513 122.412 50.9101 124.593 55.0029L128.312 53.1022L127.03 37.349L120.85 36.4395Z" fill="#121243"/>
<path d="M127.613 77.2046C127.578 77.0063 124.371 57.3468 123.858 55.6794C123.357 54.0586 120.115 52.7293 120.08 52.7176L120.173 52.4961C120.313 52.5544 123.555 53.872 124.091 55.5978C124.616 57.2769 127.729 76.3417 127.858 77.1579L127.613 77.2046Z" fill="#121243"/>
<path d="M116.551 57.7719L116.327 57.8359L118.659 65.9979L118.883 65.9339L116.551 57.7719Z" fill="#121243"/>
<path d="M127.601 59.5498L125.887 59.3865L125.91 59.1533L127.624 59.3166L127.601 59.5498Z" fill="#121243"/>
<path d="M48.6704 181.063L47.7959 186.567H55.2119L52.3085 183.663L52.53 180.935L48.6704 181.063Z" fill="#000000"/>
<path d="M52.1805 183.471L50.7031 184.34L50.9396 184.742L52.417 183.873L52.1805 183.471Z" fill="white"/>
<path d="M63.9804 140.975C63.8754 141.628 63.7705 142.281 63.6422 142.922C63.444 144.135 63.2224 145.347 63.0125 146.537C62.2313 150.828 61.3801 154.979 60.4472 158.99C60.4472 158.99 60.4472 158.99 60.4472 159.002C58.6049 167.117 56.4827 174.697 54.1506 181.868H47.5508C50.2094 169.193 52.7747 156.658 53.6026 146.956C53.7308 145.534 53.8124 144.158 53.8474 142.864L63.9804 140.975Z" fill="#121243"/>
<path d="M63.7123 180.807L63.3975 186.462L71.3032 186.567L68.1666 183.663L68.3998 180.935L63.7123 180.807Z" fill="#000000"/>
<path d="M68.0644 183.458L66.4668 184.328L66.6898 184.738L68.2875 183.868L68.0644 183.458Z" fill="white"/>
<path d="M69.2629 181.739H62.3716C61.8818 173.904 61.2988 166.243 60.4593 159.013C60.4593 159.013 60.4593 159.013 60.4593 159.001C59.9695 154.757 59.3865 150.653 58.6869 146.746C58.4653 145.487 58.2205 144.251 57.9756 143.027L63.6542 142.933L66.476 142.887C66.6626 144.041 66.8375 145.207 67.0008 146.373C68.5982 157.777 69.053 169.694 69.2629 181.739Z" fill="#121243"/>
<path opacity="0.3" d="M67.0005 146.362L63.0126 146.548L58.6866 146.747L53.626 146.98C53.7542 145.557 53.8359 144.181 53.8708 142.887L63.9805 140.986C63.8755 141.639 63.7706 142.292 63.6423 142.934L66.4641 142.887C66.6624 144.041 66.8373 145.196 67.0005 146.362Z" fill="#4A191B"/>
<path d="M60.0154 161.998L59.7822 161.952L62.126 150.326L62.3592 150.373L60.0154 161.998Z" fill="#121243"/>
<path d="M62.1616 127.192C58.6751 127.565 55.8183 127.274 53.0431 125.606L50.3379 130.189L53.4862 132.999L52.8565 142.922C52.8216 143.505 53.1364 144.053 53.6611 144.321C53.8593 144.426 54.0809 144.473 54.3141 144.473H66.2311C66.8841 144.473 67.4554 144.065 67.6886 143.459C67.7469 143.307 67.7703 143.155 67.7819 143.004L68.295 132.486L73.6355 131.227L72.4111 127.029C68.3066 127.495 64.6453 127.74 62.1616 127.192Z" fill="#000000"/>
<path d="M53.0314 125.606L50.3262 130.189L46.5832 126.842C46.5016 126.772 46.42 126.691 46.3384 126.609C45.6154 125.874 45.1023 124.953 44.8808 123.939C44.8458 123.811 44.8225 123.671 44.7875 123.531C43.9596 119.881 42.4088 112.78 42.4904 112.15C42.5953 111.311 43.4582 111.672 43.4582 111.672C43.5282 110.867 44.1928 111.299 44.1928 111.299C44.1928 110.844 44.3444 110.728 44.7992 110.751C45.2539 110.774 45.8603 113.526 45.8603 113.526C45.8603 113.526 46.5366 112.092 47.0263 112.208C47.5277 112.313 46.5949 115.077 46.5949 115.077L49.8481 123.053C50.9442 124.137 51.982 124.965 53.0314 125.606Z" fill="#FFBA9A"/>
<path opacity="0.2" d="M46.8627 125.339C46.8627 125.828 46.6645 126.283 46.3497 126.61C45.6267 125.875 45.1137 124.954 44.8921 123.939C44.8571 123.811 44.8338 123.671 44.7988 123.531C44.8805 123.52 44.9504 123.52 45.032 123.52C46.0465 123.52 46.8627 124.336 46.8627 125.339Z" fill="#FF5C33"/>
<path d="M45.3009 115.147C44.8928 114.715 44.9044 114.284 45.3242 113.853L45.4058 113.934C45.0327 114.319 45.021 114.692 45.3825 115.065L45.3009 115.147Z" fill="#974245"/>
<path d="M44.4031 112.477L44.1582 111.322L44.2748 111.299L44.5197 112.453L44.4031 112.477Z" fill="#974245"/>
<path d="M43.7037 112.651L43.4238 111.695L43.5404 111.66L43.8203 112.616L43.7037 112.651Z" fill="#974245"/>
<path d="M43.0316 111.993L42.9189 112.023L43.1575 112.913L43.2702 112.883L43.0316 111.993Z" fill="#974245"/>
<path d="M79.1041 128.277C79.0574 128.37 78.9991 128.451 78.9408 128.533L78.591 129.058C78.1129 129.769 77.4016 130.282 76.5737 130.515C76.5271 130.527 76.4805 130.539 76.4338 130.55L73.6003 131.227L72.376 127.029C73.507 126.889 74.6731 126.749 75.8624 126.597L79.3722 119.963C79.3722 119.963 79.3722 117.141 79.757 117.059C80.1418 116.966 80.4567 118.703 80.4567 118.703C80.4567 118.703 81.9725 116.406 82.4506 116.406C82.9287 116.406 82.8004 117.059 82.8004 117.059C82.8004 117.059 83.2435 116.511 83.5117 116.768C83.6516 116.908 83.6283 117.397 83.6283 117.397C83.6283 117.397 83.8032 117.234 84.1414 117.374C84.8177 117.642 82.6955 122.516 79.1041 128.277Z" fill="#FFBA9A"/>
<path opacity="0.2" d="M79.104 128.277C79.0574 128.37 78.9991 128.452 78.9408 128.533L78.591 129.058C78.1129 129.769 77.4016 130.282 76.5737 130.516C76.5037 130.317 76.4688 130.119 76.4688 129.909C76.4688 128.895 77.285 128.09 78.2878 128.09C78.5793 128.078 78.8591 128.148 79.104 128.277Z" fill="#FF5C33"/>
<path d="M80.7712 120.301L80.7129 120.196C81.1676 119.928 81.2609 119.578 81.0161 119.1L81.121 119.042C81.3892 119.578 81.2726 119.998 80.7712 120.301Z" fill="#974245"/>
<path d="M82.3452 117.969L82.2402 117.911L82.7999 116.885L82.9049 116.931L82.3452 117.969Z" fill="#974245"/>
<path d="M83.1382 118.284L83.0332 118.225L83.5463 117.223L83.6512 117.281L83.1382 118.284Z" fill="#974245"/>
<path d="M83.6392 118.389L83.5459 118.331L84.024 117.55L84.1289 117.608L83.6392 118.389Z" fill="#974245"/>
<path d="M50.4047 130.111L50.2549 130.29L55.0704 134.329L55.2203 134.15L50.4047 130.111Z" fill="#121243"/>
<path d="M68.2137 136.626L67.9805 136.614L68.3303 129.897L68.5635 129.909L68.2137 136.626Z" fill="#121243"/>
<path d="M62.1613 131.541C61.4033 131.541 60.6221 131.203 60.0391 130.597L60.2023 130.434C60.8086 131.063 61.6249 131.378 62.4061 131.297C63.0591 131.227 63.6188 130.853 63.9803 130.259L64.1785 130.375C63.7821 131.028 63.1641 131.436 62.4295 131.518C62.3478 131.541 62.2545 131.541 62.1613 131.541Z" fill="#121243"/>
<path d="M62.2081 129.664C61.2753 129.769 60.4357 129.104 60.3308 128.171L59.8877 124.172L63.2576 123.799L63.7007 127.798C63.8056 128.72 63.141 129.559 62.2081 129.664Z" fill="#FFBA9A"/>
<path d="M61.0186 125.664C61.7881 126.55 62.6743 127.18 63.6888 127.448L63.4439 125.291L61.0186 125.664Z" fill="#121243"/>
<path d="M65.0537 121.338C65.0537 121.338 65.7067 125.583 64.2142 126.131C62.8266 126.644 61.0076 125.664 61.0076 125.664L59.7832 122.096L61.369 120.65L65.0537 121.338Z" fill="#FFBA9A"/>
<path d="M60.4359 123.414C60.5176 122.597 60.8441 121.898 61.6719 121.443C64.0857 122.423 65.5899 121.676 66.6743 120.114C66.6743 120.114 65.2983 120.405 64.4588 119.869C63.6309 119.333 61.4854 117.77 60.1328 120.032C58.2438 120.907 58.6402 122.434 59.4098 123.414H60.4359Z" fill="#121243"/>
<path d="M60.5705 124.615C60.9884 124.373 61.0996 123.784 60.8188 123.299C60.538 122.814 59.9715 122.617 59.5536 122.86C59.1357 123.102 59.0245 123.691 59.3053 124.176C59.5861 124.66 60.1526 124.857 60.5705 124.615Z" fill="#FFBA9A"/>
<path d="M60.2026 124.172C60.1793 123.799 60.0161 123.542 59.7129 123.391L59.8178 123.181C60.191 123.367 60.4009 123.694 60.4242 124.148L60.2026 124.172Z" fill="#121243"/>
<path d="M58.5699 87.9199C63.0358 87.9199 66.6506 91.5347 66.6506 96.0006C66.6506 99.1256 64.8665 101.842 62.2663 103.183L63.0708 107.346L60.1907 103.918C59.666 104.023 59.1179 104.081 58.5582 104.081C54.0923 104.081 50.4775 100.467 50.4775 96.0006C50.4892 91.5347 54.1039 87.9199 58.5699 87.9199Z" fill="white"/>
<path d="M63.4788 108.197L60.1089 104.186C59.6075 104.279 59.0828 104.326 58.5698 104.326C53.9872 104.326 50.2559 100.595 50.2559 96.0121C50.2559 91.4296 53.9872 87.6982 58.5698 87.6982C63.1523 87.6982 66.8837 91.4296 66.8837 96.0121C66.8837 99.0788 65.2162 101.854 62.5343 103.323L63.4788 108.197ZM60.2838 103.673L62.6742 106.518L62.0096 103.067L62.1612 102.985C64.7848 101.632 66.4172 98.9506 66.4172 96.0121C66.4172 91.6861 62.8958 88.1647 58.5698 88.1647C54.2437 88.1647 50.7223 91.6745 50.7223 96.0005C50.7223 100.327 54.2437 103.848 58.5698 103.848C59.1061 103.848 59.6309 103.79 60.1556 103.685L60.2838 103.673Z" fill="#95BEFF"/>
<path d="M54.8039 97.3295C55.4286 97.3295 55.935 96.8231 55.935 96.1984C55.935 95.5738 55.4286 95.0674 54.8039 95.0674C54.1792 95.0674 53.6729 95.5738 53.6729 96.1984C53.6729 96.8231 54.1792 97.3295 54.8039 97.3295Z" fill="#95BEFF"/>
<path d="M58.5705 97.3295C59.1952 97.3295 59.7016 96.8231 59.7016 96.1984C59.7016 95.5738 59.1952 95.0674 58.5705 95.0674C57.9458 95.0674 57.4395 95.5738 57.4395 96.1984C57.4395 96.8231 57.9458 97.3295 58.5705 97.3295Z" fill="#95BEFF"/>
<path d="M62.3361 97.3295C62.9608 97.3295 63.4672 96.8231 63.4672 96.1984C63.4672 95.5738 62.9608 95.0674 62.3361 95.0674C61.7115 95.0674 61.2051 95.5738 61.2051 96.1984C61.2051 96.8231 61.7115 97.3295 62.3361 97.3295Z" fill="#95BEFF"/>
<path d="M183.01 119.694L178.148 129.489L174.708 131.926L176.679 134.468C177.576 134.072 178.439 133.699 179.104 133.407C179.92 133.046 180.655 132.509 181.261 131.845L184.864 127.88L183.01 119.694Z" fill="#FF5C33"/>
<path d="M173.414 132.847C173.414 132.847 170.208 132.765 170.301 133.722C170.394 134.619 172.458 135.179 172.458 135.179C172.458 135.179 171.315 136.415 171.712 136.438C172.038 136.45 174.464 135.436 176.667 134.479L174.697 131.938L173.414 132.847Z" fill="#FFBA9A"/>
<path d="M192.946 167.911L192.864 174.359H185.238L188.771 171.21L189.168 167.596L192.946 167.911Z" fill="#121243"/>
<path d="M188.931 171.043L188.609 171.38L189.79 172.507L190.112 172.17L188.931 171.043Z" fill="white"/>
<path d="M195.884 142.479L201.854 140.054L204.792 147.085L200.536 145.044L197.05 146.082L195.884 142.479Z" fill="#121243"/>
<path d="M200.89 143.423L200.307 144.947L200.742 145.114L201.326 143.589L200.89 143.423Z" fill="white"/>
<path d="M181.285 134.702L187.267 168.727L193.878 168.494L189.821 130.48L181.285 134.702Z" fill="#000000"/>
<path d="M185.378 132.976L185.973 150.781C186.008 151.819 186.614 152.752 187.558 153.195C188.386 153.591 189.342 153.556 190.135 153.102L198.076 148.554L197.715 141.499L193.202 143.179L193.179 132.206L185.378 132.976Z" fill="#000000"/>
<path d="M201.609 121.747L195.243 118.016C194.566 117.62 193.82 117.375 193.051 117.281L188.946 116.792L185.541 117.864C183.536 118.494 182.136 120.29 182.008 122.389L181.285 134.702L193.155 132.207L194.1 123.683L200.956 126.901C202.262 127.554 203.848 127.111 204.629 125.863C206.192 123.356 208.746 119.182 210.378 115.964L206.483 114.576L201.609 121.747Z" fill="#FF5C33"/>
<path d="M211.124 111.357C211.124 111.357 211.322 110.844 211.054 110.681C210.798 110.518 210.506 110.809 210.506 110.809C210.506 110.809 210.798 110.098 210.378 109.97C209.958 109.842 208.349 112.197 208.349 112.197C208.349 112.197 208.151 110.716 207.731 110.739C207.311 110.774 207.055 113.736 207.055 113.736L206.483 114.576L210.378 115.963C211.334 114.074 211.975 112.512 211.929 111.812C211.871 111.031 211.124 111.357 211.124 111.357Z" fill="#FFBA9A"/>
<path d="M208.536 113.702L208.466 113.608C208.886 113.293 208.932 112.92 208.629 112.489L208.722 112.419C209.072 112.909 209.002 113.34 208.536 113.702Z" fill="#974245"/>
<path d="M210.017 111.602L209.924 111.532L210.588 110.564L210.682 110.634L210.017 111.602Z" fill="#974245"/>
<path d="M211.115 111.206L210.479 111.966L210.568 112.041L211.204 111.281L211.115 111.206Z" fill="#974245"/>
<path d="M211.454 111.683L210.883 112.406L210.974 112.479L211.545 111.756L211.454 111.683Z" fill="#974245"/>
<path d="M192.129 111.987C192.024 113.503 190.73 114.937 189.074 114.821C187.418 114.704 185.576 112.967 185.681 111.451C185.786 109.935 187.488 109.154 189.144 109.212C191.465 109.294 192.234 110.483 192.129 111.987Z" fill="#E8950C"/>
<path d="M188.794 118.902C187.931 118.843 187.278 118.097 187.337 117.234L187.581 113.678L190.706 113.888L190.462 117.444C190.415 118.307 189.657 118.96 188.794 118.902Z" fill="#FFBA9A"/>
<path d="M189.727 115.788C189.016 116.534 188.246 117.105 187.337 117.234L187.465 115.543L189.727 115.788Z" fill="#121243"/>
<path d="M186.346 111.602C186.346 111.602 185.74 115.637 187.116 116.068C188.491 116.5 190.206 115.625 190.206 115.625L190.544 112.57L190.159 110.588L186.346 111.602Z" fill="#FFBA9A"/>
<path d="M190.485 113.806C190.1 113.374 189.715 112.651 189.622 111.917C188.631 112.348 187.43 112.395 186.054 112.127L186.462 110.856L189.482 110.284L191.033 110.727L190.485 113.806Z" fill="#E8950C"/>
<path d="M191.399 114.258C191.682 113.899 191.657 113.408 191.344 113.161C191.03 112.914 190.546 113.004 190.263 113.363C189.98 113.723 190.005 114.214 190.319 114.461C190.632 114.708 191.116 114.618 191.399 114.258Z" fill="#FFBA9A"/>
<path d="M190.637 114.191L190.403 114.179C190.45 113.584 190.823 113.444 191.126 113.433L191.138 113.666C190.823 113.666 190.672 113.829 190.637 114.191Z" fill="#121243"/>
<path d="M193.5 110.482C194.124 109.606 193.92 108.39 193.045 107.766C192.169 107.141 190.953 107.345 190.329 108.221C189.704 109.097 189.908 110.313 190.784 110.937C191.66 111.561 192.876 111.358 193.5 110.482Z" fill="#E8950C"/>
<path d="M181.413 134.643L181.18 134.631L182.054 121.28L182.287 121.292L181.413 134.643Z" fill="#121243"/>
<path d="M197.225 125.245L192.152 122.68L192.257 122.47L197.33 125.035L197.225 125.245Z" fill="#121243"/>
<path d="M188.526 120.557C188.433 120.557 188.339 120.545 188.246 120.534C187.593 120.417 187.092 119.904 186.882 119.123L187.103 119.064C187.29 119.752 187.721 120.207 188.281 120.3C188.957 120.417 189.704 120.021 190.24 119.263L190.427 119.391C189.914 120.126 189.202 120.557 188.526 120.557Z" fill="#121243"/>
<path d="M188.666 153.556C188.304 153.556 188.001 153.498 187.745 153.416C186.66 153.055 186.147 152.134 186.031 151.702C185.564 150 185.331 136.474 185.331 135.891H185.564C185.564 136.031 185.797 149.965 186.264 151.644C186.392 152.099 186.905 152.892 187.826 153.195C188.981 153.58 190.438 153.125 192.059 151.889L192.199 152.075C190.695 153.218 189.529 153.556 188.666 153.556Z" fill="#121243"/>
<path d="M197.654 141.382L189.593 144.325L189.673 144.544L197.734 141.601L197.654 141.382Z" fill="#121243"/>
<path d="M196.479 80.6904C192.013 80.6904 188.398 84.3052 188.398 88.7711C188.398 91.8961 190.182 94.613 192.783 95.954L191.978 100.117L194.858 96.6886C195.383 96.7935 195.931 96.8518 196.491 96.8518C200.957 96.8518 204.571 93.2371 204.571 88.7711C204.56 84.3052 200.945 80.6904 196.479 80.6904Z" fill="white"/>
<path d="M191.57 100.968L192.514 96.082C189.821 94.6245 188.165 91.8376 188.165 88.7709C188.165 84.1884 191.896 80.457 196.479 80.457C201.061 80.457 204.793 84.1884 204.793 88.7709C204.793 93.3535 201.061 97.0848 196.479 97.0848C195.966 97.0848 195.441 97.0382 194.94 96.9449L191.57 100.968ZM196.479 80.9234C192.153 80.9234 188.631 84.4449 188.631 88.7709C188.631 91.721 190.264 94.3913 192.888 95.7439L193.039 95.8255L192.374 99.277L194.765 96.4318L194.905 96.4552C195.418 96.5601 195.954 96.6184 196.491 96.6184C200.817 96.6184 204.338 93.097 204.338 88.7709C204.338 84.4449 200.805 80.9234 196.479 80.9234Z" fill="#95BEFF"/>
<path d="M192.713 89.8666C193.338 89.8666 193.844 89.3602 193.844 88.7356C193.844 88.1109 193.338 87.6045 192.713 87.6045C192.088 87.6045 191.582 88.1109 191.582 88.7356C191.582 89.3602 192.088 89.8666 192.713 89.8666Z" fill="#95BEFF"/>
<path d="M196.48 89.8666C197.104 89.8666 197.611 89.3602 197.611 88.7356C197.611 88.1109 197.104 87.6045 196.48 87.6045C195.855 87.6045 195.349 88.1109 195.349 88.7356C195.349 89.3602 195.855 89.8666 196.48 89.8666Z" fill="#95BEFF"/>
<path d="M200.245 89.8666C200.87 89.8666 201.376 89.3602 201.376 88.7356C201.376 88.1109 200.87 87.6045 200.245 87.6045C199.621 87.6045 199.114 88.1109 199.114 88.7356C199.114 89.3602 199.621 89.8666 200.245 89.8666Z" fill="#95BEFF"/>
<path d="M250 186.183H0V186.649H250V186.183Z" fill="#001F40"/>
</g>
<defs>
<clipPath id="clip0_10227_78181">
<rect width="250" height="186.649" fill="white"/>
</clipPath>
</defs>
</svg>
