<svg width="250" height="26" viewBox="0 0 250 26" fill="none" xmlns="http://www.w3.org/2000/svg">
<g clip-path="url(#clip0_2725:37057)">
<path d="M32.2178 20.9486C31.9982 21.278 31.4491 21.3878 31.1197 21.0584C30.7902 20.8387 30.6804 20.2897 31.0098 19.9603C31.1197 19.7406 31.3394 19.6307 31.6688 19.6307C31.8884 19.6307 32.1081 19.521 32.2178 19.4112L33.7553 17.4345C33.865 17.3247 33.865 17.2148 33.865 17.1051V16.2265C33.865 15.8971 33.6455 15.5676 33.316 15.5676C33.0963 15.5676 32.8768 15.6774 32.7669 15.8971L32.4375 16.2265C32.3276 16.3364 32.3276 16.556 32.3276 16.7755C32.4375 16.9952 32.3276 17.2148 32.2178 17.4345C31.9982 17.7639 31.4491 17.8738 31.1197 17.5443C30.7902 17.3247 30.6804 16.7755 31.0098 16.4461C31.1197 16.2265 31.3394 16.1167 31.6688 16.1167C31.8884 16.1167 32.1081 16.0068 32.2178 15.8971L33.865 13.8106C33.9749 13.7007 33.9749 13.5909 33.9749 13.481V0.74244C33.9749 0.412991 33.7553 0.193359 33.4258 0.193359H6.30126C3.22641 0.193359 0.700636 2.71913 0.700636 5.90379V13.0419C0.700636 13.1516 0.700636 13.2615 0.810452 13.3713L3.77549 17.2148C3.8853 17.3247 4.10494 17.4345 4.32456 17.4345C4.5442 17.4345 4.76383 17.5443 4.98346 17.7639C5.2031 18.0934 5.2031 18.6425 4.87365 18.862C4.5442 19.0817 3.99512 19.0817 3.77549 18.7523C3.44604 18.6425 3.44604 18.313 3.44604 18.0934C3.55585 17.8738 3.44604 17.6541 3.33622 17.5443L1.68899 15.348C1.46935 15.0186 1.1399 15.0186 0.920269 15.1283C0.700636 15.2381 0.59082 15.4578 0.59082 15.6774V17.8738C0.59082 17.9835 0.59082 18.0934 0.700636 18.2032L2.01843 19.9603C2.12825 20.07 2.34788 20.1799 2.56751 20.1799C2.78714 20.1799 3.00677 20.2897 3.22641 20.5093C3.44604 20.8387 3.44604 21.3878 3.11659 21.6075C2.78714 21.8271 2.23806 21.8271 2.01843 21.4977C1.90861 21.278 1.7988 21.0584 1.90861 20.8387C2.01843 20.6191 1.90861 20.3996 1.7988 20.2897L1.68899 20.1799C1.46935 19.8504 1.1399 19.8504 0.920269 19.9603C0.700636 20.07 0.59082 20.2897 0.59082 20.5093V25.0118C0.59082 25.3412 0.810452 25.6707 1.1399 25.6707C1.35954 25.6707 1.57916 25.5609 1.68899 25.3412L10.1448 14.5793C10.3644 14.3596 10.6939 14.2499 11.0233 14.4694L11.1332 14.5793L17.0632 22.1565C17.2829 22.3762 17.6123 22.3762 17.9417 22.1565C18.1614 21.937 18.1614 21.7173 18.0516 21.4977L14.7571 15.0186C14.6472 14.7989 14.6472 14.5793 14.8669 14.3596L19.04 8.97864C19.2595 8.75901 19.589 8.64919 19.9184 8.86883L20.0282 8.97864L32.8768 25.451C33.0963 25.7805 33.4258 25.7805 33.6455 25.6707C33.865 25.5609 33.9749 25.3412 33.9749 25.1216V19.7406C33.9749 19.4112 33.7553 19.0817 33.4258 19.0817C33.2062 19.0817 32.9865 19.1915 32.8768 19.4112L32.6571 19.7406C32.5473 19.8504 32.5473 20.07 32.5473 20.2897C32.4375 20.5093 32.4375 20.8387 32.2178 20.9486Z" fill="url(#paint0_linear_2725:37057)"/>
<path d="M45.6147 18.5324L46.4933 16.8852C46.603 16.6656 46.9325 16.6656 47.1521 16.7754C47.9208 17.3244 48.9092 17.7637 49.8975 17.8736C50.5565 17.9834 51.2153 17.4343 51.2153 16.7754V16.6656C51.2153 15.8969 50.5565 15.238 49.2386 14.6889C47.5914 14.0299 45.5049 12.7122 45.5049 10.4061C45.5049 8.42938 47.0423 6.5625 50.0073 6.5625C51.5447 6.5625 52.9724 7.11158 54.1804 7.99011C54.4 8.09993 54.4 8.42938 54.2902 8.64901L53.3018 10.1864C53.192 10.4061 52.8626 10.5159 52.643 10.4061C51.8743 9.74716 50.8859 9.41772 49.8975 9.19809C49.3485 9.08828 48.7994 9.52754 48.6895 10.1864C48.6895 10.9551 49.2386 11.5042 50.776 12.0533C52.3134 12.6024 54.7295 13.8104 54.7295 16.446C54.6196 18.8619 52.5331 20.6189 50.227 20.5092H50.1172C48.4699 20.6189 46.9326 20.0699 45.7246 18.9717C45.5049 18.8619 45.5049 18.8619 45.6147 18.5324Z" fill="#000001"/>
<path d="M66.48 7.1107C66.48 6.89106 66.6995 6.78125 66.8094 6.78125H69.2253C69.4449 6.78125 69.5548 7.00089 69.5548 7.1107V15.0174C69.5548 16.3352 70.6529 17.4334 71.9707 17.4334C73.2885 17.4334 74.3866 16.3352 74.3866 15.0174V7.1107C74.3866 6.89106 74.6063 6.78125 74.8259 6.78125H77.2419C77.4615 6.78125 77.5713 7.00089 77.5713 7.1107V15.1273C77.5713 18.2022 75.0456 20.7278 71.9707 20.7278C68.8959 20.7278 66.3701 18.2022 66.3701 15.1273L66.48 7.1107Z" fill="#000001"/>
<path d="M91.628 6.89195C91.628 6.67232 91.8477 6.5625 91.9574 6.5625H92.2869C92.3967 6.5625 92.5065 6.67232 92.6164 6.78214L97.1189 15.238L101.621 6.78214C101.731 6.67232 101.841 6.5625 101.951 6.5625H102.28C102.5 6.5625 102.61 6.67232 102.61 6.89195L104.806 19.9601C104.806 20.1796 104.696 20.2895 104.586 20.3993H104.477H102.17C101.951 20.3993 101.841 20.2895 101.841 20.0699L100.962 14.0299L97.6679 20.3993C97.5581 20.5092 97.4483 20.6189 97.3384 20.6189H97.009C96.8992 20.6189 96.7893 20.5092 96.6796 20.3993L93.3851 14.0299L92.3967 20.0699C92.3967 20.2895 92.2869 20.3993 92.0673 20.3993H89.7612C89.5415 20.3993 89.4316 20.2895 89.4316 20.0699V19.9601L91.628 6.89195Z" fill="#000001"/>
<path d="M118.204 6.89195C118.204 6.67232 118.423 6.5625 118.532 6.5625H118.862C118.973 6.5625 119.082 6.67232 119.192 6.78214L123.694 15.238L128.307 6.78214C128.416 6.67232 128.526 6.5625 128.636 6.5625H128.965C129.185 6.5625 129.294 6.67232 129.294 6.89195L131.491 19.9601C131.491 20.1796 131.381 20.2895 131.271 20.3993H131.162H128.855C128.636 20.3993 128.526 20.2895 128.526 20.0699L127.647 14.0299L124.353 20.3993C124.244 20.5092 124.133 20.6189 124.023 20.6189H123.694C123.584 20.6189 123.475 20.5092 123.364 20.3993L120.07 14.0299L119.192 20.0699C119.192 20.2895 118.973 20.3993 118.862 20.3993H116.556C116.336 20.3993 116.227 20.2895 116.227 20.0699V19.9601L118.204 6.89195Z" fill="#000001"/>
<path d="M143.571 7.1107C143.571 6.89106 143.79 6.78125 143.9 6.78125H146.206C146.426 6.78125 146.536 7.00089 146.536 7.1107V19.9591C146.536 20.1788 146.316 20.2886 146.206 20.2886H143.9C143.681 20.2886 143.571 20.069 143.571 19.9591V7.1107Z" fill="#000001"/>
<path d="M161.252 9.63647H158.506C158.286 9.63647 158.177 9.41684 158.177 9.30702V7.1107C158.177 6.89106 158.396 6.78125 158.506 6.78125H167.181C167.401 6.78125 167.511 7.00089 167.511 7.1107V9.1972C167.511 9.41683 167.292 9.52665 167.181 9.52665H164.437V19.9591C164.437 20.1788 164.217 20.2886 164.107 20.2886H161.801C161.581 20.2886 161.471 20.069 161.471 19.9591L161.252 9.63647Z" fill="#000001"/>
<path d="M179.042 7.1107C179.042 6.89106 179.261 6.78125 179.372 6.78125H187.498C187.717 6.78125 187.827 7.00089 187.827 7.1107V9.1972C187.827 9.41683 187.607 9.52665 187.498 9.52665H182.116V11.9426H186.509C186.729 11.9426 186.838 12.1622 186.838 12.272V14.3586C186.838 14.5781 186.619 14.688 186.509 14.688H182.116V17.3236H187.498C187.717 17.3236 187.827 17.5432 187.827 17.653V19.7396C187.827 19.9591 187.607 20.069 187.498 20.069H179.372C179.151 20.069 179.042 19.8494 179.042 19.7396V7.1107Z" fill="#000001"/>
<path d="M206.057 6.5625C207.815 6.5625 209.462 7.11159 210.779 8.42938C210.889 8.53919 210.998 8.75883 210.779 8.97845L209.242 10.5159C209.132 10.6257 208.912 10.6257 208.802 10.5159C208.034 9.85699 207.155 9.52754 206.166 9.52754C203.971 9.52754 202.214 11.2846 202.214 13.4809C202.214 15.6772 203.971 17.4343 206.166 17.4343C207.155 17.4343 208.034 17.1049 208.802 16.5557C208.912 16.446 209.132 16.446 209.351 16.5557L210.889 18.203C210.998 18.3128 210.998 18.5324 210.889 18.7521C209.571 19.9601 207.924 20.6189 206.166 20.6189C202.323 20.6189 199.139 17.4343 199.139 13.5908C199.139 9.74716 202.214 6.5625 206.057 6.5625Z" fill="#000001"/>
<path d="M222.749 7.1107C222.749 6.89106 222.968 6.78125 223.078 6.78125H225.384C225.604 6.78125 225.714 7.00089 225.714 7.1107V12.0525H231.314V7.1107C231.314 6.89106 231.533 6.78125 231.644 6.78125H233.949C234.169 6.78125 234.279 7.00089 234.279 7.1107V19.9591C234.279 20.1788 234.06 20.2886 233.949 20.2886H231.644C231.424 20.2886 231.314 20.069 231.314 19.9591V14.7978H225.714V19.9591C225.714 20.1788 225.493 20.2886 225.384 20.2886H223.078C222.859 20.2886 222.749 20.069 222.749 19.9591V7.1107Z" fill="#000001"/>
<path fill-rule="evenodd" clip-rule="evenodd" d="M241.526 4.91441C241.417 7.00092 243.175 8.75798 245.261 8.75798C247.457 8.75798 249.104 7.00092 249.104 5.02423C249.104 2.93772 247.457 1.18067 245.37 1.18067C243.284 1.07085 241.526 2.82791 241.526 4.91441ZM241.856 4.91441C241.856 3.04753 243.394 1.51011 245.261 1.51011C247.127 1.51011 248.665 3.04753 248.665 4.91441C248.665 6.78128 247.127 8.3187 245.261 8.3187C243.394 8.3187 241.856 6.78128 241.856 4.91441Z" fill="white"/>
<path d="M245.919 6.23147C245.7 6.34129 245.48 6.34129 245.261 6.34129C244.601 6.34129 244.162 5.90203 244.053 5.35294V5.24313C244.053 4.58423 244.492 4.03516 245.15 4.03516H245.261C245.48 4.03516 245.7 4.03516 245.809 4.14497L245.7 4.47442C245.589 4.36461 245.37 4.36461 245.261 4.36461C244.822 4.36461 244.492 4.69405 244.381 5.13332V5.24313C244.381 5.68239 244.711 6.01184 245.041 6.12166H245.15C245.37 6.12166 245.48 6.12166 245.7 6.01184L245.919 6.23147Z" fill="white"/>
</g>
<defs>
<linearGradient id="paint0_linear_2725:37057" x1="0.64463" y1="25.6722" x2="33.7871" y2="25.6722" gradientUnits="userSpaceOnUse">
<stop stop-color="#673090"/>
<stop offset="1" stop-color="#922A8E"/>
</linearGradient>
<clipPath id="clip0_2725:37057">
<rect width="249.282" height="25.6272" fill="white" transform="translate(0.151367 0.193359)"/>
</clipPath>
</defs>
</svg>
