<svg width="170" height="38" viewBox="0 0 170 38" fill="none" xmlns="http://www.w3.org/2000/svg">
<g clip-path="url(#clip0_0_1)">
<path d="M18.5229 25.2836C21.8979 25.2836 24.6837 22.4415 24.6837 19.0013C24.6837 15.5612 21.8964 12.7191 18.5229 12.7191C15.1479 12.7191 12.3605 15.5612 12.3605 19.0013C12.3605 22.4415 15.1479 25.2836 18.5229 25.2836ZM18.5229 31.1913C25.1248 31.1913 30.4049 25.7321 30.4049 19.0753C30.4049 12.3446 25.0508 6.96086 18.5229 6.96086C11.9209 6.96086 6.63931 12.4201 6.63931 19.0753C6.63931 25.7321 11.9949 31.1913 18.5229 31.1913ZM0.625 19.0753C0.625 8.97993 8.6199 0.828125 18.5214 0.828125C28.4243 0.828125 36.4207 8.97994 36.4207 19.0768C36.4207 29.1722 28.4243 37.324 18.5229 37.324C8.69392 37.324 0.625 29.1722 0.625 19.0768V19.0753ZM42.2885 5.98832H62.6791V11.224H55.6375V32.2378H49.4026V11.224H42.2885V5.98832ZM93.4123 11.224H87.6911V16.4582H92.8262C94.5862 16.3842 95.9791 15.6352 95.9791 13.8411C95.9791 11.8961 94.8068 11.224 93.4123 11.224ZM81.7494 5.98832H93.852C100.747 5.98832 101.702 10.774 101.702 13.6161C101.702 17.6558 98.2528 19.7489 97.9597 19.8243C97.9597 19.8243 100.968 20.9464 100.968 24.4605V29.3217C100.968 31.2668 102.141 31.8648 102.362 32.3133H97.4461C95.0984 32.0143 95.1709 30.1447 95.1709 29.0227V24.8336C95.0969 23.787 94.8053 22.6665 92.6781 22.591H87.6897V32.3133H81.6753L81.7494 5.98832ZM127.96 5.98832V32.2378H146.518V26.8526H134.049V20.9449H144.684V16.0082H134.049V11.2225H146.518V5.98832H127.96ZM147.399 11.224H154.808V32.2378H160.896V11.224H168.377V5.98832H147.399V11.224ZM69.1346 15.2622L66.9334 22.0669H71.4808L69.1346 15.2622ZM65.6855 5.98832H72.2875L81.3112 32.2378H74.9313L73.0957 26.7771H65.3939L63.6339 32.2378H57.254L65.6885 5.98684L65.6855 5.98832ZM125.835 17.5803H114.759V22.6665H120.039C120.039 23.713 120.187 24.7595 118.939 26.2561C118.5 26.7786 117.105 27.9007 115.052 27.9007C113.365 27.9007 112.118 27.3781 111.091 26.4796C108.743 24.4605 108.23 20.6474 108.23 18.7023C108.23 16.2347 109.185 10.028 115.199 9.80296C115.199 9.80296 119.233 9.50395 120.261 14.5146H125.835C125.688 11.9715 122.827 4.94178 115.199 4.94178C112.558 4.94178 109.185 5.76332 106.397 8.60543C104.343 10.7 102.583 14.1401 102.583 19.0013C102.583 24.311 104.489 27.7512 106.249 29.6207C109.331 32.9114 112.412 33.2104 114.025 33.2104C115.273 33.2104 117.766 32.9868 120.92 30.8183L121.727 32.3133H125.909V17.5803H125.835Z" fill="#000000"/>
</g>
<defs>
<clipPath id="clip0_0_1">
<rect width="168.75" height="37.0066" fill="white" transform="translate(0.625 0.828125)"/>
</clipPath>
</defs>
</svg>
