<svg width="137" height="27" viewBox="0 0 137 27" fill="none" xmlns="http://www.w3.org/2000/svg">
<g clip-path="url(#clip0_2725:37070)">
<path d="M55.0837 14.0071V17.1311C54.9446 17.1855 54.7934 17.2974 54.6422 17.2959C51.5954 17.2717 48.541 17.3745 45.5063 17.1643C41.2891 16.874 38.0563 13.2647 37.9111 8.97949C37.7705 4.78198 40.896 0.99878 45.0451 0.360686C45.5104 0.281986 45.981 0.238016 46.4528 0.229136C49.2819 0.21704 52.111 0.229136 55.0308 0.229136V3.52394C52.362 3.52394 49.6735 3.50126 46.9851 3.52394C44.717 3.54813 42.9025 4.41908 41.8985 6.57832C40.4393 9.70528 42.2871 13.3524 45.7059 13.8121C47.6065 14.0676 49.5571 13.9633 51.485 14.0056C52.6432 14.0268 53.8015 14.0071 55.0837 14.0071ZM93.0201 0.194362V3.51184C92.137 3.51184 91.2555 3.49521 90.3755 3.51184C88.0635 3.56628 85.7258 3.44229 83.4487 3.75226C80.863 4.10458 79.2345 6.412 79.3298 9.01125C79.3607 10.2273 79.8348 11.3902 80.6629 12.2812C81.4911 13.1722 82.6161 13.7301 83.8267 13.8499C85.6124 14.0283 87.4239 13.9754 89.2233 14.0011C90.4571 14.0207 91.691 14.0011 92.9823 14.0011V17.4788C89.3321 17.3034 85.6578 17.4637 82.1105 16.8665C78.2184 16.2102 75.6373 12.2894 75.8686 8.39885C76.1196 4.17564 79.0773 0.889911 83.1629 0.322884C83.8433 0.235402 84.5287 0.192972 85.2148 0.195871C87.7807 0.186798 90.3452 0.194362 93.0201 0.194362ZM36.1103 0.295668V3.51184C33.7741 3.51184 31.4319 3.49067 29.0912 3.52243C28.1537 3.53603 27.1966 3.56628 26.2863 3.76587C23.9305 4.28451 22.2884 6.56018 22.4064 8.99915C22.5243 11.4381 24.372 13.5883 26.7717 13.8257C28.686 14.0147 30.6245 13.9663 32.5523 14.0026C33.703 14.0238 34.8537 14.0026 36.0709 14.0026V17.317C35.1924 17.317 34.3154 17.3261 33.4369 17.317C31.2066 17.2868 28.9703 17.3579 26.7505 17.19C24.6755 17.0506 22.7281 16.1387 21.2922 14.6342C19.8563 13.1298 19.0362 11.1419 18.9936 9.06266C18.8742 4.57785 21.9391 0.755337 26.3846 0.351614C29.5645 0.0628082 32.7928 0.295668 36.1103 0.295668Z" fill="#060606"/>
<path d="M129.375 14.5387V17.2453H126.048V14.7368C124.784 14.0548 123.59 13.5528 122.555 12.8225C121.557 12.1425 120.732 11.2389 120.144 10.1836C119.557 9.12838 119.224 7.95059 119.171 6.74397C119.044 4.618 119.146 2.47842 119.146 0.269282H122.61C122.61 2.3136 122.537 4.31709 122.63 6.31756C122.735 8.60533 123.998 10.1718 126.119 10.9324C129.509 12.1421 132.772 9.54734 132.868 5.5827C132.912 3.83172 132.868 2.07923 132.868 0.261719H136.391C136.262 2.91994 136.429 5.60538 135.937 8.1638C135.281 11.5735 132.741 13.4802 129.375 14.5387Z" fill="#070707"/>
<path d="M106.978 3.5477H100.237V0.269531H117.248V3.50083H110.498V17.2607H106.978V3.5477Z" fill="#090909"/>
<path d="M17.152 3.51758H10.3386V17.2608H6.91376V3.54631H0.0761719V0.25H17.152V3.51758Z" fill="#050505"/>
<path d="M60.3143 10.3974V17.2335H56.959V0.269531H60.2946V7.03907H68.5006V10.3959L60.3143 10.3974Z" fill="#030303"/>
<path d="M74.0541 17.2702H70.7275V0.271484H74.0541V17.2702Z" fill="#0F0F0F"/>
<path d="M98.1942 17.2601H94.8994V0.287109H98.2003L98.1942 17.2601Z" fill="#060606"/>
<path d="M27.2601 10.3324C27.2375 10.039 27.2042 9.78952 27.2012 9.54003V7.17969H36.0936V10.3324H27.2601Z" fill="#070707"/>
<path d="M80.7072 26.1705C79.3841 26.1281 78.2985 25.0561 78.3196 23.8147C78.3438 22.4841 79.5595 21.4468 81.0293 21.5042C82.316 21.5541 83.4123 22.6988 83.3533 23.9326C83.2913 25.2315 82.127 26.2158 80.7072 26.1705Z" fill="#D9A80D"/>
<path d="M70.6306 23.847C70.617 25.1686 69.5042 26.1892 68.104 26.1651C66.7038 26.1409 65.6257 25.0869 65.659 23.7624C65.6907 22.5331 66.8112 21.4943 68.1221 21.4943C69.4966 21.4807 70.6427 22.5527 70.6306 23.847Z" fill="#18B2D3"/>
<path d="M55.4485 21.5083C56.9605 21.5355 57.8526 22.4412 57.8209 23.9276C57.7922 25.3081 56.8622 26.1624 55.388 26.1609C53.9999 26.1609 52.9157 25.0737 52.9687 23.7416C53.0155 22.4563 54.0951 21.4841 55.4485 21.5083Z" fill="#86B203"/>
</g>
<defs>
<clipPath id="clip0_2725:37070">
<rect width="136.315" height="25.9774" fill="white" transform="translate(0.0761719 0.193359)"/>
</clipPath>
</defs>
</svg>
