<svg width="61" height="60" viewBox="0 0 61 60" fill="none" xmlns="http://www.w3.org/2000/svg">
<circle cx="30.5" cy="30" r="30" fill="#FFF5F5"/>
<path d="M24.3351 27.484C24.4551 26.652 24.6871 25.924 25.0311 25.3C25.3751 24.668 25.8031 24.144 26.3151 23.728C26.8351 23.304 27.4271 22.988 28.0911 22.78C28.7631 22.564 29.4831 22.456 30.2511 22.456C31.0511 22.456 31.7711 22.572 32.4111 22.804C33.0591 23.028 33.6111 23.344 34.0671 23.752C34.5231 24.152 34.8711 24.624 35.1111 25.168C35.3591 25.712 35.4831 26.3 35.4831 26.932C35.4831 27.484 35.4191 27.972 35.2911 28.396C35.1711 28.812 34.9951 29.176 34.7631 29.488C34.5311 29.8 34.2431 30.064 33.8991 30.28C33.5551 30.496 33.1671 30.676 32.7351 30.82C33.7751 31.148 34.5511 31.648 35.0631 32.32C35.5751 32.992 35.8311 33.836 35.8311 34.852C35.8311 35.716 35.6711 36.48 35.3511 37.144C35.0311 37.808 34.5991 38.368 34.0551 38.824C33.5111 39.272 32.8791 39.612 32.1591 39.844C31.4471 40.076 30.6911 40.192 29.8911 40.192C29.0191 40.192 28.2591 40.092 27.6111 39.892C26.9631 39.692 26.3991 39.396 25.9191 39.004C25.4391 38.612 25.0311 38.132 24.6951 37.564C24.3591 36.996 24.0711 36.34 23.8311 35.596L25.1391 35.056C25.4831 34.912 25.8031 34.876 26.0991 34.948C26.4031 35.012 26.6231 35.172 26.7591 35.428C26.9031 35.708 27.0591 35.984 27.2271 36.256C27.4031 36.528 27.6111 36.772 27.8511 36.988C28.0911 37.196 28.3711 37.368 28.6911 37.504C29.0191 37.632 29.4071 37.696 29.8551 37.696C30.3591 37.696 30.7991 37.616 31.1751 37.456C31.5511 37.288 31.8631 37.072 32.1111 36.808C32.3671 36.544 32.5551 36.252 32.6751 35.932C32.8031 35.604 32.8671 35.276 32.8671 34.948C32.8671 34.532 32.8231 34.156 32.7351 33.82C32.6471 33.476 32.4631 33.184 32.1831 32.944C31.9031 32.704 31.4991 32.516 30.9711 32.38C30.4511 32.244 29.7511 32.176 28.8711 32.176V30.064C29.5991 30.056 30.2031 29.988 30.6831 29.86C31.1631 29.732 31.5431 29.556 31.8231 29.332C32.1111 29.1 32.3111 28.824 32.4231 28.504C32.5351 28.184 32.5911 27.832 32.5911 27.448C32.5911 26.632 32.3631 26.012 31.9071 25.588C31.4511 25.164 30.8431 24.952 30.0831 24.952C29.7311 24.952 29.4071 25.004 29.1111 25.108C28.8151 25.204 28.5471 25.344 28.3071 25.528C28.0751 25.704 27.8791 25.912 27.7191 26.152C27.5591 26.392 27.4391 26.656 27.3591 26.944C27.2231 27.312 27.0431 27.556 26.8191 27.676C26.6031 27.796 26.2951 27.824 25.8951 27.76L24.3351 27.484Z" fill="#D1474E"/>
</svg>
