<svg width="230" height="241" viewBox="0 0 230 241" fill="none" xmlns="http://www.w3.org/2000/svg">
<g clip-path="url(#clip0)">
<path d="M115 220.613C167.253 220.613 209.612 178.256 209.612 126.006C209.612 73.7559 167.253 31.3988 115 31.3988C62.747 31.3988 20.3877 73.7559 20.3877 126.006C20.3877 178.256 62.747 220.613 115 220.613Z" stroke="#3AD29F" stroke-width="2" stroke-miterlimit="10" stroke-dasharray="12 12"/>
<path d="M115 240.681C178.337 240.681 229.681 189.34 229.681 126.006C229.681 62.6726 178.337 11.3306 115 11.3306C51.663 11.3306 0.318359 62.6726 0.318359 126.006C0.318359 189.34 51.663 240.681 115 240.681Z" stroke="#3AD29F" stroke-width="2" stroke-miterlimit="10" stroke-dasharray="12 12"/>
<path d="M191.754 162.54C191.756 156.097 189.353 149.886 185.016 145.121C180.679 140.356 174.72 137.381 168.306 136.778C161.891 136.175 155.482 137.987 150.333 141.86C145.184 145.732 141.665 151.387 140.466 157.717L60.9565 155.56L61.8294 169.22C61.8294 169.22 50.4919 195.378 110.078 202.348V228.787H178.964V184.828C182.854 182.55 186.081 179.295 188.324 175.385C190.568 171.476 191.75 167.047 191.754 162.54Z" fill="url(#paint0_linear)"/>
<path d="M64.5593 169.793C64.5593 169.793 53.7028 194.843 110.766 201.526V226.857H176.737V159.775L63.7119 156.71L64.5593 169.793Z" fill="#BE7C5E"/>
<path d="M97.5301 65.2567C95.81 67.971 93.0855 69.8942 89.9518 70.6062C86.8181 71.3183 83.53 70.7613 80.8057 69.0569L45.3851 45.7173C42.6707 43.9972 40.7474 41.2729 40.0353 38.1394C39.3232 35.0059 39.8802 31.7179 41.5847 28.9938C43.3047 26.2831 46.0269 24.3623 49.1574 23.6504C52.288 22.9385 55.5731 23.4932 58.2963 25.1936L93.717 48.5332C96.4335 50.2512 98.3594 52.9747 99.0739 56.1083C99.7884 59.242 99.2334 62.531 97.5301 65.2567Z" fill="url(#paint1_linear)"/>
<path d="M95.5676 63.9826C93.9686 66.5055 91.4362 68.2932 88.5234 68.9551C85.6106 69.617 82.5542 69.0993 80.0219 67.5152L47.086 45.8033C44.5629 44.2045 42.7751 41.6721 42.1132 38.7595C41.4512 35.8469 41.9689 32.7906 43.5531 30.2584C45.1521 27.7355 47.6845 25.9478 50.5973 25.2859C53.5101 24.624 56.5665 25.1416 59.0988 26.7258L92.0284 48.4249C94.556 50.0229 96.3476 52.5571 97.0109 55.4729C97.6742 58.3887 97.1552 61.4485 95.5676 63.9826Z" fill="#BE7C5E"/>
<path d="M164.214 188.166C177.897 188.166 188.989 177.075 188.989 163.393C188.989 149.712 177.897 138.62 164.214 138.62C150.532 138.62 139.44 149.712 139.44 163.393C139.44 177.075 150.532 188.166 164.214 188.166Z" fill="#BE7C5E"/>
<path d="M159.754 0H64.8491C62.6939 0 60.9468 1.74705 60.9468 3.90215V181.477C60.9468 183.632 62.6939 185.379 64.8491 185.379H159.754C161.91 185.379 163.657 183.632 163.657 181.477V3.90215C163.657 1.74705 161.91 0 159.754 0Z" fill="url(#paint2_linear)"/>
<path d="M157.919 2.50696H66.6777C64.2779 2.50696 62.3325 4.45225 62.3325 6.85188V178.534C62.3325 180.933 64.2779 182.879 66.6777 182.879H157.919C160.319 182.879 162.265 180.933 162.265 178.534V6.85188C162.265 4.45225 160.319 2.50696 157.919 2.50696Z" fill="white"/>
<path d="M137.404 7.03027C137.115 8.94312 136.151 10.6894 134.686 11.9531C133.221 13.2169 131.352 13.9147 129.418 13.9204H94.905C92.9709 13.9139 91.1029 13.2158 89.6388 11.9521C88.1746 10.6884 87.2109 8.94258 86.9219 7.03027H68.6366C68.1381 7.02986 67.6444 7.12768 67.1837 7.31815C66.723 7.50862 66.3044 7.78801 65.9517 8.14034C65.5991 8.49267 65.3193 8.91104 65.1285 9.37154C64.9376 9.83204 64.8394 10.3256 64.8394 10.8241V174.555C64.8389 175.054 64.9368 175.547 65.1272 176.008C65.3177 176.469 65.5971 176.887 65.9495 177.24C66.3018 177.593 66.7202 177.872 67.1807 178.063C67.6413 178.254 68.1349 178.352 68.6334 178.352H155.963C156.462 178.353 156.956 178.255 157.416 178.064C157.877 177.874 158.296 177.594 158.648 177.242C159.001 176.89 159.281 176.471 159.471 176.011C159.662 175.55 159.761 175.057 159.761 174.558V10.8273C159.761 10.3288 159.663 9.83514 159.473 9.37449C159.282 8.91383 159.003 8.49522 158.65 8.14259C158.298 7.78997 157.88 7.51023 157.419 7.31937C156.959 7.12851 156.465 7.03027 155.966 7.03027H137.404Z" fill="#000000"/>
<path d="M122.939 9.18677H101.942C101.59 9.18677 101.305 9.472 101.305 9.82385V9.94171C101.305 10.2936 101.59 10.5788 101.942 10.5788H122.939C123.29 10.5788 123.576 10.2936 123.576 9.94171V9.82385C123.576 9.472 123.29 9.18677 122.939 9.18677Z" fill="#DBDBDB"/>
<path d="M128.306 10.5788C128.767 10.5788 129.141 10.2052 129.141 9.74425C129.141 9.28332 128.767 8.90967 128.306 8.90967C127.845 8.90967 127.472 9.28332 127.472 9.74425C127.472 10.2052 127.845 10.5788 128.306 10.5788Z" fill="#DBDBDB"/>
<path d="M180.228 167.764C173.038 169.427 168.104 164.738 166.441 157.551L149.92 96.2095C149.131 92.744 149.744 89.1068 151.627 86.0923C153.511 83.0777 156.51 80.9307 159.971 80.1199C163.437 79.3304 167.074 79.9441 170.089 81.8271C173.103 83.71 175.25 86.7093 176.061 90.17L189.543 153.095C191.206 160.284 187.415 166.101 180.228 167.764Z" fill="url(#paint3_linear)"/>
<path d="M174.208 91.6715C172.806 85.6053 166.752 81.8239 160.686 83.2255C154.619 84.6271 150.837 90.681 152.239 96.7472L167.43 162.492C168.832 168.558 174.886 172.34 180.953 170.938C187.019 169.536 190.801 163.483 189.399 157.416L174.208 91.6715Z" fill="#BE7C5E"/>
<path d="M188.883 218.568H94.5898V240.548H188.883V218.568Z" fill="url(#paint4_linear)"/>
<path d="M186.335 221.117H97.1382V238.318H186.335V221.117Z" fill="#4D8AF0"/>
<path d="M83.7815 131.061C82.0822 133.743 79.3905 135.644 76.2944 136.347C73.1983 137.051 69.9495 136.501 67.2578 134.817L43.5028 119.447C40.8207 117.748 38.9201 115.056 38.2164 111.96C37.5127 108.865 38.0629 105.616 39.747 102.924C41.4462 100.242 44.138 98.342 47.2341 97.6383C50.3302 96.9345 53.579 97.4848 56.2707 99.1688L80.0256 114.538C82.7077 116.238 84.6083 118.929 85.312 122.025C86.0158 125.121 85.4655 128.37 83.7815 131.061Z" fill="url(#paint5_linear)"/>
<path d="M77.8175 163.594C76.1031 166.301 73.3871 168.219 70.2628 168.929C67.1386 169.639 63.8602 169.084 61.1441 167.385L46.4298 156.656C43.7231 154.942 41.8051 152.226 41.0947 149.102C40.3844 145.978 40.9396 142.7 42.639 139.984C44.3534 137.277 47.0694 135.359 50.1936 134.649C53.3179 133.939 56.5962 134.494 59.3124 136.193L74.0266 146.925C76.7325 148.639 78.6499 151.354 79.3602 154.478C80.0705 157.601 79.5159 160.878 77.8175 163.594Z" fill="url(#paint6_linear)"/>
<g opacity="0.5">
<path opacity="0.5" d="M112.299 121.343C128.122 121.343 140.95 108.516 140.95 92.6928C140.95 76.87 128.122 64.0431 112.299 64.0431C96.4751 64.0431 83.6475 76.87 83.6475 92.6928C83.6475 108.516 96.4751 121.343 112.299 121.343Z" fill="url(#paint7_linear)"/>
</g>
<path d="M112.299 119.657C127.192 119.657 139.265 107.585 139.265 92.6928C139.265 77.8006 127.192 65.7281 112.299 65.7281C97.4056 65.7281 85.3325 77.8006 85.3325 92.6928C85.3325 107.585 97.4056 119.657 112.299 119.657Z" fill="#69F0AE"/>
<path d="M100.595 89.0933L110.706 98.3629L125.032 77.2976L130.09 81.5119L110.706 106.792L96.3804 90.7815L100.595 89.0933Z" fill="white"/>
<path d="M76.6296 162.795C75.0307 165.318 72.4982 167.105 69.5854 167.767C66.6727 168.429 63.6163 167.911 61.0839 166.327L47.3604 156.338C44.8373 154.739 43.0495 152.207 42.3876 149.294C41.7256 146.381 42.2433 143.325 43.8276 140.793C45.4265 138.27 47.959 136.482 50.8717 135.82C53.7845 135.158 56.8409 135.676 59.3733 137.26L73.0936 147.269C75.612 148.867 77.3967 151.395 78.059 154.304C78.7213 157.212 78.2076 160.264 76.6296 162.795Z" fill="#BE7C5E"/>
<path d="M82.475 130.217C80.876 132.74 78.3436 134.528 75.4308 135.19C72.518 135.852 69.4616 135.334 66.9293 133.75L44.5791 119.288C42.056 117.689 40.2683 115.157 39.6063 112.244C38.9444 109.331 39.4621 106.275 41.0463 103.743C42.6452 101.22 45.1777 99.4324 48.0905 98.7705C51.0033 98.1086 54.0597 98.6262 56.592 100.21L78.9421 114.672C81.4652 116.271 83.253 118.803 83.9149 121.716C84.5769 124.629 84.0592 127.685 82.475 130.217Z" fill="#BE7C5E"/>
<path d="M89.9229 98.6814C88.2152 101.375 85.5109 103.284 82.4006 103.99C79.2904 104.697 76.0268 104.144 73.3227 102.453L43.2188 82.853C40.5249 81.1454 38.6162 78.4413 37.9095 75.3311C37.2028 72.221 37.7556 68.9576 39.4471 66.2537C41.1548 63.5599 43.859 61.6513 46.9693 60.9446C50.0796 60.238 53.3432 60.7907 56.0472 62.4821L86.1511 82.0821C88.845 83.7897 90.7538 86.4938 91.4605 89.6039C92.1671 92.7141 91.6144 95.9774 89.9229 98.6814Z" fill="url(#paint8_linear)"/>
<path d="M88.324 97.6621C86.725 100.185 84.1926 101.973 81.2798 102.635C78.367 103.297 75.3106 102.779 72.7783 101.195L44.5826 82.8371C42.0595 81.2383 40.2717 78.7059 39.6097 75.7933C38.9478 72.8806 39.4655 69.8244 41.0497 67.2922C42.6487 64.7693 45.1811 62.9816 48.0939 62.3197C51.0067 61.6578 54.0631 62.1754 56.5954 63.7596L84.788 82.1172C87.3116 83.7155 89.1 86.2476 89.7625 89.1603C90.4251 92.073 89.9079 95.1295 88.324 97.6621Z" fill="#BE7C5E"/>
</g>
<defs>
<linearGradient id="paint0_linear" x1="126.36" y1="228.803" x2="126.36" y2="136.668" gradientUnits="userSpaceOnUse">
<stop stop-color="#808080" stop-opacity="0.25"/>
<stop offset="0.54" stop-color="#808080" stop-opacity="0.12"/>
<stop offset="1" stop-color="#808080" stop-opacity="0.1"/>
</linearGradient>
<linearGradient id="paint1_linear" x1="27318" y1="14045.8" x2="27318" y2="6943" gradientUnits="userSpaceOnUse">
<stop stop-color="#808080" stop-opacity="0.25"/>
<stop offset="0.54" stop-color="#808080" stop-opacity="0.12"/>
<stop offset="1" stop-color="#808080" stop-opacity="0.1"/>
</linearGradient>
<linearGradient id="paint2_linear" x1="60739.8" y1="121248" x2="60739.8" y2="13365.1" gradientUnits="userSpaceOnUse">
<stop stop-color="#808080" stop-opacity="0.25"/>
<stop offset="0.54" stop-color="#808080" stop-opacity="0.12"/>
<stop offset="1" stop-color="#808080" stop-opacity="0.1"/>
</linearGradient>
<linearGradient id="paint3_linear" x1="31292.3" y1="53061.3" x2="31292.3" y2="28574.9" gradientUnits="userSpaceOnUse">
<stop stop-color="#808080" stop-opacity="0.25"/>
<stop offset="0.54" stop-color="#808080" stop-opacity="0.12"/>
<stop offset="1" stop-color="#808080" stop-opacity="0.1"/>
</linearGradient>
<linearGradient id="paint4_linear" x1="64509.6" y1="18380.5" x2="64509.6" y2="16863.9" gradientUnits="userSpaceOnUse">
<stop stop-color="#808080" stop-opacity="0.25"/>
<stop offset="0.54" stop-color="#808080" stop-opacity="0.12"/>
<stop offset="1" stop-color="#808080" stop-opacity="0.1"/>
</linearGradient>
<linearGradient id="paint5_linear" x1="20683" y1="19797.6" x2="20683" y2="14947.1" gradientUnits="userSpaceOnUse">
<stop stop-color="#808080" stop-opacity="0.25"/>
<stop offset="0.54" stop-color="#808080" stop-opacity="0.12"/>
<stop offset="1" stop-color="#808080" stop-opacity="0.1"/>
</linearGradient>
<linearGradient id="paint6_linear" x1="16679.5" y1="21185.8" x2="16679.5" y2="17365.1" gradientUnits="userSpaceOnUse">
<stop stop-color="#808080" stop-opacity="0.25"/>
<stop offset="0.54" stop-color="#808080" stop-opacity="0.12"/>
<stop offset="1" stop-color="#808080" stop-opacity="0.1"/>
</linearGradient>
<linearGradient id="paint7_linear" x1="20283.9" y1="21891.1" x2="20283.9" y2="11583.5" gradientUnits="userSpaceOnUse">
<stop stop-color="#808080" stop-opacity="0.25"/>
<stop offset="0.54" stop-color="#808080" stop-opacity="0.12"/>
<stop offset="1" stop-color="#808080" stop-opacity="0.1"/>
</linearGradient>
<linearGradient id="paint8_linear" x1="23975.1" y1="17503.8" x2="23975.1" y2="11523" gradientUnits="userSpaceOnUse">
<stop stop-color="#808080" stop-opacity="0.25"/>
<stop offset="0.54" stop-color="#808080" stop-opacity="0.12"/>
<stop offset="1" stop-color="#808080" stop-opacity="0.1"/>
</linearGradient>
<clipPath id="clip0">
<rect width="230" height="241" fill="white"/>
</clipPath>
</defs>
</svg>
