<svg width="32" height="28" viewBox="0 0 32 28" fill="none" xmlns="http://www.w3.org/2000/svg">
<path d="M28.2491 4.43559C29.6855 3.48442 30.6365 2.18615 31.1023 0.535032C29.7905 1.30039 28.3827 1.85655 26.9229 2.18615C25.6732 0.736389 24.0911 0 22.1943 0C20.3402 0 18.7741 0.70187 17.4959 2.06726C16.8787 2.71563 16.3906 3.49314 16.0617 4.35213C15.7328 5.21113 15.57 6.13352 15.5831 7.0628C15.5831 7.65537 15.6525 8.18465 15.7911 8.63338C10.323 8.43203 5.79701 5.98507 2.23099 1.27526C1.62658 2.42778 1.32437 3.6014 1.32437 4.81529C1.32437 7.31018 2.30032 9.28731 4.24865 10.739C3.1376 10.6374 2.1581 10.3344 1.32437 9.83768C1.32437 11.6192 1.80968 13.1073 2.78207 14.4171C3.72665 15.6934 5.05781 16.5699 6.54186 16.8928C5.98722 17.0462 5.40237 17.1191 4.80151 17.1191C4.24687 17.1191 3.85401 17.0692 3.62113 16.9599C4.03 18.4116 4.80151 19.5891 5.91612 20.4904C7.01799 21.3929 8.35833 21.8921 9.74168 21.9152C7.37381 23.9192 4.66641 24.9106 1.60347 24.9106C0.853286 24.9106 0.32176 24.8991 0 24.8378C3.01672 26.951 6.37476 28 10.0901 28C13.8926 28 17.2524 26.9606 20.1767 24.8819C23.1009 22.8146 25.259 20.2641 26.6456 17.261C28.0169 14.3552 28.7308 11.1404 28.7291 7.87973V6.98226C30.0071 5.96575 31.1136 4.71962 32 3.2984C30.8029 3.8581 29.5412 4.24063 28.2491 4.43559Z" fill="white"/>
</svg>
