<svg width="24" height="24" viewBox="0 0 24 24" fill="none" xmlns="http://www.w3.org/2000/svg">
<rect width="24" height="24" rx="2" fill="#000000"/>
<path d="M19.7143 6.00705C19.0428 6.48076 18.2992 6.84308 17.5123 7.08004C17.0899 6.5944 16.5286 6.25019 15.9042 6.09396C15.2798 5.93774 14.6226 5.97703 14.0213 6.20654C13.4199 6.43604 12.9036 6.84468 12.5421 7.37719C12.1807 7.9097 11.9914 8.54038 12.0001 9.18394V9.88523C10.7676 9.91719 9.5464 9.64386 8.44518 9.08957C7.34395 8.53529 6.3969 7.71726 5.68836 6.70835C5.68836 6.70835 2.88317 13.02 9.19486 15.8252C7.75055 16.8056 6.03001 17.2972 4.28577 17.2278C10.5975 20.7343 18.3117 17.2278 18.3117 9.1629C18.3111 8.96755 18.2923 8.77269 18.2556 8.58082C18.9714 7.87496 19.4765 6.98376 19.7143 6.00705Z" fill="white"/>
</svg>
