<svg width="30" height="31" viewBox="0 0 30 31" fill="none" xmlns="http://www.w3.org/2000/svg">
<g clip-path="url(#clip0_2990:1552)">
<path d="M26.9175 9.17836C28.1375 8.31211 29.1637 7.23086 30 5.98586V5.98461C28.8837 6.47336 27.6963 6.79836 26.4563 6.95586C27.7313 6.19461 28.705 4.99836 29.1625 3.55711C27.9737 4.26586 26.6612 4.76586 25.2625 5.04586C24.1337 3.84336 22.525 3.09961 20.77 3.09961C17.365 3.09961 14.6238 5.86336 14.6238 9.25086C14.6238 9.73836 14.665 10.2071 14.7662 10.6534C9.65375 10.4034 5.12875 7.95336 2.08875 4.21961C1.55875 5.14086 1.24625 6.19461 1.24625 7.32836C1.24625 9.45836 2.3425 11.3459 3.97875 12.4396C2.99 12.4209 2.02125 12.1334 1.2 11.6821V11.7496C1.2 14.7384 3.33125 17.2209 6.1275 17.7934C5.62625 17.9309 5.08125 17.9959 4.515 17.9959C4.12125 17.9959 3.72375 17.9734 3.35125 17.8909C4.1475 20.3259 6.41 22.1171 9.0975 22.1759C7.005 23.8121 4.3475 24.7984 1.47125 24.7984C0.9675 24.7984 0.48375 24.7759 0 24.7146C2.725 26.4709 5.9525 27.4746 9.435 27.4746C20.2887 27.4746 27.3625 18.4196 26.9175 9.17836V9.17836Z" fill="white"/>
</g>
<defs>
<clipPath id="clip0_2990:1552">
<rect width="30" height="30" fill="white" transform="translate(0 0.287109)"/>
</clipPath>
</defs>
</svg>
