<svg width="50" height="35" viewBox="0 0 50 35" fill="none" xmlns="http://www.w3.org/2000/svg">
<g clip-path="url(#clip0)">
<path d="M27.4613 4.90536C26.8562 5.27247 26.6142 5.80902 26.6142 6.34556L26.6142 28.6546C26.6142 29.2194 26.8562 29.7277 27.4613 30.0948L34.6825 34.5283C36.4576 35.6014 39.1201 34.726 39.1201 33.0881L39.1201 24.1078L33.3916 20.2672C32.3024 19.5612 31.7376 18.5446 31.7376 17.4998C31.7376 16.4549 32.3427 15.4666 33.3916 14.7323L39.1201 10.8918L39.1201 1.91172C39.1201 0.273844 36.4576 -0.601573 34.6825 0.471518L27.4613 4.90536Z" fill="#000000"/>
<path d="M48.8018 10.7225C48.8018 9.84712 47.2688 9.3953 46.3409 10.0166L39.1197 14.8172L36.1748 16.794C35.8924 16.9916 35.7714 17.2458 35.7714 17.5C35.7714 17.7538 35.8924 18.0083 36.1748 18.2059L39.1197 20.1827L46.3409 24.9834C47.2688 25.6046 48.8018 25.1528 48.8018 24.2774L48.8018 10.7225Z" fill="#000000"/>
<path d="M10.8804 1.91187L10.8804 10.8919L16.6089 14.7325C17.6981 15.4385 18.2629 16.4551 18.2629 17.4999C18.2629 18.5448 17.6578 19.5332 16.6089 20.2674L10.8804 24.1079L10.8804 33.0883C10.8804 34.7261 13.6236 35.6013 15.3583 34.5285L22.5395 30.0949C23.1447 29.7278 23.3867 29.1913 23.3867 28.6547L23.3867 6.34571C23.3867 5.78093 23.1447 5.27262 22.5395 4.90551L15.3184 0.471949C13.5429 -0.601424 10.8804 0.273992 10.8804 1.91187Z" fill="#000000"/>
<path d="M13.8251 18.2061C14.1075 18.0085 14.2285 17.754 14.2285 17.5002C14.2285 17.246 14.1075 16.9918 13.8251 16.7942L10.8801 14.8174L3.65897 10.0168C2.77185 9.42373 1.19812 9.87556 1.19812 10.7227L1.19812 24.2776C1.19812 25.153 2.73111 25.6048 3.65897 24.9835L10.8801 20.2111L13.8251 18.2061Z" fill="#000000"/>
</g>
<defs>
<clipPath id="clip0">
<rect width="35" height="50" fill="white" transform="translate(50) rotate(90)"/>
</clipPath>
</defs>
</svg>
