<svg width="60" height="60" viewBox="0 0 60 60" fill="none" xmlns="http://www.w3.org/2000/svg">
<circle cx="30" cy="30" r="30" fill="#F0F8FF"/>
<path d="M34.3111 37.24C34.6311 37.24 34.8831 37.332 35.0671 37.516C35.2591 37.692 35.3551 37.928 35.3551 38.224V40H23.4511V39.016C23.4511 38.816 23.4911 38.608 23.5711 38.392C23.6591 38.168 23.7951 37.968 23.9791 37.792L29.2471 32.512C29.6871 32.064 30.0791 31.636 30.4231 31.228C30.7751 30.82 31.0671 30.416 31.2991 30.016C31.5311 29.616 31.7071 29.212 31.8271 28.804C31.9551 28.388 32.0191 27.952 32.0191 27.496C32.0191 27.08 31.9591 26.716 31.8391 26.404C31.7191 26.084 31.5471 25.816 31.3231 25.6C31.1071 25.384 30.8431 25.224 30.5311 25.12C30.2271 25.008 29.8831 24.952 29.4991 24.952C29.1471 24.952 28.8191 25.004 28.5151 25.108C28.2191 25.204 27.9551 25.344 27.7231 25.528C27.4911 25.704 27.2951 25.912 27.1351 26.152C26.9751 26.392 26.8551 26.656 26.7751 26.944C26.6391 27.312 26.4631 27.556 26.2471 27.676C26.0311 27.796 25.7191 27.824 25.3111 27.76L23.7511 27.484C23.8711 26.652 24.1031 25.924 24.4471 25.3C24.7911 24.668 25.2191 24.144 25.7311 23.728C26.2511 23.304 26.8431 22.988 27.5071 22.78C28.1791 22.564 28.8991 22.456 29.6671 22.456C30.4671 22.456 31.1991 22.576 31.8631 22.816C32.5271 23.048 33.0951 23.38 33.5671 23.812C34.0391 24.244 34.4071 24.764 34.6711 25.372C34.9351 25.98 35.0671 26.656 35.0671 27.4C35.0671 28.04 34.9711 28.632 34.7791 29.176C34.5951 29.72 34.3431 30.24 34.0231 30.736C33.7111 31.232 33.3431 31.712 32.9191 32.176C32.4951 32.64 32.0511 33.112 31.5871 33.592L27.6751 37.588C28.0511 37.476 28.4231 37.392 28.7911 37.336C29.1671 37.272 29.5231 37.24 29.8591 37.24H34.3111Z" fill="#4385C6"/>
</svg>
