<svg width="68" height="69" viewBox="0 0 68 69" fill="none" xmlns="http://www.w3.org/2000/svg">
<circle cx="33.9286" cy="34.9032" r="33.9286" fill="#000000"/>
<path d="M39.4193 18.0675C38.7435 17.5404 37.9942 17.2617 37.2523 17.2617C35.5514 17.2617 34.0665 18.2056 33.294 19.5971C32.5216 18.2054 31.0367 17.2617 29.3357 17.2617C28.5938 17.2617 27.8445 17.5404 27.1688 18.0675C26.1509 18.8615 25.5102 20.0225 25.3656 21.3372C25.2141 22.7135 25.6332 24.1171 26.5147 25.188L32.8571 32.89C32.9646 33.02 33.1247 33.0957 33.2936 33.0957C33.4627 33.0957 33.6227 33.02 33.73 32.89L40.0724 25.188C40.9544 24.1169 41.373 22.7135 41.2215 21.3372C41.0771 20.0225 40.4371 18.8615 39.4193 18.0675ZM39.1999 24.4687L33.294 31.6396L27.3875 24.4687C26.6981 23.6319 26.3707 22.5361 26.4896 21.4609C26.6009 20.4521 27.0889 19.5638 27.8642 18.9592C28.3461 18.5833 28.8414 18.3927 29.3357 18.3927C31.2068 18.3927 32.7285 19.9144 32.7285 21.7855C32.7285 22.0975 32.982 22.351 33.294 22.351C33.606 22.351 33.8595 22.0975 33.8595 21.7855C33.8595 19.9144 35.3812 18.3927 37.2523 18.3927C37.7471 18.3927 38.2418 18.5833 38.7235 18.9592C39.4988 19.5638 39.9868 20.4521 40.0981 21.4609C40.2165 22.5353 39.889 23.6319 39.1999 24.4687Z" fill="#7EC65C"/>
<path d="M22.5469 47.7972H21.9418C21.6298 47.7972 21.3764 48.0507 21.3764 48.3627V50.6246C21.3764 50.9366 21.6298 51.1901 21.9418 51.1901H32.1203C32.4323 51.1901 32.6858 50.9366 32.6858 50.6246V45.5353C32.6858 43.2106 32.0418 40.9358 30.8238 38.9565L29.8562 37.3845C28.748 35.5834 28.162 33.5133 28.162 31.3984C28.162 30.151 27.1475 29.1365 25.9001 29.1365C24.6528 29.1365 23.6382 30.151 23.6382 31.3984V36.707C21.8055 34.4209 20.8109 31.6008 20.8109 28.6282V24.7501C20.8109 24.1463 20.5756 23.5778 20.1482 23.1504C19.4894 22.4916 18.5445 22.3027 17.6833 22.6602C16.822 23.0171 16.2871 23.8179 16.2871 24.7502V34.9448C16.2871 37.551 17.0815 40.0538 18.5846 42.1835L22.5469 47.7972ZM31.5551 50.0591H22.5075V48.9282H31.5551V50.0591ZM17.4183 24.7505C17.4183 24.2772 17.679 23.8864 18.1165 23.7054C18.5525 23.5234 19.014 23.6155 19.3487 23.9503C19.5625 24.1641 19.6801 24.4481 19.6801 24.7505V28.6286C19.6801 32.3895 21.1448 35.9254 23.804 38.5841C23.9658 38.7459 24.2084 38.7939 24.4205 38.7068C24.6313 38.6195 24.7694 38.413 24.7694 38.1845V31.3988C24.7694 30.7751 25.2765 30.2679 25.9003 30.2679C26.5241 30.2679 27.0313 30.7751 27.0313 31.3988C27.0313 33.7236 27.6752 35.9984 28.8932 37.9777L29.8609 39.5496C30.9691 41.3508 31.555 43.4208 31.555 45.5358V47.7977H23.9312L19.5086 41.5324C18.1409 39.5944 17.4181 37.3168 17.4181 34.9457L17.4183 24.7505Z" fill="#7EC65C"/>
<path d="M48.8191 22.6605C47.9572 22.3038 47.0129 22.4918 46.3542 23.1507C45.9268 23.5778 45.6915 24.1461 45.6915 24.7504V28.6285C45.6915 31.6013 44.6969 34.4213 42.8642 36.7073V31.3987C42.8642 30.1513 41.8496 29.1368 40.6023 29.1368C39.3549 29.1368 38.3404 30.1513 38.3404 31.3987C38.3404 33.5136 37.7545 35.5837 36.6462 37.3848L35.6786 38.9568C34.4605 40.9359 33.8166 43.2107 33.8166 45.5357V50.6249C33.8166 50.9369 34.0701 51.1904 34.3821 51.1904H44.5606C44.8726 51.1904 45.1261 50.9369 45.1261 50.6249V48.363C45.1261 48.051 44.8726 47.7975 44.5606 47.7975H43.9555L47.9178 42.1842C49.4208 40.0546 50.2153 37.5516 50.2153 34.9456V24.7509C50.2153 23.8186 49.6804 23.0179 48.8191 22.6609L48.8191 22.6605ZM43.9951 50.059H34.9476V48.9281H43.9951V50.059ZM49.0844 34.9451C49.0844 37.3161 48.3616 39.5939 46.9939 41.5317L42.5713 47.7971H34.9474V45.5352C34.9474 43.4202 35.5333 41.3502 36.6416 39.549L37.6092 37.9771C38.8273 35.9979 39.4712 33.7232 39.4712 31.3982C39.4712 30.7744 39.9784 30.2673 40.6022 30.2673C41.2259 30.2673 41.7331 30.7744 41.7331 31.3982V38.1839C41.7331 38.4123 41.8712 38.6188 42.082 38.7064C42.2935 38.7935 42.5366 38.7456 42.6984 38.5837C45.3576 35.9243 46.8223 32.3883 46.8223 28.6282V24.7502C46.8223 24.4482 46.9399 24.1637 47.1538 23.9499C47.488 23.6152 47.9487 23.523 48.3859 23.705C48.8234 23.8863 49.0842 24.2768 49.0842 24.7502L49.0844 34.9451Z" fill="#7EC65C"/>
<path d="M20.8111 17.2617V18.3927C22.0585 18.3927 23.073 19.4072 23.073 20.6546H24.204C24.204 18.7835 22.6822 17.2617 20.8111 17.2617Z" fill="#7EC65C"/>
<path d="M41.1681 28.0057H42.2991C42.2991 26.7584 43.3136 25.7438 44.561 25.7438V24.6129C42.6899 24.6129 41.1681 26.1346 41.1681 28.0057Z" fill="#7EC65C"/>
<path d="M42.8645 17.2617H43.9955V18.3927H42.8645V17.2617Z" fill="#7EC65C"/>
<path d="M49.0847 19.5236H50.2157V20.6546H49.0847V19.5236Z" fill="#7EC65C"/>
<path d="M22.5076 26.3093H23.6385V27.4402H22.5076V26.3093Z" fill="#7EC65C"/>
<path d="M18.5492 17.2617H19.6802V18.3927H18.5492V17.2617Z" fill="#7EC65C"/>
<path d="M36.6444 19.5236V20.6546C37.2681 20.6546 37.7753 21.1617 37.7753 21.7855H38.9062C38.9062 20.5382 37.8917 19.5236 36.6444 19.5236Z" fill="#7EC65C"/>
</svg>
