<svg width="73" height="70" viewBox="0 0 73 70" fill="none" xmlns="http://www.w3.org/2000/svg">
<path d="M14.1944 36.6875L13.1504 36.7191L14.1944 36.6875Z" fill="#000080"/>
<path d="M18.7078 53.5477C14.1733 49.0026 11.6213 43.6034 11.1046 37.4766L4.78794 38.1831L4.70358 38.1936H4.61921C4.12358 38.2042 3.48032 38.2358 2.83705 38.3096C2.69996 38.3307 2.56287 38.3413 2.42578 38.3624C3.22723 46.419 6.79155 53.9695 12.5388 59.7062C19.1718 66.3497 27.9982 69.9984 37.3941 69.9984C46.2417 69.9984 54.5936 66.7504 61.0895 60.8029L54.91 54.6233C50.0802 58.9047 43.9323 61.2563 37.4152 61.2563C30.3288 61.2774 23.6852 58.5356 18.7078 53.5477Z" fill="#000080"/>
<path d="M37.109 0C27.7236 0 18.8972 3.65923 12.2536 10.2923C11.4732 11.0726 10.7351 11.8846 10.0391 12.7282L16.2608 18.95C16.9357 18.0853 17.6423 17.2522 18.4226 16.4718C23.4 11.4944 30.033 8.74209 37.0879 8.74209C44.1638 8.74209 50.8074 11.4839 55.7848 16.4718C60.5934 21.2805 63.3141 27.6499 63.4934 34.4516C66.3828 33.9771 69.2828 33.5131 72.1828 33.0491C71.6766 24.4547 68.0701 16.4086 61.9643 10.3028C55.3313 3.65923 46.5049 0 37.109 0Z" fill="#000080"/>
<path d="M3.63814 6.31641L0 30.9082L24.5285 27.2067L16.2715 18.9497L10.0497 12.728L3.63814 6.31641Z" fill="#000000"/>
<path d="M54.8992 54.6479L61.0787 60.8274L67.406 67.1652L71.1074 42.6367L46.5156 46.2749L54.8992 54.6479Z" fill="#000000"/>
</svg>
