<svg width="600" height="230" viewBox="0 0 600 230" fill="none" xmlns="http://www.w3.org/2000/svg">
<path d="M0 10C0 4.47715 4.47715 0 10 0H590C595.523 0 600 4.47715 600 10V230H0V10Z" fill="#F0F3EE"/>
<path d="M183 194.782C181.386 193.768 179.508 193.13 177.631 192.942C176.767 192.867 175.791 192.867 175.078 193.392C174.928 193.505 174.777 193.655 174.815 193.843C174.852 193.993 174.965 194.068 175.078 194.143C177.255 195.87 180.56 196.058 183 194.782Z" fill="#97E373"/>
<path d="M182.85 194.625C181.649 193.687 180.41 192.71 179.396 191.584C178.382 190.42 177.519 189.068 177.218 187.567C177.143 187.116 177.106 186.59 177.406 186.215C180.147 188.355 182.325 191.171 182.85 194.625Z" fill="#97E373"/>
<path d="M182.962 194.786C182.737 193.284 182.662 191.707 183.037 190.243C183.375 188.741 184.201 187.314 185.478 186.488C185.966 187.615 185.741 188.891 185.403 190.055C184.877 191.857 184.051 193.585 183 195.124" fill="#97E373"/>
<path d="M185.703 199.621C184.051 199.809 182.624 200.672 181.385 201.799C180.146 202.925 179.283 204.427 178.907 206.042C180.522 205.929 181.911 204.803 182.887 203.526C183.901 202.249 184.577 200.86 185.703 199.621Z" fill="#97E373"/>
<path d="M186.267 200.414C184.953 197.148 185.403 193.205 187.506 190.352C188.444 193.693 188.107 197.448 186.267 200.414Z" fill="#97E373"/>
<path d="M189.872 204.694C188.37 204.619 186.868 204.957 185.554 205.708C184.24 206.459 183.188 207.585 182.512 208.937C182.437 209.124 182.325 209.35 182.475 209.5C182.588 209.65 182.775 209.65 182.963 209.65C184.427 209.537 185.704 208.674 186.755 207.698C187.807 206.684 188.745 205.52 189.872 204.694Z" fill="#97E373"/>
<path d="M189.759 204.437C188.971 201.959 188.933 199.293 189.609 196.777C189.872 195.801 190.322 194.75 191.224 194.299C191.299 194.262 191.374 194.224 191.486 194.262C191.562 194.299 191.599 194.374 191.637 194.449C191.975 195.125 192.05 195.876 192.012 196.627C191.975 197.378 191.824 198.129 191.674 198.842C191.374 200.194 191.224 201.658 190.473 202.822C190.285 203.085 190.135 203.385 189.985 203.686C189.834 203.986 189.834 204.099 189.722 204.324" fill="#97E373"/>
<path d="M199.259 205.861C198.545 203.195 199.296 199.928 200.986 197.751C201.098 197.6 201.286 197.413 201.474 197.45C201.774 197.488 201.849 197.901 201.849 198.201C201.699 200.942 200.798 203.608 199.259 205.861Z" fill="#97E373"/>
<path d="M200.083 206.464C203.35 207.328 207.067 206.502 209.77 204.512C208.156 203.686 206.278 203.461 204.514 203.874C202.786 204.249 201.172 205.038 200.083 206.464Z" fill="#97E373"/>
<path d="M200.835 204.651C202.637 201.685 206.129 199.732 209.621 199.582C209.208 201.009 208.044 202.098 206.73 202.773C205.416 203.449 203.951 203.712 202.525 204.013C201.961 204.088 201.173 204.2 200.835 204.651Z" fill="#97E373"/>
<path d="M199.409 196.024C199.897 194.334 200.385 192.644 200.535 190.88C200.686 189.115 200.423 187.313 199.522 185.773C197.832 189.078 197.644 192.907 199.371 196.174" fill="#97E373"/>
<path d="M205.153 193.123C207.143 189.519 211.198 186.628 215.29 186.215C213.713 190.157 209.396 193.199 205.153 193.123Z" fill="#97E373"/>
<path d="M203.875 193.847C206.842 194.298 209.357 196.175 212.136 197.339C212.736 197.602 213.375 197.789 214.013 197.714C214.651 197.639 215.29 197.189 215.402 196.588C215.515 196.062 215.29 195.499 214.914 195.124C214.539 194.748 214.051 194.523 213.563 194.298C210.559 193.059 207.292 193.021 204.138 193.772" fill="#97E373"/>
<path d="M202.187 195.91C202.862 196.097 203.088 196.435 203.613 196.886C205.416 198.425 207.593 199.514 209.884 200.115C210.109 200.19 210.447 200.19 210.559 199.965C210.672 199.777 210.522 199.552 210.409 199.364C209.433 198.163 208.081 197.337 206.617 196.811C205.153 196.285 203.914 195.609 202.187 195.76" fill="#97E373"/>
<path d="M200.234 183.367C202.637 185.62 206.054 186.784 209.32 186.446C209.47 186.446 209.621 186.408 209.733 186.296C209.958 186.033 209.696 185.657 209.433 185.47C206.767 183.367 203.538 182.503 200.234 183.367Z" fill="#97E373"/>
<path d="M202.524 182.507C205.715 180.104 210.071 179.391 213.863 180.63C212.436 182.019 210.446 182.807 208.456 182.995C206.466 183.22 204.476 182.995 202.524 182.507Z" fill="#97E373"/>
<path d="M201.624 176.766C201.361 174.1 201.548 171.997 201.361 169.331C201.361 169.106 201.286 168.843 201.098 168.768C200.835 168.656 200.572 168.994 200.497 169.294C199.709 171.772 200.122 174.588 201.624 176.728" fill="#97E373"/>
<path d="M201.437 177.062C203.239 175.935 204.59 174.471 205.867 172.782C206.731 171.58 207.482 170.153 207.294 168.689C206.055 168.651 204.891 169.327 204.102 170.266C203.314 171.205 202.826 172.369 202.488 173.533C202.112 174.696 201.85 175.898 201.437 177.062Z" fill="#97E373"/>
<path d="M205.791 175.824C209.771 174.36 213.451 172.182 216.68 169.404C215.366 168.878 213.902 169.178 212.587 169.704C209.621 170.905 207.181 172.933 205.754 175.787" fill="#97E373"/>
<path d="M202.637 178.489C204.627 178.714 206.692 178.864 208.682 178.526C210.635 178.188 212.474 177.437 214.314 176.649C214.464 176.574 214.615 176.499 214.69 176.348C214.765 176.198 214.69 175.973 214.539 175.86C214.389 175.748 214.239 175.673 214.051 175.635C212.061 175.072 209.921 175.335 207.969 176.01C206.054 176.686 204.439 177.475 202.637 178.489Z" fill="#97E373"/>
<path d="M191.185 183.448C189.834 180.67 189.909 177.441 191.073 174.625C191.899 175.902 192.011 177.516 191.861 179.018C191.711 180.52 191.26 182.097 191.223 183.599" fill="#97E373"/>
<path d="M185.704 180.698C182.287 180.623 178.87 182.087 176.542 184.603C178.232 184.866 179.997 184.415 181.574 183.664C183.113 182.913 184.502 181.824 185.854 180.773" fill="#97E373"/>
<path d="M182.062 179.461C180.372 179.311 178.795 179.123 177.18 179.612C175.566 180.1 174.102 181.226 173.463 182.765C175.04 182.953 176.617 182.54 178.044 181.902C179.433 181.264 180.747 180.362 182.062 179.461Z" fill="#97E373"/>
<path d="M187.506 179.501C186.004 178.525 184.464 177.511 182.7 177.098C180.935 176.685 178.908 176.986 177.706 178.3C179.133 179.126 180.86 179.239 182.474 179.239C184.127 179.239 186.116 179.201 187.693 179.764" fill="#97E373"/>
<path d="M187.506 179.615C184.915 177.099 183.976 172.556 184.99 169.102C187.018 172.143 187.919 175.935 187.506 179.615Z" fill="#97E373"/>
<path d="M194.564 172.446C195.053 171.32 195.39 170.118 195.841 168.992C196.292 167.828 196.817 166.702 197.643 165.8C198.469 164.899 199.596 164.224 200.835 164.148C200.084 167.64 197.756 170.719 194.64 172.484" fill="#97E373"/>
<path d="M193.288 173.949C192.5 172.861 191.561 171.359 190.472 170.533C189.383 169.707 187.957 169.219 186.643 169.519C187.994 171.922 190.547 173.611 193.288 173.949Z" fill="#97E373"/>
<path d="M193.55 172.514C193.024 171.162 192.499 169.811 192.274 168.422C192.048 166.995 192.198 165.493 192.912 164.254C194.339 166.92 194.789 169.773 193.625 172.589" fill="#97E373"/>
<path d="M194.602 164.25C195.391 161.622 197.831 159.669 200.459 158.768C200.797 158.656 201.135 158.543 201.473 158.618C201.811 158.656 202.149 158.918 202.224 159.256C202.337 159.707 201.961 160.12 201.586 160.42C199.521 162.11 197.155 163.424 194.602 164.25Z" fill="#97E373"/>
<path d="M194.602 162.078C194.715 160.389 194.827 158.624 195.353 157.009C195.916 155.395 196.967 153.893 198.544 153.18C198.807 154.907 198.056 156.634 197.118 158.098C196.216 159.563 195.09 160.989 194.527 162.641" fill="#97E373"/>
<path d="M194.565 163.243C193.889 161.328 193.852 158.85 192.688 157.198C191.899 156.034 190.585 155.208 189.909 153.969C189.459 155.133 189.571 156.484 190.059 157.611C190.548 158.775 191.336 159.751 192.2 160.652C193.063 161.591 193.777 162.304 194.565 163.243Z" fill="#97E373"/>
<path d="M194.603 220.052C194.565 220.052 194.49 207.173 194.49 191.329C194.49 175.446 194.528 162.605 194.565 162.605C194.603 162.605 194.678 175.484 194.678 191.329C194.678 207.173 194.64 220.052 194.603 220.052Z" fill="#97E373"/>
<path d="M205.828 181.496C205.828 181.496 205.678 181.571 205.34 181.684C205.002 181.796 204.552 181.947 204.026 182.134C202.9 182.51 201.36 183.073 199.671 183.749C198.019 184.462 196.442 185.025 195.578 185.814C195.128 186.189 194.865 186.602 194.752 186.903C194.64 187.203 194.602 187.391 194.602 187.391C194.602 187.391 194.602 187.353 194.602 187.241C194.602 187.166 194.64 187.015 194.715 186.865C194.827 186.565 195.053 186.114 195.503 185.701C195.954 185.288 196.554 184.913 197.268 184.575C197.981 184.237 198.77 183.899 199.596 183.561C201.285 182.885 202.825 182.322 203.951 181.984C204.514 181.796 204.965 181.684 205.303 181.609C205.641 181.534 205.828 181.496 205.828 181.496Z" fill="#97E373"/>
<path d="M209.508 172.445C209.508 172.445 209.471 172.483 209.358 172.596C209.245 172.708 209.095 172.821 208.945 172.971C208.57 173.309 208.044 173.797 207.406 174.36C206.091 175.562 204.252 177.139 202.262 178.941C200.272 180.706 198.545 182.433 197.343 183.709C196.742 184.348 196.254 184.873 195.954 185.249C195.804 185.436 195.691 185.549 195.578 185.662C195.503 185.774 195.428 185.812 195.428 185.812C195.428 185.812 195.466 185.737 195.541 185.662C195.616 185.549 195.729 185.399 195.879 185.211C196.179 184.836 196.63 184.272 197.23 183.634C198.394 182.32 200.122 180.593 202.149 178.828C204.177 177.064 205.979 175.449 207.331 174.285C207.969 173.722 208.532 173.271 208.907 172.933C209.095 172.783 209.245 172.671 209.358 172.558C209.471 172.483 209.508 172.445 209.508 172.445Z" fill="#97E373"/>
<path d="M200.122 180.777C200.084 180.739 200.497 179.8 200.91 178.561C201.324 177.322 201.511 176.309 201.586 176.309C201.624 176.309 201.511 177.36 201.098 178.599C200.873 179.2 200.648 179.763 200.46 180.138C200.272 180.551 200.16 180.777 200.122 180.777Z" fill="#97E373"/>
<path d="M194.603 188.549C194.603 188.549 194.49 188.437 194.302 188.174C194.077 187.911 193.814 187.573 193.514 187.16C192.838 186.296 191.937 185.132 190.885 183.818C189.872 182.504 188.895 181.34 188.22 180.514C187.882 180.101 187.619 179.763 187.394 179.5C187.206 179.275 187.093 179.125 187.131 179.125C187.131 179.125 187.243 179.238 187.469 179.463C187.656 179.688 187.957 180.026 188.332 180.439C189.046 181.265 190.022 182.429 191.036 183.706C192.049 185.02 192.95 186.221 193.589 187.085C193.889 187.535 194.152 187.873 194.34 188.136C194.527 188.399 194.603 188.549 194.603 188.549Z" fill="#97E373"/>
<path d="M192.124 185.391C192.087 185.428 191.449 184.64 191.073 183.476C190.81 182.65 190.81 181.861 190.848 181.523H190.923C190.885 181.674 190.848 181.749 190.848 181.749C190.848 181.749 190.848 181.674 190.848 181.523H190.923C190.96 181.861 190.998 182.612 191.261 183.438C191.599 184.565 192.2 185.353 192.124 185.391Z" fill="#97E373"/>
<path d="M188.932 181.377C188.895 181.414 188.707 181.151 188.219 180.964C187.731 180.776 187.018 180.738 186.229 180.814C185.441 180.889 184.727 181.001 184.202 181.151C183.676 181.264 183.375 181.377 183.375 181.339C183.375 181.302 183.676 181.189 184.164 181.001C184.652 180.851 185.403 180.663 186.191 180.626C186.98 180.551 187.768 180.626 188.257 180.851C188.782 181.076 188.97 181.377 188.932 181.377Z" fill="#97E373"/>
<path d="M188.182 180.408C188.182 180.445 187.769 180.258 187.093 179.995C186.418 179.77 185.441 179.507 184.353 179.432C183.264 179.357 182.25 179.432 181.537 179.582C180.823 179.695 180.41 179.845 180.373 179.807C180.373 179.807 180.485 179.77 180.673 179.695C180.861 179.619 181.161 179.544 181.499 179.469C182.212 179.319 183.226 179.169 184.353 179.282C185.479 179.357 186.455 179.657 187.131 179.92C187.469 180.07 187.732 180.183 187.919 180.295C188.107 180.37 188.22 180.408 188.182 180.408Z" fill="#97E373"/>
<path d="M194.565 176.314C194.528 176.314 194.152 175.075 193.777 173.498C193.364 171.921 193.101 170.682 193.138 170.645C193.176 170.645 193.551 171.884 193.927 173.461C194.34 175.037 194.64 176.314 194.565 176.314Z" fill="#97E373"/>
<path d="M194.639 176.314C194.601 176.314 194.339 175.488 193.738 174.624C193.137 173.761 192.386 173.31 192.424 173.273C192.424 173.235 192.649 173.348 192.949 173.536C193.25 173.723 193.588 174.099 193.926 174.512C194.526 175.413 194.677 176.314 194.639 176.314Z" fill="#97E373"/>
<path d="M194.602 213.183C194.564 213.183 194.527 212.883 194.414 212.32C194.264 211.757 194.001 211.006 193.55 210.105C192.649 208.302 191.035 205.975 189.007 203.684C187.993 202.52 187.017 201.431 186.154 200.38C185.328 199.329 184.614 198.315 184.126 197.451C183.638 196.55 183.3 195.799 183.112 195.274C183 195.011 182.962 194.786 182.925 194.635C182.887 194.485 182.85 194.41 182.887 194.41C182.887 194.41 183 194.711 183.225 195.236C183.45 195.762 183.788 196.513 184.314 197.376C184.84 198.24 185.515 199.216 186.379 200.267C187.205 201.319 188.219 202.408 189.233 203.572C191.298 205.899 192.912 208.227 193.776 210.067C194.226 211.006 194.451 211.794 194.602 212.32C194.677 212.583 194.714 212.808 194.714 212.958C194.602 213.108 194.602 213.183 194.602 213.183Z" fill="#97E373"/>
<path d="M204.74 201.73C204.74 201.73 204.552 201.843 204.214 202.031C203.876 202.219 203.388 202.519 202.825 202.932C202.262 203.345 201.661 203.908 201.023 204.584C200.384 205.26 199.746 206.048 199.07 206.874C197.718 208.564 196.479 210.028 195.728 211.23C195.353 211.83 195.053 212.319 194.902 212.656C194.715 212.994 194.64 213.182 194.602 213.182C194.602 213.182 194.602 213.145 194.64 213.032C194.677 212.919 194.715 212.807 194.827 212.619C194.978 212.243 195.24 211.755 195.616 211.155C196.329 209.953 197.568 208.451 198.92 206.762C199.596 205.936 200.272 205.147 200.91 204.471C201.548 203.795 202.186 203.232 202.75 202.819C203.313 202.406 203.839 202.106 204.176 201.956C204.364 201.881 204.514 201.805 204.589 201.768C204.702 201.73 204.74 201.693 204.74 201.73Z" fill="#97E373"/>
<path d="M204.928 205.442C204.928 205.48 204.515 205.517 203.802 205.592C203.126 205.667 202.15 205.78 201.136 206.118C200.122 206.456 199.296 206.944 198.733 207.357C198.17 207.77 197.907 208.146 197.907 208.108C197.907 208.108 197.944 207.995 198.057 207.845C198.17 207.695 198.357 207.47 198.658 207.244C199.183 206.794 200.047 206.268 201.061 205.93C202.112 205.592 203.088 205.517 203.764 205.442C204.515 205.405 204.928 205.405 204.928 205.442Z" fill="#97E373"/>
<path d="M198.244 207.735C198.168 207.697 198.694 206.909 199.07 205.895C199.445 204.844 199.52 203.905 199.595 203.942C199.633 203.942 199.633 204.168 199.595 204.543C199.558 204.919 199.445 205.407 199.257 205.97C199.07 206.496 198.807 206.946 198.619 207.284C198.431 207.547 198.281 207.735 198.244 207.735Z" fill="#97E373"/>
<path d="M208.043 191.699C208.043 191.699 207.968 191.737 207.856 191.812C207.705 191.887 207.555 191.962 207.33 192.037C207.105 192.15 206.804 192.262 206.504 192.413C206.204 192.563 205.828 192.751 205.415 192.976C205.227 193.088 205.002 193.201 204.814 193.314C204.589 193.426 204.401 193.577 204.176 193.727C203.725 193.99 203.275 194.327 202.787 194.703C201.848 195.416 200.834 196.28 199.896 197.256C198.957 198.232 198.131 199.284 197.455 200.26C197.117 200.748 196.817 201.236 196.554 201.687C196.404 201.912 196.291 202.137 196.179 202.362C196.066 202.588 195.953 202.775 195.841 203.001C195.615 203.376 195.465 203.789 195.315 204.09C195.165 204.428 195.052 204.69 194.94 204.916C194.864 205.141 194.789 205.329 194.714 205.441C194.677 205.554 194.639 205.629 194.639 205.629C194.639 205.629 194.639 205.554 194.677 205.441C194.714 205.291 194.789 205.103 194.864 204.878C194.94 204.653 195.052 204.352 195.202 204.015C195.353 203.677 195.503 203.301 195.69 202.888C195.803 202.7 195.916 202.475 196.028 202.25C196.141 202.025 196.291 201.799 196.404 201.574C196.667 201.123 196.967 200.635 197.305 200.147C197.981 199.171 198.807 198.12 199.745 197.143C200.722 196.167 201.735 195.304 202.674 194.59C203.162 194.252 203.613 193.914 204.101 193.652C204.326 193.501 204.551 193.351 204.777 193.239C205.002 193.126 205.19 193.013 205.415 192.901C205.791 192.675 206.204 192.525 206.504 192.375C206.842 192.225 207.105 192.112 207.367 192C207.593 191.924 207.78 191.849 207.893 191.774C207.968 191.737 208.043 191.699 208.043 191.699Z" fill="#97E373"/>
<path d="M200.009 197.102C200.009 197.102 200.084 196.802 200.459 196.426C200.835 196.088 201.473 195.75 202.224 195.75C202.975 195.713 203.651 195.938 204.101 196.126C204.552 196.313 204.815 196.464 204.815 196.464C204.815 196.501 204.514 196.389 204.064 196.238C203.613 196.088 202.975 195.9 202.224 195.938C201.511 195.976 200.872 196.238 200.534 196.539C200.159 196.839 200.009 197.102 200.009 197.102Z" fill="#97E373"/>
<path d="M198.807 198.348C198.77 198.31 199.22 197.672 199.296 196.696C199.408 195.757 199.108 195.006 199.183 194.969C199.22 194.969 199.296 195.119 199.408 195.457C199.483 195.757 199.558 196.208 199.483 196.733C199.408 197.222 199.258 197.672 199.108 197.935C198.958 198.198 198.807 198.348 198.807 198.348Z" fill="#97E373"/>
<path d="M185.703 215.012C185.965 219.93 187.467 224.924 189.758 229.993H199.67C201.848 224.999 203.237 220.005 203.462 215.012H185.703Z" fill="#97E373"/>
<path d="M201.849 222.985C201.849 223.023 198.583 223.06 194.565 223.06C190.548 223.06 187.281 223.023 187.281 222.985C187.281 222.948 190.548 222.91 194.565 222.91C198.583 222.91 201.849 222.948 201.849 222.985Z" fill="#000080"/>
<path d="M201.624 224.777C201.624 224.815 198.583 224.852 194.791 224.852C190.998 224.852 187.957 224.815 187.957 224.777C187.957 224.74 190.998 224.702 194.791 224.702C198.545 224.665 201.624 224.702 201.624 224.777Z" fill="#000080"/>
<path d="M189.909 218.254C189.947 218.254 189.984 219.268 189.984 220.544C189.984 221.821 189.947 222.835 189.909 222.835C189.872 222.835 189.834 221.821 189.834 220.544C189.797 219.268 189.834 218.254 189.909 218.254Z" fill="#000080"/>
<path d="M195.202 218.254C195.24 218.254 195.277 219.305 195.277 220.619C195.277 221.933 195.24 222.985 195.202 222.985C195.164 222.985 195.127 221.933 195.127 220.619C195.127 219.305 195.164 218.254 195.202 218.254Z" fill="#000080"/>
<path d="M200.196 218.215C200.233 218.215 200.271 219.304 200.271 220.618C200.271 221.932 200.233 223.021 200.196 223.021C200.158 223.021 200.121 221.932 200.121 220.618C200.083 219.304 200.121 218.215 200.196 218.215Z" fill="#000080"/>
<path d="M203.126 218.251C203.126 218.288 199.296 218.326 194.565 218.326C189.834 218.326 186.004 218.288 186.004 218.251C186.004 218.213 189.834 218.176 194.565 218.176C199.296 218.176 203.126 218.213 203.126 218.251Z" fill="#000080"/>
<path d="M443.565 156.213C445.369 156.213 446.832 154.75 446.832 152.946C446.832 151.142 445.369 149.68 443.565 149.68C441.761 149.68 440.299 151.142 440.299 152.946C440.299 154.75 441.761 156.213 443.565 156.213Z" fill="#B0FF8B"/>
<path d="M433.841 156.441C435.769 156.441 437.333 154.877 437.333 152.949C437.333 151.02 435.769 149.457 433.841 149.457C431.912 149.457 430.349 151.02 430.349 152.949C430.349 154.877 431.912 156.441 433.841 156.441Z" fill="#B0FF8B"/>
<path d="M429.998 147.621C430.468 145.623 429.229 143.622 427.23 143.152C425.232 142.683 423.231 143.922 422.761 145.92C422.291 147.919 423.531 149.92 425.529 150.39C427.528 150.859 429.529 149.62 429.998 147.621Z" fill="#B0FF8B"/>
<path d="M424.83 141.164C426.966 141.164 428.697 139.433 428.697 137.297C428.697 135.161 426.966 133.43 424.83 133.43C422.694 133.43 420.962 135.161 420.962 137.297C420.962 139.433 422.694 141.164 424.83 141.164Z" fill="#B0FF8B"/>
<path d="M433.525 129.585C433.843 127.41 432.338 125.389 430.163 125.071C427.988 124.753 425.967 126.258 425.649 128.433C425.331 130.608 426.836 132.629 429.011 132.947C431.186 133.265 433.207 131.76 433.525 129.585Z" fill="#B0FF8B"/>
<path d="M443.039 125.691C443.039 128.094 441.087 130.047 438.684 130.047C436.281 130.047 434.329 128.094 434.329 125.691C434.329 123.288 436.281 121.336 438.684 121.336C441.087 121.373 443.039 123.288 443.039 125.691Z" fill="#B0FF8B"/>
<path d="M453.85 147.429C454.249 145.733 453.198 144.035 451.502 143.637C449.807 143.238 448.109 144.289 447.71 145.985C447.312 147.68 448.363 149.378 450.058 149.777C451.754 150.175 453.452 149.124 453.85 147.429Z" fill="#B0FF8B"/>
<path d="M452.464 140.107C454.081 140.107 455.392 138.796 455.392 137.179C455.392 135.561 454.081 134.25 452.464 134.25C450.846 134.25 449.535 135.561 449.535 137.179C449.535 138.796 450.846 140.107 452.464 140.107Z" fill="#B0FF8B"/>
<path d="M450.249 128.881C450.249 130.345 449.048 131.546 447.583 131.546C446.119 131.546 444.917 130.345 444.917 128.881C444.917 127.416 446.119 126.215 447.583 126.215C449.048 126.215 450.249 127.416 450.249 128.881Z" fill="#B0FF8B"/>
<path d="M421.601 98.2489C421.601 98.2489 421.601 98.2114 421.638 98.0988C421.676 98.0237 421.676 97.8735 421.713 97.7233C421.788 97.3854 421.901 96.8973 422.051 96.259C422.352 94.9824 422.765 93.1426 423.29 90.8523C424.341 86.2716 425.768 79.9637 427.383 72.9801L427.458 72.6797L427.533 72.9801C427.571 73.0927 427.608 73.2429 427.608 73.3931C429.185 80.4894 430.649 86.9099 431.701 91.5281C432.226 93.856 432.639 95.7333 432.94 97.0474C433.09 97.6857 433.203 98.2114 433.278 98.5493C433.315 98.6995 433.353 98.8497 433.353 98.9248C433.353 98.9999 433.39 99.075 433.39 99.075C433.39 99.075 433.39 99.0374 433.353 98.9623C433.315 98.8872 433.315 98.737 433.24 98.5869C433.165 98.2489 433.052 97.7233 432.902 97.085C432.602 95.7709 432.151 93.8935 431.626 91.6032C430.574 86.9474 429.11 80.5269 427.495 73.4682C427.458 73.318 427.42 73.2053 427.42 73.0552H427.571C425.956 80.0388 424.492 86.3467 423.44 90.9273C422.915 93.2177 422.464 95.0575 422.164 96.3341C422.014 96.9724 421.901 97.4605 421.826 97.7984C421.788 97.9486 421.751 98.0988 421.713 98.1738C421.638 98.2114 421.601 98.2489 421.601 98.2489Z" fill="#263238"/>
<path d="M421.601 103.542V99.0742H433.578V103.542C433.578 106.433 431.251 108.761 428.359 108.761H426.82C423.929 108.761 421.601 106.433 421.601 103.542Z" fill="#455A64"/>
<path d="M421.601 99.0781C421.601 99.0781 421.638 99.1532 421.751 99.2659C421.826 99.416 421.976 99.6038 422.126 99.8291C422.464 100.317 422.877 101.031 423.44 101.894C424.567 103.659 426.069 106.062 427.758 108.728L427.796 108.765H427.683C429.298 106.099 430.8 103.659 431.851 101.894C432.376 101.031 432.827 100.317 433.127 99.8291C433.278 99.6038 433.39 99.416 433.465 99.2659C433.54 99.1532 433.578 99.0781 433.616 99.0781C433.616 99.0781 433.578 99.1532 433.503 99.2659C433.428 99.416 433.315 99.6038 433.165 99.8291C432.865 100.317 432.452 101.031 431.926 101.932C430.875 103.696 429.41 106.137 427.796 108.803L427.721 108.915L427.646 108.803L427.608 108.765C425.956 106.099 424.454 103.696 423.328 101.932C422.802 101.068 422.352 100.355 422.051 99.8666C421.901 99.6413 421.788 99.4536 421.713 99.3034C421.638 99.1532 421.601 99.0781 421.601 99.0781Z" fill="#263238"/>
<path d="M428.772 72.943C428.772 73.6564 428.171 74.2572 427.458 74.2572C426.744 74.2572 426.144 73.6564 426.144 72.943C426.144 72.2297 426.744 71.6289 427.458 71.6289C428.209 71.6665 428.772 72.2297 428.772 72.943Z" fill="#263238"/>
<path d="M427.458 50.7148C427.496 50.7148 427.533 55.7461 427.533 61.9413C427.533 68.1365 427.496 73.1677 427.458 73.1677C427.421 73.1677 427.383 68.1365 427.383 61.9413C427.383 55.7461 427.421 50.7148 427.458 50.7148Z" fill="#263238"/>
<path d="M428.134 109.247C428.134 109.547 427.871 109.81 427.571 109.81C427.271 109.81 427.008 109.547 427.008 109.247C427.008 108.946 427.271 108.684 427.571 108.684C427.909 108.721 428.134 108.946 428.134 109.247Z" fill="#263238"/>
<path d="M427.346 109.472C427.383 109.472 427.421 109.434 427.421 109.434C427.083 109.622 426.895 109.998 426.858 110.373C426.82 110.749 426.858 111.124 426.97 111.5C427.008 111.612 427.046 111.762 427.158 111.762C427.271 111.762 427.308 111.612 427.346 111.537C427.383 111.312 427.383 111.087 427.346 110.861C427.346 111.162 427.421 111.424 427.609 111.65C427.646 111.687 427.684 111.725 427.759 111.725C427.796 111.725 427.834 111.65 427.834 111.612C427.872 111.424 427.909 111.237 427.909 111.049C427.947 111.199 427.984 111.387 428.097 111.5C428.21 111.612 428.435 111.65 428.547 111.537C428.623 111.462 428.623 111.312 428.585 111.199C428.51 110.523 428.21 109.885 427.796 109.359" fill="#263238"/>
<path d="M422.351 99.0712C422.351 99.0712 416.982 92.876 417.583 92.6507C418.184 92.4254 422.952 95.8797 422.952 95.8797C422.952 95.8797 418.86 86.6808 419.648 86.005C420.474 85.3291 424.792 94.1526 424.792 94.1526C424.792 94.1526 424.116 81.3116 424.792 81.1614C425.468 81.0113 427.946 94.0024 427.946 94.0024C427.946 94.0024 431.588 82.1377 432.639 82.1377C433.691 82.1377 431.513 93.5518 431.513 93.5518C431.513 93.5518 435.831 86.2302 436.507 87.2065C437.182 88.1827 433.428 96.105 433.428 96.105C433.428 96.105 438.872 91.5619 439.097 92.1626C439.323 92.7634 433.202 99.1087 433.202 99.1087H422.351V99.0712Z" fill="#000000"/>
<path d="M421.601 89.7188C421.638 89.7188 422.577 91.7463 423.741 94.2994C424.867 96.8526 425.768 98.9177 425.731 98.9177C425.693 98.9177 424.755 96.8902 423.591 94.337C422.464 91.8214 421.563 89.7563 421.601 89.7188Z" fill="#263238"/>
<path d="M425.957 90.8828C425.994 90.8828 426.144 92.685 426.295 94.9003C426.445 97.1156 426.557 98.9178 426.52 98.9178C426.482 98.9178 426.332 97.1156 426.182 94.9003C425.994 92.685 425.919 90.8828 425.957 90.8828Z" fill="#263238"/>
<path d="M431.927 85.1406C431.927 85.1406 431.927 85.1782 431.89 85.2908C431.852 85.4035 431.814 85.5536 431.777 85.7038C431.664 86.0793 431.514 86.5674 431.326 87.2057C430.951 88.4823 430.425 90.2094 429.937 92.1618C429.411 94.1143 428.998 95.879 428.698 97.1555C428.548 97.7938 428.435 98.282 428.36 98.695C428.323 98.8452 428.285 98.9953 428.248 99.108C428.21 99.2206 428.21 99.2582 428.21 99.2582C428.21 99.2582 428.21 99.2206 428.21 99.108C428.248 98.9953 428.248 98.8452 428.285 98.695C428.36 98.3195 428.473 97.7938 428.585 97.1555C428.848 95.879 429.261 94.0767 429.787 92.1243C430.313 90.1719 430.838 88.4447 431.251 87.1681C431.439 86.5299 431.627 86.0417 431.739 85.7038C431.814 85.5536 431.852 85.4035 431.89 85.2908C431.927 85.1782 431.927 85.1406 431.927 85.1406Z" fill="#263238"/>
<path d="M434.516 91.7546C434.554 91.7921 433.503 93.3315 432.189 95.2464C430.874 97.1613 429.748 98.6632 429.71 98.6632C429.673 98.6256 430.724 97.0862 432.038 95.1713C433.39 93.2564 434.516 91.717 434.516 91.7546Z" fill="#263238"/>
<path d="M424.153 98.9269C424.153 98.9269 423.966 98.8142 423.665 98.5889C423.403 98.3637 423.027 98.0257 422.652 97.6503C422.276 97.2748 421.938 96.8993 421.751 96.599C421.525 96.3361 421.413 96.1484 421.413 96.1109C421.45 96.0733 422.013 96.7492 422.764 97.5376C423.553 98.3261 424.191 98.9269 424.153 98.9269Z" fill="#263238"/>
<path d="M427.42 96.4844C427.458 96.4844 427.533 97.0476 427.608 97.761C427.683 98.4743 427.683 99.0375 427.646 99.0375C427.608 99.0375 427.533 98.4743 427.458 97.761C427.42 97.0476 427.383 96.4844 427.42 96.4844Z" fill="#263238"/>
<path d="M433.578 101.852C433.578 101.852 433.428 101.889 433.127 101.964C432.827 102.002 432.377 102.077 431.851 102.152C430.762 102.302 429.298 102.452 427.608 102.527C425.956 102.565 424.454 102.49 423.365 102.34C422.84 102.265 422.389 102.189 422.089 102.152C421.788 102.077 421.638 102.039 421.638 102.039C421.638 102.039 421.826 102.039 422.089 102.077C422.389 102.114 422.84 102.189 423.365 102.227C424.454 102.34 425.956 102.415 427.608 102.377C429.26 102.302 430.762 102.152 431.813 102.039C432.339 101.964 432.752 101.927 433.09 101.889C433.39 101.852 433.578 101.852 433.578 101.852Z" fill="white"/>
<path d="M433.578 103.199C433.578 103.199 433.428 103.237 433.127 103.312C432.827 103.349 432.377 103.424 431.851 103.5C430.762 103.65 429.298 103.8 427.608 103.875C425.956 103.913 424.454 103.838 423.365 103.687C422.84 103.612 422.389 103.537 422.089 103.5C421.788 103.424 421.638 103.387 421.638 103.387C421.638 103.387 421.826 103.387 422.089 103.424C422.389 103.462 422.84 103.537 423.365 103.575C424.454 103.687 425.956 103.762 427.608 103.725C429.26 103.65 430.762 103.5 431.813 103.387C432.339 103.312 432.752 103.274 433.09 103.237C433.39 103.199 433.578 103.199 433.578 103.199Z" fill="white"/>
<path d="M281.821 100.19L280.321 103.791C280.321 103.791 281.006 105.506 281.092 106.32C281.178 107.134 280.492 110.65 280.492 110.65C280.492 110.65 279.763 110.692 279.592 109.964C279.506 109.621 279.72 107.906 279.72 107.906C279.335 107.392 278.52 107.477 278.22 108.035C277.791 108.892 277.32 109.921 277.234 110.007C277.148 110.135 277.277 111.421 277.449 112.407C277.534 112.964 276.763 113.35 276.42 112.879C276.377 112.836 276.377 112.793 276.377 112.75C276.377 112.75 275.82 113.564 275.262 112.064C275.262 112.064 274.148 111.507 274.105 110.564C274.105 110.564 273.076 109.406 272.948 108.721C272.819 108.035 275.134 103.919 275.134 103.919L278.006 98.0039L281.821 100.19Z" fill="#FFBE9D"/>
<path d="M276.849 107.52C276.806 107.52 276.635 107.734 276.335 108.163C276.077 108.591 275.692 109.234 275.606 110.006C275.52 110.82 275.82 111.506 275.992 111.978C276.206 112.449 276.378 112.706 276.378 112.706C276.42 112.706 276.292 112.406 276.12 111.935C275.949 111.463 275.735 110.777 275.82 110.049C275.906 109.32 276.249 108.677 276.463 108.248C276.72 107.82 276.849 107.562 276.849 107.52Z" fill="#EB996E"/>
<path d="M275.69 107.297C275.69 107.297 275.433 107.468 275.218 107.854C275.09 108.068 274.961 108.283 274.832 108.583C274.704 108.883 274.575 109.183 274.575 109.569C274.575 109.955 274.661 110.255 274.747 110.555C274.832 110.812 274.875 111.069 274.961 111.326C275.09 111.755 275.175 112.055 275.218 112.012C275.261 112.012 275.218 111.712 275.132 111.283C275.09 111.069 275.047 110.769 274.961 110.512C274.918 110.212 274.832 109.912 274.832 109.569C274.832 109.226 274.961 108.926 275.047 108.669C275.175 108.411 275.261 108.154 275.39 107.94C275.561 107.511 275.733 107.297 275.69 107.297Z" fill="#EB996E"/>
<path d="M274.362 107.084C274.277 107.041 273.934 107.812 273.591 108.756C273.505 108.927 273.548 109.056 273.548 109.184C273.548 109.313 273.591 109.441 273.591 109.527C273.634 109.741 273.719 109.956 273.762 110.084C273.891 110.384 274.019 110.556 274.062 110.556C274.105 110.556 274.019 110.342 273.934 110.042C273.891 109.87 273.848 109.699 273.805 109.484C273.805 109.399 273.762 109.27 273.762 109.141C273.762 109.013 273.762 108.927 273.805 108.841C273.976 108.37 274.148 107.941 274.234 107.598C274.319 107.298 274.405 107.127 274.362 107.084Z" fill="#EB996E"/>
<path d="M342.006 91.3943C342.52 90.88 342.992 90.3656 343.506 89.8512C343.635 89.7226 343.763 89.594 343.892 89.594C344.192 89.5511 344.406 89.8512 344.449 90.1084C344.449 90.4084 344.321 90.6656 344.149 90.88C343.978 91.1372 343.806 91.3515 343.763 91.6515" fill="#FFBE9D"/>
<path d="M356.537 78.6159L348.65 92.3332L333.861 92.4189C333.818 91.6902 334.375 91.09 335.061 91.0472L348.007 90.79L354.737 79.2589C355.165 78.4873 355.637 78.3158 356.537 78.6159Z" fill="#263238"/>
<path d="M343.292 92.3789C343.377 92.3789 338.619 92.3789 338.876 92.4646C338.919 92.5075 338.919 92.5504 338.962 92.6361L339.562 95.3367C340.634 95.3367 343.72 94.5222 343.72 94.5222C343.72 94.5222 344.749 93.9221 345.221 93.3648V92.3789H343.292Z" fill="#FFBE9D"/>
<path d="M339.09 92.3759L327.859 91.9043L322.672 79.6445L317.143 87.532L321.601 95.5051C322.629 97.3912 324.687 98.5058 326.83 98.42L339.948 96.9197L339.09 92.3759Z" fill="#000000"/>
<path d="M340.806 149.594L341.663 157.524C341.663 157.524 349.894 158.724 350.194 160.182L335.019 162.968L333.176 150.708L340.806 149.594Z" fill="#000000"/>
<g opacity="0.6">
<g opacity="0.6">
<g opacity="0.6">
<g opacity="0.6">
<g opacity="0.6">
<path opacity="0.6" d="M336.861 157.522C336.561 157.651 336.433 157.994 336.518 158.294C336.647 158.594 336.99 158.765 337.29 158.637C337.59 158.508 337.761 158.08 337.633 157.822C337.504 157.565 337.033 157.394 336.818 157.565" fill="white"/>
</g>
</g>
</g>
</g>
</g>
<g opacity="0.6">
<g opacity="0.6">
<g opacity="0.6">
<g opacity="0.6">
<path opacity="0.6" d="M335.063 162.98L334.891 161.737L349.637 159.551C349.637 159.551 350.152 159.679 350.366 160.28L335.063 162.98Z" fill="white"/>
</g>
</g>
</g>
</g>
<path d="M341.92 157.387C341.92 157.473 341.577 157.559 341.234 157.859C340.891 158.159 340.763 158.502 340.677 158.459C340.591 158.459 340.634 157.988 341.063 157.645C341.449 157.302 341.92 157.302 341.92 157.387Z" fill="#263238"/>
<path d="M343.637 157.818C343.68 157.904 343.379 158.076 343.165 158.418C342.951 158.761 342.951 159.104 342.865 159.104C342.779 159.147 342.694 158.676 342.951 158.247C343.165 157.861 343.594 157.733 343.637 157.818Z" fill="#263238"/>
<path d="M344.792 159.623C344.707 159.666 344.578 159.28 344.707 158.852C344.835 158.423 345.178 158.209 345.221 158.251C345.264 158.294 345.093 158.552 344.964 158.937C344.878 159.28 344.878 159.58 344.792 159.623Z" fill="#263238"/>
<path d="M341.534 155.598C341.534 155.683 341.148 155.598 340.719 155.726C340.29 155.812 339.99 155.983 339.947 155.941C339.905 155.898 340.162 155.555 340.676 155.469C341.148 155.383 341.534 155.555 341.534 155.598Z" fill="#263238"/>
<g opacity="0.3">
<g opacity="0.3">
<g opacity="0.3">
<g opacity="0.3">
<path opacity="0.3" d="M340.977 151.195L341.148 152.61L333.647 153.639L333.39 152.138L340.977 151.195Z" fill="black"/>
</g>
</g>
</g>
</g>
<path d="M341.318 154.025C341.318 154.068 341.018 154.154 340.547 154.154C340.289 154.154 340.032 154.111 339.689 154.025C339.518 153.982 339.389 153.939 339.218 153.854C339.132 153.811 339.046 153.768 338.961 153.725C338.875 153.639 338.789 153.468 338.875 153.339C338.918 153.211 339.046 153.125 339.175 153.125C339.304 153.125 339.389 153.125 339.475 153.125C339.646 153.125 339.818 153.168 339.989 153.211C340.289 153.296 340.547 153.425 340.761 153.554C341.147 153.811 341.318 154.111 341.318 154.111C341.275 154.154 341.061 153.939 340.675 153.725C340.461 153.597 340.247 153.511 339.947 153.425C339.818 153.382 339.646 153.382 339.475 153.339C339.304 153.339 339.175 153.339 339.132 153.425C339.132 153.468 339.132 153.468 339.175 153.511C339.218 153.554 339.304 153.597 339.346 153.597C339.475 153.682 339.646 153.725 339.775 153.768C340.075 153.854 340.332 153.897 340.547 153.939C341.018 154.025 341.318 153.982 341.318 154.025Z" fill="#263238"/>
<path d="M341.235 154.135C341.192 154.135 341.021 153.921 340.935 153.406C340.892 153.149 340.85 152.892 340.935 152.549C340.978 152.378 341.021 152.206 341.064 152.035C341.15 151.863 341.192 151.649 341.493 151.563C341.664 151.52 341.793 151.649 341.835 151.735C341.921 151.82 341.921 151.906 341.964 151.992C342.007 152.163 342.05 152.335 342.05 152.506C342.05 152.849 341.964 153.149 341.835 153.364C341.578 153.792 341.278 153.921 341.278 153.921C341.235 153.878 341.493 153.707 341.664 153.278C341.75 153.064 341.793 152.806 341.793 152.506C341.793 152.378 341.75 152.206 341.707 152.078C341.664 151.906 341.578 151.778 341.535 151.82C341.45 151.82 341.364 151.992 341.321 152.12C341.278 152.249 341.235 152.421 341.192 152.549C341.15 152.849 341.15 153.106 341.15 153.321C341.15 153.878 341.278 154.135 341.235 154.135Z" fill="#263238"/>
<path d="M277.62 154.022L270.247 156.98C270.247 156.98 271.276 165.253 269.99 165.939L263.217 152.05L274.534 146.992L277.62 154.022Z" fill="#000000"/>
<g opacity="0.6">
<g opacity="0.6">
<g opacity="0.6">
<g opacity="0.6">
<g opacity="0.6">
<path opacity="0.6" d="M268.92 152.349C268.706 152.091 268.32 152.049 268.106 152.22C267.848 152.392 267.805 152.82 267.977 153.035C268.148 153.292 268.62 153.377 268.877 153.163C269.091 152.949 269.134 152.477 268.92 152.306" fill="white"/>
</g>
</g>
</g>
</g>
</g>
<g opacity="0.6">
<g opacity="0.6">
<g opacity="0.6">
<g opacity="0.6">
<path opacity="0.6" d="M263.218 152.057L264.375 151.543L270.462 165.174C270.462 165.174 270.462 165.732 269.948 166.075L263.218 152.057Z" fill="white"/>
</g>
</g>
</g>
</g>
<path d="M270.419 157.19C270.333 157.233 270.162 156.89 269.776 156.633C269.39 156.375 269.047 156.332 269.047 156.247C269.047 156.161 269.476 156.118 269.948 156.418C270.376 156.718 270.462 157.147 270.419 157.19Z" fill="#263238"/>
<path d="M270.461 158.948C270.418 158.991 270.161 158.733 269.775 158.648C269.389 158.519 269.046 158.605 269.003 158.562C268.96 158.519 269.346 158.262 269.818 158.433C270.289 158.519 270.504 158.905 270.461 158.948Z" fill="#263238"/>
<path d="M269.046 160.542C269.003 160.499 269.303 160.242 269.775 160.242C270.246 160.242 270.504 160.499 270.461 160.542C270.418 160.585 270.118 160.499 269.732 160.499C269.389 160.499 269.089 160.628 269.046 160.542Z" fill="#263238"/>
<path d="M272.002 156.331C271.916 156.331 271.873 155.988 271.702 155.602C271.53 155.217 271.23 154.959 271.273 154.917C271.316 154.874 271.702 155.045 271.916 155.474C272.173 155.902 272.088 156.331 272.002 156.331Z" fill="#263238"/>
<g opacity="0.3">
<g opacity="0.3">
<g opacity="0.3">
<g opacity="0.3">
<path opacity="0.3" d="M276.162 154.624L274.833 155.138L271.832 148.194L272.989 147.637L276.162 154.624Z" fill="black"/>
</g>
</g>
</g>
</g>
<path d="M273.506 155.712C273.463 155.712 273.334 155.455 273.206 154.984C273.163 154.769 273.12 154.469 273.12 154.126C273.12 153.955 273.12 153.784 273.163 153.612C273.163 153.526 273.163 153.441 273.249 153.312C273.292 153.183 273.463 153.098 273.592 153.098C273.72 153.141 273.849 153.226 273.892 153.312C273.935 153.398 273.977 153.526 273.977 153.612C274.02 153.784 274.02 153.955 274.02 154.126C274.02 154.469 273.977 154.727 273.892 154.984C273.72 155.455 273.506 155.67 273.506 155.67C273.463 155.67 273.635 155.412 273.72 154.941C273.763 154.727 273.806 154.469 273.806 154.169C273.806 154.041 273.763 153.869 273.763 153.698C273.72 153.526 273.677 153.398 273.592 153.398C273.549 153.398 273.549 153.398 273.506 153.441C273.463 153.483 273.463 153.569 273.463 153.655C273.42 153.826 273.42 153.955 273.42 154.126C273.42 154.427 273.42 154.684 273.463 154.941C273.42 155.412 273.549 155.712 273.506 155.712Z" fill="#263238"/>
<path d="M273.376 155.638C273.333 155.638 273.547 155.381 273.976 155.167C274.19 155.038 274.491 154.953 274.791 154.91C274.962 154.91 275.134 154.867 275.305 154.91C275.476 154.91 275.734 154.953 275.862 155.21C275.948 155.338 275.862 155.51 275.777 155.596C275.691 155.681 275.605 155.724 275.562 155.767C275.391 155.853 275.262 155.938 275.091 155.981C274.791 156.067 274.448 156.067 274.233 155.981C273.762 155.853 273.547 155.596 273.547 155.596C273.59 155.553 273.805 155.724 274.276 155.81C274.491 155.853 274.748 155.81 275.048 155.724C275.176 155.681 275.305 155.596 275.434 155.51C275.562 155.424 275.691 155.295 275.648 155.253C275.605 155.167 275.434 155.124 275.305 155.124C275.134 155.124 275.005 155.124 274.833 155.124C274.533 155.167 274.276 155.21 274.062 155.295C273.633 155.467 273.376 155.681 273.376 155.638Z" fill="#263238"/>
<path d="M328.16 53.3708C327.003 52.6421 325.374 53.4565 324.174 52.8564C323.445 52.5135 323.016 51.699 322.416 51.1418C321.516 50.2844 320.059 49.8129 318.858 50.0701C317.658 50.3273 316.801 50.7131 316.372 51.8705C315.558 51.056 313.586 51.8705 312.728 52.8993C311.871 53.9281 311.7 55.1712 311.657 56.5429C311.614 58.8577 312.043 61.1725 312.9 63.3587C312.986 63.5302 313.114 63.7874 313.329 63.7445C313.457 63.7016 313.543 63.573 313.586 63.4444C314.057 62.3299 314.229 61.1296 314.443 59.9294C314.657 58.7291 314.915 57.5289 315.558 56.5001C316.201 55.4713 317.358 54.6997 318.558 54.7854C319.458 54.8283 320.273 55.3427 320.916 55.9857C321.559 56.6287 322.073 57.3574 322.673 58.0004C323.274 58.6863 323.959 59.2864 324.817 59.5436C325.674 59.8008 326.703 59.6293 327.26 58.9435C327.817 58.2576 327.732 57.0573 326.917 56.6287C327.732 56.7573 328.589 56.2857 328.846 55.5141C329.146 54.6997 328.846 53.7995 328.16 53.3708Z" fill="#263238"/>
<path d="M318.946 72.6238L319.461 70.0947C319.461 70.0947 322.933 70.3091 323.704 67.0083C324.09 65.3794 324.605 62.0358 325.033 58.9494C325.505 55.6487 323.361 52.5623 320.104 51.8336L319.761 51.7479C316.246 51.1477 313.759 53.8483 313.288 57.3634L310.587 70.9092C310.116 73.1811 311.616 75.4102 313.888 75.8817L313.802 77.1677C316.117 77.6392 318.432 74.8958 318.946 72.6238Z" fill="#FFBE9D"/>
<path d="M319.46 70.1158C319.46 70.1158 317.316 69.8157 315.387 67.8867C315.387 67.8867 315.859 70.5444 319.288 70.9731L319.46 70.1158Z" fill="#EB996E"/>
<path d="M323.83 61.3412C323.787 61.5984 323.53 61.7698 323.273 61.727C323.016 61.6841 322.844 61.4269 322.887 61.1697C322.93 60.9125 323.187 60.741 323.444 60.7839C323.701 60.8268 323.873 61.084 323.83 61.3412Z" fill="#263238"/>
<path d="M323.956 60.4045C323.871 60.4473 323.571 60.1044 323.056 59.9758C322.542 59.8472 322.113 60.0187 322.07 59.9758C322.07 59.9329 322.156 59.8472 322.328 59.7615C322.499 59.6757 322.799 59.6329 323.142 59.7186C323.442 59.8043 323.699 59.9758 323.828 60.1473C323.999 60.233 323.999 60.3616 323.956 60.4045Z" fill="#263238"/>
<path d="M318.855 60.267C318.813 60.5242 318.555 60.6956 318.298 60.6528C318.041 60.6099 317.869 60.3527 317.912 60.0955C317.955 59.8383 318.212 59.6668 318.47 59.7097C318.727 59.7526 318.898 60.0098 318.855 60.267Z" fill="#263238"/>
<path d="M318.896 59.3342C318.811 59.377 318.511 59.0341 317.996 58.9055C317.482 58.7769 317.053 58.9484 317.01 58.9055C317.01 58.8626 317.053 58.7769 317.267 58.6912C317.439 58.6054 317.739 58.5626 318.082 58.6483C318.382 58.734 318.639 58.9055 318.768 59.077C318.896 59.2056 318.939 59.3342 318.896 59.3342Z" fill="#263238"/>
<path d="M319.926 63.5599C319.926 63.517 320.269 63.5599 320.783 63.6027C320.912 63.6027 321.04 63.6028 321.083 63.517C321.126 63.4313 321.126 63.2598 321.083 63.0884C321.04 62.7454 320.998 62.3596 320.912 62.0167C320.698 60.4735 320.569 59.2304 320.612 59.1875C320.655 59.1875 320.912 60.4306 321.126 61.9738C321.169 62.3596 321.212 62.7026 321.255 63.0455C321.255 63.2169 321.298 63.3884 321.212 63.5599C321.169 63.6456 321.04 63.6885 320.955 63.6885C320.869 63.6885 320.783 63.6885 320.74 63.6885C320.226 63.6456 319.883 63.6027 319.926 63.5599Z" fill="#263238"/>
<path d="M318.303 63.6016C318.389 63.6016 318.26 64.1588 318.646 64.6732C319.032 65.1876 319.632 65.2305 319.632 65.3162C319.632 65.3591 319.461 65.402 319.203 65.3591C318.946 65.3162 318.603 65.1448 318.389 64.8447C318.132 64.5446 318.089 64.2017 318.132 63.9445C318.175 63.7302 318.26 63.6016 318.303 63.6016Z" fill="#263238"/>
<path d="M319.544 56.6937C319.459 56.8223 318.944 56.6508 318.344 56.5651C317.744 56.4793 317.187 56.5651 317.144 56.3936C317.101 56.3079 317.23 56.2221 317.444 56.1364C317.658 56.0507 318.001 56.0078 318.387 56.0078C318.773 56.0507 319.073 56.1793 319.287 56.3079C319.502 56.5222 319.587 56.6508 319.544 56.6937Z" fill="#263238"/>
<path d="M324.127 58.8701C323.998 58.9558 323.698 58.7843 323.269 58.6557C322.841 58.5271 322.455 58.57 322.412 58.3985C322.369 58.3128 322.455 58.2271 322.669 58.1413C322.841 58.0556 323.141 58.0556 323.441 58.0985C323.741 58.1842 323.955 58.3557 324.084 58.4843C324.17 58.6986 324.17 58.8272 324.127 58.8701Z" fill="#263238"/>
<path d="M313.075 59.9051C313.033 59.8622 310.932 58.7048 310.503 61.0196C310.075 63.3344 312.475 63.2915 312.475 63.2486C312.475 63.12 313.075 59.9051 313.075 59.9051Z" fill="#FFBE9D"/>
<path d="M311.913 62.1741C311.913 62.1741 311.871 62.1741 311.785 62.217C311.699 62.217 311.613 62.217 311.485 62.1741C311.27 62.0455 311.142 61.6168 311.185 61.1882C311.228 60.9738 311.313 60.8024 311.399 60.6309C311.485 60.4594 311.613 60.3737 311.742 60.3737C311.871 60.3737 311.956 60.4594 311.956 60.5452C311.956 60.6309 311.956 60.6738 311.956 60.6738C311.956 60.6738 311.999 60.6309 311.999 60.5452C311.999 60.5023 311.999 60.4594 311.956 60.3737C311.913 60.3308 311.828 60.288 311.742 60.288C311.571 60.2451 311.356 60.4166 311.27 60.5452C311.142 60.7166 311.056 60.931 311.013 61.1453C310.928 61.6168 311.099 62.0884 311.399 62.2598C311.571 62.3456 311.699 62.3027 311.785 62.2598C311.913 62.2598 311.913 62.217 311.913 62.1741Z" fill="#EB996E"/>
<path d="M325.931 58.3803C324.387 58.4231 322.801 57.6944 321.858 56.4513C321.215 55.594 320.787 54.4366 319.844 53.8793C319.201 53.4935 318.429 53.4935 317.7 53.7078C317.014 53.9222 316.371 54.308 315.814 54.7795C316.071 56.6228 315.214 58.4231 314.357 60.0949C314.271 60.2664 314.142 60.4807 313.971 60.5665C313.671 60.6951 313.285 60.4807 313.114 60.1807C312.813 59.7091 312.813 59.109 312.813 58.5517C312.856 57.2657 313.114 55.9798 313.671 54.8652C314.228 53.7078 315.085 52.679 316.157 52.036C317.529 51.2216 319.243 51.0072 320.787 51.393C322.33 51.7788 323.744 52.679 324.773 53.9222C325.245 54.4794 325.673 55.1224 325.802 55.8512" fill="#263238"/>
<path d="M328.932 54.3986C328.932 54.3986 328.932 54.4843 328.846 54.6129C328.803 54.7415 328.632 54.913 328.418 54.9987C328.203 55.1273 327.86 55.1702 327.517 55.0845C327.346 55.0416 327.132 54.9987 326.96 54.913C326.789 54.8273 326.574 54.6987 326.446 54.5272C326.317 54.3558 326.231 54.0557 326.317 53.7985C326.403 53.5413 326.66 53.3698 326.917 53.327C327.046 53.327 327.217 53.327 327.346 53.3698C327.474 53.4127 327.603 53.4984 327.689 53.627C327.86 53.8842 327.903 54.1843 327.86 54.4843C327.775 54.7844 327.603 55.0845 327.303 55.2559C327.046 55.4274 326.703 55.5131 326.36 55.556C325.674 55.5989 325.031 55.2988 324.474 54.913C323.917 54.5272 323.445 54.0128 323.016 53.4984C322.588 53.0269 322.159 52.5554 321.688 52.1696C321.216 51.7838 320.702 51.5266 320.187 51.4408C319.673 51.3551 319.158 51.3551 318.73 51.4837C317.872 51.698 317.272 52.1696 316.886 52.5125C316.715 52.684 316.586 52.8126 316.501 52.9412C316.415 53.0269 316.372 53.1126 316.372 53.1126C316.372 53.1126 316.372 53.1126 316.415 53.0698C316.415 53.0269 316.458 52.984 316.501 52.9412C316.586 52.8554 316.715 52.684 316.886 52.5125C317.229 52.1696 317.83 51.6552 318.73 51.4408C319.158 51.3122 319.673 51.2694 320.23 51.398C320.744 51.4837 321.302 51.7838 321.773 52.1267C322.245 52.5125 322.673 52.984 323.102 53.4556C323.531 53.9271 324.002 54.4415 324.56 54.8273C325.117 55.2131 325.76 55.4703 326.403 55.4703C326.703 55.4703 327.046 55.3845 327.303 55.2131C327.56 55.0416 327.732 54.7844 327.817 54.5272C327.86 54.27 327.86 53.97 327.689 53.7556C327.517 53.5413 327.26 53.4556 327.003 53.4984C326.746 53.5413 326.531 53.6699 326.446 53.8842C326.36 54.0985 326.446 54.3558 326.574 54.5272C326.703 54.6987 326.874 54.8273 327.046 54.913C327.217 54.9987 327.432 55.0416 327.603 55.0845C327.946 55.1702 328.246 55.1273 328.503 54.9987C328.718 54.913 328.846 54.7415 328.932 54.6129C328.889 54.4415 328.932 54.3986 328.932 54.3986Z" fill="#455A64"/>
<path d="M311.828 54.7345C311.828 54.6916 312.042 54.906 312.471 55.0774C312.685 55.1632 312.943 55.206 313.243 55.1632C313.543 55.1632 313.886 55.0774 314.186 54.9488C314.829 54.6916 315.3 54.2201 315.515 53.8343C315.729 53.4485 315.815 53.1484 315.815 53.1484C315.815 53.1484 315.815 53.2342 315.772 53.3628C315.729 53.4914 315.686 53.6628 315.558 53.8772C315.343 54.3058 314.872 54.8202 314.186 55.0774C313.843 55.206 313.5 55.2918 313.2 55.2918C312.9 55.2918 312.6 55.2489 312.385 55.1632C312.171 55.0774 312 54.9488 311.914 54.906C311.871 54.7774 311.828 54.7345 311.828 54.7345Z" fill="#455A64"/>
<path d="M311.572 56.4103C311.572 56.4103 311.829 56.496 312.258 56.5817C312.686 56.6675 313.329 56.6675 313.929 56.4103C314.572 56.1531 315.044 55.7673 315.301 55.4243C315.601 55.0814 315.687 54.8242 315.73 54.8242C315.73 54.8242 315.73 54.91 315.644 54.9957C315.601 55.1243 315.515 55.2529 315.387 55.4672C315.13 55.853 314.658 56.2817 313.972 56.5389C313.329 56.7961 312.643 56.7532 312.215 56.6675C312 56.6246 311.829 56.5389 311.7 56.496C311.615 56.4531 311.572 56.4103 311.572 56.4103Z" fill="#455A64"/>
<path d="M316.715 61.1364C316.672 61.1364 316.672 61.0935 316.672 61.0507C316.672 61.0078 316.715 61.0078 316.715 61.0078C316.758 61.0078 316.758 61.0507 316.758 61.0935C316.758 61.1364 316.715 61.1364 316.715 61.1364Z" fill="#EB996E"/>
<path d="M317.744 61.1285C317.701 61.1285 317.701 61.0856 317.701 61.0428C317.701 60.9999 317.744 60.957 317.744 60.957C317.787 60.957 317.787 60.9999 317.787 61.0428C317.787 61.1285 317.787 61.1285 317.744 61.1285Z" fill="#EB996E"/>
<path d="M318.387 61.2496C318.344 61.2496 318.344 61.2067 318.344 61.1639C318.344 61.121 318.387 61.0781 318.43 61.0781C318.473 61.0781 318.473 61.121 318.473 61.1639C318.473 61.2496 318.43 61.2496 318.387 61.2496Z" fill="#EB996E"/>
<path d="M317.058 61.8592C317.016 61.8592 317.016 61.8163 317.016 61.8163C317.016 61.8163 317.058 61.7734 317.101 61.7734C317.144 61.7734 317.144 61.8163 317.144 61.8163C317.101 61.8592 317.058 61.8592 317.058 61.8592Z" fill="#EB996E"/>
<path d="M318 61.8591C317.958 61.8591 317.958 61.8162 317.958 61.7733C317.958 61.7305 318 61.7305 318.043 61.7305C318.086 61.7305 318.086 61.7733 318.086 61.8162C318.043 61.8591 318.043 61.8591 318 61.8591Z" fill="#EB996E"/>
<path d="M322.802 62.3807C322.759 62.3807 322.759 62.3379 322.759 62.295C322.759 62.2521 322.802 62.2093 322.802 62.2521C322.845 62.2521 322.845 62.295 322.845 62.3379C322.888 62.3379 322.845 62.3807 322.802 62.3807Z" fill="#EB996E"/>
<path d="M323.488 62.4644C323.445 62.4644 323.445 62.4216 323.445 62.3787C323.445 62.3358 323.488 62.293 323.531 62.293C323.574 62.293 323.574 62.3358 323.574 62.3787C323.574 62.4216 323.531 62.4644 323.488 62.4644Z" fill="#EB996E"/>
<path d="M322.203 62.2537C322.16 62.2537 322.16 62.2108 322.16 62.2108C322.16 62.168 322.203 62.168 322.203 62.168C322.245 62.168 322.245 62.2108 322.245 62.2108C322.288 62.2537 322.245 62.2537 322.203 62.2537Z" fill="#EB996E"/>
<path d="M322.545 63.0153C322.502 63.0153 322.502 63.0153 322.459 62.9724C322.459 62.9296 322.459 62.8867 322.502 62.8867C322.545 62.8867 322.545 62.8867 322.588 62.9296C322.631 62.9725 322.588 63.0153 322.545 63.0153Z" fill="#EB996E"/>
<path d="M323.143 63.0671C323.1 63.0671 323.1 63.0242 323.1 62.9814C323.1 62.9385 323.143 62.9385 323.186 62.9814C323.229 62.9814 323.229 63.0242 323.229 63.0671C323.229 63.0671 323.186 63.0671 323.143 63.0671Z" fill="#EB996E"/>
<path d="M298.239 116.422L291.809 137.469L272.862 146.943L276.977 156.502L303.683 146.471L312.042 120.837L298.239 116.422Z" fill="#263238"/>
<path d="M300.725 70.6445L283.364 81.6612C282.507 82.2185 281.907 83.0329 281.564 83.976L276.12 100.78L282.121 102.88L288.422 87.191L304.026 80.7182L300.725 70.6445Z" fill="#000000"/>
<path d="M319.372 75.7908L319.886 75.1049L318.986 72.4901L316.543 76.2195L315.9 74.2047L310.927 68.332L308.784 69.9181L300.725 70.6897L300.768 70.904L299.225 82.8209L298.281 95.5951L296.395 101.854L295.581 102.711C295.109 103.225 294.895 103.954 295.066 104.64L295.109 104.854L314.914 111.284L316.457 108.884L322.63 79.6916L319.372 75.7908Z" fill="#000000"/>
<path d="M338.919 124.917C338.49 121.016 335.833 117.758 332.103 116.601L315.085 111.243L295.152 104.855C293.738 107.899 293.566 111.071 293.652 112.957C293.909 116.901 298.196 120.673 302.525 121.788L327.259 128.046L331.932 152.437L341.748 151.666L338.919 124.917Z" fill="#263238"/>
<path d="M327.388 128.135C327.388 128.135 327.26 128.135 327.088 128.092C326.874 128.049 326.574 127.963 326.188 127.878C325.416 127.706 324.259 127.406 322.887 127.063C320.101 126.334 316.286 125.263 311.999 124.277C307.713 123.248 303.94 122.005 301.24 120.976C299.911 120.462 298.839 119.99 298.068 119.69C297.682 119.519 297.425 119.39 297.21 119.304C297.039 119.219 296.91 119.176 296.91 119.176C296.91 119.176 297.039 119.219 297.21 119.304C297.425 119.39 297.725 119.519 298.068 119.647C298.796 119.947 299.911 120.376 301.24 120.89C303.94 121.876 307.713 123.077 311.999 124.148C316.286 125.134 320.101 126.249 322.844 127.02C324.216 127.406 325.331 127.706 326.145 127.921C326.531 128.006 326.831 128.092 327.045 128.178C327.26 128.092 327.388 128.135 327.388 128.135Z" fill="#455A64"/>
<path d="M329.789 125.172C329.832 125.172 329.489 126.029 328.76 126.801C328.032 127.615 327.26 128.044 327.217 127.958C327.174 127.915 327.903 127.401 328.589 126.629C329.318 125.901 329.746 125.172 329.789 125.172Z" fill="#455A64"/>
<path d="M331.246 127.445C331.289 127.488 330.432 127.916 329.274 128.045C328.16 128.216 327.217 128.045 327.217 128.002C327.217 127.916 328.117 127.959 329.232 127.831C330.389 127.659 331.246 127.359 331.246 127.445Z" fill="#455A64"/>
<path d="M303.682 107.641C303.682 107.599 309.684 109.399 317.014 111.714C324.344 114.028 330.302 115.957 330.26 116C330.26 116.043 324.258 114.243 316.928 111.928C309.598 109.613 303.639 107.684 303.682 107.641Z" fill="#455A64"/>
<path d="M304.026 79.483C303.983 79.4402 304.454 79.0115 304.712 78.0685C304.883 77.5969 304.969 77.0397 305.054 76.3967C305.097 75.7537 305.097 75.0249 304.926 74.3391C304.754 73.6103 304.411 73.0102 304.026 72.4958C303.64 71.9814 303.168 71.6385 302.74 71.3813C301.925 70.8669 301.282 70.7811 301.282 70.7383C301.282 70.7383 301.454 70.7383 301.711 70.824C301.968 70.9097 302.354 71.0383 302.783 71.2527C303.211 71.5099 303.726 71.8528 304.111 72.3672C304.54 72.8816 304.883 73.5246 305.054 74.2962C305.226 75.0249 305.226 75.7965 305.183 76.4395C305.14 77.0825 304.969 77.6827 304.797 78.1542C304.626 78.6257 304.411 78.9687 304.24 79.183C304.197 79.3973 304.069 79.483 304.026 79.483Z" fill="#263238"/>
<g opacity="0.3">
<g opacity="0.3">
<path opacity="0.3" d="M299.225 82.7814C300.34 82.4813 302.697 81.1953 302.697 81.1953C301.283 84.9247 299.782 89.3399 298.454 93.0693C298.839 89.64 298.839 86.2536 299.225 82.7814Z" fill="black"/>
</g>
</g>
<path d="M286.193 85.0466C286.236 85.0037 286.879 85.3466 287.522 85.9896C288.165 86.6326 288.508 87.3185 288.465 87.3613C288.422 87.4042 287.994 86.8041 287.393 86.1611C286.708 85.561 286.15 85.1323 286.193 85.0466Z" fill="#263238"/>
<path d="M287.565 82.7397C287.608 82.6969 288.251 83.5971 288.508 84.8831C288.808 86.1691 288.637 87.2407 288.551 87.2407C288.465 87.2407 288.551 86.1691 288.294 84.9259C288.037 83.6828 287.522 82.7826 287.565 82.7397Z" fill="#263238"/>
<path d="M296.224 92.9763C296.224 93.0191 296.224 93.1049 296.181 93.1049C296.138 93.1049 296.138 93.062 296.138 92.9763C296.138 92.8905 296.138 92.8477 296.181 92.8477C296.224 92.8477 296.224 92.8905 296.224 92.9763Z" fill="#263238"/>
<path d="M316.5 108.843C316.5 108.843 316.5 108.757 316.543 108.586C316.586 108.414 316.629 108.157 316.671 107.857C316.8 107.214 317.014 106.314 317.229 105.199C317.7 102.927 318.343 99.798 319.072 96.3687C319.801 92.9394 320.444 89.853 320.915 87.5382C321.172 86.4237 321.344 85.5235 321.473 84.8805C321.558 84.5804 321.601 84.3661 321.644 84.1517C321.687 83.9803 321.73 83.8945 321.73 83.8945C321.73 83.8945 321.73 83.9803 321.687 84.1517C321.644 84.3232 321.601 84.5804 321.558 84.8805C321.43 85.5235 321.258 86.4665 321.044 87.581C320.615 89.853 319.972 92.9822 319.243 96.4115C318.515 99.8409 317.829 102.97 317.314 105.199C317.057 106.314 316.843 107.214 316.671 107.857C316.586 108.157 316.543 108.371 316.5 108.586C316.543 108.757 316.5 108.843 316.5 108.843Z" fill="#263238"/>
<path d="M326.274 95.2054C326.231 95.2054 326.231 94.348 326.745 93.3621C327.217 92.419 327.903 91.8618 327.946 91.9047C327.989 91.9475 327.388 92.5477 326.96 93.4478C326.445 94.3909 326.317 95.2054 326.274 95.2054Z" fill="#263238"/>
<path d="M327.259 96.2371C327.216 96.2371 326.959 95.2512 327.131 93.9652C327.302 92.7221 327.859 91.8219 327.902 91.8647C327.945 91.9076 327.516 92.8078 327.345 94.0081C327.173 95.2083 327.345 96.2371 327.259 96.2371Z" fill="#263238"/>
<path d="M347.964 92.3359L344.707 92.3788L345.135 93.4076L347.964 92.7646V92.3359Z" fill="#FFBE9D"/>
<g opacity="0.3">
<g opacity="0.3">
<path opacity="0.3" d="M320.015 92.6826C320.015 92.6826 322.201 96.4978 322.158 96.3692C322.287 92.7255 322.287 89.2533 321.473 85.7383" fill="black"/>
</g>
</g>
<path d="M315.858 74.2981C315.858 74.2981 315.557 74.5981 315.086 75.0697C314.572 75.5412 313.929 76.2699 313.028 76.9987L312.943 77.0844L312.9 76.9558C312.6 76.3985 312.257 75.7555 311.914 75.1125C311.099 73.6551 310.371 72.3691 309.813 71.426C309.556 70.9973 309.342 70.6115 309.17 70.3115C308.999 70.0543 308.956 69.8828 308.956 69.8828C308.956 69.8828 309.085 70.0114 309.256 70.2686C309.428 70.5258 309.685 70.8687 309.985 71.3403C310.585 72.2405 311.357 73.5265 312.171 74.9839C312.514 75.6269 312.857 76.2271 313.157 76.8272L312.986 76.7843C313.886 76.0556 314.572 75.3697 315.086 74.8982C315.472 74.5124 315.815 74.2552 315.858 74.2981Z" fill="#263238"/>
<path d="M319.758 75.3145C319.758 75.3145 319.673 75.4859 319.501 75.786C319.33 76.0432 318.987 76.429 318.687 76.8577L318.558 77.0291L318.515 76.8577C318.387 76.4719 318.258 76.0432 318.129 75.6145C318.044 75.3145 317.958 75.0573 317.872 74.7572L318.044 74.8001C317.186 75.8289 316.543 76.5576 316.543 76.5147C316.5 76.4719 317.058 75.7003 317.915 74.6715L318.044 74.5L318.087 74.7143C318.172 74.9715 318.258 75.2716 318.344 75.5288C318.472 75.9575 318.601 76.3861 318.73 76.7719L318.558 76.7291C318.901 76.3004 319.201 75.9575 319.458 75.7003C319.587 75.4431 319.715 75.2716 319.758 75.3145Z" fill="#263238"/>
<path d="M316.5 76.3879C316.457 76.4308 316.2 75.9164 316.071 75.3162C315.943 74.6733 315.814 74.2017 315.857 74.2017C315.9 74.1589 316.157 74.6732 316.286 75.2734C316.414 75.8735 316.543 76.3879 316.5 76.3879Z" fill="#263238"/>
<path d="M313.157 106.785C313.157 106.785 313.414 106.914 313.586 107.3C313.757 107.685 313.843 108.328 313.543 108.928C313.243 109.529 312.642 109.829 312.257 109.914C311.828 110 311.571 109.914 311.571 109.872C311.571 109.829 311.828 109.872 312.214 109.743C312.6 109.614 313.071 109.357 313.328 108.8C313.586 108.285 313.543 107.685 313.414 107.342C313.285 106.999 313.114 106.785 313.157 106.785Z" fill="#263238"/>
<path d="M317.057 76.9922C317.057 76.9922 317.057 77.0779 317.057 77.2923C317.057 77.5066 317.057 77.8067 317.014 78.1496C316.971 78.9212 316.928 79.9928 316.843 81.3646C316.628 84.0652 316.242 87.7945 315.642 91.9097C314.999 96.0249 314.228 99.6686 313.585 102.326C313.285 103.655 312.985 104.727 312.813 105.456C312.727 105.798 312.642 106.099 312.556 106.313C312.513 106.484 312.47 106.613 312.47 106.613C312.47 106.613 312.47 106.527 312.513 106.313C312.556 106.099 312.642 105.798 312.727 105.456C312.899 104.727 313.156 103.655 313.456 102.326C314.056 99.6686 314.785 95.982 315.428 91.9097C316.071 87.8374 316.457 84.108 316.714 81.3646C316.843 79.9928 316.928 78.9212 316.971 78.1496C317.014 77.8067 317.014 77.5066 317.057 77.2923C317.014 77.0779 317.057 76.9922 317.057 76.9922Z" fill="#263238"/>
<path d="M315 106.567C315 106.61 314.614 106.696 313.971 106.782C313.328 106.867 312.385 106.91 311.399 106.782C310.413 106.653 309.513 106.396 308.87 106.182C308.27 105.924 307.884 105.753 307.927 105.71C307.97 105.624 309.427 106.353 311.442 106.567C313.371 106.825 315 106.482 315 106.567Z" fill="#263238"/>
<path d="M301.068 104.122C301.068 104.165 299.911 103.865 298.582 103.265C297.253 102.622 296.31 101.936 296.353 101.893C296.396 101.85 297.382 102.45 298.711 103.05C299.997 103.693 301.111 104.079 301.068 104.122Z" fill="#263238"/>
<path d="M292.838 98.6364C292.838 98.6793 292.795 98.765 292.795 98.765C292.752 98.765 292.752 98.7221 292.752 98.6364C292.752 98.5507 292.795 98.5078 292.795 98.5078C292.838 98.5078 292.838 98.5935 292.838 98.6364Z" fill="#263238"/>
<path d="M292.023 80.6329C291.981 80.6329 292.023 79.9042 292.152 79.004C292.281 78.1038 292.452 77.418 292.495 77.418C292.538 77.418 292.495 78.1467 292.366 79.0469C292.238 79.9471 292.109 80.6329 292.023 80.6329Z" fill="white"/>
<path d="M299.439 79.3897C299.396 79.4326 299.01 79.0897 298.539 78.7039C298.025 78.3181 297.596 78.0609 297.639 77.9751C297.682 77.9323 298.153 78.1037 298.668 78.5324C299.182 78.9182 299.482 79.3469 299.439 79.3897Z" fill="white"/>
<path d="M285.979 83.1136C285.936 83.1565 285.55 82.985 285.078 82.7278C284.607 82.4706 284.264 82.2134 284.307 82.1277C284.35 82.0848 284.736 82.2563 285.207 82.5135C285.636 82.8135 285.979 83.0707 285.979 83.1136Z" fill="white"/>
<path d="M284.993 88.565C284.993 88.6079 284.35 88.8651 283.492 89.1652C282.635 89.4224 281.949 89.5938 281.949 89.551C281.949 89.5081 282.592 89.2509 283.45 88.9508C284.307 88.6508 284.993 88.4793 284.993 88.565Z" fill="white"/>
<path d="M281.435 97.7782C281.392 97.7782 281.135 97.1781 281.049 96.3636C280.921 95.5491 280.963 94.8633 281.006 94.8633C281.049 94.8633 281.135 95.5063 281.263 96.3207C281.349 97.0923 281.478 97.7353 281.435 97.7782Z" fill="white"/>
<path d="M296.353 82.9846C296.353 83.0275 295.667 83.2418 294.81 83.499C293.953 83.7562 293.267 84.0563 293.267 83.9706C293.224 83.9277 293.867 83.5419 294.767 83.2847C295.581 82.9846 296.353 82.8989 296.353 82.9846Z" fill="white"/>
<path d="M302.226 73.8996C302.226 73.9425 301.325 73.8567 300.254 73.6424C299.182 73.4281 298.325 73.2137 298.325 73.1709C298.325 73.128 299.225 73.2137 300.297 73.4281C301.368 73.6424 302.226 73.8567 302.226 73.8996Z" fill="white"/>
<path d="M306.813 74.1106C306.77 74.1106 306.899 73.4676 307.156 72.696C307.413 71.9245 307.67 71.3672 307.713 71.3672C307.756 71.3672 307.627 72.0102 307.37 72.7818C307.113 73.5534 306.856 74.1535 306.813 74.1106Z" fill="white"/>
<path d="M310.841 79.1803C310.798 79.2232 310.284 78.7516 309.769 78.1086C309.255 77.4656 308.912 76.8655 308.955 76.8226C308.998 76.7798 309.426 77.337 309.941 77.98C310.455 78.5802 310.884 79.1374 310.841 79.1803Z" fill="white"/>
<path d="M306.469 83.5048C306.426 83.5048 306.297 82.8618 306.254 82.0473C306.169 81.2328 306.169 80.5898 306.254 80.5898C306.297 80.5898 306.426 81.2328 306.469 82.0473C306.511 82.8618 306.511 83.5048 306.469 83.5048Z" fill="white"/>
<path d="M301.797 85.9467C301.755 85.9896 301.369 85.7324 300.983 85.3466C300.554 84.9608 300.254 84.6178 300.297 84.575C300.34 84.5321 300.726 84.7893 301.112 85.1751C301.54 85.5609 301.84 85.9038 301.797 85.9467Z" fill="white"/>
<path d="M304.155 89.171C304.198 89.2139 303.683 89.471 303.04 89.6854C302.397 89.8568 301.84 89.8997 301.84 89.814C301.84 89.7711 302.354 89.6425 302.997 89.471C303.64 89.2567 304.155 89.0853 304.155 89.171Z" fill="white"/>
<path d="M312.428 86.634C312.386 86.634 312.171 86.0338 312.043 85.2623C311.957 84.4907 312 83.8477 312.043 83.8477C312.086 83.8477 312.171 84.4907 312.257 85.2194C312.386 85.991 312.471 86.5911 312.428 86.634Z" fill="white"/>
<path d="M310.627 92.7194C310.585 92.7623 310.242 92.2479 309.899 91.562C309.556 90.8762 309.341 90.3189 309.384 90.3189C309.427 90.276 309.77 90.7904 310.113 91.4763C310.456 92.1193 310.713 92.6766 310.627 92.7194Z" fill="white"/>
<path d="M304.24 96.8792C304.198 96.8792 304.369 96.1504 304.669 95.2502C304.969 94.3929 305.269 93.707 305.312 93.707C305.355 93.707 305.183 94.4358 304.883 95.336C304.583 96.1933 304.283 96.8792 304.24 96.8792Z" fill="white"/>
<path d="M301.54 100.355C301.497 100.355 301.283 99.9259 301.068 99.3686C300.854 98.8114 300.768 98.3398 300.811 98.3398C300.854 98.3398 301.068 98.7685 301.283 99.3258C301.497 99.8402 301.583 100.312 301.54 100.355Z" fill="white"/>
<path d="M310.97 99.7078C311.013 99.7506 310.413 100.136 309.641 100.522C308.87 100.908 308.227 101.208 308.184 101.122C308.141 101.08 308.741 100.694 309.513 100.308C310.284 99.9221 310.927 99.6649 310.97 99.7078Z" fill="white"/>
<path d="M304.926 104.941C304.883 104.941 304.797 104.555 304.711 104.041C304.668 103.526 304.668 103.141 304.754 103.141C304.797 103.141 304.883 103.526 304.968 104.041C305.011 104.512 305.011 104.941 304.926 104.941Z" fill="white"/>
<path d="M297.981 105.066C297.939 105.109 297.639 104.723 297.51 104.166C297.381 103.608 297.467 103.18 297.553 103.18C297.639 103.18 297.639 103.608 297.767 104.123C297.853 104.637 298.024 105.023 297.981 105.066Z" fill="white"/>
<path d="M309.942 107.597C309.942 107.64 309.47 107.854 308.87 108.068C308.27 108.283 307.713 108.368 307.713 108.325C307.713 108.283 308.184 108.068 308.785 107.854C309.385 107.64 309.899 107.554 309.942 107.597Z" fill="white"/>
<path d="M315.085 109.352C315.042 109.352 314.914 109.009 314.828 108.58C314.742 108.151 314.742 107.766 314.785 107.766C314.828 107.766 314.956 108.109 315.042 108.537C315.128 108.966 315.128 109.352 315.085 109.352Z" fill="white"/>
<path d="M315.729 103.358C315.686 103.401 315.429 102.972 315.171 102.458C314.914 101.943 314.786 101.472 314.828 101.429C314.871 101.386 315.129 101.815 315.386 102.329C315.643 102.886 315.814 103.315 315.729 103.358Z" fill="white"/>
<path d="M317.743 96.7945C317.786 96.8374 317.4 97.1375 316.843 97.4804C316.329 97.7805 315.857 97.9948 315.857 97.9519C315.814 97.9091 316.2 97.609 316.757 97.2661C317.272 96.966 317.743 96.7517 317.743 96.7945Z" fill="white"/>
<path d="M317.871 93.0654C317.829 93.1083 317.571 92.6796 317.4 92.0795C317.228 91.4793 317.271 91.0078 317.314 91.0078C317.357 91.0078 317.486 91.4793 317.614 92.0366C317.786 92.551 317.914 93.0225 317.871 93.0654Z" fill="white"/>
<path d="M319.928 84.4099C319.971 84.4527 319.5 84.8814 318.857 85.3101C318.257 85.7816 317.699 86.0817 317.657 86.0388C317.614 85.9959 318.085 85.5673 318.728 85.1386C319.371 84.7099 319.886 84.367 319.928 84.4099Z" fill="white"/>
<path d="M320.316 81.7062C320.273 81.7491 319.887 81.4919 319.544 81.0632C319.201 80.5917 319.073 80.163 319.115 80.1202C319.158 80.0773 319.373 80.506 319.716 80.9346C320.016 81.3633 320.316 81.6634 320.316 81.7062Z" fill="white"/>
<path d="M323.444 87.6576C323.401 87.6576 323.444 87.0575 323.573 86.2859C323.701 85.5572 323.873 84.957 323.916 84.957C323.959 84.957 323.916 85.5572 323.787 86.3288C323.659 87.0575 323.487 87.6576 323.444 87.6576Z" fill="white"/>
<path d="M325.374 91.6469C325.331 91.6897 324.816 91.5612 324.216 91.3468C323.616 91.1325 323.102 90.8753 323.145 90.8324C323.187 90.7896 323.702 90.9182 324.302 91.1325C324.945 91.3468 325.417 91.604 325.374 91.6469Z" fill="white"/>
<path d="M324.902 97.5212C324.859 97.5641 324.602 97.0926 324.345 96.5353C324.087 95.978 323.916 95.4636 323.959 95.4636C324.002 95.4208 324.259 95.8923 324.516 96.4496C324.773 97.0497 324.945 97.5212 324.902 97.5212Z" fill="white"/>
<path d="M331.332 94.261C331.374 94.3039 330.86 94.7754 330.303 95.4184C329.746 96.0614 329.317 96.5758 329.231 96.533C329.188 96.4901 329.531 95.89 330.131 95.247C330.731 94.604 331.289 94.2182 331.332 94.261Z" fill="white"/>
<path d="M335.317 95.1628C335.275 95.2057 334.846 94.8199 334.374 94.3055C333.903 93.7911 333.56 93.3196 333.603 93.2767C333.646 93.2338 334.074 93.6196 334.546 94.134C335.017 94.6913 335.36 95.12 335.317 95.1628Z" fill="white"/>
<path d="M343.634 84.1947V81.7513H342.391L344.32 79.0078L346.292 81.7513H345.049V84.1947H343.634Z" fill="#000000"/>
<path d="M341.02 86.2453V84.5307H340.163L341.534 82.6445L342.906 84.5307H342.049V86.2453H341.02Z" fill="#000000"/>
<path d="M324.688 151.84C324.688 151.84 324.602 151.84 324.474 151.883C324.345 151.883 324.131 151.926 323.831 151.968C323.573 152.011 323.23 152.054 322.802 152.097C322.416 152.183 321.944 152.226 321.43 152.354C319.372 152.783 316.329 153.64 312.985 155.526C311.314 156.469 309.556 157.67 307.884 159.17C306.212 160.67 304.541 162.514 303.126 164.657C300.297 168.944 298.282 174.516 298.239 180.56V180.946L298.025 180.646C296.996 179.017 295.539 177.517 293.91 176.231C288.509 172.159 281.736 170.701 275.992 171.687C275.649 171.773 275.263 171.816 274.92 171.901C274.748 171.944 274.577 171.987 274.406 172.03L273.891 172.201C273.548 172.33 273.205 172.416 272.905 172.544C272.562 172.673 272.262 172.802 271.962 172.973C271.619 173.102 271.319 173.273 271.019 173.445C270.719 173.616 270.419 173.745 270.119 173.916C269.819 174.088 269.562 174.259 269.262 174.43C268.962 174.602 268.704 174.773 268.447 174.988C266.347 176.488 264.675 178.288 263.346 180.046C262.017 181.804 261.074 183.604 260.345 185.19C260.174 185.576 260.002 186.004 259.831 186.347C259.659 186.733 259.574 187.119 259.402 187.462C259.145 188.148 258.974 188.834 258.759 189.434C258.416 190.634 258.202 191.577 258.116 192.22C258.073 192.52 257.988 192.777 257.988 192.949C257.945 193.12 257.945 193.206 257.945 193.206C257.945 193.206 257.945 193.12 257.988 192.949C258.031 192.777 258.073 192.52 258.116 192.22C258.202 191.577 258.416 190.634 258.716 189.434C258.888 188.834 259.059 188.148 259.317 187.462C259.445 187.119 259.574 186.733 259.702 186.347C259.874 185.962 260.045 185.576 260.217 185.19C260.945 183.561 261.889 181.804 263.217 180.003C264.546 178.203 266.218 176.402 268.361 174.859C268.619 174.645 268.919 174.473 269.176 174.302C269.476 174.13 269.733 173.959 270.033 173.745C270.333 173.573 270.633 173.445 270.933 173.273C271.233 173.102 271.533 172.93 271.876 172.802C272.176 172.673 272.519 172.544 272.862 172.373C273.205 172.244 273.548 172.159 273.891 172.03L274.406 171.858C274.577 171.816 274.748 171.73 274.92 171.73C275.263 171.644 275.649 171.558 275.992 171.516C281.779 170.53 288.637 172.03 294.081 176.102C295.753 177.388 297.211 178.889 298.282 180.56L298.068 180.603C298.111 174.516 300.125 168.901 302.997 164.571C304.412 162.428 306.084 160.585 307.799 159.041C309.513 157.541 311.271 156.341 312.943 155.398C316.329 153.512 319.372 152.697 321.43 152.269C321.944 152.14 322.416 152.097 322.845 152.011C323.23 151.926 323.573 151.926 323.873 151.883C324.131 151.84 324.345 151.84 324.516 151.84C324.602 151.84 324.688 151.84 324.688 151.84Z" fill="#263238"/>
<path d="M393.06 155.57H363.825V229.601H393.06V155.57Z" fill="#000000"/>
<g opacity="0.3">
<path opacity="0.3" d="M393.06 155.57H363.825V229.601H393.06V155.57Z" fill="black"/>
</g>
<path d="M385.901 155.57H356.667V229.601H385.901V155.57Z" fill="#000000"/>
<g opacity="0.4">
<path opacity="0.4" d="M370.127 185.195V189.268H369.355L367.298 186.781V189.268H366.354V185.195H367.126L369.141 187.682V185.195H370.127Z" fill="white"/>
<path opacity="0.4" d="M370.727 185.877C370.727 185.319 371.199 184.891 371.842 184.891C372.485 184.891 372.956 185.276 372.956 185.877C372.956 186.434 372.485 186.862 371.842 186.862C371.199 186.862 370.727 186.434 370.727 185.877ZM372.356 185.877C372.356 185.576 372.142 185.405 371.884 185.405C371.584 185.405 371.413 185.576 371.413 185.877C371.413 186.177 371.627 186.348 371.884 186.348C372.142 186.348 372.356 186.177 372.356 185.877Z" fill="white"/>
<path opacity="0.4" d="M376.986 188.453H376.343V189.31H375.4V188.453H373.213V187.81L375.142 185.195H376.128L374.328 187.639H375.442V186.867H376.343V187.639H377.028V188.453H376.986Z" fill="white"/>
</g>
<path d="M393.06 158.953C393.06 158.953 392.974 159.125 392.803 159.382C392.588 159.682 392.374 160.068 392.074 160.539C391.474 161.482 390.574 162.811 389.63 164.269C388.645 165.726 387.787 167.012 387.101 167.955C386.458 168.898 386.03 169.455 385.987 169.413C385.987 169.413 385.987 169.37 386.03 169.284C386.073 169.198 386.158 169.07 386.244 168.984C386.458 168.684 386.673 168.298 386.973 167.869C387.616 166.926 388.473 165.597 389.459 164.14C390.445 162.683 391.302 161.397 391.988 160.453C392.288 160.025 392.545 159.639 392.76 159.339C392.931 159.082 393.06 158.953 393.06 158.953Z" fill="#000000"/>
<path d="M393.06 172.285C393.06 172.285 392.974 172.457 392.803 172.714C392.588 173.014 392.374 173.4 392.074 173.871C391.474 174.814 390.574 176.143 389.63 177.601C388.645 179.058 387.787 180.344 387.101 181.287C386.458 182.23 386.03 182.787 385.987 182.745C385.987 182.745 385.987 182.702 386.03 182.616C386.073 182.53 386.158 182.402 386.244 182.316C386.458 182.016 386.673 181.63 386.973 181.201C387.616 180.258 388.473 178.929 389.459 177.472C390.445 176.015 391.302 174.729 391.988 173.785C392.288 173.357 392.545 172.971 392.76 172.671C392.931 172.414 393.06 172.285 393.06 172.285Z" fill="#000000"/>
<path d="M393.06 185.621C393.06 185.621 392.974 185.793 392.803 186.05C392.588 186.35 392.374 186.736 392.074 187.207C391.474 188.15 390.574 189.479 389.63 190.937C388.645 192.394 387.787 193.68 387.101 194.623C386.458 195.566 386.03 196.123 385.987 196.081C385.987 196.081 385.987 196.038 386.03 195.952C386.073 195.866 386.158 195.738 386.244 195.652C386.458 195.352 386.673 194.966 386.973 194.537C387.616 193.594 388.473 192.265 389.459 190.808C390.445 189.35 391.302 188.064 391.988 187.121C392.288 186.693 392.545 186.307 392.76 186.007C392.931 185.75 393.06 185.621 393.06 185.621Z" fill="#000000"/>
<path d="M393.06 198.949C393.06 198.949 392.974 199.121 392.803 199.378C392.588 199.678 392.374 200.064 392.074 200.535C391.474 201.478 390.574 202.807 389.63 204.265C388.645 205.722 387.787 207.008 387.101 207.951C386.458 208.894 386.03 209.452 385.987 209.409C385.987 209.409 385.987 209.366 386.03 209.28C386.073 209.194 386.158 209.066 386.244 208.98C386.458 208.68 386.673 208.294 386.973 207.865C387.616 206.922 388.473 205.594 389.459 204.136C390.445 202.679 391.302 201.393 391.988 200.45C392.288 200.021 392.545 199.635 392.76 199.335C392.931 199.078 393.06 198.949 393.06 198.949Z" fill="#000000"/>
<path d="M393.06 212.281C393.06 212.281 392.974 212.453 392.803 212.71C392.588 213.01 392.374 213.396 392.074 213.867C391.474 214.81 390.574 216.139 389.63 217.597C388.645 219.054 387.787 220.34 387.101 221.283C386.458 222.226 386.03 222.784 385.987 222.741C385.987 222.741 385.987 222.698 386.03 222.612C386.073 222.526 386.158 222.398 386.244 222.312C386.458 222.012 386.673 221.626 386.973 221.197C387.616 220.254 388.473 218.926 389.459 217.468C390.445 216.011 391.302 214.725 391.988 213.782C392.288 213.353 392.545 212.967 392.76 212.667C392.931 212.41 393.06 212.281 393.06 212.281Z" fill="#000000"/>
<path d="M393.06 225.619C393.103 225.661 392.503 226.647 391.731 227.805C390.959 228.962 390.274 229.905 390.231 229.862C390.188 229.82 390.788 228.834 391.56 227.676C392.331 226.519 393.017 225.576 393.06 225.619Z" fill="#000000"/>
<path d="M352.252 169.41H323.017V229.595H352.252V169.41Z" fill="#000000"/>
<g opacity="0.3">
<path opacity="0.3" d="M352.252 169.41H323.017V229.595H352.252V169.41Z" fill="black"/>
</g>
<path d="M345.093 169.41H315.858V229.595H345.093V169.41Z" fill="#000000"/>
<g opacity="0.4">
<path opacity="0.4" d="M329.361 193.121V197.236H328.589L326.531 194.75V197.236H325.588V193.121H326.36L328.375 195.607V193.121H329.361Z" fill="white"/>
<path opacity="0.4" d="M329.961 193.802C329.961 193.245 330.432 192.816 331.075 192.816C331.718 192.816 332.19 193.202 332.19 193.802C332.19 194.36 331.718 194.788 331.075 194.788C330.432 194.788 329.961 194.402 329.961 193.802ZM331.59 193.802C331.59 193.502 331.376 193.331 331.118 193.331C330.818 193.331 330.647 193.502 330.647 193.802C330.647 194.102 330.861 194.274 331.118 194.274C331.376 194.317 331.59 194.102 331.59 193.802Z" fill="white"/>
<path opacity="0.4" d="M335.576 195.989C335.576 196.675 335.062 197.318 333.862 197.318C333.304 197.318 332.704 197.147 332.318 196.89L332.704 196.161C333.004 196.418 333.433 196.547 333.862 196.547C334.333 196.547 334.633 196.332 334.633 196.032C334.633 195.732 334.419 195.518 333.862 195.518H333.433V194.875L334.29 193.932H332.533V193.16H335.405V193.76L334.462 194.832C335.19 194.918 335.576 195.389 335.576 195.989Z" fill="white"/>
</g>
<path d="M352.251 171.809C352.251 171.809 352.165 171.98 351.994 172.237C351.779 172.537 351.565 172.923 351.265 173.395C350.665 174.381 349.764 175.667 348.821 177.124C347.835 178.581 346.978 179.867 346.292 180.811C345.649 181.754 345.221 182.311 345.178 182.311C345.178 182.311 345.178 182.268 345.221 182.182C345.263 182.097 345.349 181.968 345.435 181.882C345.649 181.582 345.864 181.196 346.164 180.725C346.807 179.782 347.664 178.453 348.65 176.995C349.636 175.538 350.493 174.209 351.179 173.266C351.479 172.837 351.736 172.452 351.951 172.152C352.122 171.937 352.251 171.809 352.251 171.809Z" fill="#000000"/>
<path d="M352.251 185.272C352.251 185.272 352.165 185.444 351.994 185.701C351.779 186.001 351.565 186.387 351.265 186.858C350.665 187.844 349.764 189.13 348.821 190.588C347.835 192.045 346.978 193.331 346.292 194.274C345.649 195.217 345.221 195.775 345.178 195.775C345.178 195.775 345.178 195.732 345.221 195.646C345.263 195.56 345.349 195.432 345.435 195.346C345.649 195.046 345.864 194.66 346.164 194.188C346.807 193.245 347.664 191.917 348.65 190.459C349.636 189.002 350.493 187.673 351.179 186.73C351.479 186.301 351.736 185.915 351.951 185.615C352.122 185.401 352.251 185.229 352.251 185.272Z" fill="#000000"/>
<path d="M352.251 198.691C352.251 198.691 352.165 198.863 351.994 199.12C351.779 199.42 351.565 199.806 351.265 200.277C350.665 201.263 349.764 202.549 348.821 204.007C347.835 205.464 346.978 206.793 346.292 207.693C345.649 208.636 345.221 209.194 345.178 209.194C345.178 209.194 345.178 209.151 345.221 209.065C345.263 208.979 345.349 208.851 345.435 208.765C345.649 208.465 345.864 208.079 346.164 207.608C346.807 206.665 347.664 205.336 348.65 203.878C349.636 202.421 350.493 201.092 351.179 200.149C351.479 199.72 351.736 199.334 351.951 199.034C352.122 198.82 352.251 198.691 352.251 198.691Z" fill="#000000"/>
<path d="M352.251 212.152C352.251 212.152 352.165 212.324 351.994 212.581C351.779 212.881 351.565 213.267 351.265 213.738C350.665 214.724 349.764 216.01 348.821 217.468C347.835 218.925 346.978 220.211 346.292 221.154C345.649 222.097 345.221 222.655 345.178 222.655C345.178 222.655 345.178 222.612 345.221 222.526C345.263 222.44 345.349 222.312 345.435 222.226C345.649 221.926 345.864 221.54 346.164 221.069C346.807 220.126 347.664 218.797 348.65 217.339C349.636 215.882 350.493 214.553 351.179 213.61C351.479 213.181 351.736 212.795 351.951 212.495C352.122 212.281 352.251 212.152 352.251 212.152Z" fill="#000000"/>
<path d="M352.252 225.57C352.295 225.613 351.695 226.599 350.923 227.757C350.151 228.957 349.465 229.857 349.423 229.857C349.38 229.814 349.98 228.828 350.751 227.671C351.523 226.471 352.209 225.57 352.252 225.57Z" fill="#000000"/>
<path d="M311.228 185.273H281.993V229.597H311.228V185.273Z" fill="#000000"/>
<g opacity="0.3">
<path opacity="0.3" d="M311.228 185.273H281.993V229.597H311.228V185.273Z" fill="black"/>
</g>
<path d="M304.069 185.273H274.834V229.597H304.069V185.273Z" fill="#000000"/>
<g opacity="0.4">
<path opacity="0.4" d="M288.337 202.812V206.928H287.566L285.508 204.441V206.928H284.565V202.812H285.337L287.351 205.299V202.812H288.337Z" fill="white"/>
<path opacity="0.4" d="M288.98 203.494C288.98 202.936 289.452 202.508 290.095 202.508C290.738 202.508 291.209 202.894 291.209 203.494C291.209 204.051 290.738 204.48 290.095 204.48C289.409 204.48 288.98 204.051 288.98 203.494ZM290.566 203.494C290.566 203.194 290.352 203.022 290.095 203.022C289.794 203.022 289.623 203.194 289.623 203.494C289.623 203.794 289.837 203.965 290.095 203.965C290.352 203.965 290.566 203.794 290.566 203.494Z" fill="white"/>
<path opacity="0.4" d="M294.724 206.152V206.924H291.638V206.324L293.224 204.823C293.567 204.48 293.653 204.266 293.653 204.052C293.653 203.709 293.438 203.537 293.01 203.537C292.667 203.537 292.367 203.666 292.152 203.966L291.466 203.537C291.766 203.066 292.367 202.766 293.095 202.766C293.995 202.766 294.596 203.237 294.596 203.966C294.596 204.352 294.467 204.737 293.91 205.252L292.967 206.152H294.724V206.152Z" fill="white"/>
</g>
<path d="M311.271 185.272C311.271 185.272 311.185 185.444 311.014 185.701C310.799 186.001 310.585 186.387 310.285 186.858C309.685 187.844 308.784 189.13 307.841 190.588C306.855 192.045 305.998 193.331 305.312 194.274C304.669 195.217 304.241 195.775 304.198 195.775C304.198 195.775 304.198 195.732 304.241 195.646C304.283 195.56 304.369 195.432 304.455 195.346C304.669 195.046 304.884 194.66 305.184 194.188C305.827 193.245 306.684 191.917 307.67 190.459C308.656 189.002 309.513 187.673 310.199 186.73C310.499 186.301 310.756 185.915 310.971 185.615C311.142 185.401 311.228 185.229 311.271 185.272Z" fill="#000000"/>
<path d="M311.271 198.699C311.271 198.699 311.185 198.871 311.014 199.128C310.799 199.428 310.585 199.814 310.285 200.285C309.685 201.271 308.784 202.557 307.841 204.015C306.855 205.472 305.998 206.801 305.312 207.701C304.669 208.644 304.241 209.202 304.198 209.202C304.198 209.202 304.198 209.159 304.241 209.073C304.283 208.987 304.369 208.859 304.455 208.773C304.669 208.473 304.884 208.087 305.184 207.615C305.827 206.672 306.684 205.344 307.67 203.886C308.656 202.429 309.513 201.1 310.199 200.157C310.499 199.728 310.756 199.342 310.971 199.042C311.142 198.828 311.228 198.699 311.271 198.699Z" fill="#000000"/>
<path d="M311.271 212.152C311.271 212.152 311.185 212.324 311.014 212.581C310.799 212.881 310.585 213.267 310.285 213.738C309.685 214.724 308.784 216.01 307.841 217.468C306.855 218.925 305.998 220.211 305.312 221.154C304.669 222.097 304.241 222.655 304.198 222.655C304.198 222.655 304.198 222.612 304.241 222.526C304.283 222.44 304.369 222.312 304.455 222.226C304.669 221.926 304.884 221.54 305.184 221.069C305.827 220.126 306.684 218.797 307.67 217.339C308.656 215.882 309.513 214.553 310.199 213.61C310.499 213.181 310.756 212.795 310.971 212.495C311.142 212.281 311.228 212.152 311.271 212.152Z" fill="#000000"/>
<path d="M311.271 225.57C311.314 225.613 310.714 226.599 309.942 227.757C309.17 228.957 308.484 229.857 308.442 229.857C308.399 229.814 308.999 228.828 309.77 227.671C310.542 226.471 311.185 225.57 311.271 225.57Z" fill="#000000"/>
<path d="M270.204 198.695H240.969V229.602H270.204V198.695Z" fill="#000000"/>
<g opacity="0.3">
<path opacity="0.3" d="M270.204 198.695H240.969V229.602H270.204V198.695Z" fill="black"/>
</g>
<path d="M263.088 198.695H233.854V229.602H263.088V198.695Z" fill="#000000"/>
<g opacity="0.4">
<path opacity="0.4" d="M247.314 211.809V215.924H246.542L244.485 213.438V215.924H243.542V211.809H244.313L246.328 214.295V211.809H247.314Z" fill="white"/>
<path opacity="0.4" d="M247.957 212.451C247.957 211.894 248.428 211.465 249.071 211.465C249.714 211.465 250.186 211.851 250.186 212.451C250.186 213.008 249.714 213.437 249.071 213.437C248.428 213.437 247.957 213.051 247.957 212.451ZM249.543 212.451C249.543 212.151 249.328 211.979 249.071 211.979C248.771 211.979 248.6 212.151 248.6 212.451C248.6 212.751 248.814 212.922 249.071 212.922C249.328 212.965 249.543 212.751 249.543 212.451Z" fill="white"/>
<path opacity="0.4" d="M252.243 211.809V215.924H251.3V212.58H250.486V211.809H252.243Z" fill="white"/>
</g>
<path d="M270.247 198.695C270.247 198.695 270.162 198.867 269.99 199.124C269.776 199.424 269.561 199.81 269.261 200.281C268.661 201.267 267.761 202.553 266.818 204.011C265.832 205.468 264.975 206.797 264.289 207.697C263.646 208.64 263.217 209.198 263.174 209.198C263.174 209.198 263.174 209.155 263.217 209.069C263.26 208.983 263.346 208.855 263.432 208.769C263.646 208.469 263.86 208.083 264.16 207.612C264.803 206.668 265.661 205.34 266.647 203.882C267.632 202.425 268.49 201.096 269.176 200.153C269.476 199.724 269.733 199.338 269.947 199.038C270.119 198.824 270.247 198.695 270.247 198.695Z" fill="#000000"/>
<path d="M270.247 212.152C270.247 212.152 270.162 212.324 269.99 212.581C269.776 212.881 269.561 213.267 269.261 213.738C268.661 214.724 267.761 216.01 266.818 217.468C265.832 218.925 264.975 220.211 264.289 221.154C263.646 222.097 263.217 222.655 263.174 222.655C263.174 222.655 263.174 222.612 263.217 222.526C263.26 222.44 263.346 222.312 263.432 222.226C263.646 221.926 263.86 221.54 264.16 221.069C264.803 220.126 265.661 218.797 266.647 217.339C267.632 215.882 268.49 214.553 269.176 213.61C269.476 213.181 269.733 212.795 269.947 212.495C270.119 212.281 270.247 212.152 270.247 212.152Z" fill="#000000"/>
<path d="M270.247 225.566C270.29 225.609 269.69 226.595 268.919 227.753C268.147 228.953 267.461 229.853 267.418 229.853C267.375 229.81 267.975 228.824 268.747 227.667C269.519 226.467 270.205 225.566 270.247 225.566Z" fill="#000000"/>
<path d="M406.862 229.597C406.862 229.64 363.867 229.726 310.799 229.726C257.73 229.726 214.735 229.683 214.735 229.597C214.735 229.554 257.73 229.469 310.799 229.469C363.824 229.469 406.862 229.512 406.862 229.597Z" fill="#263238"/>
<path d="M174.548 112.441H146.876V141.277H174.548V112.441Z" fill="#97E373"/>
<path d="M172.672 112.441H145V141.277H172.672V112.441Z" fill="#000080"/>
<path d="M172.672 141.277H145V112.441H172.672V141.277ZM145 141.24H172.634V112.441H145V141.24Z" fill="#97E373"/>
<path d="M168.916 116.305H148.716V137.368H168.916V116.305Z" fill="#000080"/>
<path d="M148.717 137.512C148.717 137.549 148.529 137.737 148.229 138.075C147.891 138.413 147.44 138.863 146.952 139.389C146.426 139.877 145.976 140.328 145.638 140.666C145.3 140.966 145.075 141.154 145.037 141.154C145.037 141.154 145.225 140.928 145.525 140.591C145.863 140.253 146.314 139.802 146.802 139.276C147.327 138.788 147.778 138.338 148.116 138C148.491 137.699 148.679 137.512 148.717 137.512Z" fill="#97E373"/>
<path d="M168.916 137.469C168.954 137.469 169.141 137.656 169.479 137.957C169.817 138.295 170.268 138.745 170.793 139.233C171.281 139.759 171.732 140.21 172.07 140.548C172.37 140.885 172.558 141.111 172.558 141.148C172.558 141.148 172.333 140.961 171.995 140.66C171.657 140.322 171.206 139.872 170.681 139.384C170.193 138.858 169.742 138.407 169.404 138.069C169.104 137.694 168.916 137.469 168.916 137.469Z" fill="#97E373"/>
<path d="M168.879 116.38C168.879 116.343 169.067 116.155 169.367 115.817C169.705 115.479 170.155 115.029 170.644 114.503C171.169 114.015 171.62 113.564 171.958 113.226C172.296 112.926 172.521 112.738 172.558 112.738C172.558 112.738 172.371 112.964 172.07 113.301C171.732 113.639 171.282 114.09 170.794 114.616C170.268 115.104 169.818 115.554 169.48 115.892C169.104 116.193 168.879 116.38 168.879 116.38Z" fill="#97E373"/>
<path d="M148.642 116.418C148.604 116.418 148.417 116.23 148.079 115.93C147.741 115.592 147.29 115.141 146.765 114.653C146.277 114.128 145.826 113.677 145.488 113.339C145.188 113.001 145 112.776 145 112.738C145 112.738 145.225 112.926 145.563 113.226C145.901 113.564 146.352 114.015 146.877 114.503C147.365 115.029 147.816 115.479 148.154 115.817C148.492 116.193 148.68 116.418 148.642 116.418Z" fill="#97E373"/>
<path d="M168.88 137.361C168.88 137.361 168.88 137.324 168.88 137.249C168.88 137.174 168.88 137.099 168.88 136.948C168.88 136.686 168.88 136.31 168.88 135.822C168.88 134.808 168.88 133.381 168.842 131.542C168.842 127.862 168.805 122.606 168.805 116.298L168.88 116.373C162.985 116.373 156.076 116.373 148.717 116.373L148.792 116.298C148.792 124.032 148.792 131.279 148.792 137.361L148.717 137.286C154.762 137.286 159.793 137.324 163.323 137.324C165.088 137.324 166.477 137.324 167.415 137.361C167.904 137.361 168.241 137.361 168.504 137.361C168.617 137.361 168.73 137.361 168.767 137.361C168.842 137.361 168.88 137.361 168.88 137.361C168.88 137.361 168.842 137.361 168.805 137.361C168.73 137.361 168.654 137.361 168.542 137.361C168.279 137.361 167.941 137.361 167.453 137.361C166.514 137.361 165.125 137.361 163.36 137.399C159.831 137.399 154.762 137.436 148.717 137.436H148.642V137.361C148.642 131.241 148.642 124.032 148.642 116.298V116.223H148.717C156.076 116.223 162.985 116.223 168.88 116.223H168.955V116.298C168.955 122.606 168.917 127.9 168.917 131.579C168.917 133.419 168.917 134.846 168.88 135.86C168.88 136.348 168.88 136.723 168.88 136.986C168.88 137.099 168.88 137.211 168.88 137.286C168.88 137.361 168.88 137.361 168.88 137.361Z" fill="#97E373"/>
<path d="M162.195 123.473H155.437V130.231H162.195V123.473Z" fill="#B0FF8B"/>
<path d="M199.854 84.8711H176.801V108.901H199.854V84.8711Z" fill="#97E373"/>
<path d="M198.314 84.8711H175.261V108.901H198.314V84.8711Z" fill="#000080"/>
<path d="M198.314 108.901H175.261V84.8711H198.314V108.901ZM175.261 108.863H198.277V84.8711H175.261V108.863V108.863Z" fill="#97E373"/>
<path d="M195.2 88.0977H178.341V105.669H195.2V88.0977Z" fill="#000080"/>
<path d="M178.34 105.771C178.34 105.771 178.189 105.959 177.927 106.259C177.664 106.56 177.288 106.935 176.838 107.348C176.425 107.761 176.012 108.137 175.749 108.4C175.448 108.662 175.261 108.813 175.261 108.813C175.261 108.813 175.411 108.625 175.674 108.324C175.937 108.024 176.312 107.649 176.763 107.236C177.176 106.823 177.589 106.447 177.851 106.184C178.152 105.884 178.34 105.734 178.34 105.771Z" fill="#97E373"/>
<path d="M195.199 105.746C195.199 105.746 195.387 105.896 195.687 106.159C195.988 106.422 196.363 106.797 196.776 107.248C197.189 107.661 197.565 108.074 197.827 108.337C198.09 108.637 198.24 108.825 198.24 108.825C198.24 108.825 198.053 108.675 197.752 108.412C197.452 108.149 197.077 107.774 196.664 107.323C196.251 106.91 195.875 106.497 195.612 106.234C195.349 105.934 195.199 105.746 195.199 105.746Z" fill="#97E373"/>
<path d="M195.162 88.1272C195.162 88.1272 195.312 87.9395 195.575 87.6391C195.838 87.3387 196.213 86.9633 196.664 86.5503C197.077 86.1372 197.49 85.7618 197.753 85.499C198.053 85.2361 198.241 85.0859 198.241 85.0859C198.241 85.0859 198.091 85.2737 197.828 85.574C197.565 85.8744 197.19 86.2499 196.739 86.6629C196.326 87.0759 195.913 87.4514 195.65 87.7142C195.35 87.977 195.162 88.1648 195.162 88.1272Z" fill="#97E373"/>
<path d="M178.302 88.1648C178.302 88.1648 178.114 88.0146 177.814 87.7517C177.514 87.4889 177.138 87.1135 176.725 86.6629C176.312 86.2499 175.937 85.8369 175.674 85.574C175.411 85.2737 175.261 85.0859 175.261 85.0859C175.261 85.0859 175.448 85.2361 175.749 85.499C176.049 85.7618 176.425 86.1372 176.838 86.5878C177.251 87.0008 177.626 87.4138 177.889 87.6767C178.152 87.977 178.302 88.1648 178.302 88.1648Z" fill="#97E373"/>
<path d="M195.163 105.665C195.163 105.665 195.163 105.627 195.163 105.59C195.163 105.515 195.163 105.44 195.163 105.327C195.163 105.102 195.163 104.801 195.163 104.388C195.163 103.562 195.163 102.361 195.163 100.821C195.163 97.7426 195.125 93.3496 195.125 88.1307L195.2 88.2057C190.282 88.2057 184.537 88.2057 178.417 88.2057L178.492 88.1307C178.492 94.5887 178.492 100.596 178.492 105.702L178.417 105.627C183.448 105.627 187.653 105.665 190.582 105.665C192.046 105.665 193.21 105.665 193.999 105.665C194.374 105.665 194.674 105.665 194.9 105.665C195.012 105.665 195.087 105.665 195.125 105.665C195.125 105.665 195.163 105.665 195.163 105.665C195.163 105.665 195.125 105.665 195.087 105.665C195.05 105.665 194.975 105.665 194.862 105.665C194.637 105.665 194.374 105.665 193.961 105.665C193.173 105.665 192.009 105.665 190.544 105.665C187.578 105.665 183.373 105.702 178.342 105.702H178.267V105.627C178.267 100.559 178.267 94.5136 178.267 88.0556V87.9805H178.342C184.462 87.9805 190.244 87.9805 195.125 87.9805H195.2V88.0556C195.2 93.3121 195.163 97.705 195.163 100.784C195.163 102.323 195.163 103.525 195.163 104.351C195.163 104.764 195.163 105.064 195.163 105.289C195.163 105.402 195.163 105.477 195.163 105.515C195.163 105.627 195.163 105.665 195.163 105.665Z" fill="#97E373"/>
<path d="M189.605 94.0586H183.973V99.6906H189.605V94.0586Z" fill="#B0FF8B"/>
</svg>
