<svg width="82" height="54" viewBox="0 0 82 54" fill="none" xmlns="http://www.w3.org/2000/svg">
<circle cx="26.7145" cy="26.8561" r="25.2857" fill="#000000" stroke="#F9F8F9" stroke-width="2"/>
<path fill-rule="evenodd" clip-rule="evenodd" d="M38.8386 24.8777L39.3067 23.1295L26.6534 12.8594L14 23.1295L14.4681 24.8777H38.8386ZM36.7838 25.5902V34.4379H34.011V29.2417C34.011 28.4184 33.3377 27.7451 32.5143 27.7451C31.6914 27.7451 31.0177 28.4184 31.0177 29.2417V34.4379H28.1503V29.2417C28.1503 28.4184 27.477 27.7451 26.6537 27.7451C25.8303 27.7451 25.157 28.4184 25.157 29.2417V34.4379H22.2897V29.2417C22.2897 28.4184 21.616 27.7451 20.793 27.7451C19.9697 27.7451 19.2964 28.4184 19.2964 29.2417V34.4379H16.5236V25.5902H36.7841H36.7838ZM26.6533 17.769C27.7224 17.769 28.5892 18.6357 28.5892 19.7048C28.5892 20.7741 27.7224 21.6409 26.6533 21.6409C25.5842 21.6409 24.7174 20.7741 24.7174 19.7048C24.7174 18.6357 25.5842 17.769 26.6533 17.769ZM14.1911 35.1495H39.1155V37.8594H14.1911V35.1495Z" fill="#000000"/>
<circle cx="55.2857" cy="26.8561" r="25.2857" fill="#E1F4EA" stroke="#F9F8F9" stroke-width="2"/>
<path d="M51.2384 35.2659C53.3674 35.2659 55.4093 34.4201 56.9148 32.9148C58.4201 31.4094 59.2659 29.3674 59.2659 27.2384C59.2659 25.1094 58.4201 23.0675 56.9148 21.5621C55.4094 20.0567 53.3674 19.2109 51.2384 19.2109C49.1094 19.2109 47.0675 20.0567 45.5621 21.5621C44.0567 23.0674 43.2109 25.1094 43.2109 27.2384C43.2133 29.3666 44.0598 31.4072 45.5647 32.9121C47.0696 34.4171 49.1102 35.2635 51.2384 35.2659ZM48.0274 29.9142C48.0274 29.6187 48.267 29.3791 48.5626 29.3791C48.8581 29.3791 49.0977 29.6187 49.0977 29.9142V30.4494C49.0977 30.5913 49.1541 30.7275 49.2545 30.8278C49.3548 30.9282 49.491 30.9846 49.6329 30.9846H52.8439C52.9858 30.9846 53.122 30.9282 53.2223 30.8278C53.3227 30.7275 53.3791 30.5913 53.3791 30.4494V28.3087C53.3791 28.1668 53.3227 28.0306 53.2223 27.9303C53.122 27.83 52.9858 27.7736 52.8439 27.7736H49.6329C49.2072 27.7736 48.7986 27.6044 48.4976 27.3034C48.1967 27.0024 48.0274 26.5938 48.0274 26.1681V24.0274C48.0274 23.6017 48.1966 23.1931 48.4976 22.8922C48.7987 22.5912 49.2072 22.422 49.6329 22.422H50.7032V21.3517C50.7032 21.0561 50.9429 20.8165 51.2384 20.8165C51.5339 20.8165 51.7736 21.0561 51.7736 21.3517V22.422H52.8439C53.2696 22.422 53.6782 22.5911 53.9792 22.8922C54.2802 23.1932 54.4494 23.6018 54.4494 24.0274V24.5626C54.4494 24.8581 54.2097 25.0978 53.9142 25.0978C53.6187 25.0978 53.379 24.8581 53.379 24.5626V24.0274C53.379 23.8855 53.3226 23.7494 53.2223 23.649C53.122 23.5487 52.9858 23.4923 52.8439 23.4923H49.6329C49.3373 23.4923 49.0977 23.7319 49.0977 24.0274V26.1681C49.0977 26.31 49.1541 26.4462 49.2544 26.5465C49.3548 26.6469 49.491 26.7033 49.6329 26.7033H52.8439C53.2696 26.7033 53.6782 26.8724 53.9791 27.1734C54.2801 27.4745 54.4493 27.883 54.4493 28.3087V30.4494C54.4493 30.8751 54.2802 31.2837 53.9791 31.5847C53.6781 31.8857 53.2696 32.0549 52.8439 32.0549H51.7735V33.1252C51.7735 33.4207 51.5339 33.6603 51.2384 33.6603C50.9428 33.6603 50.7032 33.4207 50.7032 33.1252V32.0549H49.6329C49.2071 32.0549 48.7986 31.8857 48.4976 31.5847C48.1966 31.2836 48.0274 30.8751 48.0274 30.4494V29.9142Z" fill="#1F9055"/>
<path d="M58.7303 16C58.0386 16.0022 57.3489 16.0679 56.6694 16.1964C57.725 16.718 58.7007 17.3878 59.5667 18.1856C62.6045 18.4642 65.3001 20.2479 66.744 22.9351C68.1883 25.6222 68.1883 28.8547 66.744 31.5418C65.3001 34.2291 62.6044 36.0129 59.5667 36.2914C58.7007 37.0891 57.725 37.759 56.6694 38.2805C58.7262 38.6702 60.8511 38.4774 62.8046 37.7244C64.7579 36.9711 66.4621 35.6871 67.725 34.0174C68.9876 32.3476 69.7591 30.3582 69.9518 28.2735C70.1446 26.189 69.7514 24.0918 68.8163 22.2187C67.8812 20.3456 66.4415 18.771 64.6595 17.6722C62.8774 16.5734 60.824 15.9943 58.7304 16L58.7303 16Z" fill="#1F9055"/>
<path d="M51.2385 38.4769C54.2191 38.4769 57.0777 37.2929 59.1852 35.1852C61.2929 33.0777 62.4769 30.2192 62.4769 27.2385C62.4769 24.2577 61.2929 21.3992 59.1852 19.2917C57.0777 17.184 54.2192 16 51.2385 16C48.2577 16 45.3992 17.184 43.2917 19.2917C41.184 21.3992 40 24.2577 40 27.2385C40.0033 30.2182 41.1884 33.0746 43.2953 35.1815C45.4023 37.2885 48.2587 38.4735 51.2384 38.4768L51.2385 38.4769ZM51.2385 18.1407C53.6512 18.1407 55.9653 19.0992 57.6714 20.8052C59.3775 22.5115 60.336 24.8256 60.336 27.2382C60.336 29.6508 59.3775 31.9651 57.6714 33.6712C55.9651 35.3773 53.651 36.3358 51.2385 36.3358C48.8259 36.3358 46.5116 35.3772 44.8055 33.6712C43.0994 31.9649 42.1409 29.6508 42.1409 27.2382C42.1435 24.8261 43.103 22.5137 44.8086 20.8083C46.5142 19.1027 48.8266 18.1432 51.2385 18.1406L51.2385 18.1407Z" fill="#1F9055"/>
<path d="M60.7798 35.0018C63.0822 34.3962 64.9968 32.7995 66.0065 30.6436C67.0164 28.4879 67.017 25.9948 66.0086 23.8381C65.0002 21.6814 63.0865 20.0838 60.7846 19.4766C62.5721 21.6688 63.5481 24.4111 63.5471 27.2398C63.5464 30.0683 62.5688 32.81 60.7798 35.0012L60.7798 35.0018Z" fill="#1F9055"/>
</svg>
