<svg width="82" height="70" viewBox="0 0 82 70" fill="none" xmlns="http://www.w3.org/2000/svg">
<path d="M6.98504 63.4393C6.92783 63.4393 6.8792 63.3936 6.87348 63.3364L6.5903 60.2071C6.56741 59.9468 6.36146 59.7351 6.0983 59.7065L3.64406 59.4347C3.58685 59.429 3.54395 59.3804 3.54395 59.3232C3.54395 59.266 3.58685 59.2173 3.64406 59.2116L6.0983 58.9399C6.3586 58.9113 6.56741 58.6996 6.5903 58.4393L6.87348 55.31C6.8792 55.2528 6.92783 55.207 6.98504 55.207C7.0451 55.207 7.09373 55.2528 7.09659 55.31L7.37977 58.4393C7.40266 58.7025 7.61147 58.9113 7.87177 58.9399L10.3231 59.2116C10.3804 59.2173 10.4233 59.266 10.4233 59.3232C10.4233 59.3804 10.3804 59.429 10.3231 59.4347L7.87177 59.7065C7.61147 59.7351 7.40266 59.9468 7.37977 60.2071L7.09659 63.3364C7.09087 63.3936 7.04224 63.4393 6.98504 63.4393ZM4.68525 59.3203L6.12119 59.4777C6.49018 59.5177 6.77908 59.8152 6.81341 60.1842L6.98217 62.0635L7.15094 60.1842C7.18526 59.8152 7.47417 59.5177 7.84316 59.4777L9.2791 59.3203L7.84316 59.1601C7.47417 59.1201 7.18526 58.8226 7.15094 58.4536L6.98217 56.5743L6.81341 58.4536C6.77908 58.8226 6.49018 59.1201 6.12119 59.1601L4.68525 59.3203Z" fill="#B0FF8B"/>
<g opacity="0.5">
<path opacity="0.5" d="M10.4239 70.0011C10.3667 70.0011 10.3152 69.9553 10.3123 69.8981L10.1207 67.7671C10.1064 67.6069 9.97766 67.4754 9.81748 67.4582L8.14699 67.2723C8.08978 67.2666 8.04688 67.2179 8.04688 67.1607C8.04688 67.1035 8.08978 67.0549 8.14699 67.0492L9.81748 66.8632C9.97766 66.8461 10.1064 66.7145 10.1207 66.5543L10.3123 64.4233C10.3181 64.3661 10.3667 64.3203 10.4239 64.3203C10.4811 64.3203 10.5326 64.3661 10.5354 64.4233L10.7271 66.5543C10.7414 66.7145 10.8701 66.8461 11.0303 66.8632L12.7008 67.0492C12.758 67.0549 12.8009 67.1035 12.8009 67.1607C12.8009 67.2179 12.758 67.2666 12.7008 67.2723L11.0303 67.4582C10.8701 67.4754 10.7414 67.6069 10.7271 67.7671L10.5354 69.8981C10.5326 69.9553 10.484 70.0011 10.4239 70.0011ZM9.18818 67.1607L9.84322 67.2322C10.1092 67.2608 10.3209 67.4782 10.3467 67.7442L10.4267 68.6252L10.5068 67.7442C10.5297 67.4754 10.7414 67.2608 11.0103 67.2322L11.6653 67.1607L11.0103 67.0892C10.7443 67.0606 10.5326 66.8432 10.5068 66.5772L10.4267 65.6962L10.3467 66.5772C10.3238 66.8461 10.1121 67.0606 9.84322 67.0892L9.18818 67.1607Z" fill="#B0FF8B"/>
</g>
<path d="M4.4103 33.5607C4.36739 33.5607 4.33307 33.5293 4.33021 33.4863L4.12998 31.2524C4.11281 31.0664 3.96693 30.9148 3.77815 30.8948L2.02757 30.7003C1.98752 30.6946 1.95605 30.6602 1.95605 30.6202C1.95605 30.5802 1.98752 30.5458 2.02757 30.5401L3.77815 30.3456C3.96407 30.3256 4.11281 30.174 4.12998 29.9881L4.33021 27.7541C4.33307 27.7112 4.37025 27.6797 4.4103 27.6797C4.45321 27.6797 4.48753 27.7112 4.49039 27.7541L4.69062 29.9881C4.70778 30.174 4.85652 30.3256 5.04245 30.3456L6.79303 30.5401C6.83308 30.5458 6.86454 30.5802 6.86454 30.6202C6.86454 30.6602 6.83308 30.6946 6.79303 30.7003L5.04245 30.8948C4.85652 30.9148 4.70778 31.0664 4.69062 31.2524L4.49039 33.4863C4.48753 33.5293 4.45034 33.5607 4.4103 33.5607ZM2.77128 30.6231L3.79531 30.7375C4.05847 30.7661 4.26442 30.9778 4.29016 31.2409L4.4103 32.5825L4.53044 31.2409C4.55332 30.9778 4.76213 30.7661 5.02529 30.7375L6.04932 30.6231L5.02529 30.5086C4.76213 30.48 4.55618 30.2684 4.53044 30.0052L4.4103 28.6637L4.29016 30.0052C4.26728 30.2684 4.05847 30.48 3.79531 30.5086L2.77128 30.6231Z" fill="#B0FF8B"/>
<g opacity="0.5">
<path opacity="0.5" d="M1.38445 36.9257C1.35012 36.9257 1.32152 36.8999 1.31866 36.8656L1.2071 35.6242C1.19852 35.5298 1.12415 35.4554 1.02975 35.444L0.0572087 35.3353C0.0228836 35.3324 0 35.3038 0 35.2695C0 35.2351 0.025744 35.2065 0.0572087 35.2037L1.02975 35.095C1.12415 35.0835 1.19852 35.0092 1.2071 34.9148L1.31866 33.6734C1.32152 33.639 1.35012 33.6133 1.38445 33.6133C1.41877 33.6133 1.44737 33.639 1.45023 33.6734L1.56179 34.9148C1.57037 35.0092 1.64474 35.0835 1.73914 35.095L2.71168 35.2037C2.74601 35.2065 2.76889 35.2351 2.76889 35.2695C2.76889 35.3038 2.74315 35.3324 2.71168 35.3353L1.73914 35.444C1.64474 35.4554 1.57037 35.5298 1.56179 35.6242L1.45023 36.8656C1.44737 36.8999 1.41877 36.9257 1.38445 36.9257ZM0.663618 35.2695L1.04406 35.3124C1.19852 35.3295 1.32438 35.4554 1.33868 35.6127L1.38445 36.1276L1.43021 35.6127C1.44451 35.4554 1.56751 35.3295 1.72484 35.3124L2.10527 35.2695L1.72484 35.2266C1.57037 35.2094 1.44451 35.0835 1.43021 34.9262L1.38445 34.4113L1.33868 34.9262C1.32438 35.0835 1.20138 35.2094 1.04406 35.2266L0.663618 35.2695Z" fill="#B0FF8B"/>
</g>
<path d="M64.5084 61.4851C64.4764 61.4523 64.475 61.4017 64.5037 61.3657L66.1038 59.4955C66.2392 59.3393 66.244 59.1068 66.1165 58.9434L64.9251 57.4202C64.8972 57.3835 64.8998 57.3329 64.9326 57.301C64.9653 57.269 65.0159 57.2676 65.052 57.2963L66.5463 58.5238C66.7066 58.6552 66.9372 58.6539 67.0965 58.5263L69.0064 56.9694C69.0411 56.9394 69.0936 56.9441 69.1256 56.9769C69.1576 57.0096 69.159 57.0602 69.1303 57.0963L67.5281 58.9684C67.3927 59.1246 67.3879 59.3571 67.5175 59.5185L68.7089 61.0417C68.7368 61.0784 68.7341 61.129 68.7014 61.1609C68.6687 61.1929 68.6181 61.1943 68.582 61.1656L67.0877 59.9381C66.9274 59.8067 66.6968 59.808 66.5355 59.9376L64.6276 61.4925C64.5909 61.5204 64.5403 61.5178 64.5084 61.4851ZM65.5581 57.9416L66.2574 58.8339C66.4367 59.0626 66.4267 59.3881 66.24 59.6104L65.2779 60.7337L66.4239 59.7987C66.6486 59.6153 66.9742 59.6172 67.2006 59.7999L68.0759 60.5203L67.3786 59.626C67.1993 59.3973 67.2072 59.0738 67.394 58.8515L68.3561 57.7282L67.2101 58.6632C66.9854 58.8466 66.6598 58.8448 66.4354 58.66L65.5581 57.9416Z" fill="#B0FF8B"/>
<g opacity="0.5">
<path opacity="0.5" d="M72.1787 63.324C72.1528 63.2974 72.1513 63.2549 72.1759 63.2269L73.0662 62.1857C73.1339 62.1076 73.1353 61.9903 73.0715 61.9087L72.4081 61.0613C72.3841 61.0327 72.3867 60.9902 72.4133 60.9642C72.4399 60.9383 72.4824 60.9368 72.5104 60.9614L73.3417 61.6449C73.4218 61.7106 73.5391 61.712 73.6188 61.6462L74.681 60.781C74.7096 60.757 74.752 60.7596 74.778 60.7862C74.804 60.8128 74.8055 60.8553 74.7809 60.8833L73.8906 61.9245C73.8229 62.0026 73.8215 62.1199 73.8852 62.2016L74.5487 63.0489C74.5726 63.0775 74.5681 63.118 74.5415 63.1439C74.5149 63.1699 74.4724 63.1714 74.4463 63.1489L73.6151 62.4653C73.5349 62.3997 73.4176 62.3983 73.338 62.4641L72.2758 63.3292C72.2472 63.3532 72.2047 63.3506 72.1787 63.324ZM72.9269 61.4862L73.1859 61.817C73.2915 61.9538 73.2871 62.1459 73.1763 62.2781L72.8091 62.7086L73.2483 62.3517C73.3811 62.2421 73.5752 62.2444 73.7094 62.3532L74.0339 62.62L73.7749 62.2893C73.6694 62.1525 73.6737 61.9603 73.7845 61.8282L74.1517 61.3977L73.7126 61.7545C73.5798 61.8642 73.3856 61.8618 73.2514 61.753L72.9269 61.4862Z" fill="#B0FF8B"/>
</g>
<g opacity="0.5">
<path opacity="0.5" d="M73.427 56.5724C73.385 56.5294 73.3818 56.4606 73.4228 56.4166L74.8526 54.7447C74.9614 54.6185 74.9656 54.4305 74.862 54.2998L73.7981 52.9399C73.7602 52.8929 73.7671 52.8262 73.808 52.7863C73.851 52.7443 73.9178 52.7431 73.9618 52.78L75.2959 53.8761C75.4241 53.9828 75.6122 53.9831 75.7409 53.8774L77.4445 52.4899C77.4914 52.452 77.5581 52.4549 77.6001 52.4978C77.6421 52.5408 77.6453 52.6096 77.6043 52.6536L76.1745 54.3256C76.0658 54.4517 76.0615 54.6398 76.1651 54.7705L77.229 56.1303C77.2669 56.1773 77.26 56.244 77.2191 56.284C77.1761 56.3259 77.1093 56.3271 77.0653 56.2902L75.7312 55.1941C75.603 55.0874 75.4149 55.0872 75.2862 55.1928L73.5827 56.5803C73.5377 56.6202 73.469 56.6154 73.427 56.5724ZM74.6273 53.6254L75.0437 54.1583C75.213 54.3768 75.2073 54.6862 75.0288 54.8965L74.438 55.5893L75.1427 55.0131C75.3572 54.8397 75.6687 54.8394 75.8831 55.0139L76.4059 55.4429L75.9895 54.91C75.8202 54.6915 75.8259 54.3821 76.0044 54.1718L76.5972 53.4811L75.8905 54.0552C75.676 54.2286 75.3645 54.2289 75.1501 54.0544L74.6273 53.6254Z" fill="#B0FF8B"/>
</g>
<path d="M76.11 36.1606C76.0556 36.1606 76.0127 36.1206 76.007 36.0662L75.7467 33.1915C75.7238 32.9512 75.535 32.7567 75.2948 32.731L73.0408 32.4821C72.9893 32.4764 72.9492 32.4306 72.9492 32.3791C72.9492 32.3248 72.9893 32.2819 73.0408 32.2762L75.2948 32.0273C75.535 32.0016 75.7238 31.8071 75.7467 31.5668L76.007 28.6921C76.0127 28.6377 76.0556 28.5977 76.11 28.5977C76.1643 28.5977 76.2072 28.6377 76.213 28.6921L76.4733 31.5668C76.4961 31.8071 76.6849 32.0016 76.9252 32.0273L79.1792 32.2762C79.2307 32.2819 79.2708 32.3276 79.2708 32.3791C79.2708 32.4335 79.2307 32.4764 79.1792 32.4821L76.9252 32.731C76.6849 32.7567 76.4933 32.9512 76.4733 33.1915L76.213 36.0662C76.2072 36.1177 76.1643 36.1606 76.11 36.1606ZM73.999 32.3763L75.3176 32.5222C75.6552 32.5593 75.9212 32.8311 75.9527 33.1715L76.1071 34.8992L76.2616 33.1715C76.2931 32.8339 76.5591 32.5593 76.8966 32.5222L78.2153 32.3763L76.8966 32.2304C76.5591 32.1932 76.2902 31.9215 76.2616 31.5811L76.1071 29.8534L75.9527 31.5811C75.9212 31.9186 75.6552 32.1932 75.3176 32.2304L73.999 32.3763Z" fill="#B0FF8B"/>
<g opacity="0.5">
<path opacity="0.5" d="M72.0164 28.9389C71.9735 28.9389 71.9363 28.9045 71.9306 28.8616L71.7876 27.2626C71.7761 27.1425 71.6817 27.0453 71.5616 27.031L70.3087 26.8937C70.2658 26.8879 70.2344 26.8536 70.2344 26.8078C70.2344 26.7649 70.2658 26.7278 70.3087 26.7249L71.5616 26.5876C71.6817 26.5733 71.779 26.476 71.7876 26.3559L71.9306 24.7569C71.9335 24.714 71.9706 24.6797 72.0164 24.6797C72.0593 24.6797 72.0965 24.714 72.1022 24.7569L72.2453 26.3559C72.2567 26.476 72.3511 26.5733 72.4741 26.5876L73.727 26.7249C73.7699 26.7306 73.8013 26.7649 73.8013 26.8078C73.8013 26.8507 73.7699 26.8879 73.727 26.8937L72.4741 27.031C72.3539 27.0453 72.2567 27.1425 72.2453 27.2626L72.1022 28.8616C72.0965 28.9045 72.0593 28.9389 72.0164 28.9389ZM71.0868 26.8078L71.5788 26.8622C71.779 26.8851 71.9392 27.0453 71.9563 27.2483L72.0164 27.9091L72.0765 27.2483C72.0937 27.0481 72.2538 26.8851 72.4541 26.8622L72.9461 26.8078L72.4541 26.7535C72.2538 26.7306 72.0937 26.5704 72.0765 26.3673L72.0164 25.7066L71.9563 26.3673C71.9392 26.5676 71.779 26.7306 71.5788 26.7535L71.0868 26.8078Z" fill="#B0FF8B"/>
</g>
<path d="M13.4361 12.4464C13.3846 12.4464 13.3417 12.4064 13.336 12.3549L13.0871 9.58314C13.0671 9.35145 12.884 9.16552 12.6523 9.13978L10.4813 8.8995C10.4298 8.89378 10.3926 8.85087 10.3926 8.79938C10.3926 8.7479 10.4298 8.70499 10.4813 8.69927L12.6523 8.45899C12.884 8.43325 13.0671 8.24732 13.0871 8.01563L13.336 5.24388C13.3417 5.19239 13.3846 5.15234 13.4361 5.15234C13.4876 5.15234 13.5305 5.19239 13.5362 5.24388L13.785 8.01563C13.8051 8.24732 13.9881 8.43325 14.2198 8.45899L16.3909 8.69927C16.4424 8.70499 16.4796 8.7479 16.4796 8.79938C16.4796 8.85087 16.4424 8.89378 16.3909 8.8995L14.2198 9.13978C13.9881 9.16552 13.8051 9.35145 13.785 9.58314L13.5362 12.3549C13.5333 12.4092 13.4876 12.4464 13.4361 12.4464ZM11.4023 8.80225L12.6752 8.94241C13.0013 8.97959 13.2587 9.23989 13.2873 9.56884L13.4361 11.2336L13.5848 9.56884C13.6134 9.24275 13.8709 8.97959 14.1969 8.94241L15.4698 8.80225L14.1969 8.66209C13.8709 8.6249 13.6134 8.3646 13.5848 8.03565L13.4361 6.37089L13.2873 8.03565C13.2587 8.36174 13.0013 8.6249 12.6752 8.66209L11.4023 8.80225Z" fill="#B0FF8B"/>
<g opacity="0.5">
<path opacity="0.5" d="M10.3925 19.8608C10.3495 19.8608 10.3152 19.8293 10.3124 19.7864L10.1751 18.2647C10.1636 18.1502 10.0749 18.0558 9.95767 18.0444L8.76487 17.9128C8.72482 17.9071 8.69336 17.8728 8.69336 17.8327C8.69336 17.7927 8.72482 17.7584 8.76487 17.7526L9.95767 17.6211C10.0721 17.6096 10.1636 17.5152 10.1751 17.4008L10.3124 15.8791C10.3152 15.8362 10.3524 15.8047 10.3925 15.8047C10.4354 15.8047 10.4697 15.8362 10.4725 15.8791L10.6098 17.4008C10.6213 17.5152 10.71 17.6096 10.8272 17.6211L12.02 17.7526C12.0601 17.7584 12.0915 17.7927 12.0915 17.8327C12.0915 17.8728 12.0601 17.9071 12.02 17.9128L10.8272 18.0444C10.7128 18.0558 10.6213 18.1502 10.6098 18.2647L10.4725 19.7864C10.4668 19.8293 10.4325 19.8608 10.3925 19.8608ZM9.50858 17.8299L9.97483 17.8814C10.1665 17.9014 10.3181 18.0558 10.3352 18.2475L10.3925 18.8796L10.4497 18.2475C10.4668 18.0558 10.6184 17.9014 10.8101 17.8814L11.2763 17.8299L10.8101 17.7784C10.6184 17.7584 10.4668 17.6039 10.4497 17.4122L10.3925 16.7801L10.3352 17.4122C10.3181 17.6039 10.1665 17.7584 9.97483 17.7784L9.50858 17.8299Z" fill="#B0FF8B"/>
</g>
<g opacity="0.5">
<path opacity="0.5" d="M20.3113 13.6779C20.257 13.6779 20.2112 13.635 20.2055 13.5807L20.0253 11.587C20.011 11.4354 19.8937 11.3152 19.7421 11.2981L18.1803 11.1264C18.126 11.1207 18.0859 11.075 18.0859 11.0206C18.0859 10.9663 18.126 10.9205 18.1803 10.9148L19.7421 10.7432C19.8937 10.726 20.011 10.6059 20.0253 10.4543L20.2055 8.46053C20.2112 8.40619 20.257 8.36328 20.3113 8.36328C20.3657 8.36328 20.4115 8.40619 20.4172 8.46053L20.5974 10.4543C20.6117 10.6059 20.729 10.726 20.8806 10.7432L22.4424 10.9148C22.4967 10.9205 22.5368 10.9663 22.5368 11.0206C22.5368 11.075 22.4967 11.1207 22.4424 11.1264L20.8806 11.2981C20.729 11.3152 20.6117 11.4354 20.5974 11.587L20.4172 13.5807C20.4115 13.635 20.3657 13.6779 20.3113 13.6779ZM19.1557 11.0206L19.7679 11.0893C20.0167 11.1179 20.217 11.3181 20.2398 11.5698L20.3142 12.3965L20.3886 11.5698C20.4115 11.3181 20.6088 11.1179 20.8577 11.0893L21.4698 11.0206L20.8577 10.952C20.6088 10.9234 20.4086 10.7231 20.3886 10.4714L20.3142 9.64475L20.2398 10.4714C20.217 10.7231 20.0196 10.9234 19.7679 10.952L19.1557 11.0206Z" fill="#B0FF8B"/>
</g>
<g opacity="0.5">
<path opacity="0.5" d="M30.0033 3.6213C29.9661 3.6213 29.9347 3.59269 29.9318 3.55551L29.8088 2.19681C29.8002 2.09383 29.7173 2.01088 29.6143 1.99944L28.5502 1.88216C28.513 1.8793 28.4873 1.84783 28.4873 1.81065C28.4873 1.77346 28.5159 1.742 28.5502 1.73914L29.6143 1.62186C29.7173 1.61042 29.7974 1.52747 29.8088 1.42449L29.9318 0.0657896C29.9347 0.0286041 29.9661 0 30.0033 0C30.0405 0 30.072 0.0286041 30.0748 0.0657896L30.1978 1.42449C30.2064 1.52747 30.2894 1.61042 30.3923 1.62186L31.4564 1.73914C31.4936 1.742 31.5194 1.77346 31.5194 1.81065C31.5194 1.84783 31.4908 1.8793 31.4564 1.88216L30.3923 1.99944C30.2894 2.01088 30.2093 2.09383 30.1978 2.19681L30.0748 3.55551C30.072 3.59269 30.0405 3.6213 30.0033 3.6213ZM29.2167 1.81065L29.6343 1.85642C29.806 1.87644 29.9404 2.01374 29.9547 2.1825L30.0062 2.74601L30.0577 2.1825C30.072 2.01088 30.2093 1.87358 30.378 1.85355L30.7957 1.80779L30.378 1.76202C30.2064 1.742 30.072 1.6047 30.0577 1.43593L30.0062 0.872429L29.9547 1.43593C29.9404 1.60756 29.8031 1.74486 29.6343 1.76488L29.2167 1.81065Z" fill="#B0FF8B"/>
</g>
<g opacity="0.5">
<path opacity="0.5" d="M35.1402 7.00121C35.083 7.00121 35.0372 6.95831 35.0315 6.90396L34.8484 4.86448C34.8341 4.71001 34.7111 4.58415 34.5595 4.56985L32.9605 4.39251C32.9062 4.38678 32.8633 4.34102 32.8633 4.28381C32.8633 4.2266 32.9033 4.18369 32.9605 4.17511L34.5595 3.99777C34.714 3.9806 34.837 3.85761 34.8484 3.70314L35.0315 1.66366C35.0372 1.60645 35.083 1.56641 35.1402 1.56641C35.1974 1.56641 35.2432 1.60931 35.2489 1.66366L35.4319 3.70314C35.4462 3.85761 35.5692 3.98346 35.7209 3.99777L37.3198 4.17511C37.3742 4.18083 37.4171 4.2266 37.4171 4.28381C37.4171 4.34102 37.377 4.38392 37.3198 4.39251L35.7209 4.56985C35.5664 4.58701 35.4434 4.71001 35.4319 4.86448L35.2489 6.90396C35.2432 6.96117 35.1945 7.00121 35.1402 7.00121ZM33.956 4.28381L34.5824 4.35246C34.837 4.38106 35.0401 4.58701 35.0629 4.84445L35.1402 5.68828L35.2174 4.84445C35.2403 4.58701 35.4434 4.38106 35.698 4.35246L36.3244 4.28381L35.698 4.21516C35.4434 4.18656 35.2403 3.9806 35.2174 3.72317L35.1402 2.87934L35.0629 3.72317C35.0401 3.9806 34.837 4.18656 34.5824 4.21516L33.956 4.28381Z" fill="#B0FF8B"/>
</g>
<path d="M65.7522 12.0711C65.7122 12.0711 65.6807 12.0396 65.675 12.0024L65.4833 9.8857C65.4662 9.70835 65.3289 9.56533 65.1515 9.54531L63.4925 9.36224C63.4553 9.35938 63.4238 9.32505 63.4238 9.28501C63.4238 9.24496 63.4524 9.2135 63.4925 9.20778L65.1515 9.02471C65.3289 9.00469 65.469 8.86167 65.4833 8.68432L65.675 6.56474C65.6778 6.5247 65.7122 6.49609 65.7522 6.49609C65.7923 6.49609 65.8237 6.52756 65.8294 6.56474L66.0211 8.68432C66.0383 8.86167 66.1784 9.00469 66.3529 9.02471L68.0119 9.20778C68.052 9.21064 68.0806 9.24496 68.0806 9.28501C68.0806 9.32505 68.052 9.35652 68.0119 9.36224L66.3529 9.54531C66.1756 9.56533 66.0354 9.70835 66.0211 9.8857L65.8294 12.0024C65.8237 12.0396 65.7923 12.0711 65.7522 12.0711ZM64.1961 9.28215L65.1687 9.39084C65.4175 9.41945 65.6149 9.61968 65.6378 9.86853L65.7522 11.1414L65.8666 9.86853C65.8895 9.61968 66.0869 9.41945 66.3357 9.39084L67.3083 9.28215L66.3357 9.17345C66.0869 9.14485 65.8895 8.94462 65.8666 8.69576L65.7522 7.42287L65.6378 8.69576C65.6149 8.94462 65.4175 9.14485 65.1687 9.17345L64.1961 9.28215Z" fill="#B0FF8B"/>
<g opacity="0.5">
<path opacity="0.5" d="M70.9814 8.84467C70.9299 8.84467 70.8842 8.80463 70.8784 8.75314L70.6239 5.9299C70.6038 5.69249 70.4151 5.5037 70.1805 5.47796L67.9665 5.23482C67.915 5.2291 67.875 5.18619 67.875 5.1347C67.875 5.08322 67.915 5.04031 67.9665 5.03459L70.1805 4.78859C70.4151 4.76285 70.6038 4.5712 70.6239 4.33665L70.8784 1.51341C70.8842 1.46192 70.9271 1.42188 70.9814 1.42188C71.0329 1.42188 71.0787 1.46192 71.0815 1.51341L71.3361 4.33665C71.3561 4.57406 71.5449 4.76285 71.7795 4.78859L73.9934 5.03459C74.0449 5.04031 74.085 5.08322 74.085 5.1347C74.085 5.18619 74.0449 5.2291 73.9934 5.23482L71.7795 5.47796C71.5449 5.5037 71.3561 5.69535 71.3361 5.9299L71.0844 8.75314C71.0787 8.80463 71.0358 8.84467 70.9814 8.84467ZM68.9076 5.12898L70.2034 5.27201C70.5352 5.30919 70.7983 5.57807 70.827 5.90988L70.9814 7.60611L71.133 5.90988C71.1645 5.57807 71.4248 5.30919 71.7566 5.27201L73.0524 5.12898L71.7566 4.98596C71.4248 4.94878 71.1616 4.68276 71.133 4.34809L70.9814 2.65186L70.827 4.34809C70.7983 4.6799 70.5352 4.94878 70.2034 4.98596L68.9076 5.12898Z" fill="#B0FF8B"/>
</g>
<path d="M70.8002 48.8868L16.2324 58.8828L16.3769 59.6716L70.9447 49.6756L70.8002 48.8868Z" fill="#518C36"/>
<path d="M71.5048 49.5764L15.8184 59.7773L15.9629 60.5661L71.6493 50.3652L71.5048 49.5764Z" fill="#000080"/>
<path d="M72.4171 50.2248L15.1953 60.707L15.3398 61.4958L72.5616 51.0136L72.4171 50.2248Z" fill="#518C36"/>
<path d="M66.5852 19.095L9.06092 29.6326L35.6271 9.42442L66.5852 19.095Z" fill="#E4AD50"/>
<path d="M17.4293 26.0513L57.4752 18.6286L36.0875 12.051L17.4293 26.0513Z" fill="#000080"/>
<path d="M65.3642 19.3205L10.5625 29.3594L10.7953 30.6303L65.5971 20.5914L65.3642 19.3205Z" fill="#000080"/>
<path d="M20.0299 27.6244L14.6318 28.6133L14.9819 30.5242L20.3799 29.5354L20.0299 27.6244Z" fill="#E4AD50"/>
<path d="M19.1689 29.7557L16.1934 30.3008L21.2609 57.9642L24.2365 57.4191L19.1689 29.7557Z" fill="#E4AD50"/>
<path d="M31.6939 25.4877L26.2959 26.4766L26.6459 28.3875L32.044 27.3986L31.6939 25.4877Z" fill="#E4AD50"/>
<path d="M30.833 27.619L27.8574 28.1641L32.925 55.8275L35.9005 55.2824L30.833 27.619Z" fill="#E4AD50"/>
<path d="M50.0299 22.1283L44.6318 23.1172L44.9819 25.0281L50.3799 24.0393L50.0299 22.1283Z" fill="#E4AD50"/>
<path d="M49.168 24.2596L46.1924 24.8047L51.2599 52.4681L54.2355 51.923L49.168 24.2596Z" fill="#E4AD50"/>
<path d="M61.0123 20.1166L55.6143 21.1055L55.9643 23.0164L61.3624 22.0275L61.0123 20.1166Z" fill="#E4AD50"/>
<path d="M60.1513 22.2479L57.1758 22.793L62.2433 50.4564L65.2189 49.9113L60.1513 22.2479Z" fill="#E4AD50"/>
<path d="M37.92 18.3732C37.9048 18.2822 37.8783 18.2044 37.841 18.1394C37.8037 18.0743 37.7513 18.0188 37.6834 17.9722C37.6155 17.9256 37.5318 17.8866 37.4318 17.8541C37.3318 17.822 37.2115 17.7943 37.071 17.771C36.829 17.7295 36.6075 17.6803 36.4062 17.6241C36.2048 17.5677 36.0285 17.4934 35.8763 17.401C35.7242 17.3087 35.5983 17.1919 35.4991 17.0505C35.3999 16.9092 35.3324 16.7323 35.2968 16.5202C35.266 16.3363 35.2704 16.163 35.3099 16.0002C35.3496 15.8377 35.4209 15.6901 35.5231 15.5569C35.6254 15.424 35.7551 15.308 35.9124 15.2094C36.0695 15.1105 36.2512 15.0339 36.4579 14.9789L36.3409 14.2838L36.9003 14.1896L37.0191 14.8944C37.2237 14.8866 37.4146 14.9092 37.5912 14.9616C37.768 15.0144 37.924 15.0949 38.0598 15.2035C38.1956 15.312 38.3089 15.4483 38.4001 15.6122C38.4913 15.7762 38.5548 15.9663 38.5912 16.1829L37.581 16.3529C37.5373 16.093 37.447 15.9085 37.31 15.7991C37.173 15.6897 37.0078 15.6512 36.8142 15.6838C36.7094 15.7016 36.6215 15.7313 36.5505 15.7733C36.4795 15.8153 36.424 15.8659 36.3836 15.9248C36.3433 15.984 36.3171 16.05 36.3055 16.1233C36.2939 16.1966 36.2947 16.273 36.3083 16.3532C36.3219 16.4333 36.3455 16.5038 36.3796 16.5648C36.4137 16.6258 36.4642 16.6791 36.5305 16.7249C36.5968 16.7704 36.6813 16.8096 36.7839 16.8427C36.8866 16.8758 37.012 16.9061 37.1607 16.9347C37.401 16.9812 37.6212 17.0331 37.8213 17.0905C38.0215 17.1483 38.1977 17.2237 38.3501 17.3171C38.5024 17.4104 38.6284 17.5279 38.7276 17.6693C38.8268 17.8107 38.8941 17.9865 38.9293 18.1965C38.9614 18.387 38.9569 18.5639 38.9158 18.7263C38.8748 18.889 38.803 19.036 38.7007 19.1667C38.598 19.2975 38.4668 19.411 38.3069 19.5068C38.147 19.6026 37.9637 19.678 37.7569 19.7327L37.8656 20.3789L37.3097 20.4725L37.2016 19.8295C37.0047 19.8426 36.8106 19.8317 36.619 19.7974C36.4274 19.7627 36.2514 19.6962 36.0908 19.5972C35.9304 19.4985 35.7925 19.3628 35.6772 19.1908C35.562 19.0187 35.4824 18.8029 35.4387 18.5429L36.4489 18.3729C36.475 18.5266 36.5179 18.6515 36.5783 18.747C36.6387 18.8426 36.7104 18.9153 36.7927 18.9646C36.8755 19.0142 36.9646 19.0436 37.0611 19.0531C37.1573 19.0627 37.2533 19.0591 37.3488 19.0434C37.4584 19.0247 37.552 18.9947 37.6301 18.9525C37.7079 18.9104 37.7709 18.8598 37.8184 18.8007C37.8658 18.7415 37.8981 18.6755 37.9144 18.6024C37.9319 18.5298 37.9336 18.4533 37.92 18.3732Z" fill="#518C36"/>
<path d="M46.7118 53.2989L39.3052 54.6557L37.823 46.5642C37.4715 44.6453 38.742 42.8049 40.6605 42.4535L41.3199 42.3327C43.1276 42.0015 44.8615 43.1985 45.1927 45.0063L46.7118 53.2989Z" fill="#E4AD50"/>
<path d="M37.3615 36.9247L33.8654 37.5651L33.1656 33.7454C32.9997 32.8396 33.5993 31.971 34.5051 31.8051L34.8163 31.7481C35.6695 31.5918 36.4881 32.1569 36.6444 33.0101L37.3615 36.9247V36.9247Z" fill="#E4AD50"/>
<path d="M27.1222 38.7997L23.6261 39.4401L22.9264 35.6204C22.7605 34.7146 23.3601 33.846 24.2659 33.6801L24.577 33.6231C25.4302 33.4668 26.2488 34.0319 26.4051 34.8851L27.1222 38.7997V38.7997Z" fill="#E4AD50"/>
<path d="M29.2697 50.5223L25.7736 51.1628L25.0738 47.343C24.9079 46.4372 25.5076 45.5686 26.4133 45.4027L26.7245 45.3457C27.5777 45.1894 28.3963 45.7546 28.5526 46.6078L29.2697 50.5223V50.5223Z" fill="#E4AD50"/>
<path d="M56.7814 33.37L53.2853 34.0104L52.5856 30.1907C52.4196 29.2849 53.0193 28.4163 53.9251 28.2504L54.2362 28.1934C55.0894 28.0371 55.908 28.6022 56.0643 29.4554L56.7814 33.37V33.37Z" fill="#E4AD50"/>
<path d="M58.9279 45.0848L55.4318 45.7253L54.732 41.9055C54.5661 40.9997 55.1658 40.1311 56.0715 39.9652L56.3827 39.9082C57.2359 39.7519 58.0545 40.3171 58.2108 41.1703L58.9279 45.0848V45.0848Z" fill="#E4AD50"/>
<path d="M46.2023 35.3075L42.7062 35.9479L42.0065 32.1282C41.8405 31.2224 42.4402 30.3538 43.346 30.1879L43.6571 30.1309C44.5106 29.9745 45.3289 30.5397 45.4852 31.3929L46.2023 35.3075V35.3075Z" fill="#E4AD50"/>
</svg>
