<svg width="120" height="140" viewBox="0 0 120 140" fill="none" xmlns="http://www.w3.org/2000/svg">
<path d="M69.1706 14.986C69.1706 14.986 65.6911 12.2264 64.7913 10.4267C64.0114 8.92693 63.4715 6.76726 64.2514 5.14751C65.0312 3.58774 66.9509 2.80786 68.4507 3.76772C70.6104 5.14751 70.7904 9.70682 70.2504 11.9265C70.2504 12.1065 69.1706 14.986 69.1706 14.986Z" fill="#B0FF8B"/>
<path d="M101.265 38.2028C101.145 38.3228 98.6259 40.1825 98.6259 40.1225C98.6259 40.1225 97.2461 35.8632 97.486 33.8835C97.666 32.2037 98.3859 30.1041 99.9457 29.1442C101.445 28.2443 103.485 28.6643 104.205 30.344C105.285 32.6837 102.945 36.6431 101.265 38.2028Z" fill="#B0FF8B"/>
<path d="M28.4959 19.1875C28.4959 19.1875 41.214 32.5055 41.154 48.943C41.094 65.3205 28.256 78.5785 28.256 78.5785C28.256 78.5785 15.5379 65.2605 15.5979 48.823C15.6579 32.4455 28.4959 19.1875 28.4959 19.1875Z" fill="#B0FF8B"/>
<path d="M46.6129 58.7801C46.433 58.6001 46.253 58.3602 46.133 58.1802C45.2331 56.7404 44.3933 54.7007 44.9932 52.961C45.5931 51.2812 47.3928 50.3214 49.0126 51.1013C50.7523 51.9411 51.5922 54.7607 51.7722 57.0404C52.4321 56.8604 53.092 56.7404 53.6319 56.6804C53.8718 56.1405 54.1118 55.6606 54.3518 55.1207C54.5917 54.5807 54.7717 54.0408 55.0117 53.5009C55.3116 52.661 55.6116 51.8212 55.8515 50.9813C54.8317 50.5014 51.8921 49.1216 50.8123 47.9217C49.6725 46.6619 48.5926 44.7422 48.9526 42.9425C49.2525 41.2028 50.9323 39.9429 52.672 40.4829C55.0717 41.2028 56.5114 45.5821 56.5714 47.8618C56.5714 47.9217 56.5115 48.4017 56.5115 49.0016C56.7514 48.1617 56.9914 47.3218 57.2313 46.422C57.8312 43.9623 58.4311 41.4427 58.9711 38.9231C59.091 38.3832 59.211 37.9033 59.331 37.3633C58.4911 37.0034 55.3116 35.5036 54.1718 34.2438C53.032 32.984 51.9521 31.0643 52.3121 29.2646C52.612 27.5248 54.2918 26.265 56.0315 26.8049C58.4312 27.5248 59.8709 31.9042 59.9309 34.1838C59.9309 34.2438 59.8709 34.8437 59.811 35.5036C60.1109 34.1238 60.4708 32.804 60.8908 31.4242C61.5507 29.0846 62.3306 26.8049 63.2904 24.7053C62.9905 24.5853 59.211 22.9055 57.9512 21.4657C56.8114 20.2059 55.7316 18.2862 56.0915 16.4865C56.3915 14.7468 58.0712 13.4869 59.811 14.0269C62.2106 14.7468 63.6504 19.1261 63.7104 21.4058C63.7104 21.5857 63.5304 23.6854 63.4104 24.4053C63.4104 24.4053 63.4104 24.3453 63.4704 24.3453C64.4902 22.1256 65.6901 20.086 66.9499 18.2862C68.2097 16.4265 69.5295 14.8067 70.7893 13.367C72.0491 11.9272 73.2489 10.6074 74.3887 9.52755C74.9887 8.92764 75.5286 8.38772 76.0685 7.90779H76.0085C75.9485 7.90779 77.2083 5.02823 77.2683 4.90825C78.4081 2.92855 81.7076 -0.190982 84.1673 0.348936C85.967 0.768873 86.8069 2.62859 86.2669 4.30834C85.727 6.04807 83.8673 7.1879 82.2476 7.72782C80.6278 8.32773 77.0883 8.02777 76.1885 7.96778C75.6486 8.5077 75.1086 9.04762 74.4487 9.70752C73.3689 10.8473 72.1691 12.1072 70.9693 13.6069C70.6693 14.0269 70.3094 14.4468 69.9494 14.8667C70.6693 14.2668 71.6292 13.4869 71.7491 13.427C73.6689 12.2271 78.0482 10.9673 79.9679 12.5871C81.3477 13.7869 81.2877 15.8266 80.0279 17.0864C78.7681 18.3462 76.5484 18.5262 74.9287 18.2862C73.1889 18.0463 70.0694 16.0666 69.4095 15.6466C68.6896 16.6065 67.9697 17.5663 67.3098 18.6462C66.11 20.5059 64.9702 22.4856 64.0103 24.7053C63.9503 24.8252 63.8903 24.9452 63.8903 25.0652C64.1903 24.7053 65.93 22.9055 66.11 22.7855C67.8497 21.3458 72.1091 19.606 74.2088 21.0458C75.7086 22.0657 75.8285 24.1653 74.7487 25.5451C73.6089 26.9249 71.4492 27.3449 69.7694 27.2849C67.8497 27.2249 64.0103 25.2452 63.8903 25.1852C63.0505 27.2849 62.3306 29.4445 61.7307 31.7242C61.3107 33.4039 60.9508 35.0837 60.5908 36.7634C61.0108 36.2835 62.6305 34.6038 62.7505 34.5438C64.4902 33.104 68.7496 31.3642 70.8493 32.804C72.3491 33.8239 72.469 35.9236 71.3892 37.3033C70.2494 38.6831 68.0897 39.1031 66.41 39.0431C64.5502 38.9831 60.8308 37.1234 60.5308 36.9434C60.3509 37.7233 60.2309 38.5032 60.0509 39.283C59.511 41.8027 59.0311 44.3823 58.4312 46.8419C58.2512 47.6818 58.0112 48.5216 57.7712 49.4215C58.3712 48.7616 59.511 47.6218 59.631 47.5018C61.3707 46.062 65.6301 44.3223 67.7297 45.7621C69.2295 46.7819 69.3495 48.8816 68.2697 50.2614C67.1298 51.6412 64.9702 52.0611 63.2904 52.0011C61.6107 51.9411 58.4911 50.4414 57.5913 50.0214C57.2313 51.4012 56.8114 52.781 56.3315 54.1608C56.0915 54.7607 55.9115 55.3606 55.6716 55.9005C55.5516 56.2005 55.4316 56.5004 55.3116 56.7404C55.6116 56.6804 55.7916 56.6804 55.7916 56.6804C55.7916 56.6804 55.8515 57.4603 55.7316 58.7801C57.5913 57.4603 60.2309 56.2605 61.9706 57.1004C63.6504 57.8802 64.0703 59.9199 63.1704 61.4197C63.0504 61.5997 62.9305 61.7797 62.8105 61.9596C62.5105 63.9993 61.3707 66.219 60.4109 67.3588C60.2909 67.4788 59.0311 68.6786 58.4312 69.2185C59.0911 68.8586 59.691 68.4986 60.3509 68.1387C61.3107 67.5988 62.2706 66.9989 63.2304 66.4589C63.7104 66.159 64.1903 65.799 64.6702 65.4991C65.1501 65.1991 65.6301 64.8392 66.11 64.4792C66.8299 63.9393 67.4898 63.3994 68.2097 62.8595C67.6098 61.8996 65.93 59.0801 65.6901 57.4603C65.4501 55.7806 65.5701 53.5609 66.8299 52.2411C68.0297 50.9813 70.1294 50.8613 71.2692 52.3011C72.889 54.2808 71.6892 58.7201 70.4893 60.6398C70.4293 60.6998 70.1294 61.0598 69.8294 61.5397C70.4893 60.9998 71.1492 60.3999 71.8091 59.7999C73.6689 58.1202 75.4686 56.3205 77.3283 54.5207C77.6882 54.1608 78.1082 53.8008 78.4681 53.4409C77.9882 52.661 76.1285 49.6015 75.8285 47.9217C75.5886 46.242 75.7085 44.0223 76.9683 42.7025C78.1682 41.4427 80.2679 41.3227 81.4077 42.7625C83.0274 44.7422 81.8276 49.1816 80.6278 51.1013C80.5678 51.1613 80.2079 51.6412 79.8479 52.1211C80.8678 51.1613 81.8876 50.2014 82.9075 49.3015C84.7072 47.7418 86.6269 46.302 88.5466 45.0422C88.3666 44.7422 86.147 41.2627 85.847 39.343C85.6071 37.6633 85.727 35.4436 86.9868 34.1238C88.1867 32.864 90.2863 32.744 91.4262 34.1838C93.0459 36.1635 91.8461 40.6028 90.6463 42.5226C90.5863 42.6425 89.2665 44.3223 88.7866 44.8622L88.8466 44.8022C90.8863 43.4824 92.9859 42.5226 95.0256 41.6827C97.0653 40.8428 99.045 40.2429 100.905 39.703C102.764 39.1631 104.444 38.8031 106.004 38.5032C106.844 38.3232 107.564 38.2032 108.284 38.0832L108.224 38.0232C108.164 38.0232 110.743 36.2835 110.923 36.2235C112.963 35.2037 117.402 34.4238 119.202 36.2835C120.462 37.6033 120.162 39.643 118.782 40.7828C117.402 41.9227 115.183 41.8027 113.563 41.3827C111.883 40.9628 109.064 38.7431 108.404 38.1432C107.684 38.2632 106.904 38.4432 106.004 38.6231C104.504 38.9831 102.764 39.343 100.965 39.9429C100.485 40.0629 99.9449 40.2429 99.4649 40.4229C100.365 40.3029 101.625 40.1829 101.745 40.1829C103.964 40.2429 108.344 41.6227 109.063 44.0823C109.603 45.8221 108.344 47.5618 106.664 47.8618C104.924 48.2217 103.004 47.0819 101.745 45.942C100.425 44.7422 98.925 41.3827 98.6251 40.6028C97.4852 40.9628 96.4054 41.3827 95.2056 41.9226C93.2259 42.7625 91.1262 43.8424 89.1465 45.1622C89.0265 45.2222 88.9066 45.3421 88.8466 45.4021C89.2665 45.2821 91.7261 44.7422 91.9061 44.7422C94.1258 44.5023 98.6251 45.4621 99.5849 47.8018C100.305 49.4815 99.285 51.2812 97.6052 51.8212C95.9255 52.3611 93.8858 51.4612 92.506 50.5014C90.9462 49.3615 88.7866 45.5821 88.7266 45.4621C86.8669 46.7219 85.1271 48.1617 83.3874 49.7215C82.1276 50.8613 80.8678 52.0611 79.6679 53.2609C80.2678 53.081 82.5475 52.601 82.7275 52.601C84.9471 52.3611 89.4465 53.3209 90.4063 55.6606C91.1262 57.3403 90.1064 59.14 88.4266 59.68C86.7469 60.2199 84.7072 59.32 83.3274 58.3602C81.7676 57.2203 79.7279 53.6209 79.548 53.3209C79.008 53.8608 78.4081 54.4008 77.8682 55.0007C76.0685 56.8004 74.2688 58.6601 72.409 60.3999C71.7491 60.9998 71.1492 61.5997 70.4893 62.1396C71.3892 61.9596 72.949 61.5997 73.0689 61.5997C75.2886 61.3597 79.7879 62.3196 80.7478 64.6592C81.4677 66.339 80.4478 68.1387 78.7681 68.6786C77.0883 69.2185 75.0486 68.3187 73.6688 67.3588C72.2891 66.339 70.4893 63.3994 70.0094 62.4995C68.9296 63.4594 67.8497 64.3593 66.7099 65.2591C66.23 65.6191 65.75 66.039 65.2701 66.339C64.7902 66.6989 64.3103 66.9989 63.8303 67.2988C62.8105 67.9587 61.9106 68.5586 60.9508 69.0985C60.4708 69.3985 59.9909 69.6385 59.511 69.9384C60.3509 69.5785 61.7307 69.0985 61.8506 69.0385C64.0103 68.4986 68.5696 68.7386 69.8894 70.8983C70.8493 72.458 70.0694 74.4377 68.5096 75.2176C66.8899 75.9975 64.7902 75.4576 63.2904 74.6777C61.6107 73.8378 59.151 70.7183 58.8511 70.2984C57.7113 70.9583 56.5714 71.6182 55.4916 72.1581C52.612 73.7178 50.1524 74.9777 48.2327 75.8775C41.9336 81.3967 33.115 81.9966 33.115 81.9966C33.115 81.9966 32.6351 71.2582 38.8741 64.1193C41.0938 61.6597 43.9134 59.9199 46.6129 58.7801ZM57.8312 69.2785C57.6513 68.8586 56.1515 65.4391 56.0315 63.5194C55.6716 63.4594 55.3116 63.3994 55.0117 63.2794C54.4118 66.219 53.2719 69.6985 51.1123 72.758C52.2521 72.2181 53.5119 71.6182 54.8317 70.8983C55.7316 70.3583 56.7514 69.8184 57.8312 69.2785Z" fill="#B0FF8B"/>
<path d="M0.240254 56.6816C0.240254 56.6816 10.8586 57.0416 17.3377 63.8806C23.8167 70.7195 23.7567 81.5179 23.7567 81.5179C23.7567 81.5179 13.1383 81.1579 6.65929 74.319C0.180271 67.48 0.240254 56.6816 0.240254 56.6816Z" fill="#B0FF8B"/>
<g opacity="0.5">
<path opacity="0.5" d="M69.1706 14.986C69.1706 14.986 65.6911 12.2264 64.7913 10.4267C64.0114 8.92693 63.4715 6.76726 64.2514 5.14751C65.0312 3.58774 66.9509 2.80786 68.4507 3.76772C70.6104 5.14751 70.7904 9.70682 70.2504 11.9265C70.2504 12.1065 69.1706 14.986 69.1706 14.986Z" fill="white"/>
<path opacity="0.5" d="M101.265 38.2028C101.145 38.3228 98.6259 40.1825 98.6259 40.1225C98.6259 40.1225 97.2461 35.8632 97.486 33.8835C97.666 32.2037 98.3859 30.1041 99.9457 29.1442C101.445 28.2443 103.485 28.6643 104.205 30.344C105.285 32.6837 102.945 36.6431 101.265 38.2028Z" fill="white"/>
<path opacity="0.5" d="M28.4959 19.1875C28.4959 19.1875 41.214 32.5055 41.154 48.943C41.094 65.3205 28.256 78.5785 28.256 78.5785C28.256 78.5785 15.5379 65.2605 15.5979 48.823C15.6579 32.4455 28.4959 19.1875 28.4959 19.1875Z" fill="white"/>
<path opacity="0.5" d="M46.6129 58.7801C46.433 58.6001 46.253 58.3602 46.133 58.1802C45.2331 56.7404 44.3933 54.7007 44.9932 52.961C45.5931 51.2812 47.3928 50.3214 49.0126 51.1013C50.7523 51.9411 51.5922 54.7607 51.7722 57.0404C52.4321 56.8604 53.092 56.7404 53.6319 56.6804C53.8718 56.1405 54.1118 55.6606 54.3518 55.1207C54.5917 54.5807 54.7717 54.0408 55.0117 53.5009C55.3116 52.661 55.6116 51.8212 55.8515 50.9813C54.8317 50.5014 51.8921 49.1216 50.8123 47.9217C49.6725 46.6619 48.5926 44.7422 48.9526 42.9425C49.2525 41.2028 50.9323 39.9429 52.672 40.4829C55.0717 41.2028 56.5114 45.5821 56.5714 47.8618C56.5714 47.9217 56.5115 48.4017 56.5115 49.0016C56.7514 48.1617 56.9914 47.3218 57.2313 46.422C57.8312 43.9623 58.4311 41.4427 58.9711 38.9231C59.091 38.3832 59.211 37.9033 59.331 37.3633C58.4911 37.0034 55.3116 35.5036 54.1718 34.2438C53.032 32.984 51.9521 31.0643 52.3121 29.2646C52.612 27.5248 54.2918 26.265 56.0315 26.8049C58.4312 27.5248 59.8709 31.9042 59.9309 34.1838C59.9309 34.2438 59.8709 34.8437 59.811 35.5036C60.1109 34.1238 60.4708 32.804 60.8908 31.4242C61.5507 29.0846 62.3306 26.8049 63.2904 24.7053C62.9905 24.5853 59.211 22.9055 57.9512 21.4657C56.8114 20.2059 55.7316 18.2862 56.0915 16.4865C56.3915 14.7468 58.0712 13.4869 59.811 14.0269C62.2106 14.7468 63.6504 19.1261 63.7104 21.4058C63.7104 21.5857 63.5304 23.6854 63.4104 24.4053C63.4104 24.4053 63.4104 24.3453 63.4704 24.3453C64.4902 22.1256 65.6901 20.086 66.9499 18.2862C68.2097 16.4265 69.5295 14.8067 70.7893 13.367C72.0491 11.9272 73.2489 10.6074 74.3887 9.52755C74.9887 8.92764 75.5286 8.38772 76.0685 7.90779H76.0085C75.9485 7.90779 77.2083 5.02823 77.2683 4.90825C78.4081 2.92855 81.7076 -0.190982 84.1673 0.348936C85.967 0.768873 86.8069 2.62859 86.2669 4.30834C85.727 6.04807 83.8673 7.1879 82.2476 7.72782C80.6278 8.32773 77.0883 8.02777 76.1885 7.96778C75.6486 8.5077 75.1086 9.04762 74.4487 9.70752C73.3689 10.8473 72.1691 12.1072 70.9693 13.6069C70.6693 14.0269 70.3094 14.4468 69.9494 14.8667C70.6693 14.2668 71.6292 13.4869 71.7491 13.427C73.6689 12.2271 78.0482 10.9673 79.9679 12.5871C81.3477 13.7869 81.2877 15.8266 80.0279 17.0864C78.7681 18.3462 76.5484 18.5262 74.9287 18.2862C73.1889 18.0463 70.0694 16.0666 69.4095 15.6466C68.6896 16.6065 67.9697 17.5663 67.3098 18.6462C66.11 20.5059 64.9702 22.4856 64.0103 24.7053C63.9503 24.8252 63.8903 24.9452 63.8903 25.0652C64.1903 24.7053 65.93 22.9055 66.11 22.7855C67.8497 21.3458 72.1091 19.606 74.2088 21.0458C75.7086 22.0657 75.8285 24.1653 74.7487 25.5451C73.6089 26.9249 71.4492 27.3449 69.7694 27.2849C67.8497 27.2249 64.0103 25.2452 63.8903 25.1852C63.0505 27.2849 62.3306 29.4445 61.7307 31.7242C61.3107 33.4039 60.9508 35.0837 60.5908 36.7634C61.0108 36.2835 62.6305 34.6038 62.7505 34.5438C64.4902 33.104 68.7496 31.3642 70.8493 32.804C72.3491 33.8239 72.469 35.9236 71.3892 37.3033C70.2494 38.6831 68.0897 39.1031 66.41 39.0431C64.5502 38.9831 60.8308 37.1234 60.5308 36.9434C60.3509 37.7233 60.2309 38.5032 60.0509 39.283C59.511 41.8027 59.0311 44.3823 58.4312 46.8419C58.2512 47.6818 58.0112 48.5216 57.7712 49.4215C58.3712 48.7616 59.511 47.6218 59.631 47.5018C61.3707 46.062 65.6301 44.3223 67.7297 45.7621C69.2295 46.7819 69.3495 48.8816 68.2697 50.2614C67.1298 51.6412 64.9702 52.0611 63.2904 52.0011C61.6107 51.9411 58.4911 50.4414 57.5913 50.0214C57.2313 51.4012 56.8114 52.781 56.3315 54.1608C56.0915 54.7607 55.9115 55.3606 55.6716 55.9005C55.5516 56.2005 55.4316 56.5004 55.3116 56.7404C55.6116 56.6804 55.7916 56.6804 55.7916 56.6804C55.7916 56.6804 55.8515 57.4603 55.7316 58.7801C57.5913 57.4603 60.2309 56.2605 61.9706 57.1004C63.6504 57.8802 64.0703 59.9199 63.1704 61.4197C63.0504 61.5997 62.9305 61.7797 62.8105 61.9596C62.5105 63.9993 61.3707 66.219 60.4109 67.3588C60.2909 67.4788 59.0311 68.6786 58.4312 69.2185C59.0911 68.8586 59.691 68.4986 60.3509 68.1387C61.3107 67.5988 62.2706 66.9989 63.2304 66.4589C63.7104 66.159 64.1903 65.799 64.6702 65.4991C65.1501 65.1991 65.6301 64.8392 66.11 64.4792C66.8299 63.9393 67.4898 63.3994 68.2097 62.8595C67.6098 61.8996 65.93 59.0801 65.6901 57.4603C65.4501 55.7806 65.5701 53.5609 66.8299 52.2411C68.0297 50.9813 70.1294 50.8613 71.2692 52.3011C72.889 54.2808 71.6892 58.7201 70.4893 60.6398C70.4293 60.6998 70.1294 61.0598 69.8294 61.5397C70.4893 60.9998 71.1492 60.3999 71.8091 59.7999C73.6689 58.1202 75.4686 56.3205 77.3283 54.5207C77.6882 54.1608 78.1082 53.8008 78.4681 53.4409C77.9882 52.661 76.1285 49.6015 75.8285 47.9217C75.5886 46.242 75.7085 44.0223 76.9683 42.7025C78.1682 41.4427 80.2679 41.3227 81.4077 42.7625C83.0274 44.7422 81.8276 49.1816 80.6278 51.1013C80.5678 51.1613 80.2079 51.6412 79.8479 52.1211C80.8678 51.1613 81.8876 50.2014 82.9075 49.3015C84.7072 47.7418 86.6269 46.302 88.5466 45.0422C88.3666 44.7422 86.147 41.2627 85.847 39.343C85.6071 37.6633 85.727 35.4436 86.9868 34.1238C88.1867 32.864 90.2863 32.744 91.4262 34.1838C93.0459 36.1635 91.8461 40.6028 90.6463 42.5226C90.5863 42.6425 89.2665 44.3223 88.7866 44.8622L88.8466 44.8022C90.8863 43.4824 92.9859 42.5226 95.0256 41.6827C97.0653 40.8428 99.045 40.2429 100.905 39.703C102.764 39.1631 104.444 38.8031 106.004 38.5032C106.844 38.3232 107.564 38.2032 108.284 38.0832L108.224 38.0232C108.164 38.0232 110.743 36.2835 110.923 36.2235C112.963 35.2037 117.402 34.4238 119.202 36.2835C120.462 37.6033 120.162 39.643 118.782 40.7828C117.402 41.9227 115.183 41.8027 113.563 41.3827C111.883 40.9628 109.064 38.7431 108.404 38.1432C107.684 38.2632 106.904 38.4432 106.004 38.6231C104.504 38.9831 102.764 39.343 100.965 39.9429C100.485 40.0629 99.9449 40.2429 99.4649 40.4229C100.365 40.3029 101.625 40.1829 101.745 40.1829C103.964 40.2429 108.344 41.6227 109.063 44.0823C109.603 45.8221 108.344 47.5618 106.664 47.8618C104.924 48.2217 103.004 47.0819 101.745 45.942C100.425 44.7422 98.925 41.3827 98.6251 40.6028C97.4852 40.9628 96.4054 41.3827 95.2056 41.9226C93.2259 42.7625 91.1262 43.8424 89.1465 45.1622C89.0265 45.2222 88.9066 45.3421 88.8466 45.4021C89.2665 45.2821 91.7261 44.7422 91.9061 44.7422C94.1258 44.5023 98.6251 45.4621 99.5849 47.8018C100.305 49.4815 99.285 51.2812 97.6052 51.8212C95.9255 52.3611 93.8858 51.4612 92.506 50.5014C90.9462 49.3615 88.7866 45.5821 88.7266 45.4621C86.8669 46.7219 85.1271 48.1617 83.3874 49.7215C82.1276 50.8613 80.8678 52.0611 79.6679 53.2609C80.2678 53.081 82.5475 52.601 82.7275 52.601C84.9471 52.3611 89.4465 53.3209 90.4063 55.6606C91.1262 57.3403 90.1064 59.14 88.4266 59.68C86.7469 60.2199 84.7072 59.32 83.3274 58.3602C81.7676 57.2203 79.7279 53.6209 79.548 53.3209C79.008 53.8608 78.4081 54.4008 77.8682 55.0007C76.0685 56.8004 74.2688 58.6601 72.409 60.3999C71.7491 60.9998 71.1492 61.5997 70.4893 62.1396C71.3892 61.9596 72.949 61.5997 73.0689 61.5997C75.2886 61.3597 79.7879 62.3196 80.7478 64.6592C81.4677 66.339 80.4478 68.1387 78.7681 68.6786C77.0883 69.2185 75.0486 68.3187 73.6688 67.3588C72.2891 66.339 70.4893 63.3994 70.0094 62.4995C68.9296 63.4594 67.8497 64.3593 66.7099 65.2591C66.23 65.6191 65.75 66.039 65.2701 66.339C64.7902 66.6989 64.3103 66.9989 63.8303 67.2988C62.8105 67.9587 61.9106 68.5586 60.9508 69.0985C60.4708 69.3985 59.9909 69.6385 59.511 69.9384C60.3509 69.5785 61.7307 69.0985 61.8506 69.0385C64.0103 68.4986 68.5696 68.7386 69.8894 70.8983C70.8493 72.458 70.0694 74.4377 68.5096 75.2176C66.8899 75.9975 64.7902 75.4576 63.2904 74.6777C61.6107 73.8378 59.151 70.7183 58.8511 70.2984C57.7113 70.9583 56.5714 71.6182 55.4916 72.1581C52.612 73.7178 50.1524 74.9777 48.2327 75.8775C41.9336 81.3967 33.115 81.9966 33.115 81.9966C33.115 81.9966 32.6351 71.2582 38.8741 64.1193C41.0938 61.6597 43.9134 59.9199 46.6129 58.7801ZM57.8312 69.2785C57.6513 68.8586 56.1515 65.4391 56.0315 63.5194C55.6716 63.4594 55.3116 63.3994 55.0117 63.2794C54.4118 66.219 53.2719 69.6985 51.1123 72.758C52.2521 72.2181 53.5119 71.6182 54.8317 70.8983C55.7316 70.3583 56.7514 69.8184 57.8312 69.2785Z" fill="white"/>
<path opacity="0.5" d="M0.240254 56.6816C0.240254 56.6816 10.8586 57.0416 17.3377 63.8806C23.8167 70.7195 23.7567 81.5179 23.7567 81.5179C23.7567 81.5179 13.1383 81.1579 6.65929 74.319C0.180271 67.48 0.240254 56.6816 0.240254 56.6816Z" fill="white"/>
</g>
<path d="M27.956 63.6388L17.5176 54.1003L17.9975 53.6203L27.956 62.739L28.016 50.2609L27.956 50.3208L19.1373 37.2428L19.6773 36.8229L28.016 49.181L28.136 19.1855H28.7959L28.7359 39.5825L35.3349 33.7034L35.7548 34.2433L28.7359 40.4823L28.6759 55.0001L38.6944 46.0015L39.1143 46.4814L28.6759 55.9L28.6159 69.158L36.1148 63.1589L36.5347 63.6988L28.6159 70.0579L28.5559 78.5766H27.896L27.956 63.6388Z" fill="white"/>
<path d="M37.5547 67.2975L38.2146 67.2375L39.0545 74.7364L43.4938 69.6972L44.6336 60.5786L45.2935 60.6385L44.2737 68.7973L55.372 56.1992L55.9119 56.6192L48.3531 65.1979L53.0924 65.2579V65.9177L47.7532 65.8578L42.474 71.8569H49.9129V72.5767H41.8741L37.0748 78.0359L42.354 78.3359L42.294 78.9958L36.5349 78.6358L33.2954 82.2953L32.8154 81.8153L38.4546 75.4563L37.5547 67.2975Z" fill="white"/>
<path d="M12.3581 69.9974L3.53946 68.1377L3.65945 67.4778L11.5783 69.1575L0 56.9194L0.479929 56.4395L8.33874 64.7182L8.75868 59.9189L9.41858 59.9789L8.93865 65.3781L14.4578 71.1972L14.9977 63.6384L15.7176 63.6984L15.0577 71.8571L20.097 77.1363L20.8169 71.7971L21.4768 71.9171L20.6969 77.7362L23.9964 81.2757L23.5164 81.7556L17.6373 75.5166L9.59855 75.8765V75.1566L17.0374 74.9167L12.3581 69.9974Z" fill="white"/>
<path d="M49.8526 48.9613L48.1129 54.7205H0.540039V131.449H108.164V123.47V54.7805V49.7412C108.164 48.1215 106.844 46.8017 105.224 46.8017H52.8521C51.4724 46.7417 50.2725 47.6415 49.8526 48.9613Z" fill="#97E373" stroke="#000080" stroke-miterlimit="10"/>
<path d="M108.164 62.7598H0.540039V139.488H108.164V62.7598Z" fill="#97E373" stroke="#000080" stroke-miterlimit="10"/>
<path d="M35.4542 54.7188H25.9756V139.486H35.4542V54.7188Z" fill="#000080" stroke="#000080" stroke-miterlimit="10" stroke-linecap="round" stroke-linejoin="round"/>
<path d="M38.0335 134.088H23.1557C22.6758 134.088 22.2559 133.668 22.2559 133.188V132.888C22.2559 132.408 22.6758 131.988 23.1557 131.988H38.0335C38.5134 131.988 38.9333 132.408 38.9333 132.888V133.188C38.8733 133.668 38.5134 134.088 38.0335 134.088Z" fill="white" stroke="#000080" stroke-miterlimit="10" stroke-linecap="round" stroke-linejoin="round"/>
<path d="M38.0335 69.3575H23.1557C22.6758 69.3575 22.2559 68.9376 22.2559 68.4576V68.1577C22.2559 67.6777 22.6758 67.2578 23.1557 67.2578H38.0335C38.5134 67.2578 38.9333 67.6777 38.9333 68.1577V68.4576C38.8733 68.9975 38.5134 69.3575 38.0335 69.3575Z" fill="white" stroke="#000080" stroke-miterlimit="10" stroke-linecap="round" stroke-linejoin="round"/>
<path d="M30.7751 109.31C36.9045 109.31 41.8734 104.341 41.8734 98.2116C41.8734 92.0822 36.9045 87.1133 30.7751 87.1133C24.6456 87.1133 19.6768 92.0822 19.6768 98.2116C19.6768 104.341 24.6456 109.31 30.7751 109.31Z" fill="white" stroke="#000080" stroke-miterlimit="10" stroke-linecap="round" stroke-linejoin="round"/>
<path d="M30.7751 110.392C36.9045 110.392 41.8734 105.423 41.8734 99.2936C41.8734 93.1642 36.9045 88.1953 30.7751 88.1953C24.6456 88.1953 19.6768 93.1642 19.6768 99.2936C19.6768 105.423 24.6456 110.392 30.7751 110.392Z" fill="white" stroke="#000080" stroke-miterlimit="10" stroke-linecap="round" stroke-linejoin="round"/>
<path d="M30.7749 106.61C34.8171 106.61 38.0938 103.334 38.0938 99.2915C38.0938 95.2494 34.8171 91.9727 30.7749 91.9727C26.7328 91.9727 23.4561 95.2494 23.4561 99.2915C23.4561 103.334 26.7328 106.61 30.7749 106.61Z" fill="white" stroke="#000080" stroke-miterlimit="10" stroke-linecap="round" stroke-linejoin="round"/>
<path d="M30.7749 107.452C34.8171 107.452 38.0938 104.175 38.0938 100.133C38.0938 96.0912 34.8171 92.8145 30.7749 92.8145C26.7328 92.8145 23.4561 96.0912 23.4561 100.133C23.4561 104.175 26.7328 107.452 30.7749 107.452Z" fill="white" stroke="#000080" stroke-miterlimit="10" stroke-linecap="round" stroke-linejoin="round"/>
<path d="M37.0742 100.431C37.0742 99.3514 36.7742 98.3315 36.2943 97.4316L26.2158 104.511C27.3556 105.83 29.0354 106.61 30.8951 106.61C34.3146 106.61 37.0742 103.851 37.0742 100.431Z" fill="#97E373"/>
<path d="M30.7148 88.2559V90.1756" stroke="#000080" stroke-miterlimit="10" stroke-linecap="round" stroke-linejoin="round"/>
<path d="M25.2559 89.7559L26.1557 91.4356" stroke="#000080" stroke-miterlimit="10" stroke-linecap="round" stroke-linejoin="round"/>
<path d="M21.2363 93.7754L22.8561 94.7352" stroke="#000080" stroke-miterlimit="10" stroke-linecap="round" stroke-linejoin="round"/>
<path d="M19.7363 99.2949H21.656" stroke="#000080" stroke-miterlimit="10" stroke-linecap="round" stroke-linejoin="round"/>
<path d="M21.2363 104.813L22.9161 103.854" stroke="#000080" stroke-miterlimit="10" stroke-linecap="round" stroke-linejoin="round"/>
<path d="M25.2559 108.772L26.2157 107.152" stroke="#000080" stroke-miterlimit="10" stroke-linecap="round" stroke-linejoin="round"/>
<path d="M30.7744 110.273V108.354" stroke="#000080" stroke-miterlimit="10" stroke-linecap="round" stroke-linejoin="round"/>
<path d="M36.2938 108.773L35.334 107.094" stroke="#000080" stroke-miterlimit="10" stroke-linecap="round" stroke-linejoin="round"/>
<path d="M40.3135 104.753L38.6338 103.793" stroke="#000080" stroke-miterlimit="10" stroke-linecap="round" stroke-linejoin="round"/>
<path d="M41.7527 99.2344H39.833" stroke="#000080" stroke-miterlimit="10" stroke-linecap="round" stroke-linejoin="round"/>
<path d="M40.2536 93.7148L38.6338 94.6747" stroke="#000080" stroke-miterlimit="10" stroke-linecap="round" stroke-linejoin="round"/>
<path d="M36.2333 89.7559L35.2734 91.3756" stroke="#000080" stroke-miterlimit="10" stroke-linecap="round" stroke-linejoin="round"/>
<path d="M63.7102 80.3945H54.3516V89.7531H63.7102V80.3945Z" fill="#000080"/>
<path d="M76.9084 80.3945H67.5498V89.7531H76.9084V80.3945Z" fill="#000080"/>
<path d="M90.1057 80.3945H80.7471V89.7531H90.1057V80.3945Z" fill="#000080"/>
<path d="M63.7102 92.873H54.3516V102.232H63.7102V92.873Z" fill="#000080"/>
<path d="M76.9084 92.873H67.5498V102.232H76.9084V92.873Z" fill="#000080"/>
<path d="M90.1057 92.873H80.7471V102.232H90.1057V92.873Z" fill="#000080"/>
<path d="M63.7102 105.352H54.3516V114.71H63.7102V105.352Z" fill="#000080"/>
<path d="M76.9084 105.352H67.5498V114.71H76.9084V105.352Z" fill="#000080"/>
<path d="M90.1057 105.352H80.7471V114.71H90.1057V105.352Z" fill="#000080"/>
</svg>
