<svg width="600" height="230" viewBox="0 0 600 230" fill="none" xmlns="http://www.w3.org/2000/svg">
<path d="M0 10C0 4.47715 4.47715 0 10 0H590C595.523 0 600 4.47715 600 10V230H0V10Z" fill="#F8F6F5"/>
<path d="M215.963 188.126C215.816 188.126 215.691 188.008 215.676 187.861L214.948 179.814C214.889 179.145 214.359 178.601 213.682 178.527L207.371 177.828C207.224 177.814 207.114 177.689 207.114 177.542C207.114 177.394 207.224 177.269 207.371 177.255L213.682 176.556C214.352 176.482 214.889 175.938 214.948 175.269L215.676 167.222C215.691 167.075 215.816 166.957 215.963 166.957C216.117 166.957 216.242 167.075 216.25 167.222L216.978 175.269C217.037 175.945 217.574 176.482 218.243 176.556L224.547 177.255C224.694 177.269 224.804 177.394 224.804 177.542C224.804 177.689 224.694 177.814 224.547 177.828L218.243 178.527C217.574 178.601 217.037 179.145 216.978 179.814L216.25 187.861C216.235 188.008 216.11 188.126 215.963 188.126ZM210.049 177.534L213.741 177.939C214.69 178.042 215.433 178.807 215.521 179.756L215.955 184.588L216.389 179.756C216.478 178.807 217.22 178.042 218.169 177.939L221.862 177.534L218.169 177.122C217.22 177.019 216.478 176.254 216.389 175.306L215.955 170.473L215.521 175.306C215.433 176.254 214.69 177.019 213.741 177.122L210.049 177.534Z" fill="#8B8C8C"/>
<g opacity="0.5">
<path opacity="0.5" d="M224.804 204.999C224.657 204.999 224.525 204.881 224.517 204.734L224.025 199.254C223.988 198.842 223.657 198.504 223.245 198.46L218.949 197.982C218.802 197.967 218.692 197.842 218.692 197.695C218.692 197.548 218.802 197.422 218.949 197.408L223.245 196.93C223.657 196.886 223.988 196.547 224.025 196.135L224.517 190.655C224.532 190.508 224.657 190.391 224.804 190.391C224.951 190.391 225.084 190.508 225.091 190.655L225.584 196.135C225.621 196.547 225.952 196.886 226.364 196.93L230.659 197.408C230.806 197.422 230.917 197.548 230.917 197.695C230.917 197.842 230.806 197.967 230.659 197.982L226.364 198.46C225.952 198.504 225.621 198.842 225.584 199.254L225.091 204.734C225.084 204.881 224.959 204.999 224.804 204.999ZM221.627 197.695L223.311 197.879C223.995 197.952 224.54 198.511 224.606 199.195L224.812 201.461L225.018 199.195C225.076 198.504 225.621 197.952 226.312 197.879L227.997 197.695L226.312 197.511C225.628 197.437 225.084 196.878 225.018 196.194L224.812 193.929L224.606 196.194C224.547 196.886 224.003 197.437 223.311 197.511L221.627 197.695Z" fill="#8B8C8C"/>
</g>
<path d="M209.342 111.291C209.232 111.291 209.143 111.21 209.136 111.1L208.621 105.355C208.577 104.877 208.202 104.487 207.716 104.436L203.215 103.935C203.112 103.921 203.031 103.832 203.031 103.729C203.031 103.626 203.112 103.538 203.215 103.523L207.716 103.023C208.195 102.972 208.577 102.582 208.621 102.104L209.136 96.3592C209.143 96.2489 209.239 96.168 209.342 96.168C209.452 96.168 209.541 96.2489 209.548 96.3592L210.063 102.104C210.107 102.582 210.489 102.972 210.968 103.023L215.469 103.523C215.572 103.538 215.653 103.626 215.653 103.729C215.653 103.832 215.572 103.921 215.469 103.935L210.968 104.436C210.489 104.487 210.107 104.877 210.063 105.355L209.548 111.1C209.541 111.21 209.445 111.291 209.342 111.291ZM205.127 103.737L207.761 104.031C208.437 104.105 208.967 104.649 209.033 105.326L209.342 108.775L209.651 105.326C209.71 104.649 210.247 104.105 210.923 104.031L213.557 103.737L210.923 103.443C210.247 103.369 209.717 102.825 209.651 102.148L209.342 98.6983L209.033 102.148C208.974 102.825 208.437 103.369 207.761 103.443L205.127 103.737Z" fill="#8B8C8C"/>
<g opacity="0.5">
<path opacity="0.5" d="M201.56 119.943C201.472 119.943 201.398 119.877 201.391 119.789L201.104 116.597C201.082 116.354 200.891 116.163 200.648 116.133L198.147 115.854C198.059 115.846 198 115.773 198 115.685C198 115.596 198.066 115.523 198.147 115.515L200.648 115.236C200.891 115.207 201.082 115.015 201.104 114.773L201.391 111.58C201.398 111.492 201.472 111.426 201.56 111.426C201.648 111.426 201.722 111.492 201.729 111.58L202.016 114.773C202.038 115.015 202.229 115.207 202.472 115.236L204.973 115.515C205.061 115.523 205.12 115.596 205.12 115.685C205.12 115.773 205.054 115.846 204.973 115.854L202.472 116.133C202.229 116.163 202.038 116.354 202.016 116.597L201.729 119.789C201.722 119.877 201.648 119.943 201.56 119.943ZM199.706 115.685L200.685 115.795C201.082 115.839 201.406 116.163 201.442 116.567L201.56 117.891L201.678 116.567C201.715 116.163 202.031 115.839 202.435 115.795L203.414 115.685L202.435 115.574C202.038 115.53 201.715 115.207 201.678 114.802L201.56 113.478L201.442 114.802C201.406 115.207 201.089 115.53 200.685 115.574L199.706 115.685Z" fill="#8B8C8C"/>
</g>
<path d="M370.973 192.332C370.855 192.332 370.759 192.244 370.745 192.126L370.178 185.823C370.134 185.293 369.715 184.866 369.185 184.808L364.242 184.263C364.125 184.249 364.036 184.153 364.036 184.035C364.036 183.918 364.125 183.822 364.242 183.807L369.185 183.263C369.715 183.204 370.127 182.777 370.178 182.255L370.745 175.944C370.752 175.827 370.855 175.738 370.973 175.738C371.09 175.738 371.186 175.827 371.201 175.944L371.767 182.255C371.811 182.785 372.23 183.211 372.76 183.263L377.703 183.807C377.821 183.822 377.909 183.918 377.909 184.035C377.909 184.153 377.821 184.249 377.703 184.263L372.76 184.808C372.23 184.866 371.818 185.293 371.767 185.823L371.201 192.126C371.186 192.244 371.09 192.332 370.973 192.332ZM366.339 184.035L369.237 184.352C369.98 184.432 370.561 185.036 370.634 185.779L370.973 189.567L371.311 185.779C371.377 185.036 371.966 184.44 372.708 184.352L375.607 184.035L372.708 183.712C371.966 183.631 371.385 183.035 371.311 182.292L370.973 178.504L370.634 182.292C370.568 183.035 369.98 183.631 369.237 183.712L366.339 184.035Z" fill="#8B8C8C"/>
<g opacity="0.5">
<path opacity="0.5" d="M388.14 181.537C388.045 181.537 387.964 181.463 387.956 181.368L387.64 177.859C387.618 177.594 387.405 177.381 387.14 177.352L384.389 177.05C384.293 177.043 384.22 176.962 384.22 176.866C384.22 176.77 384.293 176.69 384.389 176.682L387.14 176.381C387.405 176.351 387.618 176.138 387.64 175.873L387.956 172.364C387.964 172.269 388.045 172.195 388.14 172.195C388.236 172.195 388.317 172.269 388.324 172.364L388.64 175.873C388.662 176.138 388.876 176.351 389.141 176.381L391.892 176.682C391.987 176.69 392.053 176.77 392.053 176.866C392.053 176.962 391.98 177.043 391.892 177.05L389.141 177.352C388.876 177.381 388.662 177.594 388.64 177.859L388.324 181.368C388.317 181.463 388.236 181.537 388.14 181.537ZM386.103 176.859L387.177 176.976C387.618 177.028 387.964 177.381 388.008 177.822L388.14 179.271L388.273 177.822C388.309 177.381 388.662 177.028 389.104 176.976L390.178 176.859L389.104 176.741C388.662 176.69 388.317 176.336 388.273 175.895L388.14 174.446L388.008 175.895C387.971 176.336 387.618 176.69 387.177 176.741L386.103 176.859Z" fill="#8B8C8C"/>
</g>
<g opacity="0.5">
<path opacity="0.5" d="M377.96 167.107C377.806 167.107 377.673 166.99 377.666 166.835L377.159 161.201C377.122 160.774 376.783 160.428 376.357 160.384L371.944 159.899C371.789 159.884 371.679 159.752 371.679 159.605C371.679 159.45 371.796 159.325 371.944 159.31L376.357 158.825C376.783 158.781 377.122 158.435 377.159 158.008L377.666 152.382C377.681 152.227 377.806 152.109 377.96 152.109C378.115 152.109 378.247 152.227 378.255 152.382L378.762 158.016C378.799 158.442 379.137 158.788 379.564 158.832L383.977 159.318C384.132 159.332 384.242 159.465 384.242 159.612C384.242 159.766 384.124 159.891 383.977 159.906L379.564 160.392C379.137 160.436 378.799 160.781 378.762 161.208L378.255 166.835C378.247 166.99 378.115 167.107 377.96 167.107ZM374.694 159.605L376.423 159.796C377.129 159.877 377.688 160.443 377.754 161.149L377.968 163.481L378.174 161.149C378.24 160.443 378.799 159.869 379.505 159.789L381.233 159.597L379.505 159.406C378.799 159.325 378.24 158.759 378.174 158.053L377.968 155.721L377.754 158.053C377.688 158.759 377.129 159.332 376.423 159.413L374.694 159.605Z" fill="#8B8C8C"/>
</g>
<path d="M393.715 117.983C393.575 117.983 393.465 117.88 393.45 117.74L392.781 110.348C392.722 109.73 392.236 109.23 391.618 109.164L385.822 108.524C385.69 108.509 385.587 108.392 385.587 108.259C385.587 108.119 385.69 108.009 385.822 107.994L391.618 107.354C392.236 107.288 392.722 106.788 392.781 106.17L393.45 98.7779C393.465 98.6381 393.575 98.5352 393.715 98.5352C393.854 98.5352 393.965 98.6381 393.98 98.7779L394.649 106.17C394.708 106.788 395.193 107.288 395.811 107.354L401.607 107.994C401.74 108.009 401.843 108.127 401.843 108.259C401.843 108.399 401.74 108.509 401.607 108.524L395.811 109.164C395.193 109.23 394.7 109.73 394.649 110.348L393.98 117.74C393.965 117.873 393.854 117.983 393.715 117.983ZM388.286 108.252L391.677 108.627C392.545 108.723 393.229 109.421 393.31 110.297L393.707 114.739L394.105 110.297C394.185 109.429 394.87 108.723 395.737 108.627L399.128 108.252L395.737 107.877C394.87 107.781 394.178 107.082 394.105 106.207L393.707 101.764L393.31 106.207C393.229 107.075 392.545 107.781 391.677 107.877L388.286 108.252Z" fill="#8B8C8C"/>
<g opacity="0.5">
<path opacity="0.5" d="M383.189 99.4172C383.079 99.4172 382.983 99.3289 382.969 99.2186L382.601 95.1069C382.572 94.7979 382.329 94.5478 382.02 94.5111L378.798 94.158C378.688 94.1433 378.607 94.055 378.607 93.9373C378.607 93.827 378.688 93.7314 378.798 93.724L382.02 93.371C382.329 93.3342 382.579 93.0841 382.601 92.7752L382.969 88.6634C382.976 88.5531 383.072 88.4648 383.189 88.4648C383.3 88.4648 383.395 88.5531 383.41 88.6634L383.778 92.7752C383.807 93.0841 384.05 93.3342 384.366 93.371L387.588 93.724C387.698 93.7387 387.779 93.827 387.779 93.9373C387.779 94.0477 387.698 94.1433 387.588 94.158L384.366 94.5111C384.057 94.5478 383.807 94.7979 383.778 95.1069L383.41 99.2186C383.395 99.3289 383.3 99.4172 383.189 99.4172ZM380.799 93.9373L382.064 94.0771C382.579 94.1359 382.991 94.5478 383.035 95.0701L383.189 96.7692L383.344 95.0701C383.388 94.5552 383.8 94.1359 384.315 94.0771L385.58 93.9373L384.315 93.7976C383.8 93.7387 383.388 93.3268 383.344 92.8046L383.189 91.1055L383.035 92.8046C382.991 93.3195 382.579 93.7387 382.064 93.7976L380.799 93.9373Z" fill="#8B8C8C"/>
</g>
<path d="M232.549 57.0065C232.417 57.0065 232.307 56.9035 232.292 56.7711L231.652 49.6437C231.601 49.0479 231.13 48.5698 230.534 48.5036L224.951 47.8857C224.819 47.871 224.723 47.7607 224.723 47.6283C224.723 47.4959 224.819 47.3855 224.951 47.3708L230.534 46.7529C231.13 46.6868 231.601 46.2086 231.652 45.6129L232.292 38.4854C232.307 38.353 232.417 38.25 232.549 38.25C232.682 38.25 232.792 38.353 232.807 38.4854L233.447 45.6129C233.498 46.2086 233.969 46.6868 234.565 46.7529L240.148 47.3708C240.28 47.3855 240.376 47.4959 240.376 47.6283C240.376 47.7607 240.28 47.871 240.148 47.8857L234.565 48.5036C233.969 48.5698 233.498 49.0479 233.447 49.6437L232.807 56.7711C232.799 56.9109 232.682 57.0065 232.549 57.0065ZM227.32 47.6356L230.593 47.996C231.431 48.0917 232.093 48.761 232.167 49.6069L232.549 53.8878L232.932 49.6069C233.005 48.7684 233.667 48.0917 234.506 47.996L237.779 47.6356L234.506 47.2752C233.667 47.1796 233.005 46.5102 232.932 45.6643L232.549 41.3834L232.167 45.6643C232.093 46.5029 231.431 47.1796 230.593 47.2752L227.32 47.6356Z" fill="#8B8C8C"/>
<g opacity="0.5">
<path opacity="0.5" d="M224.723 76.0785C224.613 76.0785 224.525 75.9976 224.517 75.8873L224.164 71.9742C224.135 71.6799 223.907 71.4372 223.605 71.4078L220.538 71.0694C220.435 71.0547 220.354 70.9665 220.354 70.8635C220.354 70.7605 220.435 70.6722 220.538 70.6575L223.605 70.3192C223.9 70.2898 224.135 70.047 224.164 69.7528L224.517 65.8397C224.525 65.7293 224.62 65.6484 224.723 65.6484C224.834 65.6484 224.922 65.7293 224.929 65.8397L225.282 69.7528C225.312 70.047 225.54 70.2898 225.841 70.3192L228.909 70.6575C229.012 70.6722 229.093 70.7605 229.093 70.8635C229.093 70.9665 229.012 71.0547 228.909 71.0694L225.841 71.4078C225.547 71.4372 225.312 71.6799 225.282 71.9742L224.929 75.8873C224.915 75.9976 224.826 76.0785 224.723 76.0785ZM222.451 70.8561L223.65 70.9885C224.142 71.04 224.532 71.4372 224.576 71.93L224.723 73.5556L224.871 71.93C224.915 71.4372 225.304 71.04 225.797 70.9885L226.996 70.8561L225.797 70.7237C225.304 70.6722 224.915 70.275 224.871 69.7822L224.723 68.1567L224.576 69.7822C224.532 70.275 224.142 70.6722 223.65 70.7237L222.451 70.8561Z" fill="#8B8C8C"/>
</g>
<g opacity="0.5">
<path opacity="0.5" d="M250.232 60.1704C250.093 60.1704 249.975 60.0601 249.96 59.9203L249.497 54.7935C249.46 54.4037 249.158 54.0948 248.769 54.0506L244.752 53.6093C244.613 53.5946 244.51 53.4769 244.51 53.3372C244.51 53.1974 244.613 53.0797 244.752 53.065L248.769 52.6237C249.158 52.5795 249.46 52.2706 249.497 51.8808L249.96 46.754C249.975 46.6142 250.093 46.5039 250.232 46.5039C250.372 46.5039 250.49 46.6142 250.504 46.754L250.968 51.8808C251.005 52.2706 251.306 52.5795 251.696 52.6237L255.712 53.065C255.852 53.0797 255.955 53.1974 255.955 53.3372C255.955 53.4769 255.852 53.5946 255.712 53.6093L251.696 54.0506C251.306 54.0948 251.005 54.4037 250.968 54.7935L250.504 59.9203C250.49 60.0601 250.372 60.1704 250.232 60.1704ZM247.261 53.3372L248.835 53.5137C249.475 53.5872 249.99 54.1021 250.048 54.7494L250.24 56.8752L250.431 54.7494C250.49 54.1021 250.997 53.5872 251.637 53.5137L253.211 53.3372L251.637 53.1606C250.997 53.0871 250.482 52.5722 250.431 51.9249L250.24 49.7992L250.048 51.9249C249.99 52.5722 249.482 53.0871 248.835 53.1606L247.261 53.3372Z" fill="#8B8C8C"/>
</g>
<g opacity="0.5">
<path opacity="0.5" d="M275.152 34.3121C275.056 34.3121 274.975 34.2385 274.968 34.1429L274.652 30.649C274.63 30.3842 274.416 30.1709 274.151 30.1415L271.415 29.8399C271.32 29.8326 271.253 29.7517 271.253 29.656C271.253 29.5604 271.327 29.4795 271.415 29.4721L274.151 29.1706C274.416 29.1411 274.622 28.9278 274.652 28.663L274.968 25.1692C274.975 25.0736 275.056 25 275.152 25C275.247 25 275.328 25.0736 275.336 25.1692L275.652 28.663C275.674 28.9278 275.887 29.1411 276.152 29.1706L278.888 29.4721C278.984 29.4795 279.05 29.5604 279.05 29.656C279.05 29.7517 278.977 29.8326 278.888 29.8399L276.152 30.1415C275.887 30.1709 275.681 30.3842 275.652 30.649L275.336 34.1429C275.328 34.2385 275.247 34.3121 275.152 34.3121ZM273.129 29.656L274.203 29.7737C274.644 29.8252 274.99 30.1783 275.027 30.6122L275.159 32.0613L275.292 30.6122C275.328 30.1709 275.681 29.8178 276.115 29.7664L277.189 29.6487L276.115 29.531C275.674 29.4795 275.328 29.1264 275.292 28.6925L275.159 27.2434L275.027 28.6925C274.99 29.1338 274.637 29.4869 274.203 29.5383L273.129 29.656Z" fill="#8B8C8C"/>
</g>
<g opacity="0.5">
<path opacity="0.5" d="M288.362 43.0028C288.215 43.0028 288.097 42.8925 288.083 42.7527L287.612 37.5082C287.575 37.111 287.259 36.7874 286.869 36.7506L282.757 36.2946C282.617 36.2799 282.507 36.1622 282.507 36.0151C282.507 35.868 282.61 35.7576 282.757 35.7356L286.869 35.2795C287.266 35.2354 287.582 34.9191 287.612 34.5219L288.083 29.2774C288.097 29.1303 288.215 29.0273 288.362 29.0273C288.509 29.0273 288.627 29.1377 288.642 29.2774L289.112 34.5219C289.149 34.9191 289.465 35.2427 289.855 35.2795L293.967 35.7356C294.107 35.7503 294.217 35.868 294.217 36.0151C294.217 36.1622 294.114 36.2725 293.967 36.2946L289.855 36.7506C289.458 36.7947 289.142 37.111 289.112 37.5082L288.642 42.7527C288.627 42.8998 288.502 43.0028 288.362 43.0028ZM285.317 36.0151L286.928 36.1916C287.582 36.2652 288.105 36.7947 288.163 37.4567L288.362 39.6266L288.561 37.4567C288.62 36.7947 289.142 36.2652 289.796 36.1916L291.407 36.0151L289.796 35.8385C289.142 35.765 288.62 35.2354 288.561 34.5734L288.362 32.4035L288.163 34.5734C288.105 35.2354 287.582 35.765 286.928 35.8385L285.317 36.0151Z" fill="#8B8C8C"/>
</g>
<path d="M367.081 56.0429C366.978 56.0429 366.897 55.962 366.882 55.8664L366.389 50.4233C366.345 49.9672 365.992 49.5995 365.536 49.548L361.27 49.0772C361.174 49.0699 361.093 48.9816 361.093 48.8786C361.093 48.7757 361.167 48.6948 361.27 48.68L365.536 48.2093C365.992 48.1578 366.352 47.79 366.389 47.334L366.882 41.8836C366.889 41.7806 366.978 41.707 367.081 41.707C367.184 41.707 367.265 41.7879 367.279 41.8836L367.772 47.334C367.816 47.79 368.177 48.1578 368.625 48.2093L372.891 48.68C372.994 48.6874 373.068 48.7757 373.068 48.8786C373.068 48.9816 372.994 49.0625 372.891 49.0772L368.625 49.548C368.169 49.5995 367.809 49.9672 367.772 50.4233L367.279 55.8664C367.265 55.962 367.184 56.0429 367.081 56.0429ZM363.079 48.8713L365.58 49.1508C366.22 49.2243 366.728 49.7392 366.786 50.3792L367.081 53.6524L367.375 50.3792C367.434 49.7392 367.941 49.2243 368.581 49.1508L371.082 48.8713L368.581 48.5918C367.941 48.5182 367.434 48.0033 367.375 47.3634L367.081 44.0902L366.786 47.3634C366.728 48.0033 366.22 48.5182 365.58 48.5918L363.079 48.8713Z" fill="#8B8C8C"/>
<g opacity="0.5">
<path opacity="0.5" d="M380.526 47.7555C380.394 47.7555 380.276 47.6525 380.262 47.5201L379.607 40.2602C379.555 39.6497 379.07 39.1643 378.467 39.0981L372.774 38.4728C372.641 38.4581 372.538 38.3478 372.538 38.2154C372.538 38.083 372.641 37.9727 372.774 37.958L378.467 37.3254C379.07 37.2592 379.555 36.7664 379.607 36.1632L380.262 28.9033C380.276 28.7709 380.387 28.668 380.526 28.668C380.659 28.668 380.776 28.7709 380.784 28.9033L381.438 36.1632C381.49 36.7737 381.975 37.2592 382.579 37.3254L388.272 37.958C388.404 37.9727 388.507 38.083 388.507 38.2154C388.507 38.3478 388.404 38.4581 388.272 38.4728L382.579 39.0981C381.975 39.1643 381.49 39.6571 381.438 40.2602L380.791 47.5201C380.776 47.6525 380.666 47.7555 380.526 47.7555ZM375.194 38.2007L378.526 38.5685C379.379 38.6641 380.056 39.3555 380.129 40.2087L380.526 44.5705L380.916 40.2087C380.997 39.3555 381.666 38.6641 382.52 38.5685L385.852 38.2007L382.52 37.8329C381.666 37.7373 380.99 37.0532 380.916 36.1926L380.526 31.8308L380.129 36.1926C380.056 37.0459 379.379 37.7373 378.526 37.8329L375.194 38.2007Z" fill="#8B8C8C"/>
</g>
<path d="M354.834 63.3238L382.253 138.099C383.786 142.311 381.62 146.957 377.497 148.457L258.869 192.04C254.657 193.574 250.011 191.407 248.511 187.284L221.059 112.42C219.657 108.566 221.619 104.197 225.473 102.795L345.209 58.9099C349.063 57.5071 353.342 59.5023 354.834 63.3238Z" fill="#151617"/>
<path opacity="0.2" d="M354.834 63.3238L382.253 138.099C383.786 142.311 381.62 146.957 377.497 148.457L258.869 192.04C254.657 193.574 250.011 191.407 248.511 187.284L221.059 112.42C219.657 108.566 221.619 104.197 225.473 102.795L345.209 58.9099C349.063 57.5071 353.342 59.5023 354.834 63.3238Z" fill="#151617"/>
<path d="M262.19 123.638L244.533 130.065C242.472 130.815 240.149 129.732 239.399 127.67L235.81 117.811C235.06 115.75 236.143 113.427 238.205 112.677L255.739 106.193C257.801 105.443 260.124 106.526 260.874 108.587L264.462 118.446C265.245 120.597 264.252 122.888 262.19 123.638Z" fill="#4F4F4F"/>
<path d="M317.062 143.054L253.575 166.348L254.725 169.482L318.211 146.188L317.062 143.054Z" fill="#8B8C8C"/>
<path d="M301.028 156.733L256.077 173.227L257.227 176.361L302.178 159.867L301.028 156.733Z" fill="#8B8C8C"/>
<path d="M321.06 82.3694L289.362 94L290.511 97.134L322.21 85.5034L321.06 82.3694Z" fill="#8B8C8C"/>
<path d="M349.029 87.2613C348.785 87.1472 348.54 87.0332 348.174 86.8622C348.051 86.8052 347.807 86.6912 347.685 86.6342C348.621 84.4663 348.832 82.2579 348.017 80.0171C347.201 77.7764 345.71 76.1878 343.509 75.1617C343.566 75.0394 343.713 74.8846 343.737 74.6727C343.851 74.4282 343.965 74.1837 344.136 73.8169C344.413 74.0206 344.78 74.1916 345.024 74.3056C345.668 74.6803 346.255 75.1772 346.72 75.6171C347.339 76.2036 347.902 76.9124 348.375 77.6538C348.595 77.9797 348.758 78.4279 348.978 78.7538C349.011 78.8434 349.337 79.7397 349.337 79.7397C349.435 80.0086 349.533 80.2775 349.541 80.579C349.712 81.3286 349.794 82.1109 349.786 82.9258C349.802 83.5288 349.697 84.0748 349.681 84.5882C349.575 85.1342 349.412 85.8025 349.184 86.2915C349.257 86.7723 349.143 87.0168 349.029 87.2613Z" fill="#151617"/>
<path d="M342.435 77.7853C342.573 77.3289 342.834 76.9296 342.972 76.4732C344.44 77.1573 345.524 78.1837 346.257 79.6422C347.342 81.785 347.4 83.8956 346.463 86.0635C345.974 85.8354 345.607 85.6644 345.118 85.4364C345.802 83.9694 345.883 82.5188 345.329 80.9952C344.807 79.5611 343.812 78.502 342.435 77.7853Z" fill="#151617"/>
<path d="M343.895 84.867C343.528 84.696 343.039 84.468 342.672 84.297C343.014 83.5635 343.055 82.8382 342.761 82.0315C342.468 81.2249 341.97 80.6954 341.237 80.3533C341.465 79.8643 341.636 79.4976 341.807 79.1308C343.942 79.9777 345.011 82.6339 343.895 84.867Z" fill="#151617"/>
</svg>
