<svg width="600" height="230" viewBox="0 0 600 230" fill="none" xmlns="http://www.w3.org/2000/svg">
<path d="M0 10C0 4.47715 4.47715 0 10 0H590C595.523 0 600 4.47715 600 10V230H0V10Z" fill="#F0F3EE"/>
<path d="M215.962 188.126C215.815 188.126 215.69 188.008 215.676 187.861L214.947 179.814C214.888 179.145 214.359 178.601 213.682 178.527L207.371 177.828C207.224 177.814 207.114 177.689 207.114 177.542C207.114 177.394 207.224 177.269 207.371 177.255L213.682 176.556C214.352 176.482 214.888 175.938 214.947 175.269L215.676 167.222C215.69 167.075 215.815 166.957 215.962 166.957C216.117 166.957 216.242 167.075 216.249 167.222L216.977 175.269C217.036 175.945 217.573 176.482 218.243 176.556L224.546 177.255C224.693 177.269 224.804 177.394 224.804 177.542C224.804 177.689 224.693 177.814 224.546 177.828L218.243 178.527C217.573 178.601 217.036 179.145 216.977 179.814L216.249 187.861C216.235 188.008 216.109 188.126 215.962 188.126ZM210.049 177.534L213.741 177.939C214.69 178.042 215.433 178.807 215.521 179.756L215.955 184.588L216.389 179.756C216.477 178.807 217.22 178.042 218.169 177.939L221.861 177.534L218.169 177.122C217.22 177.019 216.477 176.254 216.389 175.305L215.955 170.473L215.521 175.305C215.433 176.254 214.69 177.019 213.741 177.122L210.049 177.534Z" fill="#7EC65C"/>
<g opacity="0.5">
<path opacity="0.5" d="M224.804 205.002C224.657 205.002 224.525 204.885 224.517 204.738L224.025 199.258C223.988 198.846 223.657 198.508 223.245 198.463L218.949 197.985C218.802 197.971 218.692 197.846 218.692 197.698C218.692 197.551 218.802 197.426 218.949 197.412L223.245 196.934C223.657 196.889 223.988 196.551 224.025 196.139L224.517 190.659C224.532 190.512 224.657 190.395 224.804 190.395C224.951 190.395 225.084 190.512 225.091 190.659L225.584 196.139C225.621 196.551 225.952 196.889 226.364 196.934L230.659 197.412C230.806 197.426 230.917 197.551 230.917 197.698C230.917 197.846 230.806 197.971 230.659 197.985L226.364 198.463C225.952 198.508 225.621 198.846 225.584 199.258L225.091 204.738C225.084 204.885 224.959 205.002 224.804 205.002ZM221.627 197.698L223.311 197.882C223.995 197.956 224.539 198.515 224.606 199.199L224.812 201.464L225.018 199.199C225.076 198.508 225.621 197.956 226.312 197.882L227.997 197.698L226.312 197.515C225.628 197.441 225.084 196.882 225.018 196.198L224.812 193.933L224.606 196.198C224.547 196.889 224.003 197.441 223.311 197.515L221.627 197.698Z" fill="#7EC65C"/>
</g>
<path d="M209.342 111.295C209.232 111.295 209.143 111.214 209.136 111.103L208.621 105.359C208.577 104.881 208.202 104.491 207.716 104.439L203.215 103.939C203.112 103.925 203.031 103.836 203.031 103.733C203.031 103.63 203.112 103.542 203.215 103.527L207.716 103.027C208.195 102.976 208.577 102.586 208.621 102.108L209.136 96.3631C209.143 96.2528 209.239 96.1719 209.342 96.1719C209.452 96.1719 209.541 96.2528 209.548 96.3631L210.063 102.108C210.107 102.586 210.489 102.976 210.968 103.027L215.469 103.527C215.572 103.542 215.653 103.63 215.653 103.733C215.653 103.836 215.572 103.925 215.469 103.939L210.968 104.439C210.489 104.491 210.107 104.881 210.063 105.359L209.548 111.103C209.541 111.214 209.445 111.295 209.342 111.295ZM205.127 103.741L207.761 104.035C208.437 104.108 208.967 104.653 209.033 105.329L209.342 108.779L209.651 105.329C209.71 104.653 210.247 104.108 210.923 104.035L213.557 103.741L210.923 103.446C210.247 103.373 209.717 102.829 209.651 102.152L209.342 98.7022L209.033 102.152C208.974 102.829 208.437 103.373 207.761 103.446L205.127 103.741Z" fill="#7EC65C"/>
<g opacity="0.5">
<path opacity="0.5" d="M201.56 119.955C201.472 119.955 201.398 119.889 201.391 119.801L201.104 116.608C201.082 116.366 200.891 116.174 200.648 116.145L198.147 115.865C198.059 115.858 198 115.785 198 115.696C198 115.608 198.066 115.534 198.147 115.527L200.648 115.248C200.891 115.218 201.082 115.027 201.104 114.784L201.391 111.592C201.398 111.504 201.472 111.438 201.56 111.438C201.648 111.438 201.722 111.504 201.729 111.592L202.016 114.784C202.038 115.027 202.229 115.218 202.472 115.248L204.973 115.527C205.061 115.534 205.12 115.608 205.12 115.696C205.12 115.785 205.054 115.858 204.973 115.865L202.472 116.145C202.229 116.174 202.038 116.366 202.016 116.608L201.729 119.801C201.722 119.889 201.648 119.955 201.56 119.955ZM199.706 115.696L200.685 115.807C201.082 115.851 201.406 116.174 201.442 116.579L201.56 117.903L201.678 116.579C201.715 116.174 202.031 115.851 202.435 115.807L203.414 115.696L202.435 115.586C202.038 115.542 201.715 115.218 201.678 114.814L201.56 113.49L201.442 114.814C201.406 115.218 201.089 115.542 200.685 115.586L199.706 115.696Z" fill="#7EC65C"/>
</g>
<path d="M370.971 192.332C370.854 192.332 370.758 192.244 370.743 192.126L370.177 185.823C370.133 185.293 369.714 184.866 369.184 184.808L364.241 184.263C364.123 184.249 364.035 184.153 364.035 184.035C364.035 183.918 364.123 183.822 364.241 183.807L369.184 183.263C369.714 183.204 370.125 182.777 370.177 182.255L370.743 175.944C370.751 175.827 370.854 175.738 370.971 175.738C371.089 175.738 371.185 175.827 371.199 175.944L371.766 182.255C371.81 182.785 372.229 183.211 372.759 183.263L377.702 183.807C377.819 183.822 377.908 183.918 377.908 184.035C377.908 184.153 377.819 184.249 377.702 184.263L372.759 184.808C372.229 184.866 371.817 185.293 371.766 185.823L371.199 192.126C371.185 192.244 371.089 192.332 370.971 192.332ZM366.337 184.035L369.235 184.352C369.978 184.432 370.559 185.036 370.633 185.778L370.971 189.567L371.31 185.778C371.376 185.036 371.964 184.44 372.707 184.352L375.605 184.035L372.707 183.712C371.964 183.631 371.383 183.035 371.31 182.292L370.971 178.504L370.633 182.292C370.567 183.035 369.978 183.631 369.235 183.712L366.337 184.035Z" fill="#7EC65C"/>
<g opacity="0.5">
<path opacity="0.5" d="M388.139 181.529C388.043 181.529 387.962 181.455 387.955 181.36L387.639 177.851C387.617 177.586 387.403 177.373 387.138 177.344L384.387 177.042C384.292 177.035 384.218 176.954 384.218 176.858C384.218 176.763 384.292 176.682 384.387 176.674L387.138 176.373C387.403 176.343 387.617 176.13 387.639 175.865L387.955 172.357C387.962 172.261 388.043 172.188 388.139 172.188C388.234 172.188 388.315 172.261 388.323 172.357L388.639 175.865C388.661 176.13 388.874 176.343 389.139 176.373L391.89 176.674C391.986 176.682 392.052 176.763 392.052 176.858C392.052 176.954 391.978 177.035 391.89 177.042L389.139 177.344C388.874 177.373 388.661 177.586 388.639 177.851L388.323 181.36C388.315 181.455 388.234 181.529 388.139 181.529ZM386.101 176.851L387.175 176.969C387.616 177.02 387.962 177.373 388.006 177.814L388.139 179.263L388.271 177.814C388.308 177.373 388.661 177.02 389.102 176.969L390.176 176.851L389.102 176.733C388.661 176.682 388.315 176.329 388.271 175.887L388.139 174.438L388.006 175.887C387.97 176.329 387.616 176.682 387.175 176.733L386.101 176.851Z" fill="#7EC65C"/>
</g>
<g opacity="0.5">
<path opacity="0.5" d="M377.959 167.103C377.805 167.103 377.672 166.986 377.665 166.831L377.157 161.197C377.121 160.77 376.782 160.424 376.356 160.38L371.942 159.895C371.788 159.88 371.677 159.748 371.677 159.601C371.677 159.446 371.795 159.321 371.942 159.306L376.356 158.821C376.782 158.777 377.121 158.431 377.157 158.005L377.665 152.378C377.68 152.223 377.805 152.105 377.959 152.105C378.114 152.105 378.246 152.223 378.253 152.378L378.761 158.012C378.798 158.439 379.136 158.784 379.563 158.828L383.976 159.314C384.13 159.329 384.241 159.461 384.241 159.608C384.241 159.763 384.123 159.888 383.976 159.902L379.563 160.388C379.136 160.432 378.798 160.778 378.761 161.204L378.253 166.831C378.246 166.986 378.114 167.103 377.959 167.103ZM374.693 159.601L376.422 159.792C377.128 159.873 377.687 160.439 377.753 161.145L377.966 163.477L378.172 161.145C378.239 160.439 378.798 159.865 379.504 159.785L381.232 159.593L379.504 159.402C378.798 159.321 378.239 158.755 378.172 158.049L377.966 155.717L377.753 158.049C377.687 158.755 377.128 159.329 376.422 159.409L374.693 159.601Z" fill="#7EC65C"/>
</g>
<path d="M393.714 117.987C393.574 117.987 393.464 117.884 393.449 117.744L392.78 110.352C392.721 109.734 392.235 109.234 391.617 109.168L385.821 108.528C385.689 108.513 385.586 108.395 385.586 108.263C385.586 108.123 385.689 108.013 385.821 107.998L391.617 107.358C392.235 107.292 392.721 106.792 392.78 106.174L393.449 98.7818C393.464 98.642 393.574 98.5391 393.714 98.5391C393.853 98.5391 393.964 98.642 393.979 98.7818L394.648 106.174C394.707 106.792 395.192 107.292 395.81 107.358L401.606 107.998C401.739 108.013 401.842 108.131 401.842 108.263C401.842 108.403 401.739 108.513 401.606 108.528L395.81 109.168C395.192 109.234 394.699 109.734 394.648 110.352L393.979 117.744C393.964 117.877 393.853 117.987 393.714 117.987ZM388.285 108.256L391.676 108.631C392.544 108.726 393.228 109.425 393.309 110.3L393.706 114.743L394.104 110.3C394.184 109.432 394.869 108.726 395.736 108.631L399.127 108.256L395.736 107.88C394.869 107.785 394.177 107.086 394.104 106.211L393.706 101.768L393.309 106.211C393.228 107.079 392.544 107.785 391.676 107.88L388.285 108.256Z" fill="#7EC65C"/>
<g opacity="0.5">
<path opacity="0.5" d="M383.188 99.4171C383.078 99.4171 382.982 99.3289 382.968 99.2185L382.6 95.1068C382.571 94.7979 382.328 94.5478 382.019 94.511L378.797 94.158C378.687 94.1433 378.606 94.055 378.606 93.9373C378.606 93.827 378.687 93.7314 378.797 93.724L382.019 93.3709C382.328 93.3342 382.578 93.0841 382.6 92.7751L382.968 88.6634C382.975 88.5531 383.071 88.4648 383.188 88.4648C383.299 88.4648 383.394 88.5531 383.409 88.6634L383.777 92.7751C383.806 93.0841 384.049 93.3342 384.365 93.3709L387.587 93.724C387.697 93.7387 387.778 93.827 387.778 93.9373C387.778 94.0476 387.697 94.1433 387.587 94.158L384.365 94.511C384.056 94.5478 383.806 94.7979 383.777 95.1068L383.409 99.2185C383.394 99.3289 383.299 99.4171 383.188 99.4171ZM380.798 93.9373L382.063 94.0771C382.578 94.1359 382.99 94.5478 383.034 95.07L383.188 96.7692L383.343 95.07C383.387 94.5552 383.799 94.1359 384.314 94.0771L385.579 93.9373L384.314 93.7976C383.799 93.7387 383.387 93.3268 383.343 92.8046L383.188 91.1055L383.034 92.8046C382.99 93.3195 382.578 93.7387 382.063 93.7976L380.798 93.9373Z" fill="#7EC65C"/>
</g>
<path d="M232.549 57.0025C232.417 57.0025 232.306 56.8995 232.292 56.7671L231.652 49.6397C231.6 49.0439 231.13 48.5658 230.534 48.4996L224.951 47.8817C224.819 47.867 224.723 47.7567 224.723 47.6243C224.723 47.4919 224.819 47.3816 224.951 47.3669L230.534 46.749C231.13 46.6828 231.6 46.2047 231.652 45.6089L232.292 38.4815C232.306 38.3491 232.417 38.2461 232.549 38.2461C232.682 38.2461 232.792 38.3491 232.807 38.4815L233.446 45.6089C233.498 46.2047 233.969 46.6828 234.565 46.749L240.147 47.3669C240.28 47.3816 240.375 47.4919 240.375 47.6243C240.375 47.7567 240.28 47.867 240.147 47.8817L234.565 48.4996C233.969 48.5658 233.498 49.0439 233.446 49.6397L232.807 56.7671C232.799 56.9069 232.682 57.0025 232.549 57.0025ZM227.319 47.6317L230.593 47.9921C231.431 48.0877 232.093 48.757 232.167 49.6029L232.549 53.8838L232.932 49.6029C233.005 48.7644 233.667 48.0877 234.506 47.9921L237.779 47.6317L234.506 47.2712C233.667 47.1756 233.005 46.5063 232.932 45.6604L232.549 41.3795L232.167 45.6604C232.093 46.4989 231.431 47.1756 230.593 47.2712L227.319 47.6317Z" fill="#7EC65C"/>
<g opacity="0.5">
<path opacity="0.5" d="M224.723 76.0746C224.613 76.0746 224.524 75.9937 224.517 75.8833L224.164 71.9702C224.134 71.676 223.906 71.4333 223.605 71.4039L220.538 71.0655C220.435 71.0508 220.354 70.9625 220.354 70.8596C220.354 70.7566 220.435 70.6683 220.538 70.6536L223.605 70.3152C223.899 70.2858 224.134 70.0431 224.164 69.7489L224.517 65.8358C224.524 65.7254 224.62 65.6445 224.723 65.6445C224.833 65.6445 224.921 65.7254 224.929 65.8358L225.282 69.7489C225.311 70.0431 225.539 70.2858 225.841 70.3152L228.908 70.6536C229.011 70.6683 229.092 70.7566 229.092 70.8596C229.092 70.9625 229.011 71.0508 228.908 71.0655L225.841 71.4039C225.547 71.4333 225.311 71.676 225.282 71.9702L224.929 75.8833C224.914 75.9937 224.826 76.0746 224.723 76.0746ZM222.45 70.8522L223.649 70.9846C224.142 71.0361 224.532 71.4333 224.576 71.9261L224.723 73.5516L224.87 71.9261C224.914 71.4333 225.304 71.0361 225.797 70.9846L226.996 70.8522L225.797 70.7198C225.304 70.6683 224.914 70.2711 224.87 69.7783L224.723 68.1527L224.576 69.7783C224.532 70.2711 224.142 70.6683 223.649 70.7198L222.45 70.8522Z" fill="#7EC65C"/>
</g>
<g opacity="0.5">
<path opacity="0.5" d="M250.232 60.1664C250.092 60.1664 249.975 60.0561 249.96 59.9164L249.497 54.7896C249.46 54.3998 249.158 54.0908 248.768 54.0467L244.752 53.6054C244.612 53.5907 244.51 53.473 244.51 53.3332C244.51 53.1935 244.612 53.0758 244.752 53.0611L248.768 52.6197C249.158 52.5756 249.46 52.2667 249.497 51.8768L249.96 46.7501C249.975 46.6103 250.092 46.5 250.232 46.5C250.372 46.5 250.49 46.6103 250.504 46.7501L250.968 51.8768C251.004 52.2667 251.306 52.5756 251.696 52.6197L255.712 53.0611C255.852 53.0758 255.955 53.1935 255.955 53.3332C255.955 53.473 255.852 53.5907 255.712 53.6054L251.696 54.0467C251.306 54.0908 251.004 54.3998 250.968 54.7896L250.504 59.9164C250.49 60.0561 250.372 60.1664 250.232 60.1664ZM247.26 53.3332L248.835 53.5098C249.474 53.5833 249.989 54.0982 250.048 54.7455L250.239 56.8712L250.431 54.7455C250.49 54.0982 250.997 53.5833 251.637 53.5098L253.211 53.3332L251.637 53.1567C250.997 53.0831 250.482 52.5682 250.431 51.921L250.239 49.7952L250.048 51.921C249.989 52.5682 249.482 53.0831 248.835 53.1567L247.26 53.3332Z" fill="#7EC65C"/>
</g>
<g opacity="0.5">
<path opacity="0.5" d="M275.152 34.312C275.056 34.312 274.975 34.2385 274.968 34.1428L274.651 30.649C274.629 30.3842 274.416 30.1709 274.151 30.1415L271.415 29.8399C271.319 29.8325 271.253 29.7516 271.253 29.656C271.253 29.5604 271.327 29.4795 271.415 29.4721L274.151 29.1705C274.416 29.1411 274.622 28.9278 274.651 28.663L274.968 25.1692C274.975 25.0736 275.056 25 275.152 25C275.247 25 275.328 25.0736 275.335 25.1692L275.652 28.663C275.674 28.9278 275.887 29.1411 276.152 29.1705L278.888 29.4721C278.984 29.4795 279.05 29.5604 279.05 29.656C279.05 29.7516 278.976 29.8325 278.888 29.8399L276.152 30.1415C275.887 30.1709 275.681 30.3842 275.652 30.649L275.335 34.1428C275.328 34.2385 275.247 34.312 275.152 34.312ZM273.129 29.656L274.203 29.7737C274.644 29.8252 274.99 30.1782 275.027 30.6122L275.159 32.0612L275.291 30.6122C275.328 30.1709 275.681 29.8178 276.115 29.7663L277.189 29.6486L276.115 29.531C275.674 29.4795 275.328 29.1264 275.291 28.6924L275.159 27.2434L275.027 28.6924C274.99 29.1338 274.637 29.4868 274.203 29.5383L273.129 29.656Z" fill="#7EC65C"/>
</g>
<g opacity="0.5">
<path opacity="0.5" d="M288.362 43.0066C288.215 43.0066 288.097 42.8963 288.082 42.7565L287.612 37.5121C287.575 37.1149 287.258 36.7913 286.869 36.7545L282.757 36.2984C282.617 36.2837 282.507 36.166 282.507 36.0189C282.507 35.8718 282.61 35.7615 282.757 35.7394L286.869 35.2834C287.266 35.2393 287.582 34.923 287.612 34.5258L288.082 29.2813C288.097 29.1342 288.215 29.0312 288.362 29.0312C288.509 29.0312 288.627 29.1416 288.641 29.2813L289.112 34.5258C289.149 34.923 289.465 35.2466 289.855 35.2834L293.967 35.7394C294.106 35.7541 294.217 35.8718 294.217 36.0189C294.217 36.166 294.114 36.2764 293.967 36.2984L289.855 36.7545C289.458 36.7986 289.141 37.1149 289.112 37.5121L288.641 42.7565C288.627 42.9036 288.502 43.0066 288.362 43.0066ZM285.317 36.0189L286.927 36.1955C287.582 36.269 288.104 36.7986 288.163 37.4606L288.362 39.6305L288.56 37.4606C288.619 36.7986 289.141 36.269 289.796 36.1955L291.407 36.0189L289.796 35.8424C289.141 35.7689 288.619 35.2393 288.56 34.5773L288.362 32.4074L288.163 34.5773C288.104 35.2393 287.582 35.7689 286.927 35.8424L285.317 36.0189Z" fill="#7EC65C"/>
</g>
<path d="M367.08 56.0389C366.977 56.0389 366.896 55.958 366.881 55.8624L366.388 50.4193C366.344 49.9633 365.991 49.5955 365.535 49.544L361.269 49.0733C361.173 49.0659 361.092 48.9777 361.092 48.8747C361.092 48.7717 361.166 48.6908 361.269 48.6761L365.535 48.2054C365.991 48.1539 366.351 47.7861 366.388 47.3301L366.881 41.8797C366.888 41.7767 366.977 41.7031 367.08 41.7031C367.183 41.7031 367.263 41.784 367.278 41.8797L367.771 47.3301C367.815 47.7861 368.176 48.1539 368.624 48.2054L372.89 48.6761C372.993 48.6835 373.067 48.7717 373.067 48.8747C373.067 48.9777 372.993 49.0586 372.89 49.0733L368.624 49.544C368.168 49.5955 367.808 49.9633 367.771 50.4193L367.278 55.8624C367.263 55.958 367.183 56.0389 367.08 56.0389ZM363.078 48.8673L365.579 49.1469C366.219 49.2204 366.727 49.7353 366.785 50.3752L367.08 53.6484L367.374 50.3752C367.433 49.7353 367.94 49.2204 368.58 49.1469L371.081 48.8673L368.58 48.5878C367.94 48.5143 367.433 47.9994 367.374 47.3595L367.08 44.0863L366.785 47.3595C366.727 47.9994 366.219 48.5143 365.579 48.5878L363.078 48.8673Z" fill="#7EC65C"/>
<g opacity="0.5">
<path opacity="0.5" d="M380.526 47.7476C380.393 47.7476 380.276 47.6446 380.261 47.5122L379.606 40.2524C379.555 39.6419 379.069 39.1564 378.466 39.0902L372.773 38.465C372.641 38.4503 372.538 38.3399 372.538 38.2075C372.538 38.0751 372.641 37.9648 372.773 37.9501L378.466 37.3175C379.069 37.2513 379.555 36.7585 379.606 36.1554L380.261 28.8955C380.276 28.7631 380.386 28.6602 380.526 28.6602C380.658 28.6602 380.776 28.7631 380.783 28.8955L381.438 36.1554C381.489 36.7659 381.975 37.2513 382.578 37.3175L388.271 37.9501C388.403 37.9648 388.506 38.0751 388.506 38.2075C388.506 38.3399 388.403 38.4503 388.271 38.465L382.578 39.0902C381.975 39.1564 381.489 39.6492 381.438 40.2524L380.79 47.5122C380.776 47.6446 380.665 47.7476 380.526 47.7476ZM375.193 38.1928L378.525 38.5606C379.378 38.6562 380.055 39.3476 380.128 40.2009L380.526 44.5627L380.915 40.2009C380.996 39.3476 381.666 38.6562 382.519 38.5606L385.851 38.1928L382.519 37.8251C381.666 37.7294 380.989 37.0454 380.915 36.1848L380.526 31.823L380.128 36.1848C380.055 37.038 379.378 37.7294 378.525 37.8251L375.193 38.1928Z" fill="#7EC65C"/>
</g>
<path d="M354.833 63.3279L382.252 138.102C383.785 142.315 381.619 146.96 377.496 148.461L258.869 192.044C254.656 193.577 250.011 191.411 248.51 187.288L221.059 112.424C219.656 108.57 221.619 104.201 225.473 102.799L345.208 58.914C349.062 57.5112 353.341 59.5065 354.833 63.3279Z" fill="#3E6F26"/>
<path opacity="0.2" d="M354.833 63.3279L382.252 138.102C383.785 142.315 381.619 146.96 377.496 148.461L258.869 192.044C254.656 193.577 250.011 191.411 248.51 187.288L221.059 112.424C219.656 108.57 221.619 104.201 225.473 102.799L345.208 58.914C349.062 57.5112 353.341 59.5065 354.833 63.3279Z" fill="#121243"/>
<path d="M262.189 123.642L244.533 130.068C242.471 130.819 240.148 129.736 239.398 127.674L235.81 117.815C235.059 115.754 236.143 113.431 238.204 112.68L255.739 106.197C257.8 105.447 260.123 106.53 260.873 108.591L264.461 118.45C265.244 120.601 264.251 122.891 262.189 123.642Z" fill="#7EC65C"/>
<path d="M317.06 143.058L253.574 166.352L254.724 169.486L318.21 146.192L317.06 143.058Z" fill="#97E373"/>
<path d="M301.028 156.734L256.077 173.227L257.227 176.361L302.178 159.868L301.028 156.734Z" fill="#97E373"/>
<path d="M321.059 82.3734L289.361 94.0039L290.511 97.1379L322.209 85.5074L321.059 82.3734Z" fill="#97E373"/>
<path d="M349.029 87.2573C348.784 87.1433 348.54 87.0293 348.173 86.8582C348.051 86.8012 347.806 86.6872 347.684 86.6302C348.62 84.4623 348.832 82.2539 348.016 80.0132C347.2 77.7725 345.709 76.1839 343.508 75.1578C343.565 75.0355 343.712 74.8807 343.736 74.6688C343.85 74.4243 343.964 74.1798 344.135 73.813C344.412 74.0167 344.779 74.1877 345.024 74.3017C345.668 74.6764 346.254 75.1733 346.719 75.6132C347.339 76.1997 347.901 76.9085 348.374 77.6499C348.594 77.9758 348.757 78.4239 348.977 78.7498C349.01 78.8395 349.336 79.7358 349.336 79.7358C349.434 80.0046 349.532 80.2735 349.54 80.575C349.711 81.3247 349.793 82.107 349.785 82.9218C349.802 83.5249 349.696 84.0709 349.68 84.5843C349.574 85.1303 349.411 85.7985 349.183 86.2875C349.257 86.7683 349.143 87.0128 349.029 87.2573Z" fill="#3E6F26"/>
<path d="M342.434 77.7853C342.573 77.3289 342.833 76.9296 342.972 76.4732C344.439 77.1573 345.523 78.1837 346.257 79.6421C347.341 81.785 347.399 83.8955 346.462 86.0634C345.973 85.8354 345.607 85.6644 345.118 85.4364C345.802 83.9694 345.883 82.5188 345.328 80.9951C344.806 79.5611 343.812 78.502 342.434 77.7853Z" fill="#3E6F26"/>
<path d="M343.894 84.8709C343.527 84.6999 343.038 84.4719 342.672 84.3009C343.014 83.5674 343.054 82.8421 342.76 82.0354C342.467 81.2288 341.97 80.6993 341.236 80.3572C341.464 79.8682 341.635 79.5015 341.806 79.1347C343.941 79.9816 345.01 82.6378 343.894 84.8709Z" fill="#3E6F26"/>
</svg>
