<svg width="50" height="50" viewBox="0 0 50 50" fill="none" xmlns="http://www.w3.org/2000/svg">
<rect width="50" height="50" rx="10" fill="#EDFDFF"/>
<path fill-rule="evenodd" clip-rule="evenodd" d="M13 22.3424V30.4357C13 31.3145 13.719 32.0337 14.598 32.0337H32.4051C33.2839 32.0337 34.0031 31.3147 34.0031 30.4357V22.3424H13ZM30.0789 14.2132L26.0147 16.5596H32.4051C32.7478 16.5596 33.0768 16.6205 33.3812 16.7324L32.2651 14.7989C31.825 14.0366 30.8411 13.7731 30.0788 14.2133L30.0789 14.2132ZM18.6482 33.2839L19.57 34.8804C20.0101 35.6427 20.994 35.9062 21.7563 35.4662L25.5366 33.2837L18.6481 33.2835L18.6482 33.2839ZM35.2539 27.6735L37.2011 26.5492C37.9634 26.1091 38.2269 25.1252 37.7869 24.3629L35.2537 19.9755V27.6736L35.2539 27.6735ZM14.5981 17.8101C13.7193 17.8101 13.0001 18.5291 13.0001 19.408V21.0909H34.0034V19.408C34.0034 18.5292 33.2844 17.8101 32.4054 17.8101H14.5981ZM15.4984 27.0432H18.3756V28.1158H15.4984V27.0432ZM28.6276 27.0432H31.5048V28.1158H28.6276V27.0432ZM24.2512 27.0432H27.1284V28.1158H24.2512V27.0432ZM19.8747 27.0432H22.7519V28.1158H19.8747V27.0432Z" fill="#138694"/>
</svg>
