<svg width="50" height="50" viewBox="0 0 50 50" fill="none" xmlns="http://www.w3.org/2000/svg">
<rect width="50" height="50" rx="10" fill="#FFF1E9"/>
<path fill-rule="evenodd" clip-rule="evenodd" d="M25.5 13C18.601 13 13 18.601 13 25.5C13 32.399 18.601 38 25.5 38C32.399 38 38 32.399 38 25.5C38 18.601 32.399 13 25.5 13ZM25.5 34.5517C25.1673 34.5517 24.8966 34.8225 24.8966 35.1552C24.8966 35.4879 25.1673 35.7586 25.5 35.7586C25.8327 35.7586 26.1034 35.4879 26.1034 35.1552C26.1034 34.8225 25.8327 34.5517 25.5 34.5517ZM23.1568 34.2431C22.8353 34.1569 22.5043 34.3483 22.4181 34.6699C22.3319 34.9914 22.5234 35.3234 22.8449 35.4096C23.1665 35.4958 23.4974 35.3043 23.5837 34.9828C23.6699 34.6603 23.4794 34.3293 23.1568 34.2431ZM28.1549 35.4094C28.4764 35.3232 28.6679 34.9912 28.5817 34.6697C28.4955 34.3481 28.1645 34.1567 27.843 34.2429C27.5205 34.3291 27.33 34.6601 27.4162 34.9826C27.5024 35.3041 27.8333 35.4956 28.1549 35.4094ZM30.6291 34.3843C30.9179 34.2179 31.0163 33.848 30.8498 33.5594C30.6834 33.2715 30.3145 33.1722 30.0257 33.3387C29.7369 33.5051 29.6385 33.875 29.805 34.1628C29.9714 34.4516 30.3403 34.5507 30.6291 34.3843V34.3843ZM20.9739 33.3386C20.6851 33.1722 20.3162 33.2715 20.1498 33.5594C19.9834 33.8482 20.0817 34.218 20.3705 34.3843C20.6593 34.5507 21.0283 34.4514 21.1947 34.1628C21.3611 33.8749 21.2628 33.5051 20.9739 33.3387V33.3386ZM25.4998 17.3101C20.9799 17.3101 17.3101 20.9798 17.3101 25.4997C17.3101 30.0196 20.9799 33.6894 25.4998 33.6894C30.0197 33.6894 33.6895 30.0196 33.6895 25.4997C33.6895 20.9798 30.0197 17.3101 25.4998 17.3101ZM19.0988 31.9007C18.8635 31.6644 18.4815 31.6644 18.2454 31.9007C18.0101 32.136 18.0101 32.518 18.2454 32.7541C18.4817 32.9894 18.8635 32.9894 19.0988 32.7541C19.3351 32.5178 19.3351 32.136 19.0988 31.9007ZM32.754 32.7541C32.9893 32.5178 32.9893 32.136 32.754 31.9007C32.5177 31.6644 32.1359 31.6644 31.9006 31.9007C31.6643 32.136 31.6643 32.518 31.9006 32.7541C32.1359 32.9894 32.5179 32.9894 32.754 32.7541ZM25.7151 19.9541C25.5815 19.8773 25.4176 19.8773 25.284 19.9541L20.8047 22.5403C20.6712 22.6171 20.5892 22.7593 20.5892 22.9136V28.086C20.5892 28.2404 20.6712 28.3826 20.8047 28.4593L25.284 31.0455C25.4176 31.1223 25.5815 31.1223 25.7151 31.0455L30.1944 28.4593C30.3279 28.3826 30.4099 28.2404 30.4099 28.086V22.9136C30.4099 22.7593 30.3279 22.6171 30.1944 22.5403L25.7151 19.9541ZM34.384 30.629C34.5505 30.3402 34.4512 29.9713 34.1626 29.8048C33.8747 29.6384 33.5048 29.7367 33.3384 30.0256C33.172 30.3144 33.2713 30.6833 33.5591 30.8497C33.848 31.0161 34.2178 30.9178 34.3841 30.629H34.384ZM17.6609 30.0255C17.4944 29.7367 17.1246 29.6384 16.8367 29.8048C16.5479 29.9713 16.4488 30.3401 16.6153 30.629C16.7817 30.9178 17.1516 31.0161 17.4402 30.8497C17.7281 30.6832 17.8274 30.3144 17.6609 30.0255H17.6609ZM16.7565 27.8428C16.6703 27.5203 16.3393 27.3298 16.0168 27.416C15.6953 27.5022 15.5038 27.8332 15.59 28.1547C15.6762 28.4763 16.0081 28.6677 16.3297 28.5815C16.6513 28.4953 16.8427 28.1644 16.7565 27.8428ZM35.4092 28.1549C35.4954 27.8334 35.304 27.5024 34.9824 27.4162C34.6599 27.33 34.3289 27.5205 34.2427 27.843C34.1565 28.1646 34.348 28.4955 34.6695 28.5817C34.991 28.6679 35.323 28.4765 35.4092 28.1549ZM16.4481 25.4999C16.4481 25.1672 16.1774 24.8964 15.8447 24.8964C15.512 24.8964 15.2412 25.1672 15.2412 25.4999C15.2412 25.8326 15.512 26.1033 15.8447 26.1033C16.1774 26.1033 16.4481 25.8326 16.4481 25.4999ZM35.7585 25.4999C35.7585 25.1672 35.4877 24.8964 35.155 24.8964C34.8223 24.8964 34.5516 25.1672 34.5516 25.4999C34.5516 25.8326 34.8223 26.1033 35.155 26.1033C35.4877 26.1033 35.7585 25.8326 35.7585 25.4999ZM16.757 23.1567C16.8432 22.8352 16.6517 22.5042 16.3302 22.418C16.0086 22.3318 15.6767 22.5233 15.5905 22.8448C15.5043 23.1663 15.6957 23.4973 16.0173 23.5835C16.3398 23.6697 16.6708 23.4792 16.757 23.1567ZM35.4097 22.8446C35.3235 22.5231 34.9916 22.3316 34.67 22.4178C34.3485 22.504 34.157 22.835 34.2432 23.1565C34.3294 23.479 34.6604 23.6695 34.9829 23.5833C35.3044 23.4971 35.4959 23.1661 35.4097 22.8446ZM17.6614 20.9738C17.8279 20.685 17.7286 20.3161 17.4407 20.1497C17.1519 19.9832 16.782 20.0816 16.6158 20.3704C16.4493 20.6592 16.5486 21.0281 16.8373 21.1945C17.1251 21.361 17.495 21.2626 17.6614 20.9738H17.6614ZM34.3846 20.3704C34.2181 20.0815 33.8483 19.9832 33.5597 20.1496C33.2718 20.3161 33.1725 20.685 33.3389 20.9738C33.5054 21.2626 33.8752 21.361 34.1631 21.1945C34.4519 21.0281 34.551 20.6592 34.3846 20.3704H34.3846ZM19.0994 19.0988C19.3357 18.8635 19.3357 18.4815 19.0994 18.2454C18.864 18.0101 18.4821 18.0101 18.246 18.2454C18.0106 18.4817 18.0106 18.8635 18.246 19.0988C18.4823 19.3351 18.864 19.3351 19.0994 19.0988ZM32.7545 18.2454C32.5182 18.0101 32.1365 18.0101 31.9011 18.2454C31.6648 18.4817 31.6648 18.8635 31.9011 19.0988C32.1365 19.3351 32.5184 19.3351 32.7545 19.0988C32.9899 18.8635 32.9899 18.4815 32.7545 18.2454ZM20.9742 17.6611C21.2631 17.4946 21.3614 17.1247 21.195 16.8369C21.0285 16.5481 20.6596 16.449 20.3708 16.6154C20.082 16.7819 19.9837 17.1517 20.1501 17.4404C20.3165 17.7282 20.6854 17.8275 20.9742 17.6611V17.6611ZM30.6294 16.6154C30.3406 16.4489 29.9717 16.5482 29.8053 16.8369C29.6388 17.1247 29.7372 17.4946 30.026 17.661C30.3148 17.8274 30.6837 17.7282 30.8501 17.4403C31.0166 17.1515 30.9182 16.7816 30.6294 16.6154V16.6154ZM23.157 16.7568C23.4795 16.6706 23.67 16.3396 23.5838 16.0171C23.4976 15.6956 23.1666 15.5041 22.8451 15.5903C22.5235 15.6765 22.3321 16.0085 22.4183 16.33C22.5045 16.6516 22.8355 16.843 23.157 16.7568ZM28.155 15.5905C27.8335 15.5043 27.5025 15.6958 27.4163 16.0173C27.3301 16.3398 27.5206 16.6708 27.8431 16.757C28.1646 16.8432 28.4956 16.6518 28.5818 16.3302C28.668 16.0087 28.4766 15.6767 28.155 15.5905ZM25.5 15.2415C25.1672 15.2415 24.8965 15.5122 24.8965 15.8449C24.8965 16.1776 25.1672 16.4484 25.5 16.4484C25.8327 16.4484 26.1034 16.1776 26.1034 15.8449C26.1034 15.5122 25.8327 15.2415 25.5 15.2415Z" fill="#973900"/>
</svg>
