<svg width="50" height="50" viewBox="0 0 50 50" fill="none" xmlns="http://www.w3.org/2000/svg">
<rect width="50" height="50" rx="10" fill="#000000"/>
<path d="M25 38C24.7302 38 24.4762 37.8729 24.3143 37.657L19.1715 30.8C18.9766 30.5402 18.9453 30.1927 19.0905 29.9022C19.2357 29.6118 19.5325 29.4284 19.8571 29.4284L24.1428 29.4284L24.1428 13.1431C24.1428 12.6696 24.5267 12.2858 25 12.2858C25.4732 12.2858 25.8572 12.6696 25.8572 13.1431L25.8572 29.4284L30.1429 29.4284C30.4675 29.4284 30.7642 29.6118 30.9095 29.9022C31.0547 30.1927 31.0234 30.5402 30.8285 30.8L25.6856 37.657C25.5238 37.8729 25.2698 38 25 38L25 38Z" fill="#000000"/>
</svg>
