<svg width="82" height="55" viewBox="0 0 82 55" fill="none" xmlns="http://www.w3.org/2000/svg">
<circle cx="26.7145" cy="28.0514" r="25.2857" fill="#E1F4EA" stroke="#F9F8F9" stroke-width="2"/>
<path d="M22.6671 36.4612C24.7961 36.4612 26.838 35.6154 28.3435 34.1101C29.8488 32.6047 30.6946 30.5627 30.6946 28.4337C30.6946 26.3047 29.8488 24.2628 28.3435 22.7574C26.8381 21.252 24.7961 20.4062 22.6671 20.4062C20.5381 20.4062 18.4962 21.252 16.9908 22.7574C15.4854 24.2627 14.6396 26.3047 14.6396 28.4337C14.642 30.562 15.4885 32.6025 16.9934 34.1074C18.4983 35.6124 20.5389 36.4588 22.6671 36.4612ZM19.4561 31.1095C19.4561 30.814 19.6958 30.5744 19.9913 30.5744C20.2868 30.5744 20.5265 30.814 20.5265 31.1095V31.6447C20.5265 31.7866 20.5828 31.9228 20.6832 32.0231C20.7835 32.1235 20.9197 32.1799 21.0616 32.1799H24.2726C24.4145 32.1799 24.5507 32.1235 24.651 32.0231C24.7514 31.9228 24.8078 31.7866 24.8078 31.6447V29.504C24.8078 29.3621 24.7514 29.226 24.651 29.1256C24.5507 29.0253 24.4145 28.9689 24.2726 28.9689H21.0616C20.6359 28.9689 20.2273 28.7997 19.9263 28.4987C19.6254 28.1977 19.4562 27.7891 19.4562 27.3634V25.2228C19.4562 24.797 19.6253 24.3885 19.9263 24.0875C20.2274 23.7865 20.6359 23.6173 21.0616 23.6173H22.132V22.547C22.132 22.2514 22.3716 22.0118 22.6671 22.0118C22.9626 22.0118 23.2023 22.2514 23.2023 22.547V23.6173H24.2726C24.6983 23.6173 25.1069 23.7864 25.4079 24.0875C25.7089 24.3885 25.8781 24.7971 25.8781 25.2228V25.7579C25.8781 26.0535 25.6384 26.2931 25.3429 26.2931C25.0474 26.2931 24.8077 26.0535 24.8077 25.7579V25.2228C24.8077 25.0808 24.7514 24.9447 24.651 24.8443C24.5507 24.744 24.4145 24.6876 24.2726 24.6876H21.0616C20.7661 24.6876 20.5264 24.9272 20.5264 25.2228V27.3634C20.5264 27.5053 20.5828 27.6415 20.6832 27.7419C20.7835 27.8422 20.9197 27.8986 21.0616 27.8986H24.2726C24.6983 27.8986 25.1069 28.0677 25.4079 28.3688C25.7088 28.6698 25.878 29.0784 25.878 29.504V31.6447C25.878 32.0704 25.7089 32.479 25.4079 32.78C25.1068 33.081 24.6983 33.2502 24.2726 33.2502H23.2022V34.3205C23.2022 34.616 22.9626 34.8557 22.6671 34.8557C22.3716 34.8557 22.1319 34.616 22.1319 34.3205V33.2502H21.0616C20.6359 33.2502 20.2273 33.081 19.9263 32.78C19.6253 32.479 19.4561 32.0704 19.4561 31.6447V31.1095Z" fill="#1F9055"/>
<path d="M30.1585 17.1953C29.4668 17.1975 28.7771 17.2632 28.0977 17.3917C29.1532 17.9133 30.1289 18.5832 30.9949 19.3809C34.0327 19.6595 36.7284 21.4432 38.1723 24.1305C39.6165 26.8175 39.6165 30.05 38.1723 32.7371C36.7283 35.4244 34.0326 37.2082 30.9949 37.4867C30.1289 38.2844 29.1532 38.9543 28.0977 39.4759C30.1545 39.8655 32.2793 39.6727 34.2328 38.9197C36.1862 38.1664 37.8903 36.8824 39.1532 35.2127C40.4159 33.5429 41.1873 31.5535 41.3801 29.4688C41.5729 27.3843 41.1796 25.2871 40.2445 23.414C39.3095 21.541 37.8698 19.9663 36.0877 18.8675C34.3056 17.7687 32.2522 17.1896 30.1586 17.1954L30.1585 17.1953Z" fill="#1F9055"/>
<path d="M22.6672 39.6722C25.6478 39.6722 28.5065 38.4882 30.6139 36.3805C32.7216 34.2731 33.9056 31.4145 33.9056 28.4338C33.9056 25.4531 32.7216 22.5945 30.6139 20.487C28.5065 18.3793 25.6479 17.1953 22.6672 17.1953C19.6865 17.1953 16.8279 18.3793 14.7204 20.487C12.6127 22.5945 11.4287 25.4531 11.4287 28.4338C11.4321 31.4135 12.6171 34.2699 14.724 36.3768C16.831 38.4838 19.6874 39.6688 22.6671 39.6722L22.6672 39.6722ZM22.6672 19.336C25.0799 19.336 27.394 20.2945 29.1001 22.0005C30.8063 23.7068 31.7647 26.0209 31.7647 28.4335C31.7647 30.8461 30.8062 33.1604 29.1001 34.8665C27.3939 36.5726 25.0797 37.5311 22.6672 37.5311C20.2546 37.5311 17.9403 36.5725 16.2342 34.8665C14.5281 33.1602 13.5696 30.8461 13.5696 28.4335C13.5722 26.0214 14.5317 23.709 16.2373 22.0036C17.9429 20.298 20.2553 19.3385 22.6672 19.3359L22.6672 19.336Z" fill="#1F9055"/>
<path d="M32.209 36.1971C34.5114 35.5915 36.426 33.9948 37.4357 31.8389C38.4456 29.6832 38.4462 27.1901 37.4378 25.0334C36.4294 22.8768 34.5157 21.2791 32.2138 20.6719C34.0013 22.8642 34.9773 25.6064 34.9763 28.4351C34.9756 31.2636 33.998 34.0054 32.209 36.1965L32.209 36.1971Z" fill="#1F9055"/>
<circle cx="55.2857" cy="26.8561" r="25.2857" fill="#000080" stroke="#F9F8F9" stroke-width="2"/>
<path d="M71.6789 29.3788L69.4869 20.3521L63.8118 21.7304C63.5308 21.454 63.1462 21.2828 62.7203 21.2828H50.846L68.6622 16.9564L68.2338 15.1912C68.0305 14.3547 67.1874 13.8417 66.3513 14.0441L45.3704 19.139C44.5342 19.343 44.0204 20.1851 44.2244 21.0223L44.2877 21.2827H41.1299C40.2689 21.2827 39.5713 21.9805 39.5713 22.841V24.6581H64.2796V28.1532H39.5713V37.4417C39.5713 38.3027 40.2689 39 41.1299 39H62.7206C63.5816 39 64.28 38.3024 64.28 37.4417V32.7798L70.5333 31.261C71.3695 31.058 71.8825 30.2149 71.6793 29.3787L71.6789 29.3788Z" fill="#000000"/>
</svg>
