<svg width="16" height="17" viewBox="0 0 16 17" fill="none" xmlns="http://www.w3.org/2000/svg">
<path d="M8 16.5C10.1217 16.5 12.1567 15.6571 13.6568 14.1568C15.1571 12.6565 16 10.6217 16 8.5C16 6.37833 15.1571 4.34331 13.6568 2.84315C12.1565 1.3429 10.1217 0.5 8 0.5C5.87833 0.5 3.84331 1.3429 2.34315 2.84315C0.842901 4.34353 0 6.37833 0 8.5C0 10.6217 0.842901 12.6567 2.34315 14.1568C3.84353 15.6571 5.87833 16.5 8 16.5ZM3.84737 8.71089C3.98361 8.5755 4.16794 8.4994 4.36006 8.4994C4.55231 8.4994 4.73652 8.5755 4.87288 8.71089L6.54553 10.3837L10.7565 6.17274C10.9437 6.01239 11.1994 5.95785 11.4357 6.02773C11.6722 6.09762 11.857 6.28256 11.9269 6.51889C11.9969 6.75534 11.9422 7.01102 11.7819 7.19828L7.05448 11.9257L7.0546 11.9255C6.91824 12.0611 6.73403 12.137 6.54178 12.137C6.34965 12.137 6.16532 12.0611 6.02908 11.9255L3.84726 9.74372C3.70956 9.60724 3.63212 9.42131 3.63212 9.22738C3.63212 9.03355 3.70956 8.84762 3.84726 8.71104L3.84737 8.71089Z" fill="#000000"/>
</svg>
