<svg width="44" height="48" viewBox="0 0 44 48" fill="none" xmlns="http://www.w3.org/2000/svg">
<path d="M42.9883 12.1C42.9496 11.7079 42.8119 11.332 42.5883 11.0076C42.3646 10.6832 42.0623 10.4208 41.7097 10.245L23.043 0.91171C22.7188 0.749495 22.3613 0.665039 21.9988 0.665039C21.6364 0.665039 21.2788 0.749495 20.9547 0.91171L2.28801 10.245C1.93631 10.4218 1.63494 10.6845 1.41182 11.0088C1.1887 11.333 1.05107 11.7084 1.01168 12.1C0.986009 12.3497 -1.23066 37.223 21.0527 47.1327C21.3504 47.2671 21.6733 47.3366 22 47.3366C22.3267 47.3366 22.6496 47.2671 22.9473 47.1327C45.2307 37.223 43.014 12.352 42.9883 12.1ZM22 42.4264C6.20568 34.7917 5.45901 18.498 5.58734 13.815L22 5.60871L38.401 13.8104C38.4873 18.4514 37.6357 34.8524 22 42.4264Z" fill="#000000"/>
<path d="M19.6666 25.3673L14.3163 20.017L11.017 23.3163L19.6666 31.966L32.983 18.6497L29.6836 15.3503L19.6666 25.3673Z" fill="#000000"/>
</svg>
