<svg width="170" height="40" viewBox="0 0 170 40" fill="none" xmlns="http://www.w3.org/2000/svg">
<g clip-path="url(#clip0_0_1)">
<path d="M153.016 0.316406L145.23 16.9768L142.299 10.6649H139.132L143.949 20.9912H146.509L156.163 0.316406H153.016V0.316406ZM119.609 31.2524H125.878V19.7759C125.878 17.1514 127.397 15.307 129.653 15.307C131.823 15.307 132.951 16.8258 132.951 19.0166V31.2524H139.22V17.8235C139.22 13.2672 136.486 10.0565 132.061 10.0565C129.241 10.0565 127.267 11.2718 125.791 13.4848H125.662V10.6649H119.587L119.609 31.2524V31.2524ZM107.288 10.0995C100.736 10.0995 96.3528 14.8082 96.3528 21.012C96.3528 27.1728 100.734 31.9245 107.288 31.9245C113.838 31.9245 118.221 27.1728 118.221 21.012C118.241 14.8082 113.839 10.1009 107.288 10.1009V10.0995V10.0995ZM107.243 27.2824C104.271 27.2824 102.688 24.7866 102.688 21.012C102.688 17.1944 104.25 14.7431 107.243 14.7431C110.215 14.7431 111.864 17.1944 111.864 21.012C111.885 24.7866 110.236 27.2824 107.243 27.2824ZM78.4786 31.2524H96.0938V26.3054H86.1138V26.1751L95.6586 15.4802V10.6427H78.4786V15.6105H88.1314V15.7408L78.4786 26.523V31.2524ZM70.429 31.2524H76.7438V10.6649H70.4304V31.2524H70.429ZM55.7862 31.2524H62.0773V21.7935C62.0773 17.4978 64.6589 15.5898 68.586 16.1315H68.7163V10.7079C68.3906 10.5776 68.0206 10.5569 67.4359 10.5569C64.9846 10.5569 63.3355 11.6848 61.9263 14.0917H61.7961V10.6664H55.7862V31.2539V31.2524V31.2524ZM44.2461 27.3031C41.4691 27.3031 39.7757 25.5031 39.45 22.7261H54.2897C54.3341 18.3001 53.1617 14.7653 50.7104 12.5523C48.9755 10.9462 46.6974 10.0565 43.7901 10.0565C37.5864 10.0565 33.2906 14.7638 33.2906 20.9261C33.2906 27.1299 37.391 31.8593 44.2017 31.8593C46.7832 31.8593 48.823 31.1651 50.515 30.0149C52.315 28.7789 53.6176 26.9567 53.964 25.1567H47.9334C47.3472 26.5008 46.089 27.3031 44.2461 27.3031V27.3031ZM43.9204 14.5477C46.1334 14.5477 47.6507 16.1967 47.9112 18.6036H39.4944C39.9933 16.1759 41.3166 14.5477 43.9204 14.5477V14.5477ZM20.7513 31.2524H27.3459L34.5045 10.6649H28.1926L24.1796 23.8985H24.0908L20.0793 10.6649H13.5928L20.7513 31.2524ZM70.429 3.3317H76.7438V8.92858H70.4304V3.33318L70.429 3.3317V3.3317Z" fill="#000000"/>
</g>
<defs>
<clipPath id="clip0_0_1">
<rect width="143.586" height="32.5658" fill="white" transform="translate(13.5928 0.316406)"/>
</clipPath>
</defs>
</svg>
