<svg width="30" height="30" viewBox="0 0 30 30" fill="none" xmlns="http://www.w3.org/2000/svg">
<circle cx="15" cy="15" r="14.5" fill="white" stroke="#000000"/>
<path d="M17.3065 19.39C17.4931 19.39 17.6401 19.4437 17.7475 19.551C17.8595 19.6537 17.9155 19.7913 17.9155 19.964V21H10.9715V20.426C10.9715 20.3093 10.9948 20.188 11.0415 20.062C11.0928 19.9313 11.1721 19.8147 11.2795 19.712L14.3525 16.632C14.6091 16.3707 14.8378 16.121 15.0385 15.883C15.2438 15.645 15.4141 15.4093 15.5495 15.176C15.6848 14.9427 15.7875 14.707 15.8575 14.469C15.9321 14.2263 15.9695 13.972 15.9695 13.706C15.9695 13.4633 15.9345 13.251 15.8645 13.069C15.7945 12.8823 15.6941 12.726 15.5635 12.6C15.4375 12.474 15.2835 12.3807 15.1015 12.32C14.9241 12.2547 14.7235 12.222 14.4995 12.222C14.2941 12.222 14.1028 12.2523 13.9255 12.313C13.7528 12.369 13.5988 12.4507 13.4635 12.558C13.3281 12.6607 13.2138 12.782 13.1205 12.922C13.0271 13.062 12.9571 13.216 12.9105 13.384C12.8311 13.5987 12.7285 13.741 12.6025 13.811C12.4765 13.881 12.2945 13.8973 12.0565 13.86L11.1465 13.699C11.2165 13.2137 11.3518 12.789 11.5525 12.425C11.7531 12.0563 12.0028 11.7507 12.3015 11.508C12.6048 11.2607 12.9501 11.0763 13.3375 10.955C13.7295 10.829 14.1495 10.766 14.5975 10.766C15.0641 10.766 15.4911 10.836 15.8785 10.976C16.2658 11.1113 16.5971 11.305 16.8725 11.557C17.1478 11.809 17.3625 12.1123 17.5165 12.467C17.6705 12.8217 17.7475 13.216 17.7475 13.65C17.7475 14.0233 17.6915 14.3687 17.5795 14.686C17.4721 15.0033 17.3251 15.3067 17.1385 15.596C16.9565 15.8853 16.7418 16.1653 16.4945 16.436C16.2471 16.7067 15.9881 16.982 15.7175 17.262L13.4355 19.593C13.6548 19.5277 13.8718 19.4787 14.0865 19.446C14.3058 19.4087 14.5135 19.39 14.7095 19.39H17.3065Z" fill="#000000"/>
</svg>
