<svg width="38" height="38" viewBox="0 0 38 38" fill="none" xmlns="http://www.w3.org/2000/svg">
<g filter="url(#filter0_d_10371_7674)">
<circle cx="19" cy="15" r="14.5" fill="white" stroke="#000000"/>
<path d="M15.1955 13.699C15.2655 13.2137 15.4008 12.789 15.6015 12.425C15.8021 12.0563 16.0518 11.7507 16.3505 11.508C16.6538 11.2607 16.9991 11.0763 17.3865 10.955C17.7785 10.829 18.1985 10.766 18.6465 10.766C19.1131 10.766 19.5331 10.8337 19.9065 10.969C20.2845 11.0997 20.6065 11.284 20.8725 11.522C21.1385 11.7553 21.3415 12.0307 21.4815 12.348C21.6261 12.6653 21.6985 13.0083 21.6985 13.377C21.6985 13.699 21.6611 13.9837 21.5865 14.231C21.5165 14.4737 21.4138 14.686 21.2785 14.868C21.1431 15.05 20.9751 15.204 20.7745 15.33C20.5738 15.456 20.3475 15.561 20.0955 15.645C20.7021 15.8363 21.1548 16.128 21.4535 16.52C21.7521 16.912 21.9015 17.4043 21.9015 17.997C21.9015 18.501 21.8081 18.9467 21.6215 19.334C21.4348 19.7213 21.1828 20.048 20.8655 20.314C20.5481 20.5753 20.1795 20.7737 19.7595 20.909C19.3441 21.0443 18.9031 21.112 18.4365 21.112C17.9278 21.112 17.4845 21.0537 17.1065 20.937C16.7285 20.8203 16.3995 20.6477 16.1195 20.419C15.8395 20.1903 15.6015 19.9103 15.4055 19.579C15.2095 19.2477 15.0415 18.865 14.9015 18.431L15.6645 18.116C15.8651 18.032 16.0518 18.011 16.2245 18.053C16.4018 18.0903 16.5301 18.1837 16.6095 18.333C16.6935 18.4963 16.7845 18.6573 16.8825 18.816C16.9851 18.9747 17.1065 19.117 17.2465 19.243C17.3865 19.3643 17.5498 19.4647 17.7365 19.544C17.9278 19.6187 18.1541 19.656 18.4155 19.656C18.7095 19.656 18.9661 19.6093 19.1855 19.516C19.4048 19.418 19.5868 19.292 19.7315 19.138C19.8808 18.984 19.9905 18.8137 20.0605 18.627C20.1351 18.4357 20.1725 18.2443 20.1725 18.053C20.1725 17.8103 20.1468 17.591 20.0955 17.395C20.0441 17.1943 19.9368 17.024 19.7735 16.884C19.6101 16.744 19.3745 16.6343 19.0665 16.555C18.7631 16.4757 18.3548 16.436 17.8415 16.436V15.204C18.2661 15.1993 18.6185 15.1597 18.8985 15.085C19.1785 15.0103 19.4001 14.9077 19.5635 14.777C19.7315 14.6417 19.8481 14.4807 19.9135 14.294C19.9788 14.1073 20.0115 13.902 20.0115 13.678C20.0115 13.202 19.8785 12.8403 19.6125 12.593C19.3465 12.3457 18.9918 12.222 18.5485 12.222C18.3431 12.222 18.1541 12.2523 17.9815 12.313C17.8088 12.369 17.6525 12.4507 17.5125 12.558C17.3771 12.6607 17.2628 12.782 17.1695 12.922C17.0761 13.062 17.0061 13.216 16.9595 13.384C16.8801 13.5987 16.7751 13.741 16.6445 13.811C16.5185 13.881 16.3388 13.8973 16.1055 13.86L15.1955 13.699Z" fill="#000000"/>
</g>
<defs>
<filter id="filter0_d_10371_7674" x="0" y="0" width="38" height="38" filterUnits="userSpaceOnUse" color-interpolation-filters="sRGB">
<feFlood flood-opacity="0" result="BackgroundImageFix"/>
<feColorMatrix in="SourceAlpha" type="matrix" values="0 0 0 0 0 0 0 0 0 0 0 0 0 0 0 0 0 0 127 0" result="hardAlpha"/>
<feOffset dy="4"/>
<feGaussianBlur stdDeviation="2"/>
<feComposite in2="hardAlpha" operator="out"/>
<feColorMatrix type="matrix" values="0 0 0 0 0 0 0 0 0 0 0 0 0 0 0 0 0 0 0.25 0"/>
<feBlend mode="normal" in2="BackgroundImageFix" result="effect1_dropShadow_10371_7674"/>
<feBlend mode="normal" in="SourceGraphic" in2="effect1_dropShadow_10371_7674" result="shape"/>
</filter>
</defs>
</svg>
