<svg width="50" height="50" viewBox="0 0 50 50" fill="none" xmlns="http://www.w3.org/2000/svg">
<rect width="50" height="50" rx="10" fill="#F3FBF9"/>
<path d="M32.4568 33.3168H31.6363L24.8473 35.5586C24.6373 35.671 23.7825 36.052 22.8887 35.5342L22.8789 35.5293L13.5748 30.3571C13.5406 30.3375 13.5113 30.3131 13.4869 30.2887C13.4869 30.2838 12.6566 29.4486 13.1645 28.5011C13.1645 28.4962 13.7213 27.3142 14.7959 27.6121C17.4966 28.3594 19.2404 29.9126 20.8471 30.3129C22.9425 30.689 24.4076 30.5571 26.3809 29.7219C25.785 29.6633 24.8277 29.717 23.851 29.7609C23.5531 29.7756 23.2503 29.7854 22.9523 29.7951C19.9829 29.8733 19.8461 28.9013 20.4762 28.1931C21.0867 27.5093 21.6142 27.4947 22.3908 27.4947H25.3651C25.8389 27.2798 28.276 26.1955 29.5898 25.961H29.6045C30.1906 25.8584 30.9184 25.8242 31.5778 25.8242C31.8953 25.8242 32.1981 25.8291 32.457 25.8389V33.3263L32.4568 33.3168Z" fill="#3B9B7B"/>
<path d="M33.7219 24.0957H37.1261C37.3654 24.0957 37.5803 24.1934 37.7415 24.3497C37.8978 24.5109 38.0004 24.7258 38.0004 24.9651V34.1519C38.0004 34.3912 37.9027 34.6061 37.7464 34.7673C37.5852 34.9236 37.3703 35.0262 37.131 35.0262H33.7268C33.5022 35.0262 33.2921 34.9383 33.1358 34.7966C33.1261 34.7868 33.1163 34.7771 33.1065 34.7722C32.9502 34.6159 32.8477 34.3961 32.8477 34.1519V24.9651C32.8477 24.7258 32.9453 24.506 33.1065 24.3448C33.2677 24.1836 33.4826 24.0859 33.722 24.0859L33.7219 24.0957Z" fill="#3B9B7B"/>
<path fill-rule="evenodd" clip-rule="evenodd" d="M21.0034 23.1428C20.9643 23.1476 20.9106 23.1525 20.8471 23.1525C20.7689 23.1525 20.7055 23.1476 20.6566 23.1428C20.6078 23.133 20.5687 23.1232 20.5443 23.1086C20.515 23.0939 20.5003 23.0744 20.4905 23.0548C20.4808 23.0304 20.4808 23.006 20.4857 22.9816L20.5638 22.2196C20.4564 22.205 20.3538 22.1854 20.261 22.161C20.1633 22.1366 20.0803 22.1122 20.0021 22.0829C19.924 22.0536 19.8556 22.0242 19.8019 21.9949C19.7481 21.9656 19.7042 21.9363 19.6749 21.907C19.6456 21.8777 19.626 21.8386 19.6114 21.78C19.5967 21.7263 19.5918 21.6433 19.5918 21.5309C19.5918 21.4479 19.5967 21.3746 19.6016 21.3209C19.6065 21.2672 19.6162 21.2232 19.626 21.1939C19.6407 21.1646 19.6553 21.1451 19.6749 21.1304C19.6944 21.1206 19.7139 21.1158 19.7384 21.1158C19.7725 21.1158 19.8165 21.1353 19.88 21.1695C19.9435 21.2086 20.0216 21.2476 20.1193 21.2916C20.217 21.3356 20.3342 21.3795 20.471 21.4137C20.6078 21.4528 20.7689 21.4674 20.9545 21.4674C21.2476 21.4674 21.4625 21.4137 21.6042 21.3063C21.7458 21.1988 21.8191 21.0523 21.8191 20.8715C21.8191 20.7494 21.7898 20.6518 21.7263 20.5785C21.6628 20.5003 21.5846 20.432 21.482 20.3733C21.3795 20.3147 21.2622 20.261 21.1353 20.217C21.0083 20.1682 20.8764 20.1194 20.7396 20.0705C20.6078 20.0168 20.4759 19.9582 20.344 19.8849C20.217 19.8165 20.0998 19.7286 19.9972 19.626C19.8946 19.5235 19.8165 19.4014 19.753 19.2548C19.6895 19.1083 19.6602 18.9325 19.6602 18.7273C19.6602 18.5417 19.6895 18.3708 19.753 18.2194C19.8165 18.0631 19.9044 17.9312 20.0216 17.814C20.1389 17.6967 20.2854 17.6088 20.4563 17.5356C20.6273 17.4623 20.8227 17.4183 21.0376 17.389L21.1108 16.6368C21.1157 16.6173 21.1206 16.5978 21.1255 16.588C21.1353 16.5733 21.1499 16.5636 21.1743 16.5489C21.1988 16.5391 21.2281 16.5294 21.272 16.5245C21.3111 16.5196 21.3648 16.5147 21.4283 16.5147C21.5065 16.5147 21.57 16.5196 21.6188 16.5245C21.6676 16.5343 21.7116 16.544 21.736 16.5587C21.7653 16.5733 21.78 16.5929 21.7898 16.6124C21.7995 16.6368 21.7995 16.6613 21.7995 16.6857L21.7263 17.3939C21.7946 17.4037 21.8728 17.4184 21.9461 17.433C22.0242 17.4525 22.0975 17.4721 22.161 17.4965C22.2293 17.5209 22.288 17.5453 22.3417 17.5746C22.3954 17.5991 22.4345 17.6235 22.454 17.6479C22.4736 17.6675 22.4931 17.6919 22.5029 17.7114C22.5126 17.7309 22.5224 17.7603 22.5273 17.7896C22.5322 17.8237 22.5371 17.8579 22.5419 17.9019C22.5468 17.9459 22.5468 17.9947 22.5468 18.0533C22.5468 18.1315 22.5468 18.195 22.5419 18.2438C22.5371 18.2926 22.5322 18.3317 22.5224 18.3561C22.5126 18.3806 22.5029 18.4001 22.4882 18.4099C22.4736 18.4196 22.4638 18.4245 22.4443 18.4245C22.4101 18.4245 22.3661 18.4099 22.3026 18.3757C22.2391 18.3415 22.1659 18.3073 22.073 18.2731C21.9802 18.234 21.8777 18.1998 21.7605 18.1705C21.6432 18.1363 21.5114 18.1217 21.3697 18.1217C21.2427 18.1217 21.1304 18.1363 21.0376 18.1608C20.9448 18.1852 20.8715 18.2194 20.8129 18.2633C20.7543 18.3073 20.7152 18.361 20.6859 18.4245C20.6615 18.488 20.6468 18.5564 20.6468 18.6297C20.6468 18.7469 20.6761 18.8446 20.7396 18.9227C20.8031 19.0009 20.8862 19.0741 20.9887 19.1279C21.0913 19.1865 21.2085 19.2353 21.3404 19.2842C21.4723 19.333 21.6042 19.3818 21.7409 19.4356C21.8777 19.4893 22.0096 19.5479 22.1414 19.6163C22.2733 19.6847 22.3857 19.7726 22.4931 19.8703C22.5957 19.9729 22.6787 20.095 22.7373 20.2366C22.8008 20.3831 22.8301 20.5541 22.8301 20.7543C22.8301 20.9692 22.7911 21.1646 22.7178 21.3356C22.6396 21.5065 22.5322 21.6579 22.3954 21.78C22.2538 21.907 22.0877 22.0047 21.8923 22.078C21.697 22.1512 21.4772 22.2001 21.2378 22.2196L21.1597 23.0206C21.1548 23.0402 21.1499 23.0597 21.145 23.0744C21.1353 23.089 21.1206 23.1037 21.0962 23.1135C21.0718 23.1232 21.0425 23.133 20.9985 23.1379L21.0034 23.1428ZM25.3502 15.7095C24.2952 14.6545 22.835 14 21.2232 14C19.6114 14 18.1512 14.6545 17.0962 15.7095C16.0413 16.7645 15.3867 18.2247 15.3867 19.8365C15.3867 21.4483 16.0412 22.9085 17.0962 23.9635C18.1513 25.0185 19.6114 25.673 21.2232 25.673C22.835 25.673 24.2952 25.0185 25.3502 23.9635C26.4052 22.9085 27.0597 21.4483 27.0597 19.8365C27.0597 18.2247 26.4052 16.7645 25.3502 15.7095Z" fill="#3B9B7B"/>
</svg>
