<svg width="50" height="50" viewBox="0 0 50 50" fill="none" xmlns="http://www.w3.org/2000/svg">
<rect width="50" height="50" rx="10" fill="#FDE7E8"/>
<path d="M25 12C25.2698 12 25.5238 12.1271 25.6857 12.343L30.8285 19.2C31.0234 19.4598 31.0547 19.8073 30.9095 20.0978C30.7643 20.3882 30.4675 20.5716 30.1429 20.5716L25.8572 20.5716L25.8572 36.8569C25.8572 37.3304 25.4733 37.7142 25 37.7142C24.5268 37.7142 24.1428 37.3304 24.1428 36.8569L24.1428 20.5716L19.8571 20.5716C19.5325 20.5716 19.2358 20.3882 19.0905 20.0978C18.9453 19.8073 18.9766 19.4598 19.1715 19.2L24.3144 12.343C24.4762 12.1271 24.7302 12 25 12L25 12Z" fill="#D1474E"/>
</svg>
