<svg width="54" height="53" viewBox="0 0 54 53" fill="none" xmlns="http://www.w3.org/2000/svg">
<circle cx="27.0001" cy="26.2857" r="25.2857" fill="#E1F4EA" stroke="#F9F8F9" stroke-width="2"/>
<path d="M37.5893 20.4271L35.5059 17.5104C35.4278 17.401 35.3015 17.3359 35.167 17.3359H18.0837C17.9436 17.3358 17.8129 17.4061 17.7359 17.5231C17.6587 17.6401 17.6454 17.7879 17.7009 17.9167L18.8804 20.6693L17.7009 23.4219C17.6454 23.5506 17.6587 23.6985 17.7359 23.8155C17.8129 23.9325 17.9436 24.0028 18.0837 24.0026H35.167C35.3015 24.0026 35.4278 23.9375 35.5059 23.8282L37.5893 20.9115C37.6931 20.7668 37.6931 20.5718 37.5893 20.4271V20.4271Z" fill="#1F9055"/>
<path d="M35.9313 27.9371C35.8541 27.8203 35.7235 27.75 35.5834 27.75H18.5001C18.3656 27.75 18.2393 27.8151 18.1612 27.9245L16.0778 30.8411C15.9741 30.9859 15.9741 31.1808 16.0778 31.3255L18.1612 34.2422C18.2393 34.3516 18.3656 34.4167 18.5001 34.4167H35.5834C35.7235 34.4169 35.8543 34.3465 35.9313 34.2295C36.0085 34.1125 36.0217 33.9647 35.9662 33.8359L34.7867 31.0833L35.9662 28.3307C36.0215 28.202 36.0085 28.0541 35.9313 27.9371V27.9371Z" fill="#1F9055"/>
<path d="M28.9172 15.6667C28.9173 15.2245 28.7417 14.8006 28.4291 14.4881C28.1166 14.1754 27.6926 13.9998 27.2505 14H26.4172C25.975 13.9998 25.5511 14.1754 25.2386 14.4881C24.9259 14.8006 24.7503 15.2245 24.7505 15.6667V16.5H28.9172V15.6667Z" fill="#1F9055"/>
<path d="M24.7505 24.8359H28.9172V26.9193H24.7505V24.8359Z" fill="#1F9055"/>
<path d="M30.5837 38.1667H28.917V35.25H24.7503V38.1667H23.0837C22.8536 38.1667 22.667 38.3532 22.667 38.5833C22.667 38.8134 22.8536 39 23.0837 39H30.5837C30.8138 39 31.0003 38.8134 31.0003 38.5833C31.0003 38.3532 30.8138 38.1667 30.5837 38.1667Z" fill="#1F9055"/>
</svg>
