<svg width="600" height="230" viewBox="0 0 600 230" fill="none" xmlns="http://www.w3.org/2000/svg">
<path d="M0 10C0 4.47715 4.47715 0 10 0H590C595.523 0 600 4.47715 600 10V230H0V10Z" fill="#F0F3EE"/>
<path d="M228.845 191.113C228.689 191.113 228.557 190.988 228.541 190.832L227.769 182.302C227.707 181.592 227.145 181.015 226.428 180.937L219.738 180.197C219.582 180.181 219.465 180.048 219.465 179.892C219.465 179.737 219.582 179.604 219.738 179.588L226.428 178.848C227.138 178.77 227.707 178.193 227.769 177.483L228.541 168.953C228.557 168.797 228.689 168.672 228.845 168.672C229.009 168.672 229.142 168.797 229.149 168.953L229.921 177.483C229.984 178.2 230.553 178.77 231.262 178.848L237.945 179.588C238.101 179.604 238.218 179.737 238.218 179.892C238.218 180.048 238.101 180.181 237.945 180.197L231.262 180.937C230.553 181.015 229.984 181.592 229.921 182.302L229.149 190.832C229.134 190.988 229.001 191.113 228.845 191.113ZM222.576 179.885L226.49 180.314C227.496 180.423 228.284 181.234 228.377 182.24L228.837 187.363L229.297 182.24C229.391 181.234 230.179 180.423 231.184 180.314L235.099 179.885L231.184 179.448C230.179 179.339 229.391 178.528 229.297 177.522L228.837 172.399L228.377 177.522C228.284 178.528 227.496 179.339 226.49 179.448L222.576 179.885Z" fill="#B0FF8B"/>
<g opacity="0.5">
<path opacity="0.5" d="M238.215 209.001C238.059 209.001 237.919 208.877 237.911 208.721L237.389 202.912C237.35 202.475 236.999 202.116 236.562 202.069L232.009 201.563C231.853 201.547 231.736 201.414 231.736 201.259C231.736 201.103 231.853 200.97 232.009 200.954L236.562 200.448C236.999 200.401 237.35 200.042 237.389 199.605L237.911 193.796C237.927 193.64 238.059 193.516 238.215 193.516C238.371 193.516 238.512 193.64 238.519 193.796L239.042 199.605C239.081 200.042 239.432 200.401 239.868 200.448L244.422 200.954C244.578 200.97 244.695 201.103 244.695 201.259C244.695 201.414 244.578 201.547 244.422 201.563L239.868 202.069C239.432 202.116 239.081 202.475 239.042 202.912L238.519 208.721C238.512 208.877 238.379 209.001 238.215 209.001ZM234.847 201.259L236.632 201.453C237.358 201.531 237.935 202.124 238.005 202.849L238.223 205.251L238.441 202.849C238.504 202.116 239.081 201.531 239.814 201.453L241.599 201.259L239.814 201.064C239.089 200.986 238.512 200.393 238.441 199.668L238.223 197.266L238.005 199.668C237.942 200.401 237.365 200.986 236.632 201.064L234.847 201.259Z" fill="#B0FF8B"/>
</g>
<path d="M211.024 109.692C210.907 109.692 210.814 109.606 210.806 109.489L210.26 103.399C210.213 102.892 209.816 102.479 209.301 102.425L204.529 101.894C204.42 101.879 204.334 101.785 204.334 101.676C204.334 101.567 204.42 101.473 204.529 101.458L209.301 100.927C209.808 100.873 210.213 100.46 210.26 99.9528L210.806 93.8629C210.814 93.7459 210.915 93.6602 211.024 93.6602C211.141 93.6602 211.235 93.7459 211.243 93.8629L211.788 99.9528C211.835 100.46 212.241 100.873 212.747 100.927L217.52 101.458C217.629 101.473 217.715 101.567 217.715 101.676C217.715 101.785 217.629 101.879 217.52 101.894L212.747 102.425C212.241 102.479 211.835 102.892 211.788 103.399L211.243 109.489C211.235 109.606 211.133 109.692 211.024 109.692ZM206.556 101.684L209.348 101.996C210.065 102.074 210.627 102.651 210.697 103.368L211.024 107.025L211.352 103.368C211.414 102.651 211.983 102.074 212.701 101.996L215.492 101.684L212.701 101.372C211.983 101.294 211.422 100.717 211.352 99.9995L211.024 96.3425L210.697 99.9995C210.634 100.717 210.065 101.294 209.348 101.372L206.556 101.684Z" fill="#B0FF8B"/>
<g opacity="0.5">
<path opacity="0.5" d="M202.774 118.865C202.68 118.865 202.602 118.795 202.595 118.702L202.291 115.318C202.267 115.06 202.064 114.858 201.807 114.826L199.156 114.53C199.062 114.522 199 114.444 199 114.351C199 114.257 199.07 114.179 199.156 114.171L201.807 113.875C202.064 113.844 202.267 113.641 202.291 113.384L202.595 110C202.602 109.906 202.68 109.836 202.774 109.836C202.868 109.836 202.946 109.906 202.953 110L203.257 113.384C203.281 113.641 203.484 113.844 203.741 113.875L206.392 114.171C206.486 114.179 206.548 114.257 206.548 114.351C206.548 114.444 206.478 114.522 206.392 114.53L203.741 114.826C203.484 114.858 203.281 115.06 203.257 115.318L202.953 118.702C202.946 118.795 202.868 118.865 202.774 118.865ZM200.809 114.351L201.846 114.468C202.267 114.514 202.61 114.858 202.649 115.286L202.774 116.69L202.899 115.286C202.938 114.858 203.273 114.514 203.702 114.468L204.739 114.351L203.702 114.234C203.281 114.187 202.938 113.844 202.899 113.415L202.774 112.011L202.649 113.415C202.61 113.844 202.275 114.187 201.846 114.234L200.809 114.351Z" fill="#B0FF8B"/>
</g>
<path d="M378.032 208.54C377.907 208.54 377.806 208.447 377.79 208.322L377.19 201.64C377.143 201.078 376.698 200.626 376.137 200.564L370.897 199.987C370.772 199.971 370.679 199.87 370.679 199.745C370.679 199.62 370.772 199.519 370.897 199.503L376.137 198.926C376.698 198.864 377.135 198.411 377.19 197.858L377.79 191.168C377.798 191.043 377.907 190.949 378.032 190.949C378.157 190.949 378.258 191.043 378.273 191.168L378.874 197.858C378.921 198.419 379.365 198.871 379.927 198.926L385.166 199.503C385.291 199.519 385.385 199.62 385.385 199.745C385.385 199.87 385.291 199.971 385.166 199.987L379.927 200.564C379.365 200.626 378.928 201.078 378.874 201.64L378.273 208.322C378.258 208.447 378.157 208.54 378.032 208.54ZM373.119 199.745L376.192 200.08C376.979 200.166 377.595 200.805 377.673 201.593L378.032 205.609L378.39 201.593C378.461 200.805 379.084 200.174 379.872 200.08L382.944 199.745L379.872 199.402C379.084 199.316 378.468 198.684 378.39 197.897L378.032 193.881L377.673 197.897C377.603 198.684 376.979 199.316 376.192 199.402L373.119 199.745Z" fill="#B0FF8B"/>
<g opacity="0.5">
<path opacity="0.5" d="M396.229 197.098C396.127 197.098 396.042 197.02 396.034 196.919L395.699 193.199C395.675 192.919 395.449 192.693 395.168 192.661L392.252 192.342C392.151 192.334 392.073 192.248 392.073 192.147C392.073 192.045 392.151 191.96 392.252 191.952L395.168 191.632C395.449 191.601 395.675 191.375 395.699 191.094L396.034 187.375C396.042 187.273 396.127 187.195 396.229 187.195C396.33 187.195 396.416 187.273 396.424 187.375L396.759 191.094C396.782 191.375 397.009 191.601 397.289 191.632L400.206 191.952C400.307 191.96 400.377 192.045 400.377 192.147C400.377 192.248 400.299 192.334 400.206 192.342L397.289 192.661C397.009 192.693 396.782 192.919 396.759 193.199L396.424 196.919C396.416 197.02 396.33 197.098 396.229 197.098ZM394.069 192.139L395.207 192.264C395.675 192.318 396.042 192.693 396.088 193.16L396.229 194.697L396.369 193.16C396.408 192.693 396.782 192.318 397.25 192.264L398.389 192.139L397.25 192.014C396.782 191.96 396.416 191.585 396.369 191.117L396.229 189.581L396.088 191.117C396.05 191.585 395.675 191.96 395.207 192.014L394.069 192.139Z" fill="#B0FF8B"/>
</g>
<g opacity="0.5">
<path opacity="0.5" d="M385.439 181.805C385.276 181.805 385.135 181.681 385.127 181.517L384.589 175.544C384.55 175.092 384.192 174.725 383.74 174.678L379.061 174.164C378.897 174.148 378.78 174.008 378.78 173.852C378.78 173.688 378.905 173.556 379.061 173.54L383.74 173.025C384.192 172.979 384.55 172.612 384.589 172.16L385.127 166.195C385.143 166.031 385.276 165.906 385.439 165.906C385.603 165.906 385.743 166.031 385.751 166.195L386.289 172.168C386.328 172.62 386.687 172.986 387.139 173.033L391.818 173.548C391.981 173.563 392.098 173.704 392.098 173.86C392.098 174.023 391.974 174.156 391.818 174.172L387.139 174.686C386.687 174.733 386.328 175.1 386.289 175.552L385.751 181.517C385.743 181.681 385.603 181.805 385.439 181.805ZM381.977 173.852L383.81 174.055C384.558 174.14 385.151 174.741 385.221 175.489L385.447 177.961L385.665 175.489C385.736 174.741 386.328 174.133 387.077 174.047L388.909 173.844L387.077 173.641C386.328 173.556 385.736 172.955 385.665 172.207L385.447 169.735L385.221 172.207C385.151 172.955 384.558 173.563 383.81 173.649L381.977 173.852Z" fill="#B0FF8B"/>
</g>
<path d="M385.719 130.179C385.57 130.179 385.453 130.07 385.438 129.922L384.728 122.085C384.666 121.43 384.151 120.9 383.496 120.83L377.352 120.152C377.211 120.136 377.102 120.011 377.102 119.871C377.102 119.723 377.211 119.606 377.352 119.59L383.496 118.912C384.151 118.842 384.666 118.311 384.728 117.656L385.438 109.82C385.453 109.672 385.57 109.562 385.719 109.562C385.867 109.562 385.984 109.672 385.999 109.82L386.709 117.656C386.771 118.311 387.286 118.842 387.941 118.912L394.085 119.59C394.226 119.606 394.335 119.73 394.335 119.871C394.335 120.019 394.226 120.136 394.085 120.152L387.941 120.83C387.286 120.9 386.763 121.43 386.709 122.085L385.999 129.922C385.984 130.062 385.867 130.179 385.719 130.179ZM379.964 119.863L383.559 120.261C384.479 120.362 385.204 121.103 385.29 122.031L385.711 126.74L386.132 122.031C386.218 121.111 386.943 120.362 387.863 120.261L391.458 119.863L387.863 119.465C386.943 119.364 386.21 118.623 386.132 117.695L385.711 112.986L385.29 117.695C385.204 118.615 384.479 119.364 383.559 119.465L379.964 119.863Z" fill="#B0FF8B"/>
<g opacity="0.5">
<path opacity="0.5" d="M374.557 110.493C374.44 110.493 374.338 110.4 374.323 110.283L373.933 105.924C373.902 105.596 373.645 105.331 373.317 105.292L369.902 104.918C369.785 104.902 369.699 104.809 369.699 104.684C369.699 104.567 369.785 104.466 369.902 104.458L373.317 104.084C373.645 104.045 373.91 103.78 373.933 103.452L374.323 99.0933C374.331 98.9764 374.432 98.8828 374.557 98.8828C374.674 98.8828 374.775 98.9764 374.791 99.0933L375.181 103.452C375.212 103.78 375.469 104.045 375.804 104.084L379.22 104.458C379.337 104.474 379.422 104.567 379.422 104.684C379.422 104.801 379.337 104.902 379.22 104.918L375.804 105.292C375.477 105.331 375.212 105.596 375.181 105.924L374.791 110.283C374.775 110.4 374.674 110.493 374.557 110.493ZM372.023 104.684L373.364 104.832C373.91 104.895 374.346 105.331 374.393 105.885L374.557 107.686L374.721 105.885C374.767 105.339 375.204 104.895 375.75 104.832L377.091 104.684L375.75 104.536C375.204 104.474 374.767 104.037 374.721 103.483L374.557 101.682L374.393 103.483C374.346 104.029 373.91 104.474 373.364 104.536L372.023 104.684Z" fill="#B0FF8B"/>
</g>
<path d="M235.625 52.1102C235.484 52.1102 235.367 52.001 235.352 51.8607L234.673 44.3049C234.619 43.6733 234.12 43.1665 233.488 43.0963L227.57 42.4413C227.429 42.4257 227.328 42.3087 227.328 42.1684C227.328 42.028 227.429 41.9111 227.57 41.8955L233.488 41.2405C234.12 41.1703 234.619 40.6635 234.673 40.0319L235.352 32.4761C235.367 32.3357 235.484 32.2266 235.625 32.2266C235.765 32.2266 235.882 32.3357 235.898 32.4761L236.576 40.0319C236.631 40.6635 237.13 41.1703 237.761 41.2405L243.679 41.8955C243.82 41.9111 243.921 42.028 243.921 42.1684C243.921 42.3087 243.82 42.4257 243.679 42.4413L237.761 43.0963C237.13 43.1665 236.631 43.6733 236.576 44.3049L235.898 51.8607C235.89 52.0088 235.765 52.1102 235.625 52.1102ZM230.081 42.1762L233.551 42.5583C234.439 42.6596 235.141 43.3692 235.219 44.2659L235.625 48.8041L236.03 44.2659C236.108 43.377 236.81 42.6596 237.699 42.5583L241.169 42.1762L237.699 41.7941C236.81 41.6927 236.108 40.9832 236.03 40.0865L235.625 35.5483L235.219 40.0865C235.141 40.9754 234.439 41.6927 233.551 41.7941L230.081 42.1762Z" fill="#B0FF8B"/>
<g opacity="0.5">
<path opacity="0.5" d="M227.327 72.3147C227.21 72.3147 227.116 72.2289 227.108 72.1119L226.734 67.9637C226.703 67.6518 226.461 67.3945 226.141 67.3633L222.89 67.0046C222.781 66.989 222.695 66.8954 222.695 66.7862C222.695 66.6771 222.781 66.5835 222.89 66.5679L226.141 66.2092C226.453 66.178 226.703 65.9207 226.734 65.6088L227.108 61.4605C227.116 61.3436 227.217 61.2578 227.327 61.2578C227.444 61.2578 227.537 61.3436 227.545 61.4605L227.919 65.6088C227.95 65.9207 228.192 66.178 228.512 66.2092L231.763 66.5679C231.872 66.5835 231.958 66.6771 231.958 66.7862C231.958 66.8954 231.872 66.989 231.763 67.0046L228.512 67.3633C228.2 67.3945 227.95 67.6518 227.919 67.9637L227.545 72.1119C227.529 72.2289 227.436 72.3147 227.327 72.3147ZM224.917 66.7784L226.188 66.9188C226.711 66.9734 227.124 67.3945 227.171 67.9169L227.327 69.6401L227.482 67.9169C227.529 67.3945 227.943 66.9734 228.465 66.9188L229.736 66.7784L228.465 66.6381C227.943 66.5835 227.529 66.1624 227.482 65.64L227.327 63.9168L227.171 65.64C227.124 66.1624 226.711 66.5835 226.188 66.6381L224.917 66.7784Z" fill="#B0FF8B"/>
</g>
<g opacity="0.5">
<path opacity="0.5" d="M254.367 55.4643C254.219 55.4643 254.094 55.3474 254.078 55.1992L253.587 49.7644C253.548 49.3511 253.229 49.0236 252.815 48.9768L248.558 48.509C248.41 48.4934 248.301 48.3686 248.301 48.2204C248.301 48.0723 248.41 47.9475 248.558 47.9319L252.815 47.4641C253.229 47.4173 253.548 47.0898 253.587 46.6765L254.078 41.2417C254.094 41.0935 254.219 40.9766 254.367 40.9766C254.515 40.9766 254.64 41.0935 254.656 41.2417L255.147 46.6765C255.186 47.0898 255.505 47.4173 255.919 47.4641L260.176 47.9319C260.324 47.9475 260.433 48.0723 260.433 48.2204C260.433 48.3686 260.324 48.4934 260.176 48.509L255.919 48.9768C255.505 49.0236 255.186 49.3511 255.147 49.7644L254.656 55.1992C254.64 55.3474 254.515 55.4643 254.367 55.4643ZM251.217 48.2204L252.885 48.4076C253.564 48.4856 254.11 49.0314 254.172 49.7176L254.375 51.971L254.578 49.7176C254.64 49.0314 255.178 48.4856 255.856 48.4076L257.525 48.2204L255.856 48.0333C255.178 47.9553 254.632 47.4095 254.578 46.7233L254.375 44.4698L254.172 46.7233C254.11 47.4095 253.572 47.9553 252.885 48.0333L251.217 48.2204Z" fill="#B0FF8B"/>
</g>
<g opacity="0.5">
<path opacity="0.5" d="M295.91 38.8716C295.808 38.8716 295.722 38.7937 295.715 38.6923L295.379 34.9885C295.356 34.7078 295.13 34.4816 294.849 34.4505L291.948 34.1308C291.847 34.123 291.777 34.0372 291.777 33.9358C291.777 33.8345 291.855 33.7487 291.948 33.7409L294.849 33.4212C295.13 33.39 295.348 33.1639 295.379 32.8832L295.715 29.1793C295.722 29.078 295.808 29 295.91 29C296.011 29 296.097 29.078 296.104 29.1793L296.44 32.8832C296.463 33.1639 296.689 33.39 296.97 33.4212L299.871 33.7409C299.972 33.7487 300.042 33.8345 300.042 33.9358C300.042 34.0372 299.964 34.123 299.871 34.1308L296.97 34.4505C296.689 34.4816 296.471 34.7078 296.44 34.9885L296.104 38.6923C296.097 38.7937 296.011 38.8716 295.91 38.8716ZM293.765 33.9358L294.904 34.0606C295.372 34.1152 295.738 34.4894 295.777 34.9495L295.917 36.4856L296.058 34.9495C296.097 34.4816 296.471 34.1074 296.931 34.0528L298.069 33.928L296.931 33.8033C296.463 33.7487 296.097 33.3744 296.058 32.9143L295.917 31.3782L295.777 32.9143C295.738 33.3822 295.364 33.7565 294.904 33.8111L293.765 33.9358Z" fill="#B0FF8B"/>
</g>
<g opacity="0.5">
<path opacity="0.5" d="M309.91 48.0926C309.754 48.0926 309.629 47.9756 309.614 47.8275L309.115 42.2679C309.076 41.8468 308.74 41.5037 308.327 41.4647L303.968 40.9813C303.82 40.9657 303.703 40.8409 303.703 40.685C303.703 40.529 303.812 40.4121 303.968 40.3887L308.327 39.9052C308.748 39.8584 309.083 39.5231 309.115 39.1021L309.614 33.5425C309.629 33.3865 309.754 33.2773 309.91 33.2773C310.066 33.2773 310.191 33.3943 310.206 33.5425L310.705 39.1021C310.744 39.5231 311.08 39.8662 311.493 39.9052L315.852 40.3887C316 40.4043 316.117 40.529 316.117 40.685C316.117 40.8409 316.008 40.9579 315.852 40.9813L311.493 41.4647C311.072 41.5115 310.736 41.8468 310.705 42.2679L310.206 47.8275C310.191 47.9834 310.058 48.0926 309.91 48.0926ZM306.682 40.685L308.389 40.8721C309.083 40.9501 309.637 41.5115 309.699 42.2133L309.91 44.5136L310.12 42.2133C310.183 41.5115 310.736 40.9501 311.43 40.8721L313.138 40.685L311.43 40.4978C310.736 40.4199 310.183 39.8584 310.12 39.1567L309.91 36.8564L309.699 39.1567C309.637 39.8584 309.083 40.4199 308.389 40.4978L306.682 40.685Z" fill="#B0FF8B"/>
</g>
<path d="M339.313 82.5177C339.204 82.5177 339.118 82.4319 339.102 82.3305L338.58 76.5604C338.533 76.0769 338.159 75.687 337.675 75.6325L333.153 75.1334C333.051 75.1256 332.966 75.032 332.966 74.9229C332.966 74.8137 333.044 74.7279 333.153 74.7124L337.675 74.2133C338.159 74.1587 338.541 73.7689 338.58 73.2854L339.102 67.5075C339.11 67.3983 339.204 67.3203 339.313 67.3203C339.422 67.3203 339.508 67.4061 339.523 67.5075L340.046 73.2854C340.092 73.7689 340.475 74.1587 340.95 74.2133L345.473 74.7124C345.582 74.7201 345.66 74.8137 345.66 74.9229C345.66 75.032 345.582 75.1178 345.473 75.1334L340.95 75.6325C340.467 75.687 340.085 76.0769 340.046 76.5604L339.523 82.3305C339.508 82.4319 339.422 82.5177 339.313 82.5177ZM335.071 74.9151L337.722 75.2114C338.4 75.2894 338.938 75.8352 339.001 76.5136L339.313 79.9835L339.625 76.5136C339.687 75.8352 340.225 75.2894 340.903 75.2114L343.555 74.9151L340.903 74.6188C340.225 74.5408 339.687 73.995 339.625 73.3166L339.313 69.8467L339.001 73.3166C338.938 73.995 338.4 74.5408 337.722 74.6188L335.071 74.9151Z" fill="#B0FF8B"/>
<g opacity="0.5">
<path opacity="0.5" d="M353.569 73.7462C353.428 73.7462 353.304 73.6371 353.288 73.4967L352.594 65.8006C352.539 65.1534 352.025 64.6388 351.385 64.5686L345.35 63.9058C345.21 63.8902 345.101 63.7732 345.101 63.6329C345.101 63.4925 345.21 63.3756 345.35 63.36L351.385 62.6894C352.025 62.6192 352.539 62.0968 352.594 61.4574L353.288 53.7612C353.304 53.6209 353.421 53.5117 353.569 53.5117C353.709 53.5117 353.834 53.6209 353.842 53.7612L354.536 61.4574C354.59 62.1046 355.105 62.6192 355.744 62.6894L361.779 63.36C361.92 63.3756 362.029 63.4925 362.029 63.6329C362.029 63.7732 361.92 63.8902 361.779 63.9058L355.744 64.5686C355.105 64.6388 354.59 65.1612 354.536 65.8006L353.849 73.4967C353.834 73.6371 353.717 73.7462 353.569 73.7462ZM347.915 63.6173L351.448 64.0072C352.352 64.1085 353.07 64.8415 353.148 65.746L353.569 70.3699L353.982 65.746C354.068 64.8415 354.777 64.1085 355.682 64.0072L359.214 63.6173L355.682 63.2274C354.777 63.126 354.06 62.4009 353.982 61.4886L353.569 56.8646L353.148 61.4886C353.07 62.3931 352.352 63.126 351.448 63.2274L347.915 63.6173Z" fill="#B0FF8B"/>
</g>
<g clip-path="url(#clip0_8783_56630)">
<path d="M250.594 87.7972C250.594 105.518 264.999 119.922 282.72 119.922C300.44 119.922 314.845 105.518 314.845 87.7972C314.845 70.0768 300.44 55.6719 282.72 55.6719C264.999 55.6719 250.594 70.0768 250.594 87.7972ZM307.757 87.7972C307.757 101.448 296.69 112.491 283.063 112.491C269.412 112.491 258.368 101.425 258.368 87.7972C258.368 74.1468 269.412 63.103 283.063 63.103C296.69 63.103 307.757 74.1468 307.757 87.7972Z" fill="#000000"/>
<path d="M278.787 81.0986C278.787 82.242 279.427 83.0423 280.662 83.4996V78.7891L280.456 78.8805C279.313 79.4065 278.787 80.1382 278.787 81.0986Z" fill="#000000"/>
<path d="M286.561 96.3037C286.767 96.2123 286.995 96.0979 287.178 95.9836C288.276 95.3204 288.825 94.3829 288.847 93.1481C288.847 91.8447 288.093 90.9529 286.561 90.4727V96.3037Z" fill="#000000"/>
<path d="M258.368 87.7957C258.368 101.446 269.412 112.49 283.063 112.49C296.713 112.49 307.757 101.423 307.757 87.7957C307.757 74.1453 296.69 63.1016 283.063 63.1016C269.412 63.1016 258.368 74.1453 258.368 87.7957ZM286.561 69.2751V72.2704C289.671 72.8192 292.231 74.2139 294.198 76.4547C294.472 76.7062 294.609 77.0035 294.609 77.3464C294.609 77.7809 294.381 78.1239 293.946 78.3982L290.768 80.3875C290.768 80.3875 290.196 80.6619 289.808 80.6619C289.305 80.6619 288.87 80.5018 288.482 80.1817C287.864 79.6558 287.224 79.2214 286.561 78.9241V84.2517C290.357 84.7776 293.146 86.1266 294.93 88.253C296.027 89.5792 296.553 91.2026 296.53 93.1233C296.461 96.1872 295.112 98.588 292.483 100.326C290.814 101.423 288.825 102.132 286.561 102.475V105.105C286.561 105.951 285.875 106.636 285.029 106.636H282.194C281.348 106.636 280.662 105.951 280.662 105.105V102.475C278.101 102.063 275.814 101.08 273.757 99.5255C272.499 98.5652 271.493 97.5591 270.738 96.5073C270.51 96.2558 270.418 95.9814 270.395 95.6842C270.395 95.2269 270.624 94.8382 271.127 94.5638L274.008 92.8718C274.008 92.8718 274.557 92.6203 274.854 92.6203C275.38 92.6203 275.792 92.826 276.112 93.2376C277.529 94.7924 279.061 95.8442 280.662 96.393V89.7393C276.958 89.1676 274.282 87.7729 272.613 85.555C271.63 84.2517 271.127 82.7426 271.104 81.0734C271.036 77.6437 272.911 75.0371 276.706 73.2993C277.895 72.7506 279.198 72.3847 280.662 72.179V69.2751C280.662 68.4291 281.348 67.7203 282.194 67.7203H285.029C285.875 67.7432 286.561 68.4291 286.561 69.2751Z" fill="#000000"/>
<path d="M373.974 142.124L374.019 141.987C363.09 141.987 356.413 135.333 348.365 129.708C342.534 125.638 335.972 122.117 326.552 122.117C322.322 122.117 318.732 122.163 315.668 122.254H293.443C290.196 122.254 287.567 124.884 287.567 128.131C287.567 131.378 290.196 134.007 293.443 134.007H306.042H314.319C318.526 134.693 321.75 138.328 321.75 142.741C321.75 146.08 319.898 148.961 317.154 150.447C316.491 150.63 313.313 151.476 309.037 152.596C306.293 153.259 303.687 153.945 301.24 154.654L300.714 154.791C291.545 157.215 281.691 159.822 279.907 160.233C278.718 160.302 277.644 160.256 276.683 160.004L243.826 138.74L237.881 134.441C237.607 134.258 237.287 134.098 236.99 133.938C236.555 133.71 236.098 133.504 235.618 133.367C235.252 133.252 234.863 133.161 234.452 133.115C234.04 133.047 233.606 133.001 233.171 133.001C232.577 133.001 232.005 133.07 231.456 133.184C226.609 133.595 222.768 137.62 222.768 142.581C222.768 145.211 223.865 147.566 225.58 149.258L225.626 149.281C226.312 149.944 227.089 150.538 227.958 150.973L230.222 152.619L281.736 189.958C281.942 190.026 282.171 190.118 282.377 190.209C283.543 190.621 284.755 190.872 286.058 190.872C286.812 190.872 287.544 190.781 288.276 190.644L288.527 190.575C305.973 186.139 342.031 176.97 358.906 172.809C359.317 172.649 359.706 172.512 360.118 172.352C364.416 171.277 370.292 169.996 373.974 169.996V167.527H374.019L373.974 164.143V142.833V142.124V142.124Z" fill="#000000"/>
<ellipse cx="283" cy="87.5" rx="23" ry="22.5" fill="#000000"/>
<path d="M288.175 87.435H284.14L285.055 89.085H288.175V87.435ZM288.28 94.875C288.25 94.545 288.225 94.22 288.205 93.9C288.185 93.58 288.175 93.28 288.175 93V90.915H286.075L288.28 94.875ZM281.875 89.085L280.96 87.435H277.75V89.085H281.875ZM277.66 81.51C277.69 81.83 277.71 82.145 277.72 82.455C277.74 82.755 277.75 83.035 277.75 83.295V85.62H279.94L277.66 81.51ZM291.055 87.435V89.085H293.605V90.06C293.605 90.28 293.515 90.48 293.335 90.66C293.165 90.83 292.95 90.915 292.69 90.915H291.055V99H288.265C287.995 99 287.765 98.955 287.575 98.865C287.385 98.765 287.205 98.605 287.035 98.385L282.88 90.915H277.75V99H274.87V90.915H272.32V89.085H274.87V87.435H272.32V86.475C272.32 86.255 272.405 86.06 272.575 85.89C272.755 85.71 272.98 85.62 273.25 85.62H274.87V77.4H277.69C277.84 77.4 277.97 77.41 278.08 77.43C278.19 77.44 278.285 77.465 278.365 77.505C278.455 77.545 278.54 77.605 278.62 77.685C278.7 77.765 278.785 77.865 278.875 77.985L283.12 85.62H288.175V77.4H291.055V85.62H293.605V87.435H291.055Z" fill="white"/>
</g>
<defs>
<clipPath id="clip0_8783_56630">
<rect width="151.252" height="135.223" fill="white" transform="translate(222.768 55.6719)"/>
</clipPath>
</defs>
</svg>
