<svg width="50" height="50" viewBox="0 0 50 50" fill="none" xmlns="http://www.w3.org/2000/svg">
<rect width="50" height="50" rx="10" fill="#000000"/>
<path d="M30.6517 17.7766L26.9924 21.4364C26.5583 21.87 26.5583 22.5736 26.9924 23.0075C27.4328 23.4481 28.1349 23.4358 28.5637 23.0075L34.1196 17.4511C34.5537 17.017 34.5537 16.3134 34.1196 15.8798L28.5632 10.3251C28.1289 9.89171 27.426 9.89147 26.9919 10.3253C26.5578 10.7594 26.5578 11.4625 26.9919 11.8966L30.651 15.5543L22.2225 15.5545C15.4827 15.5545 10 21.0376 10 27.777C10 28.3906 10.4976 28.888 11.1109 28.888C11.7243 28.888 12.2219 28.3906 12.2219 27.777C12.2219 22.263 16.7082 17.7771 22.2224 17.7771L30.6517 17.7766ZM38.8891 21.1113C38.2755 21.1113 37.7777 21.6089 37.7777 22.2223C37.7777 27.7363 33.2919 32.2222 27.7778 32.2222H19.3493L23.0084 28.5627C23.4425 28.1297 23.4425 27.4257 23.0084 26.9914C22.5678 26.551 21.8658 26.564 21.4373 26.9914L15.8814 32.548C15.4473 32.9823 15.4473 33.6857 15.8814 34.12L21.437 39.674C21.8711 40.1077 22.574 40.1082 23.0081 39.674C23.4422 39.2399 23.4422 38.5364 23.0081 38.1025L19.3484 34.4442H27.7775C34.5173 34.4442 40 28.9615 40 22.2229C40 21.6095 39.5027 21.1119 38.8891 21.1119L38.8891 21.1113Z" fill="#000000"/>
</svg>
