<svg width="50" height="50" viewBox="0 0 50 50" fill="none" xmlns="http://www.w3.org/2000/svg">
<rect width="50" height="50" rx="10" fill="#F0F8FF"/>
<path fill-rule="evenodd" clip-rule="evenodd" d="M15.8014 31.2865C15.8013 31.3858 15.8407 31.4809 15.911 31.551C15.9811 31.6213 16.0764 31.6606 16.1755 31.6604H20.0729C20.2792 31.6604 20.4466 31.493 20.4466 31.2865C20.4466 31.08 20.2792 30.9126 20.0729 30.9126H16.1755C15.969 30.9126 15.8016 31.08 15.8014 31.2865ZM33.2224 25.1003C33.2224 25.2918 33.1463 25.4755 33.0108 25.611C32.8753 25.7465 32.6917 25.8225 32.5002 25.8225C32.3086 25.8225 32.125 25.7465 31.9895 25.611C31.854 25.4754 31.7779 25.2918 31.7779 25.1003C31.7779 24.9088 31.854 24.7251 31.9895 24.5896C32.125 24.4541 32.3086 24.3781 32.5002 24.3781C32.6917 24.3781 32.8753 24.4541 33.0108 24.5896C33.1463 24.7251 33.2224 24.9088 33.2224 25.1003ZM31.0308 25.1003H31.0306C31.0308 25.4901 31.1856 25.864 31.4613 26.1395C31.737 26.415 32.1109 26.5698 32.5007 26.5698C32.8904 26.5696 33.2644 26.4146 33.5399 26.1391C33.8154 25.8634 33.9702 25.4895 33.9702 25.0997C33.97 24.71 33.815 24.336 33.5395 24.0605C33.2638 23.785 32.8899 23.6302 32.5001 23.6302C32.1105 23.631 31.7372 23.7861 31.4616 24.0616C31.1863 24.3372 31.0313 24.7107 31.0306 25.1003L31.0308 25.1003ZM13 17.0873C13.0004 16.799 13.115 16.5226 13.319 16.3188C13.5228 16.115 13.7992 16.0004 14.0875 16H34.643C34.9312 16.0004 35.2076 16.115 35.4114 16.3188C35.6152 16.5226 35.7298 16.799 35.7302 17.0873V21.4137H32.0968C30.7799 21.4137 29.5628 22.1163 28.9044 23.2568C28.2458 24.3975 28.2458 25.8027 28.9044 26.9433C29.5628 28.0838 30.7799 28.7864 32.0968 28.7864H35.7302V33.1128C35.73 33.4011 35.6154 33.6775 35.4116 33.8813C35.2076 34.0851 34.9312 34.1998 34.643 34.2001H14.0875C13.7992 34.1998 13.5228 34.0851 13.319 33.8813C13.115 33.6775 13.0004 33.4011 13 33.1128V17.0873ZM37.9998 23.249H38C37.9995 22.9607 37.8847 22.6845 37.6809 22.4807C37.4771 22.2769 37.2006 22.1621 36.9125 22.1616H32.0969C31.0472 22.1616 30.0772 22.7216 29.5523 23.6307C29.0274 24.5398 29.0274 25.66 29.5523 26.5691C30.0772 27.4782 31.0472 28.0382 32.0969 28.0382H36.9125C37.2008 28.0379 37.4772 27.9233 37.681 27.7193C37.8849 27.5155 37.9996 27.2391 38 26.9507L37.9998 23.249Z" fill="#2F6AA4"/>
</svg>
