<svg width="50" height="50" viewBox="0 0 50 50" fill="none" xmlns="http://www.w3.org/2000/svg">
<path d="M41.3152 15.6607C41.3152 21.0585 36.9394 25.4344 31.5412 25.4344C26.1434 25.4344 21.7676 21.0585 21.7676 15.6607C21.7676 10.2626 26.1434 5.88672 31.5412 5.88672C36.9394 5.88672 41.3152 10.2626 41.3152 15.6607Z" fill="#FFDC45"/>
<path d="M31.5412 5.88672C30.887 5.88672 30.2473 5.95119 29.6289 6.07402C34.1116 6.96284 37.4921 10.9168 37.4921 15.6607C37.4921 20.4043 34.1123 24.3582 29.6297 25.2471C30.248 25.3695 30.887 25.4344 31.5412 25.4344C36.9394 25.4344 41.3152 21.0585 41.3152 15.6607C41.3152 10.2626 36.939 5.88672 31.5412 5.88672Z" fill="#D6B93A"/>
<path d="M22.2464 15.6607C22.2464 21.0585 17.8705 25.4344 12.4724 25.4344C7.07457 25.4344 2.69873 21.0585 2.69873 15.6607C2.69873 10.2626 7.07457 5.88672 12.4724 5.88672C17.8705 5.88672 22.2464 10.2626 22.2464 15.6607Z" fill="#FFDC45"/>
<path d="M12.4726 5.88672C12.3398 5.88672 12.2078 5.89015 12.0762 5.89549C10.368 7.65521 9.31592 10.0554 9.31592 12.7021C9.31592 18.0999 13.6918 22.4757 19.0896 22.4757C19.2227 22.4757 19.3547 22.4723 19.4863 22.4669C21.1945 20.7072 22.2466 18.307 22.2466 15.6607C22.2466 10.2626 17.8708 5.88672 12.4726 5.88672Z" fill="#D6B93A"/>
<path d="M31.7811 12.7037C31.7811 18.1015 27.4048 22.4773 22.007 22.4773C16.6092 22.4773 12.2334 18.1015 12.2334 12.7037C12.2334 7.30553 16.6092 2.92969 22.007 2.92969C27.4048 2.92969 31.7811 7.30553 31.7811 12.7037Z" fill="#FFDC45"/>
<path d="M22.007 2.92969C21.2994 2.92969 20.6078 3.00522 19.9429 3.14827C24.3504 4.09508 27.6562 8.01315 27.6562 12.7037C27.6562 17.3939 24.3519 21.312 19.9448 22.2588C20.6097 22.4014 21.2994 22.4773 22.007 22.4773C27.4052 22.4773 31.781 18.1015 31.781 12.7037C31.781 7.30553 27.4052 2.92969 22.007 2.92969Z" fill="#D6B93A"/>
<path d="M40.5861 47.0248H3.42789C1.53465 47.0248 0 45.4902 0 43.5969V19.44C0 17.5468 1.53465 16.0117 3.42789 16.0117H40.5861C42.4793 16.0117 44.014 17.5468 44.014 19.44V43.5969C44.014 45.4902 42.4793 47.0248 40.5861 47.0248Z" fill="#000000"/>
<path d="M41.6664 16.1875V40.8404C41.6664 42.8503 40.0372 44.4796 38.0272 44.4796H0.115234C0.504333 45.9456 1.83986 47.0255 3.42792 47.0255H40.5861C42.4794 47.0255 44.014 45.4909 44.014 43.5976V19.4407C44.014 17.9251 43.0302 16.6399 41.6664 16.1875V16.1875Z" fill="#518C36"/>
<path d="M47.9671 35.8491H37.7975C36.6748 35.8491 35.7646 34.9389 35.7646 33.8162V29.2164C35.7646 28.0938 36.6748 27.1836 37.7975 27.1836H47.9671C49.0898 27.1836 50 28.0938 50 29.2164V33.8162C50 34.9389 49.0898 35.8491 47.9671 35.8491V35.8491Z" fill="#518C36"/>
<path d="M47.9671 27.1836H45.6592C46.3115 27.5777 46.7475 28.2933 46.7475 29.1108V33.9215C46.7475 34.739 46.3115 35.4546 45.6592 35.8491H47.9671C49.0897 35.8491 49.9999 34.9389 49.9999 33.8158V29.2164C49.9999 28.0938 49.0897 27.1836 47.9671 27.1836V27.1836Z" fill="#000080"/>
<path d="M40.5266 30.7148H38.6486C38.2316 30.7148 37.894 31.0528 37.894 31.4694C37.894 31.8863 38.2316 32.2239 38.6486 32.2239H40.5266C40.9431 32.2239 41.2811 31.8863 41.2811 31.4694C41.2811 31.0528 40.9431 30.7148 40.5266 30.7148V30.7148Z" fill="#E1E3FA"/>
</svg>
