<svg width="148" height="34" viewBox="0 0 148 34" fill="none" xmlns="http://www.w3.org/2000/svg">
<path opacity="0.99" d="M0.483887 0.435547H147.339V33.0536H0.483887V0.435547Z" fill="black"/>
<path d="M45.5209 20.754L45.9085 22.1971L45.7238 22.2906C45.2907 22.498 44.8689 22.6371 44.2191 22.6371C42.7988 22.6371 41.9187 21.7617 41.9187 20.3527L41.9165 16.1121H40.4573V14.6553H41.9165V12.5647L43.6674 12.095V14.6553H45.5164V16.1121H43.6674L43.6697 20.1293C43.6697 20.6422 44.0117 20.9956 44.5406 21.0275C44.8347 21.0458 45.1265 20.9591 45.3841 20.8269L45.5209 20.754ZM88.6195 14.653V22.5505H90.3705V14.653H88.6195ZM99.7749 18.6018C99.7749 20.9021 98.0468 22.6371 95.7532 22.6371C93.4506 22.6371 91.7156 20.9021 91.7156 18.6018C91.7156 16.3014 93.4506 14.5664 95.7532 14.5664C98.0468 14.5664 99.7749 16.3014 99.7749 18.6018ZM98.0308 18.6018C98.0308 17.2133 97.0733 16.2056 95.7532 16.2056C94.4241 16.2056 93.4597 17.2133 93.4597 18.6018C93.4597 19.9902 94.4241 20.9979 95.7532 20.9979C97.0733 20.9979 98.0308 19.9902 98.0308 18.6018ZM76.8691 18.3943C76.8691 18.3943 77.0287 20.8543 74.3384 20.8543C71.6482 20.8543 71.8101 18.3806 71.8101 18.3806V12.0426H69.9611V18.3213C69.9611 20.9477 71.6801 22.6371 74.3384 22.6371C76.9968 22.6371 78.7158 20.9477 78.7158 18.335V12.0426H76.8668V18.3943H76.8691ZM89.495 10.9414C89.1425 10.9414 88.8044 11.0814 88.5551 11.3307C88.3059 11.58 88.1658 11.9181 88.1658 12.2706C88.1658 12.6057 88.2912 12.9135 88.4964 13.146H90.4936C90.6988 12.9112 90.8242 12.6057 90.8242 12.2706C90.8242 11.9181 90.6841 11.58 90.4349 11.3307C90.1856 11.0814 89.8475 10.9414 89.495 10.9414ZM59.0041 14.5824C58.4774 14.6507 57.9257 14.8286 57.4332 15.223V14.653H55.6823V22.5505H57.4332V17.7491C57.4332 17.5872 57.4606 17.4276 57.5221 17.2772C57.6726 16.9169 57.9622 16.5385 58.3862 16.3561C58.6712 16.233 58.9425 16.1919 59.175 16.1919C59.4281 16.1919 59.7997 16.233 60.0596 16.3675V14.6804C60.0574 14.6804 59.5307 14.514 59.0041 14.5824ZM23.5248 12.0449L21.5231 19.5183L19.1201 12.0449H17.2369L14.8339 19.5183L12.8299 12.0426H10.9878L13.8057 22.5505H15.6478L18.1808 14.7579L20.7114 22.5505H22.5536L25.3692 12.0449H23.5248ZM29.1857 22.6371C26.883 22.6303 25.1594 20.9067 25.1549 18.604C25.1549 18.0956 25.2415 17.5849 25.4193 17.1084C25.6907 16.388 26.1717 15.7519 26.7987 15.3028C27.4826 14.8149 28.3216 14.5664 29.1583 14.5664C30.2663 14.5664 31.1623 14.9517 31.8075 15.6425C32.2498 16.119 32.5485 16.7231 32.7218 17.3456C32.8768 17.9041 32.8927 18.465 32.8927 19.0418H26.883L26.9172 19.2128C27.1384 20.2729 28.0458 20.9842 29.1857 20.9865C30.1706 20.9842 30.8158 20.5214 31.1555 20.1794L32.3547 21.2966C31.6274 22.1287 30.4419 22.6348 29.1857 22.6371ZM31.0939 17.7742C31.0164 17.2658 30.7725 16.7961 30.3667 16.4952C29.9266 16.1691 29.498 16.1076 29.0329 16.1076C28.3877 16.1076 27.8018 16.4131 27.396 16.885C27.0723 17.2589 26.9263 17.7719 26.9263 17.7719H31.0939V17.7742ZM50.6301 22.6371C48.3274 22.6303 46.6039 20.9067 46.5993 18.604C46.5993 18.0956 46.6859 17.5849 46.8638 17.1084C47.1351 16.388 47.6161 15.7519 48.2431 15.3028C48.9271 14.8149 49.766 14.5664 50.6028 14.5664C51.7108 14.5664 52.6068 14.9517 53.252 15.6425C53.6943 16.119 53.9929 16.7231 54.1662 17.3456C54.3212 17.9041 54.3372 18.465 54.3372 19.0418H48.3274L48.3616 19.2128C48.5828 20.2729 49.4902 20.9842 50.6301 20.9865C51.615 20.9842 52.2602 20.5214 52.5999 20.1794L53.7991 21.2966C53.0696 22.1287 51.8863 22.6348 50.6301 22.6371ZM52.5361 17.7742C52.4586 17.2658 52.2146 16.7961 51.8088 16.4952C51.3688 16.1691 50.9402 16.1076 50.4751 16.1076C49.8299 16.1076 49.2439 16.4131 48.8381 16.885C48.5144 17.2589 48.3685 17.7719 48.3685 17.7719H52.5361V17.7742ZM37.1994 17.7172C36.4379 17.5371 35.8999 17.3433 35.8908 16.8941C35.8794 16.2923 36.4083 16.1099 37.3248 16.1099C37.7033 16.1099 38.9048 16.1076 38.9048 16.1076V14.6507L37.3408 14.653C35.966 14.653 34.2379 14.9494 34.2379 17.0013C34.2538 17.9224 34.8808 18.636 36.0481 19.003C36.3171 19.0874 36.5907 19.1512 36.8552 19.215C37.6668 19.4088 38.3667 19.6049 38.3758 20.2091C38.3849 20.7562 37.6554 21.0845 37.0444 21.0959C35.9683 21.0959 35.257 20.4758 35.0335 20.2501L33.8913 21.3148C33.8913 21.3148 34.8899 22.6326 37.1128 22.6326C38.5696 22.6326 40.0584 21.6887 40.0333 20.1475C40.0059 18.6223 38.5856 18.0478 37.1994 17.7172ZM83.996 14.5664C83.3758 14.5664 82.6508 14.6713 82.017 15.1341V14.653H80.2661V22.5505H82.017V17.781C82.017 17.0765 82.5824 16.233 83.6927 16.233C84.6662 16.233 85.3228 16.8941 85.3228 17.879V22.5505H87.0738V17.765C87.0738 15.8089 85.8198 14.5664 83.996 14.5664ZM65.3375 14.5664C64.7174 14.5664 63.9924 14.6713 63.3586 15.1341V14.653H61.6077V22.5505H63.3586V17.781C63.3586 17.0765 63.924 16.233 65.0343 16.233C66.0078 16.233 66.6644 16.8941 66.6644 17.879V22.5505H68.4153V17.765C68.4153 15.8089 67.1614 14.5664 65.3375 14.5664ZM104.85 14.5664C104.23 14.5664 103.505 14.6713 102.871 15.1341V14.653H101.12V22.5505H102.871V17.781C102.871 17.0765 103.436 16.233 104.547 16.233C105.52 16.233 106.177 16.8941 106.177 17.879V22.5505H107.928V17.765C107.928 15.8089 106.676 14.5664 104.85 14.5664Z" fill="#FFE500"/>
<path d="M127.965 12.0449L125.106 22.5505H123.032L120.866 15.5856L118.7 22.5505H116.639L113.752 12.0449H116L117.767 18.693L119.833 12.0449H121.912L124.014 18.7432L125.742 12.0449H127.965ZM134.57 12.0449V18.5311C134.57 18.5403 134.616 19.4203 134.048 20.0245C133.678 20.4166 133.124 20.6149 132.399 20.6149C131.674 20.6149 131.12 20.4166 130.751 20.0245C130.183 19.4203 130.229 18.5403 130.229 18.5311V12.0449H129.297L127.965 16.9375V18.4582C127.965 19.7532 128.385 20.8498 129.178 21.6318C129.971 22.4115 131.084 22.8241 132.399 22.8241C133.713 22.8241 134.828 22.4115 135.621 21.6318C136.414 20.852 136.834 19.7532 136.834 18.4582V12.0449H134.57Z" fill="#FFE500"/>
<path d="M112.567 22.5505L109.681 12.0449H110.418L113.306 22.5505H112.567ZM115.342 22.5505L112.456 12.0449H111.719L114.603 22.5505H115.342Z" fill="white"/>
</svg>
