<svg width="30" height="18" viewBox="0 0 30 18" fill="none" xmlns="http://www.w3.org/2000/svg">
<path fill-rule="evenodd" clip-rule="evenodd" d="M20.3633 0.367209C20.4794 0.250809 20.6173 0.158457 20.7692 0.0954456C20.921 0.0324338 21.0838 0 21.2482 0C21.4127 0 21.5754 0.0324338 21.7273 0.0954456C21.8791 0.158457 22.0171 0.250809 22.1332 0.367209L29.6327 7.8667C29.7491 7.98281 29.8414 8.12074 29.9044 8.27259C29.9675 8.42444 29.9999 8.58723 29.9999 8.75164C29.9999 8.91605 29.9675 9.07884 29.9044 9.23069C29.8414 9.38254 29.7491 9.52048 29.6327 9.63658L22.1332 17.1361C21.8985 17.3708 21.5802 17.5026 21.2482 17.5026C20.9163 17.5026 20.598 17.3708 20.3633 17.1361C20.1286 16.9014 19.9967 16.583 19.9967 16.2511C19.9967 15.9192 20.1286 15.6009 20.3633 15.3662L26.9804 8.75164L20.3633 2.13709C20.2469 2.02098 20.1546 1.88305 20.0915 1.7312C20.0285 1.57935 19.9961 1.41656 19.9961 1.25215C19.9961 1.08774 20.0285 0.92495 20.0915 0.773097C20.1546 0.621245 20.2469 0.483315 20.3633 0.367209Z" fill="white"/>
<path fill-rule="evenodd" clip-rule="evenodd" d="M0 8.74992C0 8.41842 0.131687 8.1005 0.366092 7.86609C0.600497 7.63169 0.918417 7.5 1.24992 7.5H27.4981C27.8296 7.5 28.1476 7.63169 28.382 7.86609C28.6164 8.1005 28.7481 8.41842 28.7481 8.74992C28.7481 9.08141 28.6164 9.39934 28.382 9.63374C28.1476 9.86814 27.8296 9.99983 27.4981 9.99983H1.24992C0.918417 9.99983 0.600497 9.86814 0.366092 9.63374C0.131687 9.39934 0 9.08141 0 8.74992Z" fill="white"/>
</svg>
