<svg width="50" height="50" viewBox="0 0 50 50" fill="none" xmlns="http://www.w3.org/2000/svg">
<circle cx="25" cy="25" r="25" fill="#FFF5F5"/>
<path d="M12.8926 14.7857H14.2319C13.964 15.6786 13.7854 16.5714 13.7854 17.4643C13.7854 21.9286 17.3569 25.5 21.8211 25.5C26.2854 25.5 29.8569 21.9286 29.8569 17.4643C29.8569 16.5714 29.6783 15.6786 29.4104 14.7857H30.7497C31.1961 14.7857 31.6426 14.3393 31.6426 13.8929C31.6426 13.4464 31.1961 13 30.7497 13H12.8926C12.4462 13 11.9997 13.4464 11.9997 13.8929C11.9997 14.3393 12.4462 14.7857 12.8926 14.7857ZM22.5354 17.4643H21.0176C19.6783 17.4643 18.6069 16.3929 18.6069 15.0536V14.7857H20.4819C20.3926 14.875 20.3926 14.9643 20.3926 15.0536C20.3926 15.4107 20.6604 15.6786 21.0176 15.6786H22.5354C23.8747 15.6786 24.9461 16.75 24.9461 18.0893C24.9461 19.3393 23.964 20.4107 22.714 20.4107V21.0357C22.714 21.4821 22.2676 21.9286 21.8211 21.9286C21.3747 21.9286 20.9283 21.4821 20.9283 21.0357V20.4107H19.589C19.1426 20.4107 18.6962 20.0536 18.6962 19.5179C18.6962 19.0714 19.1426 18.625 19.589 18.625H22.5354C22.8926 18.625 23.1604 18.3571 23.1604 18C23.1604 17.7321 22.8926 17.4643 22.5354 17.4643Z" fill="#EC575E"/>
<path d="M30.3033 26.661L29.9461 26.5717C29.2319 26.3931 28.5176 26.4824 27.8926 26.9289L24.8569 28.8039C24.2319 29.161 24.1426 30.1431 24.7676 30.5896C24.8569 30.7681 25.1247 30.8574 25.3926 30.8574H28.0711C28.5176 30.8574 28.964 31.3039 28.964 31.7503C28.964 32.1967 28.5176 32.6431 28.0711 32.6431H24.3211L23.339 31.8396L21.9104 30.6789L18.7854 28.0896L18.4283 27.8217L17.714 27.1967C17.089 26.661 16.1962 26.4824 15.3926 26.661L12.714 27.3753C12.3569 27.4646 12.1783 27.7324 12.089 28.0003C11.9997 28.2681 12.089 28.6253 12.3569 28.8931L19.8569 36.3931C20.3033 36.8396 20.9283 37.1074 21.6426 37.1074H29.8569C30.839 37.1074 31.6426 36.3039 31.6426 35.3217V28.4467C31.6426 27.6431 31.1069 26.9289 30.3033 26.661Z" fill="#EC575E"/>
<path d="M35.2143 38C36.1964 38 37 37.1964 37 36.2143V28.1786C37 27.1964 36.1964 26.3929 35.2143 26.3929C34.2321 26.3929 33.4286 27.1964 33.4286 28.1786V36.2143C33.4286 37.1964 34.2321 38 35.2143 38Z" fill="#EC575E"/>
</svg>
