<svg width="14" height="30" viewBox="0 0 14 30" fill="none" xmlns="http://www.w3.org/2000/svg">
<path d="M7.00004 8.34737e-08C7.31477 7.97205e-08 7.61109 0.148329 7.79993 0.400117L13.8 8.40005C14.0273 8.70307 14.0638 9.10853 13.8944 9.4474C13.725 9.78624 13.3788 10.0002 13 10.0002L8.00012 10.0002L8.00012 28.9997C8.00012 29.5522 7.55213 29.9999 7 29.9999C6.44788 29.9999 5.99988 29.5522 5.99988 28.9997L5.99988 10.0002L0.999967 10.0002C0.621279 10.0002 0.275078 9.78624 0.10562 9.4474C-0.0638043 9.10856 -0.0273075 8.70309 0.200042 8.40005L6.20008 0.400117C6.38892 0.148329 6.68524 8.72276e-08 6.99997 8.34745e-08L7.00004 8.34737e-08Z" fill="white"/>
</svg>
