<svg width="72" height="72" viewBox="0 0 72 72" fill="none" xmlns="http://www.w3.org/2000/svg">
<path d="M36.0081 70.9204C55.329 70.9204 70.9917 55.2577 70.9917 35.9368C70.9917 16.6158 55.329 0.953125 36.0081 0.953125C16.6871 0.953125 1.02441 16.6158 1.02441 35.9368C1.02441 55.2577 16.6871 70.9204 36.0081 70.9204Z" fill="#F0F3EE" stroke="#000080" stroke-width="0.4" stroke-miterlimit="10"/>
<path d="M34.7405 19.7173L38.0555 21.1978L38.9566 22.6783L40.4371 23.2576L40.598 24.8346L40.0187 25.7357L38.8601 25.9932L36.3819 24.9955V24.6737L37.798 24.0943L37.3152 22.3564L35.0623 21.5196L34.0646 20.2001L34.7405 19.7173ZM55.6601 58.0806L52.9888 56.9864L49.7382 55.8278H47.1635L44.7497 55.345L42.0785 55.9243L40.598 56.0209H39.6968L37.9589 57.0186L36.2853 57.6944L34.0325 56.2783L34.6118 53.9611L33.1957 53.3818H31.5221L31.2646 52.6415L31.4256 51.1611L30.8462 50.3243L29.6876 50.4852L29.3658 51.322L27.9497 51.4186L26.6945 49.9381L26.2117 47.9427L27.4669 45.6254L29.8807 45.7864L30.5566 46.3657H31.5543L32.8095 45.6254L33.9037 45.9473L35.3842 48.522L35.9635 48.4254L35.8026 46.5266L35.3198 45.5289L35.4807 43.9519L38.5382 42.6323L38.9566 39.5748L40.2762 38.4806L41.3704 36.5817L42.2072 36.4208L44.1061 35.1656L44.2026 34.4898L42.8831 34.5863L42.6256 33.9105H41.7244L40.3083 34.2323L40.9842 33.1381L43.8808 32.3013L44.5566 31.561L45.7152 33.3955L46.4555 34.1358L47.6141 33.8139L47.1313 32.7197L45.3934 31.4645L43.398 29.2116L41.3382 27.7955L39.3428 27.4737L38.3451 26.476L37.0256 26.1541L36.8647 26.476L36.7037 28.8898L37.0256 29.7265L36.2853 32.3978L34.6118 31.0783L34.8692 29.9197L33.1313 29.0829L32.3911 28.1817L32.8095 26.1219L35.2233 24.384L35.3842 22.3886L34.483 22.4851L33.9037 21.7449L33.6463 20.4897L33.0669 20.3932L32.7451 21.7127L31.8439 21.8737L31.4256 18.9771L30.7497 18.5587L29.5911 18.0759L28.2715 18.7518L29.9451 20.3288L30.2669 21.7449L27.2738 19.492L25.214 17.2392L25.0531 14.9863L22.8968 14.3104L21.2232 15.4047C21.2232 15.4047 20.3864 15.8874 19.9681 16.0805C19.5497 16.2415 17.9726 16.4024 17.9726 16.4024L17.6508 17.8185L15.752 17.915L15.9129 18.8162L18.9704 19.2989L20.5474 21.0369V23.9334L19.6462 26.5081L19.8071 29.2438L17.4899 33.299L17.0071 39.3496L17.7474 42.8254L18.8416 45.4967L20.0968 45.6576L19.5497 44.3059L18.8738 43.3082L18.4554 41.4737L19.1956 41.3128L20.3543 44.3059L21.191 46.9772V49.1335L22.7681 51.0323L25.6003 53.0921L29.9129 54.2507L31.2325 55.5059L32.2302 56.8255L33.7106 57.7266L35.5451 58.2094L37.3796 58.1128C37.3796 58.1128 37.283 58.9496 37.283 59.368C37.283 59.7864 36.1244 61.2025 36.1244 61.2025L35.2233 62.8761L35.8991 64.7105L37.7336 65.4508L40.3083 68.122L41.467 68.6048V69.86L41.6279 70.4393C48.2256 69.3772 54.2118 66.4485 59.0394 62.2324L59.0716 61.6209L61.3245 57.5657L60.2302 56.8255L55.6601 58.0806ZM64.2854 25.2852L63.3843 23.7081L62.2256 21.8737L61.9038 19.3955L63.3843 19.653L63.4808 18.8162L62.3866 18.7196L63.2877 18.3012L64.2854 17.7219V16.8851L63.2877 15.5656L63.0624 13.7633C56.6578 5.91039 46.9061 0.921875 35.9635 0.921875C31.0072 0.921875 26.2761 1.95176 21.9956 3.81843L23.8945 5.17016L22.7359 6.65062L21.1589 6.97246L20.9979 9.22534L20.3221 9.48282L19.4853 10.384L19.5818 11.8644L20.9979 12.0254L20.4186 13.4414H21.8347L24.2485 10.384L24.506 9.06442L26.8232 8.9035L27.4026 7.9058L29.8164 7.64833L30.0738 6.23223L31.8118 6.13568C31.8118 6.13568 33.0669 5.45982 33.2922 5.45982C33.5497 5.45982 34.7083 5.87821 34.7083 5.87821L35.9635 6.87591H37.7014L39.1819 5.97476L41.0808 6.13568C41.0808 6.13568 41.5635 6.45752 41.9819 6.45752C42.4003 6.45752 43.6555 5.87821 43.6555 5.87821L46.0693 7.35867L47.067 8.0989V9.35408L48.3221 9.515L48.7405 8.77477L49.8348 9.25753L49.7382 9.93339L47.2601 10.6093L48.6762 12.4437L51.6693 14.1173L52.9245 15.7909L54.7589 15.9518L55.1773 15.115L55.8532 14.9541L53.6969 13.2805L52.3773 13.1196L53.4716 12.7978L52.4739 11.3817L53.89 11.2851L55.7245 12.2828L56.1429 14.2782L57.044 15.3725L57.7842 17.7863L59.6187 19.1058V21.8415L61.5176 23.0966L61.421 23.9978L61.1636 25.0921L61.6463 26.5725L61.8072 27.3127L63.2233 27.5702L63.8992 26.1541L64.2854 25.2852ZM65.3797 16.9173V17.4001L64.9613 18.7196L65.2187 19.8782L66.1199 20.2001V21.7771L65.1222 21.3587L64.8647 25.8323L63.867 27.6668L64.5429 29.984L65.6371 30.9817V35.4553L66.7314 38.9312L67.89 41.6024L69.7889 42.0852L70.4647 40.4116L70.7222 40.1863C70.8831 38.7702 70.9797 37.322 70.9797 35.8415C70.9797 28.9219 68.9199 22.3886 65.3797 16.9173ZM46.198 16.4024L40.7267 13.9886L38.3129 14.0851L37.7336 15.6621L36.7359 14.5679L34.9014 14.9863L34.7405 17.7219L36.221 18.8162L37.3152 17.2392L38.5704 18.4943L41.1451 20.7472L41.6279 23.161L43.7842 25.8967L47.2601 25.3173L47.1635 24.0622L46.4233 22.6461L46.2624 19.3311L47.0992 17.915L46.198 16.4024ZM50.6716 18.2369L49.4164 17.915L48.3221 18.8162L48.9015 21.23H49.9957L50.6716 18.2369ZM58.3957 19.8139L55.5635 18.3334L54.9842 17.3357L54.3084 17.5932L54.8877 19.2667L55.3704 21.4231L56.6256 21.9058L56.8831 21.584L56.1429 20.3288L58.2992 21.1656L58.3957 19.8139ZM34.1612 49.7772L33.8394 50.099L36.3175 50.8392L37.3152 51.9979L38.8922 52.1588L39.4716 51.2576L37.5727 50.9358L34.1612 49.7772ZM41.5635 51.3542L39.8256 51.8369L40.0831 52.5128H42.2394L42.6578 51.8369L41.9175 51.9335L41.5635 51.3542Z" fill="#000000" stroke="#000080" stroke-width="0.4" stroke-miterlimit="10"/>
</svg>
