<svg width="30" height="31" viewBox="0 0 30 31" fill="none" xmlns="http://www.w3.org/2000/svg">
<g clip-path="url(#clip0_2990:1554)">
<path d="M18.1299 3.15039V9.74593C18.1299 10.3155 18.1744 10.7338 18.2637 11.0015C18.4087 11.4149 18.7381 11.621 19.2513 11.621C19.809 11.621 20.3839 11.2758 20.9753 10.5832V11.5039H22.499V3.15039H20.9757V9.52837C20.6407 10.009 20.323 10.2483 20.0214 10.2483C19.8205 10.2483 19.7032 10.126 19.6699 9.8801C19.6587 9.85802 19.6531 9.66222 19.6531 9.29434V3.15039H18.1299Z" fill="white"/>
<path d="M14.6486 11.62C15.4187 11.62 16.0101 11.3355 16.4231 10.7665C16.7356 10.3537 16.8919 9.69483 16.8919 8.79095V5.86137C16.8919 4.96869 16.7356 4.31602 16.4231 3.90294C16.0101 3.33334 15.4187 3.04883 14.6486 3.04883C13.9007 3.04883 13.3149 3.33334 12.8906 3.90294C12.5781 4.31634 12.4219 4.96901 12.4219 5.86137V8.79095C12.4219 9.68428 12.5781 10.3429 12.8906 10.7665C13.3146 11.3355 13.9006 11.62 14.6486 11.62ZM13.9287 5.55978C13.9287 4.79002 14.1687 4.40506 14.6486 4.40506C15.1282 4.40506 15.3685 4.79007 15.3685 5.55978V9.07546C15.3685 9.85707 15.1282 10.2474 14.6486 10.2474C14.1686 10.2474 13.9287 9.85707 13.9287 9.07546V5.55978Z" fill="white"/>
<path d="M10.3794 11.5036V6.967L12.405 0.287109H10.6975L9.55922 4.69019L8.37018 0.287109H6.5957C6.90822 1.22498 7.27083 2.26864 7.68385 3.41744C8.20832 4.95821 8.54852 6.14095 8.70511 6.96705V11.5033H10.3793V11.5036H10.3794Z" fill="white"/>
<path d="M26.0067 14.1315C25.51 13.6855 24.938 13.4234 24.291 13.3447C22.2373 13.1219 19.1403 13.0098 14.9999 13.0098C10.8593 13.0098 7.76784 13.1215 5.72538 13.3447C5.06674 13.4232 4.49218 13.6855 4.001 14.1315C3.50981 14.5789 3.18615 15.1307 3.02989 15.7893C2.73946 17.0841 2.59473 19.0366 2.59473 21.6487C2.59473 24.305 2.73978 26.2578 3.02989 27.5082C3.17489 28.1661 3.49565 28.7186 3.99243 29.1653C4.48889 29.612 5.06082 29.8684 5.7082 29.9357C7.76159 30.1697 10.8586 30.2868 14.9996 30.2868C19.1403 30.2868 22.2373 30.1697 24.2906 29.9357C24.9378 29.8684 25.507 29.612 25.9982 29.1653C26.489 28.7186 26.8127 28.1661 26.9693 27.5082C27.2594 26.2133 27.4044 24.2601 27.4044 21.6487C27.4044 18.9924 27.2594 17.0396 26.9693 15.7893C26.824 15.1307 26.5032 14.5789 26.0067 14.1315ZM9.67611 17.4797H7.88483V27.0055H6.21086V17.4797H4.45323V15.9063H9.67649V17.4797H9.67611V17.4797ZM14.1959 27.0055H12.7059V26.1009C12.1033 26.7817 11.534 27.1225 10.9983 27.1225C10.4847 27.1225 10.1613 26.9158 10.0272 26.5031C9.93784 26.2351 9.89335 25.8284 9.89335 25.2808V18.735H11.3834V24.8292C11.3834 25.1862 11.389 25.3817 11.4002 25.415C11.4338 25.649 11.5508 25.7661 11.7519 25.7661C12.0532 25.7661 12.3713 25.532 12.7063 25.0629V18.735H14.1962V27.0055H14.1959V27.0055ZM19.8879 24.5279C19.8879 25.3427 19.8377 25.9005 19.7372 26.2018C19.5474 26.8153 19.1514 27.1225 18.5485 27.1225C18.0129 27.1225 17.494 26.8153 16.9916 26.2018V27.0055H15.5016V15.9063H16.9916V19.539C17.4712 18.9367 17.9904 18.6351 18.5485 18.6351C19.1511 18.6351 19.5474 18.9476 19.7372 19.5723C19.8377 19.8627 19.8879 20.4151 19.8879 21.23V24.5279ZM25.5463 23.1552H22.5498V24.6116C22.5498 25.382 22.8062 25.7663 23.3198 25.7663C23.688 25.7663 23.9112 25.5656 23.9893 25.1641C24.0114 25.0523 24.0229 24.7121 24.0229 24.1425H25.5463V24.3604C25.5463 24.9076 25.5351 25.2307 25.5126 25.3315C25.479 25.6332 25.3619 25.9338 25.1612 26.2354C24.7594 26.8265 24.1568 27.1228 23.3531 27.1228C22.5831 27.1228 21.9802 26.8383 21.5451 26.2687C21.2213 25.856 21.0595 25.2092 21.0595 24.3271V21.4308C21.0595 20.5494 21.2157 19.9019 21.5282 19.4885C21.9634 18.9196 22.5603 18.6351 23.3195 18.6351C24.0672 18.6351 24.6589 18.9195 25.094 19.4885C25.3953 19.9019 25.5459 20.5493 25.5459 21.4308V23.1552H25.5463V23.1552Z" fill="white"/>
<path d="M23.303 19.9902C22.8006 19.9902 22.5498 20.37 22.5498 21.1289V21.8993H24.0566V21.1289C24.0562 20.3703 23.8054 19.9902 23.303 19.9902Z" fill="white"/>
<path d="M17.7454 19.9902C17.4886 19.9902 17.2374 20.1132 16.9922 20.3591V25.3977C17.2375 25.6436 17.4886 25.766 17.7454 25.766C18.1805 25.766 18.3985 25.3925 18.3985 24.6445V21.1124C18.3981 20.3644 18.1805 19.9902 17.7454 19.9902Z" fill="white"/>
</g>
<defs>
<clipPath id="clip0_2990:1554">
<rect width="30" height="30" fill="white" transform="translate(0 0.287109)"/>
</clipPath>
</defs>
</svg>
